<svg id="Layer_1" data-name="Layer 1" xmlns="http://www.w3.org/2000/svg" width="36" height="36" viewBox="0 0 36 36"><defs><style>.cls-1{fill:#fff;}</style></defs><title>Artboard 1</title><path class="cls-1" d="M31.77,23.72a8.25,8.25,0,0,1-2.24,5.81,8.25,8.25,0,0,1-5.81,2.24c-1.91.11-3.81.09-5.72.09s-3.81,0-5.72-.09a8.25,8.25,0,0,1-5.81-2.24,8.25,8.25,0,0,1-2.24-5.81c-.11-1.91-.09-3.81-.09-5.72s0-3.81.09-5.72A8.24,8.24,0,0,1,6.47,6.47a8.24,8.24,0,0,1,5.81-2.24c1.91-.11,3.81-.09,5.72-.09s3.81,0,5.72.09a8.25,8.25,0,0,1,5.81,2.24,8.25,8.25,0,0,1,2.24,5.81c.11,1.91.09,3.81.09,5.72S31.88,21.81,31.77,23.72ZM9.82,7.19A4.73,4.73,0,0,0,7.19,9.82C6.47,11.65,6.63,16,6.63,18s-.16,6.35.56,8.18a4.73,4.73,0,0,0,2.64,2.63c1.82.72,6.16.56,8.18.56s6.35.16,8.18-.56a4.73,4.73,0,0,0,2.64-2.63c.72-1.82.56-6.16.56-8.18s.16-6.35-.56-8.18a4.72,4.72,0,0,0-2.64-2.64C24.35,6.47,20,6.63,18,6.63S11.65,6.47,9.82,7.19ZM18,25.11A7.11,7.11,0,1,1,25.11,18,7.1,7.1,0,0,1,18,25.11Zm0-11.73A4.62,4.62,0,1,0,22.62,18,4.63,4.63,0,0,0,18,13.38Zm7.4-1.12a1.66,1.66,0,1,1,1.66-1.66A1.66,1.66,0,0,1,25.4,12.26Z"/></svg>