<svg id="Layer_1" data-name="Layer 1" xmlns="http://www.w3.org/2000/svg" width="36" height="36" viewBox="0 0 36 36"><defs><style>.cls-1{fill:#fff;}</style></defs><title>Artboard 1</title><path class="cls-1" d="M30.91,31.18A3.37,3.37,0,0,1,28,33.79a88.4,88.4,0,0,1-10,.38,88.4,88.4,0,0,1-10-.38,3.35,3.35,0,0,1-2.89-2.62,28.44,28.44,0,0,1-.47-6.32,29.47,29.47,0,0,1,.47-6.32A3.42,3.42,0,0,1,8,15.91a92.18,92.18,0,0,1,10-.36,92.67,92.67,0,0,1,10,.36,3.39,3.39,0,0,1,2.89,2.64,28.33,28.33,0,0,1,.47,6.32A29.56,29.56,0,0,1,30.91,31.18ZM12.26,20.36v-1.7H6.63v1.7h1.9V30.64h1.81V20.36ZM15.2,1.83,13,9v4.89H11.21V9a28.71,28.71,0,0,0-1.1-3.83c-.4-1.12-.79-2.26-1.17-3.38h1.91l1.28,4.75,1.23-4.75Zm1.93,28.81V21.72H15.53v6.82q-.54.76-1,.76-.33,0-.38-.38a4.15,4.15,0,0,1,0-.63V21.72H12.49v7.06a4.4,4.4,0,0,0,.14,1.32,1,1,0,0,0,1,.67,2.62,2.62,0,0,0,1.84-1.1v1ZM20,11a3.56,3.56,0,0,1-.51,2.13,2.23,2.23,0,0,1-1.91.92,2.22,2.22,0,0,1-1.9-.92A3.6,3.6,0,0,1,15.22,11V7.84a3.5,3.5,0,0,1,.51-2.11,2.22,2.22,0,0,1,1.9-.92,2.23,2.23,0,0,1,1.91.92A3.5,3.5,0,0,1,20,7.84ZM18.4,7.51c0-.83-.23-1.25-.78-1.25s-.78.42-.78,1.25V11.3c0,.83.25,1.26.78,1.26s.78-.43.78-1.26Zm4.87,16.9a6.2,6.2,0,0,0-.16-1.79,1.27,1.27,0,0,0-1.28-1,2.2,2.2,0,0,0-1.68,1V18.67H18.54v12h1.61v-.87a2.22,2.22,0,0,0,1.68,1,1.27,1.27,0,0,0,1.28-1,6.42,6.42,0,0,0,.16-1.8Zm-1.61,3.68c0,.81-.23,1.21-.7,1.21a1.16,1.16,0,0,1-.81-.4V23.47a1.16,1.16,0,0,1,.81-.4c.47,0,.7.42.7,1.21Zm4.42-14.17H24.44v-1A2.59,2.59,0,0,1,22.58,14a1,1,0,0,1-1.07-.67A4.61,4.61,0,0,1,21.38,12V4.91H23v6.62a4.11,4.11,0,0,0,0,.63c0,.25.16.4.38.4s.67-.25,1-.78V4.91h1.64Zm3.29,13.63H27.73a9.39,9.39,0,0,1,0,1.1.69.69,0,0,1-.72.65c-.56,0-.83-.42-.83-1.25V26.48h3.23V24.63a3.58,3.58,0,0,0-.49-2.09,2.47,2.47,0,0,0-3.84,0,3.44,3.44,0,0,0-.51,2.09v3.12a3.4,3.4,0,0,0,.52,2.09,2.3,2.3,0,0,0,2,.92,2.23,2.23,0,0,0,1.95-1,2.09,2.09,0,0,0,.38-1,7,7,0,0,0,0-1Zm-1.61-2.42H26.14V24.3c0-.81.27-1.23.81-1.23s.81.42.81,1.23Z"/></svg>