<svg id="Layer_1" data-name="Layer 1" xmlns="http://www.w3.org/2000/svg" width="36" height="36" viewBox="0 0 36 36"><defs><style>.cls-1{fill:#fff;}</style></defs><title>Artboard 1</title><path class="cls-1" d="M7.46,10.92h0A3.07,3.07,0,0,1,4.14,7.84,3.1,3.1,0,0,1,7.49,4.75a3.1,3.1,0,1,1,0,6.17Zm3,20.33h-6V13.36h6Zm21.43,0H25.92V21.68c0-2.4-.87-4-3-4a3.26,3.26,0,0,0-3.05,2.17,4.48,4.48,0,0,0-.2,1.46v10H13.72c.07-16.21,0-17.89,0-17.89h5.94V16h0a5.89,5.89,0,0,1,5.4-3c3.92,0,6.84,2.56,6.84,8.05Z"/></svg>