<svg id="Layer_1" data-name="Layer 1" xmlns="http://www.w3.org/2000/svg" width="36" height="36" viewBox="0 0 36 36"><defs><style>.cls-1{fill:#fff;}</style></defs><title>Artboard 1</title><path class="cls-1" d="M29.3,12.21c0,.25,0,.51,0,.76,0,7.71-5.87,16.59-16.59,16.59a16.48,16.48,0,0,1-9-2.62A12.15,12.15,0,0,0,5.18,27a11.68,11.68,0,0,0,7.24-2.49,5.84,5.84,0,0,1-5.45-4,7.34,7.34,0,0,0,1.1.09,6.16,6.16,0,0,0,1.53-.2,5.83,5.83,0,0,1-4.68-5.72v-.07a5.87,5.87,0,0,0,2.64.74,5.84,5.84,0,0,1-1.81-7.8,16.57,16.57,0,0,0,12,6.1,6.62,6.62,0,0,1-.14-1.34,5.84,5.84,0,0,1,10.09-4,11.48,11.48,0,0,0,3.7-1.41,5.81,5.81,0,0,1-2.56,3.21,11.7,11.7,0,0,0,3.36-.9A12.54,12.54,0,0,1,29.3,12.21Z"/></svg>