<svg id="Layer_1" data-name="Layer 1" xmlns="http://www.w3.org/2000/svg" width="11in" height="8.5in" viewBox="0 0 792 612"><defs><style>.cls-1{fill:#c5c6c8;}.cls-2{fill:#231f20;}.cls-3{fill:#005747;}.cls-4{fill:#fff;}.cls-5{fill:none;}</style></defs><title>Artboard 1</title><path class="cls-1" d="M585.09,268.39l-.77,3.62a36.59,36.59,0,0,0-3.88-1.64A49.41,49.41,0,0,0,564,267.72c-11.58,0-21.8,3.14-30.39,9.32l-.12-.11c-7.09-6.21-16.31-9.36-27.4-9.36a55.77,55.77,0,0,0-8.42.68,64.06,64.06,0,0,0-6.34,1.26l.24-1.13H411.51l-3.2.3H392.22l.17-.3H294.24l-4.58.3H273.94l.06-.3H258.84a115.53,115.53,0,0,1,17.06-16.91c26.17-21.54,66.7-41.55,114.65-58.17C330.45,209.57,279,230.58,247.87,253.54a111.29,111.29,0,0,0-16.79,14.85H199.55l-.27,1.29a49.32,49.32,0,0,0-22.79-1.42,56.5,56.5,0,0,0-8.4,1.85,47.55,47.55,0,0,0-15,7.68c-5.79,4.51-9.53,9.84-11.11,15.85l-.53,2a29.09,29.09,0,0,0-.94,7.32c0,.71,0,1.44.09,2.16l-7.28,1.18v13.4A27.13,27.13,0,0,0,141,339c7.43,7.75,18.22,11.69,32,11.69a64.67,64.67,0,0,0,13.55-1.45,52.72,52.72,0,0,0,9-2.78l-.71,3.34h34.73v0l110.06,0v0l98.46,0,0-.21,36.19.33.54-2.53a52.89,52.89,0,0,0,19.38,3.31,64.73,64.73,0,0,0,13.55-1.45,52.6,52.6,0,0,0,12.94-4.62,40.57,40.57,0,0,0,5.12-3.16,38.32,38.32,0,0,0,7.06,4.46,43.78,43.78,0,0,0,8.84,3.18q-1.74,1.52-3.61,3.07c-26.18,21.54-66.71,41.55-114.65,58.17C483.53,394.05,535,373,566.12,350.09c.65-.48,1.26-.95,1.88-1.42l-.23,1.1h47l0-.21,36.2.33,17.29-81.5Z"/><path class="cls-1" d="M755.16,208.45,581.77,186.91a337,337,0,0,0-41.34-2.34c-88.82,0-197.34,28.32-241.91,63.12-19.53,15.24-27.35,31.52-23.26,48.37,7.9,32.61,60.49,45.15,76.17,48.15a100.47,100.47,0,0,1,18.11,5.95c-23.29,15.29-89,30.67-159.71,37.12l-174,15.88,173.4,21.55A337.79,337.79,0,0,0,250.55,427c88.82,0,197.34-28.31,241.92-63.12,19.52-15.25,27.34-31.52,23.25-48.37-7.9-32.58-60.5-45.13-76.19-48.15a100.52,100.52,0,0,1-18.09-5.95c23.31-15.3,89-30.67,159.71-37.11Z"/><path class="cls-2" d="M411.09,253.75C433.86,236,501.75,219.23,580,212.09l60.42-5.51-60.21-7.49a326.75,326.75,0,0,0-39.82-2.24c-86.48,0-191.61,27.15-234.35,60.52-15.38,12-21.73,24-18.88,35.79,6.46,26.65,60,37.74,67,39.08,22.38,5.45,31.34,12.13,32.23,16.22.5,2.33-1.88,5.77-6.54,9.41-22.77,17.77-90.65,34.51-168.94,41.65L150.52,405l60.2,7.48a326.62,326.62,0,0,0,39.83,2.24c86.49,0,191.61-27.15,234.35-60.51,15.38-12,21.73-24,18.88-35.79-6.46-26.66-60.05-37.75-67-39.08-22.36-5.44-31.34-12.14-32.22-16.22C404,260.81,406.43,257.38,411.09,253.75Z"/><path class="cls-3" d="M435.38,285.75c-35.2-8.53-47.72-22-28.3-37.16,24.73-19.31,94.31-35.89,172.37-43a320.15,320.15,0,0,0-39-2.19c-85.38,0-188.5,26.48-230.33,59.13-56.41,44,45.51,63.33,45.51,63.33,35.18,8.54,47.71,22,28.3,37.16-24.73,19.31-94.3,35.89-172.37,43a318.32,318.32,0,0,0,39,2.19c85.38,0,188.5-26.47,230.33-59.13C537.29,305,435.38,285.75,435.38,285.75Z"/><path class="cls-4" d="M329.55,272.37a69.92,69.92,0,0,1,8.33-8c14.86-12.23,37.9-23.6,65.13-33-34.14,9.24-63.37,21.17-81.06,34.21a68.25,68.25,0,0,0-8,6.81Z"/><path class="cls-4" d="M454.5,346l-1.4,1.19c-14.87,12.23-37.9,23.6-65.14,33C422.1,371,451.33,359.1,469,346.05H454.5Z"/><path class="cls-5" d="M561.92,300.76l-.31,0a4,4,0,0,0-3,1.5c-.61.6-2.14,2.61-3.41,8.39a23,23,0,0,0-.6,4.8,6.23,6.23,0,0,0,.24,2,4,4,0,0,0,.66,0c2.73,0,4.81-3.21,6.17-9.53a23.71,23.71,0,0,0,.61-4.83,6.61,6.61,0,0,0-.35-2.3Z"/><path class="cls-2" d="M648.84,278.2H629.21l-1,4.71-2.07,9.7-5.69-11.16-1.65-3.24H593l-1,4.71-1.58,7.44a22.67,22.67,0,0,0-3.05-4.1,25.75,25.75,0,0,0-10.23-6.63A39.54,39.54,0,0,0,564,277.53c-10,0-18.63,2.79-25.75,8.28a40.5,40.5,0,0,0-4.94,4.48c-.39.41-.75.84-1.11,1.27a19.2,19.2,0,0,0-5.18-7.26c-5.25-4.6-12.3-6.93-20.94-6.93a46.08,46.08,0,0,0-6.92.57,46.84,46.84,0,0,0-7,1.51,38,38,0,0,0-11.94,6.07,27.56,27.56,0,0,0-2.74,2.45h-.14l.55-2.6,1.52-7.18h-27l-1,4.71L450.41,288h-3.35l-3.33-6.54-1.66-3.24H416.32l-.07.3h-41.1l.17-.3h-29l-1.7,3-9.14,16.41-2-14.34-.71-5.12H301.32l0,.3H261.85l.06-.3h-54.4l-1,4.72-.36,1.7-.33-.32c-5.26-4.6-12.3-6.92-20.94-6.92A45.91,45.91,0,0,0,178,278a47.47,47.47,0,0,0-7,1.51,37.92,37.92,0,0,0-11.94,6.07c-4,3.15-6.61,6.71-7.63,10.59l-.53,2a19,19,0,0,0-.62,4.84,14.09,14.09,0,0,0,3.76,9.9l-6,1-5,.81v5A17.56,17.56,0,0,0,148,332.18c5.51,5.75,13.91,8.66,25,8.66a54.33,54.33,0,0,0,11.48-1.23A42.68,42.68,0,0,0,195,335.88a30.51,30.51,0,0,0,8.65-6.61,20.75,20.75,0,0,0,5.13-10c0-.05.05-.28.23-1l.17-.69v-2.51a15.93,15.93,0,0,0-5.87-12.61l1-.24H215l-6.54,30.54L206.94,340h29.71l1-4.7,7-33h5.38l-6.48,30.59L242.05,340h57l1-4.72,2.48-11.77,1.51-7.17h-5.06l.19-.91,2.41-11.21.52-2.44h3.4L311.28,335l.86,4.91h26.94l1.72-2.93,18-30.66-5.6,26.46L351.67,340h57v0h21.46l1-4.69,2.7-12.58,3,5.65,4.19,8.23,1.63,3.22,3.6,0,15.22.14,4.86,0,1-4.75.89-4.19c.32.38.64.76,1,1.13,5.51,5.75,13.91,8.66,25,8.66a54.34,54.34,0,0,0,11.48-1.23,42.87,42.87,0,0,0,10.52-3.74,30.65,30.65,0,0,0,8.64-6.61c.55-.62,1.06-1.25,1.54-1.9a24.41,24.41,0,0,0,10.79,9.72,35.87,35.87,0,0,0,16,3.62A46,46,0,0,0,565.7,339a38.48,38.48,0,0,0,16.37-9.21l-.65,3L579.88,340h26.93l1-4.69,2.7-12.58,3,5.65,4.18,8.23,1.64,3.22,3.6,0,15.23.14,4.85,0,1-4.75,10.59-49.87,1.52-7.18ZM561.68,308c-1.36,6.32-3.45,9.53-6.17,9.53a4,4,0,0,1-.66,0,6.23,6.23,0,0,1-.24-2,23,23,0,0,1,.6-4.8c1.27-5.78,2.8-7.8,3.41-8.39a4,4,0,0,1,3-1.5l.31,0,0,.06a6.61,6.61,0,0,1,.35,2.3A23.71,23.71,0,0,1,561.68,308Z"/><path class="cls-4" d="M149,319.72l17.41-2.83a4.2,4.2,0,0,0,.88,2.56,6.93,6.93,0,0,0,2.27,2,13.25,13.25,0,0,0,6.58,1.7,15.51,15.51,0,0,0,5.42-1q2.34-.85,2.55-2.13v-.28q0-2-4.63-3.12L168.58,314a21.73,21.73,0,0,1-9.73-4.74,8.09,8.09,0,0,1-2.62-6.31,13,13,0,0,1,.42-3.32l.53-2q1-3.9,5.52-7.4a31.87,31.87,0,0,1,10.08-5.1,42.1,42.1,0,0,1,6.09-1.31,39.8,39.8,0,0,1,6-.5q10.8,0,17,5.45a13.51,13.51,0,0,1,4.21,6.87l-15.89,3.93a4.9,4.9,0,0,0-3.12-3.93,12.57,12.57,0,0,0-5.21-1,13.61,13.61,0,0,0-4.77.78c-1.51.57-2.33,1.25-2.48,2.06l0,.35,0,.07c0,1.34,1.46,2.31,4.35,2.9l11.22,2.3q13,2.66,13,12v1.8c-.14.6-.24,1-.29,1.25a14.72,14.72,0,0,1-3.7,7.15,24.24,24.24,0,0,1-7,5.31,36.33,36.33,0,0,1-9.06,3.22,48.53,48.53,0,0,1-10.23,1.1q-14.13,0-20.67-6.83A11.55,11.55,0,0,1,149,319.72Z"/><path class="cls-4" d="M214.29,334l8.07-37.73H209.79l2.55-12.14H254.6l-2.55,12.14H239.87l-8,37.73Z"/><path class="cls-4" d="M249.39,334.05l10.51-49.61h44.81l-2.41,11.4H275.51L274,303h21.73l-2.4,11.21H271.58l-1.74,8.09h26.83l-2.48,11.78Z"/><path class="cls-4" d="M317.14,334l-8.75-49.87h19.19L332,316l17.76-31.88H365L335.68,334Z"/><path class="cls-4" d="M359,334.05l10.51-49.61h44.81l-2.41,11.4h-26.8L383.61,303h21.73l-2.41,11.21H381.2l-1.73,8.09h26.82l-2.47,11.78Z"/><path class="cls-4" d="M410.51,334l10.62-49.87h17.31l14.37,28.18,1.31-13.24,3.19-14.94h14.83L461.55,334l-15.23-.14-4.24-8.36-3.93-7.32-2.69-5.56q-2.4-5-4.63-11v1.17a10,10,0,0,0,.07,1.24v3a6.43,6.43,0,0,1-.11.93,5.84,5.84,0,0,0-.11.94L425.3,334Z"/><path class="cls-4" d="M470.23,319.72l17.41-2.83a4.17,4.17,0,0,0,.89,2.56,6.9,6.9,0,0,0,2.27,2,13.25,13.25,0,0,0,6.58,1.7,15.46,15.46,0,0,0,5.41-1q2.34-.85,2.55-2.13v-.28q0-2-4.63-3.12L489.77,314a21.75,21.75,0,0,1-9.73-4.74,8.12,8.12,0,0,1-2.62-6.31,13.25,13.25,0,0,1,.43-3.32l.53-2q1-3.9,5.52-7.4a31.82,31.82,0,0,1,10.09-5.1,41.84,41.84,0,0,1,6.09-1.31,39.78,39.78,0,0,1,6-.5q10.79,0,17,5.45a13.54,13.54,0,0,1,4.21,6.87l-15.89,3.93a4.89,4.89,0,0,0-3.12-3.93,12.55,12.55,0,0,0-5.2-1,13.66,13.66,0,0,0-4.78.78c-1.5.57-2.33,1.25-2.48,2.06l0,.35,0,.07c0,1.34,1.45,2.31,4.35,2.9l11.22,2.3q13,2.66,13,12v1.8c-.14.6-.24,1-.28,1.25a14.77,14.77,0,0,1-3.7,7.15,24.42,24.42,0,0,1-7,5.31,36.22,36.22,0,0,1-9.06,3.22,48.46,48.46,0,0,1-10.23,1.1q-14.12,0-20.67-6.83A11.53,11.53,0,0,1,470.23,319.72Z"/><path class="cls-4" d="M529.85,309.34a31.49,31.49,0,0,1,7.82-15,34.58,34.58,0,0,1,4.21-3.82q9.13-7,22.12-7a33.5,33.5,0,0,1,11.15,1.73,19.73,19.73,0,0,1,7.89,5.1,16.67,16.67,0,0,1,4.21,8.1,21.55,21.55,0,0,1,.43,4.5,31.7,31.7,0,0,1-2.44,12.24,26.14,26.14,0,0,1-2.9,5.24,32.45,32.45,0,0,1-18.27,12.85,40,40,0,0,1-10.94,1.52,29.86,29.86,0,0,1-13.35-3q-10.55-5.17-10.55-16.67A26.81,26.81,0,0,1,529.85,309.34Zm19.56,0a28.58,28.58,0,0,0-.74,6.09q0,8,6.84,8,8.9,0,12-14.23a28.91,28.91,0,0,0,.75-6.08,12.42,12.42,0,0,0-.75-4.42,5.73,5.73,0,0,0-5.88-3.89,10,10,0,0,0-7.18,3.22Q551.18,301.24,549.41,309.34Z"/><path class="cls-4" d="M587.22,334l10.62-49.87h17.3l14.37,28.18,1.31-13.24L634,284.14h14.83L638.27,334,623,333.88l-4.25-8.36-3.93-7.32-2.69-5.56q-2.4-5-4.63-11v1.17a10,10,0,0,0,.07,1.24v3a6.29,6.29,0,0,1-.1.93,6.17,6.17,0,0,0-.11.94L602,334Z"/><path class="cls-1" d="M573.34,355.68c5.07,0,9.6,3.65,9.6,9.32a9.6,9.6,0,0,1-19.2,0C563.75,359.33,568.27,355.68,573.34,355.68Zm0,16.7a7.35,7.35,0,1,0-7-7.37A7.1,7.1,0,0,0,573.34,372.38Zm-3.72-12.62h3.95c2.62,0,4.1.82,4.1,3.1,0,1.92-1.2,2.67-2.75,2.8l2.8,4.57h-2.17L573,365.75h-1.3v4.47h-2.08Zm2.08,4.37h1.85c1.17,0,2-.17,2-1.45s-1.2-1.3-2.15-1.3h-1.75Z"/></svg>