<svg id="Layer_1" data-name="Layer 1" xmlns="http://www.w3.org/2000/svg" width="305" height="60" viewBox="0 0 305 60"><defs><style>.cls-1{fill:#fff;}.cls-2{fill:none;stroke:#fff;}</style></defs><title>Artboard 1</title><path class="cls-1" d="M22.13,48.37v7.48c0,1,.39,2,2.89,2s2.91-1,2.91-2V48.37h2v7.79c0,1.6-2,2.64-4.93,2.64s-4.9-1.06-4.9-2.59V48.37Z"/><path class="cls-1" d="M49.33,48.37h2.39L57.34,57l.06,0-.09-2.3V48.37h1.9V58.66H56.83L51.2,50l-.06,0,.09,2.33v6.31h-1.9Z"/><path class="cls-1" d="M81.14,49.3H78.58v-.93h7v.93H83v8.43h2.58v.93h-7v-.93h2.56Z"/><path class="cls-1" d="M113,48.17l1.93.22-5.62,10.47h-.45l-5.63-10.47,1.93-.22,3.92,7.69Z"/><path class="cls-1" d="M133.23,48.37h9.23v.93h-7.33v3.39h6.05v.93h-6.05v4.12h7.33v.93h-9.23Z"/><path class="cls-1" d="M161.57,48.37h5.11c1.88,0,4.23.88,4.23,2.73,0,1.27-.94,2.47-3.27,2.9l3.92,4.41-1.71.45-4.26-4.78h-2.13v4.58h-1.9Zm1.9,4.78h2.78c1.65-.06,2.67-.66,2.67-2.05s-1.19-1.8-3.13-1.8h-2.33Z"/><path class="cls-1" d="M195.69,50.72a2.5,2.5,0,0,0-2.61-1.51c-1.79,0-2.5.79-2.5,1.65s.31,1.08,3.3,2.07c2.33.74,3.92,1.39,3.92,3s-1.59,2.9-4.77,2.9c-3.35,0-4.58-1.2-4.86-2.84l1.91-.14c.26,1.14.71,2,3,2,1.65,0,2.81-.6,2.81-1.84s-1.62-1.82-3.58-2.44c-2.19-.69-3.64-1.19-3.64-2.7s1.7-2.62,4.4-2.62,4,1,4.46,2.33Z"/><path class="cls-1" d="M218.75,49.3h-2.56v-.93h7v.93h-2.58v8.43h2.58v.93h-7v-.93h2.56Z"/><path class="cls-1" d="M245.33,49.3h-4.09v-.93h10v.93h-4v9.36h-1.9Z"/><path class="cls-1" d="M280.95,48.17l1.76.39-4.92,6v4.06h-1.9V54.6l-4.89-6,1.76-.39,4.09,5.23Z"/><path class="cls-1" d="M.85,25.85H2.42c1,5.12,6.27,7.93,11.34,7.93,4,0,8.62-2.21,8.62-6.82,0-9.49-20.74-3.73-20.74-16.41,0-6.5,5.81-9.4,11.52-9.4,4.93,0,7.93,2.07,9.31,2.07A1.49,1.49,0,0,0,24,2h1.57v9.49H24c-.28-5.9-4.79-7.93-10-7.93-3.6,0-7.93,1.57-7.93,5.85,0,9.26,20.74,3.46,20.74,16.73,0,6.91-6.36,10-12.49,10-5,0-9-2.63-10.83-2.63-.74,0-1.15.88-1.15,1.61v.18H.85Z"/><path class="cls-1" d="M30.4,2H58.8v9.4H57c0-6.31-2.31-7-5.9-7h-4.2V30.55c0,2.49,1.66,3.13,4.1,3.23h1v1.57H37.27V33.78h1c2.44-.09,4.1-.74,4.1-3.23V4.37H38.15c-3.6,0-5.9.69-5.9,7H30.4Z"/><path class="cls-1" d="M67.06,7.32c0-3.23-1.15-3.69-4.1-3.78H62V2H87.9v9.31H86.33c-.41-5.25-1-6.91-6.54-6.91H71.58V17h3.78c3.73,0,4.2-1.8,4.33-5.3h1.57v13H79.69c-.14-3.5-.6-5.3-4.33-5.3H71.58V32.95h11c4.79,0,5.3-3.18,5.49-7.19H89.6v9.59H62V33.78h1c2.95-.09,4.1-.55,4.1-3.78Z"/><path class="cls-1" d="M91.07,2h14.24V3.54h-.6c-1.38,0-4.15.41-4.15,2.4a5.52,5.52,0,0,0,.41,2l8.76,21.53,8.11-20.28a10.36,10.36,0,0,0,.83-3.27c0-2.35-3.41-2.35-4.84-2.35V2h12.35V3.54a5,5,0,0,0-4.61,3.13L110.1,35.34h-2.81L95.54,6.63A4.53,4.53,0,0,0,91.3,3.54h-.23Z"/><path class="cls-1" d="M133.68,7.32c0-3.23-1.15-3.69-4.1-3.78h-1V2h25.9v9.31h-1.57c-.41-5.25-1-6.91-6.54-6.91h-8.21V17H142c3.73,0,4.19-1.8,4.33-5.3h1.57v13H146.3c-.14-3.5-.6-5.3-4.33-5.3h-3.78V32.95h11c4.79,0,5.3-3.18,5.48-7.19h1.57v9.59H128.61V33.78h1c2.95-.09,4.1-.55,4.1-3.78Z"/><path class="cls-1" d="M164.42,6.77c0-2.49-1.66-3.13-4.1-3.23h-1V2H167l21.53,26.09h.09V6.77c0-2.49-1.66-3.13-4.1-3.23h-1V2h12.54V3.54h-1c-2.44.09-4.1.74-4.1,3.78v28h-2.35L167.28,9.26h-.09V30.55c0,2.49,1.66,3.13,4.1,3.23h1v1.57H159.35V33.78h1c2.81-.09,4.1-.74,4.1-3.78Z"/><path class="cls-1" d="M199.27,25.85h1.57c1,5.12,6.27,7.93,11.34,7.93,4,0,8.62-2.21,8.62-6.82,0-9.49-20.74-3.73-20.74-16.41,0-6.5,5.81-9.4,11.52-9.4,4.93,0,7.93,2.07,9.31,2.07A1.49,1.49,0,0,0,222.45,2H224v9.49h-1.57c-.27-5.9-4.79-7.93-10-7.93-3.6,0-7.93,1.57-7.93,5.85,0,9.26,20.74,3.46,20.74,16.73,0,6.91-6.36,10-12.49,10-5,0-9-2.63-10.83-2.63-.74,0-1.15.88-1.15,1.61v.18h-1.57Z"/><path class="cls-1" d="M248.18,1.14C258.36,1.14,266,8.38,266,18.66s-7.7,17.51-17.79,17.51-17.84-7.33-17.84-17.51C230.34,8.15,237.76,1.14,248.18,1.14Zm0,32.63c8.34,0,12.72-7.47,12.72-15.12S256.43,3.54,248.18,3.54s-12.77,7.51-12.77,15.12S240,33.78,248.18,33.78Z"/><path class="cls-1" d="M273.33,6.77c0-2.49-1.66-3.13-4.1-3.23h-1V2h7.65l21.52,26.09h.09V6.77c0-2.49-1.66-3.13-4.1-3.23h-1V2H305V3.54h-1c-2.44.09-4.1.74-4.1,3.78v28h-2.35L276.19,9.26h-.09V30.55c0,2.49,1.66,3.13,4.1,3.23h1v1.57H268.26V33.78h1c2.81-.09,4.1-.74,4.1-3.78Z"/><line class="cls-2" y1="41.56" x2="302.54" y2="41.56"/></svg>