<?xml version="1.0" encoding="UTF-8"?>
<svg width="128px" height="128px" viewBox="0 0 128 128" version="1.1" xmlns="http://www.w3.org/2000/svg" xmlns:xlink="http://www.w3.org/1999/xlink">
    <!-- Generator: Sketch 46.2 (44496) - http://www.bohemiancoding.com/sketch -->
    <title>Boston Ballet Calendar Icon</title>
    <desc>Created with Sketch.</desc>
    <defs></defs>
    <g id="Page-1" stroke="none" stroke-width="1" fill="none" fill-rule="evenodd">
        <g id="Boston-Ballet-Calendar-Icon">
            <g id="Group-3" transform="translate(34.000000, 14.000000)">
                <g id="Group" transform="translate(47.500000, 0.000000)"></g>
                <g id="Group-2" transform="translate(0.500000, 48.000000)"></g>
            </g>
            <g id="Group-4" transform="translate(15.500000, 12.000000)" fill-rule="nonzero" fill="#FFFFFF">
                <g id="Group-5">
                    <path d="M32.6396484,11.6015625 L64.0986328,11.6015625 L64.0986328,7 C64.0986328,3.13400675 67.2326396,6.66133815e-16 71.0986328,0 C74.9646261,-8.8817842e-16 78.0986328,3.13400675 78.0986328,7 L78.0986328,11.6015625 L87.0091457,11.6015625 C92.4558322,11.6015625 96.871244,16.2452119 96.871244,21.9734438 L96.871244,93.0949156 C96.871244,98.8231474 92.4558322,103.466797 87.0091457,103.466797 L9.99085426,103.466797 C4.54416777,103.466797 0.128755959,98.8231474 0.128755959,93.0949156 L0.128755959,21.9734438 C0.128755959,16.2452119 4.54416777,11.6015625 9.99085426,11.6015625 L18.6396484,11.6015625 L18.6396484,7 C18.6396484,3.13400675 21.7736552,6.66133815e-16 25.6396484,0 C29.5056417,-8.8817842e-16 32.6396484,3.13400675 32.6396484,7 L32.6396484,11.6015625 Z M92.1750068,35.8026189 L4.82499324,35.8026189 L4.82499324,93.0949156 C4.82499324,96.095418 7.137828,98.5278058 9.99085426,98.5278058 L87.0091457,98.5278058 C89.862172,98.5278058 92.1750068,96.095418 92.1750068,93.0949156 L92.1750068,35.8026189 Z M21.1407489,51.3835923 L21.1407489,47.4323995 L76.1433067,47.4323995 L76.1433067,51.3835923 L21.1407489,51.3835923 Z M21.1407489,63.237171 L21.1407489,59.2859781 L76.1433067,59.2859781 L76.1433067,63.237171 L21.1407489,63.237171 Z M21.1407489,75.0907496 L21.1407489,71.1395567 L76.1433067,71.1395567 L76.1433067,75.0907496 L21.1407489,75.0907496 Z M21.1407489,86.9443282 L21.1407489,82.9931353 L76.1433067,82.9931353 L76.1433067,86.9443282 L21.1407489,86.9443282 Z M25.6396484,4 C23.9827942,4 22.6396484,5.34314575 22.6396484,7 L22.6396484,21.5322266 C22.6396484,23.1890808 23.9827942,24.5322266 25.6396484,24.5322266 C27.2965027,24.5322266 28.6396484,23.1890808 28.6396484,21.5322266 L28.6396484,7 C28.6396484,5.34314575 27.2965027,4 25.6396484,4 Z M71.0986328,4 C69.4417786,4 68.0986328,5.34314575 68.0986328,7 L68.0986328,21.5322266 C68.0986328,23.1890808 69.4417786,24.5322266 71.0986328,24.5322266 C72.7554871,24.5322266 74.0986328,23.1890808 74.0986328,21.5322266 L74.0986328,7 C74.0986328,5.34314575 72.7554871,4 71.0986328,4 Z" id="Combined-Shape"></path>
                </g>
            </g>
        </g>
    </g>
</svg>