<?xml version="1.0" encoding="UTF-8" standalone="no"?>
<!-- Generator: Adobe Illustrator 19.2.1, SVG Export Plug-In . SVG Version: 6.00 Build 0)  -->

<svg
   xmlns:dc="http://purl.org/dc/elements/1.1/"
   xmlns:cc="http://creativecommons.org/ns#"
   xmlns:rdf="http://www.w3.org/1999/02/22-rdf-syntax-ns#"
   xmlns:svg="http://www.w3.org/2000/svg"
   xmlns="http://www.w3.org/2000/svg"
   xmlns:sodipodi="http://sodipodi.sourceforge.net/DTD/sodipodi-0.dtd"
   xmlns:inkscape="http://www.inkscape.org/namespaces/inkscape"
   version="1.1"
   id="Layer_1"
   x="0px"
   y="0px"
   viewBox="0 0 195.6 195.6"
   style="enable-background:new 0 0 195.6 195.6;"
   xml:space="preserve"
   inkscape:version="0.91 r13725"
   sodipodi:docname="CheckBoxFilled.svg"><metadata
     id="metadata11"><rdf:RDF><cc:Work
         rdf:about=""><dc:format>image/svg+xml</dc:format><dc:type
           rdf:resource="http://purl.org/dc/dcmitype/StillImage" /><dc:title></dc:title></cc:Work></rdf:RDF></metadata><defs
     id="defs9" /><sodipodi:namedview
     pagecolor="#ffffff"
     bordercolor="#666666"
     borderopacity="1"
     objecttolerance="10"
     gridtolerance="10"
     guidetolerance="10"
     inkscape:pageopacity="0"
     inkscape:pageshadow="2"
     inkscape:window-width="1099"
     inkscape:window-height="735"
     id="namedview7"
     showgrid="false"
     inkscape:zoom="1.1380806"
     inkscape:cx="86.314027"
     inkscape:cy="114.12625"
     inkscape:window-x="0"
     inkscape:window-y="0"
     inkscape:window-maximized="0"
     inkscape:current-layer="Layer_1" /><g
     inkscape:groupmode="layer"
     id="layer2"
     inkscape:label="Layer 1" /><g
     inkscape:groupmode="layer"
     id="layer3"
     inkscape:label="Layer 2"><path
       style="fill:#ff4814;fill-opacity:1;stroke:#ff4814;stroke-opacity:1"
       d="M 89.112537,160.0194 C 76.072225,157.56596 66.725938,152.55518 56.677797,142.63035 48.366351,134.4209 44.190363,127.44866 40.509029,115.63492 38.038273,107.70603 37.828688,92.540759 40.074332,84.180876 43.541118,71.275038 52.401084,57.910207 62.433307,50.453441 94.069103,26.939139 137.95041,37.197214 155.0202,72.097353 c 4.64082,9.488417 6.62102,17.766996 6.59914,27.588837 -0.0662,29.7251 -21.6265,55.07563 -51.37206,60.40319 -7.65614,1.37125 -13.578656,1.35164 -21.134743,-0.07 l 0,-3e-5 z"
       id="path3376"
       inkscape:connector-curvature="0" /></g><path
     d="m 98.845974,192.67925 c -51.76451,0 -93.925213,-42.16069 -93.925213,-93.925209 0,-51.764509 42.160703,-93.9252134 93.925213,-93.9252134 51.764516,0 93.925216,42.1607044 93.925216,93.9252134 0,51.764519 -42.1607,93.925209 -93.925216,93.925209 z m 0,-185.9296614 c -50.70809,0 -92.004452,41.2963624 -92.004452,92.0044524 0,50.708089 41.296362,92.004459 92.004452,92.004459 50.708096,0 92.004456,-41.29637 92.004456,-92.004459 0,-50.70809 -41.29636,-92.0044524 -92.004456,-92.0044524 z"
     id="path5"
     style="fill:#ededed;fill-opacity:1;stroke:#99999f;stroke-width:5;stroke-miterlimit:4;stroke-dasharray:none;stroke-opacity:0.94117647"
     inkscape:connector-curvature="0" /></svg>