<?xml version="1.0" encoding="UTF-8" standalone="no"?>
<!-- Generator: Adobe Illustrator 19.2.1, SVG Export Plug-In . SVG Version: 6.00 Build 0)  -->

<svg
   xmlns:dc="http://purl.org/dc/elements/1.1/"
   xmlns:cc="http://creativecommons.org/ns#"
   xmlns:rdf="http://www.w3.org/1999/02/22-rdf-syntax-ns#"
   xmlns:svg="http://www.w3.org/2000/svg"
   xmlns="http://www.w3.org/2000/svg"
   xmlns:sodipodi="http://sodipodi.sourceforge.net/DTD/sodipodi-0.dtd"
   xmlns:inkscape="http://www.inkscape.org/namespaces/inkscape"
   version="1.1"
   id="Layer_1"
   x="0px"
   y="0px"
   viewBox="0 0 195.6 195.6"
   style="enable-background:new 0 0 195.6 195.6;"
   xml:space="preserve"
   inkscape:version="0.91 r13725"
   sodipodi:docname="play_vid_white.svg"><metadata
     id="metadata3358"><rdf:RDF><cc:Work
         rdf:about=""><dc:format>image/svg+xml</dc:format><dc:type
           rdf:resource="http://purl.org/dc/dcmitype/StillImage" /><dc:title></dc:title></cc:Work></rdf:RDF></metadata><defs
     id="defs3356" /><sodipodi:namedview
     pagecolor="#ffffff"
     bordercolor="#666666"
     borderopacity="1"
     objecttolerance="10"
     gridtolerance="10"
     guidetolerance="10"
     inkscape:pageopacity="0"
     inkscape:pageshadow="2"
     inkscape:window-width="640"
     inkscape:window-height="480"
     id="namedview3354"
     showgrid="false"
     inkscape:zoom="1.2065439"
     inkscape:cx="97.800003"
     inkscape:cy="97.800003"
     inkscape:window-x="0"
     inkscape:window-y="0"
     inkscape:window-maximized="0"
     inkscape:current-layer="Layer_1" /><path
     d="M89.8,122.7V74.4l28.5,24.2L89.8,122.7z M91.8,78.7v39.7l23.5-19.8L91.8,78.7z"
     id="path3350"
     style="fill:#ffffff" /><path
     d="M97.8,195.6C43.9,195.6,0,151.7,0,97.8C0,43.9,43.9,0,97.8,0s97.8,43.9,97.8,97.8C195.6,151.7,151.7,195.6,97.8,195.6z   M97.8,2C45,2,2,45,2,97.8c0,52.8,43,95.8,95.8,95.8s95.8-43,95.8-95.8C193.6,45,150.6,2,97.8,2z"
     id="path3352"
     style="fill:#ffffff" /></svg>