<svg id="Layer_1" data-name="Layer 1" xmlns="http://www.w3.org/2000/svg" viewBox="0 0 161 90">
  <defs>
    <style>
      .cls-1 {
        fill: #fff;
      }
    </style>
  </defs>
  <title>summer-logo</title>
  <path class="cls-1" d="M85.55,0h1.98c-1.76,4.65-1.72,10-4.7,14.15q-.18-3.03-.18-6.06c-.66,1.4-1.3,2.82-1.96,4.23C79.5,8.53,77.65,4.97,76.73,1.1a18.064,18.064,0,0,1,4.03,6.56,49.123,49.123,0,0,1,1.28-5.62c.61,2.07,1.09,4.17,1.6,6.27.55-2.79,1.13-5.58,1.91-8.31Z"/>
  <path class="cls-1" d="M94.25,3.03c2.02-2.3,5.52-.93,8.08-.47l-.14,1.16c-2.42.62-5.64-.62-7.23,1.87q3.015.42,6.02.87c-1.17,1.27-2.87,1.55-4.47,1.89-.52.99-1.04,1.98-1.57,2.97A67.274,67.274,0,0,1,102,12.88c-2.34,1.17-5.03.82-7.52.45-1.76-2.95-.1-6.94-.23-10.3Z"/>
  <path class="cls-1" d="M109.5,4.33c.47-.36,1.39-1.09,1.85-1.45-.14,3.05-.77,6.04-.96,9.07,1.68.55,6.07-1.07,5.29,1.8a78.756,78.756,0,0,1-8.27.48c.77-3.29,1.27-6.63,2.09-9.9Z"/>
  <path class="cls-1" d="M62.32,1.96c.21,3.9-.63,7.91.45,11.71,3.74-.55,6.6-3.25,8.86-6.08C69.19,4.97,66.05,2.03,62.32,1.96Zm1.47,9.72a72.438,72.438,0,0,1,.82-7.51c1.61,1.21,3.78,1.98,4.74,3.87A18.972,18.972,0,0,1,63.79,11.68Z"/>
  <path class="cls-1" d="M124.27,7.39c.53-.26,1.59-.76,2.12-1.02-.58,2.86-1.39,5.66-1.99,8.51a22.507,22.507,0,0,1,6.13,2.17c-3.03.68-6.1-.06-9.14-.18,1.02-3.14,1.67-6.4,2.88-9.48Z"/>
  <path class="cls-1" d="M37.71,8.66c1.57-1.48,3.88-.93,5.81-.92-.33,2.87-2.38,2.2-4.31,1.46L36.9,11.75c1.97.15,3.96.18,5.93.45a13.8,13.8,0,0,1,1.42,4.55c-2.28,3.21-6.85,1.74-7.76-1.81,1.98.68,3.89,1.54,5.82,2.33-.26-1.12.52-2.87-.85-3.48-1.69-.17-3.39.08-5.08-.15-1.89-1.6-.08-3.79,1.33-4.98Z"/>
  <path class="cls-1" d="M20.12,19.43c.98.29,1.95.58,2.93.86,12.61,4.3,23.42,13.17,30.99,24.05a33.363,33.363,0,0,0-4.78,7.91A53.651,53.651,0,0,0,36.01,30.06c-4.54-4.54-10.14-7.85-15.89-10.63Z"/>
  <path class="cls-1" d="M114.69,45.6c6.65-9.81,16.6-17.04,27.59-21.21l1.46-.04A5.089,5.089,0,0,1,141.27,26c-11.02,4.7-19.07,14.9-22.41,26.27-1.32-2.27-2.65-4.53-4.17-6.67Z"/>
  <path class="cls-1" d="M62.24,30.27c5.09-2.68,11.91,1.97,11.08,7.72.08,5.66-7.11,9.61-11.82,6.36-5.42-2.86-5.02-11.86.74-14.08Z"/>
  <path class="cls-1" d="M102.42,33.58c4.66-2.06,10.16,2.45,9.21,7.38-.63,4.81-7.1,7.63-10.81,4.23-4.14-2.88-3.15-9.92,1.6-11.61Z"/>
  <path class="cls-1" d="M69.59,57.21C71.75,52.47,72.73,46.83,77,43.4a17.459,17.459,0,0,1,4.03,5.5c4.19,9.04,5.45,19.88,1.88,29.33-.96-4.02-.22-8.17-.67-12.24-.68-5.62-1.71-11.48-5.12-16.17-2.97,2.63-4.71,6.23-7.07,9.34-3.9-1.39-7.19-4.05-11.07-5.47-2.39-.09-2.78,2.7-3.46,4.44C52.5,68.96,56.63,79.91,60.34,90H58.62c-4.76-8.9-8.46-18.77-8.08-29.02.29-4.39.84-9.17,3.66-12.73,1.29-1.99,4.18-1.75,5.76-.26,3.45,2.81,6.43,6.14,9.63,9.22Z"/>
  <path class="cls-1" d="M93.41,46.43c1.34-1.65,3.47-.66,4.28.96a88.813,88.813,0,0,1,3.8,9c3.21-2.79,5.96-6.17,9.55-8.5,3.06-.96,4.68,2.4,5.45,4.75,3.1,9.9-.09,20.41-4.43,29.42-.42,1.35-1.78,1.87-2.85,2.58,2.83-7.88,6.07-16.13,4.75-24.66-.47-2.32-.85-5.05-2.94-6.53-3.54,1.2-6.49,3.65-10.04,4.84-2.02-2.58-3.11-6-6.07-7.75-4.44,7.05-4.35,15.67-4.28,23.7-2.45-3.6-2.08-8.16-2-12.3a32.684,32.684,0,0,1,4.78-15.51Z"/>
  <path class="cls-1" d="M125.66,61.94c.69-3.28,4.83-2.69,7.35-2.79,2.96.27,6.69-.87,8.8,1.88a33.107,33.107,0,0,1-10.85,1.8,3.431,3.431,0,0,0-3.43,3.31c2.88,2.75,9.14-1.89,10.64,2.91-2.52,1.39-5.49,1.43-8.25,1.98.1.7.3,2.1.4,2.81-.88,1.23-3.97,3.11-1.47,4.39,4.09,1.08,8.63-.46,12.7,1.25-1.04.68-2.11,1.64-3.47,1.36-3.93-.08-7.86.12-11.78.04a113.09,113.09,0,0,1-.64-18.94Z"/>
  <path class="cls-1" d="M41.35,60.27l.59-.82c3.52-.38,1.52,3.62.85,5.45-2.13,4.16-2.42,8.98-4.59,13.09-1.86,3.85-7.19,3.32-10.04,1.01-.35-5.89-.63-11.88.33-17.72.49-.08,1.48-.23,1.97-.3a61.444,61.444,0,0,0,2.02,12.65c.48,1.01.82,2.56,2.28,2.19,2.74-4.94,3.66-10.7,6.59-15.55Z"/>
  <path class="cls-1" d="M33.48,65.17c1.29-1.46,3.81.72,2.19,2.07-1.3,1.42-3.59-.72-2.19-2.07Z"/>
  <path class="cls-1" d="M52.595,5.426c.645-.73,1.9.36,1.1,1.035-.65.71-1.795-.36-1.1-1.035Z"/>
  <g>
    <path class="cls-1" d="M51.988,6.331a6.745,6.745,0,0,1-.958-.074c1.064,3.152,1.114,6.875,2.947,9.743,1.513-3.169,0-6.569-1.049-9.741A6.744,6.744,0,0,1,51.988,6.331Z"/>
    <path class="cls-1" d="M49.5,4.772c.521-.823,1.938.052,1.246.848-.529.8-1.829-.07-1.246-.848Z"/>
    <path class="cls-1" d="M51.732,3.276c.521-.823,1.938.052,1.246.848-.529.8-1.829-.07-1.246-.848Z"/>
  </g>
  <path class="cls-1" d="M0,71.29c3.06-5.51,11.56-7.44,15.85-2.31A39.384,39.384,0,0,1,12,71.65a50.333,50.333,0,0,1-3.2-3.96,15.961,15.961,0,0,0-7.44,5.42c3.64,1.4,8.3.32,11.33,3.1,1.19,3.85.38,8.97-3.78,10.64C5.14,87.2,1.93,84.05,0,81.1V77.97c3.3,1.79,5.44,4.91,8.16,7.39,1.79-2.19,4.4-5.57,1.8-8.22C6.6,76.57,3.15,76.32,0,74.9V71.29Z"/>
  <path class="cls-1" d="M161,70.88a22.55,22.55,0,0,0-14.28-4.04c.3,6.76-1.48,13.68.24,20.31,1.76-2.86,1.67-6.28,2.51-9.44,3.21,3.51,5.19,7.99,8.67,11.27.94-.57,2.55-1.1,1.51-2.42a35.031,35.031,0,0,1-7.05-8.83c2.92-.61,6.1-.81,8.4-2.95Zm-11.91,3.36c-.16-1.56-.26-3.13-.27-4.7a14.39,14.39,0,0,1,10.58,3.63A11.882,11.882,0,0,1,149.09,74.24Z"/>
  <path class="cls-1" d="M4.88,80.78c1.24-1.27,2.67-2.54,3.94-.52-.55,2.09-2.62,1.86-3.94.52Z"/>
  <path class="cls-1" d="M157.4,79.4a1.973,1.973,0,0,1,2.24,2.26c-.64.09-1.92.27-2.56.35.08-.65.24-1.95.32-2.61Z"/>
</svg>
