<?xml version="1.0" encoding="utf-8"?>
<!-- Generator: Adobe Illustrator 18.1.1, SVG Export Plug-In . SVG Version: 6.00 Build 0)  -->
<svg version="1.1" id="Layer_1" xmlns="http://www.w3.org/2000/svg" xmlns:xlink="http://www.w3.org/1999/xlink" x="0px" y="0px"
	 viewBox="0 0 107 11.2" enable-background="new 0 0 107 11.2" xml:space="preserve">
<g>
	<path fill="#FFFFFF" d="M3.4,1.7H3c-2.4,0-2.6,0.4-2.7,0.6c0,0.1-0.1,0.1-0.1,0.1C0,2.5,0,2.4,0,2.3c0-0.1,0.1-0.5,0.3-1.1h7.1v0.9
		c0,0.2,0,0.3-0.1,0.3c-0.1,0-0.1-0.1-0.1-0.1c0-0.2-0.3-0.5-1.8-0.5h-1C4,4.4,3.3,9.5,3.3,9.9c0,0.4,0.1,0.4,0.5,0.4h0.9l-0.1,0.4
		H0.9L1,10.3h1c0.2,0,0.2-0.1,0.2-0.3L3.4,1.7z"/>
	<path fill="#FFFFFF" d="M7.8,0.8c0.9-0.5,1.7-0.7,2.2-0.7c0.1,0,0.1,0,0.1,0.2c0,0.9-0.5,4.3-0.8,6.5l0,0.1C9.7,5.9,10.9,4,12,4
		c0.8,0,1,0.7,1,1.3c0,0.7-0.5,3.7-0.5,4.2c0,0.2,0.1,0.5,0.2,0.5c0.1,0,0.7-0.3,1.1-0.5l0.1,0.3c-0.6,0.5-1.8,1-2,1
		c-0.2,0-0.3-0.3-0.3-0.7c0-0.7,0.6-3.4,0.6-4.4c0-0.4-0.1-0.9-0.6-0.9C10.8,4.8,9.3,6.5,9,9l-0.3,1.7H7.9C8.5,6.1,9.1,2,9.1,1.2
		c0-0.2,0-0.4-0.2-0.4c-0.1,0-0.6,0.2-1,0.3L7.8,0.8z"/>
	<path fill="#FFFFFF" d="M19.4,9.5c-0.7,0.8-1.7,1.5-2.7,1.5c-1.4,0-1.9-1.1-1.9-2.3c0-2.6,1.7-4.7,3.6-4.7c0.3,0,0.8,0.1,0.8,0.9
		v0.4l0.3-0.2c0.2-0.1,0.2-0.3,0.3-0.3c0,0,0.1,0,0.1,0.1c0,0.1,0,0.2-0.1,0.3C19,5.9,16.6,7.4,15.7,8v0.4c0,0.9,0.3,2,1.4,2
		c0.8,0,1.5-0.6,2.1-1.1L19.4,9.5z M18.4,5.8c0-0.2,0.1-0.4,0.1-0.6c0-0.4-0.2-0.8-0.6-0.8c-1.3,0-2.1,2-2.2,3.2
		C16.6,7.1,17.1,6.8,18.4,5.8z"/>
	<path fill="#FFFFFF" d="M31.2,9.9c0.1-1.1,0.3-2.2,0.3-2.5c0-0.5-0.1-0.5-0.5-0.5h-0.7l0.1-0.4h3.2l-0.1,0.4h-0.6
		c-0.3,0-0.3,0-0.3,0.2c-0.1,1-0.3,2.3-0.3,2.5c0,0.1,0.1,0.1,0.1,0.3c0,0.1-0.2,0.2-0.3,0.3c-1.1,0.5-2.4,0.9-3.6,0.9
		c-2.5,0-4-1.6-4-4.1c0-3.3,2.7-6.1,6.4-6.1c0.8,0,1.6,0.1,2.3,0.4l-0.1,0.8c0,0.1,0,0.5-0.2,0.5c-0.2,0-0.2-0.1-0.2-0.3
		c0-0.3-0.9-0.9-2.1-0.9c-3,0-5,2.4-5,5.3c0,2.1,1,3.9,3.2,3.9C29.5,10.5,30.5,10.3,31.2,9.9z"/>
	<path fill="#FFFFFF" d="M34.2,0.8c0.9-0.5,1.7-0.7,2.2-0.7c0.1,0,0.1,0,0.1,0.2c0,0.5-0.3,2.4-0.6,4.3c-0.3,2-0.6,4.1-0.6,5
		c0,0.2,0.1,0.5,0.2,0.5c0.2,0,0.7-0.3,1.1-0.5l0.1,0.3c-0.6,0.4-1.8,1-2,1c-0.2,0-0.3-0.3-0.3-0.7c0-1.9,1-8.2,1-9.1
		c0-0.2,0-0.4-0.2-0.4c-0.1,0-0.6,0.2-1,0.3L34.2,0.8z"/>
	<path fill="#FFFFFF" d="M37.8,8.7c0-2.6,1.7-4.7,3.6-4.7c1.4,0,1.9,1.1,1.9,2.3c0,2.6-1.7,4.7-3.6,4.7C38.2,11,37.8,9.9,37.8,8.7z
		 M41,4.4c-1.8,0-2.3,2.6-2.3,4c0,0.9,0.2,2.1,1.3,2.1c1.8,0,2.3-2.6,2.3-4C42.3,5.7,42.1,4.4,41,4.4z"/>
	<path fill="#FFFFFF" d="M44.1,0.8c0.9-0.5,1.7-0.7,2.2-0.7c0.1,0,0.1,0,0.1,0.2c0,0.6-0.6,4.2-0.8,6.3l0,0C46.2,5.6,47.2,4,48.4,4
		c1.1,0,1.5,1,1.5,1.9c0,2.5-1.9,4.9-4.4,4.9c-0.3,0-0.6-0.1-0.9-0.1c0,0.3-0.1,0.5-0.3,0.5h-0.2c0.8-4.8,1.4-9.5,1.4-10
		c0-0.2,0-0.4-0.2-0.4c-0.1,0-0.6,0.2-1,0.3L44.1,0.8z M48.1,4.7c-1.3,0-2.6,2.3-2.8,4.2l-0.2,1.5c0.2,0.1,0.4,0.1,0.6,0.1
		c1.8,0,3.2-1.9,3.2-4.2C49,5.6,48.9,4.7,48.1,4.7z"/>
	<path fill="#FFFFFF" d="M57.2,9.9c-0.6,0.4-1.8,1-2,1c-0.2,0-0.3-0.3-0.3-0.7c0-0.5,0.1-1.3,0.1-1.9l0,0c-0.5,1-1.5,2.7-2.7,2.7
		c-1.1,0-1.4-1.2-1.4-2.1c0-2.3,1.8-4.8,4.3-4.8c0.3,0,0.6,0,1,0.1c0-0.4,0.1-0.5,0.5-0.5c-0.5,2.1-0.8,3.6-0.8,6
		c0,0.2,0.1,0.5,0.2,0.5c0.2,0,0.7-0.3,1.1-0.5L57.2,9.9z M55.4,5.9l0.2-1.3c-0.2-0.1-0.4-0.1-0.6-0.1c-1.6,0-3.2,1.6-3.2,4.2
		c0,0.6,0.1,1.5,0.9,1.5C53.5,10.2,55,8.7,55.4,5.9z"/>
	<path fill="#FFFFFF" d="M57.8,0.8c0.9-0.5,1.7-0.7,2.2-0.7c0.1,0,0.1,0,0.1,0.2c0,0.5-0.3,2.4-0.6,4.3c-0.3,2-0.6,4.1-0.6,5
		c0,0.2,0.1,0.5,0.2,0.5c0.1,0,0.7-0.3,1.1-0.5l0.2,0.3c-0.6,0.4-1.8,1-2,1c-0.2,0-0.3-0.3-0.3-0.7c0-1.9,1-8.2,1-9.1
		c0-0.2,0-0.4-0.2-0.4c-0.1,0-0.6,0.2-1,0.3L57.8,0.8z"/>
	<path fill="#FFFFFF" d="M71,2c0,0.2,0,0.3-0.2,0.3c-0.1,0-0.1-0.1-0.2-0.2c-0.1-0.6-1.3-0.8-1.7-0.8c-1,0-2.2,0.6-2.2,1.7
		c0,2,4,2.3,4,4.9c0,1.5-1.4,3-3.9,3c-0.6,0-1.3-0.1-1.9-0.3c0-0.4-0.1-1.2-0.1-1.3c0-0.1,0-0.2,0.1-0.2c0.1,0,0.2,0.1,0.2,0.2
		c0.2,0.7,1.5,1.1,2.1,1.1c1.5,0,2.6-1,2.6-2.2c0-2.2-3.8-2.4-3.8-4.8c0-1.8,1.9-2.7,3.4-2.7C70,0.9,70.5,1,71,1.2V2z"/>
	<path fill="#FFFFFF" d="M76.4,9.7c-0.6,0.8-1.6,1.3-2.6,1.3c-1.3,0-1.9-1-1.9-2.3c0-2.1,1.5-4.7,3.7-4.7c0.4,0,1,0.2,1,0.5
		c0,0.2-0.1,0.3-0.4,0.3c-0.4,0-0.7-0.2-1-0.5c-1.7,0.3-2.4,2.5-2.4,4c0,0.9,0.2,2.1,1.4,2.1c0.7,0,1.5-0.5,2-1L76.4,9.7z"/>
	<path fill="#FFFFFF" d="M77.5,0.8c0.9-0.5,1.7-0.7,2.2-0.7c0.1,0,0.1,0,0.1,0.2c0,0.9-0.5,4.3-0.8,6.5l0,0.1c0.4-1,1.6-2.9,2.7-2.9
		c0.8,0,1,0.7,1,1.3c0,0.7-0.5,3.7-0.5,4.2c0,0.2,0.1,0.5,0.2,0.5c0.2,0,0.7-0.3,1.1-0.5l0.2,0.3c-0.6,0.5-1.8,1-2,1
		c-0.2,0-0.3-0.3-0.3-0.7c0-0.7,0.6-3.4,0.6-4.4c0-0.4-0.1-0.9-0.6-0.9c-0.8,0-2.3,1.7-2.7,4.2l-0.3,1.7h-0.8
		c0.6-4.7,1.2-8.7,1.2-9.5c0-0.2,0-0.4-0.2-0.4c-0.1,0-0.6,0.2-1,0.3L77.5,0.8z"/>
	<path fill="#FFFFFF" d="M84.4,8.7C84.4,6.1,86.1,4,88,4c1.4,0,1.9,1.1,1.9,2.3c0,2.6-1.7,4.7-3.6,4.7C84.9,11,84.4,9.9,84.4,8.7z
		 M87.7,4.4c-1.8,0-2.3,2.6-2.3,4c0,0.9,0.2,2.1,1.3,2.1c1.8,0,2.3-2.6,2.3-4C89,5.7,88.8,4.4,87.7,4.4z"/>
	<path fill="#FFFFFF" d="M90.8,8.7c0-2.6,1.7-4.7,3.6-4.7c1.4,0,1.9,1.1,1.9,2.3c0,2.6-1.7,4.7-3.6,4.7C91.3,11,90.8,9.9,90.8,8.7z
		 M94.1,4.4c-1.8,0-2.3,2.6-2.3,4c0,0.9,0.2,2.1,1.3,2.1c1.8,0,2.3-2.6,2.3-4C95.4,5.7,95.2,4.4,94.1,4.4z"/>
	<path fill="#FFFFFF" d="M97.3,0.8c0.9-0.5,1.7-0.7,2.2-0.7c0.1,0,0.1,0,0.1,0.2c0,0.5-0.3,2.4-0.6,4.3c-0.3,2-0.6,4.1-0.6,5
		c0,0.2,0.1,0.5,0.2,0.5c0.1,0,0.7-0.3,1.1-0.5l0.2,0.3c-0.6,0.4-1.8,1-2,1c-0.2,0-0.3-0.3-0.3-0.7c0-1.9,1-8.2,1-9.1
		c0-0.2,0-0.4-0.2-0.4c-0.1,0-0.6,0.2-1,0.3L97.3,0.8z"/>
	<path fill="#FFFFFF" d="M104,5.9c-1.7,0-3-1.3-3-2.9c0-1.6,1.3-2.9,3-2.9c1.7,0,3,1.3,3,2.9C107,4.6,105.6,5.9,104,5.9z M104,0.4
		c-1.4,0-2.5,1.2-2.5,2.6c0,1.4,1.2,2.6,2.5,2.6c1.4,0,2.5-1.1,2.5-2.6C106.5,1.5,105.4,0.4,104,0.4z M102.8,4.3h0.2
		c0.1,0,0.1,0,0.1-0.1V2.1c0-0.7,0-0.7-0.2-0.7h-0.2V1.2h1.4c0.7,0,1.1,0.4,1.1,0.9c0,0.4-0.3,0.7-0.7,0.8c0.4,0.7,0.8,1.2,1,1.4
		h0.2v0.2h-0.7c-0.2,0-0.8-1.1-0.9-1.5h-0.3v0.6c0,0.7,0,0.7,0.2,0.7h0.2v0.2h-1.2V4.3z M103.8,1.4c-0.1,0-0.2,0-0.2,0.1v1.3h0.2
		c0.3,0,0.7-0.2,0.7-0.6C104.6,1.9,104.4,1.4,103.8,1.4z"/>
</g>
</svg>
