<?xml version="1.0" encoding="utf-8"?>
<!-- Generator: Adobe Illustrator 18.1.1, SVG Export Plug-In . SVG Version: 6.00 Build 0)  -->
<svg version="1.1" id="Magnifying_glass" xmlns="http://www.w3.org/2000/svg" xmlns:xlink="http://www.w3.org/1999/xlink" x="0px"
	 y="0px" viewBox="37.8 37.8 284.4 284.4" enable-background="new 37.8 37.8 284.4 284.4" xml:space="preserve">
<path fill="#FFFFFF" d="M315.8,278.4l-68-68c10.3-16.8,16.2-36.6,16.2-57.8c0-61.5-53.3-114.8-114.8-114.8
	c-61.5,0-111.3,49.8-111.3,111.3c0,61.5,53.3,114.8,114.8,114.8c20.5,0,39.6-5.6,56.1-15.2l68.4,68.4c6.7,6.7,17.5,6.7,24.2,0l17-17
	C324.9,293.5,322.5,285.1,315.8,278.4z M72.1,149.2c0-42.6,34.5-77.1,77.1-77.1c42.6,0,80.5,37.9,80.5,80.5
	c0,42.6-34.5,77.1-77.1,77.1C110,229.7,72.1,191.7,72.1,149.2z"/>
</svg>
