<svg xmlns="http://www.w3.org/2000/svg" viewBox="0 0 19.5 19.5"><defs><style>.cls-1,.cls-2{fill:#959595;}.cls-2{fill-rule:evenodd;}</style></defs><title>Asset 4</title><g id="Layer_2" data-name="Layer 2"><g id="Layer_1-2" data-name="Layer 1"><path class="cls-1" d="M9.75,19.5A9.75,9.75,0,1,1,19.5,9.75,9.76,9.76,0,0,1,9.75,19.5Zm0-18A8.25,8.25,0,1,0,18,9.75,8.26,8.26,0,0,0,9.75,1.5Z"/><path class="cls-2" d="M13.49,7.83a3,3,0,0,1-1,2.44,4.6,4.6,0,0,1-3,.85H8.41v3.81H6.75V4.75H9.68a4.44,4.44,0,0,1,2.86.78,2.8,2.8,0,0,1,1,2.3ZM8.41,9.72H9.3a3.17,3.17,0,0,0,1.88-.45,1.62,1.62,0,0,0,.6-1.39,1.58,1.58,0,0,0-.54-1.31,2.65,2.65,0,0,0-1.67-.43H8.41V9.72Z"/></g></g></svg>