<?xml version="1.0" encoding="UTF-8" standalone="no"?>
<svg width="790px" height="73px" viewBox="0 0 790 73" version="1.1" xmlns="http://www.w3.org/2000/svg" xmlns:xlink="http://www.w3.org/1999/xlink" xmlns:sketch="http://www.bohemiancoding.com/sketch/ns">
    <!-- Generator: Sketch 3.3.3 (12072) - http://www.bohemiancoding.com/sketch -->
    <title>Marietta College</title>
    <desc>Created with Sketch.</desc>
    <defs></defs>
    <g id="Page-1" stroke="none" stroke-width="1" fill="none" fill-rule="evenodd" sketch:type="MSPage">
        <g id="marrieta-logo-copy-2-+-MENU-Copy-6" sketch:type="MSLayerGroup" transform="translate(0.000000, 1.000000)" fill="#FFFFFF">
            <g id="marrieta-logo-copy-2" sketch:type="MSShapeGroup">
                <g id="marrieta-logo">
                    <path d="M54.4138624,15.8265 C58.8261587,25.499 57.7845291,43.3823409 55.9052487,50.3123636 C54.1078942,58.1150682 47.4702222,65.6556364 39.9514286,68.7432045 C29.0034497,73.0518636 16.6660741,70.1866136 8.16918519,61.6721591 C-2.92258201,51.8768864 0.673798942,27.6541591 0.89784127,23.87475 C2.12338624,14.6070682 9.96653968,5.09715909 19.117164,2.00793182 C32.8439365,-2.70720455 47.796254,2.98347727 54.4138624,15.8265 L54.4138624,15.8265 Z M49.1037249,14.8509545 C43.056254,6.39788636 32.7620106,2.33311364 22.3039153,5.09715909 C13.153291,7.53602273 5.47398942,16.1516818 4.65640212,25.5802955 C4.08459259,38.9326591 2.53134392,52.7313182 13.8070265,61.2656818 C21.3040847,67.5038636 32.8439365,68.1741364 40.9328677,63.62325 C47.714328,59.2233409 52.9809947,51.2646818 53.2702434,42.5693864 C53.5561481,33.9736364 54.6596402,22.6553182 49.1037249,14.8509545 L49.1037249,14.8509545 Z" id="Fill-22"></path>
                    <path d="M23.464254,16.7257273 L23.4675979,16.3955682 L23.7752381,16.3955682 L23.7752381,16.7008409 L27.5538624,16.7008409 L27.5538624,16.447 L28.9833862,16.1417273 L30.4129101,16.447 L30.4129101,16.7008409 L33.7835767,16.7008409 L33.7835767,16.447 L34.0845291,16.4702273 C34.0694815,16.4320682 34.0661376,16.6444318 34.089545,16.6908864 C34.1313439,16.7506136 34.3453545,16.7008409 34.3754497,16.6908864 L34.0694815,16.9945 L34.0811852,26.39325 C33.6297566,26.4247727 32.9877249,26.39325 32.5162328,26.3832955 C32.5062011,26.1709318 32.5062011,25.9569091 32.4861376,25.59025 L28.9633228,23.7105 C28.3296508,24.0058182 25.992254,25.1140909 24.9807196,25.6118182 C25.0108148,25.8142273 25.0108148,26.1493636 25.0007831,26.39325 L23.4475344,26.39325 L23.4475344,17.0459318 C23.4375026,17.0260227 23.185037,16.7837955 23.1816931,16.7008409 C23.2034286,16.7141136 23.3605926,16.7008409 23.464254,16.7257273 L23.464254,16.7257273 Z M31.1285079,23.2243864 L31.1385397,18.7531364 C29.9648254,18.7116591 27.2679577,18.7116591 26.5523598,18.7531364 L26.5523598,23.2243864 L31.1285079,23.2243864 L31.1285079,23.2243864 Z M33.0077884,23.2243864 L33.0178201,18.7531364 L32.1902011,18.7531364 L32.1902011,23.2243864 L33.0077884,23.2243864 L33.0077884,23.2243864 Z M25.4505397,23.2243864 L25.4605714,18.7531364 L24.6329524,18.7531364 L24.6329524,23.2243864 L25.4505397,23.2243864 L25.4505397,23.2243864 Z" id="Fill-24"></path>
                    <path d="M32.2102646,26.9241591 C32.2085926,27.1149545 32.2186243,27.2145 32.2002328,27.7653182 C32.8740317,27.7653182 34.0276825,27.7653182 34.8971005,27.7852273 C34.9372275,28.4355909 34.8971005,29.2186818 34.9071323,29.8889545 L22.8757249,29.8889545 C22.8556614,29.1987727 22.8556614,28.3244318 22.8757249,27.7752727 C23.8872593,27.7752727 24.6847831,27.7752727 25.3167831,27.7653182 C25.2950476,27.4749773 25.3251429,27.1000227 25.3034074,26.8992727 L28.9833862,25.2352045 L32.2102646,26.9241591 L32.2102646,26.9241591 Z M29.902963,26.9623182 C29.5769312,26.2306591 28.8412698,26.1394091 28.1858624,26.39325 C27.6976508,26.7184318 27.5037037,27.0734773 27.5337989,27.7752727 C27.6357884,28.5583636 28.4316402,28.9134091 29.1673016,28.7508182 C29.9848889,28.5069318 30.1888677,27.6939773 29.902963,26.9623182 L29.902963,26.9623182 Z" id="Fill-25"></path>
                    <path d="M34.9071323,30.8645 C34.9071323,33.3946136 34.8870688,37.8343409 34.917164,39.0338636 C35.6427937,39.0736818 36.6024974,39.0736818 37.1743069,39.0736818 L37.1743069,40.9849545 C35.1428783,40.3345909 31.640127,39.0239091 29.0251852,38.0483636 C26.348381,38.9724773 23.0797037,40.26325 20.5165926,41.1259773 C20.4965291,40.4557045 20.4864974,39.7240455 20.5065608,39.0736818 C21.0165079,39.1251136 22.3657778,39.0637273 22.8355979,39.0537727 L22.8757249,30.8645 L34.9071323,30.8645" id="Fill-26"></path>
                    <path d="M47.6708571,45.9638864 C47.6842328,45.9672045 49.1321481,46.6208864 49.0920212,46.6242045 C48.939873,46.8780455 48.5302434,47.6196591 48.2560423,48.0062273 L8.84465608,48.0161818 C8.84465608,47.9348864 8.26114286,46.7453182 8.27284656,46.6855909 C8.62897354,46.5429091 9.6104127,46.1165227 9.83445503,45.9539318 C9.83445503,45.2919545 9.82107937,42.7021136 9.8511746,42.0285227 L9.8511746,41.9770909 C9.87959788,42.0102727 11.5699471,42.0003182 11.6318095,42.0003182 C11.9076825,42.3470682 12.2136508,43.1898864 12.4995556,43.7075227 L12.4995556,44.9269545 C17.891619,43.3010455 23.5294603,41.1873636 28.9215238,39.0736818 C34.3152593,41.0247727 39.5451429,43.1384545 45.0174603,44.9269545 C44.9973968,44.9684318 45.0091005,43.6776591 45.0274921,43.6262273 L45.9688042,42.0003182 C46.0055873,42.0600455 47.6992804,41.9986591 47.6708571,42.0019773 L47.6708571,45.9638864" id="Fill-27"></path>
                    <path d="M36.7412698,64.2487273 C35.6762328,64.9953182 33.0763386,65.33875 30.730582,65.4100909 L30.7205503,61.3055 L27.216127,61.3154545 L27.2060952,65.4100909 C25.3167831,65.3188409 22.8857566,64.9123636 21.3241481,64.1923182 L21.3241481,61.3055 C20.618582,61.3270682 18.2811852,61.3055 17.7294392,61.3154545 L17.7294392,62.6477045 C14.4089312,61.0516591 10.2424127,56.7131364 9.62044444,55.4124091 L9.63047619,49.1941364 C12.5714497,49.2256591 34.4172487,49.2356136 47.6541376,49.2356136 C47.6541376,49.2356136 47.6558095,55.5733409 47.6725291,55.5451364 C46.3566984,57.7683182 42.0764868,61.8247955 40.1152804,62.6360909 L40.1152804,61.3055 L36.7663492,61.3154545 C36.7245503,61.2938864 36.7295661,64.1906591 36.7412698,64.1972955 L36.7412698,64.2487273 L36.7412698,64.2487273 Z M21.4378413,58.3589545 L21.0800423,58.3589545 C21.0817143,56.8143409 21.0833862,53.531 21.0683386,53.4613182 L18.0354074,53.4613182 L18.0354074,58.3075227 L17.6776085,58.3075227 L17.6776085,58.9894091 L21.4361693,58.9894091 L21.4378413,58.3589545 L21.4378413,58.3589545 Z M30.8342434,58.3589545 L30.4747725,58.3589545 C30.4781164,56.8143409 30.4797884,53.531 30.4647407,53.4613182 L27.4318095,53.4613182 L27.4318095,58.3075227 L27.0740106,58.3075227 L27.0740106,58.9894091 L30.8325714,58.9894091 L30.8342434,58.3589545 L30.8342434,58.3589545 Z M40.3326349,58.3589545 L39.973164,58.3589545 C39.974836,56.8143409 39.9781799,53.531 39.9631323,53.4613182 L36.9302011,53.4613182 L36.9302011,58.3075227 L36.5724021,58.3075227 L36.5724021,58.9894091 L40.330963,58.9894091 L40.3326349,58.3589545 L40.3326349,58.3589545 Z" id="Fill-28"></path>
                </g>
            </g>
            <path d="M94.9914999,43.7123677 L99.2939821,43.7123677 L99.2641038,25.9307235 L95.768337,25.9307235 L90.2109641,33.5471944 L84.6535913,25.9307235 L81.1578245,25.9307235 L81.1279461,43.7123677 L85.4304283,43.7123677 L85.4304283,33.8731912 L89.3146137,39.000232 L91.1371929,39.000232 L94.9914999,33.9028273 L94.9914999,43.7123677 Z M116.792735,25.9307235 L112.071956,25.9307235 L105.229814,43.7123677 L109.890837,43.7123677 L110.996335,40.5116717 L117.868356,40.5116717 L118.973854,43.7123677 L123.634877,43.7123677 L116.792735,25.9307235 Z M114.432346,30.553951 L116.7031,37.1331593 L112.161591,37.1331593 L114.432346,30.553951 Z M129.600587,25.9307235 L129.600587,43.7123677 L133.932948,43.7123677 L133.932948,37.8740612 L136.442729,37.8740612 L140.177523,43.7123677 L145.10745,43.7123677 L145.10745,43.416007 L141.073873,37.5184283 L141.073873,37.1924315 C143.135479,36.2440771 144.420248,34.3770045 144.420248,31.9172104 C144.420248,28.4497898 141.611683,25.9307235 137.51835,25.9307235 L129.600587,25.9307235 Z M139.938496,31.9172104 C139.938496,33.4286501 138.77324,34.2288241 137.249445,34.2288241 L133.932948,34.2288241 L133.932948,29.6352327 L137.219566,29.6352327 C138.803119,29.6352327 139.938496,30.3761346 139.938496,31.9172104 L139.938496,31.9172104 Z M156.242115,25.9307235 L151.909754,25.9307235 L151.909754,43.7123677 L156.242115,43.7123677 L156.242115,25.9307235 Z M175.951866,33.0137451 L168.661549,33.0137451 L168.661549,29.6352327 L177.356148,29.6352327 L177.356148,25.9307235 L164.329188,25.9307235 L164.329188,43.7123677 L177.356148,43.7123677 L177.356148,40.0078585 L168.661549,40.0078585 L168.661549,36.3922575 L175.951866,36.3922575 L175.951866,33.0137451 Z M183.47125,29.6352327 L188.520691,29.6352327 L188.520691,43.7123677 L192.853052,43.7123677 L192.853052,29.6352327 L197.902493,29.6352327 L197.902493,25.9307235 L183.47125,25.9307235 L183.47125,29.6352327 Z M203.659054,29.6352327 L208.708495,29.6352327 L208.708495,43.7123677 L213.040856,43.7123677 L213.040856,29.6352327 L218.090297,29.6352327 L218.090297,25.9307235 L203.659054,25.9307235 L203.659054,29.6352327 Z M232.541458,25.9307235 L227.820679,25.9307235 L220.978537,43.7123677 L225.63956,43.7123677 L226.745059,40.5116717 L233.617079,40.5116717 L234.722578,43.7123677 L239.3836,43.7123677 L232.541458,25.9307235 Z M230.181069,30.553951 L232.451823,37.1331593 L227.910314,37.1331593 L230.181069,30.553951 Z M266.732249,38.6445991 C266.732249,38.6445991 265.537115,39.9782224 263.146847,39.9782224 C260.338282,39.9782224 258.336433,37.9036973 258.336433,34.8215456 C258.336433,31.7393939 260.338282,29.6648688 263.146847,29.6648688 C265.537115,29.6648688 266.732249,30.9984921 266.732249,30.9984921 L269.212152,27.7088879 C269.212152,27.7088879 267.299937,25.5454545 263.08709,25.5454545 C257.290691,25.5454545 253.85468,29.7241409 253.85468,34.8215456 C253.85468,39.9189503 257.290691,44.1272727 263.08709,44.1272727 C267.299937,44.1272727 269.212152,41.9342033 269.212152,41.9342033 L266.732249,38.6445991 Z M283.394408,44.1272727 C288.862146,44.1272727 292.626818,39.9189503 292.626818,34.8215456 C292.626818,29.7241409 288.862146,25.5454545 283.394408,25.5454545 C277.986427,25.5454545 274.221755,29.7241409 274.221755,34.8215456 C274.221755,39.9189503 277.986427,44.1272727 283.394408,44.1272727 L283.394408,44.1272727 Z M283.394408,39.9485863 C280.794992,39.9485863 278.703507,37.9036973 278.703507,34.8215456 C278.703507,31.7393939 280.794992,29.6945049 283.394408,29.6945049 C286.053581,29.6945049 288.145065,31.7393939 288.145065,34.8215456 C288.145065,37.9036973 286.053581,39.9485863 283.394408,39.9485863 L283.394408,39.9485863 Z M312.037785,43.7123677 L312.037785,40.0078585 L304.030387,40.0078585 L304.030387,25.9307235 L299.698027,25.9307235 L299.698027,43.7123677 L312.037785,43.7123677 Z M331.418874,43.7123677 L331.418874,40.0078585 L323.411476,40.0078585 L323.411476,25.9307235 L319.079116,25.9307235 L319.079116,43.7123677 L331.418874,43.7123677 Z M350.082882,33.0137451 L342.792565,33.0137451 L342.792565,29.6352327 L351.487165,29.6352327 L351.487165,25.9307235 L338.460205,25.9307235 L338.460205,43.7123677 L351.487165,43.7123677 L351.487165,40.0078585 L342.792565,40.0078585 L342.792565,36.3922575 L350.082882,36.3922575 L350.082882,33.0137451 Z M366.207231,36.5108018 L370.300565,36.5108018 L370.300565,36.7182543 C370.240808,38.5556909 369.045674,39.9782224 366.59565,39.9782224 C363.936477,39.9782224 361.934627,37.9036973 361.934627,34.8215456 C361.934627,31.7393939 363.936477,29.6648688 366.59565,29.6648688 C369.165188,29.6648688 370.539592,31.0874003 370.539592,31.0874003 L373.139008,27.7681601 C373.139008,27.7681601 371.226794,25.5454545 366.655406,25.5454545 C360.918764,25.5454545 357.452875,29.7241409 357.452875,34.8215456 C357.452875,39.9189503 360.859007,44.0976367 366.59565,44.0976367 C371.824361,44.0976367 375.140858,40.7783964 375.140858,35.7106278 L375.140858,33.1322894 L366.207231,33.1322894 L366.207231,36.5108018 Z M393.595718,33.0137451 L386.305401,33.0137451 L386.305401,29.6352327 L395,29.6352327 L395,25.9307235 L381.97304,25.9307235 L381.97304,43.7123677 L395,43.7123677 L395,40.0078585 L386.305401,40.0078585 L386.305401,36.3922575 L393.595718,36.3922575 L393.595718,33.0137451 Z" id="MENU-Copy-6" sketch:type="MSShapeGroup"></path>
        </g>
        <g id="marrieta-logo-copy-2-+-MENU-Copy-6" sketch:type="MSLayerGroup" transform="translate(395.000000, 1.000000)" fill="#005794">
            <g id="marrieta-logo-copy-2" sketch:type="MSShapeGroup">
                <g id="marrieta-logo">
                    <path d="M54.4138624,15.8265 C58.8261587,25.499 57.7845291,43.3823409 55.9052487,50.3123636 C54.1078942,58.1150682 47.4702222,65.6556364 39.9514286,68.7432045 C29.0034497,73.0518636 16.6660741,70.1866136 8.16918519,61.6721591 C-2.92258201,51.8768864 0.673798942,27.6541591 0.89784127,23.87475 C2.12338624,14.6070682 9.96653968,5.09715909 19.117164,2.00793182 C32.8439365,-2.70720455 47.796254,2.98347727 54.4138624,15.8265 L54.4138624,15.8265 Z M49.1037249,14.8509545 C43.056254,6.39788636 32.7620106,2.33311364 22.3039153,5.09715909 C13.153291,7.53602273 5.47398942,16.1516818 4.65640212,25.5802955 C4.08459259,38.9326591 2.53134392,52.7313182 13.8070265,61.2656818 C21.3040847,67.5038636 32.8439365,68.1741364 40.9328677,63.62325 C47.714328,59.2233409 52.9809947,51.2646818 53.2702434,42.5693864 C53.5561481,33.9736364 54.6596402,22.6553182 49.1037249,14.8509545 L49.1037249,14.8509545 Z" id="Fill-22"></path>
                    <path d="M23.464254,16.7257273 L23.4675979,16.3955682 L23.7752381,16.3955682 L23.7752381,16.7008409 L27.5538624,16.7008409 L27.5538624,16.447 L28.9833862,16.1417273 L30.4129101,16.447 L30.4129101,16.7008409 L33.7835767,16.7008409 L33.7835767,16.447 L34.0845291,16.4702273 C34.0694815,16.4320682 34.0661376,16.6444318 34.089545,16.6908864 C34.1313439,16.7506136 34.3453545,16.7008409 34.3754497,16.6908864 L34.0694815,16.9945 L34.0811852,26.39325 C33.6297566,26.4247727 32.9877249,26.39325 32.5162328,26.3832955 C32.5062011,26.1709318 32.5062011,25.9569091 32.4861376,25.59025 L28.9633228,23.7105 C28.3296508,24.0058182 25.992254,25.1140909 24.9807196,25.6118182 C25.0108148,25.8142273 25.0108148,26.1493636 25.0007831,26.39325 L23.4475344,26.39325 L23.4475344,17.0459318 C23.4375026,17.0260227 23.185037,16.7837955 23.1816931,16.7008409 C23.2034286,16.7141136 23.3605926,16.7008409 23.464254,16.7257273 L23.464254,16.7257273 Z M31.1285079,23.2243864 L31.1385397,18.7531364 C29.9648254,18.7116591 27.2679577,18.7116591 26.5523598,18.7531364 L26.5523598,23.2243864 L31.1285079,23.2243864 L31.1285079,23.2243864 Z M33.0077884,23.2243864 L33.0178201,18.7531364 L32.1902011,18.7531364 L32.1902011,23.2243864 L33.0077884,23.2243864 L33.0077884,23.2243864 Z M25.4505397,23.2243864 L25.4605714,18.7531364 L24.6329524,18.7531364 L24.6329524,23.2243864 L25.4505397,23.2243864 L25.4505397,23.2243864 Z" id="Fill-24"></path>
                    <path d="M32.2102646,26.9241591 C32.2085926,27.1149545 32.2186243,27.2145 32.2002328,27.7653182 C32.8740317,27.7653182 34.0276825,27.7653182 34.8971005,27.7852273 C34.9372275,28.4355909 34.8971005,29.2186818 34.9071323,29.8889545 L22.8757249,29.8889545 C22.8556614,29.1987727 22.8556614,28.3244318 22.8757249,27.7752727 C23.8872593,27.7752727 24.6847831,27.7752727 25.3167831,27.7653182 C25.2950476,27.4749773 25.3251429,27.1000227 25.3034074,26.8992727 L28.9833862,25.2352045 L32.2102646,26.9241591 L32.2102646,26.9241591 Z M29.902963,26.9623182 C29.5769312,26.2306591 28.8412698,26.1394091 28.1858624,26.39325 C27.6976508,26.7184318 27.5037037,27.0734773 27.5337989,27.7752727 C27.6357884,28.5583636 28.4316402,28.9134091 29.1673016,28.7508182 C29.9848889,28.5069318 30.1888677,27.6939773 29.902963,26.9623182 L29.902963,26.9623182 Z" id="Fill-25"></path>
                    <path d="M34.9071323,30.8645 C34.9071323,33.3946136 34.8870688,37.8343409 34.917164,39.0338636 C35.6427937,39.0736818 36.6024974,39.0736818 37.1743069,39.0736818 L37.1743069,40.9849545 C35.1428783,40.3345909 31.640127,39.0239091 29.0251852,38.0483636 C26.348381,38.9724773 23.0797037,40.26325 20.5165926,41.1259773 C20.4965291,40.4557045 20.4864974,39.7240455 20.5065608,39.0736818 C21.0165079,39.1251136 22.3657778,39.0637273 22.8355979,39.0537727 L22.8757249,30.8645 L34.9071323,30.8645" id="Fill-26"></path>
                    <path d="M47.6708571,45.9638864 C47.6842328,45.9672045 49.1321481,46.6208864 49.0920212,46.6242045 C48.939873,46.8780455 48.5302434,47.6196591 48.2560423,48.0062273 L8.84465608,48.0161818 C8.84465608,47.9348864 8.26114286,46.7453182 8.27284656,46.6855909 C8.62897354,46.5429091 9.6104127,46.1165227 9.83445503,45.9539318 C9.83445503,45.2919545 9.82107937,42.7021136 9.8511746,42.0285227 L9.8511746,41.9770909 C9.87959788,42.0102727 11.5699471,42.0003182 11.6318095,42.0003182 C11.9076825,42.3470682 12.2136508,43.1898864 12.4995556,43.7075227 L12.4995556,44.9269545 C17.891619,43.3010455 23.5294603,41.1873636 28.9215238,39.0736818 C34.3152593,41.0247727 39.5451429,43.1384545 45.0174603,44.9269545 C44.9973968,44.9684318 45.0091005,43.6776591 45.0274921,43.6262273 L45.9688042,42.0003182 C46.0055873,42.0600455 47.6992804,41.9986591 47.6708571,42.0019773 L47.6708571,45.9638864" id="Fill-27"></path>
                    <path d="M36.7412698,64.2487273 C35.6762328,64.9953182 33.0763386,65.33875 30.730582,65.4100909 L30.7205503,61.3055 L27.216127,61.3154545 L27.2060952,65.4100909 C25.3167831,65.3188409 22.8857566,64.9123636 21.3241481,64.1923182 L21.3241481,61.3055 C20.618582,61.3270682 18.2811852,61.3055 17.7294392,61.3154545 L17.7294392,62.6477045 C14.4089312,61.0516591 10.2424127,56.7131364 9.62044444,55.4124091 L9.63047619,49.1941364 C12.5714497,49.2256591 34.4172487,49.2356136 47.6541376,49.2356136 C47.6541376,49.2356136 47.6558095,55.5733409 47.6725291,55.5451364 C46.3566984,57.7683182 42.0764868,61.8247955 40.1152804,62.6360909 L40.1152804,61.3055 L36.7663492,61.3154545 C36.7245503,61.2938864 36.7295661,64.1906591 36.7412698,64.1972955 L36.7412698,64.2487273 L36.7412698,64.2487273 Z M21.4378413,58.3589545 L21.0800423,58.3589545 C21.0817143,56.8143409 21.0833862,53.531 21.0683386,53.4613182 L18.0354074,53.4613182 L18.0354074,58.3075227 L17.6776085,58.3075227 L17.6776085,58.9894091 L21.4361693,58.9894091 L21.4378413,58.3589545 L21.4378413,58.3589545 Z M30.8342434,58.3589545 L30.4747725,58.3589545 C30.4781164,56.8143409 30.4797884,53.531 30.4647407,53.4613182 L27.4318095,53.4613182 L27.4318095,58.3075227 L27.0740106,58.3075227 L27.0740106,58.9894091 L30.8325714,58.9894091 L30.8342434,58.3589545 L30.8342434,58.3589545 Z M40.3326349,58.3589545 L39.973164,58.3589545 C39.974836,56.8143409 39.9781799,53.531 39.9631323,53.4613182 L36.9302011,53.4613182 L36.9302011,58.3075227 L36.5724021,58.3075227 L36.5724021,58.9894091 L40.330963,58.9894091 L40.3326349,58.3589545 L40.3326349,58.3589545 Z" id="Fill-28"></path>
                </g>
            </g>
            <path d="M94.9914999,43.7123677 L99.2939821,43.7123677 L99.2641038,25.9307235 L95.768337,25.9307235 L90.2109641,33.5471944 L84.6535913,25.9307235 L81.1578245,25.9307235 L81.1279461,43.7123677 L85.4304283,43.7123677 L85.4304283,33.8731912 L89.3146137,39.000232 L91.1371929,39.000232 L94.9914999,33.9028273 L94.9914999,43.7123677 Z M116.792735,25.9307235 L112.071956,25.9307235 L105.229814,43.7123677 L109.890837,43.7123677 L110.996335,40.5116717 L117.868356,40.5116717 L118.973854,43.7123677 L123.634877,43.7123677 L116.792735,25.9307235 Z M114.432346,30.553951 L116.7031,37.1331593 L112.161591,37.1331593 L114.432346,30.553951 Z M129.600587,25.9307235 L129.600587,43.7123677 L133.932948,43.7123677 L133.932948,37.8740612 L136.442729,37.8740612 L140.177523,43.7123677 L145.10745,43.7123677 L145.10745,43.416007 L141.073873,37.5184283 L141.073873,37.1924315 C143.135479,36.2440771 144.420248,34.3770045 144.420248,31.9172104 C144.420248,28.4497898 141.611683,25.9307235 137.51835,25.9307235 L129.600587,25.9307235 Z M139.938496,31.9172104 C139.938496,33.4286501 138.77324,34.2288241 137.249445,34.2288241 L133.932948,34.2288241 L133.932948,29.6352327 L137.219566,29.6352327 C138.803119,29.6352327 139.938496,30.3761346 139.938496,31.9172104 L139.938496,31.9172104 Z M156.242115,25.9307235 L151.909754,25.9307235 L151.909754,43.7123677 L156.242115,43.7123677 L156.242115,25.9307235 Z M175.951866,33.0137451 L168.661549,33.0137451 L168.661549,29.6352327 L177.356148,29.6352327 L177.356148,25.9307235 L164.329188,25.9307235 L164.329188,43.7123677 L177.356148,43.7123677 L177.356148,40.0078585 L168.661549,40.0078585 L168.661549,36.3922575 L175.951866,36.3922575 L175.951866,33.0137451 Z M183.47125,29.6352327 L188.520691,29.6352327 L188.520691,43.7123677 L192.853052,43.7123677 L192.853052,29.6352327 L197.902493,29.6352327 L197.902493,25.9307235 L183.47125,25.9307235 L183.47125,29.6352327 Z M203.659054,29.6352327 L208.708495,29.6352327 L208.708495,43.7123677 L213.040856,43.7123677 L213.040856,29.6352327 L218.090297,29.6352327 L218.090297,25.9307235 L203.659054,25.9307235 L203.659054,29.6352327 Z M232.541458,25.9307235 L227.820679,25.9307235 L220.978537,43.7123677 L225.63956,43.7123677 L226.745059,40.5116717 L233.617079,40.5116717 L234.722578,43.7123677 L239.3836,43.7123677 L232.541458,25.9307235 Z M230.181069,30.553951 L232.451823,37.1331593 L227.910314,37.1331593 L230.181069,30.553951 Z M266.732249,38.6445991 C266.732249,38.6445991 265.537115,39.9782224 263.146847,39.9782224 C260.338282,39.9782224 258.336433,37.9036973 258.336433,34.8215456 C258.336433,31.7393939 260.338282,29.6648688 263.146847,29.6648688 C265.537115,29.6648688 266.732249,30.9984921 266.732249,30.9984921 L269.212152,27.7088879 C269.212152,27.7088879 267.299937,25.5454545 263.08709,25.5454545 C257.290691,25.5454545 253.85468,29.7241409 253.85468,34.8215456 C253.85468,39.9189503 257.290691,44.1272727 263.08709,44.1272727 C267.299937,44.1272727 269.212152,41.9342033 269.212152,41.9342033 L266.732249,38.6445991 Z M283.394408,44.1272727 C288.862146,44.1272727 292.626818,39.9189503 292.626818,34.8215456 C292.626818,29.7241409 288.862146,25.5454545 283.394408,25.5454545 C277.986427,25.5454545 274.221755,29.7241409 274.221755,34.8215456 C274.221755,39.9189503 277.986427,44.1272727 283.394408,44.1272727 L283.394408,44.1272727 Z M283.394408,39.9485863 C280.794992,39.9485863 278.703507,37.9036973 278.703507,34.8215456 C278.703507,31.7393939 280.794992,29.6945049 283.394408,29.6945049 C286.053581,29.6945049 288.145065,31.7393939 288.145065,34.8215456 C288.145065,37.9036973 286.053581,39.9485863 283.394408,39.9485863 L283.394408,39.9485863 Z M312.037785,43.7123677 L312.037785,40.0078585 L304.030387,40.0078585 L304.030387,25.9307235 L299.698027,25.9307235 L299.698027,43.7123677 L312.037785,43.7123677 Z M331.418874,43.7123677 L331.418874,40.0078585 L323.411476,40.0078585 L323.411476,25.9307235 L319.079116,25.9307235 L319.079116,43.7123677 L331.418874,43.7123677 Z M350.082882,33.0137451 L342.792565,33.0137451 L342.792565,29.6352327 L351.487165,29.6352327 L351.487165,25.9307235 L338.460205,25.9307235 L338.460205,43.7123677 L351.487165,43.7123677 L351.487165,40.0078585 L342.792565,40.0078585 L342.792565,36.3922575 L350.082882,36.3922575 L350.082882,33.0137451 Z M366.207231,36.5108018 L370.300565,36.5108018 L370.300565,36.7182543 C370.240808,38.5556909 369.045674,39.9782224 366.59565,39.9782224 C363.936477,39.9782224 361.934627,37.9036973 361.934627,34.8215456 C361.934627,31.7393939 363.936477,29.6648688 366.59565,29.6648688 C369.165188,29.6648688 370.539592,31.0874003 370.539592,31.0874003 L373.139008,27.7681601 C373.139008,27.7681601 371.226794,25.5454545 366.655406,25.5454545 C360.918764,25.5454545 357.452875,29.7241409 357.452875,34.8215456 C357.452875,39.9189503 360.859007,44.0976367 366.59565,44.0976367 C371.824361,44.0976367 375.140858,40.7783964 375.140858,35.7106278 L375.140858,33.1322894 L366.207231,33.1322894 L366.207231,36.5108018 Z M393.595718,33.0137451 L386.305401,33.0137451 L386.305401,29.6352327 L395,29.6352327 L395,25.9307235 L381.97304,25.9307235 L381.97304,43.7123677 L395,43.7123677 L395,40.0078585 L386.305401,40.0078585 L386.305401,36.3922575 L393.595718,36.3922575 L393.595718,33.0137451 Z" id="MENU-Copy-6" sketch:type="MSShapeGroup"></path>
        </g>
    </g>
</svg>