<?xml version="1.0" encoding="UTF-8" standalone="no"?>
<svg width="150px" height="150px" viewBox="0 0 150 150" version="1.1" xmlns="http://www.w3.org/2000/svg" xmlns:xlink="http://www.w3.org/1999/xlink">
    <!-- Generator: Sketch 3.6.1 (26313) - http://www.bohemiancoding.com/sketch -->
    <title>Group 4</title>
    <desc>Created with Sketch.</desc>
    <defs></defs>
    <g id="Phase-02-Interiors" stroke="none" stroke-width="1" fill="none" fill-rule="evenodd">
        <g id="Directory" transform="translate(-228.000000, -668.000000)">
            <g id="Group-4" transform="translate(228.000000, 668.000000)">
                <g id="Group-3">
                    <rect id="Rectangle-286-Copy-2" fill="#DDDDDD" x="0" y="0" width="150" height="150"></rect>
                    <g id="Group-2" transform="translate(46.000000, 39.000000)" opacity="0.498250933" fill="#FFFFFF">
                        <g id="marrieta-logo">
                            <path d="M54.4138624,16.8265 C58.8261587,26.499 57.7845291,44.3823409 55.9052487,51.3123636 C54.1078942,59.1150682 47.4702222,66.6556364 39.9514286,69.7432045 C29.0034497,74.0518636 16.6660741,71.1866136 8.16918519,62.6721591 C-2.92258201,52.8768864 0.673798942,28.6541591 0.89784127,24.87475 C2.12338624,15.6070682 9.96653968,6.09715909 19.117164,3.00793182 C32.8439365,-1.70720455 47.796254,3.98347727 54.4138624,16.8265 L54.4138624,16.8265 Z M49.1037249,15.8509545 C43.056254,7.39788636 32.7620106,3.33311364 22.3039153,6.09715909 C13.153291,8.53602273 5.47398942,17.1516818 4.65640212,26.5802955 C4.08459259,39.9326591 2.53134392,53.7313182 13.8070265,62.2656818 C21.3040847,68.5038636 32.8439365,69.1741364 40.9328677,64.62325 C47.714328,60.2233409 52.9809947,52.2646818 53.2702434,43.5693864 C53.5561481,34.9736364 54.6596402,23.6553182 49.1037249,15.8509545 L49.1037249,15.8509545 Z" id="Fill-22"></path>
                            <path d="M23.464254,17.7257273 L23.4675979,17.3955682 L23.7752381,17.3955682 L23.7752381,17.7008409 L27.5538624,17.7008409 L27.5538624,17.447 L28.9833862,17.1417273 L30.4129101,17.447 L30.4129101,17.7008409 L33.7835767,17.7008409 L33.7835767,17.447 L34.0845291,17.4702273 C34.0694815,17.4320682 34.0661376,17.6444318 34.089545,17.6908864 C34.1313439,17.7506136 34.3453545,17.7008409 34.3754497,17.6908864 L34.0694815,17.9945 L34.0811852,27.39325 C33.6297566,27.4247727 32.9877249,27.39325 32.5162328,27.3832955 C32.5062011,27.1709318 32.5062011,26.9569091 32.4861376,26.59025 L28.9633228,24.7105 C28.3296508,25.0058182 25.992254,26.1140909 24.9807196,26.6118182 C25.0108148,26.8142273 25.0108148,27.1493636 25.0007831,27.39325 L23.4475344,27.39325 L23.4475344,18.0459318 C23.4375026,18.0260227 23.185037,17.7837955 23.1816931,17.7008409 C23.2034286,17.7141136 23.3605926,17.7008409 23.464254,17.7257273 L23.464254,17.7257273 Z M31.1285079,24.2243864 L31.1385397,19.7531364 C29.9648254,19.7116591 27.2679577,19.7116591 26.5523598,19.7531364 L26.5523598,24.2243864 L31.1285079,24.2243864 L31.1285079,24.2243864 Z M33.0077884,24.2243864 L33.0178201,19.7531364 L32.1902011,19.7531364 L32.1902011,24.2243864 L33.0077884,24.2243864 L33.0077884,24.2243864 Z M25.4505397,24.2243864 L25.4605714,19.7531364 L24.6329524,19.7531364 L24.6329524,24.2243864 L25.4505397,24.2243864 L25.4505397,24.2243864 Z" id="Fill-24"></path>
                            <path d="M32.2102646,27.9241591 C32.2085926,28.1149545 32.2186243,28.2145 32.2002328,28.7653182 C32.8740317,28.7653182 34.0276825,28.7653182 34.8971005,28.7852273 C34.9372275,29.4355909 34.8971005,30.2186818 34.9071323,30.8889545 L22.8757249,30.8889545 C22.8556614,30.1987727 22.8556614,29.3244318 22.8757249,28.7752727 C23.8872593,28.7752727 24.6847831,28.7752727 25.3167831,28.7653182 C25.2950476,28.4749773 25.3251429,28.1000227 25.3034074,27.8992727 L28.9833862,26.2352045 L32.2102646,27.9241591 L32.2102646,27.9241591 Z M29.902963,27.9623182 C29.5769312,27.2306591 28.8412698,27.1394091 28.1858624,27.39325 C27.6976508,27.7184318 27.5037037,28.0734773 27.5337989,28.7752727 C27.6357884,29.5583636 28.4316402,29.9134091 29.1673016,29.7508182 C29.9848889,29.5069318 30.1888677,28.6939773 29.902963,27.9623182 L29.902963,27.9623182 Z" id="Fill-25"></path>
                            <path d="M34.9071323,31.8645 C34.9071323,34.3946136 34.8870688,38.8343409 34.917164,40.0338636 C35.6427937,40.0736818 36.6024974,40.0736818 37.1743069,40.0736818 L37.1743069,41.9849545 C35.1428783,41.3345909 31.640127,40.0239091 29.0251852,39.0483636 C26.348381,39.9724773 23.0797037,41.26325 20.5165926,42.1259773 C20.4965291,41.4557045 20.4864974,40.7240455 20.5065608,40.0736818 C21.0165079,40.1251136 22.3657778,40.0637273 22.8355979,40.0537727 L22.8757249,31.8645 L34.9071323,31.8645" id="Fill-26"></path>
                            <path d="M47.6708571,46.9638864 C47.6842328,46.9672045 49.1321481,47.6208864 49.0920212,47.6242045 C48.939873,47.8780455 48.5302434,48.6196591 48.2560423,49.0062273 L8.84465608,49.0161818 C8.84465608,48.9348864 8.26114286,47.7453182 8.27284656,47.6855909 C8.62897354,47.5429091 9.6104127,47.1165227 9.83445503,46.9539318 C9.83445503,46.2919545 9.82107937,43.7021136 9.8511746,43.0285227 L9.8511746,42.9770909 C9.87959788,43.0102727 11.5699471,43.0003182 11.6318095,43.0003182 C11.9076825,43.3470682 12.2136508,44.1898864 12.4995556,44.7075227 L12.4995556,45.9269545 C17.891619,44.3010455 23.5294603,42.1873636 28.9215238,40.0736818 C34.3152593,42.0247727 39.5451429,44.1384545 45.0174603,45.9269545 C44.9973968,45.9684318 45.0091005,44.6776591 45.0274921,44.6262273 L45.9688042,43.0003182 C46.0055873,43.0600455 47.6992804,42.9986591 47.6708571,43.0019773 L47.6708571,46.9638864" id="Fill-27"></path>
                            <path d="M36.7412698,65.2487273 C35.6762328,65.9953182 33.0763386,66.33875 30.730582,66.4100909 L30.7205503,62.3055 L27.216127,62.3154545 L27.2060952,66.4100909 C25.3167831,66.3188409 22.8857566,65.9123636 21.3241481,65.1923182 L21.3241481,62.3055 C20.618582,62.3270682 18.2811852,62.3055 17.7294392,62.3154545 L17.7294392,63.6477045 C14.4089312,62.0516591 10.2424127,57.7131364 9.62044444,56.4124091 L9.63047619,50.1941364 C12.5714497,50.2256591 34.4172487,50.2356136 47.6541376,50.2356136 C47.6541376,50.2356136 47.6558095,56.5733409 47.6725291,56.5451364 C46.3566984,58.7683182 42.0764868,62.8247955 40.1152804,63.6360909 L40.1152804,62.3055 L36.7663492,62.3154545 C36.7245503,62.2938864 36.7295661,65.1906591 36.7412698,65.1972955 L36.7412698,65.2487273 L36.7412698,65.2487273 Z M21.4378413,59.3589545 L21.0800423,59.3589545 C21.0817143,57.8143409 21.0833862,54.531 21.0683386,54.4613182 L18.0354074,54.4613182 L18.0354074,59.3075227 L17.6776085,59.3075227 L17.6776085,59.9894091 L21.4361693,59.9894091 L21.4378413,59.3589545 L21.4378413,59.3589545 Z M30.8342434,59.3589545 L30.4747725,59.3589545 C30.4781164,57.8143409 30.4797884,54.531 30.4647407,54.4613182 L27.4318095,54.4613182 L27.4318095,59.3075227 L27.0740106,59.3075227 L27.0740106,59.9894091 L30.8325714,59.9894091 L30.8342434,59.3589545 L30.8342434,59.3589545 Z M40.3326349,59.3589545 L39.973164,59.3589545 C39.974836,57.8143409 39.9781799,54.531 39.9631323,54.4613182 L36.9302011,54.4613182 L36.9302011,59.3075227 L36.5724021,59.3075227 L36.5724021,59.9894091 L40.330963,59.9894091 L40.3326349,59.3589545 L40.3326349,59.3589545 Z" id="Fill-28"></path>
                        </g>
                    </g>
                </g>
            </g>
        </g>
    </g>
</svg>