<?xml version="1.0" encoding="UTF-8"?>
<svg width="18px" height="16px" viewBox="0 0 18 16" version="1.1" xmlns="http://www.w3.org/2000/svg" xmlns:xlink="http://www.w3.org/1999/xlink">
    <!-- Generator: Sketch 48.2 (47327) - http://www.bohemiancoding.com/sketch -->
    <title>hamburger</title>
    <desc>Created with Sketch.</desc>
    <defs></defs>
    <g id="Header-/-Option-D" stroke="none" stroke-width="1" fill="none" fill-rule="evenodd" transform="translate(-1041.000000, -95.000000)">
        <g id="Main-Nav" fill="#6F6F6F">
            <g transform="translate(709.000000, 78.000000)" id="More">
                <g transform="translate(332.000000, 14.000000)">
                    <g id="hamburger" transform="translate(0.000000, 3.000000)">
                        <path d="M1.30434783,0 L16.6956522,0 C17.4160957,0 18,0.761848276 18,1.37931034 C18,2.14115862 17.4160957,2.75862069 16.6956522,2.75862069 L1.30434783,2.75862069 C0.583904348,2.75862069 0,1.99677241 0,1.37931034 C0,0.617462069 0.583904348,0 1.30434783,0 Z" id="Fill-1"></path>
                        <path d="M1.30434783,6.62068966 L16.6956522,6.62068966 C17.4160957,6.62068966 18,7.38253793 18,8 C18,8.76184828 17.4160957,9.37931034 16.6956522,9.37931034 L1.30434783,9.37931034 C0.583904348,9.37931034 0,8.61746207 0,8 C0,7.23815172 0.583904348,6.62068966 1.30434783,6.62068966 Z" id="Fill-2"></path>
                        <path d="M1.30434783,13.2413793 L16.6956522,13.2413793 C17.4160957,13.2413793 18,14.0032276 18,14.6206897 C18,15.3825379 17.4160957,16 16.6956522,16 L1.30434783,16 C0.583904348,16 0,15.2381517 0,14.6206897 C0,13.8588414 0.583904348,13.2413793 1.30434783,13.2413793 Z" id="Fill-3"></path>
                    </g>
                </g>
            </g>
        </g>
    </g>
</svg>