<?xml version="1.0" encoding="UTF-8"?>
<svg width="17px" height="17px" viewBox="0 0 17 17" version="1.1" xmlns="http://www.w3.org/2000/svg" xmlns:xlink="http://www.w3.org/1999/xlink">
    <!-- Generator: Sketch 48.2 (47327) - http://www.bohemiancoding.com/sketch -->
    <title>icon-user</title>
    <desc>Created with Sketch.</desc>
    <defs></defs>
    <g id="Header-/-Option-D" stroke="none" stroke-width="1" fill="none" fill-rule="evenodd" transform="translate(-1084.000000, -24.000000)" opacity="0.799999952">
        <g id="Login" transform="translate(1084.000000, 23.000000)" fill="#4A4A4A">
            <path d="M8.5,1 C3.81175789,1 0,4.81175789 0,9.5 C0,14.1882421 3.81175789,18 8.5,18 C13.1882421,18 17,14.1882421 17,9.5 C17,4.81175789 13.1882421,1 8.5,1 Z M13.5461368,14.0987684 C13.2958968,13.6514 12.90164,13.2753242 12.3829789,13.0789116 L10.6116863,12.3092947 C10.1461368,12.1303474 9.82460421,11.6829789 9.78824211,11.1817832 L9.75259221,10.8595347 C10.5760364,10.2332189 11.1303438,9.01619789 11.1303438,7.72795579 C11.1303438,5.86726105 9.94900484,4.57812421 8.49999642,4.57812421 C7.05023642,4.57812421 5.86964905,5.86640211 5.86964905,7.72795579 C5.86964905,9.01623368 6.42467221,10.2149663 7.24740063,10.8595347 L7.21175074,11.1817832 C7.17610084,11.6829789 6.853856,12.1121663 6.38830653,12.3092947 L4.61701389,13.0789116 C4.11581811,13.27604 3.704096,13.6514 3.453856,14.0987684 C2.34452547,12.8817832 1.66438232,11.2712211 1.66438232,9.5 C1.66438232,5.74210526 4.72474021,2.68174737 8.48263495,2.68174737 C12.2405297,2.68174737 15.3008876,5.74210526 15.3008876,9.5 C15.3183636,11.2712926 14.6382276,12.8817474 13.5463623,14.0987684 L13.5461368,14.0987684 Z" id="icon-user"></path>
        </g>
    </g>
</svg>