<?xml version="1.0" encoding="UTF-8"?>
<svg width="19px" height="17px" viewBox="0 0 19 17" version="1.1" xmlns="http://www.w3.org/2000/svg" xmlns:xlink="http://www.w3.org/1999/xlink">
    <!-- Generator: Sketch 48.2 (47327) - http://www.bohemiancoding.com/sketch -->
    <title>icon-close</title>
    <desc>Created with Sketch.</desc>
    <defs></defs>
    <g id="maranatha-00-home-opt-c-dr1" stroke="none" stroke-width="1" fill="none" fill-rule="evenodd" transform="translate(-1315.000000, -44.000000)">
        <g id="Off-Canvas-Menu" transform="translate(720.000000, 0.000000)" fill="#F59502">
            <g id="Close" transform="translate(594.000000, 42.000000)">
                <g id="icon-close" transform="translate(0.000000, 2.000000)">
                    <path d="M0.367883274,7.14658619 L20.2055651,7.14658619 C21.1341367,7.14658619 21.8867246,7.90881539 21.8867246,8.52658618 C21.8867246,9.28881538 21.1341367,9.90658618 20.2055651,9.90658618 L0.367883274,9.90658618 C-0.560688351,9.90658618 -1.3132762,9.14435698 -1.3132762,8.52658618 C-1.3132762,7.76435699 -0.560688351,7.14658619 0.367883274,7.14658619 Z" id="Fill-2" transform="translate(10.286724, 8.526586) rotate(40.000000) translate(-10.286724, -8.526586) "></path>
                    <path d="M0.367883274,7.14658619 L20.2055651,7.14658619 C21.1341367,7.14658619 21.8867246,7.90881539 21.8867246,8.52658618 C21.8867246,9.28881538 21.1341367,9.90658618 20.2055651,9.90658618 L0.367883274,9.90658618 C-0.560688351,9.90658618 -1.3132762,9.14435698 -1.3132762,8.52658618 C-1.3132762,7.76435699 -0.560688351,7.14658619 0.367883274,7.14658619 Z" id="Fill-2-Copy" transform="translate(10.286724, 8.526586) scale(-1, 1) rotate(40.000000) translate(-10.286724, -8.526586) "></path>
                </g>
            </g>
        </g>
    </g>
</svg>