<?xml version="1.0" encoding="UTF-8"?>
<svg width="235px" height="90px" viewBox="0 0 235 90" version="1.1" xmlns="http://www.w3.org/2000/svg" xmlns:xlink="http://www.w3.org/1999/xlink">
    <!-- Generator: Sketch 48.2 (47327) - http://www.bohemiancoding.com/sketch -->
    <title>maranatha-logo-color</title>
    <desc>Created with Sketch.</desc>
    <defs></defs>
    <g id="Header-/-Option-D" stroke="none" stroke-width="1" fill="none" fill-rule="evenodd" transform="translate(-94.000000, -25.000000)">
        <g id="maranatha-logo-color" transform="translate(94.000000, 25.000000)">
            <g id="volunteers-international" transform="translate(68.000000, 83.000000)" fill="#12247D">
                <path d="M3.52777947,6.76531934 L6.05063643,0.472369345 L4.94423418,0.28959553 C4.35011132,1.9129554 3.75598846,3.53674735 3.17139236,5.37917655 L3.15277189,5.37917655 C2.59545694,3.53674735 2.03814198,1.9129554 1.47130028,0.28959553 L0.100314157,0.472369345 L2.47637255,6.76531934 L3.52777947,6.76531934 L3.52777947,6.76531934 Z" id="Fill-7"></path>
                <path d="M11.1065267,5.96275649 C9.7628217,5.96275649 9.28778323,4.70408007 9.28778323,3.48213125 C9.28778323,2.30555182 9.82647772,1.18341566 11.1065267,1.18341566 C12.3861426,1.18341566 12.9252701,2.30555182 12.9252701,3.48213125 C12.9252701,4.70408007 12.4502316,5.96275649 11.1065267,5.96275649 M11.1065267,6.87446512 C13.0716356,6.87446512 14.2966893,5.38807759 14.2966893,3.48213125 C14.2966893,1.69414533 12.9438906,0.27127494 11.1065267,0.27127494 C9.26916276,0.27127494 7.91636407,1.69414533 7.91636407,3.48213125 C7.91636407,5.38807759 9.14098465,6.87446512 11.1065267,6.87446512" id="Fill-9"></path>
                <polygon id="Fill-11" points="16.8844147 6.76531934 20.7141688 6.76531934 20.7141688 5.90805397 18.1735574 5.90805397 18.1735574 0.381198482 16.8844147 0.381198482"></polygon>
                <path d="M23.0008056,0.381025647 L23.0008056,4.28452127 C23.0008056,6.02670572 23.905847,6.87446512 25.6423139,6.87446512 C27.1596656,6.87446512 28.2015458,5.96275649 28.2015458,4.3484705 L28.2015458,0.381025647 L27.050108,0.381025647 L27.050108,4.1203273 C27.050108,5.15086051 26.656913,5.98090424 25.6791218,5.98090424 C24.6549961,5.98090424 24.2895152,5.29690673 24.2895152,4.04730419 L24.2895152,0.381025647 L23.0008056,0.381025647 Z" id="Fill-13"></path>
                <path d="M36.7035651,0.381025647 L35.6707786,0.381025647 L35.6707786,4.93222327 L35.6525912,4.93222327 C34.445725,3.29028356 33.2301982,1.84019154 32.0051445,0.381025647 L31.0637283,0.381025647 L31.0637283,6.7651465 L32.0965148,6.7651465 L32.0965148,2.18672724 L32.1147022,2.18672724 C33.3215684,3.83774083 34.5461889,5.29690673 35.7712426,6.7651465 L36.7035651,6.7651465 L36.7035651,0.381025647 Z" id="Fill-15"></path>
                <polygon id="Fill-17" points="42.234667 6.76531934 42.234667 1.23803176 44.2088697 1.23803176 44.2088697 0.381198482 38.9713216 0.381198482 38.9713216 1.23803176 40.9459574 1.23803176 40.9459574 6.76531934"></polygon>
                <polygon id="Fill-19" points="49.9138348 0.381025647 46.4768428 0.381025647 46.4768428 6.7651465 50.3070298 6.7651465 50.3070298 5.90831322 47.7659854 5.90831322 47.7659854 3.84681471 49.8679332 3.84681471 49.8679332 2.98954934 47.7659854 2.98954934 47.7659854 1.23829101 49.9138348 1.23829101"></polygon>
                <polygon id="Fill-21" points="56.2858458 0.381025647 52.8492867 0.381025647 52.8492867 6.7651465 56.6790408 6.7651465 56.6790408 5.90831322 54.1379964 5.90831322 54.1379964 3.84681471 56.2403772 3.84681471 56.2403772 2.98954934 54.1379964 2.98954934 54.1379964 1.23829101 56.2858458 1.23829101"></polygon>
                <path d="M59.2211244,6.76531934 L60.5102671,6.76531934 L60.5102671,4.21167099 L61.2776036,4.21167099 L62.575407,6.87463795 L63.9286387,6.62877909 L62.411287,3.90143081 C63.0145036,3.54582123 63.4899751,2.99879605 63.4899751,2.04992774 C63.4899751,0.964519169 62.6672102,0.381198482 61.4421566,0.381198482 L59.2211244,0.381198482 L59.2211244,6.76531934 Z M60.5102671,1.23803176 L61.1771397,1.23803176 C61.6889861,1.23803176 62.2008324,1.48432272 62.2008324,2.20504783 C62.2008324,2.66997602 61.9176281,3.35397354 61.0312072,3.35397354 L60.5102671,3.35397354 L60.5102671,1.23803176 Z" id="Fill-23"></path>
                <path d="M69.8619427,0.827892502 C69.5601179,0.535800069 68.9755218,0.271361358 68.2441272,0.271361358 C67.0831626,0.271361358 66.2149291,0.964432752 66.2149291,1.82213021 C66.2149291,2.67032169 66.7358692,3.06222678 67.3572732,3.56388257 C67.8691196,3.96529362 68.7282593,4.4306539 68.7282593,5.13279917 C68.7282593,5.7346997 68.2623146,6.01728617 67.7322808,6.01728617 C67.1563454,6.01728617 66.7631504,5.75284746 66.4253837,5.5065565 L65.9590059,6.23635549 C66.4344774,6.67406205 67.1745328,6.87455153 67.8418384,6.87455153 C69.2860073,6.87455153 70.0537769,5.94426306 70.0537769,5.14187305 C70.0537769,4.3571987 69.5969258,3.8192474 68.7377861,3.13524989 C67.988204,2.54242323 67.5404467,2.22310917 67.5404467,1.80355036 C67.5404467,1.42979303 67.8327447,1.12862672 68.3718722,1.12862672 C68.7468798,1.12862672 69.1214543,1.30232666 69.4046587,1.49331017 L69.8619427,0.827892502 Z" id="Fill-26"></path>
                <polygon id="Fill-28" points="76.836997 6.76527613 78.1261397 6.76527613 78.1261397 0.381155274 76.836997 0.381155274"></polygon>
                <path d="M86.7012119,0.381025647 L85.6684254,0.381025647 L85.6684254,4.93222327 L85.650238,4.93222327 C84.4433718,3.29028356 83.2278449,1.84019154 82.0027913,0.381025647 L81.0613751,0.381025647 L81.0613751,6.7651465 L82.0941615,6.7651465 L82.0941615,2.18672724 L82.112349,2.18672724 C83.3192152,3.83774083 84.5442688,5.29690673 85.7688893,6.7651465 L86.7012119,6.7651465 L86.7012119,0.381025647 Z" id="Fill-30"></path>
                <polygon id="Fill-31" points="92.2323571 6.76531934 92.2323571 1.23803176 94.2065598 1.23803176 94.2065598 0.381198482 88.9690117 0.381198482 88.9690117 1.23803176 90.9436475 1.23803176 90.9436475 6.76531934"></polygon>
                <polygon id="Fill-32" points="99.9115249 0.381025647 96.4745329 0.381025647 96.4745329 6.7651465 100.30472 6.7651465 100.30472 5.90831322 97.7632425 5.90831322 97.7632425 3.84681471 99.8660563 3.84681471 99.8660563 2.98954934 97.7632425 2.98954934 97.7632425 1.23829101 99.9115249 1.23829101"></polygon>
                <path d="M102.84676,6.76531934 L104.13547,6.76531934 L104.13547,4.21167099 L104.903673,4.21167099 L106.201476,6.87463795 L107.554275,6.62877909 L106.036923,3.90143081 C106.640139,3.54582123 107.115178,2.99879605 107.115178,2.04992774 C107.115178,0.964519169 106.292846,0.381198482 105.067792,0.381198482 L102.84676,0.381198482 L102.84676,6.76531934 Z M104.13547,1.23803176 L104.802776,1.23803176 C105.314622,1.23803176 105.826468,1.48432272 105.826468,2.20504783 C105.826468,2.66997602 105.543264,3.35397354 104.656843,3.35397354 L104.13547,3.35397354 L104.13547,1.23803176 Z" id="Fill-33"></path>
                <path d="M115.489322,0.381025647 L114.456536,0.381025647 L114.456536,4.93222327 L114.438348,4.93222327 C113.231482,3.29028356 112.015955,1.84019154 110.790902,0.381025647 L109.849485,0.381025647 L109.849485,6.7651465 L110.882272,6.7651465 L110.882272,2.18672724 L110.900892,2.18672724 C112.107326,3.83774083 113.332379,5.29690673 114.557,6.7651465 L115.489322,6.7651465 L115.489322,0.381025647 Z" id="Fill-34"></path>
                <path d="M119.786493,4.23902225 C120.088318,3.39990464 120.38971,2.62473626 120.654727,1.63957244 L120.672914,1.63957244 C120.974739,2.62473626 121.24885,3.39990464 121.523393,4.23902225 L119.786493,4.23902225 Z M120.280152,0.38089602 L117.675019,6.76544896 L118.790082,6.76544896 L119.448294,5.02326451 L121.715227,5.02326451 L122.30935,6.76544896 L123.753519,6.76544896 L121.349314,0.38089602 L120.280152,0.38089602 Z" id="Fill-35"></path>
                <polygon id="Fill-36" points="128.032503 6.76531934 128.032503 1.23803176 130.006706 1.23803176 130.006706 0.381198482 124.769158 0.381198482 124.769158 1.23803176 126.74336 1.23803176 126.74336 6.76531934"></polygon>
                <polygon id="Fill-37" points="132.274462 6.76527613 133.563605 6.76527613 133.563605 0.381155274 132.274462 0.381155274"></polygon>
                <path d="M139.341536,5.96275649 C137.997831,5.96275649 137.522793,4.70408007 137.522793,3.48213125 C137.522793,2.30555182 138.06192,1.18341566 139.341536,1.18341566 C140.621152,1.18341566 141.160713,2.30555182 141.160713,3.48213125 C141.160713,4.70408007 140.685241,5.96275649 139.341536,5.96275649 M139.341536,6.87446512 C141.306645,6.87446512 142.531699,5.38807759 142.531699,3.48213125 C142.531699,1.69414533 141.1789,0.27127494 139.341536,0.27127494 C137.504172,0.27127494 136.151807,1.69414533 136.151807,3.48213125 C136.151807,5.38807759 137.376427,6.87446512 139.341536,6.87446512" id="Fill-38"></path>
                <path d="M150.759391,0.381025647 L149.726605,0.381025647 L149.726605,4.93222327 L149.707984,4.93222327 C148.501551,3.29028356 147.286024,1.84019154 146.06097,0.381025647 L145.119554,0.381025647 L145.119554,6.7651465 L146.152341,6.7651465 L146.152341,2.18672724 L146.170528,2.18672724 C147.377394,3.83774083 148.602448,5.29690673 149.827068,6.7651465 L150.759391,6.7651465 L150.759391,0.381025647 Z" id="Fill-39"></path>
                <path d="M155.056562,4.23902225 C155.357954,3.39990464 155.659779,2.62473626 155.924796,1.63957244 L155.942983,1.63957244 C156.244808,2.62473626 156.518918,3.39990464 156.793029,4.23902225 L155.056562,4.23902225 Z M155.550221,0.38089602 L152.945088,6.76544896 L154.06015,6.76544896 L154.718362,5.02326451 L156.985296,5.02326451 L157.579419,6.76544896 L159.023588,6.76544896 L156.619382,0.38089602 L155.550221,0.38089602 Z" id="Fill-40"></path>
                <polygon id="Fill-41" points="161.209111 6.76531934 165.039298 6.76531934 165.039298 5.90805397 162.498254 5.90805397 162.498254 0.381198482 161.209111 0.381198482"></polygon>
            </g>
            <path d="M5.41563992,59.7601534 L4.62638642,71.2594165 C4.56094036,71.9850707 4.49462747,72.9811008 4.49462747,73.4097774 C4.49462747,74.2043338 4.65369173,74.9308602 5.19459693,75.4480632 L5.98211676,76.2003188 L1.07279531,76.2003188 L1.61240025,75.4973414 C1.70038403,75.3830857 1.7857673,75.2932511 1.86464931,75.2173714 L2.06575509,75.0281083 C2.16804165,74.9291158 2.25689226,74.8266346 2.34617629,74.6290857 C2.54381473,74.1929955 2.74275342,73.2994466 2.89314934,71.1255368 L3.98796226,56.5426797 C3.47522921,55.4480932 3.21344496,54.9064692 2.90398478,54.5192211 C2.60275953,54.1415669 2.24475657,53.8995368 1.44206713,53.4446947 L8.66835252e-05,52.6283338 L5.44857966,52.6283338 L13.567792,71.5699128 L18.9092309,60.0087248 C19.9680701,57.7606797 20.5414817,56.6442887 20.8474745,55.766003 C21.1317965,54.9513865 21.1742714,54.3652812 21.1742714,53.0644241 L21.1742714,52.6283338 L26.9213891,52.6283338 L25.8005711,53.4211459 C25.4989125,53.6348301 25.2193581,53.8188602 24.970143,54.0177173 C24.7360974,54.2039278 24.5466939,54.3901383 24.3936975,54.6169053 C24.0916054,55.0647699 23.8796642,55.7455068 23.8796642,57.0664241 C23.8796642,57.7576271 23.8792308,58.3886496 23.9446769,59.0471459 L24.814546,71.3296271 C24.932869,73.2013263 25.0325551,73.9688451 25.196387,74.4027549 C25.2692011,74.5959429 25.3558846,74.7215368 25.4833094,74.8632662 C25.6376061,75.0346496 25.8283099,75.2077774 26.0688566,75.4663789 L26.7514894,76.2003188 L20.8340386,76.2003188 L21.3632415,75.500394 C21.9500889,74.7228451 22.11002,74.3094316 22.11002,73.4097774 C22.11002,72.9392361 22.0432737,72.5022737 22.0432737,72.0317323 L21.242318,59.3842436 L12.970976,77.3350256 L5.41563992,59.7601534 Z M45.9185171,73.3373865 C46.2154082,74.0181233 46.3952765,74.3308 46.5959488,74.5710857 C46.6973686,74.6927549 46.810924,74.8035218 46.9630536,74.9378376 L47.5403658,75.4328 L48.4297388,76.2003188 L42.6470808,76.2003188 L43.2100903,75.4916722 C43.3483506,75.3181083 43.4597389,75.176815 43.5403546,75.0346496 C43.6175029,74.8981534 43.6504426,74.7886947 43.6504426,74.6879579 C43.6504426,74.4908451 43.556391,74.2331158 43.4189976,73.9213113 L41.1578579,68.6337173 L35.6460859,68.6337173 L33.4187527,73.8515368 C33.2484196,74.3002737 33.0863214,74.8846346 33.0863214,75.0241835 C33.0863214,75.0499128 33.0958566,75.0987549 33.149167,75.196003 C33.2150465,75.3159278 33.2973958,75.4314917 33.3637087,75.5474917 L33.7351476,76.2003188 L28.4548207,76.2003188 L29.7507394,75.3931158 C29.9197722,75.288018 30.0909722,75.1829203 30.2617388,75.0629955 C30.4255706,74.9483038 30.5842015,74.8231459 30.739365,74.6726947 C31.0466581,74.374409 31.3582853,73.9605594 31.6560433,73.2994466 L38.8750472,56.8492511 L45.9185171,73.3373865 Z M38.4919061,62.4634767 L36.4396736,66.9207549 L40.4444525,66.9207549 L38.4919061,62.4634767 Z M55.6275053,72.8720782 C55.6275053,74.596815 55.7826688,74.8663188 56.2464257,75.5073714 L56.747023,76.2003188 L51.9703274,76.2003188 L52.4704913,75.5078075 C52.9338148,74.8663188 53.0894117,74.5963789 53.0894117,72.8720782 L53.0894117,61.3374917 C53.0894117,59.6127549 52.9338148,59.3432511 52.4704913,58.7017624 L51.9703274,58.0092511 L56.8653461,58.0092511 C60.4003002,58.0092511 63.7493182,59.4138977 63.7493182,62.8507248 C63.7493182,64.4760331 62.9865032,65.5370406 62.087595,66.2278075 C61.6442088,66.5688301 61.1691831,66.8191459 60.7409665,67.0092812 C60.5606647,67.0895218 60.3859974,67.1592962 60.2234658,67.2216571 L62.9158561,70.5786797 C64.7253747,72.7765744 67.4138642,74.9417624 68.6426032,74.9417624 C69.6225605,74.9417624 69.8180318,74.5222436 69.9272531,74.3879278 C69.9822971,74.3203338 71.0576062,74.7110707 70.5145339,74.7472662 C70.3385664,74.7586045 70.1131892,75.3673865 70.1131892,75.5989504 C70.1131892,76.0917323 68.8055682,75.6927098 68.4141921,75.8893865 C68.0106803,76.0926045 68.2416919,76.2003188 66.8586563,76.2003188 C64.9464177,76.2003188 63.62146,75.466815 59.0991805,69.6798977 L57.4591282,67.6246045 L55.6275053,67.6246045 L55.6275053,72.8720782 Z M57.3330037,65.9120782 C60.025394,65.9120782 61.0443588,64.4694917 61.0443588,62.8507248 C61.0443588,61.3527549 60.1623539,60.5869805 58.9474843,60.169206 C57.8726086,59.7994015 56.6039952,59.7348602 55.6275053,59.7239579 L55.6275053,65.9120782 L57.3330037,65.9120782 Z M84.8528558,73.3373865 C85.1501803,74.0181233 85.3296152,74.3308 85.5302876,74.5710857 C85.6317073,74.6927549 85.7452627,74.8035218 85.8973923,74.9378376 L86.475138,75.4328 L87.364511,76.2003188 L81.5814196,76.2003188 L82.1448625,75.4916722 C82.2826893,75.3181083 82.3940777,75.176815 82.4746933,75.0346496 C82.5522751,74.8981534 82.5847814,74.7886947 82.5847814,74.6879579 C82.5847814,74.4908451 82.4911632,74.2331158 82.3533364,73.9213113 L80.0921966,68.6337173 L74.5804247,68.6337173 L72.3535249,73.8515368 C72.1827584,74.3002737 72.0206602,74.8846346 72.0206602,75.0241835 C72.0206602,75.0499128 72.0306288,75.0987549 72.0839392,75.196003 C72.1493852,75.3159278 72.232168,75.4314917 72.2980475,75.5474917 L72.6699198,76.2003188 L67.3891594,76.2003188 L68.6855116,75.3931158 C68.854111,75.288018 69.025311,75.1829203 69.1965109,75.0629955 C69.3599094,74.9483038 69.5189737,74.8231459 69.6741372,74.6726947 C69.9814303,74.374409 70.2930575,73.9605594 70.590382,73.2994466 L77.809386,56.8492511 L84.8528558,73.3373865 Z M77.4266782,62.4634767 L75.3740124,66.9207549 L79.3787912,66.9207549 L77.4266782,62.4634767 Z M107.095415,77.4518977 L94.0270067,63.1934917 L94.0270067,73.0735519 C94.0270067,74.7346195 94.0274402,74.7503188 94.446555,75.563191 L94.7750856,76.2003188 L91.2960423,76.2003188 L91.6835176,75.5418226 C91.9509363,75.0878526 92.0475884,74.8937925 92.0987317,74.6264692 C92.1555094,74.3290556 92.1576765,73.9357023 92.1576765,73.0735519 L92.1576765,61.0941534 C91.1625496,59.918018 90.7508029,59.5564992 89.2620134,58.8386947 L89.4492498,58.0092511 L92.9148571,58.0092511 L105.226085,71.4526045 L105.226085,61.135582 C105.226085,60.2738677 105.223918,59.8805143 105.16714,59.5831008 C105.115997,59.3157774 105.019345,59.1217173 104.751926,58.6677474 L104.363584,58.0092511 L107.842627,58.0092511 L107.51453,58.6459429 C107.095848,59.4592511 107.095415,59.4745143 107.095415,61.135582 L107.095415,77.4518977 Z M127.501584,73.3373865 C127.798475,74.0181233 127.978343,74.3308 128.179015,74.5710857 C128.280435,74.6927549 128.393991,74.8035218 128.545687,74.9378376 L129.123432,75.4328 L130.012805,76.2003188 L124.230147,76.2003188 L124.79359,75.4916722 C124.931417,75.3181083 125.042805,75.176815 125.123421,75.0346496 C125.201003,74.8981534 125.233509,74.7886947 125.233509,74.6879579 C125.233509,74.4908451 125.139891,74.2331158 125.002064,73.9213113 L122.740924,68.6337173 L117.229153,68.6337173 L115.001819,73.8515368 C114.831486,74.3002737 114.669388,74.8846346 114.669388,75.0241835 C114.669388,75.0499128 114.678923,75.0987549 114.732234,75.196003 C114.798113,75.3159278 114.880462,75.4314917 114.946775,75.5474917 L115.318214,76.2003188 L110.037887,76.2003188 L111.334239,75.3931158 C111.502839,75.288018 111.674039,75.1829203 111.844805,75.0629955 C112.008637,74.9483038 112.167268,74.8231459 112.322432,74.6726947 C112.630158,74.374409 112.941352,73.9605594 113.23911,73.2994466 L120.458114,56.8492511 L127.501584,73.3373865 Z M120.074973,62.4634767 L118.02274,66.9207549 L122.027519,66.9207549 L120.074973,62.4634767 Z M139.120643,72.8720782 C139.120643,74.596815 139.275373,74.8663188 139.73913,75.5073714 L140.240161,76.2003188 L135.463465,76.2003188 L135.963196,75.5078075 C136.426953,74.8663188 136.582116,74.596815 136.582116,72.8720782 L136.582116,59.7217774 L133.272539,59.7217774 C132.504957,59.7217774 132.241439,59.7732361 131.923744,59.9411308 C131.729573,60.0440481 131.521099,60.1870857 131.23851,60.3828902 C130.935552,60.5930857 130.554144,60.8599729 130.031009,61.1992511 L129.421624,60.614018 L131.283586,57.3913113 L131.634654,57.5382737 C132.017795,57.699191 132.398769,57.8234767 132.754605,57.8832211 C133.15595,57.9761083 133.570297,58.0092511 133.940869,58.0092511 L143.599581,58.0092511 C144.239306,58.0092511 145.45981,57.7550105 146.365652,57.5186496 L147.311803,57.2718226 L144.79408,62.1111158 L144.546165,60.9227699 C144.514959,60.7753714 144.48722,60.6122737 144.437377,60.4504842 C144.393602,60.3078827 144.338558,60.1901383 144.26141,60.0937624 C144.124016,59.9232511 143.836661,59.7217774 143.09855,59.7217774 L139.120643,59.7217774 L139.120643,72.8720782 Z M166.772688,72.8720782 C166.772688,74.596815 166.927851,74.8663188 167.391608,75.5073714 L167.892206,76.2003188 L163.11551,76.2003188 L163.615674,75.5078075 C164.078997,74.8663188 164.234594,74.5963789 164.234594,72.8720782 L164.234594,67.6586195 L154.607089,67.6586195 L154.607089,72.8720782 C154.607089,74.596815 154.761819,74.8663188 155.226009,75.5073714 L155.726606,76.2003188 L150.949911,76.2003188 L151.450075,75.5078075 C151.913398,74.8663188 152.068995,74.5963789 152.068995,72.8720782 L152.068995,61.3374917 C152.068995,59.6127549 151.913398,59.3432511 151.450075,58.7017624 L150.949911,58.0092511 L155.726606,58.0092511 L155.226009,58.7017624 C154.761819,59.3432511 154.607089,59.6127549 154.607089,61.3374917 L154.607089,65.9452211 L164.234594,65.9452211 L164.234594,61.3374917 C164.234594,59.6127549 164.078997,59.3432511 163.615674,58.7017624 L163.11551,58.0092511 L167.892206,58.0092511 L167.391608,58.7017624 C166.927851,59.3432511 166.772688,59.6127549 166.772688,61.3374917 L166.772688,72.8720782 Z M188.479976,73.3373865 C188.776867,74.0181233 188.956736,74.3308 189.157841,74.5710857 C189.259261,74.6927549 189.372817,74.8035218 189.524513,74.9378376 L190.102258,75.4328 L190.991631,76.2003188 L185.20854,76.2003188 L185.771983,75.4916722 C185.910243,75.3181083 186.021198,75.176815 186.101814,75.0346496 C186.179396,74.8981534 186.211902,74.7886947 186.211902,74.6879579 C186.211902,74.4908451 186.118284,74.2331158 185.980457,73.9213113 L183.719317,68.6337173 L178.207545,68.6337173 L175.980212,73.8515368 C175.809879,74.3002737 175.647781,74.8846346 175.647781,75.0241835 C175.647781,75.0499128 175.657749,75.0987549 175.71106,75.196003 C175.776939,75.3159278 175.859288,75.4314917 175.925168,75.5474917 L176.29704,76.2003188 L171.01628,76.2003188 L172.312632,75.3931158 C172.481665,75.288018 172.652865,75.1829203 172.823631,75.0629955 C172.987463,74.9483038 173.146094,74.8231459 173.301258,74.6726947 C173.608551,74.374409 173.920178,73.9605594 174.217502,73.2994466 L181.436506,56.8492511 L188.479976,73.3373865 Z M181.053799,62.4634767 L179.001566,66.9207549 L183.005912,66.9207549 L181.053799,62.4634767 Z" id="Fill-1" fill="#12247D"></path>
            <g id="mark" transform="translate(184.000000, 0.000000)">
                <path d="M26.9928147,56.2369368 C27.0586942,55.9744105 27.2402962,55.5884707 27.2402962,55.5884707 L30.8645343,48.523809 C30.8645343,48.523809 31.1995662,47.9830571 31.6472866,47.5548165 C31.9723498,47.2438842 32.4140024,47.0685759 32.986547,46.986591 C37.8728974,46.3307113 40.4916067,44.7067113 41.0836551,41.1665308 L50.3154506,38.1034331 C50.3410222,38.4483805 50.3635599,38.842606 50.3648602,39.1600797 C50.3899984,46.7118541 45.4243327,51.8210872 38.217031,54.1820797 C37.9179728,54.2797639 37.1278525,54.5235383 36.6783984,54.8854932 C36.0677129,55.3778391 35.7019085,56.0045008 35.3417384,56.7275383 L26.4445414,76.1514331 L26.9195671,56.6586361 C26.9195671,56.6586361 26.9525069,56.3987263 26.9928147,56.2369368 M23.9736275,56.2369368 C23.9016802,55.9709218 23.6945066,55.5884707 23.6945066,55.5884707 L20.1019079,48.523809 C20.1019079,48.523809 19.766876,47.9830571 19.3191556,47.5548165 C18.993659,47.2438842 18.5524398,47.0685759 17.9798952,46.986591 C13.0935448,46.3307113 10.4748355,44.7067113 9.88278707,41.1665308 L0.650558217,38.1034331 C0.625419995,38.4483805 0.602448861,38.842606 0.601582026,39.1600797 C0.576010386,46.7118541 5.54210955,51.8210872 12.7494112,54.1820797 C13.0484694,54.2797639 13.8385897,54.5235383 14.2880438,54.8854932 C14.8982958,55.3778391 15.2645337,56.0045008 15.6247038,56.7275383 L24.5214674,76.1514331 L24.0490422,56.6586361 C24.0490422,56.6586361 24.0169693,56.3982902 23.9736275,56.2369368 M18.7106373,40.0963654 C18.7106373,36.3337789 21.7419602,33.2837639 25.4814874,33.2837639 C29.2210147,33.2837639 32.2523376,36.3337789 32.2523376,40.0963654 C32.2523376,43.8589519 29.2210147,46.9089669 25.4814874,46.9089669 C21.7419602,46.9089669 18.7106373,43.8589519 18.7106373,40.0963654" id="Fill-3" fill="#12247D"></path>
                <path d="M26.1881728,0.437360888 C26.1881728,0.370819121 26.318083,0.41446015 26.3457972,0.47927356 L31.3806853,11.3376801 C31.5816131,11.7248322 31.8154516,12.1858716 32.0726739,12.6944408 L28.0380947,26.1566181 L27.5699848,25.8394645 L26.8892551,13.3192421 L29.4826966,13.3192421 L29.4826966,10.993737 L26.7623761,10.993737 L26.1881728,0.437360888 Z M48.5249404,31.4661326 C49.4187229,33.174182 49.9916271,35.0593881 50.2336931,37.2159463 L40.0833726,37.4777924 L48.5249404,31.4661326 Z M44.1997953,26.1453838 C45.806785,27.5635012 47.1080526,29.0494566 48.0936384,30.6965814 L38.3118299,33.550964 L38.1212949,33.2990559 L44.1997953,26.1453838 Z M38.1892813,21.8275144 C40.0794753,22.9924275 41.7579157,24.1374644 43.2189729,25.3179326 L35.2931488,30.7743575 L35.1671359,30.6970135 L38.1892813,21.8275144 Z M32.9881081,14.4936611 C34.4539287,17.349772 36.2449579,20.6548238 37.2309767,21.24549 L37.3076237,21.2912915 L31.6950681,28.6718105 L31.5339794,28.5590352 L32.9881081,14.4936611 Z M24.8232491,0.437360888 L24.2490459,10.993737 L21.575926,10.993737 L21.575926,13.3192421 L24.1225999,13.3192421 L23.4414372,25.8394645 L22.9737603,26.1566181 L18.9387481,12.6944408 C19.1964034,12.1858716 19.4302418,11.7248322 19.6307366,11.3376801 L24.6656247,0.47927356 C24.6933389,0.41446015 24.8232491,0.370819121 24.8232491,0.437360888 L24.8232491,0.437360888 Z M2.48648154,31.4661326 C1.59269905,33.174182 1.01979487,35.0593881 0.778161809,37.2159463 L10.9280493,37.4777924 L2.48648154,31.4661326 Z M6.81162664,26.1453838 C5.20463691,27.5635012 3.90336928,29.0494566 2.91778355,30.6965814 L12.699592,33.550964 L12.890127,33.2990559 L6.81162664,26.1453838 Z M12.8221407,21.8275144 C10.9323796,22.9924275 9.25350622,24.1374644 7.79288203,25.3179326 L15.7182731,30.7743575 L15.844286,30.6970135 L12.8221407,21.8275144 Z M18.0237469,14.4936611 C16.5574933,17.349772 14.766897,20.6548238 13.7804452,21.24549 L13.7037982,21.2912915 L19.3163538,28.6718105 L19.4778756,28.5590352 L18.0237469,14.4936611 Z" id="Fill-42" fill="#C8940C"></path>
            </g>
        </g>
    </g>
</svg>