<?xml version="1.0" encoding="UTF-8"?>
<svg width="284px" height="109px" viewBox="0 0 284 109" version="1.1" xmlns="http://www.w3.org/2000/svg" xmlns:xlink="http://www.w3.org/1999/xlink">
    <!-- Generator: Sketch 48.2 (47327) - http://www.bohemiancoding.com/sketch -->
    <title>maranatha-logo</title>
    <desc>Created with Sketch.</desc>
    <defs></defs>
    <g id="maranatha-logo-white" stroke="none" stroke-width="1" fill="none" fill-rule="evenodd">
        <g id="maranatha-logo" fill="#FFFFFF">
            <g id="Group-6" transform="translate(0.000000, 40.328752)">
                <path d="M6.54485846,32.1121841 L5.59103721,45.9112998 C5.51194495,46.7820848 5.43180511,47.9773209 5.43180511,48.4917329 C5.43180511,49.4452006 5.62403597,50.3170322 6.27772565,50.9376758 L7.22945174,51.8403826 L1.29648454,51.8403826 L1.94860286,50.9968096 C2.05493219,50.8597029 2.15811878,50.7519014 2.25344853,50.6608457 L2.496487,50.4337299 C2.6201014,50.3149389 2.72747831,50.1919615 2.83537901,49.9549029 C3.07422716,49.4315946 3.31464669,48.3593359 3.49640175,45.7506442 L4.81949482,28.2512156 C4.19985147,26.9377119 3.88348242,26.287763 3.5094965,25.8230653 C3.14546258,25.3698803 2.71281219,25.0794442 1.74275346,24.5336337 L0.000104757962,23.5540006 L6.58466648,23.5540006 L16.396821,46.2838953 L22.8520067,32.4104698 C24.1316252,29.7128156 24.8245991,28.3731465 25.1943947,27.3192036 C25.5380008,26.3416638 25.5893322,25.6383374 25.5893322,24.0773089 L25.5893322,23.5540006 L32.5347851,23.5540006 L31.1802647,24.505375 C30.815707,24.7617961 30.4778625,24.9826322 30.1766834,25.2212608 C29.8938369,25.4447134 29.6649408,25.668166 29.480043,25.9402863 C29.1149615,26.4777239 28.8588282,27.2946081 28.8588282,28.8797089 C28.8588282,29.7091525 28.8583044,30.4663795 28.9373967,31.256575 L29.9886429,45.9955525 C30.1316375,48.2415916 30.2521091,49.1626141 30.4501017,49.6833059 C30.5380984,49.9151314 30.6428563,50.0658442 30.7968505,50.2359194 C30.9833197,50.4415795 31.2137872,50.6493329 31.5044906,50.9596547 L32.3294595,51.8403826 L25.1781572,51.8403826 L25.8177046,51.0004728 C26.526916,50.0674141 26.7201944,49.5713179 26.7201944,48.4917329 C26.7201944,47.9270833 26.6395308,47.4027284 26.6395308,46.8380788 L25.6715672,31.6610923 L15.6755625,53.2020307 L6.54485846,32.1121841 Z M55.4930164,48.4048638 C55.8518124,49.221748 56.0691852,49.59696 56.3116999,49.8853029 C56.4342667,50.0313059 56.5714996,50.1642262 56.7553498,50.3254051 L57.4530379,50.91936 L58.5278546,51.8403826 L51.5394509,51.8403826 L52.2198538,50.9900066 C52.3869428,50.7817299 52.5215568,50.612178 52.6189817,50.4415795 C52.7122163,50.2777841 52.7520243,50.1464337 52.7520243,50.0255495 C52.7520243,49.7890141 52.6383619,49.4797389 52.4723205,49.1055735 L49.7397091,42.7604608 L43.078674,42.7604608 L40.3869182,49.0218442 C40.1810688,49.5603284 39.9851714,50.2615615 39.9851714,50.4290202 C39.9851714,50.4598953 39.9966948,50.5185059 40.0611209,50.6352036 C40.140737,50.7791134 40.2402571,50.9177901 40.3203969,51.0569901 L40.7692848,51.8403826 L34.3879535,51.8403826 L35.954085,50.8717389 C36.1583631,50.7456217 36.36526,50.6195044 36.5716332,50.4755946 C36.7696258,50.3379645 36.9613328,50.187775 37.1488496,50.0072337 C37.5202166,49.6492908 37.8968214,49.1526713 38.256665,48.3593359 L46.9809081,28.6191014 L55.4930164,48.4048638 Z M46.517878,35.356172 L44.0377332,40.7049059 L48.8775511,40.7049059 L46.517878,35.356172 Z M67.226432,47.8464938 C67.226432,49.916178 67.4139487,50.2395826 67.9744038,51.0088457 L68.579381,51.8403826 L62.8066935,51.8403826 L63.411147,51.009369 C63.9710783,50.2395826 64.1591188,49.9156547 64.1591188,47.8464938 L64.1591188,34.0049901 C64.1591188,31.9353059 63.9710783,31.6119014 63.411147,30.8421149 L62.8066935,30.0111014 L68.7223757,30.0111014 C72.9944054,30.0111014 77.0417292,31.6966773 77.0417292,35.8208698 C77.0417292,37.7712397 76.1198592,39.0444487 75.0335191,39.873369 C74.4976821,40.2825961 73.9236085,40.582975 73.4061042,40.8111374 C73.1882076,40.9074262 72.9771203,40.9911555 72.7806991,41.0659886 L76.0344814,45.0944156 C78.2213039,47.7318893 81.4703721,50.3301149 82.9553162,50.3301149 C84.139605,50.3301149 84.3758342,49.8266923 84.5078292,49.6655134 C84.5743505,49.5844006 85.8738731,50.0532848 85.2175644,50.0967194 C85.0049058,50.1103254 84.7325351,50.8408638 84.7325351,51.1187405 C84.7325351,51.7100788 83.1522612,51.2312517 82.679279,51.4672638 C82.1916307,51.7111254 82.4708106,51.8403826 80.7993974,51.8403826 C78.4884367,51.8403826 76.8872112,50.960178 71.4219884,44.0158773 L69.4399677,41.5495254 L67.226432,41.5495254 L67.226432,47.8464938 Z M69.2875449,39.4944938 C72.5413272,39.4944938 73.772757,37.7633901 73.772757,35.8208698 C73.772757,34.0233059 72.7068448,33.1043765 71.2386619,32.6030472 C69.9396632,32.1592818 68.4065304,32.0818322 67.226432,32.0687495 L67.226432,39.4944938 L69.2875449,39.4944938 Z M102.545579,48.4048638 C102.904899,49.221748 103.121748,49.59696 103.364262,49.8853029 C103.486829,50.0313059 103.624062,50.1642262 103.807912,50.3254051 L104.506124,50.91936 L105.580941,51.8403826 L98.5920135,51.8403826 L99.2729402,50.9900066 C99.4395054,50.7817299 99.5741194,50.612178 99.6715443,50.4415795 C99.7653027,50.2777841 99.8045869,50.1464337 99.8045869,50.0255495 C99.8045869,49.7890141 99.6914483,49.4797389 99.5248831,49.1055735 L96.7922717,42.7604608 L90.1312366,42.7604608 L87.4400046,49.0218442 C87.2336314,49.5603284 87.037734,50.2615615 87.037734,50.4290202 C87.037734,50.4598953 87.0497812,50.5185059 87.1142073,50.6352036 C87.1932996,50.7791134 87.2933434,50.9177901 87.3729595,51.0569901 L87.8223712,51.8403826 L81.4405161,51.8403826 L83.0071714,50.8717389 C83.2109256,50.7456217 83.4178226,50.6195044 83.6247196,50.4755946 C83.8221884,50.3379645 84.0144192,50.187775 84.201936,50.0072337 C84.5733029,49.6492908 84.9499078,49.1526713 85.3092276,48.3593359 L94.0334707,28.6191014 L102.545579,48.4048638 Z M93.5709643,35.356172 L91.0902958,40.7049059 L95.9301137,40.7049059 L93.5709643,35.356172 Z M129.425948,53.3422773 L113.632638,36.2321901 L113.632638,48.0882623 C113.632638,50.0815435 113.633162,50.1003826 114.139666,51.0758292 L114.536699,51.8403826 L110.332238,51.8403826 L110.800506,51.0501871 C111.123685,50.5054232 111.24049,50.272551 111.302297,49.951763 C111.370914,49.5948668 111.373532,49.1228427 111.373532,48.0882623 L111.373532,33.7129841 C110.170911,32.3016217 109.673311,31.8677991 107.874093,31.0064337 L108.10037,30.0111014 L112.288593,30.0111014 L127.166843,46.1431254 L127.166843,33.7626983 C127.166843,32.7286412 127.164224,32.2566171 127.095607,31.8997209 C127.0338,31.5789329 126.916995,31.3460608 126.593817,30.8012968 L126.124501,30.0111014 L130.328962,30.0111014 L129.932453,30.7751314 C129.426472,31.7511014 129.425948,31.7694171 129.425948,33.7626983 L129.425948,53.3422773 Z M154.08702,48.4048638 C154.445816,49.221748 154.663189,49.59696 154.905704,49.8853029 C155.028271,50.0313059 155.165503,50.1642262 155.34883,50.3254051 L156.047042,50.91936 L157.121858,51.8403826 L150.133455,51.8403826 L150.814382,50.9900066 C150.980947,50.7817299 151.115561,50.612178 151.212986,50.4415795 C151.306744,50.2777841 151.346028,50.1464337 151.346028,50.0255495 C151.346028,49.7890141 151.23289,49.4797389 151.066324,49.1055735 L148.333713,42.7604608 L141.672678,42.7604608 L138.980922,49.0218442 C138.775073,49.5603284 138.579175,50.2615615 138.579175,50.4290202 C138.579175,50.4598953 138.590699,50.5185059 138.655125,50.6352036 C138.734741,50.7791134 138.834261,50.9177901 138.914401,51.0569901 L139.363289,51.8403826 L132.981957,51.8403826 L134.548613,50.8717389 C134.752367,50.7456217 134.959264,50.6195044 135.165637,50.4755946 C135.36363,50.3379645 135.555337,50.187775 135.742853,50.0072337 C136.114744,49.6492908 136.490825,49.1526713 136.850669,48.3593359 L145.574912,28.6191014 L154.08702,48.4048638 Z M145.111882,35.356172 L142.631737,40.7049059 L147.471555,40.7049059 L145.111882,35.356172 Z M168.128778,47.8464938 C168.128778,49.916178 168.31577,50.2395826 168.876226,51.0088457 L169.481727,51.8403826 L163.709039,51.8403826 L164.312969,51.009369 C164.873424,50.2395826 165.060941,49.916178 165.060941,47.8464938 L165.060941,32.0661329 L161.061282,32.0661329 C160.13365,32.0661329 159.815186,32.1278833 159.431248,32.329357 C159.19659,32.4528577 158.944647,32.6245029 158.603136,32.8594683 C158.237007,33.1117029 157.776072,33.4319675 157.143858,33.8391014 L156.407409,33.1368217 L158.65761,29.2695735 L159.08188,29.4459284 C159.54491,29.6390292 160.005321,29.788172 160.435353,29.8598653 C160.920382,29.9713299 161.421125,30.0111014 161.868965,30.0111014 L173.541621,30.0111014 C174.314735,30.0111014 175.789727,29.7060126 176.884448,29.4223795 L178.027881,29.1261871 L174.985186,34.9333389 L174.685578,33.5073239 C174.647866,33.3304457 174.614343,33.1347284 174.554107,32.9405811 C174.501204,32.7694592 174.434683,32.628166 174.341448,32.5125149 C174.175407,32.3079014 173.828134,32.0661329 172.93612,32.0661329 L168.128778,32.0661329 L168.128778,47.8464938 Z M201.546568,47.8464938 C201.546568,49.916178 201.734084,50.2395826 202.294539,51.0088457 L202.899517,51.8403826 L197.126829,51.8403826 L197.731283,51.009369 C198.291214,50.2395826 198.479254,49.9156547 198.479254,47.8464938 L198.479254,41.5903435 L186.844311,41.5903435 L186.844311,47.8464938 C186.844311,49.916178 187.031304,50.2395826 187.592283,51.0088457 L188.19726,51.8403826 L182.424573,51.8403826 L183.029026,51.009369 C183.588958,50.2395826 183.776998,49.9156547 183.776998,47.8464938 L183.776998,34.0049901 C183.776998,31.9353059 183.588958,31.6119014 183.029026,30.8421149 L182.424573,30.0111014 L188.19726,30.0111014 L187.592283,30.8421149 C187.031304,31.6119014 186.844311,31.9353059 186.844311,34.0049901 L186.844311,39.5342653 L198.479254,39.5342653 L198.479254,34.0049901 C198.479254,31.9353059 198.291214,31.6119014 197.731283,30.8421149 L197.126829,30.0111014 L202.899517,30.0111014 L202.294539,30.8421149 C201.734084,31.6119014 201.546568,31.9353059 201.546568,34.0049901 L201.546568,47.8464938 Z M227.780056,48.4048638 C228.138852,49.221748 228.356225,49.59696 228.599264,49.8853029 C228.721831,50.0313059 228.859063,50.1642262 229.04239,50.3254051 L229.740602,50.91936 L230.815418,51.8403826 L223.826491,51.8403826 L224.507418,50.9900066 C224.674507,50.7817299 224.808597,50.612178 224.906022,50.4415795 C224.99978,50.2777841 225.039064,50.1464337 225.039064,50.0255495 C225.039064,49.7890141 224.925926,49.4797389 224.759361,49.1055735 L222.026749,42.7604608 L215.365714,42.7604608 L212.673958,49.0218442 C212.468109,49.5603284 212.272212,50.2615615 212.272212,50.4290202 C212.272212,50.4598953 212.284259,50.5185059 212.348685,50.6352036 C212.428301,50.7791134 212.527821,50.9177901 212.607437,51.0569901 L213.056849,51.8403826 L206.674994,51.8403826 L208.241649,50.8717389 C208.445927,50.7456217 208.652824,50.6195044 208.859197,50.4755946 C209.05719,50.3379645 209.248897,50.187775 209.436413,50.0072337 C209.80778,49.6492908 210.184385,49.1526713 210.543705,48.3593359 L219.267948,28.6191014 L227.780056,48.4048638 Z M218.805442,35.356172 L216.325297,40.7049059 L221.164591,40.7049059 L218.805442,35.356172 Z" id="Fill-1"></path>
                <g id="Group-5" transform="translate(222.610670, 0.000000)">
                    <path d="M32.3763911,27.8843242 C32.4560071,27.5692926 32.6754751,27.1061648 32.6754751,27.1061648 L37.0554055,18.6285708 C37.0554055,18.6285708 37.460295,17.9796686 38.0013699,17.4657798 C38.3942122,17.0926611 38.9279541,16.8822911 39.6198804,16.7839092 C45.5250867,15.9968535 48.6898248,14.0480535 49.4053217,9.79983699 L60.5620447,6.1241197 C60.5929483,6.53805654 60.6201853,7.01112722 60.6217567,7.39209564 C60.6521365,16.454225 54.6510766,22.5853047 45.9409759,25.4184956 C45.5795609,25.5357167 44.6246921,25.828246 44.081522,26.2625919 C43.3435022,26.8534069 42.9014236,27.6054009 42.4661542,28.473046 L31.713797,51.7817197 L32.2878706,28.3903633 C32.2878706,28.3903633 32.3276786,28.0784716 32.3763911,27.8843242 M28.7276713,27.8843242 C28.6407222,27.5651062 28.3903506,27.1061648 28.3903506,27.1061648 L24.0486569,18.6285708 C24.0486569,18.6285708 23.6437674,17.9796686 23.1026925,17.4657798 C22.7093263,17.0926611 22.1761083,16.8822911 21.484182,16.7839092 C15.5789756,15.9968535 12.4142376,14.0480535 11.6987407,9.79983699 L0.541493908,6.1241197 C0.511114098,6.53805654 0.483353238,7.01112722 0.482305659,7.39209564 C0.45140206,16.454225 6.45298572,22.5853047 15.1630865,25.4184956 C15.5245015,25.5357167 16.4793703,25.828246 17.0225403,26.2625919 C17.7600364,26.8534069 18.2026388,27.6054009 18.6379081,28.473046 L29.3897416,51.7817197 L28.8188107,28.3903633 C28.8188107,28.3903633 28.7800502,28.0779483 28.7276713,27.8843242 M22.3672916,8.5156385 C22.3672916,4.00053474 26.0306775,0.340516692 30.549936,0.340516692 C35.0691945,0.340516692 38.7325805,4.00053474 38.7325805,8.5156385 C38.7325805,13.0307423 35.0691945,16.6907603 30.549936,16.6907603 C26.0306775,16.6907603 22.3672916,13.0307423 22.3672916,8.5156385" id="Fill-3"></path>
                </g>
            </g>
            <g id="Group-43" transform="translate(82.000000, 0.034015)">
                <path d="M4.26713444,108.715776 L7.31873389,101.094314 L5.98045092,100.872955 C5.2618113,102.839024 4.54317167,104.805616 3.83605543,107.037003 L3.81353247,107.037003 C3.13941498,104.805616 2.46529749,102.839024 1.77965663,100.872955 L0.121338082,101.094314 L2.99537278,108.715776 L4.26713444,108.715776 L4.26713444,108.715776 Z" id="Fill-7"></path>
                <path d="M13.4342418,107.743783 C11.8089221,107.743783 11.2343246,106.219386 11.2343246,104.73947 C11.2343246,103.314502 11.8859192,101.95547 13.4342418,101.95547 C14.9820407,101.95547 15.634159,103.314502 15.634159,104.73947 C15.634159,106.219386 15.0595616,107.743783 13.4342418,107.743783 M13.4342418,108.847963 C15.8112,108.847963 17.2930014,107.047783 17.2930014,104.73947 C17.2930014,102.57402 15.656682,100.850766 13.4342418,100.850766 C11.2118017,100.850766 9.57548229,102.57402 9.57548229,104.73947 C9.57548229,107.047783 11.0567599,108.847963 13.4342418,108.847963" id="Fill-9"></path>
                <polygon id="Fill-11" points="20.4230645 108.715776 25.0554616 108.715776 25.0554616 107.677532 21.9823868 107.677532 21.9823868 100.983896 20.4230645 100.983896"></polygon>
                <path d="M27.8213337,100.983687 L27.8213337,105.711254 C27.8213337,107.821232 28.9160544,108.847963 31.0164516,108.847963 C32.8518111,108.847963 34.1120494,107.743783 34.1120494,105.788703 L34.1120494,100.983687 L32.7192923,100.983687 L32.7192923,105.512396 C32.7192923,106.760487 32.2436911,107.765762 31.0609737,107.765762 C29.8222108,107.765762 29.3801322,106.937365 29.3801322,105.423957 L29.3801322,100.983687 L27.8213337,100.983687 Z" id="Fill-13"></path>
                <path d="M44.395929,100.983687 L43.1466903,100.983687 L43.1466903,106.495693 L43.1246912,106.495693 C41.664889,104.507121 40.1946109,102.750899 38.7128096,100.983687 L37.5740905,100.983687 L37.5740905,108.715566 L38.8233292,108.715566 L38.8233292,103.170592 L38.8453284,103.170592 C40.3051306,105.170153 41.7864082,106.937365 43.2682096,108.715566 L44.395929,108.715566 L44.395929,100.983687 Z" id="Fill-15"></path>
                <polygon id="Fill-17" points="51.0862439 108.715776 51.0862439 102.021616 53.4742017 102.021616 53.4742017 100.983896 47.1389639 100.983896 47.1389639 102.021616 49.5274454 102.021616 49.5274454 108.715776"></polygon>
                <polygon id="Fill-19" points="60.3748182 100.983687 56.2174984 100.983687 56.2174984 108.715566 60.8504193 108.715566 60.8504193 107.677846 57.7768207 107.677846 57.7768207 105.181142 60.3192964 105.181142 60.3192964 104.142899 57.7768207 104.142899 57.7768207 102.02193 60.3748182 102.02193"></polygon>
                <polygon id="Fill-21" points="68.0822805 100.983687 63.9254845 100.983687 63.9254845 108.715566 68.5578816 108.715566 68.5578816 107.677846 65.484283 107.677846 65.484283 105.181142 68.0272826 105.181142 68.0272826 104.142899 65.484283 104.142899 65.484283 102.02193 68.0822805 102.02193"></polygon>
                <g id="Group-25" transform="translate(71.000000, 100.000000)">
                    <path d="M0.632737355,8.71577564 L2.19205963,8.71577564 L2.19205963,5.62302376 L3.12021517,5.62302376 L4.69001324,8.84817263 L6.3268564,8.55041023 L4.4914969,5.24728842 C5.22113611,4.81660571 5.79625732,4.15409744 5.79625732,3.00491248 C5.79625732,1.69036211 4.80105668,0.98389594 3.3192553,0.98389594 L0.632737355,0.98389594 L0.632737355,8.71577564 Z M2.19205963,2.02161624 L2.99869594,2.02161624 C3.61781549,2.02161624 4.23693505,2.31990195 4.23693505,3.19278015 C4.23693505,3.75585985 3.89437651,4.58425684 2.82217877,4.58425684 L2.19205963,4.58425684 L2.19205963,2.02161624 Z" id="Fill-23"></path>
                </g>
                <path d="M84.5036673,101.524892 C84.1385858,101.171136 83.4314695,100.850871 82.5467885,100.850871 C81.142508,100.850871 80.0923095,101.690257 80.0923095,102.729024 C80.0923095,103.756278 80.7224286,104.230919 81.474067,104.83848 C82.0931866,105.324633 83.1323855,105.888236 83.1323855,106.738612 C83.1323855,107.467581 82.5687877,107.809824 81.927669,107.809824 C81.2310285,107.809824 80.7554274,107.48956 80.3468713,107.191274 L79.7827497,108.075142 C80.3578709,108.605253 81.2530277,108.848068 82.0601878,108.848068 C83.8070268,108.848068 84.7357062,107.721385 84.7357062,106.749602 C84.7357062,105.799274 84.1831079,105.147755 83.1439089,104.319358 C82.2372288,103.601379 81.6956301,103.214654 81.6956301,102.706522 C81.6956301,102.25386 82.0491882,101.889115 82.7013065,101.889115 C83.1549085,101.889115 83.6079867,102.099485 83.9505452,102.330787 L84.5036673,101.524892 Z" id="Fill-26"></path>
                <polygon id="Fill-28" points="92.9405593 108.715723 94.4998816 108.715723 94.4998816 100.983844 92.9405593 100.983844"></polygon>
                <path d="M104.872125,100.983687 L103.622886,100.983687 L103.622886,106.495693 L103.600887,106.495693 C102.141084,104.507121 100.670806,102.750899 99.1890051,100.983687 L98.050286,100.983687 L98.050286,108.715566 L99.2995247,108.715566 L99.2995247,103.170592 L99.3215239,103.170592 C100.781326,105.170153 102.263127,106.937365 103.744405,108.715566 L104.872125,108.715566 L104.872125,100.983687 Z" id="Fill-30"></path>
                <polygon id="Fill-31" points="111.562492 108.715776 111.562492 102.021616 113.95045 102.021616 113.95045 100.983896 107.615212 100.983896 107.615212 102.021616 110.003693 102.021616 110.003693 108.715776"></polygon>
                <polygon id="Fill-32" points="120.851066 100.983687 116.693746 100.983687 116.693746 108.715566 121.326667 108.715566 121.326667 107.677846 118.252545 107.677846 118.252545 105.181142 120.796068 105.181142 120.796068 104.142899 118.252545 104.142899 118.252545 102.02193 120.851066 102.02193"></polygon>
                <path d="M124.401471,108.715776 L125.960269,108.715776 L125.960269,105.623024 L126.889472,105.623024 L128.45927,108.848173 L130.09559,108.55041 L128.26023,105.247288 C128.989869,104.816606 129.564467,104.154097 129.564467,103.004912 C129.564467,101.690362 128.56979,100.983896 127.087988,100.983896 L124.401471,100.983896 L124.401471,108.715776 Z M125.960269,102.021616 L126.767429,102.021616 C127.386549,102.021616 128.005668,102.319902 128.005668,103.19278 C128.005668,103.75586 127.66311,104.584257 126.590912,104.584257 L125.960269,104.584257 L125.960269,102.021616 Z" id="Fill-33"></path>
                <path d="M139.693671,100.983687 L138.444433,100.983687 L138.444433,106.495693 L138.422433,106.495693 C136.962631,104.507121 135.492353,102.750899 134.010552,100.983687 L132.871833,100.983687 L132.871833,108.715566 L134.121071,108.715566 L134.121071,103.170592 L134.143594,103.170592 C135.602873,105.170153 137.084674,106.937365 138.565952,108.715566 L139.693671,108.715566 L139.693671,100.983687 Z" id="Fill-34"></path>
                <path d="M144.891447,105.656149 C145.256529,104.639885 145.621086,103.701069 145.941646,102.507927 L145.963645,102.507927 C146.328726,103.701069 146.660285,104.639885 146.992368,105.656149 L144.891447,105.656149 Z M145.488567,100.98353 L142.337448,108.715933 L143.686207,108.715933 L144.482367,106.605954 L147.224407,106.605954 L147.943047,108.715933 L149.689886,108.715933 L146.781804,100.98353 L145.488567,100.98353 Z" id="Fill-35"></path>
                <polygon id="Fill-36" points="154.865662 108.715776 154.865662 102.021616 157.25362 102.021616 157.25362 100.983896 150.918382 100.983896 150.918382 102.021616 153.30634 102.021616 153.30634 108.715776"></polygon>
                <polygon id="Fill-37" points="159.996655 108.715723 161.555977 108.715723 161.555977 100.983844 159.996655 100.983844"></polygon>
                <path d="M168.544852,107.743783 C166.919532,107.743783 166.344935,106.219386 166.344935,104.73947 C166.344935,103.314502 166.997053,101.95547 168.544852,101.95547 C170.092651,101.95547 170.745293,103.314502 170.745293,104.73947 C170.745293,106.219386 170.170172,107.743783 168.544852,107.743783 M168.544852,108.847963 C170.92181,108.847963 172.403612,107.047783 172.403612,104.73947 C172.403612,102.57402 170.767292,100.850766 168.544852,100.850766 C166.322412,100.850766 164.686616,102.57402 164.686616,104.73947 C164.686616,107.047783 166.167894,108.847963 168.544852,108.847963" id="Fill-38"></path>
                <path d="M182.35567,100.983687 L181.106432,100.983687 L181.106432,106.495693 L181.083909,106.495693 C179.62463,104.507121 178.154352,102.750899 176.672551,100.983687 L175.533832,100.983687 L175.533832,108.715566 L176.783071,108.715566 L176.783071,103.170592 L176.80507,103.170592 C178.264872,105.170153 179.746673,106.937365 181.227951,108.715566 L182.35567,108.715566 L182.35567,100.983687 Z" id="Fill-39"></path>
                <path d="M187.553446,105.656149 C187.918004,104.639885 188.283086,103.701069 188.603645,102.507927 L188.625644,102.507927 C188.990726,103.701069 189.322285,104.639885 189.653843,105.656149 L187.553446,105.656149 Z M188.150567,100.98353 L184.999447,108.715933 L186.348206,108.715933 L187.144366,106.605954 L189.886406,106.605954 L190.605046,108.715933 L192.351885,108.715933 L189.443804,100.98353 L188.150567,100.98353 Z" id="Fill-40"></path>
                <polygon id="Fill-41" points="194.995452 108.715776 199.628373 108.715776 199.628373 107.677532 196.554774 107.677532 196.554774 100.983896 194.995452 100.983896"></polygon>
                <path d="M171.988089,0.529692632 C171.988089,0.449103158 172.145226,0.501957293 172.178749,0.580453534 L178.268853,13.7311904 C178.511891,14.2000746 178.794738,14.7584445 179.105869,15.3743783 L174.225719,31.6785708 L173.659503,31.2944626 L172.836105,16.1310821 L175.973082,16.1310821 L175.973082,13.314637 L172.682635,13.314637 L171.988089,0.529692632 Z M199.006215,38.1089829 C200.087317,40.1776205 200.780291,42.4608144 201.07309,45.072646 L188.795457,45.3897708 L199.006215,38.1089829 Z M193.774603,31.6649648 C195.718387,33.3824626 197.292375,35.1821197 198.484521,37.1769708 L186.652633,40.6339453 L186.422165,40.3288565 L193.774603,31.6649648 Z M186.5044,26.4355453 C188.790743,27.8463844 190.820952,29.2331513 192.588219,30.6628295 L183.001294,37.2711663 L182.848871,37.1774941 L186.5044,26.4355453 Z M180.213161,17.553434 C181.986189,21.0125017 184.152584,25.0152866 185.345253,25.730649 L185.437964,25.7861197 L178.649124,34.7247483 L178.454274,34.5881648 L180.213161,17.553434 Z M170.337104,0.529692632 L169.642558,13.314637 L166.409204,13.314637 L166.409204,16.1310821 L169.489612,16.1310821 L168.66569,31.2944626 L168.099997,31.6785708 L163.219324,15.3743783 C163.530979,14.7584445 163.813825,14.2000746 164.05634,13.7311904 L170.146444,0.580453534 C170.179967,0.501957293 170.337104,0.449103158 170.337104,0.529692632 L170.337104,0.529692632 Z M143.318978,38.1089829 C142.237875,40.1776205 141.544902,42.4608144 141.252627,45.072646 L153.529736,45.3897708 L143.318978,38.1089829 Z M148.55059,31.6649648 C146.606806,33.3824626 145.032818,35.1821197 143.840672,37.1769708 L155.67256,40.6339453 L155.903028,40.3288565 L148.55059,31.6649648 Z M155.820793,26.4355453 C153.534974,27.8463844 151.504241,29.2331513 149.737498,30.6628295 L159.323899,37.2711663 L159.476322,37.1774941 L155.820793,26.4355453 Z M162.112556,17.553434 C160.339004,21.0125017 158.173133,25.0152866 156.97994,25.730649 L156.887229,25.7861197 L163.676069,34.7247483 L163.871442,34.5881648 L162.112556,17.553434 Z" id="Fill-42"></path>
            </g>
        </g>
    </g>
</svg>