<?xml version="1.0" standalone="no"?>
<!DOCTYPE svg PUBLIC "-//W3C//DTD SVG 1.1//EN" "http://www.w3.org/Graphics/SVG/1.1/DTD/svg11.dtd" >
<svg xmlns="http://www.w3.org/2000/svg">
<metadata>
This is a custom SVG webfont generated by Font Squirrel.
Copyright   : Copyright c Tomas Brousil wwwsuitcasetypecom 2008 All rights reserved
Designer    : Tomas Brousil
Foundry     : Tomas Brousil wwwsuitcasetypecom
Foundry URL : wwwsuitcasetypecom
</metadata>
<defs>
<font id="webfontWDfTSCpx" horiz-adv-x="995" >
<font-face units-per-em="2048" ascent="1638" descent="-410" />
<missing-glyph horiz-adv-x="432" />
<glyph unicode=" "  horiz-adv-x="432" />
<glyph unicode="&#x09;" horiz-adv-x="432" />
<glyph unicode="&#xa0;" horiz-adv-x="432" />
<glyph unicode="!" horiz-adv-x="548" d="M385 1425l-37 -1003h-145l-37 1003h219zM158 112.5q0 57.5 32.5 93.5t83.5 36q53 0 86 -36t33 -93.5t-32.5 -93t-86.5 -35.5q-51 0 -83.5 35.5t-32.5 93z" />
<glyph unicode="&#x22;" horiz-adv-x="694" d="M88 1425h217l-45 -589h-127zM389 1425h217l-45 -589h-127z" />
<glyph unicode="#" d="M963 434h-218l-45 -434h-143l47 434h-280l-45 -434h-144l47 434h-219l14 119h218l41 393h-218l15 119h217l45 434h139l-45 -434h281l47 434h139l-45 -434h221l-14 -119h-219l-41 -393h219zM377 946l-41 -393h280l41 393h-280z" />
<glyph unicode="$" horiz-adv-x="888" d="M520 1569v-176q141 -6 268 -60v-170q-133 53 -268 64v-445q78 -39 124 -67.5t101.5 -75.5t82 -106.5t26.5 -133.5q0 -158 -96 -244.5t-238 -113.5v-184h-139v174q-190 2 -346 84v141q152 -57 346 -61v454q-78 37 -126 65.5t-103.5 75t-83 105.5t-27.5 131q0 147 96 241.5 t244 118.5v183h139zM219 1055q0 -63 42 -110.5t120 -92.5v373q-162 -31 -162 -170zM676 389q0 104 -156 191v-369q72 20 114 67.5t42 110.5z" />
<glyph unicode="%" horiz-adv-x="1415" d="M1094 1425h161l-931 -1425h-162zM348 772q125 0 125 279q0 121 -36 196.5t-89 75.5q-125 0 -125 -279q0 -123 34 -197.5t91 -74.5zM348 639q-127 0 -211 103.5t-84 301.5q0 190 82 301t213 111q127 0 211 -103.5t84 -301.5q0 -190 -82 -301t-213 -111zM1069 102 q125 0 125 279q0 121 -36 196.5t-89 75.5q-125 0 -125 -278q0 -121 35 -197t90 -76zM1069 -31q-127 0 -211 103.5t-84 302.5q0 190 82 300.5t213 110.5q129 0 212 -103t83 -302q0 -190 -82 -301t-213 -111z" />
<glyph unicode="&#x26;" horiz-adv-x="1073" d="M899 647v-647h-168l-16 125q-61 -76 -152.5 -116t-183.5 -40q-150 0 -247 104.5t-97 288.5q0 252 227 373q-174 121 -174 326q0 162 117 278.5t299 116.5q150 0 291 -61v-174q-131 72 -301 71q-94 0 -156 -59t-62 -166q0 -115 60.5 -185.5t193.5 -70.5h543v-164h-174z M715 266v381h-195q-137 0 -217 -83t-80 -199.5t58.5 -178t150.5 -61.5q166 0 283 141z" />
<glyph unicode="'" horiz-adv-x="393" d="M88 1425h217l-45 -589h-127z" />
<glyph unicode="(" horiz-adv-x="559" d="M246 602q0 -547 295 -876l-76 -95q-180 143 -287.5 396.5t-107.5 574.5q0 324 107.5 577t287.5 396l76 -94q-295 -330 -295 -879z" />
<glyph unicode=")" horiz-adv-x="559" d="M313 604q0 547 -295 877l74 94q182 -143 289.5 -396t107.5 -575q0 -324 -107.5 -576.5t-289.5 -396.5l-74 95q295 329 295 878z" />
<glyph unicode="*" horiz-adv-x="886" d="M184 733l-102 187l280 116l-278 117l100 186l219 -231l-63 348h205l-62 -348l219 231l103 -186l-285 -119l285 -116l-103 -187l-221 234l64 -351h-205l63 351z" />
<glyph unicode="+" horiz-adv-x="1036" d="M950 465h-350v-424h-164v424h-348v160h348v424h164v-424h350v-160z" />
<glyph unicode="," horiz-adv-x="382" d="M115 262h217l-187 -549h-127z" />
<glyph unicode="-" horiz-adv-x="503" d="M43 598h418v-154h-418v154z" />
<glyph unicode="." horiz-adv-x="438" d="M88 112.5q0 63.5 37 103.5t94 40t94 -40t37 -103.5t-37 -103.5t-94 -40t-94 40t-37 103.5z" />
<glyph unicode="/" horiz-adv-x="694" d="M621 1534h161l-708 -1862h-162z" />
<glyph unicode="0" horiz-adv-x="1036" d="M520 123q256 0 256 592q0 260 -71.5 424t-184.5 164q-260 0 -260 -592q0 -262 71.5 -425t188.5 -163zM520.5 -31q-198.5 0 -324.5 188.5t-126 553.5q0 342 124.5 543.5t325.5 201.5q197 0 322 -188.5t125 -552.5q0 -342 -124 -544t-322.5 -202z" />
<glyph unicode="1" horiz-adv-x="634" d="M512 1425v-1425h-180v1233l-297 -154v162l332 184h145z" />
<glyph unicode="2" horiz-adv-x="942" d="M88 1186v168q205 102 377 102q174 0 267 -101.5t93 -269.5q0 -358 -534 -921h565v-164h-786v164q184 193 304 344t172 256.5t69.5 170t17.5 130.5q0 227 -201 227q-147 0 -344 -106z" />
<glyph unicode="3" horiz-adv-x="845" d="M309 647v164q129 4 201 81t72 187q0 102 -54.5 157.5t-150.5 55.5q-131 0 -324 -98v168q188 94 353 94q162 0 263 -87t101 -261q0 -121 -55.5 -214t-143.5 -138q244 -78 240 -342q0 -186 -121 -315.5t-328 -129.5q-166 0 -327 84v142q160 -61 325 -62q115 0 188 71.5 t73 180.5q0 119 -77 190.5t-235 71.5z" />
<glyph unicode="4" horiz-adv-x="964" d="M18 489l588 936h150v-936h166v-163h-166v-326h-181v326h-557v163zM195 489h380v631z" />
<glyph unicode="5" horiz-adv-x="884" d="M276 1262v-375q274 20 414.5 -94.5t140.5 -348.5q0 -213 -114.5 -344t-329.5 -131q-168 0 -330 84v142q160 -61 322 -62q115 0 187.5 80t72.5 219q0 170 -122 241.5t-400 41.5v710h635v-163h-476z" />
<glyph unicode="6" horiz-adv-x="972" d="M809 1266q-78 25 -151.5 27.5t-145.5 -25t-126 -86t-89 -166t-39 -252.5q152 125 301 125q145 0 244.5 -113.5t99.5 -306.5q0 -215 -114.5 -357.5t-294.5 -142.5q-186 0 -305 177.5t-119 482.5q0 178 32.5 321.5t90 236.5t131 155.5t157.5 88t166 25.5t162 -24v-166z M526 723q-133 0 -266 -105q27 -496 258 -495q82 0 139.5 83t57.5 232q-1 285 -189 285z" />
<glyph unicode="7" horiz-adv-x="858" d="M313 0h-188l524 1262h-631v163h805v-163z" />
<glyph unicode="8" horiz-adv-x="940" d="M840 1108q0 -115 -62.5 -192.5t-177.5 -153.5q137 -92 212 -184.5t75 -225.5q0 -168 -117 -275.5t-307 -107.5q-197 0 -303.5 112t-106.5 271q0 135 68.5 223.5t193.5 165.5q-102 78 -159.5 162t-57.5 201q0 150 104.5 251t274.5 101q174 0 268.5 -100.5t94.5 -247.5z M698 340q0 68 -41 129t-87 97t-130 91q-199 -139 -198 -321q0 -84 64.5 -148.5t162.5 -64.5q92 0 160.5 68.5t68.5 148.5zM281 1106q0 -78 51 -137.5t147 -126.5q88 57 134 115.5t46 138.5q0 92 -52 149.5t-136 57.5q-76 0 -133 -50.5t-57 -146.5z" />
<glyph unicode="9" horiz-adv-x="972" d="M164 160q76 -25 148.5 -28t143 22.5t125 82t90.5 159t42 243.5q-156 -123 -299 -123q-145 0 -244.5 119t-99.5 311q0 217 114.5 363.5t294.5 146.5q186 0 305 -177t119 -482q0 -178 -32.5 -321.5t-90 -237t-131.5 -156t-157.5 -88t-165.5 -25.5t-162 25v166zM446 682 q135 0 267 106q-20 514 -260 515q-82 0 -138.5 -87.5t-56.5 -238.5q0 -145 49 -220t139 -75z" />
<glyph unicode=":" horiz-adv-x="438" d="M88 112.5q0 63.5 37 103.5t94 40t94 -40t37 -103.5t-37 -103.5t-94 -40t-94 40t-37 103.5zM88 917.5q0 63.5 37 103.5t94 40t94 -40t37 -103.5t-37 -103.5t-94 -40t-94 40t-37 103.5z" />
<glyph unicode=";" horiz-adv-x="438" d="M88 917.5q0 63.5 37 103.5t94 40t94 -40t37 -103.5t-37 -103.5t-94 -40t-94 40t-37 103.5zM115 262h217l-187 -549h-127z" />
<glyph unicode="&#x3c;" horiz-adv-x="1036" d="M950 182v-176l-862 475v127l862 473v-163l-647 -369z" />
<glyph unicode="=" horiz-adv-x="1036" d="M88 424h862v-160h-862v160zM88 825h862v-159h-862v159z" />
<glyph unicode="&#x3e;" horiz-adv-x="1036" d="M88 905v176l862 -475v-127l-862 -473v164l647 369z" />
<glyph unicode="?" horiz-adv-x="788" d="M420 401h-150q0 96 30 183.5t73 151.5l86 123q43 58 72.5 121.5t29.5 125.5q0 90 -54 138t-142 48q-154 0 -330 -114v176q160 102 348 102q172 0 271.5 -98t99.5 -232q0 -96 -35 -176t-84 -136l-97 -112q-48 -55 -83 -132t-35 -169zM227 112.5q0 57.5 33 93.5t86 36 q51 0 85 -36t34 -93.5t-34 -93t-85 -35.5q-53 0 -86 35.5t-33 93z" />
<glyph unicode="@" horiz-adv-x="1812" d="M1055 147q-129 -178 -295 -178q-115 0 -187.5 94.5t-72.5 272.5q0 313 164.5 504.5t392.5 191.5q141 0 268 -76l-108 -735q-8 -47 7 -72.5t46 -25.5q119 0 208 186.5t89 423.5q0 139 -58.5 264t-181.5 210t-287 85q-332 0 -560 -252t-228 -653q0 -315 143.5 -509.5 t399.5 -194.5q125 0 199.5 13t201.5 50l23 -145q-199 -70 -414 -70q-311 0 -514 208t-203 595q0 311 123 566t350 405.5t514 150.5q270 0 460.5 -192.5t190.5 -507.5q0 -190 -51 -346t-129 -246t-162 -137t-159 -47q-158 -1 -170 167zM678 336q0 -102 37 -155.5t94 -53.5 q61 0 129 53t123 148l74 524q-63 39 -127 39q-135 0 -232.5 -158.5t-97.5 -396.5z" />
<glyph unicode="A" horiz-adv-x="1091" d="M352 557h377l-188 672zM786 393h-491l-109 -393h-186l442 1425h207l443 -1425h-197z" />
<glyph unicode="B" horiz-adv-x="1007" d="M299 647v-483h154q61 0 115.5 11t103.5 37t78.5 75t29.5 116q0 244 -370 244h-111zM899 1079q0 -106 -61.5 -191t-159.5 -122q137 -33 216 -129t79 -234q0 -182 -134 -292.5t-376 -110.5h-346v1425h352q430 0 430 -346zM299 1262v-451h109q135 0 216 73.5t81 190.5 q0 186 -259 187h-147z" />
<glyph unicode="C" horiz-adv-x="1021" d="M956 1407v-172q-133 57 -268 57q-197 0 -312.5 -150.5t-115.5 -432.5q0 -240 107.5 -408t294.5 -168q180 0 329 62v-142q-150 -84 -340 -84q-272 0 -428.5 198t-156.5 544q0 350 175 547.5t447 197.5q139 0 268 -49z" />
<glyph unicode="D" horiz-adv-x="1193" d="M117 1425h420q268 0 429.5 -184t161.5 -526q0 -328 -170 -521.5t-456 -193.5h-385v1425zM301 1262v-1098h188q205 0 324 147.5t119 403.5q0 238 -107.5 392.5t-306.5 154.5h-217z" />
<glyph unicode="E" horiz-adv-x="905" d="M874 164v-164h-757v1425h741v-163h-557v-451h453v-164h-453v-483h573z" />
<glyph unicode="F" horiz-adv-x="827" d="M301 0h-184v1425h710v-163h-526v-451h422v-164h-422v-647z" />
<glyph unicode="G" horiz-adv-x="1138" d="M969 1407v-172q-133 57 -275 57q-201 0 -317.5 -150.5t-116.5 -432.5q0 -240 107.5 -413t294.5 -173q104 0 192 27v419h-281v164h465v-667q-193 -96 -387 -97q-272 0 -428.5 198t-156.5 544q0 350 175 547.5t453 197.5q146 0 275 -49z" />
<glyph unicode="H" horiz-adv-x="1210" d="M301 647v-647h-184v1425h184v-614h608v614h185v-1425h-185v647h-608z" />
<glyph unicode="I" horiz-adv-x="417" d="M301 1425v-1425h-184v1425h184z" />
<glyph unicode="J" horiz-adv-x="696" d="M31 4v156q84 -37 162 -37q94 0 148 64.5t54 199.5v1038h185v-1038q0 -195 -106.5 -306.5t-260.5 -111.5q-104 0 -182 35z" />
<glyph unicode="K" horiz-adv-x="1056" d="M301 1425v-665l492 665h219l-484 -657l529 -768h-232l-524 760v-760h-184v1425h184z" />
<glyph unicode="L" horiz-adv-x="854" d="M301 1425v-1261h522v-164h-706v1425h184z" />
<glyph unicode="M" horiz-adv-x="1458" d="M641 0l-307 1126l-94 -1126h-174l131 1425h209l325 -1149l322 1149h209l131 -1425h-174l-93 1126l-309 -1126h-176z" />
<glyph unicode="N" horiz-adv-x="1175" d="M297 1425l582 -1103v1103h180v-1425h-180l-582 1104v-1104h-180v1425h180z" />
<glyph unicode="O" horiz-adv-x="1280" d="M641 123q176 0 277.5 141.5t101.5 450.5q0 260 -106.5 424t-272.5 164q-381 0 -381 -592q0 -260 105.5 -424t275.5 -164zM641 -31q-250 0 -412.5 188.5t-162.5 553.5q0 344 158.5 544.5t416.5 200.5q250 0 411.5 -188.5t161.5 -552.5q0 -342 -158.5 -544t-414.5 -202z " />
<glyph unicode="P" horiz-adv-x="964" d="M301 729h125q184 0 256 81t72 218q0 127 -73 180.5t-212 53.5h-168v-533zM301 565v-565h-184v1425h397q217 0 324.5 -108.5t107.5 -288.5q0 -84 -24.5 -159.5t-79 -146.5t-159.5 -114t-251 -43h-131z" />
<glyph unicode="Q" horiz-adv-x="1280" d="M641 -31q-250 0 -412.5 188.5t-162.5 553.5q0 344 158.5 544.5t416.5 200.5q250 0 411.5 -188.5t161.5 -552.5q0 -236 -78.5 -409t-215.5 -259l391 -373l-119 -141l-455 444q-61 -8 -96 -8zM641 123q176 0 277.5 141.5t101.5 450.5q0 260 -106.5 424t-272.5 164 q-381 0 -381 -592q0 -260 105.5 -424t275.5 -164z" />
<glyph unicode="R" horiz-adv-x="1009" d="M301 606v-606h-184v1425h368q211 0 320.5 -105.5t109.5 -291.5q0 -276 -235 -375l346 -653h-221l-316 610q-53 -4 -88 -4h-100zM301 770h98q186 0 255 64.5t69 193.5q0 233 -283 234h-139v-492z" />
<glyph unicode="S" horiz-adv-x="948" d="M82 53v142q162 -61 342 -62q106 0 178 61.5t72 153.5q0 78 -60.5 143.5t-146.5 118l-171 109.5t-145.5 146t-60.5 202q0 174 120 281.5t294 107.5q156 0 297 -61v-170q-164 68 -312 67q-94 0 -150 -52t-56 -144q0 -82 60 -148.5t145 -120.5l171 -111q86 -58 146.5 -149.5 t60.5 -208.5q0 -102 -41 -181t-106.5 -122t-139 -64.5t-149.5 -21.5q-186 0 -348 84z" />
<glyph unicode="T" horiz-adv-x="999" d="M592 1262v-1262h-184v1262h-396v163h975v-163h-395z" />
<glyph unicode="U" horiz-adv-x="1191" d="M1075 1425v-958q0 -258 -132 -378t-347 -120t-347 119t-132 377v960h184v-976q0 -164 79 -245t216 -81q129 0 212 83t83 247v972h184z" />
<glyph unicode="V" horiz-adv-x="1075" d="M197 1425l346 -1202l346 1202h186l-442 -1425h-191l-442 1425h197z" />
<glyph unicode="W" horiz-adv-x="1538" d="M868 1425l244 -1202l242 1202h184l-336 -1425h-192l-240 1114l-242 -1114h-190l-338 1425h197l241 -1202l244 1202h186z" />
<glyph unicode="X" horiz-adv-x="1069" d="M0 1425h223l314 -575l315 575h217l-424 -708l424 -717h-223l-314 575l-315 -575h-217l424 711z" />
<glyph unicode="Y" horiz-adv-x="1042" d="M612 608v-608h-184v608l-428 817h213l313 -643l310 643h206z" />
<glyph unicode="Z" horiz-adv-x="964" d="M47 0v164l658 1098h-623v163h836v-163l-658 -1098h658v-164h-871z" />
<glyph unicode="[" horiz-adv-x="614" d="M596 -195v-133h-422v1862h422v-133h-264v-1596h264z" />
<glyph unicode="\" horiz-adv-x="694" d="M-88 1534h162l708 -1862h-161z" />
<glyph unicode="]" horiz-adv-x="612" d="M18 1401v133h420v-1862h-420v133h263v1596h-263z" />
<glyph unicode="^" horiz-adv-x="886" d="M659 614l-219 641l-221 -641h-176l319 811h164l318 -811h-185z" />
<glyph unicode="_" horiz-adv-x="1040" d="M0 -145h1040v-136h-1040v136z" />
<glyph unicode="`" horiz-adv-x="579" d="M492 1143h-136l-268 350h209z" />
<glyph unicode="a" horiz-adv-x="884" d="M739 668v-447q0 -98 72 -98q23 0 47 6v-129q-53 -20 -106 -20q-66 0 -111 44t-61 123q-109 -168 -275 -167q-96 0 -163.5 69.5t-67.5 192.5q0 305 495 393q0 246 -168 246q-102 0 -264 -88v147q145 92 293 92q135 0 222 -89t87 -275zM569 297v211q-154 -31 -230.5 -97.5 t-76.5 -152.5q0 -59 26.5 -92t69.5 -33q115 0 211 164z" />
<glyph unicode="b" horiz-adv-x="991" d="M307 1534v-606q80 53 140.5 78.5t138.5 25.5q133 0 232.5 -126t99.5 -357q0 -264 -126 -422t-331 -158q-170 0 -326 76v1489h172zM535 881q-113 0 -228 -88v-643q68 -39 158 -39q133 0 202.5 104t69.5 295q0 168 -54 269.5t-148 101.5z" />
<glyph unicode="c" horiz-adv-x="788" d="M733 985v-158q-113 53 -207 54q-121 0 -196.5 -91.5t-75.5 -289.5q0 -180 73.5 -282.5t196.5 -102.5q98 0 226 59v-133q-119 -72 -261 -72q-182 0 -298.5 143.5t-116.5 387.5q0 246 131 389t315 143q113 0 213 -47z" />
<glyph unicode="d" horiz-adv-x="991" d="M702 0l-18 74q-61 -55 -114.5 -80t-129.5 -25q-139 0 -252.5 132t-113.5 362q0 262 127 415.5t329 153.5q76 0 154 -20v522h172v-1534h-154zM492 121q96 0 192 88v643q-68 39 -158 39q-133 0 -202.5 -104.5t-69.5 -294.5q0 -162 70 -266.5t168 -104.5z" />
<glyph unicode="e" horiz-adv-x="909" d="M805 469h-553q6 -170 78.5 -262t197.5 -92q100 0 236 59v-133q-125 -72 -266 -72q-186 0 -305 127t-119 404q0 238 119.5 385t287.5 147q203 0 284 -151q54 -101 54 -249q0 -76 -14 -163zM475 889q-80 0 -139.5 -70.5t-77.5 -206.5h385q3 27 3 52q0 87 -34 147 q-43 78 -137 78z" />
<glyph unicode="f" horiz-adv-x="630" d="M39 858v143h147v111q0 233 130 345q90 77 196 78q46 0 96 -15v-154q-48 15 -86 15q-61 0 -100 -38q-63 -61 -64 -227v-115h232v-143h-232v-858h-172v858h-147z" />
<glyph unicode="g" horiz-adv-x="927" d="M436 346q-72 0 -127 19q-31 -53 -31 -108q0 -13 2 -26q9 -68 66 -67h193q176 0 258 -60.5t82 -189.5q0 -166 -138.5 -273.5t-357.5 -107.5q-188 0 -266 70.5t-78 173.5q0 162 164 278q-78 41 -78 155t76 210q-115 94 -115 268q0 158 96.5 251t253.5 93q84 0 160 -31h293 v-104l-148 -29q41 -76 41 -180q0 -156 -96 -249t-250 -93zM334 0q-111 -84 -111 -193q0 -145 178 -145q135 0 215 62.5t80 154.5q0 121 -155 121h-207zM436 467q172 0 172 221q0 98 -49 160.5t-123 62.5q-84 0 -130 -56t-46 -167q0 -96 49 -158.5t127 -62.5z" />
<glyph unicode="h" d="M868 0h-172v653q0 106 -42 167t-117 61q-123 0 -230 -88v-793h-172v1534h172v-606q156 104 287 104q123 0 198.5 -97t75.5 -259v-676z" />
<glyph unicode="i" horiz-adv-x="442" d="M307 1001v-1001h-172v1001h172zM117 1311q0 47 29.5 77.5t74.5 30.5t75 -30.5t30 -77.5q0 -49 -29 -80t-76 -31q-45 0 -74.5 31t-29.5 80z" />
<glyph unicode="j" horiz-adv-x="442" d="M307 1001v-1046q0 -233 -130 -345q-90 -77 -196 -78q-46 0 -96 15v154q50 -15 90 -15q62 0 99 36q61 60 61 229v1050h172zM117 1311q0 47 29.5 77.5t74.5 30.5t75 -30.5t30 -77.5q0 -49 -29 -80t-76 -31q-45 0 -74.5 31t-29.5 80z" />
<glyph unicode="k" horiz-adv-x="909" d="M647 1001h207l-338 -452l381 -549h-217l-373 541v-541h-172v1534h172v-993z" />
<glyph unicode="l" horiz-adv-x="495" d="M135 1534h172v-1313q0 -68 35 -88q19 -11 54 -11q28 0 65 7v-129q-63 -20 -117 -20q-65 0 -116 29q-93 54 -93 218v1307z" />
<glyph unicode="m" horiz-adv-x="1454" d="M817 0h-172v653q0 109 -37 168.5t-102 59.5q-104 0 -199 -88v-793h-172v1001h154l18 -73q141 104 258 104q129 0 199 -125q174 125 311 125q113 0 182.5 -98t69.5 -258v-676h-172v653q0 109 -36 168.5t-103 59.5q-102 0 -207 -95q8 -47 8 -110v-676z" />
<glyph unicode="n" d="M868 0h-172v653q0 106 -42 167t-117 61q-123 0 -230 -88v-793h-172v1001h154l18 -73q156 104 287 104q123 0 198.5 -97t75.5 -259v-676z" />
<glyph unicode="o" horiz-adv-x="1001" d="M502 113q246 0 246 389q0 172 -69 279.5t-177 107.5q-248 0 -248 -389q0 -172 69.5 -279.5t178.5 -107.5zM502 -31q-186 0 -307 135.5t-121 395.5q0 244 118.5 388t309.5 144q184 0 305 -135t121 -395q0 -244 -118 -388.5t-308 -144.5z" />
<glyph unicode="p" horiz-adv-x="991" d="M289 1001l18 -73q80 53 140.5 78.5t138.5 25.5q133 0 232.5 -126t99.5 -357q0 -264 -126 -422t-331 -158q-76 0 -154 21v-420h-172v1431h154zM535 881q-113 0 -228 -88v-643q68 -39 158 -39q133 0 202.5 104t69.5 295q0 168 -54 269.5t-148 101.5z" />
<glyph unicode="q" horiz-adv-x="991" d="M684 -430v491q-129 -92 -244 -92q-137 0 -251.5 132t-114.5 362q0 262 127 415.5t329 153.5q170 0 326 -76v-1386h-172zM492 121q94 0 192 76v655q-68 39 -158 39q-133 0 -202.5 -104.5t-69.5 -294.5q0 -162 70 -266.5t168 -104.5z" />
<glyph unicode="r" horiz-adv-x="663" d="M307 686v-686h-172v1001h156l16 -133q35 70 95.5 117t129.5 47q63 0 117 -26v-172q-82 39 -131 38q-115 0 -211 -186z" />
<glyph unicode="s" horiz-adv-x="733" d="M391 1032q102 0 223 -33v-159q-106 41 -237 41q-70 0 -102.5 -36t-32.5 -89.5t43 -94t105.5 -72.5t125 -70t105.5 -102.5t43 -152.5q0 -133 -92.5 -214t-225.5 -81q-152 0 -268 72v133q139 -59 276 -59q59 0 95 39t36 102q0 53 -43 93t-103 70t-121.5 65.5t-104.5 101 t-43 153.5q0 119 84.5 206t236.5 87z" />
<glyph unicode="t" horiz-adv-x="663" d="M342 1001h248v-143h-248v-600q0 -61 32 -100t85 -39q74 0 166 31v-130q-106 -51 -222 -51q-106 0 -169.5 74t-63.5 207v608h-131v143h131v279h172v-279z" />
<glyph unicode="u" d="M127 1001h170v-653q0 -106 43 -166.5t119 -60.5q123 0 229 88v792h172v-1001h-153l-19 74q-156 -104 -287 -105q-123 0 -198.5 97.5t-75.5 259.5v675z" />
<glyph unicode="v" horiz-adv-x="854" d="M23 1001h182l227 -786l227 786h172l-311 -1001h-188z" />
<glyph unicode="w" horiz-adv-x="1288" d="M743 1001l177 -786l174 786h172l-258 -1001h-189l-176 778l-174 -778h-188l-258 1001h182l176 -786l174 786h188z" />
<glyph unicode="x" horiz-adv-x="868" d="M31 1001h209l194 -362l199 362h203l-299 -495l301 -506h-209l-197 365l-201 -365h-200l301 498z" />
<glyph unicode="y" horiz-adv-x="854" d="M23 1001h182l227 -786l227 786h172l-444 -1431h-172l125 412z" />
<glyph unicode="z" horiz-adv-x="800" d="M57 0v133l461 715h-461v153h678v-133l-463 -714h471v-154h-686z" />
<glyph unicode="{" horiz-adv-x="649" d="M88 543v121q158 0 158 194v229q0 217 76.5 332t226.5 115h82v-133h-43q-98 0 -141.5 -73t-43.5 -234v-215q0 -231 -135 -275q135 -43 135 -278v-213q0 -162 43 -235t142 -73h43v-133h-82q-150 0 -226.5 115t-76.5 332v227q0 197 -158 197z" />
<glyph unicode="|" horiz-adv-x="503" d="M174 1534h156v-1862h-156v1862z" />
<glyph unicode="}" horiz-adv-x="649" d="M561 664v-121q-160 0 -160 -195v-229q0 -217 -76.5 -332t-226.5 -115h-80v133h41q98 0 141.5 73t43.5 235v215q0 231 135 274q-135 43 -135 279v213q0 162 -43 234.5t-142 72.5h-41v133h80q150 0 226.5 -114.5t76.5 -332.5v-227q0 -196 160 -196z" />
<glyph unicode="~" horiz-adv-x="1064" d="M344 717q66 0 126 -39t99 -84t88.5 -84t92.5 -39q94 0 163 160l117 -66q-109 -242 -309 -241q-66 0 -126 38.5t-99 84t-88.5 84t-92.5 38.5q-92 0 -163 -159l-117 65q108 242 309 242z" />
<glyph unicode="&#xa1;" horiz-adv-x="548" d="M166 -426l37 1004h145l37 -1004h-219zM393 886.5q0 -57.5 -32.5 -93t-86 -35.5t-86 35.5t-32.5 93t32.5 93.5t86 36t86 -36t32.5 -93.5z" />
<glyph unicode="&#xa2;" horiz-adv-x="819" d="M758 1360v-158q-104 39 -205 43v-809q125 6 231 49v-135q-104 -51 -231 -61v-174h-139v182q-178 31 -278.5 172t-100.5 371q0 215 103.5 357t275.5 183v189h139v-174q113 -4 205 -35zM215 840q0 -135 52 -239.5t147 -143.5v764q-199 -82 -199 -381z" />
<glyph unicode="&#xa3;" horiz-adv-x="897" d="M35 610v144h143q-27 129 -26 252q0 221 108.5 335.5t267.5 114.5q158 0 295 -61v-170q-152 68 -288 67q-197 0 -197 -258q0 -33 5 -71.5t10 -64.5t16.5 -74t15.5 -70h277v-144h-254q14 -227 -125 -446h579v-164h-792v119q109 156 134 264.5t5 226.5h-174z" />
<glyph unicode="&#xa4;" d="M815 449l127 -144l-104 -100l-125 141q-92 -82 -215 -82t-215 82l-125 -141l-105 100l125 144q-59 109 -59 262q0 150 59 262l-125 143l105 101l125 -142q94 82 214.5 82t215.5 -82l125 142l104 -101l-127 -143q61 -111 62 -262q-1 -153 -62 -262zM268 711 q0 -131 65.5 -216t164.5 -85q100 0 164.5 85t64.5 216t-64.5 216t-164.5 85q-98 0 -164 -85t-66 -216z" />
<glyph unicode="&#xa5;" horiz-adv-x="1112" d="M147 549v143h269l-381 733h213l313 -643l309 643h207l-381 -733h269v-143h-318v-549h-184v549h-316z" />
<glyph unicode="&#xa6;" horiz-adv-x="503" d="M330 776h-156v758h156v-758zM330 -328h-156v758h156v-758z" />
<glyph unicode="&#xa7;" horiz-adv-x="1064" d="M635 1292q-31 0 -47 -2q-25 -141 6 -272t93 -239l129 -213q67 -105 117 -239t50 -274q0 -227 -147.5 -373.5t-374.5 -146.5q-152 0 -314 61v170q154 -68 283 -67q31 0 45 2q27 141 -4 272t-93 239l-129 213q-67 105 -117 239.5t-50 273.5q0 227 148.5 373.5t373.5 146.5 q152 0 314 -61v-170q-154 67 -283 67zM272 940q0 -119 43 -231.5t103.5 -206.5t118 -195.5t91.5 -241t21 -303.5q143 100 144 287q0 119 -43 231.5t-103.5 206t-118 195.5t-91.5 242.5t-19 304.5q-146 -101 -146 -289z" />
<glyph unicode="&#xa8;" horiz-adv-x="669" d="M88 1290q0 45 25.5 74t66.5 29t67.5 -29t26.5 -74t-26.5 -74.5t-67.5 -29.5t-66.5 29.5t-25.5 74.5zM395 1290q0 45 27 74t67.5 29t67.5 -29t27 -74t-27 -74.5t-67.5 -29.5t-67.5 29.5t-27 74.5z" />
<glyph unicode="&#xa9;" horiz-adv-x="1439" d="M219 713q0 -264 141.5 -437.5t358.5 -173.5t358.5 173.5t141.5 437.5t-141.5 437t-358.5 173t-358.5 -173t-141.5 -437zM88 712.5q0 321.5 178 532.5t452.5 211t454 -210t179.5 -533.5t-179.5 -533.5t-454 -210t-452.5 211t-178 532.5zM946 1153v-133q-84 35 -180 35 q-125 0 -198.5 -90.5t-73.5 -253.5q0 -145 67.5 -243.5t188.5 -98.5q117 0 219 41v-115q-102 -53 -230 -53q-182 0 -287.5 125t-105.5 344q0 217 118 345t302 128q90 0 180 -31z" />
<glyph unicode="&#xaa;" horiz-adv-x="677" d="M573 1303v-324q0 -72 48 -72q14 0 36 6v-110q-55 -20 -94 -21q-104 0 -133 127q-80 -127 -205 -127q-74 0 -124 53.5t-50 145.5q0 244 371 299q0 88 -30 126t-89 38q-88 0 -205 -68v127q98 74 236 74q102 0 170.5 -68.5t68.5 -205.5zM422 1030v144q-100 -20 -156.5 -65.5 t-56.5 -104.5q0 -82 65 -82q74 -1 148 108z" />
<glyph unicode="&#xab;" horiz-adv-x="921" d="M440 16l-432 502l428 498l103 -101l-320 -389l330 -401zM803 16l-430 502l426 498l104 -101l-321 -389l331 -401z" />
<glyph unicode="&#xac;" horiz-adv-x="1036" d="M950 625v-584h-164v424h-698v160h862z" />
<glyph unicode="&#xad;" horiz-adv-x="503" d="M43 598h418v-154h-418v154z" />
<glyph unicode="&#xae;" horiz-adv-x="1028" d="M143 973q0 -164 104.5 -270.5t266.5 -106.5t266.5 106.5t104.5 270.5t-104.5 270.5t-266.5 106.5t-266.5 -106.5t-104.5 -270.5zM31 973q0 211 136 347t347 136t347 -136t136 -347t-136 -347.5t-347 -136.5t-347 136.5t-136 347.5zM618 717l-120 190q-18 -2 -58 -2v-188 h-112v512h161q106 0 161 -39t55 -107q0 -98 -99 -147l148 -219h-136zM440 1147v-150q150 0 150 80q0 70 -121 70h-29z" />
<glyph unicode="&#xaf;" horiz-adv-x="643" d="M88 1346h467v-146h-467v146z" />
<glyph unicode="&#xb0;" horiz-adv-x="720" d="M43 1083.5q0 161.5 90 267t227.5 105.5t227.5 -105.5t90 -267t-90 -267t-227.5 -105.5t-227.5 105.5t-90 267zM190 1083.5q0 -100.5 48.5 -167t122 -66.5t121.5 66.5t48 167t-48 167t-121.5 66.5t-122 -66.5t-48.5 -167z" />
<glyph unicode="&#xb1;" horiz-adv-x="1036" d="M950 748h-350v-424h-164v424h-348v159h348v424h164v-424h350v-159zM88 160h862v-160h-862v160z" />
<glyph unicode="&#xb2;" horiz-adv-x="671" d="M76 1538v141q131 66 254 66q121 0 184.5 -68.5t63.5 -173.5q0 -123 -80 -256t-250 -311h350v-137h-535v137q207 219 279 337t72 206q0 57 -30 93t-89 36q-94 0 -219 -70z" />
<glyph unicode="&#xb3;" horiz-adv-x="595" d="M209 1210v125q78 2 121 45t43 111q0 119 -115 119q-94 0 -207 -56v134q109 57 230 57q119 0 183 -59.5t64 -169.5q0 -74 -33.5 -134.5t-95.5 -91.5q160 -53 160 -225q0 -125 -81 -206t-224 -81q-113 0 -213 56v122q115 -43 213 -43q66 0 104.5 42t38.5 104 q0 66 -46 108.5t-142 42.5z" />
<glyph unicode="&#xb4;" horiz-adv-x="579" d="M223 1143h-135l195 350h209z" />
<glyph unicode="&#xb5;" horiz-adv-x="1003" d="M135 1001h170v-653q2 -109 44 -168t118 -59q123 0 229 88v792h172v-1001h-153l-19 74q-156 -104 -286 -105q-51 0 -105 33v-432h-170v1431z" />
<glyph unicode="&#x3bc;" horiz-adv-x="1003" d="M135 1001h170v-653q2 -109 44 -168t118 -59q123 0 229 88v792h172v-1001h-153l-19 74q-156 -104 -286 -105q-51 0 -105 33v-432h-170v1431z" />
<glyph unicode="&#xb6;" horiz-adv-x="1200" d="M592 1425h526v-1425h-135v1280h-135v-1280h-135v631h-138q-250 0 -371.5 104.5t-121.5 294.5q0 74 24.5 139.5t79 126t159 95t247.5 34.5z" />
<glyph unicode="&#xb7;" horiz-adv-x="438" d="M88 501.5q0 63.5 37 103.5t94 40t94 -40t37 -103.5t-37 -103.5t-94 -40t-94 40t-37 103.5z" />
<glyph unicode="&#xb8;" horiz-adv-x="509" d="M313 8l-88 -117q90 14 144.5 -31.5t54.5 -125.5q0 -90 -57.5 -144.5t-149.5 -56.5q-78 0 -129 33v84q49 -27 109 -27q96 0 96 96q0 94 -92 95q-27 0 -51 -7l-33 43l102 158h94z" />
<glyph unicode="&#xb9;" horiz-adv-x="481" d="M385 1724v-925h-152v772l-192 -101v136l215 118h129z" />
<glyph unicode="&#xba;" horiz-adv-x="755" d="M379 905q168 0 168 273q0 119 -47 194.5t-121 75.5q-168 0 -168 -272q0 -121 46 -196t122 -75zM379 776q-143 0 -235.5 101.5t-92.5 298.5q0 184 91 292.5t237 108.5q141 0 233.5 -101.5t92.5 -297.5q0 -184 -90.5 -293t-235.5 -109z" />
<glyph unicode="&#xbb;" horiz-adv-x="921" d="M119 1016l430 -502l-426 -498l-105 101l322 389l-332 401zM481 1016l432 -502l-428 -498l-102 101l319 389l-329 401z" />
<glyph unicode="&#xbc;" horiz-adv-x="1355" d="M995 1425h162l-932 -1425h-162zM381 1518v-920h-150v768l-190 -100v133l213 119h127zM696 326l385 600h136v-600h96v-129h-96v-197h-150v197h-371v129zM842 326h225v370z" />
<glyph unicode="&#xbd;" horiz-adv-x="1476" d="M995 1425h162l-932 -1425h-162zM385 1528v-926h-152v772l-192 -100v135l215 119h129zM881 739v142q131 66 254 65q121 0 184 -68.5t63 -172.5q0 -123 -79.5 -256.5t-249.5 -311.5h350v-137h-535v137q207 219 279 337t72 206q0 57 -30 93t-89 36q-94 0 -219 -70z" />
<glyph unicode="&#xbe;" horiz-adv-x="1443" d="M1081 1425h162l-932 -1425h-161zM782 326l385 600h136v-600h96v-129h-96v-197h-150v197h-371v129zM928 326h225v370zM209 1014v125q78 2 121 45t43 110q0 119 -115 119q-94 0 -207 -55v133q109 57 230 57q119 0 183 -59t64 -170q0 -74 -33.5 -134.5t-95.5 -90.5 q160 -53 160 -226q0 -125 -81 -205.5t-224 -80.5q-113 0 -213 55v123q115 -43 213 -43q66 0 104.5 42t38.5 103q0 66 -46 109t-142 43z" />
<glyph unicode="&#xbf;" horiz-adv-x="788" d="M367 598h151q0 -96 -29.5 -183t-72.5 -152l-86 -123q-43 -58 -73 -121.5t-30 -124.5q0 -90 53.5 -138.5t143.5 -48.5q154 0 330 115v-176q-160 -102 -348 -103q-172 0 -271.5 98.5t-99.5 231.5q0 96 33.5 176t83.5 136l98 112q49 55 83 132t34 169zM561 886.5 q0 -57.5 -32.5 -93t-86 -35.5t-86 35.5t-32.5 93t32.5 93.5t86 36t86 -36t32.5 -93.5z" />
<glyph unicode="&#xc0;" horiz-adv-x="1091" d="M352 557h377l-188 672zM786 393h-491l-109 -393h-186l442 1425h207l443 -1425h-197zM653 1534h-159l-289 289h237z" />
<glyph unicode="&#xc1;" horiz-adv-x="1091" d="M352 557h377l-188 672zM786 393h-491l-109 -393h-186l442 1425h207l443 -1425h-197zM586 1534h-158l211 289h238z" />
<glyph unicode="&#xc2;" horiz-adv-x="1091" d="M352 557h377l-188 672zM786 393h-491l-109 -393h-186l442 1425h207l443 -1425h-197zM846 1534h-144l-161 141l-160 -141h-143l231 289h143z" />
<glyph unicode="&#xc3;" horiz-adv-x="1091" d="M352 557h377l-188 672zM786 393h-491l-109 -393h-186l442 1425h207l443 -1425h-197zM319 1554l-81 39q16 82 71.5 139.5t118.5 57.5q68 0 143.5 -55.5t104.5 -55.5q53 0 86 90l82 -38q-16 -82 -71.5 -139.5t-119.5 -57.5q-68 0 -143.5 55.5t-103.5 55.5q-54 -1 -87 -91z " />
<glyph unicode="&#xc4;" horiz-adv-x="1091" d="M352 557h377l-188 672zM786 393h-491l-109 -393h-186l442 1425h207l443 -1425h-197zM260 1692q0 45 26.5 73.5t67.5 28.5t69 -28.5t28 -73.5t-28 -75t-69 -30t-67.5 30t-26.5 75zM633 1692q0 45 26.5 73.5t67.5 28.5t68.5 -28.5t27.5 -73.5t-27.5 -75t-68.5 -30t-67.5 30 t-26.5 75z" />
<glyph unicode="&#xc5;" horiz-adv-x="1091" d="M352 557h377l-188 672zM786 393h-491l-109 -393h-186l442 1425h207l443 -1425h-197zM348 1665q0 88 55.5 145.5t139.5 57.5q82 0 138 -58.5t56 -144.5t-56 -143.5t-138 -57.5q-84 0 -139.5 57.5t-55.5 143.5zM459 1665q0 -47 23.5 -78t60.5 -31t60.5 31t23.5 78t-23.5 79 t-60.5 32t-60.5 -31t-23.5 -80z" />
<glyph unicode="&#xc6;" horiz-adv-x="1654" d="M1624 164v-164h-760v393h-438l-209 -393h-217l836 1425h770v-163h-557v-451h452v-164h-452v-483h575zM532 557h332v617z" />
<glyph unicode="&#xc7;" horiz-adv-x="1021" d="M956 1407v-172q-133 57 -268 57q-197 0 -312.5 -150.5t-115.5 -432.5q0 -240 107.5 -408t294.5 -168q180 0 329 62v-142q-135 -76 -303 -82l-59 -80q90 14 144 -31.5t54 -125.5q0 -90 -57 -144.5t-149 -56.5q-78 0 -129 33v84q49 -27 108 -27q96 0 96 96q0 94 -92 95 q-27 0 -51 -7l-33 43l78 121q-250 20 -391 215t-141 525q0 350 175 547.5t447 197.5q139 0 268 -49z" />
<glyph unicode="&#xc8;" horiz-adv-x="905" d="M874 164v-164h-757v1425h741v-163h-557v-451h453v-164h-453v-483h573zM662 1534h-160l-289 289h238z" />
<glyph unicode="&#xc9;" horiz-adv-x="905" d="M874 164v-164h-757v1425h741v-163h-557v-451h453v-164h-453v-483h573zM475 1534h-158l211 289h238z" />
<glyph unicode="&#xca;" horiz-adv-x="905" d="M874 164v-164h-757v1425h741v-163h-557v-451h453v-164h-453v-483h573zM793 1534h-144l-162 141l-159 -141h-144l232 289h143z" />
<glyph unicode="&#xcb;" horiz-adv-x="905" d="M874 164v-164h-757v1425h741v-163h-557v-451h453v-164h-453v-483h573zM207 1692q0 45 26.5 73.5t67.5 28.5t68.5 -28.5t27.5 -73.5t-27.5 -75t-68.5 -30t-67.5 30t-26.5 75zM580 1692q0 45 26.5 73.5t67.5 28.5t68.5 -28.5t27.5 -73.5t-27.5 -75t-68.5 -30t-67.5 30 t-26.5 75z" />
<glyph unicode="&#xcc;" horiz-adv-x="419" d="M301 1425v-1425h-184v1425h184zM311 1534h-159l-289 289h237z" />
<glyph unicode="&#xcd;" horiz-adv-x="419" d="M301 1425v-1425h-184v1425h184zM264 1534h-158l211 289h238z" />
<glyph unicode="&#xce;" horiz-adv-x="419" d="M301 1425v-1425h-184v1425h184zM514 1534h-143l-162 141l-160 -141h-143l231 289h144z" />
<glyph unicode="&#xcf;" horiz-adv-x="419" d="M301 1425v-1425h-184v1425h184zM-70 1692q0 45 27 73.5t68 28.5t68.5 -28.5t27.5 -73.5t-27.5 -75t-68.5 -30t-68 30t-27 75zM303 1692q0 45 26.5 73.5t67.5 28.5t69 -28.5t28 -73.5t-28 -75t-69 -30t-67.5 30t-26.5 75z" />
<glyph unicode="&#xd0;" horiz-adv-x="1193" d="M0 786h117v639h420q268 0 429.5 -184t161.5 -526q0 -328 -170 -521.5t-456 -193.5h-385v641h-117v145zM301 1262v-476h201v-145h-201v-477h188q205 0 324 147.5t119 403.5q0 238 -107.5 392.5t-306.5 154.5h-217z" />
<glyph unicode="&#xd1;" horiz-adv-x="1161" d="M297 1425l582 -1103v1103h180v-1425h-180l-582 1104v-1104h-180v1425h180zM367 1554l-82 39q16 82 71.5 139.5t118.5 57.5q68 0 143.5 -55.5t104.5 -55.5q53 0 86 90l82 -38q-16 -82 -71.5 -139.5t-119.5 -57.5q-68 0 -143.5 55.5t-103.5 55.5q-53 -1 -86 -91z" />
<glyph unicode="&#xd2;" horiz-adv-x="1280" d="M641 123q176 0 277.5 141.5t101.5 450.5q0 260 -106.5 424t-272.5 164q-381 0 -381 -592q0 -260 105.5 -424t275.5 -164zM641 -31q-250 0 -412.5 188.5t-162.5 553.5q0 344 158.5 544.5t416.5 200.5q250 0 411.5 -188.5t161.5 -552.5q0 -342 -158.5 -544t-414.5 -202z M807 1534h-160l-289 289h238z" />
<glyph unicode="&#xd3;" horiz-adv-x="1280" d="M641 123q176 0 277.5 141.5t101.5 450.5q0 260 -106.5 424t-272.5 164q-381 0 -381 -592q0 -260 105.5 -424t275.5 -164zM641 -31q-250 0 -412.5 188.5t-162.5 553.5q0 344 158.5 544.5t416.5 200.5q250 0 411.5 -188.5t161.5 -552.5q0 -342 -158.5 -544t-414.5 -202z M631 1534h-158l211 289h238z" />
<glyph unicode="&#xd4;" horiz-adv-x="1280" d="M641 123q176 0 277.5 141.5t101.5 450.5q0 260 -106.5 424t-272.5 164q-381 0 -381 -592q0 -260 105.5 -424t275.5 -164zM641 -31q-250 0 -412.5 188.5t-162.5 553.5q0 344 158.5 544.5t416.5 200.5q250 0 411.5 -188.5t161.5 -552.5q0 -342 -158.5 -544t-414.5 -202z M946 1534h-143l-162 141l-160 -141h-143l231 289h144z" />
<glyph unicode="&#xd5;" horiz-adv-x="1280" d="M641 123q176 0 277.5 141.5t101.5 450.5q0 260 -106.5 424t-272.5 164q-381 0 -381 -592q0 -260 105.5 -424t275.5 -164zM641 -31q-250 0 -412.5 188.5t-162.5 553.5q0 344 158.5 544.5t416.5 200.5q250 0 411.5 -188.5t161.5 -552.5q0 -342 -158.5 -544t-414.5 -202z M420 1554l-82 39q16 82 71.5 139.5t118.5 57.5q68 0 144 -55.5t104 -55.5q53 0 86 90l82 -38q-16 -82 -71.5 -139.5t-118.5 -57.5q-68 0 -143.5 55.5t-104.5 55.5q-53 -1 -86 -91z" />
<glyph unicode="&#xd6;" horiz-adv-x="1280" d="M641 123q176 0 277.5 141.5t101.5 450.5q0 260 -106.5 424t-272.5 164q-381 0 -381 -592q0 -260 105.5 -424t275.5 -164zM641 -31q-250 0 -412.5 188.5t-162.5 553.5q0 344 158.5 544.5t416.5 200.5q250 0 411.5 -188.5t161.5 -552.5q0 -342 -158.5 -544t-414.5 -202z M358 1692q0 45 27 73.5t68 28.5t68.5 -28.5t27.5 -73.5t-27.5 -75t-68.5 -30t-68 30t-27 75zM731 1692q0 45 26.5 73.5t67.5 28.5t69 -28.5t28 -73.5t-28 -75t-69 -30t-67.5 30t-26.5 75z" />
<glyph unicode="&#xd7;" horiz-adv-x="1036" d="M817 72l-301 354l-297 -348l-106 104l305 359l-309 364l112 113l301 -354l297 348l107 -105l-308 -358l310 -365z" />
<glyph unicode="&#xd8;" horiz-adv-x="1280" d="M641 -31q-164 0 -297 84l-135 -243l-107 75l142 254q-178 199 -178 572q0 344 158.5 544.5t416.5 200.5q166 0 293 -84l137 244l107 -76l-144 -254q180 -201 180 -571q0 -342 -158.5 -544t-414.5 -202zM260 711q0 -236 86 -392l502 898q-92 86 -207 86q-381 0 -381 -592z M641 123q176 0 277.5 141.5t101.5 450.5q0 227 -86 389l-502 -897q90 -84 209 -84z" />
<glyph unicode="&#xd9;" horiz-adv-x="1193" d="M1075 1425v-958q0 -258 -132 -378t-347 -120t-347 119t-132 377v960h184v-976q0 -164 79 -245t216 -81q129 0 212 83t83 247v972h184zM762 1534h-160l-289 289h238z" />
<glyph unicode="&#xda;" horiz-adv-x="1193" d="M1075 1425v-958q0 -258 -132 -378t-347 -120t-347 119t-132 377v960h184v-976q0 -164 79 -245t216 -81q129 0 212 83t83 247v972h184zM586 1534h-158l211 289h238z" />
<glyph unicode="&#xdb;" horiz-adv-x="1193" d="M1075 1425v-958q0 -258 -132 -378t-347 -120t-347 119t-132 377v960h184v-976q0 -164 79 -245t216 -81q129 0 212 83t83 247v972h184zM901 1534h-143l-162 141l-160 -141h-143l231 289h144z" />
<glyph unicode="&#xdc;" horiz-adv-x="1193" d="M1075 1425v-958q0 -258 -132 -378t-347 -120t-347 119t-132 377v960h184v-976q0 -164 79 -245t216 -81q129 0 212 83t83 247v972h184zM315 1692q0 45 27 73.5t68 28.5t68.5 -28.5t27.5 -73.5t-27.5 -75t-68.5 -30t-68 30t-27 75zM688 1692q0 45 26.5 73.5t67.5 28.5 t69 -28.5t28 -73.5t-28 -75t-69 -30t-67.5 30t-26.5 75z" />
<glyph unicode="&#xdd;" horiz-adv-x="1042" d="M612 608v-608h-184v608l-428 817h213l313 -643l310 643h206zM528 1534h-157l211 289h237z" />
<glyph unicode="&#xde;" horiz-adv-x="964" d="M301 1425v-282h213q217 0 324.5 -108.5t107.5 -289.5q0 -84 -24.5 -159.5t-79 -146t-159.5 -113.5t-251 -43h-131v-283h-184v1425h184zM301 446h125q184 0 256 81t72 218q0 127 -73 180.5t-212 53.5h-168v-533z" />
<glyph unicode="&#xdf;" horiz-adv-x="1038" d="M469 41v133q100 -59 213 -59q47 0 75.5 36.5t28.5 104.5q0 53 -32.5 93t-78.5 70t-92 65.5t-79 101t-33 153.5t34 161t73.5 112t73.5 93t34 112q0 78 -38 120.5t-105 42.5q-96 0 -140.5 -64.5t-44.5 -199.5v-1116h-172v858h-147v143h147v111q0 205 100.5 313.5 t274.5 108.5q135 0 217 -82t82 -219q0 -90 -33.5 -163t-74.5 -112.5t-75 -93t-34 -108.5q0 -53 33 -94t80 -73t95 -70t81 -102.5t33 -152.5q0 -133 -79 -214t-194 -81q-123 0 -223 72z" />
<glyph unicode="&#xe0;" horiz-adv-x="886" d="M739 668v-447q0 -98 72 -98q23 0 47 6v-129q-53 -20 -106 -20q-66 0 -111 44t-61 123q-109 -168 -275 -167q-96 0 -163.5 69.5t-67.5 192.5q0 305 495 393q0 246 -168 246q-102 0 -264 -88v147q145 92 293 92q135 0 222 -89t87 -275zM569 297v211q-154 -31 -230.5 -97.5 t-76.5 -152.5q0 -59 26.5 -92t69.5 -33q115 0 211 164zM584 1143h-135l-269 350h209z" />
<glyph unicode="&#xe1;" horiz-adv-x="886" d="M739 668v-447q0 -98 72 -98q23 0 47 6v-129q-53 -20 -106 -20q-66 0 -111 44t-61 123q-109 -168 -275 -167q-96 0 -163.5 69.5t-67.5 192.5q0 305 495 393q0 246 -168 246q-102 0 -264 -88v147q145 92 293 92q135 0 222 -89t87 -275zM569 297v211q-154 -31 -230.5 -97.5 t-76.5 -152.5q0 -59 26.5 -92t69.5 -33q115 0 211 164zM442 1143h-135l195 350h209z" />
<glyph unicode="&#xe2;" horiz-adv-x="886" d="M739 668v-447q0 -98 72 -98q23 0 47 6v-129q-53 -20 -106 -20q-66 0 -111 44t-61 123q-109 -168 -275 -167q-96 0 -163.5 69.5t-67.5 192.5q0 305 495 393q0 246 -168 246q-102 0 -264 -88v147q145 92 293 92q135 0 222 -89t87 -275zM569 297v211q-154 -31 -230.5 -97.5 t-76.5 -152.5q0 -59 26.5 -92t69.5 -33q115 0 211 164zM721 1143h-129l-154 203l-155 -203h-127l211 350h143z" />
<glyph unicode="&#xe3;" horiz-adv-x="886" d="M739 668v-447q0 -98 72 -98q23 0 47 6v-129q-53 -20 -106 -20q-66 0 -111 44t-61 123q-109 -168 -275 -167q-96 0 -163.5 69.5t-67.5 192.5q0 305 495 393q0 246 -168 246q-102 0 -264 -88v147q145 92 293 92q135 0 222 -89t87 -275zM569 297v211q-154 -31 -230.5 -97.5 t-76.5 -152.5q0 -59 26.5 -92t69.5 -33q115 0 211 164zM236 1178l-82 39q16 82 71.5 139t118.5 57q57 0 120.5 -55t92.5 -55q53 0 86 90l82 -39q-16 -82 -71.5 -139.5t-118.5 -57.5q-57 0 -121 55.5t-92 55.5q-53 0 -86 -90z" />
<glyph unicode="&#xe4;" horiz-adv-x="886" d="M739 668v-447q0 -98 72 -98q23 0 47 6v-129q-53 -20 -106 -20q-66 0 -111 44t-61 123q-109 -168 -275 -167q-96 0 -163.5 69.5t-67.5 192.5q0 305 495 393q0 246 -168 246q-102 0 -264 -88v147q145 92 293 92q135 0 222 -89t87 -275zM569 297v211q-154 -31 -230.5 -97.5 t-76.5 -152.5q0 -59 26.5 -92t69.5 -33q115 0 211 164zM190 1290q0 45 26 74t67 29t67.5 -29t26.5 -74t-26.5 -74.5t-67.5 -29.5t-67 29.5t-26 74.5zM498 1290q0 45 26.5 74t67.5 29t67.5 -29t26.5 -74t-26.5 -74.5t-67.5 -29.5t-67.5 29.5t-26.5 74.5z" />
<glyph unicode="&#xe5;" horiz-adv-x="886" d="M739 668v-447q0 -98 72 -98q23 0 47 6v-129q-53 -20 -106 -20q-66 0 -111 44t-61 123q-109 -168 -275 -167q-96 0 -163.5 69.5t-67.5 192.5q0 305 495 393q0 246 -168 246q-102 0 -264 -88v147q145 92 293 92q135 0 222 -89t87 -275zM569 297v211q-154 -31 -230.5 -97.5 t-76.5 -152.5q0 -59 26.5 -92t69.5 -33q115 0 211 164zM244 1315q0 92 55 152.5t139 60.5q82 0 138.5 -60.5t56.5 -152.5q0 -90 -56.5 -150.5t-138.5 -60.5q-84 0 -139 60.5t-55 150.5zM354 1315q0 -51 23.5 -85t60.5 -34t60.5 34t23.5 85q0 53 -23.5 87t-60.5 34 q-39 0 -61.5 -34t-22.5 -87z" />
<glyph unicode="&#xe6;" horiz-adv-x="1400" d="M965 889q-80 0 -139.5 -69.5t-77.5 -207.5h385q12 121 -31 199t-137 78zM584 303q-20 92 -21 203q-301 -61 -301 -248q0 -59 26.5 -92t69.5 -33q117 0 226 170zM430 1032q182 0 256 -151q117 152 285 151q205 0 284.5 -151.5t38.5 -411.5h-553q8 -180 84 -267t193 -87 q100 0 235 59v-133q-125 -72 -266 -72q-252 0 -358 207q-129 -197 -324 -196q-98 0 -164.5 72.5t-66.5 189.5q0 305 495 393q0 246 -168 246q-102 0 -264 -88v147q146 92 293 92z" />
<glyph unicode="&#xe7;" horiz-adv-x="788" d="M733 985v-158q-113 53 -207 54q-121 0 -196.5 -91.5t-75.5 -289.5q0 -180 73.5 -282.5t196.5 -102.5q98 0 226 59v-133q-104 -61 -218 -70l-59 -80q90 14 144.5 -31.5t54.5 -125.5q0 -90 -57.5 -144.5t-149.5 -56.5q-78 0 -129 33v84q49 -27 108 -27q96 0 97 96 q0 94 -92 95q-27 0 -52 -7l-32 43l77 121q-164 18 -266 159.5t-102 369.5q0 246 131 389t315 143q113 0 213 -47z" />
<glyph unicode="&#xe8;" horiz-adv-x="909" d="M805 469h-553q6 -170 78.5 -262t197.5 -92q100 0 236 59v-133q-125 -72 -266 -72q-186 0 -305 127t-119 404q0 238 119.5 385t287.5 147q203 0 284 -151.5t40 -411.5zM475 889q-80 0 -139.5 -70.5t-77.5 -206.5h385q12 121 -31 199t-137 78zM618 1143h-135l-268 350h209z " />
<glyph unicode="&#xe9;" horiz-adv-x="909" d="M805 469h-553q6 -170 78.5 -262t197.5 -92q100 0 236 59v-133q-125 -72 -266 -72q-186 0 -305 127t-119 404q0 238 119.5 385t287.5 147q203 0 284 -151.5t40 -411.5zM475 889q-80 0 -139.5 -70.5t-77.5 -206.5h385q12 121 -31 199t-137 78zM463 1143h-135l194 350h209z " />
<glyph unicode="&#xea;" horiz-adv-x="909" d="M805 469h-553q6 -170 78.5 -262t197.5 -92q100 0 236 59v-133q-125 -72 -266 -72q-186 0 -305 127t-119 404q0 238 119.5 385t287.5 147q203 0 284 -151.5t40 -411.5zM475 889q-80 0 -139.5 -70.5t-77.5 -206.5h385q12 121 -31 199t-137 78zM756 1143h-129l-154 203 l-156 -203h-127l211 350h144z" />
<glyph unicode="&#xeb;" horiz-adv-x="909" d="M805 469h-553q6 -170 78.5 -262t197.5 -92q100 0 236 59v-133q-125 -72 -266 -72q-186 0 -305 127t-119 404q0 238 119.5 385t287.5 147q203 0 284 -151.5t40 -411.5zM475 889q-80 0 -139.5 -70.5t-77.5 -206.5h385q12 121 -31 199t-137 78zM225 1290q0 45 25.5 74 t66.5 29t68 -29t27 -74t-27 -74.5t-68 -29.5t-66.5 29.5t-25.5 74.5zM532 1290q0 45 27 74t68 29t67.5 -29t26.5 -74t-26.5 -74.5t-67.5 -29.5t-68 29.5t-27 74.5z" />
<glyph unicode="&#xec;" horiz-adv-x="440" d="M319 1143h-135l-268 350h209zM307 1001v-1001h-172v1001h172z" />
<glyph unicode="&#xed;" horiz-adv-x="440" d="M258 1143h-135l194 350h209zM307 1001v-1001h-172v1001h172z" />
<glyph unicode="&#xee;" horiz-adv-x="440" d="M307 1001v-1001h-172v1001h172zM502 1143h-129l-154 203l-156 -203h-126l210 350h144z" />
<glyph unicode="&#xef;" horiz-adv-x="440" d="M-29 1278q0 43 27 71.5t65 28.5q41 0 69 -28.5t28 -71.5q0 -45 -28 -74.5t-68.5 -29.5t-66.5 29.5t-26 74.5zM281 1278q0 43 26.5 71.5t67.5 28.5t67.5 -28.5t26.5 -71.5q0 -45 -26.5 -74.5t-67.5 -29.5t-67.5 29.5t-26.5 74.5zM307 1001v-1001h-172v1001h172z" />
<glyph unicode="&#xf0;" horiz-adv-x="999" d="M303 1114l-41 119l197 90q-88 102 -215 211h233q72 -61 137 -139l234 106l41 -117l-197 -90q242 -342 242 -690q0 -309 -118 -472t-329 -163q-143 0 -239 80t-135 192.5t-39 245.5q0 303 176 457t422 43q-53 125 -135 236zM754 604q0 92 -25 209q-156 98 -260 72.5 t-158.5 -129t-54.5 -256.5q0 -190 68.5 -286.5t169.5 -96.5q260 0 260 487z" />
<glyph unicode="&#xf1;" d="M868 0h-172v653q0 106 -42 167t-117 61q-123 0 -230 -88v-793h-172v1001h154l18 -73q156 104 287 104q123 0 198.5 -97t75.5 -259v-676zM299 1178l-82 39q16 82 71.5 139t119.5 57q57 0 120.5 -55t92.5 -55q53 0 86 90l81 -39q-16 -82 -71 -139.5t-119 -57.5 q-57 0 -120.5 55.5t-92.5 55.5q-53 0 -86 -90z" />
<glyph unicode="&#xf2;" horiz-adv-x="1001" d="M502 113q246 0 246 389q0 172 -69 279.5t-177 107.5q-248 0 -248 -389q0 -172 69.5 -279.5t178.5 -107.5zM502 -31q-186 0 -307 135.5t-121 395.5q0 244 118.5 388t309.5 144q184 0 305 -135t121 -395q0 -244 -118 -388.5t-308 -144.5zM647 1143h-135l-268 350h209z" />
<glyph unicode="&#xf3;" horiz-adv-x="1001" d="M502 113q246 0 246 389q0 172 -69 279.5t-177 107.5q-248 0 -248 -389q0 -172 69.5 -279.5t178.5 -107.5zM502 -31q-186 0 -307 135.5t-121 395.5q0 244 118.5 388t309.5 144q184 0 305 -135t121 -395q0 -244 -118 -388.5t-308 -144.5zM492 1143h-136l195 350h209z" />
<glyph unicode="&#xf4;" horiz-adv-x="1001" d="M502 113q246 0 246 389q0 172 -69 279.5t-177 107.5q-248 0 -248 -389q0 -172 69.5 -279.5t178.5 -107.5zM502 -31q-186 0 -307 135.5t-121 395.5q0 244 118.5 388t309.5 144q184 0 305 -135t121 -395q0 -244 -118 -388.5t-308 -144.5zM784 1143h-129l-153 203l-156 -203 h-127l211 350h143z" />
<glyph unicode="&#xf5;" horiz-adv-x="1001" d="M502 113q246 0 246 389q0 172 -69 279.5t-177 107.5q-248 0 -248 -389q0 -172 69.5 -279.5t178.5 -107.5zM502 -31q-186 0 -307 135.5t-121 395.5q0 244 118.5 388t309.5 144q184 0 305 -135t121 -395q0 -244 -118 -388.5t-308 -144.5zM299 1178l-82 39q16 82 71.5 139 t119.5 57q57 0 120.5 -55t92.5 -55q53 0 86 90l81 -39q-16 -82 -71 -139.5t-119 -57.5q-57 0 -120.5 55.5t-92.5 55.5q-53 0 -86 -90z" />
<glyph unicode="&#xf6;" horiz-adv-x="1001" d="M502 113q246 0 246 389q0 172 -69 279.5t-177 107.5q-248 0 -248 -389q0 -172 69.5 -279.5t178.5 -107.5zM502 -31q-186 0 -307 135.5t-121 395.5q0 244 118.5 388t309.5 144q184 0 305 -135t121 -395q0 -244 -118 -388.5t-308 -144.5zM254 1290q0 45 25.5 74t66.5 29 t67.5 -29t26.5 -74t-26.5 -74.5t-67.5 -29.5t-66.5 29.5t-25.5 74.5zM561 1290q0 45 26.5 74t67.5 29t68 -29t27 -74t-27 -74.5t-68 -29.5t-67.5 29.5t-26.5 74.5z" />
<glyph unicode="&#xf7;" horiz-adv-x="1036" d="M88 625h862v-160h-862v160zM401 161.5q0 57.5 33 93.5t84 36q53 0 86 -36t33 -93.5t-33 -93t-86 -35.5q-51 0 -84 35.5t-33 93zM401 928q0 57 33 93t84 36q53 0 86 -36t33 -93q0 -55 -34 -92t-85 -37t-84 37t-33 92z" />
<glyph unicode="&#xf8;" horiz-adv-x="1001" d="M502 -31q-88 0 -166 31l-86 -188l-109 51l92 200q-160 143 -159 437q0 244 118.5 388t309.5 144q90 0 162 -33l88 191l106 -51l-92 -201q162 -145 162 -436q0 -244 -118 -388.5t-308 -144.5zM502 113q246 0 246 389q0 156 -60 264l-287 -625q46 -28 101 -28zM254 500 q0 -162 59 -264l287 624q-47 29 -98 29q-248 0 -248 -389z" />
<glyph unicode="&#xf9;" d="M127 1001h170v-653q0 -106 43 -166.5t119 -60.5q123 0 229 88v792h172v-1001h-153l-19 74q-156 -104 -287 -105q-123 0 -198.5 97.5t-75.5 259.5v675zM639 1143h-135l-268 350h208z" />
<glyph unicode="&#xfa;" d="M127 1001h170v-653q0 -106 43 -166.5t119 -60.5q123 0 229 88v792h172v-1001h-153l-19 74q-156 -104 -287 -105q-123 0 -198.5 97.5t-75.5 259.5v675zM498 1143h-136l195 350h209z" />
<glyph unicode="&#xfb;" d="M127 1001h170v-653q0 -106 43 -166.5t119 -60.5q123 0 229 88v792h172v-1001h-153l-19 74q-156 -104 -287 -105q-123 0 -198.5 97.5t-75.5 259.5v675zM776 1143h-129l-153 203l-156 -203h-127l211 350h143z" />
<glyph unicode="&#xfc;" d="M127 1001h170v-653q0 -106 43 -166.5t119 -60.5q123 0 229 88v792h172v-1001h-153l-19 74q-156 -104 -287 -105q-123 0 -198.5 97.5t-75.5 259.5v675zM246 1290q0 45 25.5 74t66.5 29t67.5 -29t26.5 -74t-26.5 -74.5t-67.5 -29.5t-66.5 29.5t-25.5 74.5zM553 1290 q0 45 26.5 74t67.5 29t67.5 -29t26.5 -74t-26.5 -74.5t-67.5 -29.5t-67.5 29.5t-26.5 74.5z" />
<glyph unicode="&#xfd;" horiz-adv-x="851" d="M23 1001h182l227 -786l227 786h172l-444 -1431h-172l125 412zM436 1143h-135l195 350h209z" />
<glyph unicode="&#xfe;" horiz-adv-x="991" d="M307 1534v-606q80 53 140.5 78.5t138.5 25.5q133 0 232.5 -126t99.5 -357q0 -264 -126 -422t-331 -158q-76 0 -154 21v-420h-172v1964h172zM535 881q-113 0 -228 -88v-643q68 -39 158 -39q133 0 202.5 104t69.5 295q0 168 -54 269.5t-148 101.5z" />
<glyph unicode="&#xff;" horiz-adv-x="851" d="M23 1001h182l227 -786l227 786h172l-444 -1431h-172l125 412zM186 1290q0 45 26 74t66.5 29t67.5 -29t27 -74t-27 -74.5t-67.5 -29.5t-66.5 29.5t-26 74.5zM494 1290q0 45 26.5 74t67.5 29t67.5 -29t26.5 -74t-26.5 -74.5t-67.5 -29.5t-67.5 29.5t-26.5 74.5z" />
<glyph unicode="&#x152;" horiz-adv-x="1808" d="M1778 164v-164h-758v180q-150 -211 -385 -211q-248 0 -408.5 188.5t-160.5 553.5q0 344 156.5 544.5t412.5 200.5q236 0 385 -205v174h741v-163h-557v-451h453v-164h-453v-483h574zM641 123q176 0 277.5 141.5t101.5 450.5q0 260 -106.5 424t-272.5 164q-381 0 -381 -592 q0 -260 105.5 -424t275.5 -164z" />
<glyph unicode="&#x153;" horiz-adv-x="1585" d="M1479 469h-551q2 -168 76.5 -261t197.5 -93q100 0 236 59v-133q-125 -72 -267 -72q-225 0 -337 209q-121 -209 -332 -209q-186 0 -307 135.5t-121 395.5q0 244 118.5 388t309.5 144q104 0 192 -56t146 -163q125 219 315 219q201 0 282 -150.5t42 -412.5zM502 113 q246 0 246 389q0 172 -69 279.5t-177 107.5q-248 0 -248 -389q0 -172 69.5 -279.5t178.5 -107.5zM1149 889q-82 0 -140.5 -70.5t-74.5 -206.5h383q12 121 -31 199t-137 78z" />
<glyph unicode="&#x178;" horiz-adv-x="1042" d="M612 608v-608h-184v608l-428 817h213l313 -643l310 643h206zM246 1692q0 45 26.5 73.5t67.5 28.5t68.5 -28.5t27.5 -73.5t-27.5 -75t-68.5 -30t-67.5 30t-26.5 75zM618 1692q0 45 27 73.5t68 28.5t68.5 -28.5t27.5 -73.5t-27.5 -75t-68.5 -30t-68 30t-27 75z" />
<glyph unicode="&#x2c6;" horiz-adv-x="741" d="M653 1143h-129l-153 203l-156 -203h-127l211 350h143z" />
<glyph unicode="&#x2dc;" horiz-adv-x="745" d="M170 1178l-82 39q16 82 71.5 139t119.5 57q57 0 120.5 -55t92.5 -55q53 0 86 90l81 -39q-16 -82 -71.5 -139.5t-118.5 -57.5q-57 0 -120.5 55.5t-92.5 55.5q-53 0 -86 -90z" />
<glyph unicode="&#x2000;" horiz-adv-x="933" />
<glyph unicode="&#x2001;" horiz-adv-x="1867" />
<glyph unicode="&#x2002;" horiz-adv-x="933" />
<glyph unicode="&#x2003;" horiz-adv-x="1867" />
<glyph unicode="&#x2004;" horiz-adv-x="622" />
<glyph unicode="&#x2005;" horiz-adv-x="466" />
<glyph unicode="&#x2006;" horiz-adv-x="311" />
<glyph unicode="&#x2007;" horiz-adv-x="311" />
<glyph unicode="&#x2008;" horiz-adv-x="233" />
<glyph unicode="&#x2009;" horiz-adv-x="372" />
<glyph unicode="&#x200a;" horiz-adv-x="102" />
<glyph unicode="&#x2010;" horiz-adv-x="503" d="M43 598h418v-154h-418v154z" />
<glyph unicode="&#x2011;" horiz-adv-x="503" d="M43 598h418v-154h-418v154z" />
<glyph unicode="&#x2012;" horiz-adv-x="503" d="M43 598h418v-154h-418v154z" />
<glyph unicode="&#x2013;" horiz-adv-x="870" d="M43 598h784v-154h-784v154z" />
<glyph unicode="&#x2014;" horiz-adv-x="1740" d="M43 598h1655v-154h-1655v154z" />
<glyph unicode="&#x2018;" horiz-adv-x="382" d="M270 985h-217l187 549h127z" />
<glyph unicode="&#x2019;" horiz-adv-x="382" d="M115 1534h217l-187 -549h-127z" />
<glyph unicode="&#x201a;" horiz-adv-x="382" d="M115 262h217l-187 -549h-127z" />
<glyph unicode="&#x201c;" horiz-adv-x="718" d="M270 985h-217l187 549h127zM604 985h-219l188 549h127z" />
<glyph unicode="&#x201d;" horiz-adv-x="718" d="M115 1534h217l-187 -549h-127zM449 1534h217l-187 -549h-129z" />
<glyph unicode="&#x201e;" horiz-adv-x="718" d="M115 262h217l-187 -549h-127zM449 262h217l-187 -549h-129z" />
<glyph unicode="&#x2022;" horiz-adv-x="1097" d="M102 710.5q0 194.5 127 320.5t319.5 126t319.5 -126t127 -320.5t-127 -320.5t-319.5 -126t-319.5 126t-127 320.5z" />
<glyph unicode="&#x2026;" horiz-adv-x="1585" d="M88 112.5q0 63.5 37 103.5t94 40t94 -40t37 -103.5t-37 -103.5t-94 -40t-94 40t-37 103.5zM659 112.5q0 63.5 37 103.5t97 40q57 0 94 -40t37 -103.5t-37 -103.5t-94 -40q-59 0 -96.5 40t-37.5 103.5zM1233 112.5q0 63.5 37 103.5t96 40q57 0 94 -40t37 -103.5 t-37 -103.5t-94 -40q-59 0 -96 40t-37 103.5z" />
<glyph unicode="&#x202f;" horiz-adv-x="372" />
<glyph unicode="&#x2039;" horiz-adv-x="559" d="M440 16l-432 502l428 498l105 -101l-318 -389l328 -401z" />
<glyph unicode="&#x203a;" horiz-adv-x="559" d="M121 1016l430 -502l-426 -498l-107 101l320 389l-330 401z" />
<glyph unicode="&#x205f;" horiz-adv-x="466" />
<glyph unicode="&#x20ac;" horiz-adv-x="1116" d="M35 805v143h147q55 244 215 376t383 132q141 0 267 -49l-50 -156q-111 41 -217 41q-147 0 -252.5 -88t-148.5 -256h551l-43 -143h-531q-4 -31 -4 -96q0 -72 4 -105h486l-43 -143h-412q43 -147 137 -237.5t230 -90.5q178 0 327 62v-142q-147 -84 -340 -84 q-217 0 -362.5 128t-196.5 364h-147v143h127q-4 33 -4 107q0 63 2 94h-125z" />
<glyph unicode="&#x2122;" horiz-adv-x="1212" d="M324 815h-123v502h-166v108h454v-108h-165v-502zM807 815l-113 399l-32 -399h-121l65 610h129l129 -426l119 426h125l70 -610h-127l-29 395l-115 -395h-100z" />
<glyph unicode="&#xe000;" horiz-adv-x="1000" d="M0 1000h1000v-1000h-1000v1000z" />
<glyph unicode="&#xfb01;" horiz-adv-x="1030" d="M895 1001v-1001h-172v858h-365v-858h-172v858h-147v143h147v111q0 233 127 345t285 63v-154q-119 39 -179.5 -21.5t-60.5 -228.5v-115h537zM705 1311q0 47 28.5 77.5t73.5 30.5q47 0 76.5 -30.5t29.5 -77.5q0 -49 -29.5 -80t-76.5 -31q-45 0 -73.5 31t-28.5 80z" />
<glyph unicode="&#xfb02;" horiz-adv-x="1083" d="M723 227v1162h-207q-158 0 -158 -273v-115h224v-143h-224v-858h-172v858h-147v143h147v111q0 199 93.5 310.5t228.5 111.5h387v-1313q0 -68 35 -88t119 -4v-129q-139 -45 -232.5 9t-93.5 218z" />
<glyph unicode="&#xfb03;" horiz-adv-x="1566" d="M1432 1001v-1001h-172v858h-365v-858h-172v858h-365v-858h-172v858h-147v143h147v111q0 233 130 345t292 63v-154q-123 39 -186.5 -22.5t-63.5 -227.5v-115h365v111q0 233 127 345t285 63v-154q-119 39 -179.5 -21.5t-60.5 -228.5v-115h537zM1241 1311q0 47 28.5 77.5 t73.5 30.5q47 0 77 -30.5t30 -77.5q0 -49 -29.5 -80t-77.5 -31q-45 0 -73.5 31t-28.5 80z" />
<glyph unicode="&#xfb04;" horiz-adv-x="1619" d="M1432 1534v-1313q0 -68 34.5 -88t118.5 -4v-129q-139 -45 -232 9t-93 218v1162h-209q-156 0 -156 -273v-115h223v-143h-223v-858h-172v858h-365v-858h-172v858h-147v143h147v111q0 233 130 345t292 63v-154q-123 39 -186.5 -22.5t-63.5 -227.5v-115h365v111 q0 199 93 310.5t228 111.5h388z" />
<glyph horiz-adv-x="0" />
</font>
</defs>
</svg>
