<?xml version="1.0" encoding="UTF-8" standalone="no"?><!DOCTYPE svg PUBLIC "-//W3C//DTD SVG 1.1//EN" "http://www.w3.org/Graphics/SVG/1.1/DTD/svg11.dtd"><svg width="100%" height="100%" viewBox="0 0 375 40" version="1.1" xmlns="http://www.w3.org/2000/svg" xmlns:xlink="http://www.w3.org/1999/xlink" xml:space="preserve" style="fill-rule:evenodd;clip-rule:evenodd;stroke-linejoin:round;stroke-miterlimit:1.41421;"><path id="Fill-653" d="M15.848,2.874c0.544,-1.585 0.726,-1.874 0.998,-1.874c0.274,0 0.456,0.241 1,1.73c0.681,1.826 7.811,21.668 10.582,28.972c1.635,4.277 2.951,5.046 3.905,5.333c0.681,0.241 1.361,0.289 1.817,0.289c0.272,0 0.454,0.047 0.454,0.289c0,0.289 -0.408,0.384 -0.91,0.384c-0.68,0 -3.996,0 -7.128,-0.096c-0.864,-0.047 -1.363,-0.047 -1.363,-0.336c0,-0.193 0.136,-0.289 0.317,-0.336c0.272,-0.096 0.544,-0.528 0.272,-1.298l-4.223,-11.82c-0.09,-0.191 -0.181,-0.287 -0.408,-0.287l-9.763,0c-0.227,0 -0.365,0.144 -0.456,0.384l-2.724,8.504c-0.408,1.201 -0.635,2.354 -0.635,3.218c0,0.962 0.953,1.394 1.726,1.394l0.454,0c0.317,0 0.454,0.098 0.454,0.289c0,0.289 -0.272,0.384 -0.681,0.384c-1.091,0 -3.043,-0.143 -3.542,-0.143c-0.501,0 -2.998,0.143 -5.132,0.143c-0.59,0 -0.862,-0.096 -0.862,-0.385c0,-0.191 0.182,-0.289 0.408,-0.289c0.317,0 0.953,-0.048 1.315,-0.096c2.091,-0.289 2.998,-2.115 3.814,-4.516l10.311,-29.837ZM20.569,22.093c0.229,0 0.229,-0.143 0.184,-0.336l-4.315,-12.973c-0.227,-0.721 -0.454,-0.721 -0.681,0l-3.996,12.973c-0.091,0.241 0,0.336 0.136,0.336l8.672,0Z" style="fill:#fff;fill-rule:nonzero;"/><path id="Fill-655" d="M66.031,33.294c0.123,1.298 0.367,3.287 1.84,3.806c1.022,0.345 1.961,0.345 2.329,0.345c0.164,0 0.288,0.087 0.288,0.26c0,0.215 -0.329,0.345 -0.737,0.345c-0.818,0 -4.823,-0.043 -6.13,-0.174c-0.86,-0.086 -1.022,-0.215 -1.022,-0.389c0,-0.13 0.08,-0.26 0.244,-0.304c0.206,-0.041 0.247,-0.604 0.164,-1.296l-1.717,-18.679l-0.082,0l-8.664,18.768c-0.736,1.6 -0.939,1.945 -1.268,1.945c-0.326,0 -0.532,-0.345 -1.225,-1.687c-0.941,-1.815 -3.311,-6.528 -4.212,-8.517c-1.061,-2.336 -3.963,-8.52 -4.577,-10.033l-0.162,0l-1.391,16.605c-0.041,0.562 -0.041,1.255 -0.041,1.859c0,0.562 0.328,0.91 0.86,1.038c0.611,0.174 1.143,0.217 1.389,0.217c0.123,0 0.285,0.13 0.285,0.26c0,0.258 -0.244,0.345 -0.652,0.345c-1.35,0 -3.065,-0.13 -3.352,-0.13c-0.326,0 -2.043,0.13 -3.024,0.13c-0.367,0 -0.613,-0.087 -0.613,-0.345c0,-0.13 0.164,-0.26 0.367,-0.26c0.288,0 0.531,-0.043 1.063,-0.13c1.186,-0.215 1.227,-1.557 1.391,-2.94l2.616,-24c0.042,-0.389 0.203,-0.647 0.409,-0.647c0.244,0 0.531,0.128 0.734,0.562l10.873,22.83l10.461,-22.79c0.162,-0.345 0.326,-0.604 0.573,-0.604c0.244,0 0.449,0.302 0.531,0.995l2.452,22.615Z" style="fill:#fff;fill-rule:nonzero;"/><path id="Fill-657" d="M96.318,27.289c0,3.545 0.041,6.444 0.205,7.958c0.121,1.079 0.203,1.771 1.307,1.945c0.49,0.087 1.309,0.171 1.594,0.171c0.247,0 0.326,0.174 0.326,0.304c0,0.173 -0.203,0.302 -0.611,0.302c-1.963,0 -4.25,-0.128 -4.456,-0.128c-0.164,0 -2.492,0.128 -3.555,0.128c-0.408,0 -0.572,-0.085 -0.572,-0.302c0,-0.13 0.082,-0.304 0.285,-0.304c0.328,0 0.736,-0.084 1.062,-0.171c0.737,-0.174 0.86,-0.908 0.983,-1.989c0.162,-1.513 0.162,-4.282 0.162,-7.827l0,-3.676c0,-0.174 -0.082,-0.217 -0.203,-0.217l-15.001,0c-0.123,0 -0.203,0.043 -0.203,0.217l0,3.676c0,3.545 0,6.357 0.162,7.871c0.123,1.079 0.246,1.771 1.309,1.945c0.532,0.087 1.307,0.171 1.635,0.171c0.203,0 0.285,0.174 0.285,0.304c0,0.173 -0.164,0.302 -0.572,0.302c-2.002,0 -4.292,-0.128 -4.454,-0.128c-0.205,0 -2.495,0.128 -3.596,0.128c-0.37,0 -0.572,-0.085 -0.572,-0.302c0,-0.13 0.08,-0.304 0.285,-0.304c0.326,0 0.777,-0.084 1.104,-0.171c0.695,-0.174 0.778,-0.866 0.939,-1.945c0.206,-1.514 0.206,-4.412 0.206,-7.958l0,-6.487c0,-5.708 0,-6.744 -0.082,-7.912c-0.083,-1.255 -0.285,-1.861 -1.471,-2.032c-0.287,-0.043 -0.901,-0.087 -1.227,-0.087c-0.123,0 -0.285,-0.174 -0.285,-0.304c0,-0.215 0.162,-0.302 0.573,-0.302c1.633,0 3.922,0.087 4.127,0.087c0.162,0 2.452,-0.087 3.556,-0.087c0.408,0 0.572,0.087 0.572,0.302c0,0.13 -0.164,0.304 -0.287,0.304c-0.244,0 -0.491,0 -0.899,0.087c-0.98,0.215 -1.186,0.734 -1.266,2.032c-0.041,1.168 -0.041,2.291 -0.041,7.999l0,0.779c0,0.215 0.08,0.215 0.203,0.215l15.001,0c0.121,0 0.203,0 0.203,-0.215l0,-0.779c0,-5.708 -0.041,-6.831 -0.082,-7.999c-0.08,-1.255 -0.244,-1.861 -1.43,-2.032c-0.285,-0.043 -0.898,-0.087 -1.227,-0.087c-0.162,0 -0.285,-0.174 -0.285,-0.304c0,-0.215 0.164,-0.302 0.572,-0.302c1.594,0 3.922,0.087 4.086,0.087c0.206,0 2.493,-0.087 3.556,-0.087c0.41,0 0.613,0.087 0.613,0.302c0,0.13 -0.164,0.304 -0.326,0.304c-0.246,0 -0.449,0 -0.901,0.087c-0.939,0.215 -1.143,0.734 -1.225,2.032c-0.082,1.168 -0.082,2.204 -0.082,7.912l0,6.487Z" style="fill:#fff;fill-rule:nonzero;"/><path id="Fill-659" d="M104.771,20.882c0,-5.708 0,-6.746 -0.082,-7.914c-0.082,-1.253 -0.285,-1.858 -1.471,-2.032c-0.285,-0.043 -0.898,-0.087 -1.227,-0.087c-0.121,0 -0.285,-0.171 -0.285,-0.302c0,-0.217 0.164,-0.302 0.572,-0.302c1.635,0 3.963,0.085 4.169,0.085c0.244,0 7.765,0.043 8.582,0c0.695,-0.044 1.35,-0.172 1.635,-0.215c0.165,-0.043 0.329,-0.173 0.49,-0.173c0.124,0 0.165,0.173 0.165,0.345c0,0.261 -0.206,0.693 -0.285,1.73c-0.041,0.345 -0.123,1.989 -0.205,2.421c-0.042,0.174 -0.165,0.391 -0.326,0.391c-0.206,0 -0.288,-0.174 -0.288,-0.476c0,-0.261 -0.041,-0.866 -0.203,-1.298c-0.246,-0.606 -0.613,-0.864 -2.575,-1.125c-0.613,-0.086 -4.782,-0.128 -5.192,-0.128c-0.162,0 -0.203,0.128 -0.203,0.389l0,9.99c0,0.258 0,0.389 0.203,0.389c0.452,0 5.192,0 6.009,-0.087c0.857,-0.087 1.389,-0.13 1.758,-0.519c0.244,-0.261 0.408,-0.476 0.532,-0.476c0.121,0 0.203,0.087 0.203,0.302c0,0.217 -0.203,0.823 -0.285,2.032c-0.083,0.736 -0.165,2.119 -0.165,2.38c0,0.302 -0.082,0.69 -0.326,0.69c-0.164,0 -0.246,-0.128 -0.246,-0.345c0,-0.345 0,-0.734 -0.164,-1.211c-0.121,-0.519 -0.449,-0.951 -1.838,-1.123c-0.98,-0.13 -4.823,-0.174 -5.437,-0.174c-0.203,0 -0.244,0.13 -0.244,0.258l0,3.072c0,1.253 -0.041,5.534 0,6.268c0.082,2.466 0.734,2.942 4.292,2.942c0.939,0 2.657,0 3.596,-0.391c0.94,-0.432 1.43,-1.079 1.635,-2.551c0.08,-0.432 0.162,-0.562 0.367,-0.562c0.205,0 0.244,0.304 0.244,0.562c0,0.261 -0.285,2.768 -0.49,3.548c-0.244,0.951 -0.611,0.951 -2.002,0.951c-2.698,0 -4.782,-0.087 -6.253,-0.13c-1.512,-0.087 -2.452,-0.087 -2.983,-0.087c-0.083,0 -0.778,0 -1.553,0.043c-0.695,0.043 -1.512,0.086 -2.084,0.086c-0.369,0 -0.572,-0.086 -0.572,-0.304c0,-0.128 0.082,-0.302 0.285,-0.302c0.328,0 0.777,-0.13 1.104,-0.174c0.696,-0.128 0.778,-0.864 0.94,-1.945c0.205,-1.513 0.205,-4.41 0.205,-7.955l0,-6.486l-0.002,0Z" style="fill:#fff;fill-rule:nonzero;"/><path id="Fill-661" d="M124.024,20.801c0,-5.708 0,-6.746 -0.082,-7.914c-0.082,-1.252 -0.285,-1.858 -1.471,-2.032c-0.287,-0.043 -0.898,-0.086 -1.227,-0.086c-0.124,0 -0.285,-0.172 -0.285,-0.302c0,-0.217 0.162,-0.302 0.572,-0.302c1.635,0 4.045,0.085 4.251,0.085c0.367,0 3.391,-0.085 4.495,-0.085c2.29,0 4.823,0.215 6.703,1.598c0.9,0.692 2.493,2.466 2.493,5.018c0,2.723 -1.061,5.36 -4.413,8.389c2.942,3.891 5.437,7.221 7.521,9.512c1.92,2.075 3.106,2.423 4.005,2.551c0.695,0.13 1.062,0.13 1.268,0.13c0.203,0 0.326,0.174 0.326,0.302c0,0.217 -0.205,0.304 -0.857,0.304l-2.249,0c-2.043,0 -2.944,-0.217 -3.843,-0.736c-1.553,-0.864 -2.859,-2.638 -4.905,-5.404c-1.512,-1.989 -3.106,-4.369 -3.881,-5.363c-0.164,-0.174 -0.246,-0.215 -0.49,-0.215l-4.577,-0.087c-0.164,0 -0.246,0.087 -0.246,0.302l0,0.864c0,3.547 0,6.4 0.164,7.914c0.121,1.082 0.326,1.774 1.43,1.945c0.49,0.087 1.268,0.174 1.594,0.174c0.244,0 0.285,0.174 0.285,0.302c0,0.174 -0.162,0.304 -0.57,0.304c-1.963,0 -4.25,-0.13 -4.415,-0.13c-0.041,0 -2.451,0.13 -3.555,0.13c-0.369,0 -0.572,-0.087 -0.572,-0.304c0,-0.128 0.082,-0.302 0.285,-0.302c0.328,0 0.777,-0.087 1.104,-0.174c0.696,-0.171 0.778,-0.864 0.939,-1.945c0.206,-1.513 0.206,-4.41 0.206,-7.955l0,-6.488l-0.003,0l0,0ZM127.13,23.915c0,0.217 0.082,0.345 0.246,0.476c0.531,0.302 2.37,0.562 3.964,0.562c0.857,0 1.84,-0.043 2.698,-0.649c1.227,-0.864 2.167,-2.81 2.167,-5.621c0,-4.583 -2.372,-7.221 -6.212,-7.221c-1.062,0 -2.208,0.13 -2.577,0.217c-0.162,0.085 -0.285,0.215 -0.285,0.432l-0.001,11.804Z" style="fill:#fff;fill-rule:nonzero;"/><path id="Fill-663" d="M146.943,37.789c-0.491,-0.261 -0.532,-0.389 -0.532,-1.383c0,-1.817 0.165,-3.287 0.206,-3.893c0,-0.389 0.082,-0.606 0.285,-0.606c0.206,0 0.326,0.13 0.326,0.434c0,0.302 0,0.821 0.124,1.34c0.572,2.682 3.27,3.632 5.681,3.632c3.557,0 5.396,-2.119 5.396,-4.887c0,-2.638 -1.348,-3.891 -4.536,-6.398l-1.635,-1.298c-3.884,-3.07 -5.149,-5.319 -5.149,-7.871c0,-4.323 3.229,-6.917 7.97,-6.917c1.43,0 2.86,0.215 3.717,0.432c0.695,0.174 0.983,0.174 1.268,0.174c0.285,0 0.367,0.042 0.367,0.258c0,0.174 -0.162,1.383 -0.162,3.893c0,0.56 -0.041,0.821 -0.287,0.821c-0.244,0 -0.285,-0.174 -0.326,-0.476c-0.041,-0.432 -0.329,-1.426 -0.532,-1.817c-0.246,-0.432 -1.43,-1.815 -4.659,-1.815c-2.616,0 -4.782,1.383 -4.782,3.978c0,2.336 1.104,3.676 4.659,6.227l1.022,0.736c4.374,3.157 5.886,5.708 5.886,8.865c0,2.163 -0.777,4.497 -3.352,6.271c-1.512,1.038 -3.761,1.296 -5.722,1.296c-1.677,-0.002 -3.762,-0.261 -5.233,-0.996" style="fill:#fff;fill-rule:nonzero;"/><path id="Fill-665" d="M176.325,27.472c0,3.545 0,6.444 0.164,7.958c0.121,1.079 0.285,1.771 1.389,1.945c0.491,0.087 1.309,0.171 1.635,0.171c0.244,0 0.285,0.174 0.285,0.304c0,0.173 -0.162,0.302 -0.57,0.302c-1.963,0 -4.251,-0.128 -4.456,-0.128c-0.164,0 -2.657,0.128 -3.719,0.128c-0.408,0 -0.573,-0.085 -0.573,-0.302c0,-0.13 0.082,-0.261 0.288,-0.261c0.326,0 0.734,-0.084 1.062,-0.171c0.734,-0.174 0.939,-0.91 1.063,-1.989c0.162,-1.514 0.162,-4.412 0.162,-7.958l0,-15.436l-5.19,0.087c-2.249,0.043 -3.106,0.302 -3.637,1.166c-0.408,0.649 -0.449,0.91 -0.572,1.168c-0.082,0.302 -0.203,0.345 -0.367,0.345c-0.082,0 -0.247,-0.084 -0.247,-0.302c0,-0.389 0.696,-3.676 0.778,-3.978c0.041,-0.217 0.244,-0.692 0.367,-0.692c0.246,0 0.613,0.302 1.594,0.432c1.021,0.13 2.413,0.173 2.821,0.173l13.569,0c1.186,0 2.002,-0.087 2.575,-0.173c0.531,-0.087 0.857,-0.172 1.021,-0.172c0.165,0 0.165,0.215 0.165,0.432c0,1.123 -0.124,3.76 -0.124,4.195c0,0.302 -0.164,0.476 -0.326,0.476c-0.165,0 -0.247,-0.13 -0.288,-0.649l-0.041,-0.389c-0.123,-1.125 -0.898,-1.947 -4.333,-2.032l-4.495,-0.087l0,15.437Z" style="fill:#fff;fill-rule:nonzero;"/><path id="Fill-667" d="M204.906,33.48c-4.404,-4.179 -5.494,-9.657 -5.494,-14.223c0,-3.218 1.045,-8.839 5.086,-13.116c2.725,-2.883 6.856,-5.141 13.85,-5.141c1.817,0 4.361,0.146 6.586,0.578c1.728,0.336 3.178,0.623 4.631,0.721c0.5,0.048 0.59,0.239 0.59,0.528c0,0.384 -0.135,0.961 -0.227,2.69c-0.09,1.587 -0.09,4.229 -0.136,4.95c-0.046,0.721 -0.136,1.007 -0.408,1.007c-0.317,0 -0.362,-0.334 -0.362,-1.007c0,-1.874 -0.729,-3.845 -1.908,-4.902c-1.59,-1.442 -5.086,-2.738 -9.081,-2.738c-6.039,0 -8.856,1.874 -10.446,3.508c-3.312,3.363 -4.087,7.638 -4.087,12.539c0,9.178 6.677,17.586 16.396,17.586c3.405,0 6.084,-0.432 7.9,-2.401c0.954,-1.057 1.544,-3.172 1.682,-4.036c0.09,-0.53 0.182,-0.721 0.453,-0.721c0.227,0 0.319,0.336 0.319,0.721c0,0.336 -0.547,4.516 -1,6.149c-0.272,0.914 -0.363,1.009 -1.183,1.394c-1.815,0.769 -5.267,1.105 -8.174,1.105c-6.813,-0.001 -11.399,-1.779 -14.987,-5.191" style="fill:#fff;fill-rule:nonzero;"/><path id="Fill-669" d="M248.323,9.941c8.091,0 14.224,5.232 14.224,13.793c0,8.216 -5.763,15.005 -14.429,15.005c-9.851,0 -14.06,-7.827 -14.06,-14.442c0.001,-5.923 4.335,-14.356 14.265,-14.356M249.141,37.226c3.229,0 9.729,-1.815 9.729,-12.454c0,-8.821 -5.069,-13.448 -10.75,-13.448c-6.008,0 -10.34,3.979 -10.34,11.979c-0.003,8.563 4.863,13.923 11.361,13.923" style="fill:#fff;fill-rule:nonzero;"/><path id="Fill-671" d="M271.085,27.133c0,5.406 0.082,7.61 0.737,8.259c0.57,0.605 1.961,0.864 4.779,0.864c1.881,0 3.476,-0.043 4.332,-1.123c0.449,-0.562 0.736,-1.342 0.857,-2.076c0.041,-0.261 0.164,-0.478 0.37,-0.478c0.164,0 0.243,0.173 0.243,0.562c0,0.391 -0.243,2.595 -0.531,3.676c-0.244,0.867 -0.367,0.995 -2.287,0.995c-2.575,0 -4.579,-0.043 -6.253,-0.128c-1.636,-0.044 -2.862,-0.087 -3.925,-0.087c-0.165,0 -0.776,0 -1.473,0.043c-0.735,0.044 -1.512,0.087 -2.084,0.087c-0.367,0 -0.572,-0.087 -0.572,-0.304c0,-0.13 0.082,-0.302 0.285,-0.302c0.328,0 0.777,-0.087 1.104,-0.174c0.695,-0.174 0.776,-0.864 0.94,-1.945c0.203,-1.513 0.203,-4.412 0.203,-7.958l0,-6.485c0,-5.708 0,-6.746 -0.082,-7.914c-0.082,-1.255 -0.285,-1.858 -1.471,-2.032c-0.285,-0.043 -0.898,-0.087 -1.227,-0.087c-0.121,0 -0.285,-0.174 -0.285,-0.302c0,-0.217 0.164,-0.304 0.572,-0.304c1.635,0 3.884,0.086 4.087,0.086c0.163,0 2.862,-0.086 3.966,-0.086c0.367,0 0.57,0.086 0.57,0.304c0,0.128 -0.162,0.258 -0.285,0.258c-0.246,0 -0.777,0.043 -1.186,0.087c-1.063,0.217 -1.268,0.777 -1.35,2.076c-0.041,1.168 -0.041,2.206 -0.041,7.914l0,6.574l0.007,0Z" style="fill:#fff;fill-rule:nonzero;"/><path id="Fill-673" d="M291.807,27.152c0,5.406 0.082,7.61 0.736,8.259c0.57,0.605 1.961,0.864 4.781,0.864c1.879,0 3.474,-0.043 4.33,-1.123c0.449,-0.562 0.736,-1.342 0.861,-2.076c0.041,-0.261 0.16,-0.478 0.366,-0.478c0.164,0 0.244,0.173 0.244,0.562c0,0.391 -0.244,2.595 -0.532,3.676c-0.244,0.867 -0.367,0.995 -2.287,0.995c-2.574,0 -4.578,-0.043 -6.252,-0.128c-1.636,-0.044 -2.863,-0.087 -3.926,-0.087c-0.165,0 -0.775,0 -1.472,0.043c-0.736,0.044 -1.513,0.087 -2.084,0.087c-0.367,0 -0.572,-0.087 -0.572,-0.304c0,-0.13 0.082,-0.302 0.285,-0.302c0.328,0 0.776,-0.087 1.104,-0.174c0.694,-0.174 0.776,-0.864 0.94,-1.945c0.203,-1.513 0.203,-4.412 0.203,-7.958l0,-6.483c0,-5.708 0,-6.746 -0.082,-7.914c-0.082,-1.255 -0.285,-1.858 -1.472,-2.032c-0.285,-0.043 -0.897,-0.087 -1.225,-0.087c-0.123,0 -0.287,-0.174 -0.287,-0.302c0,-0.217 0.164,-0.304 0.572,-0.304c1.635,0 3.884,0.086 4.087,0.086c0.164,0 2.862,-0.086 3.966,-0.086c0.367,0 0.57,0.086 0.57,0.304c0,0.128 -0.162,0.258 -0.285,0.258c-0.244,0 -0.777,0.043 -1.186,0.087c-1.063,0.217 -1.268,0.777 -1.35,2.076c-0.041,1.168 -0.041,2.206 -0.041,7.914l0,6.572l0.008,0Z" style="fill:#fff;fill-rule:nonzero;"/><path id="Fill-675" d="M309.771,20.882c0,-5.708 0,-6.746 -0.082,-7.914c-0.082,-1.253 -0.285,-1.858 -1.473,-2.032c-0.287,-0.043 -0.898,-0.087 -1.227,-0.087c-0.124,0 -0.285,-0.171 -0.285,-0.302c0,-0.217 0.161,-0.302 0.572,-0.302c1.636,0 3.964,0.085 4.168,0.085c0.244,0 7.766,0.043 8.582,0c0.695,-0.044 1.351,-0.172 1.636,-0.215c0.164,-0.043 0.328,-0.173 0.489,-0.173c0.123,0 0.164,0.173 0.164,0.345c0,0.261 -0.205,0.693 -0.284,1.73c-0.041,0.345 -0.123,1.989 -0.205,2.421c-0.041,0.174 -0.164,0.391 -0.326,0.391c-0.205,0 -0.287,-0.174 -0.287,-0.476c0,-0.261 -0.041,-0.866 -0.202,-1.298c-0.246,-0.606 -0.613,-0.864 -2.578,-1.125c-0.61,-0.086 -4.779,-0.128 -5.189,-0.128c-0.162,0 -0.203,0.128 -0.203,0.389l0,9.99c0,0.258 0,0.389 0.203,0.389c0.449,0 5.189,0 6.01,-0.087c0.857,-0.087 1.389,-0.13 1.758,-0.519c0.244,-0.261 0.408,-0.476 0.529,-0.476c0.123,0 0.205,0.087 0.205,0.302c0,0.217 -0.205,0.823 -0.285,2.032c-0.082,0.736 -0.164,2.119 -0.164,2.38c0,0.302 -0.082,0.69 -0.326,0.69c-0.164,0 -0.246,-0.128 -0.246,-0.345c0,-0.345 0,-0.734 -0.164,-1.211c-0.121,-0.519 -0.449,-0.951 -1.838,-1.123c-0.98,-0.13 -4.824,-0.174 -5.438,-0.174c-0.203,0 -0.244,0.13 -0.244,0.258l0,3.072c0,1.253 -0.041,5.534 0,6.268c0.08,2.466 0.734,2.942 4.292,2.942c0.938,0 2.655,0 3.597,-0.391c0.939,-0.432 1.43,-1.079 1.635,-2.551c0.08,-0.432 0.162,-0.562 0.367,-0.562c0.203,0 0.244,0.304 0.244,0.562c0,0.261 -0.285,2.768 -0.49,3.548c-0.244,0.951 -0.612,0.951 -2.002,0.951c-2.697,0 -4.783,-0.087 -6.254,-0.13c-1.512,-0.087 -2.451,-0.087 -2.981,-0.087c-0.082,0 -0.777,0 -1.554,0.043c-0.695,0.043 -1.513,0.086 -2.084,0.086c-0.369,0 -0.572,-0.086 -0.572,-0.304c0,-0.128 0.082,-0.302 0.285,-0.302c0.328,0 0.776,-0.13 1.104,-0.174c0.696,-0.128 0.778,-0.864 0.939,-1.945c0.205,-1.513 0.205,-4.41 0.205,-7.955l0,-6.486l-0.001,0Z" style="fill:#fff;fill-rule:nonzero;"/><path id="Fill-677" d="M348.066,28.88c0,-2.983 -0.082,-3.416 -1.553,-3.719c-0.287,-0.043 -0.898,-0.087 -1.228,-0.087c-0.123,0 -0.285,-0.171 -0.285,-0.302c0,-0.261 0.162,-0.304 0.572,-0.304c1.635,0 4.045,0.087 4.251,0.087c0.16,0 2.41,-0.087 3.515,-0.087c0.408,0 0.572,0.043 0.572,0.304c0,0.13 -0.164,0.302 -0.287,0.302c-0.244,0 -0.49,0 -0.897,0.087c-0.981,0.174 -1.268,0.736 -1.35,2.032c-0.041,1.168 -0.041,2.249 -0.041,3.806l0,4.108c0,1.687 -0.041,1.73 -0.49,1.989c-2.289,1.255 -5.56,1.644 -7.644,1.644c-2.737,0 -7.849,-0.345 -11.853,-3.934c-2.209,-1.947 -4.293,-5.881 -4.293,-10.465c0,-5.882 2.821,-10.033 6.01,-12.065c3.229,-2.076 6.826,-2.334 9.562,-2.334c2.29,0 4.823,0.432 5.52,0.604c0.733,0.173 2.002,0.391 2.9,0.391c0.369,0 0.449,0.171 0.449,0.345c0,0.519 -0.203,1.513 -0.203,5.189c0,0.606 -0.164,0.777 -0.408,0.777c-0.205,0 -0.246,-0.215 -0.246,-0.562c-0.041,-0.475 -0.244,-1.554 -0.815,-2.42c-0.901,-1.383 -3.638,-2.853 -8.297,-2.853c-2.166,0 -4.782,0.171 -7.521,2.377c-2.085,1.687 -3.556,4.972 -3.556,9.253c0,5.189 2.533,8.908 3.8,10.163c2.861,2.81 5.886,3.848 9.197,3.848c1.266,0 2.94,-0.13 3.881,-0.69c0.451,-0.261 0.735,-0.435 0.735,-1.125l0,-6.359l0.003,0Z" style="fill:#fff;fill-rule:nonzero;"/><path id="Fill-679" d="M359.301,20.882c0,-5.708 0,-6.746 -0.082,-7.914c-0.082,-1.253 -0.285,-1.858 -1.472,-2.032c-0.287,-0.043 -0.897,-0.087 -1.228,-0.087c-0.123,0 -0.285,-0.171 -0.285,-0.302c0,-0.217 0.162,-0.302 0.572,-0.302c1.637,0 3.965,0.085 4.17,0.085c0.244,0 7.766,0.043 8.582,0c0.694,-0.044 1.35,-0.172 1.635,-0.215c0.164,-0.043 0.328,-0.173 0.49,-0.173c0.123,0 0.164,0.173 0.164,0.345c0,0.261 -0.205,0.693 -0.285,1.73c-0.041,0.345 -0.123,1.989 -0.205,2.421c-0.041,0.174 -0.164,0.391 -0.326,0.391c-0.205,0 -0.287,-0.174 -0.287,-0.476c0,-0.261 -0.041,-0.866 -0.203,-1.298c-0.246,-0.606 -0.613,-0.864 -2.577,-1.125c-0.61,-0.086 -4.78,-0.128 -5.19,-0.128c-0.161,0 -0.202,0.128 -0.202,0.389l0,9.99c0,0.258 0,0.389 0.202,0.389c0.451,0 5.19,0 6.011,-0.087c0.856,-0.087 1.389,-0.13 1.758,-0.519c0.244,-0.261 0.408,-0.476 0.531,-0.476c0.12,0 0.202,0.087 0.202,0.302c0,0.217 -0.202,0.823 -0.284,2.032c-0.082,0.736 -0.164,2.119 -0.164,2.38c0,0.302 -0.082,0.69 -0.326,0.69c-0.164,0 -0.246,-0.128 -0.246,-0.345c0,-0.345 0,-0.734 -0.164,-1.211c-0.12,-0.519 -0.448,-0.951 -1.838,-1.123c-0.981,-0.13 -4.823,-0.174 -5.438,-0.174c-0.202,0 -0.243,0.13 -0.243,0.258l0,3.072c0,1.253 -0.041,5.534 0,6.268c0.082,2.466 0.733,2.942 4.292,2.942c0.939,0 2.654,0 3.597,-0.391c0.938,-0.432 1.431,-1.079 1.636,-2.551c0.079,-0.432 0.161,-0.562 0.366,-0.562c0.205,0 0.244,0.304 0.244,0.562c0,0.261 -0.285,2.768 -0.49,3.548c-0.243,0.951 -0.61,0.951 -2.002,0.951c-2.698,0 -4.782,-0.087 -6.254,-0.13c-1.512,-0.087 -2.45,-0.087 -2.981,-0.087c-0.082,0 -0.777,0 -1.554,0.043c-0.694,0.043 -1.512,0.086 -2.085,0.086c-0.369,0 -0.572,-0.086 -0.572,-0.304c0,-0.128 0.082,-0.302 0.285,-0.302c0.328,0 0.777,-0.13 1.104,-0.174c0.696,-0.128 0.778,-0.864 0.94,-1.945c0.205,-1.513 0.205,-4.41 0.205,-7.955l0,-6.486l-0.003,0Z" style="fill:#fff;fill-rule:nonzero;"/></svg>