<?xml version="1.0" encoding="utf-8"?>
<!-- Generator: Adobe Illustrator 21.0.2, SVG Export Plug-In . SVG Version: 6.00 Build 0)  -->
<svg version="1.1" id="Layer_1" xmlns="http://www.w3.org/2000/svg" xmlns:xlink="http://www.w3.org/1999/xlink" x="0px" y="0px"
	 viewBox="0 0 167.1799927 62.1839981" style="enable-background:new 0 0 167.1799927 62.1839981;" xml:space="preserve">
<style type="text/css">
	.st0{fill:#FFFFFF;}
	.st1{fill:#BBBDBF;}
</style>
<g>
	<path class="st0" d="M46.6557007,30.1824989c5.1359978-1.6769981,9.2099991-6.9720001,9.2099991-13.4149971
		c0-9.6180038-7.1739998-16.7670021-19.5720024-16.7670021h-23.468998v11.5390015l15.6900005,0.0219994h5.3879986
		c5.4910011,0,8.2360001,2.6479988,8.2360001,6.7070007c0,2.8839989-1.4799995,5.0639992-3.9609985,6.1139984v12.4489975
		c3.6660004,0.795002,5.7319984,3.163002,5.7319984,6.6430016c0,4.5-3.276001,7.3240013-8.6790009,7.3240013h-9.9299965H12.8246994
		v11.3849983H38.153698c11.8670006,0,19.6599998-7.5030022,19.6599998-17.737999
		C57.8136978,36.3255005,52.3227005,31.5065002,46.6557007,30.1824989"/>
	<polygon class="st1" points="12.8261032,11.540596 12.8261032,24.3825989 0.0001025,24.3825989 0.0001025,36.8335953 
		12.8261032,36.8335953 12.8261032,50.7915955 25.3031025,50.8265953 25.3021011,36.8335953 38.1761017,36.8335953 
		38.1761017,24.3825989 25.3031025,24.3825989 25.3031025,11.5395966 	"/>
	<polygon class="st0" points="73.1114044,16.3492966 82.4244003,16.3492966 82.4244003,18.3402977 78.9054031,18.3402977 
		78.9054031,27.2612991 76.6124039,27.2612991 76.6124039,18.3402977 73.1114044,18.3402977 	"/>
	<polygon class="st0" points="94.8295059,16.3492966 94.8295059,27.2612991 92.5545044,27.2612991 92.5545044,22.6763 
		87.614502,22.6763 87.614502,27.2612991 85.338501,27.2612991 85.338501,16.3492966 87.614502,16.3492966 87.614502,20.6852989 
		92.5545044,20.6852989 92.5545044,16.3492966 	"/>
	<polygon class="st0" points="105.7606049,16.3492966 105.7606049,18.3402977 100.5886002,18.3402977 100.5886002,20.7212982 
		105.2806015,20.7212982 105.2806015,22.6582985 100.5886002,22.6582985 100.5886002,25.2532997 105.7606049,25.2532997 
		105.7606049,27.2612991 98.3496017,27.2612991 98.3496017,16.3492966 	"/>
	<path class="st0" d="M122.5150986,24.1691017c0,2.0079994-1.387001,3.0919991-3.6610031,3.0919991h-4.5319977V16.3501015h4.1760025
		c2.2750015,0,3.6790009,1.0119972,3.6790009,2.9669991c0,1.1730003-0.6399994,2.026001-1.4400024,2.3100014
		C121.7680969,21.9650993,122.5150986,22.9780998,122.5150986,24.1691017 M118.356102,20.8280983
		c1.0839996,0,1.6529999-0.4269981,1.6529999-1.2979965c0-0.8710022-0.5690002-1.2610016-1.6529999-1.2610016h-1.8479996v2.5589981
		H118.356102z M116.5081024,25.3420982h2.1499939c1.0660019,0,1.6350021-0.5329971,1.6350021-1.3689995
		c0-0.8529968-0.5690002-1.3689995-1.6350021-1.3689995h-2.1499939V25.3420982z"/>
	<path class="st0" d="M131.3129883,16.3491974L135.4889832,27.2612h-2.3099976l-0.9779968-2.6310005h-4.0870056L127.1549988,27.2612
		h-2.276001l4.1769867-10.9120026H131.3129883z M128.8249969,22.7111969h2.6659851l-1.3329926-3.625L128.8249969,22.7111969z"/>
	<polygon class="st0" points="136.1658936,16.3492966 145.4788818,16.3492966 145.4788818,18.3402977 141.9598846,18.3402977 
		141.9598846,27.2612991 139.6668854,27.2612991 139.6668854,18.3402977 136.1658936,18.3402977 	"/>
	<polygon class="st0" points="155.8049011,16.3492966 155.8049011,18.3402977 150.6328888,18.3402977 150.6328888,20.7212982 
		155.3248901,20.7212982 155.3248901,22.6582985 150.6328888,22.6582985 150.6328888,25.2532997 155.8049011,25.2532997 
		155.8049011,27.2612991 148.3938904,27.2612991 148.3938904,16.3492966 	"/>
	<path class="st0" d="M160.9418945,24.1509972c0.3019867,0.9600029,1.1019897,1.4040031,2.1679993,1.4040031
		c1.1019897,0,1.8309937-0.4970016,1.8309937-1.368c0-0.6580009-0.3919983-1.0139999-1.3330078-1.2270012l-1.9549866-0.4430008
		c-1.5640106-0.355999-2.7730103-1.1909981-2.7730103-2.9860001c0-1.9729996,1.6360016-3.3600006,3.928009-3.3600006
		c2.4889984,0,3.9279938,1.3160019,4.2829895,3.1640015h-2.2559967c-0.25-0.7290001-0.871994-1.2980003-2.0090027-1.2980003
		c-1.0309906,0-1.723999,0.4980011-1.723999,1.2799988c0,0.6220016,0.4089966,0.9950027,1.2259979,1.1910019l1.9910126,0.461998
		c1.776001,0.4090004,2.8609924,1.4220009,2.8609924,3.0740013c0,2.1150017-1.7409973,3.3950005-4.052002,3.3950005
		c-2.4349976,0-4.1589966-1.2089996-4.5319977-3.288002H160.9418945z"/>
	<path class="st0" d="M79.6427078,34.1319962c2.5769958,0,4.1579971,1.5110016,4.5679932,3.6970024h-2.2569962
		c-0.3740005-0.9949989-1.0490036-1.6710014-2.310997-1.6710014c-1.7420044,0-2.7720032,1.5289993-2.7720032,3.6080017
		c0,2.0620003,1.0299988,3.6070023,2.7720032,3.6070023c1.2619934,0,1.9369965-0.6750031,2.310997-1.6880035h2.2569962
		c-0.409996,2.2040024-1.9909973,3.7140007-4.5679932,3.7140007c-2.9150009,0-5.0820007-2.2919998-5.0820007-5.6329994
		C74.5607071,36.4239998,76.7277069,34.1319962,79.6427078,34.1319962"/>
	<path class="st0" d="M92.4754028,34.3096008l4.1759949,10.9119987h-2.3099976l-0.9779968-2.6310005h-4.0870056
		l-0.9589996,2.6310005h-2.276001l4.177002-10.9119987H92.4754028z M89.9874039,40.6716003h2.6659927l-1.3330002-3.625
		L89.9874039,40.6716003z"/>
	<polygon class="st0" points="104.2236023,45.2216949 101.5225983,38.0956955 101.5225983,45.2216949 99.389595,45.2216949 
		99.389595,34.3097 102.0905991,34.3097 105.0056,42.0056992 107.9025955,34.3097 110.5675964,34.3097 110.5675964,45.2216949 
		108.4175949,45.2216949 108.4175949,38.0956955 105.7695999,45.2216949 	"/>
	<path class="st0" d="M116.7009964,41.4358978v3.7859993h-2.2569962V34.3098984h4.4430008
		c2.310997,0,3.8379974,1.2439995,3.8379974,3.5719986c0,2.3100014-1.5270004,3.5540009-3.8379974,3.5540009H116.7009964z
		 M118.7450027,36.2468948h-2.0440063v3.2520027h2.0440063c1.1719971,0,1.7409973-0.6749992,1.7409973-1.6170006
		C120.4860001,36.9048996,119.9169998,36.2468948,118.7450027,36.2468948"/>
	<path class="st0" d="M130.4395905,34.3096008l4.1759949,10.9119987h-2.3099976l-0.9779968-2.6310005h-4.0869904
		l-0.9589996,2.6310005H124.0056l4.1769867-10.9119987H130.4395905z M127.9516068,40.6716003h2.6659775l-1.3329926-3.625
		L127.9516068,40.6716003z"/>
	<rect x="137.709198" y="34.309597" class="st0" width="2.2749939" height="10.9120007"/>
	<path class="st0" d="M149.3684998,41.3117981v-1.8129997h4.2999878v0.9600029c0,3.0219955-1.9889984,4.9409981-4.7449951,4.9409981
		c-3.0379944,0-5.2599945-2.2930031-5.2599945-5.6339989c0-3.3410034,2.2399902-5.6340027,5.2070007-5.6340027
		c2.6309967,0,4.2129974,1.5110016,4.6209869,3.6969986h-2.2929993c-0.3899994-1.0309982-1.0649872-1.6699982-2.3279877-1.6699982
		c-1.7940063,0-2.8960114,1.5100021-2.8960114,3.6070023c0,2.1149979,1.1190033,3.625,2.9490051,3.625
		c1.404007,0,2.2749939-0.8349991,2.5240021-2.0790024H149.3684998z"/>
	<polygon class="st0" points="166.1461029,45.2216949 164.3510895,45.2216949 159.1980896,37.9526978 159.1980896,45.2216949 
		157.0110931,45.2216949 157.0110931,34.3097 159.1440887,34.3097 163.9600983,41.2056961 163.9600983,34.3097 166.1461029,34.3097 
			"/>
</g>
</svg>
