<?xml  version="1.0" encoding="UTF-8"?>
<!DOCTYPE svg PUBLIC "-//W3C//DTD SVG 1.0//EN" "http://www.w3.org/TR/2001/REC-SVG-20010904/DTD/svg10.dtd" >
<svg xmlns="http://www.w3.org/2000/svg" >
<metadata>
<version>1.0</version>
<id><![CDATA[Carter Sans W01 Regular]]></id>
<vendor>Monotype Imaging Inc.</vendor>
<credits>
<name>Fonts.com WebFonts</name>
<URL>http://webfonts.fonts.com</URL>
<role>Home of the Web fonts</role>
</credits>
<license>
<URL>http://webfonts.fonts.com/Legal</URL>
</license>
<copyright><![CDATA[Copyright 2010 International Typeface Corporation. All rights reserved.]]></copyright>
<trademark><![CDATA["Carter Sans" is a trademark of International Typeface Corporation and may be registered in certain jurisdictions.]]></trademark>
<licensee>
<name></name>
</licensee>
</metadata>
<defs >
<font horiz-adv-x="440" id="1d867d42-edb6-4891-be5c-53630e8be60c">
<font-face font-family="" panose-1="2 14 5 4 6 3 6 4 4 3" ascent="991" descent="-270" units-per-em="1000" alphabetic="0">
</font-face>
<missing-glyph horiz-adv-x="274" />

<glyph unicode="&#xA;" />
<glyph unicode="&#xD;" />
<glyph unicode=" " horiz-adv-x="274" />
<glyph unicode="!" horiz-adv-x="326" d="M230 659Q224 648 221 626T214 574T209 511T204 447L186 192H139L122 447Q120 475 118 508T113 572T106 625T96 659V668H230V659ZM105 0V116H220V0H105Z"  />
<glyph unicode="&quot;" horiz-adv-x="417" d="M176 730Q168 702 162 668T152 599T146 534T144 484V474H91V484Q91 503 89 534T83 601T73 670T59 730V739H176V730ZM358 730Q350 702 344 668T334 599T328 534T326 484V474H273V484Q273 503 271 534T265 601T255 670T241 730V739H358V730Z"  />
<glyph unicode="#" horiz-adv-x="600" d="M424 344L391 209H501V156H378L339 0H287L327 156H220L181 0H129L169 156H63V209H182L215 344H104V397H229L269 558H320L280 397H387L427 558H478L438 397H543V344H424ZM266 344L232 209H340L374 344H266Z"  />
<glyph unicode="$" horiz-adv-x="587" d="M322 -113H284V-4Q273 -6 263 -6T242 -7Q202 -7 164 4T90 32V125H99Q114 114 130 105T152 93Q175 83 208 75T284 64V270L219 287Q157 306 126 343T94 432Q94 465 108 495T148 550T208 590T284 613V716H322V615H333Q380 615 423 604T487 582V491H478Q462 502 447 511T426 523Q404 531 382 539T322 550V346L377 331Q454 310 484 274T515 191Q515 159 501 130T462 75T401 30T322 1V-113ZM408 93Q421 107 425 124T430 167Q430 210 401 230T322 263V65Q343 66 368 71T408 93ZM200 527Q178 506 178 457Q178 410 207 387T284 352V550Q264 549 240 545T200 527Z"  />
<glyph unicode="%" horiz-adv-x="892" d="M393 480Q393 443 381 409T345 349T290 308T218 292Q179 292 148 306T94 345T61 406T49 483Q49 521 62 554T100 613T156 653T227 668Q267 668 298 653T350 611T382 551T393 480ZM316 469Q316 496 312 523T297 573T268 610T220 625Q194 625 176 613T147 582T131 540T126 492Q126 462 131 434T147 384T177 349T224 335Q249 335 266 347T295 378T311 421T316 469ZM843 174Q843 136 830 103T792 44T736 4T665 -11Q625 -11 594 4T542 46T510 106T499 177Q499 214 511 248T547 308T602 349T674 365Q713 365 744 351T798 312T831 251T843 174ZM766 165Q766 195 761 223T745 273T715 308T668 322Q643 322 626 310T597 279T581 236T576 188Q576 161 580 134T595 84T624 47T672 32Q698 32 716 44T745 75T761 117T766 165ZM264 -12H203L625 668H686L264 -12Z"  />
<glyph unicode="&amp;" horiz-adv-x="686" d="M678 338Q661 330 647 320T616 293T575 251T515 188L494 166Q536 120 561 94T604 52T633 28T662 11V0H507V11Q507 19 506 23T503 31Q498 44 480 65T438 110Q415 87 391 65T342 25T292 -3T240 -14Q202 -14 168 -2T107 33T66 89T50 164Q50 196 64 228T101 287L199 362Q172 392 155 415T128 457T115 495T111 532Q111 565 126 592T166 638T219 668T276 679Q309 679 337 670T387 643T420 603T433 550Q433 514 422 485T393 432L306 364L458 203Q475 220 490 238T518 273T539 301T549 318Q551 321 552 325T553 338V349H678V338ZM355 548Q355 584 333 606T276 628Q241 628 218 603T195 537Q195 519 199 503T214 471T238 438T273 399Q317 431 336 468T355 548ZM233 325Q215 311 199 297T170 265T150 226T142 176Q142 153 152 133T179 96T215 71T254 61Q290 61 327 85T401 148L233 325Z"  />
<glyph unicode="&apos;" horiz-adv-x="235" d="M176 730Q168 702 162 668T152 599T146 534T144 484V474H91V484Q91 503 89 534T83 601T73 670T59 730V739H176V730H176Z"  />
<glyph unicode="(" horiz-adv-x="445" d="M357 -181Q306 -165 256 -126T165 -27T99 109T73 278Q73 368 98 444T163 579T255 677T357 734L382 675Q334 655 291 620T214 534T161 418T141 276Q141 199 161 135T214 20T290 -67T382 -122L357 -181Z"  />
<glyph unicode=")" horiz-adv-x="445" d="M372 278Q372 186 347 110T281 -26T190 -125T88 -181L63 -122Q111 -103 154 -67T231 19T284 134T304 276Q304 353 284 418T231 533T155 619T63 675L88 734Q139 717 190 678T281 579T347 444T372 278Z"  />
<glyph unicode="*" horiz-adv-x="480" d="M437 559L277 530L274 523L386 407L391 399L326 352L321 359L244 502H236L159 359L153 352L88 399L93 407L206 524L204 530L44 559L36 562L61 638L70 636L216 565L222 570L200 731V739H281V731L259 570L265 565L412 636L420 638L445 563L437 559Z"  />
<glyph unicode="+" horiz-adv-x="600" d="M332 249V56H269V249H77V310H269V503H332V310H524V249H332Z"  />
<glyph unicode="&#x2c;" horiz-adv-x="270" d="M203 67Q203 59 202 47T195 23Q184 -5 174 -27T153 -70T128 -112T97 -158H49V-148Q68 -120 84 -85T109 -5Q108 7 106 22T100 52T91 80T79 104V113H195Q203 91 203 67Z"  />
<glyph unicode="-" horiz-adv-x="402" d="M60 242V317H342V242H60Z"  />
<glyph unicode="." horiz-adv-x="270" d="M77 0V118H194V0H77Z"  />
<glyph unicode="/" horiz-adv-x="420" d="M86 -170H19L350 739H417L86 -170Z"  />
<glyph unicode="0" horiz-adv-x="597" d="M540 263Q540 209 523 160T473 72T395 12T294 -11Q239 -11 195 10T121 68T74 156T58 268Q58 322 77 371T129 457T207 515T307 537Q363 537 406 515T479 454T524 367T540 263ZM441 247Q441 287 435 328T412 404T368 459T298 481Q260 481 233 463T189 417T165 352T157 280Q157 235 164 193T189 117T234 64T304 44Q341 44 367 62T409 109T433 174T441 247Z"  />
<glyph unicode="1" horiz-adv-x="400" d="M295 523Q287 514 283 491T277 437T275 374T274 310V220Q274 193 274 161T275 99T280 44T292 10V0H167V10Q174 20 177 44T182 98T184 161T184 220V453L53 409L39 466L295 533V523H295Z"  />
<glyph unicode="2" horiz-adv-x="533" d="M508 -15Q499 -8 475 -5T421 -1T357 1T297 1H276Q249 1 216 1T152 0T94 -3T51 -11H40V49Q91 75 145 108T242 179T314 260T342 348Q342 359 342 374T339 406T331 435T315 456Q309 461 294 463T261 466Q235 466 208 460T155 446T109 429T77 415H69V506Q90 514 138 525T246 537Q280 537 314 526T376 494T421 443T438 374Q438 359 436 344T430 314T422 288T414 272Q390 239 367 215T317 169T259 126T187 79H297Q326 79 359 79T422 80T475 86T508 97H519V-15H508Z"  />
<glyph unicode="3" horiz-adv-x="505" d="M438 76Q438 51 431 28T411 -16T383 -53T353 -80Q314 -108 267 -126T159 -145Q118 -145 86 -136T37 -121V-28H45Q54 -33 72 -40T113 -53T162 -64T213 -69Q222 -69 235 -68T263 -64T290 -57T313 -48Q321 -41 328 -34T340 -17T348 8T351 42Q351 76 339 101T306 142T258 166T200 174Q180 174 164 172T128 165L121 220Q129 222 142 225T168 231T194 239T214 246Q246 260 266 276T299 311T315 353T320 405Q320 431 312 443T300 458Q297 460 285 463T253 466Q221 466 193 461T141 450T99 436T70 422H62V509Q83 517 122 527T208 537Q251 537 288 529T352 503T394 460T409 402Q409 376 403 351T389 317Q382 308 355 287T289 240Q353 231 395 188T438 76Z"  />
<glyph unicode="4" horiz-adv-x="573" d="M417 82Q417 55 417 23T418 -40T423 -95T433 -130V-140H316V-130Q323 -120 326 -96T330 -42T332 21T332 81H278Q241 81 208 81T146 80T97 77T66 68H58L33 127L334 526H428V517Q423 507 421 483T418 429T417 365T417 305V149Q461 151 497 154T550 166H560V112L417 82ZM120 149H332V308Q332 328 333 349T335 389T338 422T340 442L120 149Z"  />
<glyph unicode="5" horiz-adv-x="541" d="M484 88Q484 62 476 37T456 -9T428 -48T397 -76Q357 -104 309 -124T199 -145Q157 -145 123 -136T72 -121V-28H80Q89 -33 108 -40T151 -53T201 -64T254 -69Q263 -69 277 -67T306 -62T334 -55T357 -45Q374 -31 385 -11T396 53Q396 125 356 162T246 200Q234 200 216 194T180 180T144 161T117 143L84 154V163Q91 175 94 199T99 253T101 315T101 375V525H245Q272 525 305 525T368 526T423 531T456 541H467V428H456Q447 435 424 439T370 444T307 446T245 446H161V240L318 271Q353 267 383 252T436 212T471 156T484 88Z"  />
<glyph unicode="6" horiz-adv-x="589" d="M532 221Q532 170 513 128T460 54T384 6T292 -11Q235 -11 193 10T122 71T79 164T65 283Q65 348 76 398T107 487T150 555T201 607Q238 639 279 660T381 682Q422 682 452 676T499 664V570H489Q467 583 429 594T329 605Q298 605 275 596T239 574Q232 567 220 555T196 519T174 460T160 368L262 418Q273 423 284 427T321 431Q370 431 409 415T475 370T517 303T532 221ZM438 192Q438 225 429 255T401 308T352 344T282 358Q241 358 211 342T158 306V271Q158 223 167 182T195 110T242 62T307 44Q337 44 361 55T402 87T428 135T438 192Z"  />
<glyph unicode="7" horiz-adv-x="526" d="M341 162Q285 49 254 -17T222 -106Q222 -121 227 -131V-140H101V-131Q129 -104 163 -46T235 89L411 445H262Q233 445 200 445T137 444T84 438T51 427H40V541H51Q60 534 84 531T138 527T202 525T262 525H516V516L341 162Z"  />
<glyph unicode="8" horiz-adv-x="587" d="M526 187Q526 147 508 111T458 48T382 5T285 -11Q231 -11 189 2T119 40T76 98T61 172Q61 209 77 244T124 307L216 352Q86 408 86 509Q86 545 102 577T146 632T215 668T303 682Q351 682 388 670T452 635T493 582T507 518Q507 470 472 421L382 360Q454 328 490 284T526 187ZM413 505Q413 532 404 555T378 596T339 622T290 632Q242 632 210 605T178 532Q178 504 187 484T216 447T265 416T335 383Q373 403 393 435T413 505ZM434 153Q434 185 424 209T394 253T342 290T267 328Q213 306 186 272T158 189Q158 157 170 130T202 84T248 53T304 42Q363 42 398 73T434 153Z"  />
<glyph unicode="9" horiz-adv-x="589" d="M524 261Q524 191 512 139T481 46T435 -25T382 -79Q345 -112 303 -133T200 -154Q159 -154 129 -147T82 -134V-40H92Q114 -53 153 -65T254 -77Q285 -77 308 -68T345 -46Q358 -31 372 -15T399 32T420 118T429 265Q429 311 420 351T391 420T344 465T279 482Q249 482 226 471T186 440T160 393T151 336Q151 303 160 273T187 219T233 183T297 169Q317 169 337 175T368 185L377 142L274 104Q220 104 180 119T112 162T71 227T57 310Q57 360 75 401T126 473T201 520T292 537Q347 537 390 517T463 461T508 373T524 261Z"  />
<glyph unicode=":" horiz-adv-x="350" d="M117 371V489H234V371H117ZM117 0V118H234V0H117Z"  />
<glyph unicode=";" horiz-adv-x="350" d="M117 371V489H234V371H117ZM243 67Q243 59 242 47T235 23Q224 -5 214 -27T193 -70T168 -112T137 -158H89V-148Q108 -120 124 -85T149 -5Q148 7 146 22T140 52T131 80T119 104V113H235Q243 91 243 67Z"  />
<glyph unicode="&lt;" horiz-adv-x="600" d="M101 257V302L495 485V416L195 280L495 143V74L101 257Z"  />
<glyph unicode="=" horiz-adv-x="600" d="M96 337V398H505V337H96ZM96 167V228H505V167H96Z"  />
<glyph unicode="&gt;" horiz-adv-x="600" d="M105 74V143L405 280L105 416V485L499 302V257L105 74Z"  />
<glyph unicode="?" horiz-adv-x="475" d="M432 531Q432 493 422 466T405 429Q390 408 375 391T342 359T306 330T264 300L246 190H198L181 325Q212 343 241 361T292 401T327 448T340 504Q340 515 339 529T334 556T325 581T311 598Q306 602 290 606T259 610Q229 610 201 603T150 585T109 564T80 546H71V640Q92 649 135 664T245 680Q278 680 311 670T371 642T415 595T432 531ZM165 0V116H280V0H165Z"  />
<glyph unicode="@" horiz-adv-x="994" d="M892 320Q892 274 882 234T855 162T820 105T782 65L707 18Q701 17 690 16T665 14T642 12T627 11Q606 11 594 17T576 33T567 55T563 80L478 33Q465 26 455 22T430 18Q401 18 377 30T334 64T306 118T295 187Q295 241 315 291T371 379T454 439T557 462Q578 462 595 460T629 455T666 447T709 438L662 220Q659 205 655 187T648 149T642 110T639 75Q671 75 705 79T762 97Q777 116 788 141T808 193T820 247T824 297Q824 379 802 437T739 533T644 588T525 605Q458 605 396 576T287 494T211 368T182 208Q182 119 207 53T274 -57T373 -122T492 -144Q528 -144 567 -138T645 -118T719 -83T784 -32L813 -75Q755 -127 667 -158T468 -190Q388 -190 321 -162T205 -84T129 35T101 188Q101 290 137 375T236 522T380 618T554 652Q629 652 691 629T798 563T867 458T892 320ZM621 383Q612 386 604 390T583 397T551 403T502 406Q481 406 459 391T420 349T391 283T379 196Q379 135 405 108T469 81Q491 81 516 96T569 134L621 383Z"  />
<glyph unicode="A" horiz-adv-x="663" d="M512 0V9Q514 14 516 21T517 37Q517 52 513 71T501 119T478 184T444 271H195Q180 236 166 201T141 135T122 77T115 34Q114 26 115 20T118 9V0H-11V9Q4 22 20 47T51 103T82 169T112 237L295 669H381L554 235Q567 203 580 169T608 104T638 48T669 9V0H512ZM323 571L220 331H420L323 571Z"  />
<glyph unicode="B" horiz-adv-x="615" d="M578 209Q578 164 557 124T493 54Q465 35 439 24T387 7T333 0T270 -2Q248 -2 214 -2T140 0Q126 0 113 0T87 1V12Q93 21 97 45T103 99T105 161T106 221V448Q106 475 106 507T103 570T98 625T87 659V668Q105 668 129 668T177 669T222 669T255 670Q387 670 447 635T507 524Q507 504 501 482T481 438L410 372Q445 367 476 354T529 319T565 271T578 209ZM409 497Q409 560 379 586T286 612Q268 612 246 610T199 604V374H345Q376 393 392 425T409 497ZM481 182Q481 209 475 233T452 276T409 306T342 317Q320 317 297 315T255 311T220 306T199 302V63Q231 61 262 60T332 59Q362 59 380 64T412 74Q442 88 461 115T481 182Z"  />
<glyph unicode="C" horiz-adv-x="620" d="M583 44Q556 33 535 25T493 10T453 -2T407 -12H372Q303 -12 243 12T138 81T68 185T42 317Q42 392 69 458T145 573T258 650T397 678Q435 678 465 674T517 663T555 651T578 641V538H570Q550 553 529 565T482 586T427 599T360 604Q326 604 298 599T257 589Q226 574 205 548T169 489T149 420T142 351Q142 293 159 241T212 149T300 86T422 62Q470 62 505 80T572 118H583V44H583Z"  />
<glyph unicode="D" horiz-adv-x="708" d="M666 350Q666 275 641 211T568 99T454 25T301 -2Q286 -2 259 -2T201 -2T140 -1T87 0V11Q93 20 97 44T103 98T105 160T106 220V448Q106 509 104 544T99 604L76 654V668Q95 668 123 668T182 669T244 670T298 671Q389 671 457 648T572 582T642 480T666 350ZM565 331Q565 386 556 435T521 522T449 582T328 604Q291 604 258 601T199 594V74Q225 67 258 63T333 59Q368 59 396 67T435 81Q471 99 496 128T536 192T558 263T565 331Z"  />
<glyph unicode="E" horiz-adv-x="616" d="M536 -15Q527 -8 503 -5T449 -1T385 1T325 1H87V12Q93 21 97 45T103 99T105 161T106 221V447Q106 474 106 506T103 569T98 624T87 658V667H325Q352 667 385 667T448 668T503 673T536 683H547V580H536Q527 587 503 591T449 598T385 602T325 603H199V375H307Q334 375 367 375T430 378T485 385T518 396H528V291H518Q509 298 485 302T431 308T367 310T307 311H199V65H325Q352 65 385 66T448 69T503 76T536 88H547V-15H536Z"  />
<glyph unicode="F" horiz-adv-x="584" d="M534 580Q525 587 501 591T447 598T383 602T323 603H199V361H306Q333 361 366 361T429 364T484 371T517 382H527V277H517Q508 284 484 288T430 294T366 296T306 297H199V221Q199 194 199 162T202 99T208 44T218 11V0H87V11Q93 20 97 44T103 98T105 161T106 221V447Q106 474 106 506T103 569T97 624T86 658V667H323Q350 667 383 667T446 668T501 673T534 683H545V580H534Z"  />
<glyph unicode="G" horiz-adv-x="684" d="M631 320Q625 311 621 287T616 232T614 168T613 108V40L389 -12H356Q292 -12 235 14T135 85T67 192T42 322Q42 398 70 463T147 576T263 651T408 678Q445 678 475 674T528 663T567 651T591 641V538H583Q543 568 494 586T369 604Q334 604 304 599T262 589Q230 574 208 549T172 491T151 420T144 339Q144 277 161 225T209 135T286 75T389 53Q421 53 457 63T520 81V108Q520 135 520 168T517 232T511 287T498 320V329H631V320H631Z"  />
<glyph unicode="H" horiz-adv-x="748" d="M529 0V11Q536 20 540 44T546 98T548 161T549 221V311H199V221Q199 194 199 162T202 99T208 44T218 11V0H87V11Q93 20 97 44T103 98T105 161T106 221V447Q106 474 106 507T103 570T98 625T87 659V668H218V659Q211 649 208 625T202 571T200 507T199 447V375H549V447Q549 474 549 507T546 570T540 625T529 659V668H661V659Q654 649 651 625T645 571T643 507T642 447V221Q642 194 642 162T645 99T651 44T661 11V0H529Z"  />
<glyph unicode="I" horiz-adv-x="311" d="M90 0V11Q96 20 100 44T106 98T108 161T109 221V447Q109 474 109 507T106 570T101 625T90 659V668H221V659Q214 649 211 625T205 571T203 507T202 447V221Q202 194 202 162T205 99T211 44T221 11V0H90Z"  />
<glyph unicode="J" horiz-adv-x="513" d="M413 603Q411 578 410 538T408 446Q408 393 410 336T412 235Q412 184 391 140T335 61Q301 29 257 10T161 -10Q127 -10 95 -1T32 22V120H41Q54 111 76 102T123 85T173 73T221 68Q246 68 262 75T290 95Q304 113 309 140T315 201V603H309Q282 603 249 603T186 600T131 595T98 584H87V687H98Q107 680 131 676T185 670T249 668T309 667H436V653L413 603Z"  />
<glyph unicode="K" horiz-adv-x="640" d="M470 0V11Q470 13 470 14T471 17Q471 21 470 25T468 31Q464 40 453 55T428 89T396 128T363 166T334 199T315 221L249 294L222 312V330L332 449Q344 462 369 490T420 550T465 608T485 644Q485 648 483 658V668H622V657Q591 640 554 601T458 497L323 350L476 171Q516 124 540 97T581 53T610 29T637 11V0H470ZM87 0V11Q93 20 97 44T103 98T105 161T106 221V447Q106 474 106 507T103 570T98 625T87 659V668H218V659Q211 649 208 625T202 571T200 507T199 447V221Q199 194 199 162T202 99T208 44T218 11V0H87Z"  />
<glyph unicode="L" horiz-adv-x="553" d="M528 -15Q519 -8 495 -5T441 -1T377 1T317 1L76 0V14L99 64Q100 76 101 95T104 135T105 178T106 221V447Q106 474 106 507T103 570T98 625T87 659V668H219V659Q212 649 208 625T202 571T200 507T199 447V65H317Q344 65 377 66T440 70T495 77T528 89H539V-15H528Z"  />
<glyph unicode="M" horiz-adv-x="902" d="M699 0V11Q709 25 711 61T714 140Q714 161 714 182T713 221L702 529L559 223Q545 194 531 165T504 108T485 57T477 17V10H395V20Q395 29 388 50T369 100T345 159T320 217L190 525L164 223Q161 193 158 157T154 89Q154 63 156 41T165 11V0H50V11Q57 20 64 44T78 98T89 160T97 221L119 447Q120 462 122 483T125 526T128 571T130 610Q122 622 114 635T98 659V668H225V658Q229 644 241 616T267 554T297 488T321 433L449 140L590 430Q603 456 617 486T645 543T669 594T685 630V668H807V659Q794 644 792 609T790 528Q790 519 790 508T790 486T791 464T792 447L802 221Q803 192 804 160T809 97T817 44T828 11V0H699Z"  />
<glyph unicode="N" horiz-adv-x="754" d="M677 657Q670 648 665 626T656 576T650 516T648 457V155Q648 125 648 87T652 3V-8H584V-1Q574 17 549 49T498 114Q452 172 413 220T337 315T261 406T178 505V211Q178 187 179 157T184 97T193 44T206 11V0H82V11Q89 20 94 42T103 92T109 152T111 211V580Q84 613 67 630T38 655V668H169Q173 661 182 648T205 617T232 582T261 546Q306 489 346 439T426 342T503 250T581 156V457Q581 481 579 511T574 571T564 624T551 657V668H677V657H677Z"  />
<glyph unicode="O" horiz-adv-x="738" d="M696 342Q696 266 670 201T597 88T489 13T354 -14Q285 -14 228 11T130 80T65 187T42 324Q42 402 67 467T139 579T247 653T383 679Q452 679 509 655T608 586T673 479T696 342ZM594 316Q594 392 577 448T530 543T459 600T371 619Q327 619 286 601T214 549T163 463T144 344Q144 273 161 218T210 124T282 66T371 46Q416 46 456 64T527 116T576 201T594 316Z"  />
<glyph unicode="P" horiz-adv-x="578" d="M543 470Q543 433 531 399T501 341Q468 308 437 291T365 259L199 233V216Q199 189 199 157T202 96T208 43T218 11V0H87V11Q93 20 97 44T103 98T105 161T106 221V448Q106 475 106 507T103 570T98 625T87 659V668Q123 669 170 670T258 672Q334 672 388 658T476 617T527 554T543 470ZM442 479Q442 551 404 582T288 613Q268 613 246 611T199 605V305Q219 303 243 302T303 300Q323 300 347 310T393 342T428 398T442 479Z"  />
<glyph unicode="Q" horiz-adv-x="742" d="M594 -178V-167Q596 -163 595 -157T592 -147Q587 -137 576 -121T550 -86T516 -46T480 -5Q460 -7 439 -9T405 -11Q322 -11 255 14T141 84T68 193T42 331Q42 406 67 469T138 579T245 652T381 679Q450 679 507 654T607 585T672 480T695 347Q695 290 681 239T636 144L546 55L596 -7Q633 -53 657 -80T699 -123T730 -148T759 -166V-178H594ZM593 321Q593 394 576 449T528 542T457 599T369 619Q325 619 285 601T213 548T163 464T144 353Q144 281 163 226T219 134T308 77T426 58H464Q530 102 561 172T593 321Z"  />
<glyph unicode="R" horiz-adv-x="659" d="M498 0V11Q499 17 498 22T494 31Q489 44 472 67T432 118T386 173T344 222L300 275L199 260V221Q199 194 199 162T202 99T208 44T218 11V0H87V11Q93 20 97 44T103 98T105 161T106 221V448Q106 475 106 507T103 570T98 625T87 659V668Q105 668 127 669T174 670T222 671T267 672Q400 672 469 623T539 476Q539 449 526 420T495 367L398 302L502 171Q540 124 564 97T605 53T634 29T662 11V0H498ZM440 492Q440 558 404 585T289 613Q269 613 247 611T199 605V326H300Q323 329 348 337T393 364T427 414T440 492Z"  />
<glyph unicode="S" horiz-adv-x="539" d="M499 210Q499 166 477 126T415 56T323 8T210 -10Q168 -10 129 2T54 32V133H63Q102 97 157 82T273 66Q349 66 380 95Q409 122 409 181Q409 222 385 243T313 278Q293 284 278 288T249 296T221 304T189 313Q126 333 95 375T63 474Q63 519 84 556T140 621T220 663T316 678Q368 678 412 667T476 644V548H466Q441 569 394 588T281 607Q243 607 214 601T169 576Q161 566 156 548T150 503Q150 461 174 436T236 399Q254 393 268 390T296 382T325 374T359 364Q438 341 468 300T499 210Z"  />
<glyph unicode="T" horiz-adv-x="627" d="M602 580Q593 587 569 591T515 598T451 602T391 603H360V221Q360 194 360 162T363 99T369 44T379 11V0H248V11Q254 20 258 44T264 98T266 160T267 220V603H236Q209 603 176 603T113 602T58 597T25 587H14V690H25Q34 683 58 679T112 672T176 668T236 667H391Q418 667 451 667T514 668T569 673T602 683H613V580H602Z"  />
<glyph unicode="U" horiz-adv-x="738" d="M541 0V76L379 6Q363 -1 346 -4T297 -8Q247 -8 210 6T149 46T112 105T100 178Q100 196 100 217T102 260T103 303T104 342V447Q104 474 104 507T101 570T95 625T84 659V668H216V659Q209 649 206 625T200 571T198 507T197 447V220Q197 72 357 72Q408 72 453 94T541 143V447Q541 474 541 507T538 570T532 625T521 659V668H653V659Q646 649 643 625T637 571T635 507T634 447V221Q634 194 634 162T637 99T644 44T654 11V0H541Z"  />
<glyph unicode="V" horiz-adv-x="664" d="M665 659Q650 645 634 622T603 568T572 502T541 431L357 -1H292L119 433Q106 464 93 498T65 564T35 620T4 659V668H160V659Q158 654 156 647T155 631Q155 615 160 594T175 541T202 468T242 367L340 123L444 366Q460 403 476 443T507 520T530 587T539 634Q540 642 539 648T536 659V668H665V659H665Z"  />
<glyph unicode="W" horiz-adv-x="952" d="M946 659Q932 645 918 620T891 564T864 497T839 426L690 0H623L474 487L299 0H232L101 433Q92 464 82 498T61 563T38 620T10 659V668H161V659Q158 653 156 646T153 630Q153 614 155 595T164 545T183 472T213 367L282 130L373 383Q391 435 404 471T424 535T435 584T439 628Q439 647 434 659V668H543V659Q536 645 536 631Q536 610 538 591T548 543T567 472T600 365L670 133L777 447Q785 471 793 497T808 548T819 593T824 626Q824 634 822 644T818 659V668H946V659H946Z"  />
<glyph unicode="X" horiz-adv-x="666" d="M487 0V9Q489 13 491 16T493 25Q493 29 481 50T450 99T409 160T367 219L321 286L258 198Q238 171 218 144T183 93T157 51T147 26Q147 17 153 7V0H9V9Q36 27 70 68T154 172L282 337L163 502Q132 545 112 571T76 614T49 640T23 659V668H193V659Q191 655 189 652T187 643Q187 638 199 618T229 570T270 510T313 449L345 401L394 470Q414 497 434 524T469 575T495 616T505 642Q505 651 499 661V668H643V659Q616 641 582 600T498 496L384 350L517 166Q548 123 568 97T604 54T631 28T657 9V0H487Z"  />
<glyph unicode="Y" horiz-adv-x="621" d="M626 659Q609 646 591 624T555 572T516 508T475 437L408 318Q401 306 388 283T364 240V226Q364 199 364 166T367 101T373 45T383 11V0H252V11Q258 20 262 44T268 100T270 164T271 225V240L153 440Q134 472 114 505T75 568T36 622T-2 659V668H161V659Q159 654 158 649T157 631Q157 620 187 559T289 383L332 314L370 382Q395 426 417 466T457 539T484 597T494 634Q494 650 491 659V668H626V659H626Z"  />
<glyph unicode="Z" horiz-adv-x="594" d="M557 -15Q548 -8 524 -5T470 -1T406 1T346 1H33V52Q96 132 149 202T251 339T343 470T432 603H273Q246 603 213 602T150 599T95 592T62 580H51V683H62Q71 676 95 673T149 669T213 667T273 667H557V618Q518 565 468 497T365 354T257 206T156 65H346Q373 65 406 66T469 69T524 76T557 88H568V-15H557Z"  />
<glyph unicode="[" horiz-adv-x="445" d="M90 -164V-153Q96 -144 100 -120T106 -66T108 -3T109 57V477Q109 504 109 537T106 600T101 655T90 689V698H376V642H181V-108H376V-164H90Z"  />
<glyph unicode="\" horiz-adv-x="420" d="M335 -170L4 739H71L402 -170H335Z"  />
<glyph unicode="]" horiz-adv-x="445" d="M69 -164V-108H264V642H69V698H355V689Q348 679 345 655T339 601T337 537T336 477V57Q336 30 336 -2T339 -65T345 -120T355 -153V-164H69Z"  />
<glyph unicode="^" horiz-adv-x="600" d="M437 285L301 585L164 285H95L278 679H323L506 285H437Z"  />
<glyph unicode="_" horiz-adv-x="500" d="M-3 -104V-65H503V-104H-3Z"  />
<glyph unicode="`" horiz-adv-x="254" d="M169 563L125 613Q84 661 57 688T10 729V739H133L227 568V563H169Z"  />
<glyph unicode="a" horiz-adv-x="508" d="M355 0L347 52L237 -4Q223 -6 210 -6T188 -7Q157 -7 131 3T86 31T57 75T46 130Q46 151 50 173T66 215Q84 243 119 261T196 290T277 306T345 313V365Q345 387 338 400T319 420T291 429T257 432Q236 432 212 427T166 414T126 398T97 385H89V472Q99 476 115 480T152 488T194 494T239 497Q279 497 314 489T376 465T417 425T432 367Q432 319 431 286T429 220Q429 184 430 151T434 90T442 41T456 10V0H355ZM345 244Q321 246 302 246T252 247Q217 247 185 236T143 196Q137 180 136 169T134 145Q134 105 156 84T220 63Q251 63 282 76T345 109V244Z"  />
<glyph unicode="b" horiz-adv-x="554" d="M517 271Q517 212 491 162T423 74T327 15T217 -7Q182 -7 144 2T67 29V39Q74 48 77 71T82 125T84 189T84 249V518Q84 545 84 578T83 642T78 697T67 730V739H187V730Q180 721 177 697T172 642T170 578T170 518V434L270 480Q284 486 296 491T321 496Q360 496 395 480T458 435T501 364T517 271ZM428 237Q428 321 389 371T281 421Q254 421 226 406T170 369V83Q192 72 217 67T267 62Q290 62 311 68T351 84Q388 103 408 141T428 237Z"  />
<glyph unicode="c" horiz-adv-x="446" d="M423 43Q399 33 380 26T344 13T310 3T271 -6H259Q211 -6 171 11T101 61T55 140T39 245Q39 303 60 349T115 428T192 478T281 496Q332 496 366 486T418 467V379H409Q391 388 374 396T337 411T291 422T230 426Q214 426 198 421T167 401Q152 384 142 349T131 250Q131 154 174 109T284 64Q309 64 327 67T359 77T386 91T413 109H423V43H423Z"  />
<glyph unicode="d" horiz-adv-x="558" d="M389 0V51L275 -1Q261 -4 250 -5T228 -6Q194 -6 160 11T99 59T55 135T38 235Q38 292 57 339T108 422T182 476T271 496Q306 496 335 488T389 456V518Q389 545 389 578T387 642T381 697T369 730V739H492V730Q485 721 482 697T477 642T475 578T475 518V221Q475 194 475 162T477 99T482 45T492 11V0H389ZM389 384Q369 411 339 422T272 433Q205 433 168 387T131 259Q131 217 139 182T165 122T209 82T271 68Q292 68 307 71T335 80T361 94T389 113V384Z"  />
<glyph unicode="e" horiz-adv-x="503" d="M127 248Q128 157 176 110T299 63Q352 63 385 74T448 109H459V43Q430 30 408 23T366 10T327 1T284 -7H271Q217 -7 174 10T101 61T55 140T39 245Q39 303 58 349T109 429T183 479T272 497Q363 497 414 442T465 274V248H127ZM373 314Q373 374 338 405T242 437Q197 437 165 407T129 303H373V314Z"  />
<glyph unicode="f" horiz-adv-x="317" d="M351 653Q332 658 311 661T267 665Q241 665 224 662T199 650Q185 635 184 598T182 487H325V431H183V220Q183 193 183 161T184 99T188 44T199 10V0H80V10Q87 20 90 44T94 98T96 161T96 220V431H18V487H97Q98 543 112 590T151 671T212 724T292 743Q308 743 326 741T362 734V653H351Z"  />
<glyph unicode="g" horiz-adv-x="556" d="M492 479Q485 470 481 446T476 390T474 322T473 251Q473 198 473 165T475 106T476 60T477 12Q477 -14 470 -38T451 -82T425 -120T396 -149Q358 -181 307 -203T193 -226Q155 -226 127 -220T82 -209V-117H91Q104 -125 123 -130T162 -140T204 -145T246 -147Q281 -147 308 -139T356 -111Q371 -95 379 -71T388 -12V49L275 3Q261 0 250 -1T227 -2Q193 -2 160 14T99 61T55 136T38 235Q38 292 56 339T107 422T181 476T270 496Q341 496 388 449V489H492V479ZM388 376Q366 405 337 418T271 432Q205 432 168 386T131 259Q131 218 140 184T167 125T211 87T273 73Q304 73 330 81T388 110V376Z"  />
<glyph unicode="h" horiz-adv-x="564" d="M383 0V11Q390 21 393 45T398 99T400 161T400 221V293Q400 359 376 388T295 418Q266 418 233 405T170 371V221Q170 194 170 162T172 99T177 45T187 11V0H67V11Q74 20 77 44T82 98T84 161T84 221V518Q84 545 84 578T83 642T78 697T67 730V739H187V730Q180 721 177 697T172 642T170 578T170 518V434L275 483Q285 488 296 492T332 496Q367 496 396 484T445 451T477 399T489 333Q489 300 487 264T485 191Q485 174 485 148T487 94T492 44T503 11V0H383Z"  />
<glyph unicode="i" horiz-adv-x="256" d="M73 607V719H184V607H73ZM68 0V10Q75 20 78 44T83 98T85 161T85 220V267Q85 294 85 327T84 391T79 446T68 479V489H188V479Q181 470 178 446T173 391T171 327T171 267V220Q171 193 171 161T172 99T177 44T188 10V0H68Z"  />
<glyph unicode="j" horiz-adv-x="268" d="M85 607V719H196V607H85ZM199 479Q192 470 189 446T184 391T183 327T183 267V35Q183 -21 169 -68T130 -151T68 -206T-12 -226Q-28 -226 -44 -224T-78 -217V-135H-67Q-48 -140 -29 -144T13 -148Q43 -148 60 -144T85 -127Q96 -110 96 -74T97 30V267Q97 298 97 331T94 394T88 447T77 479V489H199V479Z"  />
<glyph unicode="k" horiz-adv-x="508" d="M358 0V10Q362 18 360 23Q356 32 342 50T311 88T277 128T249 161L201 217H170Q170 190 170 158T172 97T177 44T187 11V0H67V11Q74 20 77 44T82 98T84 161T84 221V518Q84 545 84 578T83 642T78 697T67 730V739H187V730Q180 721 177 697T172 642T170 578T170 518V229L274 342Q306 378 334 412T372 466Q373 469 372 472T369 480V489H494V479Q471 466 440 435T370 360L276 260L388 125Q416 91 434 72T464 41T485 23T505 10V0H358Z"  />
<glyph unicode="l" horiz-adv-x="256" d="M68 0V10Q75 20 78 44T83 98T85 161T85 220V518Q85 545 85 578T84 642T79 697T68 730V739H188V730Q181 721 178 697T173 642T171 578T171 518V220Q171 193 171 161T172 99T177 44T188 10V0H68Z"  />
<glyph unicode="m" horiz-adv-x="852" d="M671 0V11Q677 20 680 44T685 98T687 161T687 221V293Q687 359 665 388T592 418Q556 418 531 408T470 377Q472 369 473 358T474 333Q474 300 473 264T472 191Q472 174 472 148T473 94T478 44T489 11V0H369V11Q376 20 379 44T384 98T386 161T386 221V293Q386 359 365 388T291 418Q256 418 230 406T170 374V221Q170 194 170 162T172 99T177 45T187 11V0H67V11Q74 20 77 44T82 98T84 161T84 221V268Q84 295 84 327T82 390T77 445T66 479V489H170V435L265 482Q276 488 288 492T314 496Q365 496 398 478T450 427L560 481Q571 488 584 492T611 496Q690 496 733 451T776 333Q776 300 775 264T773 191Q773 174 773 148T775 94T780 44T790 11V0H671Z"  />
<glyph unicode="n" horiz-adv-x="564" d="M383 0V11Q390 21 393 45T398 99T400 161T400 221V293Q400 359 376 388T295 418Q266 418 233 405T170 371V221Q170 194 170 162T172 99T177 45T187 11V0H67V11Q74 20 77 44T82 98T84 161T84 221V268Q84 295 84 327T82 390T77 445T66 479V489H170V434L275 483Q286 488 297 492T332 496Q367 496 396 484T445 451T477 399T489 333Q489 300 487 264T485 191Q485 174 485 148T487 94T492 44T503 11V0H383Z"  />
<glyph unicode="o" horiz-adv-x="559" d="M520 247Q520 191 502 144T450 64T372 11T271 -8Q218 -8 176 10T103 61T56 140T39 242Q39 298 57 345T109 425T187 478T288 497Q340 497 383 479T456 427T503 348T520 247ZM424 235Q424 331 383 385T275 440Q211 440 173 394T135 254Q135 157 176 103T283 49Q349 49 386 95T424 235Z"  />
<glyph unicode="p" horiz-adv-x="554" d="M517 271Q517 212 491 162T423 76T327 19T217 -2Q209 -2 198 0T170 6V-3Q170 -30 170 -62T171 -124T177 -177T190 -211V-221H67V-211Q74 -202 77 -178T82 -123T84 -59T84 1V266Q84 293 84 326T83 390T77 445T66 479V489H169V434L270 480Q284 487 296 491T321 496Q360 496 395 480T458 435T501 364T517 271ZM428 237Q428 321 389 371T281 421Q254 421 226 406T170 369V87Q192 76 217 72T267 67Q290 67 311 72T350 88Q387 107 407 143T428 237Z"  />
<glyph unicode="q" horiz-adv-x="556" d="M492 479Q485 470 481 446T476 391T474 327T474 267V1Q474 -26 474 -59T475 -122T480 -177T491 -211V-221H368V-211Q376 -202 380 -178T386 -123T388 -59T388 1V52L274 -1Q260 -4 249 -5T227 -6Q193 -6 159 11T98 59T54 135T37 235Q37 292 56 339T107 422T181 476T270 496Q305 496 334 488T388 453V489H492V479ZM388 382Q366 411 337 421T271 432Q204 432 167 386T129 259Q129 217 138 182T164 122T208 82T270 68Q301 68 328 80T388 113V382Z"  />
<glyph unicode="r" horiz-adv-x="378" d="M361 391Q314 401 259 401Q239 401 215 384T170 347V221Q170 194 170 162T172 99T178 45T188 11V0H67V11Q74 20 77 44T82 98T84 161T84 221V268Q84 295 84 327T82 390T77 445T66 479V489H170V406L276 483Q289 493 311 493Q315 493 322 493T338 492T355 491T369 490V391H361Z"  />
<glyph unicode="s" horiz-adv-x="433" d="M397 158Q397 122 379 92T328 40T253 5T161 -8Q103 -8 45 21V114H53Q79 93 124 79T218 64Q246 64 267 68T299 83Q313 97 313 127Q313 159 297 173T247 197L151 224Q51 254 51 345Q51 378 68 406T115 454T182 485T261 497Q296 497 330 491T381 476V388H372Q363 394 346 401T307 414T259 425T206 430Q198 430 180 429T149 417Q143 411 139 400T134 371Q134 340 152 324T216 295L295 272Q346 258 371 231T397 158Z"  />
<glyph unicode="t" horiz-adv-x="338" d="M177 431V167Q177 140 180 119T194 85T222 64T270 57Q282 57 294 59T316 65H325V7Q307 4 277 1T219 -7Q145 0 117 33T88 127Q88 155 88 178T90 222T91 264T92 311Q92 329 92 360T93 431H17V487H95V621H189V611Q184 605 182 591T179 559T178 522T177 487H327V431H177Z"  />
<glyph unicode="u" horiz-adv-x="563" d="M393 0V55L287 6Q274 1 265 -3T231 -7Q196 -7 168 5T119 38T87 90T75 156Q75 189 76 225T78 298Q78 315 78 341T76 395T71 445T61 478V489H180V478Q174 469 171 445T166 391T164 327T164 267V196Q164 130 188 100T269 70Q298 70 331 83T393 117V267Q393 294 393 327T391 390T386 445T376 478V489H496V478Q489 469 486 445T481 391T479 327T479 267V220Q479 193 479 161T480 99T485 45T496 10V0H393Z"  />
<glyph unicode="v" horiz-adv-x="498" d="M497 478Q486 468 475 451T452 411T430 365T409 316L276 -1H215L93 317Q84 339 75 363T55 410T33 450T11 478V489H147V478Q143 468 143 458Q143 446 148 426T161 381T180 327T201 268L257 115L321 268Q329 289 340 316T360 370T377 422T384 460Q384 470 381 478V489H497V478H497Z"  />
<glyph unicode="w" horiz-adv-x="783" d="M770 478Q759 468 749 451T729 411T710 365T692 316L580 -1H512L394 338L263 -1H195L91 317Q83 340 75 364T58 411T38 450T16 478V489H151V478Q147 468 147 458Q147 442 151 421T163 374T178 320T195 265L242 110L305 268Q314 290 323 316T341 370T354 421T360 465Q360 470 357 478V489H453V478Q449 471 449 463Q449 447 453 425T464 378T480 324T499 267L554 110L608 267Q615 289 624 315T641 367T654 418T659 460Q659 470 656 478V489H770V478H770Z"  />
<glyph unicode="x" horiz-adv-x="510" d="M357 0V10Q361 18 361 23Q358 32 348 48T325 84T297 123T269 160L243 202L206 147Q193 129 180 112T156 78T137 47T126 23Q125 20 127 17T131 9V0H7V10Q27 23 53 53T114 128L207 245L121 365Q96 400 80 419T53 450T34 466T16 479V489H163V479Q161 476 160 473T159 467Q162 458 172 442T196 406T223 366T250 329L267 300L295 342Q321 377 344 411T375 466Q376 469 374 472T370 480V489H494V479Q473 466 450 439T387 361L304 255L400 124Q425 89 441 70T467 39T486 23T504 10V0H357Z"  />
<glyph unicode="y" horiz-adv-x="488" d="M487 478Q476 468 465 451T444 411T423 364T404 316L246 -83Q220 -150 172 -188T73 -226Q64 -226 47 -225T19 -219V-125H29Q35 -127 44 -129T62 -132T80 -134T93 -135Q116 -135 130 -132T156 -120Q164 -113 171 -103T185 -76T200 -39T219 12L96 317Q87 338 77 362T56 408T34 449T11 478V489H147V478Q143 468 143 458Q143 447 149 425T164 375T183 320T204 267L262 125L316 268Q323 287 333 313T352 367T367 419T374 459Q374 468 370 478V489H487V478H487Z"  />
<glyph unicode="z" horiz-adv-x="448" d="M417 -12Q408 -5 384 -2T330 2T267 3T207 3H31V57Q76 115 112 162T180 251T243 336T311 430H267Q240 430 207 430T144 428T89 421T55 407H44V501H55Q64 494 88 491T142 487T205 486T265 486H420V443Q392 406 357 360T283 262T205 159T131 59H205Q232 59 265 59T328 61T383 67T417 81H428V-12H417Z"  />
<glyph unicode="{" horiz-adv-x="445" d="M376 -184Q361 -184 340 -183T296 -176T250 -159T209 -130T179 -85T167 -20Q167 -9 168 6T171 36Q173 55 174 71T176 99Q176 142 169 167T144 207T100 229T34 245V292Q73 299 100 306T144 329T168 369T176 438Q176 449 175 464T172 496Q170 513 169 529T167 557Q167 595 178 622T208 667T250 695T296 711T340 718T376 720V659Q357 659 334 657T291 644T258 608T244 539V433Q244 384 231 354T200 306T161 281T124 270V266Q140 263 160 256T199 231T231 183T244 103V-2Q244 -46 257 -70T291 -106T334 -120T376 -122V-184H376Z"  />
<glyph unicode="|" horiz-adv-x="420" d="M179 -170V739H241V-170H179Z"  />
<glyph unicode="}" horiz-adv-x="445" d="M411 245Q372 237 345 230T301 208T277 168T269 99Q269 87 270 71T274 36Q276 21 277 6T278 -20Q278 -77 254 -110T195 -159T126 -180T69 -184V-122Q88 -122 111 -120T154 -107T187 -71T201 -2V103Q201 152 214 182T245 231T284 256T321 266V270Q305 273 285 280T246 305T214 353T201 433V539Q201 583 188 607T154 643T111 657T69 659V720Q91 720 126 716T195 696T253 647T278 557Q278 545 277 529T273 496Q271 479 270 464T269 438Q269 395 276 370T300 329T344 307T411 292V245H411Z"  />
<glyph unicode="~" horiz-adv-x="600" d="M527 374Q527 338 520 304T496 244T456 201T399 185Q376 185 360 190T330 204T306 224T284 249Q266 270 248 290T204 311Q186 311 174 302T154 276T142 236T137 186H73Q74 221 81 255T104 315T143 358T201 375Q224 375 241 370T271 355T295 335T317 311Q335 289 353 268T396 247Q414 247 426 256T447 283T459 324T464 374H527H527Z"  />
<glyph unicode="&#xA0;" horiz-adv-x="274" />
<glyph unicode="&#xA1;" horiz-adv-x="326" d="M105 373V489H220V373H105ZM96 -180V-171Q102 -161 106 -138T113 -86T118 -23T122 41L140 296H187L204 41Q206 13 208 -19T213 -82T220 -137T230 -171V-180H96Z"  />
<glyph unicode="&#xA2;" horiz-adv-x="495" d="M448 47Q426 38 409 31T375 19T344 9T310 1V-113H272V-2Q226 0 187 17T120 67T77 144T61 245Q61 297 79 340T127 414T195 465T272 489V592H310V492Q358 491 392 481T443 463V375H434Q407 389 380 401T310 420V68Q334 68 352 71T384 81T411 95T438 113H448V47ZM272 422H254Q238 422 222 418T190 400Q173 383 163 348T152 250Q152 167 185 125T272 71V422Z"  />
<glyph unicode="&#xA3;" horiz-adv-x="550" d="M203 265V198Q203 163 183 129T132 76H295Q323 76 354 76T414 77T465 82T497 93H508V-14H497Q488 -8 465 -5T413 0T353 1T295 1H275Q248 1 217 1T154 0T98 -3T57 -11H46V47Q59 51 70 54T93 73Q99 81 103 96T110 131T114 171T115 214V265H56V311H115V418Q115 463 132 506T180 582T254 636T348 656Q377 656 410 650T471 632V545H463Q425 562 380 572T295 583Q244 583 225 559Q211 542 207 515T203 450V311H385V265H203Z"  />
<glyph unicode="&#xA4;" horiz-adv-x="601" d="M527 66Q516 55 506 44T485 22L418 89Q367 50 301 50Q275 50 244 58T184 89Q167 72 151 56T117 22Q106 33 96 44T74 66Q108 97 142 131Q125 156 115 185T104 246Q104 278 113 307T142 361Q125 378 108 394T74 427Q85 438 95 449T117 471Q134 454 150 438T184 404Q214 425 244 433T301 442Q329 442 360 433T417 404Q434 421 451 437T485 471Q496 460 506 449T527 427Q510 410 493 394T459 361Q480 334 489 304T498 246Q498 215 488 186T459 131Q476 114 493 98T527 66ZM437 247Q437 277 426 302T395 344T352 372T302 382Q272 382 247 371T204 342T175 299T164 247Q164 219 175 194T204 151T248 121T301 110Q329 110 354 121T397 150T426 194T437 247Z"  />
<glyph unicode="&#xA5;" horiz-adv-x="634" d="M264 0V11Q268 17 271 31T277 64T280 104T282 144H101V188H282V273V281H101V325H255L169 470Q151 501 136 525T106 569T77 604T45 633V641H197V633Q195 628 194 623T193 606Q193 600 196 591T210 561T241 506T295 416L338 346L377 415Q401 458 418 489T447 542T465 581T471 609Q471 624 468 633V641H593V633Q576 620 563 606T537 574T508 530T473 468L392 325H534V281H366V273V188H534V144H366Q367 125 368 105T371 65T376 32T384 11V0H264Z"  />
<glyph unicode="&#xA6;" horiz-adv-x="420" d="M179 388V739H241V388H179ZM179 -170V181H241V-170H179Z"  />
<glyph unicode="&#xA7;" horiz-adv-x="586" d="M507 244Q507 219 500 200T479 160L407 104Q475 55 475 -3Q475 -45 456 -76T406 -129T340 -161T269 -172Q209 -172 169 -162T114 -143V-58H124Q132 -63 149 -72T191 -89T247 -104T312 -111Q349 -111 368 -88T388 -22Q388 1 378 17T348 47T304 71T249 95Q201 115 169 135T116 177T88 219T79 262Q79 305 104 342L179 403Q111 453 111 514Q111 551 130 581T180 633T246 667T316 679Q377 679 416 669T471 651V566L461 565Q453 570 436 579T394 596T339 611T274 618Q236 618 217 596T198 533Q198 510 208 493T237 462T281 437T337 412Q385 392 418 371T470 329T498 287T507 244ZM424 215Q424 241 413 261T381 298T332 329T269 357Q244 367 219 380Q186 362 174 338T162 294Q162 267 173 247T205 209T253 178T316 150Q330 145 343 139T368 127Q393 141 408 165T424 215Z"  />
<glyph unicode="&#xA8;" horiz-adv-x="254" d="M190 591V694H292V591H190ZM-38 591V694H64V591H-38Z"  />
<glyph unicode="&#xA9;" horiz-adv-x="1000" d="M645 112Q626 104 612 99T584 89T557 81T528 75H506Q461 75 422 90T354 134T309 201T292 286Q292 333 311 375T361 449T434 499T522 518Q570 518 599 508T641 493V416H627Q602 435 573 446T499 458Q478 458 460 456T434 450Q416 441 404 426T385 391T374 350T371 308Q371 273 381 241T412 185T464 146T538 131Q567 131 589 143T629 169H645V112ZM879 296Q879 217 849 147T767 25T645 -57T496 -87Q417 -87 347 -57T225 25T143 147T112 296Q112 375 142 445T225 567T347 649T496 679Q575 679 645 649T767 567T849 445T879 296ZM837 296Q837 367 811 429T738 538T630 612T496 639Q424 639 362 612T254 539T181 430T154 296Q154 224 180 162T253 53T362 -21T496 -48Q567 -48 629 -21T738 52T810 161T837 296Z"  />
<glyph unicode="&#xAA;" horiz-adv-x="487" d="M326 266L320 306L229 263Q218 261 207 261T189 261Q137 261 104 290T71 367Q71 412 96 438T159 480T240 501T318 509V549Q318 582 297 591T246 600Q229 600 209 596T171 586T137 574T113 564H106V632Q123 638 158 644T231 651Q265 651 294 645T345 627T379 595T392 550Q392 514 391 488T389 437Q389 381 393 336T411 274V266H326ZM318 455Q298 457 282 457T242 457Q234 457 227 457T213 455Q189 451 176 443T156 423T147 401T145 379Q145 316 216 316Q241 316 266 326T318 351V455Z"  />
<glyph unicode="&#xAB;" horiz-adv-x="512" d="M390 101L249 234V304L390 437H445V430L321 269L445 108V101H390ZM204 101L63 234V304L204 437H259V430L135 269L259 108V101H204Z"  />
<glyph unicode="&#xAC;" horiz-adv-x="600" d="M451 56V269H77V330H514V56H451Z"  />
<glyph unicode="&#xAD;" horiz-adv-x="402" d="M60 242V317H342V242H60Z"  />
<glyph unicode="&#xAE;" horiz-adv-x="556" d="M189 598Q203 599 225 600T265 602Q319 602 348 584T378 523Q378 512 372 500T358 479L323 456L363 409Q377 393 386 383T402 366T414 355T426 348V340H352Q351 342 351 346T349 352Q347 357 341 365T327 383T310 404T291 425L276 442L242 437V426Q242 416 242 404T244 381T246 361T251 348V340H189V348Q191 352 192 360T195 380T196 404T197 426V512Q197 522 197 534T196 558T194 578T189 591V598ZM328 529Q328 571 274 571Q258 571 242 568V470H278Q295 472 311 484T328 529ZM502 466Q502 420 485 380T437 309T365 261T278 243Q232 243 191 260T120 308T72 379T54 466Q54 512 71 553T119 624T191 671T278 689Q324 689 365 672T436 624T484 553T502 466ZM477 466Q477 507 462 543T419 607T356 650T278 666Q237 666 201 650T138 607T96 544T80 466Q80 425 95 389T138 325T201 282T278 266Q319 266 355 282T419 325T461 388T477 466Z"  />
<glyph unicode="&#xAF;" horiz-adv-x="254" d="M-38 591V657H292V591H-38Z"  />
<glyph unicode="&#xB0;" horiz-adv-x="425" d="M361 593Q361 558 350 530T318 481T268 450T205 438Q136 438 95 479T53 587Q53 620 64 648T97 696T148 728T214 739Q246 739 273 728T319 698T350 652T361 593ZM289 579Q289 603 283 625T265 663T239 688T204 698Q166 698 146 670T125 595Q125 544 149 512T213 479Q249 479 269 506T289 579Z"  />
<glyph unicode="&#xB1;" horiz-adv-x="600" d="M77 0V61H269V252H77V313H269V503H332V313H524V252H332V61H524V0H77Z"  />
<glyph unicode="&#xB2;" horiz-adv-x="459" d="M409 254Q401 259 382 261T337 265T286 266T240 266H232Q211 266 186 266T136 265T91 263T58 257H47V307Q86 327 127 352T203 407T258 468T280 535Q280 548 280 563T275 592T257 613T220 622Q200 622 179 618T138 607T103 594T78 583H69V658Q86 663 124 672T209 682Q236 682 263 674T312 649T347 608T361 554Q361 531 354 507T342 474Q324 450 306 432T267 398T222 366T169 332H249Q271 332 296 332T344 333T384 338T409 346H419V254H409Z"  />
<glyph unicode="&#xB3;" horiz-adv-x="418" d="M368 370Q368 353 362 337T346 307T324 282T300 262Q269 243 233 230T149 216Q117 216 91 224T51 235V308H61Q68 304 82 300T114 291T152 283T191 280Q205 280 228 282T269 294Q284 302 290 313T297 347Q297 369 288 384T262 410T224 424T180 429Q166 429 153 428T122 423L118 472Q124 473 134 475T155 479T176 484T192 489Q217 498 232 508T256 530T268 556T271 591Q271 603 265 610T257 620Q254 622 245 623T220 625Q171 625 134 613T80 593H70V664Q87 669 119 675T187 682Q221 682 250 676T300 659T333 630T345 590Q345 572 339 554T327 529Q322 525 301 511T253 480Q277 477 297 468T334 444T359 411T368 370Z"  />
<glyph unicode="&#xB4;" horiz-adv-x="254" d="M31 563V568L125 739H248V729Q228 716 202 689T133 613L89 563H31Z"  />
<glyph unicode="&#xB5;" horiz-adv-x="575" d="M405 0V55L303 6Q299 4 291 2T274 0Q249 0 218 7T164 25V-3Q164 -30 164 -62T165 -124T171 -177T184 -211V-221H71V-211Q78 -202 81 -178T86 -123T88 -59T88 1V298Q88 314 88 341T86 395T81 445T71 478V489H190V478Q184 469 181 445T176 391T174 327T174 267V176Q174 116 203 93T286 69Q315 69 345 83T405 117V267Q405 294 405 327T403 390T398 445T388 478V489H508V478Q501 469 498 445T493 391T491 327T491 267V220Q491 193 491 161T492 99T497 45T508 10V0H405Z"  />
<glyph unicode="&#xB6;" horiz-adv-x="510" d="M310 -172V-161Q316 -152 320 -129T326 -77T329 -15T330 44V256L202 274Q164 288 130 306T76 351Q57 375 46 405T35 472Q35 515 50 552T97 615T180 657T303 672Q321 672 349 671T412 668V658Q406 649 402 627T396 576T394 517T393 461V49Q393 22 393 -10T396 -73T403 -128T413 -161V-172H310Z"  />
<glyph unicode="&#xB7;" horiz-adv-x="310" d="M98 280V396H213V280H98Z"  />
<glyph unicode="&#xB8;" horiz-adv-x="254" d="M224 -11Q224 -43 218 -70T197 -117Q176 -145 146 -161T78 -178Q62 -178 45 -175T19 -167V-93H27Q43 -102 68 -107T111 -113Q146 -113 163 -88Q169 -80 169 -46Q169 -23 168 -7T164 22H222Q223 16 223 6T224 -11Z"  />
<glyph unicode="&#xB9;" horiz-adv-x="344" d="M254 663Q248 656 245 639T240 598T238 550T237 501V432Q237 411 237 386T238 338T243 296T252 269V261H149V269Q154 277 156 295T160 337T161 386T161 432V608L61 574L50 622L254 674V663H254Z"  />
<glyph unicode="&#xBA;" horiz-adv-x="535" d="M467 458Q467 414 452 378T410 316T344 275T261 260Q217 260 182 274T121 313T82 375T68 454Q68 497 83 533T125 595T191 636T275 651Q318 651 353 637T414 598T453 537T467 458ZM386 448Q386 523 352 564T264 606Q211 606 180 571T149 463Q149 388 182 347T270 305Q324 305 355 340T386 448Z"  />
<glyph unicode="&#xBB;" horiz-adv-x="512" d="M122 101H67V108L191 269L67 430V437H122L263 304V234L122 101ZM308 101H253V108L377 269L253 430V437H308L449 304V234L308 101Z"  />
<glyph unicode="&#xBC;" horiz-adv-x="920" d="M254 663Q248 656 245 639T240 598T238 550T237 501V432Q237 411 237 386T238 338T243 296T252 269V261H149V269Q154 277 156 295T160 337T161 386T161 432V608L61 574L50 622L254 674V663ZM223 -12H162L584 668H645L223 -12ZM722 83Q722 67 722 45T723 2T726 -38T734 -64V-72H637V-64Q642 -57 645 -39T649 0T650 44T650 82H608Q551 82 506 82T443 72H438L418 121L651 424H731V417Q727 410 725 392T723 351T722 303T722 257V138Q756 139 784 142T825 151H832V107L722 83ZM486 138H650V260Q650 275 650 291T652 321T654 345T656 361L486 138Z"  />
<glyph unicode="&#xBD;" horiz-adv-x="920" d="M254 663Q248 656 245 639T240 598T238 550T237 501V432Q237 411 237 386T238 338T243 296T252 269V261H149V269Q154 277 156 295T160 337T161 386T161 432V608L61 574L50 622L254 674V663ZM223 -12H162L584 668H645L223 -12ZM890 -11Q883 -6 865 -4T824 0T776 1T730 1H713Q692 1 667 1T617 0T572 -2T539 -8H528V42Q567 62 608 87T684 142T739 203T761 270Q761 277 761 288T758 312T752 334T740 350Q735 353 724 355T701 357Q681 357 660 353T619 342T584 329T559 318H550V393Q567 398 605 407T690 417Q717 417 744 409T793 384T828 343T842 289Q842 266 835 242T823 209Q805 185 787 167T748 133T703 101T650 67H730Q752 67 777 67T824 68T865 73T890 81H900V-11H890Z"  />
<glyph unicode="&#xBE;" horiz-adv-x="920" d="M368 370Q368 353 362 337T346 307T324 282T300 262Q269 243 233 230T149 216Q117 216 91 224T51 235V308H61Q68 304 82 300T114 291T152 283T191 280Q205 280 228 282T269 294Q284 302 290 313T297 347Q297 369 288 384T262 410T224 424T180 429Q166 429 153 428T122 423L118 472Q124 473 134 475T155 479T176 484T192 489Q217 498 232 508T256 530T268 556T271 591Q271 603 265 610T257 620Q254 622 245 623T220 625Q171 625 134 613T80 593H70V664Q87 669 119 675T187 682Q221 682 250 676T300 659T333 630T345 590Q345 572 339 554T327 529Q322 525 301 511T253 480Q277 477 297 468T334 444T359 411T368 370ZM298 -12H237L659 668H720L298 -12ZM787 83Q787 67 787 45T788 2T791 -38T799 -64V-72H702V-64Q707 -57 710 -39T714 0T715 44T715 82H673Q616 82 571 82T508 72H503L483 121L716 424H796V417Q792 410 790 392T788 351T787 303T787 257V138Q821 139 849 142T890 151H897V107L787 83ZM551 138H715V260Q715 275 715 291T717 321T719 345T721 361L551 138Z"  />
<glyph unicode="&#xBF;" horiz-adv-x="475" d="M195 373V489H310V373H195ZM404 -151Q393 -156 377 -162T340 -176T291 -187T230 -192Q197 -192 164 -182T104 -154T60 -107T43 -43Q43 -5 53 22T70 59Q85 80 101 97T134 130T171 159T213 189L229 298H277L294 164Q263 146 234 127T183 87T148 40T135 -16Q135 -27 136 -41T141 -68T149 -93T162 -110Q167 -114 184 -118T216 -122Q246 -122 273 -115T324 -97T365 -76T394 -58H404V-151Z"  />
<glyph unicode="&#xC0;" horiz-adv-x="663" d="M512 0V9Q514 14 516 21T517 37Q517 52 513 71T501 119T478 184T444 271H195Q180 236 166 201T141 135T122 77T115 34Q114 26 115 20T118 9V0H-11V9Q4 22 20 47T51 103T82 169T112 237L295 669H381L554 235Q567 203 580 169T608 104T638 48T669 9V0H512ZM323 571L220 331H420L323 571ZM341 718L297 768Q256 816 229 843T182 884V894H305L399 723V718H341Z"  />
<glyph unicode="&#xC1;" horiz-adv-x="663" d="M512 0V9Q514 14 516 21T517 37Q517 52 513 71T501 119T478 184T444 271H195Q180 236 166 201T141 135T122 77T115 34Q114 26 115 20T118 9V0H-11V9Q4 22 20 47T51 103T82 169T112 237L295 669H381L554 235Q567 203 580 169T608 104T638 48T669 9V0H512ZM323 571L220 331H420L323 571ZM284 718V723L378 894H501V884Q481 871 455 844T386 768L342 718H284Z"  />
<glyph unicode="&#xC2;" horiz-adv-x="663" d="M512 0V9Q514 14 516 21T517 37Q517 52 513 71T501 119T478 184T444 271H195Q180 236 166 201T141 135T122 77T115 34Q114 26 115 20T118 9V0H-11V9Q4 22 20 47T51 103T82 169T112 237L295 669H381L554 235Q567 203 580 169T608 104T638 48T669 9V0H512ZM323 571L220 331H420L323 571ZM430 716L332 830L234 716H175V721L289 892H379L489 721V716H430Z"  />
<glyph unicode="&#xC3;" horiz-adv-x="663" d="M512 0V9Q514 14 516 21T517 37Q517 52 513 71T501 119T478 184T444 271H195Q180 236 166 201T141 135T122 77T115 34Q114 26 115 20T118 9V0H-11V9Q4 22 20 47T51 103T82 169T112 237L295 669H381L554 235Q567 203 580 169T608 104T638 48T669 9V0H512ZM323 571L220 331H420L323 571ZM514 865Q511 841 501 819T476 781T442 755T400 745Q384 745 368 749T324 768Q301 780 285 785T259 790Q237 790 226 775T209 738H161Q164 762 174 784T201 822T236 848T278 858Q293 858 313 853T355 836Q379 824 394 819T419 814Q441 814 451 829T466 865H514H514Z"  />
<glyph unicode="&#xC4;" horiz-adv-x="663" d="M512 0V9Q514 14 516 21T517 37Q517 52 513 71T501 119T478 184T444 271H195Q180 236 166 201T141 135T122 77T115 34Q114 26 115 20T118 9V0H-11V9Q4 22 20 47T51 103T82 169T112 237L295 669H381L554 235Q567 203 580 169T608 104T638 48T669 9V0H512ZM323 571L220 331H420L323 571ZM394 743V846H496V743H394ZM166 743V846H268V743H166Z"  />
<glyph unicode="&#xC5;" horiz-adv-x="663" d="M512 0V9Q514 14 516 21T517 37Q517 52 513 71T501 119T478 184T444 271H195Q180 236 166 201T141 135T122 77T115 34Q114 26 115 20T118 9V0H-11V9Q4 22 20 47T51 103T82 169T112 237L295 669H381L554 235Q567 203 580 169T608 104T638 48T669 9V0H512ZM323 571L220 331H420L323 571ZM453 811Q453 787 444 767T418 731T380 708T333 699Q282 699 250 729T217 808Q217 832 226 852T252 887T291 910T340 919Q391 919 422 889T453 811ZM393 803Q393 838 376 861T333 884Q308 884 293 866T278 814Q278 778 296 756T340 734Q364 734 378 752T393 803Z"  />
<glyph unicode="&#xC6;" horiz-adv-x="974" d="M894 -15Q885 -8 861 -5T807 -1T743 1T683 1H451V12Q457 21 461 45T467 99T470 161T471 221V298H256Q233 259 205 211T155 120Q138 87 127 61T116 23Q116 14 118 9V0H-18V9Q0 22 20 47T62 104T104 170T145 237L294 490Q307 511 320 534T345 579T363 617T371 644Q371 653 369 658V667H683Q714 667 747 667T809 668T862 673T894 683H905V580H894Q885 587 861 591T807 598T743 602T683 603H564V360H665Q692 360 725 360T788 363T843 370T876 381H886V278H876Q867 285 843 289T789 295T725 297T665 298H564V65H683Q710 65 743 66T806 69T861 76T894 88H905V-15H894ZM471 603H436L291 358H471V603Z"  />
<glyph unicode="&#xC7;" horiz-adv-x="617" d="M583 44Q544 27 515 17T456 -1Q456 -7 456 -13T457 -25Q457 -57 451 -84T430 -131Q409 -159 378 -176T308 -193Q292 -193 274 -189T246 -181V-107H254Q270 -116 296 -121T341 -127Q379 -127 396 -102Q402 -94 402 -60Q402 -52 401 -38T399 -12H372Q303 -12 243 12T138 81T68 185T42 317Q42 392 69 458T145 573T258 650T397 678Q435 678 465 674T517 663T555 651T578 641V541H570Q528 567 478 585T360 604Q326 604 298 599T257 589Q226 574 205 548T169 489T149 420T142 351Q142 293 159 241T212 149T300 86T422 62Q470 62 505 80T572 118H583V44H583Z"  />
<glyph unicode="&#xC8;" horiz-adv-x="616" d="M536 -15Q527 -8 503 -5T449 -1T385 1T325 1H87V12Q93 21 97 45T103 99T105 161T106 221V447Q106 474 106 506T103 569T98 624T87 658V667H325Q352 667 385 667T448 668T503 673T536 683H547V580H536Q527 587 503 591T449 598T385 602T325 603H199V375H307Q334 375 367 375T430 378T485 385T518 396H528V291H518Q509 298 485 302T431 308T367 310T307 311H199V65H325Q352 65 385 66T448 69T503 76T536 88H547V-15H536ZM337 718L293 768Q252 816 225 843T178 884V894H301L395 723V718H337Z"  />
<glyph unicode="&#xC9;" horiz-adv-x="616" d="M536 -15Q527 -8 503 -5T449 -1T385 1T325 1H87V12Q93 21 97 45T103 99T105 161T106 221V447Q106 474 106 506T103 569T98 624T87 658V667H325Q352 667 385 667T448 668T503 673T536 683H547V580H536Q527 587 503 591T449 598T385 602T325 603H199V375H307Q334 375 367 375T430 378T485 385T518 396H528V291H518Q509 298 485 302T431 308T367 310T307 311H199V65H325Q352 65 385 66T448 69T503 76T536 88H547V-15H536ZM272 718V723L366 894H489V884Q469 871 443 844T374 768L330 718H272Z"  />
<glyph unicode="&#xCA;" horiz-adv-x="616" d="M536 -15Q527 -8 503 -5T449 -1T385 1T325 1H87V12Q93 21 97 45T103 99T105 161T106 221V447Q106 474 106 506T103 569T98 624T87 658V667H325Q352 667 385 667T448 668T503 673T536 683H547V580H536Q527 587 503 591T449 598T385 602T325 603H199V375H307Q334 375 367 375T430 378T485 385T518 396H528V291H518Q509 298 485 302T431 308T367 310T307 311H199V65H325Q352 65 385 66T448 69T503 76T536 88H547V-15H536ZM421 718L323 832L225 718H166V723L280 894H370L480 723V718H421Z"  />
<glyph unicode="&#xCB;" horiz-adv-x="616" d="M536 -15Q527 -8 503 -5T449 -1T385 1T325 1H87V12Q93 21 97 45T103 99T105 161T106 221V447Q106 474 106 506T103 569T98 624T87 658V667H325Q352 667 385 667T448 668T503 673T536 683H547V580H536Q527 587 503 591T449 598T385 602T325 603H199V375H307Q334 375 367 375T430 378T485 385T518 396H528V291H518Q509 298 485 302T431 308T367 310T307 311H199V65H325Q352 65 385 66T448 69T503 76T536 88H547V-15H536ZM385 751V854H487V751H385ZM157 751V854H259V751H157Z"  />
<glyph unicode="&#xCC;" horiz-adv-x="311" d="M90 0V11Q96 20 100 44T106 98T108 161T109 221V447Q109 474 109 507T106 570T101 625T90 659V668H221V659Q214 649 211 625T205 571T203 507T202 447V221Q202 194 202 162T205 99T211 44T221 11V0H90ZM175 718L131 768Q90 816 63 843T16 884V894H139L233 723V718H175Z"  />
<glyph unicode="&#xCD;" horiz-adv-x="311" d="M90 0V11Q96 20 100 44T106 98T108 161T109 221V447Q109 474 109 507T106 570T101 625T90 659V668H221V659Q214 649 211 625T205 571T203 507T202 447V221Q202 194 202 162T205 99T211 44T221 11V0H90ZM73 718V723L167 894H290V884Q270 871 244 844T175 768L131 718H73Z"  />
<glyph unicode="&#xCE;" horiz-adv-x="311" d="M248 718L156 832L64 718H5V723L113 894H203L307 723V718H248ZM90 0V11Q96 20 100 44T106 98T108 161T109 221V447Q109 474 109 507T106 570T101 625T90 659V668H221V659Q214 649 211 625T205 571T203 507T202 447V221Q202 194 202 162T205 99T211 44T221 11V0H90Z"  />
<glyph unicode="&#xCF;" horiz-adv-x="311" d="M209 751V854H311V751H209ZM0 751V854H102V751H0ZM90 0V11Q96 20 100 44T106 98T108 161T109 221V447Q109 474 109 507T106 570T101 625T90 659V668H221V659Q214 649 211 625T205 571T203 507T202 447V221Q202 194 202 162T205 99T211 44T221 11V0H90Z"  />
<glyph unicode="&#xD0;" horiz-adv-x="708" d="M666 350Q666 275 641 211T568 99T454 25T301 -2Q286 -2 259 -2T201 -2T140 -1T87 0V11Q93 20 97 44T103 98T105 160T106 220V313H29V373H106V448Q106 509 104 544T99 604L76 654V668Q95 668 123 668T182 669T244 670T298 671Q389 671 457 648T572 582T642 480T666 350ZM565 331Q565 386 556 435T521 522T449 582T328 604Q291 604 258 601T199 594V373H379V313H199V74Q225 67 258 63T333 59Q368 59 396 67T435 81Q471 99 496 128T536 192T558 263T565 331Z"  />
<glyph unicode="&#xD1;" horiz-adv-x="754" d="M692 657Q685 648 680 626T671 576T665 516T663 457V155Q663 125 663 87T667 3V-8H599V-1Q589 17 564 49T513 114Q467 172 428 220T352 315T276 406T193 505V211Q193 187 194 157T199 97T208 44T221 11V0H97V11Q104 20 109 42T118 92T124 152T126 211V580Q99 613 82 630T53 655V668H184Q188 661 197 648T220 617T247 582T276 546Q321 489 361 439T441 342T518 250T596 156V457Q596 481 594 511T589 571T579 624T566 657V668H692V657H692ZM569 865Q566 841 556 819T531 781T497 755T455 745Q439 745 423 749T379 768Q356 780 340 785T314 790Q292 790 281 775T264 738H216Q219 762 229 784T256 822T291 848T333 858Q348 858 368 853T410 836Q434 824 449 819T474 814Q496 814 506 829T521 865H569H569Z"  />
<glyph unicode="&#xD2;" horiz-adv-x="738" d="M696 342Q696 266 670 201T597 88T489 13T354 -14Q285 -14 228 11T130 80T65 187T42 324Q42 402 67 467T139 579T247 653T383 679Q452 679 509 655T608 586T673 479T696 342ZM594 316Q594 392 577 448T530 543T459 600T371 619Q327 619 286 601T214 549T163 463T144 344Q144 273 161 218T210 124T282 66T371 46Q416 46 456 64T527 116T576 201T594 316ZM395 718L351 768Q310 816 283 843T236 884V894H359L453 723V718H395Z"  />
<glyph unicode="&#xD3;" horiz-adv-x="738" d="M696 342Q696 266 670 201T597 88T489 13T354 -14Q285 -14 228 11T130 80T65 187T42 324Q42 402 67 467T139 579T247 653T383 679Q452 679 509 655T608 586T673 479T696 342ZM594 316Q594 392 577 448T530 543T459 600T371 619Q327 619 286 601T214 549T163 463T144 344Q144 273 161 218T210 124T282 66T371 46Q416 46 456 64T527 116T576 201T594 316ZM305 718V723L399 894H522V884Q502 871 476 844T407 768L363 718H305Z"  />
<glyph unicode="&#xD4;" horiz-adv-x="738" d="M696 342Q696 266 670 201T597 88T489 13T354 -14Q285 -14 228 11T130 80T65 187T42 324Q42 402 67 467T139 579T247 653T383 679Q452 679 509 655T608 586T673 479T696 342ZM594 316Q594 392 577 448T530 543T459 600T371 619Q327 619 286 601T214 549T163 463T144 344Q144 273 161 218T210 124T282 66T371 46Q416 46 456 64T527 116T576 201T594 316ZM470 718L372 832L274 718H215V723L329 894H419L529 723V718H470Z"  />
<glyph unicode="&#xD5;" horiz-adv-x="738" d="M696 342Q696 266 670 201T597 88T489 13T354 -14Q285 -14 228 11T130 80T65 187T42 324Q42 402 67 467T139 579T247 653T383 679Q452 679 509 655T608 586T673 479T696 342ZM594 316Q594 392 577 448T530 543T459 600T371 619Q327 619 286 601T214 549T163 463T144 344Q144 273 161 218T210 124T282 66T371 46Q416 46 456 64T527 116T576 201T594 316ZM556 872Q553 848 543 826T518 788T484 762T442 752Q426 752 410 756T366 775Q343 787 327 792T301 797Q279 797 268 782T251 745H203Q206 769 216 791T243 829T278 855T320 865Q335 865 355 860T397 843Q421 831 436 826T461 821Q483 821 493 836T508 872H556H556Z"  />
<glyph unicode="&#xD6;" horiz-adv-x="738" d="M696 342Q696 266 670 201T597 88T489 13T354 -14Q285 -14 228 11T130 80T65 187T42 324Q42 402 67 467T139 579T247 653T383 679Q452 679 509 655T608 586T673 479T696 342ZM594 316Q594 392 577 448T530 543T459 600T371 619Q327 619 286 601T214 549T163 463T144 344Q144 273 161 218T210 124T282 66T371 46Q416 46 456 64T527 116T576 201T594 316ZM431 751V854H533V751H431ZM203 751V854H305V751H203Z"  />
<glyph unicode="&#xD7;" horiz-adv-x="600" d="M462 76L301 239L139 76L97 118L260 279L98 440L139 482L301 318L462 482L503 440L341 279L504 118L462 76Z"  />
<glyph unicode="&#xD8;" horiz-adv-x="738" d="M696 342Q696 266 670 201T597 88T489 13T354 -14Q271 -14 203 26L161 -42H116L171 46Q111 91 77 162T42 324Q42 402 67 467T139 579T247 653T383 679Q427 679 466 669T539 638L571 690H616L570 617Q629 572 662 501T696 342ZM500 576Q474 598 441 608T371 619Q327 619 286 601T212 549T161 463T141 344Q141 269 160 210T214 113L500 576ZM597 316Q597 395 579 454T528 551L242 89Q297 46 371 46Q416 46 457 64T529 116T578 201T597 316Z"  />
<glyph unicode="&#xD9;" horiz-adv-x="738" d="M541 0V76L379 6Q363 -1 346 -4T297 -8Q247 -8 210 6T149 46T112 105T100 178Q100 196 100 217T102 260T103 303T104 342V447Q104 474 104 507T101 570T95 625T84 659V668H216V659Q209 649 206 625T200 571T198 507T197 447V220Q197 72 357 72Q408 72 453 94T541 143V447Q541 474 541 507T538 570T532 625T521 659V668H653V659Q646 649 643 625T637 571T635 507T634 447V221Q634 194 634 162T637 99T644 44T654 11V0H541ZM384 718L340 768Q299 816 272 843T225 884V894H348L442 723V718H384Z"  />
<glyph unicode="&#xDA;" horiz-adv-x="738" d="M541 0V76L379 6Q363 -1 346 -4T297 -8Q247 -8 210 6T149 46T112 105T100 178Q100 196 100 217T102 260T103 303T104 342V447Q104 474 104 507T101 570T95 625T84 659V668H216V659Q209 649 206 625T200 571T198 507T197 447V220Q197 72 357 72Q408 72 453 94T541 143V447Q541 474 541 507T538 570T532 625T521 659V668H653V659Q646 649 643 625T637 571T635 507T634 447V221Q634 194 634 162T637 99T644 44T654 11V0H541ZM310 718V723L404 894H527V884Q507 871 481 844T412 768L368 718H310Z"  />
<glyph unicode="&#xDB;" horiz-adv-x="738" d="M541 0V76L379 6Q363 -1 346 -4T297 -8Q247 -8 210 6T149 46T112 105T100 178Q100 196 100 217T102 260T103 303T104 342V447Q104 474 104 507T101 570T95 625T84 659V668H216V659Q209 649 206 625T200 571T198 507T197 447V220Q197 72 357 72Q408 72 453 94T541 143V447Q541 474 541 507T538 570T532 625T521 659V668H653V659Q646 649 643 625T637 571T635 507T634 447V221Q634 194 634 162T637 99T644 44T654 11V0H541ZM469 718L371 832L273 718H214V723L328 894H418L528 723V718H469Z"  />
<glyph unicode="&#xDC;" horiz-adv-x="738" d="M541 0V76L379 6Q363 -1 346 -4T297 -8Q247 -8 210 6T149 46T112 105T100 178Q100 196 100 217T102 260T103 303T104 342V447Q104 474 104 507T101 570T95 625T84 659V668H216V659Q209 649 206 625T200 571T198 507T197 447V220Q197 72 357 72Q408 72 453 94T541 143V447Q541 474 541 507T538 570T532 625T521 659V668H653V659Q646 649 643 625T637 571T635 507T634 447V221Q634 194 634 162T637 99T644 44T654 11V0H541ZM440 751V854H542V751H440ZM212 751V854H314V751H212Z"  />
<glyph unicode="&#xDD;" horiz-adv-x="621" d="M626 659Q609 646 591 624T555 572T516 508T475 437L408 318Q401 306 388 283T364 240V226Q364 199 364 166T367 101T373 45T383 11V0H252V11Q258 20 262 44T268 100T270 164T271 225V240L153 440Q134 472 114 505T75 568T36 622T-2 659V668H161V659Q159 654 158 649T157 631Q157 620 187 559T289 383L332 314L370 382Q395 426 417 466T457 539T484 597T494 634Q494 650 491 659V668H626V659H626ZM277 718V723L371 894H494V884Q474 871 448 844T379 768L335 718H277Z"  />
<glyph unicode="&#xDE;" horiz-adv-x="578" d="M543 360Q543 323 531 289T501 231Q468 198 437 181T365 149L200 123Q200 84 205 54T218 11V0H87V11Q93 20 97 44T103 98T105 161T106 221V448Q106 475 106 507T103 570T98 625T87 659V668H218V657Q211 647 205 621T199 561Q214 562 229 562T258 562Q334 562 388 548T476 507T527 444T543 360ZM442 369Q442 441 404 472T288 503Q268 503 246 501T199 495V195Q219 193 243 192T303 190Q323 190 347 200T393 232T428 288T442 369Z"  />
<glyph unicode="&#xDF;" horiz-adv-x="579" d="M550 167Q550 129 531 97T481 42T412 5T336 -8Q322 -8 302 -3T256 14V107H264Q290 86 330 72T412 57Q432 57 449 70T466 123Q466 143 463 156T453 180T433 201T401 224Q383 236 363 247T327 268Q316 275 305 283T285 302T271 330T265 368Q265 391 274 410T295 446T322 475T348 498Q362 511 376 521T399 541Q404 546 405 551T406 575Q406 603 394 623T363 657T320 676T272 683Q218 683 194 632T170 457V220Q170 193 170 161T171 99T176 44T187 10V0H68V10Q75 20 78 44T82 98T84 161T84 220V484Q84 552 105 601T160 681T237 728T324 743Q355 743 384 732T435 703T471 660T485 608Q485 573 481 552T472 517Q458 509 440 500T406 480Q385 464 369 447T352 409Q352 392 356 381T367 361T383 345T403 330Q414 321 436 308T481 279Q518 254 534 230T550 167Z"  />
<glyph unicode="&#xE0;" horiz-adv-x="508" d="M355 0L347 52L237 -4Q223 -6 210 -6T188 -7Q157 -7 131 3T86 31T57 75T46 130Q46 151 50 173T66 215Q84 243 119 261T196 290T277 306T345 313V365Q345 387 338 400T319 420T291 429T257 432Q236 432 212 427T166 414T126 398T97 385H89V472Q99 476 115 480T152 488T194 494T239 497Q279 497 314 489T376 465T417 425T432 367Q432 319 431 286T429 220Q429 184 430 151T434 90T442 41T456 10V0H355ZM345 244Q321 246 302 246T252 247Q217 247 185 236T143 196Q137 180 136 169T134 145Q134 105 156 84T220 63Q251 63 282 76T345 109V244ZM277 563L233 613Q192 661 165 688T118 729V739H241L335 568V563H277Z"  />
<glyph unicode="&#xE1;" horiz-adv-x="508" d="M355 0L347 52L237 -4Q223 -6 210 -6T188 -7Q157 -7 131 3T86 31T57 75T46 130Q46 151 50 173T66 215Q84 243 119 261T196 290T277 306T345 313V365Q345 387 338 400T319 420T291 429T257 432Q236 432 212 427T166 414T126 398T97 385H89V472Q99 476 115 480T152 488T194 494T239 497Q279 497 314 489T376 465T417 425T432 367Q432 319 431 286T429 220Q429 184 430 151T434 90T442 41T456 10V0H355ZM345 244Q321 246 302 246T252 247Q217 247 185 236T143 196Q137 180 136 169T134 145Q134 105 156 84T220 63Q251 63 282 76T345 109V244ZM181 563V568L275 739H398V729Q378 716 352 689T283 613L239 563H181Z"  />
<glyph unicode="&#xE2;" horiz-adv-x="508" d="M355 0L347 52L237 -4Q223 -6 210 -6T188 -7Q157 -7 131 3T86 31T57 75T46 130Q46 151 50 173T66 215Q84 243 119 261T196 290T277 306T345 313V365Q345 387 338 400T319 420T291 429T257 432Q236 432 212 427T166 414T126 398T97 385H89V472Q99 476 115 480T152 488T194 494T239 497Q279 497 314 489T376 465T417 425T432 367Q432 319 431 286T429 220Q429 184 430 151T434 90T442 41T456 10V0H355ZM345 244Q321 246 302 246T252 247Q217 247 185 236T143 196Q137 180 136 169T134 145Q134 105 156 84T220 63Q251 63 282 76T345 109V244ZM347 563L249 677L151 563H92V568L206 739H296L406 568V563H347Z"  />
<glyph unicode="&#xE3;" horiz-adv-x="508" d="M355 0L347 52L237 -4Q223 -6 210 -6T188 -7Q157 -7 131 3T86 31T57 75T46 130Q46 151 50 173T66 215Q84 243 119 261T196 290T277 306T345 313V365Q345 387 338 400T319 420T291 429T257 432Q236 432 212 427T166 414T126 398T97 385H89V472Q99 476 115 480T152 488T194 494T239 497Q279 497 314 489T376 465T417 425T432 367Q432 319 431 286T429 220Q429 184 430 151T434 90T442 41T456 10V0H355ZM345 244Q321 246 302 246T252 247Q217 247 185 236T143 196Q137 180 136 169T134 145Q134 105 156 84T220 63Q251 63 282 76T345 109V244ZM423 717Q420 693 410 671T385 633T351 607T309 597Q293 597 277 601T233 620Q210 632 194 637T168 642Q146 642 135 627T118 590H70Q73 614 83 636T110 674T145 700T187 710Q202 710 222 705T264 688Q288 676 303 671T328 666Q350 666 360 681T375 717H423H423Z"  />
<glyph unicode="&#xE4;" horiz-adv-x="508" d="M305 591V694H407V591H305ZM85 591V694H187V591H85ZM355 0L347 52L237 -4Q223 -6 210 -6T188 -7Q157 -7 131 3T86 31T57 75T46 130Q46 151 50 173T66 215Q84 243 119 261T196 290T277 306T345 313V365Q345 387 338 400T319 420T291 429T257 432Q236 432 212 427T166 414T126 398T97 385H89V472Q99 476 115 480T152 488T194 494T239 497Q279 497 314 489T376 465T417 425T432 367Q432 319 431 286T429 220Q429 184 430 151T434 90T442 41T456 10V0H355ZM345 244Q321 246 302 246T252 247Q217 247 185 236T143 196Q137 180 136 169T134 145Q134 105 156 84T220 63Q251 63 282 76T345 109V244Z"  />
<glyph unicode="&#xE5;" horiz-adv-x="508" d="M355 0L347 52L237 -4Q223 -6 210 -6T188 -7Q157 -7 131 3T86 31T57 75T46 130Q46 151 50 173T66 215Q84 243 119 261T196 290T277 306T345 313V365Q345 387 338 400T319 420T291 429T257 432Q236 432 212 427T166 414T126 398T97 385H89V472Q99 476 115 480T152 488T194 494T239 497Q279 497 314 489T376 465T417 425T432 367Q432 319 431 286T429 220Q429 184 430 151T434 90T442 41T456 10V0H355ZM345 244Q321 246 302 246T252 247Q217 247 185 236T143 196Q137 180 136 169T134 145Q134 105 156 84T220 63Q251 63 282 76T345 109V244ZM369 656Q369 632 360 612T334 576T296 553T249 544Q198 544 166 574T133 653Q133 677 142 697T168 732T207 755T256 764Q307 764 338 734T369 656ZM309 648Q309 683 292 706T249 729Q224 729 209 711T194 659Q194 623 212 601T256 579Q280 579 294 597T309 648Z"  />
<glyph unicode="&#xE6;" horiz-adv-x="799" d="M425 248Q425 157 472 110T597 63Q649 63 681 74T744 109H755V43Q726 30 704 23T662 10T623 1T581 -7H572Q511 -7 465 16T389 80Q352 54 318 35T244 -4Q230 -6 213 -6T188 -7Q157 -7 131 3T86 31T57 75T46 130Q46 151 50 173T66 215Q84 243 119 260T194 288T276 301T346 305V365Q346 387 339 400T320 420T291 430T257 433Q236 433 212 428T166 415T126 399T97 386H89V472Q99 476 115 480T152 488T194 494T239 497Q299 497 343 479T408 419Q438 456 479 476T569 497Q660 497 710 442T761 274V248H425ZM347 247H252Q217 247 185 236T143 196Q137 180 136 169T134 145Q134 105 156 84T220 63Q255 63 291 78T356 115L347 247ZM670 314Q670 374 636 406T541 438Q518 438 499 431T464 408T439 366T427 303H670V314Z"  />
<glyph unicode="&#xE7;" horiz-adv-x="446" d="M423 43Q398 32 379 25T343 12Q343 6 343 0T344 -11Q344 -43 338 -70T317 -117Q296 -145 266 -161T198 -178Q182 -178 165 -175T139 -167V-93H147Q163 -102 188 -107T231 -113Q266 -113 283 -88Q289 -80 289 -46Q289 -37 289 -26T286 -3L259 -6Q211 -6 171 11T101 61T55 140T39 245Q39 303 60 349T115 428T192 478T281 496Q332 496 366 486T418 467V379H409Q391 388 374 396T337 411T294 422T240 427Q196 427 169 400Q131 359 131 250Q131 155 174 110T284 64Q309 64 327 67T359 77T386 91T413 109H423V43H423Z"  />
<glyph unicode="&#xE8;" horiz-adv-x="503" d="M127 248Q128 157 176 110T299 63Q352 63 385 74T448 109H459V43Q430 30 408 23T366 10T327 1T284 -7H271Q217 -7 174 10T101 61T55 140T39 245Q39 303 58 349T109 429T183 479T272 497Q363 497 414 442T465 274V248H127ZM373 314Q373 374 338 405T242 437Q197 437 165 407T129 303H373V314ZM285 563L241 613Q200 661 173 688T126 729V739H249L343 568V563H285Z"  />
<glyph unicode="&#xE9;" horiz-adv-x="503" d="M127 248Q128 157 176 110T299 63Q352 63 385 74T448 109H459V43Q430 30 408 23T366 10T327 1T284 -7H271Q217 -7 174 10T101 61T55 140T39 245Q39 303 58 349T109 429T183 479T272 497Q363 497 414 442T465 274V248H127ZM373 314Q373 374 338 405T242 437Q197 437 165 407T129 303H373V314ZM203 563V568L297 739H420V729Q400 716 374 689T305 613L261 563H203Z"  />
<glyph unicode="&#xEA;" horiz-adv-x="503" d="M127 248Q128 157 176 110T299 63Q352 63 385 74T448 109H459V43Q430 30 408 23T366 10T327 1T284 -7H271Q217 -7 174 10T101 61T55 140T39 245Q39 303 58 349T109 429T183 479T272 497Q363 497 414 442T465 274V248H127ZM373 314Q373 374 338 405T242 437Q197 437 165 407T129 303H373V314ZM363 563L265 677L167 563H108V568L222 739H312L422 568V563H363Z"  />
<glyph unicode="&#xEB;" horiz-adv-x="503" d="M127 248Q128 157 176 110T299 63Q352 63 385 74T448 109H459V43Q430 30 408 23T366 10T327 1T284 -7H271Q217 -7 174 10T101 61T55 140T39 245Q39 303 58 349T109 429T183 479T272 497Q363 497 414 442T465 274V248H127ZM373 314Q373 374 338 405T242 437Q197 437 165 407T129 303H373V314ZM331 591V694H433V591H331ZM103 591V694H205V591H103Z"  />
<glyph unicode="&#xEC;" horiz-adv-x="256" d="M68 0V10Q75 20 78 44T83 98T85 161T85 220V267Q85 294 85 327T84 391T79 446T68 479V489H188V479Q181 470 178 446T173 391T171 327T171 267V220Q171 193 171 161T172 99T177 44T188 10V0H68ZM160 563L116 613Q75 661 48 688T1 729V739H124L218 568V563H160Z"  />
<glyph unicode="&#xED;" horiz-adv-x="256" d="M68 0V10Q75 20 78 44T83 98T85 161T85 220V267Q85 294 85 327T84 391T79 446T68 479V489H188V479Q181 470 178 446T173 391T171 327T171 267V220Q171 193 171 161T172 99T177 44T188 10V0H68ZM63 563V568L157 739H280V729Q260 716 234 689T165 613L121 563H63Z"  />
<glyph unicode="&#xEE;" horiz-adv-x="256" d="M210 563L127 678L44 563H-15V568L89 739H169L269 568V563H210ZM68 0V10Q75 20 78 44T83 98T85 161T85 220V267Q85 294 85 327T84 391T79 446T68 479V489H188V479Q181 470 178 446T173 391T171 327T171 267V220Q171 193 171 161T172 99T177 44T188 10V0H68Z"  />
<glyph unicode="&#xEF;" horiz-adv-x="256" d="M172 591V694H274V591H172ZM-25 591V694H77V591H-25ZM68 0V10Q75 20 78 44T83 98T85 161T85 220V267Q85 294 85 327T84 391T79 446T68 479V489H188V479Q181 470 178 446T173 391T171 327T171 267V220Q171 193 171 161T172 99T177 44T188 10V0H68Z"  />
<glyph unicode="&#xF0;" horiz-adv-x="548" d="M507 275Q507 213 492 162T447 72T372 13T267 -8Q210 -8 167 11T96 65T53 143T39 239Q39 286 58 330T109 408T183 462T272 483Q300 483 326 477T373 457Q356 491 328 528T269 598L135 508V559L240 628Q214 654 196 671T160 702Q156 705 149 709T136 717T123 724T115 727V739H256V728Q258 714 269 703Q277 695 285 688T304 670L411 743V692L334 640Q362 610 393 571T449 486T490 386T507 275ZM413 255Q413 279 412 296T409 325T405 347T402 366Q382 393 346 406T273 420Q206 420 169 374T132 246Q132 207 142 172T170 109T217 65T281 49Q339 49 376 98T413 255Z"  />
<glyph unicode="&#xF1;" horiz-adv-x="564" d="M383 0V11Q390 21 393 45T398 99T400 161T400 221V293Q400 359 376 388T295 418Q266 418 233 405T170 371V221Q170 194 170 162T172 99T177 45T187 11V0H67V11Q74 20 77 44T82 98T84 161T84 221V268Q84 295 84 327T82 390T77 445T66 479V489H170V434L275 483Q286 488 297 492T332 496Q367 496 396 484T445 451T477 399T489 333Q489 300 487 264T485 191Q485 174 485 148T487 94T492 44T503 11V0H383ZM463 717Q460 693 450 671T425 633T391 607T349 597Q333 597 317 601T273 620Q250 632 234 637T208 642Q186 642 175 627T158 590H110Q113 614 123 636T150 674T185 700T227 710Q242 710 262 705T304 688Q328 676 343 671T368 666Q390 666 400 681T415 717H463H463Z"  />
<glyph unicode="&#xF2;" horiz-adv-x="559" d="M520 247Q520 191 502 144T450 64T372 11T271 -8Q218 -8 176 10T103 61T56 140T39 242Q39 298 57 345T109 425T187 478T288 497Q340 497 383 479T456 427T503 348T520 247ZM424 235Q424 331 383 385T275 440Q211 440 173 394T135 254Q135 157 176 103T283 49Q349 49 386 95T424 235ZM299 563L255 613Q214 661 187 688T140 729V739H263L357 568V563H299Z"  />
<glyph unicode="&#xF3;" horiz-adv-x="559" d="M520 247Q520 191 502 144T450 64T372 11T271 -8Q218 -8 176 10T103 61T56 140T39 242Q39 298 57 345T109 425T187 478T288 497Q340 497 383 479T456 427T503 348T520 247ZM424 235Q424 331 383 385T275 440Q211 440 173 394T135 254Q135 157 176 103T283 49Q349 49 386 95T424 235ZM208 563V568L302 739H425V729Q405 716 379 689T310 613L266 563H208Z"  />
<glyph unicode="&#xF4;" horiz-adv-x="559" d="M520 247Q520 191 502 144T450 64T372 11T271 -8Q218 -8 176 10T103 61T56 140T39 242Q39 298 57 345T109 425T187 478T288 497Q340 497 383 479T456 427T503 348T520 247ZM424 235Q424 331 383 385T275 440Q211 440 173 394T135 254Q135 157 176 103T283 49Q349 49 386 95T424 235ZM377 563L279 677L181 563H122V568L236 739H326L436 568V563H377Z"  />
<glyph unicode="&#xF5;" horiz-adv-x="559" d="M520 247Q520 191 502 144T450 64T372 11T271 -8Q218 -8 176 10T103 61T56 140T39 242Q39 298 57 345T109 425T187 478T288 497Q340 497 383 479T456 427T503 348T520 247ZM424 235Q424 331 383 385T275 440Q211 440 173 394T135 254Q135 157 176 103T283 49Q349 49 386 95T424 235ZM457 717Q454 693 444 671T419 633T385 607T343 597Q327 597 311 601T267 620Q244 632 228 637T202 642Q180 642 169 627T152 590H104Q107 614 117 636T144 674T179 700T221 710Q236 710 256 705T298 688Q322 676 337 671T362 666Q384 666 394 681T409 717H457H457Z"  />
<glyph unicode="&#xF6;" horiz-adv-x="559" d="M520 247Q520 191 502 144T450 64T372 11T271 -8Q218 -8 176 10T103 61T56 140T39 242Q39 298 57 345T109 425T187 478T288 497Q340 497 383 479T456 427T503 348T520 247ZM424 235Q424 331 383 385T275 440Q211 440 173 394T135 254Q135 157 176 103T283 49Q349 49 386 95T424 235ZM341 591V694H443V591H341ZM113 591V694H215V591H113Z"  />
<glyph unicode="&#xF7;" horiz-adv-x="600" d="M252 405V503H349V405H252ZM77 249V310H524V249H77ZM252 56V154H349V56H252Z"  />
<glyph unicode="&#xF8;" horiz-adv-x="559" d="M520 247Q520 191 502 144T450 64T372 11T271 -8Q210 -8 159 20L121 -42H80L130 39Q88 72 64 124T39 242Q39 298 57 345T109 425T187 478T288 497Q350 497 398 470L431 523H472L427 451Q470 418 495 366T520 247ZM361 411Q326 440 275 440Q211 440 172 394T132 254Q132 206 142 168T171 103L361 411ZM427 235Q427 284 417 322T386 387L196 78Q233 49 283 49Q349 49 388 95T427 235Z"  />
<glyph unicode="&#xF9;" horiz-adv-x="563" d="M393 0V55L287 6Q274 1 265 -3T231 -7Q196 -7 168 5T119 38T87 90T75 156Q75 189 76 225T78 298Q78 315 78 341T76 395T71 445T61 478V489H180V478Q174 469 171 445T166 391T164 327T164 267V196Q164 130 188 100T269 70Q298 70 331 83T393 117V267Q393 294 393 327T391 390T386 445T376 478V489H496V478Q489 469 486 445T481 391T479 327T479 267V220Q479 193 479 161T480 99T485 45T496 10V0H393ZM283 563L239 613Q198 661 171 688T124 729V739H247L341 568V563H283Z"  />
<glyph unicode="&#xFA;" horiz-adv-x="563" d="M393 0V55L287 6Q274 1 265 -3T231 -7Q196 -7 168 5T119 38T87 90T75 156Q75 189 76 225T78 298Q78 315 78 341T76 395T71 445T61 478V489H180V478Q174 469 171 445T166 391T164 327T164 267V196Q164 130 188 100T269 70Q298 70 331 83T393 117V267Q393 294 393 327T391 390T386 445T376 478V489H496V478Q489 469 486 445T481 391T479 327T479 267V220Q479 193 479 161T480 99T485 45T496 10V0H393ZM227 563V568L321 739H444V729Q424 716 398 689T329 613L285 563H227Z"  />
<glyph unicode="&#xFB;" horiz-adv-x="563" d="M393 0V55L287 6Q274 1 265 -3T231 -7Q196 -7 168 5T119 38T87 90T75 156Q75 189 76 225T78 298Q78 315 78 341T76 395T71 445T61 478V489H180V478Q174 469 171 445T166 391T164 327T164 267V196Q164 130 188 100T269 70Q298 70 331 83T393 117V267Q393 294 393 327T391 390T386 445T376 478V489H496V478Q489 469 486 445T481 391T479 327T479 267V220Q479 193 479 161T480 99T485 45T496 10V0H393ZM375 563L277 677L179 563H120V568L234 739H324L434 568V563H375Z"  />
<glyph unicode="&#xFC;" horiz-adv-x="563" d="M393 0V55L287 6Q274 1 265 -3T231 -7Q196 -7 168 5T119 38T87 90T75 156Q75 189 76 225T78 298Q78 315 78 341T76 395T71 445T61 478V489H180V478Q174 469 171 445T166 391T164 327T164 267V196Q164 130 188 100T269 70Q298 70 331 83T393 117V267Q393 294 393 327T391 390T386 445T376 478V489H496V478Q489 469 486 445T481 391T479 327T479 267V220Q479 193 479 161T480 99T485 45T496 10V0H393ZM343 591V694H445V591H343ZM115 591V694H217V591H115Z"  />
<glyph unicode="&#xFD;" horiz-adv-x="488" d="M487 478Q476 468 465 451T444 411T423 364T404 316L246 -83Q220 -150 172 -188T73 -226Q64 -226 47 -225T19 -219V-125H29Q35 -127 44 -129T62 -132T80 -134T93 -135Q116 -135 130 -132T156 -120Q164 -113 171 -103T185 -76T200 -39T219 12L96 317Q87 338 77 362T56 408T34 449T11 478V489H147V478Q143 468 143 458Q143 447 149 425T164 375T183 320T204 267L262 125L316 268Q323 287 333 313T352 367T367 419T374 459Q374 468 370 478V489H487V478H487ZM194 563V568L288 739H411V729Q391 716 365 689T296 613L252 563H194Z"  />
<glyph unicode="&#xFE;" horiz-adv-x="554" d="M517 271Q517 212 491 162T423 76T327 19T217 -2Q209 -2 198 0T170 6V-3Q170 -30 170 -62T171 -124T177 -177T190 -211V-221H67V-211Q74 -202 77 -178T82 -123T84 -59T84 1V518Q84 545 84 578T83 642T78 697T67 730V739H187V730Q180 721 177 697T172 642T170 578T170 518V434L270 480Q284 487 296 491T321 496Q360 496 395 480T458 435T501 364T517 271ZM428 237Q428 321 389 371T281 421Q254 421 226 406T170 369V87Q192 76 217 72T267 67Q290 67 311 72T350 88Q387 107 407 143T428 237Z"  />
<glyph unicode="&#xFF;" horiz-adv-x="488" d="M487 478Q476 468 465 451T444 411T423 364T404 316L246 -83Q220 -150 172 -188T73 -226Q64 -226 47 -225T19 -219V-125H29Q35 -127 44 -129T62 -132T80 -134T93 -135Q116 -135 130 -132T156 -120Q164 -113 171 -103T185 -76T200 -39T219 12L96 317Q87 338 77 362T56 408T34 449T11 478V489H147V478Q143 468 143 458Q143 447 149 425T164 375T183 320T204 267L262 125L316 268Q323 287 333 313T352 367T367 419T374 459Q374 468 370 478V489H487V478H487ZM319 591V694H421V591H319ZM91 591V694H193V591H91Z"  />
<glyph unicode="&#x131;" horiz-adv-x="256" d="M68 0V10Q75 20 78 44T83 98T85 161T85 220V267Q85 294 85 327T84 391T79 446T68 479V489H188V479Q181 470 178 446T173 391T171 327T171 267V220Q171 193 171 161T172 99T177 44T188 10V0H68Z"  />
<glyph unicode="&#x152;" horiz-adv-x="1012" d="M932 -15Q923 -8 899 -5T845 -1T781 1T721 1H621Q602 1 576 0T521 -1T463 -3T411 -4Q320 -4 251 19T136 85T66 188T42 323Q42 398 67 462T140 572T255 645T408 671Q423 671 447 671T501 669T562 668T621 667H721Q748 667 781 667T844 668T899 673T932 683H943V580H932Q923 587 899 591T845 598T781 602T721 603H602V375H703Q730 375 763 375T826 378T881 385T914 396H924V291H914Q905 298 881 302T827 308T763 310T703 311H602V65H721Q748 65 781 66T844 69T899 76T932 88H943V-15H932ZM509 600Q479 605 449 607T377 610Q360 610 343 608T312 601T286 594T269 587Q234 571 210 545T171 488T150 422T143 357Q143 302 154 249T192 153T268 84T391 58Q409 58 423 58T451 60T478 62T509 66V600Z"  />
<glyph unicode="&#x153;" horiz-adv-x="877" d="M502 248Q503 157 551 110T674 63Q726 63 759 74T822 109H833V43Q804 30 782 23T741 10T702 1T660 -7H650Q588 -7 539 20T460 93Q428 48 380 20T270 -8Q217 -8 175 10T102 61T56 140T39 242Q39 298 57 345T108 425T186 478T287 497Q347 497 393 471T470 398Q501 446 548 471T648 497Q739 497 789 442T839 274V248H502ZM422 235Q422 331 381 385T274 440Q210 440 173 394T135 254Q135 157 175 103T282 49Q348 49 385 95T422 235ZM748 314Q748 374 713 405T618 437Q595 437 576 430T541 407T516 366T504 303H748V314Z"  />
<glyph unicode="&#x160;" horiz-adv-x="539" d="M499 210Q499 166 477 126T415 56T323 8T210 -10Q168 -10 129 2T54 32V133H63Q102 97 157 82T273 66Q349 66 380 95Q409 122 409 181Q409 222 385 243T313 278Q293 284 278 288T249 296T221 304T189 313Q126 333 95 375T63 474Q63 519 84 556T140 621T220 663T316 678Q368 678 412 667T476 644V548H466Q441 569 394 588T281 607Q243 607 214 601T169 576Q161 566 156 548T150 503Q150 461 174 436T236 399Q254 393 268 390T296 382T325 374T359 364Q438 341 468 300T499 210ZM329 718H239L129 889V894H188L286 780L384 894H443V889L329 718Z"  />
<glyph unicode="&#x161;" horiz-adv-x="433" d="M397 158Q397 122 379 92T328 40T253 5T161 -8Q103 -8 45 21V114H53Q79 93 124 79T218 64Q246 64 267 68T299 83Q313 97 313 127Q313 159 297 173T247 197L151 224Q51 254 51 345Q51 378 68 406T115 454T182 485T261 497Q296 497 330 491T381 476V388H372Q363 394 346 401T307 414T259 425T206 430Q198 430 180 429T149 417Q143 411 139 400T134 371Q134 340 152 324T216 295L295 272Q346 258 371 231T397 158ZM280 563H190L80 734V739H139L237 625L335 739H394V734L280 563Z"  />
<glyph unicode="&#x178;" horiz-adv-x="621" d="M626 659Q609 646 591 624T555 572T516 508T475 437L408 318Q401 306 388 283T364 240V226Q364 199 364 166T367 101T373 45T383 11V0H252V11Q258 20 262 44T268 100T270 164T271 225V240L153 440Q134 472 114 505T75 568T36 622T-2 659V668H161V659Q159 654 158 649T157 631Q157 620 187 559T289 383L332 314L370 382Q395 426 417 466T457 539T484 597T494 634Q494 650 491 659V668H626V659H626ZM387 751V854H489V751H387ZM159 751V854H261V751H159Z"  />
<glyph unicode="&#x17D;" horiz-adv-x="594" d="M557 -15Q548 -8 524 -5T470 -1T406 1T346 1H33V52Q96 132 149 202T251 339T343 470T432 603H273Q246 603 213 602T150 599T95 592T62 580H51V683H62Q71 676 95 673T149 669T213 667T273 667H557V618Q518 565 468 497T365 354T257 206T156 65H346Q373 65 406 66T469 69T524 76T557 88H568V-15H557ZM345 718H255L145 889V894H204L302 780L400 894H459V889L345 718Z"  />
<glyph unicode="&#x17E;" horiz-adv-x="448" d="M417 -12Q408 -5 384 -2T330 2T267 3T207 3H31V57Q76 115 112 162T180 251T243 336T311 430H267Q240 430 207 430T144 428T89 421T55 407H44V501H55Q64 494 88 491T142 487T205 486T265 486H420V443Q392 406 357 360T283 262T205 159T131 59H205Q232 59 265 59T328 61T383 67T417 81H428V-12H417ZM267 563H177L67 734V739H126L224 625L322 739H381V734L267 563Z"  />
<glyph unicode="&#x192;" horiz-adv-x="460" d="M446 565H435Q417 570 396 573T353 577Q328 577 314 575T290 563Q282 555 277 541T267 504Q265 495 263 479T256 443T248 402T241 365H360V319H232L189 80Q179 25 158 -20T107 -99T40 -150T-40 -168Q-55 -168 -75 -166T-111 -159L-95 -82H-84Q-66 -86 -45 -89T-2 -93Q23 -93 37 -91T61 -80Q69 -72 74 -58T85 -20Q90 -3 94 21T106 80L148 319H51V365H159Q182 507 244 579T391 652Q406 652 426 650T462 643L446 565Z"  />
<glyph unicode="&#x2C6;" horiz-adv-x="254" d="M225 563L127 677L29 563H-30V568L84 739H174L284 568V563H225Z"  />
<glyph unicode="&#x2C7;" horiz-adv-x="254" d="M170 563H80L-30 734V739H29L127 625L225 739H284V734L170 563Z"  />
<glyph unicode="&#x2DA;" horiz-adv-x="254" d="M245 656Q245 632 236 612T210 576T172 553T125 544Q74 544 42 574T9 653Q9 677 18 697T44 732T83 755T132 764Q183 764 214 734T245 656ZM185 648Q185 683 168 706T125 729Q100 729 85 711T70 659Q70 623 88 601T132 579Q156 579 170 597T185 648Z"  />
<glyph unicode="&#x2DC;" horiz-adv-x="254" d="M306 717Q303 693 293 671T268 633T234 607T192 597Q176 597 160 601T116 620Q93 632 77 637T51 642Q29 642 18 627T1 590H-47Q-44 614 -34 636T-7 674T28 700T70 710Q85 710 105 705T147 688Q171 676 186 671T211 666Q233 666 243 681T258 717H306H306Z"  />
<glyph unicode="&#x2013;" horiz-adv-x="514" d="M72 243V316H442V243H72Z"  />
<glyph unicode="&#x2014;" horiz-adv-x="960" d="M92 243V316H868V243H92Z"  />
<glyph unicode="&#x2018;" horiz-adv-x="235" d="M183 729Q166 699 153 673T132 606Q132 595 134 580T140 548T149 519T163 497V488H50Q42 510 42 535Q42 543 43 555T49 579Q58 602 66 621T84 658T106 695T133 739H183V729H183Z"  />
<glyph unicode="&#x2019;" horiz-adv-x="235" d="M193 692Q193 684 192 672T186 648Q177 625 169 606T151 569T129 532T102 488H52V498Q69 528 82 554T103 621Q103 632 101 647T95 679T86 708T72 730V739H185Q193 717 193 692Z"  />
<glyph unicode="&#x201A;" horiz-adv-x="235" d="M193 66Q193 58 192 46T186 22Q177 -1 169 -20T151 -57T129 -94T102 -138H52V-128Q69 -98 82 -72T103 -5Q103 6 101 21T95 53T86 82T72 104V113H185Q193 91 193 66Z"  />
<glyph unicode="&#x201C;" horiz-adv-x="417" d="M365 729Q348 699 335 673T314 606Q314 595 316 580T322 548T331 519T345 497V488H234Q226 510 226 535Q226 543 227 555T233 579Q242 602 250 621T268 658T290 695T317 739H365V729ZM181 729Q164 699 151 673T130 606Q130 595 132 580T138 548T147 519T161 497V488H50Q42 510 42 535Q42 543 43 555T49 579Q58 602 66 621T84 658T106 695T133 739H181V729Z"  />
<glyph unicode="&#x201D;" horiz-adv-x="417" d="M191 692Q191 684 190 672T184 648Q175 625 167 606T149 569T127 532T100 488H52V498Q69 528 82 554T103 621Q103 632 101 647T95 679T86 708T72 730V739H183Q191 717 191 692ZM375 692Q375 684 374 672T368 648Q359 625 351 606T333 569T311 532T284 488H236V498Q253 528 266 554T287 621Q287 632 285 647T279 679T270 708T256 730V739H367Q375 717 375 692Z"  />
<glyph unicode="&#x201E;" horiz-adv-x="417" d="M191 66Q191 58 190 46T184 22Q175 -1 167 -20T149 -57T127 -94T100 -138H52V-128Q69 -98 82 -72T103 -5Q103 6 101 21T95 53T86 82T72 104V113H183Q191 91 191 66ZM375 66Q375 58 374 46T368 22Q359 -1 351 -20T333 -57T311 -94T284 -138H236V-128Q253 -98 266 -72T287 -5Q287 6 285 21T279 53T270 82T256 104V113H367Q375 91 375 66Z"  />
<glyph unicode="&#x2020;" horiz-adv-x="480" d="M416 496L266 518L260 512V233L282 82V74H199V82L221 233V512L215 518L65 496H57V577H65L216 555L222 560L200 731V739H281V731L259 560L265 555L416 577H424V496H416Z"  />
<glyph unicode="&#x2021;" horiz-adv-x="480" d="M416 236L265 258L259 253L281 82V74H200V82L222 253L216 258L65 236H57V317H65L215 295L221 301V522L215 528L65 506H57V587H65L216 565L222 570L200 731V739H281V731L259 570L265 565L416 587H424V506H416L266 528L260 522V301L266 295L416 317H424V236H416Z"  />
<glyph unicode="&#x2022;" horiz-adv-x="530" d="M371 301Q371 279 363 260T340 226T305 203T263 194Q241 194 222 202T188 225T165 259T156 301Q156 323 164 343T188 377T222 399T264 408Q286 408 305 400T339 377T362 343T371 301Z"  />
<glyph unicode="&#x2026;" horiz-adv-x="1119" d="M874 0V118H991V0H874ZM501 0V118H618V0H501ZM128 0V118H245V0H128Z"  />
<glyph unicode="&#x2030;" horiz-adv-x="1288" d="M393 480Q393 443 381 409T345 349T290 308T218 292Q179 292 148 306T94 345T61 406T49 483Q49 521 62 554T100 613T156 653T227 668Q267 668 298 653T350 611T382 551T393 480ZM316 469Q316 496 312 523T297 573T268 610T220 625Q194 625 176 613T147 582T131 540T126 492Q126 462 131 434T147 384T177 349T224 335Q249 335 266 347T295 378T311 421T316 469ZM843 174Q843 136 830 103T792 44T736 4T665 -11Q625 -11 594 4T542 46T510 106T499 177Q499 214 511 248T547 308T602 349T674 365Q713 365 744 351T798 312T831 251T843 174ZM766 165Q766 195 761 223T745 273T715 308T668 322Q643 322 626 310T597 279T581 236T576 188Q576 161 580 134T595 84T624 47T672 32Q698 32 716 44T745 75T761 117T766 165ZM1239 174Q1239 136 1226 103T1188 44T1132 4T1061 -11Q1021 -11 990 4T938 46T906 106T895 177Q895 214 907 248T943 308T998 349T1070 365Q1109 365 1140 351T1194 312T1227 251T1239 174ZM1162 165Q1162 195 1157 223T1141 273T1111 308T1064 322Q1039 322 1022 310T993 279T977 236T972 188Q972 161 976 134T991 84T1020 47T1068 32Q1094 32 1112 44T1141 75T1157 117T1162 165ZM264 -12H203L625 668H686L264 -12Z"  />
<glyph unicode="&#x2039;" horiz-adv-x="326" d="M204 101L63 234V304L204 437H259V430L135 269L259 108V101H204Z"  />
<glyph unicode="&#x203A;" horiz-adv-x="326" d="M122 101H67V108L191 269L67 430V437H122L263 304V234L122 101Z"  />
<glyph unicode="&#x20AC;" horiz-adv-x="624" d="M562 40Q539 29 520 22T482 9T446 -2T406 -11H376Q327 -11 285 6T208 53T149 126T114 221H37V265H108Q107 274 107 284T106 304Q106 318 106 331T108 358H37V402H117Q130 456 157 501T221 580T305 631T402 650Q464 650 500 640T553 625V533H542Q532 539 515 547T476 562T428 574T372 579Q343 579 323 574T293 564Q246 539 225 499T195 402H447V358H191V337Q191 319 192 301T196 265H396V221H204Q213 187 230 157T272 105T331 69T409 55Q435 55 455 60T493 72T524 90T551 109H562V40H562Z"  />
<glyph unicode="&#x2122;" horiz-adv-x="670" d="M281 626Q277 629 269 630T249 633T225 635T203 636H195V496Q195 485 195 473T197 450T199 430T203 418V410H143V418Q146 421 147 430T150 450T151 473T152 495V636H144Q133 636 121 636T97 635T76 633T64 629H57V677H64Q67 674 76 673T96 670T120 669T144 668H203Q213 668 225 668T248 668T268 670T281 674H289V626H281ZM548 410V418Q552 423 553 436T555 465Q555 473 555 481T554 496L550 595L504 495Q493 473 483 452T473 419V414H433V420Q433 423 431 431T424 449T414 471T405 493L361 594L354 497Q352 486 351 472T350 446Q350 426 355 418V410H301V418Q307 426 312 451T320 496L329 582Q330 593 331 610T333 642L320 661V668H378V664Q379 659 383 648T393 625T404 600T413 579L458 475L507 578Q517 598 528 621T544 655V668H599V661Q594 655 593 642T591 613Q591 606 591 597T592 582L596 496Q597 474 599 450T607 418V410H548Z"  />

</font>
</defs>
</svg>
