<?xml version="1.0" standalone="no"?>
<!DOCTYPE svg PUBLIC "-//W3C//DTD SVG 1.1//EN" "http://www.w3.org/Graphics/SVG/1.1/DTD/svg11.dtd" >
<svg xmlns="http://www.w3.org/2000/svg">
<metadata>
This is a custom SVG webfont generated by Font Squirrel.
Copyright   : Copyright c 2011 by CastleType All rights reserved
Designer    : Jason Castle
Foundry     : CastleType
Foundry URL : httpwwwCastleTypecom
</metadata>
<defs>
<font id="StandardCTLight" horiz-adv-x="989" >
<font-face units-per-em="2048" ascent="1638" descent="-410" />
<missing-glyph horiz-adv-x="532" />
<glyph unicode=" "  horiz-adv-x="532" />
<glyph unicode="&#x09;" horiz-adv-x="532" />
<glyph unicode="&#xa0;" horiz-adv-x="532" />
<glyph unicode="!" horiz-adv-x="372" d="M133 0v180h107v-180h-107zM133 1083v351h107v-351l-29 -766h-51q-27 584 -27 766z" />
<glyph unicode="&#x22;" horiz-adv-x="540" d="M133 985v449h82v-449h-82zM328 985v449h84v-449h-84z" />
<glyph unicode="#" horiz-adv-x="1114" d="M80 471l10 64h242l78 366h-240l10 66h244l90 430h66l-91 -430h240l88 430h68l-90 -430h237l-10 -66h-242l-75 -366h237l-10 -64h-242l-92 -436h-68l93 436h-238l-92 -436h-66l90 436h-237zM399 535h238l78 366h-240z" />
<glyph unicode="$" horiz-adv-x="1175" d="M82 287l84 65q154 -190 381 -209v557q-70 8 -112 15.5t-108.5 31t-105.5 55.5t-68.5 91t-29.5 137q0 156 112.5 254t311.5 107v125h82v-127q246 -18 405 -211l-82 -66q-119 164 -323 186v-507l108 -17q152 -23 244 -104.5t92 -231.5q0 -168 -117.5 -275.5t-326.5 -115.5 v-129h-82v131q-291 17 -465 238zM229 1044q0 -53 20.5 -95t44 -65.5t69 -41t69 -22.5t68.5 -11t47 -6v495q-141 -8 -229.5 -81t-88.5 -173zM629 143q162 8 252 89t90 200q0 68 -29 116t-84 75.5t-106.5 41t-122.5 23.5v-545z" />
<glyph unicode="%" horiz-adv-x="1941" d="M78 1001q0 203 101.5 322t273.5 119q168 0 267 -129t99 -312q0 -188 -99 -314t-265 -126q-178 0 -277.5 120.5t-99.5 319.5zM164 1001q0 -162 76.5 -262t214.5 -100q125 0 201.5 104.5t76.5 257.5q0 150 -75.5 256.5t-204.5 106.5q-131 0 -210 -99.5t-79 -263.5zM496 -10 l893 1495h88l-893 -1495h-88zM1122 430q0 203 101.5 321.5t273.5 118.5q168 0 267.5 -129t99.5 -311q0 -188 -99.5 -314t-265.5 -126q-178 0 -277.5 120.5t-99.5 319.5zM1208 430q0 -162 77 -262t214 -100q125 0 202 104t77 258q0 150 -76 256.5t-205 106.5 q-131 0 -210 -99.5t-79 -263.5z" />
<glyph unicode="&#x26;" horiz-adv-x="1284" d="M76 369q0 86 29.5 156.5t90 126t112.5 91t136 80.5l-20 29q-6 8 -41 55t-45 64.5t-30.5 55.5t-28 69.5t-7.5 68.5q0 123 88.5 207t221.5 84q123 0 210 -85t87 -206t-76 -200.5t-219 -161.5l372 -451q78 150 88 326h97q-14 -203 -125 -397l233 -281h-125l-166 199 q-170 -227 -436 -228q-184 0 -315 107t-131 291zM180 371q0 -143 103.5 -226.5t246.5 -83.5q221 0 373 207l-403 490q-76 -43 -122 -74t-97.5 -79t-76 -106t-24.5 -128zM371 1167q0 -49 26.5 -105t48 -86t68.5 -87l14 -19q123 68 188.5 133.5t65.5 157.5q0 86 -59 144.5 t-145 58.5q-88 0 -147.5 -56.5t-59.5 -140.5z" />
<glyph unicode="'" horiz-adv-x="346" d="M131 985v449h82v-449h-82z" />
<glyph unicode="(" horiz-adv-x="583" d="M102 717q0 524 312 1024l67 -39q-268 -428 -268 -985q0 -244 66.5 -510t197.5 -475l-63 -39q-312 473 -312 1024z" />
<glyph unicode=")" horiz-adv-x="583" d="M102 1702l68 39q311 -500 311 -1024q0 -551 -311 -1024l-64 39q131 209 198 475t67 510q-1 557 -269 985z" />
<glyph unicode="*" horiz-adv-x="841" d="M92 1180l23 71l270 -96v289h74v-289l266 96l25 -69l-269 -92l168 -228l-61 -43l-166 236l-170 -236l-59 43l165 228z" />
<glyph unicode="+" horiz-adv-x="1148" d="M92 705v98h432v434h101v-434h432v-98h-432v-435h-101v435h-432z" />
<glyph unicode="," horiz-adv-x="374" d="M123 6v180h129v-145q0 -174 -76 -348h-53q49 168 49 276q0 23 -6 30t-23 7h-20z" />
<glyph unicode="-" horiz-adv-x="622" d="M102 485v95h418v-95h-418z" />
<glyph unicode="." horiz-adv-x="374" d="M123 0v186h129v-186h-129z" />
<glyph unicode="/" horiz-adv-x="815" d="M31 -41l653 1516h100l-651 -1516h-102z" />
<glyph unicode="0" horiz-adv-x="1292" d="M78 717q0 338 155.5 538.5t419.5 200.5q172 0 302 -103.5t194.5 -269t64.5 -364.5q0 -319 -152.5 -531.5t-406.5 -212.5q-272 0 -424.5 204t-152.5 538zM182 717q0 -289 125 -468t348 -179q205 0 330 186t125 463q0 268 -124 454.5t-333 186.5q-217 0 -344 -174 t-127 -469z" />
<glyph unicode="1" horiz-adv-x="600" d="M66 1149v90q176 0 249 195h91v-1434h-107v1223l-4 2q-94 -76 -229 -76z" />
<glyph unicode="2" horiz-adv-x="1132" d="M92 0v98q256 164 483 348q66 53 115 101.5t105.5 119t87 154.5t30.5 174q0 172 -99 268.5t-257 96.5q-336 0 -350 -481h-101q0 123 25 223t76 182t142 128t218 46q201 0 327 -133t126 -330q0 -340 -387 -626l-184 -138q-117 -86 -199 -133h794v-98h-952z" />
<glyph unicode="3" horiz-adv-x="1173" d="M92 446h103q12 -168 112.5 -270t290.5 -102q172 0 280.5 89t108.5 243q0 137 -99.5 212.5t-250.5 75.5h-195v86h197q139 0 223 76t84 205q0 131 -91 215t-249 84q-182 0 -272 -101.5t-98 -246.5h-101q6 188 126 316t347 128q190 0 315.5 -111.5t125.5 -283.5 q0 -244 -215 -320q100 -27 176.5 -113.5t76.5 -224.5q0 -197 -141 -312.5t-344 -115.5q-240 0 -370 134t-140 337z" />
<glyph unicode="4" horiz-adv-x="1230" d="M72 395v72l764 967h90v-949h233v-90h-233v-395h-107v395h-747zM201 485h618v617q0 113 4 174l-6 2q-27 -43 -117 -158l-499 -631v-4z" />
<glyph unicode="5" horiz-adv-x="1185" d="M98 395h105q20 -143 123.5 -232t263.5 -89q190 0 296.5 122.5t106.5 292.5q0 190 -109.5 297t-287.5 107q-82 0 -151.5 -26.5t-112.5 -68.5t-68.5 -78t-38.5 -69l-88 6q57 272 58 598q0 117 -7 179h793v-99h-694q0 -342 -37 -514q76 80 159 122t207 42q219 0 351.5 -130 t132.5 -349q0 -236 -141.5 -383.5t-372.5 -147.5q-207 0 -332 120t-156 300z" />
<glyph unicode="6" horiz-adv-x="1140" d="M76 664q0 387 145.5 590.5t378.5 203.5q195 0 308.5 -109.5t140.5 -308.5h-105q-16 127 -99 223.5t-231 96.5q-215 0 -322.5 -183.5t-107.5 -480.5q0 -33 2 -47q20 96 137 181t279 85q193 0 322 -128t129 -330q0 -188 -130 -335t-341 -147q-231 0 -368.5 170.5 t-137.5 518.5zM197 467q25 -184 128 -288.5t259 -104.5q162 0 262 111.5t100 269.5q0 166 -99 266t-261 100q-156 0 -264.5 -96t-124.5 -258z" />
<glyph unicode="7" horiz-adv-x="1048" d="M82 1028v406h926v-99q-25 -223 -326 -727l-86 -143q-113 -188 -203 -465h-125q57 213 256 549q14 25 96 157t108 179t77 145t73.5 169t30.5 136h-733v-307h-94z" />
<glyph unicode="8" horiz-adv-x="1179" d="M72 389q0 133 77.5 229.5t215.5 141.5q-117 41 -183.5 124t-66.5 195q0 166 137 271.5t340 105.5q201 0 338 -105.5t137 -271.5q0 -113 -66.5 -196.5t-185.5 -124.5q135 -43 214 -140.5t79 -228.5q0 -188 -149.5 -301t-368.5 -113q-221 0 -369.5 113t-148.5 301z M174 389.5q0 -145.5 119 -232.5t297 -87q176 0 296 87t120 232q0 143 -118 231.5t-290 92.5h-16q-174 -4 -291 -91t-117 -232.5zM217 1079q0 -123 105.5 -199.5t263.5 -78.5h14q156 2 260.5 78.5t104.5 199.5q0 125 -107.5 206t-265.5 81t-266.5 -81t-108.5 -206z" />
<glyph unicode="9" horiz-adv-x="1138" d="M76 969q0 211 133 349t332 138q240 0 381 -181t141 -532q0 -365 -149.5 -566.5t-389.5 -201.5q-193 0 -307.5 116t-134.5 300h108q18 -139 102.5 -230t231.5 -91q199 0 315.5 176t116.5 518q0 25 -2 29q-33 -117 -146.5 -203t-277.5 -86q-195 0 -324.5 128t-129.5 337z M178 969q0 -160 99.5 -263.5t252.5 -103.5q166 0 274.5 96.5t135.5 262.5q-31 195 -140.5 297t-258.5 102q-164 0 -263.5 -114.5t-99.5 -276.5z" />
<glyph unicode=":" horiz-adv-x="374" d="M123 0v186h129v-186h-129zM123 768v186h129v-186h-129z" />
<glyph unicode=";" horiz-adv-x="374" d="M123 6v180h129v-145q0 -174 -76 -348h-53q49 168 49 276q0 23 -6 30t-23 7h-20zM123 768v186h129v-186h-129z" />
<glyph unicode="&#x3c;" horiz-adv-x="1138" d="M82 674v86l975 418v-103l-848 -358l848 -361v-102z" />
<glyph unicode="=" horiz-adv-x="1114" d="M82 475v98h950v-98h-950zM82 868v99h950v-99h-950z" />
<glyph unicode="&#x3e;" horiz-adv-x="1138" d="M82 254v102l846 361l-846 358v103l975 -418v-86z" />
<glyph unicode="?" horiz-adv-x="1060" d="M92 1022q0 209 128 326.5t312 117.5q182 0 304 -103t122 -267q0 -59 -13 -108.5t-44 -88.5t-55.5 -62.5t-72.5 -61.5t-68 -56q-72 -66 -112 -144.5t-40 -201.5h-96q0 162 48 257t134 167q16 12 60 47t61.5 52t44 50t37 69t10.5 81q0 121 -91 196.5t-229 75.5 q-139 0 -236 -92t-97 -254h-107zM457 0v186h96v-186h-96z" />
<glyph unicode="@" horiz-adv-x="1599" d="M66 494q0 311 208.5 525t548.5 214q303 0 507 -177t204 -448q0 -133 -45 -240.5t-117 -169t-151.5 -93t-157.5 -31.5q-117 0 -117 133q0 6 1 16t1 17q-113 -158 -274 -158q-119 0 -198 89t-79 241q0 199 123 355.5t295 156.5q88 0 154.5 -59.5t89.5 -162.5q23 78 51 183 h94l-160 -563q-18 -66 -18 -105q0 -63 80 -63q113 0 222.5 118.5t109.5 323.5q0 252 -177.5 403.5t-437.5 151.5q-297 0 -479 -189.5t-182 -472.5q0 -303 193.5 -482t459.5 -179q178 0 309 59l21 -71q-143 -66 -330 -66q-311 0 -530 203t-219 541zM485 418 q0 -121 57.5 -188.5t157.5 -67.5q117 0 217.5 138t100.5 290q0 115 -57.5 184.5t-145.5 69.5q-139 0 -234.5 -136t-95.5 -290z" />
<glyph unicode="A" horiz-adv-x="1214" d="M20 0l519 1434h104l551 -1434h-115l-184 475h-592l-172 -475h-111zM336 567h526l-190 498q-61 166 -80 233h-4q-25 -102 -74 -235z" />
<glyph unicode="B" horiz-adv-x="1095" d="M133 0v1434h402q190 0 302.5 -89.5t112.5 -259.5q0 -127 -63.5 -209.5t-173.5 -97.5v-6q127 -18 214 -115.5t87 -242.5q0 -190 -126 -302t-364 -112h-391zM240 98h272q195 0 294 84t99 236q0 147 -98 224t-266 77h-301v-621zM240 813h280q322 0 322 264q0 258 -332 258 h-270v-522z" />
<glyph unicode="C" horiz-adv-x="1349" d="M72 717q0 186 53 334.5t143 237.5t197.5 135t226.5 46q197 0 351.5 -111.5t220.5 -344.5l-109 -29q-49 197 -176 292t-287 95q-94 0 -182 -39t-162 -114.5t-118 -205.5t-44 -296q0 -313 146.5 -485.5t361.5 -172.5q162 0 287 102.5t180 299.5l107 -27q-57 -227 -216 -349 t-358 -122q-264 0 -443 199t-179 555z" />
<glyph unicode="D" horiz-adv-x="1277" d="M133 0v1434h381q328 0 510 -192.5t182 -506.5q0 -340 -166 -537.5t-467 -197.5h-440zM240 98h329q248 0 385.5 169t137.5 468q0 279 -155 439.5t-423 160.5h-274v-1237z" />
<glyph unicode="E" horiz-adv-x="1087" d="M133 0v1434h846v-99h-739v-544h706v-99h-706v-594h766v-98h-873z" />
<glyph unicode="F" horiz-adv-x="1038" d="M133 0v1434h823v-99h-716v-557h686v-96h-686v-682h-107z" />
<glyph unicode="G" horiz-adv-x="1374" d="M72 717q0 358 181 555.5t439 197.5q217 0 354.5 -125.5t196.5 -300.5l-106 -38q-47 147 -157 256.5t-288 109.5q-92 0 -179 -37t-162 -111.5t-120 -205.5t-45 -301q0 -295 138.5 -475.5t365.5 -180.5q104 0 196.5 48.5t151 120t91 149.5t32.5 143v119h-424v100h525v-741 h-101v98q0 147 6 205h-2q-74 -158 -194.5 -249t-276.5 -91q-272 0 -447 204t-175 550z" />
<glyph unicode="H" horiz-adv-x="1325" d="M133 0v1434h107v-619h845v619h107v-1434h-107v717h-845v-717h-107z" />
<glyph unicode="I" horiz-adv-x="372" d="M133 0v1434h107v-1434h-107z" />
<glyph unicode="J" horiz-adv-x="598" d="M41 -16v98h63q164 0 217.5 58.5t53.5 240.5v1053h106v-1053q0 -229 -85 -313t-292 -84h-63z" />
<glyph unicode="K" horiz-adv-x="1177" d="M133 0v1434h107v-793h6q90 117 241 293l433 500h122l-452 -529l536 -905h-118l-490 829l-278 -321v-508h-107z" />
<glyph unicode="L" horiz-adv-x="1026" d="M133 0v1434h107v-1336h725v-98h-832z" />
<glyph unicode="M" horiz-adv-x="1492" d="M133 0v1434h105l510 -1284h4l503 1284h105v-1434h-107v453q0 438 7 721h-5l-460 -1174h-93l-464 1171h-5q6 -225 7 -718v-453h-107z" />
<glyph unicode="N" horiz-adv-x="1304" d="M133 0v1434h107l565 -856q217 -332 274 -443l4 2q-18 250 -18 817v480h106v-1434h-106l-555 842q-201 299 -279 454l-4 -2q12 -266 13 -735v-559h-107z" />
<glyph unicode="O" horiz-adv-x="1394" d="M72 717q0 354 181 553.5t439 199.5q262 0 446.5 -196.5t184.5 -556.5q0 -344 -183.5 -549t-447.5 -205q-268 0 -444 203t-176 551zM184 717q0 -305 143.5 -480.5t364.5 -175.5q219 0 368.5 176.5t149.5 479.5q0 315 -151.5 485t-366.5 170q-211 0 -359.5 -171 t-148.5 -484z" />
<glyph unicode="P" horiz-adv-x="978" d="M133 0v1434h260q246 0 380 -117t134 -305q0 -211 -133 -332t-389 -121h-145v-559h-107zM240 659h157q199 0 300.5 89.5t101.5 261.5q0 147 -100.5 236t-305.5 89h-153v-676z" />
<glyph unicode="Q" horiz-adv-x="1394" d="M72 717q0 354 181 553.5t439 199.5q262 0 446.5 -196.5t184.5 -556.5q0 -336 -180 -547l180 -207h-123l-125 141q-164 -141 -383 -141q-268 0 -444 203t-176 551zM184 717q0 -305 143.5 -480.5t364.5 -175.5q182 0 316 121l-236 275h123l176 -205q139 178 139 465 q0 315 -151.5 485t-366.5 170q-211 0 -359.5 -171t-148.5 -484z" />
<glyph unicode="R" horiz-adv-x="1030" d="M133 0v1434h356q186 0 305 -102.5t119 -282.5q0 -168 -97 -272.5t-222 -123.5l385 -653h-119l-381 643h-239v-643h-107zM240 741h260q125 0 216 78t91 228q0 147 -91 217.5t-239 70.5h-237v-594z" />
<glyph unicode="S" horiz-adv-x="1198" d="M61 233l84 70q66 -88 183.5 -159.5t273.5 -71.5q193 0 300.5 91t107.5 234q0 61 -24.5 107.5t-55.5 73t-95.5 49t-106.5 33t-126 26.5q-59 12 -80.5 16.5t-76 17.5t-78 21.5t-67.5 26.5t-64.5 35.5t-49 44t-42 57.5t-23.5 70t-10 86q0 180 128 294.5t349 114.5 q307 0 497 -237l-77 -72q-57 80 -163 142.5t-249 62.5q-168 0 -273.5 -81t-105.5 -224q0 -53 24.5 -95t55.5 -67t96.5 -47.5t105.5 -31.5t126 -27q70 -14 103.5 -22.5t96 -26t95 -35t76.5 -48t65.5 -65.5t38 -85t16.5 -112q0 -195 -135 -313.5t-373 -118.5q-359 0 -547 266z " />
<glyph unicode="T" horiz-adv-x="1105" d="M51 1335v99h1004v-99h-449v-1335h-106v1335h-449z" />
<glyph unicode="U" horiz-adv-x="1275" d="M127 487v947h106v-945q0 -199 109 -311t289 -112q201 0 307 110.5t106 315.5v942h105v-942q0 -262 -136 -394.5t-384 -132.5q-219 0 -360.5 132t-141.5 390z" />
<glyph unicode="V" horiz-adv-x="1140" d="M20 1434h119l256 -768q145 -436 168 -529h8q25 96 172 531l265 766h112l-499 -1434h-107z" />
<glyph unicode="W" horiz-adv-x="1724" d="M51 1434h111l207 -813q43 -172 100 -467h4q33 180 113 471l223 809h96l213 -801q74 -276 109 -479h4q47 242 112 473l228 807h102l-399 -1434h-96l-217 825q-86 326 -105 463h-4q-45 -238 -109 -465l-229 -823h-96z" />
<glyph unicode="X" horiz-adv-x="1214" d="M61 0l474 750l-443 684h123l383 -594l375 594h114l-430 -680l492 -754h-125l-430 664l-416 -664h-117z" />
<glyph unicode="Y" horiz-adv-x="1083" d="M31 1434h116l394 -693l395 693h117l-459 -793v-641h-107v639z" />
<glyph unicode="Z" horiz-adv-x="1138" d="M51 0v94l877 1237v4h-828v99h957v-95l-879 -1239v-2h899v-98h-1026z" />
<glyph unicode="[" horiz-adv-x="471" d="M102 -307v2048h267v-92h-162v-1864h162v-92h-267z" />
<glyph unicode="\" horiz-adv-x="817" d="M31 1475h102l653 -1516h-106z" />
<glyph unicode="]" horiz-adv-x="471" d="M102 -215h162v1864h-162v92h267v-2048h-267v92z" />
<glyph unicode="^" horiz-adv-x="935" d="M-4 526l426 848h94l424 -848h-100l-371 746l-373 -746h-100z" />
<glyph unicode="_" horiz-adv-x="1110" d="M0 -188h1110v-72h-1110v72z" />
<glyph unicode="`" horiz-adv-x="464" d="M59 1389h138l209 -283h-97z" />
<glyph unicode="a" horiz-adv-x="929" d="M72 258q0 121 73.5 196.5t186.5 90.5l348 43v100q0 102 -56.5 161.5t-162.5 59.5q-74 0 -127 -24.5t-79 -65.5t-37 -80t-11 -82h-98q0 55 13 106.5t48 107t108.5 88t178.5 32.5q156 0 234.5 -84t78.5 -217v-547q0 -78 66 -77q33 0 69 14v-80q-57 -14 -98 -14 q-127 0 -127 137v27q-35 -68 -113 -119t-184 -51q-145 0 -228 74.5t-83 203.5zM170 258q0 -94 58.5 -146.5t162.5 -52.5q129 0 209 87t80 171v199l-295 -39q-215 -29 -215 -219z" />
<glyph unicode="b" horiz-adv-x="983" d="M133 0v1434h98v-648h7q37 94 114.5 149.5t182.5 55.5q170 0 275 -139t105 -363q0 -236 -99 -372.5t-271 -136.5q-236 0 -307 194h-7v-174h-98zM231 487q0 -199 84 -309t215 -110q133 0 211 113.5t78 302t-77.5 304t-211.5 115.5q-141 0 -220 -122t-79 -294z" />
<glyph unicode="c" d="M68 483q0 236 117.5 372t308.5 136q297 0 403 -299l-86 -35q-39 113 -121 179.5t-196 66.5q-156 0 -241 -114.5t-85 -301.5q0 -193 90 -306t236 -113q127 0 212 75.5t115 184.5l86 -39q-47 -137 -150.5 -223t-262.5 -86q-190 0 -308 137t-118 366z" />
<glyph unicode="d" horiz-adv-x="980" d="M68 487q0 221 102 362.5t274 141.5q104 0 185.5 -55t115.5 -148h5v646h98v-1434h-98v172h-5q-31 -86 -106.5 -139t-185.5 -53q-180 0 -282.5 138t-102.5 369zM166 485q0 -195 76.5 -306t212.5 -111q133 0 214 114.5t81 306.5q0 182 -83 299t-216 117q-127 0 -206 -118 t-79 -302z" />
<glyph unicode="e" horiz-adv-x="978" d="M68 496q0 229 118.5 362t307.5 133q184 0 300.5 -138t116.5 -390h-743q8 -178 94 -286.5t232 -108.5q197 0 317 184l72 -57q-147 -215 -389 -215q-195 0 -310.5 141.5t-115.5 374.5zM170 543h643q-10 172 -95 267t-224 95q-147 0 -231.5 -101t-92.5 -261z" />
<glyph unicode="f" horiz-adv-x="505" d="M20 868v86h150v199q0 285 199 285q76 0 127 -21v-96q-74 25 -103 25q-70 0 -97.5 -52.5t-27.5 -158.5v-181h183v-86h-183v-868h-98v868h-150z" />
<glyph unicode="g" horiz-adv-x="976" d="M68 473q0 231 104 368.5t274 137.5q100 0 180.5 -55.5t112.5 -145.5h6v176h99v-944q0 -88 -4 -146.5t-25.5 -131t-58.5 -114.5t-107.5 -71.5t-171.5 -29.5q-172 0 -263 87t-95 218h100q4 -96 68.5 -156.5t193.5 -60.5q127 0 195.5 75.5t68.5 202.5v293h-4 q-86 -209 -299 -209q-172 0 -273 138.5t-101 367.5zM164 475q0 -176 74.5 -297t214.5 -121q131 0 211.5 119t80.5 287q0 176 -75.5 301t-216.5 125q-135 0 -212 -114t-77 -300z" />
<glyph unicode="h" horiz-adv-x="948" d="M133 0v1434h98v-629h5q31 59 107.5 116.5t191.5 57.5q291 0 290 -326v-653h-98v616q0 276 -203 277q-125 0 -209 -93t-84 -218v-582h-98z" />
<glyph unicode="i" horiz-adv-x="364" d="M133 0v954h98v-954h-98zM133 1141v182h98v-182h-98z" />
<glyph unicode="j" horiz-adv-x="362" d="M-94 -354q45 -33 110 -33q117 0 117 170v1171h98v-1165q0 -139 -47 -205.5t-153 -66.5q-70 0 -125 24v105zM133 1141v182h98v-182h-98z" />
<glyph unicode="k" horiz-adv-x="845" d="M133 0v1434h98v-990h2q35 51 170 213l248 297h113l-348 -407l399 -547h-121l-334 475l-129 -153v-322h-98z" />
<glyph unicode="l" horiz-adv-x="364" d="M133 0v1434h98v-1434h-98z" />
<glyph unicode="m" horiz-adv-x="1509" d="M133 0v954h98v-153h7q100 178 297 178q100 0 167.5 -55.5t83.5 -151.5h7q41 86 118.5 146.5t188.5 60.5q287 0 286 -340v-639h-98v623q0 268 -201 268q-117 0 -197.5 -90t-80.5 -226v-575h-98v651q0 111 -50.5 175.5t-144.5 64.5q-129 0 -207 -98.5t-78 -233.5v-559h-98z " />
<glyph unicode="n" horiz-adv-x="942" d="M133 0v954h98v-159h5q109 178 309 178q137 0 205.5 -87t68.5 -239v-647h-98v639q0 256 -197 256q-121 0 -207 -94t-86 -219v-582h-98z" />
<glyph unicode="o" d="M68 489.5q0 223.5 113.5 362.5t312.5 139q201 0 314.5 -142t113.5 -360q0 -227 -113 -368t-315 -141q-201 0 -313.5 143t-112.5 366.5zM168 489q0 -180 84 -300.5t241.5 -120.5t243.5 114.5t86 306.5q0 180 -87 298t-242 118q-154 0 -240 -116t-86 -300z" />
<glyph unicode="p" horiz-adv-x="985" d="M133 -483v1437h98v-172h5q33 88 112.5 146.5t181.5 58.5q186 0 287 -141t101 -365q0 -229 -103.5 -367.5t-277.5 -138.5q-217 0 -301 197h-5v-655h-98zM231 459q0 -180 83 -289t214 -109q133 0 213 116t80 304q0 195 -75.5 306.5t-215.5 111.5q-133 0 -216 -110.5 t-83 -284.5v-45z" />
<glyph unicode="q" horiz-adv-x="987" d="M68 489q0 227 106.5 362.5t280.5 135.5q102 0 179 -55t116 -150h6v172h98v-1437h-98v657h-6q-90 -199 -299 -199q-166 0 -274.5 134t-108.5 380zM164 489q0 -199 80 -314.5t213 -115.5q131 0 214 116t83 302q0 205 -85 313.5t-214 108.5q-135 0 -213 -113t-78 -297z" />
<glyph unicode="r" horiz-adv-x="602" d="M133 0v954h98v-194h7q39 102 122.5 159.5t188.5 57.5h33v-96h-47q-156 0 -230 -124t-74 -304v-453h-98z" />
<glyph unicode="s" horiz-adv-x="804" d="M49 135l68 62q70 -74 129 -105t164 -31q96 0 169.5 53.5t73.5 141.5q0 86 -41 120t-139 62l-180 54q-102 29 -154.5 80t-52.5 155q0 115 85 189.5t232 74.5q115 0 188 -36.5t138 -102.5l-53 -61q-115 119 -275 118q-100 0 -161.5 -49t-61.5 -127q0 -111 135 -145l191 -56 q123 -35 184.5 -92t61.5 -170q0 -135 -96.5 -212.5t-247.5 -77.5q-228 -1 -357 155z" />
<glyph unicode="t" horiz-adv-x="548" d="M35 868v86h172v308h98v-308h187v-86h-187v-639q0 -88 23.5 -120.5t89.5 -32.5q39 0 80 16v-80q-49 -20 -97 -20q-113 0 -153.5 49t-40.5 180v647h-172z" />
<glyph unicode="u" horiz-adv-x="944" d="M123 313v641h98v-635q0 -248 199 -247q121 0 207 94t86 221v567h98v-954h-98v166h-4q-109 -182 -312 -182q-137 0 -205.5 88.5t-68.5 240.5z" />
<glyph unicode="v" horiz-adv-x="813" d="M31 954h104l193 -548q41 -123 88 -291h4q39 154 82 284l184 555h96l-327 -954h-80z" />
<glyph unicode="w" horiz-adv-x="1404" d="M31 954h98l168 -512q72 -217 96 -321h4q53 188 97 317l168 516h100l162 -510q47 -143 96 -321h4q20 98 92 323l162 508h96l-313 -954h-88l-178 555q-47 141 -82 295h-4q-39 -154 -86 -295l-185 -555h-90z" />
<glyph unicode="x" horiz-adv-x="802" d="M35 0l307 500l-291 454h109l119 -192q66 -104 110 -189h4q57 104 109 187l121 194h102l-281 -448l322 -506h-107l-149 236q-51 80 -113 194h-4q-31 -57 -114 -197l-142 -233h-102z" />
<glyph unicode="y" horiz-adv-x="813" d="M37 954h104l152 -432q106 -307 133 -395h4q31 113 125 395l141 432h97l-426 -1269q-61 -176 -217 -177q-55 0 -107 15v94q4 0 20.5 -6t37 -10t40.5 -4q55 0 89 23.5t57 92.5l94 285z" />
<glyph unicode="z" horiz-adv-x="833" d="M51 0v84l586 778v4h-535v88h652v-86l-588 -778v-4h616v-86h-731z" />
<glyph unicode="{" horiz-adv-x="622" d="M102 680v82q63 0 107.5 64.5t44.5 166.5v500q0 123 59.5 185.5t145.5 62.5h82v-92h-60q-123 0 -123 -174v-498q0 -98 -43 -163.5t-92 -94.5q51 -25 93 -88.5t42 -171.5v-500q0 -174 123 -174h60v-92h-82q-88 0 -146.5 62.5t-58.5 185.5v501q0 106 -43 172t-109 66z" />
<glyph unicode="|" horiz-adv-x="354" d="M133 -307v2048h88v-2048h-88z" />
<glyph unicode="}" horiz-adv-x="622" d="M82 -215h37q80 0 112.5 39t32.5 135v453q0 127 39 203.5t94 103.5q-133 74 -133 305v451q0 96 -32.5 135t-112.5 39h-37v92h47q240 0 240 -248v-500q0 -102 44 -166.5t107 -64.5v-82q-66 0 -108.5 -65.5t-42.5 -172.5v-454q0 -170 -63.5 -232.5t-176.5 -62.5h-47v92z" />
<glyph unicode="~" horiz-adv-x="1183" d="M63 580q-8 125 59.5 204.5t168.5 79.5q94 0 303 -92q186 -82 262 -92q20 -2 41 -2q137 0 133 186h90q8 -139 -58.5 -211.5t-162.5 -72.5t-313 94q-12 6 -51 23.5t-52.5 22.5t-45 17.5t-50 17.5t-43.5 9t-47 4q-70 0 -107.5 -49t-37.5 -139h-89z" />
<glyph unicode="&#xa1;" horiz-adv-x="372" d="M133 -131l29 766h51q27 -584 27 -766v-350h-107v350zM133 772v180h107v-180h-107z" />
<glyph unicode="&#xa2;" horiz-adv-x="962" d="M61 727q0 223 106.5 358.5t283.5 147.5v213h79v-213q262 -23 361 -297l-86 -35q-76 217 -275 242v-840q109 12 182.5 86t102.5 172l86 -39q-43 -129 -136 -212t-235 -95v-231h-79v229q-174 14 -282 154.5t-108 359.5zM162 731q0 -182 78.5 -298t210.5 -130v842 q-137 -14 -213 -127t-76 -287z" />
<glyph unicode="&#xa3;" horiz-adv-x="978" d="M51 47q33 106 166 107q45 0 84 -9q70 106 70 203q0 88 -80 234h-217v84h172l-37 63q-129 225 -129 346q0 168 105.5 280.5t295.5 112.5q297 0 387 -290l-92 -29q-74 227 -295 227q-139 0 -219 -84t-80 -217q0 -47 19.5 -103.5t38 -91t59.5 -104.5l63 -110h359v-84h-320 q61 -127 62 -226q0 -92 -76 -229q35 -18 142.5 -37.5t142.5 -19.5q125 0 153 92l82 -6q-29 -86 -83 -130t-162 -44q-68 0 -249.5 44t-209.5 44q-57 0 -80 -56q-49 21 -72 33z" />
<glyph unicode="&#xa4;" horiz-adv-x="1396" d="M41 563v82h143q-2 23 -2 72q0 47 2 69h-143v82h152q41 295 220 448.5t396 153.5q156 0 287 -66.5t219 -189.5l-82 -79q-150 236 -422 235q-188 0 -328.5 -132t-175.5 -370h492v-82h-500q0 -12 -1 -34.5t-1 -34.5q0 -49 2 -72h500v-82h-490q37 -223 170 -361.5t332 -138.5 q260 0 418 240l82 -78q-190 -262 -498 -262q-252 0 -416 168t-204 432h-152z" />
<glyph unicode="&#xa5;" horiz-adv-x="950" d="M41 1434h117l317 -551l318 551h116l-381 -660v-110h238v-82h-238v-142h238v-84h-238v-356h-106v356h-238v84h238v142h-238v82h238v110z" />
<glyph unicode="&#xa6;" horiz-adv-x="348" d="M133 -41v655h82v-655h-82zM133 819v656h82v-656h-82z" />
<glyph unicode="&#xa7;" horiz-adv-x="1060" d="M86 657q0 188 205 295q-100 104 -101 222q0 115 88.5 204.5t243.5 89.5q152 0 246 -88t102 -262q-66 0 -100 -2q-27 256 -248 256q-96 0 -161.5 -51t-65.5 -135q0 -127 180 -240q31 -18 114 -64t138 -83t119.5 -92.5t98.5 -123t34 -145.5q0 -195 -215 -299 q104 -109 104 -235q0 -139 -94 -221t-246 -82q-170 0 -268 96t-98 270h104q0 -106 60.5 -188t191.5 -82q111 0 181.5 51t70.5 154q0 84 -82 163.5t-251 183t-212 136.5q-139 102 -139 272zM180 670q0 -123 121 -211q59 -45 197.5 -130t201.5 -134q178 84 179 223 q0 98 -64.5 165.5t-181.5 137.5q-158 94 -279 178q-76 -31 -125 -91t-49 -138z" />
<glyph unicode="&#xa8;" horiz-adv-x="489" d="M61 1106v283h99v-283h-99zM330 1106v283h98v-283h-98z" />
<glyph unicode="&#xa9;" horiz-adv-x="1488" d="M66 706.5q0 290.5 196.5 489.5t482.5 199q289 0 483.5 -200t194.5 -488q0 -293 -194.5 -493t-483.5 -200q-287 0 -483 201t-196 491.5zM139 702q0 -264 174 -443t432 -179q256 0 430.5 180t174.5 447q0 264 -174.5 444t-430.5 180t-431 -181.5t-175 -447.5zM373 715 q0 213 113.5 323.5t261.5 110.5q123 0 216 -66.5t140 -183.5l-74 -29q-33 94 -105.5 152.5t-176.5 58.5q-123 0 -211 -98t-88 -268q0 -158 81.5 -263.5t217.5 -105.5q195 0 288 221l72 -32q-117 -256 -358 -256q-172 0 -274.5 126t-102.5 310z" />
<glyph unicode="&#xaa;" horiz-adv-x="716" d="M66 782q0 51 20 89t49 58.5t79 35t86 18.5t97.5 9t87.5 9v58q0 63 -36.5 100t-104.5 37q-51 0 -85 -17.5t-49 -47t-20.5 -48t-7.5 -43.5h-90q2 88 56.5 154t191.5 66q113 0 170 -54.5t57 -144.5v-287q0 -109 35 -108q10 0 29 6l20 6v-74q-29 -8 -67 -8q-80 0 -95 92 q-84 -98 -200 -98q-102 0 -162.5 52t-60.5 140zM152 782q0 -57 38.5 -88.5t106.5 -31.5q70 0 118 40.5t70 90.5v143q-25 -4 -69.5 -8t-69 -8.5t-60.5 -10.5t-56.5 -16t-40 -24.5t-28.5 -36t-9 -50.5z" />
<glyph unicode="&#xab;" horiz-adv-x="774" d="M82 459v119l305 307v-121l-231 -246l231 -246v-120zM367 459v119l305 307v-121l-232 -246l232 -246v-120z" />
<glyph unicode="&#xac;" horiz-adv-x="1175" d="M82 659v99h981v-539h-107v440h-874z" />
<glyph unicode="&#xad;" horiz-adv-x="608" d="M90 485v95h418v-95h-418z" />
<glyph unicode="&#xae;" horiz-adv-x="1488" d="M66 706.5q0 290.5 196.5 489.5t482.5 199q289 0 483.5 -200t194.5 -488q0 -293 -194.5 -493t-483.5 -200q-287 0 -483 201t-196 491.5zM139 702q0 -264 174 -443t432 -179q256 0 430.5 180t174.5 447q0 264 -174.5 444t-430.5 180t-431 -181.5t-175 -447.5zM539 309v819 h219q117 0 188.5 -59t71.5 -164q0 -90 -55.5 -152.5t-133.5 -78.5l234 -365h-82l-227 359h-142v-359h-73zM612 733h150q74 0 128 46t54 126q0 156 -192 156h-140v-328z" />
<glyph unicode="&#xaf;" horiz-adv-x="583" d="M61 1130v84h461v-84h-461z" />
<glyph unicode="&#xb0;" horiz-adv-x="749" d="M61 1141q0 135 91.5 224t222.5 89t222 -89t91 -224q0 -133 -89 -221.5t-216 -88.5q-133 0 -227.5 88.5t-94.5 221.5zM143 1140.5q0 -102.5 68 -169t168 -66.5q96 0 161.5 66.5t65.5 169t-67.5 169t-163.5 66.5q-98 0 -165 -66.5t-67 -169z" />
<glyph unicode="&#xb1;" horiz-adv-x="1148" d="M92 180v101h965v-101h-965zM92 842v98h432v434h101v-434h432v-98h-432v-434h-101v434h-432z" />
<glyph unicode="&#xb2;" horiz-adv-x="782" d="M78 571v74q164 98 313 207q211 160 211 307q0 96 -60.5 150.5t-156.5 54.5q-205 0 -213 -283h-84q0 160 71.5 260.5t231.5 100.5q133 0 216 -82t83 -201q0 -197 -250 -368l-118 -80q-66 -47 -93 -62h476v-78h-627z" />
<glyph unicode="&#xb3;" horiz-adv-x="811" d="M78 854h88q2 -100 63.5 -158.5t178.5 -58.5q104 0 171.5 49t67.5 133q0 76 -59.5 118t-151.5 42h-135v72h137q86 0 138.5 39.5t52.5 109.5q0 72 -57.5 118t-155.5 46q-113 0 -170.5 -60.5t-57.5 -144.5h-82q0 119 80 201t232 82q125 0 208 -68.5t83 -173.5 q0 -131 -117 -184q57 -23 99 -74t42 -125q0 -119 -94 -187.5t-227 -68.5q-160 0 -247 82t-87 211z" />
<glyph unicode="&#xb4;" horiz-adv-x="464" d="M61 1106l209 283h133l-249 -283h-93z" />
<glyph unicode="&#xb5;" horiz-adv-x="946" d="M133 -348v1302h98v-618q0 -264 193 -264q131 0 213 97t82 224v561h94v-954h-90v174h-4q-115 -190 -299 -190q-125 0 -189 88v-420h-98z" />
<glyph unicode="&#xb6;" horiz-adv-x="1056" d="M92 1024q0 197 123 303.5t340 106.5h369v-1739h-84v1655h-252v-1655h-82v946q-188 2 -301 111.5t-113 271.5z" />
<glyph unicode="&#xb7;" horiz-adv-x="342" d="M92 623v186h129v-186h-129z" />
<glyph unicode="&#xb8;" horiz-adv-x="546" d="M61 -403l25 57q84 -37 160 -37q59 0 101 30.5t42 82.5q0 45 -35 67.5t-82 22.5q-43 0 -110 -27l-29 33l133 174h70l-98 -133q37 12 75 12q84 0 128 -42t44 -103q0 -78 -60 -130.5t-165 -52.5q-109 1 -199 46z" />
<glyph unicode="&#xb9;" horiz-adv-x="471" d="M78 1247v72q113 0 162 115h75v-863h-88v711q-69 -35 -149 -35z" />
<glyph unicode="&#xba;" horiz-adv-x="741" d="M66 918q0 152 80.5 248t222.5 96q143 0 224 -97.5t81 -246.5q0 -156 -80 -252.5t-225 -96.5q-143 0 -223 97.5t-80 251.5zM152 918q0 -117 56 -195t160.5 -78t162 75t57.5 198q0 119 -57.5 193.5t-161.5 74.5q-102 0 -159.5 -74.5t-57.5 -193.5z" />
<glyph unicode="&#xbb;" horiz-adv-x="774" d="M102 152v120l232 246l-232 246v121l306 -307v-119zM387 152v120l231 246l-231 246v121l305 -307v-119z" />
<glyph unicode="&#xbc;" horiz-adv-x="1406" d="M78 1247v72q113 0 162 115h75v-863h-88v711q-69 -35 -149 -35zM162 -10l893 1495h88l-893 -1495h-88zM618 233v56l492 573h66v-557h153v-72h-153v-233h-82v233h-476zM731 305h363v424z" />
<glyph unicode="&#xbd;" horiz-adv-x="1525" d="M78 1247v72q113 0 162 115h75v-863h-88v711q-69 -35 -149 -35zM158 -10l893 1495h88l-893 -1495h-88zM821 0v74q164 98 314 207q211 160 211 307q0 96 -60.5 150.5t-157.5 54.5q-205 0 -213 -283h-84q0 160 72 260t232 100q133 0 216 -81.5t83 -200.5q0 -197 -250 -369 l-119 -80q-66 -45 -92 -61h475v-78h-627z" />
<glyph unicode="&#xbe;" horiz-adv-x="1714" d="M78 854h88q2 -100 63.5 -158.5t178.5 -58.5q104 0 171.5 49t67.5 133q0 76 -59.5 118t-151.5 42h-135v72h137q86 0 138.5 39.5t52.5 109.5q0 72 -57.5 118t-155.5 46q-113 0 -170.5 -60.5t-57.5 -144.5h-82q0 119 80 201t232 82q125 0 208 -68.5t83 -173.5 q0 -131 -117 -184q57 -23 99 -74t42 -125q0 -119 -94 -187.5t-227 -68.5q-160 0 -247 82t-87 211zM469 -10l893 1495h88l-893 -1495h-88zM926 233v56l491 573h66v-557h153v-72h-153v-233h-82v233h-475zM1038 305h363v424z" />
<glyph unicode="&#xbf;" horiz-adv-x="1060" d="M102 -141q0 -164 122 -267.5t304 -103.5q184 0 312.5 118t128.5 326h-107q0 -162 -97 -254t-237 -92q-137 0 -228 76t-91 197q0 45 10 80.5t37 68.5t44 50.5t61.5 52t60.5 47.5q86 72 134 167t48 257h-96q0 -123 -40 -202t-112 -144q-20 -18 -68 -56.5t-73 -62 t-55.5 -62.5t-44 -88t-13.5 -108zM508 768v186h96v-186h-96z" />
<glyph unicode="&#xc0;" horiz-adv-x="1214" d="M20 0l519 1434h104l551 -1434h-115l-184 475h-592l-172 -475h-111zM336 567h526l-190 498q-61 166 -80 233h-4q-25 -102 -74 -235zM367 1720h133l145 -184h-90z" />
<glyph unicode="&#xc1;" horiz-adv-x="1214" d="M20 0l519 1434h104l551 -1434h-115l-184 475h-592l-172 -475h-111zM336 567h526l-190 498q-61 166 -80 233h-4q-25 -102 -74 -235zM537 1536l143 184h127l-186 -184h-84z" />
<glyph unicode="&#xc2;" horiz-adv-x="1214" d="M20 0l519 1434h104l551 -1434h-115l-184 475h-592l-172 -475h-111zM326 1536l206 184h125l203 -184h-108l-160 131l-156 -131h-110zM336 567h526l-190 498q-61 166 -80 233h-4q-25 -102 -74 -235z" />
<glyph unicode="&#xc3;" horiz-adv-x="1214" d="M20 0l519 1434h104l551 -1434h-115l-184 475h-592l-172 -475h-111zM322 1544q2 61 39.5 105.5t107.5 44.5q51 0 141 -38t115 -38q61 0 68 65h71q-2 -68 -36.5 -107.5t-96.5 -39.5q-41 0 -133 39t-131 39q-37 0 -54.5 -21.5t-19.5 -48.5h-71zM336 567h526l-190 498 q-61 166 -80 233h-4q-25 -102 -74 -235z" />
<glyph unicode="&#xc4;" horiz-adv-x="1214" d="M20 0l519 1434h104l551 -1434h-115l-184 475h-592l-172 -475h-111zM336 567h526l-190 498q-61 166 -80 233h-4q-25 -102 -74 -235zM410 1550v170h98v-170h-98zM678 1550v170h98v-170h-98z" />
<glyph unicode="&#xc5;" horiz-adv-x="1214" d="M20 0l519 1434h104l551 -1434h-115l-184 475h-592l-172 -475h-111zM336 567h526l-190 498q-61 166 -80 233h-4q-25 -102 -74 -235zM406 1653q0 80 52 132t132 52q78 0 131 -52t53 -132q0 -78 -53 -130.5t-131 -52.5q-80 0 -132 52.5t-52 130.5zM469 1653q0 -51 35 -85 t86 -34t85 34t34 85t-34 86t-85 35t-86 -35t-35 -86z" />
<glyph unicode="&#xc6;" horiz-adv-x="1873" d="M10 0l801 1434h918v-99h-791l102 -544h674v-99h-655l110 -594h623v-98h-719l-86 455h-604l-256 -455h-117zM438 555h531l-133 717z" />
<glyph unicode="&#xc7;" horiz-adv-x="1349" d="M72 717q0 186 53 334.5t143 237.5t197.5 135t226.5 46q197 0 351.5 -111.5t220.5 -344.5l-109 -29q-49 197 -176 292t-287 95q-94 0 -182 -39t-162 -114.5t-118 -205.5t-44 -296q0 -313 146.5 -485.5t361.5 -172.5q162 0 287 102.5t180 299.5l107 -27q-55 -221 -206 -342 t-343 -129l-78 -106q37 12 76 12q84 0 128 -42t44 -103q0 -78 -60.5 -130.5t-164.5 -52.5q-109 0 -199 45l24 58q84 -37 160 -37q59 0 101.5 30.5t42.5 81.5q0 45 -35 68t-82 23q-43 0 -111 -27l-28 33l112 149q-248 18 -412.5 215t-164.5 537z" />
<glyph unicode="&#xc8;" horiz-adv-x="1087" d="M133 0v1434h846v-99h-739v-544h706v-99h-706v-594h766v-98h-873zM369 1720h133l145 -184h-90z" />
<glyph unicode="&#xc9;" horiz-adv-x="1087" d="M133 0v1434h846v-99h-739v-544h706v-99h-706v-594h766v-98h-873zM520 1536l144 184h127l-187 -184h-84z" />
<glyph unicode="&#xca;" horiz-adv-x="1087" d="M133 0v1434h846v-99h-739v-544h706v-99h-706v-594h766v-98h-873zM315 1536l207 184h125l203 -184h-109l-159 131l-156 -131h-111z" />
<glyph unicode="&#xcb;" horiz-adv-x="1087" d="M133 0v1434h846v-99h-739v-544h706v-99h-706v-594h766v-98h-873zM399 1550v170h99v-170h-99zM668 1550v170h98v-170h-98z" />
<glyph unicode="&#xcc;" horiz-adv-x="372" d="M-25 1720h134l145 -184h-90zM133 0v1434h107v-1434h-107z" />
<glyph unicode="&#xcd;" horiz-adv-x="372" d="M119 1536l143 184h127l-186 -184h-84zM133 0v1434h107v-1434h-107z" />
<glyph unicode="&#xce;" horiz-adv-x="372" d="M-82 1536l207 184h125l203 -184h-109l-160 131l-155 -131h-111zM133 0v1434h107v-1434h-107z" />
<glyph unicode="&#xcf;" horiz-adv-x="372" d="M4 1550v170h98v-170h-98zM133 0v1434h107v-1434h-107zM272 1550v170h99v-170h-99z" />
<glyph unicode="&#xd0;" horiz-adv-x="1310" d="M41 688v94h133v652h381q326 0 505 -192.5t179 -506.5q0 -340 -163 -537.5t-462 -197.5h-440v688h-133zM281 98h307q260 0 402.5 168t142.5 469q0 281 -151 440.5t-427 159.5h-274v-553h393v-94h-393v-590z" />
<glyph unicode="&#xd1;" horiz-adv-x="1286" d="M133 0v1434h107l565 -856q217 -332 274 -443l4 2q-18 250 -18 817v480h106v-1434h-106l-555 842q-201 299 -279 454l-4 -2q12 -266 13 -735v-559h-107zM385 1544q2 61 40 105.5t107 44.5q49 0 139.5 -38t116.5 -38q61 0 68 65h72q-2 -68 -37 -107.5t-96 -39.5 q-41 0 -133.5 39t-131.5 39q-37 0 -54 -21.5t-19 -48.5h-72z" />
<glyph unicode="&#xd2;" horiz-adv-x="1394" d="M72 717q0 354 181 553.5t439 199.5q262 0 446.5 -196.5t184.5 -556.5q0 -344 -183.5 -549t-447.5 -205q-268 0 -444 203t-176 551zM184 717q0 -305 143.5 -480.5t364.5 -175.5q219 0 368.5 176.5t149.5 479.5q0 315 -151.5 485t-366.5 170q-211 0 -359.5 -171 t-148.5 -484zM463 1741h133l145 -185h-90z" />
<glyph unicode="&#xd3;" horiz-adv-x="1394" d="M72 717q0 354 181 553.5t439 199.5q262 0 446.5 -196.5t184.5 -556.5q0 -344 -183.5 -549t-447.5 -205q-268 0 -444 203t-176 551zM184 717q0 -305 143.5 -480.5t364.5 -175.5q219 0 368.5 176.5t149.5 479.5q0 315 -151.5 485t-366.5 170q-211 0 -359.5 -171 t-148.5 -484zM635 1556l143 185h127l-186 -185h-84z" />
<glyph unicode="&#xd4;" horiz-adv-x="1394" d="M72 717q0 354 181 553.5t439 199.5q262 0 446.5 -196.5t184.5 -556.5q0 -344 -183.5 -549t-447.5 -205q-268 0 -444 203t-176 551zM184 717q0 -305 143.5 -480.5t364.5 -175.5q219 0 368.5 176.5t149.5 479.5q0 315 -151.5 485t-366.5 170q-211 0 -359.5 -171 t-148.5 -484zM426 1556l207 185h125l203 -185h-109l-160 132l-155 -132h-111z" />
<glyph unicode="&#xd5;" horiz-adv-x="1394" d="M72 717q0 354 181 553.5t439 199.5q262 0 446.5 -196.5t184.5 -556.5q0 -344 -183.5 -549t-447.5 -205q-268 0 -444 203t-176 551zM184 717q0 -305 143.5 -480.5t364.5 -175.5q219 0 368.5 176.5t149.5 479.5q0 315 -151.5 485t-366.5 170q-211 0 -359.5 -171 t-148.5 -484zM422 1571q2 61 40 105t107 44q49 0 139.5 -37.5t116.5 -37.5q61 0 68 65h72q-2 -68 -37 -107.5t-97 -39.5q-41 0 -133 38.5t-131 38.5q-37 0 -54 -21.5t-19 -47.5h-72z" />
<glyph unicode="&#xd6;" horiz-adv-x="1394" d="M72 717q0 354 181 553.5t439 199.5q262 0 446.5 -196.5t184.5 -556.5q0 -344 -183.5 -549t-447.5 -205q-268 0 -444 203t-176 551zM184 717q0 -305 143.5 -480.5t364.5 -175.5q219 0 368.5 176.5t149.5 479.5q0 315 -151.5 485t-366.5 170q-211 0 -359.5 -171 t-148.5 -484zM510 1554v170h98v-170h-98zM778 1554v170h99v-170h-99z" />
<glyph unicode="&#xd7;" horiz-adv-x="1003" d="M125 506l307 307l-307 307l70 70l307 -307l307 307l70 -70l-308 -307l308 -307l-70 -70l-307 307l-307 -307z" />
<glyph unicode="&#xd8;" horiz-adv-x="1394" d="M72 -37l164 215q-164 207 -164 539q0 354 181 553.5t439 199.5q233 0 408 -157l119 157h104l-168 -219q168 -205 168 -534q0 -344 -183.5 -549t-447.5 -205q-238 0 -399 156l-119 -156h-102zM184 717q0 -274 119 -449l731 961q-141 143 -342 143q-211 0 -359.5 -171 t-148.5 -484zM356 203q137 -141 336 -142q219 0 368.5 176.5t149.5 479.5q0 274 -123 446z" />
<glyph unicode="&#xd9;" horiz-adv-x="1275" d="M127 487v947h106v-945q0 -199 109 -311t289 -112q201 0 307 110.5t106 315.5v942h105v-942q0 -262 -136 -394.5t-384 -132.5q-219 0 -360.5 132t-141.5 390zM410 1720h133l145 -184h-90z" />
<glyph unicode="&#xda;" horiz-adv-x="1275" d="M127 487v947h106v-945q0 -199 109 -311t289 -112q201 0 307 110.5t106 315.5v942h105v-942q0 -262 -136 -394.5t-384 -132.5q-219 0 -360.5 132t-141.5 390zM588 1536l143 184h127l-186 -184h-84z" />
<glyph unicode="&#xdb;" horiz-adv-x="1275" d="M127 487v947h106v-945q0 -199 109 -311t289 -112q201 0 307 110.5t106 315.5v942h105v-942q0 -262 -136 -394.5t-384 -132.5q-219 0 -360.5 132t-141.5 390zM369 1536l206 184h125l203 -184h-108l-160 131l-156 -131h-110z" />
<glyph unicode="&#xdc;" horiz-adv-x="1275" d="M127 487v947h106v-945q0 -199 109 -311t289 -112q201 0 307 110.5t106 315.5v942h105v-942q0 -262 -136 -394.5t-384 -132.5q-219 0 -360.5 132t-141.5 390zM455 1550v170h98v-170h-98zM723 1550v170h98v-170h-98z" />
<glyph unicode="&#xdd;" horiz-adv-x="1085" d="M31 1434h116l394 -693l395 693h117l-459 -793v-641h-107v639zM481 1536l144 184h127l-187 -184h-84z" />
<glyph unicode="&#xde;" horiz-adv-x="983" d="M133 0v1434h107v-263h153q246 0 380 -116.5t134 -304.5q0 -211 -132 -330t-390 -119h-145v-301h-107zM240 397h157q199 0 300.5 89t101.5 262q0 147 -100.5 236t-305.5 89h-153v-676z" />
<glyph unicode="&#xdf;" horiz-adv-x="1040" d="M133 0v1106q0 164 105.5 264t273.5 100q166 0 278.5 -100t112.5 -258q0 -129 -60.5 -209t-154.5 -104q123 -18 205 -119.5t82 -259.5q0 -209 -124 -323.5t-351 -114.5q-25 0 -80 6v92q43 -6 78 -6q186 0 281 92t95 254q0 170 -104 249t-264 79h-86v88h88q127 0 211 72.5 t84 203.5q0 113 -81 189.5t-210 76.5q-119 0 -200 -68.5t-81 -222.5v-1087h-98z" />
<glyph unicode="&#xe0;" horiz-adv-x="929" d="M72 258q0 121 73.5 196.5t186.5 90.5l348 43v100q0 102 -56.5 161.5t-162.5 59.5q-74 0 -127 -24.5t-79 -65.5t-37 -80t-11 -82h-98q0 55 13 106.5t48 107t108.5 88t178.5 32.5q156 0 234.5 -84t78.5 -217v-547q0 -78 66 -77q33 0 69 14v-80q-57 -14 -98 -14 q-127 0 -127 137v27q-35 -68 -113 -119t-184 -51q-145 0 -228 74.5t-83 203.5zM170 258q0 -94 58.5 -146.5t162.5 -52.5q129 0 209 87t80 171v199l-295 -39q-215 -29 -215 -219zM180 1389h137l209 -283h-96z" />
<glyph unicode="&#xe1;" horiz-adv-x="929" d="M72 258q0 121 73.5 196.5t186.5 90.5l348 43v100q0 102 -56.5 161.5t-162.5 59.5q-74 0 -127 -24.5t-79 -65.5t-37 -80t-11 -82h-98q0 55 13 106.5t48 107t108.5 88t178.5 32.5q156 0 234.5 -84t78.5 -217v-547q0 -78 66 -77q33 0 69 14v-80q-57 -14 -98 -14 q-127 0 -127 137v27q-35 -68 -113 -119t-184 -51q-145 0 -228 74.5t-83 203.5zM170 258q0 -94 58.5 -146.5t162.5 -52.5q129 0 209 87t80 171v199l-295 -39q-215 -29 -215 -219zM393 1106l209 283h133l-250 -283h-92z" />
<glyph unicode="&#xe2;" horiz-adv-x="929" d="M72 258q0 121 73.5 196.5t186.5 90.5l348 43v100q0 102 -56.5 161.5t-162.5 59.5q-74 0 -127 -24.5t-79 -65.5t-37 -80t-11 -82h-98q0 55 13 106.5t48 107t108.5 88t178.5 32.5q156 0 234.5 -84t78.5 -217v-547q0 -78 66 -77q33 0 69 14v-80q-57 -14 -98 -14 q-127 0 -127 137v27q-35 -68 -113 -119t-184 -51q-145 0 -228 74.5t-83 203.5zM170 258q0 -94 58.5 -146.5t162.5 -52.5q129 0 209 87t80 171v199l-295 -39q-215 -29 -215 -219zM201 1106l196 283h119l197 -283h-105l-151 217l-156 -217h-100z" />
<glyph unicode="&#xe3;" horiz-adv-x="929" d="M72 258q0 121 73.5 196.5t186.5 90.5l348 43v100q0 102 -56.5 161.5t-162.5 59.5q-74 0 -127 -24.5t-79 -65.5t-37 -80t-11 -82h-98q0 55 13 106.5t48 107t108.5 88t178.5 32.5q156 0 234.5 -84t78.5 -217v-547q0 -78 66 -77q33 0 69 14v-80q-57 -14 -98 -14 q-127 0 -127 137v27q-35 -68 -113 -119t-184 -51q-145 0 -228 74.5t-83 203.5zM170 258q0 -94 58.5 -146.5t162.5 -52.5q129 0 209 87t80 171v199l-295 -39q-215 -29 -215 -219zM195 1130q6 70 40.5 118t108.5 48q47 0 121 -45t98 -45q63 0 72 80h72q-4 -74 -41 -119 t-103 -45q-43 0 -116.5 45t-110.5 45q-59 0 -72 -82h-69z" />
<glyph unicode="&#xe4;" horiz-adv-x="929" d="M72 258q0 121 73.5 196.5t186.5 90.5l348 43v100q0 102 -56.5 161.5t-162.5 59.5q-74 0 -127 -24.5t-79 -65.5t-37 -80t-11 -82h-98q0 55 13 106.5t48 107t108.5 88t178.5 32.5q156 0 234.5 -84t78.5 -217v-547q0 -78 66 -77q33 0 69 14v-80q-57 -14 -98 -14 q-127 0 -127 137v27q-35 -68 -113 -119t-184 -51q-145 0 -228 74.5t-83 203.5zM170 258q0 -94 58.5 -146.5t162.5 -52.5q129 0 209 87t80 171v199l-295 -39q-215 -29 -215 -219zM272 1106v283h99v-283h-99zM541 1106v283h98v-283h-98z" />
<glyph unicode="&#xe5;" horiz-adv-x="929" d="M72 258q0 121 73.5 196.5t186.5 90.5l348 43v100q0 102 -56.5 161.5t-162.5 59.5q-74 0 -127 -24.5t-79 -65.5t-37 -80t-11 -82h-98q0 55 13 106.5t48 107t108.5 88t178.5 32.5q156 0 234.5 -84t78.5 -217v-547q0 -78 66 -77q33 0 69 14v-80q-57 -14 -98 -14 q-127 0 -127 137v27q-35 -68 -113 -119t-184 -51q-145 0 -228 74.5t-83 203.5zM170 258q0 -94 58.5 -146.5t162.5 -52.5q129 0 209 87t80 171v199l-295 -39q-215 -29 -215 -219zM272 1280q0 80 52.5 132t132.5 52q78 0 131 -52t53 -132q0 -78 -53 -130t-131 -52 q-80 0 -132.5 52t-52.5 130zM336 1280q0 -51 35 -85t86 -34t84.5 34t33.5 85t-33.5 86t-84.5 35t-86 -35t-35 -86z" />
<glyph unicode="&#xe6;" horiz-adv-x="1589" d="M72 258q0 150 96 214.5t262 82.5l250 27v106q0 104 -56.5 162.5t-162.5 58.5q-76 0 -128 -24.5t-76 -66.5t-33 -80t-9 -81h-106q0 55 13 104.5t48 103t108.5 85t178.5 31.5q123 0 197.5 -53.5t99.5 -143.5q111 207 350 207q184 0 301 -138t117 -390h-744 q6 -176 93 -285.5t233 -109.5q197 0 317 184l72 -57q-147 -215 -389 -215q-268 0 -371 256q-111 -256 -350 -256q-143 0 -227 74.5t-84 203.5zM172 258q0 -94 58.5 -146.5t162.5 -52.5q76 0 133.5 32t88 82t47 98t18.5 94v143q-25 -2 -83 -8t-85 -9.5t-77 -9.5t-73.5 -14 t-60.5 -20.5t-55.5 -30t-38 -40t-27.5 -52t-8 -66.5zM780 543h643q-10 172 -95 267t-224 95q-147 0 -231.5 -101t-92.5 -261z" />
<glyph unicode="&#xe7;" d="M68 483q0 236 117.5 372t308.5 136q297 0 403 -299l-86 -35q-39 113 -121 179.5t-196 66.5q-156 0 -241 -114.5t-85 -301.5q0 -193 90 -306t236 -113q127 0 212 75.5t115 184.5l86 -39q-98 -285 -366 -307l-84 -115q37 12 75 12q84 0 128.5 -42t44.5 -103 q0 -78 -60.5 -130.5t-165.5 -52.5q-109 0 -198 46l24 57q84 -37 160 -37q59 0 101 30.5t42 82.5q0 45 -34.5 67.5t-81.5 22.5q-43 0 -111 -27l-29 33l115 154q-180 10 -289.5 146t-109.5 357z" />
<glyph unicode="&#xe8;" horiz-adv-x="978" d="M68 496q0 229 118.5 362t307.5 133q184 0 300.5 -138t116.5 -390h-743q8 -178 94 -286.5t232 -108.5q197 0 317 184l72 -57q-147 -215 -389 -215q-195 0 -310.5 141.5t-115.5 374.5zM170 543h643q-10 172 -95 267t-224 95q-147 0 -231.5 -101t-92.5 -261zM231 1401h138 l209 -283h-97z" />
<glyph unicode="&#xe9;" horiz-adv-x="978" d="M68 496q0 229 118.5 362t307.5 133q184 0 300.5 -138t116.5 -390h-743q8 -178 94 -286.5t232 -108.5q197 0 317 184l72 -57q-147 -215 -389 -215q-195 0 -310.5 141.5t-115.5 374.5zM170 543h643q-10 172 -95 267t-224 95q-147 0 -231.5 -101t-92.5 -261zM422 1120 l209 283h133l-250 -283h-92z" />
<glyph unicode="&#xea;" horiz-adv-x="978" d="M68 496q0 229 118.5 362t307.5 133q184 0 300.5 -138t116.5 -390h-743q8 -178 94 -286.5t232 -108.5q197 0 317 184l72 -57q-147 -215 -389 -215q-195 0 -310.5 141.5t-115.5 374.5zM170 543h643q-10 172 -95 267t-224 95q-147 0 -231.5 -101t-92.5 -261zM236 1106 l196 283h119l197 -283h-105l-151 217l-156 -217h-100z" />
<glyph unicode="&#xeb;" horiz-adv-x="978" d="M68 496q0 229 118.5 362t307.5 133q184 0 300.5 -138t116.5 -390h-743q8 -178 94 -286.5t232 -108.5q197 0 317 184l72 -57q-147 -215 -389 -215q-195 0 -310.5 141.5t-115.5 374.5zM170 543h643q-10 172 -95 267t-224 95q-147 0 -231.5 -101t-92.5 -261zM309 1106v283 h99v-283h-99zM578 1106v283h98v-283h-98z" />
<glyph unicode="&#xec;" horiz-adv-x="364" d="M-80 1389h137l209 -283h-96zM133 0v954h98v-954h-98z" />
<glyph unicode="&#xed;" horiz-adv-x="364" d="M100 1106l209 283h133l-249 -283h-93zM133 0v954h98v-954h-98z" />
<glyph unicode="&#xee;" horiz-adv-x="364" d="M-51 1106l176 283h119l176 -283h-105l-131 217l-135 -217h-100zM133 0v954h98v-954h-98z" />
<glyph unicode="&#xef;" horiz-adv-x="364" d="M0 1106v283h98v-283h-98zM133 0v954h98v-954h-98zM268 1106v283h99v-283h-99z" />
<glyph unicode="&#xf0;" d="M68 485.5q0 223.5 112.5 364.5t313.5 141q158 0 254 -110l2 2q-63 125 -123 203.5t-152 160.5l-221 -119l-53 52l219 118q-100 78 -174 121l63 54q111 -68 193 -132l219 119l53 -51l-213 -117q162 -145 261.5 -340.5t99.5 -427.5v-24q0 -233 -113 -376.5t-315 -143.5 q-201 0 -313.5 141t-112.5 364.5zM168 485q0 -180 84 -298.5t242 -118.5q156 0 242.5 114.5t86.5 302.5q0 184 -87 302t-242 118q-154 0 -240 -118t-86 -302z" />
<glyph unicode="&#xf1;" horiz-adv-x="942" d="M133 0v954h98v-159h5q109 178 309 178q137 0 205.5 -87t68.5 -239v-647h-98v639q0 256 -197 256q-121 0 -207 -94t-86 -219v-582h-98zM213 1130q6 70 41 118t108 48q47 0 121 -45t99 -45q63 0 71 80h72q-4 -74 -41 -119t-102 -45q-43 0 -117 45t-111 45q-59 0 -71 -82 h-70z" />
<glyph unicode="&#xf2;" d="M68 489.5q0 223.5 113.5 362.5t312.5 139q201 0 314.5 -142t113.5 -360q0 -227 -113 -368t-315 -141q-201 0 -313.5 143t-112.5 366.5zM168 489q0 -180 84 -300.5t241.5 -120.5t243.5 114.5t86 306.5q0 180 -87 298t-242 118q-154 0 -240 -116t-86 -300zM233 1403h138 l209 -283h-97z" />
<glyph unicode="&#xf3;" d="M68 489.5q0 223.5 113.5 362.5t312.5 139q201 0 314.5 -142t113.5 -360q0 -227 -113 -368t-315 -141q-201 0 -313.5 143t-112.5 366.5zM168 489q0 -180 84 -300.5t241.5 -120.5t243.5 114.5t86 306.5q0 180 -87 298t-242 118q-154 0 -240 -116t-86 -300zM418 1120 l209 283h133l-250 -283h-92z" />
<glyph unicode="&#xf4;" d="M68 489.5q0 223.5 113.5 362.5t312.5 139q201 0 314.5 -142t113.5 -360q0 -227 -113 -368t-315 -141q-201 0 -313.5 143t-112.5 366.5zM168 489q0 -180 84 -300.5t241.5 -120.5t243.5 114.5t86 306.5q0 180 -87 298t-242 118q-154 0 -240 -116t-86 -300zM240 1106 l196 283h119l197 -283h-105l-151 217l-156 -217h-100z" />
<glyph unicode="&#xf5;" d="M68 489.5q0 223.5 113.5 362.5t312.5 139q201 0 314.5 -142t113.5 -360q0 -227 -113 -368t-315 -141q-201 0 -313.5 143t-112.5 366.5zM168 489q0 -180 84 -300.5t241.5 -120.5t243.5 114.5t86 306.5q0 180 -87 298t-242 118q-154 0 -240 -116t-86 -300zM236 1135 q6 70 40.5 117.5t108.5 47.5q47 0 121 -45t98 -45q63 0 72 80h72q-4 -74 -41 -119t-103 -45q-43 0 -116.5 45.5t-110.5 45.5q-59 0 -72 -82h-69z" />
<glyph unicode="&#xf6;" d="M68 489.5q0 223.5 113.5 362.5t312.5 139q201 0 314.5 -142t113.5 -360q0 -227 -113 -368t-315 -141q-201 0 -313.5 143t-112.5 366.5zM168 489q0 -180 84 -300.5t241.5 -120.5t243.5 114.5t86 306.5q0 180 -87 298t-242 118q-154 0 -240 -116t-86 -300zM311 1106v283h99 v-283h-99zM580 1106v283h98v-283h-98z" />
<glyph unicode="&#xf7;" horiz-adv-x="1085" d="M68 680v98h950v-98h-950zM489 250v186h107v-186h-107zM489 1018v186h107v-186h-107z" />
<glyph unicode="&#xf8;" d="M68 -20l108 145q-109 139 -108 364q0 223 113.5 362.5t312.5 139.5q152 0 264 -92l67 92h97l-111 -147q111 -139 111 -355q0 -227 -113 -368t-315 -141q-156 0 -263 90l-67 -90h-96zM168 489q0 -170 70 -282l462 618q-86 80 -206 80q-154 0 -240 -116t-86 -300zM289 145 q82 -78 205 -77q158 0 243.5 114.5t85.5 306.5q0 166 -71 275z" />
<glyph unicode="&#xf9;" horiz-adv-x="944" d="M123 313v641h98v-635q0 -248 199 -247q121 0 207 94t86 221v567h98v-954h-98v166h-4q-109 -182 -312 -182q-137 0 -205.5 88.5t-68.5 240.5zM188 1389h138l209 -283h-97z" />
<glyph unicode="&#xfa;" horiz-adv-x="944" d="M123 313v641h98v-635q0 -248 199 -247q121 0 207 94t86 221v567h98v-954h-98v166h-4q-109 -182 -312 -182q-137 0 -205.5 88.5t-68.5 240.5zM385 1106l209 283h133l-250 -283h-92z" />
<glyph unicode="&#xfb;" horiz-adv-x="944" d="M123 313v641h98v-635q0 -248 199 -247q121 0 207 94t86 221v567h98v-954h-98v166h-4q-109 -182 -312 -182q-137 0 -205.5 88.5t-68.5 240.5zM209 1106l197 283h118l197 -283h-105l-151 217l-156 -217h-100z" />
<glyph unicode="&#xfc;" horiz-adv-x="944" d="M123 313v641h98v-635q0 -248 199 -247q121 0 207 94t86 221v567h98v-954h-98v166h-4q-109 -182 -312 -182q-137 0 -205.5 88.5t-68.5 240.5zM283 1106v283h98v-283h-98zM551 1106v283h98v-283h-98z" />
<glyph unicode="&#xfd;" horiz-adv-x="813" d="M37 954h104l152 -432q106 -307 133 -395h4q31 113 125 395l141 432h97l-426 -1269q-61 -176 -217 -177q-55 0 -107 15v94q4 0 20.5 -6t37 -10t40.5 -4q55 0 89 23.5t57 92.5l94 285zM336 1106l209 283h133l-250 -283h-92z" />
<glyph unicode="&#xfe;" horiz-adv-x="983" d="M133 -483v1917h98v-652h5q33 88 112.5 146.5t181.5 58.5q186 0 287 -141t101 -365q0 -229 -103.5 -367.5t-277.5 -138.5q-217 0 -301 197h-5v-655h-98zM231 459q0 -180 83 -289t214 -109q133 0 213 116t80 304q0 195 -75.5 306.5t-215.5 111.5q-133 0 -216 -110.5 t-83 -284.5v-45z" />
<glyph unicode="&#xff;" horiz-adv-x="813" d="M37 954h104l152 -432q106 -307 133 -395h4q31 113 125 395l141 432h97l-426 -1269q-61 -176 -217 -177q-55 0 -107 15v94q4 0 20.5 -6t37 -10t40.5 -4q55 0 89 23.5t57 92.5l94 285zM246 1106v283h98v-283h-98zM514 1106v283h98v-283h-98z" />
<glyph unicode="&#x152;" horiz-adv-x="1916" d="M72 717q0 197 58 347t153.5 234t201 125t213.5 41q80 0 178.5 -15t149.5 -15h782v-99h-745v-544h713v-99h-713v-596h772v-96h-811q-53 0 -147.5 -15.5t-174.5 -15.5q-262 0 -446 196t-184 552zM186 717q0 -295 146.5 -470t367.5 -175q162 0 256 41v1212q-104 39 -256 39 q-221 0 -367.5 -176t-146.5 -471z" />
<glyph unicode="&#x153;" horiz-adv-x="1738" d="M68 489.5q0 223.5 113.5 362.5t312.5 139q137 0 233 -69.5t143 -190.5q49 125 147.5 192.5t229.5 67.5q184 0 302 -138t118 -390h-745q8 -178 94 -286.5t231 -108.5q197 0 318 184l73 -57q-152 -215 -391 -215q-133 0 -229 69.5t-146 194.5q-98 -264 -378 -264 q-201 0 -313.5 143t-112.5 366.5zM168 489q0 -180 84 -300.5t241.5 -120.5t243.5 114.5t86 306.5v13v4q-4 176 -92 287.5t-237 111.5q-154 0 -240 -116t-86 -300zM924 543h645q-12 172 -97.5 267t-224.5 95q-145 0 -229 -101t-94 -261z" />
<glyph unicode="&#x178;" horiz-adv-x="1083" d="M31 1434h116l394 -693l395 693h117l-459 -793v-641h-107v639zM358 1550v170h99v-170h-99zM627 1550v170h98v-170h-98z" />
<glyph unicode="&#x2c6;" horiz-adv-x="655" d="M72 1106l196 283h119l197 -283h-105l-151 217l-156 -217h-100z" />
<glyph unicode="&#x2dc;" horiz-adv-x="634" d="M61 1130q6 70 41 118t109 48q47 0 121 -45t98 -45q63 0 72 80h71q-4 -74 -40.5 -119t-102.5 -45q-43 0 -116.5 45t-110.5 45q-59 0 -72 -82h-70z" />
<glyph unicode="&#x2000;" horiz-adv-x="917" />
<glyph unicode="&#x2001;" horiz-adv-x="1837" />
<glyph unicode="&#x2002;" horiz-adv-x="917" />
<glyph unicode="&#x2003;" horiz-adv-x="1837" />
<glyph unicode="&#x2004;" horiz-adv-x="612" />
<glyph unicode="&#x2005;" horiz-adv-x="458" />
<glyph unicode="&#x2006;" horiz-adv-x="305" />
<glyph unicode="&#x2007;" horiz-adv-x="305" />
<glyph unicode="&#x2008;" horiz-adv-x="229" />
<glyph unicode="&#x2009;" horiz-adv-x="366" />
<glyph unicode="&#x200a;" horiz-adv-x="100" />
<glyph unicode="&#x2010;" horiz-adv-x="622" d="M102 485v95h418v-95h-418z" />
<glyph unicode="&#x2011;" horiz-adv-x="622" d="M102 485v95h418v-95h-418z" />
<glyph unicode="&#x2012;" horiz-adv-x="622" d="M102 485v95h418v-95h-418z" />
<glyph unicode="&#x2013;" horiz-adv-x="1107" d="M61 481v92h986v-92h-986z" />
<glyph unicode="&#x2014;" horiz-adv-x="2062" d="M61 481v92h1940v-92h-1940z" />
<glyph unicode="&#x2018;" horiz-adv-x="292" d="M82 985v121q0 197 57 328h54q-31 -104 -31 -256q0 -23 6 -30t22 -7h21v-156h-129z" />
<glyph unicode="&#x2019;" horiz-adv-x="272" d="M61 1278v156h129v-121q0 -197 -57 -328h-53q31 104 31 256q0 23 -6.5 30t-22.5 7h-21z" />
<glyph unicode="&#x201a;" horiz-adv-x="272" d="M61 31v155h129v-120q0 -197 -57 -328h-53q31 104 31 256q0 23 -6.5 30t-22.5 7h-21z" />
<glyph unicode="&#x201c;" horiz-adv-x="499" d="M82 985v121q0 197 57 328h54q-31 -104 -31 -256q0 -23 6 -30t22 -7h21v-156h-129zM309 985v121q0 197 58 328h53q-31 -104 -31 -256q0 -23 6 -30t23 -7h20v-156h-129z" />
<glyph unicode="&#x201d;" horiz-adv-x="499" d="M61 1278v156h129v-121q0 -197 -57 -328h-53q31 104 31 256q0 23 -6.5 30t-22.5 7h-21zM289 1278v156h129v-121q0 -197 -58 -328h-53q31 104 31 256q0 23 -6 30t-23 7h-20z" />
<glyph unicode="&#x201e;" horiz-adv-x="499" d="M61 31v155h129v-120q0 -197 -57 -328h-53q31 104 31 256q0 23 -6.5 30t-22.5 7h-21zM289 31v155h129v-120q0 -197 -58 -328h-53q31 104 31 256q0 23 -6 30t-23 7h-20z" />
<glyph unicode="&#x2022;" horiz-adv-x="550" d="M133 727q0 59 41 100t100.5 41t101.5 -41t42 -100t-42 -101t-101.5 -42t-100.5 42t-41 101z" />
<glyph unicode="&#x2026;" horiz-adv-x="987" d="M123 0v186h96v-186h-96zM444 0v186h99v-186h-99zM768 0v186h96v-186h-96z" />
<glyph unicode="&#x202f;" horiz-adv-x="366" />
<glyph unicode="&#x2039;" horiz-adv-x="499" d="M82 459v119l305 307v-121l-231 -246l231 -246v-120z" />
<glyph unicode="&#x203a;" horiz-adv-x="499" d="M113 152v120l231 246l-231 246v121l305 -307v-119z" />
<glyph unicode="&#x205f;" horiz-adv-x="458" />
<glyph unicode="&#x20ac;" horiz-adv-x="1396" d="M41 563v82h143q-2 23 -2 72q0 47 2 69h-143v82h152q41 295 220 448.5t396 153.5q156 0 287 -66.5t219 -189.5l-82 -79q-150 236 -422 235q-188 0 -328.5 -132t-175.5 -370h492v-82h-500q0 -12 -1 -34.5t-1 -34.5q0 -49 2 -72h500v-82h-490q37 -223 170 -361.5t332 -138.5 q260 0 418 240l82 -78q-190 -262 -498 -262q-252 0 -416 168t-204 432h-152z" />
<glyph unicode="&#x2122;" horiz-adv-x="1904" d="M92 1354v80h653v-80h-280v-744h-94v744h-279zM930 610v824h131l287 -689l280 689h133v-824h-94v695h-2l-283 -695h-71l-287 697h-2v-697h-92z" />
<glyph unicode="&#xe000;" horiz-adv-x="955" d="M0 955h955v-955h-955v955z" />
<glyph unicode="&#xfb01;" horiz-adv-x="870" d="M20 868v86h150v199q0 285 199 285q76 0 127 -21v-96q-74 25 -103 25q-70 0 -97.5 -52.5t-27.5 -158.5v-181h469v-954h-98v868h-371v-868h-98v868h-150zM639 1141v182h98v-182h-98z" />
<glyph unicode="&#xfb02;" horiz-adv-x="870" d="M20 868v86h150v199q0 285 199 285q76 0 127 -21v-96q-74 25 -103 25q-70 0 -97.5 -52.5t-27.5 -158.5v-181h183v-86h-183v-868h-98v868h-150zM639 0v1434h98v-1434h-98z" />
<glyph unicode="&#xfb03;" horiz-adv-x="1376" d="M20 868v86h150v199q0 285 199 285q76 0 127 -21v-96q-74 25 -103 25q-70 0 -97.5 -52.5t-27.5 -158.5v-181h408v199q0 285 198 285q76 0 127 -21v-96q-74 25 -102 25q-70 0 -97.5 -52.5t-27.5 -158.5v-181h469v-954h-98v868h-371v-868h-98v868h-408v-868h-98v868h-150z M1145 1141v182h98v-182h-98z" />
<glyph unicode="&#xfb04;" horiz-adv-x="1376" d="M20 868v86h150v199q0 285 199 285q76 0 127 -21v-96q-74 25 -103 25q-70 0 -97.5 -52.5t-27.5 -158.5v-181h408v199q0 285 198 285q76 0 127 -21v-96q-74 25 -102 25q-70 0 -97.5 -52.5t-27.5 -158.5v-181h182v-86h-182v-868h-98v868h-408v-868h-98v868h-150zM1145 0 v1434h98v-1434h-98z" />
</font>
</defs>
</svg>
