<svg width="545" height="242" xmlns="http://www.w3.org/2000/svg">
 <title>icons</title>

 <desc>Created with Sketch.</desc>
 <g>
  <title>icons</title>
  <rect fill="none" id="canvas_background" height="402" width="582" y="-1" x="-1"/>
 </g>
 <g>
  <title>Layer 1</title>
  <g id="Page-1">
   <g id="icons">
    <path d="m139.5786,7.7484c-0.6853,-0.3167 -1.3554,-1.1352 -2.8617,-1.4166c0.3852,-0.4305 0.6774,-1.1028 0.9765,-1.8996c0.1737,-0.4616 0.1428,-0.8551 0.1428,-1.4163c0,-0.4137 0.0763,-1.0776 -0.0228,-1.4426c-0.3315,-1.2336 -1.1715,-1.5733 -2.154,-1.5733c-0.9839,0 -1.8237,0.3417 -2.1554,1.576c-0.0965,0.3661 -0.0221,1.0276 -0.0221,1.4399c0,0.5622 -0.029,0.9575 0.1452,1.4193c0.3013,0.8009 0.5893,1.4725 0.9721,1.9016c-1.4932,0.2848 -2.5017,1.0983 -3.1825,1.414c-1.4089,0.6567 -1.4167,1.3757 -1.4167,1.3757l0,0.8735l11,0l0,-1.2162c0,0 -0.0068,-0.379 -1.4214,-1.0354l0,0z" fill="#e87722" id="Shape"/>
    <g id="Group">
     <g id="Shape_1_">
      <path id="svg_1" d="m53.0657,0l-5.3687,0l0,0.8268l2.1184,0l0,34.3747l-2.0014,0l0,0.8195l7.1719,0l0,-0.8025l-1.918,0l0,-9.7772l1.5147,-2.025l5.3406,11.7927l-1.5177,0l0,0.812l6.4049,0l0,-0.81l-1.3679,0l-6.6384,-14.6908c0,0 2.9232,-4.1883 4.2022,-5.205c0.7643,-0.6075 1.4501,-0.8205 2.5323,-0.8205l0,-0.8089l-6.7992,0l0,0.81c0.7851,0 1.0864,0.001 1.3063,0.3058c0.4712,0.6486 -0.2242,2.3002 -2.0047,4.8938c-1.4218,2.0692 -2.9731,4.2367 -2.9731,4.2367l-0.0022,-23.9321l0,0z" fill="#e87722"/>
      <g id="svg_2">
       <path id="svg_3" d="m63.2904,40.381c1.0445,0 1.7889,0.116 2.3601,0.4916c0.5556,0.3755 0.9424,0.984 0.9424,1.8373c0,1.2161 -0.8319,2.0683 -1.9891,2.5028c0.2273,0.405 0.8424,1.4723 1.2782,2.1378c1.2416,1.8816 1.6951,2.1316 2.2996,2.1833l0.0625,0.3058c0,0 -0.2126,0.094 -0.9528,0.1287c-1.4073,0.0665 -2.0641,-0.6233 -2.4945,-1.331c-0.4181,-0.6908 -0.9665,-1.6602 -1.3793,-2.4121c-0.2303,-0.405 -0.4003,-0.5495 -0.8299,-0.5495l-0.4585,0l0,1.9375c0,1.563 0.1157,1.6791 1.201,1.7656l0,0.405l-4.0302,0l0,-0.405c1.1435,-0.0865 1.2572,-0.2026 1.2572,-1.7656l0,-5.0626c0,-1.562 -0.1137,-1.678 -1.2011,-1.7645l0,-0.4051l3.9344,0l0,0zm-1.1613,4.8021l0.6318,0c0.5712,0 0.9714,-0.0854 1.3436,-0.3754c0.5725,-0.4631 0.8184,-1.157 0.8184,-1.8521c0,-1.505 -1.0759,-2.025 -1.989,-2.025c-0.6881,0 -0.8048,0.058 -0.8048,0.52l0,3.7325l0,0z" fill="#e87722"/>
       <g id="svg_4">
        <path id="svg_5" d="m5.3207,40.3791l0,0.4049c-1.0581,0.0876 -1.1717,0.1741 -1.1717,1.7371l0,3.0513c0,2.3002 0.7432,3.588 2.4301,3.588c1.7305,0 2.5884,-1.331 2.5884,-3.8623l0,-0.8681c0,-1.6495 -0.0719,-2.4594 -0.1292,-2.893c-0.0721,-0.522 -0.4712,-0.695 -1.3865,-0.753l0,-0.4049l3.4879,0l0,0.4049c-0.7149,0.0295 -1.0861,0.231 -1.1571,0.753c-0.0583,0.4336 -0.1291,1.2435 -0.1291,2.893l0,1.0273c0,1.4028 -0.2576,2.6031 -1.0436,3.4574c-0.6296,0.694 -1.645,1.0853 -2.6458,1.0853c-0.8862,0 -1.8295,-0.1741 -2.5447,-0.7679c-0.758,-0.6212 -1.0717,-1.6632 -1.0717,-3.3697l0,-3.3413c0,-1.563 -0.1145,-1.6495 -1.2592,-1.7371l0,-0.4049l4.0322,0l0,0z" fill="#e87722"/>
        <path id="svg_6" d="m16.7337,40.301l5.7044,6.7976l0.0292,0l0,-2.7465c0,-1.6496 -0.0719,-2.4606 -0.1292,-2.8941c-0.071,-0.521 -0.4712,-0.6941 -1.3865,-0.752l0,-0.405l3.488,0l0,0.405c-0.714,0.0294 -1.0862,0.231 -1.158,0.752c-0.0565,0.4335 -0.1284,1.2445 -0.1284,2.8941l0,5.4675l-0.6567,0l-5.892,-7.2911l-0.0282,0l0,3.1241c0,1.6485 0.0709,2.4585 0.1283,2.8929c0.0719,0.521 0.4721,0.695 1.3874,0.7521l0,0.4061l-3.4891,0l0,-0.4061c0.7152,-0.0286 1.0873,-0.2311 1.1581,-0.7521c0.0574,-0.4344 0.1292,-1.2444 0.1292,-2.8929l0,-2.8351c0,-1.678 -0.3146,-2.025 -1.4873,-2.1115l0,-0.405l2.3308,0l0,0z" fill="#e87722"/>
        <path id="svg_7" d="m32.3374,40.3791l0,0.4049c-1.0873,0.0876 -1.2009,0.2026 -1.2009,1.7656l0,5.0625c0,1.562 0.1136,1.678 1.2009,1.7645l0,0.405l-4.0322,0l0,-0.405c1.1153,-0.0865 1.2301,-0.2025 1.2301,-1.7645l0,-5.0625c0,-1.563 -0.1148,-1.678 -1.2301,-1.7656l0,-0.4049l4.0322,0l0,0z" fill="#e87722"/>
        <path id="svg_8" d="m39.4251,40.3791l0,0.4049l-0.4576,0.0728c-0.5432,0.0727 -0.5713,0.174 -0.4003,0.7373c0.2866,0.8974 1.4009,3.762 2.2736,6.018c0.5724,-1.5472 1.7732,-4.8316 2.0296,-5.6131c0.3003,-0.925 0.1722,-1.0979 -0.4575,-1.1707l-0.4285,-0.0443l0,-0.4049l3.2464,0l0,0.4049c-0.9154,0.1171 -0.9728,0.2183 -1.6305,1.563c-0.143,0.288 -1.9161,4.5712 -3.0169,7.5233l-0.6153,0c-0.9714,-2.6052 -2.3308,-6.1638 -2.8729,-7.6107c-0.4868,-1.3015 -0.7151,-1.388 -1.5157,-1.4756l0,-0.4049l3.8456,0l0,0z" fill="#e87722"/>
        <path id="svg_9" d="m54.6044,40.3791c0.0293,0.2309 0.0856,1.3024 0.1711,2.199l-0.4285,0.0284c-0.1428,-0.6929 -0.3158,-1.0979 -0.5295,-1.3163c-0.2429,-0.2456 -0.7006,-0.3321 -1.5855,-0.3321l-0.7162,0c-0.5431,0 -0.5725,0 -0.5725,0.5209l0,3.0672l1.2302,0c1.2301,0 1.2593,-0.0877 1.4011,-1.2014l0.4566,0l0,3.0671l-0.4566,0c-0.1418,-1.1434 -0.171,-1.2013 -1.4011,-1.2013l-1.2302,0l0,2.3731c0,0.8384 0.0585,1.2434 0.3159,1.4322c0.2566,0.173 0.7703,0.1878 1.3729,0.1878c0.7141,0 1.372,-0.058 1.6723,-0.4187c0.2428,-0.2753 0.4858,-0.7668 0.7298,-1.4618l0.4294,0.0864c-0.0585,0.4926 -0.3733,1.967 -0.4879,2.372l-6.9762,0l0,-0.405c1.229,-0.0865 1.3426,-0.2025 1.3426,-1.7645l0,-5.0625c0,-1.563 -0.1136,-1.678 -1.201,-1.7656l0,-0.4049l6.4633,0l0,0z" fill="#e87722"/>
        <path id="svg_10" d="m76.5423,42.5929c-0.2733,-0.8397 -0.7444,-1.8522 -2.0204,-1.8522c-1.0016,0 -1.5491,0.6951 -1.5491,1.5189c0,0.81 0.6067,1.3458 1.7764,1.852l0.3962,0.174c1.1852,0.5063 2.2777,1.273 2.2777,2.777c0,1.7224 -1.4104,2.9374 -3.462,2.9374c-0.5776,0 -1.1249,-0.1171 -1.5199,-0.2468c-0.4253,-0.1298 -0.6985,-0.2458 -0.8799,-0.3037c-0.1209,-0.3766 -0.3045,-1.3596 -0.4565,-2.2424l0.4565,-0.1445c0.3023,0.752 1.1238,2.3583 2.6876,2.3583c0.9882,0 1.5949,-0.7384 1.5949,-1.6347c0,-0.81 -0.4108,-1.3891 -1.6095,-1.9534l-0.4859,-0.2309c-1.0027,-0.4925 -2.2787,-1.2582 -2.2787,-2.6758c0,-1.5188 1.1998,-2.7632 3.2346,-2.7632c0.4097,0 0.9581,0.0579 1.3833,0.2024c0.243,0.0865 0.4547,0.1149 0.636,0.1877c0.0626,0.5064 0.1522,1.1423 0.3065,1.9522l-0.4878,0.0877l0,0z" fill="#e87722"/>
        <path id="svg_11" d="m85.6472,40.3791l0,0.4049c-1.0852,0.0876 -1.2009,0.2026 -1.2009,1.7656l0,5.0625c0,1.562 0.1157,1.678 1.2009,1.7645l0,0.405l-4.0302,0l0,-0.405c1.1134,-0.0865 1.228,-0.2025 1.228,-1.7645l0,-5.0625c0,-1.563 -0.1146,-1.678 -1.228,-1.7656l0,-0.4049l4.0302,0l0,0z" fill="#e87722"/>
        <path id="svg_12" d="m89.5815,42.6656c0.0542,-0.9555 0.1417,-1.9101 0.1689,-2.6632l0.2574,0c0.2001,0.3481 0.343,0.3767 0.7434,0.3767l5.892,0c0.3711,0 0.4565,-0.0855 0.6859,-0.3767l0.2272,0c0.0314,0.6076 0.0877,1.7077 0.174,2.6326l-0.4305,0.0306c-0.1416,-0.752 -0.3126,-1.1286 -0.5284,-1.3468c-0.243,-0.2742 -0.7005,-0.3607 -1.5857,-0.3607l-0.7442,0l0,6.654c0,1.562 0.1126,1.678 1.4293,1.7645l0,0.405l-4.4034,0l0,-0.405c1.2582,-0.0865 1.3729,-0.2025 1.3729,-1.7645l0,-6.654l-0.4878,0c-1.2282,0 -1.6013,0.1739 -1.8286,0.4335c-0.1731,0.2025 -0.344,0.579 -0.5161,1.274l-0.4263,0l0,0z" fill="#e87722"/>
        <path id="svg_13" d="m104.8556,40.3791l0,0.4049l-0.6004,0.0876c-0.3711,0.0579 -0.4003,0.173 -0.1708,0.637c0.3428,0.693 1.257,2.4427 1.844,3.3982c0.4431,-0.7657 1.2291,-2.3287 1.6586,-3.3127c0.2429,-0.5495 0.1563,-0.693 -0.344,-0.7521l-0.5714,-0.058l0,-0.4049l3.2171,0l0,0.4049c-0.8578,0.0876 -0.9861,0.2606 -1.5865,1.215c-0.5443,0.8681 -1.0727,1.7656 -1.8015,3.1979c-0.1438,0.2604 -0.1876,0.3755 -0.1876,0.868l0,1.5472c0,1.562 0.1157,1.678 1.4011,1.7645l0,0.405l-4.3461,0l0,-0.405c1.2312,-0.0865 1.3437,-0.2025 1.3437,-1.7645l0,-1.4038c0,-0.3026 0.0156,-0.3755 -0.2001,-0.7804c-0.4566,-0.868 -0.9716,-1.7793 -1.9161,-3.4289c-0.6129,-1.0842 -0.6859,-1.1274 -1.4281,-1.215l0,-0.4049l3.6881,0l0,0z" fill="#e87722"/>
       </g>
      </g>
      <path id="svg_14" d="m79.1412,35.2057l0,-17.4552c0,-2.5998 -1.7483,-4.5953 -4.9122,-4.5953c-3.314,0 -4.4076,2.0377 -4.4732,2.3288l0,-1.8047l-4.0844,0l-1.1917,0l-0.0009,0.8132c0.0083,0 1.8097,0.0011 1.8181,0.0011l-0.0063,0l0.0042,20.7121l-1.5512,0l0,0.8132l6.9752,0l0.0031,-0.8132l-1.9661,0l0,-15.967c0,-2.5661 1.0381,-4.9961 3.3964,-4.9961c1.9192,0 2.527,1.9459 2.527,3.9772l0,16.9934l-2.0746,0l0,0.8057l7.6433,0l0,-0.8132l-2.1067,0l0,0z" fill="#e87722"/>
      <path id="svg_15" d="m85.3385,23.4617l-0.1396,0c-0.023,0.8279 -0.0334,1.2688 -0.0334,1.8826c0,3.8718 -0.0155,10.2274 4.1345,10.2274c3.3235,0 3.7737,-5.8303 3.7737,-7.9756l2.087,-0.0032c-0.244,4.356 -1.4719,8.8258 -5.9484,8.8258c-6.2316,0 -8.0311,-6.3756 -8.0311,-11.2135c0,-6.3779 2.9794,-12.0479 7.706,-12.0479c2.8521,0 4.6181,2.0567 5.2019,3.5744c1.0383,2.7222 1.078,5.1595 1.078,6.73l-9.8286,0l0,0zm6.2779,-0.8617c0,-2.7728 -0.2899,-8.7603 -2.8022,-8.7603c-1.4658,0 -2.2424,1.157 -2.6269,2.2761c-0.88,2.5534 -0.9248,4.5805 -0.9884,6.4842l6.4175,0l0,0z" fill="#e87722"/>
      <path id="svg_16" d="m28.9056,34.6024c-0.3065,0.4683 -1.2228,1.9312 -4.1345,1.9312c-2.1317,0 -4.7485,-1.8214 -4.7485,-5.5382l0,-16.5018l-1.7545,0l0,-0.8143l5.1082,0l0,17.4996c0,3.3666 1.1717,4.2662 2.5937,4.2662c2.3299,0 2.9409,-2.5734 2.9409,-4.8969l0,-16.0546l-1.6232,0l0,-0.8143l4.9788,0l0,21.5264l1.937,0l0,0.8132l-5.2926,0l-0.0053,-1.4165l0,0z" fill="#e87722"/>
      <path id="svg_17" d="m42.3743,36.4154c3.9655,0 5.3823,-4.2936 5.5063,-8.7845l-2.034,0c-0.0353,2.1326 -0.0406,7.9439 -3.49,7.9439c-4.0594,-0.0031 -4.0594,-6.6593 -4.0594,-10.531c0,-3.4542 -0.07,-11.0955 4.0218,-11.0955c1.6054,0 2.7437,1.3057 2.7437,2.4522c0,1.543 -1.4938,1.8015 -1.4938,3.5797c0,1.1327 0.787,2.0038 1.8828,2.0038c1.6805,0 2.0046,-1.871 2.0046,-2.7601c0,-1.9258 -1.1592,-6.0687 -5.1789,-6.0687c-5.7659,0 -7.951,7.096 -7.951,12.0024c0,6.0108 3.0106,11.2578 8.0479,11.2578l0,0z" fill="#e87722"/>
      <path id="svg_18" d="m111,36.0189l0,-0.8132l-2.3456,0l0,-35.1994l-5.5291,0l0,0.8142l2.1746,0l0.0041,34.3852l-4.5661,0l0,-35.1994l-5.5292,0l0,0.8142l2.1746,0l0,34.3852l-2.3006,0l0,0.8132l15.9173,0l0,0z" fill="#e87722"/>
      <path id="svg_19" d="m0,35.269l2.5583,0l0,-33.4265l-2.5583,0l0,-0.8142l6.8822,0c5.7222,0 9.9505,1.8753 9.9505,8.2235c0,4.5004 -4.3105,7.2626 -7.6548,7.6296l0,0.1044c2.9314,0.347 4.6764,0.7763 6.6135,2.7771c1.6178,1.6706 2.1683,3.8676 2.1683,6.2374c0,6.7765 -3.875,10.082 -9.6116,10.082l-8.3481,0l0,-0.8133l0,0zm6.1547,-18.7978c0.7288,0 2.4165,0 3.6321,-0.4693c1.4593,-0.5749 3.2305,-2.7824 3.3108,-6.2851c0.05,-2.1473 0.0938,-4.9971 -1.7306,-6.5159c-1.2759,-1.0442 -2.6593,-1.3584 -5.2123,-1.3584l0,14.6287l0,0zm0,18.7978c2.9649,0 4.6734,-0.0084 6.1673,-2.2085c1.499,-2.2065 1.6847,-4.9381 1.6847,-7.136c0,-4.1926 -1.1374,-5.6586 -2.1101,-6.7576c-1.7012,-1.8309 -3.9196,-1.62 -5.7419,-1.62l0,17.7221l0,0z" fill="#e87722"/>
     </g>
     <rect height="0.6667" width="0.6568" fill="#e87722" y="15" x="70" id="Rectangle-path"/>
    </g>
    <g id="Group_1_">
     <g id="Rectangle-path_1_">
      <rect id="svg_20" x="150" y="8" height="2" width="8" fill="#e87722"/>
      <rect id="svg_21" y="8" height="2" width="2" fill="#e87722" x="160"/>
     </g>
     <g id="Rectangle-path_2_">
      <rect id="svg_22" x="150" y="4" height="2" width="8" fill="#e87722"/>
      <rect id="svg_23" y="4" height="2" width="2" fill="#e87722" x="160"/>
     </g>
     <g id="Rectangle-path_3_">
      <rect id="svg_24" x="150" y="0" height="2" width="8" fill="#e87722"/>
      <rect id="svg_25" y="0" height="2" width="2" fill="#e87722" x="160"/>
     </g>
    </g>
    <path d="m142.864,25l-6.364,6.364l-6.364,-6.364l12.728,0l0,0z" fill="#FFFFFF" id="Shape_2_"/>
    <path d="m162.864,25l-6.364,6.364l-6.364,-6.364l12.728,0l0,0z" fill="#e87722" id="Shape_3_"/>
    <path d="m214.7023,66l0,0l-0.0038,0c-0.9167,-0.0034 -1.7626,-0.2783 -2.5374,-0.8242c-0.2585,-0.1821 -0.5092,-0.3945 -0.7521,-0.6377c-0.9417,-0.9409 -1.4115,-2.0264 -1.409,-3.2556c0.0022,-1.2295 0.4788,-2.3199 1.4299,-3.2703c0.9769,-0.9761 2.3038,-1.4902 3.9302,-1.4902c0.4055,0 0.8301,0.0324 1.272,0.0969l2.4141,0.3225c0.4563,0.095 0.8888,0.1389 1.29,0.1389c1.0732,0 1.9238,-0.3142 2.4158,-0.8059c0.4187,-0.4182 0.6255,-0.9109 0.6208,-1.4778c-0.0146,-0.5063 -0.1869,-0.9555 -0.5173,-1.3471c-0.0471,-0.0559 -0.0974,-0.1106 -0.1514,-0.1643c-0.1565,-0.1565 -0.3246,-0.2847 -0.5046,-0.3833c-0.2986,-0.1648 -0.6297,-0.2505 -0.9932,-0.2583c-0.0022,0 -0.0039,-0.0005 -0.0061,-0.0005c-0.5669,-0.0166 -1.0627,0.1875 -1.4875,0.612c-0.5215,0.5215 -0.8413,1.2322 -0.7962,2.4077l-2.1377,-0.2858c0.0008,0.0004 0.0017,0.0004 0.0026,0.0004c-0.0014,0 -0.0026,-0.0004 -0.0039,-0.0004l-0.0087,-0.0013c0.0015,0.0005 0.0031,0.0005 0.0048,0.001c-0.0838,-0.0122 -0.1649,-0.0173 -0.2482,-0.0276c-0.0732,-1.6924 0.4031,-2.832 1.491,-3.9199c0.9645,-0.9639 2.0495,-1.4392 3.2551,-1.4282l0.0168,-0.001l0.0083,0c1.215,0 2.3038,0.4814 3.2669,1.4441c0.2383,0.238 0.4471,0.4851 0.6258,0.7402c0.5375,0.7654 0.8073,1.6072 0.8103,2.5244c0.0114,0.909 -0.2485,1.7439 -0.7808,2.5059c-0.1772,0.2542 -0.3848,0.5 -0.6223,0.7378c-0.9987,0.9978 -2.3196,1.5239 -3.9076,1.5239c-0.4295,0 -0.8781,-0.0383 -1.3456,-0.1164l-2.4044,-0.313c-0.4495,-0.0957 -0.8765,-0.1404 -1.2746,-0.1404c-1.0709,0 -1.9289,0.3225 -2.4348,0.8281c-0.157,0.157 -0.2837,0.3247 -0.3795,0.5025c-0.1596,0.2961 -0.2343,0.6213 -0.2234,0.9755c0.0126,0.4339 0.1377,0.8228 0.3756,1.1658c0.0795,0.1145 0.1709,0.2239 0.2755,0.3279c0.413,0.4133 0.9,0.6323 1.4615,0.6584l0.0416,0.0013c0.5796,0.0051 1.0779,-0.2024 1.4968,-0.6206c0.5264,-0.5264 0.8473,-1.242 0.7968,-2.42l2.1178,0.2757c0.0795,0.0129 0.1589,0.0232 0.238,0.0346c0.0525,1.7339 -0.4094,2.8709 -1.4559,3.917c-0.9634,0.9629 -2.054,1.4449 -3.272,1.4473l0,0l0,0z" fill="#EA760A" id="Shape_4_"/>
    <path d="m134.7023,66l0,0l-0.0038,0c-0.9168,-0.0034 -1.7626,-0.2783 -2.5374,-0.8242c-0.2585,-0.1821 -0.5092,-0.3945 -0.7522,-0.6377c-0.9416,-0.9409 -1.4115,-2.0264 -1.4089,-3.2556c0.0022,-1.2295 0.4788,-2.3199 1.4299,-3.2703c0.9768,-0.9761 2.3037,-1.4902 3.9302,-1.4902c0.4055,0 0.8301,0.0324 1.272,0.0969l2.414,0.3225c0.4563,0.095 0.8888,0.1389 1.2901,0.1389c1.0732,0 1.9238,-0.3142 2.4158,-0.8059c0.4187,-0.4182 0.6254,-0.9109 0.6208,-1.4778c-0.0146,-0.5063 -0.1869,-0.9555 -0.5173,-1.3471c-0.0472,-0.0559 -0.0974,-0.1106 -0.1514,-0.1643c-0.1565,-0.1565 -0.3246,-0.2847 -0.5046,-0.3833c-0.2986,-0.1648 -0.6297,-0.2505 -0.9932,-0.2583c-0.0022,0 -0.0039,-0.0005 -0.0061,-0.0005c-0.5669,-0.0166 -1.0627,0.1875 -1.4876,0.612c-0.5214,0.5215 -0.8413,1.2322 -0.7961,2.4077l-2.1377,-0.2858c0.0007,0.0004 0.0017,0.0004 0.0026,0.0004c-0.0014,0 -0.0026,-0.0004 -0.0039,-0.0004l-0.0087,-0.0013c0.0015,0.0005 0.0031,0.0005 0.0048,0.001c-0.0838,-0.0122 -0.165,-0.0173 -0.2482,-0.0276c-0.0733,-1.6924 0.4031,-2.832 1.491,-3.9199c0.9644,-0.9639 2.0495,-1.4392 3.2551,-1.4282l0.0168,-0.001l0.0083,0c1.215,0 2.3037,0.4814 3.2669,1.4441c0.2383,0.238 0.4471,0.4851 0.6258,0.7402c0.5375,0.7654 0.8073,1.6072 0.8103,2.5244c0.0114,0.909 -0.2485,1.7439 -0.7808,2.5059c-0.1772,0.2542 -0.3848,0.5 -0.6224,0.7378c-0.9986,0.9978 -2.3195,1.5239 -3.9076,1.5239c-0.4294,0 -0.878,-0.0383 -1.3455,-0.1164l-2.4045,-0.313c-0.4494,-0.0957 -0.8764,-0.1404 -1.2745,-0.1404c-1.0709,0 -1.9289,0.3225 -2.4348,0.8281c-0.157,0.157 -0.2837,0.3247 -0.3795,0.5025c-0.1596,0.2961 -0.2343,0.6213 -0.2234,0.9755c0.0126,0.4339 0.1377,0.8228 0.3756,1.1658c0.0795,0.1145 0.1709,0.2239 0.2755,0.3279c0.413,0.4133 0.9,0.6323 1.4614,0.6584l0.0417,0.0013c0.5796,0.0051 1.0778,-0.2024 1.4968,-0.6206c0.5264,-0.5264 0.8473,-1.242 0.7967,-2.42l2.1178,0.2757c0.0796,0.0129 0.159,0.0232 0.2381,0.0346c0.0525,1.7339 -0.4094,2.8709 -1.456,3.917c-0.9633,0.9629 -2.0539,1.4449 -3.2719,1.4473l0,0l0,0z" fill="#FDFDFE" id="Shape_5_"/>
    <path d="m194.7023,66l0,0l-0.0038,0c-0.9168,-0.0034 -1.7626,-0.2783 -2.5374,-0.8242c-0.2585,-0.1821 -0.5092,-0.3945 -0.7522,-0.6377c-0.9416,-0.9409 -1.4115,-2.0264 -1.4089,-3.2556c0.0022,-1.2295 0.4788,-2.3199 1.4299,-3.2703c0.9768,-0.9761 2.3037,-1.4902 3.9302,-1.4902c0.4055,0 0.8301,0.0324 1.272,0.0969l2.414,0.3225c0.4563,0.095 0.8888,0.1389 1.2901,0.1389c1.0732,0 1.9238,-0.3142 2.4158,-0.8059c0.4187,-0.4182 0.6254,-0.9109 0.6208,-1.4778c-0.0146,-0.5063 -0.1869,-0.9555 -0.5173,-1.3471c-0.0472,-0.0559 -0.0974,-0.1106 -0.1514,-0.1643c-0.1565,-0.1565 -0.3246,-0.2847 -0.5046,-0.3833c-0.2986,-0.1648 -0.6297,-0.2505 -0.9932,-0.2583c-0.0022,0 -0.0039,-0.0005 -0.0061,-0.0005c-0.5669,-0.0166 -1.0627,0.1875 -1.4876,0.612c-0.5214,0.5215 -0.8413,1.2322 -0.7961,2.4077l-2.1377,-0.2858c0.0007,0.0004 0.0017,0.0004 0.0026,0.0004c-0.0014,0 -0.0026,-0.0004 -0.0039,-0.0004l-0.0087,-0.0013c0.0015,0.0005 0.0031,0.0005 0.0048,0.001c-0.0838,-0.0122 -0.165,-0.0173 -0.2482,-0.0276c-0.0733,-1.6924 0.4031,-2.832 1.491,-3.9199c0.9644,-0.9639 2.0495,-1.4392 3.2551,-1.4282l0.0168,-0.001l0.0083,0c1.215,0 2.3037,0.4814 3.2669,1.4441c0.2383,0.238 0.4471,0.4851 0.6258,0.7402c0.5375,0.7654 0.8073,1.6072 0.8103,2.5244c0.0114,0.909 -0.2485,1.7439 -0.7808,2.5059c-0.1772,0.2542 -0.3848,0.5 -0.6224,0.7378c-0.9986,0.9978 -2.3195,1.5239 -3.9076,1.5239c-0.4294,0 -0.878,-0.0383 -1.3455,-0.1164l-2.4045,-0.313c-0.4494,-0.0957 -0.8764,-0.1404 -1.2745,-0.1404c-1.0709,0 -1.9289,0.3225 -2.4348,0.8281c-0.157,0.157 -0.2837,0.3247 -0.3795,0.5025c-0.1596,0.2961 -0.2343,0.6213 -0.2234,0.9755c0.0126,0.4339 0.1377,0.8228 0.3756,1.1658c0.0795,0.1145 0.1709,0.2239 0.2755,0.3279c0.413,0.4133 0.9,0.6323 1.4614,0.6584l0.0417,0.0013c0.5796,0.0051 1.0778,-0.2024 1.4968,-0.6206c0.5264,-0.5264 0.8473,-1.242 0.7967,-2.42l2.1178,0.2757c0.0796,0.0129 0.159,0.0232 0.2381,0.0346c0.0525,1.7339 -0.4094,2.8709 -1.456,3.917c-0.9633,0.9629 -2.0539,1.4449 -3.2719,1.4473l0,0l0,0z" fill="#222222" id="Shape_6_"/>
    <path d="m170,24.8181l6.046,6.3639l-6.046,6.364l0,-12.7279l0,0z" fill="#FFFFFF" id="Shape_7_"/>
    <path d="m199,28.087l-3.0867,-3.087l-3.9133,3.9131l-3.9133,-3.9131l-3.0867,3.087l3.9133,3.913l-3.9132,3.913l3.0866,3.087l3.9133,-3.913l3.9128,3.913l3.0871,-3.087l-3.9132,-3.913l3.9133,-3.913l0,0z" fill="#5281AA" id="Shape_8_"/>
    <path d="m274,123.087l-3.0867,-3.087l-3.9133,3.9131l-3.9133,-3.9131l-3.0867,3.087l3.9133,3.913l-3.9132,3.913l3.0866,3.087l3.9133,-3.913l3.9128,3.913l3.0871,-3.087l-3.9132,-3.913l3.9133,-3.913l0,0z" fill="#FDFDFE" id="Shape_9_"/>
    <path d="m384,123.087l-3.0867,-3.087l-3.9133,3.9131l-3.9133,-3.9131l-3.0867,3.087l3.9133,3.913l-3.9132,3.913l3.0866,3.087l3.9133,-3.913l3.9128,3.913l3.0871,-3.087l-3.9132,-3.913l3.9133,-3.913l0,0z" fill="#EA760A" id="Shape_10_"/>
    <path d="m132.5569,87.2646c-1.1953,0 -1.8142,0.3625 -2.5569,0.8477l0,-6.2654c0.2209,-0.4685 1.0009,-1.7594 2.8926,-1.7594c2.1775,0 2.6509,1.7116 2.7235,1.9068l0.3839,0.9802l0,5.4615c-0.7913,-0.6384 -1.9951,-1.1714 -3.4431,-1.1714l0,0zm11.4431,0.8112c-0.7355,-0.4674 -1.3551,-0.8112 -2.5605,-0.8112c-1.4609,0 -2.6576,0.5057 -3.4395,1.1241l0,-5.4585l0,-0.8972c0.0327,-0.0798 0.9407,-1.9455 3.0751,-1.9455c1.7953,0 2.6808,1.3587 2.9249,1.8363l0,6.152l0,0z" fill="#EA760A" id="Shape_11_"/>
    <path d="m132.5569,107.2646c-1.1953,0 -1.8142,0.3625 -2.5569,0.8477l0,-6.2654c0.2209,-0.4685 1.0009,-1.7594 2.8926,-1.7594c2.1775,0 2.6509,1.7116 2.7235,1.9068l0.3839,0.9802l0,5.4615c-0.7913,-0.6384 -1.9951,-1.1714 -3.4431,-1.1714l0,0zm11.4431,0.8112c-0.7355,-0.4674 -1.3551,-0.8112 -2.5605,-0.8112c-1.4609,0 -2.6576,0.5057 -3.4395,1.1241l0,-5.4585l0,-0.8972c0.0327,-0.0798 0.9407,-1.9455 3.0751,-1.9455c1.7953,0 2.6808,1.3587 2.9249,1.8363l0,6.152l0,0z" fill="#666666" id="Shape_12_"/>
    <path d="m183.5838,81.1901l-2.9106,0c-0.0021,-0.0042 -0.0029,-0.0085 -0.0048,-0.0127l-0.3981,-0.802c-0.1026,-0.2065 -0.3737,-0.3754 -0.6026,-0.3754l-5.3413,0c-0.2291,0 -0.5,0.1689 -0.6027,0.3754l-0.398,0.802c-0.0021,0.0042 -0.0028,0.0085 -0.0049,0.0127l-2.9046,0c-0.2289,0 -0.4162,0.1889 -0.4162,0.4198l0,7.9704c0,0.231 0.1873,0.4197 0.4162,0.4197l13.1676,0c0.2289,0 0.4162,-0.1887 0.4162,-0.4197l0,-7.9704c0,-0.2309 -0.1873,-0.4198 -0.4162,-0.4198l0,0zm-6.5958,7.3929c-1.6687,0 -3.0216,-1.3647 -3.0216,-3.0482c0,-1.6831 1.3529,-3.048 3.0216,-3.048c1.6688,0 3.022,1.3649 3.022,3.048c0,1.6835 -1.3532,3.0482 -3.022,3.0482l0,0z" fill="#EA760A" id="Shape_13_"/>
    <path d="m183.5838,101.1901l-2.9106,0c-0.0021,-0.0042 -0.0029,-0.0085 -0.0048,-0.0127l-0.3981,-0.802c-0.1026,-0.2065 -0.3737,-0.3754 -0.6026,-0.3754l-5.3413,0c-0.2291,0 -0.5,0.1689 -0.6027,0.3754l-0.398,0.802c-0.0021,0.0042 -0.0028,0.0085 -0.0049,0.0127l-2.9046,0c-0.2289,0 -0.4162,0.1889 -0.4162,0.4198l0,7.9704c0,0.231 0.1873,0.4197 0.4162,0.4197l13.1676,0c0.2289,0 0.4162,-0.1887 0.4162,-0.4197l0,-7.9704c0,-0.2309 -0.1873,-0.4198 -0.4162,-0.4198l0,0zm-6.5958,7.3929c-1.6687,0 -3.0216,-1.3647 -3.0216,-3.0482c0,-1.6831 1.3529,-3.048 3.0216,-3.048c1.6688,0 3.022,1.3649 3.022,3.048c0,1.6835 -1.3532,3.0482 -3.022,3.0482l0,0z" fill="#666666" id="Shape_14_"/>
    <g id="Group_2_">
     <path d="m190,90l3,0l0,-5l-3,0l0,5l0,0z" fill="#EA760A" id="Shape_15_"/>
     <path d="m195,90.474l3,-0.474l0,-7l-3,0l0,7.474l0,0z" fill="#EA760A" id="Shape_16_"/>
     <path d="m200,90l3,0l0,-10l-3,0l0,10l0,0z" fill="#EA760A" id="Shape_17_"/>
     <path d="m205,90l3,0l0,-5l-3,0l0,5l0,0z" fill="#EA760A" id="Shape_18_"/>
    </g>
    <g id="Group_3_">
     <path d="m190,110l3,0l0,-5l-3,0l0,5l0,0z" fill="#666666" id="Shape_19_"/>
     <path d="m195,110.474l3,-0.474l0,-7l-3,0l0,7.474l0,0z" fill="#666666" id="Shape_20_"/>
     <path d="m200,110l3,0l0,-10l-3,0l0,10l0,0z" fill="#666666" id="Shape_21_"/>
     <path d="m205,110l3,0l0,-5l-3,0l0,5l0,0z" fill="#666666" id="Shape_22_"/>
    </g>
    <path d="m224.9501,106.7576c0.0646,0.0034 0.1313,0.0056 0.2012,0.0056c3.0079,0 3.8328,-2.4755 3.8487,-3.7902l0,-1.2867c0,-0.273 -0.2223,-0.4943 -0.4967,-0.4943l-2.0685,0l0,-1.0931c0,-0.0545 -0.0442,-0.0989 -0.0993,-0.0989l-8.671,0c-0.0551,0 -0.0993,0.0444 -0.0993,0.0989l0,1.0931l-2.0685,0c-0.2744,0 -0.4967,0.2213 -0.4967,0.4943l0,1.2926c0.0159,1.3088 0.8408,3.7843 3.8487,3.7843c0.065,0 0.1277,-0.0018 0.188,-0.0048c0.4814,0.6494 1.1224,1.1637 1.97,1.392l0,2.8287c-1.6904,0.265 -2.863,1.1375 -2.863,1.5417l0,0.4792l7.7127,0l0,-0.5592c0,-0.4607 -1.1727,-1.2379 -2.8631,-1.4714l0,-2.8206c0.8403,-0.229 1.477,-0.7425 1.9568,-1.3912l0,0zm3.0566,-3.7907c-0.0012,0.1091 -0.0619,2.551 -2.4709,2.7877c0.5979,-1.2896 0.7993,-2.7542 0.8658,-3.5741l1.6051,0l0,0.7864l0,0zm-12.0134,0.0061l0,-0.7925l1.5998,0c0.0602,0.7884 0.2522,2.2668 0.8576,3.5732c-2.3371,-0.2337 -2.4523,-2.5151 -2.4574,-2.7807l0,0z" fill="#666666" id="Shape_23_"/>
    <path d="m224.9501,86.7576c0.0646,0.0034 0.1313,0.0056 0.2012,0.0056c3.0079,0 3.8328,-2.4755 3.8487,-3.7902l0,-1.2867c0,-0.273 -0.2223,-0.4943 -0.4967,-0.4943l-2.0685,0l0,-1.0931c0,-0.0545 -0.0442,-0.0989 -0.0993,-0.0989l-8.671,0c-0.0551,0 -0.0993,0.0444 -0.0993,0.0989l0,1.0931l-2.0685,0c-0.2744,0 -0.4967,0.2213 -0.4967,0.4943l0,1.2926c0.0159,1.3088 0.8408,3.7843 3.8487,3.7843c0.065,0 0.1277,-0.0018 0.188,-0.0048c0.4814,0.6494 1.1224,1.1637 1.97,1.392l0,2.8287c-1.6904,0.265 -2.863,1.1375 -2.863,1.5417l0,0.4792l7.7127,0l0,-0.5592c0,-0.4607 -1.1727,-1.2379 -2.8631,-1.4714l0,-2.8206c0.8403,-0.229 1.477,-0.7425 1.9568,-1.3912l0,0zm3.0566,-3.7907c-0.0012,0.1091 -0.0619,2.551 -2.4709,2.7877c0.5979,-1.2896 0.7993,-2.7542 0.8658,-3.5741l1.6051,0l0,0.7864l0,0zm-12.0134,0.0061l0,-0.7925l1.5998,0c0.0602,0.7884 0.2522,2.2668 0.8576,3.5732c-2.3371,-0.2337 -2.4523,-2.5151 -2.4574,-2.7807l0,0z" fill="#EA760A" id="Shape_24_"/>
    <path d="m158.8987,87.882l4.1013,-2.7076l-5.062,-0.003l-1.4382,-5.1714l-1.4383,5.1714l-5.0615,0.003l4.1164,2.7148l-1.5584,5.1108l3.9518,-3.3679l4.1321,3.3678l-1.7432,-5.1179l0,0z" fill="#EA760A" id="Shape_25_"/>
    <path d="m158.8987,107.882l4.1013,-2.7076l-5.062,-0.003l-1.4382,-5.1714l-1.4383,5.1714l-5.0615,0.003l4.1164,2.7148l-1.5584,5.1108l3.9518,-3.3679l4.1321,3.3678l-1.7432,-5.1179l0,0z" fill="#666666" id="Shape_26_"/>
    <path d="m268.5675,83.2115c-1.0821,-2.8017 -4.9921,-3.9968 -8.7339,-2.67c-3.7414,1.327 -5.2785,4.2498 -4.7234,6.6144c0.1807,0.7693 0.2932,1.4847 0.9872,2.4828c0.1234,0.1775 0.9946,1.1325 1.9121,1.3279c2.2968,0.489 4.2058,-4.5531 5.3283,-3.9695c1.0626,0.5523 -1.284,3.4287 0.008,3.4248c0.5678,-0.0019 1.1313,-0.2315 1.6964,-0.432c3.7417,-1.3269 4.6068,-3.977 3.5253,-6.7784l0,0zm-12.3298,2.5193c0,-0.4188 0.3543,-0.7584 0.7914,-0.7584c0.437,0 0.7913,0.3396 0.7913,0.7584c0,0.4189 -0.3543,0.7585 -0.7913,0.7585c-0.4371,0 -0.7914,-0.3396 -0.7914,-0.7585l0,0zm1.5827,3.7791c-0.437,0 -0.7913,-0.3396 -0.7913,-0.7584c0,-0.4189 0.3543,-0.7585 0.7913,-0.7585c0.4371,0 0.7914,0.3396 0.7914,0.7585c0,0.4188 -0.3543,0.7584 -0.7914,0.7584l0,0zm0.9182,-5.6912c-0.4371,0 -0.7914,-0.3396 -0.7914,-0.7584s0.3543,-0.7584 0.7914,-0.7584c0.4371,0 0.7914,0.3396 0.7914,0.7584s-0.3543,0.7584 -0.7914,0.7584l0,0zm2.7646,-1.2855c-0.437,0 -0.7914,-0.3395 -0.7914,-0.7584c0,-0.4188 0.3544,-0.7583 0.7914,-0.7583c0.4371,0 0.7914,0.3395 0.7914,0.7583c0,0.4189 -0.3543,0.7584 -0.7914,0.7584l0,0zm4.1852,5.8003c-0.4372,0 -0.7914,-0.3396 -0.7914,-0.7584c0,-0.4188 0.3542,-0.7584 0.7914,-0.7584c0.437,0 0.7913,0.3396 0.7913,0.7584c0,0.4188 -0.3543,0.7584 -0.7913,0.7584l0,0z" fill="#EA760A" id="Shape_27_"/>
    <path d="m268.5675,103.2115c-1.0821,-2.8017 -4.9921,-3.9968 -8.7339,-2.67c-3.7414,1.327 -5.2785,4.2498 -4.7234,6.6144c0.1807,0.7693 0.2932,1.4847 0.9872,2.4828c0.1234,0.1775 0.9946,1.1325 1.9121,1.3279c2.2968,0.489 4.2058,-4.5531 5.3283,-3.9695c1.0626,0.5523 -1.284,3.4287 0.008,3.4248c0.5678,-0.0019 1.1313,-0.2315 1.6964,-0.432c3.7417,-1.3269 4.6068,-3.977 3.5253,-6.7784l0,0zm-12.3298,2.5193c0,-0.4188 0.3543,-0.7584 0.7914,-0.7584c0.437,0 0.7913,0.3396 0.7913,0.7584c0,0.4189 -0.3543,0.7585 -0.7913,0.7585c-0.4371,0 -0.7914,-0.3396 -0.7914,-0.7585l0,0zm1.5827,3.7791c-0.437,0 -0.7913,-0.3396 -0.7913,-0.7584c0,-0.4189 0.3543,-0.7585 0.7913,-0.7585c0.4371,0 0.7914,0.3396 0.7914,0.7585c0,0.4188 -0.3543,0.7584 -0.7914,0.7584l0,0zm0.9182,-5.6912c-0.4371,0 -0.7914,-0.3396 -0.7914,-0.7584s0.3543,-0.7584 0.7914,-0.7584c0.4371,0 0.7914,0.3396 0.7914,0.7584s-0.3543,0.7584 -0.7914,0.7584l0,0zm2.7646,-1.2855c-0.437,0 -0.7914,-0.3395 -0.7914,-0.7584c0,-0.4188 0.3544,-0.7583 0.7914,-0.7583c0.4371,0 0.7914,0.3395 0.7914,0.7583c0,0.4189 -0.3543,0.7584 -0.7914,0.7584l0,0zm4.1852,5.8003c-0.4372,0 -0.7914,-0.3396 -0.7914,-0.7584c0,-0.4188 0.3542,-0.7584 0.7914,-0.7584c0.437,0 0.7913,0.3396 0.7913,0.7584c0,0.4188 -0.3543,0.7584 -0.7913,0.7584l0,0z" fill="#666666" id="Shape_28_"/>
    <path d="m287.9716,84.4695c-0.3332,-2.8395 -3.5007,-4.8175 -7.0747,-4.4182c-3.5741,0.399 -6.2013,3.0244 -5.8685,5.8636c0.1762,1.5012 1.1449,2.7614 2.5469,3.5569c0.0687,0.6288 -0.1629,1.4305 -1.2532,2.2513c-0.4453,0.3355 1.8046,0.768 3.9042,-1.398c0.603,0.0736 1.2333,0.0798 1.8767,0.0079c3.574,-0.3993 6.2016,-3.0243 5.8686,-5.8635l0,0z" fill="#EA760A" id="Shape_29_"/>
    <path d="m287.9716,104.4695c-0.3332,-2.8395 -3.5007,-4.8175 -7.0747,-4.4182c-3.5741,0.399 -6.2013,3.0244 -5.8685,5.8636c0.1762,1.5012 1.1449,2.7614 2.5469,3.5569c0.0687,0.6288 -0.1629,1.4305 -1.2532,2.2513c-0.4453,0.3355 1.8046,0.768 3.9042,-1.398c0.603,0.0736 1.2333,0.0798 1.8767,0.0079c3.574,-0.3993 6.2016,-3.0243 5.8686,-5.8635l0,0z" fill="#666666" id="Shape_30_"/>
    <path d="m250.7458,11.9863c-1.087,-0.4914 -2.7003,-1.7578 -5.0887,-2.1928c0.6108,-0.6651 1.0732,-1.7049 1.549,-2.9375c0.2753,-0.7139 0.228,-1.3226 0.228,-2.189c0,-0.6401 0.1186,-1.6677 -0.0375,-2.2324c-0.5267,-1.9082 -1.8581,-2.4346 -3.4177,-2.4346c-1.5609,0 -2.8936,0.5291 -3.4195,2.4404c-0.1549,0.563 -0.036,1.5879 -0.036,2.2266c0,0.8686 -0.0463,1.4792 0.23,2.1943c0.4791,1.2383 0.9347,2.2771 1.5434,2.9392c-2.3696,0.4432 -3.9704,1.7 -5.0507,2.1897c-2.2351,1.0142 -2.2461,2.1243 -2.2461,2.1243l0,1.8855l18,-0.0022l0,-1.8833c0,0 -0.0106,-1.1138 -2.2542,-2.1282l0,0z" fill="#FFFFFF" id="Shape_31_"/>
    <g id="Group_4_">
     <path d="m215,10l12,0l0,3l-12,0l0,-3l0,0z" fill="#e87722" id="Shape_32_"/>
     <path d="m215,5l12,0l0,3l-12,0l0,-3l0,0z" fill="#e87722" id="Shape_33_"/>
     <path d="m215,0l12,0l0,3l-12,0l0,-3l0,0z" fill="#e87722" id="Shape_34_"/>
    </g>
    <g id="Group_5_">
     <path d="m265,34l8,0l0,1l-8,0l0,-1l0,0z" fill="#E0E6ED" id="Shape_35_"/>
     <path d="m265,32l8,0l0,1l-8,0l0,-1l0,0z" fill="#E0E6ED" id="Shape_36_"/>
     <path d="m265,30l8,0l0,1l-8,0l0,-1l0,0z" fill="#E0E6ED" id="Shape_37_"/>
    </g>
    <g id="Group_6_">
     <path d="m237.8565,30c-1.5777,0 -2.8565,1.343 -2.8565,3s1.2788,3 2.8565,3c1.5778,0 2.8562,-1.343 2.8562,-3s-1.2784,-3 -2.8562,-3l0,0z" fill="#FFFFFF" id="Shape_38_"/>
     <path d="m248,30c-1.5777,0 -2.8565,1.343 -2.8565,3s1.2788,3 2.8565,3s2.8565,-1.343 2.8565,-3s-1.2788,-3 -2.8565,-3l0,0z" fill="#FFFFFF" id="Shape_39_"/>
     <path d="m258.1435,30c-1.5778,0 -2.8562,1.343 -2.8562,3s1.2784,3 2.8562,3c1.5777,0 2.8565,-1.343 2.8565,-3s-1.2788,-3 -2.8565,-3l0,0z" fill="#FFFFFF" id="Shape_40_"/>
    </g>
    <g id="Group_7_">
     <g id="Shape_41_">
      <path id="svg_26" d="m42.5482,60l-4.3046,0l0,0.6615l1.6985,0l0,27.4997l-1.6047,0l0,0.6556l5.7504,0l0,-0.642l-1.5379,0l0,-7.8217l1.2145,-1.6201l4.2821,9.4342l-1.2169,0l0,0.6496l5.1355,0l0,-0.648l-1.0968,0l-5.3227,-11.7526c0,0 2.3438,-3.3507 3.3693,-4.1641c0.6129,-0.4859 1.1627,-0.6563 2.0304,-0.6563l0,-0.6472l-5.4515,0l0,0.648c0.6295,0 0.871,0.0008 1.0474,0.2447c0.3778,0.5188 -0.1798,1.8402 -1.6074,3.915c-1.1401,1.6554 -2.3839,3.3894 -2.3839,3.3894l-0.0017,-19.1457l0,0z" fill="#e87722"/>
      <g id="svg_27">
       <path id="svg_28" d="m50.7464,92.3048c0.8375,0 1.4343,0.0928 1.8923,0.3933c0.4455,0.3004 0.7556,0.7872 0.7556,1.4699c0,0.9728 -0.667,1.6545 -1.5948,2.0022c0.1822,0.324 0.6754,1.1778 1.0248,1.7102c0.9955,1.5053 1.3592,1.7053 1.8439,1.7466l0.0501,0.2447c0,0 -0.1705,0.0752 -0.764,0.103c-1.1284,0.0531 -1.655,-0.4987 -2.0001,-1.0648c-0.3352,-0.5527 -0.7749,-1.3282 -1.1059,-1.9297c-0.1847,-0.324 -0.321,-0.4396 -0.6654,-0.4396l-0.3677,0l0,1.5499c0,1.2505 0.0928,1.3433 0.963,1.4125l0,0.324l-3.2314,0l0,-0.324c0.9168,-0.0692 1.008,-0.162 1.008,-1.4125l0,-4.05c0,-1.2496 -0.0912,-1.3424 -0.9631,-1.4116l0,-0.3241l3.1547,0l0,0zm-0.9312,3.8417l0.5066,0c0.458,0 0.7789,-0.0683 1.0773,-0.3003c0.459,-0.3705 0.6562,-0.9256 0.6562,-1.4817c0,-1.204 -0.8626,-1.62 -1.5948,-1.62c-0.5517,0 -0.6453,0.0464 -0.6453,0.416l0,2.986l0,0z" fill="#e87722"/>
       <g id="svg_29">
        <path id="svg_30" d="m4.2662,92.3033l0,0.3239c-0.8484,0.07 -0.9396,0.1392 -0.9396,1.3897l0,2.441c0,1.8402 0.596,2.8704 1.9485,2.8704c1.3875,0 2.0754,-1.0648 2.0754,-3.0898l0,-0.6945c0,-1.3196 -0.0576,-1.9676 -0.1036,-2.3144c-0.0578,-0.4176 -0.3778,-0.556 -1.1116,-0.6024l0,-0.3239l2.7966,0l0,0.3239c-0.5733,0.0236 -0.8709,0.1848 -0.9278,0.6024c-0.0468,0.3468 -0.1035,0.9948 -0.1035,2.3144l0,0.8219c0,1.1222 -0.2066,2.0824 -0.8368,2.7658c-0.5048,0.5553 -1.319,0.8683 -2.1214,0.8683c-0.7106,0 -1.4669,-0.1393 -2.0403,-0.6143c-0.6078,-0.497 -0.8593,-1.3306 -0.8593,-2.6958l0,-2.673c0,-1.2505 -0.0919,-1.3197 -1.0097,-1.3897l0,-0.3239l3.2331,0l0,0z" fill="#e87722"/>
        <path id="svg_31" d="m13.4171,92.2408l4.5738,5.438l0.0234,0l0,-2.1971c0,-1.3197 -0.0576,-1.9685 -0.1036,-2.3153c-0.0569,-0.4168 -0.3778,-0.5553 -1.1117,-0.6016l0,-0.324l2.7967,0l0,0.324c-0.5725,0.0235 -0.8709,0.1848 -0.9285,0.6016c-0.0453,0.3468 -0.1029,0.9956 -0.1029,2.3153l0,4.374l-0.5266,0l-4.7242,-5.8329l-0.0226,0l0,2.4992c0,1.3189 0.0569,1.9669 0.1028,2.3144c0.0577,0.4168 0.3786,0.556 1.1125,0.6016l0,0.3249l-2.7976,0l0,-0.3249c0.5734,-0.0228 0.8718,-0.1848 0.9286,-0.6016c0.046,-0.3475 0.1036,-0.9955 0.1036,-2.3144l0,-2.268c0,-1.3424 -0.2523,-1.62 -1.1925,-1.6892l0,-0.324l1.8688,0l0,0z" fill="#e87722"/>
        <path id="svg_32" d="m25.9282,92.3033l0,0.3239c-0.8718,0.07 -0.9629,0.1621 -0.9629,1.4125l0,4.0499c0,1.2497 0.0911,1.3425 0.9629,1.4117l0,0.324l-3.2331,0l0,-0.324c0.8943,-0.0692 0.9864,-0.162 0.9864,-1.4117l0,-4.0499c0,-1.2504 -0.0921,-1.3425 -0.9864,-1.4125l0,-0.3239l3.2331,0l0,0z" fill="#e87722"/>
        <path id="svg_33" d="m31.6112,92.3033l0,0.3239l-0.367,0.0583c-0.4355,0.0581 -0.4581,0.1392 -0.321,0.5898c0.2298,0.7179 1.1233,3.0096 1.8231,4.8143c0.4589,-1.2377 1.4217,-3.8652 1.6273,-4.4904c0.2407,-0.74 0.138,-0.8783 -0.3669,-0.9365l-0.3435,-0.0355l0,-0.3239l2.6029,0l0,0.3239c-0.7339,0.0937 -0.78,0.1747 -1.3073,1.2504c-0.1147,0.2304 -1.5364,3.6569 -2.419,6.0186l-0.4933,0c-0.7789,-2.0841 -1.8689,-4.931 -2.3035,-6.0885c-0.3903,-1.0413 -0.5734,-1.1105 -1.2153,-1.1805l0,-0.3239l3.0835,0l0,0z" fill="#e87722"/>
        <path id="svg_34" d="m43.7819,92.3033c0.0235,0.1847 0.0686,1.0419 0.1372,1.7592l-0.3436,0.0227c-0.1145,-0.5543 -0.2532,-0.8783 -0.4246,-1.053c-0.1947,-0.1965 -0.5616,-0.2658 -1.2712,-0.2658l-0.5742,0c-0.4355,0 -0.4591,0 -0.4591,0.4168l0,2.4537l0.9864,0c0.9863,0 1.0097,-0.0701 1.1234,-0.961l0.3661,0l0,2.4536l-0.3661,0c-0.1137,-0.9147 -0.1371,-0.961 -1.1234,-0.961l-0.9864,0l0,1.8985c0,0.6707 0.0469,0.9947 0.2533,1.1457c0.2058,0.1384 0.6177,0.1503 1.1008,0.1503c0.5726,0 1.1001,-0.0464 1.3408,-0.335c0.1947,-0.2202 0.3896,-0.6134 0.5852,-1.1695l0.3443,0.0692c-0.0469,0.394 -0.2993,1.5736 -0.3912,1.8976l-5.5935,0l0,-0.324c0.9854,-0.0692 1.0765,-0.162 1.0765,-1.4117l0,-4.0499c0,-1.2504 -0.0911,-1.3425 -0.963,-1.4125l0,-0.3239l5.1823,0l0,0z" fill="#e87722"/>
        <path id="svg_35" d="m61.3718,94.0743c-0.2191,-0.6717 -0.5969,-1.4817 -1.62,-1.4817c-0.8031,0 -1.242,0.5561 -1.242,1.2151c0,0.648 0.4864,1.0766 1.4243,1.4816l0.3176,0.1392c0.9503,0.405 1.8263,1.0184 1.8263,2.2216c0,1.3779 -1.1309,2.3499 -2.7759,2.3499c-0.4631,0 -0.9019,-0.0936 -1.2186,-0.1975c-0.3411,-0.1038 -0.5601,-0.1966 -0.7055,-0.2429c-0.097,-0.3013 -0.2442,-1.0877 -0.3661,-1.7939l0.3661,-0.1156c0.2424,0.6016 0.9011,1.8866 2.1549,1.8866c0.7923,0 1.2788,-0.5907 1.2788,-1.3077c0,-0.6481 -0.3294,-1.1113 -1.2906,-1.5627l-0.3895,-0.1848c-0.804,-0.394 -1.8271,-1.0066 -1.8271,-2.1406c0,-1.2151 0.962,-2.2106 2.5936,-2.2106c0.3284,0 0.7681,0.0464 1.1091,0.162c0.1948,0.0692 0.3646,0.0919 0.5099,0.1501c0.0502,0.4051 0.1221,0.9138 0.2458,1.5618l-0.3911,0.0701l0,0z" fill="#e87722"/>
        <path id="svg_36" d="m68.672,92.3033l0,0.3239c-0.87,0.07 -0.9628,0.1621 -0.9628,1.4125l0,4.0499c0,1.2497 0.0928,1.3425 0.9628,1.4117l0,0.324l-3.2314,0l0,-0.324c0.8928,-0.0692 0.9847,-0.162 0.9847,-1.4117l0,-4.0499c0,-1.2504 -0.0919,-1.3425 -0.9847,-1.4125l0,-0.3239l3.2314,0l0,0z" fill="#e87722"/>
        <path id="svg_37" d="m71.8267,94.1325c0.0433,-0.7645 0.1135,-1.5281 0.1353,-2.1305l0.2064,0c0.1605,0.2784 0.2751,0.3013 0.5961,0.3013l4.7242,0c0.2975,0 0.366,-0.0684 0.5499,-0.3013l0.1822,0c0.0252,0.486 0.0703,1.366 0.1395,2.106l-0.3452,0.0245c-0.1135,-0.6016 -0.2506,-0.9029 -0.4237,-1.0775c-0.1947,-0.2193 -0.5616,-0.2886 -1.2713,-0.2886l-0.5967,0l0,5.3232c0,1.2497 0.0903,1.3425 1.146,1.4117l0,0.324l-3.5307,0l0,-0.324c1.0088,-0.0692 1.1008,-0.162 1.1008,-1.4117l0,-5.3232l-0.3911,0c-0.9847,0 -1.2839,0.1392 -1.4662,0.3469c-0.1387,0.162 -0.2758,0.4631 -0.4138,1.0192l-0.3417,0l0,0z" fill="#e87722"/>
        <path id="svg_38" d="m84.0734,92.3033l0,0.3239l-0.4814,0.07c-0.2975,0.0464 -0.3209,0.1385 -0.137,0.5097c0.275,0.5544 1.0079,1.9541 1.4786,2.7186c0.3552,-0.6126 0.9854,-1.863 1.3298,-2.6502c0.1948,-0.4396 0.1254,-0.5544 -0.2758,-0.6017l-0.4581,-0.0464l0,-0.3239l2.5795,0l0,0.3239c-0.6879,0.07 -0.7907,0.2085 -1.2721,0.972c-0.4364,0.6945 -0.8601,1.4125 -1.4444,2.5583c-0.1153,0.2084 -0.1504,0.3004 -0.1504,0.6944l0,1.2377c0,1.2497 0.0927,1.3425 1.1233,1.4117l0,0.324l-3.4846,0l0,-0.324c0.9871,-0.0692 1.0773,-0.162 1.0773,-1.4117l0,-1.123c0,-0.2421 0.0125,-0.3003 -0.1604,-0.6243c-0.3661,-0.6944 -0.779,-1.4234 -1.5364,-2.7431c-0.4914,-0.8673 -0.5499,-0.902 -1.145,-0.972l0,-0.3239l2.9571,0l0,0z" fill="#e87722"/>
       </g>
      </g>
      <path id="svg_39" d="m63.4555,88.1646l0,-13.9642c0,-2.0799 -1.4018,-3.6763 -3.9386,-3.6763c-2.6571,0 -3.534,1.6302 -3.5865,1.8631l0,-1.4437l-3.275,0l-0.9554,0l-0.0008,0.6505c0.0067,0 1.451,0.0009 1.4578,0.0009l-0.0051,0l0.0034,16.5697l-1.2438,0l0,0.6506l5.5927,0l0.0026,-0.6506l-1.5764,0l0,-12.7736c0,-2.0529 0.8323,-3.9969 2.7231,-3.9969c1.5388,0 2.0262,1.5567 2.0262,3.1818l0,13.5946l-1.6634,0l0,0.6447l6.1284,0l0,-0.6506l-1.6892,0l0,0z" fill="#e87722"/>
      <path id="svg_40" d="m68.4245,78.7693l-0.1119,0c-0.0184,0.6624 -0.0267,1.0151 -0.0267,1.5062c0,3.0974 -0.0125,8.1819 3.315,8.1819c2.6648,0 3.0258,-4.6643 3.0258,-6.3805l1.6733,-0.0025c-0.1956,3.4847 -1.1802,7.0605 -4.7694,7.0605c-4.9966,0 -6.4393,-5.1005 -6.4393,-8.9708c0,-5.1022 2.3888,-9.6383 6.1786,-9.6383c2.2868,0 3.7028,1.6454 4.1709,2.8596c0.8325,2.1777 0.8643,4.1276 0.8643,5.3839l-7.8806,0l0,0zm5.0337,-0.6893c0,-2.2182 -0.2324,-7.0083 -2.2468,-7.0083c-1.1753,0 -1.798,0.9257 -2.1062,1.821c-0.7056,2.0426 -0.7416,3.6643 -0.7926,5.1873l5.1456,0l0,0z" fill="#e87722"/>
      <path id="svg_41" d="m23.1766,87.6819c-0.2458,0.3747 -0.9805,1.5449 -3.3151,1.5449c-1.7092,0 -3.8073,-1.4571 -3.8073,-4.4305l0,-13.2014l-1.4068,0l0,-0.6514l4.0958,0l0,13.9996c0,2.6933 0.9394,3.413 2.0796,3.413c1.8681,0 2.358,-2.0587 2.358,-3.9175l0,-12.8437l-1.3015,0l0,-0.6514l3.9921,0l0,17.2211l1.553,0l0,0.6506l-4.2436,0l-0.0042,-1.1333l0,0z" fill="#e87722"/>
      <path id="svg_42" d="m33.9758,89.1323c3.1795,0 4.3155,-3.4349 4.4149,-7.0275l-1.6308,0c-0.0283,1.706 -0.0326,6.3551 -2.7983,6.3551c-3.2549,-0.0025 -3.2549,-5.3275 -3.2549,-8.4249c0,-2.7633 -0.056,-8.8764 3.2248,-8.8764c1.2872,0 2.1998,1.0446 2.1998,1.9618c0,1.2344 -1.1976,1.4412 -1.1976,2.8637c0,0.9062 0.631,1.6031 1.5095,1.6031c1.3475,0 1.6073,-1.4968 1.6073,-2.208c0,-1.5407 -0.9294,-4.8551 -4.1524,-4.8551c-4.6231,0 -6.3752,5.6769 -6.3752,9.602c0,4.8086 2.414,9.0062 6.4529,9.0062l0,0z" fill="#e87722"/>
      <path id="svg_43" d="m89,88.8152l0,-0.6506l-1.8808,0l0,-28.1596l-4.4331,0l0,0.6514l1.7435,0l0.0034,27.5082l-3.6611,0l0,-28.1596l-4.4334,0l0,0.6514l1.7436,0l0,27.5082l-1.8446,0l0,0.6506l12.7625,0l0,0z" fill="#e87722"/>
      <path id="svg_44" d="m0,88.2152l2.0512,0l0,-26.7412l-2.0512,0l0,-0.6514l5.5182,0c4.588,0 7.9783,1.5003 7.9783,6.5788c0,3.6004 -3.4562,5.8101 -6.1376,6.1037l0,0.0836c2.3503,0.2776 3.7495,0.621 5.3027,2.2216c1.2972,1.3365 1.7385,3.0941 1.7385,4.99c0,5.4211 -3.1069,8.0655 -7.7066,8.0655l-6.6935,0l0,-0.6506l0,0zm4.9348,-15.0382c0.5844,0 1.9376,0 2.9122,-0.3755c1.1701,-0.4599 2.5903,-2.2259 2.6547,-5.0281c0.0401,-1.7178 0.0752,-3.9976 -1.3876,-5.2127c-1.0231,-0.8353 -2.1322,-1.0867 -4.1793,-1.0867l0,11.703l0,0zm0,15.0382c2.3773,0 3.7472,-0.0067 4.945,-1.7668c1.2019,-1.7652 1.3508,-3.9505 1.3508,-5.7088c0,-3.3541 -0.9119,-4.5268 -1.6919,-5.4061c-1.364,-1.4647 -3.1427,-1.296 -4.6039,-1.296l0,14.1777l0,0z" fill="#e87722"/>
     </g>
     <rect height="0.5333" width="0.5266" fill="#e87722" y="72" x="56" id="Rectangle-path_4_"/>
    </g>
    <path d="m205.6507,14.211l-4.7502,-4.754c0.6889,-0.9769 1.0948,-2.1681 1.0948,-3.4548c0,-3.3151 -2.6851,-6.0022 -5.9975,-6.0022c-3.3123,0 -5.9978,2.6871 -5.9978,6.0022c0,3.3145 2.6855,6.0021 5.9978,6.0021c1.292,0 2.4876,-0.4101 3.4667,-1.1056l4.7477,4.7518c0.4356,0.4357 1.1155,0.4687 1.5112,0.0726c0.3956,-0.3958 0.3629,-1.0765 -0.0727,-1.5121l0,0zm-13.6506,-8.2088c0,-2.2059 1.7934,-4.0005 3.9977,-4.0005c2.2042,0 3.9973,1.7946 3.9973,4.0005s-1.7931,4.0004 -3.9973,4.0004c-2.2043,0 -3.9977,-1.7945 -3.9977,-4.0004l0,0z" fill="#e87722" id="Shape_42_"/>
    <path d="m182.7162,11.5464l-3.8595,-3.8626c0.5597,-0.7938 0.8894,-1.7616 0.8894,-2.807c0,-2.6935 -2.1816,-4.8768 -4.8729,-4.8768c-2.6912,0 -4.8732,2.1833 -4.8732,4.8768c0,2.693 2.182,4.8767 4.8732,4.8767c1.0498,0 2.0212,-0.3332 2.8167,-0.8983l3.8575,3.8609c0.3539,0.354 0.9064,0.3808 1.2279,0.0589c0.3214,-0.3215 0.2948,-0.8746 -0.0591,-1.2286l0,0zm-11.0911,-6.6696c0,-1.7923 1.4571,-3.2504 3.2481,-3.2504c1.7909,0 3.2478,1.4581 3.2478,3.2504s-1.4569,3.2503 -3.2478,3.2503c-1.791,0 -3.2481,-1.458 -3.2481,-3.2503l0,0z" fill="#e87722" id="Shape_43_"/>
    <path d="m205.5526,13.6189l-4.2831,-4.2852c0.5856,-0.9362 0.9258,-2.0458 0.9258,-3.2308c0,-3.3703 -2.73,-6.1029 -6.0974,-6.1029c-3.367,0 -6.0979,2.7326 -6.0979,6.1029c0,3.3689 2.7309,6.1002 6.0979,6.1002c1.1907,0 2.3045,-0.3432 3.2442,-0.9353l4.2803,4.283c0.2951,0.2942 0.6798,0.4492 1.0634,0.4492l0.0048,0c0.3334,0 0.6739,-0.124 0.929,-0.378c0.2589,-0.2592 0.3815,-0.6014 0.3804,-0.9386c0,-0.3838 -0.1532,-0.7697 -0.4474,-1.0645l0,0zm-6.0545,-7.516c-0.0033,1.8741 -1.526,3.3989 -3.4002,3.4023c-1.8745,-0.0034 -3.3972,-1.5282 -3.4002,-3.4023c0.003,-1.8755 1.5257,-3.4003 3.4002,-3.4037c1.8742,0.0034 3.3969,1.5282 3.4002,3.4037l0,0z" fill="#e87722" id="Shape_44_"/>
    <path d="m182.6365,11.0654l-3.48,-3.4817c0.4758,-0.7607 0.7522,-1.6623 0.7522,-2.6251c0,-2.7384 -2.2181,-4.9586 -4.9542,-4.9586c-2.7357,0 -4.9545,2.2202 -4.9545,4.9586c0,2.7372 2.2188,4.9564 4.9545,4.9564c0.9675,0 1.8724,-0.2789 2.636,-0.7599l3.4777,3.4799c0.2397,0.239 0.5523,0.365 0.864,0.365l0.0039,0c0.2709,0 0.5475,-0.1007 0.7548,-0.3071c0.2104,-0.2107 0.31,-0.4887 0.3091,-0.7626c0,-0.3119 -0.1245,-0.6254 -0.3635,-0.8649l0,0zm-4.9193,-6.1068c-0.0026,1.5227 -1.2398,2.7616 -2.7627,2.7644c-1.523,-0.0028 -2.7602,-1.2417 -2.7627,-2.7644c0.0025,-1.5238 1.2397,-2.7627 2.7627,-2.7655c1.5229,0.0028 2.7601,1.2417 2.7627,2.7655l0,0z" fill="#e87722" id="Shape_45_"/>
    <g id="Group_8_">
     <path d="m313.6365,25c0.7529,0 1.3635,-0.6178 1.3635,-1.3797l0,-22.2405c0,-0.7621 -0.6106,-1.3798 -1.3635,-1.3798l-22.273,0c-0.7532,0 -1.3635,0.6177 -1.3635,1.3798l0,22.2405c0,0.7619 0.6103,1.3797 1.3635,1.3797l22.273,0l0,0z" fill="#29A9E0" id="Shape_46_"/>
     <path d="m310.6568,7.3557c-0.608,0.2728 -1.2614,0.4573 -1.9472,0.5402c0.6999,-0.4246 1.2375,-1.0969 1.4906,-1.8981c-0.6551,0.3932 -1.3807,0.6787 -2.153,0.8325c-0.6184,-0.6668 -1.4995,-1.0834 -2.4747,-1.0834c-1.8723,0 -3.3904,1.5361 -3.3904,3.4307c0,0.2689 0.03,0.5308 0.0878,0.7819c-2.8177,-0.1431 -5.3159,-1.5089 -6.9881,-3.5846c-0.2918,0.5067 -0.459,1.096 -0.459,1.7248c0,1.1903 0.5985,2.2403 1.5083,2.8556c-0.5558,-0.0178 -1.0786,-0.1722 -1.5357,-0.4291c-0.0003,0.0143 -0.0003,0.0286 -0.0003,0.0431c0,1.6623 1.1687,3.0488 2.7196,3.3641c-0.2844,0.0784 -0.5839,0.1204 -0.8931,0.1204c-0.2185,0 -0.4309,-0.0216 -0.638,-0.0616c0.4315,1.3629 1.6836,2.3549 3.1672,2.3825c-1.1604,0.9203 -2.6222,1.4687 -4.2107,1.4687c-0.2737,0 -0.5435,-0.0162 -0.8088,-0.048c1.5004,0.9735 3.2826,1.5415 5.1972,1.5415c6.2361,0 9.6464,-5.2278 9.6464,-9.7614c0,-0.1488 -0.0033,-0.2967 -0.0099,-0.4439c0.6625,-0.4837 1.2372,-1.0879 1.6918,-1.7759l0,0z" fill="#FFFFFF" id="Shape_47_"/>
    </g>
    <path d="m332,101.1837c-0.4415,0.2008 -0.916,0.3365 -1.414,0.3976c0.5082,-0.3125 0.8987,-0.8072 1.0825,-1.3968c-0.4758,0.2894 -1.0026,0.4995 -1.5635,0.6127c-0.449,-0.4907 -1.0888,-0.7972 -1.797,-0.7972c-1.3595,0 -2.4619,1.1303 -2.4619,2.5244c0,0.1979 0.0218,0.3906 0.0638,0.5753c-2.0462,-0.1052 -3.8602,-1.1103 -5.0745,-2.6376c-0.2119,0.3728 -0.3333,0.8064 -0.3333,1.2691c0,0.8759 0.4346,1.6486 1.0953,2.1013c-0.4036,-0.0131 -0.7833,-0.1267 -1.1152,-0.3158c-0.0002,0.0106 -0.0002,0.0211 -0.0002,0.0318c0,1.2231 0.8487,2.2434 1.9748,2.4754c-0.2065,0.0577 -0.424,0.0886 -0.6485,0.0886c-0.1587,0 -0.3129,-0.0159 -0.4632,-0.0453c0.3133,1.0029 1.2225,1.7328 2.2998,1.7531c-0.8426,0.6772 -1.9041,1.0807 -3.0576,1.0807c-0.1988,0 -0.3947,-0.0119 -0.5873,-0.0353c1.0895,0.7163 2.3836,1.1343 3.774,1.1343c4.5283,0 7.0047,-3.8468 7.0047,-7.1829c0,-0.1094 -0.0024,-0.2183 -0.0072,-0.3266c0.4811,-0.3559 0.8985,-0.8005 1.2285,-1.3068l0,0z" fill="#FFFFFF" id="Shape_48_"/>
    <g id="Group_9_">
     <g id="Shape_49_">
      <path id="svg_45" d="m58.3245,110l-5.9007,0l0,0.8928l2.3283,0l0,37.1248l-2.1998,0l0,0.885l7.8827,0l0,-0.8665l-2.1081,0l0,-10.5595l1.6648,-2.1868l5.8698,12.7361l-1.6681,0l0,0.8767l7.0396,0l0,-0.8748l-1.5034,0l-7.2962,-15.8659c0,0 3.2128,-4.5235 4.6185,-5.6214c0.8401,-0.656 1.5939,-0.8862 2.7833,-0.8862l0,-0.8738l-7.4729,0l0,0.875c0.8629,0 1.194,0.001 1.4357,0.3301c0.5179,0.7004 -0.2464,2.4844 -2.2034,5.2852c-1.5627,2.2351 -3.2677,4.5756 -3.2677,4.5756l-0.0024,-25.8464l0,0z" fill="#FFFFFF"/>
      <g id="svg_46">
       <path id="svg_47" d="m69.5624,153.6113c1.1481,0 1.9662,0.1255 2.594,0.5313c0.6107,0.4053 1.0358,1.0625 1.0358,1.9844c0,1.3132 -0.9143,2.2336 -2.1862,2.7026c0.2498,0.4377 0.9258,1.5903 1.4048,2.3091c1.3647,2.0322 1.8632,2.302 2.5276,2.3576l0.0687,0.3306c0,0 -0.2337,0.1016 -1.0473,0.1389c-1.5467,0.0716 -2.2686,-0.6733 -2.7417,-1.4377c-0.4595,-0.7461 -1.0622,-1.793 -1.516,-2.6048c-0.2531,-0.4377 -0.4399,-0.5935 -0.9121,-0.5935l-0.504,0l0,2.0926c0,1.6877 0.1272,1.8134 1.32,1.9067l0,0.4375l-4.4295,0l0,-0.4375c1.2568,-0.0933 1.3817,-0.219 1.3817,-1.9067l0,-5.4681c0,-1.6865 -0.1249,-1.8117 -1.3201,-1.9055l0,-0.4375l4.3243,0l0,0zm-1.2764,5.1866l0.6944,0c0.6278,0 1.0677,-0.0921 1.4768,-0.4056c0.6292,-0.5 0.8995,-1.2492 0.8995,-2.0002c0,-1.6253 -1.1825,-2.187 -2.1861,-2.187c-0.7563,0 -0.8846,0.0627 -0.8846,0.5617l0,4.0311l0,0z" fill="#FFFFFF"/>
       <g id="svg_48">
        <path id="svg_49" d="m5.848,153.6094l0,0.4372c-1.163,0.0948 -1.2879,0.188 -1.2879,1.8765l0,3.2949c0,2.4844 0.8169,3.8753 2.6709,3.8753c1.902,0 2.845,-1.4375 2.845,-4.1714l0,-0.9375c0,-1.7813 -0.079,-2.656 -0.1421,-3.1243c-0.0792,-0.564 -0.5178,-0.7505 -1.5238,-0.8135l0,-0.4372l3.8336,0l0,0.4372c-0.7858,0.0318 -1.1938,0.2495 -1.2718,0.8135c-0.0641,0.4683 -0.1419,1.343 -0.1419,3.1243l0,1.1098c0,1.5147 -0.2832,2.8111 -1.147,3.7339c-0.6921,0.7493 -1.8081,1.1719 -2.9081,1.1719c-0.9739,0 -2.0108,-0.1882 -2.7968,-0.8291c-0.8331,-0.6711 -1.1779,-1.7966 -1.1779,-3.6396l0,-3.6082c0,-1.6885 -0.1259,-1.7817 -1.384,-1.8765l0,-0.4372l4.4318,0l0,0z" fill="#FFFFFF"/>
        <path id="svg_50" d="m18.392,153.5251l6.2697,7.3416l0.0321,0l0,-2.9666c0,-1.7814 -0.0791,-2.6572 -0.142,-3.1254c-0.078,-0.5628 -0.518,-0.7498 -1.5239,-0.8123l0,-0.4373l3.8336,0l0,0.4373c-0.7847,0.0317 -1.1938,0.2495 -1.2728,0.8123c-0.062,0.4682 -0.1411,1.344 -0.1411,3.1254l0,5.9051l-0.7218,0l-6.4758,-7.8743l-0.031,0l0,3.3738c0,1.7803 0.0779,2.6553 0.141,3.1243c0.079,0.5627 0.5189,0.7509 1.5249,0.8122l0,0.4387l-3.8349,0l0,-0.4387c0.7861,-0.0308 1.1951,-0.2495 1.2729,-0.8122c0.0631,-0.469 0.142,-1.344 0.142,-3.1243l0,-3.0618c0,-1.8122 -0.3458,-2.187 -1.6347,-2.2805l0,-0.4373l2.5618,0l0,0z" fill="#FFFFFF"/>
        <path id="svg_51" d="m35.542,153.6094l0,0.4372c-1.195,0.0948 -1.3198,0.2188 -1.3198,1.907l0,5.4675c0,1.6871 0.1248,1.8123 1.3198,1.9056l0,0.4375l-4.4318,0l0,-0.4375c1.2259,-0.0933 1.352,-0.2185 1.352,-1.9056l0,-5.4675c0,-1.6882 -0.1261,-1.8122 -1.352,-1.907l0,-0.4372l4.4318,0l0,0z" fill="#FFFFFF"/>
        <path id="svg_52" d="m43.3321,153.6094l0,0.4372l-0.5029,0.0786c-0.597,0.0789 -0.628,0.1883 -0.4401,0.7967c0.3151,0.9687 1.5398,4.0627 2.499,6.4992c0.6291,-1.6709 1.949,-5.218 2.2307,-6.062c0.33,-0.9992 0.1893,-1.1858 -0.5028,-1.2646l-0.4709,-0.0479l0,-0.4372l3.568,0l0,0.4372c-1.006,0.1267 -1.0692,0.2361 -1.7921,1.6883c-0.1571,0.3108 -2.106,4.9365 -3.3158,8.125l-0.6763,0c-1.0677,-2.8138 -2.5618,-6.6568 -3.1576,-8.2195c-0.535,-1.4058 -0.786,-1.499 -1.6659,-1.5938l0,-0.4372l4.2267,0l0,0z" fill="#FFFFFF"/>
        <path id="svg_53" d="m60.0157,153.6094c0.0322,0.2495 0.094,1.407 0.188,2.375l-0.471,0.0307c-0.1569,-0.7485 -0.3471,-1.1858 -0.582,-1.4216c-0.2669,-0.2651 -0.7699,-0.3589 -1.7426,-0.3589l-0.7871,0c-0.597,0 -0.6293,0 -0.6293,0.5628l0,3.3125l1.3522,0c1.3519,0 1.3841,-0.0948 1.5399,-1.2974l0.5018,0l0,3.3123l-0.5018,0c-0.1558,-1.2349 -0.188,-1.2974 -1.5399,-1.2974l-1.3522,0l0,2.563c0,0.9055 0.0643,1.3428 0.3472,1.5466c0.2821,0.187 0.8467,0.2031 1.509,0.2031c0.7849,0 1.508,-0.0625 1.838,-0.4521c0.2669,-0.2976 0.5339,-0.8284 0.8021,-1.5789l0.472,0.0933c-0.0643,0.532 -0.4102,2.1243 -0.5362,2.5618l-7.6676,0l0,-0.4375c1.3508,-0.0933 1.4756,-0.2185 1.4756,-1.9056l0,-5.4675c0,-1.6882 -0.1248,-1.8122 -1.32,-1.907l0,-0.4372l7.1039,0l0,0z" fill="#FFFFFF"/>
        <path id="svg_54" d="m84.1276,156c-0.3004,-0.9065 -0.8182,-1.9998 -2.2207,-1.9998c-1.1009,0 -1.7025,0.7505 -1.7025,1.6402c0,0.875 0.6668,1.4534 1.9524,2l0.4355,0.1882c1.3026,0.5466 2.5034,1.375 2.5034,2.999c0,1.8604 -1.5502,3.1724 -3.8052,3.1724c-0.6348,0 -1.2362,-0.1262 -1.6704,-0.2664c-0.4675,-0.1406 -0.7678,-0.2656 -0.9671,-0.3283c-0.133,-0.4065 -0.3347,-1.4683 -0.5018,-2.4219l0.5018,-0.1558c0.3323,0.812 1.2352,2.5472 2.9539,2.5472c1.0861,0 1.7529,-0.7979 1.7529,-1.7657c0,-0.8747 -0.4514,-1.5005 -1.769,-2.1096l-0.534,-0.2495c-1.1021,-0.532 -2.5045,-1.3589 -2.5045,-2.8899c0,-1.6401 1.3187,-2.9841 3.5552,-2.9841c0.4502,0 1.053,0.0625 1.5204,0.2185c0.267,0.0935 0.4997,0.1243 0.6989,0.2026c0.0688,0.5469 0.1673,1.2337 0.3369,2.1087l-0.5361,0.0942l0,0z" fill="#FFFFFF"/>
        <path id="svg_55" d="m94.1347,153.6094l0,0.4372c-1.1927,0.0948 -1.3199,0.2188 -1.3199,1.907l0,5.4675c0,1.6871 0.1272,1.8123 1.3199,1.9056l0,0.4375l-4.4296,0l0,-0.4375c1.2238,-0.0933 1.3498,-0.2185 1.3498,-1.9056l0,-5.4675c0,-1.6882 -0.126,-1.8122 -1.3498,-1.907l0,-0.4372l4.4296,0l0,0z" fill="#FFFFFF"/>
        <path id="svg_56" d="m98.459,156.0789c0.0595,-1.032 0.1557,-2.063 0.1856,-2.876l0.2829,0c0.2199,0.3757 0.377,0.4065 0.817,0.4065l6.4759,0c0.4079,0 0.5018,-0.0921 0.7539,-0.4065l0.2498,0c0.0344,0.656 0.0963,1.844 0.1912,2.8428l-0.4732,0.0332c-0.1557,-0.8123 -0.3436,-1.2188 -0.5808,-1.4546c-0.267,-0.2959 -0.7698,-0.3897 -1.7427,-0.3897l-0.818,0l0,7.1865c0,1.6871 0.1238,1.8123 1.5709,1.9056l0,0.4375l-4.8397,0l0,-0.4375c1.3828,-0.0933 1.5089,-0.2185 1.5089,-1.9056l0,-7.1865l-0.5362,0c-1.3498,0 -1.76,0.1883 -2.0098,0.4685c-0.1902,0.2188 -0.378,0.6253 -0.5672,1.3758l-0.4685,0l0,0z" fill="#FFFFFF"/>
        <path id="svg_57" d="m115.2467,153.6094l0,0.4372l-0.6599,0.0948c-0.4079,0.0627 -0.4399,0.187 -0.1878,0.6879c0.3769,0.7486 1.3817,2.638 2.0268,3.6702c0.487,-0.8271 1.3509,-2.5151 1.823,-3.5776c0.2669,-0.5935 0.1718,-0.7486 -0.3781,-0.8123l-0.628,-0.063l0,-0.4372l3.5359,0l0,0.4372c-0.9429,0.0948 -1.0839,0.2818 -1.7438,1.3125c-0.5982,0.9373 -1.179,1.9065 -1.9799,3.4536c-0.1581,0.2815 -0.2062,0.4053 -0.2062,0.9375l0,1.6709c0,1.6871 0.1271,1.8123 1.5398,1.9056l0,0.4375l-4.7767,0l0,-0.4375c1.3532,-0.0933 1.4769,-0.2185 1.4769,-1.9056l0,-1.5163c0,-0.3267 0.0171,-0.4053 -0.22,-0.8425c-0.5018,-0.9378 -1.0679,-1.9217 -2.106,-3.7032c-0.6736,-1.1714 -0.7538,-1.2177 -1.5696,-1.3125l0,-0.4372l4.0536,0l0,0z" fill="#FFFFFF"/>
       </g>
      </g>
      <path id="svg_58" d="m86.984,148.0222l0,-18.8518c0,-2.8079 -1.9216,-4.9629 -5.399,-4.9629c-3.6424,0 -4.8443,2.2007 -4.9164,2.5152l0,-1.9493l-4.4892,0l-1.3098,0l-0.001,0.8785c0.0092,0 1.989,0.0012 1.9983,0.0012l-0.0069,0l0.0045,22.3691l-1.7049,0l0,0.8784l7.6664,0l0.0035,-0.8784l-2.1609,0l0,-17.2444c0,-2.7715 1.1409,-5.396 3.7329,-5.396c2.1093,0 2.7774,2.1016 2.7774,4.2957l0,18.3525l-2.2801,0l0,0.8706l8.4007,0l0,-0.8784l-2.3155,0l0,0z" fill="#FFFFFF"/>
      <path id="svg_59" d="m93.7954,135.3384l-0.1533,0c-0.0254,0.8943 -0.0368,1.3703 -0.0368,2.0334c0,4.1814 -0.0171,11.0457 4.5442,11.0457c3.6529,0 4.1477,-6.2967 4.1477,-8.614l2.2939,-0.003c-0.2682,4.7044 -1.6179,9.5315 -6.538,9.5315c-6.8492,0 -8.8269,-6.8855 -8.8269,-12.1103c0,-6.8882 3.2746,-13.0117 8.4696,-13.0117c3.1348,0 5.0758,2.2212 5.7174,3.8601c1.1412,2.9402 1.1848,5.5722 1.1848,7.2683l-10.8026,0l0,0zm6.9001,-0.9302c0,-2.9949 -0.3186,-9.4617 -3.0799,-9.4617c-1.611,0 -2.4646,1.25 -2.8872,2.4585c-0.9672,2.7576 -1.0165,4.9468 -1.0863,7.0032l7.0534,0l0,0z" fill="#FFFFFF"/>
      <path id="svg_60" d="m31.7701,147.3706c-0.3368,0.5056 -1.344,2.0857 -4.5442,2.0857c-2.343,0 -5.219,-1.9673 -5.219,-5.9814l0,-17.8218l-1.9284,0l0,-0.8797l5.6144,0l0,18.8999c0,3.6358 1.2878,4.6075 2.8507,4.6075c2.5607,0 3.2323,-2.7796 3.2323,-5.2889l0,-17.3388l-1.784,0l0,-0.8797l5.4722,0l0,23.2488l2.1289,0l0,0.8784l-5.8171,0l-0.0058,-1.53l0,0z" fill="#FFFFFF"/>
      <path id="svg_61" d="m46.5736,149.3289c4.3584,0 5.9156,-4.6375 6.0519,-9.4876l-2.2356,0c-0.0387,2.3035 -0.0445,8.5796 -3.8358,8.5796c-4.4617,-0.0034 -4.4617,-7.1919 -4.4617,-11.3738c0,-3.7302 -0.0769,-11.9829 4.4204,-11.9829c1.7645,0 3.0155,1.4102 3.0155,2.6482c0,1.6668 -1.6417,1.9458 -1.6417,3.8662c0,1.2232 0.8649,2.1641 2.0693,2.1641c1.847,0 2.2033,-2.0208 2.2033,-2.9807c0,-2.0799 -1.274,-6.5545 -5.6922,-6.5545c-6.3373,0 -8.7389,7.6638 -8.7389,12.9624c0,6.492 3.309,12.159 8.8455,12.159l0,0z" fill="#FFFFFF"/>
      <path id="svg_62" d="m122,148.9006l0,-0.8784l-2.5781,0l0,-38.0156l-6.077,0l0,0.8796l2.3901,0l0.0046,37.136l-5.0186,0l0,-38.0156l-6.0772,0l0,0.8796l2.3901,0l0,37.136l-2.5286,0l0,0.8784l17.4947,0l0,0z" fill="#FFFFFF"/>
      <path id="svg_63" d="m0,148.0903l2.8118,0l0,-36.1006l-2.8118,0l0,-0.8791l7.5642,0c6.2893,0 10.9366,2.0251 10.9366,8.8813c0,4.8604 -4.7377,7.8438 -8.4134,8.24l0,0.1126c3.2219,0.375 5.1399,0.8386 7.2689,2.9995c1.7782,1.8039 2.3832,4.177 2.3832,6.7363c0,7.3186 -4.259,10.8885 -10.5641,10.8885l-9.1754,0l0,-0.8785l0,0zm6.7646,-20.3015c0.801,0 2.656,0 3.992,-0.5068c1.6039,-0.6206 3.5507,-3.0047 3.639,-6.7879c0.055,-2.3191 0.103,-5.3969 -1.9021,-7.0373c-1.4024,-1.1275 -2.9228,-1.4671 -5.7289,-1.4671l0,15.7991l0,0zm0,20.3015c3.2587,0 5.1366,-0.009 6.7785,-2.3852c1.6475,-2.3828 1.8517,-5.3328 1.8517,-7.7068c0,-4.5278 -1.2501,-6.1111 -2.3192,-7.2981c-1.8698,-1.9771 -4.308,-1.7498 -6.311,-1.7498l0,19.1399l0,0z" fill="#FFFFFF"/>
     </g>
     <rect height="0.72" width="0.7219" fill="#FFFFFF" y="127" x="77" id="Rectangle-path_5_"/>
    </g>
    <g id="Group_10_">
     <g id="Shape_50_">
      <path id="svg_64" d="m71.7104,175l-7.255,0l0,1.1079l2.8627,0l0,46.062l-2.7046,0l0,1.0982l9.6918,0l0,-1.0752l-2.5919,0l0,-13.1016l2.0469,-2.7134l7.217,15.8023l-2.051,0l0,1.0879l8.6552,0l0,-1.0855l-1.8483,0l-8.9709,-19.6855c0,0 3.9502,-5.6123 5.6786,-6.9746c1.0329,-0.814 1.9596,-1.0996 3.422,-1.0996l0,-1.084l-9.188,0l0,1.0854c1.0609,0 1.468,0.0015 1.7653,0.4097c0.6367,0.8691 -0.303,3.0825 -2.7091,6.5576c-1.9214,2.773 -4.0177,5.6772 -4.0177,5.6772l-0.003,-32.0688l0,0z" fill="#FFFFFF"/>
      <g id="svg_65">
       <path id="svg_66" d="m85.5276,229.1104c1.4115,0 2.4173,0.1557 3.1893,0.6591c0.7509,0.503 1.2735,1.3184 1.2735,2.4619c0,1.6294 -1.1242,2.7715 -2.6879,3.3536c0.3071,0.5429 1.1383,1.9731 1.7272,2.8647c1.6778,2.5215 2.2907,2.8565 3.1076,2.9253l0.0845,0.4102c0,0 -0.2874,0.1259 -1.2876,0.1723c-1.9017,0.0889 -2.7893,-0.8354 -3.371,-1.7837c-0.5649,-0.9258 -1.306,-2.2246 -1.8639,-3.2319c-0.3112,-0.543 -0.5409,-0.7363 -1.1214,-0.7363l-0.6196,0l0,2.5962c0,2.0942 0.1563,2.25 1.6229,2.3657l0,0.5429l-5.4462,0l0,-0.5429c1.5453,-0.1157 1.6989,-0.2715 1.6989,-2.3657l0,-6.7842c0,-2.0928 -0.1536,-2.2481 -1.6231,-2.3643l0,-0.5429l5.3168,0l0,0zm-1.5693,6.435l0.8537,0c0.7719,0 1.3128,-0.1142 1.8157,-0.5029c0.7737,-0.6206 1.1059,-1.5503 1.1059,-2.482c0,-2.0166 -1.4538,-2.7133 -2.6878,-2.7133c-0.9298,0 -1.0875,0.0776 -1.0875,0.6967l0,5.0015l0,0z" fill="#FFFFFF"/>
       <g id="svg_67">
        <path id="svg_68" d="m7.1902,229.1079l0,0.5425c-1.4299,0.1177 -1.5835,0.2334 -1.5835,2.3281l0,4.0884c0,3.0825 1.0044,4.8081 3.2839,4.8081c2.3385,0 3.4979,-1.7837 3.4979,-5.1758l0,-1.1631c0,-2.2099 -0.0971,-3.2954 -0.1746,-3.8764c-0.0974,-0.6997 -0.6368,-0.9312 -1.8736,-1.0093l0,-0.5425l4.7134,0l0,0.5425c-0.9662,0.0395 -1.4678,0.3096 -1.5637,1.0093c-0.0787,0.581 -0.1744,1.6665 -0.1744,3.8764l0,1.377c0,1.8794 -0.3482,3.4878 -1.4103,4.6328c-0.8509,0.9297 -2.223,1.4541 -3.5755,1.4541c-1.1975,0 -2.4723,-0.2334 -3.4387,-1.0288c-1.0243,-0.8325 -1.4482,-2.229 -1.4482,-4.5156l0,-4.4771c0,-2.0947 -0.1548,-2.2104 -1.7017,-2.3281l0,-0.5425l5.449,0l0,0z" fill="#FFFFFF"/>
        <path id="svg_69" d="m22.6132,229.0034l7.7086,9.1089l0.0394,0l0,-3.6807c0,-2.2104 -0.0972,-3.2968 -0.1746,-3.8779c-0.0959,-0.6982 -0.6368,-0.9302 -1.8736,-1.0078l0,-0.5425l4.7135,0l0,0.5425c-0.9649,0.0395 -1.4679,0.3096 -1.565,1.0078c-0.0762,0.5811 -0.1734,1.6675 -0.1734,3.8779l0,7.3267l-0.8875,0l-7.9621,-9.77l-0.0381,0l0,4.186c0,2.209 0.0958,3.2945 0.1733,3.8765c0.0972,0.6982 0.6381,0.9316 1.8749,1.0078l0,0.5444l-4.715,0l0,-0.5444c0.9665,-0.0381 1.4694,-0.3096 1.5651,-1.0078c0.0775,-0.582 0.1746,-1.6675 0.1746,-3.8765l0,-3.7988c0,-2.2485 -0.4252,-2.7134 -2.0099,-2.8296l0,-0.5425l3.1498,0l0,0z" fill="#FFFFFF"/>
        <path id="svg_70" d="m43.6992,229.1079l0,0.5425c-1.4693,0.1177 -1.6228,0.2715 -1.6228,2.3662l0,6.7837c0,2.0933 0.1535,2.2485 1.6228,2.3643l0,0.5429l-5.449,0l0,-0.5429c1.5072,-0.1158 1.6624,-0.271 1.6624,-2.3643l0,-6.7837c0,-2.0947 -0.1552,-2.2485 -1.6624,-2.3662l0,-0.5425l5.449,0l0,0z" fill="#FFFFFF"/>
        <path id="svg_71" d="m53.2772,229.1079l0,0.5425l-0.6184,0.0976c-0.734,0.0977 -0.7721,0.2334 -0.541,0.9883c0.3873,1.2022 1.8932,5.041 3.0725,8.064c0.7734,-2.0732 2.3962,-6.4741 2.7427,-7.5215c0.4057,-1.2397 0.2326,-1.4712 -0.6183,-1.5688l-0.579,-0.0596l0,-0.5425l4.387,0l0,0.5425c-1.237,0.1572 -1.3146,0.293 -2.2034,2.0947c-0.1932,0.3858 -2.5893,6.125 -4.0769,10.0811l-0.8314,0c-1.3128,-3.4912 -3.1498,-8.2593 -3.8823,-10.1983c-0.6579,-1.7441 -0.9665,-1.8598 -2.0483,-1.9775l0,-0.5425l5.1968,0l0,0z" fill="#FFFFFF"/>
        <path id="svg_72" d="m73.7898,229.1079c0.0395,0.3096 0.1156,1.7456 0.2312,2.9468l-0.5791,0.0381c-0.193,-0.9287 -0.4268,-1.4712 -0.7156,-1.7637c-0.3282,-0.3291 -0.9466,-0.4453 -2.1426,-0.4453l-0.9677,0c-0.734,0 -0.7737,0 -0.7737,0.6982l0,4.1099l1.6625,0c1.6622,0 1.7017,-0.1177 1.8933,-1.6099l0.617,0l0,4.1099l-0.617,0c-0.1916,-1.5322 -0.2311,-1.6099 -1.8933,-1.6099l-1.6625,0l0,3.1802c0,1.1235 0.079,1.666 0.4269,1.919c0.3468,0.2319 1.041,0.2519 1.8553,0.2519c0.965,0 1.854,-0.0776 2.2598,-0.561c0.3281,-0.3692 0.6565,-1.0279 0.9862,-1.959l0.5803,0.1157c-0.0791,0.6602 -0.5044,2.6358 -0.6593,3.1787l-9.4274,0l0,-0.5429c1.6609,-0.1158 1.8144,-0.271 1.8144,-2.3643l0,-6.7837c0,-2.0947 -0.1535,-2.2485 -1.623,-2.3662l0,-0.5425l8.7343,0l0,0z" fill="#FFFFFF"/>
        <path id="svg_73" d="m103.4355,232.0742c-0.3692,-1.125 -1.0059,-2.4814 -2.7303,-2.4814c-1.3535,0 -2.0933,0.9311 -2.0933,2.0351c0,1.0855 0.8199,1.8033 2.4006,2.4815l0.5354,0.2334c1.6015,0.6782 3.078,1.706 3.078,3.7212c0,2.3081 -1.9061,3.936 -4.6785,3.936c-0.7805,0 -1.52,-0.1567 -2.0538,-0.3306c-0.5749,-0.1743 -0.944,-0.3296 -1.1891,-0.4072c-0.1635,-0.5044 -0.4115,-1.8218 -0.617,-3.0049l0.617,-0.1933c0.4085,1.0073 1.5186,3.1601 3.6318,3.1601c1.3355,0 2.1553,-0.9897 2.1553,-2.1904c0,-1.0855 -0.5551,-1.8618 -2.1751,-2.6177l-0.6565,-0.3096c-1.3551,-0.6601 -3.0793,-1.686 -3.0793,-3.5854c0,-2.0352 1.6213,-3.7026 4.3711,-3.7026c0.5536,0 1.2947,0.0776 1.8694,0.271c0.3282,0.1162 0.6143,0.1543 0.8593,0.2514c0.0846,0.6787 0.2057,1.5308 0.4142,2.6162l-0.6592,0.1172l0,0z" fill="#FFFFFF"/>
        <path id="svg_74" d="m115.7394,229.1079l0,0.5425c-1.4665,0.1177 -1.6228,0.2715 -1.6228,2.3662l0,6.7837c0,2.0933 0.1563,2.2485 1.6228,2.3643l0,0.5429l-5.4462,0l0,-0.5429c1.5047,-0.1158 1.6596,-0.271 1.6596,-2.3643l0,-6.7837c0,-2.0947 -0.1549,-2.2485 -1.6596,-2.3662l0,-0.5425l5.4462,0l0,0z" fill="#FFFFFF"/>
        <path id="svg_75" d="m121.0562,232.1719c0.0731,-1.2803 0.1914,-2.5596 0.2281,-3.5684l0.3479,0c0.2704,0.4663 0.4635,0.5044 1.0045,0.5044l7.9622,0c0.5014,0 0.6169,-0.1142 0.9269,-0.5044l0.3071,0c0.0423,0.814 0.1184,2.2881 0.2351,3.5274l-0.5818,0.041c-0.1914,-1.0078 -0.4225,-1.5122 -0.7141,-1.8047c-0.3283,-0.3672 -0.9465,-0.4834 -2.1427,-0.4834l-1.0057,0l0,8.9165c0,2.0933 0.1522,2.2485 1.9315,2.3643l0,0.5429l-5.9506,0l0,-0.5429c1.7002,-0.1158 1.8552,-0.271 1.8552,-2.3643l0,-8.9165l-0.6591,0c-1.6597,0 -2.164,0.2334 -2.4711,0.581c-0.2339,0.2715 -0.4649,0.7759 -0.6974,1.7071l-0.576,0l0,0z" fill="#FFFFFF"/>
        <path id="svg_76" d="m141.6968,229.1079l0,0.5425l-0.8114,0.1177c-0.5015,0.0776 -0.5409,0.2319 -0.2309,0.8535c0.4634,0.9287 1.6988,3.2729 2.492,4.5537c0.5987,-1.0264 1.6609,-3.1206 2.2413,-4.439c0.3283,-0.7363 0.2113,-0.9287 -0.4648,-1.0078l-0.7721,-0.0781l0,-0.5425l4.3474,0l0,0.5425c-1.1593,0.1177 -1.3327,0.3496 -2.1441,1.6284c-0.7354,1.1631 -1.4495,2.3657 -2.4343,4.2852c-0.1943,0.3491 -0.2535,0.5029 -0.2535,1.1631l0,2.0732c0,2.0933 0.1564,2.2485 1.8933,2.3643l0,0.5429l-5.8731,0l0,-0.5429c1.6639,-0.1158 1.8158,-0.271 1.8158,-2.3643l0,-1.8814c0,-0.4052 0.0212,-0.5029 -0.2703,-1.0454c-0.6171,-1.1635 -1.313,-2.3842 -2.5894,-4.5947c-0.8282,-1.4531 -0.9269,-1.5107 -1.9299,-1.6284l0,-0.5425l4.984,0l0,0z" fill="#FFFFFF"/>
       </g>
      </g>
      <path id="svg_77" d="m106.9475,222.1758l0,-23.3902c0,-3.4838 -2.3625,-6.1577 -6.6381,-6.1577c-4.4783,0 -5.9561,2.7305 -6.0448,3.1206l0,-2.4184l-5.5195,0l-1.6103,0l-0.0013,1.0898c0.0113,0 2.4455,0.0015 2.457,0.0015l-0.0086,0l0.0056,27.7544l-2.0962,0l0,1.0898l9.4259,0l0.0043,-1.0898l-2.6569,0l0,-21.396c0,-3.4385 1.4029,-6.6948 4.5896,-6.6948c2.5936,0 3.415,2.6074 3.415,5.3296l0,22.7709l-2.8035,0l0,1.0801l10.3287,0l0,-1.0898l-2.8469,0l0,0z" fill="#FFFFFF"/>
      <path id="svg_78" d="m115.3223,206.4385l-0.1886,0c-0.0312,1.1094 -0.0452,1.7002 -0.0452,2.5229c0,5.188 -0.021,13.7046 5.5872,13.7046c4.4912,0 5.0996,-7.8125 5.0996,-10.6875l2.8203,-0.0039c-0.3297,5.8369 -1.9892,11.8262 -8.0385,11.8262c-8.4211,0 -10.8528,-8.543 -10.8528,-15.0259c0,-8.5464 4.0262,-16.144 10.4135,-16.144c3.8542,0 6.2407,2.7558 7.0295,4.7895c1.4032,3.648 1.4568,6.9136 1.4568,9.0181l-13.2818,0l0,0zm8.4836,-1.1543c0,-3.7158 -0.3917,-11.7393 -3.7867,-11.7393c-1.9807,0 -3.0303,1.5508 -3.5498,3.0503c-1.1892,3.4214 -1.2498,6.1377 -1.3357,8.689l8.6722,0l0,0z" fill="#FFFFFF"/>
      <path id="svg_79" d="m39.0616,221.3672c-0.4141,0.6274 -1.6524,2.5879 -5.5871,2.5879c-2.8807,0 -6.4169,-2.4409 -6.4169,-7.4214l0,-22.1123l-2.371,0l0,-1.0913l6.903,0l0,23.4497c0,4.5112 1.5834,5.7168 3.505,5.7168c3.1484,0 3.9741,-3.4487 3.9741,-6.562l0,-21.5132l-2.1935,0l0,-1.0913l6.7282,0l0,28.8457l2.6175,0l0,1.0898l-7.1522,0l-0.0071,-1.8984l0,0z" fill="#FFFFFF"/>
      <path id="svg_80" d="m57.2626,223.7969c5.3587,0 7.2733,-5.7539 7.4409,-11.7715l-2.7487,0c-0.0476,2.8579 -0.0548,10.645 -4.7162,10.645c-5.4857,-0.0044 -5.4857,-8.9233 -5.4857,-14.1118c0,-4.6284 -0.0945,-14.8677 5.435,-14.8677c2.1694,0 3.7076,1.7495 3.7076,3.2857c0,2.0678 -2.0185,2.414 -2.0185,4.7968c0,1.5176 1.0634,2.6851 2.5441,2.6851c2.271,0 2.709,-2.5073 2.709,-3.6982c0,-2.5806 -1.5664,-8.1324 -6.9985,-8.1324c-7.7918,0 -10.7446,9.5088 -10.7446,16.083c0,8.0547 4.0684,15.086 10.8756,15.086l0,0z" fill="#FFFFFF"/>
      <path id="svg_81" d="m150,223.2656l0,-1.0898l-3.1698,0l0,-47.1675l-7.4717,0l0,1.0913l2.9386,0l0.0056,46.0762l-6.1704,0l0,-47.1675l-7.4719,0l0,1.0913l2.9386,0l0,46.0762l-3.1089,0l0,1.0898l21.5099,0l0,0z" fill="#FFFFFF"/>
      <path id="svg_82" d="m0,222.2603l3.4572,0l0,-44.7915l-3.4572,0l0,-1.0909l9.3003,0c7.7327,0 13.4465,2.5127 13.4465,11.0196c0,6.0302 -5.8249,9.7319 -10.3442,10.2236l0,0.1396c3.9613,0.4654 6.3194,1.0406 8.9371,3.7217c2.1863,2.2383 2.9302,5.1826 2.9302,8.3579c0,9.0806 -5.2365,13.5098 -12.9886,13.5098l-11.2813,0l0,-1.0898l0,0zm8.3171,-25.189c0.9849,0 3.2657,0 4.9082,-0.6289c1.9721,-0.77 4.3656,-3.728 4.4742,-8.4219c0.0676,-2.8774 0.1267,-6.6963 -2.3387,-8.7314c-1.7242,-1.399 -3.5936,-1.8203 -7.0437,-1.8203l0,19.6025l0,0zm0,25.189c4.0066,0 6.3155,-0.0113 8.3343,-2.9595c2.0256,-2.9566 2.2766,-6.6167 2.2766,-9.562c0,-5.6182 -1.537,-7.5825 -2.8515,-9.0552c-2.2989,-2.4531 -5.2967,-2.1709 -7.7594,-2.1709l0,23.7476l0,0z" fill="#FFFFFF"/>
     </g>
     <rect height="0.8933" width="0.8876" fill="#FFFFFF" y="196" x="94" id="Rectangle-path_6_"/>
    </g>
    <g id="Group_11_">
     <path d="m283.6365,25c0.7529,0 1.3635,-0.6178 1.3635,-1.3797l0,-22.2405c0,-0.7621 -0.6106,-1.3798 -1.3635,-1.3798l-22.273,0c-0.7532,0 -1.3635,0.6177 -1.3635,1.3798l0,22.2405c0,0.7619 0.6103,1.3797 1.3635,1.3797l22.273,0l0,0z" fill="#3A5897" id="Shape_51_"/>
     <path d="m277.3409,25l0,-9.6812l3.2113,0l0.4809,-3.773l-3.6922,0l0,-2.409c0,-1.0924 0.2997,-1.8367 1.8478,-1.8367l1.9744,-0.0009l0,-3.3746c-0.3415,-0.0459 -1.5136,-0.1487 -2.8771,-0.1487c-2.8467,0 -4.7955,1.7583 -4.7955,4.9874l0,2.7825l-3.2196,0l0,3.773l3.2196,0l0,9.6812l3.8504,0l0,0z" fill="#FFFFFF" id="Shape_52_"/>
    </g>
    <path d="m305.3333,119l0,-11.0312l2.6667,0l0,-2.4827l-2.6667,0l0,-1.4253c0,-0.772 0.2107,-1.6858 1.2991,-1.6858l1.3676,0l0,-1.9921c-0.2401,-0.0324 -1.215,-0.3829 -2.1736,-0.3829c-2.0013,0 -3.1597,1.2427 -3.1597,3.5248l0,1.9613l-2.6667,0l0,2.4827l2.6667,0l0,11.0312l2.6666,0l0,0z" fill="#FFFFFF" id="Shape_53_"/>
    <path d="m174.7023,66l0,0c-0.0014,0 -0.0025,-0.0002 -0.0038,-0.0002c-0.9168,-0.0032 -1.7626,-0.2784 -2.5374,-0.8243c-0.2585,-0.1818 -0.5092,-0.3945 -0.7522,-0.6372c-0.9416,-0.9411 -1.4115,-2.0266 -1.4089,-3.2558c0.0022,-1.2295 0.4788,-2.3199 1.4299,-3.2703c0.9768,-0.9761 2.3037,-1.4902 3.9302,-1.4902c0.4055,0 0.8301,0.0324 1.272,0.0969l2.414,0.3225c0.4563,0.095 0.8888,0.1389 1.2901,0.1389c1.0732,0 1.9238,-0.3142 2.4158,-0.8059c0.4187,-0.4182 0.6254,-0.9109 0.6208,-1.4778c-0.0146,-0.5063 -0.1869,-0.9555 -0.5173,-1.3471c-0.0472,-0.0559 -0.0974,-0.1106 -0.1514,-0.1643c-0.1565,-0.1565 -0.3246,-0.2847 -0.5046,-0.3833c-0.2986,-0.1648 -0.6297,-0.2505 -0.9932,-0.2583c-0.0022,0 -0.0039,-0.0005 -0.0061,-0.0005c-0.5669,-0.0166 -1.0627,0.1875 -1.4876,0.612c-0.5214,0.5215 -0.8413,1.2322 -0.7961,2.4077l-2.1377,-0.2858c0.0007,0.0004 0.0017,0.0004 0.0026,0.0004c-0.0014,0 -0.0026,-0.0004 -0.0039,-0.0004l-0.0087,-0.0013c0.0015,0.0005 0.0031,0.0005 0.0048,0.001c-0.0838,-0.0122 -0.165,-0.0173 -0.2482,-0.0276c-0.0733,-1.6924 0.4031,-2.832 1.491,-3.9199c0.9644,-0.9639 2.0495,-1.4392 3.2551,-1.4282l0.0168,-0.001l0.0083,0c1.215,0 2.3037,0.4814 3.2669,1.4441c0.2383,0.238 0.4471,0.4851 0.6258,0.7402c0.5375,0.7654 0.8073,1.6072 0.8103,2.5244c0.0114,0.909 -0.2485,1.7439 -0.7808,2.5059c-0.1772,0.2542 -0.3848,0.5 -0.6224,0.7378c-0.9986,0.9978 -2.3195,1.5239 -3.9076,1.5239c-0.4294,0 -0.878,-0.0383 -1.3455,-0.1164l-2.4045,-0.313c-0.4494,-0.0957 -0.8764,-0.1404 -1.2745,-0.1404c-1.0709,0 -1.9289,0.3225 -2.4348,0.8281c-0.157,0.157 -0.2837,0.3247 -0.3795,0.5025c-0.1596,0.2961 -0.2343,0.6213 -0.2234,0.9755c0.0126,0.4339 0.1377,0.8228 0.3756,1.1658c0.0795,0.1145 0.1709,0.2239 0.2755,0.3279c0.413,0.4133 0.9,0.6323 1.4614,0.6584l0.0417,0.0013c0.5796,0.0051 1.0778,-0.2024 1.4968,-0.6206c0.5264,-0.5264 0.8473,-1.242 0.7967,-2.42l2.1178,0.2757c0.0796,0.0129 0.159,0.0232 0.2381,0.0346c0.0525,1.7339 -0.4094,2.8709 -1.456,3.917c-0.9633,0.9629 -2.0539,1.4449 -3.2719,1.4473l0,0l0,0z" fill="#5282AA" id="Shape_54_"/>
    <path d="m154.7023,66l0,0c-0.0014,0 -0.0025,-0.0002 -0.0038,-0.0002c-0.9168,-0.0032 -1.7626,-0.2784 -2.5374,-0.8243c-0.2585,-0.1818 -0.5092,-0.3945 -0.7522,-0.6372c-0.9416,-0.9411 -1.4115,-2.0266 -1.4089,-3.2558c0.0022,-1.2295 0.4788,-2.3199 1.4299,-3.2703c0.9768,-0.9761 2.3037,-1.4902 3.9302,-1.4902c0.4055,0 0.8301,0.0324 1.272,0.0969l2.414,0.3225c0.4563,0.095 0.8888,0.1389 1.2901,0.1389c1.0732,0 1.9238,-0.3142 2.4158,-0.8059c0.4187,-0.4182 0.6254,-0.9109 0.6208,-1.4778c-0.0146,-0.5063 -0.1869,-0.9555 -0.5173,-1.3471c-0.0472,-0.0559 -0.0974,-0.1106 -0.1514,-0.1643c-0.1565,-0.1565 -0.3246,-0.2847 -0.5046,-0.3833c-0.2986,-0.1648 -0.6297,-0.2505 -0.9932,-0.2583c-0.0022,0 -0.0039,-0.0005 -0.0061,-0.0005c-0.5669,-0.0166 -1.0627,0.1875 -1.4876,0.612c-0.5214,0.5215 -0.8413,1.2322 -0.7961,2.4077l-2.1377,-0.2858c0.0007,0.0004 0.0017,0.0004 0.0026,0.0004c-0.0014,0 -0.0026,-0.0004 -0.0039,-0.0004l-0.0087,-0.0013c0.0015,0.0005 0.0031,0.0005 0.0048,0.001c-0.0838,-0.0122 -0.165,-0.0173 -0.2482,-0.0276c-0.0733,-1.6924 0.4031,-2.832 1.491,-3.9199c0.9644,-0.9639 2.0495,-1.4392 3.2551,-1.4282l0.0168,-0.001l0.0083,0c1.215,0 2.3037,0.4814 3.2669,1.4441c0.2383,0.238 0.4471,0.4851 0.6258,0.7402c0.5375,0.7654 0.8073,1.6072 0.8103,2.5244c0.0114,0.909 -0.2485,1.7439 -0.7808,2.5059c-0.1772,0.2542 -0.3848,0.5 -0.6224,0.7378c-0.9986,0.9978 -2.3195,1.5239 -3.9076,1.5239c-0.4294,0 -0.878,-0.0383 -1.3455,-0.1164l-2.4045,-0.313c-0.4494,-0.0957 -0.8764,-0.1404 -1.2745,-0.1404c-1.0709,0 -1.9289,0.3225 -2.4348,0.8281c-0.157,0.157 -0.2837,0.3247 -0.3795,0.5025c-0.1596,0.2961 -0.2343,0.6213 -0.2234,0.9755c0.0126,0.4339 0.1377,0.8228 0.3756,1.1658c0.0795,0.1145 0.1709,0.2239 0.2755,0.3279c0.413,0.4133 0.9,0.6323 1.4614,0.6584l0.0417,0.0013c0.5796,0.0051 1.0778,-0.2024 1.4968,-0.6206c0.5264,-0.5264 0.8473,-1.242 0.7967,-2.42l2.1178,0.2757c0.0796,0.0129 0.159,0.0232 0.2381,0.0346c0.0525,1.7339 -0.4094,2.8709 -1.456,3.917c-0.9633,0.9629 -2.0539,1.4449 -3.2719,1.4473l0,0l0,0z" fill="#D5DDE7" id="Shape_55_"/>
    <path d="m131.5108,122.7983l-1.5108,1.5503l3.2302,3.3151l1.3022,1.3363l1.5108,-1.5505l5.9568,-6.113l-1.3022,-1.3365l-5.9578,6.115l-3.2292,-3.3167l0,0z" fill="#5282AA" id="Shape_56_"/>
    <g id="Group_12_">
     <path d="m215.5092,25c-5.6829,0 -10.5092,5.8708 -10.5092,5.8708l0,0.2215c0,0 4.8079,5.9077 10.4908,5.9077c5.6824,0 10.5092,-5.8708 10.5092,-5.8708l0,-0.2215c0,0 -4.8085,-5.9077 -10.4908,-5.9077l0,0zm-0.0364,9.6719c-1.923,0 -3.4815,-1.6089 -3.4815,-3.5935s1.5585,-3.5935 3.4815,-3.5935s3.4818,1.6089 3.4818,3.5935s-1.5588,3.5935 -3.4818,3.5935l0,0z" fill="#5281AA" id="Shape_57_"/>
     <path d="m215.4728,29.4116c-0.8804,0 -1.594,0.7365 -1.594,1.645c0,0.9084 0.7136,1.6452 1.594,1.6452c0.8804,0 1.594,-0.7368 1.594,-1.6452c0,-0.9085 -0.7136,-1.645 -1.594,-1.645l0,0z" fill="#5281AA" id="Shape_58_"/>
    </g>
    <path d="m343.368,9.846l-3.5845,-0.6603c-0.3479,-0.0638 -0.4703,-0.3557 -0.2729,-0.6489l2.0564,-3.0485c0.1977,-0.2933 0.1547,-0.7372 -0.0952,-0.9874l-1.9727,-1.972c-0.2498,-0.2502 -0.6942,-0.2928 -0.9874,-0.0951l-3.0486,2.0564c-0.2932,0.1977 -0.5854,0.0746 -0.6492,-0.2726l-0.6599,-3.5858c-0.0641,-0.3474 -0.4057,-0.6318 -0.7592,-0.6318l-2.7899,0c-0.3534,0 -0.6951,0.2844 -0.759,0.6319l-0.6599,3.5854c-0.0642,0.3472 -0.3564,0.4704 -0.6495,0.2726l-3.048,-2.056c-0.2929,-0.1977 -0.7372,-0.155 -0.9872,0.0951l-1.9727,1.9723c-0.2502,0.2502 -0.2929,0.6948 -0.0951,0.9874l2.056,3.0482c0.1974,0.2932 0.075,0.585 -0.2729,0.6489l-3.5846,0.6602c-0.3479,0.0643 -0.632,0.4059 -0.632,0.7594l0,2.7892c0,0.3535 0.2841,0.6951 0.632,0.7593l3.5857,0.66c0.3474,0.0642 0.4701,0.3564 0.2724,0.6492l-2.0567,3.0489c-0.1978,0.2931 -0.1551,0.7372 0.0951,0.9874l1.9727,1.9723c0.2501,0.2502 0.6944,0.2932 0.9872,0.0951l3.048,-2.0555c0.2931,-0.1983 0.5853,-0.0749 0.6495,0.272l0.6599,3.5847c0.0638,0.3476 0.4056,0.632 0.759,0.632l2.7899,0c0.3535,0 0.6951,-0.2844 0.7594,-0.632l0.6599,-3.585c0.0638,-0.3472 0.356,-0.4704 0.6492,-0.272l3.0486,2.0557c0.2932,0.198 0.7376,0.155 0.9874,-0.0951l1.9723,-1.9717c0.2502,-0.2505 0.2929,-0.6945 0.0951,-0.9876l-2.0567,-3.0492c-0.1978,-0.2929 -0.075,-0.585 0.2724,-0.6492l3.5857,-0.66c0.3479,-0.0641 0.632,-0.4058 0.632,-0.7593l0,-2.7892c0,-0.3535 -0.2841,-0.6951 -0.632,-0.7594l0,0zm-11.3696,6.5001c-2.3948,0 -4.3362,-1.9414 -4.3362,-4.3362s1.9414,-4.3361 4.3362,-4.3361c2.3949,0 4.3363,1.9413 4.3363,4.3361s-1.9414,4.3362 -4.3363,4.3362l0,0z" fill="#FFFFFF" id="Shape_59_"/>
    <path d="m368.6835,50.5125l-7.4677,-1.3755c-0.7248,-0.133 -0.9799,-0.741 -0.5686,-1.3517l4.2841,-6.3512c0.412,-0.6109 0.3224,-1.5358 -0.1981,-2.0569l-4.1098,-4.1084c-0.5205,-0.5212 -1.4462,-0.6101 -2.0569,-0.1982l-6.3513,4.2842c-0.6108,0.4119 -1.2195,0.1554 -1.3525,-0.568l-1.3749,-7.4703c-0.1337,-0.7241 -0.8456,-1.3165 -1.5819,-1.3165l-5.8125,0c-0.7363,0 -1.4481,0.5924 -1.5812,1.3165l-1.3749,7.4696c-0.1336,0.7234 -0.7424,0.9799 -1.3532,0.568l-6.3499,-4.2835c-0.6101,-0.4119 -1.5357,-0.323 -2.0569,0.1982l-4.1098,4.109c-0.5212,0.5212 -0.6101,1.4475 -0.1982,2.057l4.2835,6.3505c0.4113,0.6107 0.1562,1.2187 -0.5686,1.3517l-7.4677,1.3755c-0.7248,0.1339 -1.3165,0.8457 -1.3165,1.582l0,5.811c0,0.7363 0.5917,1.4481 1.3165,1.5818l7.4704,1.375c0.7234,0.1337 0.9793,0.7424 0.5673,1.3524l-4.2849,6.3518c-0.4119,0.6108 -0.323,1.5359 0.1982,2.057l4.1098,4.1091c0.5212,0.5212 1.4468,0.6107 2.0569,0.1981l6.3499,-4.2821c0.6108,-0.4132 1.2196,-0.156 1.3532,0.5667l1.3749,7.4681c0.1331,0.7242 0.8449,1.3166 1.5812,1.3166l5.8125,0c0.7363,0 1.4482,-0.5924 1.5819,-1.3166l1.3749,-7.4688c0.133,-0.7234 0.7417,-0.9799 1.3525,-0.5667l6.3513,4.2828c0.6107,0.4126 1.5364,0.3231 2.0569,-0.1981l4.1091,-4.1077c0.5212,-0.5219 0.6101,-1.447 0.1982,-2.0577l-4.2849,-6.3525c-0.412,-0.61 -0.1561,-1.2187 0.5673,-1.3524l7.4704,-1.375c0.7248,-0.1337 1.3165,-0.8455 1.3165,-1.5818l0,-5.811c0,-0.7363 -0.5917,-1.4481 -1.3165,-1.582l0,0zm-23.6869,13.5419c-4.9893,0 -9.0339,-4.0446 -9.0339,-9.0338s4.0446,-9.0336 9.0339,-9.0336c4.9893,0 9.0339,4.0444 9.0339,9.0336s-4.0446,9.0338 -9.0339,9.0338l0,0z" fill="#FFFFFF" id="Shape_60_"/>
    <path d="m370,0.5l9.5,9.5005l-9.5,9.4995l0,-19l0,0z" fill="#FFFFFF" id="Shape_61_"/>
    <path d="m364,0.5l-9,9.5005l9,9.4995l0,-19l0,0z" fill="#FFFFFF" id="Shape_62_"/>
    <path d="m412,14c0,6.2249 -4.925,11.2711 -11,11.2711s-11,-5.3173 -11,-11.5422c0,-6.2248 5.044,-11.271 11.119,-11.271c0.6418,0 1.2694,0.0594 1.881,0.1676l0,-2.6255l4.2289,4.2199l-4.2289,4.2278l0,-2.6266c-0.6036,-0.1506 -1.2328,-0.2324 -1.881,-0.2324c-4.3805,0 -8.0634,3.6517 -8.0634,8.1402c0,4.4886 3.5638,8.4114 7.9444,8.4114s7.9448,-3.6517 7.9448,-8.1403l3.0552,0l0,0z" fill="#FFFFFF" id="Shape_63_"/>
    <path d="m150,120l9,5.5l-9,5.5l0,-11l0,0z" fill="#FDFDFE" id="Shape_64_"/>
    <path d="m385,35l31,20l-31,20l0,-40l0,0z" fill="#FDFDFE" id="Shape_65_"/>
    <path d="m460,0l15,10l-15,10l0,-20l0,0z" fill="#FDFDFE" id="Shape_66_"/>
    <g id="Group_13_">
     <path d="m192.1809,124.3438l-2.1809,0l0,4.3351l2.1958,0l4.3322,4.3211l0,-13l-4.3471,4.3359l0,0.0079l0,0z" fill="#FFFFFF" id="Shape_67_"/>
     <path d="m198.1997,123.7642l-0.6567,1.2827l0,0.0311c0.4118,0.3335 0.6809,0.8355 0.6809,1.4042c0,0.5682 -0.2691,1.0704 -0.6809,1.4034l0,0.0049l0.6665,1.3021c0.8811,-0.5828 1.4629,-1.5779 1.4629,-2.7104c0,-1.1375 -0.5861,-2.1361 -1.4727,-2.718l0,0z" fill="#FFFFFF" id="Shape_68_"/>
     <path d="m203,126.4822c0,-2.4188 -1.3348,-4.523 -3.3091,-5.6331l-0.6474,1.2656l0,0.0303c1.4973,0.8732 2.5081,2.4878 2.5081,4.3372c0,1.849 -1.0108,3.4638 -2.5081,4.3368l0,0.0038l0.6582,1.2864c1.9682,-1.1119 3.2983,-3.2132 3.2983,-5.627l0,0z" fill="#FFFFFF" id="Shape_69_"/>
    </g>
    <path d="m217.1809,124.3438l-2.1809,0l0,4.3351l2.1958,0l4.3322,4.3211l0,-13l-4.3471,4.3359l0,0.0079l0,0z" fill="#FFFFFF" id="Shape_70_"/>
    <g id="Group_14_">
     <rect x="170" y="120" height="11" width="3" fill="#FDFDFE" id="Rectangle-path_7_"/>
     <rect y="120" height="11" width="3" fill="#FDFDFE" x="175" id="Rectangle-path_8_"/>
    </g>
    <path d="m246,122.8567l0,-1.9987c0,-0.4717 0.1123,-0.858 -0.3611,-0.858l-9.7783,0c-0.4732,0 -0.8606,0.3863 -0.8606,0.858l0,8.284c0,0.4718 0.3874,0.858 0.8606,0.858l9.2786,0c0.4733,0 0.8608,-0.3862 0.8608,-0.858l0,-2.142l0.0002,0l4.9998,2.1028l0,-8.3683l-5,2.1222l0,0z" fill="#FDFDFE" id="Shape_71_"/>
    <path d="m246.3713,88.2391c-0.7852,-0.3368 -1.9491,-1.207 -3.675,-1.5063c0.4415,-0.4578 0.7762,-1.1726 1.1188,-2.0199c0.1992,-0.4909 0.1638,-0.9093 0.1638,-1.5061c0,-0.4397 0.0874,-1.1458 -0.0263,-1.5339c-0.3797,-1.3117 -1.3422,-1.6729 -2.468,-1.6729c-1.1274,0 -2.0896,0.3634 -2.4696,1.6759c-0.1106,0.3892 -0.0254,1.0927 -0.0254,1.5309c0,0.5978 -0.0332,1.0183 0.1664,1.5093c0.3452,0.8518 0.6752,1.5656 1.1138,2.0221c-1.7109,0.3028 -2.8664,1.1678 -3.6466,1.5035c-1.6142,0.6984 -1.6232,1.4628 -1.6232,1.4628l0,1.2955l13,-0.0023l0,-1.2932c0,0 -0.0079,-0.7674 -1.6287,-1.4654l0,0z" fill="#EA760A" id="Shape_72_"/>
    <path d="m246.3713,108.2391c-0.7852,-0.3368 -1.9491,-1.207 -3.675,-1.5063c0.4415,-0.4578 0.7762,-1.1726 1.1188,-2.0199c0.1992,-0.4909 0.1638,-0.9093 0.1638,-1.5061c0,-0.4397 0.0874,-1.1458 -0.0263,-1.5339c-0.3797,-1.3117 -1.3422,-1.6729 -2.468,-1.6729c-1.1274,0 -2.0896,0.3634 -2.4696,1.6759c-0.1106,0.3892 -0.0254,1.0927 -0.0254,1.5309c0,0.5978 -0.0332,1.0183 0.1664,1.5093c0.3452,0.8518 0.6752,1.5656 1.1138,2.0221c-1.7109,0.3028 -2.8664,1.1678 -3.6466,1.5035c-1.6142,0.6984 -1.6232,1.4628 -1.6232,1.4628l0,1.2955l13,-0.0023l0,-1.2932c0,0 -0.0079,-0.7674 -1.6287,-1.4654l0,0z" fill="#666666" id="Shape_73_"/>
    <path d="m297.4716,124.4695c-0.3332,-2.8396 -3.5007,-4.8175 -7.0747,-4.4184c-3.5741,0.3992 -6.2014,3.0245 -5.8685,5.8638c0.1762,1.5011 1.145,2.7614 2.547,3.5569c0.0687,0.6289 -0.163,1.4304 -1.2533,2.2515c-0.4452,0.3352 1.8045,0.7678 3.9043,-1.3982c0.603,0.0735 1.2331,0.0798 1.8766,0.0079c3.5741,-0.3993 6.2015,-3.0243 5.8686,-5.8635l0,0z" fill="#FFFFFF" id="Shape_74_"/>
    <path d="m245,50.25l5.5,4.75l-5.5,4.75l0,-9.5l0,0z" fill="#5282AA" id="Shape_75_"/>
    <path d="m245,60.25l5.5,4.75l-5.5,4.75l0,-9.5l0,0z" fill="#FFFFFF" id="Shape_76_"/>
    <path d="m241,50.25l-5.5,4.75l5.5,4.75l0,-9.5l0,0z" fill="#5282AA" id="Shape_77_"/>
    <path d="m241,60.25l-5.5,4.75l5.5,4.75l0,-9.5l0,0z" fill="#FFFFFF" id="Shape_78_"/>
    <path d="m184.616,152l-0.4478,-4.3008l2.8318,-2.9346l-3.999,-0.5786l-2.0009,-4.186l-2.0011,4.186l-3.999,0.5494l2.8318,2.9638l-0.449,4.2959l3.6138,-2.2881l0.0082,0l3.6112,2.293l0,0z" fill="#999999" id="Shape_79_"/>
    <path d="m130,144.5l5.7991,-4.5l0,2.7715l0.0022,0c0.13,0 7.1987,0.0273 7.1987,5.9907c0,0 -2.1959,-2.7246 -5.7006,-2.7246c-0.4764,0 -0.977,0.0503 -1.5003,0.165l0,2.7974l-5.7991,-4.5l0,0z" fill="#999999" id="Shape_80_"/>
    <g id="Group_15_">
     <path d="m152.8334,143.6665l0,5.5l0.9444,0.917l5.6667,0l-1.889,-1.8335l-2.8333,0l0,-4.5835l2.8333,0l-3.7777,-3.6665l-3.7778,3.6665l2.8334,0l0,0z" fill="#999999" id="Shape_81_"/>
     <path d="m164.1666,147.3335l0,-5.5l-0.9444,-0.917l-5.6667,0l1.889,1.8335l2.8333,0l0,4.5835l-2.8333,0l3.7777,3.6665l3.7778,-3.6665l-2.8334,0l0,0z" fill="#999999" id="Shape_82_"/>
    </g>
    <g id="Group_16_">
     <path d="m312.3243,122.9219c0.8008,0 1.406,-0.6679 1.406,-1.4608c0,-0.8351 -0.6052,-1.4611 -1.3865,-1.4611c-0.7424,0 -1.3869,0.626 -1.3869,1.4611c0,0.7929 0.6445,1.4608 1.3674,1.4608l0,0z" fill="#FFFFFF" id="Shape_83_"/>
     <path d="m313.7303,131.3322l0,-7.3843c-1.0934,0.3335 -2.3825,0.6051 -3.5545,0.7511l0,0.8941c0.9377,0.1669 1.0743,0.2293 1.0743,1.6069l0,4.1322c0,1.4814 -0.1174,1.5653 -1.2501,1.711l0,0.9568l5,0l0,-0.9568c-1.1717,-0.1666 -1.2697,-0.271 -1.2697,-1.711l0,0z" fill="#FFFFFF" id="Shape_84_"/>
    </g>
    <g id="Group_17_">
     <path d="m200.0616,140c-0.0401,0 -0.0615,0.0012 -0.0615,0.0012s-0.0214,-0.0012 -0.0615,-0.0012c-0.5718,0 -4.9386,0.1901 -4.9386,5.9826c0,2.5462 2.9258,7.1895 2.9258,8.4327l4.1683,0c0,-1.2432 2.9059,-5.8865 2.9059,-8.4327c0,-5.793 -4.3668,-5.9826 -4.9384,-5.9826l0,0zm1.1211,13.166l-0.4596,0l0,-3.2244l-1.4068,0l0,3.2244l-0.481,0c-0.1999,-0.5632 -0.5112,-1.2565 -0.9284,-2.1724c-0.7305,-1.6032 -1.7303,-3.798 -1.7303,-5.011c0,-1.9742 0.5724,-3.3549 1.7015,-4.1038c0.9222,-0.6118 1.9469,-0.6292 2.0605,-0.6292l0.0131,0l0.0401,0.0015l0.0486,-0.0015l0.0212,0c0.1136,0 1.1384,0.0174 2.0605,0.6292c1.1293,0.7489 1.7016,2.1296 1.7016,4.1038c0,1.2144 -0.9938,3.4103 -1.7198,5.0141c-0.4135,0.914 -0.7225,1.6073 -0.9212,2.1693l0,0z" fill="#EA760A" id="Shape_85_"/>
     <path d="m197.9237,156.2132l4.1687,0l0,-1.1653l-4.1687,0l0,1.1653l0,0z" fill="#EA760A" id="Shape_86_"/>
     <path d="m198.9763,158l2.073,0l0,-1.1652l-2.073,0l0,1.1652l0,0z" fill="#EA760A" id="Shape_87_"/>
    </g>
    <g id="Group_18_">
     <path d="m227,151.4169c0,0.3215 -0.2575,0.5831 -0.5733,0.5831l-8.8534,0c-0.316,0 -0.5733,-0.2616 -0.5733,-0.5831l0,-8.834c0,-0.3215 0.2573,-0.5829 0.5733,-0.5829l7.6671,0l1.6751,-1.7036c-0.146,-0.0297 -0.2967,-0.2964 -0.4511,-0.2964l-9.1706,0c-1.2668,0 -2.2938,1.0441 -2.2938,2.3321l0,9.3354c0,1.2883 1.027,2.3325 2.2938,2.3325l9.4123,0c1.2669,0 2.2939,-1.0442 2.2939,-2.3325l0,-5.1772l-2,1.7492l0,3.1774l0,0z" fill="#EA760A" id="Shape_88_"/>
     <path d="m221.9565,146.7521l-0.0003,0.0007l-0.0001,0.0009l0.0001,0l-1.1814,3.6969l3.6359,-1.2012l0.0015,-0.0007l-0.0002,-0.0002l6.588,-6.6985l-2.4549,-2.4961l-6.5875,6.6982l-0.0011,0l0,0zm2.1517,1.9951l-2.4552,0.8106l0.7976,-2.4963l1.6576,1.6857l0,0z" fill="#EA760A" id="Shape_89_"/>
    </g>
    <path d="m248,140c-4.4182,0 -8,3.5815 -8,8s3.5818,8 8,8s8,-3.5815 8,-8s-3.5818,-8 -8,-8l0,0zm4.7441,8.3762c0,0.3836 -0.3137,0.6973 -0.6977,0.6973l-2.2949,0c-0.3835,0 -0.6975,0.314 -0.6975,0.6977l0,2.2952c0,0.3833 -0.314,0.6973 -0.6974,0.6973l-0.778,0c-0.3837,0 -0.6973,-0.314 -0.6973,-0.6973l0,-2.2952c-0.0002,-0.3837 -0.314,-0.6977 -0.6977,-0.698l-2.2954,0.0003c-0.3834,0 -0.6972,-0.3137 -0.6972,-0.6975l0,-0.7779c0,-0.3833 0.3138,-0.6972 0.6972,-0.6975l2.2954,0.0003c0.3837,0 0.6975,-0.314 0.6977,-0.6978l0,-2.2954c0,-0.3833 0.3136,-0.6973 0.6973,-0.6973l0.7782,0c0.3834,0 0.6972,0.314 0.6972,0.6973l0,2.2952c0,0.384 0.314,0.6977 0.6975,0.698l2.2954,-0.0003c0.3835,0.0003 0.6972,0.314 0.6972,0.6975l0,0.7781l0,0z" fill="#527FAA" id="Shape_90_"/>
    <g id="Group_19_">
     <path d="m274.5,139.5c-5.2466,0 -9.5,4.2531 -9.5,9.5s4.2534,9.5 9.5,9.5s9.5,-4.2531 9.5,-9.5s-4.2534,-9.5 -9.5,-9.5l0,0zm0,16.625c-3.9287,0 -7.125,-3.196 -7.125,-7.125c0,-3.9287 3.1963,-7.125 7.125,-7.125s7.125,3.1963 7.125,7.125c0,3.929 -3.1963,7.125 -7.125,7.125l0,0z" fill="#666666" id="Shape_91_"/>
     <path d="m279.1093,151.1292l-3.7579,-2.5384l0,-4.3692c0,-0.1043 -0.0424,-0.2064 -0.1159,-0.2803c-0.0738,-0.0737 -0.1758,-0.116 -0.2802,-0.116l-1.0393,0c-0.1046,0 -0.2062,0.0423 -0.2798,0.116c-0.0737,0.0739 -0.1159,0.176 -0.1159,0.2803l0,5.1595c0,0.1044 0.0422,0.2065 0.1159,0.2802c0.0298,0.0299 0.0644,0.0546 0.1021,0.0734l4.3783,2.9329c0.066,0.0436 0.1423,0.0668 0.2196,0.0668c0.0281,0 0.0561,-0.0031 0.084,-0.009c0.1048,-0.0222 0.1953,-0.0861 0.2525,-0.1773l0.5511,-0.8814c0.1127,-0.1804 0.062,-0.4185 -0.1145,-0.5375l0,0z" fill="#666666" id="Shape_92_"/>
    </g>
    <g id="Group_20_">
     <path d="m299.5,139.5c-5.2466,0 -9.5,4.2531 -9.5,9.5s4.2534,9.5 9.5,9.5s9.5,-4.2531 9.5,-9.5s-4.2534,-9.5 -9.5,-9.5l0,0zm0,16.625c-3.9287,0 -7.125,-3.196 -7.125,-7.125c0,-3.9287 3.1963,-7.125 7.125,-7.125s7.125,3.1963 7.125,7.125c0,3.929 -3.1963,7.125 -7.125,7.125l0,0z" fill="#e87722" id="Shape_93_"/>
     <path d="m304.1093,151.1292l-3.7579,-2.5384l0,-4.3692c0,-0.1043 -0.0424,-0.2064 -0.1159,-0.2803c-0.0738,-0.0737 -0.1758,-0.116 -0.2802,-0.116l-1.0393,0c-0.1046,0 -0.2062,0.0423 -0.2798,0.116c-0.0737,0.0739 -0.1159,0.176 -0.1159,0.2803l0,5.1595c0,0.1044 0.0422,0.2065 0.1159,0.2802c0.0298,0.0299 0.0644,0.0546 0.1021,0.0734l4.3783,2.9329c0.066,0.0436 0.1423,0.0668 0.2196,0.0668c0.0281,0 0.0561,-0.0031 0.084,-0.009c0.1048,-0.0222 0.1953,-0.0861 0.2525,-0.1773l0.5511,-0.8814c0.1127,-0.1804 0.062,-0.4185 -0.1145,-0.5375l0,0z" fill="#e87722" id="Shape_94_"/>
    </g>
    <path d="m339,123.087l-3.087,-3.087l-3.9131,3.9132l-3.9131,-3.9132l-3.0868,3.087l3.9131,3.913l-3.9129,3.913l3.0868,3.087l3.9129,-3.913l3.9129,3.913l3.087,-3.087l-3.9129,-3.913l3.9131,-3.913l0,0z" fill="#CCCCCC" id="Shape_95_"/>
    <path d="m358.2083,122.791c-2.2499,-2.2494 -4.1321,-3.2016 -4.7062,-2.6275c-0.3128,0.313 -0.1686,1.0169 0.3892,1.9553l-4.3292,4.3277c-1.3969,-0.9563 -2.4554,-1.2558 -2.8872,-0.8241c-0.6227,0.6228 0.2727,2.5447 2.4709,4.9089l-4.1458,5.0057l0.4633,0.463l5.007,-4.1447c2.363,2.1946 4.2832,3.0878 4.9056,2.466c0.432,-0.4319 0.1322,-1.491 -0.8256,-2.8883l4.3284,-4.3273c0.9398,0.5587 1.6447,0.7031 1.9578,0.3901c0.574,-0.5737 -0.3781,-2.4558 -2.6282,-4.7048l0,0zm-3.4831,1.5364l-3.2648,3.2645c-0.1989,0.1988 -0.5214,0.1988 -0.7203,0c-0.1988,-0.1993 -0.1988,-0.5216 0,-0.7205l3.2649,-3.264c0.1988,-0.1988 0.5214,-0.1986 0.7201,0c0.1989,0.1991 0.199,0.5216 0.0001,0.72l0,0z" fill="#FFFFFF" id="Shape_96_"/>
    <g id="Group_21_">
     <rect x="420" height="6" width="30" fill="#FAFAFA" y="12" id="Rectangle-path_9_"/>
     <rect y="0" height="30" width="6" fill="#FAFAFA" x="432" id="Rectangle-path_10_"/>
    </g>
    <path d="m350.417,146.9852l0,-2.6257c0,-2.4068 -1.951,-4.3584 -4.3571,-4.3584c-0.03,0 -0.0517,-0.0017 -0.0812,-0.0009c-0.0243,-0.0004 -0.0551,0.0013 -0.0798,0.0013c-2.4066,0 -4.3567,1.9516 -4.3567,4.3585l0,2.6252l-1.5422,0l0,9.0148l12,0l0,-9.0148l-1.583,0l0,0zm-3.0548,7.3621l-2.7214,0l0.6665,-2.9143c-0.3986,-0.2374 -0.6665,-0.6715 -0.6665,-1.1694c0,-0.7517 0.6093,-1.3611 1.3607,-1.3611c0.7515,0 1.3607,0.6094 1.3607,1.3611c0,0.4999 -0.2701,0.9355 -0.6715,1.1725l0.6715,2.9112l0,0zm0.8747,-7.3621l-4.515,0l0,-2.6252c0,-1.2007 0.9767,-2.1773 2.177,-2.1773c0.0343,0 0.1063,-0.0017 0.1063,-0.0017s0.0365,0.0013 0.0547,0.0013c1.2002,0 2.177,0.9766 2.177,2.1772l0,2.6257l0,0z" fill="#666666" id="Shape_97_"/>
    <path d="m395.417,146.9852l0,-2.6257c0,-2.4068 -1.951,-4.3584 -4.3571,-4.3584c-0.03,0 -0.0517,-0.0017 -0.0812,-0.0009c-0.0243,-0.0004 -0.0551,0.0013 -0.0798,0.0013c-2.4066,0 -4.3567,1.9516 -4.3567,4.3585l0,2.6252l-1.5422,0l0,9.0148l12,0l0,-9.0148l-1.583,0l0,0zm-3.0548,7.3621l-2.7214,0l0.6665,-2.9143c-0.3986,-0.2374 -0.6665,-0.6715 -0.6665,-1.1694c0,-0.7517 0.6093,-1.3611 1.3607,-1.3611c0.7515,0 1.3607,0.6094 1.3607,1.3611c0,0.4999 -0.2701,0.9355 -0.6715,1.1725l0.6715,2.9112l0,0zm0.8747,-7.3621l-4.515,0l0,-2.6252c0,-1.2007 0.9767,-2.1773 2.177,-2.1773c0.0343,0 0.1063,-0.0017 0.1063,-0.0017s0.0365,0.0013 0.0547,0.0013c1.2002,0 2.177,0.9766 2.177,2.1772l0,2.6257l0,0z" fill="#FFFFFF" id="Shape_98_"/>
    <path d="m330.6255,150.4777l0,-3.9384c0,-3.6103 -2.9264,-6.5376 -6.5357,-6.5376c-0.0449,0 -0.0774,-0.0026 -0.1217,-0.0013c-0.0365,-0.0007 -0.0827,0.0019 -0.1198,0.0019c-3.6098,0 -6.535,2.9273 -6.535,6.5377l0,3.9377l-2.3133,0l0,13.5223l18,0l0,-13.5223l-2.3745,0l0,0zm-4.5822,11.0433l-4.0821,0l0.9998,-4.3715c-0.598,-0.3561 -0.9998,-1.0072 -0.9998,-1.7541c0,-1.1276 0.9139,-2.0417 2.0411,-2.0417s2.041,0.9141 2.041,2.0417c0,0.7498 -0.4051,1.4032 -1.0072,1.7587l1.0072,4.3669l0,0zm1.3121,-11.0433l-6.7726,0l0,-3.9377c0,-1.801 1.4651,-3.266 3.2655,-3.266c0.0515,0 0.1595,-0.0026 0.1595,-0.0026s0.0547,0.002 0.082,0.002c1.8004,0 3.2656,1.465 3.2656,3.2659l0,3.9384l0,0z" fill="#666666" id="Shape_99_"/>
    <path d="m375.6255,150.4777l0,-3.9384c0,-3.6103 -2.9264,-6.5376 -6.5357,-6.5376c-0.0449,0 -0.0774,-0.0026 -0.1217,-0.0013c-0.0365,-0.0007 -0.0827,0.0019 -0.1198,0.0019c-3.6098,0 -6.535,2.9273 -6.535,6.5377l0,3.9377l-2.3133,0l0,13.5223l18,0l0,-13.5223l-2.3745,0l0,0zm-4.5822,11.0433l-4.0821,0l0.9998,-4.3715c-0.598,-0.3561 -0.9998,-1.0072 -0.9998,-1.7541c0,-1.1276 0.9139,-2.0417 2.0411,-2.0417s2.041,0.9141 2.041,2.0417c0,0.7498 -0.4051,1.4032 -1.0072,1.7587l1.0072,4.3669l0,0zm1.3121,-11.0433l-6.7726,0l0,-3.9377c0,-1.801 1.4651,-3.266 3.2655,-3.266c0.0515,0 0.1595,-0.0026 0.1595,-0.0026s0.0547,0.002 0.082,0.002c1.8004,0 3.2656,1.465 3.2656,3.2659l0,3.9384l0,0z" fill="#FFFFFF" id="Shape_100_"/>
    <path d="m345.9997,104.6006l5.4836,-4.5684c-0.0645,-0.0189 -0.1315,-0.0322 -0.202,-0.0322l-10.5626,0c-0.0707,0 -0.1378,0.0133 -0.2025,0.0324l5.4835,4.5682l0,0zm5.9627,-4.1062l-5.9627,5.8423l-5.9621,-5.8423c-0.0223,0.0683 -0.0376,0.1397 -0.0376,0.2151l0,5.688c0,0.0428 0.3662,1.6025 0.7198,1.6025l10.5549,0c0.3178,0 0.7253,-1.5232 0.7253,-1.6025l0,-5.688c0,-0.0754 -0.0153,-0.1468 -0.0376,-0.2151l0,0z" fill="#FFFFFF" id="Shape_101_"/>
    <g id="Shape-_x2B_-Shape">
     <path d="m173.8326,188.833l0,-0.0047c0.003,-0.2599 0.122,-1.0758 1.3821,-1.818c0.2306,-0.3017 0.4203,-0.7129 0.614,-1.1877c0.134,-0.3282 0.1111,-0.6084 0.1111,-1.007c0,-0.2947 0.0577,-0.7675 -0.0182,-1.0274c-0.2563,-0.8779 -0.9036,-1.1202 -1.6622,-1.1202c-0.7588,0 -1.4067,0.2435 -1.6625,1.1231c-0.0753,0.2587 -0.0174,0.7306 -0.0174,1.0245c0,0.3995 -0.0226,0.6805 0.1118,1.0097c0.2329,0.5697 0.4545,1.0476 0.7503,1.3524c-1.152,0.2038 -1.9304,0.7821 -2.4559,1.0076c-1.0869,0.4664 -1.092,0.9773 -1.092,0.9773l0,0.8676l3.9389,-0.0007l0,-1.1921l0,-0.0044l0,0z" fill="#e87722" id="Shape_102_"/>
     <path d="m185.3754,187.5209c-0.7263,-0.3107 -1.8045,-1.1113 -3.4006,-1.3865c0.4079,-0.4208 0.7169,-1.0783 1.0348,-1.8577c0.1842,-0.4515 0.1526,-0.8363 0.1526,-1.3845c0,-0.4051 0.0791,-1.0548 -0.0251,-1.4116c-0.3523,-1.2068 -1.2417,-1.5397 -2.2843,-1.5397c-1.0431,0 -1.9339,0.3345 -2.285,1.5432c-0.1038,0.3558 -0.0242,1.0042 -0.0242,1.4079c0,0.5495 -0.0311,0.9355 0.1538,1.3879c0.32,0.7832 0.6244,1.4398 1.0311,1.8588c-1.5834,0.2801 -2.6535,1.0752 -3.3752,1.3848c-1.4939,0.6412 -1.5013,1.3431 -1.5013,1.3431l0,1.1927l12.0299,-0.0015l0,-1.1912c0,0 -0.0071,-0.7041 -1.5065,-1.3457l0,0z" fill="#e87722" id="Shape_103_"/>
    </g>
    <g id="Group_22_">
     <rect x="195" height="2" width="8" fill="#5281AA" y="188" id="Rectangle-path_11_"/>
     <rect height="2" width="2" fill="#5281AA" y="188" x="205" id="Rectangle-path_12_"/>
     <rect x="195" height="2" width="8" fill="#5281AA" y="184" id="Rectangle-path_13_"/>
     <rect height="2" width="2" fill="#5281AA" y="184" x="205" id="Rectangle-path_14_"/>
     <rect x="195" y="180" height="2" width="8" fill="#5281AA" id="Rectangle-path_15_"/>
     <rect y="180" height="2" width="2" fill="#5281AA" x="205" id="Rectangle-path_16_"/>
    </g>
    <g id="Group_23_">
     <path d="m221,179.6842c-3.3136,0 -6,2.6862 -6,6s2.6864,6 6,6s6,-2.6862 6,-6s-2.6864,-6 -6,-6l0,0zm0,10.5c-2.4813,0 -4.5,-2.0185 -4.5,-4.5c0,-2.4813 2.0187,-4.5 4.5,-4.5s4.5,2.0187 4.5,4.5c0,2.4815 -2.0187,4.5 -4.5,4.5l0,0z" fill="#5281AA" id="Shape_104_"/>
     <path d="m223.9111,187.029l-2.3734,-1.6032l0,-2.7595c0,-0.0659 -0.0268,-0.1304 -0.0732,-0.177c-0.0466,-0.0466 -0.111,-0.0733 -0.1769,-0.0733l-0.6564,0c-0.0661,0 -0.1302,0.0267 -0.1767,0.0733c-0.0465,0.0467 -0.0732,0.1112 -0.0732,0.177l0,3.2586c0,0.0659 0.0267,0.1304 0.0732,0.177c0.0188,0.0189 0.0407,0.0345 0.0645,0.0464l2.7652,1.8524c0.0417,0.0274 0.0898,0.0421 0.1387,0.0421c0.0177,0 0.0354,-0.002 0.0531,-0.0057c0.0662,-0.014 0.1233,-0.0544 0.1595,-0.112l0.3481,-0.5567c0.071,-0.1139 0.039,-0.2643 -0.0725,-0.3394l0,0z" fill="#5281AA" id="Shape_105_"/>
    </g>
    <path d="m247.6365,191.0654l-3.48,-3.4817c0.4758,-0.7607 0.7522,-1.6623 0.7522,-2.6251c0,-2.7384 -2.2181,-4.9586 -4.9542,-4.9586c-2.7357,0 -4.9545,2.2202 -4.9545,4.9586c0,2.7372 2.2188,4.9564 4.9545,4.9564c0.9675,0 1.8724,-0.2789 2.636,-0.7599l3.4777,3.4799c0.2397,0.239 0.5523,0.365 0.864,0.365l0.0039,0c0.2709,0 0.5475,-0.1007 0.7548,-0.3071c0.2104,-0.2107 0.31,-0.4887 0.3091,-0.7626c0,-0.3119 -0.1245,-0.6254 -0.3635,-0.8649l0,0zm-4.9193,-6.1068c-0.0026,1.5227 -1.2398,2.7616 -2.7627,2.7644c-1.523,-0.0028 -2.7602,-1.2417 -2.7627,-2.7644c0.0025,-1.5238 1.2397,-2.7627 2.7627,-2.7655c1.5229,0.0028 2.7601,1.2417 2.7627,2.7655l0,0z" fill="#5281AA" id="Shape-2"/>
    <path d="m313.3681,59.8462l-3.5845,-0.6602c-0.3479,-0.0638 -0.4704,-0.3557 -0.273,-0.6488l2.0564,-3.0485c0.1977,-0.2933 0.1547,-0.7372 -0.0951,-0.9874l-1.9727,-1.972c-0.2498,-0.2502 -0.6941,-0.2928 -0.9873,-0.0951l-3.0486,2.0564c-0.2932,0.1977 -0.5854,0.0746 -0.6492,-0.2726l-0.66,-3.5858c-0.0642,-0.3475 -0.4059,-0.6319 -0.7593,-0.6319l-2.79,0c-0.3535,0 -0.6951,0.2843 -0.759,0.6319l-0.66,3.5854c-0.0642,0.3472 -0.3564,0.4704 -0.6495,0.2726l-3.0479,-2.0561c-0.2928,-0.1977 -0.7372,-0.1551 -0.9873,0.0951l-1.9727,1.9724c-0.2502,0.2502 -0.2928,0.6948 -0.0951,0.9874l2.0561,3.0482c0.1974,0.2932 0.0749,0.585 -0.2729,0.6488l-3.5845,0.6602c-0.3479,0.0642 -0.632,0.4059 -0.632,0.7593l0,2.7893c0,0.3534 0.2841,0.6951 0.632,0.7592l3.5858,0.66c0.3473,0.0642 0.47,0.3563 0.2723,0.6492l-2.0567,3.0488c-0.1977,0.2932 -0.1551,0.7372 0.0951,0.9874l1.9727,1.9724c0.2502,0.2502 0.6945,0.2932 0.9873,0.0951l3.0479,-2.0554c0.2932,-0.1984 0.5854,-0.0749 0.6495,0.272l0.66,3.5847c0.0638,0.3476 0.4055,0.632 0.759,0.632l2.79,0c0.3534,0 0.6951,-0.2843 0.7593,-0.632l0.66,-3.585c0.0638,-0.3472 0.356,-0.4703 0.6492,-0.272l3.0486,2.0557c0.2932,0.1981 0.7375,0.1551 0.9873,-0.0951l1.9724,-1.9717c0.2502,-0.2505 0.2929,-0.6945 0.0951,-0.9877l-2.0567,-3.0492c-0.1977,-0.2929 -0.0749,-0.585 0.2723,-0.6492l3.5858,-0.66c0.3477,-0.0641 0.6318,-0.4058 0.6318,-0.7592l0,-2.7893c0,-0.3534 -0.2841,-0.6951 -0.6319,-0.7593l0,0zm-11.3697,6.5001c-2.3948,0 -4.3363,-1.9414 -4.3363,-4.3362c0,-2.3948 1.9414,-4.3361 4.3363,-4.3361c2.3949,0 4.3363,1.9413 4.3363,4.3361c-0.0001,2.3948 -1.9415,4.3362 -4.3363,4.3362l0,0z" fill="#EC7600" id="Shape_106_"/>
    <g id="Group_24_">
     <path d="m513.6365,25c0.7529,0 1.3635,-0.6178 1.3635,-1.3797l0,-22.2405c0,-0.7621 -0.6106,-1.3798 -1.3635,-1.3798l-22.273,0c-0.7531,0 -1.3635,0.6177 -1.3635,1.3798l0,22.2405c0,0.7619 0.6104,1.3797 1.3635,1.3797l22.273,0l0,0z" fill="#517FA4" id="Shape_107_"/>
    </g>
    <g id="Shape-_x2B_-Shape_1_">
     <path d="m543.6365,25c0.7529,0 1.3635,-0.6178 1.3635,-1.3797l0,-22.2405c0,-0.7621 -0.6106,-1.3798 -1.3635,-1.3798l-22.273,0c-0.7531,0 -1.3635,0.6177 -1.3635,1.3798l0,22.2405c0,0.7619 0.6104,1.3797 1.3635,1.3797l22.273,0l0,0z" fill="#BB0000" id="Shape_109_"/>
     <path d="m540.8155,9.1027c-0.178,-1.4283 -1.0986,-2.4108 -2.4854,-2.5096c0,0 -4.1525,-0.0931 -5.8093,-0.0931l-0.0208,0l-0.0208,0c-1.6568,0 -5.8093,0.0931 -5.8093,0.0931c-1.3868,0.0988 -2.3074,1.0813 -2.4854,2.5096c0,0 -0.1845,1.8443 -0.1845,3.3507s0.1845,3.3507 0.1845,3.3507c0.1452,1.4347 1.0073,2.412 2.4854,2.5096c0,0 3.383,0.1863 5.8093,0.1863l0.0208,0l0.0208,0c2.4263,0 5.8093,-0.1863 5.8093,-0.1863c1.4781,-0.0976 2.3402,-1.0749 2.4854,-2.5096c0,0 0.1845,-1.8443 0.1845,-3.3507s-0.1845,-3.3507 -0.1845,-3.3507l0,0l0,0zm-10.0311,5.7636l0,-4.7911l0.2754,0.1458l4.249,2.2497l-0.5533,0.293l-3.9711,2.1026l0,0z" fill="#FFFFFF" id="Shape_110_"/>
    </g>
   </g>
  </g>
  <g id="svg_83">
   <path id="svg_84" d="m502.5625,5.0304c2.4532,0 2.7437,0.0094 3.7125,0.0536c0.8958,0.0409 1.3823,0.1905 1.706,0.3164c0.4289,0.1667 0.7349,0.3658 1.0564,0.6873c0.3215,0.3215 0.5206,0.6276 0.6873,1.0564c0.1258,0.3237 0.2755,0.8102 0.3164,1.706c0.0442,0.9688 0.0536,1.2594 0.0536,3.7125s-0.0094,2.7437 -0.0536,3.7125c-0.0409,0.8958 -0.1906,1.3822 -0.3164,1.706c-0.1667,0.4288 -0.3658,0.7349 -0.6873,1.0564c-0.3215,0.3215 -0.6275,0.5206 -1.0564,0.6873c-0.3237,0.1258 -0.8102,0.2755 -1.706,0.3164c-0.9687,0.0442 -1.2592,0.0536 -3.7125,0.0536s-2.7439,-0.0094 -3.7125,-0.0536c-0.8958,-0.0409 -1.3823,-0.1905 -1.706,-0.3164c-0.4289,-0.1667 -0.7349,-0.3658 -1.0564,-0.6873c-0.3215,-0.3215 -0.5206,-0.6276 -0.6873,-1.0564c-0.1258,-0.3237 -0.2755,-0.8102 -0.3164,-1.706c-0.0442,-0.9688 -0.0536,-1.2594 -0.0536,-3.7125s0.0094,-2.7437 0.0536,-3.7125c0.0409,-0.8958 0.1906,-1.3823 0.3164,-1.706c0.1667,-0.4288 0.3658,-0.7349 0.6873,-1.0564c0.3215,-0.3215 0.6275,-0.5206 1.0564,-0.6873c0.3237,-0.1258 0.8102,-0.2755 1.706,-0.3164c0.9688,-0.0442 1.2593,-0.0536 3.7125,-0.0536m0,-1.6554c-2.4952,0 -2.808,0.0106 -3.788,0.0553c-0.9779,0.0446 -1.6458,0.1999 -2.2302,0.4271c-0.6041,0.2348 -1.1165,0.5489 -1.6273,1.0597c-0.5108,0.5108 -0.8249,1.0231 -1.0597,1.6273c-0.2271,0.5844 -0.3824,1.2523 -0.4271,2.2302c-0.0447,0.9799 -0.0553,1.2928 -0.0553,3.788c0,2.4952 0.0106,2.8081 0.0553,3.788c0.0446,0.9779 0.2,1.6458 0.4271,2.2302c0.2348,0.6041 0.5489,1.1165 1.0597,1.6273c0.5108,0.5108 1.0232,0.8249 1.6273,1.0597c0.5844,0.2271 1.2523,0.3824 2.2302,0.4271c0.9799,0.0447 1.2928,0.0553 3.788,0.0553s2.808,-0.0106 3.788,-0.0553c0.9779,-0.0446 1.6458,-0.1999 2.2302,-0.4271c0.6042,-0.2348 1.1165,-0.5489 1.6273,-1.0597c0.5108,-0.5108 0.8249,-1.0231 1.0597,-1.6273c0.2271,-0.5844 0.3824,-1.2523 0.4271,-2.2302c0.0447,-0.9799 0.0553,-1.2928 0.0553,-3.788s-0.0106,-2.8081 -0.0553,-3.788c-0.0446,-0.9779 -0.2,-1.6458 -0.4271,-2.2302c-0.2348,-0.6042 -0.5489,-1.1165 -1.0597,-1.6273c-0.5108,-0.5108 -1.0232,-0.8249 -1.6273,-1.0597c-0.5844,-0.2271 -1.2523,-0.3824 -2.2302,-0.4271c-0.98,-0.0447 -1.2928,-0.0553 -3.788,-0.0553l0,0z" fill="#FFFFFF"/>
   <path id="svg_85" d="m502.5625,7.8446c-2.6056,0 -4.7179,2.1123 -4.7179,4.7179s2.1123,4.7179 4.7179,4.7179s4.7179,-2.1123 4.7179,-4.7179s-2.1123,-4.7179 -4.7179,-4.7179zm0,7.7804c-1.6914,0 -3.0625,-1.3711 -3.0625,-3.0625c0,-1.6914 1.3711,-3.0625 3.0625,-3.0625s3.0625,1.3711 3.0625,3.0625c0,1.6914 -1.3711,3.0625 -3.0625,3.0625z" fill="#FFFFFF"/>
   <circle id="svg_86" r="1.1333" cy="7.7778" cx="507.8604" fill="#FFFFFF"/>
  </g>
  <g id="svg_91">
   <rect stroke="#000" transform="rotate(45 256.8504638671875,187.73193359375) " rx="1" id="svg_87" height="2" width="6" y="186.731933" x="253.850441" stroke-width="0" fill="#ffffff"/>
   <rect rx="1" id="svg_88" height="2" width="10" y="191.231493" x="253.475474" stroke-width="0" stroke="#000" fill="#ffffff"/>
   <rect stroke="#000" transform="rotate(-90 258.53747558593756,185.23217773437503) " rx="1" id="svg_89" height="2" width="9.874042" y="184.232175" x="253.600465" stroke-width="0" fill="#ffffff"/>
   <rect stroke="#000" transform="rotate(-45.003143310546875 260.35009765625,187.60694885253912) " rx="1" id="svg_90" height="2" width="6" y="186.606945" x="257.350102" stroke-width="0" fill="#ffffff"/>
  </g>
 </g>
</svg>