<svg id="Layer_1" data-name="Layer 1" xmlns="http://www.w3.org/2000/svg" width="16" height="16" viewBox="0 0 16 16"><defs><style>.cls-1{fill:#fff;fill-rule:evenodd;}</style></defs><title>rss</title><path class="cls-1" d="M0,1.39A1.39,1.39,0,0,0,1.39,2.78,11.84,11.84,0,0,1,13.22,14.61a1.39,1.39,0,0,0,2.78,0A14.51,14.51,0,0,0,11.72,4.28,14.52,14.52,0,0,0,1.39,0,1.39,1.39,0,0,0,0,1.39ZM1.39,8.14a6.48,6.48,0,0,1,6.47,6.47,1.39,1.39,0,0,0,2.78,0A9.26,9.26,0,0,0,1.39,5.36a1.39,1.39,0,1,0,0,2.78ZM0,13.74a2.26,2.26,0,1,0,2.26-2.26A2.26,2.26,0,0,0,0,13.74Z" transform="translate(0 0)"/></svg>