<svg id="Layer_1" data-name="Layer 1" xmlns="http://www.w3.org/2000/svg" width="16" height="16" viewBox="0 0 16 16"><defs><style>.cls-1{fill:#fff;fill-rule:evenodd;}</style></defs><title>move_cursor_white</title><path class="cls-1" d="M15.8,7.57,13.35,5.22c-.12-.14-.26-.19-.59-.19A1,1,0,0,0,12,6V7H9V4h1a1,1,0,0,0,1-.76,1,1,0,0,0-.19-.59L8.46.22a.63.63,0,0,0-.92,0L5.19,2.67c-.14.12-.19.26-.19.59A1,1,0,0,0,6,4H7V7H4V6a1,1,0,0,0-.76-1,1,1,0,0,0-.59.19L.2,7.57a.63.63,0,0,0,0,.92l2.45,2.35c.12.14.26.19.59.19A1,1,0,0,0,4,10V9H7v3H6a1,1,0,0,0-1,.76,1,1,0,0,0,.19.59l2.35,2.45a.63.63,0,0,0,.92,0l2.35-2.45c.14-.12.19-.26.19-.59A1,1,0,0,0,10,12H9V9h3v1a1,1,0,0,0,.76,1,1,1,0,0,0,.59-.19L15.8,8.49A.63.63,0,0,0,15.8,7.57Z" transform="translate(0 -0.02)"/></svg>