<svg id="vimeo" xmlns="http://www.w3.org/2000/svg" viewBox="0 0 45 38.91"><defs><style>.cls-1{fill:#010101;}</style></defs><g id="_Group_" data-name="&lt;Group&gt;"><path id="_Path_" data-name="&lt;Path&gt;" class="cls-1" d="M44.98 8.99q-.29 6.58-9.18 18Q26.62 38.9 20.27 38.9c-2.62 0-4.85-2.43-6.66-7.26-1.21-4.45-2.43-8.87-3.63-13.32q-2-7.26-4.34-7.26c-.33 0-1.52.71-3.53 2.12L0 10.47c2.21-1.94 4.41-3.9 6.57-5.86 3-2.56 5.18-3.9 6.68-4q5.24-.5 6.46 7.19 1.31 8.25 1.79 10.26c1 4.58 2.16 6.84 3.36 6.84.93 0 2.35-1.49 4.25-4.46s2.89-5.24 3-6.8c.27-2.56-.74-3.86-3-3.86a8.29 8.29 0 0 0-3.33.74Q29.1-.3 38.5.01c4.56.1 6.75 3.1 6.48 8.98z"/></g></svg>