<svg id="Layer_1" data-name="Layer 1" xmlns="http://www.w3.org/2000/svg" width="21" height="22" viewBox="0 0 21 22"><defs><style>.cls-1{fill:#fff;fill-rule:evenodd;}</style></defs><title>settings_white</title><path class="cls-1" d="M20,12.55l-1.53-.5A8.07,8.07,0,0,0,18.54,11a8.12,8.12,0,0,0-.08-1.05L20,9.45a1.47,1.47,0,0,0-.9-2.79l-1.52.5a8.1,8.1,0,0,0-1.24-1.69l.95-1.31A1.46,1.46,0,1,0,14.9,2.43L14,3.73a7.92,7.92,0,0,0-2-.66V1.47A1.46,1.46,0,1,0,9,1.47V3.07a8,8,0,0,0-2,.65L6.1,2.43A1.46,1.46,0,1,0,3.73,4.15l.94,1.3a8.12,8.12,0,0,0-1.23,1.7l-1.53-.5A1.47,1.47,0,0,0,1,9.45l1.53.5A8.07,8.07,0,0,0,2.46,11a8.11,8.11,0,0,0,.08,1.05L1,12.55a1.47,1.47,0,0,0,.9,2.79l1.52-.5a8.1,8.1,0,0,0,1.24,1.69l-.95,1.31A1.46,1.46,0,1,0,6.1,19.57L7,18.27a7.93,7.93,0,0,0,2,.66v1.61a1.46,1.46,0,1,0,2.92,0V18.93a8,8,0,0,0,2-.65l.94,1.3a1.46,1.46,0,1,0,2.37-1.72l-.94-1.3a8.12,8.12,0,0,0,1.23-1.7l1.53.5a1.47,1.47,0,0,0,.9-2.79ZM10.5,16.13A5.13,5.13,0,1,1,15.62,11,5.13,5.13,0,0,1,10.5,16.13Z" transform="translate(0 0)"/></svg>