<svg xmlns="http://www.w3.org/2000/svg" viewBox="0 0 32 25.15"><defs><style>.cls-1{fill:#fff;}</style></defs><path class="cls-1" d="M3.07 7.75l3.66 2.55 4.68 3.26.76.54 1 .68q.38.26.93.58a5.45 5.45 0 0 0 1 .48 2.83 2.83 0 0 0 .9.16 2.83 2.83 0 0 0 .89-.16 5.45 5.45 0 0 0 1-.48q.55-.32.93-.58l1-.68.76-.54 8.36-5.8a8.5 8.5 0 0 0 2.18-2.2 4.72 4.72 0 0 0 .88-2.7 2.74 2.74 0 0 0-.85-2 2.76 2.76 0 0 0-2-.84H2.86A2.55 2.55 0 0 0 .74.93 3.6 3.6 0 0 0 0 3.25a4.17 4.17 0 0 0 1 2.44 8.86 8.86 0 0 0 2.07 2.06zm18.25 8.07q-1 .75-1.65 1.17a10.32 10.32 0 0 1-1.69.86 5.14 5.14 0 0 1-2 .44 5.17 5.17 0 0 1-2-.44 10.17 10.17 0 0 1-1.65-.85q-.63-.42-1.65-1.17-2.41-1.77-8.87-6.17A9.49 9.49 0 0 1 0 8.11v14.18a2.75 2.75 0 0 0 .84 2 2.75 2.75 0 0 0 2 .84h26.31A2.86 2.86 0 0 0 32 22.29V8.11a9.82 9.82 0 0 1-1.78 1.55q-5.86 3.97-8.89 6.16zM32 8.11z"/></svg>