<?xml version="1.0" encoding="UTF-8" standalone="no"?>
<!-- Created with Inkscape (http://www.inkscape.org/) -->
<svg id="svg10392" xmlns:rdf="http://www.w3.org/1999/02/22-rdf-syntax-ns#" xmlns="http://www.w3.org/2000/svg" height="15.073mm" width="27.521mm" version="1.1" xmlns:cc="http://creativecommons.org/ns#" xmlns:dc="http://purl.org/dc/elements/1.1/" viewBox="0 0 97.514077 53.409115">
 <defs id="defs10394">
  <clipPath id="clipPath5398" clipPathUnits="userSpaceOnUse">
   <path id="path5400" clip-rule="evenodd" d="m147.3 3389.9h11.524v37.058h-11.524v-37.058z"/>
  </clipPath>
  <clipPath id="clipPath5404" clipPathUnits="userSpaceOnUse">
   <path id="path5406" d="m147 3389h12v38h-12v-38z"/>
  </clipPath>
  <clipPath id="clipPath5408" clipPathUnits="userSpaceOnUse">
   <path id="path5410" clip-rule="evenodd" d="m142.3 3432h21.524v-47.058h-21.524v47.058z"/>
  </clipPath>
  <clipPath id="clipPath5412" clipPathUnits="userSpaceOnUse">
   <path id="path5414" d="m147 3389h12v38h-12v-38z"/>
  </clipPath>
  <clipPath id="clipPath5434" clipPathUnits="userSpaceOnUse">
   <path id="path5436" clip-rule="evenodd" d="m134.53 3402.7h37.058v11.524h-37.058v-11.524z"/>
  </clipPath>
  <clipPath id="clipPath5440" clipPathUnits="userSpaceOnUse">
   <path id="path5442" d="m134 3402h38v13h-38v-13z"/>
  </clipPath>
  <clipPath id="clipPath5444" clipPathUnits="userSpaceOnUse">
   <path id="path5446" clip-rule="evenodd" d="m129.53 3419.2h47.058v-21.524h-47.058v21.524z"/>
  </clipPath>
  <clipPath id="clipPath5448" clipPathUnits="userSpaceOnUse">
   <path id="path5450" d="m134 3402h38v13h-38v-13z"/>
  </clipPath>
  <clipPath id="clipPath5470" clipPathUnits="userSpaceOnUse">
   <path id="path5472" clip-rule="evenodd" d="m99.249 3396 6.3455 7.563c3.8581-2.944 8.2745-4.163 12.437-4.163 2.1323 0 3.0464 0.559 3.0464 1.522v0.103c0 1.015-1.1173 1.574-4.9246 2.335-7.9702 1.624-14.976 3.908-14.976 11.423v0.101c0 6.752 5.2796 11.98 15.077 11.98 6.853 0 11.929-1.624 16.042-4.873l-5.7871-8.021c-3.3506 2.437-7.3611 3.503-10.661 3.503-1.7766 0-2.5883-0.61-2.5883-1.473v-0.102c0-0.964 0.9642-1.573 4.7206-2.283 9.0869-1.677 15.179-4.315 15.179-11.472v-0.103c0-7.462-6.1428-12.031-15.686-12.031-7.2086 0-13.706 2.031-18.225 5.991z"/>
  </clipPath>
  <clipPath id="clipPath5476" clipPathUnits="userSpaceOnUse">
   <path id="path5478" d="m99 3390h35v37h-35v-37z"/>
  </clipPath>
  <clipPath id="clipPath5480" clipPathUnits="userSpaceOnUse">
   <path id="path5482" clip-rule="evenodd" d="m94.249 3431.9h43.911v-46.855h-43.911v46.855z"/>
  </clipPath>
  <clipPath id="clipPath5484" clipPathUnits="userSpaceOnUse">
   <path id="path5486" d="m99 3390h35v37h-35v-37z"/>
  </clipPath>
 </defs>
 <metadata id="metadata10397">
  <rdf:RDF>
   <cc:Work rdf:about="">
    <dc:format>image/svg+xml</dc:format>
    <dc:type rdf:resource="http://purl.org/dc/dcmitype/StillImage"/>
    <dc:title/>
   </cc:Work>
  </rdf:RDF>
 </metadata>
 <g id="layer1" transform="translate(23.043 -757.09)">
  <g id="g11198">
   <g id="g5394" transform="matrix(1.25 0 0 -1.25 -143.56 5044.4)">
    <g id="g5396" clip-path="url(#clipPath5398)">
     <g id="g5416">
      <g id="g5418" clip-path="url(#clipPath5404)">
       <g id="g5422">
        <g id="g5424" clip-path="url(#clipPath5408)">
         <g id="g5426" clip-path="url(#clipPath5412)">
          <path id="path5428" d="m137.3 3437h31.524v-57.058h-31.524v57.058z" fill="#9d9d9d"/>
         </g>
        </g>
       </g>
      </g>
     </g>
    </g>
   </g>
   <g id="g5430" transform="matrix(1.25 0 0 -1.25 -143.56 5044.4)">
    <g id="g5432" clip-path="url(#clipPath5434)">
     <g id="g5452">
      <g id="g5454" clip-path="url(#clipPath5440)">
       <g id="g5458">
        <g id="g5460" clip-path="url(#clipPath5444)">
         <g id="g5462" clip-path="url(#clipPath5448)">
          <path id="path5464" d="m124.53 3424.2h57.058v-31.524h-57.058v31.524z" fill="#9d9d9d"/>
         </g>
        </g>
       </g>
      </g>
     </g>
    </g>
   </g>
   <g id="g5468" clip-path="url(#clipPath5470)" transform="matrix(1.25 0 0 -1.25 -143.56 5044.4)">
    <g id="g5488">
     <g id="g5490" clip-path="url(#clipPath5476)">
      <g id="g5494">
       <g id="g5496" clip-path="url(#clipPath5480)">
        <g id="g5498" clip-path="url(#clipPath5484)">
         <path id="path5500" d="m89.249 3436.9h53.911v-56.855h-53.911v56.855z" fill="#0690d4"/>
        </g>
       </g>
      </g>
     </g>
    </g>
   </g>
  </g>
 </g>
</svg>
