<svg xmlns="http://www.w3.org/2000/svg" xmlns:xlink="http://www.w3.org/1999/xlink" version="1.1" x="0px" y="0px" width="272.028px" height="130.893px" viewBox="0 0 272.028 130.893" enable-background="new 0 0 272.028 130.893" xml:space="preserve">
<style>
	.style0{
		clip-path:	url(#SVGID_2_);
	}
</style><g>
	<defs>
		<rect fill="#FFFFFF" width="272" height="130.9"/>
	</defs>
	<clipPath>
		<use xlink:href="#SVGID_1_" overflow="visible"/>
	</clipPath>
	<path fill="#FFFFFF" d="M168.243 51.811c1.771-0.969 2.868-2.805 2.868-4.789c0-3.013-2.453-5.475-5.469-5.475h-7.05 v14.392h2.81V52.5h0.155l3.177 0.041c0 0 3.3 3.3 3.3 3.397h4.014c-0.472-0.473-4.016-4.023-4.016-4.023L168.243 51.811z M165.643 49.689h-4.24v-5.334h0.155h4.085c1.47 0 2.7 1.2 2.7 2.666C168.307 48.5 167.1 49.7 165.6 49.7" class="style0"/>
	<polygon fill="#FFFFFF" points="189,53.1 182.8,53.1 182.8,50.1 189,50.1 189,47.3 182.8,47.3 182.8,44.4 189,44.4 189,41.5 180,41.5 180,55.9 189,55.9" class="style0"/>
	<path fill="#FFFFFF" d="M208.417 55.083l0.147-0.098c0 0 0.4 0.8 0.5 0.954h0.693v-7.832h-5.961v2.816h3.121 v2.098l-0.1 0.037c-0.661 0.227-1.244 0.345-1.744 0.345c-2.596 0-4.72-2.088-4.72-4.666c0-2.565 2.124-4.655 4.72-4.655 c1.173 0 2.6 0.6 3.4 1.469c0.151-0.19 1.256-1.577 1.401-1.755c-1.268-1.593-3.277-2.553-5.415-2.553 c-4.003 0-7.247 3.362-7.247 7.494c0 4.1 3.2 7.5 7.2 7.508C205.874 56.2 207.2 55.8 208.4 55.1" class="style0"/>
	<path fill="#FFFFFF" d="M224.103 56.245c3.772 0 6.844-3.37 6.844-7.508c0-4.132-3.071-7.494-6.844-7.494 c-3.785 0-6.857 3.362-6.857 7.494C217.245 52.9 220.3 56.2 224.1 56.2 M224.103 43.855c2.147 0 3.9 2.2 3.9 4.9 c0 2.698-1.75 4.897-3.897 4.897c-2.145 0-3.875-2.199-3.875-4.897C220.228 46 222 43.9 224.1 43.9" class="style0"/>
	<path fill="#FFFFFF" d="M241.85 46.851c0 0 7 9 7.1 9.087h2.27V41.546h-2.837v9.11 c0 0-7.013-8.983-7.109-9.11h-2.272v14.392h2.815V46.851z" class="style0"/>
	<polygon fill="#FFFFFF" points="128.9,76.3 120.1,76.3 120.1,68.5 116.2,68.5 116.2,88.1 120.1,88.1 120.1,80.2 128.9,80.2 128.9,88.1 132.8,88.1 132.8,68.5 128.9,68.5" class="style0"/>
	<path fill="#FFFFFF" d="M161.28 80.204V68.523h-3.95v11.681c0 2.419-1.97 4.394-4.385 4.4 c-2.43 0-4.391-1.975-4.391-4.394V68.523h-3.917v11.681c0 4.6 3.7 8.3 8.3 8.3 C157.541 88.5 161.3 84.8 161.3 80.2" class="style0"/>
	<path fill="#FFFFFF" d="M248.146 88.091V68.523h-3.948v12.22c0 0-9.446-12.104-9.534-12.22h-3.158v19.568h3.916V75.908 c0 0 9.5 12.1 9.6 12.184H248.146z" class="style0"/>
	<polygon fill="#FFFFFF" points="272,72.4 272,68.5 259.7,68.5 259.7,88.1 272,88.1 272,84.2 263.6,84.2 263.6,80.2 272,80.2 272,76.3 263.6,76.3 263.6,72.4" class="style0"/>
	<path fill="#FFFFFF" d="M142.512 106.48c-1.855-0.553-3.318-0.992-3.318-1.996c0-0.593 0.346-1.587 2.713-1.587 c1.32 0 3.1 0.5 4.7 1.333c0.106-0.223 0.856-1.823 0.975-2.061c-1.959-1.205-4.019-1.832-6.137-1.832 c-3.063 0-5.557 1.927-5.557 4.292c0 2.8 3.1 3.7 5.6 4.432c1.788 0.5 3.3 1 3.3 2 c0 1.109-1.062 1.729-2.918 1.729c-1.484 0-3.279-0.482-5.313-1.402c-0.048 0.296-0.358 2.09-0.39 2.3 c1.714 1.1 3.8 1.7 5.9 1.685c2.863 0 5.949-1.451 5.949-4.631C148.059 108.1 145 107.2 142.5 106.5" class="style0"/>
	<path fill="#FFFFFF" d="M160.894 100.371c-3.782 0-6.858 3.367-6.858 7.486c0 4.1 3.1 7.5 6.9 7.5 c3.774 0 6.854-3.364 6.854-7.514C167.748 103.7 164.7 100.4 160.9 100.4 M160.894 112.8 c-2.141 0-3.875-2.191-3.875-4.896c0-2.682 1.734-4.873 3.875-4.873c2.144 0 3.9 2.2 3.9 4.9 C164.79 110.6 163 112.8 160.9 112.8" class="style0"/>
	<path fill="#FFFFFF" d="M181.775 103.204c1.331 0 2.9 0.6 3.9 1.459c0.157-0.193 1.264-1.551 1.416-1.736 c-1.379-1.599-3.545-2.556-5.842-2.556c-4.304 0-7.81 3.367-7.81 7.486c0 4.1 3.5 7.5 7.8 7.5 c2.276 0 4.44-0.974 5.842-2.589c-0.152-0.19-1.308-1.577-1.454-1.756c-0.911 0.896-2.41 1.505-3.822 1.5 c-2.899 0-5.256-2.093-5.256-4.674C176.52 105.3 178.9 103.2 181.8 103.2" class="style0"/>
	<rect fill="#FFFFFF" x="194.3" y="100.7" width="3.1" height="14.4" class="style0"/>
	<polygon fill="#FFFFFF" points="206,115.1 215,115.1 215,112.3 208.8,112.3 208.8,109.3 215,109.3 215,106.4 208.8,106.4 208.8,103.5 215,103.5 215,100.7 206,100.7" class="style0"/>
	<polygon fill="#FFFFFF" points="221.4,103.5 225.7,103.5 225.7,115.1 228.5,115.1 228.5,103.5 232.7,103.5 232.7,100.7 221.4,100.7" class="style0"/>
	<path fill="#FFFFFF" d="M248.779 100.675c-0.087 0.131-4.306 6.26-4.306 6.26s-4.216-6.129-4.308-6.26h-3.417 c0.842 1.2 6.3 9.1 6.3 9.22v5.162h2.843c0-0.294-0.016-5.253-0.016-5.253s5.959-8.662 6.282-9.129H248.779z" class="style0"/>
	<path fill="#FFFFFF" d="M183.242 76.816l-0.107 0.108l-0.113-0.108c0 0-8.274-8.235-8.274-8.293h-2.05v19.568h3.905 V75.979c0 0 6.3 6.3 6.5 6.483c0.211-0.207 6.518-6.483 6.518-6.483v12.112h3.908V68.487c-0.264-0.005-1.94-0.02-1.94-0.02 L183.242 76.816z" class="style0"/>
	<path fill="#FFFFFF" d="M143.083 56.245c3.783 0 6.856-3.37 6.856-7.508c0-4.132-3.073-7.494-6.856-7.494 c-3.778 0-6.854 3.362-6.854 7.494C136.229 52.9 139.3 56.2 143.1 56.2 M143.083 43.855c2.151 0 3.9 2.2 3.9 4.9 c0 2.698-1.756 4.897-3.907 4.897c-2.14 0-3.873-2.199-3.873-4.897C139.21 46 140.9 43.9 143.1 43.9" class="style0"/>
	<path fill="#FFFFFF" d="M214.654 68.486l-4.497 0.004c-0.08 0.057-7.709 19.588-7.709 19.588h4.157 c0.081 0 1.788-4.415 1.788-4.415s7.825-0.008 7.836-0.008c-0.011 0-0.011 0.008-0.011 0.008c0 0.1 1.6 4.4 1.6 4.415h4.54 L214.654 68.486z M209.556 80.402c0.081-0.219 2.778-7.909 2.787-7.928c0 0.3 2.5 7.3 2.7 7.928H209.556z" class="style0"/>
	<path fill="#FFFFFF" d="M40.345 46.637c-0.31-0.244-0.604-0.475-0.609-0.623c0-0.048 0.037-0.106 0.111-0.173 c1.172-1.04 1.868-2.743 1.618-3.959l-0.062-0.286c-0.137-0.619-0.325-1.467-0.147-1.959c0.267-0.746 0.16-2.812-0.361-3.203 l-0.019-0.012c-0.542-0.302-1.887 0.63-2.525 1.259c-0.416-0.244-1.812-0.797-4.473 0.332c-0.311-0.525-1.233-1.208-1.89-1.358 c-0.289-0.067-0.512-0.032-0.66 0.103c-0.483 0.348-0.817 2.2 0.1 4.241c-0.006-0.022-0.052 0.151-0.052 0.2 c-0.09 0.283-0.241 0.756-0.134 1.552c0.041 0.3 0.3 0.7 0.4 0.961l0.232 0.438c-0.15 0.089-0.336 0.059-0.739-0.027 l-0.492-0.09c-1.388-0.397-8.465-2.126-13.029 2.289c-3.146 3.043-4.246 6.789-3.017 10.277c1.18 3.4 4.3 5.8 8 6.2 c8.132 0.9 9.97-2.031 10.476-3.208c0.536-1.25 0.22-2.681-0.788-3.561c-0.985-0.861-2.311-0.934-3.548-0.193 c-0.168 0.101-0.195 0.218-0.189 0.298c0.013 0.2 0.2 0.3 0.3 0.295c1.492-0.236 2.5 0 3 0.7 c0.35 0.6 0.2 1.332-0.298 2.048c-1.157 1.55-4.316 2.705-9.555 1.447c-2.461-0.591-4.491-2.866-5.091-5.481 c-0.594-2.59 0.317-5.093 2.562-7.047c4.215-3.67 8.609-2.932 11.234-2.49c0.94 0.2 1.6 0.3 1.9 0.1 c0.294-0.116 0.481-0.275 0.569-0.485c0.153-0.367-0.032-0.796-0.247-1.293c-0.173-0.397-0.368-0.849-0.402-1.321l0.065-1.472 c0.048-0.381 0.075-0.612-0.027-0.769c-0.738-1.175-0.643-2.179-0.534-2.288c0.718-0.216 1.4 0.4 1.9 1.188l0.078 0.1 l0.117-0.051c2.388-1.016 3.565-0.609 3.95-0.476l0.262 0.08l0.054-0.098c0.514-0.689 1.513-1.102 1.919-1.147 c0.073 0.2 0.1 0.5 0.1 0.968c0 0.437-0.051 0.909-0.182 1.214c-0.218 0.505-0.284 0.985-0.284 1.4 c0 0.2 0 0.5 0 0.729c0.017 0.2 0 0.3 0 0.483c0 0.962-0.314 1.902-0.877 2.6 c-0.434 0.531-0.628 0.95-0.628 1.352c0 0.5 0.3 1 0.8 1.547c0.594 0.7 1.6 2.2 1.6 4 c0 1.011-0.293 2.142-1.102 3.34c-2.291 3.415-4.315 2.542-4.882 2.193c-0.15-0.064-0.276-0.028-0.332 0.1 c-0.057 0.119-0.002 0.2 0.1 0.294c0.573 0.6 1.9 1.1 3.3 1.015c1.103-0.1 2.697-0.639 4.022-2.638 c2.04-3.072 0.881-6.898-0.594-8.633L40.345 46.637z" class="style0"/>
	<path fill="#FFFFFF" d="M73.459 62.946c0.034 0.1 0.1 0.1 0.2 0.081c0.078-0.025 0.106-0.104 0.109-0.146 c0-0.006 0.002-0.167 0.002-0.167c0.009-1.261 0.036-4.615-4.232-8.791c-5.776-5.658-4.842-9.441-4.173-10.805 c0.841-1.713 2.665-2.687 4.538-2.427c2.195 0.3 3.8 2.2 4.3 5.007c0 0 0 0.1 0.1 0.1 c0.121 0 0.155-0.078 0.449-0.656l0.583-1.05c1.14-1.706 3.052-3.509 5.684-2.409c1.409 0.6 2.3 1.5 2.6 2.8 c0.857 3.443-1.955 9.138-8.356 16.926l-0.498 0.629c-0.034 0.052-0.049 0.1 0 0.213c0.069 0.1 0.2 0 0.24-0.015 c0.001-0.001 0.131-0.12 0.131-0.12c3.706-3.413 12.228-12.004 11.306-18.045c-0.292-1.911-1.529-3.395-3.678-4.41 c-4.257-2.01-7.121 1.496-8.217 3.22c-1.407-2.671-3.608-4.128-6.069-3.983c-2.35 0.139-4.43 1.759-5.304 4.1 c-0.667 1.809-1.516 6.7 5 12.971C69.455 57.2 72.4 61 73.5 62.9" class="style0"/>
	<path fill="#FFFFFF" d="M49.456 4.699c-0.263 0.056-0.436 0.309-0.398 0.572c4.806 31.3 1.9 63.4 1.9 63.8 c-0.02 0.3 0.2 0.5 0.5 0.539c0.265 0 0.504-0.142 0.567-0.4c8.584-35.055-1.881-63.788-1.97-64.126 C49.977 4.8 49.7 4.6 49.5 4.7" class="style0"/>
	<path fill="#FFFFFF" d="M0.013 44.261c-0.266 0.3 3.8 84.9 3.7 86.374l93.799 0.258l3.376-91.979L49.88 0 C49.88 0 25.7 13.5 0 44.3 M94.619 127.784c-0.338-0.011-31.228-1.281-43.553-1.365 c-0.455-6.299-2.005-32.521-0.334-49.203c0.025-0.262-0.299-0.555-0.558-0.599c-0.257-0.05-0.627 0.163-0.695 0.4 c-0.048 0.182-5.544 20.631-0.505 49.489c-17.872-0.097-28.994 0.168-42.672 1.47c-0.014-5.404-0.356-35.991-1.115-50.302 c31.426-5.772 86.196-1.239 90.6 0C95.774 77.7 94.1 107.7 94.6 127.8 M98.458 41.8 c-0.595 2.294-2.598 34.214-2.604 34.212C58.628 65.6 12.2 74.5 5.1 75.707c-0.261-9.995-1.378-29.312-1.364-29.34 C12.623 30.6 48.9 2.9 49.8 2.42C65.63 19.4 96.8 40.6 98.5 41.8" class="style0"/>
	<path fill="#FFFFFF" d="M39.98 100.173c-1.178-0.86-2.099-0.285-2.995 0.523c-1.579 1.419-2.434 2.58-3.476 3.6 c0.175-0.233 0.353-0.453 0.353-0.453c1.583-2.021 4.954-6.432 5.76-8.035c0.203-0.39 0.611-1.735-0.74-2.454 c-1.002-0.583-2.198 0.255-2.75 0.93c-1.579 1.967-3.161 4.189-4.276 5.596c1.278-2.16 3.844-6.155 4.514-7.535 c0.414-0.803 0.793-2.215-0.779-2.944c-2.243-0.978-3.066 1.013-6.437 6.694c-0.325 0.548-0.665 1.182-0.972 1.6 c0.438-1.226 2.239-5.221 2.957-7.232c0.666-1.868-0.413-2.493-0.74-2.658c-0.942-0.455-2.353-0.322-3.632 2.2 c-0.712 1.338-2.639 4.938-3.085 6.036c-1.901 3.998-2.521 4.757-2.58 4.832c0.591-3.506 1.915-6.732-0.659-8.26 c-0.498-0.271-1.107-0.222-1.55-0.04c-1.997 0.804-4.656 11.695-3.816 16.299c0.787 4.3 5.3 7.5 9.7 6.8 c6.649-1.676 13.079-9.771 13.941-10.696c0.009-0.01 2.438-2.737 1.788-4.128C40.401 100.6 40.3 100.4 40 100.2 M38.717 102.269c-1.143 2.158-8.803 9.704-13.646 11.214c-3.038 0.947-6.524-1.703-7.69-3.939 c-1.464-2.809 0.092-9.941 1.212-13.682c0.311-1.037 0.618-1.702 1.252-1.532c0.351 0.1 1 0.8 0.9 2.5 c-0.143 1.684-0.598 3.521-0.666 4.394c-0.039 0.516-0.036 1.2 0.5 1.314c0.584 0.1 1.115-0.572 1.605-1.231 c0.866-1.159 5.907-10.492 5.907-10.492c0.48-0.819 0.849-1.717 1.659-1.342c0.576 0.3 0.4 0.9 0.1 1.8 c-0.7 1.949-1.986 4.902-2.545 6.571c-0.194 0.583-0.376 1.4 0 1.659c0.32 0.2 0.858-0.281 1.321-0.897 c1.408-1.877 3.752-5.432 4.549-6.614c0.737-1.211 1.248-1.262 1.642-1.054c0.589 0.3 0.3 0.974-0.027 1.7 c-1.467 3.099-5.415 8.905-4.684 9.636c0.828 0.8 5.441-5.899 6.82-7.073c0.242-0.205 0.541-0.555 1.003-0.318 c0.421 0.2 0.3 0.8 0.1 1.088c-2.748 4.66-6.679 8.82-5.952 9.548c0.885 0.9 4.001-3.272 5.721-4.275 c0.256-0.15 0.625-0.193 0.9 0.063C39.075 101.7 38.8 102 38.7 102.3" class="style0"/>
	<path fill="#FFFFFF" d="M87.508 107.463c-0.007-0.006-0.871-0.338-0.871-0.338c-0.349-0.096-0.71-0.193-0.969-0.377 c-0.291-0.186-0.428-0.348-0.428-0.637c0-0.295 0.144-0.719 0.412-1.438l0.087-0.234c0.188-0.53 0.263-1.073 0.263-1.58 c0-0.905-0.239-1.678-0.494-2.104c0.046-0.102 0.118-0.257 0.118-0.257c0.368-0.762 1.161-2.407 1.161-4.313 c0-0.309-0.022-0.62-0.068-0.938c-0.424-2.878-2.991-4.426-3.944-4.78c-0.81-0.308-1.557-0.188-1.855 0.3 c-0.093 0.147-0.137 0.313-0.137 0.497c0 0.7 0.7 1.7 2 2.881c0.308 0.3 0.6 0.9 0.6 1.5 c0 0.18-0.017 0.365-0.058 0.546c-0.119 0.542-0.554 0.867-1.175 0.935c-0.155-0.071-0.458-0.217-0.458-0.217l-0.933-0.42 c-2.754-1.021-4.564-0.353-6.858 0.494l-0.91 0.333c-1.177 0.422-2.374 0.376-3.374-0.134c-0.726-0.371-1.25-1.029-1.647-1.79 c0.469 0.1 0.9 0.1 1.353-0.188c0.24-0.135 0.544-0.42 0.619-1.018c0.115-0.908-0.376-2.194-1.093-2.872 c0.012 0.009-0.21-0.237-0.21-0.237c-0.672-0.758-2.244-2.53-3.899-2.444c0.006 0-0.422 0.062-0.422 0.1 c-0.242 0.048-0.545 0.108-0.684 0.017c-1.257-0.84-2.795-0.679-3.483-0.295c-0.164 0.1-0.403 0.02-0.999-0.259 c-0.007-0.002-0.389-0.171-0.389-0.171c-0.683-0.289-1.219-0.28-1.559 0.023c-0.41 0.361-0.794 1.841-0.794 2.356l0.043 0.5 c0.103 0.7 0.3 1.1 0.5 1.501l0.347 0.737c0.473 0.9 1 1.3 1.5 1.603c0.382 0.3 0.7 0.5 1.1 1 c2.124 2.7 3.2 5.8 2.8 8.323c-0.338 2.368-1.826 5.407-3.004 6.763c-0.052 0.051-0.255 0.127-0.343 0.1 c-0.065-0.016-0.173-0.047-0.173-0.047c-0.277-0.09-0.79-0.26-1.459 0.181c0 0.003-0.557 0.56-0.557 0.6 c-0.343 0.588-0.284 1.092-0.255 1.332c0.062 0.7 1 1.4 1.5 1.58c1.044 0.3 1.8 0 2.598-0.332 c0.832-0.348 1.564-1.209 2.151-1.9l0.63-0.699c0.003-0.002 0.112-0.104 0.112-0.104c0.5-0.475 1.835-1.719 2.892-2.48 c-0.025 0.328-0.067 0.684-0.138 0.895c-0.158 0.492-0.397 1.092-0.659 1.186c-0.004 0-0.336 0.094-0.336 0.1 c-0.754 0.186-1.248 0.66-1.376 1.33c-0.011 0.049-0.016 0.105-0.016 0.163c0 0.2 0.1 0.6 0.3 0.8 c0.44 0.5 0.9 0.7 1.6 0.691c0.103 0 2.3 0 3.253-1.949l0.554-1.248c0.49-1.131 1.101-2.537 1.5-2.771 c0.012-0.004 0.523-0.236 0.523-0.236l0.215-0.08c0-0.002 0.32-0.17 0.32-0.17c1.025-0.541 1.142-0.613 1.904-1.395 c0.038-0.041 0.111-0.055 0.157-0.088c-0.076 0.301-0.137 0.617-0.137 0.898c0 0.1 0 0.2 0 0.3 c0.481 2.4 2.2 3.4 2.5 3.573c0.049 0.1 0.1 0.1 0.1 0.144c0.336 0.3 0.5 0.6 0.5 0.8 c0 0.078-0.041 0.15-0.088 0.223c-0.279 0.188-0.515 0.264-0.903 0.329c-0.495 0.026-1.184 0.14-1.416 0.5 c-0.242 0.379-0.392 0.711-0.392 1.049c0 0.4 0.2 0.8 0.7 1.303c0.314 0.3 0.9 0.6 1.5 0.6 c0.795 0 1.569-0.244 2.125-0.762c1.734-1.611 2.885-2.771 2.885-3.932c0-0.039-0.001-0.08-0.005-0.119 c-0.046-0.686-0.483-1.295-1.375-1.92c-0.188-0.131-0.493-0.596-0.511-0.777c-0.003-0.021-0.003-0.037-0.003-0.055 c0-0.336 0.351-0.621 0.741-0.91c0.005-0.004 0.038-0.029 0.071-0.058c0.53 1.6 1.7 2.2 2.7 2.3 c0.368 0.1 0.8 0.2 1 0.654c0.05 0.2 0.1 0.5 0.1 0.709c0 0.172-0.021 0.334-0.078 0.4 c-0.234 0.43-0.296 0.461-0.701 0.666l-0.26 0.133c-0.691 0.379-0.847 0.83-0.847 1.16c0 0.1 0 0.3 0.1 0.3 c0.268 0.8 1.3 1.2 2 1.182h0.001c0.564 0 2.756-0.344 2.86-2.033l0.027-0.484c0.062-1.074 0.065-1.115 0.412-1.801 c0.22-0.43 0.355-0.926 0.355-1.42C88.408 108.6 88.2 107.9 87.5 107.5 M68.389 111.3 c-0.58 1.184-1.265 1.58-1.547 1.627c-0.77 0.127-0.971-0.066-1.112-0.277c-0.082-0.125-0.109-0.385-0.014-0.559 c0.041-0.074 0.112-0.156 0.311-0.152c0.423 0 0.808-0.148 1.119-0.453c0.427-0.416 0.682-1.098 0.686-1.818l0.027-0.865 v-0.582c0.116-0.021 0.285-0.033 0.456-0.011c0.02 0 0.7 0.1 1.751-0.083C69.561 109 68.9 110.2 68.4 111.3 M86.568 109.864c-0.315 0.691-0.367 1.553-0.406 2.182l-0.078 0.721c-0.216 0.602-1.229 0.982-1.747 0.9 c-0.139-0.025-0.224-0.113-0.269-0.186c-0.046-0.076-0.065-0.154-0.065-0.211c0-0.023 0.002-0.041 0.006-0.057 c0.018-0.057 0.091-0.107 0.255-0.211c0.279-0.18 0.701-0.449 0.981-1.115c0.194-0.468 0.267-0.695 0.267-0.984 c0-0.176-0.026-0.377-0.068-0.668c-0.182-1.273-1.255-1.838-2.204-1.969c-1.008-0.154-1.695-0.834-2.059-1.992 c0.908-0.913 1.182-1.771 1.182-2.425c0-0.539-0.165-0.944-0.264-1.134c-0.087-0.173-0.313-0.302-0.475-0.197 c-0.086 0.053-0.048 0.24-0.007 0.43c0 0 0 0.1 0 0.262c0 0.2 0 1.156-2.245 2.7 c-0.515 0.357-1.424 0.987-1.322 2.209c0.065 0.8 1.1 1.6 1.1 1.594c0.647 0.5 1 0.8 1 1.2 c0.041 0.639-0.703 1.658-2.414 3.297c-0.266 0.256-0.683 0.383-1.115 0.34c-0.36-0.031-0.571-0.165-0.628-0.24 c-0.078-0.105-0.118-0.225-0.118-0.352c0-0.039 0.004-0.078 0.011-0.117c0.036-0.217 0.159-0.377 0.205-0.406 c0.002 0 0.709-0.068 0.709-0.068c0.706-0.101 1.134-0.383 1.532-0.973c0.133-0.188 0.369-0.516 0.369-0.953 c0-0.379-0.177-0.842-0.743-1.367l-0.371-0.32c-0.797-0.662-1.884-1.564-1.884-3.445v-0.08c0.027-1.597 1.12-2.851 1.192-2.932 c0.031-0.023 0.076-0.056 0.087-0.063H77.06c0.002 0 0.008-0.004 0.008-0.004c0.108-0.075 0.167-0.197 0.167-0.318 c0-0.071-0.017-0.141-0.056-0.203c-0.108-0.176-0.335-0.236-0.515-0.138c-0.005 0.003-0.029 0.021-0.037 0 c0.002-0.001 0.002-0.003 0.003-0.004l-0.127 0.087c-0.001 0-0.01 0.014-0.012 0.015c-0.594 0.432-2.531 1.914-3.06 2.4 c-0.871 0.823-1.395 1.038-2.158 1.294l-0.385 0.143l-0.603 0.207l-1.45 0.24c0 0-0.213 0.027-0.415 0.1 c0.099-0.27 0.16-0.538 0.16-0.77c0-0.027 0-0.053-0.001-0.078c-0.012-0.332-0.186-1.322-0.63-1.492 c-0.144-0.055-0.363-0.005-0.469 0.109c-0.133 0.139-0.111 0.281-0.086 0.445c0.209 1.4 0 1.6 0 1.7 c-0.232 0.256-0.658 0.494-1.033 0.701l-0.726 0.455c-0.004 0.002-2.308 2.039-2.308 2.039c-0.001 0-0.856 0.967-0.856 1 c-0.539 0.658-1.209 1.479-1.779 1.66c-1.038 0.352-1.451 0.189-1.755 0.07c-0.435-0.171-0.672-0.66-0.678-0.83 c-0.009-0.261 0.142-0.404 0.284-0.52c0.116-0.096 0.316-0.037 0.8 0.141c0.678 0.3 1.065-0.033 1.407-0.307 c2.677-2.141 3.95-7.24 3.608-9.092l-0.124-0.837c-0.167-1.286-0.356-2.742-1.983-5.699c-0.347-0.63-1.131-1.104-1.889-1.563 c-0.565-0.343-1.209-0.731-1.337-1.036c-0.01-0.023-0.333-0.674-0.333-0.674c-0.19-0.392-0.284-0.604-0.36-1.077 c0 0.004-0.041-0.181-0.041-0.181l-0.024-0.091c0.002 0 0 0 0 0.006c0-0.004 0-0.009-0.002-0.01 c0.004-0.264 0.218-1.005 0.351-1.138c-0.001 0 0.027-0.025 0.04-0.035c0.025 0 0.1 0 0.1 0 c0.004 0 0.4 0.2 0.4 0.161c-0.004-0.002 0.3 0.1 0.3 0.138c0.551 0.3 1.2 0.6 1.8 0.2 c0.333-0.185 1.176-0.401 1.9 0.108c0.574 0.4 1.1 0.5 1.6 0.449c0.313-0.014 2 0.7 2.8 1.5 c0.342 0.3 0.9 1.1 0.8 1.446c-0.005 0.033-0.01 0.037-0.022 0.044c-0.119 0.072-0.328-0.036-0.635-0.209 c-0.411-0.233-1.031-0.583-1.601-0.093c-0.229 0.194-0.487 0.464-0.448 0.805c0.011 0.1 0.2 0.2 0.2 0.2 c0.082 0.1 0.3 0.1 0.4 0.038c0 0 0.024-0.004 0.046-0.007c-0.002-0.004 0-0.008-0.032-0.031c0 0 0 0 0 0 c0.026-0.002 0.052-0.007 0.052-0.007c-0.042 0.005-0.042 0.011-0.044 0.014c0.055 0 0.2 0.1 0.3 0.2 c0.103 1.4 0.8 2.6 2 3.493c1.457 1 3.4 1.3 5 0.679c2.582-0.914 4.512-1.329 6.154-0.568l0.165 0.1 c0.195 0.1 0.5 0.3 1 0.357c0.303 0 0.656-0.043 1.083-0.203c0.929-0.324 1.673-1.243 1.824-1.905 c0.061-0.276 0.094-0.579 0.094-0.895c0-0.929-0.285-1.965-0.998-2.695l-0.508-0.51c-0.52-0.513-0.86-0.858-0.86-1.052 c0-0.026 0.006-0.05 0.02-0.071c0.031-0.021 0.255-0.06 0.7 0.169c1.118 0.5 2.7 2.1 2.8 4 c0.077 2.858-0.733 3.688-1.169 4.135c-0.261 0.269-0.588 0.604-0.322 1.127c0.502 1 0.6 1.9 0.4 2.6 c0 0.002-0.207 0.539-0.207 0.539c-0.425 1.077-0.955 2.4 0.4 3.328c0.466 0.3 1 0.4 1.3 0.529l0.391 0.1 C86.426 108.6 86.9 109.1 86.6 109.9" class="style0"/>
</g>
</svg>
