<?xml version="1.0" standalone="no"?>
<!DOCTYPE svg PUBLIC "-//W3C//DTD SVG 1.1//EN" "http://www.w3.org/Graphics/SVG/1.1/DTD/svg11.dtd" >
<svg xmlns="http://www.w3.org/2000/svg">
<metadata></metadata>
<defs>
<font id="vauditalic" horiz-adv-x="1189" >
<font-face units-per-em="2048" ascent="1638" descent="-410" />
<missing-glyph horiz-adv-x="544" />
<glyph horiz-adv-x="2048" />
<glyph horiz-adv-x="2048" />
<glyph unicode="&#xd;" horiz-adv-x="2048" />
<glyph unicode=" "  horiz-adv-x="544" />
<glyph unicode="&#x09;" horiz-adv-x="544" />
<glyph unicode="&#xa0;" horiz-adv-x="544" />
<glyph unicode="!" horiz-adv-x="620" d="M66 0l51 315h293l-52 -315h-292zM166 442l125 1014h303l-211 -1014h-217z" />
<glyph unicode="&#x22;" horiz-adv-x="929" d="M96 840l23 340l41 274h284l-43 -274l-84 -340h-221zM516 840l25 340l41 274h282l-43 -274l-86 -340h-219z" />
<glyph unicode="#" horiz-adv-x="1382" d="M25 346l34 223h238q13 43 40 134.5t40 134.5h-211l35 223h245q19 56 57 171.5t56 172.5h244l-109 -344h228q10 33 49.5 156t58.5 188h248l-109 -344h189l-35 -223h-225q-24 -78 -80 -269h194l-34 -223h-232q-20 -65 -57.5 -185t-50.5 -161h-246l106 346h-225 q-14 -46 -52 -164.5t-56 -181.5h-248l108 346h-200zM543 569h225q14 45 42.5 134.5t43.5 134.5h-227q-15 -45 -42.5 -134.5t-41.5 -134.5z" />
<glyph unicode="$" d="M8 473h287q-13 -101 28.5 -163.5t120.5 -78.5l60 373q-438 58 -379 426q27 164 166.5 281t345.5 137l31 186h159l-30 -190q83 -9 148 -39t106 -73.5t66.5 -100t34 -116t3.5 -124.5l-276 2q6 178 -119 211l-55 -348q60 -13 107.5 -27t93 -34t76.5 -44.5t58 -56.5t38 -71.5 t16 -89.5t-7 -109q-28 -179 -169 -297.5t-353 -138.5l-30 -197h-160l31 197q-209 19 -316.5 146.5t-81.5 338.5zM410 1044q-11 -73 24 -109t115 -50l51 325q-78 -10 -128.5 -55t-61.5 -111zM604 229q172 30 195 185q10 65 -25.5 104t-114.5 60z" />
<glyph unicode="%" horiz-adv-x="1921" d="M127 1034q31 197 150 311.5t290 114.5t252 -113.5t49 -312.5q-31 -197 -147.5 -309.5t-288.5 -112.5q-173 0 -254.5 112.5t-50.5 309.5zM262 -16q113 145 578.5 747t552.5 717h260l-1133 -1468zM365 1034q-18 -108 4.5 -162.5t95.5 -54.5q71 0 110.5 54t57.5 163 q18 110 -4.5 164.5t-93.5 54.5q-73 0 -112.5 -54.5t-57.5 -164.5zM1042 395q32 200 150.5 313t286.5 113q172 0 254 -113.5t51 -312.5q-32 -198 -148 -310t-293 -112q-171 0 -252 112t-49 310zM1278 395q-18 -107 5 -161t93 -54q73 0 113.5 53.5t58.5 161.5q18 109 -5.5 165 t-96.5 56q-70 0 -110 -55.5t-58 -165.5z" />
<glyph unicode="&#x26;" horiz-adv-x="1445" d="M47 401q11 71 40.5 131.5t75.5 109t98 87t120 76.5q-55 79 -80.5 152t-11.5 159q26 163 152.5 264t297.5 101q176 0 271.5 -97t70.5 -256q-20 -126 -101.5 -214.5t-219.5 -163.5q37 -54 107.5 -151.5t84.5 -117.5q70 113 88 234q5 52 4 71h234q0 -3 -6 -57 q-43 -269 -178 -444q3 -4 8 -11.5t8 -11.5l195 -262h-340q-12 15 -35 46t-35 46l-4 2q-182 -129 -402 -129q-243 0 -358 122.5t-84 313.5zM328 426q-17 -102 40 -160.5t179 -58.5q132 0 213 63l-256 361q-76 -43 -121 -90.5t-55 -114.5zM551 1116q-13 -85 86 -201 q76 40 123.5 87t58.5 116q10 65 -19.5 100t-90.5 35q-62 0 -105 -34.5t-53 -102.5z" />
<glyph unicode="'" horiz-adv-x="493" d="M94 840l23 340l41 274h284l-43 -274l-86 -340h-219z" />
<glyph unicode="(" horiz-adv-x="641" d="M59 639q41 262 158 498t301 434h234q-339 -418 -420 -932q-81 -517 125 -934h-236q-247 409 -162 934z" />
<glyph unicode=")" horiz-adv-x="641" d="M-94 -295q342 426 422 934q81 515 -125 932h233q246 -408 164 -932q-85 -531 -461 -934h-233z" />
<glyph unicode="*" horiz-adv-x="962" d="M55 1061l125 239l226 -118q2 45 5 139t5 139h262l-82 -280q24 11 120.5 54t145.5 66l49 -237l-280 -70q87 -123 162 -221l-230 -147l-108 247q-82 -107 -189 -249l-182 149l233 221q-44 11 -134 35t-128 33z" />
<glyph unicode="+" horiz-adv-x="1300" d="M94 541l41 250h406l67 428h260l-67 -428h407l-41 -250h-407l-70 -445h-260l70 445h-406z" />
<glyph unicode="," horiz-adv-x="550" d="M84 -209q87 38 125 86t51 123h-143l51 326h317l-45 -291q-23 -146 -87 -235t-208 -146z" />
<glyph unicode="-" horiz-adv-x="872" d="M78 487l43 273h670l-43 -273h-670z" />
<glyph unicode="." horiz-adv-x="550" d="M88 0l55 342h318l-55 -342h-318z" />
<glyph unicode="/" horiz-adv-x="790" d="M-123 -12l789 1503h258l-791 -1503h-256z" />
<glyph unicode="0" d="M72 711q20 131 54 240t87.5 203.5t123 159t165.5 101.5t211 37q117 0 201 -37.5t132.5 -102t71 -159.5t21 -203t-22.5 -239q-21 -133 -53.5 -240.5t-85.5 -203t-122 -160t-166 -101.5t-216 -37q-117 0 -201 37t-132.5 101.5t-70.5 159.5t-20 203.5t23 240.5zM369 711 q-10 -59 -15.5 -103t-9 -97.5t0 -91.5t14 -76.5t30 -62t51.5 -38.5t76 -15t81 15t64 38.5t50.5 62t39 76.5t29.5 91.5t22.5 97.5t18.5 103q9 59 14.5 102.5t8.5 96.5t-0.5 91t-14.5 76t-31 61.5t-52 38.5t-76 15q-51 0 -92 -18t-71 -54.5t-52 -77.5t-38.5 -101.5 t-26.5 -110.5t-21 -119z" />
<glyph unicode="1" d="M283 885l47 301l377 233h241l-223 -1419h-291l170 1075q-270 -159 -321 -190z" />
<glyph unicode="2" d="M-6 0l33 221q61 47 286 258q215 198 238 217q119 98 182 174.5t74 151.5q12 77 -25.5 127.5t-117.5 50.5q-178 0 -242 -211h-287q26 97 72 178t114.5 147t167 103t218.5 37q213 0 320.5 -114t76.5 -310q-21 -127 -101.5 -237t-232.5 -236q-75 -66 -174 -162 q-146 -134 -150 -137h541l-41 -258h-952z" />
<glyph unicode="3" d="M35 444h291q-17 -223 184 -223q95 0 160 49t82 144q15 98 -36 145t-159 47h-133l41 256h141q188 0 217 172q10 72 -29.5 120t-125.5 48q-196 0 -254 -196h-283q34 195 193.5 321.5t382.5 126.5q216 0 326.5 -111.5t82.5 -287.5q-15 -96 -74.5 -178t-150.5 -127 q88 -49 128 -139.5t25 -192.5q-34 -210 -185 -330.5t-386 -120.5q-123 0 -215.5 39t-144 105.5t-71.5 151.5t-7 181z" />
<glyph unicode="4" d="M-10 313l30 205l783 897h274l-135 -856h178l-39 -246h-178l-49 -313h-289l49 313h-624zM346 559h307l72 447q-65 -77 -189 -223.5t-190 -223.5z" />
<glyph unicode="5" d="M59 428h287q-16 -207 184 -207q104 0 166.5 65.5t83.5 186.5q36 232 -178 232q-132 0 -227 -103h-256l178 817h848l-41 -256h-600q-8 -32 -22 -87t-24.5 -100t-19.5 -89q101 63 258 63q146 0 238.5 -64.5t124 -169.5t10.5 -239q-38 -237 -192 -373.5t-383 -136.5 t-344.5 120.5t-90.5 340.5z" />
<glyph unicode="6" d="M88 651q129 801 660 801q108 0 189 -32.5t127 -89t66.5 -126.5t16.5 -151h-285q-3 74 -40 114.5t-122 40.5q-119 0 -193 -99t-104 -261q60 46 138.5 71t154.5 25q219 0 315.5 -126t59.5 -353q-35 -222 -189 -359t-390 -137q-96 0 -170 26.5t-121.5 74.5t-78 111 t-41.5 141.5t-9 159t16 169.5zM360 477q-18 -115 24.5 -188.5t145.5 -73.5q102 0 170 66t88 186q16 111 -26.5 176.5t-151.5 65.5q-91 0 -161.5 -60.5t-88.5 -171.5z" />
<glyph unicode="7" d="M150 0q70 148 324.5 576t361.5 587h-676l39 256h999l-33 -219q-109 -152 -371 -597.5t-329 -602.5h-315z" />
<glyph unicode="8" d="M29 406q17 103 82.5 190.5t164.5 138.5q-70 49 -101.5 132t-16.5 180q31 187 181.5 297t371.5 110q226 0 338 -109t81 -298q-15 -98 -70 -179.5t-140 -130.5q84 -51 122 -138t21 -193q-32 -204 -192.5 -321.5t-395.5 -117.5t-356 117t-90 322zM313 412q-14 -93 38 -146 t165 -53q112 0 180.5 54t83.5 147q13 89 -35 141.5t-165 52.5q-118 0 -185.5 -54t-81.5 -142zM438 1034q-14 -85 30.5 -132.5t147.5 -47.5t161.5 48t72.5 134q11 78 -32.5 128t-145.5 50t-162.5 -51.5t-71.5 -128.5z" />
<glyph unicode="9" d="M51 369h283q-3 -73 37.5 -114.5t126.5 -41.5q219 0 286 360q-60 -48 -139 -74t-156 -26q-218 0 -316 127.5t-62 353.5q36 222 192 360t393 138q96 0 170 -27t121.5 -76t77.5 -113t40.5 -143.5t8.5 -161t-16 -171.5q-24 -150 -57 -266.5t-84.5 -217.5t-120 -167t-164 -103 t-215.5 -37q-221 0 -322.5 111.5t-83.5 288.5zM399 952q-16 -109 26 -176t150 -67q95 0 164.5 64t87.5 181q16 111 -26 181.5t-144 70.5q-101 0 -169.5 -67t-88.5 -187z" />
<glyph unicode=":" horiz-adv-x="579" d="M55 0l54 336h317l-53 -336h-318zM172 737l53 336h318l-54 -336h-317z" />
<glyph unicode=";" horiz-adv-x="579" d="M49 -209q87 38 125 86t51 123h-143l53 326h318l-47 -291q-23 -146 -87 -235t-208 -146zM199 737l53 336h317l-53 -336h-317z" />
<glyph unicode="&#x3c;" horiz-adv-x="1083" d="M125 551l35 229l895 547l-45 -276l-637 -373q103 -73 294.5 -211.5t229.5 -165.5l-45 -270z" />
<glyph unicode="=" horiz-adv-x="1312" d="M113 303l39 242h978l-38 -242h-979zM180 727l37 240h979l-37 -240h-979z" />
<glyph unicode="&#x3e;" horiz-adv-x="1083" d="M45 31l41 270l647 377q-96 67 -272 194t-250 179l45 276l719 -547l-35 -229z" />
<glyph unicode="?" horiz-adv-x="1058" d="M82 1026q48 207 201 333t376 126q210 0 320 -109t84 -284q-20 -111 -74.5 -187t-142.5 -143q-106 -83 -140 -119q-71 -74 -83 -156l-9 -55h-284q14 92 36.5 158t60.5 116.5t70 80t93 77.5h-2q13 11 43 34t45.5 37t36 36.5t31.5 48t16 55.5q11 69 -28.5 112.5t-119.5 43.5 q-96 0 -157 -49.5t-90 -155.5h-283zM250 0l51 322h301l-51 -322h-301z" />
<glyph unicode="@" horiz-adv-x="1978" d="M119 543q27 173 103 322.5t182 255t236 181t268.5 112t277.5 36.5q177 0 319 -48t238.5 -139.5t136.5 -233t12 -318.5q-41 -261 -199 -430.5t-364 -169.5q-92 0 -145.5 29.5t-71.5 103.5q-125 -140 -287 -140q-69 0 -123 21t-87.5 58.5t-54.5 88.5t-23 110.5t6 125.5 q36 220 173.5 366t325.5 146q64 0 121 -32t84 -87q12 15 38.5 47.5t39.5 48.5h188q-39 -150 -172 -596q-14 -84 37 -84q97 0 176 116t105 278q21 131 -5 231.5t-94 164.5t-170 96t-235 32q-196 0 -364.5 -85.5t-282.5 -245t-146 -365.5q-21 -133 1.5 -246.5t85.5 -197.5 t172 -131.5t253 -47.5q288 0 467 133l115 -147q-126 -102 -273 -152.5t-349 -50.5q-260 0 -436.5 109t-247 299.5t-31.5 435.5zM811 520q-13 -90 13.5 -140t84.5 -50q53 0 93.5 22t67.5 62.5t44 83t31 98.5v2q3 8 6 22t4 19q25 168 -111 168q-86 0 -149 -81t-84 -206z" />
<glyph unicode="A" horiz-adv-x="1370" d="M-111 0l760 1458h301l299 -1458h-323l-54 305h-520q-13 -25 -153 -305h-310zM479 565h348q-23 125 -94 514q-41 -82 -126.5 -256t-127.5 -258z" />
<glyph unicode="B" horiz-adv-x="1341" d="M41 0l231 1456h553q258 0 375.5 -105t87.5 -294q-15 -92 -66.5 -170t-144.5 -125q183 -110 148 -326q-33 -205 -191 -320.5t-422 -115.5h-571zM377 254h276q118 0 189 46.5t84 139.5q15 97 -34 143t-161 46h-295zM475 879h285q201 0 227 165q13 87 -37.5 124.5 t-163.5 37.5h-258z" />
<glyph unicode="C" horiz-adv-x="1374" d="M88 727q20 127 61 239t106.5 208.5t150 166t197 109t243.5 39.5q162 0 276.5 -69t168.5 -186t52 -271h-305q3 122 -55.5 189t-179.5 67q-90 0 -162 -39.5t-120 -110t-78 -155t-46 -187.5q-12 -79 -13 -149t13.5 -134.5t44 -110t81.5 -73t124 -27.5q122 0 203.5 70.5 t114.5 194.5h303l8 -11q-58 -231 -240.5 -374.5t-431.5 -143.5q-108 0 -196 26.5t-149 75.5t-103.5 118t-61 153t-22 181.5t15.5 203.5z" />
<glyph unicode="D" horiz-adv-x="1456" d="M41 0l231 1456h557q100 0 182 -19t142.5 -53.5t104.5 -85t70.5 -111.5t38.5 -134.5t10.5 -152.5t-15.5 -167q-20 -126 -61 -234t-107.5 -201t-154 -158.5t-206.5 -102.5t-260 -37h-532zM385 264h186q101 0 179 25t128.5 65.5t86.5 103t55.5 126.5t32.5 147 q13 82 14.5 144.5t-13 125t-50 102t-102 64.5t-163.5 25h-209z" />
<glyph unicode="E" horiz-adv-x="1261" d="M41 0l231 1458h1020l-43 -268h-721l-47 -303h656l-43 -266h-656l-55 -355h727l-43 -266h-1026z" />
<glyph unicode="F" horiz-adv-x="1200" d="M39 0l231 1458h990l-43 -268h-689l-53 -342h629l-43 -266h-629l-92 -582h-301z" />
<glyph unicode="G" horiz-adv-x="1443" d="M90 727q26 165 90.5 303.5t160.5 241t228.5 160t288.5 57.5q166 0 288.5 -67t177.5 -179t36 -246l-303 2q0 222 -240 222q-93 0 -167 -40t-123.5 -110.5t-80.5 -155.5t-47 -188q-13 -81 -14 -151t14 -135t46.5 -110.5t89 -72.5t137.5 -27q153 0 234 81t110 241h-309 l38 252h594l-127 -805h-176l-16 156q-57 -75 -161.5 -131t-229.5 -56q-133 0 -236.5 37t-168.5 104.5t-104 162t-43.5 209t13.5 245.5z" />
<glyph unicode="H" horiz-adv-x="1476" d="M41 0l231 1458h301l-88 -559h559l89 559h301l-232 -1458h-301l98 614h-559l-98 -614h-301z" />
<glyph unicode="I" horiz-adv-x="606" d="M35 0l231 1458h303l-231 -1458h-303z" />
<glyph unicode="J" horiz-adv-x="1155" d="M-6 494h295q-29 -263 162 -263q61 0 104.5 22t70.5 66.5t42.5 95t27.5 124.5l146 917h301l-156 -989q-38 -236 -191.5 -368t-383.5 -132q-242 0 -347 136t-71 391z" />
<glyph unicode="K" horiz-adv-x="1384" d="M41 0l231 1458h303l-96 -604q81 78 297.5 284t333.5 320h350l-567 -553q63 -148 192.5 -452t192.5 -453h-344l-285 684q-40 -37 -115.5 -109.5t-115.5 -109.5l-74 -465h-303z" />
<glyph unicode="L" horiz-adv-x="1161" d="M39 0l231 1458h301l-188 -1186h676l-43 -272h-977z" />
<glyph unicode="M" horiz-adv-x="1779" d="M43 0l231 1458h373l197 -1028q424 824 528 1028h363l-232 -1458h-284l149 942q-90 -174 -256 -499t-227 -443h-230l-182 940l-149 -940h-281z" />
<glyph unicode="N" horiz-adv-x="1486" d="M41 0l231 1458h289l440 -932l148 932h295l-232 -1458h-284l-445 934l-147 -934h-295z" />
<glyph unicode="O" horiz-adv-x="1486" d="M92 727q21 130 64.5 244t111 209.5t154 164t199 106.5t241.5 38q109 0 197.5 -26.5t151.5 -75.5t107.5 -118t64.5 -153.5t23.5 -183t-15.5 -205.5q-26 -163 -87 -299.5t-154.5 -239.5t-228.5 -161t-298 -58q-129 0 -230.5 38t-166 106t-103.5 163t-44 208.5t13 242.5z M397 727q-13 -81 -14 -150.5t14 -133.5t46 -109t87.5 -71.5t133.5 -26.5q96 0 171 39.5t123.5 110.5t78.5 154.5t46 186.5q13 81 14.5 150t-12.5 133.5t-44.5 109.5t-86.5 72t-135 27q-97 0 -173 -40t-124.5 -112t-78.5 -155t-46 -185z" />
<glyph unicode="P" horiz-adv-x="1294" d="M41 0l231 1458h547q144 0 245 -35.5t153.5 -100t69.5 -146.5t1 -183q-17 -104 -60.5 -189t-116 -151t-184 -102.5t-253.5 -36.5h-252l-82 -514h-299zM463 774h242q249 0 282 215q16 102 -33.5 155.5t-181.5 53.5h-242z" />
<glyph unicode="Q" horiz-adv-x="1488" d="M104 727q26 166 90 304t159.5 241t229 160t291.5 57q107 0 195.5 -26t151 -74.5t107.5 -117t66 -153t24.5 -183.5t-15.5 -208q-29 -184 -91.5 -322.5t-174.5 -240.5q36 -60 75 -119.5t45 -69.5q-43 -30 -208 -149q-115 176 -129 197q-128 -54 -287 -54q-129 0 -230.5 38 t-165.5 106t-103 163t-43.5 208.5t13.5 242.5zM410 727q-13 -81 -14 -150.5t13.5 -134.5t45.5 -110.5t87.5 -73t133.5 -27.5q54 0 104 15q-9 16 -133 200l211 152q53 -75 127 -201q77 108 111 330q13 82 14 152t-13.5 134t-46 108.5t-87 71t-132.5 26.5q-95 0 -170.5 -39.5 t-124.5 -110t-79.5 -155t-46.5 -187.5z" />
<glyph unicode="R" horiz-adv-x="1343" d="M41 0l231 1456h568q85 0 155.5 -13.5t120.5 -37.5t89 -57t60.5 -73t35 -84.5t13 -91t-6.5 -93.5q-47 -292 -299 -402q10 -30 40.5 -133t49.5 -158q15 -47 92 -313h-328q-146 516 -153 541h-283l-86 -541h-299zM467 803h281q223 0 256 201q13 84 -37.5 139t-171.5 55h-265 z" />
<glyph unicode="S" horiz-adv-x="1308" d="M16 483h306q-13 -132 58.5 -194t205.5 -62q127 0 205.5 49.5t93.5 143.5q5 34 -0.5 60.5t-28.5 45t-42 30.5t-67 22.5t-74.5 15t-92.5 14.5q-35 5 -54 8q-98 12 -174.5 43.5t-131 83.5t-77 130.5t-6.5 177.5q32 197 209 317.5t424 120.5q132 0 235 -38.5t163 -105 t84.5 -152.5t9.5 -183h-297q12 101 -53 161t-181 60q-115 0 -194 -41.5t-93 -124.5q-6 -39 3 -66.5t26.5 -44.5t52.5 -29t70 -19t91 -16q13 -2 20 -3q52 -8 96.5 -17.5t88 -21t78.5 -25.5t67.5 -31.5t57.5 -38.5t45.5 -46t33.5 -55t20.5 -64.5t7 -75.5t-7.5 -88 q-23 -145 -114.5 -249t-228.5 -155t-306 -51q-127 0 -229 30.5t-175.5 91.5t-107 161t-17.5 231z" />
<glyph unicode="T" horiz-adv-x="1210" d="M96 1186l43 272h1161l-43 -272h-430l-188 -1186h-301l188 1186h-430z" />
<glyph unicode="U" horiz-adv-x="1409" d="M100 580l140 878h301l-140 -878q-54 -344 228 -344q145 0 225 86.5t107 257.5l139 878h303l-139 -880q-47 -295 -223 -453t-455 -158q-281 0 -406.5 158.5t-79.5 454.5z" />
<glyph unicode="V" horiz-adv-x="1339" d="M121 1458h328l176 -1030q96 195 274.5 555t235.5 475h313l-743 -1458h-302z" />
<glyph unicode="W" horiz-adv-x="1884" d="M141 1458h316l57 -962q68 158 206 481t206 481h284l105 -960q256 694 356 960h301l-575 -1458h-293l-117 995q-70 -164 -215.5 -497.5t-214.5 -497.5h-289z" />
<glyph unicode="X" horiz-adv-x="1318" d="M-115 0l600 756q-70 135 -204 405t-148 297h338l227 -473q61 78 188 236.5t189 236.5h328l-569 -708q60 -123 184 -375t184 -375h-338l-248 514q-72 -92 -208.5 -265t-196.5 -249h-326z" />
<glyph unicode="Y" horiz-adv-x="1312" d="M119 1458h327l236 -594q76 109 221.5 310t204.5 284h315l-639 -878l-92 -580h-301l92 580q-149 357 -364 878z" />
<glyph unicode="Z" horiz-adv-x="1230" d="M-63 0l40 252l891 938h-733l43 268h1102l-41 -254l-887 -936h762l-43 -268h-1134z" />
<glyph unicode="[" horiz-adv-x="712" d="M29 -274l288 1822h510l-36 -227h-252l-215 -1368h251l-36 -227h-510z" />
<glyph unicode="\" horiz-adv-x="790" d="M104 1491h256l314 -1503h-256z" />
<glyph unicode="]" horiz-adv-x="712" d="M-115 -274l37 227h252l215 1368h-254l37 227h512l-289 -1822h-510z" />
<glyph unicode="^" horiz-adv-x="1157" d="M16 707l512 763h222l268 -763h-311l-129 403q-42 -65 -128 -202t-128 -201h-306z" />
<glyph unicode="_" horiz-adv-x="1112" d="M8 -268l27 162h1067l-27 -162h-1067z" />
<glyph unicode="`" horiz-adv-x="1009" d="M166 1532h319l258 -313h-276z" />
<glyph unicode="a" horiz-adv-x="1148" d="M61 537q38 248 175.5 405.5t341.5 157.5q173 0 243 -101l13 74h268l-170 -1073h-197l-33 117q-61 -71 -142 -108.5t-169 -37.5q-104 0 -179 42.5t-112.5 118t-49 179.5t10.5 226zM336 539q-24 -147 13 -236.5t140 -89.5q80 0 139 47t88.5 119t39.5 164q52 317 -162 317 q-101 0 -168 -88.5t-90 -232.5z" />
<glyph unicode="b" horiz-adv-x="1253" d="M27 0l231 1470h287l-76 -483q119 113 307 113q217 0 309.5 -154.5t51.5 -410.5q-26 -161 -98 -287.5t-188.5 -201.5t-260.5 -75q-192 0 -281 135q-9 -12 -24.5 -33.5t-28.5 -39.5t-23 -33h-206zM391 532q-50 -319 176 -319q112 0 181 88.5t92 233.5q24 149 -16.5 237 t-151.5 88q-124 0 -194 -90.5t-87 -237.5z" />
<glyph unicode="c" horiz-adv-x="1126" d="M82 535q19 122 68 224.5t124 178.5t180 119t230 43q105 0 186.5 -34.5t128 -93.5t65 -134t5.5 -158h-283q13 178 -145 178q-211 0 -262 -321q-54 -322 160 -322q80 0 134 47.5t75 132.5h286q-38 -189 -178.5 -305.5t-355.5 -116.5q-103 0 -183 28t-130 78.5t-80.5 120.5 t-34 154.5t9.5 180.5z" />
<glyph unicode="d" horiz-adv-x="1253" d="M55 537q26 162 97 287.5t188.5 200.5t263.5 75q183 0 262 -101l74 471h287l-232 -1470h-211l-36 117q-134 -146 -332 -146q-147 0 -238.5 74.5t-120 200t-2.5 291.5zM350 539q-23 -148 17.5 -237t150.5 -89q64 0 113.5 24.5t82 69t52.5 98t31 119.5q32 151 -9.5 243.5 t-164.5 92.5q-108 0 -178.5 -88t-94.5 -233z" />
<glyph unicode="e" horiz-adv-x="1173" d="M84 532q40 256 202.5 412t403.5 156q234 0 338.5 -149t65.5 -398l-7 -35q-1 -8 -6 -32.5t-6 -32.5h-717q-12 -115 36 -182.5t157 -67.5q161 0 215 139h278q-52 -181 -195 -276t-335 -95q-165 0 -272 71.5t-145.5 196.5t-12.5 293zM393 655h434q23 219 -176 219 q-103 0 -170.5 -61t-87.5 -158z" />
<glyph unicode="f" horiz-adv-x="776" d="M41 838l37 235h170l8 55q27 172 143.5 267.5t286.5 95.5q114 0 215 -29l-57 -225q-73 18 -148 18q-60 0 -100.5 -31.5t-50.5 -93.5l-8 -57h262l-37 -235h-262l-133 -838h-289l133 838h-170z" />
<glyph unicode="g" horiz-adv-x="1202" d="M-4 -164q9 64 49.5 121.5t99.5 93.5q-40 28 -58.5 78.5t-10.5 99.5q21 134 153 213q-82 99 -59 258q15 94 62 169.5t115 124.5t152 75.5t175 26.5q140 0 231 -64q23 10 38.5 29.5t23 41t14.5 54.5v21h215q2 -20 -6 -80q-11 -66 -52.5 -122t-107.5 -89q33 -99 19 -189 q-19 -119 -94.5 -209.5t-181.5 -136t-224 -45.5q-93 0 -166 27q-46 -32 -51 -64q-5 -37 22 -51t72 -14h174q49 0 85 -2t84.5 -8.5t90.5 -22.5t74 -41q118 -88 90 -260q-13 -82 -54.5 -146.5t-98 -104.5t-129.5 -66t-144 -36t-147 -10q-68 0 -133 9t-130 33t-110.5 59.5 t-69 94t-12.5 132.5zM244 -135q-5 -30 3 -53t27.5 -37t42 -23.5t53 -14t54 -6t51.5 -1.5q31 0 54.5 1t58.5 5t61.5 13t52.5 23.5t42.5 38t21.5 54.5q4 25 -2.5 44t-17 31.5t-32 21t-38.5 13t-45.5 6.5t-43.5 2.5t-42 0.5h-197q-39 -13 -68.5 -45t-35.5 -74zM434 700 q-12 -81 28 -132.5t120 -51.5t136 51.5t68 132.5q12 82 -26.5 134.5t-118.5 52.5t-137.5 -53t-69.5 -134z" />
<glyph unicode="h" horiz-adv-x="1212" d="M23 0l231 1470h287l-80 -503q133 133 315 133q179 0 256.5 -102t46.5 -289l-110 -709h-289l104 662q15 96 -15 140t-110 44q-99 0 -169.5 -71.5t-86.5 -170.5l-94 -604h-286z" />
<glyph unicode="i" horiz-adv-x="565" d="M20 0l170 1073h291l-170 -1073h-291zM203 1192l43 276h301l-43 -276h-301z" />
<glyph unicode="j" horiz-adv-x="575" d="M-260 -373q54 195 61 234q89 -17 127 -17q110 0 127 113l176 1116h289l-180 -1139q-26 -167 -124.5 -253.5t-258.5 -86.5h-20q-89 0 -197 33zM244 1194l43 276h301l-43 -276h-301z" />
<glyph unicode="k" horiz-adv-x="1181" d="M25 0l231 1470h285l-123 -778q250 212 446 381h357l-457 -397q15 -33 133 -290.5t178 -385.5h-321l-219 492l-173 -148l-53 -344h-284z" />
<glyph unicode="l" horiz-adv-x="581" d="M16 0l232 1470h289l-232 -1470h-289z" />
<glyph unicode="m" horiz-adv-x="1802" d="M55 0l170 1073h178l64 -135q134 162 326 162q115 0 181 -40t89 -124q143 164 350 164q169 0 241.5 -98.5t41.5 -284.5l-113 -717h-287l107 668q15 98 -10.5 141t-96.5 43q-78 0 -149.5 -71.5t-85.5 -159.5l-98 -621h-287l106 668q15 98 -10 141t-96 43q-78 0 -150 -73 t-86 -165l-98 -614h-287z" />
<glyph unicode="n" horiz-adv-x="1212" d="M51 0l170 1073h195l45 -135q68 83 158.5 123.5t187.5 40.5q178 0 255.5 -102t47.5 -291l-113 -709h-288l104 662q15 96 -15 140t-110 44q-56 0 -103.5 -26t-79 -70.5t-52 -97t-29.5 -111.5l-86 -541h-287z" />
<glyph unicode="o" horiz-adv-x="1214" d="M86 537q40 258 202 410.5t406 152.5q249 0 361 -153t73 -410q-40 -257 -203 -411.5t-409 -154.5q-250 0 -361 153t-69 413zM381 537q-52 -322 174 -322q225 0 279 322q49 321 -177 321q-118 0 -186 -88.5t-90 -232.5z" />
<glyph unicode="p" horiz-adv-x="1253" d="M23 -395l231 1468h209l39 -119q65 71 152 108.5t182 37.5q145 0 236 -75t120 -200t4 -288q-26 -163 -97 -289.5t-189 -201.5t-265 -75q-79 0 -148.5 27.5t-113.5 77.5l-74 -471h-286zM453 547q-56 -336 174 -336q109 0 178 87.5t92 233.5q25 151 -14 238.5t-152 87.5 q-121 0 -188.5 -84.5t-89.5 -226.5z" />
<glyph unicode="q" horiz-adv-x="1253" d="M115 539q25 159 97.5 285t189.5 201t260 75q198 0 278 -133q5 9 31 48.5t35 57.5h219l-232 -1468h-288l75 479q-119 -113 -305 -113q-148 0 -239 72.5t-119.5 198.5t-1.5 297zM412 537q-14 -96 -5 -168t52.5 -114t118.5 -42q230 0 282 328q52 319 -176 319 q-109 0 -179 -87.5t-93 -235.5z" />
<glyph unicode="r" horiz-adv-x="833" d="M51 0l170 1073h180l60 -145q60 80 144 119.5t173 39.5q52 0 107 -10l-62 -272q-48 16 -110 16q-111 0 -188 -67.5t-95 -173.5l-90 -580h-289z" />
<glyph unicode="s" horiz-adv-x="1083" d="M33 358h274q-6 -86 43.5 -122.5t141.5 -36.5q93 0 145 24.5t61 83.5q3 21 -1 37.5t-18 28.5t-28 19.5t-42.5 14t-47.5 9.5t-57 8q-13 2 -37.5 6t-38.5 6q-152 21 -238.5 109t-66.5 211q17 108 90 187t180.5 118t235.5 39q210 0 317 -101.5t82 -261.5l-266 -2 q2 70 -40 108t-124 38q-85 0 -138 -28t-61 -75q-7 -46 22 -68t93 -32q139 -22 219 -42.5t148 -59t89.5 -100.5t6.5 -154q-27 -173 -166.5 -262t-355.5 -89q-94 0 -173 22.5t-140.5 67t-91 121t-17.5 176.5z" />
<glyph unicode="t" horiz-adv-x="796" d="M43 838l37 235h178l31 191l309 135l-51 -326h254l-37 -235h-254l-78 -488q-10 -65 13 -93t79 -28q51 0 150 15l-17 -230q-117 -32 -231 -32q-171 0 -242 87.5t-43 266.5l80 502h-178z" />
<glyph unicode="u" horiz-adv-x="1204" d="M98 362l113 711h289l-105 -663q-15 -96 16 -141.5t111 -45.5q98 0 164.5 73t81.5 171l96 606h289l-170 -1073h-186l-56 131q-131 -162 -335 -162q-179 0 -258 101.5t-50 291.5z" />
<glyph unicode="v" horiz-adv-x="1107" d="M84 1073h322l129 -713q57 118 173.5 356.5t172.5 356.5h311l-576 -1073h-292z" />
<glyph unicode="w" horiz-adv-x="1581" d="M109 1073h299l47 -665q53 117 156.5 339.5t146.5 317.5h243l95 -655q47 126 136.5 357.5t117.5 305.5h290l-458 -1073h-271l-100 674q-89 -191 -309 -674h-269z" />
<glyph unicode="x" horiz-adv-x="1089" d="M-84 0l467 549q-173 327 -281 524h336l154 -311q42 51 128 155.5t128 155.5h313l-440 -518q23 -46 124.5 -248t155.5 -307h-329l-166 340q-51 -65 -145.5 -182t-127.5 -158h-317z" />
<glyph unicode="y" horiz-adv-x="1124" d="M-10 -367l65 234q72 -33 131 -33q85 0 142 105l55 96q-44 170 -133 519t-133 519h327l140 -704q58 117 175.5 352t174.5 352h307l-627 -1153q-34 -65 -63 -110t-67 -89t-78 -70.5t-92.5 -42.5t-114.5 -16q-65 0 -183 33z" />
<glyph unicode="z" horiz-adv-x="1030" d="M-6 0l33 219l622 619h-516l37 235h877l-35 -225l-617 -615h533l-37 -233h-897z" />
<glyph unicode="{" horiz-adv-x="729" d="M10 520l39 234q58 0 97.5 12.5t65 41.5t40 68.5t24.5 100.5l37 242q26 159 132 244t274 85h123l-35 -223h-90q-140 0 -158 -129l-51 -326q-15 -75 -62.5 -138t-126.5 -95q68 -32 96 -96t17 -138l-51 -325q-9 -64 18.5 -96.5t98.5 -32.5h90l-35 -223h-123 q-168 0 -246.5 85t-52.5 244l37 242q20 118 -13.5 170.5t-144.5 52.5z" />
<glyph unicode="|" horiz-adv-x="557" d="M6 -274l289 1822h254l-289 -1822h-254z" />
<glyph unicode="}" horiz-adv-x="729" d="M-117 -274l35 223h88q140 0 158 129l51 325q15 75 63 138.5t128 95.5q-70 32 -98 95.5t-17 137.5l51 326q9 64 -18.5 96.5t-98.5 32.5h-90l35 223h123q168 0 246.5 -85t52.5 -244l-37 -242q-20 -121 12.5 -172t145.5 -51l-39 -234q-111 0 -159.5 -52t-68.5 -171l-36 -242 q-26 -159 -132 -244t-274 -85h-121z" />
<glyph unicode="~" horiz-adv-x="1304" d="M70 537q66 165 166 248t245 83q54 0 109 -21t92 -45.5t82.5 -45.5t83.5 -21q53 0 98.5 35.5t77.5 95.5l211 -102q-140 -330 -416 -330q-55 0 -111 21.5t-93.5 47t-82.5 47t-81 21.5q-53 0 -98.5 -37.5t-76.5 -99.5q-57 30 -103.5 52.5t-68.5 33t-34 17.5z" />
<glyph unicode="&#xa1;" horiz-adv-x="620" d="M31 -401l211 1013h217l-125 -1013h-303zM215 739l51 316h293l-51 -316h-293z" />
<glyph unicode="&#xa2;" d="M127 723q37 228 166 377.5t342 177.5l31 186h147l-31 -184q116 -13 195 -74t111.5 -149t25.5 -195l-287 2q14 137 -84 168l-96 -614q55 18 92 64.5t49 107.5h287q-38 -168 -160 -283.5t-307 -136.5l-30 -182h-148l31 184q-142 18 -226 96t-107.5 192t-0.5 263zM418 727 q-39 -247 82 -305l96 606q-140 -52 -178 -301z" />
<glyph unicode="&#xa3;" horiz-adv-x="1196" d="M-4 0q3 27 18 115l19 112q85 37 120.5 93.5t53.5 168.5q2 12 8.5 54.5t9.5 70.5h-151l37 234h139q4 23 7.5 78t8.5 86q33 210 174 326t336 116q104 0 181 -33t120 -90.5t60.5 -130t9.5 -156.5l-268 3q3 161 -136 161q-85 0 -134.5 -49.5t-63.5 -134.5q-16 -127 -17 -145 q3 -14 0 -31h355l-37 -234h-340q-4 -23 -10.5 -75t-12 -84t-16.5 -73.5t-29.5 -72.5t-44.5 -53h633l-41 -256h-989z" />
<glyph unicode="&#xa4;" horiz-adv-x="1241" d="M-8 463l59 184h121q2 16 8 49.5t10 65.5h-153l61 184h142q36 105 94 193.5t137.5 160t186.5 112t229 40.5q168 0 263 -71.5t136 -211.5q-174 -110 -211 -133q-43 82 -97 120t-138 38q-103 0 -185 -67t-125 -181h447q-16 -31 -44.5 -94t-41.5 -90h-414l-16 -115h389 q-45 -110 -84 -184h-313q9 -110 69.5 -175t161.5 -65q93 0 166.5 44t120.5 124l182 -112l-6 -9q-79 -148 -202.5 -224.5t-303.5 -76.5q-120 0 -212 37.5t-148.5 105.5t-86 156t-32.5 195h-170z" />
<glyph unicode="&#xa5;" d="M55 299l31 193h330l22 141h-329l28 190h209q-40 106 -119.5 306t-113.5 290h309q104 -280 203 -553q61 91 186 276.5t186 276.5h299l-157 -225q-48 -66 -135 -190t-127 -181h221l-29 -190h-342l-22 -141h342l-31 -193h-342l-47 -299h-289l47 299h-330z" />
<glyph unicode="&#xa6;" horiz-adv-x="577" d="M14 -176l111 698h278l-110 -698h-279zM176 846l107 680h278l-106 -680h-279z" />
<glyph unicode="&#xa7;" horiz-adv-x="1134" d="M33 41h268q-12 -178 156 -178q81 0 127.5 32t54.5 87q13 80 -68 116q-51 32 -147 88q-41 24 -61 36t-55 34t-52 35.5t-44 35t-40 38.5t-30.5 40.5t-24.5 46t-13.5 50t-5.5 57.5t6 64q24 153 207 262q-101 91 -78 248q24 153 164 248.5t330 95.5q102 0 179.5 -32.5 t122.5 -88t65.5 -125t15.5 -148.5h-266q13 78 -27.5 119t-126.5 41q-83 0 -128.5 -30.5t-53.5 -84.5q-6 -40 9 -67t65 -49q52 -34 149 -93q80 -48 117 -72t88.5 -66t71.5 -76.5t31.5 -85t2.5 -109.5q-28 -175 -211 -283q101 -90 76 -245q-26 -161 -158.5 -255t-322.5 -94 q-97 0 -172.5 23.5t-129.5 71.5t-78 127.5t-13 185.5zM362 645q-4 -31 1 -58t25.5 -53.5t37.5 -44.5t57.5 -45t62.5 -40t75 -44h2q18 -7 26 -12q121 26 135 129q9 50 -16.5 88.5t-89.5 79.5q-166 106 -189 123q-49 -13 -83.5 -44.5t-43.5 -78.5z" />
<glyph unicode="&#xa8;" horiz-adv-x="702" d="M-12 1272l41 270h268l-43 -270h-266zM397 1272l43 270h271l-43 -270h-271z" />
<glyph unicode="&#xa9;" horiz-adv-x="1652" d="M96 729q34 215 157 385t304 263t387 93q157 0 284 -54.5t207.5 -151t113.5 -235t7 -300.5q-35 -217 -158 -387.5t-303 -263t-386 -92.5q-213 0 -365 93t-218 262.5t-30 387.5zM293 729q-40 -252 83 -407.5t361 -155.5q234 0 408.5 157t214.5 406q38 249 -86 405t-359 156 q-238 0 -411 -156t-211 -405zM442 725q30 182 154 299t307 117q154 0 240 -93.5t63 -232.5l-229 2q0 56 -28 91.5t-81 35.5q-56 0 -98 -32.5t-63.5 -79.5t-30.5 -105q-16 -97 12.5 -159t108.5 -62q56 0 95.5 35t57.5 96h232q-39 -151 -147.5 -238.5t-268.5 -87.5 q-187 0 -270 116t-54 298z" />
<glyph unicode="&#xaa;" horiz-adv-x="626" d="M63 784q21 139 96.5 226.5t188.5 87.5q94 0 135 -56l9 41h147l-94 -596h-109l-18 66q-73 -82 -174 -82q-114 0 -159 86t-22 227zM215 786q-13 -83 7 -131.5t77 -48.5q36 0 62 14t42 42t25.5 56.5t17.5 69.5q27 177 -90 177q-56 0 -92 -49t-49 -130z" />
<glyph unicode="&#xab;" horiz-adv-x="1161" d="M104 567l390 494l186 -129l-283 -365l162 -352l-217 -135zM575 567l388 494l184 -129l-279 -365l164 -354l-221 -133z" />
<glyph unicode="&#xac;" horiz-adv-x="1286" d="M131 578l41 256h997l-92 -576h-270l51 320h-727z" />
<glyph unicode="&#xad;" horiz-adv-x="872" d="M78 487l43 273h670l-43 -273h-670z" />
<glyph unicode="&#xae;" horiz-adv-x="1357" d="M78 885q27 175 127 313.5t248.5 214.5t318.5 76q264 0 406.5 -168.5t101.5 -435.5q-44 -269 -240 -436.5t-458 -167.5q-175 0 -299.5 75t-179 213t-25.5 316zM252 885q-32 -202 65 -324.5t289 -122.5q191 0 329.5 123.5t170.5 323.5q31 202 -67.5 325t-290.5 123 q-191 0 -328 -123t-168 -325zM399 594l97 604h239q119 0 172.5 -54t38.5 -147q-19 -119 -115 -170q10 -32 35 -113.5t37 -119.5h-184l-53 197h-70l-31 -197h-166zM621 938h77q67 0 76 59q5 28 -11 41t-54 13h-72z" />
<glyph unicode="&#xaf;" horiz-adv-x="702" d="M23 1280l36 231h619l-37 -231h-618z" />
<glyph unicode="&#xb0;" horiz-adv-x="817" d="M76 1143q22 138 128.5 230.5t254.5 92.5q145 0 224.5 -92.5t57.5 -230.5q-23 -144 -134 -237t-253 -93t-221.5 94t-56.5 236zM279 1143q-9 -59 20 -97t86 -38q54 0 97.5 38.5t52.5 96.5q9 56 -21.5 92.5t-85.5 36.5q-57 0 -98.5 -36t-50.5 -93z" />
<glyph unicode="&#xb1;" horiz-adv-x="2770" d="M82 541l39 250h405l70 428h260l-70 -428h408l-39 -250h-407l-70 -445h-260l69 445h-405zM928 -12l790 1503h258l-790 -1503h-258zM1649 541l41 256h1003l-41 -256h-1003z" />
<glyph unicode="&#xb2;" horiz-adv-x="604" d="M-27 684l19 123q7 6 32 28.5t61.5 56t66.5 60.5q123 114 133 121q69 59 103 100.5t40 83.5q8 42 -14.5 70.5t-67.5 28.5q-98 0 -135 -117h-160q31 114 111 187t209 73q119 0 179.5 -64t43.5 -173q-11 -71 -56 -133t-130 -134q-45 -36 -99 -90q-15 -14 -35.5 -33t-32 -29 t-16.5 -14h303l-22 -145h-533z" />
<glyph unicode="&#xb3;" horiz-adv-x="604" d="M0 942h158q-8 -121 100 -121q52 0 88 26.5t43 78.5q17 104 -104 104h-74l22 139h78q102 0 117 93q6 39 -15.5 65.5t-68.5 26.5q-105 0 -137 -107h-154q19 106 106 175t208 69q117 0 176.5 -61t44.5 -156q-8 -52 -40.5 -97t-82.5 -69q49 -27 71 -76t13 -104 q-17 -114 -100 -180t-211 -66q-130 0 -189.5 74.5t-48.5 185.5z" />
<glyph unicode="&#xb4;" horiz-adv-x="649" d="M43 1305l367 313l143 -170l-393 -266z" />
<glyph unicode="&#xb5;" horiz-adv-x="1261" d="M109 188v1080h1079v-1080h-1079zM164 717q0 -16 8.5 -29.5t24.5 -13.5q17 0 25.5 11t8.5 22q0 14 -10 14t-10 -8q0 -5 3 -9t3 -6q0 -18 -20 -18q-10 0 -16.5 11.5t-6.5 25.5q0 34 34 52.5t66 18.5q11 0 11 -26l6 -119q0 -4 4 -4q23 0 61 76q0 -1 2 -33.5t2 -38.5 q0 -4 11 -4q35 17 52 55.5t17 59.5q0 39 -8 39q-16 0 -16 -5q0 -4 4 -4q6 0 6 -34q0 -26 -11 -49.5t-22 -34.5t-14 -11q-4 0 -4 13l-4 116q2 2 2 4q0 7 -4 7t-8.5 -2.5t-6.5 -5.5l-2 -3q4 -45 4 -49q0 -10 -22 -41.5t-27 -31.5q-2 0 -2 20.5t-1.5 52t-4.5 51.5q-3 11 -16 11 q-57 0 -88 -25t-31 -55zM432 670q0 -9 2 -13q0 -5 8 -12.5t21 -7.5q3 0 6.5 0.5t11 3.5t13 8.5t10 17.5t4.5 29q0 35 -27 35q-7 0 -16.5 -3t-21 -18t-11.5 -40zM449 668v4q0 51 22 51h2q19 0 19 -33v-2q0 -15 -7 -30t-18 -15q-18 0 -18 25zM514 707l4 -9l4 4v7q0 8 10 8 q5 0 8 -10t3 -15q0 -12 -4 -26t-4 -25l4 -4q14 0 14 8v2q0 17 3 32.5t6.5 24.5t6.5 9h2q8 -4 9 -4q3 0 5 2t3 4v2q0 5 -5.5 9.5t-9.5 4.5q-9 0 -12 -15.5t-6 -15.5q-1 0 -2.5 8t-5 15.5t-8.5 7.5q-6 0 -15.5 -8.5t-9.5 -15.5zM582 664q0 -27 22 -27q12 0 19.5 5.5t11 11 t6.5 5.5v-8q0 -16 12 -16q9 0 17 8t10 16l-4 5q-4 0 -4 -9q0 -8 -10 -8q-7 0 -7 12q0 9 1.5 20t3 24t2.5 22v6q1 8 5.5 29t4.5 31q0 4 -6 4q-33 0 -33 -9q0 -4 4 -4q4 2 8 2q8 0 8 -6q0 -11 -3.5 -35t-4.5 -24t-2 2.5t-4.5 5t-9.5 2.5q-18 0 -32.5 -19t-14.5 -46zM598 668 q0 14 4 27t11.5 20.5t15.5 7.5q12 0 12 -23v-12q0 -9 -7 -25t-22 -16q-14 0 -14 21zM686 655q0 -18 27 -18q32 0 32 27q0 11 -19 27.5t-19 21.5q0 8 10 8q7 0 11 -4t7 -4q8 0 8 6q0 10 -14 10h-2q-12 0 -22.5 -6t-10.5 -18q0 -13 19.5 -26t19.5 -24q0 -5 -5.5 -8.5 t-10.5 -3.5q-17 0 -17 8v2q0 9 -8 9q-6 0 -6 -7zM750 786q0 -2 6 -2h8q6 0 6 -8q0 -7 -1 -16t-2.5 -20t-2.5 -17v-2q-4 -42 -8 -59l-4 -21q0 -2 12 -2q6 0 6 4v16l2 8q2 8 4.5 16t6.5 16.5t9 14t11 5.5t9.5 -3.5t3.5 -7.5l1 -3q0 -11 -6 -33.5t-6 -30.5q0 -10 10 -10 q12 0 18.5 3.5t10.5 14.5l2 4q0 4 -4 4q-4 -2 -4 -6q-3 -10 -11 -10q-6 0 -6 6q0 1 2.5 11.5t5 24.5t2.5 24q0 3 -1.5 8t-7.5 10.5t-15 5.5q-7 0 -13.5 -4.5t-9 -9t-2.5 -6.5l-4 -4h-2q1 4 4 32t6 41q2 4 2 11q0 4 -6 4q-32 0 -32 -9zM852 664q0 -27 22 -27q11 0 31 20 q2 0 2 -4v-8q0 -8 11 -8q8 0 17 6.5t9 13.5q0 5 -4 5q-2 0 -6 -8.5t-8 -8.5q-6 0 -6 14q0 10 2.5 22.5t5.5 24t4 15.5q0 1 1 2t1 2q0 2 -6 2h-2q-9 0 -11 -8q0 -2 -2 -2l-5 6q-4 6 -9 6q-19 0 -41 -33q-6 -18 -6 -32zM868 666q0 44 27 57q14 0 14 -27q0 -22 -8.5 -35.5 t-19.5 -13.5q-13 0 -13 19zM934 610q0 -10 33 -10q14 0 14 6q-2 2 -4 2h-6q-6 0 -6 8q0 25 4 25q1 0 6 -2t14 -2q14 0 26.5 17.5t12.5 35.5q0 16 -9.5 27.5t-23.5 11.5q-8 -2 -14 -2l-2 2q0 7 2 18t2 13l-4 4h-6v-2q-6 0 -6 -6l-2 -19v-6q0 -8 -7 -10q-22 -13 -22 -23 q0 -4 4 -4q1 0 8 7.5t8 7.5q0 4 5 4l2 -2l-11 -76q0 -23 -8 -23h-8q-2 0 -2 -2zM971 657v5q0 10 2.5 26t3.5 21v8q0 4 10 4t17.5 -9.5t7.5 -23.5q0 -15 -6 -30t-19 -15q-6 0 -10 3.5t-5 6t-1 4.5zM1034 668q0 -9 3.5 -15.5t6.5 -9t5 -2.5q8 -4 20 -4q8 0 20.5 5.5t12.5 14.5 q0 5 -4 5t-4 -5q-7 -14 -23 -14q-7 0 -13.5 6t-6.5 19q0 4 4 4h2q9 0 23 11t14 28q0 18 -19 18q-15 0 -28 -19.5t-13 -41.5zM1051 684q0 35 14 35h2q12 0 12 -14q0 -6 -4.5 -16.5t-13.5 -10.5q-10 0 -10 6z" />
<glyph unicode="&#xb6;" horiz-adv-x="1359" d="M98 1016q25 162 141.5 279t292.5 143h734l-205 -1286h-254l170 1071h-164l-170 -1071h-254l68 426q-200 12 -294 136t-65 302z" />
<glyph unicode="&#xb7;" horiz-adv-x="573" d="M90 512l55 340h318l-55 -340h-318z" />
<glyph unicode="&#xb8;" horiz-adv-x="579" d="M68 -414l229 320h217l-231 -426z" />
<glyph unicode="&#xb9;" horiz-adv-x="604" d="M221 1235l25 164l205 125h131l-121 -766h-158l92 579q-107 -61 -174 -102z" />
<glyph unicode="&#xba;" horiz-adv-x="782" d="M86 756q23 155 122 247.5t247 92.5q151 0 218.5 -92t43.5 -248q-25 -155 -123.5 -247.5t-247.5 -92.5q-151 0 -218 91.5t-42 248.5zM264 756q-32 -195 105 -195q136 0 170 195q28 194 -107 194q-72 0 -113.5 -53.5t-54.5 -140.5z" />
<glyph unicode="&#xbb;" horiz-adv-x="1161" d="M45 215l274 352q-26 58 -79 182t-80 183l225 129l227 -494l-387 -487zM518 215l273 352q-28 58 -82.5 182.5t-81.5 182.5l227 129l229 -494l-389 -487z" />
<glyph unicode="&#xbc;" horiz-adv-x="1884" d="M500 0l835 1587h211l-835 -1587h-211zM541 1319l24 154l193 118h123l-115 -721h-148l89 547q-147 -86 -166 -98zM989 172l19 107l401 462h141l-69 -442h92l-21 -127h-92l-24 -162h-148l25 162h-324zM1174 299h159l37 229q-54 -62 -196 -229z" />
<glyph unicode="&#xbd;" horiz-adv-x="2123" d="M518 0l836 1587h213l-836 -1587h-213zM553 1280l27 176l223 137h141l-133 -835h-170l100 633q-33 -21 -104 -62.5t-84 -48.5zM1069 8l18 121q11 10 138.5 126t150.5 136q67 57 101 98t41 82q6 42 -15 69.5t-65 27.5q-96 0 -133 -115h-158q29 112 107 184t206 72 q117 0 176.5 -63.5t42.5 -170.5q-10 -70 -54.5 -130.5t-127.5 -129.5q-2 -2 -18.5 -16.5t-39 -35t-40.5 -38.5q-59 -56 -82 -75h299l-21 -142h-526z" />
<glyph unicode="&#xbe;" horiz-adv-x="1884" d="M246 1024h166q-4 -67 22.5 -98t83.5 -31q55 0 91.5 28t45.5 83q17 110 -110 110h-76l23 148h81q109 0 123 98q6 41 -17 68.5t-73 27.5q-111 0 -143 -112h-162q19 112 111 185t219 73q124 0 187 -64t48 -166q-9 -55 -43.5 -102.5t-87.5 -73.5q52 -27 75.5 -79t12.5 -111 q-19 -121 -105 -189.5t-220 -68.5q-139 0 -202.5 78.5t-49.5 195.5zM418 0l833 1587h211l-833 -1587h-211zM899 188l19 119l458 527h160l-80 -502h105l-23 -144h-104l-29 -184h-168l29 184h-367zM1108 332h180l43 262q-68 -79 -223 -262z" />
<glyph unicode="&#xbf;" horiz-adv-x="1044" d="M-29 -37q20 112 74 189.5t139 142.5q50 37 75.5 57t57.5 51t48 59.5t31 69.5t24 93h285q-12 -75 -32 -134.5t-40 -98t-55.5 -77.5t-60.5 -60t-73 -58h2q-15 -13 -45.5 -37.5t-46 -39t-35.5 -37t-31 -48t-16 -55.5q-11 -68 28.5 -112t119.5 -44q194 0 250 207h282 q-36 -200 -196 -329.5t-383 -129.5q-210 0 -319.5 108.5t-82.5 282.5zM430 733l51 324h299l-51 -324h-299z" />
<glyph unicode="&#xc0;" horiz-adv-x="1316" d="M-147 0l759 1458h301l299 -1458h-323l-53 305h-521q-13 -25 -153 -305h-309zM385 1919h320l260 -313h-277zM442 565h349q-92 498 -95 514q-41 -82 -126.5 -256t-127.5 -258z" />
<glyph unicode="&#xc1;" horiz-adv-x="1316" d="M-158 0l760 1458h301l299 -1458h-323l-54 305h-520q-13 -25 -153 -305h-310zM432 565h348q-8 41 -41.5 228t-52.5 286q-41 -82 -126.5 -256t-127.5 -258zM627 1733l368 313l144 -170l-396 -266z" />
<glyph unicode="&#xc2;" horiz-adv-x="1316" d="M-147 0l759 1458h301l299 -1458h-323l-53 305h-521q-13 -25 -153 -305h-309zM401 1606l330 323h211l223 -323h-258l-92 176q-26 -30 -74.5 -90.5t-70.5 -85.5h-269zM442 565h349q-53 289 -97 514q-200 -410 -252 -514z" />
<glyph unicode="&#xc3;" horiz-adv-x="1316" d="M-145 0l757 1458h301l301 -1458h-323l-55 305h-521q-116 -232 -151 -305h-309zM395 1690q41 105 115 162t170 57q45 0 90 -21.5t83 -43t67 -21.5q33 0 62 21t44 57l154 -72q-39 -106 -114 -163.5t-167 -57.5q-44 0 -88.5 22t-82.5 44t-66 22q-35 0 -64.5 -20.5 t-46.5 -59.5zM442 565h349q-92 498 -95 514q-41 -82 -126.5 -256t-127.5 -258z" />
<glyph unicode="&#xc4;" horiz-adv-x="1316" d="M-143 0l759 1458h302l299 -1458h-324l-53 305h-521q-13 -25 -153 -305h-309zM420 1608l43 270h268l-43 -270h-268zM446 565h349q-53 289 -97 514q-200 -410 -252 -514zM831 1608l43 270h271l-43 -270h-271z" />
<glyph unicode="&#xc5;" horiz-adv-x="1316" d="M-143 0l745 1432q-79 70 -59 194q18 111 100 178.5t186 67.5q106 0 167.5 -67.5t43.5 -178.5q-20 -122 -118 -190l295 -1436h-324l-53 305h-521q-13 -25 -153 -305h-309zM446 565h349q-7 37 -42 225.5t-53 288.5q-41 -82 -126.5 -256t-127.5 -258zM707 1626 q-6 -41 12.5 -64.5t56.5 -23.5q39 0 68 24t35 64q6 42 -14.5 65t-59.5 23t-65.5 -23t-32.5 -65z" />
<glyph unicode="&#xc6;" horiz-adv-x="2058" d="M-117 0l987 1458h1213l-43 -270h-656l-47 -299h588l-43 -271h-588l-55 -348h676l-43 -270h-973l64 397h-488q-24 -38 -118.5 -180t-141.5 -217h-332zM647 662h357l83 526h-94q-60 -90 -173.5 -263t-172.5 -263z" />
<glyph unicode="&#xc7;" horiz-adv-x="1366" d="M133 727q21 127 62 239t106 208.5t149.5 166t197 109t243.5 39.5q162 0 276.5 -69t169 -186t52.5 -271h-306q3 122 -55.5 189t-179.5 67q-90 0 -162 -39.5t-120 -110t-78 -155t-46 -187.5q-12 -79 -13 -149t13.5 -134.5t44 -110t81.5 -73t124 -27.5q122 0 203.5 70.5 t114.5 194.5h303l8 -11q-58 -231 -240.5 -374.5t-431.5 -143.5q-108 0 -196 26.5t-149 75.5t-103.5 118t-61 153t-22 181.5t15.5 203.5zM330 -494l229 320h217l-231 -426z" />
<glyph unicode="&#xc8;" horiz-adv-x="1239" d="M4 0l232 1458h1019l-43 -268h-720l-48 -303h656l-43 -266h-656l-55 -355h727l-43 -266h-1026zM408 1919h319l260 -313h-276z" />
<glyph unicode="&#xc9;" horiz-adv-x="1239" d="M-4 0l229 1458h1020l-43 -268h-721l-47 -303h656l-43 -266h-656l-55 -355h727l-43 -266h-1024zM465 1733l369 313l143 -170l-395 -266z" />
<glyph unicode="&#xca;" horiz-adv-x="1239" d="M4 0l232 1458h1019l-43 -268h-720l-50 -303h656l-41 -266h-656l-57 -355h727l-41 -266h-1026zM362 1606l330 323h211l223 -323h-258l-92 176q-26 -30 -74.5 -90.5t-70.5 -85.5h-269z" />
<glyph unicode="&#xcb;" horiz-adv-x="1239" d="M8 0l232 1458h1020l-43 -268h-721l-47 -303h655l-43 -266h-655l-56 -355h727l-43 -266h-1026zM381 1608l43 270h268l-43 -270h-268zM793 1608l43 270h270l-43 -270h-270z" />
<glyph unicode="&#xcc;" horiz-adv-x="530" d="M-6 1919h317l260 -313h-276zM0 0l229 1458h303l-231 -1458h-301z" />
<glyph unicode="&#xcd;" horiz-adv-x="530" d="M-10 0l229 1458h303l-231 -1458h-301zM233 1733l369 313l143 -170l-395 -266z" />
<glyph unicode="&#xce;" horiz-adv-x="530" d="M0 0l229 1458h303l-231 -1458h-301zM8 1606l330 323h211l223 -323h-258l-92 176q-27 -30 -76 -90.5t-70 -85.5h-268z" />
<glyph unicode="&#xcf;" horiz-adv-x="530" d="M2 0l231 1458h304l-232 -1458h-303zM27 1608l43 270h268l-43 -270h-268zM438 1608l43 270h271l-43 -270h-271z" />
<glyph unicode="&#xd0;" horiz-adv-x="1474" d="M16 639l35 229h146l94 588h557q116 0 208 -25.5t153.5 -72.5t104.5 -112.5t60 -146t19.5 -173t-15.5 -193.5q-20 -126 -60.5 -234t-106.5 -201t-153 -158.5t-206 -102.5t-260 -37h-533l103 639h-146zM403 264h197q98 0 174 25.5t124.5 66t84 103.5t54.5 126.5t32 145.5 q12 76 14 138t-10.5 124t-42 104.5t-87 68.5t-138.5 26h-256l-51 -324h284l-34 -229h-285z" />
<glyph unicode="&#xd1;" horiz-adv-x="1468" d="M6 0l230 1458h288l441 -932l147 932h295l-229 -1458h-285l-444 934l-148 -934h-295zM471 1690q41 105 115 162t170 57q45 0 89.5 -21.5t82.5 -43t67 -21.5q33 0 62.5 21t44.5 57l153 -72q-39 -106 -113.5 -163.5t-166.5 -57.5q-44 0 -89 22t-83 44t-66 22q-75 0 -110 -80 z" />
<glyph unicode="&#xd2;" horiz-adv-x="1460" d="M55 727q21 130 64.5 244t111 209.5t154 164t199 106.5t241.5 38q109 0 197.5 -26.5t151.5 -75.5t107.5 -118t64.5 -153.5t23.5 -183t-15.5 -205.5q-26 -163 -87 -299.5t-154.5 -239.5t-228.5 -161t-298 -58q-108 0 -196.5 26.5t-150.5 75.5t-107 117.5t-65 152.5t-25 182 t13 204zM360 727q-13 -81 -14 -150.5t14 -133.5t46 -109t87.5 -71.5t133.5 -26.5t141.5 26.5t109.5 71.5t80 109t55.5 133.5t33.5 150.5t14.5 150t-12.5 133.5t-45 109.5t-87 72t-135 27q-97 0 -173 -40t-124.5 -112t-78.5 -155t-46 -185zM504 1952h319l260 -314h-276z" />
<glyph unicode="&#xd3;" horiz-adv-x="1460" d="M47 727q26 164 88 301t156.5 241t229 162t294.5 58q109 0 198 -26.5t151.5 -75.5t107.5 -118t65 -153.5t24 -183t-15 -205.5q-21 -130 -64 -243t-109.5 -208.5t-153 -163t-200 -105.5t-244.5 -38q-108 0 -196.5 26.5t-150.5 75.5t-106.5 117.5t-64.5 152.5t-24 182 t14 204zM352 727q-13 -81 -14 -150.5t13.5 -133.5t46 -109t87.5 -71.5t133 -26.5t141.5 26.5t109.5 71.5t80 109t55.5 133.5t33.5 150.5q75 492 -264 492q-79 0 -144 -27t-110.5 -72.5t-80 -110t-55 -133.5t-32.5 -149zM645 1765l367 314l143 -170l-395 -267z" />
<glyph unicode="&#xd4;" horiz-adv-x="1460" d="M55 727q26 163 88 300.5t157.5 241.5t230 162t294.5 58q130 0 231.5 -38t165.5 -106.5t102.5 -163.5t43 -209.5t-13.5 -244.5q-26 -163 -87 -299.5t-154.5 -239.5t-228.5 -161t-298 -58q-108 0 -196.5 26.5t-151 75.5t-107.5 117.5t-65.5 152.5t-24.5 182t14 204z M360 727q-13 -81 -14 -150.5t14 -133.5t46 -109t87.5 -71.5t133.5 -26.5t141.5 26.5t109.5 71.5t80 109t55.5 133.5t33.5 150.5t14.5 150t-12.5 133.5t-45 109.5t-87 72t-135 27q-97 0 -173 -40t-124.5 -112t-78.5 -155t-46 -185zM481 1638l330 324h211l223 -324h-258 l-94 177q-26 -31 -75.5 -93t-67.5 -84h-269z" />
<glyph unicode="&#xd5;" horiz-adv-x="1460" d="M57 727q26 163 88 300.5t157.5 241.5t230 162t294.5 58q130 0 231.5 -38t165.5 -106.5t102.5 -163.5t43 -209.5t-13.5 -244.5q-26 -163 -87 -299.5t-155.5 -239.5t-229.5 -161t-298 -58q-108 0 -196.5 26.5t-151 75.5t-107 117.5t-64.5 152.5t-24 182t14 204zM362 727 q-13 -81 -14 -150.5t14 -133.5t46 -109t87.5 -71.5t133.5 -26.5t141.5 26.5t109.5 71.5t80 109t55.5 133.5t33.5 150.5t14.5 150t-12.5 133.5t-45 109.5t-87 72t-135 27q-97 0 -173 -40t-124.5 -112t-78.5 -155t-46 -185zM475 1722q41 106 115.5 163t169.5 57q45 0 89 -22 t81.5 -43.5t66.5 -21.5q33 0 62.5 21t44.5 57l156 -71q-39 -106 -114 -164t-167 -58q-35 0 -71.5 14t-61.5 30.5t-54.5 30.5t-52.5 14q-75 0 -110 -80z" />
<glyph unicode="&#xd6;" horiz-adv-x="1460" d="M59 727q26 163 88 300.5t157.5 241.5t230 162t294.5 58q130 0 231.5 -38t165.5 -106.5t102.5 -163.5t43 -209.5t-13.5 -244.5q-26 -163 -87 -299.5t-155.5 -239.5t-229.5 -161t-298 -58q-108 0 -196.5 26.5t-151 75.5t-107 117.5t-64.5 152.5t-24 182t14 204zM365 727 q-13 -81 -14 -150.5t13.5 -133.5t46 -109t87.5 -71.5t133 -26.5t141.5 26.5t109.5 71.5t80 109t55.5 133.5t33.5 150.5t14.5 150t-12.5 133.5t-45 109.5t-87 72t-135 27q-78 0 -143 -27t-110 -72.5t-79.5 -110t-55 -133t-33.5 -149.5zM500 1640l43 271h268l-43 -271h-268z M911 1640l43 271h271l-43 -271h-271z" />
<glyph unicode="&#xd7;" horiz-adv-x="1308" d="M72 303l405 350q-52 64 -153 184.5t-140 168.5l201 174l295 -351q57 48 195 168.5t212 182.5l148 -174l-404 -353q47 -57 145.5 -174.5t145.5 -175.5l-200 -176l-297 352q-33 -30 -406 -352z" />
<glyph unicode="&#xd8;" horiz-adv-x="1486" d="M70 -51q18 25 62 89t69 99q-65 71 -96.5 165.5t-30 198.5t19.5 226q26 166 90 304t159.5 241t229 160t291.5 57t269 -57q107 147 108 149q2 -1 41 -27t59 -36l39 -21q-14 -19 -53 -75t-61 -83q73 -77 108.5 -170.5t37 -201.5t-18.5 -240q-27 -165 -89 -302t-156.5 -239.5 t-229 -159.5t-295.5 -57q-157 0 -293 68q-41 -59 -125 -172q-54 39 -135 84zM399 727q-33 -208 2 -315q47 65 139.5 192.5t139.5 192.5q184 262 278 393q-66 29 -137 29q-94 0 -169 -39t-124.5 -109.5t-81 -155.5t-47.5 -188zM504 279q68 -43 162 -43q340 0 419 491 q35 242 -14 344q-43 -64 -274.5 -386.5t-292.5 -405.5z" />
<glyph unicode="&#xd9;" horiz-adv-x="1404" d="M63 580l140 878h301l-139 -878q-54 -344 227 -344q145 0 225 86.5t107 257.5l139 878h303l-139 -880q-46 -295 -222.5 -453t-455.5 -158q-281 0 -406.5 158.5t-79.5 454.5zM473 1919h320l260 -313h-277z" />
<glyph unicode="&#xda;" horiz-adv-x="1404" d="M55 580l140 878h301l-140 -878q-58 -344 226 -344q145 0 224.5 86.5t108.5 257.5l140 878h303l-141 -880q-46 -295 -222.5 -453t-455.5 -158q-281 0 -405.5 158t-78.5 455zM594 1733l367 313l143 -170l-395 -266z" />
<glyph unicode="&#xdb;" horiz-adv-x="1404" d="M63 580l140 878h301l-139 -878q-27 -170 26.5 -257t198.5 -87q146 0 226.5 87t107.5 257l139 878h303l-139 -880q-47 -295 -223 -453t-455 -158q-281 0 -407 158.5t-79 454.5zM449 1606l329 323h211l223 -323h-258l-92 176q-23 -26 -71.5 -86.5t-73.5 -89.5h-268z" />
<glyph unicode="&#xdc;" horiz-adv-x="1404" d="M68 580l139 878h301l-139 -878q-27 -170 26.5 -257t198.5 -87q146 0 226.5 87t107.5 257l139 878h303l-139 -880q-47 -295 -223 -453t-455 -158q-281 0 -406.5 158.5t-78.5 454.5zM469 1608l41 270h268l-41 -270h-268zM881 1608l41 270h270l-41 -270h-270z" />
<glyph unicode="&#xdd;" horiz-adv-x="1198" d="M72 1458h327l236 -594q70 100 213 297.5t213 296.5h315l-639 -878l-92 -580h-301l92 580q-60 145 -182 439t-182 439zM506 1733l368 313l144 -170l-395 -266z" />
<glyph unicode="&#xde;" horiz-adv-x="1263" d="M41 0l231 1458h299l-39 -244h224q96 0 173.5 -16.5t130.5 -46t90.5 -72t54 -94t21.5 -111t-7 -124.5q-17 -108 -60 -194t-115 -152t-182.5 -102t-251.5 -36h-227l-43 -266h-299zM424 524h217q134 0 197 56t82 165q16 102 -32 154.5t-181 52.5h-215z" />
<glyph unicode="&#xdf;" horiz-adv-x="1241" d="M45 0l166 1040q33 208 182 327.5t359 119.5q132 0 226 -43.5t138 -130t25 -205.5q-14 -95 -66.5 -170t-138.5 -119q124 -41 173.5 -141.5t25.5 -249.5q-31 -195 -167.5 -320.5t-349.5 -125.5q-114 0 -208 26q5 30 15 70t24.5 92t19.5 72q74 -19 139 -19q106 0 167 59.5 t79 168.5q18 120 -41.5 171.5t-194.5 51.5h-59l37 233h61q168 0 195 174q12 79 -22.5 124.5t-118.5 45.5q-188 0 -228 -241l-159 -1010h-279z" />
<glyph unicode="&#xe0;" horiz-adv-x="1120" d="M29 537q26 162 93.5 287.5t177.5 200.5t247 75q171 0 244 -101l12 74h268l-170 -1073h-196l-33 117q-62 -71 -143.5 -108.5t-168.5 -37.5q-104 0 -178.5 42.5t-112 118t-49.5 179.5t9 226zM297 1497h319l258 -313h-276zM303 539q-23 -147 14 -236.5t140 -89.5 q60 0 107.5 24.5t78 69t49.5 98t29 119.5q18 96 12 171t-50 120t-122 45q-100 0 -167 -88t-91 -233z" />
<glyph unicode="&#xe1;" horiz-adv-x="1120" d="M18 537q26 162 94 287.5t178 200.5t247 75q170 0 243 -101l13 74h268l-170 -1073h-197l-32 117q-62 -71 -143.5 -108.5t-168.5 -37.5q-138 0 -222.5 74.5t-109.5 199.5t0 292zM295 539q-14 -95 -6.5 -167.5t48 -115.5t109.5 -43q60 0 107.5 24.5t78.5 69t50 98t29 119.5 q18 96 12 171t-50 120t-122 45q-101 0 -167 -88.5t-89 -232.5zM436 1311l367 313l143 -170l-393 -266z" />
<glyph unicode="&#xe2;" horiz-adv-x="1120" d="M29 537q26 162 93 287.5t176.5 200.5t246.5 75q173 0 246 -101l10 74h268l-170 -1073h-197l-32 117q-61 -71 -142.5 -108.5t-169.5 -37.5q-104 0 -178.5 42.5t-111.5 118t-48.5 179.5t9.5 226zM252 1184l330 323h211l223 -323h-258l-94 176q-27 -32 -79 -96l-65 -80h-268 zM303 539q-13 -95 -5 -167.5t49 -115.5t110 -43q61 0 109.5 26.5t80 73.5t50.5 104.5t26 125.5q52 317 -162 317q-101 0 -168 -88.5t-90 -232.5z" />
<glyph unicode="&#xe3;" horiz-adv-x="1120" d="M31 537q38 248 175 405.5t341 157.5q174 0 244 -101l12 74h268l-170 -1073h-196l-33 117q-61 -71 -142.5 -108.5t-169.5 -37.5q-104 0 -178.5 42.5t-112 118t-49 179.5t10.5 226zM246 1268q41 106 115 162.5t169 56.5q45 0 89.5 -21.5t82 -43t66.5 -21.5q33 0 63 21 t43 57l156 -72q-39 -106 -113.5 -163.5t-166.5 -57.5q-44 0 -89 22t-83 44t-66 22q-75 0 -113 -80zM305 539q-14 -95 -5.5 -167.5t49.5 -115.5t110 -43q61 0 109.5 26.5t80 73.5t50.5 104.5t26 125.5q52 317 -162 317q-101 0 -168 -88.5t-90 -232.5z" />
<glyph unicode="&#xe4;" horiz-adv-x="1120" d="M33 537q26 162 93 287.5t176.5 200.5t246.5 75q173 0 246 -101l10 74h268l-170 -1073h-196l-33 117q-61 -71 -142.5 -108.5t-169.5 -37.5q-104 0 -178.5 42.5t-111.5 118t-48.5 179.5t9.5 226zM281 1186l43 270h268l-43 -270h-268zM307 539q-13 -95 -5 -167.5t49 -115.5 t110 -43q61 0 109.5 26.5t80 73.5t50.5 104.5t26 125.5q52 317 -162 317q-101 0 -168 -88.5t-90 -232.5zM692 1186l43 270h271l-43 -270h-271z" />
<glyph unicode="&#xe5;" horiz-adv-x="1120" d="M14 537q26 162 93.5 287.5t177.5 200.5t247 75q171 0 244 -101l12 74h269l-170 -1073h-197l-33 117q-128 -146 -311 -146q-138 0 -222.5 74.5t-109.5 199.5t0 292zM289 539q-13 -95 -5 -167.5t48.5 -115.5t109.5 -43q60 0 107.5 24.5t78.5 69t50 98t29 119.5 q18 96 12 171t-50 120t-122 45q-100 0 -167 -88t-91 -233zM406 1430q18 111 100 178t186 67q106 0 167.5 -67t43.5 -178q-17 -111 -99 -177.5t-188 -66.5q-105 0 -166 66.5t-44 177.5zM569 1430q-6 -41 13.5 -65t58.5 -24t66.5 24t33.5 65q7 42 -13.5 65t-59.5 23t-65.5 -23 t-33.5 -65z" />
<glyph unicode="&#xe6;" horiz-adv-x="1800" d="M31 305q11 73 44.5 130.5t73.5 94.5t105 63t115 38.5t130 19t122.5 7.5t119.5 1l11 64q25 154 -134 154q-161 0 -198 -123h-273q49 176 181.5 261t328.5 85q218 0 308 -137q70 66 162 101.5t190 35.5q232 0 334 -149t61 -406l-14 -94h-707q-13 -118 33 -185t154 -67 q148 0 208 141h281q-52 -179 -193 -274t-329 -95q-136 0 -231 49t-134 146q-157 -193 -413 -193q-81 0 -147.5 20.5t-113.5 60t-67.5 104t-7.5 147.5zM315 313q-7 -54 26.5 -81t96.5 -27q110 0 180 67t91 185q-11 0 -29.5 -1t-24.5 -1q-55 -2 -82 -3.5t-69 -5.5t-62 -9.5 t-47 -16t-40 -24.5t-24.5 -35t-15.5 -48zM1026 655h422q11 103 -30 161t-140 58q-102 0 -165.5 -59.5t-86.5 -159.5z" />
<glyph unicode="&#xe7;" horiz-adv-x="1099" d="M125 535q15 97 49 182.5t87 155.5t121.5 120.5t156.5 78.5t188 28q71 0 131.5 -16t104 -44.5t77.5 -67.5t50.5 -85.5t23 -99t-3.5 -107.5h-283q8 85 -27 131.5t-116 46.5q-213 0 -264 -321q-50 -322 160 -322q81 0 135 48t73 132h287q-18 -92 -62.5 -169t-110.5 -133.5 t-158 -88t-201 -31.5q-103 0 -183.5 28t-130.5 78.5t-80 120.5t-33.5 154.5t9.5 180.5zM231 -451l228 320h217l-230 -426z" />
<glyph unicode="&#xe8;" horiz-adv-x="1136" d="M53 532q40 256 202.5 412t403.5 156q234 0 338.5 -149t65.5 -398l-6 -35q-1 -8 -6.5 -32.5t-6.5 -32.5h-716q-14 -115 33.5 -182.5t156.5 -67.5q161 0 215 139h279q-51 -181 -194 -276t-335 -95q-248 0 -359.5 153t-70.5 408zM305 1497h320l258 -313h-277zM360 655h435 q12 103 -31 161t-146 58t-170 -61t-88 -158z" />
<glyph unicode="&#xe9;" horiz-adv-x="1136" d="M43 532q40 256 202.5 412t403.5 156q234 0 338.5 -149t65.5 -398l-6 -35q-1 -8 -6.5 -32.5t-6.5 -32.5h-717q-14 -114 35 -182t158 -68q162 0 213 139h278q-51 -181 -193.5 -276t-334.5 -95q-165 0 -272 71.5t-145.5 196.5t-12.5 293zM352 655h434q23 219 -176 219 q-103 0 -170.5 -61t-87.5 -158zM485 1311l367 313l143 -170l-393 -266z" />
<glyph unicode="&#xea;" horiz-adv-x="1136" d="M53 532q39 256 201 412t403 156q234 0 338.5 -149t65.5 -398l-6 -35q-3 -26 -13 -65h-716q-12 -115 35.5 -182.5t156.5 -67.5q161 0 215 139h279q-52 -181 -195.5 -276t-335.5 -95q-248 0 -358.5 153t-69.5 408zM281 1184l329 323h211l223 -323h-258l-94 176 q-27 -31 -76.5 -93.5t-66.5 -82.5h-268zM360 655h435q11 104 -32 161.5t-145 57.5q-103 0 -170 -61t-88 -158z" />
<glyph unicode="&#xeb;" horiz-adv-x="1136" d="M57 532q40 256 202 412t403 156q234 0 338 -149t65 -398l-6 -35q-4 -34 -12 -65h-717q-12 -115 35.5 -182.5t156.5 -67.5q161 0 215 139h279q-51 -181 -195 -276t-336 -95q-248 0 -358.5 153t-69.5 408zM299 1186l43 270h268l-43 -270h-268zM365 655h434q23 219 -176 219 q-103 0 -170 -61t-88 -158zM711 1186l43 270h270l-43 -270h-270z" />
<glyph unicode="&#xec;" horiz-adv-x="497" d="M-39 1466h318l260 -313h-277zM20 0l170 1073h291l-170 -1073h-291z" />
<glyph unicode="&#xed;" horiz-adv-x="497" d="M10 0l170 1073h291l-170 -1073h-291zM162 1280l366 313l144 -170l-396 -266z" />
<glyph unicode="&#xee;" horiz-adv-x="497" d="M-41 1153l328 324h211l223 -324h-258l-94 176q-27 -32 -79 -96l-65 -80h-266zM18 0l170 1073h291l-170 -1073h-291z" />
<glyph unicode="&#xef;" horiz-adv-x="497" d="M-23 1155l41 270h269l-43 -270h-267zM23 0l170 1073h290l-170 -1073h-290zM387 1155l43 270h270l-43 -270h-270z" />
<glyph unicode="&#xf0;" horiz-adv-x="1206" d="M49 502q40 248 193.5 397.5t378.5 149.5q95 0 135 -35q-29 119 -113 174q-36 -14 -109.5 -41t-93.5 -35q-19 78 -39 143l113 41q-58 48 -113 80l185 123q92 -43 184 -104q20 7 80.5 27.5t91.5 33.5q14 -58 39 -143q-59 -20 -92 -33q119 -128 182 -309q59 -174 21 -412 q-42 -268 -205 -428t-408 -160q-161 0 -267.5 68.5t-146.5 187.5t-16 275zM344 510q-11 -60 -6 -114t22.5 -94.5t58 -64.5t99.5 -24q114 0 182 84t88 217q51 297 -182 297q-109 0 -174.5 -83.5t-87.5 -217.5z" />
<glyph unicode="&#xf1;" horiz-adv-x="1179" d="M20 0l170 1073h195l47 -135q66 83 156.5 123.5t187.5 40.5q178 0 255.5 -102t47.5 -291l-112 -709h-289l104 662q15 96 -15 140t-110 44q-56 0 -103.5 -26t-79 -70.5t-52 -97t-29.5 -111.5l-86 -541h-287zM295 1268q41 105 115 162t170 57q45 0 89 -21.5t81.5 -43 t66.5 -21.5q33 0 63.5 21t43.5 57l155 -72q-39 -106 -113.5 -163.5t-166.5 -57.5q-44 0 -89 22t-83 44t-66 22q-35 0 -65 -20.5t-47 -59.5z" />
<glyph unicode="&#xf2;" horiz-adv-x="1177" d="M53 537q42 258 205 410.5t406 152.5q167 0 274 -71.5t146 -197.5t12 -294q-40 -257 -203 -411.5t-408 -154.5q-250 0 -361.5 152.5t-70.5 413.5zM305 1497h320l258 -313h-277zM348 537q-52 -322 174 -322q229 0 279 322q13 67 9 125.5t-21.5 102t-59 68.5t-104.5 25 q-118 0 -185.5 -88t-91.5 -233z" />
<glyph unicode="&#xf3;" horiz-adv-x="1177" d="M43 537q42 258 204.5 410.5t405.5 152.5q167 0 274 -71.5t146 -197.5t12 -294q-40 -258 -202.5 -412t-407.5 -154q-250 0 -360.5 152.5t-71.5 413.5zM338 537q-52 -322 176 -322q227 0 277 322q13 67 9 125.5t-22 102t-59.5 68.5t-104.5 25q-118 0 -185 -88t-91 -233z M485 1311l367 313l143 -170l-393 -266z" />
<glyph unicode="&#xf4;" horiz-adv-x="1177" d="M53 537q40 258 202.5 410.5t406.5 152.5q250 0 362.5 -153.5t71.5 -409.5q-40 -257 -203.5 -411.5t-409.5 -154.5q-250 0 -360.5 152.5t-69.5 413.5zM301 1184l330 323h211l223 -323h-258l-94 176q-27 -32 -79 -96l-65 -80h-268zM348 537q-52 -322 174 -322 q225 0 279 322q13 67 9 125.5t-21.5 102t-59 68.5t-104.5 25q-61 0 -110 -25t-82 -70t-53.5 -101t-31.5 -125z" />
<glyph unicode="&#xf5;" horiz-adv-x="1177" d="M55 537q40 258 202.5 410.5t406.5 152.5q249 0 361 -153t73 -410q-42 -258 -205 -412t-408 -154q-250 0 -361 153t-69 413zM295 1268q41 105 115 162t170 57q45 0 89 -21.5t81.5 -43t66.5 -21.5q33 0 63.5 21t43.5 57l155 -72q-39 -106 -113.5 -163.5t-166.5 -57.5 q-44 0 -89 22t-83 44t-66 22q-74 0 -112 -80zM350 537q-52 -322 174 -322q225 0 279 322q49 321 -178 321q-118 0 -185.5 -88t-89.5 -233z" />
<glyph unicode="&#xf6;" horiz-adv-x="1177" d="M57 537q40 258 202.5 410.5t406.5 152.5q250 0 362.5 -153.5t71.5 -409.5q-40 -257 -203.5 -411.5t-409.5 -154.5q-250 0 -360.5 152.5t-69.5 413.5zM319 1186l43 270h269l-43 -270h-269zM352 537q-52 -322 174 -322q225 0 279 322q13 67 9 125.5t-21.5 102t-59 68.5 t-104.5 25q-118 0 -185.5 -88t-91.5 -233zM731 1186l43 270h270l-43 -270h-270z" />
<glyph unicode="&#xf7;" horiz-adv-x="1269" d="M117 528l41 258h995l-41 -258h-995zM406 115l47 297h286l-47 -297h-286zM530 901l45 297h287l-45 -297h-287z" />
<glyph unicode="&#xf8;" horiz-adv-x="1214" d="M27 -135q24 34 88 128.5t67 98.5q-73 91 -96.5 193t0.5 252q40 256 202.5 409.5t407.5 153.5q106 0 191 -31q16 23 52 70t40 53h188l-149 -207q159 -149 110 -448q-40 -258 -202.5 -412t-409.5 -154q-124 0 -207 35q-13 -24 -28 -41v2q-12 -17 -39 -51t-39 -51h-176z M375 358q94 127 352 488q-27 12 -70 12q-118 0 -185 -88t-91 -233l-4 -31q-12 -80 -2 -148zM471 227q30 -12 84 -12q63 0 112.5 25.5t82.5 71t53 101t31 124.5q20 127 0 192q-251 -344 -363 -502z" />
<glyph unicode="&#xf9;" horiz-adv-x="1169" d="M68 362l112 711h289l-104 -663q-15 -97 15 -142t109 -45q99 0 166 73t82 171l97 606h288l-170 -1073h-186l-55 131q-131 -162 -336 -162q-180 0 -259 102t-48 291zM317 1468h320l260 -313h-276z" />
<glyph unicode="&#xfa;" horiz-adv-x="1169" d="M57 362l113 711h289l-105 -663q-15 -97 15 -142t110 -45q99 0 166 73t82 171l96 606h289l-170 -1073h-186l-56 131q-131 -162 -335 -162q-179 0 -258 101.5t-50 291.5zM438 1282l367 313l143 -170l-393 -266z" />
<glyph unicode="&#xfb;" horiz-adv-x="1169" d="M68 362l112 711h289l-107 -663q-15 -96 16 -141.5t111 -45.5q98 0 165 72.5t83 171.5l97 606h288l-170 -1073h-186l-55 131q-134 -162 -338 -162q-179 0 -257.5 101.5t-47.5 291.5zM295 1155l330 324h211l223 -324h-258l-92 176q-12 -13 -146 -176h-268z" />
<glyph unicode="&#xfc;" horiz-adv-x="1169" d="M72 362l110 711h289l-104 -663q-15 -96 16 -141.5t111 -45.5q98 0 164.5 72.5t82.5 171.5l95 606h288l-170 -1073h-186l-53 131q-134 -162 -338 -162q-179 0 -257.5 101.5t-47.5 291.5zM313 1157l43 270h269l-43 -270h-269zM725 1157l43 270h270l-43 -270h-270z" />
<glyph unicode="&#xfd;" horiz-adv-x="1030" d="M-51 -367l63 234q75 -33 133 -33q82 0 142 105l53 96q-43 170 -132 519t-132 519h327l140 -704q57 117 175 352t175 352h307l-627 -1153q-34 -65 -63 -110t-67 -89t-78 -70.5t-92.5 -42.5t-114.5 -16q-72 0 -181 33zM420 1280l366 313l144 -170l-395 -266z" />
<glyph unicode="&#xfe;" horiz-adv-x="1245" d="M-6 -395l295 1865h286l-77 -489q116 119 307 119q111 0 190 -44.5t118 -121t51.5 -179.5t-9.5 -220q-18 -116 -62.5 -217t-111.5 -179t-161 -123t-204 -45q-80 0 -150 27t-112 84l-75 -477h-285zM418 530q-51 -319 174 -319q109 0 178 88.5t92 235.5q13 71 9 131 t-21.5 103.5t-56.5 68t-95 24.5q-62 0 -111.5 -25t-83.5 -70.5t-55.5 -105t-29.5 -131.5z" />
<glyph unicode="&#xff;" horiz-adv-x="1030" d="M-37 -367l64 234q45 -20 71 -26.5t60 -6.5q84 0 141 105l55 96q-44 170 -133 519t-133 519h328l141 -704q58 117 174.5 352t173.5 352h307l-626 -1153q-44 -82 -80 -135t-85.5 -100.5t-110.5 -70t-138 -22.5q-69 0 -182 33zM274 1155l41 270h269l-41 -270h-269zM686 1155 l41 270h270l-41 -270h-270z" />
<glyph unicode="&#x152;" horiz-adv-x="2142" d="M102 729q24 157 81 291t146.5 240.5t222 167.5t294.5 61q106 0 179 -26t124 -83l12 76h1002l-45 -282h-691l-45 -279h627l-45 -283h-627l-51 -329h711l-45 -283h-1022l12 74q-153 -105 -336 -105q-110 0 -198 28t-148 79t-100 120t-57.5 155t-17.5 180t17 198zM428 729 q-11 -65 -14.5 -119.5t-1 -111t18.5 -99t43 -77t73.5 -52.5t109.5 -18q86 0 152.5 32t110 92t71 131.5t45.5 164.5q11 65 11 67q12 77 15 137.5t-7.5 124t-37 105.5t-79.5 69t-131 27q-75 0 -135.5 -27.5t-100 -70.5t-69 -107.5t-46 -127t-28.5 -140.5z" />
<glyph unicode="&#x153;" horiz-adv-x="1908" d="M92 537q19 124 69 228t125.5 179.5t180.5 117.5t229 42q226 0 338 -164q71 77 170.5 120.5t212.5 43.5q234 0 339.5 -149.5t66.5 -399.5l-19 -109h-696q-6 -103 36.5 -167t133.5 -64q73 0 121.5 35t83.5 108h295q-59 -190 -200 -288.5t-335 -98.5q-215 0 -340 164 q-167 -164 -385 -164q-251 0 -359 155.5t-67 410.5zM403 537q-13 -64 -10 -120t18 -98t53 -66t95 -24q203 0 256 306q50 311 -160 311q-203 0 -252 -309zM1143 666h397q13 196 -164 196q-88 0 -148 -54t-85 -142z" />
<glyph unicode="&#x178;" horiz-adv-x="1198" d="M86 1458h328l235 -594q29 42 426 594h316l-639 -878l-93 -580h-301l93 580q-289 690 -365 878zM360 1608l43 270h269l-43 -270h-269zM772 1608l43 270h270l-43 -270h-270z" />
<glyph unicode="&#x2c6;" horiz-adv-x="763" d="M0 1204l328 324h211l223 -324h-258l-92 176q-12 -13 -146 -176h-266z" />
<glyph unicode="&#x2dc;" horiz-adv-x="770" d="M-2 1333q40 105 113.5 162t169.5 57q45 0 89.5 -21.5t82.5 -43t67 -21.5q33 0 62.5 21t44.5 57l153 -71q-39 -106 -113.5 -164t-166.5 -58q-44 0 -89 22t-83 44t-66 22q-76 0 -110 -79z" />
<glyph unicode="&#x2000;" horiz-adv-x="1039" />
<glyph unicode="&#x2001;" horiz-adv-x="2079" />
<glyph unicode="&#x2002;" horiz-adv-x="1039" />
<glyph unicode="&#x2003;" horiz-adv-x="2079" />
<glyph unicode="&#x2004;" horiz-adv-x="693" />
<glyph unicode="&#x2005;" horiz-adv-x="519" />
<glyph unicode="&#x2006;" horiz-adv-x="346" />
<glyph unicode="&#x2007;" horiz-adv-x="346" />
<glyph unicode="&#x2008;" horiz-adv-x="259" />
<glyph unicode="&#x2009;" horiz-adv-x="415" />
<glyph unicode="&#x200a;" horiz-adv-x="115" />
<glyph unicode="&#x2010;" horiz-adv-x="872" d="M78 487l43 273h670l-43 -273h-670z" />
<glyph unicode="&#x2011;" horiz-adv-x="872" d="M78 487l43 273h670l-43 -273h-670z" />
<glyph unicode="&#x2012;" horiz-adv-x="872" d="M78 487l43 273h670l-43 -273h-670z" />
<glyph unicode="&#x2013;" horiz-adv-x="1185" d="M37 489l43 269h1067l-43 -269h-1067z" />
<glyph unicode="&#x2014;" horiz-adv-x="2199" d="M43 489l43 267h2068l-43 -267h-2068z" />
<glyph unicode="&#x2018;" horiz-adv-x="520" d="M53 881l45 290q23 146 87.5 234.5t207.5 144.5l62 -137q-87 -37 -125 -84.5t-51 -122.5h143l-51 -325h-318z" />
<glyph unicode="&#x2019;" horiz-adv-x="499" d="M72 922q87 37 125 84.5t51 121.5h-144l52 326h317l-45 -291q-23 -146 -87.5 -234.5t-207.5 -144.5z" />
<glyph unicode="&#x201a;" horiz-adv-x="499" d="M72 -209q87 38 125 86t51 123h-144l52 326h317l-45 -291q-23 -146 -87 -235t-208 -146z" />
<glyph unicode="&#x201c;" horiz-adv-x="921" d="M31 881l45 290q23 147 87 235t208 144l59 -137q-87 -37 -125 -84.5t-51 -122.5h143l-51 -325h-315zM444 881l45 290q23 147 87 235t208 144l60 -137q-87 -37 -125 -84.5t-51 -122.5h143l-51 -325h-316z" />
<glyph unicode="&#x201d;" horiz-adv-x="901" d="M51 924q87 37 125 84.5t51 121.5h-143l51 326h316l-45 -291q-23 -147 -87 -235t-208 -144zM465 924q87 37 125 84.5t51 121.5h-143l51 326h315l-45 -291q-23 -147 -87 -235t-208 -144z" />
<glyph unicode="&#x201e;" horiz-adv-x="901" d="M51 -209q87 38 125 86t51 123h-143l51 326h316l-45 -291q-23 -146 -86.5 -235t-208.5 -146zM465 -209q87 38 125 86t51 123h-143l51 326h315l-45 -291q-23 -146 -86.5 -235t-208.5 -146z" />
<glyph unicode="&#x2022;" horiz-adv-x="851" d="M121 672q20 130 121 216.5t231 86.5q129 0 202.5 -86.5t53.5 -216.5q-22 -131 -122.5 -218t-229.5 -87q-130 0 -204 87.5t-52 217.5z" />
<glyph unicode="&#x2026;" horiz-adv-x="2021" d="M123 0l51 332h311l-51 -332h-311zM827 0l52 332h311l-51 -332h-312zM1536 0l51 332h311l-51 -332h-311z" />
<glyph unicode="&#x202f;" horiz-adv-x="415" />
<glyph unicode="&#x2039;" horiz-adv-x="677" d="M68 571l389 490l190 -105l-303 -383q29 -66 90.5 -194t85.5 -182l-219 -115z" />
<glyph unicode="&#x203a;" horiz-adv-x="677" d="M16 197l295 376q-30 61 -92.5 191.5t-91.5 191.5l223 105l238 -490l-389 -489z" />
<glyph unicode="&#x205f;" horiz-adv-x="519" />
<glyph unicode="&#x20ac;" horiz-adv-x="1241" d="M-8 463l59 184h121q2 16 8 49.5t10 65.5h-153l61 184h142q36 105 94 193.5t137.5 160t186.5 112t229 40.5q168 0 263 -71.5t136 -211.5q-174 -110 -211 -133q-43 82 -97 120t-138 38q-103 0 -185 -67t-125 -181h447q-16 -31 -44.5 -94t-41.5 -90h-414l-16 -115h389 q-45 -110 -84 -184h-313q9 -110 69.5 -175t161.5 -65q93 0 166.5 44t120.5 124l182 -112l-6 -9q-79 -148 -202.5 -224.5t-303.5 -76.5q-120 0 -212 37.5t-148.5 105.5t-86 156t-32.5 195h-170z" />
<glyph unicode="&#x2122;" horiz-adv-x="1820" d="M66 1264l30 194h686l-30 -194h-236l-98 -617h-217l98 617h-233zM731 647l129 811h275l94 -512q88 172 260 512h266l-129 -811h-205l74 459q-24 -48 -72 -141t-85.5 -167t-69.5 -141h-172l-86 445l-72 -455h-207z" />
<glyph unicode="&#xe000;" horiz-adv-x="1075" d="M0 0v1075h1075v-1075h-1075z" />
<glyph unicode="&#xfb01;" horiz-adv-x="1126" d="M41 838l37 235h170l8 55q27 172 143.5 267.5t286.5 95.5q114 0 215 -29l-57 -225q-73 18 -148 18q-60 0 -100.5 -31.5t-50.5 -93.5l-8 -57h262l-37 -235h-262l-133 -838h-289l133 838h-170zM668 0l170 1073h290l-170 -1073h-290z" />
<glyph unicode="&#xfb02;" horiz-adv-x="1204" d="M41 838l37 235h170l8 55q27 172 143.5 267.5t286.5 95.5q114 0 215 -29l-57 -225q-73 18 -148 18q-60 0 -100.5 -31.5t-50.5 -93.5l-8 -57h262l-37 -235h-262l-133 -838h-289l133 838h-170zM754 0l233 1470h289l-234 -1470h-288z" />
</font>
</defs>
</svg>
