<?xml version="1.0" standalone="no"?>
<!DOCTYPE svg PUBLIC "-//W3C//DTD SVG 1.1//EN" "http://www.w3.org/Graphics/SVG/1.1/DTD/svg11.dtd" >
<svg xmlns="http://www.w3.org/2000/svg">
<metadata></metadata>
<defs>
<font id="vauditalic" horiz-adv-x="1189" >
<font-face units-per-em="2048" ascent="1638" descent="-410" />
<missing-glyph horiz-adv-x="544" />
<glyph horiz-adv-x="2048" />
<glyph horiz-adv-x="2048" />
<glyph unicode="&#xd;" horiz-adv-x="2048" />
<glyph unicode=" "  horiz-adv-x="544" />
<glyph unicode="&#x09;" horiz-adv-x="544" />
<glyph unicode="&#xa0;" horiz-adv-x="544" />
<glyph unicode="!" horiz-adv-x="620" d="M49 0l55 348h326l-55 -348h-326zM150 430l124 1026h336l-211 -1026h-249z" />
<glyph unicode="&#x22;" horiz-adv-x="929" d="M82 815l27 352l43 287h315l-45 -287l-82 -352h-258zM489 815l31 352l43 287h314l-46 -287l-86 -352h-256z" />
<glyph unicode="#" horiz-adv-x="1382" d="M18 338l41 256h238l59 219h-198l41 260h241l111 332h276l-106 -332h178l107 332h284l-106 -332h180l-41 -260h-223q-13 -43 -37.5 -120.5t-30.5 -98.5h189l-41 -256h-224l-110 -338h-279l105 338h-178l-107 -338h-283l107 338h-193zM575 594h177l71 219h-178z" />
<glyph unicode="$" d="M8 502h320q-24 -194 106 -230l51 320q-210 30 -302.5 135.5t-63.5 294.5q27 163 163 283t339 143l28 182h193l-29 -186q101 -13 173 -58.5t109.5 -113t52 -145t7.5 -164.5l-305 2q3 85 -15 131.5t-67 66.5l-45 -295q106 -23 177 -53t123.5 -79.5t70 -124.5t0.5 -179 q-28 -176 -166.5 -297.5t-345.5 -146.5l-29 -193h-193l29 193q-204 22 -306.5 157.5t-74.5 356.5zM436 1036q-10 -60 13.5 -88.5t85.5 -42.5l43 271q-55 -15 -95.5 -54.5t-46.5 -85.5zM627 266q68 15 101 52t44 104q9 52 -16 81.5t-84 49.5z" />
<glyph unicode="%" horiz-adv-x="1921" d="M129 1026q32 200 154.5 317t296.5 117q177 0 260 -116t51 -318q-31 -201 -150.5 -315.5t-298.5 -114.5q-177 0 -260.5 115t-52.5 315zM242 -16l1132 1464h295l-1128 -1468zM399 1026q-14 -95 5 -143.5t77 -48.5q114 0 142 192q15 97 -3.5 145t-78.5 48q-59 0 -93 -48.5 t-49 -144.5zM1018 403q32 203 154 319t296 116q175 0 259.5 -116.5t52.5 -318.5q-31 -201 -149.5 -315.5t-299.5 -114.5q-178 0 -261.5 114t-51.5 316zM1286 403q-14 -95 5.5 -141.5t78.5 -46.5t93 47t48 141q32 197 -81 197q-112 0 -144 -197z" />
<glyph unicode="&#x26;" horiz-adv-x="1445" d="M47 410q22 137 99.5 227t213.5 168q-99 156 -77 299q27 168 156.5 272.5t303.5 104.5q180 0 277.5 -100.5t71.5 -264.5q-21 -128 -95.5 -215t-205.5 -160l155 -215q50 90 66 189q5 54 4 88h270q-2 -10 -5 -36t-5 -36q-43 -268 -164 -430q0 -1 2 -6t4 -8 q149 -198 211 -287h-383q-17 20 -29 38.5t-17.5 27t-12.5 12.5h2l-6 4q-179 -117 -389 -117q-124 0 -218 34.5t-148 95t-75 141t-6 174.5zM360 434q-14 -91 36 -142.5t159 -51.5q101 0 180 47l-231 321q-64 -36 -99 -76t-45 -98zM578 1104q-5 -39 17 -86t54 -84 q133 74 148 172q9 56 -15 84.5t-75 28.5q-52 0 -86 -28.5t-43 -86.5z" />
<glyph unicode="'" horiz-adv-x="493" d="M76 815l24 352l43 287h318l-45 -287l-88 -352h-252z" />
<glyph unicode="(" horiz-adv-x="641" d="M47 643q79 514 461 924h270q-346 -422 -426 -924q-79 -504 135 -930h-272q-248 400 -168 930z" />
<glyph unicode=")" horiz-adv-x="641" d="M-121 -287q349 426 428 930q80 503 -135 924h270q250 -403 170 -924q-82 -522 -462 -930h-271z" />
<glyph unicode="*" horiz-adv-x="962" d="M37 1036l143 277l215 -111q1 29 1 120.5t1 137.5h303l-77 -260q45 17 135.5 61t111.5 52l58 -271l-264 -69q101 -146 145 -205l-256 -168l-107 229q-122 -166 -174 -231l-204 170l215 205q-98 31 -246 63z" />
<glyph unicode="+" horiz-adv-x="1300" d="M88 524l45 283h393l66 416h293l-66 -416h395l-45 -283h-395l-67 -432h-293l67 432h-393z" />
<glyph unicode="," horiz-adv-x="550" d="M61 -176q85 38 124 78.5t53 97.5h-140l58 358h350l-49 -303q-23 -149 -93 -242t-227 -159z" />
<glyph unicode="-" horiz-adv-x="872" d="M63 475l48 305h694l-47 -305h-695z" />
<glyph unicode="." horiz-adv-x="550" d="M70 0l59 373h350l-59 -373h-350z" />
<glyph unicode="/" horiz-adv-x="790" d="M-143 -12l788 1503h299l-790 -1503h-297z" />
<glyph unicode="0" d="M68 711q115 741 645 741q118 0 203 -37.5t133.5 -102t71 -160t21.5 -203t-22 -238.5q-21 -133 -53.5 -240.5t-85.5 -203t-122.5 -160t-167.5 -101.5t-218 -37q-118 0 -203 37t-133.5 101.5t-71 159.5t-20.5 203.5t23 240.5zM393 711q-9 -53 -14.5 -95.5t-8.5 -91t0 -85 t12.5 -72t27 -58t46 -36t66.5 -13.5q45 0 81.5 17t63.5 51t47.5 73t36 95t25.5 103.5t21 111.5q8 53 13 95t7.5 90t-0.5 84.5t-12.5 71.5t-27 57.5t-46.5 36t-67 13.5q-45 0 -81.5 -17t-63 -51t-46.5 -72.5t-35.5 -94t-25 -102.5t-19.5 -111z" />
<glyph unicode="1" d="M264 840l53 346l381 233h263l-224 -1419h-323l161 1030q-41 -25 -61 -39q-18 -12 -22 -14q-146 -83 -228 -137z" />
<glyph unicode="2" d="M-14 0l37 242q86 72 286 258q72 68 159 144.5t131.5 116t89 86t65.5 85t28 82.5q9 65 -23.5 109t-99.5 44q-159 0 -221 -206h-319q22 81 55.5 151.5t84.5 134t115 109t149 72t184 26.5q216 0 325.5 -116.5t77.5 -315.5q-21 -129 -102 -239t-234 -238h2q-5 -5 -114 -108 t-158 -146h497l-47 -291h-968zM502 291h2v2z" />
<glyph unicode="3" d="M35 473h319q-17 -219 160 -219q83 0 141.5 42.5t71.5 125.5q13 85 -32 126.5t-140 41.5h-149l45 289h157q165 0 189 147q10 59 -25.5 101t-109.5 42q-174 0 -232 -192h-309q34 207 197 342t389 135q220 0 332.5 -113.5t82.5 -293.5q-14 -90 -66 -169t-132 -128 q77 -54 109 -140.5t16 -183.5q-32 -213 -185 -336t-391 -123q-100 0 -181 27.5t-132 75t-85 111.5t-41 138t1 154z" />
<glyph unicode="4" d="M-16 305l34 225l768 885h299l-131 -831h174l-45 -279h-174l-47 -305h-317l47 305h-608zM391 584h246l55 352q-107 -119 -301 -352z" />
<glyph unicode="5" d="M59 457h316q-8 -98 33 -150.5t129 -52.5q92 0 146.5 59t72.5 168q31 203 -156 203q-119 0 -217 -98h-279l185 833h864l-47 -289h-584q-6 -34 -15.5 -71t-22 -80t-17.5 -61q102 45 231 45q147 0 240.5 -65t125.5 -171t11 -242q-38 -241 -193.5 -379.5t-387.5 -138.5 q-231 0 -347.5 129.5t-87.5 360.5z" />
<glyph unicode="6" d="M84 651q129 801 664 801q111 0 194 -35.5t129 -96.5t67 -135.5t17 -160.5h-317q-11 152 -144 152q-97 0 -162 -79t-98 -210q126 69 264 69q222 0 319 -126.5t60 -356.5q-36 -226 -191 -365t-394 -139q-97 0 -172 26.5t-123 74.5t-78.5 111t-41.5 141.5t-9 159t16 169.5z M387 485q-16 -103 21.5 -170t128.5 -67q89 0 149.5 60t77.5 167q16 97 -22 155t-134 58q-79 0 -142 -52.5t-79 -150.5z" />
<glyph unicode="7" d="M129 0q66 142 300 534.5t366 595.5h-645l45 289h1007l-35 -231q-102 -142 -358.5 -584t-327.5 -604h-352z" />
<glyph unicode="8" d="M27 414q13 94 73.5 179.5t149.5 141.5q-61 52 -88 132t-12 171q29 190 183 303t378 113q229 0 344 -112t84 -304q-15 -92 -64.5 -170t-126.5 -129q152 -109 121 -325q-33 -208 -194.5 -327.5t-399.5 -119.5t-359 119t-89 328zM342 420q-12 -80 34 -127t146 -47 q99 0 159.5 48t72.5 128q11 75 -33 122.5t-146 47.5t-162 -48.5t-71 -123.5zM461 1026q-11 -73 27.5 -114.5t129.5 -41.5t142.5 42t62.5 116q10 65 -28.5 109.5t-126.5 44.5q-90 0 -143.5 -45.5t-63.5 -110.5z" />
<glyph unicode="9" d="M47 397h315q-3 -70 32.5 -110.5t109.5 -40.5q180 0 250 289q-134 -74 -267 -74q-221 0 -319.5 128.5t-61.5 356.5q35 225 192.5 365.5t397.5 140.5q97 0 172 -27t122.5 -76t78 -113t41 -143.5t8.5 -161t-16 -171.5q-24 -150 -57 -266.5t-85 -217.5t-120.5 -167t-165 -103 t-217.5 -37q-114 0 -199 33t-133 91.5t-68 135t-10 168.5zM424 944q-16 -95 22.5 -155t133.5 -60q83 0 144.5 56.5t78.5 160.5q13 100 -24.5 164t-127.5 64q-89 0 -149.5 -61.5t-77.5 -168.5z" />
<glyph unicode=":" horiz-adv-x="579" d="M39 0l57 367h350l-57 -367h-350zM152 717l57 364h350l-57 -364h-350z" />
<glyph unicode=";" horiz-adv-x="579" d="M31 -176q85 38 123 78.5t51 97.5h-139l57 358h350l-49 -303q-23 -150 -92.5 -242.5t-227.5 -158.5zM180 717l58 364h350l-58 -364h-350z" />
<glyph unicode="&#x3c;" horiz-adv-x="1083" d="M115 543l39 248l911 557l-49 -318l-602 -352q91 -60 262 -184.5t233 -167.5l-51 -312z" />
<glyph unicode="=" horiz-adv-x="1312" d="M102 295l43 274h996l-43 -274h-996zM168 707l43 272h995l-43 -272h-995z" />
<glyph unicode="&#x3e;" horiz-adv-x="1083" d="M35 14l49 312l606 352q-70 53 -240 172t-249 180l49 318l735 -557l-39 -248z" />
<glyph unicode="?" horiz-adv-x="1058" d="M68 997q54 221 210 354.5t381 133.5q214 0 326 -112.5t84 -293.5q-10 -57 -31 -105.5t-55.5 -91t-61 -69t-71.5 -65.5q-9 -8 -51 -42.5t-57.5 -49.5t-43 -45t-41 -57.5t-18.5 -57.5l-10 -76h-318q7 45 17 85t18.5 71t24.5 62.5t26 51.5t31.5 46t32.5 38.5t38 37.5 t38 34.5t43 36.5q9 8 44.5 34.5t51 41t34.5 44.5t25 64q8 57 -26 94t-101 37q-169 0 -225 -201h-315zM233 0l58 354h334l-58 -354h-334z" />
<glyph unicode="@" horiz-adv-x="1978" d="M123 547q27 172 103 320.5t181.5 254t235.5 180.5t268 111.5t275 36.5q176 0 317 -48t237 -139.5t136 -233t12 -318.5q-27 -173 -109 -311t-204 -216t-260 -78q-169 0 -219 109q-127 -115 -267 -115q-71 0 -127.5 21.5t-91.5 59.5t-57 90.5t-24.5 113t6.5 127.5 q36 223 177 371.5t332 148.5q130 0 201 -100l64 78h225q-110 -367 -184 -604v-9q-10 -47 20 -47q85 0 156.5 106t95.5 255q20 124 -5 218.5t-89 153.5t-159 89t-220 30q-185 0 -345 -81.5t-267.5 -232.5t-137.5 -345q-13 -100 -6.5 -192t44 -171.5t94.5 -138t145 -92 t196 -33.5q131 0 256.5 39t225.5 113l116 -142q-134 -110 -284 -164.5t-352 -54.5q-194 0 -343.5 63t-238.5 175t-123 266.5t-6 335.5zM836 524q-12 -76 10 -120t67 -44q46 0 81.5 19.5t59.5 57t38.5 74.5t27.5 89l10 43q0 6 3 12q8 57 -16 93t-79 36q-73 0 -128 -74 t-74 -186z" />
<glyph unicode="A" horiz-adv-x="1370" d="M-123 0l760 1458h326l299 -1458h-361l-55 297h-471q-15 -29 -68.5 -135.5t-83.5 -161.5h-346zM518 590h281q-15 66 -38.5 208t-39.5 208q-45 -87 -107.5 -219.5t-95.5 -196.5z" />
<glyph unicode="B" horiz-adv-x="1341" d="M37 0l231 1456h557q261 0 378.5 -107t86.5 -300q-28 -197 -186 -287q158 -115 127 -318q-33 -207 -193.5 -325.5t-425.5 -118.5h-575zM410 287h247q216 0 242 162q13 85 -28.5 124t-141.5 39h-266zM506 895h256q179 0 199 141q12 72 -34.5 105t-146.5 33h-229z" />
<glyph unicode="C" horiz-adv-x="1374" d="M84 727q25 160 84 295t151.5 241t227.5 166t299 60q163 0 278 -73t169.5 -196.5t52.5 -285.5h-338q3 120 -48.5 186t-160.5 66q-67 0 -123 -25t-96 -67t-71.5 -102t-51 -125t-31.5 -140q-12 -73 -13 -138t12 -125t40 -103t75 -69t113 -26q109 0 181.5 67.5t105.5 188.5 h350q-60 -239 -249 -396t-437 -157q-108 0 -196.5 26.5t-149.5 75.5t-104.5 118t-62.5 153t-22.5 181.5t15.5 203.5z" />
<glyph unicode="D" horiz-adv-x="1456" d="M37 0l231 1456h561q117 0 210.5 -25.5t156 -72.5t105.5 -112.5t60.5 -146t20 -173t-15.5 -193.5q-20 -126 -61 -234t-107.5 -201t-154.5 -158.5t-208 -102.5t-262 -37h-536zM418 297h162q93 0 165 23.5t118.5 61.5t80 96.5t51 117.5t29.5 135q12 75 14 133t-11.5 116 t-45.5 95t-93 60.5t-149 23.5h-184z" />
<glyph unicode="E" horiz-adv-x="1261" d="M37 0l231 1458h1028l-47 -301h-700l-41 -254h639l-47 -299h-639l-49 -305h706l-47 -299h-1034z" />
<glyph unicode="F" horiz-adv-x="1200" d="M31 0l231 1458h1004l-47 -301h-670l-47 -293h612l-47 -299h-612l-90 -565h-334z" />
<glyph unicode="G" horiz-adv-x="1443" d="M86 727q35 221 135.5 391t265 270.5t371.5 100.5q166 0 289 -71.5t178 -190t35 -258.5l-332 2q0 217 -217 217q-84 0 -152 -37.5t-113 -104t-74 -145.5t-44 -174q-12 -75 -13 -140t12.5 -125.5t42.5 -103.5t82 -68.5t126 -25.5q130 0 204 69.5t103 203.5h-301l45 284h619 l-131 -821h-209l-13 125q-65 -67 -159.5 -111.5t-206.5 -44.5q-133 0 -237 37t-169.5 104.5t-105 162t-44.5 209t13 245.5z" />
<glyph unicode="H" horiz-adv-x="1476" d="M37 0l231 1458h334l-86 -543h502l86 543h334l-232 -1458h-334l95 598h-502l-94 -598h-334z" />
<glyph unicode="I" horiz-adv-x="606" d="M18 0l232 1458h336l-232 -1458h-336z" />
<glyph unicode="J" horiz-adv-x="1155" d="M-6 518h323q-29 -254 140 -254q43 0 76.5 14t55.5 37t39 60.5t27 76t19 91.5l143 913h330l-156 -981q-38 -240 -192 -374t-387 -134q-245 0 -351 143.5t-67 407.5z" />
<glyph unicode="K" horiz-adv-x="1384" d="M37 0l231 1458h336l-94 -596l588 596h391l-576 -559l383 -899h-378l-271 651q-36 -30 -110 -100.5t-91 -85.5l-73 -465h-336z" />
<glyph unicode="L" horiz-adv-x="1161" d="M31 0l231 1458h334l-182 -1153h659l-49 -305h-993z" />
<glyph unicode="M" horiz-adv-x="1779" d="M43 0l231 1458h398l184 -952q34 65 248 479.5t244 472.5h387l-232 -1458h-317l129 811q-24 -45 -210 -407t-208 -404h-254l-158 811l-129 -811h-313z" />
<glyph unicode="N" horiz-adv-x="1486" d="M37 0l231 1458h314l403 -854l135 854h328l-231 -1458h-310l-407 858l-135 -858h-328z" />
<glyph unicode="O" horiz-adv-x="1486" d="M92 727q21 130 64.5 244t111 209.5t154 164t199 106.5t241.5 38q109 0 197.5 -26.5t151.5 -75.5t107.5 -118t64.5 -153.5t23.5 -183t-15.5 -205.5q-26 -163 -87 -299.5t-154.5 -239.5t-228.5 -161t-298 -58q-129 0 -230.5 38t-166 106t-103.5 163t-44 208.5t13 242.5z M426 727q-12 -75 -13 -139.5t13 -124.5t42.5 -102.5t80 -67.5t121.5 -25q87 0 156 37.5t114 104t72.5 144.5t42.5 173q18 89 13.5 171.5t-26.5 146.5t-80 102.5t-147 38.5q-71 0 -131 -25.5t-102 -68.5t-74 -103.5t-51 -124t-31 -137.5z" />
<glyph unicode="P" horiz-adv-x="1294" d="M37 0l231 1458h551q117 0 206.5 -24t144 -66.5t88 -102t38.5 -130t-6 -150.5q-17 -106 -60.5 -192t-116.5 -153t-185.5 -103.5t-255.5 -36.5h-223l-80 -500h-332zM494 793h213q118 0 176.5 48.5t72.5 139.5q14 90 -29 137t-161 47h-213z" />
<glyph unicode="Q" horiz-adv-x="1488" d="M104 727q32 186 94.5 327t174.5 242q102 91 233 142t268 51q107 0 195.5 -26t151 -74.5t107.5 -117t66 -153t24.5 -183.5t-15.5 -208q-28 -179 -85.5 -314t-162.5 -235l119 -184l-242 -172q-102 155 -125 194q-117 -47 -274 -47q-129 0 -230.5 38t-165.5 106t-103 163 t-43.5 208.5t13.5 242.5zM438 727q-12 -74 -12.5 -139t12.5 -125.5t41.5 -103.5t79.5 -69t121 -26q30 0 68 6l-125 185l241 176l119 -189q58 110 84 285q12 76 13 141t-12 125t-41.5 101.5t-79 66.5t-120.5 25t-129 -25t-101 -67t-74.5 -102t-52.5 -125t-32 -140z" />
<glyph unicode="R" horiz-adv-x="1343" d="M37 0l231 1456h572q100 0 180 -18.5t132 -51t90 -77t53 -95.5t20 -106.5t-6 -110.5q-44 -290 -287 -401q30 -87 76 -236t77 -254l31 -106h-368q-101 348 -148 524h-237l-84 -524h-332zM500 819h252q101 0 156.5 46.5t68.5 129.5q12 71 -35 120.5t-154 49.5h-235z" />
<glyph unicode="S" horiz-adv-x="1308" d="M18 510h338q-13 -128 50.5 -189t183.5 -61q114 0 184 43t82 125q5 29 -1 51.5t-24 37.5t-38.5 25.5t-56 19t-63.5 13.5t-73.5 12t-75.5 13q-96 19 -170.5 51.5t-132 84.5t-81 129.5t-7.5 176.5q32 201 209.5 324t427.5 123q132 0 235 -41.5t163.5 -112t85 -162 t8.5 -192.5h-330q10 99 -46.5 158t-158.5 59t-173 -35.5t-81 -105.5q-15 -89 77 -123q41 -16 177 -34q29 -4 49 -7q227 -34 341 -148t83 -313q-36 -220 -215 -341.5t-440 -121.5q-129 0 -231.5 32t-176 96.5t-105.5 169.5t-14 243z" />
<glyph unicode="T" horiz-adv-x="1210" d="M86 1153l49 305h1170l-50 -305h-417l-183 -1153h-333l182 1153h-418z" />
<glyph unicode="U" horiz-adv-x="1409" d="M98 584l138 874h333l-137 -874q-25 -157 22.5 -236.5t178.5 -79.5t203.5 79t97.5 237l137 874h336l-139 -876q-46 -295 -224.5 -455t-457.5 -160q-281 0 -408 160.5t-80 456.5z" />
<glyph unicode="V" horiz-adv-x="1339" d="M113 1458h360l164 -950q183 370 473 950h346l-739 -1458h-326z" />
<glyph unicode="W" horiz-adv-x="1884" d="M141 1458h348l56 -870q48 119 368 870h310l92 -866q21 61 158.5 425.5t164.5 440.5h334l-575 -1458h-318l-106 903q-16 -40 -103 -240.5t-180.5 -415.5t-107.5 -247h-314z" />
<glyph unicode="X" horiz-adv-x="1318" d="M-131 0l596 756q-25 50 -183 369t-165 333h375l213 -442q206 251 350 442h366l-567 -708q355 -728 365 -750h-375l-232 485q-33 -42 -169 -217t-212 -268h-362z" />
<glyph unicode="Y" horiz-adv-x="1312" d="M106 1458h357l225 -559q73 102 214 296.5t190 262.5h344l-635 -874l-92 -584h-334l92 584q-7 18 -67.5 161.5t-145.5 348.5t-148 364z" />
<glyph unicode="Z" horiz-adv-x="1230" d="M-68 0l43 272l842 885h-690l47 301h1110l-43 -274l-838 -883h719l-47 -301h-1143z" />
<glyph unicode="[" horiz-adv-x="712" d="M16 -266l289 1810h535l-43 -260h-244l-203 -1290h244l-43 -260h-535z" />
<glyph unicode="\" horiz-adv-x="790" d="M84 1491h297l313 -1503h-297z" />
<glyph unicode="]" horiz-adv-x="712" d="M-127 -266l43 260h244l202 1290h-245l43 260h536l-288 -1810h-535z" />
<glyph unicode="^" horiz-adv-x="1157" d="M0 686l526 784h230l276 -784h-348l-117 365q-66 -110 -235 -365h-332z" />
<glyph unicode="_" horiz-adv-x="1112" d="M2 -260l31 197h1075l-31 -197h-1075z" />
<glyph unicode="`" horiz-adv-x="1009" d="M125 1552h377l284 -342h-327z" />
<glyph unicode="a" horiz-adv-x="1148" d="M55 541q40 252 178.5 409.5t348.5 157.5q146 0 225 -70l6 43h297l-170 -1081h-225l-27 92q-118 -121 -297 -121q-139 0 -225 75.5t-112 202t1 292.5zM360 543q-11 -64 -8 -118.5t18 -94t47.5 -62t78.5 -22.5q43 0 79.5 16t63 44t46.5 66.5t31.5 82t16.5 92.5 q45 289 -143 289q-90 0 -149.5 -80.5t-80.5 -212.5z" />
<glyph unicode="b" horiz-adv-x="1253" d="M23 0l231 1470h315l-67 -438q110 76 274 76q145 0 237.5 -72.5t123.5 -199.5t4 -297q-40 -251 -186.5 -409.5t-364.5 -158.5q-185 0 -273 115l-65 -86h-229zM418 537q-47 -291 155 -291q98 0 160 80.5t82 212.5q23 136 -13 216.5t-134 80.5q-201 0 -246 -283z" />
<glyph unicode="c" horiz-adv-x="1126" d="M74 539q20 123 70 226.5t125.5 180t182 119.5t232.5 43q141 0 237.5 -63.5t133.5 -164.5t18 -221h-315q13 175 -121 175q-188 0 -234 -293q-50 -293 140 -293q68 0 115.5 47.5t66.5 128.5h319l-2 -18q-43 -195 -184.5 -314t-357.5 -119q-105 0 -186 28t-132.5 78.5 t-82.5 121t-34.5 156t9.5 182.5z" />
<glyph unicode="d" horiz-adv-x="1253" d="M53 541q26 165 96.5 291t188.5 201t266 75q159 0 244 -70l67 432h316l-232 -1470h-239l-29 92q-124 -121 -315 -121q-147 0 -239.5 75.5t-121.5 202t-2 292.5zM377 543q-21 -134 14.5 -215.5t132.5 -81.5q112 0 174 85t76 216q45 289 -156 289q-96 0 -158 -80.5 t-83 -212.5z" />
<glyph unicode="e" horiz-adv-x="1173" d="M80 537q42 259 205 415t407 156q237 0 341 -149t65 -402l-21 -117h-694q-2 -90 41.5 -147t130.5 -57q140 0 195 137h311q-57 -197 -204.5 -299.5t-342.5 -102.5q-250 0 -361.5 155t-72.5 411zM422 676h383q0 79 -39.5 126.5t-118.5 47.5q-83 0 -141 -48t-84 -126z" />
<glyph unicode="f" horiz-adv-x="776" d="M29 813l41 268h166l6 35q29 179 147 277t293 98q122 0 227 -33l-67 -258q-75 19 -156 19q-110 0 -127 -101l-6 -37h258l-41 -268h-258l-129 -813h-317l129 813h-166z" />
<glyph unicode="g" horiz-adv-x="1202" d="M-6 -139q9 61 43.5 117t87.5 94q-28 33 -45.5 83t-11.5 87q10 67 44.5 117.5t96.5 93.5q-38 49 -49.5 108.5t0.5 138.5q16 95 64 172.5t117 127.5t154.5 77t178.5 27q136 0 229 -55q25 16 37.5 54.5t3.5 82.5h256q3 -30 -6 -101q-9 -63 -49.5 -117.5t-106.5 -90.5 q33 -90 17 -179q-19 -121 -95 -213.5t-184.5 -139t-230.5 -46.5q-94 0 -162 23q-20 -20 -23 -39q-4 -27 16.5 -36t57.5 -9h170q48 0 84 -2t85 -8.5t91 -22.5t74 -41q62 -47 83.5 -117.5t8.5 -150.5q-13 -85 -55 -151.5t-99.5 -107.5t-131.5 -68t-145.5 -37.5t-147.5 -10.5 q-68 0 -133.5 10t-130.5 34.5t-111.5 62t-70 98t-11.5 135.5zM274 -111q-4 -24 3.5 -43t25 -30.5t37.5 -19.5t47.5 -11.5t48 -4.5t45.5 -1q27 0 48.5 1t52.5 4.5t55 11t47 19t37 30.5t18 44q3 23 -3.5 40t-24 26.5t-35 16t-45.5 9t-44.5 3t-43.5 0.5h-185q-30 -15 -55 -41 t-29 -54zM457 700q-11 -69 24 -114t103 -45q70 0 117.5 45t58.5 114q7 46 -4.5 82t-42.5 58t-78 22q-68 0 -117.5 -46.5t-60.5 -115.5z" />
<glyph unicode="h" horiz-adv-x="1212" d="M14 0l232 1470h319l-71 -460q131 98 278 98q185 0 265.5 -104t49.5 -295l-110 -709h-322l105 662q13 84 -12 121.5t-93 37.5q-87 0 -149.5 -63.5t-75.5 -149.5l-96 -608h-320z" />
<glyph unicode="i" horiz-adv-x="565" d="M4 0l170 1081h324l-170 -1081h-324zM180 1159l49 309h334l-49 -309h-334z" />
<glyph unicode="j" horiz-adv-x="575" d="M-274 -358q53 171 63 233l6 35q100 -21 144 -21q84 0 98 88l174 1104h321l-178 -1126q-26 -170 -128.5 -259t-268.5 -89h-16q-106 0 -215 35zM217 1161l49 309h334l-49 -309h-334z" />
<glyph unicode="k" horiz-adv-x="1181" d="M20 0l232 1470h317l-123 -780l402 391h409l-469 -409q11 -20 119.5 -255.5t188.5 -416.5h-359l-205 465l-141 -121l-53 -344h-318z" />
<glyph unicode="l" horiz-adv-x="581" d="M0 0l231 1470h322l-231 -1470h-322z" />
<glyph unicode="m" horiz-adv-x="1802" d="M55 0l170 1081h207l55 -112q136 139 310 139q111 0 177.5 -33.5t92.5 -107.5q74 76 154.5 108.5t179.5 32.5q174 0 250 -101t45 -290l-113 -717h-319l104 668q14 85 -6 122t-78 37q-70 0 -132.5 -62t-74.5 -140l-98 -625h-320l105 668q14 85 -6 122t-78 37 q-66 0 -130.5 -65t-76.5 -144l-98 -618h-320z" />
<glyph unicode="n" horiz-adv-x="1212" d="M43 0l170 1081h223l37 -114q143 143 330 143q184 0 264 -104.5t49 -296.5l-110 -709h-322l104 662q12 85 -12.5 122t-91.5 37q-95 0 -156.5 -81.5t-78.5 -194.5l-87 -545h-319z" />
<glyph unicode="o" horiz-adv-x="1214" d="M82 541q40 260 203.5 413.5t410.5 153.5q169 0 277 -71.5t147.5 -198.5t12.5 -297q-40 -258 -204.5 -414t-412.5 -156q-253 0 -364.5 154.5t-69.5 415.5zM406 541q-48 -293 153 -293q200 0 250 293q11 83 4 148t-48 105t-114 40q-104 0 -164.5 -81t-80.5 -212z" />
<glyph unicode="p" horiz-adv-x="1253" d="M18 -383l232 1464h237l31 -94q118 121 318 121q145 0 237 -75t121.5 -201t3.5 -291q-40 -253 -186.5 -411.5t-368.5 -158.5q-142 0 -240 82l-69 -436h-316zM477 551q-49 -307 152 -307q96 0 159 80.5t84 212.5q21 138 -13.5 217.5t-133.5 79.5q-107 0 -167.5 -77 t-80.5 -206z" />
<glyph unicode="q" horiz-adv-x="1253" d="M109 543q26 161 99 288t191 202t263 75q97 0 162 -23t108 -86l49 82h248l-232 -1464h-317l70 440q-123 -86 -277 -86q-148 0 -240 73.5t-121.5 200.5t-2.5 298zM434 541q-21 -136 14 -215.5t132 -79.5q109 0 170.5 81t83.5 218q45 291 -156 291q-97 0 -159 -79.5 t-85 -215.5z" />
<glyph unicode="r" horiz-adv-x="833" d="M37 0l172 1081h205l51 -120q114 135 305 135q62 0 127 -15l-68 -305q-75 21 -124 21q-99 0 -169 -60t-85 -153l-93 -584h-321z" />
<glyph unicode="s" horiz-adv-x="1083" d="M29 387h307q-6 -83 38 -119.5t122 -36.5q164 0 180 88q2 16 -3 28.5t-19.5 21.5t-29.5 15.5t-41 12t-47 9t-54.5 9t-55.5 9.5q-96 18 -171.5 63.5t-115 116.5t-26.5 152q27 164 172.5 258t345.5 94q213 0 321 -109.5t80 -281.5l-295 -2q2 66 -35.5 103.5t-107.5 37.5 q-72 0 -118 -21.5t-52 -56.5q-6 -33 20.5 -52.5t75.5 -27.5q93 -16 160 -33.5t134 -46.5t106 -65.5t58.5 -92.5t8.5 -126q-28 -179 -170 -271t-362 -92q-76 0 -142.5 14.5t-123.5 46.5t-96 79.5t-56.5 118t-7.5 157.5z" />
<glyph unicode="t" horiz-adv-x="796" d="M31 813l41 268h170l28 183l346 147l-53 -330h248l-41 -268h-248l-71 -453q-9 -53 9 -75.5t64 -22.5q50 0 164 19l-22 -263q-117 -36 -246 -36q-354 0 -293 366l74 465h-170z" />
<glyph unicode="u" horiz-adv-x="1204" d="M92 371l113 710h321l-106 -663q-12 -85 13.5 -123.5t92.5 -38.5q87 0 145.5 64.5t73.5 154.5l97 606h321l-172 -1081h-213l-43 111q-133 -142 -325 -142q-185 0 -267 104.5t-51 297.5z" />
<glyph unicode="v" horiz-adv-x="1107" d="M68 1081h360l119 -643q17 34 89 178.5t124.5 254.5t95.5 210h352l-579 -1081h-318z" />
<glyph unicode="w" horiz-adv-x="1581" d="M100 1081h336l43 -581q30 63 99.5 214.5t115 248t54.5 112.5h268l80 -573q35 84 107.5 279t117.5 300h328l-463 -1081h-295l-90 606q-54 -111 -159 -342l-120 -264h-293z" />
<glyph unicode="x" horiz-adv-x="1089" d="M-109 0l471 553q-171 335 -284 528h377l143 -284q39 41 122 145.5t111 138.5h355l-445 -522q3 -7 9.5 -21.5t9.5 -21.5q35 -61 80 -149.5t101 -203t81 -163.5h-367l-153 313q-149 -189 -189 -237l-63 -76h-359z" />
<glyph unicode="y" horiz-adv-x="1124" d="M-18 -348l75 272q40 -19 66.5 -29t42.5 -13t35 -3q65 0 114 88l47 88q-9 35 -69.5 275.5t-114 450.5t-78.5 300h367l127 -637q118 221 315 637h348l-626 -1147q-41 -76 -80 -130t-90 -102t-114.5 -72.5t-139.5 -24.5q-145 0 -225 47z" />
<glyph unicode="z" horiz-adv-x="1030" d="M-14 0l34 240l582 573h-481l41 268h893l-39 -245l-574 -570h498l-41 -266h-913z" />
<glyph unicode="{" horiz-adv-x="729" d="M27 504l43 270q110 0 155.5 44t63.5 151l37 237q26 162 135.5 250t283.5 88h140l-41 -256h-111q-114 0 -129 -104l-51 -318q-13 -71 -52.5 -130.5t-107.5 -94.5q52 -41 74.5 -101.5t13.5 -127.5l-51 -318q-15 -104 96 -104h111l-41 -256h-139q-174 0 -255 88t-55 252 l37 235q16 105 -16.5 150t-140.5 45z" />
<glyph unicode="|" horiz-adv-x="557" d="M-8 -266l287 1810h286l-289 -1810h-284z" />
<glyph unicode="}" horiz-adv-x="729" d="M-160 -266l41 256h111q112 0 127 104l51 318q12 68 54 128.5t108 100.5q-112 65 -90 225l51 318q15 104 -96 104h-111l41 256h139q174 0 254.5 -88t54.5 -250l-36 -237q-18 -107 14.5 -151t142.5 -44l-43 -270q-109 0 -156 -45.5t-63 -149.5l-37 -235 q-26 -163 -135 -251.5t-282 -88.5h-140z" />
<glyph unicode="~" horiz-adv-x="1304" d="M59 530q75 177 178 266t252 89q58 0 113 -20t89.5 -44.5t77.5 -44.5t79 -20q43 0 86 36.5t74 98.5l235 -113l-8 -20q-73 -168 -174 -252t-248 -84q-51 0 -109 21t-99 45.5t-84 45.5t-68 21q-41 0 -83.5 -39t-76.5 -102l-119 61q-10 5 -54 25t-61 30z" />
<glyph unicode="&#xa1;" horiz-adv-x="620" d="M14 -389l213 1026h250l-127 -1026h-336zM195 719l55 348h325l-55 -348h-325z" />
<glyph unicode="&#xa2;" d="M119 723q37 227 163 374.5t336 180.5l31 186h180l-28 -180q115 -15 190.5 -80t105 -158t21.5 -208l-319 2q13 115 -45 153l-84 -534q77 53 98 155l317 2l-2 -20q-40 -176 -156.5 -290.5t-303.5 -139.5l-29 -178h-180l30 184q-105 16 -178 64.5t-109 120.5t-46.5 166 t8.5 200zM391 727q-12 -71 2.5 -124.5t37 -79t61.5 -56.5l81 520q-38 -25 -58 -41t-49.5 -47.5t-47.5 -73.5t-27 -98z" />
<glyph unicode="&#xa3;" horiz-adv-x="1196" d="M-10 0q4 23 7.5 45t11.5 78t20 133q86 37 120 88.5t50 153.5q9 56 14 100h-145l41 266l133 2q4 80 14 138q23 143 98 246t183.5 153.5t238.5 50.5q106 0 184 -35.5t121 -97t59.5 -139t6.5 -166.5l-297 2q7 158 -113 158q-73 0 -115 -43.5t-53 -116.5l-20 -152h348 l-41 -266h-332l-20 -119q-18 -124 -60 -190h592l-47 -289h-999z" />
<glyph unicode="&#xa4;" horiz-adv-x="1241" d="M-29 451l78 217h119l12 73h-162l78 217h142q30 82 72 153.5t100.5 135t128 108.5t158 71t186.5 26q171 0 269.5 -76t143.5 -223l-245 -154q-43 83 -95 122.5t-127 39.5q-81 0 -153.5 -56.5t-114.5 -146.5h440l-104 -217h-397l-13 -73h377l-88 -217h-295q14 -87 68 -141 t135 -54q82 0 152.5 46.5t115.5 125.5l222 -129q-83 -153 -219 -241.5t-318 -88.5q-120 0 -211.5 36.5t-148 102.5t-86.5 151.5t-35 191.5h-185z" />
<glyph unicode="&#xa5;" d="M45 291l37 225h321l15 100h-322l37 224h195q-47 115 -232 579h342q57 -158 193 -516q59 84 177 260.5t173 255.5h332l-408 -579h205l-37 -224h-334l-14 -100h334l-37 -225h-334l-45 -291h-321l45 291h-322z" />
<glyph unicode="&#xa6;" horiz-adv-x="577" d="M0 -172l113 719h311l-115 -719h-309zM156 821l110 701h312l-111 -701h-311z" />
<glyph unicode="&#xa7;" horiz-adv-x="1134" d="M29 80h301q-4 -89 28.5 -130.5t104.5 -41.5q69 0 108 25t45 69q12 63 -49 88q-58 39 -167 104q-39 23 -58.5 35t-53 33t-49.5 34.5t-42 34.5t-38 38t-29 40t-23 45.5t-12 50t-5.5 58t6.5 64.5q21 143 189 256q-34 46 -53 110t-9 127q26 159 167.5 258t334.5 99 q103 0 182.5 -35t125.5 -95t67 -134.5t16 -157.5h-301q12 75 -23 114t-108 39q-141 0 -154 -92q-5 -30 6.5 -50t45.5 -38q58 -39 163 -103q41 -24 60.5 -36.5t53.5 -34t50.5 -34.5t42 -34t37 -36.5t28 -37.5t22.5 -42.5t12 -45.5t5.5 -52t-5.5 -58q-24 -157 -191 -274 q81 -91 58 -238q-26 -164 -161.5 -261t-328.5 -97q-202 0 -311 107.5t-88 328.5zM387 645q-3 -22 1 -43t11.5 -37.5t25.5 -35.5t31.5 -31.5t41.5 -31.5t43.5 -28.5t50 -30.5t49.5 -30q108 26 121 108q5 32 -5 57.5t-39 50t-57.5 43t-83 52t-94.5 60.5q-38 -9 -64 -36.5 t-32 -66.5z" />
<glyph unicode="&#xa8;" horiz-adv-x="702" d="M-23 1262l46 303h301l-48 -303h-299zM379 1262l47 303h303l-47 -303h-303z" />
<glyph unicode="&#xa9;" horiz-adv-x="1652" d="M96 729q34 215 157 385t304 263t387 93q157 0 284 -54.5t207.5 -151t113.5 -235t7 -300.5q-35 -217 -158 -387.5t-303 -263t-386 -92.5q-213 0 -365 93t-218 262.5t-30 387.5zM328 729q-38 -236 77 -381t338 -145q219 0 381.5 146t200.5 380q37 233 -79.5 378.5 t-336.5 145.5q-223 0 -383.5 -145.5t-197.5 -378.5zM434 725q30 185 157.5 304.5t313.5 119.5q158 0 244 -102t61 -256l-256 2q-2 56 -25 91.5t-65 35.5q-67 0 -109.5 -56.5t-54.5 -136.5q-13 -83 11.5 -140t89.5 -57q45 0 78.5 34.5t48.5 92.5h264q-41 -163 -152 -258.5 t-274 -95.5q-127 0 -209.5 56.5t-112 150.5t-10.5 215z" />
<glyph unicode="&#xaa;" horiz-adv-x="626" d="M59 788q21 139 98 226.5t193 87.5q80 0 125 -39l4 24h164l-96 -600h-125l-14 52q-65 -68 -164 -68q-115 0 -161.5 87.5t-23.5 229.5zM227 788q-13 -74 5.5 -118.5t70.5 -44.5q59 0 88 44.5t43 121.5q23 159 -80 159q-51 0 -83.5 -44t-43.5 -118z" />
<glyph unicode="&#xab;" horiz-adv-x="1161" d="M94 571l398 508l215 -147l-281 -361l162 -348l-248 -153zM551 571l397 508l211 -147l-274 -361l162 -354l-250 -147z" />
<glyph unicode="&#xac;" horiz-adv-x="1286" d="M121 561l47 289h1008l-97 -600h-301l49 311h-706z" />
<glyph unicode="&#xad;" horiz-adv-x="872" d="M63 475l48 305h694l-47 -305h-695z" />
<glyph unicode="&#xae;" horiz-adv-x="1357" d="M74 881q41 265 240 436.5t460 171.5q176 0 302 -77.5t180.5 -216t27.5 -314.5q-29 -180 -130 -319.5t-250.5 -214.5t-323.5 -75q-268 0 -409 167.5t-97 441.5zM285 881q-31 -187 59.5 -300.5t267.5 -113.5q176 0 299 111h-213l-51 192h-33l-30 -192h-199l100 628h252 q124 0 180 -58.5t41 -158.5q-18 -115 -106 -174q8 -24 32.5 -107t37.5 -120q120 108 151 293q29 187 -62 301t-268 114q-175 0 -302 -114t-156 -301zM643 950h57q48 0 54 39q3 17 -9 25t-40 8h-52z" />
<glyph unicode="&#xaf;" horiz-adv-x="702" d="M2 1272l43 266h643l-43 -266h-643z" />
<glyph unicode="&#xb0;" horiz-adv-x="817" d="M63 1130q22 144 133 240t265 96q151 0 233.5 -96t59.5 -240q-25 -149 -139.5 -245.5t-262.5 -96.5t-231 96.5t-58 245.5zM303 1130q-8 -47 16 -78.5t70 -31.5q44 0 78.5 32t42.5 78q7 47 -17 76t-69 29q-47 0 -80 -29t-41 -76z" />
<glyph unicode="&#xb1;" horiz-adv-x="2770" d="M76 524l45 283h393l66 416h292l-65 -416h395l-45 -283h-395l-70 -432h-293l70 432h-393zM907 -12l791 1503h299l-791 -1503h-299zM1642 524l46 289h1011l-45 -289h-1012z" />
<glyph unicode="&#xb2;" horiz-adv-x="604" d="M-33 684l21 135q32 26 162 146q45 42 106.5 96t85.5 76.5t45.5 53t26.5 60.5q5 37 -13.5 61.5t-56.5 24.5q-44 0 -76 -29t-47 -85h-180q32 120 115 198t215 78q122 0 184 -66t43 -176q-11 -72 -57 -134t-131 -134h2q-4 -4 -65.5 -60.5t-88.5 -80.5h279l-27 -164h-543z " />
<glyph unicode="&#xb3;" horiz-adv-x="604" d="M2 956h172q-9 -118 86 -118q45 0 77 23.5t38 68.5q7 46 -17 68t-75 22h-82l26 158h86q89 0 101 79q5 33 -14 55.5t-58 22.5q-99 0 -127 -104h-168q19 112 108 186t212 74q118 0 179 -62t46 -159q-8 -49 -37 -92.5t-74 -69.5q43 -30 61.5 -77t10.5 -99q-19 -116 -102 -183 t-213 -67q-132 0 -192 79.5t-44 194.5z" />
<glyph unicode="&#xb4;" horiz-adv-x="649" d="M18 1311l394 338l166 -199l-418 -283z" />
<glyph unicode="&#xb5;" horiz-adv-x="1261" d="M109 188v1080h1079v-1080h-1079zM164 717q0 -16 8.5 -29.5t24.5 -13.5q17 0 25.5 11t8.5 22q0 14 -10 14t-10 -8q0 -5 3 -9t3 -6q0 -18 -20 -18q-10 0 -16.5 11.5t-6.5 25.5q0 34 34 52.5t66 18.5q11 0 11 -26l6 -119q0 -4 4 -4q23 0 61 76q0 -1 2 -33.5t2 -38.5 q0 -4 11 -4q35 17 52 55.5t17 59.5q0 39 -8 39q-16 0 -16 -5q0 -4 4 -4q6 0 6 -34q0 -26 -11 -49.5t-22 -34.5t-14 -11q-4 0 -4 13l-4 116q2 2 2 4q0 7 -4 7t-8.5 -2.5t-6.5 -5.5l-2 -3q4 -45 4 -49q0 -10 -22 -41.5t-27 -31.5q-2 0 -2 20.5t-1.5 52t-4.5 51.5q-3 11 -16 11 q-57 0 -88 -25t-31 -55zM432 670q0 -9 2 -13q0 -5 8 -12.5t21 -7.5q3 0 6.5 0.5t11 3.5t13 8.5t10 17.5t4.5 29q0 35 -27 35q-7 0 -16.5 -3t-21 -18t-11.5 -40zM449 668v4q0 51 22 51h2q19 0 19 -33v-2q0 -15 -7 -30t-18 -15q-18 0 -18 25zM514 707l4 -9l4 4v7q0 8 10 8 q5 0 8 -10t3 -15q0 -12 -4 -26t-4 -25l4 -4q14 0 14 8v2q0 17 3 32.5t6.5 24.5t6.5 9h2q8 -4 9 -4q3 0 5 2t3 4v2q0 5 -5.5 9.5t-9.5 4.5q-9 0 -12 -15.5t-6 -15.5q-1 0 -2.5 8t-5 15.5t-8.5 7.5q-6 0 -15.5 -8.5t-9.5 -15.5zM582 664q0 -27 22 -27q12 0 19.5 5.5t11 11 t6.5 5.5v-8q0 -16 12 -16q9 0 17 8t10 16l-4 5q-4 0 -4 -9q0 -8 -10 -8q-7 0 -7 12q0 9 1.5 20t3 24t2.5 22v6q1 8 5.5 29t4.5 31q0 4 -6 4q-33 0 -33 -9q0 -4 4 -4q4 2 8 2q8 0 8 -6q0 -11 -3.5 -35t-4.5 -24t-2 2.5t-4.5 5t-9.5 2.5q-18 0 -32.5 -19t-14.5 -46zM598 668 q0 14 4 27t11.5 20.5t15.5 7.5q12 0 12 -23v-12q0 -9 -7 -25t-22 -16q-14 0 -14 21zM686 655q0 -18 27 -18q32 0 32 27q0 11 -19 27.5t-19 21.5q0 8 10 8q7 0 11 -4t7 -4q8 0 8 6q0 10 -14 10h-2q-12 0 -22.5 -6t-10.5 -18q0 -13 19.5 -26t19.5 -24q0 -5 -5.5 -8.5 t-10.5 -3.5q-17 0 -17 8v2q0 9 -8 9q-6 0 -6 -7zM750 786q0 -2 6 -2h8q6 0 6 -8q0 -7 -1 -16t-2.5 -20t-2.5 -17v-2q-4 -42 -8 -59l-4 -21q0 -2 12 -2q6 0 6 4v16l2 8q2 8 4.5 16t6.5 16.5t9 14t11 5.5t9.5 -3.5t3.5 -7.5l1 -3q0 -11 -6 -33.5t-6 -30.5q0 -10 10 -10 q12 0 18.5 3.5t10.5 14.5l2 4q0 4 -4 4q-4 -2 -4 -6q-3 -10 -11 -10q-6 0 -6 6q0 1 2.5 11.5t5 24.5t2.5 24q0 3 -1.5 8t-7.5 10.5t-15 5.5q-7 0 -13.5 -4.5t-9 -9t-2.5 -6.5l-4 -4h-2q1 4 4 32t6 41q2 4 2 11q0 4 -6 4q-32 0 -32 -9zM852 664q0 -27 22 -27q11 0 31 20 q2 0 2 -4v-8q0 -8 11 -8q8 0 17 6.5t9 13.5q0 5 -4 5q-2 0 -6 -8.5t-8 -8.5q-6 0 -6 14q0 10 2.5 22.5t5.5 24t4 15.5q0 1 1 2t1 2q0 2 -6 2h-2q-9 0 -11 -8q0 -2 -2 -2l-5 6q-4 6 -9 6q-19 0 -41 -33q-6 -18 -6 -32zM868 666q0 44 27 57q14 0 14 -27q0 -22 -8.5 -35.5 t-19.5 -13.5q-13 0 -13 19zM934 610q0 -10 33 -10q14 0 14 6q-2 2 -4 2h-6q-6 0 -6 8q0 25 4 25q1 0 6 -2t14 -2q14 0 26.5 17.5t12.5 35.5q0 16 -9.5 27.5t-23.5 11.5q-8 -2 -14 -2l-2 2q0 7 2 18t2 13l-4 4h-6v-2q-6 0 -6 -6l-2 -19v-6q0 -8 -7 -10q-22 -13 -22 -23 q0 -4 4 -4q1 0 8 7.5t8 7.5q0 4 5 4l2 -2l-11 -76q0 -23 -8 -23h-8q-2 0 -2 -2zM971 657v5q0 10 2.5 26t3.5 21v8q0 4 10 4t17.5 -9.5t7.5 -23.5q0 -15 -6 -30t-19 -15q-6 0 -10 3.5t-5 6t-1 4.5zM1034 668q0 -9 3.5 -15.5t6.5 -9t5 -2.5q8 -4 20 -4q8 0 20.5 5.5t12.5 14.5 q0 5 -4 5t-4 -5q-7 -14 -23 -14q-7 0 -13.5 6t-6.5 19q0 4 4 4h2q9 0 23 11t14 28q0 18 -19 18q-15 0 -28 -19.5t-13 -41.5zM1051 684q0 35 14 35h2q12 0 12 -14q0 -6 -4.5 -16.5t-13.5 -10.5q-10 0 -10 6z" />
<glyph unicode="&#xb6;" horiz-adv-x="1359" d="M92 1008q27 166 144.5 285t295.5 145h738l-205 -1291h-287l164 1043h-119l-164 -1043h-286l65 418q-189 20 -281 146t-65 297z" />
<glyph unicode="&#xb7;" horiz-adv-x="573" d="M72 498l59 370h350l-59 -370h-350z" />
<glyph unicode="&#xb8;" horiz-adv-x="579" d="M23 -438l245 344h252l-250 -463z" />
<glyph unicode="&#xb9;" horiz-adv-x="604" d="M211 1210l29 189l206 125h142l-121 -766h-174l88 557q-4 -2 -35 -23q-1 -1 -5 -3t-5 -3q-15 -9 -61.5 -37t-63.5 -39z" />
<glyph unicode="&#xba;" horiz-adv-x="782" d="M84 758q25 158 123.5 251t247.5 93q152 0 220 -93t44 -251q-25 -155 -124 -248.5t-249 -93.5q-153 0 -220 92t-42 250zM281 758q-29 -176 92 -176t151 176q25 178 -96 178q-63 0 -99 -49.5t-48 -128.5z" />
<glyph unicode="&#xbb;" horiz-adv-x="1161" d="M31 223l276 350q-122 273 -164 359l260 147l234 -508l-401 -501zM489 223l273 348q-7 15 -64.5 148t-101.5 213l264 147l234 -508l-402 -501z" />
<glyph unicode="&#xbc;" horiz-adv-x="1884" d="M479 0l836 1583h252l-836 -1583h-252zM551 1292l29 176l194 119h133l-114 -721h-164l84 525q-33 -19 -43 -29q-19 -10 -62 -36t-57 -34zM991 188l19 117l395 457h154l-68 -430h90l-22 -144h-91l-24 -157h-162l25 157h-316zM1202 332h127l29 182q-65 -69 -156 -182z" />
<glyph unicode="&#xbd;" horiz-adv-x="2123" d="M498 0l833 1583h256l-831 -1583h-258zM563 1253l31 203l225 137h154l-133 -835h-191l96 606q-31 -21 -34 -23q-3 -1 -5.5 -2.5t-5.5 -3t-4 -2.5q-37 -22 -133 -80zM1067 29l20 133q40 32 158 141q31 30 65 60.5t56.5 50t45.5 40.5t37.5 36t27 31t19 32t9.5 33 q4 24 -2.5 43t-23 31t-41.5 12q-86 0 -121 -115h-176q15 56 41 103t64.5 86t94.5 61t123 22q78 0 133 -29t78.5 -82.5t12.5 -125.5q-11 -71 -56.5 -131.5t-130.5 -132.5h2q-6 -4 -32.5 -29.5t-61 -58t-55.5 -50.5l-2 -2h274l-24 -159h-535z" />
<glyph unicode="&#xbe;" horiz-adv-x="1884" d="M266 1040h183q-9 -127 92 -127q47 0 81.5 25t41.5 72q7 50 -19 73t-82 23h-86l27 166h92q91 0 106 86q5 34 -14.5 58t-62.5 24q-100 0 -133 -111h-179q21 119 115 197t223 78q127 0 191 -65.5t49 -168.5q-9 -52 -39.5 -97.5t-77.5 -74.5q45 -30 64 -79.5t10 -106.5 q-20 -122 -107 -192t-223 -70q-142 0 -206 84t-46 206zM397 0l834 1583h252l-834 -1583h-252zM897 203l23 133l450 518h176l-78 -487h101l-27 -164h-100l-29 -178h-186l28 178h-358zM1139 367h143l33 206q-141 -162 -176 -206z" />
<glyph unicode="&#xbf;" horiz-adv-x="1044" d="M-35 -16q19 112 72.5 189.5t140.5 145.5q40 32 50.5 40t41.5 34.5t40 38.5t29 38.5t28.5 49.5t18.5 55.5t17 71.5h318q-7 -45 -16.5 -84.5t-18.5 -70.5t-23.5 -61t-25 -50t-29.5 -43.5t-30.5 -37t-35.5 -35t-36.5 -32t-41 -33.5t-42.5 -34q-32 -26 -43.5 -36.5t-34 -34 t-33 -46t-14.5 -49.5q-8 -56 26 -93.5t101 -37.5q169 0 225 203h316q-37 -213 -202 -350.5t-390 -137.5q-213 0 -324.5 111.5t-83.5 288.5zM408 713l57 356h332l-58 -356h-331z" />
<glyph unicode="&#xc0;" horiz-adv-x="1316" d="M-160 0l758 1458h326l301 -1458h-361l-55 297h-471q-27 -50 -78 -151.5t-74 -145.5h-346zM344 1939h377l285 -342h-328zM479 590h281q-16 66 -39.5 208t-38.5 208q-37 -74 -100.5 -208.5t-102.5 -207.5z" />
<glyph unicode="&#xc1;" horiz-adv-x="1316" d="M-172 0l760 1458h325l299 -1458h-360l-55 297h-471q-15 -29 -68.5 -135.5t-83.5 -161.5h-346zM469 590h281q-16 66 -39.5 208t-38.5 208q-45 -87 -107.5 -219.5t-95.5 -196.5zM602 1739l393 338l164 -199l-416 -283z" />
<glyph unicode="&#xc2;" horiz-adv-x="1316" d="M-162 0l760 1458h326l299 -1458h-361l-55 297h-471q-15 -29 -68.5 -135.5t-83.5 -161.5h-346zM369 1597l362 353h219l248 -353h-307l-80 156l-127 -156h-315zM479 590h281q-16 66 -39.5 208t-38.5 208q-45 -87 -107.5 -219.5t-95.5 -196.5z" />
<glyph unicode="&#xc3;" horiz-adv-x="1316" d="M-160 0l760 1458h326l299 -1458h-361l-55 297h-471q-21 -39 -72.5 -141.5t-79.5 -155.5h-346zM387 1686q44 118 123.5 180.5t181.5 62.5q41 0 84.5 -20.5t81.5 -41t66 -20.5q26 0 52.5 23t41.5 59l182 -84q-43 -118 -124 -182t-177 -64q-44 0 -124 42t-107 42 q-28 0 -55 -22.5t-44 -61.5zM481 590h281q-16 70 -40.5 212.5t-37.5 203.5q-45 -87 -107.5 -219.5t-95.5 -196.5z" />
<glyph unicode="&#xc4;" horiz-adv-x="1316" d="M-158 0l760 1458h326l299 -1458h-361l-55 297h-471q-21 -39 -72.5 -141.5t-79.5 -155.5h-346zM410 1597l47 304h301l-47 -304h-301zM483 590h281q-16 70 -40.5 212.5t-37.5 203.5q-45 -87 -107.5 -219.5t-95.5 -196.5zM813 1597l47 304h303l-47 -304h-303z" />
<glyph unicode="&#xc5;" horiz-adv-x="1316" d="M-158 0l752 1442q-83 73 -62 203q20 117 106 187.5t196 70.5q112 0 176.5 -70.5t44.5 -187.5q-20 -127 -123 -203l295 -1442h-361l-55 297h-471q-21 -39 -72.5 -141.5t-79.5 -155.5h-346zM483 590h281q-16 70 -40.5 212.5t-37.5 203.5q-45 -87 -107.5 -219.5 t-95.5 -196.5zM731 1645q-9 -64 51 -64q30 0 51 16.5t25 47.5q6 33 -9.5 50t-45.5 17q-60 0 -72 -67z" />
<glyph unicode="&#xc6;" horiz-adv-x="2058" d="M-121 0l991 1458h1205l-50 -303h-634l-39 -250h571l-47 -303h-571l-48 -299h656l-49 -303h-985l61 385h-442q-79 -124 -252 -385h-367zM690 682h297l74 473h-62q-59 -101 -174 -271.5t-135 -201.5z" />
<glyph unicode="&#xc7;" horiz-adv-x="1366" d="M133 727q25 160 84 295t151.5 241t227.5 166t299 60q163 0 277.5 -73t169 -196.5t53.5 -285.5h-338q3 119 -49.5 185.5t-161.5 66.5q-67 0 -123 -25t-96 -67t-71 -102t-50 -125t-31 -140q-12 -73 -13 -137.5t11.5 -125t39 -103.5t74.5 -69t113 -26q110 0 182.5 67.5 t104.5 188.5h350q-58 -239 -248 -396t-438 -157q-108 0 -196.5 26.5t-149.5 75.5t-104 118t-62 153t-22 181.5t16 203.5zM283 -518l247 344h252l-252 -463z" />
<glyph unicode="&#xc8;" horiz-adv-x="1239" d="M0 0l229 1458h1028l-47 -301h-700l-41 -254h639l-47 -299h-639l-47 -305h706l-47 -299h-1034zM367 1939h376l285 -342h-328z" />
<glyph unicode="&#xc9;" horiz-adv-x="1239" d="M-10 0l229 1458h1028l-47 -301h-700l-41 -254h639l-47 -299h-639l-50 -305h707l-47 -299h-1032zM440 1739l394 338l163 -199l-415 -283z" />
<glyph unicode="&#xca;" horiz-adv-x="1239" d="M0 0l229 1458h1028l-47 -301h-700l-41 -254h639l-47 -299h-639l-49 -305h706l-47 -299h-1032zM330 1597l362 353h219l248 -353h-307l-80 156l-127 -156h-315z" />
<glyph unicode="&#xcb;" horiz-adv-x="1239" d="M2 0l231 1458h1029l-50 -301h-700l-39 -254h639l-47 -299h-639l-49 -305h706l-47 -299h-1034zM371 1597l47 304h301l-47 -304h-301zM774 1597l47 304h303l-47 -304h-303z" />
<glyph unicode="&#xcc;" horiz-adv-x="530" d="M-47 1939h375l284 -342h-327zM-16 0l227 1458h336l-230 -1458h-333z" />
<glyph unicode="&#xcd;" horiz-adv-x="530" d="M-29 0l230 1458h336l-232 -1458h-334zM209 1739l393 338l164 -199l-416 -283z" />
<glyph unicode="&#xce;" horiz-adv-x="530" d="M-23 1597l361 353h219l248 -353h-307l-80 156l-127 -156h-314zM-18 0l229 1458h336l-232 -1458h-333z" />
<glyph unicode="&#xcf;" horiz-adv-x="530" d="M-14 0l229 1458h336l-232 -1458h-333zM16 1597l47 304h302l-48 -304h-301zM420 1597l47 304h303l-47 -304h-303z" />
<glyph unicode="&#xd0;" horiz-adv-x="1474" d="M12 623l43 262h142l90 571h561q116 0 208 -25.5t153.5 -72.5t104.5 -112.5t60 -146t19.5 -173t-15.5 -193.5q-20 -126 -60 -234t-106 -201t-152.5 -158.5t-206 -102.5t-261.5 -37h-537l99 623h-142zM432 297h172q90 0 161 24t116.5 62t78.5 97t50.5 117.5t29.5 133.5 q11 70 13 127t-9.5 115t-38 97.5t-78.5 64t-126 24.5h-232l-43 -274h279l-43 -262h-279z" />
<glyph unicode="&#xd1;" horiz-adv-x="1468" d="M0 0l231 1458h314l403 -854l135 854h328l-231 -1458h-310l-407 858l-135 -858h-328zM463 1686q44 118 123.5 180.5t181.5 62.5q52 0 126 -41t105 -41q27 0 53.5 23t41.5 59l182 -84q-43 -118 -124 -182t-177 -64q-44 0 -124.5 42t-107.5 42q-28 0 -54.5 -22.5 t-43.5 -61.5z" />
<glyph unicode="&#xd2;" horiz-adv-x="1460" d="M55 727q26 163 88 300.5t157.5 241.5t230 162t294.5 58q130 0 231.5 -38t165.5 -106.5t102.5 -163.5t43 -209.5t-13.5 -244.5q-26 -163 -87 -299.5t-155.5 -239.5t-229.5 -161t-298 -58q-108 0 -196.5 26.5t-151 75.5t-107 117.5t-64.5 152.5t-24 182t14 204zM389 727 q-12 -75 -13 -139.5t12 -124.5t41.5 -102.5t80 -67.5t121.5 -25q87 0 156 37.5t114 104t73 144.5t44 173q12 75 13 139t-11.5 124.5t-41 102.5t-80 67.5t-122.5 25.5q-89 0 -158.5 -38t-114 -105.5t-72 -144.5t-42.5 -171zM463 1972h377l284 -342h-327z" />
<glyph unicode="&#xd3;" horiz-adv-x="1460" d="M43 727q21 130 64.5 244t111 209.5t154 164t199 106.5t241.5 38q109 0 197.5 -26.5t151 -75.5t107.5 -118t64.5 -153.5t23 -183t-15.5 -205.5q-26 -163 -87 -299.5t-154.5 -239.5t-228.5 -161t-298 -58q-108 0 -196.5 26.5t-151 75.5t-107 117.5t-65 152.5t-24.5 182 t14 204zM377 727q-12 -75 -12.5 -139.5t13 -124.5t42 -102.5t80 -67.5t121.5 -25q87 0 156 37.5t114 104t72.5 144.5t42.5 173q18 89 13.5 171.5t-26.5 146.5t-80 102.5t-147 38.5q-71 0 -131 -25.5t-102 -68.5t-74 -103.5t-51 -124t-31 -137.5zM618 1772l394 337l166 -198 l-418 -283z" />
<glyph unicode="&#xd4;" horiz-adv-x="1460" d="M53 727q21 130 64.5 244t111 209.5t154 164t199 106.5t241.5 38q109 0 197.5 -26.5t151.5 -75.5t107.5 -118t64.5 -153.5t23.5 -183t-15.5 -205.5q-26 -163 -87 -299.5t-154.5 -239.5t-228.5 -161t-298 -58q-108 0 -196.5 26.5t-151 75.5t-107.5 117.5t-65.5 152.5 t-24.5 182t14 204zM387 727q-12 -75 -12.5 -139.5t13 -124.5t42 -102.5t80 -67.5t121.5 -25q87 0 156 37.5t114 104t72.5 144.5t42.5 173q18 89 13.5 171.5t-26.5 146.5t-80 102.5t-147 38.5q-71 0 -131 -25.5t-102 -68.5t-74 -103.5t-51 -124t-31 -137.5zM446 1630l363 352 h219l248 -352h-307l-80 156l-127 -156h-316z" />
<glyph unicode="&#xd5;" horiz-adv-x="1460" d="M55 727q26 163 88 300.5t157.5 241.5t230 162t294.5 58q130 0 231.5 -38t165.5 -106.5t102.5 -163.5t43 -209.5t-13.5 -244.5q-26 -163 -87 -299.5t-154.5 -239.5t-228.5 -161t-298 -58q-108 0 -196.5 26.5t-151 75.5t-107.5 117.5t-65.5 152.5t-24.5 182t14 204z M389 727q-12 -75 -12.5 -139.5t13 -124.5t42 -102.5t80 -67.5t121.5 -25q87 0 156 37.5t114 104t72.5 144.5t42.5 173q17 89 12.5 171.5t-26.5 146.5t-79.5 102.5t-146.5 38.5q-71 0 -131 -25.5t-102 -68.5t-74 -103.5t-51 -124t-31 -137.5zM467 1718q44 118 123.5 181 t181.5 63q52 0 125 -41t104 -41q27 0 54.5 23t42.5 59l180 -84q-42 -117 -123.5 -181.5t-177.5 -64.5q-44 0 -123 42t-106 42q-28 0 -56 -22.5t-45 -61.5z" />
<glyph unicode="&#xd6;" horiz-adv-x="1460" d="M57 727q26 163 88 300.5t157.5 241.5t230 162t294.5 58q130 0 231.5 -38t165.5 -106.5t102.5 -163.5t43 -209.5t-13.5 -244.5q-26 -163 -87 -299.5t-154.5 -239.5t-228.5 -161t-298 -58q-108 0 -196.5 26.5t-151 75.5t-107.5 117.5t-65.5 152.5t-24.5 182t14 204z M391 727q-12 -75 -12.5 -139.5t13 -124.5t42 -102.5t80 -67.5t121.5 -25q87 0 156 37.5t114 104t72.5 144.5t42.5 173q17 89 12.5 171.5t-26.5 146.5t-79.5 102.5t-146.5 38.5q-71 0 -131 -25.5t-102 -68.5t-74 -103.5t-51 -124t-31 -137.5zM487 1630l50 303h301l-50 -303 h-301zM891 1630l49 303h303l-49 -303h-303z" />
<glyph unicode="&#xd7;" horiz-adv-x="1308" d="M59 317l394 340l-287 340l231 203l287 -342l401 338l164 -199l-391 -344l279 -342l-228 -200l-288 344l-398 -344z" />
<glyph unicode="&#xd8;" horiz-adv-x="1486" d="M68 -31q45 60 110 158l12 23q-49 54 -77 119.5t-35.5 141t-3 149t19.5 167.5q25 160 86 296t155.5 241t230.5 165t298 60q159 0 254 -49l109 145l166 -98q-94 -133 -117 -160q71 -78 104.5 -170.5t33 -196.5t-20.5 -233q-27 -165 -89 -302t-156.5 -239.5t-229 -159.5 t-295.5 -57q-158 0 -279 62l-117 -172zM424 463l498 702q-54 21 -107 21q-85 0 -153.5 -37t-114.5 -102.5t-75 -145t-44 -174.5q-25 -153 -4 -264zM537 299q60 -31 133 -31q89 0 158.5 38t114 105.5t72 144.5t42.5 171q31 202 0 297q-391 -550 -520 -725z" />
<glyph unicode="&#xd9;" horiz-adv-x="1404" d="M59 584l140 874h333l-139 -874q-25 -157 23.5 -236.5t179.5 -79.5q130 0 202 79t97 237l139 874h336l-139 -876q-47 -295 -226 -455t-458 -160q-281 0 -407.5 160t-80.5 457zM432 1939h377l285 -342h-328z" />
<glyph unicode="&#xda;" horiz-adv-x="1404" d="M49 584l137 874h334l-137 -874q-25 -157 22.5 -236.5t178.5 -79.5t203.5 79t97.5 237l137 874h336l-139 -876q-46 -295 -224.5 -455t-457.5 -160q-281 0 -407.5 160t-80.5 457zM567 1739l394 338l165 -199l-417 -283z" />
<glyph unicode="&#xdb;" horiz-adv-x="1404" d="M59 584l138 874h333l-137 -874q-25 -157 22.5 -236.5t178.5 -79.5t203.5 79t97.5 237l137 874h336l-139 -876q-46 -295 -224.5 -455t-457.5 -160q-281 0 -407.5 160t-80.5 457zM416 1597l362 353h219l248 -353h-307l-80 156l-127 -156h-315z" />
<glyph unicode="&#xdc;" horiz-adv-x="1404" d="M61 584l140 874h334l-140 -874q-24 -157 24 -236.5t179 -79.5t203 79.5t96 236.5l139 874h336l-139 -876q-46 -295 -224.5 -455t-457.5 -160q-281 0 -408.5 160.5t-81.5 456.5zM457 1597l47 304h301l-47 -304h-301zM860 1597l47 304h303l-47 -304h-303z" />
<glyph unicode="&#xdd;" horiz-adv-x="1198" d="M57 1458h357l225 -559q11 16 403 559h344l-634 -874l-93 -584h-333l92 584q-7 18 -67.5 161.5t-145.5 348.5t-148 364zM481 1739l393 338l164 -199l-415 -283z" />
<glyph unicode="&#xde;" horiz-adv-x="1263" d="M37 0l231 1458h330l-37 -237h197q116 0 205 -23.5t143 -66t86.5 -101.5t37 -129.5t-6.5 -150.5q-17 -110 -60.5 -197t-116.5 -154.5t-184 -104t-254 -36.5h-200l-41 -258h-330zM455 549h190q120 0 177 50t71 146q13 90 -29.5 135.5t-161.5 45.5h-188z" />
<glyph unicode="&#xdf;" horiz-adv-x="1241" d="M41 0l166 1032q33 212 182.5 333.5t362.5 121.5q134 0 229.5 -44.5t141 -134t26.5 -212.5q-28 -170 -174 -273q212 -88 166 -387q-32 -198 -171 -326t-352 -128q-127 0 -223 30l68 267q82 -23 151 -23q94 0 147.5 53t67.5 150q18 105 -37 149.5t-178 44.5h-75l43 271h77 q145 0 168 147q20 146 -122 146q-160 0 -197 -216l-158 -1001h-309z" />
<glyph unicode="&#xe0;" horiz-adv-x="1120" d="M23 541q26 165 94 291t179.5 201t252.5 75q146 0 225 -70l8 43h297l-172 -1081h-225l-27 92q-118 -121 -297 -121q-84 0 -149 28t-106 79t-65 122t-26 157t11 184zM254 1518h377l287 -342h-328zM328 543q-11 -64 -8 -118.5t18 -94t47 -62t78 -22.5q36 0 67.5 11t56 31.5 t44 48t33.5 62t23 71t13 77.5q49 289 -141 289q-90 0 -150 -80.5t-81 -212.5z" />
<glyph unicode="&#xe1;" horiz-adv-x="1120" d="M10 541q40 252 178.5 409.5t348.5 157.5q148 0 227 -70l6 43h297l-170 -1081h-225l-27 92q-121 -121 -299 -121q-138 0 -223.5 75.5t-111.5 201.5t-1 293zM317 543q-13 -87 -6 -153t43.5 -105t98.5 -39q101 0 157.5 78t75.5 204q16 88 12 156.5t-43 110t-108 41.5 q-90 0 -149.5 -80.5t-80.5 -212.5zM410 1317l395 338l164 -199l-418 -282z" />
<glyph unicode="&#xe2;" horiz-adv-x="1120" d="M20 541q40 252 178.5 409.5t348.5 157.5q145 0 227 -70l6 43h297l-170 -1081h-225l-27 92q-121 -121 -299 -121q-138 0 -223.5 75.5t-111.5 201.5t-1 293zM217 1176l365 352h219l246 -352h-308l-80 155l-127 -155h-315zM328 543q-13 -87 -6 -153t43 -105t98 -39 q101 0 157.5 78t75.5 204q16 88 12 156.5t-43 110t-108 41.5q-90 0 -149.5 -80.5t-79.5 -212.5z" />
<glyph unicode="&#xe3;" horiz-adv-x="1120" d="M23 541q26 165 94 291t179.5 201t252.5 75q145 0 227 -70l6 43h297l-172 -1081h-225l-27 92q-118 -121 -297 -121q-84 0 -149 28t-106 79t-65 122t-26 157t11 184zM238 1264q44 118 123.5 180.5t181.5 62.5q41 0 84.5 -20.5t81 -41t65.5 -20.5q26 0 52.5 23t41.5 59 l181 -84q-42 -117 -123.5 -181t-177.5 -64q-44 0 -123.5 42t-106.5 42q-28 0 -54.5 -22.5t-45.5 -61.5zM328 543q-21 -135 11.5 -216t123.5 -81q101 0 158.5 78.5t76.5 203.5q16 88 12 156.5t-43 110t-108 41.5q-90 0 -150 -80.5t-81 -212.5z" />
<glyph unicode="&#xe4;" horiz-adv-x="1120" d="M25 541q26 165 94 291t179.5 201t252.5 75q145 0 227 -70l6 43h297l-172 -1081h-225l-25 92q-121 -121 -299 -121q-84 0 -149 28t-106 79t-65 122t-26 157t11 184zM268 1176l49 303h301l-49 -303h-301zM330 543q-21 -135 11.5 -216t123.5 -81q101 0 158.5 78.5 t76.5 203.5l5 19q45 289 -144 289q-90 0 -150 -80.5t-81 -212.5zM672 1176l49 303h303l-49 -303h-303z" />
<glyph unicode="&#xe5;" horiz-adv-x="1120" d="M8 541q26 165 93.5 291t178.5 201t252 75q149 0 228 -70l6 43h297l-170 -1081h-225l-27 92q-118 -121 -297 -121q-138 0 -224 75.5t-112 202t0 292.5zM313 543q-11 -64 -8 -118.5t18 -94t47.5 -62t78.5 -22.5q36 0 67.5 11t56 31.5t44 48t33.5 62t23 71t13 77.5 q45 289 -143 289q-90 0 -149.5 -80.5t-80.5 -212.5zM395 1448q18 117 104 187.5t197 70.5q112 0 176 -70.5t46 -187.5q-20 -117 -106 -186.5t-198 -69.5q-111 0 -175 70t-44 186zM594 1448q-4 -21 1 -35.5t17.5 -21.5t32.5 -7q30 0 50 16t26 48q2 17 -0.5 30t-10 21 t-18.5 12.5t-26 4.5t-27 -4.5t-21.5 -13t-15.5 -21t-8 -29.5z" />
<glyph unicode="&#xe6;" horiz-adv-x="1800" d="M35 317q9 58 31 106.5t49 83.5t68 63t78 46t90.5 30.5t93 19t98 10t93.5 4t91 0.5l8 43q20 129 -112 129q-142 0 -177 -119h-305q54 190 191.5 282.5t335.5 92.5q208 0 301 -121q70 58 159.5 89.5t182.5 31.5q233 0 336 -150t61 -409l-16 -111h-686q0 -88 42.5 -147.5 t125.5 -59.5q127 0 188 140h311q-55 -195 -200 -297.5t-336 -102.5q-126 0 -220 44.5t-141 129.5q-71 -81 -165.5 -126.5t-231.5 -45.5q-175 0 -272 87.5t-72 256.5zM352 326q-7 -44 21 -66t82 -22q189 0 235 206q-2 0 -5 -1t-5 -1h-21q-46 -2 -66 -3t-56.5 -4t-52.5 -6 t-41 -9t-36.5 -14t-25 -19t-20 -26.5t-9.5 -34.5zM1047 676h366q3 79 -34 126.5t-113 47.5q-81 0 -137 -47.5t-82 -126.5z" />
<glyph unicode="&#xe7;" horiz-adv-x="1099" d="M119 539q20 123 70 226.5t125.5 180t182 119.5t232.5 43q141 0 237.5 -63.5t133.5 -164.5t18 -221h-315q13 175 -121 175q-187 0 -233 -293q-50 -293 139 -293q68 0 115.5 47.5t66.5 128.5h320q-34 -201 -179.5 -326t-365.5 -125q-105 0 -186 28t-132.5 78.5t-82.5 121 t-34.5 156t9.5 182.5zM184 -475l248 344h252l-252 -463z" />
<glyph unicode="&#xe8;" horiz-adv-x="1136" d="M49 537q40 259 203 415t407 156q237 0 341 -149t65 -402l-21 -117h-694q-2 -90 41.5 -147t130.5 -57q140 0 195 137h311q-57 -197 -204.5 -299.5t-342.5 -102.5q-167 0 -274.5 73t-145.5 199t-12 294zM262 1518h377l287 -342h-328zM389 676h383q0 79 -39.5 126.5 t-118.5 47.5q-83 0 -141 -48t-84 -126z" />
<glyph unicode="&#xe9;" horiz-adv-x="1136" d="M37 537q40 259 203 415t407 156q238 0 342.5 -149.5t65.5 -401.5l-21 -117h-694q-2 -90 41.5 -147t130.5 -57q141 0 193 137h311q-57 -197 -204.5 -299.5t-342.5 -102.5q-167 0 -274.5 73t-145.5 199t-12 294zM379 676h383q0 79 -40.5 126.5t-119.5 47.5 q-83 0 -140.5 -48t-82.5 -126zM459 1317l395 338l164 -199l-418 -282z" />
<glyph unicode="&#xea;" horiz-adv-x="1136" d="M47 537q40 259 203 415t407 156q238 0 342.5 -149.5t65.5 -401.5l-21 -117h-694q-2 -90 41.5 -147t130.5 -57q141 0 193 137h311q-57 -197 -204.5 -299.5t-342.5 -102.5q-167 0 -274.5 73t-145.5 199t-12 294zM246 1176l364 352h219l246 -352h-307l-80 155l-127 -155 h-315zM389 676h383q0 79 -40.5 126.5t-119.5 47.5q-83 0 -140.5 -48t-82.5 -126z" />
<glyph unicode="&#xeb;" horiz-adv-x="1136" d="M51 537q40 259 203.5 415t407.5 156q238 0 342 -149.5t65 -401.5l-22 -117h-695q0 -90 44 -147t130 -57q141 0 193 137h311q-57 -197 -204.5 -299.5t-342.5 -102.5q-167 0 -274.5 73t-145.5 199t-12 294zM287 1176l49 303h301l-49 -303h-301zM393 676h383 q-2 79 -42 126.5t-118 47.5q-83 0 -140.5 -48t-82.5 -126zM690 1176l49 303h303l-49 -303h-303z" />
<glyph unicode="&#xec;" horiz-adv-x="497" d="M-80 1487h375l287 -342h-328zM-31 0l170 1081h324l-172 -1081h-322z" />
<glyph unicode="&#xed;" horiz-adv-x="497" d="M-41 0l168 1081h324l-170 -1081h-322zM135 1286l393 338l166 -199l-418 -282z" />
<glyph unicode="&#xee;" horiz-adv-x="497" d="M-76 1145l361 352h219l248 -352h-308l-79 155l-127 -155h-314zM-31 0l168 1081h324l-170 -1081h-322z" />
<glyph unicode="&#xef;" horiz-adv-x="497" d="M-35 1145l47 303h301l-49 -303h-299zM-27 0l168 1081h324l-170 -1081h-322zM367 1145l49 303h303l-49 -303h-303z" />
<glyph unicode="&#xf0;" horiz-adv-x="1206" d="M47 506q39 251 194 403t382 152q54 0 90 -10q-33 61 -78 100q-59 -22 -108 -40.5t-70 -27t-29 -10.5q-25 119 -49 178l96 37q-38 32 -108 68l223 147q96 -47 180 -106l178 67q18 -75 49 -180l-84 -27q110 -118 163.5 -296.5t19.5 -397.5q-42 -269 -205.5 -430.5 t-411.5 -161.5q-163 0 -270 70t-146.5 189.5t-15.5 275.5zM369 514q-10 -54 -5.5 -102.5t20 -85t51 -58.5t87.5 -22q100 0 162 77t82 195q40 270 -164 270q-94 0 -153.5 -77t-79.5 -197z" />
<glyph unicode="&#xf1;" horiz-adv-x="1179" d="M10 0l172 1081h224l36 -114q69 70 155 106.5t175 36.5q184 0 264 -104.5t49 -296.5l-112 -709h-322l105 662q13 84 -11 121.5t-92 37.5q-64 0 -115.5 -41.5t-80.5 -102t-41 -132.5l-86 -545h-320zM287 1264q44 118 123.5 180.5t181.5 62.5q52 0 125 -41t104 -41 q27 0 54.5 23t42.5 59l180 -84q-42 -117 -123.5 -181t-177.5 -64q-44 0 -123.5 42t-106.5 42q-28 0 -55.5 -22.5t-44.5 -61.5z" />
<glyph unicode="&#xf2;" horiz-adv-x="1177" d="M49 541q40 260 204 413.5t411 153.5q252 0 364.5 -153.5t71.5 -413.5q-40 -258 -204.5 -414t-412.5 -156q-252 0 -362.5 154t-71.5 416zM262 1518h377l287 -342h-328zM373 541q-48 -293 153 -293q109 0 169 80.5t81 212.5q11 83 4 148t-48 105t-114 40q-104 0 -164.5 -81 t-80.5 -212z" />
<glyph unicode="&#xf3;" horiz-adv-x="1177" d="M37 541q42 261 205 414t409 153q253 0 365.5 -154t70.5 -413q-40 -258 -204 -414t-412 -156q-252 0 -362.5 154t-71.5 416zM360 541q-45 -293 156 -293q202 0 248 293q12 83 5.5 148t-47.5 105t-114 40q-104 0 -165 -81t-83 -212zM459 1317l395 338l164 -199l-418 -282z " />
<glyph unicode="&#xf4;" horiz-adv-x="1177" d="M47 541q42 261 205 414t410 153q252 0 364.5 -153.5t71.5 -413.5q-40 -258 -204.5 -414t-412.5 -156q-252 0 -362.5 154t-71.5 416zM266 1176l365 352h219l246 -352h-308l-79 155l-127 -155h-316zM371 541q-45 -293 155 -293q202 0 248 293q12 83 5.5 148t-47.5 105 t-114 40q-53 0 -96.5 -23t-72.5 -64t-48 -92t-30 -114z" />
<glyph unicode="&#xf5;" horiz-adv-x="1177" d="M49 541q42 261 205 414t410 153q252 0 364.5 -153.5t71.5 -413.5q-40 -258 -204.5 -414t-412.5 -156q-252 0 -362.5 154t-71.5 416zM287 1264q44 118 123.5 180.5t181.5 62.5q52 0 126 -41t105 -41q27 0 53.5 23t41.5 59l180 -84q-42 -117 -123.5 -181t-177.5 -64 q-44 0 -123.5 42t-106.5 42q-28 0 -54.5 -22.5t-45.5 -61.5zM373 541q-48 -293 153 -293q109 0 169 80.5t81 212.5q12 61 8.5 114t-19 93t-52.5 63t-92 23q-104 0 -166 -81.5t-82 -211.5z" />
<glyph unicode="&#xf6;" horiz-adv-x="1177" d="M51 541q42 261 205 414t410 153q252 0 364.5 -153.5t71.5 -413.5q-40 -258 -204.5 -414t-412.5 -156q-252 0 -362.5 154t-71.5 416zM307 1176l49 303h301l-49 -303h-301zM375 541q-45 -293 155 -293q202 0 248 293q12 61 8.5 114t-19 93t-52.5 63t-92 23q-104 0 -165 -81 t-83 -212zM711 1176l49 303h303l-49 -303h-303z" />
<glyph unicode="&#xf7;" horiz-adv-x="1269" d="M106 512l48 291h1007l-47 -291h-1008zM387 111l53 329h320l-53 -329h-320zM508 877l53 329h320l-54 -329h-319z" />
<glyph unicode="&#xf8;" horiz-adv-x="1214" d="M4 -131q150 212 166 235q-71 88 -91 188t3 249q40 259 203 413t411 154q105 0 181 -23l84 115h227l-158 -215q150 -147 103 -444q-41 -258 -204.5 -414t-412.5 -156q-105 0 -197 29l-100 -131h-215zM395 418q55 73 151 207.5t148 203.5q-15 5 -41 5q-104 0 -165.5 -81 t-81.5 -212l-5 -31q-6 -29 -6 -92zM502 252q16 -4 57 -4q108 0 168.5 81t81.5 212q12 81 6 145q-2 -2 -3 -5.5t-3 -4.5q-16 -22 -138.5 -194.5t-168.5 -229.5z" />
<glyph unicode="&#xf9;" horiz-adv-x="1169" d="M59 371l113 710h322l-107 -663q-12 -85 13.5 -123.5t93.5 -38.5q87 0 145.5 64.5t73.5 154.5l96 606h321l-172 -1081h-213l-43 111q-133 -142 -325 -142q-185 0 -267 104.5t-51 297.5zM276 1489h377l287 -342h-328z" />
<glyph unicode="&#xfa;" horiz-adv-x="1169" d="M49 371l113 710h321l-106 -663q-13 -84 12.5 -123t93.5 -39q87 0 145.5 64.5t73.5 154.5l97 606h321l-172 -1081h-213l-45 111q-130 -142 -323 -142q-185 0 -267 104.5t-51 297.5zM414 1288l393 338l164 -199l-418 -282z" />
<glyph unicode="&#xfb;" horiz-adv-x="1169" d="M57 371l113 710h322l-105 -663q-13 -84 13 -123t94 -39q87 0 145.5 64.5t73.5 154.5l94 606h321l-170 -1081h-213l-45 111q-130 -142 -325 -142q-185 0 -266 104.5t-52 297.5zM260 1147l365 352h219l246 -352h-308l-77 156l-130 -156h-315z" />
<glyph unicode="&#xfc;" horiz-adv-x="1169" d="M61 371l113 710h322l-105 -663q-13 -84 12 -123t93 -39q88 0 147 65t72 154l96 606h322l-170 -1081h-213l-45 111q-130 -142 -326 -142q-185 0 -266 104.5t-52 297.5zM301 1147l49 303h301l-49 -303h-301zM705 1147l49 303h303l-49 -303h-303z" />
<glyph unicode="&#xfd;" horiz-adv-x="1030" d="M-61 -348l75 272q40 -19 66.5 -29t42.5 -13t35 -3q66 0 112 88l49 88q-9 35 -69.5 275.5t-114 450.5t-78.5 300h367l127 -637q118 221 315 637h348l-626 -1147q-41 -76 -80 -130t-90 -102t-114.5 -72.5t-139.5 -24.5q-142 0 -225 47zM391 1286l395 338l164 -199 l-418 -282z" />
<glyph unicode="&#xfe;" horiz-adv-x="1245" d="M-8 -383l291 1853h315l-70 -444q125 82 277 82q89 0 158 -28.5t112 -80t68.5 -123t27.5 -156.5t-12 -181q-19 -117 -64.5 -219t-113 -180.5t-162.5 -123.5t-205 -45q-148 0 -239 82l-70 -436h-313zM444 535q-23 -138 13.5 -214.5t138.5 -76.5q97 0 159 80.5t83 214.5 q13 88 5 154.5t-46.5 105.5t-104.5 39q-106 0 -168.5 -83.5t-79.5 -219.5z" />
<glyph unicode="&#xff;" horiz-adv-x="1030" d="M-47 -348l76 272q59 -28 86.5 -36.5t54.5 -8.5q69 0 115 88l49 88q-5 19 -68 271.5t-116 458.5t-80 296h366l129 -637q140 263 314 637h348l-625 -1147q-43 -77 -81.5 -130.5t-89.5 -102t-114 -72.5t-139 -24q-148 0 -225 47zM260 1145l49 303h301l-49 -303h-301z M664 1145l49 303h303l-49 -303h-303z" />
<glyph unicode="&#x152;" horiz-adv-x="2142" d="M106 729q24 157 81 291t146.5 240.5t222 167.5t294.5 61q103 0 172 -22t119 -72l10 61h1008l-48 -299h-679l-41 -254h618l-47 -299h-619l-49 -305h701l-47 -299h-1028l10 63q-139 -94 -320 -94q-110 0 -198 28t-148 79t-100 120t-57.5 155t-17.5 180t17 198zM446 729 q-12 -76 -15.5 -137.5t5.5 -124t34 -104.5t74 -68.5t120 -26.5q82 0 145.5 31t105 88.5t68 126.5t43.5 158l10 67q12 74 15.5 133t-6 120t-35 101.5t-76.5 66.5t-125 26q-72 0 -129.5 -26.5t-95.5 -68.5t-66.5 -104t-44 -122.5t-27.5 -135.5z" />
<glyph unicode="&#x153;" horiz-adv-x="1908" d="M94 539q39 256 200.5 412.5t407.5 156.5q106 0 191.5 -42.5t140.5 -113.5q72 72 172 114t207 42q235 0 343 -151t65 -400l-21 -117h-686q2 -89 42 -149t118 -60q68 0 114.5 35.5t79.5 106.5h312q-62 -198 -204.5 -300t-338.5 -102q-210 0 -334 156q-81 -68 -181.5 -112 t-199.5 -44q-251 0 -360 156.5t-68 411.5zM422 539q-49 -293 143 -293q189 0 242 291q23 137 -11.5 217t-138.5 80q-189 0 -235 -295zM1155 676h369q3 174 -156 174q-79 0 -133 -47t-80 -127z" />
<glyph unicode="&#x178;" horiz-adv-x="1198" d="M72 1458h356l225 -559q75 106 225 312.5t179 246.5h344l-635 -874l-92 -584h-334l92 584q-7 18 -67.5 161.5t-145 348.5t-147.5 364zM350 1597l47 304h301l-47 -304h-301zM754 1597l47 304h303l-47 -304h-303z" />
<glyph unicode="&#x2c6;" horiz-adv-x="763" d="M-33 1196l361 352h219l248 -352h-308l-79 156l-127 -156h-314z" />
<glyph unicode="&#x2dc;" horiz-adv-x="770" d="M-10 1329q44 118 122.5 181t180.5 63q41 0 84.5 -20.5t81 -41t65.5 -20.5q27 0 54 23t40 59l183 -84q-43 -118 -124 -182t-177 -64q-44 0 -124.5 42t-107.5 42q-28 0 -54.5 -22.5t-43.5 -61.5z" />
<glyph unicode="&#x2000;" horiz-adv-x="1054" />
<glyph unicode="&#x2001;" horiz-adv-x="2109" />
<glyph unicode="&#x2002;" horiz-adv-x="1054" />
<glyph unicode="&#x2003;" horiz-adv-x="2109" />
<glyph unicode="&#x2004;" horiz-adv-x="703" />
<glyph unicode="&#x2005;" horiz-adv-x="527" />
<glyph unicode="&#x2006;" horiz-adv-x="351" />
<glyph unicode="&#x2007;" horiz-adv-x="351" />
<glyph unicode="&#x2008;" horiz-adv-x="263" />
<glyph unicode="&#x2009;" horiz-adv-x="421" />
<glyph unicode="&#x200a;" horiz-adv-x="117" />
<glyph unicode="&#x2010;" horiz-adv-x="872" d="M63 475l48 305h694l-47 -305h-695z" />
<glyph unicode="&#x2011;" horiz-adv-x="872" d="M63 475l48 305h694l-47 -305h-695z" />
<glyph unicode="&#x2012;" horiz-adv-x="872" d="M63 475l48 305h694l-47 -305h-695z" />
<glyph unicode="&#x2013;" horiz-adv-x="1185" d="M31 477l47 301h1075l-47 -301h-1075z" />
<glyph unicode="&#x2014;" horiz-adv-x="2199" d="M49 477l47 299h2052l-47 -299h-2052z" />
<glyph unicode="&#x2018;" horiz-adv-x="520" d="M35 856l47 303q25 152 94.5 244t224.5 151l74 -174q-83 -33 -121 -72t-53 -94h139l-55 -358h-350z" />
<glyph unicode="&#x2019;" horiz-adv-x="499" d="M51 930q84 34 122.5 73t51.5 93h-139l57 358h351l-50 -303q-25 -152 -94 -244t-223 -151z" />
<glyph unicode="&#x201a;" horiz-adv-x="499" d="M49 -176q85 38 123.5 78.5t52.5 97.5h-139l57 358h351l-50 -303q-23 -149 -92.5 -242t-226.5 -159z" />
<glyph unicode="&#x201c;" horiz-adv-x="921" d="M20 856l48 303q25 153 92 243t225 150l70 -172q-83 -33 -121 -72t-53 -94h139l-55 -358h-345zM422 856l47 303q25 152 92.5 242.5t224.5 150.5l70 -172q-83 -33 -121 -72t-53 -94h139l-55 -358h-344z" />
<glyph unicode="&#x201d;" horiz-adv-x="901" d="M39 932q83 33 121 72t53 94h-139l55 358h344l-47 -303q-25 -152 -92.5 -242.5t-224.5 -150.5zM440 932q83 33 121 72t53 94h-139l55 358h344l-47 -303q-25 -153 -92 -243t-225 -150z" />
<glyph unicode="&#x201e;" horiz-adv-x="901" d="M39 -176q82 37 121 78t53 98h-139l57 358h344l-49 -303q-23 -151 -91.5 -243.5t-225.5 -155.5zM440 -176q82 37 121 78t53 98h-139l57 358h345l-50 -303q-23 -152 -91 -244t-226 -155z" />
<glyph unicode="&#x2022;" horiz-adv-x="851" d="M109 672q22 136 126.5 225.5t239.5 89.5t211.5 -89.5t54.5 -225.5q-22 -134 -126.5 -225t-239.5 -91t-211.5 91t-54.5 225z" />
<glyph unicode="&#x2026;" horiz-adv-x="2021" d="M125 0l57 362h344l-57 -362h-344zM809 0l57 362h344l-57 -362h-344zM1497 0l57 362h344l-57 -362h-344z" />
<glyph unicode="&#x202f;" horiz-adv-x="421" />
<glyph unicode="&#x2039;" horiz-adv-x="677" d="M51 575l400 500l217 -119l-299 -378q146 -315 170 -371l-248 -133z" />
<glyph unicode="&#x203a;" horiz-adv-x="677" d="M-2 209l289 369q-32 61 -92.5 192t-88.5 186l254 119l244 -500l-399 -501z" />
<glyph unicode="&#x205f;" horiz-adv-x="527" />
<glyph unicode="&#x20ac;" horiz-adv-x="1241" d="M-29 451l78 217h119l12 73h-162l78 217h142q30 82 72 153.5t100.5 135t128 108.5t158 71t186.5 26q171 0 269.5 -76t143.5 -223l-245 -154q-43 83 -95 122.5t-127 39.5q-81 0 -153.5 -56.5t-114.5 -146.5h440l-104 -217h-397l-13 -73h377l-88 -217h-295q14 -87 68 -141 t135 -54q82 0 152.5 46.5t115.5 125.5l222 -129q-83 -153 -219 -241.5t-318 -88.5q-120 0 -211.5 36.5t-148 102.5t-86.5 151.5t-35 191.5h-185z" />
<glyph unicode="&#x2122;" horiz-adv-x="1820" d="M66 1227l34 231h707l-35 -231h-229l-94 -596h-252l94 596h-225zM715 631l129 827h301l84 -446q22 44 70.5 136t87 167.5t69.5 142.5h295l-129 -827h-238l54 340q-62 -115 -168 -332h-201l-61 330l-54 -338h-239z" />
<glyph unicode="&#xe000;" horiz-adv-x="1085" d="M0 0v1085h1085v-1085h-1085z" />
<glyph unicode="&#xfb01;" horiz-adv-x="1114" d="M29 813l41 268h166l6 35q29 179 147 277t293 98q122 0 227 -33l-67 -258q-75 19 -156 19q-110 0 -127 -101l-6 -37h246h12h311l-170 -1081h-323l128 813h-245l-129 -813h-317l129 813h-166z" />
<glyph unicode="&#xfb02;" horiz-adv-x="1200" d="M29 813l41 268h166l6 35q29 179 147 277t293 98q122 0 227 -33l-67 -258q-75 19 -156 19q-110 0 -127 -101l-6 -37h258l-41 -268h-258l-129 -813h-317l129 813h-166zM686 0l234 1470h321l-233 -1470h-322z" />
</font>
</defs>
</svg>
