<?xml version="1.0" encoding="utf-8"?>
<!-- Generator: Adobe Illustrator 17.0.0, SVG Export Plug-In . SVG Version: 6.00 Build 0)  -->
<!DOCTYPE svg PUBLIC "-//W3C//DTD SVG 1.1//EN" "http://www.w3.org/Graphics/SVG/1.1/DTD/svg11.dtd">
<svg version="1.1" id="Слой_1" xmlns="http://www.w3.org/2000/svg" xmlns:xlink="http://www.w3.org/1999/xlink" x="0px" y="0px"
	 width="37.287px" height="37.287px" viewBox="0 0 37.287 37.287" enable-background="new 0 0 37.287 37.287" xml:space="preserve">
<g>
	<g>
		<g>
			<g>
				<g>
					<g>
						<defs>
							<rect id="SVGID_1_" x="0" y="0" width="37.287" height="37.287"/>
						</defs>
						<clipPath id="SVGID_2_">
							<use xlink:href="#SVGID_1_"  overflow="visible"/>
						</clipPath>
						<path clip-path="url(#SVGID_2_)" fill="#E9E7E7" d="M18.643,0C8.347,0,0,8.347,0,18.643C0,28.94,8.347,37.287,18.643,37.287
							c10.297,0,18.644-8.347,18.644-18.644C37.287,8.347,28.94,0,18.643,0 M23.01,19.078h-2.799v10.159h-4.204V19.078h-2.096
							v-3.501h2.096v-2.109c0-2.848,1.184-4.549,4.549-4.549h2.799v3.501h-1.751c-1.307,0-1.393,0.493-1.393,1.406v1.751h3.169
							L23.01,19.078z"/>
					</g>
				</g>
			</g>
		</g>
	</g>
</g>
</svg>
