<?xml version="1.0" encoding="utf-8"?>
<!-- Generator: Adobe Illustrator 17.0.0, SVG Export Plug-In . SVG Version: 6.00 Build 0)  -->
<!DOCTYPE svg PUBLIC "-//W3C//DTD SVG 1.1//EN" "http://www.w3.org/Graphics/SVG/1.1/DTD/svg11.dtd">
<svg version="1.1" id="Слой_1" xmlns="http://www.w3.org/2000/svg" xmlns:xlink="http://www.w3.org/1999/xlink" x="0px" y="0px"
	 width="37.287px" height="37.287px" viewBox="0 0 37.287 37.287" enable-background="new 0 0 37.287 37.287" xml:space="preserve">
<g>
	<g>
		<g>
			<g>
				<g>
					<g>
						<defs>
							<rect id="SVGID_1_" x="0.001" y="0" width="37.287" height="37.287"/>
						</defs>
						<clipPath id="SVGID_2_">
							<use xlink:href="#SVGID_1_"  overflow="visible"/>
						</clipPath>
						<path clip-path="url(#SVGID_2_)" fill="#E9E7E7" d="M16.318,23.221c-0.21-0.024-0.407-0.024-0.617-0.024
							c-2.022,0-5.03,0.64-5.03,3.205c0,2.367,2.663,3.279,4.635,3.279c1.838,0,3.884-0.739,3.884-2.897
							C19.19,25.058,17.575,24.096,16.318,23.221"/>
					</g>
				</g>
			</g>
		</g>
	</g>
	<g>
		<g>
			<g>
				<g>
					<g>
						<defs>
							<rect id="SVGID_3_" x="0.001" y="0" width="37.287" height="37.287"/>
						</defs>
						<clipPath id="SVGID_4_">
							<use xlink:href="#SVGID_3_"  overflow="visible"/>
						</clipPath>
						<path clip-path="url(#SVGID_4_)" fill="#E9E7E7" d="M17.711,16.156c0-1.874-1.011-4.969-3.292-4.969
							c-1.615,0-2.404,1.43-2.404,2.885c0,1.874,1.233,4.809,3.427,4.809C17.132,18.881,17.711,17.66,17.711,16.156"/>
					</g>
				</g>
			</g>
		</g>
	</g>
	<g>
		<g>
			<g>
				<g>
					<g>
						<defs>
							<rect id="SVGID_5_" x="0.001" y="0" width="37.287" height="37.287"/>
						</defs>
						<clipPath id="SVGID_6_">
							<use xlink:href="#SVGID_5_"  overflow="visible"/>
						</clipPath>
						<path clip-path="url(#SVGID_6_)" fill="#E9E7E7" d="M18.644,0C8.347,0,0,8.347,0,18.643C0,28.94,8.347,37.287,18.644,37.287
							s18.643-8.347,18.643-18.644C37.287,8.347,28.941,0,18.644,0 M19.203,29.2c-1.418,1.221-3.354,1.615-5.179,1.615
							c-2.305,0-5.634-0.986-5.634-3.846c0-0.58,0.198-1.147,0.456-1.665c1.098-2.219,4.525-2.786,6.732-2.848
							c-0.407-0.53-0.789-1.147-0.789-1.837c0-0.407,0.148-0.678,0.271-1.06c-0.296,0.037-0.579,0.061-0.863,0.061
							c-2.392,0-4.463-1.763-4.463-4.241c0-2.342,1.813-4.34,4.056-4.833c0.753-0.16,1.529-0.246,2.305-0.246h5.389l-1.665,0.974
							h-1.664c1.221,0.764,1.837,2.256,1.837,3.637c0,3.267-2.762,3.514-2.762,5.141c0,1.59,3.698,2.219,3.698,5.671
							C20.928,27.141,20.251,28.288,19.203,29.2 M28.906,15.034H25.75v3.156h-1.578v-3.156h-3.157v-1.578h3.157V10.3h1.578v3.156
							h3.156V15.034z"/>
					</g>
				</g>
			</g>
		</g>
	</g>
</g>
</svg>
