<?xml version="1.0" encoding="utf-8"?>
<!-- Generator: Adobe Illustrator 17.0.0, SVG Export Plug-In . SVG Version: 6.00 Build 0)  -->
<!DOCTYPE svg PUBLIC "-//W3C//DTD SVG 1.1//EN" "http://www.w3.org/Graphics/SVG/1.1/DTD/svg11.dtd">
<svg version="1.1" id="Слой_1" xmlns="http://www.w3.org/2000/svg" xmlns:xlink="http://www.w3.org/1999/xlink" x="0px" y="0px"
	 width="305.609px" height="306.203px" viewBox="0 0 305.609 306.203" enable-background="new 0 0 305.609 306.203"
	 xml:space="preserve">
<g>
	<g>
		<defs>
			<path id="SVGID_1_" d="M176.446,63.985c0-2.115,1.715-3.83,3.831-3.83c2.116,0,3.831,1.715,3.831,3.83
				c0,2.116-1.715,3.831-3.831,3.831C178.161,67.816,176.446,66.101,176.446,63.985 M172.503,44.715
				c-7.052,1.035-15.931,5.277-18.766,12.148c-2.517,6.097-4.724,12.385-6.801,18.684c-0.437,1.323-0.854,2.642-1.281,3.962
				c-0.426,1.32-0.863,2.641-1.279,3.958c-0.615,1.945-1.229,3.895-1.832,5.823l-5.946,19.017l-1.056,3.381l-1.085,3.467
				l-2.153,6.889l-2.015,6.442l-2.013,6.441l-6.091,19.487l-0.889,2.843l-0.831,2.656L80.538,287.628
				c27.236-25.339,53.88-51.834,79.311-78.873c15.729-16.722,30.523-33.395,38.67-53.503c7.088-17.485,9.659-42.84-4.371-61.561
				l-1.538-2.053l1.884-1.741c2.083-1.924,3.777-4.27,5.076-6.88c1.887-3.785,2.92-8.145,2.9-12.73
				c-0.017-3.676-0.714-7.199-1.972-10.399c-1.392-3.542-3.475-6.684-6.178-9.137c-4.514-4.097-10.84-6.353-17.497-6.353
				C175.394,44.398,173.949,44.503,172.503,44.715"/>
		</defs>
		<clipPath id="SVGID_2_">
			<use xlink:href="#SVGID_1_"  overflow="visible"/>
		</clipPath>
		
			<linearGradient id="SVGID_3_" gradientUnits="userSpaceOnUse" x1="0" y1="306.203" x2="1" y2="306.203" gradientTransform="matrix(164.4624 0 0 -164.4624 40.6017 50524.9102)">
			<stop  offset="0" style="stop-color:#D04C74"/>
			<stop  offset="1" style="stop-color:#D76F30"/>
		</linearGradient>
		<rect x="80.538" y="44.398" clip-path="url(#SVGID_2_)" fill="url(#SVGID_3_)" width="127.64" height="243.23"/>
	</g>
	<g>
		<defs>
			<rect id="SVGID_4_" width="305.609" height="306.203"/>
		</defs>
		<clipPath id="SVGID_5_">
			<use xlink:href="#SVGID_4_"  overflow="visible"/>
		</clipPath>
		<path clip-path="url(#SVGID_5_)" fill="#A1A3A8" d="M206.21,81.916c28.428-4.72,101.121-16.824,99.368-16.891
			c-1.761-0.067-74.356-3.311-98.91-4.74c0.958,3.156,1.474,6.518,1.49,9.976C208.176,74.335,207.492,78.278,206.21,81.916"/>
	</g>
	<g>
		<defs>
			<path id="SVGID_6_" d="M109.993,81.601c10.459,8.853,17.529,16.008,22.288,21.458l4.834-15.465
				c1.205-3.855,2.444-7.759,3.714-11.67c-10.357-22.009-22.049-46.654-28.193-59.045C110.832,29.967,108.032,56.159,109.993,81.601
				"/>
		</defs>
		<clipPath id="SVGID_7_">
			<use xlink:href="#SVGID_6_"  overflow="visible"/>
		</clipPath>
		
			<linearGradient id="SVGID_8_" gradientUnits="userSpaceOnUse" x1="0" y1="306.203" x2="1" y2="306.203" gradientTransform="matrix(164.9443 0 0 -164.9443 40.4527 50566.4023)">
			<stop  offset="0" style="stop-color:#D04C74"/>
			<stop  offset="1" style="stop-color:#D76F30"/>
		</linearGradient>
		<rect x="108.032" y="16.879" clip-path="url(#SVGID_7_)" fill="url(#SVGID_8_)" width="32.797" height="86.18"/>
	</g>
	<g>
		<defs>
			<path id="SVGID_9_" d="M116.512,153.497l5.199-16.627l1.042-3.336l1.05-3.357l6.44-20.601
				c-3.843-4.67-9.934-11.219-19.416-19.601c-1.018-0.9-2.086-1.827-3.191-2.772c-1.028-0.88-2.088-1.775-3.179-2.688
				c-18.76-15.676-48.103-36.639-93.693-62.513C21.632,49.008,62.655,141.801,116.512,153.497"/>
		</defs>
		<clipPath id="SVGID_10_">
			<use xlink:href="#SVGID_9_"  overflow="visible"/>
		</clipPath>
		
			<linearGradient id="SVGID_11_" gradientUnits="userSpaceOnUse" x1="0" y1="306.203" x2="1" y2="306.203" gradientTransform="matrix(164.9443 0 0 -164.9443 40.4527 50594.1836)">
			<stop  offset="0" style="stop-color:#D04C74"/>
			<stop  offset="1" style="stop-color:#D76F30"/>
		</linearGradient>
		<rect x="10.764" y="22.002" clip-path="url(#SVGID_10_)" fill="url(#SVGID_11_)" width="119.479" height="131.495"/>
	</g>
	<g>
		<defs>
			<rect id="SVGID_12_" width="305.609" height="306.203"/>
		</defs>
		<clipPath id="SVGID_13_">
			<use xlink:href="#SVGID_12_"  overflow="visible"/>
		</clipPath>
		<path clip-path="url(#SVGID_13_)" fill="#FFFFFF" d="M200.124,92.282c2.668-2.951,4.718-6.485,6.085-10.366
			c1.282-3.638,1.966-7.58,1.948-11.655c-0.015-3.458-0.532-6.819-1.49-9.975c-1.628-5.365-4.544-10.133-8.524-13.745
			c-6.73-6.112-16.622-8.893-26.466-7.454c-8.879,1.303-19.497,6.634-23.198,15.606c-1.825,4.421-3.466,8.926-5.032,13.445
			c-11.904-25.259-27.104-57.24-29.873-61.775L109.69,0l-1.34,7.333c-0.416,2.273-6.29,35.289-4.474,69.228
			C83.709,60.279,53.072,39.077,6.631,13.151L0,9.448l2.569,7.148C2.71,16.99,17.053,56.563,40.686,93.624
			c23.905,37.491,49.14,59.557,74.137,65.275L68.772,306.203l7.796-7.161c30.056-27.603,59.47-56.668,87.424-86.391
			c16.113-17.129,31.281-34.245,39.8-55.262C213.204,134.161,211.757,109.48,200.124,92.282 M112.636,16.879
			c6.144,12.391,17.836,37.036,28.193,59.045c-1.27,3.911-2.509,7.815-3.714,11.67l-4.835,15.465
			c-4.759-5.45-11.828-12.605-22.287-21.458C108.031,56.159,110.832,29.967,112.636,16.879 M10.764,22.002
			c45.59,25.874,74.933,46.837,93.692,62.513c1.092,0.912,2.152,1.809,3.18,2.688c1.104,0.946,2.173,1.872,3.19,2.772
			c9.483,8.382,15.574,14.932,19.417,19.601l-6.441,20.601l-1.049,3.357l-1.043,3.336l-5.198,16.628
			C62.655,141.801,21.632,49.009,10.764,22.002 M198.519,155.252c-8.148,20.108-22.941,36.782-38.67,53.504
			c-25.431,27.038-52.075,53.533-79.311,78.872l39.927-127.715l0.83-2.657l0.889-2.843l6.092-19.486l2.013-6.44l2.015-6.443
			l2.153-6.888l1.084-3.468l1.057-3.381l5.945-19.017c0.603-1.928,1.218-3.877,1.832-5.823c0.416-1.317,0.853-2.639,1.28-3.958
			c0.427-1.32,0.844-2.638,1.28-3.962c2.078-6.298,4.284-12.587,6.802-18.685c2.835-6.87,11.714-11.112,18.766-12.147
			c1.446-0.213,2.89-0.316,4.319-0.316c6.658,0,12.984,2.255,17.498,6.352c2.703,2.454,4.786,5.595,6.178,9.138
			c1.258,3.199,1.955,6.723,1.972,10.398c0.02,4.585-1.013,8.945-2.899,12.731c-1.301,2.61-2.995,4.955-5.077,6.879l-1.885,1.741
			l1.539,2.053C208.178,112.412,205.606,137.767,198.519,155.252"/>
		<path clip-path="url(#SVGID_13_)" fill="#FFFFFF" d="M180.277,60.154c-2.116,0-3.831,1.715-3.831,3.831s1.715,3.831,3.831,3.831
			c2.116,0,3.831-1.715,3.831-3.831S182.393,60.154,180.277,60.154"/>
	</g>
</g>
</svg>
