<?xml version="1.0" encoding="utf-8"?>
<!-- Generator: Adobe Illustrator 17.0.0, SVG Export Plug-In . SVG Version: 6.00 Build 0)  -->
<!DOCTYPE svg PUBLIC "-//W3C//DTD SVG 1.1//EN" "http://www.w3.org/Graphics/SVG/1.1/DTD/svg11.dtd">
<svg version="1.1" id="Слой_1" xmlns="http://www.w3.org/2000/svg" xmlns:xlink="http://www.w3.org/1999/xlink" x="0px" y="0px"
	 width="116.194px" height="25.369px" viewBox="0 0 116.194 25.369" enable-background="new 0 0 116.194 25.369"
	 xml:space="preserve">
<g>
	<defs>
		<rect id="SVGID_1_" y="0" width="116.194" height="25.369"/>
	</defs>
	<clipPath id="SVGID_2_">
		<use xlink:href="#SVGID_1_"  overflow="visible"/>
	</clipPath>
	<path clip-path="url(#SVGID_2_)" fill="#D9D7D5" d="M0,20.864c0.177,0.017,0.313,0.017,0.445,0.017c0.403,0,0.597-0.06,0.655-0.194
		c0.074-0.15,0.103-0.461,0.103-0.908c0.016-1.054,0.016-2.868,0.016-3.432c0-1.174,0-2.617-0.016-2.988
		c-0.013-0.432-0.013-0.743-0.087-0.892c-0.074-0.133-0.268-0.179-0.655-0.179c-0.135,0-0.297,0-0.461,0.015v-0.772
		c0.564,0.014,1.351,0.059,1.932,0.059c0.506,0,1.622-0.045,2.231-0.045c3.196,0,5.379,1.248,5.379,4.861
		c0,2.972-1.916,5.202-5.485,5.202c-0.771,0-1.677-0.044-2.125-0.044c-0.623,0-1.368,0.044-1.932,0.058V20.864z M2.512,19.631
		c0.029,0.447,0.09,0.655,0.223,0.832c0.148,0.179,0.786,0.298,1.56,0.298c2.496,0,3.792-1.531,3.792-4.385
		c0-2.154-0.909-3.999-4.134-3.999c-0.728,0-1.115,0.045-1.248,0.165c-0.103,0.088-0.193,0.296-0.209,0.712
		c-0.013,0.373-0.029,2.127-0.029,3.152C2.467,17.566,2.467,18.577,2.512,19.631"/>
	<path clip-path="url(#SVGID_2_)" fill="#D9D7D5" d="M14.295,21.816c-2.006,0-3.122-1.427-3.122-3.507
		c0-2.378,1.413-3.999,3.509-3.999c1.606,0,2.512,1.04,2.512,2.66c0,0.491-0.148,0.655-0.564,0.684
		c-0.861,0.045-1.948,0.06-4.267,0.06c-0.029,0.179-0.029,0.327-0.029,0.475c0,1.472,0.787,2.616,2.332,2.616
		c0.761,0,1.56-0.431,2.141-1.219l0.596,0.446C16.688,21.103,15.678,21.816,14.295,21.816 M12.689,16.985
		C12.957,17,13.434,17,13.731,17c1.128,0,1.799-0.044,1.992-0.149c0.133-0.074,0.194-0.267,0.194-0.43
		c0-0.952-0.671-1.308-1.474-1.308c-0.683,0-1.47,0.356-1.841,1.293c-0.045,0.118-0.09,0.311-0.09,0.386
		C12.512,16.911,12.573,16.985,12.689,16.985"/>
	<path clip-path="url(#SVGID_2_)" fill="#D9D7D5" d="M23.33,19.662c0,1.203-0.906,2.154-2.825,2.154
		c-1.486,0-2.405-0.638-2.405-1.47c0-0.461,0.296-0.7,0.622-0.7c0.403,0,0.564,0.179,0.638,0.535
		c0.107,0.535,0.523,0.877,1.281,0.877c1.099,0,1.499-0.535,1.499-1.04c0-0.595-0.297-0.877-1.1-1.264l-1.112-0.519
		c-0.996-0.461-1.429-0.908-1.429-1.859c0-1.054,0.907-2.051,2.722-2.051c1.338,0,1.916,0.565,1.916,1.234
		c0,0.461-0.313,0.609-0.623,0.609c-0.342,0-0.522-0.193-0.596-0.49c-0.104-0.416-0.52-0.564-0.981-0.564
		c-0.816,0-1.309,0.416-1.309,1.011c0,0.49,0.255,0.757,1.087,1.128l0.98,0.447C22.988,18.309,23.33,18.919,23.33,19.662"/>
	<path clip-path="url(#SVGID_2_)" fill="#D9D7D5" d="M26.198,21.565c-0.623,0-1.294,0.043-1.784,0.058v-0.742
		c0.194,0.014,0.268,0.014,0.4,0.014c0.387,0,0.61-0.059,0.684-0.193c0.077-0.134,0.077-0.535,0.09-0.966
		c0.016-0.64,0.016-1.457,0.016-1.828c0-1.219-0.029-1.829-0.09-2.23c-0.045-0.239-0.252-0.356-0.729-0.356
		c-0.132,0-0.222,0-0.4,0.014v-0.743c0.803,0,1.487-0.045,2.319-0.268l0.164,0.179c-0.106,0.995-0.135,2.422-0.135,3.27
		c0,0.416,0,1.353,0.016,1.962c0.013,0.55,0.029,0.847,0.103,0.981c0.074,0.119,0.284,0.178,0.61,0.178c0.132,0,0.222,0,0.461-0.014
		v0.742C27.552,21.608,26.806,21.565,26.198,21.565 M25.975,12.75c-0.461,0-0.803-0.327-0.803-0.832
		c0-0.506,0.313-0.863,0.832-0.863c0.506,0,0.803,0.371,0.803,0.847C26.806,12.423,26.448,12.75,25.975,12.75"/>
	<path clip-path="url(#SVGID_2_)" fill="#D9D7D5" d="M28.948,20.286c0-0.595,0.297-1.116,1.306-1.666
		c-0.432-0.327-0.742-0.995-0.742-1.709c0-1.427,1.129-2.586,2.912-2.586c0.774,0,1.429,0.223,1.829,0.655
		c0.119-0.669,0.551-1.145,1.202-1.145c0.449,0,0.684,0.163,0.684,0.535c0,0.357-0.161,0.519-0.474,0.519
		c-0.222,0-0.326-0.088-0.535-0.088c-0.165,0-0.313,0.179-0.313,0.52c0,0.208,0.029,0.386,0.074,0.579
		c0.061,0.224,0.119,0.507,0.119,0.774c0,1.561-1.083,2.615-2.837,2.615c-0.371,0-0.758-0.059-1.1-0.148
		c-0.061-0.014-0.18-0.031-0.255-0.031c-0.103,0-0.222,0.031-0.312,0.076c-0.297,0.163-0.503,0.476-0.503,0.787
		c0,0.431,0.267,0.64,1.231,0.64c0.729,0,1.948-0.031,2.425-0.031c1.5,0,2.171,0.595,2.171,1.65c0,1.962-1.829,3.137-4.18,3.137
		c-1.783,0-2.837-0.788-2.837-1.828c0-0.743,0.461-1.353,1.589-1.919C29.274,21.46,28.948,20.865,28.948,20.286 M32.81,21.653
		c-0.267,0-0.758,0-0.996,0.029c-0.461,0.045-0.861,0.194-1.174,0.416c-0.4,0.313-0.684,0.669-0.684,1.159
		c0,0.834,0.861,1.235,2.067,1.235c1.413,0,2.554-0.683,2.554-1.739C34.577,22.055,34.355,21.653,32.81,21.653 M32.305,15.128
		c-0.996,0-1.561,0.669-1.561,1.561c0,1.293,0.61,1.812,1.474,1.812c0.98,0,1.603-0.55,1.603-1.635
		C33.82,15.945,33.358,15.128,32.305,15.128"/>
	<path clip-path="url(#SVGID_2_)" fill="#D9D7D5" d="M38.396,21.564c-0.609,0-1.219,0.044-1.783,0.058V20.88
		c0.193,0.015,0.255,0.015,0.387,0.015c0.371,0,0.596-0.074,0.683-0.224c0.091-0.149,0.104-0.476,0.104-0.876
		c0.016-0.714,0.016-1.457,0.016-1.918c0-1.397-0.016-1.887-0.091-2.2c-0.042-0.238-0.267-0.356-0.741-0.356
		c-0.12,0-0.223,0-0.358,0.015v-0.744c0.7,0,1.59-0.059,2.276-0.253l0.149,0.179c-0.045,0.461-0.074,0.713-0.091,1.145
		c0.878-0.818,1.948-1.338,2.838-1.338c0.774,0,1.383,0.356,1.635,1.278c0.148,0.565,0.193,1.338,0.193,2.304v1.888
		c0,0.534,0,0.787,0.091,0.921c0.074,0.119,0.267,0.179,0.609,0.179c0.132,0,0.223,0,0.461-0.015v0.742
		c-0.432-0.014-1.144-0.058-1.754-0.058c-0.625,0-1.145,0.044-1.725,0.058V20.88c0.181,0.015,0.284,0.015,0.387,0.015
		c0.371,0,0.535-0.09,0.625-0.239c0.149-0.253,0.194-0.683,0.194-1.649c0-1.888-0.119-2.72-0.387-3.167
		c-0.21-0.342-0.597-0.459-1.042-0.459c-0.58,0-1.396,0.356-1.828,0.951c-0.268,0.371-0.313,0.921-0.313,1.485
		c0,0.432,0,1.369,0.016,1.978c0.017,0.534,0.029,0.787,0.12,0.921c0.058,0.119,0.267,0.179,0.58,0.179c0.103,0,0.223,0,0.445-0.015
		v0.742C39.66,21.608,39.051,21.564,38.396,21.564"/>
	<path clip-path="url(#SVGID_2_)" fill="#D9D7D5" d="M48.902,21.816c-2.006,0-3.122-1.427-3.122-3.507
		c0-2.378,1.413-3.999,3.509-3.999c1.606,0,2.512,1.04,2.512,2.66c0,0.491-0.148,0.655-0.564,0.684
		c-0.861,0.045-1.948,0.06-4.267,0.06c-0.029,0.179-0.029,0.327-0.029,0.475c0,1.472,0.787,2.616,2.332,2.616
		c0.761,0,1.56-0.431,2.141-1.219l0.596,0.446C51.295,21.103,50.285,21.816,48.902,21.816 M47.296,16.985
		C47.564,17,48.041,17,48.338,17c1.128,0,1.799-0.044,1.992-0.149c0.133-0.074,0.194-0.267,0.194-0.43
		c0-0.952-0.671-1.308-1.474-1.308c-0.683,0-1.47,0.356-1.841,1.293c-0.045,0.118-0.09,0.311-0.09,0.386
		C47.119,16.911,47.18,16.985,47.296,16.985"/>
	<path clip-path="url(#SVGID_2_)" fill="#D9D7D5" d="M58.415,21.756l-0.149-0.163c0.029-0.267,0.058-0.817,0.087-1.159
		c-0.712,0.803-1.56,1.338-2.615,1.338c-1.561,0-2.825-1.07-2.825-3.286c0-2.897,1.874-4.19,3.628-4.19
		c0.684,0,1.309,0.089,1.829,0.416c0-0.758-0.017-1.62-0.046-2.452c-0.029-0.641-0.251-0.729-0.832-0.729
		c-0.09,0-0.251,0-0.358,0.014v-0.757c0.626,0,1.606-0.06,2.319-0.268l0.135,0.193c-0.074,0.55-0.103,1.798-0.119,5.261
		c0,0.432,0,2.364,0.029,3.523c0.029,1.19,0.136,1.353,0.684,1.353c0.164,0,0.432-0.015,0.564-0.029v0.727
		C60.033,21.564,59.156,21.593,58.415,21.756 M58.118,15.826c-0.284-0.505-0.877-0.713-1.548-0.713
		c-1.412,0-2.422,1.234-2.422,3.046c0,1.77,0.861,2.646,2.022,2.646c0.623,0,1.38-0.342,1.784-0.876
		c0.341-0.461,0.416-1.19,0.416-2.423C58.37,16.748,58.308,16.198,58.118,15.826"/>
	<path clip-path="url(#SVGID_2_)" fill="#D9D7D5" d="M66.302,21.935l-0.609-0.133c0.135-1.205,0.148-3.552,0.148-5.589
		c0-1.099-0.013-2.72-0.029-3.597c-0.029-0.922-0.239-1.085-0.848-1.085c-0.074,0-0.235,0-0.371,0.015v-0.758
		c0.626,0,1.606-0.045,2.319-0.253l0.148,0.193c-0.074,0.55-0.103,1.487-0.119,4.95c0.716-0.803,1.889-1.382,2.841-1.382
		c1.589,0,2.512,1.308,2.512,3.388c0,2.378-1.31,4.058-3.48,4.058c-0.906,0-1.561-0.208-2.125-0.519L66.302,21.935z M67.089,19.87
		c0.164,0.667,0.909,1.085,1.786,1.085c1.232,0,2.213-0.922,2.213-2.751c0-1.976-0.713-2.913-1.961-2.913
		c-0.819,0-1.903,0.729-2.067,1.591c-0.045,0.268-0.132,0.892-0.132,1.516S67.002,19.483,67.089,19.87"/>
	<path clip-path="url(#SVGID_2_)" fill="#D9D7D5" d="M73.896,16.108c-0.374-0.832-0.58-0.846-0.864-0.846
		c-0.058,0-0.178,0-0.281,0.014v-0.743c0.655,0.045,1.039,0.045,1.709,0.045c0.536,0,1.19,0,1.738-0.045v0.743
		c-0.164-0.014-0.312-0.014-0.49-0.014c-0.416,0-0.593,0.119-0.593,0.401c0,0.237,0.177,0.727,0.548,1.561
		c0.552,1.233,0.98,2.244,1.28,2.928c0.4-0.997,0.845-2.111,1.129-2.899c0.297-0.818,0.474-1.382,0.474-1.606
		c0-0.297-0.206-0.385-0.639-0.385c-0.148,0-0.238,0-0.445,0.014v-0.743c0.668,0.045,1.071,0.059,1.59,0.059
		c0.461,0,0.997-0.014,1.471-0.059v0.743c-0.116-0.014-0.223-0.014-0.281-0.014c-0.371,0-0.519,0.162-1.1,1.56
		c-1.115,2.735-1.696,4.147-2.75,6.511c-0.506,1.114-1.129,2.02-2.261,2.02c-0.638,0-0.89-0.326-0.89-0.698
		c0-0.447,0.239-0.684,0.639-0.684c0.209,0,0.342,0.134,0.609,0.134c0.297,0,0.594-0.208,0.848-0.609
		c0.297-0.476,0.594-1.1,0.952-1.932C75.873,20.537,74.967,18.517,73.896,16.108"/>
	<path clip-path="url(#SVGID_2_)" fill="#D9D7D5" d="M102.011,22.059h3.844c0.133,0,0.239-0.106,0.239-0.238
		c0-0.72,0.004-3.032,0.021-6.401c-3.354,2.286-4.231,5.154-4.342,6.378C101.76,21.938,101.87,22.059,102.011,22.059"/>
	<path clip-path="url(#SVGID_2_)" fill="#D9D7D5" d="M111.914,0.013C111.793,0.004,111.672,0,111.551,0
		c-2.016,0-3.764,1.365-4.348,3.187c-3.291-0.626-5.03,0.58-6.282,2.851c-1.392-0.314-2.887-0.299-4.39-0.019
		c-2.152,0.4-4.524,1.908-5.991,3.759c-3.606,4.549-3.001,10.104-2.956,12.048c0.003,0.131,0.109,0.234,0.239,0.234h5.187
		c0.133,0,0.24-0.108,0.24-0.24l0.007-3.088c0.3,0.252,1.636,1.505,1.798,3.115c0.012,0.122,0.119,0.213,0.242,0.213h5.074
		c0.126,0,0.227-0.099,0.237-0.224c0.517-6.52,10.468-11.228,11.754-12.172c1.58-1.161,2.891-1.845,3.581-3.606
		C116.986,3.395,114.62,0.213,111.914,0.013 M111.282,5.128c-1.25,0-1.745-0.803-1.821-0.895c-0.076-0.091,0.357-1.646,1.821-1.727
		c0.851-0.047,1.523,0.585,1.523,1.347C112.805,4.692,112.043,5.128,111.282,5.128"/>
</g>
</svg>
