<?xml version="1.0" encoding="utf-8"?>
<!-- Generator: Adobe Illustrator 17.0.0, SVG Export Plug-In . SVG Version: 6.00 Build 0)  -->
<!DOCTYPE svg PUBLIC "-//W3C//DTD SVG 1.1//EN" "http://www.w3.org/Graphics/SVG/1.1/DTD/svg11.dtd">
<svg version="1.1" id="Слой_1" xmlns="http://www.w3.org/2000/svg" xmlns:xlink="http://www.w3.org/1999/xlink" x="0px" y="0px"
	 width="37.287px" height="37.287px" viewBox="0 0 37.287 37.287" enable-background="new 0 0 37.287 37.287" xml:space="preserve">
<g>
	<g>
		<g>
			<g>
				<g>
					<g>
						<defs>
							<rect id="SVGID_1_" x="0" y="0" width="37.287" height="37.287"/>
						</defs>
						<clipPath id="SVGID_2_">
							<use xlink:href="#SVGID_1_"  overflow="visible"/>
						</clipPath>
						<path clip-path="url(#SVGID_2_)" fill="#E9E7E7" d="M18.644,0C8.348,0,0.001,8.347,0.001,18.644
							c0,10.296,8.347,18.643,18.643,18.643c10.297,0,18.644-8.347,18.644-18.643C37.288,8.347,28.941,0,18.644,0 M26.366,15.811
							c0.013,0.172,0.013,0.345,0.013,0.518c0,5.264-4.007,11.33-11.331,11.33c-2.256,0-4.352-0.653-6.115-1.787
							c0.321,0.036,0.628,0.049,0.961,0.049c1.863,0,3.576-0.629,4.945-1.702c-1.751-0.036-3.218-1.183-3.724-2.762
							c0.247,0.038,0.493,0.062,0.752,0.062c0.357,0,0.715-0.049,1.048-0.135c-1.824-0.37-3.193-1.973-3.193-3.908v-0.05
							c0.53,0.296,1.147,0.481,1.8,0.506c-1.073-0.716-1.775-1.936-1.775-3.317c0-0.74,0.197-1.418,0.542-2.01
							c1.961,2.417,4.907,3.995,8.211,4.167c-0.062-0.295-0.098-0.604-0.098-0.912c0-2.195,1.775-3.982,3.982-3.982
							c1.147,0,2.182,0.481,2.91,1.258c0.9-0.173,1.762-0.506,2.527-0.962c-0.296,0.925-0.925,1.701-1.751,2.194
							c0.802-0.086,1.578-0.308,2.294-0.616C27.821,14.541,27.143,15.244,26.366,15.811"/>
					</g>
				</g>
			</g>
		</g>
	</g>
</g>
</svg>
