<?xml version="1.0" encoding="utf-8"?>
<!-- Generator: Adobe Illustrator 17.0.0, SVG Export Plug-In . SVG Version: 6.00 Build 0)  -->
<!DOCTYPE svg PUBLIC "-//W3C//DTD SVG 1.1//EN" "http://www.w3.org/Graphics/SVG/1.1/DTD/svg11.dtd">
<svg version="1.1" id="Слой_1" xmlns="http://www.w3.org/2000/svg" xmlns:xlink="http://www.w3.org/1999/xlink" x="0px" y="0px"
	 width="37.287px" height="37.287px" viewBox="0 0 37.287 37.287" enable-background="new 0 0 37.287 37.287" xml:space="preserve">
<g>
	<g>
		<g>
			<g>
				<g>
					<g>
						<defs>
							<rect id="SVGID_1_" x="-0.001" y="0" width="37.287" height="37.287"/>
						</defs>
						<clipPath id="SVGID_2_">
							<use xlink:href="#SVGID_1_"  overflow="visible"/>
						</clipPath>
						<path clip-path="url(#SVGID_2_)" fill="#E9E7E7" d="M16.957,26.968c-0.246,0.345-0.48,0.518-0.702,0.518
							c-0.149,0-0.235-0.086-0.259-0.259c-0.013-0.037-0.013-0.173-0.013-0.432v-4.487h-1.097v4.82c0,0.432,0.037,0.715,0.098,0.901
							c0.099,0.308,0.358,0.456,0.716,0.456c0.395,0,0.814-0.247,1.257-0.752v0.665h1.098v-6.09h-1.098V26.968z"/>
					</g>
				</g>
			</g>
		</g>
	</g>
	<g>
		<g>
			<g>
				<g>
					<g>
						<defs>
							<rect id="SVGID_3_" x="-0.001" y="0" width="37.287" height="37.287"/>
						</defs>
						<clipPath id="SVGID_4_">
							<use xlink:href="#SVGID_3_"  overflow="visible"/>
						</clipPath>
						<polygon clip-path="url(#SVGID_4_)" fill="#E9E7E7" points="10.879,21.383 12.174,21.383 12.174,28.398 13.406,28.398 
							13.406,21.383 14.726,21.383 14.726,20.224 10.879,20.224 						"/>
					</g>
				</g>
			</g>
		</g>
	</g>
	<g>
		<g>
			<g>
				<g>
					<g>
						<defs>
							<rect id="SVGID_5_" x="-0.001" y="0" width="37.287" height="37.287"/>
						</defs>
						<clipPath id="SVGID_6_">
							<use xlink:href="#SVGID_5_"  overflow="visible"/>
						</clipPath>
						<path clip-path="url(#SVGID_6_)" fill="#E9E7E7" d="M18.387,16.057c0.37,0,0.53-0.296,0.53-0.863v-2.589
							c0-0.568-0.16-0.851-0.53-0.851c-0.357,0-0.53,0.283-0.53,0.851v2.589C17.857,15.761,18.03,16.057,18.387,16.057"/>
					</g>
				</g>
			</g>
		</g>
	</g>
	<g>
		<g>
			<g>
				<g>
					<g>
						<defs>
							<rect id="SVGID_7_" x="-0.001" y="0" width="37.287" height="37.287"/>
						</defs>
						<clipPath id="SVGID_8_">
							<use xlink:href="#SVGID_7_"  overflow="visible"/>
						</clipPath>
						<path clip-path="url(#SVGID_8_)" fill="#E9E7E7" d="M21.26,22.234c-0.407,0-0.789,0.221-1.147,0.666v-2.676h-1.097v8.174
							h1.097v-0.592c0.37,0.457,0.752,0.679,1.147,0.679c0.431,0,0.74-0.235,0.875-0.679c0.086-0.258,0.111-0.665,0.111-1.232
							v-2.429c0-0.568-0.025-0.974-0.111-1.221C22,22.468,21.691,22.234,21.26,22.234 M21.149,26.66c0,0.555-0.16,0.826-0.481,0.826
							c-0.185,0-0.37-0.086-0.555-0.271v-3.711c0.185-0.185,0.37-0.272,0.555-0.272c0.321,0,0.481,0.284,0.481,0.826V26.66z"/>
					</g>
				</g>
			</g>
		</g>
	</g>
	<g>
		<g>
			<g>
				<g>
					<g>
						<defs>
							<rect id="SVGID_9_" x="-0.001" y="0" width="37.287" height="37.287"/>
						</defs>
						<clipPath id="SVGID_10_">
							<use xlink:href="#SVGID_9_"  overflow="visible"/>
						</clipPath>
						<path clip-path="url(#SVGID_10_)" fill="#E9E7E7" d="M24.774,22.234c-0.567,0-0.999,0.209-1.319,0.629
							c-0.235,0.308-0.346,0.776-0.346,1.43v2.133c0,0.653,0.124,1.134,0.357,1.43c0.322,0.419,0.753,0.629,1.332,0.629
							c0.58,0,1.036-0.222,1.331-0.654c0.136-0.197,0.235-0.419,0.26-0.666c0.025-0.11,0.025-0.357,0.025-0.715v-0.16h-1.122
							c0,0.444-0.013,0.69-0.025,0.752c-0.062,0.296-0.222,0.444-0.493,0.444c-0.383,0-0.567-0.284-0.567-0.851v-1.072h2.207v-1.27
							c0-0.654-0.112-1.122-0.333-1.43C25.76,22.443,25.329,22.234,24.774,22.234 M25.316,24.638h-1.109v-0.567
							c0-0.555,0.184-0.839,0.554-0.839s0.555,0.284,0.555,0.839V24.638z"/>
					</g>
				</g>
			</g>
		</g>
	</g>
	<g>
		<g>
			<g>
				<g>
					<g>
						<defs>
							<rect id="SVGID_11_" x="-0.001" y="0" width="37.287" height="37.287"/>
						</defs>
						<clipPath id="SVGID_12_">
							<use xlink:href="#SVGID_11_"  overflow="visible"/>
						</clipPath>
						<path clip-path="url(#SVGID_12_)" fill="#E9E7E7" d="M18.643-0.001C8.346-0.001,0,8.347,0,18.643s8.346,18.644,18.643,18.644
							s18.644-8.348,18.644-18.644S28.94-0.001,18.643-0.001 M20.952,10.83h1.122v4.524c0,0.259,0,0.407,0.012,0.432
							c0.025,0.172,0.111,0.271,0.259,0.271c0.222,0,0.457-0.173,0.703-0.53V10.83h1.122v6.152h-1.122v-0.678
							c-0.443,0.517-0.863,0.764-1.27,0.764c-0.357,0-0.616-0.148-0.727-0.456c-0.062-0.185-0.099-0.481-0.099-0.925
							C20.952,15.687,20.952,10.83,20.952,10.83z M16.748,12.827c0-0.654,0.11-1.135,0.345-1.443
							c0.308-0.419,0.74-0.629,1.295-0.629c0.567,0,0.998,0.21,1.306,0.629c0.235,0.308,0.346,0.789,0.346,1.443v2.157
							c0,0.654-0.111,1.147-0.346,1.455c-0.308,0.419-0.739,0.629-1.306,0.629c-0.555,0-0.987-0.21-1.295-0.629
							c-0.235-0.32-0.345-0.801-0.345-1.455V12.827z M13.764,8.721l0.876,3.243l0.838-3.243h1.257l-1.491,4.92v3.341h-1.233v-3.341
							c-0.112-0.604-0.358-1.468-0.752-2.614c-0.272-0.765-0.543-1.541-0.802-2.306H13.764z M27.462,28.768
							c-0.234,0.974-1.023,1.689-1.973,1.788c-2.268,0.259-4.561,0.259-6.842,0.259c-2.282,0-4.575,0-6.843-0.259
							c-0.949-0.099-1.751-0.814-1.973-1.788c-0.32-1.381-0.32-2.897-0.32-4.315c0-1.43,0.012-2.934,0.32-4.315
							c0.235-0.974,1.024-1.689,1.985-1.8c2.256-0.247,4.549-0.247,6.831-0.247c2.281,0,4.574,0,6.842,0.247
							c0.95,0.111,1.751,0.826,1.973,1.8c0.32,1.381,0.32,2.885,0.32,4.315C27.782,25.871,27.77,27.387,27.462,28.768"/>
					</g>
				</g>
			</g>
		</g>
	</g>
</g>
</svg>
