<svg id="Layer_1" data-name="Layer 1" xmlns="http://www.w3.org/2000/svg" viewBox="0 0 1010.19 194.93"><defs><style>.cls-1{fill:#fff;}</style></defs><title>arce_withacronymn_horizontal_white</title><path class="cls-1" d="M620,406.65H216.36a1.52,1.52,0,0,0-1.52,1.52V600a1.52,1.52,0,0,0,1.52,1.52H620a1.52,1.52,0,0,0,1.52-1.52V408.17A1.53,1.53,0,0,0,620,406.65Zm-320.26,61.2V445.09h14.2v22.75ZM291,475v1.61h0V436.35h0Zm22.94-40.15H291a1.52,1.52,0,0,0-1.52,1.52v40.24a1.52,1.52,0,0,0,1.52,1.52h22.94v12.05H225.1V416.91h88.84Zm1.52,41.76h0v15.09h0Zm0-7.22v-25.8h0v25.8Zm0-33v-21h0v21Zm-1.52,64.07v12H225.1v-12ZM315.47,514V498.9h0V514h0Zm0,7.22V536.3h0V521.21h0ZM225.1,534.78v-12h88.84v12Zm90.37,8.74v49.31h0V543.52h0ZM225.1,591.31V545h88.84v46.26Zm115.57-47.78V536.3a1.52,1.52,0,0,0-1.52-1.52H324.21v-12h14.93a1.52,1.52,0,0,0,1.52-1.52V514a1.52,1.52,0,0,0-1.52-1.52H324.21v-12h14.93a1.52,1.52,0,0,0,1.52-1.52v-7.22a1.52,1.52,0,0,0-1.52-1.52H324.21V478.11h15.14a1.52,1.52,0,0,0,1.52-1.52v-7.22a1.52,1.52,0,0,0-1.52-1.52H324.21V445.09h6.86a85.45,85.45,0,0,1,43.45,49.24c7.52,21.51,11.82,42.37,12.77,62v8a1.52,1.52,0,0,0,1.52,1.52h24.23v25.42H324.21V545h14.93A1.52,1.52,0,0,0,340.67,543.52Zm-18-29.53h0Zm1.52-79.16V416.91h88.84v17.92Zm99.11,0V416.91h88.84v17.92Zm90.37,8.74H505c-1.35.65-2.88,1.43-4.56,2.37,1.68-.94,3.21-1.72,4.56-2.37h8.73Zm-16.46,34.54h14.94v12.05H497.23a1.52,1.52,0,0,0-1.52,1.52v7.22a1.52,1.52,0,0,0,1.52,1.52h14.94v12H497.23A1.52,1.52,0,0,0,495.7,514v7.22a1.52,1.52,0,0,0,1.52,1.52h14.94v12H497.23a1.52,1.52,0,0,0-1.52,1.52v7.22a1.52,1.52,0,0,0,1.52,1.52h14.94v46.26H423.32V565.89H447.7a1.52,1.52,0,0,0,1.52-1.53l0-10.14c1.24-19.11,5.53-39.26,12.74-59.89a85.32,85.32,0,0,1,43.37-49.24h6.86v22.75H497.23a1.52,1.52,0,0,0-1.52,1.52v7.22A1.52,1.52,0,0,0,497.23,478.11Zm16.46,43.11h0Zm0,22.31h0ZM359.94,465.63q-1.55-1.82-3.12-3.48Q358.39,463.81,359.94,465.63Zm21.72,46.55q-.66-2.45-1.4-5Q381,509.73,381.66,512.18Zm3.27,13.77c-.73-3.56-1.6-7.35-2.63-11.35C383.33,518.6,384.2,522.39,384.93,525.95Zm3.9,30.36h0a193.78,193.78,0,0,0-3.47-28.25A193.78,193.78,0,0,1,388.83,556.31Zm60.66-18.93q.26-1.71.56-3.51-.3,1.81-.56,3.51c-.35,2.34-.64,4.54-.88,6.6C448.84,541.92,449.13,539.72,449.49,537.38Zm2.86-15.22q-.47,2.09-.88,4.09Q451.88,524.25,452.35,522.16ZM489,453.55q1.54-1.21,3-2.29Q490.56,452.33,489,453.55Zm6-4.32q1.43-.95,2.79-1.77Q496.43,448.28,495,449.23Zm-50.24,45.54c-7.34,16.45-11.74,35.92-13.09,57.88H404.42c-1.37-22.25-5.72-41.72-12.93-57.88-11.72-26.27-32.06-41.71-45.93-49.68H490.81C476.88,453.08,456.45,468.54,444.76,494.77ZM341.4,449.23q1.44.95,2.94,2c1.5,1.08,3,2.26,4.6,3.54-1.56-1.29-3.1-2.46-4.6-3.54q-1.5-1.08-2.94-2t-2.8-1.77Q340,448.28,341.4,449.23Zm73.17,115.13h0v28.47h0Zm7.22,0h0v28.47h0ZM513.69,514h0ZM421.8,436.35h0v-21h0Zm75,7.22h0Zm-82.25-7.22h0v-21h0Zm-91.88,7.22h8.73c1.35.65,2.88,1.43,4.56,2.37-1.68-.94-3.21-1.72-4.56-2.37h-8.73Zm0,77.64h0Zm0,22.31h0ZM547,436.35a1.52,1.52,0,0,0-1.52-1.52H522.43V416.91h88.84v73.25H522.43V478.11h23.14a1.52,1.52,0,0,0,1.52-1.52Zm-8.74,7.22h0Zm-15.88,24.28V445.09h14.35v22.75Zm88.84,32.58v12H522.43v-12ZM612.79,514h0Zm0,7.22h0Zm-90.36,13.57v-12h88.84v12Zm90.36,8.74h0Zm-90.36,47.78V545h88.84v46.26ZM620,408.17h0Z" transform="translate(-214.84 -406.65)"/><path class="cls-1" d="M648.66,521.87,644.06,532h-5.4l19.26-42,19.26,42h-5.4l-4.6-10.11ZM657.92,501l-7.17,16.32h14.34Z" transform="translate(-214.84 -406.65)"/><path class="cls-1" d="M693.26,505.34h-.11L688.45,532h-5.19l8.24-42,13.86,31.78,13.86-31.78,8.24,42h-5.19l-4.71-26.64h-.11l-12.09,27.5Z" transform="translate(-214.84 -406.65)"/><path class="cls-1" d="M789.33,532h-6.1l-11.88-17.07h-2.09V532h-5V491.65h6.1c3.58,0,7.44.05,10.65,1.87a11.16,11.16,0,0,1,5.3,9.63c0,5.78-3.85,10.59-9.68,11.29Zm-20.06-21.24h1.6c5.14,0,10.7-1,10.7-7.38s-6-7.22-11-7.22h-1.34Z" transform="translate(-214.84 -406.65)"/><path class="cls-1" d="M802.07,532h-5V491.65h5Z" transform="translate(-214.84 -406.65)"/><path class="cls-1" d="M841.07,499.35a16.3,16.3,0,0,0-10.65-4c-9,0-15.94,7.54-15.94,16.48s6.85,16.37,15.83,16.37a16.13,16.13,0,0,0,10.75-4.17V530a21.8,21.8,0,0,1-10.59,2.84,20.88,20.88,0,0,1-21-20.81,21.2,21.2,0,0,1,21.45-21.24,19.45,19.45,0,0,1,10.16,2.73Z" transform="translate(-214.84 -406.65)"/><path class="cls-1" d="M856.53,521.87,851.93,532h-5.4l19.26-42L885,532h-5.4L875,521.87ZM865.78,501l-7.17,16.32H873Z" transform="translate(-214.84 -406.65)"/><path class="cls-1" d="M892.38,489.72l30.28,31.72v-29.8h5v42l-30.28-31.72V532h-5Z" transform="translate(-214.84 -406.65)"/><path class="cls-1" d="M986.1,532H980l-11.88-17.07H966V532h-5V491.65h6.1c3.58,0,7.44.05,10.65,1.87a11.16,11.16,0,0,1,5.3,9.63c0,5.78-3.85,10.59-9.68,11.29ZM966,510.75h1.6c5.14,0,10.7-1,10.7-7.38s-6-7.22-11-7.22H966Z" transform="translate(-214.84 -406.65)"/><path class="cls-1" d="M1041.5,499.3a6.91,6.91,0,0,0-6.47-3.8c-3.21,0-6.74,2.19-6.74,5.72,0,3.16,3.1,4.81,5.62,5.78l2.89,1.12c5.72,2.25,10,5.4,10,12.14,0,7.33-5.67,12.57-12.89,12.57a12.57,12.57,0,0,1-12.46-11.29l5.08-1.07a7.63,7.63,0,1,0,15.25-.21c0-4.33-3.48-6.21-7-7.65l-2.78-1.18c-4.6-2-8.77-4.6-8.77-10.22,0-6.53,5.78-10.43,11.88-10.43a11.51,11.51,0,0,1,10.38,6.1Z" transform="translate(-214.84 -406.65)"/><path class="cls-1" d="M1091.37,521.87l-4.6,10.11h-5.4l19.26-42,19.26,42h-5.4l-4.6-10.11Zm9.25-20.92-7.17,16.32h14.34Z" transform="translate(-214.84 -406.65)"/><path class="cls-1" d="M1152.55,532h-6.1l-11.88-17.07h-2.09V532h-5V491.65h6.1c3.58,0,7.44.05,10.65,1.87a11.16,11.16,0,0,1,5.3,9.63c0,5.78-3.85,10.59-9.68,11.29Zm-20.06-21.24h1.6c5.14,0,10.7-1,10.7-7.38s-6-7.22-11-7.22h-1.34Z" transform="translate(-214.84 -406.65)"/><path class="cls-1" d="M1186.89,499.35a16.29,16.29,0,0,0-10.65-4c-9,0-15.94,7.54-15.94,16.48s6.85,16.37,15.84,16.37a16.14,16.14,0,0,0,10.75-4.17V530a21.8,21.8,0,0,1-10.59,2.84,20.88,20.88,0,0,1-21-20.81,21.2,21.2,0,0,1,21.45-21.24,19.45,19.45,0,0,1,10.16,2.73Z" transform="translate(-214.84 -406.65)"/><path class="cls-1" d="M1220,507.91V491.65h5V532h-5V512.62h-19.21V532h-5V491.65h5v16.26Z" transform="translate(-214.84 -406.65)"/><path class="cls-1" d="M670.27,558.41a16.3,16.3,0,0,0-10.65-4c-9,0-15.94,7.54-15.94,16.48s6.85,16.37,15.83,16.37a16.13,16.13,0,0,0,10.75-4.17v5.94a21.8,21.8,0,0,1-10.59,2.84,20.88,20.88,0,0,1-21-20.81,21.2,21.2,0,0,1,21.45-21.24,19.45,19.45,0,0,1,10.16,2.73Z" transform="translate(-214.84 -406.65)"/><path class="cls-1" d="M706.22,548.79l30.28,31.72v-29.8h5v42L711.25,561V591h-5Z" transform="translate(-214.84 -406.65)"/><path class="cls-1" d="M761.58,591h-5V555.31H747v-4.6h24.18v4.6h-9.58Z" transform="translate(-214.84 -406.65)"/><path class="cls-1" d="M833.35,591h-6.1L815.37,574h-2.09V591h-5V550.71h6.1c3.58,0,7.44.05,10.65,1.87a11.16,11.16,0,0,1,5.3,9.63c0,5.78-3.85,10.59-9.68,11.29Zm-20.06-21.24h1.6c5.14,0,10.7-1,10.7-7.38s-6-7.22-11-7.22h-1.34Z" transform="translate(-214.84 -406.65)"/><path class="cls-1" d="M864.32,591h-5V550.71h5Z" transform="translate(-214.84 -406.65)"/><path class="cls-1" d="M872.51,548.79l30.28,31.72v-29.8h5v42L877.54,561V591h-5Z" transform="translate(-214.84 -406.65)"/><path class="cls-1" d="M1005.6,570.72v1.6c0,11.07-7.81,19.58-19.1,19.58s-20.38-9.74-20.38-20.92a21,21,0,0,1,37.34-13.32L999.93,561a15.9,15.9,0,0,0-28.78,9.79c0,8.45,7,16.48,15.67,16.48,6.26,0,13-5.4,13.21-12H989.61v-4.6Z" transform="translate(-214.84 -406.65)"/><path class="cls-1" d="M1007.9,550.71h5.78l9.9,17.23,9.9-17.23h5.78l-13.16,22.79V591h-5V573.5Z" transform="translate(-214.84 -406.65)"/><path class="cls-1" d="M1051.22,591h-5V550.71H1052c12.41,0,16.26,4.28,16.26,11.66,0,8.51-6.47,11.77-14.12,11.77h-2.89Zm0-21.4h1.6c5.14,0,10.7-1,10.7-7.38s-6-7.06-11-7.06h-1.34Z" transform="translate(-214.84 -406.65)"/><path class="cls-1" d="M1087.22,591h-5V555.31h-9.58v-4.6h24.18v4.6h-9.58Z" transform="translate(-214.84 -406.65)"/><path class="cls-1" d="M653.27,457.23l-6.67,15.69h-6.75L665.37,415l24.86,57.93h-6.82l-6.53-15.69Zm12-27.87-9.46,22.15h18.7Z" transform="translate(-214.84 -406.65)"/><path class="cls-1" d="M714.28,472.92h-6.16V417.63h8c10.49,0,20.24,2.79,20.24,15.25,0,8.51-5.35,14.52-13.86,15.25l17.6,24.79h-7.55l-16.72-24.27h-1.54Zm0-29.7h1.91c7,0,14-1.32,14-9.9,0-9.09-6.67-10-14.08-10h-1.83Z" transform="translate(-214.84 -406.65)"/><path class="cls-1" d="M797.29,429.73a23.67,23.67,0,0,0-16.87-7.33c-12.32,0-22.29,10.71-22.29,22.88s10,22.88,22.44,22.88a24.21,24.21,0,0,0,16.72-7.33v7.63a28.47,28.47,0,0,1-16.5,5.43c-15.62,0-28.82-12.69-28.82-28.38a28.92,28.92,0,0,1,28.82-28.82,26.69,26.69,0,0,1,16.5,5.43Z" transform="translate(-214.84 -406.65)"/><path class="cls-1" d="M817.37,417.58h28.7v5.72H823.53v19.44h21.87v5.73H823.53v18.72h22.53v5.72h-28.7Z" transform="translate(-214.84 -406.65)"/><path class="cls-1" d="M735.1,491.63H756v4.17H739.6V510h15.95v4.18H739.6v13.65H756V532H735.1Z" transform="translate(-214.84 -406.65)"/><path class="cls-1" d="M993.92,491.63h20.93v4.17H998.42V510h15.95v4.18H998.42v13.65h16.43V532H993.92Z" transform="translate(-214.84 -406.65)"/><path class="cls-1" d="M1053.87,491.63h20.93v4.17h-16.43V510h15.95v4.18h-15.95v13.65h16.43V532h-20.93Z" transform="translate(-214.84 -406.65)"/><path class="cls-1" d="M938.17,550.7h20.93v4.17H942.66v14.18h15.95v4.18H942.66v13.65h16.43v4.17H938.17Z" transform="translate(-214.84 -406.65)"/><path class="cls-1" d="M777.93,550.7h20.93v4.17H782.42v14.18h15.95v4.18H782.42v13.65h16.43v4.17H777.93Z" transform="translate(-214.84 -406.65)"/><path class="cls-1" d="M677.17,550.7H698.1v4.17H681.67v14.18h15.95v4.18H681.67v13.65H698.1v4.17H677.17Z" transform="translate(-214.84 -406.65)"/></svg>