<svg fill="#FFFFFF" xmlns="http://www.w3.org/2000/svg" xmlns:xlink="http://www.w3.org/1999/xlink" version="1.1" x="0px" y="0px" viewBox="0 0 8 8" enable-background="new 0 0 8 8" xml:space="preserve"><path d="M6.708,3.29C6.702,3.284,6.693,3.282,6.688,3.276L3.706,0.294c-0.391-0.392-1.024-0.392-1.414,0  c-0.39,0.39-0.39,1.022,0,1.413L4.584,4L2.292,6.293c-0.39,0.391-0.39,1.023,0,1.413c0.39,0.392,1.023,0.392,1.414,0l2.981-2.982  C6.693,4.718,6.702,4.716,6.708,4.71C6.904,4.515,7.001,4.257,7,4C7.001,3.743,6.904,3.485,6.708,3.29z"></path></svg>