<svg fill="#FFFFFF" xmlns:dc="http://purl.org/dc/elements/1.1/" xmlns:cc="http://creativecommons.org/ns#" xmlns:rdf="http://www.w3.org/1999/02/22-rdf-syntax-ns#" xmlns:svg="http://www.w3.org/2000/svg" xmlns="http://www.w3.org/2000/svg" xmlns:sodipodi="http://sodipodi.sourceforge.net/DTD/sodipodi-0.dtd" xmlns:inkscape="http://www.inkscape.org/namespaces/inkscape" version="1.1" x="0px" y="0px" viewBox="0 0 100 100"><g transform="translate(0,-952.36218)"><path style="color:#000000;enable-background:accumulate;" d="m 17.999998,975.36217 c -1.7438,0 -3.3447,0.55999 -4.6562,1.5 l 0.031,0.0312 35,32.87503 c 0.7738,0.7265 2.4763,0.7265 3.25,0 l 35.000004,-32.87503 0.031,-0.0312 c -1.3115,-0.94001 -2.912404,-1.5 -4.656204,-1.5 l -64,0 z m -7.2188,4.5625 c -0.4946,1.04162 -0.7812,2.20359 -0.7812,3.4375 l 0,38.00003 c 0,1.5062 0.4382,2.8932 1.1562,4.0937 l 24.75,-21.9062 -25.125,-23.62503 z m 78.437604,0 -25.125004,23.62503 24.750004,21.9062 c 0.718,-1.2005 1.1562,-2.5875 1.1562,-4.0937 l 0,-38.00003 c 0,-1.23391 -0.2866,-2.39588 -0.7812,-3.4375 z m -50.375004,26.37503 -24.8438,21.9687 c 1.179,0.6828 2.5342,1.0938 4,1.0938 l 64,0 c 1.4658,0 2.821004,-0.411 4.000004,-1.0938 l -24.843804,-21.9687 -6.7812,6.375 c -2.4475,2.2981 -6.3026,2.298 -8.75,0 l -6.7812,-6.375 z" fill="#FFFFFF" stroke="none" marker="none" visibility="visible" display="inline" overflow="visible"></path></g></svg>