<svg fill="#FFFFFF" xmlns="http://www.w3.org/2000/svg" xmlns:xlink="http://www.w3.org/1999/xlink" version="1.0" x="0px" y="0px" viewBox="0 0 90 90.2" enable-background="new 0 0 90 90.2" xml:space="preserve"><text transform="matrix(0.9926 -0.1219 0.1219 0.9926 17.6971 41.6801)" font-family="'MyriadPro-Regular'" font-size="11.2748"></text><g><path d="M85.8,75.8L12.3,85c-2.5,0.3-4.8-1.5-5.1-4l-7.4-59.2l6.3-0.8l-0.4-2.8l76.2-9.6l7.8,62C90,73.2,88.2,75.4,85.8,75.8    M16.1,81.7L85.4,73c1-0.1,1.7-1,1.6-2l-7.4-59.2L8.8,20.7l7.4,59.2C16.3,80.5,16.3,81.1,16.1,81.7 M2.8,24.3l7.1,56.4   c0.1,1,1,1.7,2,1.6c1-0.1,1.7-1,1.6-2L6.4,23.8L2.8,24.3z"></path><polygon points="36.2,61.1 19.5,63.2 17.6,46.7 34.3,44.6  "></polygon><rect x="46.1" y="35.2" transform="matrix(0.1257 0.9921 -0.9921 0.1257 84.1398 -8.4607)" width="1.5" height="16.6"></rect><rect x="46.5" y="38" transform="matrix(0.1257 0.9921 -0.9921 0.1257 87.1621 -6.4054)" width="1.5" height="16.6"></rect><rect x="46.8" y="40.7" transform="matrix(0.1257 0.9921 -0.9921 0.1257 90.1841 -4.3493)" width="1.5" height="16.6"></rect><rect x="47.2" y="43.4" transform="matrix(0.1257 0.9921 -0.9921 0.1257 93.2057 -2.293)" width="1.5" height="16.6"></rect><rect x="27.7" y="59.7" transform="matrix(0.1257 0.9921 -0.9921 0.1257 92.3683 31.2687)" width="1.5" height="16.6"></rect><rect x="28" y="62.5" transform="matrix(0.1257 0.9921 -0.9921 0.1257 95.3906 33.3241)" width="1.5" height="16.6"></rect><rect x="28.4" y="65.2" transform="matrix(0.1257 0.9921 -0.9921 0.1257 98.4126 35.3801)" width="1.5" height="16.6"></rect><rect x="28.7" y="68" transform="matrix(0.1257 0.9921 -0.9921 0.1257 101.4341 37.4364)" width="1.5" height="16.6"></rect><rect x="47.5" y="46.2" transform="matrix(0.1257 0.9921 -0.9921 0.1257 96.2274 -0.2367)" width="1.5" height="16.6"></rect><rect x="47.8" y="48.9" transform="matrix(0.1257 0.9921 -0.9921 0.1257 99.2496 1.8187)" width="1.5" height="16.6"></rect><rect x="48.2" y="51.7" transform="matrix(0.1257 0.9921 -0.9921 0.1257 102.2717 3.8747)" width="1.5" height="16.6"></rect><rect x="48.5" y="54.4" transform="matrix(0.1257 0.9921 -0.9921 0.1257 105.2932 5.9311)" width="1.5" height="16.6"></rect><rect x="27.4" y="57" transform="matrix(0.1257 0.9921 -0.9921 0.1257 89.4212 29.1199)" width="1.5" height="16.6"></rect><rect x="48.9" y="57.2" transform="matrix(0.1257 0.9921 -0.9921 0.1257 108.3149 7.9875)" width="1.5" height="16.6"></rect><rect x="49.2" y="59.9" transform="matrix(0.1257 0.9921 -0.9921 0.1257 111.3363 10.0438)" width="1.5" height="16.6"></rect><rect x="49.6" y="62.6" transform="matrix(0.1257 0.9921 -0.9921 0.1257 114.359 12.0989)" width="1.5" height="16.6"></rect><rect x="49.9" y="65.4" transform="matrix(0.1257 0.9921 -0.9921 0.1257 117.3807 14.1552)" width="1.5" height="16.6"></rect><rect x="66" y="32.7" transform="matrix(0.1257 0.9921 -0.9921 0.1257 99.0595 -30.3883)" width="1.5" height="16.6"></rect><rect x="66.4" y="35.5" transform="matrix(0.1257 0.9921 -0.9921 0.1257 102.081 -28.3321)" width="1.5" height="16.6"></rect><rect x="66.7" y="38.2" transform="matrix(0.1257 0.9921 -0.9921 0.1257 105.1024 -26.2756)" width="1.5" height="16.6"></rect><rect x="67.1" y="40.9" transform="matrix(0.1257 0.9921 -0.9921 0.1257 108.1248 -24.2201)" width="1.5" height="16.6"></rect><rect x="67.4" y="43.7" transform="matrix(0.1257 0.9921 -0.9921 0.1257 111.1469 -22.1643)" width="1.5" height="16.6"></rect><rect x="67.7" y="46.4" transform="matrix(0.1257 0.9921 -0.9921 0.1257 114.1682 -20.1082)" width="1.5" height="16.6"></rect><rect x="68.1" y="49.2" transform="matrix(0.1257 0.9921 -0.9921 0.1257 117.1898 -18.0516)" width="1.5" height="16.6"></rect><rect x="68.4" y="51.9" transform="matrix(0.1257 0.9921 -0.9921 0.1257 120.2122 -15.9963)" width="1.5" height="16.6"></rect><rect x="68.8" y="54.7" transform="matrix(0.1257 0.9921 -0.9921 0.1257 123.2341 -13.9402)" width="1.5" height="16.6"></rect><rect x="69.1" y="57.4" transform="matrix(0.1257 0.9921 -0.9921 0.1257 126.2557 -11.8841)" width="1.5" height="16.6"></rect><rect x="69.5" y="60.1" transform="matrix(0.1257 0.9921 -0.9921 0.1257 129.2772 -9.8277)" width="1.5" height="16.6"></rect><rect x="69.8" y="62.9" transform="matrix(0.1257 0.9921 -0.9921 0.1257 132.2988 -7.7712)" width="1.5" height="16.6"></rect></g><rect x="15.3" y="20.3" transform="matrix(0.9925 -0.1219 0.1219 0.9925 -3.0174 5.61)" width="58.1" height="14.3"></rect><text transform="matrix(0.9926 -0.1219 0.1219 0.9926 68.3219 23.9525)" font-family="'MyriadPro-Regular'" font-size="11.2748"></text></svg>