<svg fill="#FFFFFF" xmlns="http://www.w3.org/2000/svg" xmlns:xlink="http://www.w3.org/1999/xlink" version="1.1" x="0px" y="0px" viewBox="0 0 57 50.9931641" style="enable-background:new 0 0 57 50.9931641;" xml:space="preserve"><style type="text/css">
	.st0{fill:none;stroke:#FFFFFF;stroke-width:1.2;stroke-miterlimit:10;}
	.st1{fill:#FFFFFF;}
	.st2{fill:url(#SVGID_1_);}
	.st3{fill:#FFFFFF;stroke:#FFFFFF;stroke-width:0.4;stroke-miterlimit:10;}
	.st4{fill:#FFFFFF;stroke:#FFFFFF;stroke-width:0.6;stroke-miterlimit:10;}
	.st5{fill:#FFFFFF;}
	.st6{fill:#FFFFFF;stroke:#FFFFFF;stroke-width:0.5;stroke-miterlimit:10;}
	.st7{fill:#FFFFFF;stroke:#FFFFFF;stroke-width:0.25;stroke-miterlimit:10;}
	.st8{fill:none;stroke:#FFFFFF;stroke-width:2;stroke-linejoin:round;stroke-miterlimit:10;}
	.st9{fill:#FFFFFF;}
	.st10{fill:#FFFFFF;}
	.st11{fill:#FFFFFF;}
	.st12{fill:none;}
	.st13{fill:none;stroke:#FFFFFF;stroke-width:3;stroke-linecap:round;stroke-miterlimit:10;}
	.st14{fill:none;stroke:#FFFFFF;stroke-width:2;stroke-linejoin:round;stroke-miterlimit:10;}
	.st15{fill:#FFFFFF;}
	.st16{fill:none;stroke:#FFFFFF;stroke-width:3.1600001;stroke-miterlimit:10;}
	.st17{fill:none;stroke:#FFFFFF;stroke-width:3.1600001;stroke-linecap:round;stroke-miterlimit:10;}
	.st18{fill:#FFFFFF;stroke:#FFFFFF;stroke-width:0.32;stroke-miterlimit:10;}
	.st19{fill:#FFFFFF;stroke:#FFFFFF;stroke-width:0.9;stroke-miterlimit:10;}
	.st20{fill:#FFFFFF;stroke:#FFFFFF;stroke-miterlimit:10;}
	.st21{fill:#FFFFFF;stroke:#FFFFFF;stroke-width:1.5;stroke-miterlimit:10;}
	.st22{fill:#FFFFFF;}
	.st23{fill:#FFFFFF;stroke:#FFFFFF;stroke-width:1.5;stroke-miterlimit:10;}
	.st24{fill:none;stroke:#FFFFFF;stroke-width:1.2;stroke-miterlimit:10;}
</style><g><path d="M23.328125,50.9931641c-5.4584961,0-9.137207-2.21875-11.3779297-6.8017578   C8.300293,44.3125,6.1513672,42.7753906,4.9594727,41.4179688c-2.2661133-2.5839844-2.7978516-6.453125-2.3525391-9.2001953   C1.0102539,30.4521484,0,27.7070312,0,25.0517578c0-3.8544922,1.6391602-7.2441406,4.2280273-8.8583984   C4.222168,16.0644531,4.21875,15.9335938,4.21875,15.8017578c0-4.5380859,2.7587891-8.1396484,6.7832031-8.9726562   C12.409668,3.4257812,17.128418,0,22.4921875,0h5.4057617c0.5522461,0,1,0.4472656,1,1v48.5390625   c0,0.4833984-0.3452148,0.8974609-0.8208008,0.9833984C26.3642578,50.8349609,24.7827148,50.9931641,23.328125,50.9931641z    M12.5703125,42.1523438c0.3935547,0,0.7539062,0.2324219,0.9145508,0.5966797   c2.2792969,5.1787109,6.434082,7.0292969,13.4130859,5.9453125V2h-4.4057617c-5.1542969,0-9.059082,3.5488281-9.7875977,6.0019531   c-0.1123047,0.3779297-0.4360352,0.6542969-0.8266602,0.7060547C8.5458984,9.1513672,6.21875,12.0683594,6.21875,15.8017578   c0,0.2880859,0.0205078,0.5693359,0.050293,0.8476562c0.0439453,0.4179688-0.1772461,0.8183594-0.5546875,1.0039062   C3.4926758,18.7412109,2,21.7148438,2,25.0517578c0,2.3085938,0.9545898,4.7666016,2.3754883,6.1181641   c0.2543945,0.2421875,0.3632812,0.5986328,0.2871094,0.9414062c-0.5229492,2.3535156-0.0722656,5.8525391,1.800293,7.9873047   c1.3989258,1.59375,3.4174805,2.2841797,6.019043,2.0576172C12.5112305,42.1533203,12.5410156,42.1523438,12.5703125,42.1523438z"></path><path d="M19.8056641,16.7753906c-4.7055664,0-9.0595703-1.0976562-9.0595703-9.0585938h2   c0,5.9335938,2.480957,7.0585938,7.0595703,7.0585938V16.7753906z"></path><path d="M14.612793,25.6025391c-1.2475586,0-2.4516602-0.3007812-3.4145508-0.9306641l1.0957031-1.6738281   c1.7631836,1.15625,4.8486328,0.6503906,6.4741211-1.0556641c1.5268555-1.6044922,3.1538086-2.4199219,4.8359375-2.421875   c0.0019531,0,0.0043945,0,0.0068359,0c1.7094727,0,3.3842773,0.8447266,4.9770508,2.5097656l-1.4453125,1.3828125   c-1.2011719-1.2558594-2.3891602-1.8925781-3.5322266-1.8925781c-0.0009766,0-0.0024414,0-0.0039062,0   c-1.1137695,0.0009766-2.2543945,0.6074219-3.3896484,1.8007812C18.8100586,24.7988281,16.6533203,25.6025391,14.612793,25.6025391   z"></path><path d="M25.0332031,11.9414062c-2.7646484,0-5.1645508-1.4042969-6.1542969-3.8496094l1.8535156-0.75   c0.9399414,2.3222656,3.8544922,3.2333984,6.777832,2.1269531l0.7099609,1.8691406   C27.1435547,11.7470703,26.0629883,11.9414062,25.0332031,11.9414062z"></path><path d="M22.4306641,41.2041016l-1.8388672-0.7851562c1.059082-2.4804688,3.90625-4.5078125,7.6577148-3.0986328   l-0.703125,1.8730469C24.8383789,38.1757812,23.0986328,39.6416016,22.4306641,41.2041016z"></path><path d="M14.277832,36.9130859c-2.5512695-0.4003906-4.875-2.7929688-4.875-5.0185547h2   c0,1.1445312,1.4697266,2.7734375,3.1845703,3.0419922L14.277832,36.9130859z"></path><path d="M13.5698242,43.1523438h-2c0-6.0917969,3.7519531-12.2578125,10.9223633-12.2578125v2   C15.4345703,32.8945312,13.5698242,39.6044922,13.5698242,43.1523438z"></path><path d="M35.5620117,50.5390625h-3.8320312v-2h2.8320312v-4.9980469c0-0.4804688,0.3422852-0.8935547,0.8144531-0.9824219   c2.1699219-0.4101562,3.9423828-1.1279297,5.9262695-2.4003906c0.3901367-0.2490234,0.8979492-0.2001953,1.230957,0.1191406   l3.5917969,3.4345703l4.3046875-4.3134766l-3.4169922-3.4384766c-0.3305664-0.3330078-0.3852539-0.8505859-0.1323242-1.2451172   c1.1049805-1.7226562,1.9345703-3.3681641,2.3930664-5.7988281c0.0893555-0.4726562,0.5019531-0.8144531,0.9829102-0.8144531H55   V22.4375h-4.7431641c-0.480957,0-0.8935547-0.3417969-0.9829102-0.8144531   c-0.402832-2.1367188-1.1025391-3.8427734-2.4155273-5.8886719c-0.2495117-0.3896484-0.199707-0.8994141,0.1206055-1.2324219   l3.4140625-3.5546875L46.046875,6.6357422l-3.5048828,3.4296875c-0.3325195,0.3251953-0.8452148,0.3789062-1.2392578,0.1269531   c-1.9726562-1.265625-3.7451172-1.9814453-5.9262695-2.3935547c-0.472168-0.0888672-0.8144531-0.5019531-0.8144531-0.9824219V2   h-2.8320312V0h3.8320312c0.5522461,0,1,0.4472656,1,1v5.0048828c1.8256836,0.4238281,3.4604492,1.0869141,5.140625,2.0839844   l3.6499023-3.5712891c0.3901367-0.3828125,1.0151367-0.3808594,1.4033203,0.0048828L52.5,10.2207031   c0.3876953,0.3847656,0.3955078,1.0087891,0.0170898,1.4023438l-3.5566406,3.703125   c0.7954102,1.3212891,1.597168,2.9443359,2.1064453,5.1113281H56c0.5522461,0,1,0.4472656,1,1v7.6640625   c0,0.5527344-0.4477539,1-1,1h-4.9331055c-0.4946289,2.1005859-1.2646484,3.6650391-2.0766602,5.0107422l3.5605469,3.5820312   c0.3881836,0.390625,0.387207,1.0214844-0.0014648,1.4111328l-5.6992188,5.7119141   c-0.3842773,0.3867188-1.0058594,0.3935547-1.3989258,0.0166016l-3.7402344-3.5761719   c-1.7045898,1.0166016-3.3110352,1.6708984-5.1489258,2.0957031v5.1855469   C36.5620117,50.0917969,36.1142578,50.5390625,35.5620117,50.5390625z"></path><path d="M31.7299805,36.3066406v-2c5.0830078,0,9.21875-4.0947266,9.21875-9.1279297s-4.1357422-9.1279297-9.21875-9.1279297v-2   c6.1860352,0,11.21875,4.9921875,11.21875,11.1279297S37.9160156,36.3066406,31.7299805,36.3066406z"></path><path d="M9.3930664,28.8076172l-0.6669922-1.8847656c1.1513672-0.4082031,2.0200195-1.7353516,2.0200195-3.0878906   c0-1.5957031-1.3027344-2.7998047-3.0297852-2.7998047v-2c2.8676758,0,5.0297852,2.0634766,5.0297852,4.7998047   C12.7460938,26.0292969,11.3359375,28.1201172,9.3930664,28.8076172z"></path></g></svg>