<svg fill="#FFFFFF" xmlns="http://www.w3.org/2000/svg" data-name="Layer 1" viewBox="0 0 100 100" x="0px" y="0px"><title>caring_bigger_arrows</title><path d="M50.3,40.77c-6.6-9.1-20-6.1-19.77,5.7.18,11.4,13,17.23,19.77,24.79,6.75-7.56,19.59-13.39,19.77-24.79C70.26,34.67,56.9,31.67,50.3,40.77Z"></path><path d="M99,62.83,86,48l-13,14.83h8.26a33.32,33.32,0,0,1-62.38-2.37A5.44,5.44,0,1,0,8.46,63.88a44.21,44.21,0,0,0,83.6,1,5.41,5.41,0,0,0,.31-2Z"></path><path d="M14,52l13-14.83H19.66A33.34,33.34,0,0,1,81.82,38.8a5.44,5.44,0,1,0,10.24-3.65,44.2,44.2,0,0,0-83.93,2H1Z"></path></svg>