<svg fill="#001E60" xmlns="http://www.w3.org/2000/svg" viewBox="0 0 51 51" x="0px" y="0px"><title>add</title><path d="M352,806.5A25.5,25.5,0,1,0,377.5,832,25.5,25.5,0,0,0,352,806.5Zm15,28.36a1.27,1.27,0,0,1-1.29,1.14H356v9.71a1.27,1.27,0,0,1-1.14,1.29h-5.71a1.27,1.27,0,0,1-1.14-1.29V836h-9.71a1.27,1.27,0,0,1-1.29-1.14v-5.71a1.27,1.27,0,0,1,1.29-1.14H348v-9.71a1.27,1.27,0,0,1,1.14-1.29h5.71a1.27,1.27,0,0,1,1.14,1.29V828h9.71a1.27,1.27,0,0,1,1.29,1.14v5.71Z" transform="translate(-326.5 -806.5)"></path></svg>