<?xml version="1.0" standalone="no"?>
<!DOCTYPE svg PUBLIC "-//W3C//DTD SVG 20010904//EN"
 "http://www.w3.org/TR/2001/REC-SVG-20010904/DTD/svg10.dtd">
<svg version="1.0" xmlns="http://www.w3.org/2000/svg"
 width="260.000000pt" height="260.000000pt" viewBox="0 0 260.000000 260.000000"
 preserveAspectRatio="xMidYMid meet">
<metadata>
Created by potrace 1.11, written by Peter Selinger 2001-2013
</metadata>
<g transform="translate(0.000000,260.000000) scale(0.100000,-0.100000)"
fill="#000000" stroke="none">
<path d="M1250 2570 c-14 -10 -63 -43 -110 -73 -47 -30 -133 -85 -192 -123
-168 -108 -277 -178 -507 -326 -118 -76 -208 -139 -200 -139 8 -1 82 -2 164
-3 l150 -1 95 -51 c52 -29 194 -102 315 -164 121 -62 239 -123 263 -136 23
-13 50 -24 58 -24 9 0 70 29 137 64 262 137 396 206 502 258 l110 55 163 -1
c89 0 162 1 162 4 -1 4 -29 23 -146 95 -96 59 -276 173 -325 206 l-56 38 2
148 c1 81 -1 154 -3 161 -3 9 -38 12 -127 12 -89 0 -124 -3 -127 -12 -3 -7 -4
-43 -3 -80 2 -77 7 -77 -97 -6 -31 21 -59 38 -62 38 -2 0 -32 18 -65 40 -33
22 -64 40 -68 39 -4 0 -19 -8 -33 -19z"/>
<path d="M519 1786 c-2 -3 -3 -318 -2 -701 1 -641 3 -698 18 -715 17 -18 684
-360 703 -360 5 0 8 298 8 712 l-1 712 -85 43 c-242 120 -632 313 -634 313 -2
0 -5 -2 -7 -4z m215 -376 l81 -40 0 -164 c0 -90 -2 -167 -5 -169 -3 -3 -41 13
-85 36 l-80 42 0 168 c-1 92 1 167 3 167 3 0 41 -18 86 -40z m305 -151 l80
-41 -1 -169 c0 -93 -4 -169 -7 -168 -3 0 -42 19 -86 42 l-80 42 0 168 c0 92 3
167 7 167 4 0 43 -18 87 -41z m-224 -560 c0 -93 -2 -169 -4 -169 -2 0 -41 18
-85 41 l-81 41 1 161 c1 89 2 165 3 169 0 5 38 -11 84 -33 l82 -41 0 -169z
m242 51 l62 -33 0 -168 c-1 -93 -4 -169 -7 -169 -4 1 -43 20 -87 43 l-80 42 0
160 c0 88 1 163 3 167 3 9 30 -1 109 -42z"/>
<path d="M1701 1612 l-355 -177 0 -703 c-1 -387 2 -708 5 -714 3 -5 86 32 185
83 288 147 359 183 364 184 19 4 149 76 159 89 17 20 24 1416 7 1415 -6 0
-170 -80 -365 -177z m156 -230 c99 -71 75 -255 -52 -389 -33 -35 -35 -41 -36
-110 -2 -152 -3 -146 20 -133 11 5 31 14 44 19 24 10 25 9 23 -47 -2 -54 -3
-57 -41 -77 -25 -13 -41 -30 -46 -47 -10 -37 -3 -40 39 -18 20 11 38 17 40 15
3 -3 6 -27 7 -54 2 -48 1 -50 -39 -72 -23 -13 -50 -29 -61 -36 -52 -30 -105
-54 -112 -51 -4 2 -9 111 -9 243 -1 132 -2 247 -3 256 -1 11 -14 19 -40 23
-125 20 -144 228 -34 373 46 60 74 84 126 109 63 29 130 27 174 -4z"/>
<path d="M1680 1281 c-17 -16 -30 -36 -30 -44 0 -51 41 -63 78 -24 28 30 29
73 2 87 -17 9 -25 6 -50 -19z"/>
</g>
</svg>
