<svg xmlns="http://www.w3.org/2000/svg" xmlns:xlink="http://www.w3.org/1999/xlink" version="1.1" x="0px" y="0px" width="87.903px" height="70.329px" viewBox="0 0 87.903 70.329" enable-background="new 0 0 87.903 70.329" xml:space="preserve"><g><defs><rect width="87.9" height="70.3"/></defs><clipPath><use xlink:href="#SVGID_1_" overflow="visible"/></clipPath><path fill="#ffffff" clip-path="url(#SVGID_2_)" d="M35.167 30.274c-2.092-0.682-11.059-3.607-15.508-5.098 C17.621 30.4 7.7 56.7 8.8 65.651c-6.4-5.326-6.495-16.784-8.189-13.24c-1.613 3.374-0.036 11.5 3 15.1 c2.254 2.7 6.5 3.1 8.1 2.011c6.166 2.8 19.264-2.524 23.432-1.619c4.736 1 4.152-2.26 4.152-2.26L35.167 30.274z"/><path fill="#ffffff" clip-path="url(#SVGID_2_)" d="M34.765 26.796c0 0 0.134-2.813 2.011-3.484c1.262-0.451 7.505-1.732 9.249-3.484 c1.287-1.296 2.152-5.761 1.069-7.237c-1.242-1.697-8.308-1.338-8.308-1.338s-1.793-3.847-2.948-4.559 c-1.35-0.829-5.121-0.682-5.121-0.682s0.351-5.571-1.349-5.986c-3.244-0.793-7.559 16.508-8.916 22.3 c3.652 1.5 10.5 4.1 14.4 4.765L34.765 26.796z"/><path fill="#ffffff" clip-path="url(#SVGID_2_)" d="M60.945 30.505c0.4-2.01-0.134-3.158-1.207-6.032c-0.193-0.517-1.067-6.255-2.813-6.433 c-1.722-0.175-4.021 5.628-4.021 5.628s-4.96 0-5.553 2.212c-0.714 2.657-3.454 4.102-3.562 4.5 c-0.412 1.5 0.3 5.6 2.7 6.179c1.454 0.4 2.5 2.3 3 3.841c2.787-0.842 7.129-2.381 10.711-4.674 C60.089 33.9 60.7 31.8 60.9 30.5"/><path fill="#ffffff" clip-path="url(#SVGID_2_)" d="M87.715 55.676c-0.7-2.562-1.833-3.381-3.439-4.529c-2.844-2.032-2.493-6.2 1.684-8.684 c1.759-0.96 1.551-3.9-1.651-3.15c-4.308 1.011-6.545 8.863-4.837 11.671c0.71 1.2 1 1.6 3.5 3.1 c3.995 2.397-0.819 9.504-3.473 7.841c-0.838-8.486-11.588-20.866-18.058-23.404c-0.23-0.212-0.415-0.45-0.573-0.703 c-1.927 1.046-7.719 4.114-10.932 4.993c1.313 6.2 0.6 21.8 0.6 22.475c0.054 0.992-0.593 1.609-0.113 2.4 c0.732 1.2 2.2 1.3 3.9 1.017c1.698-0.312 14.3 3.2 22.256-0.12c0.737-0.443 1.31-0.983 1.763-1.586 c0.89-0.009 1.72-0.194 1.72-0.194C85.736 65 88.7 59.3 87.7 55.7"/></g></svg>