<svg xmlns="http://www.w3.org/2000/svg" xmlns:xlink="http://www.w3.org/1999/xlink" version="1.1" x="0px" y="0px" width="87.958px" height="76.607px" viewBox="0 0 87.958 76.607" enable-background="new 0 0 87.958 76.607" xml:space="preserve"><g><defs><rect width="88" height="76.6"/></defs><clipPath><use xlink:href="#SVGID_1_" overflow="visible"/></clipPath><path fill="#ffffff" clip-path="url(#SVGID_2_)" d="M52.572 44.124c0.339 0.2 0.7 0.3 1.1 0.341c0.391 0 0.782-0.114 1.121-0.341 c0.689-0.46 16.917-11.365 22.894-22.318c1.479-2.291 2.259-4.937 2.259-7.658C79.967 6.3 73.6 0 65.8 0 c-5.736 0-9.984 4.759-12.126 7.246C51.551 4.8 47.3 0 41.6 0c-7.802 0-14.149 6.345-14.149 14.1 c0 2.7 0.8 5.4 2.3 7.658C35.655 32.8 51.9 43.7 52.6 44.1"/><path fill="#ffffff" clip-path="url(#SVGID_2_)" d="M84.44 41.808c-4.677-2.739-8.598 1.323-10.074 2.851c-3.113 3.226-6.863 6.413-8.761 8 c-0.807-0.361-1.695-0.566-2.632-0.575c-5.782-0.312-14.896-1.354-17.178-2.71c-2.451-1.457-4.414-2.88-6.145-4.134 c-4.975-3.606-8.903-6.452-18.686-6.452c-2.836 0-5.322 0.786-7.727 1.548c-2.468 0.782-4.8 1.521-7.613 1.5 C2.522 41.8 0 44.4 0 47.46v14.316c0 3.1 2.5 5.6 5.6 5.625c5.348 0 13.7 0.3 15.6 0.9 c3.325 1.1 11.1 5.7 13.8 7.415c0.035 0 0.1 0 0.1 0.063c0.985 0.5 2.1 0.8 3.2 0.837h26 c2.753 0 5.812-2.546 6.872-4.307c3.409-5.657 15.634-21.051 15.757-21.205c0.109-0.141 0.204-0.29 0.283-0.448 C88.85 47.5 87.6 43.7 84.4 41.8 M64.353 71.492h-26c-0.246 0-0.489-0.059-0.706-0.17 c-0.961-0.595-10.421-6.404-14.851-7.88c-3.294-1.098-14.883-1.154-17.171-1.154c-0.283 0-0.513-0.229-0.513-0.511V47.459 c0-0.283 0.23-0.513 0.513-0.513c3.602 0 6.554-0.935 9.155-1.758c2.222-0.703 4.14-1.31 6.185-1.31 c8.124 0 11 2.1 15.7 5.479c1.819 1.3 3.9 2.8 6.5 4.389c1.33 0.8 3.5 1.4 6 1.9 c5.31 1 11.8 1.4 13.6 1.53c0.044 0 0.1 0 0.1 0.003c0.845 0 1.5 0.7 1.5 1.5 s-0.688 1.532-1.533 1.532c-0.046 0-0.09 0.003-0.136 0.005l-19.348 1.019c-1.541-0.057-5.177-2.631-7.592-4.339 c-0.625-0.444-1.235-0.87-1.835-1.284c-1.307-0.904-2.555-1.716-3.697-2.287c-1.263-0.635-2.798-0.12-3.429 1.1 c-0.631 1.264-0.12 2.8 1.1 3.432c1.317 0.7 3 1.9 4.9 3.17c3.835 2.7 7.5 5.3 10.6 5.3 c0.045 0 0.091-0.002 0.135-0.003l19.373-1.021c3.632-0.04 6.573-3.008 6.573-6.646c0-0.822-0.148-1.61-0.425-2.341 c2.051-1.698 5.745-4.865 8.924-8.155c2.178-2.257 3.047-2.44 3.813-1.992c0.678 0.4 1.2 1.2 0.9 2 c-1.699 2.145-12.559 15.898-15.925 21.485C66.399 70.4 64.9 71.4 64.4 71.5"/></g></svg>