<svg xmlns="http://www.w3.org/2000/svg" xmlns:xlink="http://www.w3.org/1999/xlink" version="1.1" x="0px" y="0px" width="100px" height="87.795px" viewBox="0 0 100 87.795" enable-background="new 0 0 100 87.795" xml:space="preserve"><g><defs><rect width="100" height="87.8"/></defs><clipPath><use xlink:href="#SVGID_1_" overflow="visible"/></clipPath><path fill="#ffffff" clip-path="url(#SVGID_2_)" d="M60.369 31.692c-1.643 1.641-3.855 2.585-6.082 2.585c-1.959 0-3.774-0.729-5.108-2.051 L29.016 12.051l-1.826 1.825l6.965 6.964L11.58 43.415c-0.666 0.667-1.2 1.437-1.6 2.287c-0.625 1.323-0.882 2.779-0.759 4.2 C3.261 43.908-0.01 36.3 0 28.4c0.01-7.518 3.005-14.636 8.432-20.031C13.856 3 21.1 0 28.7 0 c4.523 0 8.8 1 12.8 3.005c1.62 0.8 3.2 1.8 4.7 2.943l0.708 0.554l13.999 14 C63.836 23.4 63.6 28.5 60.4 31.7"/><path fill="#ffffff" clip-path="url(#SVGID_2_)" d="M44.461 31.148L21.888 53.723c-1.056 1.046-2.483 1.631-3.989 1.6 c-1.611 0-3.149-0.646-4.318-1.814c-1.169-1.168-1.814-2.696-1.814-4.318c0-1.517 0.572-2.933 1.63-3.989L35.97 22.7 L44.461 31.148z"/><path fill="#ffffff" clip-path="url(#SVGID_2_)" d="M100 28.4c0.009 7.918-3.303 15.6-9.334 21.641c-3.589 3.579-7.723 7.713-11.949 11.9 L54.328 86.164c-1.056 1.056-2.472 1.631-3.99 1.631c-1.621 0-3.159-0.646-4.318-1.816c-1.138-1.139-1.774-2.635-1.805-4.215 c-0.031-1.548 0.543-3.005 1.621-4.093l23.711-23.722l-2.213-2.216L43.621 75.458c-1.057 1.046-2.482 1.629-3.99 1.6 c-1.61 0-3.148-0.646-4.319-1.813c-1.168-1.17-1.814-2.697-1.814-4.317c0-1.52 0.574-2.936 1.63-3.991L58.84 43.241l-2.521-2.522 L32.594 64.431c-1.056 1.058-2.472 1.631-3.989 1.631c-1.62 0-3.16-0.646-4.319-1.813c-1.138-1.14-1.774-2.637-1.805-4.216 c-0.042-1.548 0.543-3.006 1.62-4.095l22.574-22.573l0.687 0.687c1.826 1.8 4.3 2.8 6.9 2.8 c2.883 0 5.766-1.221 7.909-3.343c4.226-4.247 4.471-10.903 0.532-14.841L51.733 7.683c5.332-4.963 12.243-7.682 19.559-7.682 c7.64 0 14.8 3 20.3 8.37C96.995 13.8 100 20.9 100 28.4"/></g></svg>