<?xml version="1.0" encoding="UTF-8"?>
<svg width="18px" height="14px" viewBox="0 0 18 14" version="1.1" xmlns="http://www.w3.org/2000/svg" xmlns:xlink="http://www.w3.org/1999/xlink">
    <!-- Generator: Sketch 45.1 (43504) - http://www.bohemiancoding.com/sketch -->
    <title>Shape</title>
    <desc>Created with Sketch.</desc>
    <defs></defs>
    <g id="symbols" stroke="none" stroke-width="1" fill="none" fill-rule="evenodd">
        <g id="top-of-footer" transform="translate(-543.000000, -117.000000)" fill="#FFFFFF">
            <g id="top-footer-piece">
                <g id="Latest-Tweets" transform="translate(543.000000, 73.000000)">
                    <g id="Tweet" transform="translate(0.000000, 40.000000)">
                        <path d="M18,5.65717257 C17.3378547,5.93831507 16.6256407,6.12817025 15.8791099,6.21385711 C16.6413927,5.77646212 17.2270284,5.08368669 17.5021253,4.2587407 C16.7882235,4.66421314 15.9989374,4.95823666 15.1573322,5.11616929 C14.4839355,4.42899432 13.5241905,4 12.4614952,4 C10.4216152,4 8.76822103,5.58212657 8.76822103,7.53444276 C8.76822103,7.81166493 8.80141268,8.08104648 8.86442055,8.33978718 C5.79559945,8.19305544 3.07444681,6.78566285 1.25340668,4.64741179 C0.935554444,5.16881351 0.753844231,5.77646212 0.753844231,6.42387391 C0.753844231,7.64981198 1.40586323,8.73181855 2.395987,9.36522922 C1.79066133,9.34674774 1.22134017,9.18769502 0.724028004,8.92335387 L0.724028004,8.96759741 C0.724028004,10.6807745 1.9959995,12.1083287 3.68596075,12.4337147 C3.3759845,12.5143611 3.05025628,12.5580446 2.71327666,12.5580446 C2.47587198,12.5580446 2.24353044,12.5356429 2.01850231,12.4941995 C2.48824853,13.8976718 3.85248156,14.9197536 5.46818352,14.9483159 C4.20408801,15.8964717 2.612014,16.4609969 0.880985123,16.4609969 C0.583947993,16.4609969 0.289161145,16.4447556 0,16.412273 C1.63426678,17.4147532 3.57513439,18 5.66114514,18 C12.4536192,18 16.1677085,12.6140491 16.1677085,7.94439555 C16.1677085,7.79038323 16.1637705,7.63917113 16.1570196,7.48739899 C16.8787973,6.98895912 17.5049381,6.36674934 18,5.65829266 L18,5.65717257 L18,5.65717257 Z" id="Shape"></path>
                    </g>
                </g>
            </g>
        </g>
    </g>
</svg>