<?xml version="1.0" encoding="UTF-8"?>
<svg width="20px" height="20px" viewBox="0 0 20 20" version="1.1" xmlns="http://www.w3.org/2000/svg" xmlns:xlink="http://www.w3.org/1999/xlink">
    <!-- Generator: Sketch 45.1 (43504) - http://www.bohemiancoding.com/sketch -->
    <title>Search Icon</title>
    <desc>Created with Sketch.</desc>
    <defs></defs>
    <g id="symbols" stroke="none" stroke-width="1" fill="none" fill-rule="evenodd">
        <g id="top-nav" transform="translate(-1168.000000, -40.000000)" fill="#22372B">
            <g id="icons">
                <g transform="translate(1093.000000, 36.000000)">
                    <path d="M86.9134645,8.65869911 C84.9097844,6.65501903 81.6613073,6.65501903 79.6590564,8.65869911 C77.6553763,10.6623792 77.6553763,13.9108562 79.6590564,15.9145363 C81.6613073,17.9167873 84.9097844,17.9167873 86.9134645,15.9145363 C88.9157154,13.9108562 88.9157154,10.6623792 86.9134645,8.65869911 M94.4222627,23.4233346 C93.6519463,24.193651 92.4028619,24.193651 91.6325455,23.4233346 L87.5651607,19.3545206 C84.3767083,21.2867428 80.1792701,20.8994408 77.426711,18.1454526 C74.1910963,14.909838 74.1910963,9.66339747 77.426711,6.42778284 C80.6623256,3.19073905 85.9087661,3.19073905 89.1458099,6.42778284 C91.898369,9.18034193 92.2856709,13.3792093 90.3548779,16.5648034 L94.4222627,20.6336174 C95.1925791,21.4025046 95.1925791,22.6530182 94.4222627,23.4233346" id="Search-Icon"></path>
                </g>
            </g>
        </g>
    </g>
</svg>