<?xml version="1.0" encoding="utf-8"?>
<!-- Generator: Adobe Illustrator 18.1.1, SVG Export Plug-In . SVG Version: 6.00 Build 0)  -->
<svg version="1.1" id="Layer_1" xmlns="http://www.w3.org/2000/svg" xmlns:xlink="http://www.w3.org/1999/xlink" x="0px" y="0px"
	 viewBox="0 0 40 40" enable-background="new 0 0 40 40" xml:space="preserve">
<rect fill="none" width="40" height="40"/>
<path fill="#FFFFFF" d="M20,5.6c-3.9,0-4.4,0-5.9,0.1c-1.5,0.1-2.6,0.3-3.5,0.7C9.6,6.7,8.8,7.2,8,8c-0.8,0.8-1.3,1.6-1.7,2.5
	c-0.4,0.9-0.6,2-0.7,3.5c-0.1,1.5-0.1,2-0.1,5.9s0,4.4,0.1,5.9c0.1,1.5,0.3,2.6,0.7,3.5C6.7,30.4,7.2,31.2,8,32
	c0.8,0.8,1.6,1.3,2.5,1.7c0.9,0.4,2,0.6,3.5,0.7c1.5,0.1,2,0.1,5.9,0.1s4.4,0,5.9-0.1c1.5-0.1,2.6-0.3,3.5-0.7
	c0.9-0.4,1.7-0.9,2.5-1.7c0.8-0.8,1.3-1.6,1.7-2.5c0.4-0.9,0.6-2,0.7-3.5c0.1-1.5,0.1-2,0.1-5.9s0-4.4-0.1-5.9
	c-0.1-1.5-0.3-2.6-0.7-3.5C33.3,9.6,32.8,8.8,32,8c-0.8-0.8-1.6-1.3-2.5-1.7c-0.9-0.4-2-0.6-3.5-0.7C24.4,5.6,23.9,5.6,20,5.6z
	 M20,8.2c3.8,0,4.3,0,5.8,0.1c1.4,0.1,2.2,0.3,2.7,0.5c0.7,0.3,1.1,0.6,1.7,1.1c0.5,0.5,0.8,1,1.1,1.7c0.2,0.5,0.4,1.3,0.5,2.7
	c0.1,1.5,0.1,2,0.1,5.8s0,4.3-0.1,5.8c-0.1,1.4-0.3,2.2-0.5,2.7c-0.3,0.7-0.6,1.1-1.1,1.7c-0.5,0.5-1,0.8-1.7,1.1
	c-0.5,0.2-1.3,0.4-2.7,0.5c-1.5,0.1-2,0.1-5.8,0.1s-4.3,0-5.8-0.1c-1.4-0.1-2.2-0.3-2.7-0.5c-0.7-0.3-1.1-0.6-1.7-1.1
	s-0.8-1-1.1-1.7c-0.2-0.5-0.4-1.3-0.5-2.7c-0.1-1.5-0.1-2-0.1-5.8s0-4.3,0.1-5.8c0.1-1.4,0.3-2.2,0.5-2.7c0.3-0.7,0.6-1.1,1.1-1.7
	s1-0.8,1.7-1.1c0.5-0.2,1.3-0.4,2.7-0.5C15.7,8.2,16.2,8.2,20,8.2z M20,12.6c-4.1,0-7.4,3.3-7.4,7.4c0,4.1,3.3,7.4,7.4,7.4
	c4.1,0,7.4-3.3,7.4-7.4C27.4,15.9,24.1,12.6,20,12.6z M20,24.8c-2.6,0-4.8-2.1-4.8-4.8s2.1-4.8,4.8-4.8s4.8,2.1,4.8,4.8
	S22.6,24.8,20,24.8z M29.4,12.3c0,1-0.8,1.7-1.7,1.7s-1.7-0.8-1.7-1.7s0.8-1.7,1.7-1.7S29.4,11.4,29.4,12.3z"/>
</svg>
