<?xml version="1.0" encoding="utf-8"?><svg version="1.1" id="Layer_1" xmlns="http://www.w3.org/2000/svg" xmlns:xlink="http://www.w3.org/1999/xlink" x="0px" y="0px" viewBox="2 2 35 35" enable-background="new 2 2 35 35" xml:space="preserve"> <g fill="#FFFFFF"> <path d="M32.1,32.1H27v-8c0-1.9,0-4.4-2.7-4.4c-2.7,0-3.1,2.1-3.1,4.2v8.1h-5.1V15.7h4.9v2.2h0.1 c0.7-1.3,2.4-2.7,4.8-2.7c5.2,0,6.1,3.4,6.1,7.8V32.1L32.1,32.1z"/> <path d="M10.4,13.4c-1.6,0-3-1.3-3-3c0-1.6,1.3-3,3-3c1.6,0,3,1.3,3,3C13.4,12.1,12,13.4,10.4,13.4z"/> <rect x="7.8" y="15.7" width="5.1" height="16.5"/> </g> </svg>