<?xml version="1.0" encoding="utf-8"?>
<!-- Generator: Adobe Illustrator 18.1.1, SVG Export Plug-In . SVG Version: 6.00 Build 0)  -->
<svg version="1.1" id="Layer_1" xmlns="http://www.w3.org/2000/svg" xmlns:xlink="http://www.w3.org/1999/xlink" x="0px" y="0px"
	 viewBox="0 0 40 40" enable-background="new 0 0 40 40" xml:space="preserve">
<rect fill="none" width="40" height="40"/>
<g>
	<path fill="#FFFFFF" d="M26.1,7.4V14c-0.3,0.5-0.7,0.7-1,0.7c-0.2,0-0.3-0.1-0.4-0.4c0-0.1,0-0.2,0-0.6V7.4h-1.6v6.9
		c0,0.6,0.1,1,0.1,1.3c0.2,0.4,0.5,0.6,1,0.6c0.6,0,1.2-0.3,1.8-1.1v0.9h1.6V7.4H26.1z M18.9,13.6V9.9c0-0.8,0.2-1.2,0.7-1.2
		c0.5,0,0.7,0.4,0.7,1.2v3.6c0,0.8-0.2,1.2-0.7,1.2C19.1,14.8,18.9,14.4,18.9,13.6 M17.8,8.2c-0.3,0.4-0.5,1.1-0.5,2v3
		c0,0.9,0.2,1.6,0.5,2c0.4,0.6,1,0.9,1.8,0.9c0.8,0,1.4-0.3,1.8-0.9c0.3-0.4,0.5-1.1,0.5-2v-3c0-0.9-0.2-1.6-0.5-2
		c-0.4-0.6-1-0.9-1.8-0.9C18.9,7.3,18.3,7.6,17.8,8.2 M15.6,4.4L14.4,9l-1.2-4.6h-1.8c0.4,1.1,0.7,2.2,1.1,3.2
		c0.6,1.6,0.9,2.8,1.1,3.7v4.7h1.7v-4.7l2.1-6.9H15.6z"/>
	<path fill="#FFFFFF" d="M23.5,29.7V26c0-0.8-0.2-1.2-0.7-1.2c-0.3,0-0.5,0.1-0.8,0.4v5.2c0.3,0.3,0.5,0.4,0.8,0.4
		C23.3,30.9,23.5,30.5,23.5,29.7 M27.8,26.9h1.5v-0.8c0-0.8-0.3-1.2-0.8-1.2c-0.5,0-0.8,0.4-0.8,1.2V26.9z M30.8,29.4
		c0,0.5,0,0.8,0,1c-0.1,0.3-0.2,0.7-0.4,0.9c-0.4,0.6-1.1,0.9-1.9,0.9c-0.8,0-1.4-0.3-1.9-0.9c-0.3-0.4-0.5-1.1-0.5-2v-3
		c0-0.9,0.1-1.6,0.5-2c0.4-0.6,1.1-0.9,1.8-0.9c0.8,0,1.4,0.3,1.8,0.9c0.3,0.4,0.5,1.1,0.5,2v1.8h-3.1v1.5c0,0.8,0.3,1.2,0.8,1.2
		c0.4,0,0.6-0.2,0.7-0.6c0-0.1,0-0.4,0-1.1h1.6V29.4z M25,29.6c0,0.8-0.1,1.4-0.2,1.7c-0.2,0.6-0.6,1-1.2,1c-0.5,0-1.1-0.3-1.6-1
		v0.8h-1.5V20.6h1.5v3.8c0.5-0.6,1-0.9,1.6-0.9c0.6,0,1,0.3,1.2,1c0.1,0.3,0.2,0.9,0.2,1.7V29.6z M19.2,32.2h-1.5v-0.9
		c-0.6,0.7-1.2,1.1-1.8,1.1c-0.5,0-0.8-0.2-1-0.6c-0.1-0.3-0.1-0.7-0.1-1.3v-6.8h1.5v6.3c0,0.4,0,0.6,0,0.6c0,0.2,0.2,0.4,0.4,0.4
		c0.3,0,0.6-0.2,1-0.7v-6.6h1.5V32.2z M14.5,22.3h-1.8v9.9H11v-9.9H9.2v-1.6h5.4V22.3z M32.7,26.6c0-2,0-4.1-0.4-6.1
		c-0.3-1.4-1.4-2.4-2.8-2.5c-3.2-0.4-6.4-0.4-9.5-0.4c-3.2,0-6.4,0-9.5,0.4c-1.3,0.2-2.4,1.2-2.8,2.5c-0.4,1.9-0.4,4.1-0.4,6.1
		c0,2,0,4.1,0.4,6.1C8,34,9.1,35,10.5,35.2c3.2,0.4,6.4,0.4,9.5,0.4c3.2,0,6.4,0,9.5-0.4c1.3-0.2,2.4-1.2,2.8-2.5
		C32.7,30.7,32.7,28.6,32.7,26.6"/>
</g>
</svg>
