<?xml version="1.0" encoding="utf-8"?>
<!-- Generator: Adobe Illustrator 18.1.1, SVG Export Plug-In . SVG Version: 6.00 Build 0)  -->
<svg version="1.1" id="Layer_1" xmlns="http://www.w3.org/2000/svg" xmlns:xlink="http://www.w3.org/1999/xlink" x="0px" y="0px"
	 viewBox="0 0 40 40" enable-background="new 0 0 40 40" xml:space="preserve">
<g>
	<path fill="#FFFFFF" d="M14,18.5v3.6H20c-0.2,1.5-1.8,4.5-5.9,4.5c-3.6,0-6.5-2.9-6.5-6.6s2.9-6.6,6.4-6.6c2,0,3.4,0.9,4.2,1.6
		l2.8-2.7c-1.8-1.7-4.2-2.7-7-2.7C8.3,9.6,3.6,14.2,3.6,20S8.3,30.4,14,30.4c6,0,10-4.2,10-10.2c0-0.7-0.1-1.2-0.2-1.7L14,18.5z
		 M36.4,18.5h-3v-3h-3v3h-3v3h3v3h3v-3h3"/>
</g>
</svg>
