<?xml version="1.0" encoding="utf-8"?>
<!-- Generator: Adobe Illustrator 18.1.1, SVG Export Plug-In . SVG Version: 6.00 Build 0)  -->
<svg version="1.1" id="Layer_1" xmlns="http://www.w3.org/2000/svg" xmlns:xlink="http://www.w3.org/1999/xlink" x="0px" y="0px"
	 viewBox="0 0 40 40" enable-background="new 0 0 40 40" xml:space="preserve">
<path fill="#FFFFFF" d="M33.8,14.6c-0.1,2.7-2,6.4-5.6,11c-3.7,4.9-6.9,7.3-9.5,7.3c-1.6,0-3-1.5-4.1-4.5l-2.2-8.2
	c-0.8-3-1.7-4.5-2.7-4.5c-0.2,0-0.9,0.4-2.2,1.3l-1.3-1.7c1.4-1.2,2.7-2.4,4-3.6c1.8-1.6,3.2-2.4,4.1-2.5c2.1-0.2,3.5,1.3,4,4.4
	c0.5,3.4,0.9,5.5,1.1,6.3c0.6,2.8,1.3,4.2,2,4.2c0.6,0,1.4-0.9,2.6-2.7c1.2-1.8,1.8-3.2,1.9-4.2c0.2-1.6-0.5-2.4-1.9-2.4
	c-0.7,0-1.3,0.1-2,0.5c1.4-4.4,3.9-6.6,7.8-6.5C32.6,9.2,33.9,11,33.8,14.6L33.8,14.6z"/>
</svg>
