<?xml version="1.0" encoding="utf-8"?>
<!-- Generator: Adobe Illustrator 18.1.1, SVG Export Plug-In . SVG Version: 6.00 Build 0)  -->
<svg version="1.1" id="Layer_1" xmlns="http://www.w3.org/2000/svg" xmlns:xlink="http://www.w3.org/1999/xlink" x="0px" y="0px"
	 viewBox="0 0 40 40" enable-background="new 0 0 40 40" xml:space="preserve">
<path id="path26" fill="#FFFFFF" d="M21.3,6.3c-7.9,0-12,5.3-12,11c0,2.7,1.4,6,3.7,7c0.3,0.2,0.5,0.1,0.6-0.2
	c0.1-0.3,0.4-1.5,0.5-2.1c0-0.2,0-0.3-0.1-0.5c-0.7-0.9-1.4-2.6-1.4-4.2c0-4,3-7.9,8.2-7.9c4.5,0,7.6,3,7.6,7.4
	c0,4.9-2.5,8.3-5.7,8.3c-1.8,0-3.1-1.5-2.7-3.3c0.5-2.2,1.5-4.5,1.5-6.1c0-1.4-0.8-2.6-2.3-2.6c-1.8,0-3.3,1.9-3.3,4.4
	c0,1.6,0.5,2.7,0.5,2.7s-1.8,7.6-2.1,9c-0.6,2.4,0.1,6.3,0.1,6.7c0,0.2,0.2,0.2,0.3,0.1c0.2-0.2,2.4-3.5,3-5.9C18,29.5,19,26,19,26
	c0.6,1.1,2.3,2.1,4.2,2.1c5.5,0,9.4-5,9.4-11.3C32.6,10.8,27.7,6.3,21.3,6.3"/>
</svg>
