<svg xmlns="http://www.w3.org/2000/svg" viewBox="0 0 100 100"><defs><style>.cls-1{fill:#fff;}</style></defs><title>app-time-wht</title><g id="Layer_2" data-name="Layer 2"><g id="White_Icons" data-name="White Icons"><path class="cls-1" d="M0,85.11A10.21,10.21,0,1,0,13.37,75.4V59.71a10.26,10.26,0,0,0,0-19.49V24.6A10.25,10.25,0,0,0,7.05,5.09a10.27,10.27,0,0,0,0,19.5V40.26a10.26,10.26,0,0,0,0,19.49V75.4A10.26,10.26,0,0,0,0,85.11ZM10.22,89a3.91,3.91,0,1,1,3.89-3.91A3.9,3.9,0,0,1,10.22,89h0Zm0-78.1a3.91,3.91,0,1,1-3.89,3.91,3.9,3.9,0,0,1,3.89-3.91Zm0,35.15A3.91,3.91,0,1,1,6.33,50a3.9,3.9,0,0,1,3.89-3.94h0Z"/><path class="cls-1" d="M26.86,10v9.78a10,10,0,0,0,10,10H75.25a10,10,0,0,0,10-10V10a10,10,0,0,0-10-10H36.86A10,10,0,0,0,26.86,10ZM76.4,23.43H35.71V6.35H76.4Z"/><path class="cls-1" d="M90,35.07H36.86a10,10,0,0,0-10,10v9.75a10,10,0,0,0,10,10H90a10,10,0,0,0,10-10V45.07A10,10,0,0,0,90,35.07Zm1.15,23.4H35.71V41.42H91.15Z"/><path class="cls-1" d="M75.25,70.22H36.86a10,10,0,0,0-10,10V90a10,10,0,0,0,10,10H75.25a10,10,0,0,0,10-10V80.22A10,10,0,0,0,75.25,70.22ZM76.4,93.65H35.71V76.57H76.4Z"/></g></g></svg>