<svg xmlns="http://www.w3.org/2000/svg" viewBox="0 0 100 100"><defs><style>.cls-1{fill:#fff;}</style></defs><title>app-chk-wht</title><g id="Layer_2" data-name="Layer 2"><g id="White_Icons" data-name="White Icons"><path class="cls-1" d="M20.55,5.15l-10.25,9L6.88,10.58a3.93,3.93,0,0,0-5.7,0,4.27,4.27,0,0,0,0,5.9l6,6.25a3.93,3.93,0,0,0,5.46.23L25.76,11.5a4.27,4.27,0,0,0,.19-5.89,3.93,3.93,0,0,0-5.38-.46Z"/><path class="cls-1" d="M22.14,37.5H6a4.1,4.1,0,0,0-4,4.17V58.33A4.1,4.1,0,0,0,6,62.5H22.14a4.1,4.1,0,0,0,4-4.17V41.67A4.1,4.1,0,0,0,22.14,37.5Zm-4,16.67H10.06V45.83h8.05Z"/><path class="cls-1" d="M22.14,75H6a4.1,4.1,0,0,0-4,4.17V95.83A4.1,4.1,0,0,0,6,100H22.14a4.1,4.1,0,0,0,4-4.17V79.17A4.1,4.1,0,0,0,22.14,75Zm-4,16.67H10.06V83.33h8.05Z"/><path class="cls-1" d="M43.86,0c-3.1,0-5.61,1.87-5.61,4.17s2.51,4.17,5.61,4.17H94.39c3.1,0,5.61-1.87,5.61-4.17S97.49,0,94.39,0Z"/><path class="cls-1" d="M43.86,22.92H80.35c3.1,0,5.61-1.87,5.61-4.17s-2.51-4.17-5.61-4.17H43.86c-3.1,0-5.61,1.87-5.61,4.17S40.76,22.92,43.86,22.92Z"/><path class="cls-1" d="M43.86,45.83H86c3.1,0,5.61-1.87,5.61-4.17S89.06,37.5,86,37.5H43.86c-3.1,0-5.61,1.87-5.61,4.17S40.76,45.83,43.86,45.83Z"/><path class="cls-1" d="M43.86,60.42H66.31c3.1,0,5.61-1.87,5.61-4.17s-2.51-4.17-5.61-4.17H43.86c-3.1,0-5.61,1.87-5.61,4.17S40.76,60.42,43.86,60.42Z"/><path class="cls-1" d="M91.58,75H43.86c-3.1,0-5.61,1.87-5.61,4.17s2.51,4.17,5.61,4.17H91.58c3.1,0,5.61-1.87,5.61-4.17S94.68,75,91.58,75Z"/><path class="cls-1" d="M77.54,89.58H43.86c-3.1,0-5.61,1.87-5.61,4.17s2.51,4.17,5.61,4.17H77.54c3.1,0,5.61-1.87,5.61-4.17S80.64,89.58,77.54,89.58Z"/></g></g></svg>