<svg id="Layer_1" data-name="Layer 1" xmlns="http://www.w3.org/2000/svg" viewBox="0 0 320 74"><defs><style>.cls-1{fill:#981328;}</style></defs><title>bates-plus-you-logo</title><path d="M214.79,30.59A5.21,5.21,0,0,1,220.3,35h-2.72a2.76,2.76,0,0,0-2.79-2c-2.1,0-3.35,1.83-3.35,4.31s1.24,4.31,3.35,4.31a2.75,2.75,0,0,0,2.79-2h2.72A5.21,5.21,0,0,1,214.79,44c-3.52,0-6.13-2.74-6.13-6.73s2.62-6.73,6.13-6.73"/><path d="M227.7,38.4h3.22l-1.61-4.33Zm3-7.6,5,13H233l-1.18-3.14h-4.93l-1.16,3.14h-2.74l5-13Z"/><polygon points="245.3 43.84 242.04 35.32 242.04 43.84 239.47 43.84 239.47 30.8 242.73 30.8 246.25 39.99 249.74 30.8 252.96 30.8 252.96 43.84 250.36 43.84 250.36 35.32 247.17 43.84 245.3 43.84"/><path d="M263.23,33.12h-2.47V37h2.47a1.95,1.95,0,1,0,0-3.88m-2.47,6.2v4.52H258v-13h5.36c2.79,0,4.63,1.49,4.63,4.27s-1.84,4.24-4.63,4.24Z"/><path d="M274.35,38.4h3.22L276,34.07Zm3-7.6,5,13h-2.79l-1.18-3.14H273.5l-1.16,3.14h-2.74l5-13Z"/><rect x="286.12" y="30.8" width="2.74" height="13.03"/><path d="M299.76,39.16V37H305v1.15a5.52,5.52,0,0,1-5.73,5.9c-3.67,0-6.35-2.74-6.35-6.73s2.7-6.73,6.28-6.73A5.23,5.23,0,0,1,304.74,35H302a2.75,2.75,0,0,0-2.81-2c-2.17,0-3.49,1.8-3.49,4.31s1.35,4.33,3.56,4.33a2.91,2.91,0,0,0,3-2.48Z"/><polygon points="320 43.84 317.83 43.84 311.62 35.15 311.62 43.84 308.98 43.84 308.98 30.8 311.55 30.8 317.36 39.04 317.36 30.8 320 30.8 320 43.84"/><polygon points="0 30.49 11.23 30.49 11.23 32.87 6.99 32.87 6.99 43.52 4.22 43.52 4.22 32.87 0 32.87 0 30.49"/><polygon points="26.63 30.49 26.63 43.52 23.89 43.52 23.89 38.05 17.92 38.05 17.92 43.52 15.18 43.52 15.18 30.49 17.92 30.49 17.92 35.67 23.89 35.67 23.89 30.49 26.63 30.49"/><polygon points="40.24 30.49 40.24 32.87 34.01 32.87 34.01 35.72 39.67 35.72 39.67 38.03 34.01 38.03 34.01 41.13 40.24 41.13 40.24 43.52 31.3 43.52 31.3 30.49 40.24 30.49"/><path d="M53.84,41.23h2.59c1.29,0,2-.64,2-1.63s-.69-1.64-2-1.64H53.84Zm2.23-5.39c1.31,0,2-.51,2-1.55s-.69-1.51-2-1.51H53.84v3.06Zm5,4c0,2.4-1.67,3.69-4.42,3.69H51.2v-13h5c2.74,0,4.44,1.21,4.44,3.54a2.81,2.81,0,0,1-1.74,2.76,3.17,3.17,0,0,1,2.14,3"/><path d="M68.69,38.09h3.22L70.3,33.76Zm3-7.6,5,13H73.95l-1.18-3.14H67.84l-1.16,3.14H63.94l5-13Z"/><polygon points="77.98 30.49 89.21 30.49 89.21 32.87 84.97 32.87 84.97 43.52 82.2 43.52 82.2 32.87 77.98 32.87 77.98 30.49"/><polygon points="102.1 30.49 102.1 32.87 95.86 32.87 95.86 35.72 101.52 35.72 101.52 38.03 95.86 38.03 95.86 41.13 102.1 41.13 102.1 43.52 93.16 43.52 93.16 30.49 102.1 30.49"/><path d="M108.51,39.81a2.47,2.47,0,0,0,2.62,1.68c1.33,0,2.21-.59,2.21-1.63,0-.79-.47-1.21-1.61-1.47l-2.36-.53c-1.89-.42-3.35-1.42-3.35-3.56,0-2.36,2-4,4.74-4,3,0,4.74,1.57,5.17,3.78H113.2a2.33,2.33,0,0,0-2.42-1.55c-1.24,0-2.08.59-2.08,1.53,0,.74.49,1.19,1.48,1.42l2.4.55c2.14.49,3.45,1.7,3.45,3.67,0,2.53-2.1,4.06-4.89,4.06s-5-1.44-5.47-3.93Z"/><path class="cls-1" d="M186,35.92a16.68,16.68,0,0,0,11.07-16c0-11.45-8.62-20-23.53-20H145.32V13.73l18.86,0h6.48c6.6,0,9.9,3.15,9.9,8A7.52,7.52,0,0,1,175.8,29V43.83c4.41.95,6.89,3.76,6.89,7.9,0,5.36-3.94,8.72-10.43,8.72H145.32V74h30.45C190,74,199.4,65.07,199.4,52.89A16.94,16.94,0,0,0,186,35.92Z"/><polyline points="175.79 43.83 175.79 29.02 160.32 29.02 160.32 13.73 145.32 13.73 145.32 29.02 129.9 29.02 129.9 43.83 145.32 43.83 145.32 60.44 160.32 60.48 160.32 43.83"/></svg>