<svg xmlns="http://www.w3.org/2000/svg" viewBox="0 0 100 100"><defs><style>.cls-1{fill:#fff;}</style></defs><title>course-wht</title><g id="Layer_2" data-name="Layer 2"><g id="White_Icons" data-name="White Icons"><path class="cls-1" d="M21.79,0a9,9,0,0,0-9,9v3.85H7.69A7.73,7.73,0,0,0,0,20.51V76.92a7.73,7.73,0,0,0,7.69,7.69H57.41a21.77,21.77,0,1,0,27.2-27.2V20.51a7.73,7.73,0,0,0-7.69-7.69H71.79V9A9,9,0,1,0,53.85,9v3.85H30.77V9A9,9,0,0,0,21.79,0Zm0,5.13A3.78,3.78,0,0,1,25.64,9V19.23a3.85,3.85,0,0,1-7.69,0V9A3.78,3.78,0,0,1,21.79,5.13Zm41,0A3.78,3.78,0,0,1,66.67,9V19.23a3.85,3.85,0,0,1-7.69,0V9A3.78,3.78,0,0,1,62.82,5.13ZM7.69,17.95h5.13v1.28a9,9,0,0,0,17.95,0V17.95H53.85v1.28a9,9,0,0,0,17.95,0V17.95h5.13a2.5,2.5,0,0,1,2.56,2.56v14.1H5.13V20.51A2.5,2.5,0,0,1,7.69,17.95ZM5.13,39.74H79.49V56.49c-.43,0-.85-.08-1.28-.08A21.84,21.84,0,0,0,56.41,78.2c0,.44.06.85.08,1.28H7.69a2.5,2.5,0,0,1-2.56-2.56ZM78.21,61.54A16.67,16.67,0,1,1,61.54,78.21,16.63,16.63,0,0,1,78.21,61.54Zm6.15,26.05.19,0a2.08,2.08,0,0,0,2-.88,1.73,1.73,0,0,0-.11-2l-6.27-8.34a2.23,2.23,0,0,0-2.73-.61L71.75,79.1a1.89,1.89,0,0,0-1.14,1.11,1.74,1.74,0,0,0,.18,1.53,2.12,2.12,0,0,0,1.37.92,2.21,2.21,0,0,0,1.65-.29l4-2.53,5.18,6.91a2.17,2.17,0,0,0,1.3.84Z"/></g></g></svg>