<svg xmlns="http://www.w3.org/2000/svg" viewBox="0 0 100 100"><defs><style>.cls-1{fill:#fff;}</style></defs><title>fac-dir-wht</title><g id="Layer_2" data-name="Layer 2"><g id="White_Icons" data-name="White Icons"><path class="cls-1" d="M5.33,6.25v6.46H8.74a2,2,0,0,1,2.13,2.08,2,2,0,0,1-2.13,2.08H5.33v10H8.74a2.08,2.08,0,1,1,0,4.17H5.33V41H8.74a2.08,2.08,0,1,1,0,4.17H5.33v10H8.74a2.08,2.08,0,1,1,0,4.17H5.33v10H8.74a2.08,2.08,0,1,1,0,4.17H5.33v10H8.74a2.08,2.08,0,1,1,0,4.17H5.33v6A6.21,6.21,0,0,0,11.72,100h7.67V0H11.72A6.34,6.34,0,0,0,5.33,6.25Z"/><path class="cls-1" d="M91.35,0H23.87V100H91.35c4.9,0,8.65-2.71,8.65-6.25V6.25C100,2.71,96.25,0,91.35,0ZM63,30.62a8.54,8.54,0,1,1-8.74,8.54A8.68,8.68,0,0,1,63,30.62ZM78.79,69.37H47.25A2.82,2.82,0,0,1,44.48,66,19.11,19.11,0,0,1,63,51.87c9,0,16.62,6,18.54,14.17A2.72,2.72,0,0,1,78.79,69.37Z"/><path class="cls-1" d="M2.13,12.71A2,2,0,0,0,0,14.79a2,2,0,0,0,2.13,2.08H5.54V12.71Z"/><path class="cls-1" d="M2.13,26.67a2.08,2.08,0,1,0,0,4.17H5.54V26.67Z"/><path class="cls-1" d="M2.13,40.83a2.08,2.08,0,1,0,0,4.17H5.54V40.83Z"/><path class="cls-1" d="M2.13,55a2.08,2.08,0,1,0,0,4.17H5.54V55Z"/><path class="cls-1" d="M2.13,69.17a2.08,2.08,0,1,0,0,4.17H5.54V69.17Z"/><path class="cls-1" d="M2.13,83.13a2.08,2.08,0,1,0,0,4.17H5.54V83.13Z"/></g></g></svg>