<svg xmlns="http://www.w3.org/2000/svg" viewBox="0 0 100 100"><defs><style>.cls-1{fill:#fff;}</style></defs><title>fin-aid-wht</title><g id="Layer_2" data-name="Layer 2"><g id="White_Icons" data-name="White Icons"><path class="cls-1" d="M78.21,27c0-14.93-12.65-27-28.27-27S21.68,12.09,21.68,27,34.33,54,49.94,54,78.21,42,78.21,27ZM52.36,42v2.74a1.2,1.2,0,0,1-1.21,1.16H48.07a1.2,1.2,0,0,1-1.21-1.16V41.74a20.21,20.21,0,0,1-6.16-3.15,1.26,1.26,0,0,1-.11-2l2.09-2.1a1.41,1.41,0,0,1,1.87-.11c1.32.94,3.52,2.21,5.39,2.21,3.85,0,3.85-2.1,3.85-2.95,0-1.26-.33-2.31-4.51-3.79-5.94-2-9-5.26-9-9.46,0-3.89,2.53-6.83,6.6-8V9.46A1.2,1.2,0,0,1,48.06,8.3h3.08a1.2,1.2,0,0,1,1.21,1.16v2.63a14.43,14.43,0,0,1,5.17,2.21,1.45,1.45,0,0,1,.22,2.1l-2.09,2.1a1.4,1.4,0,0,1-1.87.21,6.28,6.28,0,0,0-3.74-1.16c-.88,0-3.85.32-3.85,2.74,0,.74,0,2.42,5.06,4.21,2.53.84,8.47,2.84,8.47,9.15,0,4.42-2.86,7.47-7.37,8.31Z"/><path class="cls-1" d="M38.73,69.72a61.72,61.72,0,0,0-7.48-9.25,92.67,92.67,0,0,1-7.15-8.31,4.15,4.15,0,0,0-5.5-.94c-2.2,1.16-3.63,4-1.43,8.1,1.21,2.21,4.07,5.15,7,8.31.22.21.33.42.55.53a1.57,1.57,0,0,1-.33,2.42,1.91,1.91,0,0,1-2.2-.32c-.11-.21-.33-.32-.44-.53a88.64,88.64,0,0,1-5.94-6.63,9.72,9.72,0,0,1-1.54-2.42c-1.76-3.26-1.76-6.1-.88-8.31-1.54-3.26-3-6.31-3.63-8.31A5,5,0,0,0,0,46c.33,6.2,2.64,26.81,8.91,33.86A75.36,75.36,0,0,0,22.45,91a2.83,2.83,0,0,1,1.32,2.52v4.21A2.39,2.39,0,0,0,26.19,100h15.4A2.39,2.39,0,0,0,44,97.69c-.11-2.52-.22-6.73-.44-10.31-.55-7.68-3-14.72-4.84-17.67Z"/><path class="cls-1" d="M90.2,44.06a67.35,67.35,0,0,1-3.63,8.31,9.57,9.57,0,0,1-.88,8.31c-.44.74-1,1.58-1.54,2.42-1.54,2-3.63,4.21-5.94,6.63-.11.21-.33.32-.44.53a1.76,1.76,0,0,1-2.2.32,1.57,1.57,0,0,1-.33-2.42c.22-.21.33-.42.55-.53,3-3,5.83-6,7-8.31,2.2-4.21.77-6.94-1.43-8.1a4.16,4.16,0,0,0-5.5.94,68.39,68.39,0,0,1-7.15,8.31,70.9,70.9,0,0,0-7.59,9.25c-1.87,2.95-4.29,10.1-4.73,17.56C56.22,91,56.11,95,56,97.58a2.39,2.39,0,0,0,2.42,2.31h15.4a2.39,2.39,0,0,0,2.42-2.31V93.37a3.41,3.41,0,0,1,1.32-2.52A75.17,75.17,0,0,0,91.08,79.7c6.27-7,8.58-27.66,8.91-33.86a5,5,0,0,0-9.79-1.79Z"/></g></g></svg>