<?xml version="1.0" encoding="utf-8"?>
<!-- Generator: Adobe Illustrator 18.1.1, SVG Export Plug-In . SVG Version: 6.00 Build 0)  -->
<svg version="1.1" id="Layer_1" xmlns="http://www.w3.org/2000/svg" xmlns:xlink="http://www.w3.org/1999/xlink" x="0px" y="0px"
	 viewBox="0 0 120 80" enable-background="new 0 0 120 80" xml:space="preserve">
<g display="none">
	<rect display="inline" fill="none" width="40" height="40"/>
	<rect x="80" y="40" display="inline" fill="none" width="40" height="40"/>
	<rect y="40" display="inline" fill="none" width="40" height="40"/>
	<rect x="40" display="inline" fill="none" width="40" height="40"/>
	<rect x="80" display="inline" fill="none" width="40" height="40"/>
</g>
<path fill="#FFFFFF" d="M113,26.7c0,0.1,0,0.2-0.1,0.2c-0.3,0.6-1.4,1.1-3.4,1.4c-0.1,0.1-0.1,0.4-0.2,0.6c0,0.2-0.1,0.4-0.1,0.6
	c-0.1,0.3-0.3,0.5-0.6,0.5h0c-0.1,0-0.3,0-0.6-0.1c-0.4-0.1-0.8-0.1-1.4-0.1c-0.3,0-0.7,0-1,0.1c-0.7,0.1-1.2,0.5-1.9,1
	c-0.9,0.7-2,1.4-3.6,1.4c-0.1,0-0.1,0-0.2,0l-0.1,0c-1.6,0-2.6-0.7-3.6-1.4c-0.6-0.5-1.2-0.9-1.9-1c-0.3-0.1-0.7-0.1-1-0.1
	c-0.6,0-1,0.1-1.4,0.2c-0.2,0-0.4,0.1-0.6,0.1c-0.4,0-0.6-0.2-0.6-0.5c-0.1-0.2-0.1-0.4-0.1-0.6c0-0.2-0.1-0.5-0.2-0.6
	c-2-0.3-3.2-0.8-3.4-1.4c0-0.1-0.1-0.2-0.1-0.2c0-0.3,0.2-0.5,0.5-0.6c3.5-0.6,5.1-4.2,5.2-4.4l0,0c0.2-0.4,0.2-0.7,0.1-1
	c-0.2-0.5-1-0.7-1.5-0.9c-0.1,0-0.3-0.1-0.4-0.1c-1.2-0.5-1.4-1-1.3-1.4c0.1-0.5,0.7-0.9,1.3-0.9c0.2,0,0.3,0,0.4,0.1
	c0.5,0.2,0.9,0.3,1.2,0.3c0.3,0,0.4-0.1,0.5-0.1c0-0.2,0-0.4,0-0.6c-0.1-1.8-0.2-4,0.3-5.3c1.7-3.9,5.4-4.2,6.4-4.2l0.5,0h0.1
	c1.1,0,4.7,0.3,6.4,4.2c0.6,1.3,0.4,3.5,0.3,5.3l0,0.1c0,0.2,0,0.4,0,0.6c0.1,0,0.2,0.1,0.4,0.1c0.3,0,0.7-0.1,1.1-0.3
	c0.2-0.1,0.4-0.1,0.5-0.1c0.2,0,0.4,0,0.5,0.1c0.5,0.2,0.8,0.5,0.8,0.9c0,0.5-0.4,0.9-1.3,1.3c-0.1,0-0.2,0.1-0.4,0.1
	c-0.5,0.2-1.3,0.4-1.5,0.9c-0.1,0.2-0.1,0.6,0.1,1l0,0c0.1,0.2,1.7,3.8,5.2,4.4C112.8,26.2,113,26.4,113,26.7z"/>
<g>
	<path fill="#FFFFFF" d="M106.3,47.5v6.7c-0.4,0.5-0.7,0.7-1,0.7c-0.2,0-0.3-0.1-0.4-0.4c0-0.1,0-0.2,0-0.6v-6.5h-1.6v7
		c0,0.6,0.1,1,0.1,1.3c0.2,0.4,0.5,0.7,1,0.7c0.6,0,1.2-0.4,1.8-1.1v1h1.6v-8.8H106.3z M98.9,53.8v-3.7c0-0.8,0.2-1.2,0.8-1.2
		s0.8,0.4,0.8,1.2v3.7c0,0.8-0.2,1.2-0.8,1.2S98.9,54.6,98.9,53.8 M97.8,48.3c-0.3,0.4-0.5,1.1-0.5,2.1v3.1c0,0.9,0.2,1.6,0.5,2.1
		c0.4,0.6,1.1,0.9,1.8,0.9c0.8,0,1.4-0.3,1.9-0.9c0.3-0.4,0.5-1.1,0.5-2.1v-3.1c0-0.9-0.2-1.6-0.5-2.1c-0.4-0.6-1.1-0.9-1.9-0.9
		C98.8,47.4,98.2,47.7,97.8,48.3 M95.5,44.5l-1.2,4.6l-1.2-4.6h-1.9c0.4,1.1,0.8,2.2,1.1,3.3c0.6,1.7,0.9,2.9,1.1,3.7v4.8h1.8v-4.8
		l2.1-7H95.5z"/>
	<path fill="#FFFFFF" d="M103.6,70.2v-3.7c0-0.8-0.2-1.2-0.7-1.2c-0.3,0-0.5,0.1-0.8,0.4V71c0.3,0.3,0.5,0.4,0.8,0.4
		C103.3,71.4,103.6,71,103.6,70.2 M107.9,67.3h1.6v-0.8c0-0.8-0.3-1.2-0.8-1.2c-0.5,0-0.8,0.4-0.8,1.2V67.3z M111,69.9
		c0,0.5,0,0.9,0,1c-0.1,0.3-0.2,0.7-0.4,0.9c-0.4,0.6-1.1,0.9-1.9,0.9c-0.8,0-1.4-0.3-1.9-0.9c-0.3-0.4-0.5-1.1-0.5-2.1v-3.1
		c0-0.9,0.2-1.6,0.5-2.1c0.5-0.6,1.1-0.9,1.9-0.9c0.8,0,1.4,0.3,1.9,0.9c0.3,0.4,0.5,1.1,0.5,2.1v1.8h-3.1v1.5
		c0,0.8,0.3,1.2,0.8,1.2c0.4,0,0.6-0.2,0.7-0.6c0-0.1,0-0.4,0-1.1h1.6V69.9z M105.1,70.1c0,0.8-0.1,1.4-0.2,1.8
		c-0.2,0.7-0.6,1-1.3,1c-0.6,0-1.1-0.3-1.6-1v0.8h-1.6V61h1.6v3.8c0.5-0.6,1-0.9,1.6-0.9c0.6,0,1,0.3,1.3,1c0.1,0.4,0.2,0.9,0.2,1.8
		V70.1z M99.2,72.7h-1.6v-1c-0.6,0.7-1.2,1.1-1.8,1.1c-0.5,0-0.9-0.2-1-0.7c-0.1-0.3-0.1-0.7-0.1-1.3V64h1.6v6.4c0,0.4,0,0.6,0,0.6
		c0,0.2,0.2,0.4,0.4,0.4c0.3,0,0.6-0.2,1-0.7V64h1.6V72.7z M94.4,62.6h-1.9v10.1h-1.7V62.6h-1.8V61h5.5V62.6z M113,67
		c0-2,0-4.2-0.5-6.2c-0.3-1.4-1.4-2.4-2.8-2.6c-3.2-0.4-6.5-0.4-9.7-0.4c-3.2,0-6.5,0-9.7,0.4c-1.4,0.2-2.5,1.2-2.8,2.6
		C87,62.8,87,65,87,67c0,2,0,4.2,0.5,6.2c0.3,1.4,1.4,2.4,2.8,2.6c3.2,0.4,6.5,0.4,9.7,0.4c3.2,0,6.5,0,9.7-0.4
		c1.4-0.2,2.5-1.2,2.8-2.6C113,71.2,113,69.1,113,67"/>
</g>
<path fill="#FFFFFF" d="M31.8,25.4l0.7-5.7h-5.6v-3.6c0-1.6,0.5-2.8,2.8-2.8h3V8.3c-0.5-0.1-2.3-0.2-4.4-0.2c-4.3,0-7.3,2.6-7.3,7.5
	v4.2h-4.9v5.7h4.9V40h5.9V25.4H31.8z"/>
<path fill="#FFFFFF" d="M73.5,12.4c-1,0.4-2.1,0.7-3.2,0.9c1.1-0.7,2-1.8,2.4-3.1c-1.1,0.6-2.3,1.1-3.5,1.3c-1-1.1-2.4-1.7-4-1.7
	c-3.1,0-5.5,2.5-5.5,5.5c0,0.4,0.1,0.9,0.1,1.3c-4.6-0.2-8.7-2.4-11.4-5.8c-0.5,0.8-0.7,1.8-0.7,2.8c0,1.9,1,3.6,2.5,4.6
	c-0.9,0-1.8-0.3-2.5-0.7v0.1c0,2.7,1.9,4.9,4.4,5.4c-0.5,0.1-1,0.2-1.5,0.2c-0.4,0-0.7,0-1-0.1c0.7,2.2,2.7,3.8,5.2,3.8
	c-1.9,1.5-4.3,2.4-6.9,2.4c-0.4,0-0.9,0-1.3-0.1c2.4,1.6,5.4,2.5,8.5,2.5c10.2,0,15.7-8.4,15.7-15.7c0-0.2,0-0.5,0-0.7
	C71.8,14.4,72.8,13.5,73.5,12.4L73.5,12.4z"/>
<path fill="#FFFFFF" d="M20,46.4c-3.7,0-4.2,0-5.6,0.1c-1.5,0.1-2.4,0.3-3.3,0.6c-0.9,0.3-1.7,0.8-2.4,1.6c-0.8,0.8-1.2,1.5-1.6,2.4
	c-0.3,0.9-0.6,1.9-0.6,3.3c-0.1,1.5-0.1,1.9-0.1,5.6s0,4.2,0.1,5.6c0.1,1.5,0.3,2.4,0.6,3.3c0.3,0.9,0.8,1.7,1.6,2.4
	c0.8,0.8,1.5,1.2,2.4,1.6c0.9,0.3,1.9,0.6,3.3,0.6c1.5,0.1,1.9,0.1,5.6,0.1s4.2,0,5.6-0.1c1.5-0.1,2.4-0.3,3.3-0.6
	c0.9-0.3,1.7-0.8,2.4-1.6c0.8-0.8,1.2-1.5,1.6-2.4c0.3-0.9,0.6-1.9,0.6-3.3c0.1-1.5,0.1-1.9,0.1-5.6c0-3.7,0-4.2-0.1-5.6
	c-0.1-1.5-0.3-2.4-0.6-3.3c-0.3-0.9-0.8-1.7-1.6-2.4c-0.8-0.8-1.5-1.2-2.4-1.6c-0.9-0.3-1.9-0.6-3.3-0.6
	C24.2,46.4,23.7,46.4,20,46.4z M20,48.8c3.6,0,4.1,0,5.5,0.1c1.3,0.1,2,0.3,2.5,0.5c0.6,0.2,1.1,0.5,1.6,1c0.5,0.5,0.8,0.9,1,1.6
	c0.2,0.5,0.4,1.2,0.5,2.5c0.1,1.4,0.1,1.9,0.1,5.5s0,4.1-0.1,5.5c-0.1,1.3-0.3,2-0.5,2.5c-0.2,0.6-0.5,1.1-1,1.6
	c-0.5,0.5-0.9,0.8-1.6,1c-0.5,0.2-1.2,0.4-2.5,0.5c-1.4,0.1-1.9,0.1-5.5,0.1s-4.1,0-5.5-0.1c-1.3-0.1-2-0.3-2.5-0.5
	c-0.6-0.2-1.1-0.5-1.6-1c-0.5-0.5-0.8-0.9-1-1.6c-0.2-0.5-0.4-1.2-0.5-2.5c-0.1-1.4-0.1-1.9-0.1-5.5s0-4.1,0.1-5.5
	c0.1-1.3,0.3-2,0.5-2.5c0.2-0.6,0.5-1.1,1-1.6c0.5-0.5,0.9-0.8,1.6-1c0.5-0.2,1.2-0.4,2.5-0.5C15.9,48.9,16.4,48.8,20,48.8z M20,53
	c-3.9,0-7,3.1-7,7c0,3.9,3.1,7,7,7c3.9,0,7-3.1,7-7C27,56.1,23.9,53,20,53z M20,64.5c-2.5,0-4.5-2-4.5-4.5s2-4.5,4.5-4.5
	s4.5,2,4.5,4.5S22.5,64.5,20,64.5z M28.9,52.7c0,0.9-0.7,1.6-1.6,1.6s-1.6-0.7-1.6-1.6s0.7-1.6,1.6-1.6S28.9,51.8,28.9,52.7z"/>
</svg>
