<?xml version="1.0" encoding="utf-8"?><svg version="1.1" xmlns="http://www.w3.org/2000/svg" xmlns:xlink="http://www.w3.org/1999/xlink" xmlns:a="http://ns.adobe.com/AdobeSVGViewerExtensions/3.0/" x="0px" y="0px"  viewBox="-13 -12 100 100" style="enable-background:new -10 -10 100 100;" xml:space="preserve"> <g fill="#ffffff" x="10" y="10"> <path class="st0" d="M73.4,73.4H58.3V49.6c0-5.6,0-13.1-8-13.1c-8,0-9.2,6.2-9.2,12.5v24.1H25.9V24.7h14.6v6.5h0.3 c2.1-3.9,7.1-8,14.3-8c15.5,0,18.1,10.1,18.1,23.2v27H73.4z"/> <path d="M8.9,17.8C4.2,17.8,0,14,0,8.9C0,4.2,3.9,0,8.9,0c4.8,0,8.9,3.9,8.9,8.9C17.8,14,13.7,17.8,8.9,17.8"/>    <rect x="1.2" y="24.7" width="15.2" height="49"/> </g> </svg>