<?xml version="1.0" encoding="utf-8"?><svg id="Layer_1" data-name="Layer 1" xmlns="http://www.w3.org/2000/svg" viewBox="0 0 40 40"><defs><style>.cls-1{fill:#fff;}</style></defs><title>campaign-icons</title><path class="cls-1" d="M35,21.25a1.25,1.25,0,0,1-1.25,1.25h-10a1.25,1.25,0,0,1-1.25-1.25v-5A1.25,1.25,0,0,1,23.75,15h10A1.25,1.25,0,0,1,35,16.25Zm-2.5,15a1.25,1.25,0,0,1-1.25,1.25h-7.5a1.25,1.25,0,0,1-1.25-1.25v-10A1.25,1.25,0,0,1,23.75,25h7.5a1.25,1.25,0,0,1,1.25,1.25Zm-15-15a1.25,1.25,0,0,1-1.25,1.25h-10A1.25,1.25,0,0,1,5,21.25v-5A1.25,1.25,0,0,1,6.25,15h10a1.25,1.25,0,0,1,1.25,1.25Zm0,15a1.25,1.25,0,0,1-1.25,1.25H8.75A1.25,1.25,0,0,1,7.5,36.25v-10A1.25,1.25,0,0,1,8.75,25h7.5a1.25,1.25,0,0,1,1.25,1.25ZM11.59,5.47c0-.25-.14-.9,1-1.87A2.08,2.08,0,0,1,13.74,3c1.55,0,3.14,4.06,4.07,8-2.92-1.56-5.94-3.77-6.21-5.54m14,0a1.83,1.83,0,0,1,1,.48c.65.51.61.82.6.93C27.09,8,25,9.7,22.65,11.12c.7-3,1.85-5.64,2.94-5.64m10.66,7H25.95c2-1.41,3.83-3.25,4.06-5.26a4,4,0,0,0-1.72-3.69,4.37,4.37,0,0,0-2.7-1.07c-2.85,0-4.47,3.5-5.34,6.62-1-4-3.06-9.11-6.51-9.11a4.54,4.54,0,0,0-3,1.3A5,5,0,0,0,8.81,6c.4,2.65,3.07,4.92,5.64,6.54H3.75A1.25,1.25,0,0,0,2.5,13.75V25a1.25,1.25,0,0,0,1.25,1.25H5v12.5A1.25,1.25,0,0,0,6.25,40h27.5A1.25,1.25,0,0,0,35,38.75V26.25h1.25A1.25,1.25,0,0,0,37.5,25V13.75a1.25,1.25,0,0,0-1.25-1.25"/></svg>
