<?xml version="1.0" encoding="utf-8"?><svg id="Layer_1" data-name="Layer 1" xmlns="http://www.w3.org/2000/svg" xmlns:xlink="http://www.w3.org/1999/xlink" viewBox="0 0 40 40"><defs><style>.cls-1{fill:none;}.cls-2{clip-path:url(#clip-path);}.cls-3{fill:#fff;}</style><clipPath id="clip-path"><rect class="cls-1" x="9" width="22" height="40"/></clipPath></defs><title>campaign-icons</title><g class="cls-2"><path class="cls-3" d="M15.46,1C16.9,2.42,30,17.16,30,17.16A3.68,3.68,0,0,1,31,20a4.69,4.69,0,0,1-1,2.79S16.89,37.48,15.46,38.88a3.47,3.47,0,0,1-4.82.29,3.17,3.17,0,0,1-.29-.29,3.72,3.72,0,0,1,0-5.35l0,0L22.41,20,10.15,6.6a3.72,3.72,0,0,1,0-5.35l0,0A3.72,3.72,0,0,1,15.3.88l.16.14"/></g></svg>