<svg xmlns="http://www.w3.org/2000/svg" viewBox="0 0 82 99.36"><defs><style>.cls-1,.cls-2,.cls-3{fill:#fff;}.cls-2,.cls-3{stroke:#fff;stroke-miterlimit:10;}.cls-2{stroke-width:2px;}</style></defs><title>maj-min-wht</title><g id="Layer_2" data-name="Layer 2"><g id="White_Icons" data-name="White Icons"><path class="cls-1" d="M37.66,78a31.68,31.68,0,0,1-9.11-2.59A29.27,29.27,0,0,1,13.25,57.73c-1.18-3.75-1.33-12.46-.8-16.87C12.78,38,36.9,57.15,40.79,57.08s28.57-19.67,29-16.23c.53,4.41,0,13.13-1.18,16.87A29.27,29.27,0,0,1,53.28,75.43a31,31,0,0,1-6.73,2.19,36.85,36.85,0,0,1-8.89.4Z"/><path class="cls-1" d="M80.05,29,46.19,50.76a9.86,9.86,0,0,1-9.66,0L2,29.14C-.64,27.46-.68,24.7,1.95,23L35.81,1.27a9.86,9.86,0,0,1,9.66,0L80,22.89C82.64,24.57,82.68,27.33,80.05,29Z"/><rect class="cls-1" x="73.68" y="26.05" width="4.81" height="35.62" rx="1.88" ry="1.88"/><rect class="cls-1" x="72.2" y="56.64" width="7.58" height="15.34" rx="2.97" ry="2.97"/><circle class="cls-1" cx="19.49" cy="83.52" r="8.51"/><circle class="cls-2" cx="19.49" cy="83.52" r="6.01"/><circle class="cls-1" cx="32.26" cy="95.1" r="4.26"/><circle class="cls-3" cx="32.26" cy="95.1" r="3.01"/><rect class="cls-1" x="38.7" y="92.99" width="39.09" height="4.21" rx="1.65" ry="1.65"/><rect class="cls-1" x="31.58" y="81.06" width="46.2" height="4.91" rx="1.92" ry="1.92"/></g></g></svg>