<svg xmlns="http://www.w3.org/2000/svg" viewBox="0 0 62.03 100"><defs><style>.cls-1{fill:#ffffff;}</style></defs><title>recruit-col</title><path class="cls-1" d="M61.74,45.82c-.11-.25-.5-1.08-.5-1.08l.51-1.49a2.34,2.34,0,0,0,.24-.94,1.69,1.69,0,0,0-.89-1.16c-.35-.1-.75.07-1.06.76l-.81,1.8a.77.77,0,0,1-1.47,0,21.42,21.42,0,0,0-1-2.12.91.91,0,0,0-.77-.41,1.3,1.3,0,0,0-1,.44L53.61,43l-.73-1.58a2.18,2.18,0,0,1,.93-2.84,3,3,0,0,1,1.66-.22,8.89,8.89,0,0,1,1.22.19,14.72,14.72,0,0,0,2.31.35,4.41,4.41,0,0,0,1.67-.26c-1-.78-6.53-5.49-6.53-5.49-.36-.31-.85-.73-.82-1.23a.8.8,0,0,1,1.09-.67c.13,0,1.84.95,2.76,1.31a2.55,2.55,0,0,0-.56-1.87A44.68,44.68,0,0,1,54,27a22,22,0,0,0-.06-10.11c-1.12-4.86-.37-7.76,0-8.82-4.19,1.41-9.64,4.77-12.2,10.78a19,19,0,0,0-6.38-1.2,22.07,22.07,0,0,0-6.25.86C24.66,11.14,15.29,2.67,1.59,0A24.27,24.27,0,0,1,5.54,13.21c0,7,1.53,11.74,5,15A19.89,19.89,0,0,0,4.18,39.44a11,11,0,0,1,5.4-1.72C5.63,41.21.24,48,0,60-.24,72.66,9.18,83.14,18.06,85.06c-6-5-9.34-12.12-8.6-18.9,2.51,8.6,9.11,14.61,21,19,11.43,4.25,17,10.52,18.4,14.8,1.8-3.77,3.86-13.25-.34-21.49a81.76,81.76,0,0,0-5.77-9.21c-1.6-2.21-2-4.13-1.8-5.2.32-1.89,1.55-2.57,2.51-2.57a1.84,1.84,0,0,1,1.34.55,2.44,2.44,0,0,1,.31,2.32h5.33c2.43,0,3.5-.77,4.58-3.47a16,16,0,0,1,1.28,7.38,11.21,11.21,0,0,0,2-2.56c1.42-2.61,1.57-6,.16-9.93a2.16,2.16,0,0,0,.88-2.2.39.39,0,0,0-.12-.23s-1-.66-1.56-1a74.51,74.51,0,0,1-7.54,1.46L56,50.73c.66-.34.84-.72,1.51-3.44a.72.72,0,0,1,1.43.13c0,1.29,0,2.31-.08,2.89a.67.67,0,0,0,.09.38c.12.14.49.42,1,1a16.68,16.68,0,0,0,2-4.16A3.22,3.22,0,0,0,61.74,45.82ZM35.37,31.28a4.37,4.37,0,0,1,3.82-1.89,5.53,5.53,0,0,1,3.05.85,12.11,12.11,0,0,1,3.26,3.22,6.8,6.8,0,0,0-1.23-.08,7.39,7.39,0,0,0-2.51.59,4.64,4.64,0,0,1-1.91.39,3.1,3.1,0,0,1-2.47-1.69,1.94,1.94,0,0,0-1.68-.81.4.4,0,0,1-.34-.17A.36.36,0,0,1,35.37,31.28ZM37,37.54c10,1.71,12.7,6.39,12.7,6.39s-4.28-2.88-12.92-4.21a52.83,52.83,0,0,0-15.5.21S27,36.13,37,37.54Zm12.47,9.39a53,53,0,0,0-12.35-.58A38.28,38.28,0,0,0,25,49.58a18.53,18.53,0,0,1,12.07-5.22C45.47,43.83,49.45,46.93,49.45,46.93ZM36,76.29c-.66-.05-10.87-2.23-11.77-12.25a12.88,12.88,0,0,0-2.42,3.26A19.24,19.24,0,0,1,19,59.24a10.6,10.6,0,0,0-1.86,3,14.81,14.81,0,0,1-4.39-10.37,11.64,11.64,0,0,1,3.12-9.08,17.92,17.92,0,0,0,1.09,14.82,6.72,6.72,0,0,1,1.82-1.68c.05-5.5,2.2-10.39,5.69-12.43,0,0-3.13,4.42-3,12a18.09,18.09,0,0,0,1.05,6.11A7.72,7.72,0,0,1,24.44,60c1.35-8.79,8.86-10.15,8.93-10.16-2.25,1.58-7.43,6.29-6.67,13.91a10.78,10.78,0,0,0,5.55,8.14,16.67,16.67,0,0,1,.24-6.12,9.18,9.18,0,0,1,5.2-6.37,13.94,13.94,0,0,0-3.09,7.5A18.82,18.82,0,0,0,36,76.29Zm4.24-23.36a43.06,43.06,0,0,0-8.59,5.41A17,17,0,0,1,39.48,51a17.68,17.68,0,0,1,10.3-1.25A42.34,42.34,0,0,0,40.28,52.93Z"/></svg>