<svg xmlns="http://www.w3.org/2000/svg" viewBox="0 0 66.15 100"><defs><style>.cls-1{fill:#fff;}</style></defs><title>Stu-prof-col_1</title><g id="Layer_2" data-name="Layer 2"><g id="White_Icons" data-name="White Icons"><path class="cls-1" d="M54.51,12.48H43.92V10.84a10.84,10.84,0,0,0-21.68,0v1.61H11.65A11.65,11.65,0,0,0,0,24.1V88.35A11.65,11.65,0,0,0,11.65,100H54.51A11.65,11.65,0,0,0,66.15,88.35V24.13A11.65,11.65,0,0,0,54.51,12.48ZM28.59,10.84a4.49,4.49,0,0,1,9,0v7.41h-9ZM59.8,88.35a5.29,5.29,0,0,1-5.29,5.29H11.65a5.29,5.29,0,0,1-5.29-5.29V24.13a5.29,5.29,0,0,1,5.29-5.29H22.23v2.59a3.18,3.18,0,0,0,3.18,3.18H40.74a3.18,3.18,0,0,0,3.18-3.18V18.83H54.51a5.29,5.29,0,0,1,5.29,5.29Z"/><path class="cls-1" d="M37.42,53.19a12.1,12.1,0,1,0-8.67,0A16.41,16.41,0,0,0,14.43,69.44v2.81a3.18,3.18,0,0,0,3.18,3.18H48.54a3.18,3.18,0,0,0,3.18-3.18V69.44A16.41,16.41,0,0,0,37.42,53.19Zm-4.34-17a5.75,5.75,0,1,1-5.75,5.75A5.75,5.75,0,0,1,33.08,36.16ZM20.78,69.07a10.06,10.06,0,0,1,10-9.71h4.49a10.06,10.06,0,0,1,10,9.71Z"/><path class="cls-1" d="M48.54,81.78H17.61a3.18,3.18,0,0,0,0,6.35H48.54a3.18,3.18,0,0,0,0-6.35Z"/></g></g></svg>