<svg xmlns="http://www.w3.org/2000/svg" viewBox="0 0 114.63 33.39"><g style="fill:#fff"><path d="M58.17,11.28H54.28V8.63c4.14-.92,7-4.6,7.92-8.63h2.5V8.63H70v2.65H64.7v15c0,2.5.36,3.47,1.63,3.47a6.47,6.47,0,0,0,3.17-1.43l0.82,1.79c-2.09,1.84-4.65,3.32-7,3.32-3.57,0-5.16-2.09-5.16-5.36V11.28Z" /><path d="M111.52,15.52c-0.51-3.73-2-5.51-5-5.51-2.14,0-3.73,1.33-3.73,3.06,0,5.05,11.8,4,11.8,12.15,0,6.08-4.24,8.17-9.34,8.17a17.68,17.68,0,0,1-6.79-1.33V25.53h2.14c0,3.93,2.35,5.72,5.26,5.72,2.45,0,3.83-1.33,3.83-3.17,0-5.26-11.49-4-11.49-12.41,0-4.65,3.37-7.81,8.27-7.81A26.3,26.3,0,0,1,113.66,9v6.54h-2.14Z" /><path d="M43.56,27.36C42,28.59,40.9,29.3,39.63,29.3s-2.13-1-2.37-2.47a6.24,6.24,0,0,1-.08-1c0-1.84.41-3,3.27-4.29l3.12-1.33v7.15ZM51,29.3c-0.56,0-.87-0.56-0.87-2.14V14.09c0-4.14-2.4-6.23-7.25-6.23h0c-3.62,0-6.86,1-10.94,4.47l1.29,2.1c2-1.78,4.44-3.39,6.57-3.41h0.18c2.5,0,3.63,1.17,3.63,3.57v3.47L39.93,19.4c-8.27,3.11-9.29,5-9.29,8.22,0,0.14,0,.27,0,0.41,0.16,3.24,2.22,5.36,5.45,5.36,2.35,0,4.7-.92,7.61-3.93,0,2.86,1.68,3.93,3.32,3.93s3.88-1.28,6.54-3.27L52.8,28.38A3.58,3.58,0,0,1,51,29.3" /><path d="M13.89,30.41H10.82V17h2.83c4.35,0,6.84,2.64,6.84,6.61A8.75,8.75,0,0,1,19.92,27c-1,2.41-3.18,3.45-6,3.45M10.82,2.66h2.79c2.27,0,3.61.6,4.62,1.76a5.86,5.86,0,0,1,1.34,4,7.61,7.61,0,0,1-.25,2c-0.74,2.71-3.1,4.13-6.68,4.13H10.82V2.66Zm9.39,12.9V15.47c2.86-.72,4.55-1.9,5.51-3.33A7.21,7.21,0,0,0,26.82,8c0-4.9-3.7-7.77-10-7.77-2.59,0-6.66.18-10,.18C4.49,0.44,2.27.35,0,.26V2.2c3.19,0,3.38.74,3.38,2.87V28c0,2.13-.18,2.87-3.37,2.87v1.94c2.27-.09,4.49-0.19,6.75-0.19,3.14,0,6.94.19,10,.19,4.24,0,7.53-1.32,9.41-3.72a8.91,8.91,0,0,0,1.78-5.62c0-4.16-2.82-7.35-7.72-7.91" /><path d="M83.45,10c3.37,0,4.19,3,4.24,7.1H79.32c0-4.44,1.17-7.1,4.14-7.1M86.31,28.8c-4.34,0-6.84-3.93-7-9.34H94.23c0-7.2-3.73-11.59-10.42-11.59-5.82,0-11,4.29-11,13.17,0,8.07,4.8,12.36,10.62,12.36,4.14,0,7.1-1.43,11.85-6.38l-1.43-1.89c-2.4,2.6-4.75,3.68-7.51,3.68" /></g></svg>