<svg xmlns="http://www.w3.org/2000/svg" viewBox="0 0 79.35 67.92"><defs><style>.cls-1{fill:#fff;}</style></defs><title>Asset 1</title><g id="Layer_2" data-name="Layer 2"><g id="Layer_1-2" data-name="Layer 1"><path class="cls-1" d="M62.49,7.39l-1-.54A47.29,47.29,0,0,0,54,3.65,71.83,71.83,0,0,0,32,0H30.77C14.57.21,4.08,5.29,1.25,6.84l-1,.55L.2,8.53C0,12.54-.87,33.08,4,43.71,10.16,57.12,30.29,67.4,30.49,67.49l.89.43.88-.42c.2-.1,20.31-10.33,26.48-23.79,3.19-7,3.93-18.19,4-26.22V15c0-3-.13-5.33-.19-6.42ZM56.88,42.86c-5.83,12.7-25.21,22.64-25.5,22.79-.46-.23-19.72-10.17-25.51-22.79C1.19,32.66,2,12.56,2.24,8.64h0C5,7.14,15.07,2.25,30.78,2.05H32A69.71,69.71,0,0,1,53.39,5.59a46.33,46.33,0,0,1,7.12,3.05C60.72,12.57,61.55,32.66,56.88,42.86Z"/><path class="cls-1" d="M28.34,50.64c-.64,0-1.13.32-1.13.82h0c0,.45.42.82,1.13.82s1.14-.37,1.14-.82h0C29.48,51,29,50.64,28.34,50.64Z"/><polygon class="cls-1" points="34.61 51.03 34.61 48.89 32.83 51.03 34.61 51.03"/><path class="cls-1" d="M52.86,7.14A68.17,68.17,0,0,0,31.93,3.69H30.81c-14,.18-23.26,4.07-27,6-.21,4.73-.74,23.22,3.53,32.53,4.51,9.84,18.82,18.92,24,21.64,5.2-2.72,19.49-11.79,24-21.64,4.27-9.31,3.74-27.79,3.53-32.53A48.45,48.45,0,0,0,52.86,7.14ZM9,15V13.41H25.64V15l-4.07.57,4.27,13.33L22.13,40.8,14.05,15.69ZM24.23,53h-.94V48.54l-1,.27-.2-.77,1.45-.46h.67Zm6.18-1.52c0,1-.88,1.58-2.07,1.58s-2.06-.62-2.06-1.55v0a1.35,1.35,0,0,1,1-1.32,1.31,1.31,0,0,1-.8-1.21h0c0-.83.8-1.47,1.88-1.47s1.89.63,1.89,1.47h0a1.32,1.32,0,0,1-.79,1.21,1.39,1.39,0,0,1,1,1.3Zm5.89.31h-.78V53h-.91V51.82H31.88l-.18-.68,3-3.56h.81V51h.78ZM39.69,53h-.94V48.54l-1,.27-.2-.77L39,47.58h.66Zm13.89-38-5,.64L39.72,43H36.91L31.24,25,25.56,43H22.81l9.3-29.58h2.82l5.85,17.92,5-15.62L41,15.06V13.41H53.58Z"/><path class="cls-1" d="M28.34,49.88a.86.86,0,0,0,1-.8h0c0-.42-.38-.76-1-.76s-1,.34-1,.75h0A.86.86,0,0,0,28.34,49.88Z"/></g></g></svg>