<?xml version="1.0" encoding="utf-8"?>
<!-- Generator: Adobe Illustrator 21.1.0, SVG Export Plug-In . SVG Version: 6.00 Build 0)  -->
<svg version="1.1" id="Layer_1" xmlns="http://www.w3.org/2000/svg" xmlns:xlink="http://www.w3.org/1999/xlink" x="0px" y="0px"
	 viewBox="0 0 159.9 68.4" style="enable-background:new 0 0 159.9 68.4;" xml:space="preserve">
<style type="text/css">
	.st0{fill:#FFFFFF;}
</style>
<title>Artboard 1</title>
<g>
	<g>
		<path class="st0" d="M39.9,40.5V39l3.9-0.4l-3-7.6H29.7l-2.9,7.5l3.9,0.5v1.5h-9v-1.6l2.9-0.5l10.9-27.2h1.4l11,27.4l2.8,0.4v1.5
			H39.9z M35.2,16.7l-4.8,12.4h9.6L35.2,16.7z"/>
		<path class="st0" d="M51.3,40.5v-1.3l3.1-0.4V11.2l-3.1-0.5V9.5l6.5-0.9v30.2l3.1,0.4v1.3H51.3z"/>
		<path class="st0" d="M79,41v-4.6l-0.2,0c-1.2,2.9-3.6,4.8-6.8,4.8c-3.7,0-6-2.6-6-6.4V23.3l-3.1-0.5v-1.3h6.5v16.1
			c0.9,1.2,2,1.5,3.5,1.5c3.8,0,5.9-4.2,5.9-8.7v-7l-3.4-0.5v-1.3h6.8v16.8l3.1,0.5v1.2L79,41z"/>
		<path class="st0" d="M112.2,40.5v-1.3l3.4-0.4V24.2c-0.8-1-1.7-1.5-3.2-1.5c-3.3,0-5.7,4-5.7,8.7v7.4l3.4,0.4v1.3H99.8v-1.3
			l3.4-0.4V24.2c-0.8-1-1.7-1.5-3.2-1.5c-3.3,0-5.7,4-5.7,8.7v7.4l3.4,0.4v1.3h-9.9v-1.3l3.1-0.4V23.7l-3.1-0.5v-1.2l6.3-1v4.5
			l0.2,0c1.1-2.6,3.5-4.8,6.6-4.8c2.8,0,4.9,1.5,5.6,4.8h0.1c1.1-2.7,3.6-4.8,6.7-4.8c3.6,0,5.7,2.6,5.7,6.4v11.7l3.1,0.4v1.3H112.2
			z"/>
		<path class="st0" d="M137.1,40.5v-1.3l3.4-0.4V24.1c-1-1.1-2-1.4-3.5-1.4c-3.8,0-5.9,4.2-5.9,8.7v7.4l3.4,0.4v1.3h-9.9v-1.3
			l3.1-0.4V23.7l-3.1-0.5v-1.2l6.3-1v4.5l0.2,0c1.2-2.9,3.6-4.8,6.8-4.8c3.7,0,6,2.6,6,6.4v11.7l3.1,0.4v1.3H137.1z"/>
		<path class="st0" d="M149.6,40.5v-1.3l3.1-0.4V23.7l-3.1-0.5v-1.2l6.5-1.2v18.1l3.1,0.4v1.3H149.6z M154,16.3
			c-1.3,0-2.3-1-2.3-2.3c0-1.3,1-2.3,2.3-2.3s2.3,1,2.3,2.3C156.3,15.3,155.3,16.3,154,16.3z"/>
	</g>
	<g>
		<g>
			<path class="st0" d="M25.2,50.1h3.1c1.8,0,2.9,1.1,2.9,2.7v0c0,1.8-1.4,2.7-3.1,2.7h-1.3v2.3h-1.7V50.1z M28.2,54
				c0.8,0,1.3-0.5,1.3-1.2v0c0-0.8-0.5-1.2-1.4-1.2h-1.3V54H28.2z"/>
			<path class="st0" d="M35.5,50.1H37l3.3,7.7h-1.8l-0.7-1.7h-3.2l-0.7,1.7h-1.7L35.5,50.1z M37.3,54.6l-1-2.5l-1,2.5H37.3z"/>
			<path class="st0" d="M42.6,50.1h3.5c1,0,1.7,0.3,2.2,0.8c0.4,0.4,0.7,1,0.7,1.8v0c0,1.2-0.7,2-1.6,2.4l1.9,2.7h-2l-1.6-2.5h-1.3
				v2.5h-1.7V50.1z M46,53.8c0.8,0,1.3-0.4,1.3-1.1v0c0-0.7-0.5-1.1-1.3-1.1h-1.7v2.2H46z"/>
			<path class="st0" d="M51.6,50.1h5.8v1.5h-4.1v1.6h3.6v1.5h-3.6v1.6h4.2v1.5h-5.8V50.1z"/>
			<path class="st0" d="M60.1,50.1h1.6l3.6,4.7v-4.7h1.7v7.7h-1.4l-3.7-4.9v4.9h-1.7V50.1z"/>
			<path class="st0" d="M71.6,51.7h-2.3v-1.6h6.4v1.6h-2.3v6.1h-1.7V51.7z"/>
			<path class="st0" d="M77.4,56.7l1-1.2c0.7,0.6,1.4,0.9,2.3,0.9c0.7,0,1.1-0.3,1.1-0.7v0c0-0.4-0.3-0.6-1.5-1
				c-1.5-0.4-2.5-0.8-2.5-2.3v0c0-1.4,1.1-2.3,2.7-2.3c1.1,0,2.1,0.3,2.8,1l-0.9,1.3c-0.7-0.5-1.3-0.8-2-0.8s-1,0.3-1,0.7v0
				c0,0.5,0.3,0.7,1.7,1c1.6,0.4,2.4,1,2.4,2.3v0c0,1.5-1.2,2.4-2.8,2.4C79.5,57.9,78.3,57.5,77.4,56.7z"/>
			<path class="st0" d="M94.7,57c-0.6,0.5-1.4,0.9-2.2,0.9c-1.5,0-2.6-0.9-2.6-2.2v0c0-1,0.5-1.7,1.5-2.1c-0.4-0.5-0.5-1-0.5-1.5v0
				c0-1.1,0.8-2,2.3-2c1.3,0,2.2,0.9,2.2,1.9v0c0,1-0.7,1.6-1.6,2l1,1c0.3-0.4,0.5-0.8,0.7-1.3l1.2,0.7c-0.3,0.5-0.6,1.1-1,1.6
				l1.1,1.1l-1.2,0.9L94.7,57z M93.7,56.1l-1.5-1.5c-0.5,0.3-0.7,0.6-0.7,1v0c0,0.5,0.4,0.9,1.1,0.9C93,56.5,93.4,56.3,93.7,56.1z
				 M93.8,52L93.8,52c0-0.5-0.3-0.7-0.7-0.7c-0.4,0-0.7,0.3-0.7,0.8v0c0,0.3,0.1,0.6,0.4,1C93.5,52.8,93.8,52.5,93.8,52z"/>
			<path class="st0" d="M103.5,50.1h5.8v1.5h-4.2v1.6h3.7v1.5h-3.7v3h-1.7V50.1z"/>
			<path class="st0" d="M111.8,50.1h3.5c1,0,1.7,0.3,2.2,0.8c0.4,0.4,0.7,1,0.7,1.8v0c0,1.2-0.7,2-1.6,2.4l1.9,2.7h-2l-1.6-2.5h-1.3
				v2.5h-1.7V50.1z M115.2,53.8c0.8,0,1.3-0.4,1.3-1.1v0c0-0.7-0.5-1.1-1.3-1.1h-1.7v2.2H115.2z"/>
			<path class="st0" d="M120.9,50.1h1.7v7.7h-1.7V50.1z"/>
			<path class="st0" d="M125.6,50.1h5.8v1.5h-4.1v1.6h3.6v1.5h-3.6v1.6h4.2v1.5h-5.8V50.1z"/>
			<path class="st0" d="M134.1,50.1h1.6l3.6,4.7v-4.7h1.7v7.7h-1.4l-3.7-4.9v4.9h-1.7V50.1z"/>
			<path class="st0" d="M143.8,50.1h3c2.4,0,4.1,1.7,4.1,3.8v0c0,2.2-1.7,3.8-4.1,3.8h-3V50.1z M146.8,56.3c1.4,0,2.3-0.9,2.3-2.3v0
				c0-1.4-0.9-2.3-2.3-2.3h-1.3v4.6H146.8z"/>
			<path class="st0" d="M152.9,56.7l1-1.2c0.7,0.6,1.4,0.9,2.3,0.9c0.7,0,1.1-0.3,1.1-0.7v0c0-0.4-0.3-0.6-1.5-1
				c-1.5-0.4-2.5-0.8-2.5-2.3v0c0-1.4,1.1-2.3,2.7-2.3c1.1,0,2.1,0.3,2.9,1l-0.9,1.3c-0.7-0.5-1.3-0.8-2-0.8c-0.6,0-1,0.3-1,0.7v0
				c0,0.5,0.3,0.7,1.7,1c1.6,0.4,2.4,1,2.4,2.3v0c0,1.5-1.2,2.4-2.8,2.4C155,57.9,153.8,57.5,152.9,56.7z"/>
		</g>
	</g>
</g>
</svg>
