<svg xmlns="http://www.w3.org/2000/svg" viewBox="0 0 47.54 51.46"><defs><style>.cls-1{fill:#02304a;}</style></defs><title>Asset 1</title><g id="Layer_2" data-name="Layer 2"><g id="Layer_1-2" data-name="Layer 1"><path class="cls-1" d="M47.53,11.32v1.92Q47.55,12.24,47.53,11.32Z"/><path class="cls-1" d="M47.34,5.6l-.75-.42A36.13,36.13,0,0,0,41,2.76,54.33,54.33,0,0,0,24.22,0h-.91C11,.15,3.09,4,1,5.18L.2,5.59l-.05.86C0,9.49-.66,25.05,3,33.11c4.66,10.16,19.91,18,20.06,18l.67.33.67-.33c.15-.07,15.39-7.82,20.06-18,2.42-5.28,3-13.78,3-19.87V11.32c0-2.28-.09-4-.14-4.87ZM43.09,32.47C38.68,42.09,24,49.62,23.77,49.73,23.42,49.56,8.83,42,4.45,32.47.9,24.74,1.53,9.51,1.7,6.54h0c2.06-1.13,9.71-4.84,21.62-5h.89A52.94,52.94,0,0,1,40.45,4.23a33.55,33.55,0,0,1,5.39,2.31C46,9.51,46.64,24.74,43.09,32.47Z"/><path class="cls-1" d="M21.47,38.36c-.48,0-.86.25-.86.62h0c0,.34.33.62.86.62s.87-.28.87-.62h0C22.34,38.61,22,38.36,21.47,38.36Z"/><polygon class="cls-1" points="26.22 38.66 26.22 37.04 24.87 38.66 26.22 38.66"/><path class="cls-1" d="M40.05,5.4A51.78,51.78,0,0,0,24.19,2.79h-.85C12.77,2.92,5.72,5.87,2.9,7.31,2.74,10.89,2.34,24.9,5.57,32,9,39.4,19.83,46.29,23.77,48.34,27.71,46.29,38.54,39.41,42,32c3.24-7,2.84-21.06,2.68-24.64A36.51,36.51,0,0,0,40.05,5.4Zm-33.26,6V10.16H19.43v1.23l-3.09.43,3.24,10.1-2.81,9-6.12-19ZM18.36,40.17h-.72v-3.4l-.73.21-.16-.59,1.1-.35h.51ZM23,39c0,.74-.67,1.19-1.57,1.19s-1.56-.47-1.56-1.17h0a1,1,0,0,1,.74-1,1,1,0,0,1-.6-.92h0c0-.63.6-1.11,1.42-1.11s1.43.48,1.43,1.11h0a1,1,0,0,1-.6.92A1,1,0,0,1,23,39Zm4.46.23h-.59v.92h-.69v-.92H24.15L24,38.74,26.3,36h.61v2.62h.59Zm2.57.92h-.71v-3.4l-.74.21-.15-.59,1.1-.35h.5ZM40.59,11.41l-3.78.48L30.09,32.55H28L23.67,19,19.36,32.55H17.28l7-22.41h2.13L30.9,23.72l3.75-11.83L31,11.41V10.16h9.56Z"/><path class="cls-1" d="M21.47,37.78c.43,0,.74-.25.74-.6h0c0-.32-.29-.57-.74-.57s-.73.25-.73.56h0A.65.65,0,0,0,21.47,37.78Z"/></g></g></svg>