<svg id="Layer_1" data-name="Layer 1" xmlns="http://www.w3.org/2000/svg" viewBox="0 0 22 22">
  <defs>
    <style>
      .search__svg {
        fill: #fff;
      }
    </style>
  </defs>
  <title>search</title>
  <path class="search__svg" d="M20.73,18.3a.94.94,0,0,1,0,1.33l-1.09,1.09a.94.94,0,0,1-1.33,0L14.4,16.82a.9.9,0,0,1-.27-.66v-.62a7.87,7.87,0,0,1-5,1.72A7.89,7.89,0,0,1,5,16.16a8.21,8.21,0,0,1-2.95-2.95A7.89,7.89,0,0,1,1,9.13,7.89,7.89,0,0,1,2.09,5,8.21,8.21,0,0,1,5,2.09,7.89,7.89,0,0,1,9.13,1a7.89,7.89,0,0,1,4.08,1.09A8.21,8.21,0,0,1,16.16,5a7.89,7.89,0,0,1,1.09,4.08,7.87,7.87,0,0,1-1.72,5h.63a.9.9,0,0,1,.66.27ZM9.13,14.13a5,5,0,0,0,2.52-.66,4.86,4.86,0,0,0,1.82-1.82,5.11,5.11,0,0,0,0-5,4.86,4.86,0,0,0-1.82-1.82,5.11,5.11,0,0,0-5,0A4.86,4.86,0,0,0,4.79,6.61a5.11,5.11,0,0,0,0,5,4.86,4.86,0,0,0,1.82,1.82A5,5,0,0,0,9.13,14.13Z"/>
</svg>
