<?xml version="1.0" encoding="utf-8"?>
<svg version="1.1" id="Layer_6" xmlns="http://www.w3.org/2000/svg" xmlns:xlink="http://www.w3.org/1999/xlink" x="0px" y="0px"
	 viewBox="0 0 385.9 63.6" style="enable-background:new 0 0 385.9 63.6;" xml:space="preserve">
<title>logo-sprite</title>
<g>
	<path style="fill:#5A595A;" d="M59.5,27.7V20h-5.6v7.7h-4.6V8.9h4.6V16h5.6V8.9H64v18.8C64,27.7,59.5,27.7,59.5,27.7z"/>
	<path style="fill:#5A595A;" d="M79,27.7l-0.7-2.9h-5.4l-0.7,2.9h-4.9l5.6-18.8h5.5l5.5,18.8H79z M75.6,13.6l-1.8,7.2h3.7L75.6,13.6
		z"/>
	<path style="fill:#5A595A;" d="M95.3,27.7l-2.5-6.5h-1.7v6.5h-4.6V8.9h7.7c3.2-0.1,6,2.3,6.1,5.6c0,0.2,0,0.4,0,0.5
		c0,3.2-1.7,4.8-3.1,5.5l3.3,7.3L95.3,27.7L95.3,27.7z M95.6,15c0.1-1.1-0.7-2.1-1.8-2.2c-0.1,0-0.2,0-0.3,0h-2.4v4.4h2.4
		c1.1,0.1,2.1-0.8,2.1-1.9C95.6,15.2,95.6,15.1,95.6,15z"/>
	<path style="fill:#5A595A;" d="M107.7,27.7l-5.6-18.8h4.9l3.4,13.5l3.4-13.5h4.9l-5.6,18.8H107.7L107.7,27.7z"/>
	<path style="fill:#5A595A;" d="M129.8,27.7l-0.7-2.9h-5.4l-0.7,2.9h-4.9l5.6-18.8h5.5l5.6,18.8H129.8L129.8,27.7z M126.4,13.6
		l-1.8,7.2h3.6L126.4,13.6z"/>
	<path style="fill:#5A595A;" d="M146.1,27.7l-2.5-6.5h-1.7v6.5h-4.6V8.9h7.7c3.2-0.1,6,2.3,6.1,5.6c0,0.2,0,0.4,0,0.5
		c0,3.2-1.7,4.8-3.1,5.5l3.2,7.3L146.1,27.7L146.1,27.7z M146.4,15c0.1-1.1-0.7-2.1-1.8-2.2c-0.1,0-0.2,0-0.3,0h-2.4v4.4h2.4
		c1.1,0.1,2.1-0.8,2.1-1.9C146.4,15.2,146.4,15.1,146.4,15z"/>
	<path style="fill:#5A595A;" d="M154.8,27.7V8.9h6.6c5.4,0,8.6,3.9,8.6,9.4s-3.1,9.4-8.6,9.4L154.8,27.7L154.8,27.7z M165.3,18.3
		c0-3.5-1.4-5.4-3.9-5.4h-2.1v10.9h2.1C163.9,23.7,165.3,21.6,165.3,18.3z"/>
	<path style="fill:#5A595A;" d="M52.4,54.8V39.9h-4v-4h12.7v4H57v14.8L52.4,54.8L52.4,54.8z"/>
	<path style="fill:#5A595A;" d="M76.8,54.8v-7.7h-5.6v7.7h-4.6V35.9h4.6V43h5.6v-7.1h4.6v18.8L76.8,54.8L76.8,54.8z"/>
	<path style="fill:#5A595A;" d="M94.8,45.3c0-5.8,3.2-9.7,8.4-9.7c4,0,5.7,2.6,6.7,4.9l-3.8,1.6c-0.3-1.4-1.5-2.4-2.9-2.5
		c-2.3,0-3.7,2.3-3.7,5.7s1.4,5.7,3.7,5.7c1.5-0.1,2.7-1.2,2.9-2.7l3.8,1.7c-0.9,2.3-2.7,5.1-6.7,5.1C98.1,55.1,94.8,51.1,94.8,45.3
		z"/>
	<path style="fill:#5A595A;" d="M124.6,54.8v-7.7H119v7.7h-4.6V35.9h4.6V43h5.6v-7.1h4.6v18.8L124.6,54.8L124.6,54.8z"/>
	<path style="fill:#5A595A;" d="M145.5,54.8l-0.7-2.9h-5.4l-0.7,2.9h-4.9l5.6-18.8h5.5l5.6,18.8H145.5L145.5,54.8z M142.1,40.7
		l-1.8,7.2h3.6L142.1,40.7z"/>
	<path style="fill:#5A595A;" d="M164.1,54.8l-5.8-10v10h-4.6V35.9h4.7l5.5,9.6v-9.6h4.5v18.8L164.1,54.8L164.1,54.8z"/>
	<rect x="2.1" y="9.7" style="fill:#FFFFFF;" width="37.2" height="11.4"/>
	<path style="fill:#FFFFFF;" d="M39.2,22H2.1c0.3,13.1,6.8,24.4,18.6,32C32.4,46.4,39,35.1,39.2,22z"/>
	<path style="fill:#FFFFFF;" d="M0,7.5v13.7v1.7C0.6,36.4,7.6,48,19.8,55.8l0.9,0.6l0.9-0.6c12.6-8,19.6-20.1,19.8-34.1V7.5H0z
		 M40.1,21.7c-0.2,13.6-7,25.3-19.2,33.1L20.7,55l-0.2-0.2C8.2,47,1.4,35.3,1.2,21.8V8.9h38.9V21.7z"/>
	<path style="fill:#A61D31;" d="M39.3,9.7H2.1v11.4h37.2V9.7z M13.4,17.7c-0.1,0-0.2,0-0.4,0c-0.1,0-0.1,0.1-0.1,0.2
		c0,0.3,0,0.7,0,1C12.7,19,12.4,19,12.1,19H9.7c-0.2-0.1-0.4,0-0.6,0.1c0,0.1-0.1,0.1-0.2,0.1c-0.2,0.1-0.5,0.1-0.7,0
		c-0.1,0-0.2-0.1-0.3-0.2c-0.2,0-0.3,0-0.5,0H5.2c-0.4,0.1-0.8,0-1.1-0.1c0-0.3,0-0.7,0-1c0-0.1-0.1-0.2-0.2-0.2l0,0
		c-0.5,0-0.7,0-0.8-0.4c-0.2-0.6,0.2-0.8,0.8-0.7c0,0,0,0,0.1,0c0.2-0.5,0.2-1.1,0.1-1.6c0-0.4,0-0.9,0-1.2c-0.6,0-1.1,0-1-0.7
		c0.1-0.4,0.3-0.5,0.9-0.4c0.4-0.2-0.1-1.1,0.3-1.3c0.2,0,0.4,0,0.6,0h0.2c0.2,0,0.3,0,0.5,0c0.1-0.1,0.1-0.1,0.2-0.1
		c0.2,0,0.4,0.1,0.6,0.1c0.5,0,1,0,1.6,0c0.2,0.1,0.4,0.2,0.6,0.4c0.1-0.1,0.2-0.2,0.3-0.2c0.3-0.1,0.6-0.2,0.9-0.2
		c0.4,0,0.8,0,1.2,0c0.3-0.1,0.5-0.2,0.6,0c0.4-0.1,0.9,0,1.3,0.1c0.1,0.3,0.1,0.7,0.1,1v0.1c0,0.1,0.1,0.1,0.1,0.1s0.2,0,0.4,0
		c0.3,0,0.6,0.3,0.5,0.6v0.1c-0.1,0.4-0.5,0.3-1,0.4c0,0.2,0,0.4,0,0.6v2c0.1,0.4,0.4,0.1,0.8,0.3S14.1,17.7,13.4,17.7z M24.8,17.7
		c-0.1,0-0.2,0-0.4,0c-0.1,0-0.2,0.1-0.1,0.2c0,0.3,0,0.7,0,1C23.9,19,23.6,19,23.4,19h-2.2c-0.2-0.1-0.4,0-0.6,0.1
		c0,0.1-0.1,0.1-0.1,0.1c-0.2,0.1-0.5,0.1-0.7,0c-0.1-0.1-0.2-0.1-0.2-0.2c-0.1,0-0.3,0-0.4,0h-2.3c-0.4,0.1-0.8,0-1.2-0.1
		c0-0.3,0-0.7,0-1c0-0.1-0.1-0.2-0.2-0.2l0,0c-0.5,0-0.7,0-0.8-0.4c-0.1-0.6,0.2-0.8,0.8-0.7c0,0,0,0,0.1,0c0.2-0.5,0.2-1.1,0.1-1.6
		c0-0.4,0-0.9,0-1.2c-0.6,0-1.1,0-1-0.7c0.1-0.4,0.3-0.5,0.9-0.4c0.4-0.2-0.1-1.1,0.3-1.3c0.2,0,0.4,0,0.6,0h0.2c0.2,0,0.3,0,0.5,0
		c0.1-0.1,0.1-0.1,0.2-0.1c0.2,0,0.4,0.1,0.6,0.1c0.5,0,1.1,0,1.6,0c0.2,0.1,0.4,0.2,0.6,0.4c0.1-0.1,0.2-0.2,0.3-0.2
		c0.3-0.1,0.6-0.2,0.9-0.2c0.4,0,0.7,0,1.1,0c0.3-0.1,0.5-0.2,0.6,0c0.4-0.1,0.9,0,1.3,0.1c0.1,0.3,0.1,0.7,0.1,1v0.1
		c0,0.1,0,0.1,0.1,0.1s0.2,0,0.3,0c0.3,0,0.6,0.3,0.5,0.6v0.1c-0.1,0.4-0.5,0.3-1,0.4c0,0.2,0,0.4,0,0.6v2c0.1,0.4,0.4,0.1,0.8,0.3
		S25.4,17.7,24.8,17.7L24.8,17.7z M37.6,17.7c-0.1,0-0.2,0-0.4,0c-0.1,0-0.1,0.1-0.1,0.2c0,0.3,0,0.7,0,1C36.8,19,36.5,19,36.2,19
		H33c-0.2,0-0.4,0-0.6,0.1c0,0.1-0.1,0.1-0.2,0.1c-0.2,0.1-0.5,0.1-0.7,0c-0.1-0.1-0.2-0.1-0.2-0.2c-0.1,0-0.3,0-0.4,0h-2.8
		c-0.4,0.1-0.8,0-1.2-0.1c0-0.3,0-0.7,0-1c0-0.1-0.1-0.2-0.2-0.2l0,0c-0.5,0-0.7,0-0.8-0.4c-0.1-0.6,0.2-0.8,0.8-0.7c0,0,0,0,0.1,0
		c0.2-0.5,0.3-1.1,0.2-1.6c0-0.4,0-0.9,0-1.2c-0.6,0-1.1,0-1-0.7c0.1-0.4,0.3-0.5,0.9-0.4c0.4-0.2-0.1-1.1,0.3-1.3
		c0.2,0,0.4,0,0.6,0H28c0.2,0,0.3,0,0.5,0c0.1-0.1,0.1-0.1,0.2-0.1c0.2,0,0.4,0.1,0.6,0.1c0.5,0,1.6-0.1,2.1,0
		c0.2,0.1,0.4,0.2,0.6,0.4c0.1-0.1,0.2-0.2,0.3-0.2c0.3-0.1,0.6-0.2,0.9-0.2c0.4,0,1.6,0.1,2.1,0c0.3-0.1,0.5-0.2,0.6,0
		c0.4-0.1,0.9,0,1.3,0.1c0.1,0.3,0.1,0.7,0.1,1v0.1c0,0.1,0,0.1,0.1,0.1s0.2,0,0.3,0c0.3,0,0.6,0.3,0.5,0.6v0.1
		c-0.1,0.4-0.5,0.3-1,0.4c0,0.2,0,0.4,0,0.6v2c0.1,0.4,0.4,0.1,0.8,0.3S38.3,17.7,37.6,17.7L37.6,17.7z"/>
	<path style="fill:#5A595A;" d="M1.2,8.9v12.9c0.2,13.6,7,25.3,19.2,33.1l0.2,0.2l0.2-0.2C33.1,47,39.9,35.3,40.1,21.7V8.9H1.2z
		 M20.7,53.9C8.9,46.4,2.4,35.1,2.1,22h37.1C39,35.1,32.4,46.4,20.7,53.9z M39.3,21.1H2.1V9.7h37.2V21.1L39.3,21.1z M3.8,16.6
		c-0.6-0.1-0.9,0.1-0.8,0.7c0.1,0.4,0.3,0.4,0.8,0.4c0.1,0,0.2,0.1,0.2,0.2l0,0c0,0.3,0,0.7,0,1C4.4,19,4.8,19.1,5.2,19h2.2
		c0.1,0,0.3,0,0.4,0C7.9,19.1,8,19.1,8,19.2c0.2,0.1,0.5,0.1,0.7,0c0.2,0,0.2-0.1,0.2-0.1C9.2,19,9.4,18.9,9.6,19H12
		c0.3,0.1,0.6,0.1,0.8,0c0-0.3,0-0.7,0-1c0-0.1,0-0.2,0.1-0.2s0.2,0,0.4,0c0.7,0,0.7-0.6,0.3-1s-0.7,0.1-0.8-0.3v-2
		c0-0.2,0-0.4,0-0.6c0.5,0,0.8,0,1-0.4c0.1-0.3-0.1-0.6-0.4-0.7h-0.1c-0.1,0-0.1,0-0.4,0s-0.1,0-0.1-0.1v-0.1c0-0.3,0-0.7-0.1-1
		c-0.4-0.1-0.9-0.2-1.3-0.1c-0.1-0.2-0.4-0.1-0.6,0c-0.4,0-0.8,0-1.2,0c-0.3,0-0.6,0.1-0.9,0.2c-0.1,0-0.2,0.1-0.3,0.2
		c-0.2-0.1-0.4-0.3-0.6-0.4c-0.5,0-1,0-1.6,0c-0.2-0.1-0.4-0.1-0.6-0.1c-0.1,0-0.2,0.1-0.2,0.1c-0.2,0-0.3,0-0.5,0H4.7
		c-0.2,0-0.4,0-0.6,0c-0.4,0.2,0.1,1-0.3,1.3c-0.5,0-0.8,0-0.9,0.4c-0.1,0.7,0.4,0.7,1,0.7c0,0.4,0,0.8,0,1.2
		C4.1,15.6,4,16.2,3.8,16.6L3.8,16.6z M7.9,18.1L7.9,18.1c-1-0.1-1.7,0.1-2.6,0c-0.2-0.3,0.3-0.6,0.5-0.6c0.6,0.1,1.3,0.1,1.9,0.1
		c0.2,0,0.3,0.1,0.4,0.2C8.2,18,8,18,7.9,18.1z M11.9,11.8c0.2-0.2,0.5-0.2,0.7-0.1c0,0,0,0,0.1,0.1c0.2,0.2-0.1,0.9,0.2,1.1
		c0.1,0,0.2,0,0.3,0h0.2c0.1,0,0.2,0,0.3,0.1s0.2,0.3,0,0.5c-0.1,0.1-0.1,0.1-0.2,0.1c-0.2,0-0.3,0-0.4,0c-0.3,0.1-0.3,0.4-0.3,0.8
		s-0.1,1.6,0,2.2c0,0.4,0.4,0.1,0.8,0.2c0.1,0,0.2,0.1,0.2,0.3c0.1,0.7-0.9,0.2-1,0.6s0.1,0.6,0,1c0,0.2-0.2,0.3-0.4,0.2h-1.3
		c-0.3,0-0.3,0-0.6,0s-0.7,0-1.2,0c-0.2-0.1-0.1-0.2-0.1-0.3c0-0.1,0.1-0.2,0.1-0.2c0.4,0,0.7,0,1.1,0c0.3,0,0.5,0,0.8,0
		c0.3,0.1,0.6,0,0.9-0.1c0-1,0-1.6,0-2.7v-2.3c0-0.3,0-0.5,0-0.8C12.1,12.1,12,12,11.9,11.8C11.9,11.8,11.9,11.7,11.9,11.8
		L11.9,11.8z M11.5,12c0-0.1,0-0.1,0.1-0.1s0.2,0.1,0.2,0.1c0.1,0.1,0.2,0.2,0.2,0.3c0.1,0.4,0,1,0,1.4c0,0.1,0,0.2,0,0.4
		c0,0.1,0,0.2,0,0.3c0.1,1,0,3.2,0,3.3s0,0.2-0.1,0.1c-0.2-0.2-0.3-0.4-0.4-0.7C11.5,14.9,11.5,14.1,11.5,12z M11.6,17.8
		c0.1,0.1,0.1,0.1,0.1,0.2c0,0.2-0.5,0.1-0.7,0.1c-0.8,0-1.1,0-2,0c-0.1-0.1-0.1-0.3,0-0.4c0.2-0.3,1.6,0,2.2-0.2
		C11.4,17.6,11.5,17.7,11.6,17.8L11.6,17.8z M8.6,14.8c0-0.6,0-1.2,0-1.8c0-0.2,0-0.5,0-0.8c0-0.1,0-0.3,0.1-0.4
		c0.2-0.1,0.4-0.2,0.6-0.3c0.5-0.1,1,0,1.5,0c0.1,0,0.2,0,0.3,0s0.2,0.1,0.3,0.3c0,1.6,0,3.6,0,4.9c0,0.2,0,0.4,0,0.6
		c-0.2,0.1-0.5,0.2-0.8,0.2s-0.5,0-0.8,0c-0.2,0-0.4,0-0.6,0c-0.1,0-0.2,0.1-0.3,0.1c-0.1,0.1-0.2,0.1-0.3,0.1c0-0.2,0-0.5,0-0.7
		C8.6,16.2,8.6,15.3,8.6,14.8L8.6,14.8z M8.9,18.3c0,0.1,0.1,0.2,0.1,0.3c-0.1,0.1-0.1,0.2-0.2,0.4c0,0.1-0.1,0.1-0.2,0.1
		c-0.1,0-0.2,0-0.3,0S8.2,19,8.1,19c-0.1,0-0.2-0.1-0.2-0.2s0-0.1,0-0.2c0-0.2,0.1-0.4,0.3-0.5l0,0C8.4,18,8.7,18,8.9,18.3L8.9,18.3
		L8.9,18.3z M5.6,16.7c0-1.4,0-2.9,0-4.4c0-0.2,0-0.4,0.1-0.6c0,0,0-0.1,0,0c0.1-0.1,0.2-0.2,0.3-0.2c0.1,0,0.2,0,0.3,0h0.4
		c0.1,0,0.3,0.1,0.4,0.1s0.2-0.1,0.3-0.1c0.4-0.1,0.8,0.1,1,0.4c0,1.4,0,2.8,0,4c0,0.5,0,1.1-0.1,1.6c-0.2,0-0.4-0.1-0.6-0.2
		c-0.5-0.1-1.1,0.1-1.6,0c-0.2,0-0.3-0.1-0.4-0.2C5.6,17.1,5.6,16.9,5.6,16.7z M5.2,11.9c0.1,0,0.2,0,0.2,0.1l0,0v3.9
		c0.1,0.6,0,1.1-0.1,1.7c-0.1,0.2-0.2,0.3-0.4,0.3c-0.1-1.3,0-2.5,0-3.4c0-0.2,0-0.3,0-0.5c0-0.1,0-0.2,0-0.2v-0.2
		c0-0.2,0-0.4,0-0.6C4.8,12.5,4.9,12.1,5.2,11.9z M4.2,16.5c0-0.2,0-0.4,0-0.6v-0.7c0-0.5,0-1.1-0.1-1.6c-0.3-0.2-0.7,0.1-0.9-0.2
		c-0.1-0.2,0-0.4,0.2-0.5h0.1c0.4-0.1,0.6,0.1,0.7-0.2c0-0.3,0-0.6,0-0.8c0-0.1,0.1-0.2,0.2-0.3c0.2-0.1,0.4,0,0.6,0.1
		c0,0.1-0.1,0.1-0.1,0.2c0,0.1-0.1,0.1-0.1,0.2c-0.1,0.4-0.1,0.9,0,1.3c0,0.9,0,1.5,0,2.2v0.3c0,0.1,0,0.3,0,0.4s0,0.1,0,0.2
		s0,0.2,0,0.4s0,0.1,0,0.2c0,0.3-0.2,1.1,0.1,1.2c0.3,0,0.5,0,0.8,0c0.7,0,1.2,0,1.8,0c0.1,0,0.2,0.1,0.3,0.2s0,0.3-0.1,0.3l0,0
		c-1.2,0-2,0-3.2,0c-0.2-0.1-0.2-0.3-0.2-0.5c0-0.3,0.2-0.7-0.1-0.9c-0.2,0-0.4,0-0.6,0c-0.2,0-0.3-0.2-0.3-0.3
		c0-0.1,0.1-0.3,0.2-0.4c0.1,0,0.2-0.1,0.3-0.1C3.9,16.7,4.2,16.9,4.2,16.5L4.2,16.5z M5.9,13.5L5.9,13.5v-0.2h1v0.2l0,0
		c-0.2,0-0.2,0.1-0.2,0.2c0,0.1,0,0.2,0.1,0.2l0.4,1.4l0.4-1.5v-0.1c0-0.1-0.1-0.2-0.2-0.2l0,0v-0.2h0.8v0.2l0,0
		c-0.1,0-0.2,0.1-0.2,0.2c0,0.1-0.1,0.2-0.1,0.4l-0.7,2.2H6.9l-0.7-2.4C6.1,13.6,6.1,13.6,5.9,13.5L5.9,13.5z M29,14.1h-0.2l0.1-0.9
		H29c0,0.1,0.1,0.1,0.1,0.1h1.5c0,0,0.1,0,0.1-0.1h0.2l0.1,0.9h-0.2c-0.1-0.5-0.1-0.5-0.3-0.5h-0.3v2c0,0.3,0,0.4,0.2,0.4l0,0v0.2
		h-1.1V16h0.1c0.2,0,0.3-0.1,0.3-0.4v-2h-0.3C29.1,13.6,29,13.6,29,14.1L29,14.1L29,14.1z M10.8,16.2H9V16h0.1c0.2,0,0.2,0,0.2-0.4
		v-1.7c0-0.3-0.1-0.4-0.2-0.4l0,0v-0.2h1.7V14h-0.2l0,0c0-0.4-0.1-0.4-0.2-0.4H9.8v1h0.4c0.2,0,0.2,0,0.2-0.3l0,0h0.1v1h-0.2v-0.1
		c0-0.2-0.1-0.3-0.2-0.3H9.8v0.6c0,0.1,0,0.2,0,0.4l0,0h0.5c0.2,0,0.3-0.1,0.4-0.4l0,0h0.1V16.2z M34.6,15.6c0-0.2-0.1-0.4-0.3-0.6
		l-0.2-0.1c-0.1-0.1-0.2-0.2-0.3-0.3c-0.1-0.2-0.2-0.4-0.1-0.6c0-0.4,0.2-0.7,0.6-0.8l0,0c0.2,0,0.3,0,0.4,0.1l0,0l0,0h0.1l0.1,0.8
		h-0.1c0-0.3-0.2-0.5-0.5-0.6c-0.2,0-0.3,0.1-0.3,0.3l0,0c0,0.2,0.1,0.4,0.3,0.4l0.1,0.1l0.1,0.1l0.2,0.2c0.2,0.2,0.4,0.5,0.4,0.8
		c0.1,0.4-0.3,0.8-0.7,0.9l0,0c-0.1,0-0.3,0-0.4-0.1l0,0l0,0c0,0,0,0,0,0.1h-0.2l0,0l-0.1-0.9h0.2c0,0.3,0.2,0.6,0.5,0.7
		C34.5,16.1,34.6,15.9,34.6,15.6C34.6,15.7,34.6,15.6,34.6,15.6z M26.6,16.6c-0.6-0.1-0.9,0.1-0.8,0.7c0.1,0.4,0.3,0.4,0.8,0.4
		c0.1,0,0.2,0.1,0.2,0.2l0,0c0,0.3,0,0.7,0,1c0.4,0.2,0.8,0.2,1.2,0.1h2.7c0.1,0,0.3,0,0.4,0c0.1,0.1,0.2,0.1,0.2,0.2
		c0.2,0.1,0.5,0.1,0.7,0c0.1,0,0.1-0.1,0.2-0.1c0.2-0.1,0.4-0.1,0.6-0.1H36c0.3,0.1,0.6,0.1,0.8,0c0-0.3,0-0.7,0-1
		c0-0.1,0-0.2,0.1-0.2s0.2,0,0.4,0c0.7,0,0.7-0.6,0.3-1s-0.7,0.1-0.8-0.3v-2c0-0.2,0-0.4,0-0.6c0.5,0,0.8,0,1-0.4
		c0.1-0.3-0.1-0.6-0.4-0.7h-0.1c-0.2,0-0.1,0-0.3,0s-0.1,0-0.1-0.1v-0.1c0-0.3,0-0.7-0.1-1c-0.4-0.1-0.9-0.2-1.3-0.1
		c-0.2-0.2-0.3-0.1-0.6,0c-0.5,0.1-1.7,0-2.1,0c-0.3,0-0.6,0.1-0.9,0.2c-0.1,0-0.2,0.1-0.3,0.2c-0.2-0.2-0.4-0.3-0.6-0.4
		c-0.5-0.1-1.5,0-2.1,0c-0.2-0.1-0.4-0.2-0.6-0.3c-0.1,0-0.2,0.1-0.2,0.1c-0.2,0-0.3,0-0.5,0h-0.2c-0.2,0-0.4,0-0.6,0
		c-0.4,0.2,0.1,1-0.3,1.3c-0.5,0-0.8,0-0.9,0.4c-0.1,0.7,0.4,0.7,1,0.7c0,0.4,0,0.8,0,1.2C26.9,15.5,26.9,16.1,26.6,16.6
		C26.7,16.6,26.7,16.6,26.6,16.6L26.6,16.6z M31.2,18.2h-0.1c-0.9-0.1-2.1,0.1-3,0c-0.2-0.3,0.3-0.6,0.5-0.6
		c0.8,0.1,1.6,0.1,2.4,0.1c0.2,0,0.3,0.1,0.5,0.2C31.5,18,31.3,18,31.2,18.2L31.2,18.2z M32.1,19c0,0.1-0.1,0.1-0.2,0.1
		c-0.1,0-0.2,0-0.3,0c-0.1,0-0.2,0-0.2-0.1c-0.1-0.1-0.1-0.1-0.2-0.2c0-0.1,0-0.1,0-0.2c0-0.2,0.1-0.4,0.3-0.5l0,0
		c0.2-0.1,0.5-0.1,0.6,0.1c0,0,0,0.1,0.1,0.1c0,0.1,0.1,0.2,0.1,0.3C32.2,18.8,32.2,18.9,32.1,19z M36.1,11.8
		c0.2-0.2,0.5-0.2,0.7-0.1c0,0,0,0,0.1,0.1c0.2,0.2-0.1,0.9,0.2,1.1c0.1,0,0.2,0,0.3,0h0.2c0.1,0,0.2,0,0.2,0.1
		c0.1,0.1,0.2,0.3,0.1,0.4c-0.1,0.1-0.1,0.1-0.2,0.1c-0.2,0-0.3,0-0.5,0c-0.3,0.1-0.3,0.4-0.3,0.8s-0.1,1.6,0,2.2
		c0,0.4,0.5,0.1,0.8,0.2c0.1,0,0.2,0.1,0.2,0.3c0.1,0.7-0.9,0.2-1,0.6s0.1,0.6,0,1c-0.1,0.2-0.2,0.3-0.4,0.2h-1.3h-0.7
		c-0.3,0-1.3,0-1.8,0c-0.2-0.1-0.1-0.2-0.1-0.3c0-0.1,0.1-0.2,0.1-0.2c0.4,0,1.2,0,1.5,0s0.9,0,1.2,0c0.3,0.1,0.6,0,0.9-0.1
		c0-1,0-1.6,0-2.7v-2.3c0-0.3,0-0.5,0-0.8C36.3,12.1,36.2,12,36.1,11.8C36.1,11.8,36,11.7,36.1,11.8L36.1,11.8z M35.7,12
		c0-0.1,0-0.1,0.1-0.1l0,0C35.9,11.8,36,12,36,12c0.1,0.1,0.2,0.2,0.2,0.3c0.1,0.4,0,1,0,1.4c0,0.1,0,0.2,0,0.4c0,0.1,0,0.2,0,0.3
		c0.1,1,0,3.2,0,3.3s0,0.2-0.1,0.1c-0.2-0.2-0.3-0.4-0.4-0.7C35.6,14.9,35.7,14.1,35.7,12z M35.7,17.8c0.1,0.1,0.2,0.2,0.2,0.2
		c0,0.2-0.5,0.1-0.7,0.1c-0.8,0-1.9,0-2.8,0c-0.1-0.1-0.1-0.3,0-0.4c0.2-0.3,2.4,0,3.1-0.2C35.6,17.6,35.7,17.7,35.7,17.8z
		 M28.4,16.7c0-1.4,0-2.9,0-4.4c0-0.2,0-0.4,0-0.6c0,0,0-0.1,0,0c0.1-0.1,0.2-0.2,0.3-0.2c0.1,0,0.2,0,0.3,0h0.3
		c0.2,0,0.8,0.1,1,0.1s0.2-0.1,0.3-0.1c0.4,0,0.7,0.1,1,0.5c0,0.2,0,0.4,0,0.6h0.2c0-0.1,0-0.2,0-0.4c0-0.1,0-0.3,0.1-0.4
		c0.2-0.1,0.3-0.2,0.5-0.3c0.5-0.1,1.8,0,2.3,0c0.1,0,0.2,0,0.3,0s0.2,0.1,0.3,0.3c0,1.6,0,3.6,0,4.9c0,0.2,0,0.4,0,0.6
		c-0.2,0.1-0.5,0.2-0.8,0.2s-1.3,0-1.6,0c-0.2,0-0.4,0-0.6,0c-0.1,0-0.2,0.1-0.3,0.1c-0.1,0.1-0.2,0.1-0.3,0.1c0-0.2,0-0.5,0-0.7
		h-0.2c0,0.2,0,0.5-0.1,0.7c-0.2,0-0.4-0.1-0.6-0.2c-0.5-0.1-1.6,0.1-2.1,0c-0.2-0.1-0.3-0.2-0.4-0.3C28.4,17.1,28.4,16.9,28.4,16.7
		z M28.1,11.8c0.1,0,0.2,0,0.2,0.1l0,0v3.9c0.1,0.6,0,1.1-0.1,1.6c-0.1,0.2-0.2,0.3-0.4,0.3c-0.1-1.3,0-2.5,0-3.4c0-0.2,0-0.3,0-0.5
		c0-0.1,0-0.2,0-0.2v-0.2c0-0.2,0-0.4,0-0.6C27.7,12.5,27.8,12.1,28.1,11.8L28.1,11.8z M27.1,16.5c0-0.2,0-0.4,0-0.6
		c0-0.2,0-0.4,0-0.7c0-0.5,0-1.1-0.1-1.6c-0.3-0.2-0.7,0.1-0.9-0.2c-0.1-0.2,0-0.4,0.2-0.5h0.1c0.3-0.1,0.5,0.1,0.6-0.2
		c0-0.3,0-0.6,0-0.8c0-0.1,0.1-0.2,0.2-0.2c0.2-0.1,0.4,0,0.6,0.1c0,0.1-0.1,0.1-0.1,0.2c-0.1,0.1-0.1,0.1-0.1,0.2
		c-0.1,0.4-0.1,0.9,0,1.3c0,0.9,0,1.5,0,2.2c0,0.1,0,0.2,0,0.3s0,0.3,0,0.4s0,0.1,0,0.2s0,0.2,0,0.4s0,0.1,0,0.2
		c0,0.3-0.2,1.1,0.1,1.2c0.3,0,0.5,0,0.8,0c0.7,0,1.7,0,2.3,0c0.1,0,0.2,0.1,0.3,0.2c0.1,0.1,0,0.3-0.1,0.3l0,0c-1.2,0-2.5,0-3.7,0
		c-0.2-0.1-0.2-0.3-0.2-0.5c0-0.3,0.2-0.7-0.1-0.9c-0.2,0-0.4,0-0.6,0s-0.3-0.2-0.3-0.3c0-0.1,0.1-0.3,0.2-0.3s0.1-0.1,0.2-0.1
		C26.7,16.7,27,16.9,27.1,16.5L27.1,16.5z M31.9,16L31.9,16c-0.3,0-0.3-0.1-0.3-0.2c0-0.1,0-0.1,0-0.2l0.1-0.5h0.6l0.1,0.5
		c0,0.1,0,0.1,0,0.2c0,0.1,0,0.1-0.1,0.2c0,0,0,0-0.1,0l0,0v0.2h1.1V16l0,0c-0.2,0-0.3-0.2-0.3-0.4l-0.6-2.3h-0.5v0.1l-0.5,2.2
		c-0.1,0.3-0.2,0.4-0.3,0.4H31v0.2h0.9L31.9,16L31.9,16z M32,13.9l0.3,1h-0.5L32,13.9z M33.6,34.8c-0.4-0.3-0.9-0.5-1-0.7
		c-0.2-0.3-0.3-0.6-0.3-0.9c-0.1-0.3-0.3-0.5-0.4-0.8c-0.3-0.4-1-0.9-1.2-0.5c-0.2,0.5-0.5,0.9-0.9,1.3c-0.4,0.3-0.9,0.6-1.4,0.7
		c-1.8,0.1-3.6,0.2-5.5,0.1c-0.2,0-0.3-0.2-0.3-0.4c-0.1-1.6,0-3.1,0.1-4.7c0.2-0.5,0.6-0.9,1-1.2c0.5-0.4,1.4-0.5,1.4-0.9
		c-0.2-0.5-0.6-0.9-1.1-1.1c-0.6-0.3-1.3-0.3-1.5-0.5c-0.3-0.4-0.6-0.7-0.8-1.1c-0.3-0.4-0.6-0.7-1-1c-0.4,0.3-0.7,0.6-1,1
		c-0.2,0.4-0.5,0.8-0.8,1.1c-0.2,0.1-0.9,0.2-1.5,0.5c-0.5,0.2-0.9,0.6-1.1,1.1c0,0.4,0.9,0.5,1.4,0.9c0.4,0.3,0.8,0.7,1,1.2
		c0.1,1.6,0.2,3.1,0.1,4.7c0,0.2-0.1,0.4-0.3,0.4c-1.8,0.1-3.6,0.1-5.4,0c-0.5-0.2-0.9-0.4-1.4-0.7c-0.4-0.4-0.7-0.8-0.9-1.3
		c-0.2-0.4-0.9,0.1-1.2,0.5c-0.2,0.2-0.3,0.5-0.4,0.8c-0.1,0.3-0.2,0.6-0.3,0.9c-0.1,0.2-0.7,0.4-1,0.7c-0.4,0.3-0.8,0.8-1.1,1.3
		c0.2,0.4,0.6,0.8,1,1c0.3,0.2,1.1,0.5,1.1,0.6s0.2,0.8,0.4,1.2c0.3,0.5,0.7,0.9,1.2,1.2c0.4,0.1,0.6,0.2,0.7,0s0.4-0.8,0.6-1.2
		c0.3-0.5,0.7-0.9,1.2-1.2c0.5-0.2,1.1-0.3,1.7-0.3c0.9,0,3.4,0,3.6,0c0.3,0,0.5,0.2,0.6,0.5c0,0.4,0,5.8,0,6.2
		c0,0.7-0.3,1.3-0.7,1.8c-0.5,0.6-1.2,1-1.9,1.2c-0.3,0.1,0,0.3,0.1,0.6c0.3,0.3,0.6,0.6,1,0.8s0.9,0.4,1.4,0.5
		c0.4,0.2,0.6,0.6,0.7,1c0.3,0.6,0.7,1.1,1.3,1.5c0.5-0.4,1-0.9,1.3-1.5c0.1-0.4,0.3-0.8,0.7-1c0.5-0.1,1-0.3,1.4-0.5s0.7-0.5,1-0.8
		c0.2-0.2,0.4-0.5,0.1-0.6c-0.7-0.2-1.4-0.6-1.9-1.2c-0.4-0.5-0.7-1.2-0.7-1.8c0-0.4,0-5.8,0-6.2c0-0.3,0.3-0.5,0.5-0.5s2.7,0,3.6,0
		c0.6,0,1.1,0.1,1.7,0.3c0.5,0.3,0.9,0.7,1.2,1.2c0.2,0.4,0.5,1,0.6,1.2s0.3,0.1,0.7,0c0.5-0.3,0.9-0.7,1.2-1.2
		c0.2-0.3,0.4-1.2,0.5-1.3s0.8-0.4,1.2-0.7c0.4-0.2,0.8-0.6,1-1C34.4,35.6,34,35.1,33.6,34.8L33.6,34.8z M10.3,33.5
		c0.1-0.2,0.2-0.3,0.4-0.4h0.1h0.1c0.1,0.1,0.3,0.3,0.4,0.4c0.1,0.2,0.2,0.5,0.2,0.7c0,0.3-0.1,0.6-0.2,0.9
		c-0.1,0.3-0.1,0.4-0.2,0.6c-0.2,0.2-0.2,0.3-0.2,0.5c0,0.1,0,0.2,0,0.3l-0.1,0.1c0,0-0.1,0-0.1-0.1s0-0.2,0-0.3
		c0-0.2-0.1-0.4-0.1-0.5c0-0.2-0.1-0.3-0.2-0.6c-0.1-0.3-0.1-0.6-0.2-0.9C10.2,34,10.2,33.7,10.3,33.5z M11.3,36.9
		c0.1,0,0.2,0,0.2,0.1s0,0.2-0.1,0.2h-0.1h-1.2c-0.1,0-0.2,0-0.2-0.1s0-0.2,0.1-0.2h0.1H11.3L11.3,36.9z M9.3,35.7
		c-0.1,0-0.2,0-0.3,0s-0.2,0.1-0.2,0.2c0,0.1-0.1,0.2-0.1,0.3c-0.1-0.1-0.2-0.1-0.2-0.2c-0.1-0.1-0.1-0.2-0.1-0.4s0-0.3,0.1-0.5
		c0.1-0.1,0.4-0.3,0.6-0.3s0.4,0,0.5,0.1c0.2,0.1,0.4,0.3,0.5,0.6c0.1,0.2,0.1,0.3,0.2,0.5c0,0.2,0,0.3,0,0.5c0,0-0.1,0.1-0.1,0l0,0
		v-0.1c0-0.1-0.1-0.2-0.1-0.2c-0.1-0.1-0.2-0.3-0.3-0.4C9.6,35.8,9.5,35.7,9.3,35.7L9.3,35.7z M11.4,38.1c-0.2,0-0.3,0-0.4-0.1
		c0,0.1,0,0.2,0,0.3s-0.1,0.2-0.1,0.3h-0.1h-0.1c-0.1-0.1-0.1-0.2-0.1-0.3s0-0.2,0-0.3c-0.1,0.1-0.3,0.1-0.4,0.1
		C10,38.1,9.8,38,9.9,38c0.2-0.1,0.3-0.1,0.4-0.2c0.1-0.1,0.1-0.1,0.2-0.2h0.9c0,0.1,0.1,0.2,0.2,0.2c0.1,0.1,0.3,0.2,0.4,0.2
		C11.8,37.9,11.6,38,11.4,38.1z M13.2,35.6c0,0.1,0,0.3-0.1,0.4c-0.1,0.1-0.2,0.2-0.3,0.2c0-0.1-0.1-0.2-0.1-0.3
		c-0.1-0.1-0.1-0.2-0.2-0.2c-0.1,0-0.2,0-0.3,0c-0.2,0-0.3,0.1-0.4,0.2c-0.1,0.1-0.2,0.2-0.3,0.4c0,0.1-0.1,0.2-0.1,0.2v0.1
		c0,0-0.1,0.1-0.1,0l0,0c0-0.2,0-0.3,0-0.5s0.1-0.4,0.2-0.5c0.1-0.2,0.3-0.4,0.5-0.6c0.2-0.1,0.3-0.1,0.5-0.1c0.3,0,0.5,0.1,0.7,0.3
		C13.1,35.3,13.2,35.5,13.2,35.6L13.2,35.6z M21.7,26.2c0.2-0.1,0.3-0.2,0.5-0.2c0.3,0,0.5,0.1,0.7,0.3c0.1,0.1,0.2,0.3,0.2,0.5
		c0,0.1-0.1,0.3-0.1,0.4c-0.1,0.1-0.2,0.2-0.3,0.2c0-0.1-0.1-0.2-0.1-0.3C22.5,27,22.4,27,22.4,27c-0.1,0-0.2,0-0.3,0
		c-0.2,0-0.3,0.1-0.4,0.2s-0.2,0.2-0.3,0.4c-0.1,0.1-0.1,0.1-0.1,0.2v0.1c0,0-0.1,0.1-0.1,0l0,0c0-0.2,0-0.3,0-0.5s0.1-0.4,0.2-0.5
		C21.3,26.6,21.5,26.3,21.7,26.2L21.7,26.2z M20.8,47.8c0,0.1,0,0.2,0,0.3s-0.1,0.1-0.1,0.1s-0.1,0-0.1-0.1s0-0.2,0-0.3
		c0-0.2-0.1-0.4-0.1-0.5c0-0.2-0.1-0.3-0.2-0.6s-0.1-0.6-0.2-0.9c0-0.2,0.1-0.5,0.2-0.7s0.2-0.3,0.4-0.4h0.1h0.1
		c0.1,0.1,0.3,0.3,0.4,0.4c0.1,0.2,0.2,0.5,0.2,0.7c0,0.3-0.1,0.6-0.2,0.9c-0.1,0.3-0.1,0.4-0.2,0.6C20.9,47.5,20.8,47.6,20.8,47.8
		L20.8,47.8z M21.2,48.5c0.1,0,0.2,0.1,0.2,0.2s-0.1,0.2-0.2,0.2H20c-0.1,0-0.2-0.1-0.2-0.2c0-0.1,0.1-0.2,0.2-0.2H21.2L21.2,48.5z
		 M21,37.9c0,0.1,0,0.2,0,0.3s-0.1,0.2-0.1,0.3h-0.1h-0.1c-0.1-0.1-0.2-0.2-0.2-0.3s0-0.2,0-0.3C20.4,38,20.2,38,20,38
		s-0.4-0.1-0.3-0.1c0.2-0.1,0.3-0.1,0.4-0.2c0.1-0.1,0.1-0.1,0.2-0.2h0.9c0,0.1,0.1,0.2,0.2,0.2c0.1,0.1,0.3,0.2,0.4,0.2
		S21.7,38,21.5,38C21.3,38.1,21.1,38,21,37.9z M21.3,37.2h-1.2c-0.1,0-0.2,0-0.2-0.1s0-0.2,0.1-0.2h0.1h1.2c0.1,0,0.2,0,0.2,0.1
		S21.5,37.2,21.3,37.2L21.3,37.2z M20.8,36.2c0,0.1,0,0.2,0,0.3l-0.1,0.1c0,0-0.1,0-0.1-0.1s0-0.2,0-0.3c-0.1-0.2-0.1-0.3-0.2-0.5
		c0-0.2-0.1-0.3-0.2-0.6s-0.1-0.6-0.2-0.9c0-0.2,0.1-0.5,0.2-0.7s0.2-0.3,0.4-0.4h0.1h0.1c0.1,0.1,0.2,0.3,0.4,0.4
		c0.1,0.2,0.2,0.5,0.2,0.7c0,0.3-0.1,0.6-0.2,0.9c-0.1,0.3-0.1,0.4-0.2,0.6C20.9,35.9,20.8,36.1,20.8,36.2L20.8,36.2z M20.9,29.1
		c0,0.1,0,0.2,0,0.3c0,0.1-0.1,0.2-0.1,0.3h-0.1h-0.1c-0.1-0.1-0.1-0.2-0.2-0.2c0-0.1,0-0.2,0-0.3c-0.1,0.1-0.3,0.2-0.4,0.1
		c-0.2,0-0.4-0.1-0.3-0.1c0.2-0.1,0.3-0.1,0.4-0.2s0.1-0.1,0.2-0.2h0.9c0,0.1,0.1,0.2,0.2,0.2c0.1,0.1,0.3,0.2,0.4,0.2
		s-0.1,0.1-0.3,0.1C21.2,29.3,21,29.3,20.9,29.1L20.9,29.1z M19.8,28.2c0-0.1,0.1-0.2,0.2-0.2h1.2c0.1,0,0.2,0.1,0.2,0.2
		s-0.1,0.2-0.2,0.2H20C19.9,28.4,19.9,28.3,19.8,28.2L19.8,28.2z M20.2,24.7c0.1-0.2,0.2-0.3,0.4-0.4h0.1h0.1
		c0.1,0.1,0.3,0.3,0.4,0.4c0.1,0.2,0.2,0.5,0.2,0.7c0,0.3-0.1,0.6-0.2,0.9s-0.1,0.4-0.2,0.6c0,0.2-0.1,0.4-0.1,0.5s0,0.2,0,0.3
		l-0.1,0.1l-0.1-0.1c0-0.1,0-0.2,0-0.3c0-0.1,0-0.2-0.1-0.5s-0.1-0.3-0.2-0.6c-0.1-0.3-0.1-0.6-0.2-0.9
		C20.1,25.2,20.1,24.9,20.2,24.7L20.2,24.7z M18.7,27.1c0,0.1-0.1,0.2-0.1,0.3c-0.1-0.1-0.2-0.1-0.3-0.2c-0.1-0.1-0.1-0.2-0.1-0.4
		c0-0.2,0.1-0.4,0.2-0.5c0.2-0.2,0.4-0.3,0.7-0.3c0.2,0,0.4,0,0.5,0.1c0.2,0.1,0.4,0.3,0.5,0.6c0.1,0.2,0.1,0.3,0.2,0.5
		c0,0.2,0,0.3,0,0.5c0,0-0.1,0.1-0.1,0l0,0v-0.1c0-0.1-0.1-0.2-0.1-0.2c-0.1-0.2-0.2-0.3-0.3-0.4c-0.1-0.1-0.3-0.2-0.4-0.2
		s-0.2,0-0.3,0C18.8,26.9,18.7,27,18.7,27.1L18.7,27.1z M18.7,35.9c0,0.1-0.1,0.2-0.1,0.3c-0.1,0-0.2-0.1-0.3-0.2
		c-0.1-0.1-0.1-0.2-0.1-0.4s0.1-0.4,0.2-0.5c0.2-0.2,0.4-0.3,0.7-0.3c0.2,0,0.4,0,0.5,0.1c0.2,0.1,0.4,0.3,0.5,0.6
		c0.1,0.2,0.1,0.3,0.2,0.5c0,0.2,0,0.3,0,0.5c0,0-0.1,0.1-0.1,0l0,0v-0.1c0-0.1-0.1-0.2-0.1-0.2c-0.1-0.1-0.2-0.3-0.3-0.4
		c-0.1-0.1-0.3-0.2-0.4-0.2s-0.2,0-0.3,0C18.9,35.7,18.8,35.8,18.7,35.9L18.7,35.9z M19.2,47.3c-0.1,0-0.2,0-0.3,0
		c-0.1,0-0.2,0.1-0.2,0.2c0,0.1-0.1,0.2-0.1,0.3c-0.1-0.1-0.2-0.1-0.3-0.2c-0.1-0.1-0.1-0.2-0.1-0.4s0.1-0.4,0.2-0.5
		c0.2-0.2,0.4-0.3,0.7-0.3c0.2,0,0.4,0,0.5,0.1c0.2,0.1,0.4,0.3,0.5,0.6c0.1,0.2,0.1,0.3,0.2,0.5c0,0.2,0,0.3,0,0.5
		c0,0-0.1,0.1-0.1,0l0,0V48c0-0.1-0.1-0.2-0.1-0.2c-0.1-0.1-0.2-0.3-0.3-0.4C19.5,47.3,19.4,47.3,19.2,47.3z M21.4,49.7
		c-0.2,0-0.3,0-0.5-0.1c0,0.1,0,0.2,0,0.3s-0.1,0.2-0.1,0.3h-0.1h-0.1c-0.1-0.1-0.2-0.2-0.2-0.3s0-0.2,0-0.3
		c-0.1,0.1-0.3,0.1-0.4,0.1c-0.2,0-0.4-0.1-0.3-0.1c0.2-0.1,0.3-0.1,0.4-0.2c0.1-0.1,0.1-0.2,0.1-0.3h0.9c0,0.1,0.1,0.2,0.2,0.2
		c0.1,0.1,0.3,0.2,0.4,0.2C21.8,49.5,21.6,49.6,21.4,49.7z M23,46.8c0.1,0.1,0.2,0.3,0.2,0.5c0,0.1-0.1,0.3-0.1,0.4
		c-0.1,0.1-0.2,0.2-0.3,0.2c0-0.1-0.1-0.2-0.1-0.3c-0.1-0.1-0.1-0.2-0.2-0.2s-0.2,0-0.3,0c-0.2,0-0.3,0.1-0.4,0.2
		c-0.1,0.1-0.3,0.2-0.3,0.4c0,0.1-0.1,0.2-0.1,0.2v0.1c0,0-0.1,0.1-0.1,0l0,0c0-0.2,0-0.3,0-0.5s0.1-0.4,0.2-0.5
		c0.1-0.2,0.3-0.4,0.5-0.6c0.2-0.1,0.3-0.1,0.5-0.1C22.5,46.5,22.8,46.6,23,46.8L23,46.8z M23.2,35.7c0,0.1,0,0.3-0.1,0.4
		c-0.1,0.1-0.2,0.2-0.3,0.2c0-0.1-0.1-0.2-0.1-0.3c-0.1-0.1-0.1-0.2-0.2-0.2s-0.2,0-0.3,0c-0.2,0-0.3,0.1-0.4,0.2
		c-0.1,0.1-0.3,0.2-0.3,0.4c0,0.1-0.1,0.1-0.1,0.2v0.1c0,0-0.1,0.1-0.1,0l0,0c0-0.2,0-0.3,0-0.5s0.1-0.4,0.2-0.5
		c0.1-0.2,0.3-0.4,0.5-0.6c0.2-0.1,0.3-0.1,0.5-0.1c0.3,0,0.5,0.1,0.7,0.3C23.1,35.3,23.2,35.5,23.2,35.7L23.2,35.7z M30.2,33.5
		c0.1-0.2,0.1-0.3,0.2-0.5h0.1h0.1c0.1,0.1,0.3,0.3,0.3,0.4c0.1,0.2,0.2,0.5,0.2,0.7c0,0.3-0.1,0.6-0.2,0.9
		c-0.1,0.3-0.1,0.4-0.2,0.6c-0.1,0.2-0.1,0.4-0.1,0.5s0,0.2,0,0.3l-0.1,0.1c0,0-0.1,0-0.1-0.1s0-0.2,0-0.3c0-0.2-0.1-0.4-0.1-0.5
		c0-0.2-0.1-0.3-0.2-0.6s-0.1-0.6-0.2-0.9C30,34,30,33.7,30.2,33.5L30.2,33.5z M31.2,36.9c0.1,0,0.2,0.1,0.2,0.2
		c0,0.1-0.1,0.2-0.2,0.2H30c-0.1,0-0.2-0.1-0.2-0.2l0,0c0-0.1,0.1-0.2,0.2-0.2H31.2L31.2,36.9z M29.2,35.7c-0.1,0-0.2,0-0.3,0
		c-0.1,0-0.2,0.1-0.2,0.2c0,0.1-0.1,0.2-0.1,0.3c-0.1,0-0.3-0.1-0.4-0.2c-0.1-0.1-0.1-0.2-0.1-0.4s0-0.4,0.2-0.5
		c0.2-0.2,0.4-0.3,0.7-0.3c0.2,0,0.4,0,0.5,0.1c0.2,0.1,0.4,0.3,0.5,0.6c0.1,0.2,0.1,0.3,0.2,0.5c0,0.2,0,0.3,0,0.5
		c0,0-0.1,0.1-0.1,0l0,0v-0.1c-0.1-0.2-0.3-0.4-0.5-0.6C29.4,35.8,29.3,35.7,29.2,35.7L29.2,35.7z M31.3,38.1c-0.2,0-0.3,0-0.4-0.1
		c0,0.1,0,0.2,0,0.3s-0.1,0.2-0.1,0.3h-0.1h-0.2c-0.1-0.1-0.1-0.2-0.1-0.3s0-0.2,0-0.3c-0.1,0.1-0.3,0.1-0.5,0.1S29.5,38,29.6,38
		c0.2-0.1,0.3-0.1,0.4-0.2c0.1-0.1,0.1-0.1,0.2-0.2h0.9c0,0.1,0.1,0.2,0.2,0.2c0.1,0.1,0.3,0.2,0.4,0.2C31.6,37.9,31.4,38,31.3,38.1
		L31.3,38.1z M32.9,36c-0.1,0.1-0.2,0.2-0.3,0.2c0-0.1-0.1-0.2-0.1-0.3c-0.1-0.1-0.1-0.2-0.2-0.2c-0.2-0.1-0.5,0-0.7,0.1
		c-0.1,0.1-0.2,0.2-0.3,0.4c0,0.1-0.1,0.1-0.1,0.2v0.1c0,0-0.1,0.1-0.1,0l0,0c0-0.2,0-0.3,0-0.5s0.1-0.4,0.2-0.5
		c0.1-0.2,0.3-0.4,0.5-0.5c0.2-0.1,0.3-0.1,0.5-0.1c0.3,0,0.5,0.1,0.7,0.3c0.1,0.1,0.2,0.3,0.2,0.5C33,35.8,33,35.9,32.9,36z
		 M15.3,16.6c-0.6-0.1-0.9,0.1-0.8,0.7c0.1,0.4,0.3,0.4,0.8,0.4c0.1,0,0.2,0.1,0.2,0.2l0,0c0,0.3,0,0.7,0,1c0.4,0.2,0.8,0.2,1.2,0.1
		h2.2c0.1,0,0.3,0,0.4,0c0.1,0.1,0.2,0.1,0.2,0.2c0.2,0.1,0.5,0.1,0.7,0c0.1,0,0.1,0,0.1-0.1c0.3-0.1,0.6-0.1,0.8-0.1h2.2
		c0.3,0.1,0.6,0.1,0.9,0c0.1-0.3,0.1-0.7,0-1c0-0.1,0-0.2,0.1-0.2s0.2,0,0.4,0c0.7,0,0.7-0.6,0.3-1s-0.7,0.1-0.8-0.3v-2
		c0-0.2,0-0.4,0-0.6c0.5,0,0.8,0,1-0.4c0.1-0.3-0.1-0.6-0.4-0.7h-0.1c-0.1,0-0.1,0-0.3,0s-0.1,0-0.1-0.1v-0.1c0-0.3,0-0.7-0.1-1
		c-0.4-0.1-0.9-0.2-1.3-0.1c-0.1-0.2-0.4-0.1-0.6,0c-0.4,0-0.7,0-1.1,0c-0.3,0-0.6,0.1-0.9,0.2c-0.1,0-0.2,0.1-0.3,0.2
		c-0.2-0.2-0.4-0.3-0.6-0.4c-0.5,0-1.1,0-1.6,0c-0.2-0.1-0.4-0.1-0.6-0.1c-0.1,0-0.2,0.1-0.2,0.1c-0.2,0-0.3,0-0.5,0h-0.2
		c-0.2,0-0.4,0-0.6,0c-0.4,0.2,0.1,1-0.3,1.3c-0.5,0-0.8,0-0.9,0.4c-0.1,0.7,0.4,0.7,1,0.7c0,0.4,0,0.8,0,1.2
		C15.6,15.6,15.5,16.2,15.3,16.6L15.3,16.6z M19.4,18.1h-0.1c-0.9-0.1-1.6,0.1-2.6,0c-0.2-0.3,0.3-0.6,0.5-0.6
		c0.6,0.1,1.3,0.1,1.9,0.1c0.2,0,0.3,0.1,0.5,0.2C19.7,18,19.5,18,19.4,18.1z M23.3,11.8c0.2-0.2,0.5-0.2,0.7-0.1c0,0,0,0,0.1,0.1
		c0.2,0.2-0.1,0.9,0.2,1.1c0.1,0,0.2,0,0.3,0h0.2c0.1,0,0.2,0,0.2,0.1c0.1,0.1,0.2,0.3,0.1,0.4c-0.1,0.1-0.1,0.1-0.2,0.1
		c-0.2,0-0.3,0-0.5,0c-0.3,0.1-0.3,0.4-0.3,0.8s-0.1,1.6,0,2.2c0,0.4,0.5,0.1,0.8,0.2c0.1,0,0.2,0.1,0.2,0.3c0.1,0.7-0.9,0.2-1,0.6
		s0.1,0.6,0,1c-0.1,0.2-0.2,0.3-0.4,0.2h-1.2c-0.3,0-0.3,0-0.5,0s-0.5,0-1,0c-0.1,0-0.2-0.2-0.1-0.3l0,0c0-0.1,0.1-0.2,0.1-0.2
		c0.3,0,0.6,0,0.9,0s0.5,0,0.8,0c0.3,0.1,0.6,0,0.9-0.1c0-1,0-1.6,0-2.7v-2.3c0-0.3,0-0.5,0-0.8C23.5,12.1,23.4,12,23.3,11.8
		C23.3,11.8,23.2,11.7,23.3,11.8L23.3,11.8z M22.8,12c0-0.1,0-0.1,0.1-0.1s0.2,0.1,0.2,0.1c0.1,0.1,0.2,0.2,0.2,0.3
		c0.1,0.4,0,1,0,1.4c0,0.1,0,0.2,0,0.4c0,0.1,0,0.2,0,0.3c0.1,1,0,3.2,0,3.3s0,0.2-0.1,0.1c-0.2-0.2-0.3-0.4-0.4-0.7
		C22.8,14.9,22.9,14.1,22.8,12z M22.9,17.8C23,17.9,23,17.9,23,18c0,0.2-0.5,0.1-0.7,0.1c-0.8,0-0.9,0-1.8,0c-0.1-0.1-0.1-0.3,0-0.4
		c0.2-0.3,1.4,0,2.1-0.2C22.7,17.6,22.9,17.7,22.9,17.8L22.9,17.8z M20.1,14.8c0-0.6,0-1.2,0-1.8c0-0.2,0-0.5,0-0.8
		c0-0.1,0-0.3,0.1-0.4c0.2-0.1,0.3-0.2,0.5-0.3c0.5-0.1,0.8,0,1.3,0c0.1,0,0.2,0,0.3,0c0.1,0,0.2,0.1,0.3,0.3c0,1.6,0,3.6,0,4.9
		c0,0.2,0,0.4,0,0.6c-0.2,0.1-0.5,0.2-0.8,0.2c-0.2,0-0.4,0-0.6,0s-0.4,0-0.6,0c-0.1,0-0.2,0.1-0.3,0.1c-0.1,0.1-0.2,0.1-0.3,0.1
		c0-0.2,0-0.5,0-0.7C20.1,16.2,20.1,15.3,20.1,14.8L20.1,14.8z M20.4,18.4c0,0.1,0.1,0.2,0.1,0.3c0,0.1-0.1,0.3-0.1,0.4
		s-0.1,0.1-0.2,0.1s-0.2,0-0.3,0c-0.1,0-0.1-0.1-0.2-0.1c-0.1-0.1-0.1-0.1-0.2-0.2c0-0.1,0-0.1,0-0.2c0-0.2,0.1-0.4,0.3-0.5l0,0
		c0.2-0.1,0.5-0.1,0.6,0.1C20.4,18.3,20.4,18.3,20.4,18.4z M17.1,16.7c0-1.4,0-2.9,0-4.4c0-0.2,0-0.4,0-0.6l0,0
		c0.1-0.1,0.2-0.2,0.3-0.2c0.1,0,0.2,0,0.3,0h0.2c0.2,0,0.5,0.1,0.7,0.1c0.1,0,0.2-0.1,0.3-0.1c0.4,0,0.7,0.1,1,0.5c0,1.4,0,2.8,0,4
		l0,0h-0.1c-0.1,0-0.1-0.1-0.1-0.1c-0.1-0.1-0.1-0.3-0.2-0.4l-0.1-0.2c-0.1-0.1-0.1-0.3-0.2-0.4c0.3-0.1,0.5-0.4,0.4-0.8
		c0-0.3-0.1-0.6-0.4-0.7c-0.2-0.1-0.4-0.1-0.6-0.1c-0.3,0-0.5,0-0.8,0.1h-0.1v0.2h0.1c0.2,0,0.2,0,0.2,0.4v1.7
		C17.9,16,17.9,16,17.7,16h-0.1v0.2h1.1V16h-0.1c-0.2,0-0.2,0-0.2-0.4V15h0.2c0.1,0.1,0.2,0.3,0.2,0.4l0.1,0.2
		c0.1,0.2,0.2,0.4,0.3,0.5c0.2,0.1,0.3,0.1,0.5,0.1h0.2c0,0.5,0,0.9-0.1,1.4c-0.2,0-0.4-0.1-0.6-0.2c-0.5-0.1-1.1,0.1-1.7,0
		c-0.2,0-0.3-0.1-0.4-0.2C17.1,17.1,17.1,16.9,17.1,16.7L17.1,16.7z M19,14.1c0.1,0.3-0.1,0.6-0.4,0.7c-0.1,0-0.1,0-0.2,0h-0.1v-1.3
		h0.1c0.3,0,0.5,0.2,0.6,0.4C19,14,19,14.1,19,14.1L19,14.1z M16.8,11.8c0.1,0,0.2,0,0.2,0.1l0,0v3.9c0.1,0.6,0,1.1-0.1,1.6
		c-0.1,0.2-0.2,0.3-0.4,0.3c-0.1-1.3,0-2.5,0-3.4c0-0.2,0-0.3,0-0.5c0-0.1,0-0.2,0-0.2v-0.2c0-0.2,0-0.4,0-0.6
		C16.4,12.5,16.5,12.1,16.8,11.8L16.8,11.8z M15.8,16.5c0-0.2,0-0.4,0-0.6c0-0.2,0-0.4,0-0.7c0-0.5,0-1.1-0.1-1.6
		c-0.3-0.2-0.7,0.1-0.9-0.2c-0.1-0.2,0-0.4,0.2-0.5h0.1c0.3-0.1,0.5,0.1,0.6-0.2c0-0.3,0-0.6,0-0.8c0-0.1,0.1-0.2,0.2-0.2
		c0.2-0.1,0.4,0,0.6,0.1c0,0.1,0,0.1-0.1,0.2c-0.1,0.1-0.1,0.1-0.1,0.2c-0.1,0.4-0.1,0.9,0,1.3c0,0.9,0,1.5,0,2.2V16
		c0,0.1,0,0.3,0,0.4s0,0.1,0,0.2s0,0.2,0,0.4s0,0.1,0,0.2c0,0.3-0.2,1.1,0.1,1.2c0.3,0,0.5,0,0.8,0c0.7,0,1.2,0,1.8,0
		c0.1,0,0.2,0.1,0.3,0.2c0.1,0.1,0,0.3-0.1,0.3l0,0c-1.2,0-2,0-3.2,0c-0.2-0.1-0.2-0.3-0.2-0.5c0-0.3,0.2-0.7-0.1-0.9
		c-0.2,0-0.4,0-0.6,0c-0.2,0-0.3-0.2-0.3-0.3c0-0.1,0.1-0.3,0.2-0.3c0.1,0,0.2-0.1,0.3-0.1C15.4,16.7,15.7,16.9,15.8,16.5L15.8,16.5
		z M22,16.2h-1V16l0,0c0.2,0,0.2-0.1,0.2-0.4v-1.7c0-0.3,0-0.4-0.2-0.4l0,0v-0.2h1v0.2l0,0c-0.2,0-0.2,0-0.2,0.4v1.7
		c0,0.3,0,0.4,0.2,0.4l0,0V16.2L22,16.2z"/>
	<ellipse style="fill:#5A595A;" cx="61.8" cy="53.1" rx="1.5" ry="1.7"/>
	<ellipse style="fill:#5A595A;" cx="85.9" cy="53.1" rx="1.5" ry="1.7"/>
	<path style="fill:#5A595A;" d="M193.1,35.9l1-1.6c0.7,0.7,1.6,1.1,2.6,1.1c0.7,0.1,1.3-0.3,1.4-1c0-0.1,0-0.1,0-0.2
		c0-1.9-4.7-1.2-4.7-4.8c0-1.7,1.5-3.1,3.2-3.1c0.1,0,0.2,0,0.2,0c1.2,0,2.3,0.4,3.2,1.2l-1,1.6c-0.6-0.6-1.4-0.9-2.3-0.9
		c-0.6-0.1-1.2,0.3-1.3,0.9v0.1c0,1.7,4.7,1.2,4.7,4.7c0,1.8-1.2,3.2-3.6,3.2C195.4,37.3,194.1,36.8,193.1,35.9z"/>
	<path style="fill:#5A595A;" d="M201.5,31.8c0-3.2,1.7-5.4,4.5-5.4c1.6,0,3,1,3.5,2.5l-1.8,0.8c-0.2-0.8-0.9-1.4-1.8-1.4
		c-1.4,0-2.3,1.5-2.3,3.6s0.9,3.6,2.3,3.6c0.9-0.1,1.6-0.7,1.8-1.5l1.8,0.8c-0.5,1.6-1.9,2.6-3.5,2.7
		C203.2,37.2,201.5,35,201.5,31.8z"/>
	<path style="fill:#5A595A;" d="M217,37v-4.4h-3.5V37h-2.1V26.5h2.1v4.2h3.5v-4.2h2.1V37H217L217,37z"/>
	<path style="fill:#5A595A;" d="M221.1,31.8c0-3.1,1.6-5.4,4.4-5.4s4.4,2.3,4.4,5.4s-1.7,5.4-4.4,5.4S221.1,34.9,221.1,31.8z
		 M227.7,31.8c0-2-0.8-3.6-2.2-3.6s-2.3,1.5-2.3,3.6s0.8,3.6,2.3,3.6S227.7,33.8,227.7,31.8z"/>
	<path style="fill:#5A595A;" d="M231.8,31.8c0-3.1,1.6-5.4,4.4-5.4s4.4,2.3,4.4,5.4s-1.7,5.4-4.4,5.4S231.8,34.9,231.8,31.8z
		 M238.5,31.8c0-2-0.8-3.6-2.2-3.6s-2.3,1.5-2.3,3.6s0.8,3.6,2.3,3.6S238.4,33.8,238.5,31.8L238.5,31.8z"/>
	<path style="fill:#5A595A;" d="M242.9,37V26.5h2.1v8.7h3.6V37H242.9z"/>
	<path style="fill:#5A595A;" d="M254.5,31.8c0-3.1,1.6-5.4,4.4-5.4s4.4,2.3,4.4,5.4s-1.7,5.4-4.4,5.4S254.5,34.9,254.5,31.8z
		 M261.2,31.8c0-2-0.8-3.6-2.2-3.6s-2.3,1.5-2.3,3.6s0.8,3.6,2.3,3.6S261.2,33.8,261.2,31.8z"/>
	<path style="fill:#5A595A;" d="M265.7,37V26.5h6v1.9h-3.9v2.4h3.8v1.8h-3.8V37H265.7L265.7,37z"/>
	<path style="fill:#5A595A;" d="M278.2,37V26.5h3.9c1.7-0.1,3.2,1.3,3.3,3c0,0.1,0,0.2,0,0.4c0.1,1.7-1.2,3.2-2.9,3.3
		c-0.1,0-0.3,0-0.4,0h-1.8V37H278.2L278.2,37z M283.2,29.8c0.1-0.7-0.5-1.4-1.2-1.5c-0.1,0-0.1,0-0.2,0h-1.5v3h1.5
		c0.8,0,1.4-0.6,1.4-1.3C283.2,30,283.2,29.9,283.2,29.8L283.2,29.8z"/>
	<path style="fill:#5A595A;" d="M287.5,33.4v-6.9h2.1v6.9c-0.1,1,0.6,1.8,1.6,1.9s1.8-0.6,1.9-1.6c0-0.1,0-0.3,0-0.4v-6.9h2.1v6.9
		c0,2.1-1.7,3.9-3.9,3.9C289.2,37.3,287.5,35.5,287.5,33.4z"/>
	<path style="fill:#5A595A;" d="M297.7,37V26.5h4.4c1.4-0.1,2.7,0.9,2.8,2.3c0,0.1,0,0.2,0,0.4c0.1,1.1-0.6,2.1-1.7,2.4
		c1.2,0.3,2,1.4,1.9,2.6c0.1,1.4-0.9,2.7-2.4,2.8c-0.1,0-0.3,0-0.4,0C302.3,37,297.7,37,297.7,37z M302.7,29.5
		c0.1-0.6-0.4-1.1-1-1.2c-0.1,0-0.1,0-0.2,0h-1.8v2.4h1.8c0.6,0,1.1-0.4,1.1-1C302.7,29.7,302.7,29.6,302.7,29.5L302.7,29.5z
		 M302.9,33.9c0.1-0.7-0.4-1.2-1.1-1.3h-0.1h-1.8v2.6h1.8c0.6,0.1,1.2-0.4,1.2-1C302.9,34,302.9,34,302.9,33.9L302.9,33.9z"/>
	<path style="fill:#5A595A;" d="M307.3,37V26.5h2.1v8.7h3.5V37H307.3L307.3,37z"/>
	<path style="fill:#5A595A;" d="M315.2,37V26.5h2.1V37H315.2z"/>
	<path style="fill:#5A595A;" d="M319.7,31.8c0-3.2,1.7-5.4,4.5-5.4c1.6,0,3,1,3.5,2.5l-1.8,0.8c-0.2-0.8-0.9-1.4-1.8-1.4
		c-1.5,0-2.3,1.5-2.3,3.6s0.9,3.6,2.3,3.6c0.9-0.1,1.6-0.7,1.8-1.5l1.8,0.8c-0.5,1.6-1.9,2.6-3.5,2.7
		C321.4,37.2,319.7,35,319.7,31.8z"/>
	<path style="fill:#5A595A;" d="M339.7,37v-4.4h-3.5V37h-2.1V26.5h2.1v4.2h3.5v-4.2h2.1V37H339.7L339.7,37z"/>
	<path style="fill:#5A595A;" d="M344.3,37V26.5h6v1.9h-3.8v2.4h3.8v1.8h-3.8v2.6h3.9V37H344.3L344.3,37z"/>
	<path style="fill:#5A595A;" d="M358.7,37l-0.5-1.9h-3.3l-0.5,1.9h-2.3l3.2-10.5h2.5L361,37H358.7L358.7,37z M356.6,28.7l-1.2,4.6
		h2.5L356.6,28.7z"/>
	<path style="fill:#5A595A;" d="M362.8,37V26.5h2.1v8.7h3.5V37H362.8z"/>
	<path style="fill:#5A595A;" d="M371.4,37v-8.6H369v-1.9h6.8v1.9h-2.4V37H371.4z"/>
	<path style="fill:#5A595A;" d="M383.8,37v-4.4h-3.5V37h-2.1V26.5h2.1v4.2h3.5v-4.2h2.1V37H383.8z"/>
	<polygon style="fill:#5A595A;" points="182.2,63.6 181.6,63.6 181.6,38.6 181.6,0 182.2,0 182.2,13.5 	"/>
</g>
</svg>
