<?xml version="1.0" encoding="utf-8"?>
<!-- Generator: Adobe Illustrator 21.1.0, SVG Export Plug-In . SVG Version: 6.00 Build 0)  -->
<svg version="1.1" xmlns="http://www.w3.org/2000/svg" xmlns:xlink="http://www.w3.org/1999/xlink" x="0px" y="0px"
	 viewBox="0 0 456.4 142" style="enable-background:new 0 0 456.4 142;" xml:space="preserve">
<style type="text/css">
	.st0{fill:#FFFFFF;}
</style>
<g id="Layer_3">
	<path class="st0" d="M135.8,69.9h5.8c6.2,0,8.9-3.4,8.9-7.5c0-3.9-3.1-7-8.5-7h-6.2V69.9z M135.8,47.1h5c4.4,0,8-2.4,8-7
		c0-4.3-2.8-6.4-7.8-6.4h-5.1V47.1z M125.1,33.6h-5.5v-7.5h19.7c7.2,0,11,0.3,14.3,2.4c2.7,1.8,5.3,5,5.3,10.3
		c0,8.3-6.7,11.6-10.5,11.6v0.1c7.1,0,13.5,4.3,13.5,12.7c0,6.7-5.1,14.1-19.2,14.1h-22.7v-7.5h5V33.6z"/>
	<polygon class="st0" points="193.6,61.2 202.3,61.2 201.8,77.3 165,77.3 165,69.9 169.6,69.9 169.6,33.6 164.1,33.6 164.1,26.2 
		201.5,26.2 202,41.2 193.2,41.2 192.8,33.6 180.3,33.6 180.3,47.1 193.1,47.1 193.1,55 180.3,55 180.3,69.9 193,69.9 	"/>
	<path class="st0" d="M208.2,69.9h4.8V33.6h-6.5v-7.4h14.8l21.6,27.1c2.3,2.8,3.7,4.9,4.3,6.9h0.2V33.6h-4.7v-7.4h18.5v7.4h-5v43.7
		h-7.9l-24.3-30.6c-1.2-1.5-2.3-3.2-2.4-4h-0.1v27.1h5v7.5h-18.1V69.9z"/>
	<polygon class="st0" points="303.2,33.6 293.9,33.6 293.9,69.9 298.5,69.9 298.5,77.3 278.7,77.3 278.7,69.9 283.3,69.9 
		283.3,33.6 274.1,33.6 273.6,40.6 264.8,40.6 265.3,26.2 311.9,26.2 312.4,40.6 303.6,40.6 	"/>
	<polygon class="st0" points="345.4,60.7 354.3,60.7 353.5,77.3 317,77.3 317,69.9 321.6,69.9 321.6,33.6 317,33.6 317,26.2 
		336.9,26.2 336.9,33.6 332.3,33.6 332.3,69.9 344.8,69.9 	"/>
	<polygon class="st0" points="387.1,61.2 395.9,61.2 395.3,77.3 358.5,77.3 358.5,69.9 363.1,69.9 363.1,33.6 357.6,33.6 
		357.6,26.2 395.1,26.2 395.5,41.2 386.7,41.2 386.3,33.6 373.8,33.6 373.8,47.1 386.6,47.1 386.6,55 373.8,55 373.8,69.9 
		386.5,69.9 	"/>
	<path class="st0" d="M433.8,26.2h18.6v7.5h-4l-17,23.3v12.9h4.6v7.5h-19.8v-7.5h4.5V57l-17-23.4h-4v-7.5H420v7.5h-4.1
		c1,1.1,1.9,2.1,2.7,3.3l8.5,12.4l9.1-12.5c0.8-1.1,1.7-2.1,2.7-3.2h-5.1V26.2z"/>
	<path class="st0" d="M131.4,97h-2.8c0,3.6-0.1,7.2-0.1,13.3c0,3.2,0.2,5.1,1.3,6.4c1,1.3,2.9,1.9,5.6,1.9c2.6,0,4.6-0.6,5.8-2.2
		c1.1-1.4,1.1-3.6,1.1-7.2l0.1-12.2h-3.2v-2.3h9V97h-2.9l-0.1,14.1c0,3-0.3,5.1-2,7.2c-1.5,1.8-4.2,2.8-7.9,2.8
		c-4.5,0-7-1.1-8.5-3.2c-1.2-1.7-1.4-3.5-1.4-7.8c0-4.2,0-9.1,0.1-13h-3v-2.3h9V97z"/>
	<path class="st0" d="M163.9,97h-3.5v-2.3h6.2l14.2,19c0.4,0.6,0.9,1.3,1.2,1.9h0.1l0.1-18.6H179v-2.3h8.8V97H185l-0.2,23.7h-2.6
		l-14.7-19.5c-0.4-0.5-0.7-1.1-1-1.6h-0.1l-0.1,18.8h3.3v2.3h-8.6v-2.3h2.8L163.9,97z"/>
	<polygon class="st0" points="204.7,97 201.7,97 201.7,94.7 210.7,94.7 210.7,97 207.9,97 207.7,118.3 210.7,118.3 210.7,120.7 
		201.7,120.7 201.7,118.3 204.5,118.3 	"/>
	<path class="st0" d="M226.5,97h-2.5v-2.3h9V97h-2.9l7.1,19.4c0.2,0.5,0.3,0.9,0.4,1.4h0.1c0.2-0.5,0.2-0.9,0.4-1.4l7-19.4H242v-2.3
		h8.8V97h-2.5l-9.2,23.7h-3.4L226.5,97z"/>
	<polygon class="st0" points="265.6,97 262.6,97 262.6,94.7 280.2,94.7 280.2,100.7 277.5,100.7 277.5,97 268.8,97 268.7,106.1 
		276.9,106.1 276.9,108.5 268.7,108.5 268.7,118.3 277.7,118.3 277.9,114.3 280.7,114.3 280.4,120.7 262.6,120.7 262.6,118.3 
		265.5,118.3 	"/>
	<path class="st0" d="M300.8,106.8h3.1c3.3,0,5.9-1.4,5.9-5.2c0-3.8-2.7-4.6-6.1-4.6h-2.7L300.8,106.8z M294.8,94.7h8.7
		c4.7,0,9.6,0.7,9.6,6.7c0,4.3-3,6.7-6.1,7v0.1c0.9,0,2.1,0.8,3.3,2.9l2.2,3.8c1.6,2.7,1.9,3.2,3.4,3.2h1.2v2.3h-1.5
		c-2.7,0-3.5-0.3-4.9-2.5l-2.5-4.3c-2.3-3.9-2.9-4.8-5.2-4.8h-2l-0.1,9.2h3v2.3h-9v-2.3h2.8l0.1-21.3h-3V94.7z"/>
	<path class="st0" d="M327.8,114.1h3v3.5c1.2,0.7,3.5,1,5.1,1c3.7,0,6.2-1.7,6.2-4.8c0-6.9-14.3-2.8-14.3-12.1
		c0-3.2,1.9-7.4,9.6-7.4c1.9,0,5.4,0.5,7,1.2v5.2h-2.9v-3.2c-1-0.4-3.1-0.7-4.3-0.7c-2.8,0-5.9,1.1-5.9,4.5
		c0,6.6,14.3,2.5,14.3,12.1c0,5.7-4.9,7.8-9.9,7.8c-4.3,0-6.4-1-7.8-1.3V114.1z"/>
	<polygon class="st0" points="362.1,97 359.2,97 359.2,94.7 368.1,94.7 368.1,97 365.3,97 365.2,118.3 368.1,118.3 368.1,120.7 
		359.2,120.7 359.2,118.3 362,118.3 	"/>
	<polygon class="st0" points="390.4,97 383.3,97 383.1,101 380.3,101 380.5,94.7 403.4,94.7 403.6,101 400.9,101 400.7,97 393.6,97 
		393.4,118.3 396.7,118.3 396.7,120.7 387.4,120.7 387.4,118.3 390.2,118.3 	"/>
	<path class="st0" d="M413.7,94.7h9V97H420c0.3,0.3,0.6,0.7,0.9,1l6.4,8.9l6.3-8.8c0.3-0.4,0.6-0.8,1-1.2h-3.2v-2.3h8.5V97h-2.4
		l-8.9,12.4l-0.1,8.9h2.9v2.3h-8.8v-2.3h2.7l0.1-8.8L416.3,97h-2.7V94.7z"/>
</g>
<g id="Layer_4">
	<g>
		<rect x="40.4" y="115.4" class="st0" width="2.4" height="3.2"/>
		<path class="st0" d="M46.6,119.2v3.2h1.2c0-1,0-2.1,0-3.2H46.6z"/>
		<polygon class="st0" points="43.5,107.6 43.5,110.7 45.9,110.7 45.9,107.6 45.9,107.6 		"/>
		<path class="st0" d="M47.2,104.6l-1.1,1c0.3,0.5,0.4,1,0.5,1.3h1.1C47.7,105.9,47.5,105.2,47.2,104.6z"/>
		<ellipse class="st0" cx="44.5" cy="77.6" rx="0.4" ry="0.4"/>
		<path class="st0" d="M80.8,56.5C80.7,56.4,80.8,56.5,80.8,56.5L80.8,56.5z"/>
		<rect x="43.5" y="111.5" class="st0" width="2.4" height="3.2"/>
		<path class="st0" d="M24.3,56.1c0.3-0.2,0.1-0.6,0.1-0.6c0.4,0.5,0.3-0.5,0.3-0.5c0.4,0.4,0.5-0.1,0.5-0.1s0.1,0.3,0.3,0.1
			c0.2-0.1,0.1-0.3,0.1-0.3c0.1,0.1,0.2,0.3,0.4,0.1c0.1-0.1,0-0.2,0-0.2s0.1,0,0.2,0c0.1,0,0.2,0,0.3-0.1c0-0.1-0.1-0.2-0.1-0.2
			s0.1,0,0.2,0c0.1,0,0.2,0,0.3-0.2c0-0.1-0.2-0.1-0.2-0.1s0.2,0,0.2,0c0.1,0,0.1-0.1,0.2-0.2c0-0.1-0.1-0.1-0.1-0.1s0.2,0,0.2,0
			c0.1,0,0.2-0.1,0.2-0.2c0-0.1-0.2-0.1-0.2-0.1s0.2,0,0.3,0c0.1,0,0.1-0.2,0.1-0.3c0,0,0,0,0-0.1l0.5,0.3c0,0,0.9,3.6,1.3,3.2
			c0.2-0.3,0.1-0.6,0.1-0.6s0.5,0.5,0.6,0.3c0.2-0.2-0.1-0.7-0.1-0.7s0.5,0.5,0.7,0.4c0.3-0.1-0.2-0.8-0.2-0.8s0.8,0.7,0.9,0.3
			c0.1-0.2-0.5-0.8-0.5-0.8s0.8,0.5,0.9,0.3c0.2-0.2-0.5-0.8-0.5-0.8s0.8,0.5,0.9,0.2c0.1-0.3-0.6-0.7-0.6-0.7s0.7,0.4,0.9,0.1
			c0.3-0.3-0.6-0.7-0.6-0.7s0.7,0.2,0.8,0.1c0.1-0.1-0.3-0.4-0.7-0.5c0,0,0.8,0.1,0.8-0.1c0.1-0.3-0.5-0.5-0.5-0.5s0.5,0,0.6-0.2
			c0.1-0.7-3.4-0.2-3.4-0.2L29,51.2c0,0,0,0,0.1,0c0.1,0,0.2-0.2,0.2-0.3c0-0.1-0.1-0.3-0.1-0.3s0.1,0.1,0.2,0.1
			c0.1,0,0.1-0.1,0.1-0.2c0-0.1-0.1-0.3-0.1-0.3s0.1,0.1,0.2,0.1c0.1,0,0.1-0.2,0.1-0.3c0-0.1-0.1-0.2-0.1-0.2s0.1,0,0.2,0
			c0.1,0,0-0.1,0-0.2c0-0.1-0.2-0.3-0.2-0.3s0.2,0.1,0.2,0.1c0.1-0.1,0.1-0.2,0.1-0.3c0-0.1-0.1-0.2-0.1-0.2s0.3,0.1,0.2-0.2
			c-0.1-0.3-0.2-0.3-0.2-0.3s0.3-0.1,0.2-0.4c0-0.1-0.2-0.1-0.2-0.1s0.3-0.2,0.3-0.4c0-0.2-0.3-0.2-0.3-0.2s0.6,0,0.7-0.2
			c0.1-0.1-0.1-0.2-0.1-0.2s0.6-0.2,0.7-0.5c0-0.1-0.2-0.2-0.2-0.2s0.6-0.1,0.7-0.4c0-0.1-0.3-0.1-0.3-0.1s0.3,0,0.5-0.4
			c0-0.1-0.3-0.1-0.3-0.1s0.7-0.3,0.7-0.6c0-0.1-0.3-0.1-0.3-0.1s0.5-0.1,0.9-0.7c0.1-0.2-0.4,0.1-0.4,0.1s0.7-0.6,0.6-0.7
			c-0.1-0.1-1.2,0.5-1.2,0.5s1.4-0.9,0-0.4c-1,0.4-1.5,0.7-2.8,1.4c-2.1,1.2-2.3,1.6-2.3,1.8c-0.1,0.4-0.1,1.2-0.1,1.5
			c0,0.3-0.3,0.8-0.3,0.8c-0.2,0.2-1-0.4-1.3-0.4c-0.4,0-0.6,0.1-0.6,0.1s-0.3,0-0.4,0.1c-0.1,0-0.2,0.3-0.2,0.3
			c0.2-0.2,0.6,0.1,0.6,0.1s-0.4,0-0.4,0c-0.1,0-0.1,0.1-0.1,0.1s0.4,0.1,0.5,0.1c0.4,0.5,0.5,0.4,0.5,0.5c0,0.6,0.2,0.6,0.1,0.8
			c-0.6,1-1.8,1.2-2,1.5c-0.4,0.4-0.4,0.5-0.5,0.8c-0.4,1.3-1.4,6.1-1,5.8c0.1-0.1,0.2-0.6,0.2-0.6s-0.1,1.3,0,1.2
			c0.2-0.1,0.3-0.7,0.3-0.7s0,0.4,0.1,0.3c0.3-0.2,0.3-0.7,0.3-0.7s0,0.4,0.1,0.3c0.3-0.3,0.2-0.5,0.2-0.5s0.1,0.2,0.2,0.2
			c0.2-0.2,0.2-0.5,0.2-0.5s0.1,0.3,0.2,0.1c0.3-0.5,0.2-0.8,0.2-0.8s0.1,0.3,0.3,0.1c0.1-0.2,0.2-0.6,0.2-0.6s0.1,0.2,0.2,0.1
			c0.1-0.1,0.1-0.6,0.1-0.6S24.3,56.1,24.3,56.1z"/>
		<path class="st0" d="M81.7,56.3C81.7,56.4,81.8,56.3,81.7,56.3L81.7,56.3z"/>
		<path class="st0" d="M40.9,80l2.4-1.3c0,0,0.7-0.4,0.3-0.7c-0.3-0.2-0.8,0.2-0.8,0.2l-2.1,1.7c0,0-0.2,0.2-0.1,0.3
			C40.7,80.1,40.9,80,40.9,80z"/>
		<path class="st0" d="M43.5,104.7v2.1h2.3C45.8,106.2,45.3,104.9,43.5,104.7z"/>
		<path class="st0" d="M46.6,107.6v3.1h1.2c0-1.2,0-2,0-2.1c0-0.4,0-0.7,0-1H46.6L46.6,107.6z"/>
		<path class="st0" d="M40.5,106.9h2.4v-2.1c-0.7,0.1-1.3,0.3-1.7,0.7C40.7,105.9,40.5,106.5,40.5,106.9z"/>
		<path class="st0" d="M47.9,111.5h-1.2v3.2h1.2C47.9,113.4,47.9,112.4,47.9,111.5z"/>
		<rect x="40.4" y="111.5" class="st0" width="2.4" height="3.2"/>
		<rect x="43.5" y="115.4" class="st0" width="2.4" height="3.2"/>
		<rect x="40.4" y="107.6" class="st0" width="2.4" height="3.1"/>
		<rect x="43.5" y="119.2" class="st0" width="2.4" height="3.2"/>
		<polygon class="st0" points="58.7,67 58.7,67 58.7,67 		"/>
		<path class="st0" d="M46.6,118.5h1.2c0-1.1,0-2.2,0-3.2h-1.2V118.5z"/>
		<path class="st0" d="M46.9,103.9c-0.8-1.6-2.1-2.2-3.4-2.3v2.4c1,0.1,1.7,0.5,2.2,0.9L46.9,103.9z"/>
		<path class="st0" d="M46.4,78l3.4-0.3c0,0,0.3,0,0.3-0.2c0-0.2-0.3-0.2-0.3-0.2L46.2,77c0,0-1,0-0.9,0.6
			C45.5,78.1,46.4,78,46.4,78z"/>
		<path class="st0" d="M10.2,18.6c0,1.8,0,55.5,0,55.5v11.2v4.3c0,5,2.1,10.2,6.4,15.6c3.5,4.5,8.4,9,14.6,13.5
			c7.6,5.5,15.3,9.6,19.2,11.5l1.4,0.7v0l0,0l0,0v0l1.5-0.8c3.9-1.9,11.5-6,19.2-11.5c6.2-4.5,11.1-9.1,14.6-13.5
			c4.2-5.4,6.3-10.6,6.3-15.6v-4.3V74.1c0,0,0-53.6,0-55.5c-10-4.1-26.5-8-41.5-8C37,10.5,20.3,14.4,10.2,18.6z M36,14.8
			c1.1-0.2,2.3-0.3,3.4-0.4c0.9-0.1,1.2-0.1,1.6,0.1c0.7,0.3,1,0.9,1,1.7c0,1.1-1,2-1.8,2.1c0,0,0,0,0,0c0.4,0,0.6,0.1,1,0.7
			c0.2,0.4,0.5,0.7,0.7,1.1c0.2,0.4,0.4,0.4,0.6,0.4c0.1,0,0.2,0,0.3,0c0,0.4,0,0.7,0,1.1c-0.4,0-0.8,0.1-1.2,0.1
			c-0.4,0-0.7-0.1-1.3-1c-0.3-0.5-0.6-1-0.9-1.5c-0.2-0.2-0.4-0.3-0.6-0.3c-0.1,0-0.3,0-0.4,0c0,0.7,0,1.3,0,2
			c0.2,0,0.5-0.1,0.7-0.1c0,0.4,0,0.7,0,1.1c-1,0.1-2,0.2-3,0.4c0-0.4,0-0.7,0-1.1c0.2,0,0.5-0.1,0.7-0.1c0-1.8,0-3.6,0-5.4
			c-0.3,0-0.5,0.1-0.8,0.1C36,15.6,36,15.2,36,14.8z M24.7,27.6c3-0.8,6.5-1.5,10.4-2.2c-1.7,1.3-3.6,2.4-5.6,3.2
			c0,0-0.1-0.1-0.1-0.1c-1.3-1.3-3.1,0.5-3.1,0.5C25.7,28.7,25.1,28.1,24.7,27.6z M26.1,29.2c0,0,0,0.2,0,0.4
			c-2.8,0.6-5.6,0.8-8.5,0.3c0-0.1,0-0.2,0-0.3c1.8-0.6,4.1-1.3,6.8-2C24.8,28.2,25.8,29.1,26.1,29.2z M22.9,24
			c0.2-0.1,0.4-0.1,0.6-0.2c0.9-2.4,1.8-4.8,2.7-7.2c0.6-0.1,1.2-0.3,1.8-0.4c0.8,2,1.7,4,2.5,6c0.2,0,0.4-0.1,0.6-0.1
			c0,0.4,0,0.7,0,1.1c-1,0.2-2,0.4-3,0.6c0-0.4,0-0.7,0-1.1c0.2,0,0.4-0.1,0.6-0.1c-0.2-0.5-0.3-0.9-0.5-1.4
			c-0.9,0.2-1.8,0.4-2.6,0.6c-0.2,0.5-0.4,1.1-0.5,1.6c0.2-0.1,0.5-0.1,0.7-0.2c0,0.4,0,0.7,0,1.1c-0.9,0.2-1.9,0.5-2.8,0.7
			C22.9,24.8,22.9,24.4,22.9,24z M13.2,27c0.2-0.1,0.5-0.2,0.7-0.3c0-1.8,0-3.6,0-5.4c-0.2,0.1-0.5,0.2-0.7,0.3c0-0.4,0-0.7,0-1.1
			c1-0.4,2-0.7,3.1-1.1c1.8-0.6,2.7-0.1,2.7,1.4c0,1.4-1,2.7-2.5,3.2c-0.4,0.1-0.7,0.2-1,0.3c0,0.6,0,1.2,0,1.8
			c0.2-0.1,0.5-0.2,0.7-0.2c0,0.4,0,0.7,0,1.1c-1,0.3-2,0.7-3,1C13.2,27.8,13.2,27.4,13.2,27z M16.4,30.7c-0.1,2.9-1.3,5.4-2.9,7.7
			v-7.3c0,0,0.6-0.2,1.8-0.7C15.7,30.5,16,30.6,16.4,30.7z M36.1,104.4c0,0,0-7.6,8.2-9l-0.1-1.2l0.4,0l0.3,3l-0.3,0l-0.1-0.7
			c0,0-6.4,0.1-7.9,7.8H36.1z M51.8,127.6c0,0-1.5-0.7-3.9-2.1c0-0.8,0-1.6,0-2.4h-1.2v1.8l-0.7-0.4v-1.4h-2.2
			c-0.4-0.2-0.5-0.3-0.9-0.6l0-0.5v-2.9h-2.4v1.9c-0.2-0.2-0.5-0.3-0.7-0.5v-1.4h-1.1v-0.7h1.1v-3.2h-1.1v-0.7h1.1v-3.2h-1.1v-0.7
			h1.1v-3.2h-1.1v-0.7h1.2c0.1-0.5,0.2-1.3,0.9-1.9c0.5-0.6,1.3-0.9,2.2-0.9v-2.5c-1.6,0-3.1,0.7-3.2,0.7c1.7-4.6,12.3-5.9,12.3,5
			C51.9,107.7,51.9,121.4,51.8,127.6C51.9,127.6,51.8,127.6,51.8,127.6z M54.9,105.7l-0.5,0c-0.2-7.8-7.5-9-7.5-9l0.1-1.2
			C55.8,97.6,54.9,105.7,54.9,105.7z M57.4,88.2H31.7l0.6-0.9h25.4l1.8,2.4L57.4,88.2z M46.1,69.7c-1.7-0.3-3.4-0.1-4.9,0.7
			c1.6-1.1,3.5-1.5,5.5-1.1c3.9,0.8,6.5,4.6,5.7,8.5c-0.1,0.5-0.3,1-0.5,1.5c0.1-0.2,0.1-0.4,0.1-0.6C52.9,74.6,50.2,70.6,46.1,69.7
			z M43.9,71.2c3.3-0.4,6.3,2.1,6.7,5.6c0.4,3.5-2,6.6-5.3,7c-3.3,0.4-6.3-2.1-6.7-5.6C38.2,74.7,40.6,71.6,43.9,71.2z M90.2,89.6
			c0,4.2-1.9,8.8-5.6,13.6c-5.2,6.6-14.1,13.1-21.3,17.7V87.3h1.5l1-3.5h-7.9l0-16.3H32.1v16.4h-0.8V68.6l-4.1,3.9V84l-2,0l-8,7.1
			l2.9,2.5l6.9-6.4v23.9c-0.3-0.2-0.6-0.5-0.8-0.7V89.1l-5.5,5.1v10.7c-0.5-0.5-1-1.1-1.4-1.6c-3.9-4.7-5.6-9.4-5.6-13.6V39.7
			c0.8-1,1.5-2.1,2.1-3.2c0.2,0.7,0.5,1.5,0.7,1.7c0,0-2.8,2,0.2,3.9c2.3,1.5,2.7,2.2,2.7,2c-0.1-1,1-3,0.4-4.9
			c-0.5-1.7-3-1.1-3-1.1c-0.4-0.5-0.6-1.4-0.7-2c0.8-1.5,1.4-3.1,1.6-4.8c0.2,0.6,1,1.9,1.2,2.1c0,0-2.4,2.5,0.8,3.8
			c2.5,1,3,1.7,3,1.5c-0.1-0.5,0-1.4,0-2.3c0.4,0.2,0.9,0.4,1,0.4c0,0-0.4,2.9,2.4,2.2c2.3-0.5,2.9-0.3,2.8-0.4
			c-0.6-0.6-1.2-2.4-2.7-3.2c-1.4-0.7-2.3,1-2.3,1c-0.4,0-0.9-0.3-1.3-0.5c0-0.7-0.1-1.4-0.5-2.1c-0.8-1.6-3.1-0.6-3.1-0.6
			c-0.7-0.5-1.2-2.1-1.3-2.4c2.8,0.4,5.7,0.2,8.5-0.5c0.2,0.9,0.7,2,2.5,2.1c2.7,0.1,2.9,0.6,2.8,0.5c-0.4-0.7-0.6-2.5-1.5-3.8
			c1.5-0.6,2.9-1.3,4.2-2.2c-0.1,0.6-0.1,1.2-0.1,1.4c0,0-2.8,0.6-1.2,3.1c1.3,1.9,1.3,2.6,1.4,2.5c0.3-0.8,1.8-2,2-3.7
			c0.2-1.5-1.7-1.8-1.7-1.8c-0.2-0.5,0-1.4,0.1-1.8c0.7-0.5,1.4-1,2.1-1.5c2.6-0.4,5.3-0.7,8.1-0.9c-0.5,0.4-1.2,1.1-1.4,1.3
			c0,0-2.9-1.7-3.5,1.7c-0.4,2.7-1,3.3-0.8,3.3c0.9-0.4,3.2-0.3,4.7-1.6c1.4-1.2-0.1-3.2-0.1-3.2c0.3-0.7,1.3-1.3,1.7-1.6
			c0,0,0.1,0,0.1,0c0.1,0.5,0.6,1.8,0.7,2c0,0-2.3,1.7,0.2,3.3c2,1.2,2.3,1.9,2.3,1.7c0-0.8,0.8-2.6,0.3-4.2
			c-0.4-1.5-2.3-0.9-2.3-0.9c-0.4-0.5-0.6-1.5-0.7-1.9c1-0.1,2.1-0.1,3.1-0.1c0.6,0.6,2,1.8,2.3,1.9c0,0-1.6,3.7,2.4,3.8
			c3.2,0.1,4,0.7,3.9,0.5c-0.6-1-0.8-3.7-2.5-5.3c-1.5-1.5-3.7,0.6-3.7,0.6c-0.7-0.2-1.5-1.1-1.9-1.6c0.6,0,1.2,0,1.7,0
			c4,0,7.8,0.3,11.5,0.7c-0.4,0.7-0.9,2.2-1,2.6c0,0-4-0.5-3,3.4c0.8,3.1,0.5,4.1,0.6,3.9c0.8-0.9,3.3-1.8,4.4-3.8
			c1-1.9-1.4-3.4-1.4-3.4c0-0.8,0.7-1.9,1.1-2.6c0.1,0,0.2,0,0.4,0c0.3,0.7,1.7,2.5,2,2.8c0,0-2.8,3.8,1.8,5
			c0.3,0.1,0.5,0.1,0.7,0.2c-0.3,0.8-0.7,2.1-0.7,2.5c0,0-3.8-0.1-2.4,3.7c1.1,3,0.9,4,1,3.8c0.7-1,3.1-2.1,3.9-4.3
			c0.8-2-2-3.2-2-3.2c-0.1-0.7,0.4-1.7,0.7-2.3c2.5,0.8,3.1,1.4,3,1.2c-0.5-1.3,0.1-4.4-1.4-6.7c-1.4-2.1-4.3-0.4-4.3-0.4
			c-0.7-0.4-1.3-1.5-1.7-2.2c3.5,0.5,6.7,1,9.6,1.7c0.2,0.8,0.4,1.8,0.6,2c0,0-3,2.2,0.5,4.4c0.1,0.1,0.2,0.1,0.3,0.2
			c-0.1,0.6-0.3,1.4-0.6,1.9c0,0-2.2-0.6-2.7,1.2c-0.6,1.9,0.5,4,0.4,4.9c0,0.2,0.3-0.5,2.4-1.8c0.3,0.8,0.7,1.7,1.1,2.5
			c0.1,0.1,0,0.1,0.1,0.2c0.3,0.6,0.6,1.1,0.8,1.7c0,0,0,0,0,0c0,0.5-0.2,1.9-1,4c-0.4-0.1-2.2,0-2.6,0c0,0-1.1-3.2-3.7-1
			c-2.1,1.8-2.9,1.9-2.7,2c1,0.2,2.6,1.8,4.6,1.8c1.8,0,1.9-2.5,1.9-2.5c0.7-0.3,1.9-0.2,2.4-0.1c-0.9,2-2.4,3.9-4.2,5.1
			c-0.1,0-0.2,0.1-0.3,0.1c0,0-1.6-1.9-3.1-0.8c-1.6,1.2-1.9,3.5-2.5,4.3c-0.1,0.1,0.1-0.3,2.8-0.2c2.5,0.1,2.9-2,2.9-2.7
			c2-1.1,3.6-3,4.8-5.1c0.3,0.5,0.6,1.3,0.5,2c0,0-2.3,0.9-1.7,2.6c0.7,1.9,2.7,2.9,3.2,3.8c0.1,0.2,0-0.7,1-3.2
			c1.3-3.2-2.1-3.2-2.1-3.2c0-0.3-0.4-1.8-0.7-2.3c0.5-1.1,0.9-2.3,1.2-3.4c1.9,3.8,3.7,7.9,2.7,11.5c-0.2,0.6-0.5,1.7-0.8,2.2
			c0,0-2.8-1-3.6,0.9c-0.3,0.6-0.4,1.3-0.4,2c-0.5,0.2-1.2,0.5-1.4,0.6c0,0-1.8-2.3-3.3,0.3c-1.2,2-1.8,2.4-1.6,2.3
			c0.8-0.1,2.6,0.7,4.2,0.2c1.5-0.5,0.8-2.3,0.8-2.3c0.3-0.3,0.8-0.5,1.2-0.6c0,1.4,0.4,2.6,0.3,3.4c0,0.2,0.5-0.6,3.4-2
			c3.7-1.8,0.7-4.5,0.7-4.5c0.2-0.3,1.1-1.8,1.4-2.6c0.3-1,0.3-2,0.3-3c0.5,0.6,1,1.2,1.5,1.9c-0.8,0.5-1.4,1.5-0.5,3.4
			c1.4,2.9,1.3,3.9,1.4,3.7c0.3-0.6,1.1-1.2,1.9-2.1c0.7,1.7,1.2,3.4,1.4,5.2c-0.6,0.2-1.9,0.8-2.2,1c0,0-2.7-1.7-4,1
			c-1.2,2.4-1.8,2.4-1.6,2.4c1-0.1,3.1,0.7,5-0.1c1.7-0.7,0.8-3,0.8-3c0.5-0.5,1.5-0.8,2-0.9c0.1,1.6,0,3.2-0.5,4.8c0,0,0,0,0,0
			c-0.6-0.1-2.4-0.1-2.7,1.3c-0.4,2,0.8,3.9,0.8,4.9c0,0.2,0.3-0.6,2.5-2.2c2.8-2-0.1-3.9-0.1-3.9c0,0,0,0,0,0c0,0,0,0,0,0
			c0.9-2.9,0.9-6.1,0-8.8c0.8,0.5,1.6,1,2.4,1.4V89.6z M85.7,46.9c-0.9-0.2-1.7-0.5-2.5-1.1c0.4-0.3,1.1-1,2.4-1.8
			c-0.1,0.1-0.1,0.2-0.2,0.3C85.3,44.5,85.5,46,85.7,46.9z M85.5,47.6c-0.8,0.5-2.7,2.1-0.3,4.3c0.2,0.1,0.3,0.3,0.4,0.4
			c-0.2,0.8-0.5,2-0.5,2.3c0,0-0.5,0-1.1,0.3c-0.7-1-1.5-1.9-2.3-2.8c-0.6-3.1-2.3-6.4-3.8-9.4c1.8,1,2.8,2.6,4.5,3.9
			C83.4,47.2,84.4,47.5,85.5,47.6z M90.2,62.6c-0.9-0.5-1.9-1.1-2.8-1.8c0,0,0,0,0,0c-0.2-0.4-0.3-0.8-0.5-1.3c0.4-0.6,0.8-1.2,1-2
			c0.6-2.1-2.3-2.9-2.3-2.9c-0.1-0.6,0.1-1.4,0.3-2c1.7,1.7,1.9,2.4,1.9,2.2c0.2-1.2,1.8-3.3,1.6-5.6c-0.1-0.9-0.6-1.3-1.2-1.6
			c0.7-0.1,1.3-0.1,1.9-0.2V62.6z M90.2,46.9c-1.4,0.2-2.7,0.3-4,0.1c-0.3-0.9-0.3-2.5-0.3-3.1c0.1,0,0.1-0.1,0.2-0.1
			c3.4-2.2,0.2-4.5,0.2-4.5c0.2-0.3,0.9-2,1.1-2.9c0.7,1.1,1.6,2.1,2.7,2.7V46.9z M90.2,38.2c-1.1-0.7-1.9-1.9-2.5-3.2
			c0.1-1-0.1-2-0.1-2c0.7-0.7,2-1.3,2.6-1.5V38.2z M85,23.9c0.5,0.2,1,0.3,1.6,0.5c0,0.3,0,0.7,0,1c0.4,0.3,0.8,0.5,1.3,0.6
			c0.9,0.3,1.3,0,1.3-0.6c0-0.4-0.2-0.8-1.2-1.3c-0.3-0.2-0.5-0.3-0.8-0.5c-1.5-0.9-2.1-1.7-2.1-2.8c0-1.2,0.8-2,3-1.4
			c0.9,0.3,1.8,0.8,2.4,1.2c0,0.6,0,1.2,0,1.8c-0.5-0.2-0.9-0.3-1.4-0.5c0-0.3,0-0.6,0-0.9c-0.3-0.2-0.6-0.4-1-0.5
			c-1-0.3-1.4,0.1-1.4,0.5c0,0.6,0.4,0.8,0.9,1.1c0.3,0.2,0.6,0.3,0.9,0.5c1.1,0.7,2.3,1.5,2.3,3c0,1.5-0.9,2.2-3.1,1.5
			c-0.8-0.3-1.7-0.6-2.7-1.3C85,25.3,85,24.6,85,23.9z M89.7,30.8c-0.9,0.4-2.4,1.4-2.8,1.6c0,0-0.4-0.5-1.1-0.9
			c-0.4-1-1-1.8-1.8-2.6C86.9,29.8,88.8,30.5,89.7,30.8z M84.8,31.2c-1-0.2-2.1,0.2-3.2,2.1c-1.8,3.3-2.8,3.9-2.5,3.9
			c1.4-0.2,4.3,1.1,6.9,0.1c0.3-0.1,0.5-0.2,0.7-0.4c-0.1,0.7-0.4,1.6-0.8,2.2c0,0-2.9-0.7-3.5,1.3c-0.6,1.9,0.2,3.9,0.4,5.2
			c-0.2-0.2-0.4-0.3-0.5-0.5c-1.5-1.6-2.7-2.7-4.8-3.4c0,0,0,0,0,0c-0.4-0.9-0.8-1.8-1.1-2.7c0,0,0-0.1-0.1-0.1
			c2.2-1.7-0.2-3.5-0.2-3.5c0.1-0.2,0.4-1,0.7-1.7c1.8,1.3,2.1,1.9,2.1,1.7c-0.1-1.2,1.1-3.6,0.5-5.8c-0.6-2-3.3-1.4-3.3-1.4
			c-0.3-0.3-0.4-0.8-0.5-1.4c2.6,0.6,4.9,1.2,6.8,1.7C83.4,29.2,84.3,30.1,84.8,31.2z M72.1,15.5c1,0.2,2,0.4,3,0.6
			c0,0.4,0,0.7,0,1.1c-0.2,0-0.5-0.1-0.7-0.1c0,1.2,0,2.4,0,3.6c0,1.1,0.3,1.9,1.6,2.1c1,0.2,1.7,0,1.7-1.4c0-1.2,0-2.4,0-3.6
			c-0.3-0.1-0.6-0.1-0.8-0.2c0-0.4,0-0.7,0-1.1c1,0.2,2,0.5,3,0.7c0,0.4,0,0.7,0,1.1c-0.2-0.1-0.5-0.1-0.7-0.2c0,1.2,0,2.3,0,3.5
			c0,2.4-1,2.9-3.2,2.4c-2.5-0.5-3.1-1.7-3.1-3.4c0-1.3,0-2.6,0-3.9c-0.2,0-0.5-0.1-0.7-0.1C72.1,16.3,72.1,15.9,72.1,15.5z M60,14
			c2.4,0.2,4.7,0.4,7,0.7c0,0.7,0,1.4,0.1,2.2c-0.4-0.1-0.9-0.1-1.3-0.2c0-0.4,0-0.7-0.1-1.1c-0.5-0.1-0.9-0.1-1.4-0.2
			c0,1.8,0,3.6,0,5.4c0.2,0,0.5,0,0.7,0.1c0,0.4,0,0.7,0,1.1c-1-0.1-2-0.2-3-0.3c0-0.4,0-0.7,0-1.1c0.2,0,0.5,0,0.7,0.1
			c0-1.8,0-3.6,0-5.4c-0.5,0-0.9-0.1-1.4-0.1c0,0.3,0,0.7-0.1,1c-0.4,0-0.9-0.1-1.3-0.1C59.9,15.4,59.9,14.7,60,14z M55.2,20.3
			c0.2,0,0.4,0,0.6,0c0,0.4,0,0.7,0,1.1c-1,0-2.1-0.1-3.1-0.1c0-0.4,0-0.7,0-1.1c0.2,0,0.4,0,0.6,0c-0.2-0.5-0.3-1-0.5-1.5
			c-0.9,0-1.8,0-2.7,0c-0.2,0.5-0.4,1-0.6,1.5c0.3,0,0.5,0,0.7,0c0,0.4,0,0.7,0,1.1c-1,0-1.9,0-2.9,0.1c0-0.4,0-0.7,0-1.1
			c0.2,0,0.4,0,0.6,0c0.9-2.2,1.8-4.4,2.7-6.6c0.6,0,1.2,0,1.8,0C53.5,15.9,54.4,18.1,55.2,20.3z"/>
		<path class="st0" d="M52.5,17.6c-0.2-0.5-0.4-1.1-0.6-1.6c-0.1-0.3-0.2-0.7-0.3-1.1c0,0,0,0,0,0c-0.1,0.4-0.2,0.8-0.3,1.1
			c-0.2,0.5-0.4,1.1-0.6,1.6C51.3,17.6,51.9,17.6,52.5,17.6z"/>
		<path class="st0" d="M40.5,16.5c0-0.7-0.4-1.1-1.4-1c-0.2,0-0.5,0.1-0.7,0.1c0,0.7,0,1.5,0,2.2c0.3,0,0.5-0.1,0.8-0.1
			C40.1,17.7,40.5,17.3,40.5,16.5z"/>
		<path class="st0" d="M81.7,91.3h2.9l-1.3,2.4c-1,1.9-1.6,2.4-2.1,2.8l1,0.8c1.2-0.8,2.2-2.6,2.8-3.8l1.2-2.3v-0.9h-4.5V91.3z"/>
		<path class="st0" d="M17.5,21.4c0-0.8-0.5-1.1-1.2-0.8c-0.3,0.1-0.5,0.2-0.8,0.3c0,0.8,0,1.6,0,2.5c0.3-0.1,0.6-0.2,0.8-0.3
			C17.1,22.7,17.5,22.1,17.5,21.4z"/>
		<path class="st0" d="M27.2,18.7c-0.1-0.3-0.2-0.7-0.3-1.1c0,0,0,0,0,0c-0.1,0.4-0.2,0.8-0.3,1.2c-0.2,0.6-0.4,1.2-0.6,1.7
			c0.6-0.1,1.2-0.3,1.8-0.4C27.5,19.7,27.3,19.2,27.2,18.7z"/>
		<path class="st0" d="M95.8,11.1c-0.8-0.3-20.7-8-44-8c-23.3,0-43.2,7.6-44,8l-4.5,1.8v77.8c0,6.1,2.6,12.4,7.6,18.7
			c4,5,9.6,10,16.5,15c8.4,6,16.9,10.4,21.2,12.5l3.2,1.5l3.2-1.5c4.3-2.1,12.8-6.5,21.2-12.5c7-5,12.5-10,16.5-15
			c5.1-6.3,7.6-12.6,7.6-18.7V12.9L95.8,11.1z M97.1,89.7c0,5.8-2.4,11.8-7.1,17.8c-3.7,4.8-8.9,9.5-15.4,14.3
			c-7.9,5.7-15.8,9.9-19.8,11.9l-3,1.5l-2.9-1.5c-4-2-11.9-6.2-19.8-11.9c-6.5-4.7-11.7-9.5-15.4-14.3c-4.7-6-7.1-12-7.1-17.8v-74
			l4.2-1.7c0.8-0.3,19.3-7.6,41.1-7.6c21.8,0,40.3,7.3,41.1,7.6l4.2,1.7V89.7z"/>
		<path class="st0" d="M69,90.3h-1l-2.1,1.5l0.4,0.8c0.5-0.2,0.9-0.4,1.3-0.6v2.8h-1.2v1.2h3.4v-1.2H69V90.3z"/>
		<path class="st0" d="M44.9,53.2l1.3,0c0-1.4-1-2.4-2.2-2.8c0.6-0.5,1-1.2,1-2c0-1.3-0.6-2.4-1.8-2.6l-0.8-10.4l-0.8,10.4
			c-1.3,0.2-1.9,1.3-1.9,2.6c0,0.8,0.4,1.6,1,2c-1.3,0.4-2.2,1.3-2.2,2.7h1.1C39,59,35.3,62,32.8,63.4h-2.5l-6,5.7l2.7,2.4l4.2-4h0
			l0.8-0.9H32l0,0v0h26.7l0.7-3.3h-6.3C53.2,63.4,44.9,60.5,44.9,53.2z M36.5,63.4c-0.6,0-1.2,0-1.2,0s5-3.3,4.7-10.4
			c0.5,0,0.4,0,0.8,0C40.9,55.6,40.1,60.7,36.5,63.4z"/>
		<path class="st0" d="M79.8,90.3h-1l-2.1,1.5l0.4,0.8c0.5-0.2,0.9-0.4,1.3-0.6v2.8h-1.2v1.2h3.4v-1.2h-0.9V90.3z"/>
		<path class="st0" d="M73.2,90.1c-1.3,0-2.4,0.9-2.4,2.3c0,1.3,0.8,2.3,2.2,2.3c0.5,0,1.1-0.2,1.4-0.6l0,0c-0.2,1.4-1.1,2-2.6,2
			c-0.2,0-0.4,0-0.6,0l-0.1,1c0.3,0.1,0.7,0.1,1,0.1c2.1,0,3.8-1.3,3.8-3.9C75.9,91.5,75,90.1,73.2,90.1z M74.4,93.2
			c-0.2,0.3-0.6,0.4-1,0.4c-0.7,0-1.2-0.4-1.2-1.2c0-0.7,0.4-1.1,1-1.1c0.8,0,1.2,0.7,1.2,1.6C74.4,93,74.4,93.1,74.4,93.2z"/>
	</g>
</g>
</svg>
