<?xml version="1.0" encoding="UTF-8"?>
<svg width="217px" height="69px" viewBox="0 0 217 69" version="1.1" xmlns="http://www.w3.org/2000/svg" xmlns:xlink="http://www.w3.org/1999/xlink">
  <defs>
    <polygon id="path-1" points="0 0.171644628 96.9566751 0.171644628 96.9566751 68.9996831 0 68.9996831"></polygon>
  </defs>
  <g stroke="none" stroke-width="1" fill="none" fill-rule="evenodd">
    <path d="M96.3860473,26.811062 C95.4360588,26.4677727 94.6626118,26.1940537 93.6947967,25.8576074 C93.0311849,25.6272273 92.0541689,25.8028636 91.5101683,26.243095 C83.2817271,32.8978884 74.5765665,38.801095 65.5994056,44.4146157 C65.0048003,44.7864174 64.2123765,44.7966818 63.8282407,44.4408471 C63.44468,44.0855826 63.616621,43.5050702 64.2146767,43.1389711 C73.9192803,37.1833017 83.1833929,30.7491942 91.9213316,23.4637066 C92.4595817,23.0154917 92.3491714,22.4800289 91.6775089,22.2741694 C90.6556387,21.9616736 89.832162,21.7153264 88.7924652,21.4113843 C88.1179274,21.2146488 87.1334357,21.4187975 86.5900101,21.8607397 C78.3960722,28.5315 69.7018376,34.4204504 60.7511292,40.043095 C60.1576739,40.4166074 59.3687005,40.4508223 58.9885901,40.1240702 C58.6084797,39.7967479 58.7809958,39.2339132 59.3756011,38.8621116 C66.5746965,34.3554421 73.5874744,29.6451942 80.348954,24.5129628 C80.906756,24.0892686 80.8176227,23.5606488 80.1517107,23.3382521 C79.1620435,23.006938 78.3667444,22.7451942 77.3765022,22.4235744 C76.70829,22.2063099 75.720348,22.3819463 75.1659964,22.8102025 C73.6501553,23.9809215 72.1107369,25.1351033 70.5454412,26.2721777 C70.3096692,26.4438223 69.9514109,26.4147397 69.7472669,26.2060289 C62.564273,18.8583843 57.8028297,11.0659463 55.6527045,1.12823554 C55.4566112,0.219830579 54.6969655,-0.0960867769 53.9166178,0.417706612 C52.4663328,1.3728719 50.98672,2.30522727 49.4789296,3.21477273 C49.2282063,3.36588843 49.1327474,3.69663223 49.2644346,3.95609504 C51.7889197,8.93378926 53.4473741,13.1673099 51.190864,17.7389876 C49.7474796,20.6655 47.9809151,24.6943017 49.3817456,28.2788802 C49.4875554,28.5497479 49.8078602,28.664938 50.0769853,28.5508884 C55.0523486,26.4438223 61.1197385,25.4960702 65.5551265,29.1724587 C65.7793974,29.3583595 65.7569703,29.6508967 65.5142977,29.8145579 C61.4170412,32.5665744 57.2680299,35.2142355 53.0523123,37.7854835 C52.5807684,38.0945579 52.0856473,38.3990702 51.5709744,38.6950289 C51.3179509,38.8404421 51.061477,39.1848719 51.0010964,39.4688554 C49.2213056,47.922781 47.5904538,56.7000372 48.0280695,65.3621033 C48.0424459,65.6517893 48.2753426,65.7943512 48.5450427,65.6797314 C64.4584994,58.8994835 79.2005721,50.393095 92.8684447,39.8571942 C93.4233714,39.4295083 93.3670162,38.8159215 92.7448082,38.4914504 C91.8304731,38.0147231 91.099005,37.637219 90.1938707,37.1753182 C89.5693626,36.8565496 88.6055728,36.9375248 88.0408702,37.352095 C82.346115,41.5303017 76.5202475,45.4667231 70.5051874,49.1778967 C69.9082819,49.5451364 69.1112576,49.5246074 68.7236716,49.1368388 C68.3360855,48.7496405 68.5051512,48.1434669 69.1026318,47.7767975 C78.7692819,41.839376 87.9396608,35.3585083 96.6131934,28.0644669 C97.1491433,27.6134008 97.0462087,27.0494256 96.3860473,26.811062 M8.98193383,20.8725 C9.46497881,21.6537397 9.8772922,22.2838636 10.3994408,23.0400124 C10.7973779,23.6148223 11.67951,23.9370124 12.3592233,23.7602355 C18.4766429,22.1732355 24.3864682,20.2532107 30.2606402,17.9345826 C30.913901,17.6768306 31.6298426,17.834219 31.8713651,18.2875661 C32.1128876,18.7409132 31.7908576,19.3185744 31.1387469,19.5768967 C21.2472509,23.4939298 11.1838139,26.2014669 0.697712466,28.0336736 C0.00592305151,28.1539959 -0.210297081,28.6968719 0.225593506,29.2437397 C0.867353262,30.0477893 1.40962875,30.6887479 2.1221201,31.4808223 C2.58963863,32.0014587 3.53560171,32.3133843 4.22566596,32.1810868 C14.343158,30.2399628 24.0546623,27.5501033 33.5257942,23.5053347 C34.1715793,23.2293347 34.9133984,23.3359711 35.1940245,23.7454091 C35.4752257,24.1542769 35.1894241,24.7096983 34.543639,24.9845579 C24.1662227,29.4016983 13.516231,32.3761116 2.41597246,34.4016322 C1.7247581,34.527657 1.56029278,35.0317562 2.05713905,35.5250207 C2.90361786,36.3649959 3.5988576,37.0127975 4.53159445,37.8288223 C5.0583435,38.2901529 6.0485857,38.5422025 6.73577469,38.3950785 C17.3092842,36.1317645 27.4635797,33.080938 37.271693,28.529219 C37.9077022,28.2338306 38.6719484,28.2897149 38.9893779,28.655814 C39.3073825,29.0219132 39.0589594,29.561938 38.4241003,29.8613182 C30.5751944,33.5599463 22.5393962,36.3627149 14.1533904,38.6106322 C13.4748272,38.7931116 13.3644169,39.293219 13.9153182,39.7254669 C14.8612813,40.4690702 15.6255274,41.0336157 16.6341714,41.7367314 C17.2092249,42.1376157 18.2264946,42.2972851 18.8993073,42.0954174 C20.9562738,41.4761281 22.9827625,40.8152107 24.9787733,40.1160868 C25.254224,40.0191446 25.608457,40.1366157 25.7688969,40.3795413 C31.4947051,49.0438884 36.5264236,57.5805 38.3746457,67.8124587 C38.5402611,68.7271364 39.3602874,69.2215413 40.2406944,68.9027727 C41.5541167,68.4277562 42.8577631,67.9401942 44.1527837,67.440657 C44.4259341,67.3357314 44.6760824,67.0163926 44.7111607,66.7278471 C45.6410223,58.9793182 46.0435597,49.6215496 42.2947857,42.5219628 C42.158498,42.264781 41.8071403,42.0931364 41.5161632,42.1245 C37.5741711,42.5442025 33.4498871,41.5280207 30.8161419,38.4612273 C30.6263742,38.2399711 30.7022813,37.9611198 30.9719814,37.8476405 C35.5706846,35.912219 40.0164235,33.7965992 44.424784,31.4523099 C45.4851828,30.8883347 46.282782,30.4258636 47.3840096,29.8020124 C47.6381832,29.6577397 47.6554348,29.4410455 47.410462,29.2819463 C42.8186595,26.3041116 38.142324,21.0390124 41.8347429,15.5138802 C44.1090796,12.1106405 47.9734394,8.7416157 48.333423,4.40716116 C48.3575752,4.1186157 48.1534312,4.00000413 47.8992575,4.14370661 C35.7478011,11.0037893 23.0707457,15.9940289 9.55756243,19.478814 C8.87727409,19.6544504 8.61447462,20.2783017 8.98193383,20.8725" fill="#E22D4B"></path>
    <path d="M112.256193,27.8653846 L110.164566,45.5705779 C110.021335,46.5923055 109.92659,47.0301888 109.92659,48.391732 C109.92659,49.7053817 110.116637,51.3594173 111.305403,52.5749994 C112.161448,53.4023023 113.540261,54.0346102 115.489213,54.0346102 C117.866745,54.0346102 119.340303,53.2563412 120.148976,52.4296085 C121.717835,50.8240366 122.050556,48.10038 122.288532,46.2519197 L124.47546,27.8653846 L131.797546,27.8653846 L129.515316,46.7382666 C129.039921,50.6290417 128.611898,54.5694208 125.759528,57.537106 C122.57388,60.8925005 117.96149,61.0384615 115.346539,61.0384615 C112.208821,61.0384615 108.215057,60.6496121 105.3142,57.682497 C103.317318,55.6880756 102.509202,53.2078775 102.509202,50.1917286 C102.509202,48.7321178 102.747179,46.3973106 102.889853,45.0848012 L104.934107,27.8653846 L112.256193,27.8653846 Z" fill="#231F20"></path>
    <path d="M142.875825,27.8653846 L140.784198,45.5705779 C140.640967,46.5923055 140.546222,47.0301888 140.546222,48.391732 C140.546222,49.7053817 140.736269,51.3594173 141.925035,52.5749994 C142.78108,53.4023023 144.159893,54.0346102 146.108845,54.0346102 C148.486377,54.0346102 149.959935,53.2563412 150.768608,52.4296085 C152.337467,50.8240366 152.670187,48.10038 152.908164,46.2519197 L155.095092,27.8653846 L162.417178,27.8653846 L160.134948,46.7382666 C159.659553,50.6290417 159.23153,54.5694208 156.37916,57.537106 C153.193512,60.8925005 148.581122,61.0384615 145.966171,61.0384615 C142.828452,61.0384615 138.834689,60.6496121 135.933832,57.682497 C133.93695,55.6880756 133.128834,53.2078775 133.128834,50.1917286 C133.128834,48.7321178 133.366811,46.3973106 133.509485,45.0848012 L135.553739,27.8653846 L142.875825,27.8653846 Z" fill="#231F20"></path>
    <path d="M184.065108,35.3494164 C182.076132,33.4684 180.181526,32.9734873 178.760987,32.9734873 C177.861147,32.9734873 176.582717,33.1220191 175.777246,33.8147809 C175.114439,34.3590108 174.688111,35.3000992 174.688111,36.19071 C174.688111,37.1805355 175.114439,37.8738774 175.777246,38.4181074 C176.440608,39.0116545 177.293264,39.4079328 178.855357,40.150592 L180.702223,41.041783 C182.218242,41.7844422 183.63878,42.6257358 184.870024,44.2096885 C186.006899,45.6944267 186.480412,47.2290623 186.480412,49.3578252 C186.480412,52.8222142 185.154243,55.8909051 183.307377,57.8212388 C180.749963,60.4449144 177.482558,61.0384615 174.262338,61.0384615 C171.941404,61.0384615 170.094537,60.7419781 167.963452,59.5543036 C166.400804,58.6631126 164.884786,57.3263261 163.748466,56.039437 L167.821343,50.5948169 C168.484705,51.5347449 169.526655,52.5744677 170.473681,53.2184925 C171.467891,53.8613568 172.793505,54.3075325 174.167414,54.3075325 C175.256549,54.3075325 176.772012,53.9605715 177.671297,53.2678097 C178.524509,52.5744677 178.997466,51.4366907 178.997466,50.1991188 C178.997466,49.0108641 178.477324,48.3181023 178.098181,47.921824 C177.861147,47.6740776 177.245524,47.1298476 175.587952,46.4365057 L173.741085,45.6451095 C173.220388,45.4466802 170.804529,44.3576402 169.289621,42.7243702 C167.773603,41.0911002 167.20572,39.2100838 167.20572,37.1312183 C167.20572,33.7161464 168.531889,31.2410027 170.047352,29.6570499 C172.604211,27.0333743 175.872171,26.5384615 178.571693,26.5384615 C181.271216,26.5384615 184.396512,27.0832717 187.711656,29.8055817 L184.065108,35.3494164 Z" fill="#231F20"></path>
    <path d="M213.269283,59.2566597 C212.174791,59.8008896 209.488418,61.0384615 205.210747,61.0384615 C198.942349,61.0384615 195.31076,58.3660489 193.520039,56.6335643 C191.381203,54.5053816 189.042945,50.9411977 189.042945,45.1989338 C189.042945,39.4578302 191.231928,34.7552891 194.31598,31.6865982 C197.101481,28.9143907 201.529011,26.5384615 207.597986,26.5384615 C212.722329,26.5384615 215.80638,28.2216289 217,28.9143907 L216.054784,36.9826864 C214.711889,35.6464801 212.174791,33.666249 207.747261,33.666249 C204.563498,33.666249 201.976837,34.5081228 199.887565,36.7848374 C197.847857,38.9623373 196.903224,41.932974 196.903224,44.5560694 C196.903224,47.3276967 197.997133,49.8521577 199.489303,51.337476 C200.982056,52.8222142 203.469007,53.9112542 206.503495,53.9112542 C209.786969,53.9112542 212.423778,52.5251505 214.264063,51.0404124 L213.269283,59.2566597 Z" fill="#231F20"></path>
  </g>
</svg>
