<svg xmlns="http://www.w3.org/2000/svg" width="268.62" height="361.386" viewBox="0 0 268.62 361.386"><title>Kids and Teens Free</title><rect width="268.62" height="361.386" fill="#e32726"/><polygon points="22.179 24.663 38.152 24.663 38.152 75.541 38.464 75.541 61.791 24.663 77.759 24.663 55.997 69.279 81.826 136.13 64.922 136.13 46.76 86.656 38.152 102.78 38.152 136.13 22.179 136.13 22.179 24.663" fill="#fff"/><rect x="92.131" y="24.665" width="15.968" height="111.467" fill="#fff"/><path d="M126.2284,24.663h23.639q13.623,0,20.821,7.594,7.2,7.59,7.203,21.21v52.136q0,15.651-7.594,23.089-7.59,7.434-21.839,7.437h-22.23V24.663Zm15.973,96.435h7.354q6.7335,0,9.55-3.365,2.8155-3.363,2.819-10.569V53.467q0-6.576-2.663-10.173-2.661-3.6045-9.706-3.6h-7.354v81.404Z" fill="#fff"/><path d="M247.2156,56.754h-15.968V53.155a17.0577,17.0577,0,0,0-2.585-9.4709q-2.5815-3.996-8.686-3.99a10.5121,10.5121,0,0,0-5.404,1.249,9.2588,9.2588,0,0,0-3.287,3.209,13.4519,13.4519,0,0,0-1.643,4.54,30.3018,30.3018,0,0,0-.469,5.404,55.065,55.065,0,0,0,.235,5.555,9.8789,9.8789,0,0,0,1.17,3.917,8.9972,8.9972,0,0,0,2.741,2.892,25.014,25.014,0,0,0,4.93,2.507l12.213,4.852a30.4,30.4,0,0,1,8.613,4.775,19.497,19.497,0,0,1,5.087,6.418,27.4431,27.4431,0,0,1,2.429,8.457,84.6868,84.6868,0,0,1,.624,10.876,57.4733,57.4733,0,0,1-1.41,13.075,27.6287,27.6287,0,0,1-4.618,10.33,22.1189,22.1189,0,0,1-8.535,6.814,30.46,30.46,0,0,1-12.993,2.501,28.3912,28.3912,0,0,1-10.798-2.033,25.6751,25.6751,0,0,1-14.324-13.934,25.8712,25.8712,0,0,1-2.116-10.486v-5.955h15.967v5.014a13.05,13.05,0,0,0,2.585,7.906q2.583,3.5265,8.686,3.521a14.061,14.061,0,0,0,6.34-1.17,8.0734,8.0734,0,0,0,3.443-3.293,13.5268,13.5268,0,0,0,1.493-5.243q0.312-3.1275.312-6.886a67.7515,67.7515,0,0,0-.312-7.204,11.5244,11.5244,0,0,0-1.331-4.54,8.1645,8.1645,0,0,0-2.819-2.814,37.3477,37.3477,0,0,0-4.775-2.351L210.5786,82.9q-10.33-4.227-13.851-11.192-3.5265-6.9675-3.521-17.461a40.4775,40.4775,0,0,1,1.716-11.895,27.851,27.851,0,0,1,5.092-9.705,24.2958,24.2958,0,0,1,8.53-6.4969,28.0975,28.0975,0,0,1,12.057-2.428,26.4866,26.4866,0,0,1,10.88,2.195,27.0492,27.0492,0,0,1,8.452,5.788,25.7582,25.7582,0,0,1,5.404,8.068,23.3149,23.3149,0,0,1,1.878,9.154v7.827Z" fill="#fff"/><polygon points="21.404 222.805 70.445 222.805 70.445 238.292 37.858 238.292 37.858 273.138 66.251 273.138 66.251 288.623 37.858 288.623 37.858 337.664 21.404 337.664 21.404 222.805" fill="#fff"/><path d="M93.51,274.1044h9.357a16.5507,16.5507,0,0,0,6.937-1.21,8.9224,8.9224,0,0,0,3.953-3.467,14.8116,14.8116,0,0,0,1.855-5.566,61.03,61.03,0,0,0,0-15.326,13.86,13.86,0,0,0-2.017-5.645,9.1285,9.1285,0,0,0-4.276-3.468,19.4064,19.4064,0,0,0-7.258-1.13H93.51v35.812Zm-16.453-51.299h26.455q29.037,0,29.038,33.716a42.589,42.589,0,0,1-3.146,17.18,24.2953,24.2953,0,0,1-11.05,11.534l17.745,52.429h-17.423l-15.324-49.041H93.51v49.041H77.0571V222.8054Z" fill="#fff"/><polygon points="141.745 222.805 190.786 222.805 190.786 238.292 158.199 238.292 158.199 272.008 186.592 272.008 186.592 287.495 158.199 287.495 158.199 321.21 190.786 321.21 190.786 337.664 141.745 337.664 141.745 222.805" fill="#fff"/><polygon points="197.4 222.805 246.441 222.805 246.441 238.292 213.853 238.292 213.853 272.008 242.247 272.008 242.247 287.495 213.853 287.495 213.853 321.21 246.441 321.21 246.441 337.664 197.4 337.664 197.4 222.805" fill="#fff"/><polygon points="87.366 157.612 77.232 157.612 77.232 149.371 106.254 149.371 106.254 157.612 96.123 157.612 96.123 210.503 87.366 210.503 87.366 157.612" fill="#fff"/><polygon points="111.742 149.369 137.846 149.369 137.846 157.611 120.502 157.611 120.502 175.556 135.612 175.556 135.612 183.8 120.502 183.8 120.502 201.745 137.846 201.745 137.846 210.502 111.742 210.502 111.742 149.369" fill="#fff"/><polygon points="145.051 149.369 171.155 149.369 171.155 157.611 153.811 157.611 153.811 175.556 168.92 175.556 168.92 183.8 153.811 183.8 153.811 201.745 171.155 201.745 171.155 210.502 145.051 210.502 145.051 149.369" fill="#fff"/><polygon points="178.016 149.369 186.43 149.369 199.654 186.205 199.826 186.205 199.826 149.369 208.583 149.369 208.583 210.502 200.339 210.502 186.945 173.754 186.772 173.754 186.772 210.502 178.016 210.502 178.016 149.369" fill="#fff"/><path d="M34.7517,158.2457a4.51,4.51,0,0,1,6.96-.238,5.1856,5.1856,0,0,1,1.239,3.337,9.8065,9.8065,0,0,1-.572,3.384,14.5076,14.5076,0,0,1-1.43,2.908,16.0023,16.0023,0,0,1-1.907,2.431q-1.05,1.098-1.906,1.955a34.0415,34.0415,0,0,1-2.67-5.101,12.3366,12.3366,0,0,1-1.049-4.719,6.3905,6.3905,0,0,1,1.335-3.957m-3.289,30.89a23.3479,23.3479,0,0,1,3.67-4.719l9.344,14.872a13.8982,13.8982,0,0,1-3.051,2.718,7.2718,7.2718,0,0,1-4.195,1.382,6.4082,6.4082,0,0,1-5.196-2.526,9.2973,9.2973,0,0,1-2.05-6.054,11.02,11.02,0,0,1,1.478-5.673m20.164,21.308h9.725l-7.342-11.631,7.246-9.343-6.006-4.195-5.244,7.15q-2.4795-3.6225-4.814-7.532-2.3385-3.9075-4.148-6.673a44.4823,44.4823,0,0,0,6.96-7.961,15.9313,15.9313,0,0,0,2.956-9.105,13.0841,13.0841,0,0,0-.858-4.719,11.4091,11.4091,0,0,0-2.479-3.909,12.0034,12.0034,0,0,0-4.004-2.67,14.2046,14.2046,0,0,0-5.53-1.001,14.8435,14.8435,0,0,0-5.816,1.049,11.6184,11.6184,0,0,0-4.099,2.813,12.0185,12.0185,0,0,0-2.479,4.194,15.2187,15.2187,0,0,0-.858,5.101,20.3434,20.3434,0,0,0,1.668,8.152,40.9626,40.9626,0,0,0,4.243,7.484,38.2542,38.2542,0,0,0-6.674,7.817,17.898,17.898,0,0,0-2.669,9.82,18.1106,18.1106,0,0,0,1.096,6.436,14.8553,14.8553,0,0,0,3.003,4.957,13.5819,13.5819,0,0,0,4.481,3.194,13.2285,13.2285,0,0,0,5.434,1.144,16.5449,16.5449,0,0,0,7.008-1.43,20.8452,20.8452,0,0,0,5.958-4.29Z" fill="#fff"/><path d="M246.4409,166.9694h-8.757v-1.974a9.3691,9.3691,0,0,0-1.418-5.195q-1.419-2.1885-4.765-2.188a5.7641,5.7641,0,0,0-2.964.685,5.0689,5.0689,0,0,0-1.801,1.76,7.2977,7.2977,0,0,0-.902,2.493,16.3885,16.3885,0,0,0-.258,2.961c0,1.2.044,2.22,0.129,3.046a5.3947,5.3947,0,0,0,.644,2.147,4.8914,4.8914,0,0,0,1.503,1.59,13.7488,13.7488,0,0,0,2.703,1.373l6.698,2.663a16.57,16.57,0,0,1,4.722,2.618,10.633,10.633,0,0,1,2.791,3.521,14.92,14.92,0,0,1,1.332,4.636,46.2729,46.2729,0,0,1,.343,5.965,31.5017,31.5017,0,0,1-.773,7.173,15.1365,15.1365,0,0,1-2.534,5.665,12.1361,12.1361,0,0,1-4.68,3.734,16.6368,16.6368,0,0,1-7.126,1.373,15.5808,15.5808,0,0,1-5.922-1.116,14.0892,14.0892,0,0,1-7.858-7.641,14.229,14.229,0,0,1-1.159-5.752v-3.263h8.757v2.748a7.1661,7.1661,0,0,0,1.417,4.337q1.419,1.929,4.765,1.93a7.6712,7.6712,0,0,0,3.477-.644,4.4,4.4,0,0,0,1.889-1.801,7.3765,7.3765,0,0,0,.817-2.879q0.171-1.7145.173-3.776a37.1468,37.1468,0,0,0-.173-3.951,6.2454,6.2454,0,0,0-.729-2.489,4.4915,4.4915,0,0,0-1.547-1.544,20.1962,20.1962,0,0,0-2.618-1.288l-6.268-2.577q-5.667-2.32-7.597-6.139a21.1115,21.1115,0,0,1-1.933-9.575,22.2471,22.2471,0,0,1,.943-6.525,15.2232,15.2232,0,0,1,2.791-5.322,13.3381,13.3381,0,0,1,4.68-3.564,15.4052,15.4052,0,0,1,6.611-1.329,14.5853,14.5853,0,0,1,5.969,1.2,14.8727,14.8727,0,0,1,4.636,3.178,14.1416,14.1416,0,0,1,2.961,4.422,12.79,12.79,0,0,1,1.031,5.02v4.294Z" fill="#fff"/></svg>