<?xml version="1.0" encoding="utf-8"?>
<!-- Generator: Adobe Illustrator 16.0.4, SVG Export Plug-In . SVG Version: 6.00 Build 0)  -->
<!DOCTYPE svg PUBLIC "-//W3C//DTD SVG 1.1 Tiny//EN" "http://www.w3.org/Graphics/SVG/1.1/DTD/svg11-tiny.dtd" [
	<!ENTITY ns_flows "http://ns.adobe.com/Flows/1.0/">
	<!ENTITY ns_extend "http://ns.adobe.com/Extensibility/1.0/">
	<!ENTITY ns_ai "http://ns.adobe.com/AdobeIllustrator/10.0/">
	<!ENTITY ns_graphs "http://ns.adobe.com/Graphs/1.0/">
]>
<svg version="1.1" baseProfile="tiny" id="Layer_1" xmlns:x="&ns_extend;" xmlns:i="&ns_ai;" xmlns:graph="&ns_graphs;"
	 xmlns="http://www.w3.org/2000/svg" xmlns:xlink="http://www.w3.org/1999/xlink" xmlns:a="http://ns.adobe.com/AdobeSVGViewerExtensions/3.0/"
	 x="0px" y="0px" width="47.428px" height="74.13px" viewBox="0 0 47.428 74.13" xml:space="preserve">
<g>
	<path fill="#FFFFFF" d="M23.868,19.999h-0.132h-0.133l-1.722-4.138h1.855h1.811L23.868,19.999z M25.564,22.298h2.287v3.989h-2.295
		L25.564,22.298z M28.604,22.298h2.291v3.989h-2.291V22.298z M33.936,22.298l0.002,3.989h-2.291v-3.989H33.936z M19.577,26.287
		l-0.002-3.989h2.289l0.007,3.989H19.577z M18.824,26.287h-2.289v-3.989h2.289V26.287z M15.781,26.287h-2.29v-3.989h2.292
		L15.781,26.287z M45.744,64.537l0.003-10.415l0.909-1.249c0,0-1.428-1.48-1.42-1.516l0.046-29.686c0,0.007,0.625-0.843,0.625-0.863
		c0.01,0.005-0.673-0.82-0.644-0.825c-0.006,0.005-0.013-4.1,0-4.128l0.311-0.679l-4.98,0.002l-0.289,0.515H26.945l-0.286-0.399
		h-2.923H20.77l-0.287,0.399H7.122l-0.286-0.515l-4.984-0.002l0.311,0.679c0.015,0.028,0.005,4.133,0,4.128
		c0.03,0.005-0.651,0.83-0.641,0.825c0,0.021,0.625,0.87,0.625,0.863l0.046,29.686c0.007,0.035-1.42,1.516-1.42,1.516l0.91,1.247
		v10.417l-0.774,0.672v4.407l6.139,0.001l0.002-1.734l0.984-1.199c0-0.562,0.023-2.046,0-2.046c-0.026,0-0.713-0.101-0.741-0.09
		L7.257,54.12l1.04-1.247l-1.422-1.225L6.836,21.773c0.008-0.007,0.65-0.972,0.631-0.965c0.019,0-0.718-0.825-0.733-0.825
		c0.021,0,0.002-2.455,0.002-2.455h15.205l1.075,2.471H10.911l-0.012,42.853h12.837h12.793l-0.014-42.853H24.454l1.034-2.471h15.203
		c0,0-0.017,2.455,0.004,2.455c-0.019,0-0.752,0.825-0.735,0.825c-0.019-0.007,0.625,0.958,0.634,0.965l-0.041,29.879l-1.423,1.221
		l1.04,1.249l-0.036,10.426c-0.028-0.011-0.713,0.09-0.743,0.09c-0.02,0,0,1.483,0,2.046l0.987,1.199l0.001,1.734l6.139-0.001
		v-4.407L45.744,64.537z"/>
	<path fill="#FFFFFF" d="M24.521,2.487c0,0.007-0.618,2.965-0.604,2.965c-0.005,0.026,0.352,0.307,0.347,0.307h-0.528h-0.528
		c-0.004,0,0.35-0.28,0.345-0.307c0.015,0-0.602-2.958-0.602-2.965c0,0.021-0.703,0-0.703,0c0-0.847,0.893-1.427,1.488-1.438
		c0.596,0.012,1.451,0.592,1.451,1.438C25.188,2.487,24.521,2.508,24.521,2.487 M25.015,10.763h-1.278h-1.305V6.749h1.305h1.278
		V10.763z M28.824,0c-2.244,0-2.681,0.901-3.256,1.645c-0.628-0.815-0.822-1.217-1.832-1.222c-1.014,0.005-1.225,0.406-1.877,1.222
		C21.285,0.901,20.848,0,18.605,0C13.458,0,10.079,10.301,0,10.883c0.008,0.008,0.551,1.284,0.551,1.265l23.186-0.008l23.139,0.008
		c0,0.02,0.545-1.257,0.554-1.265C37.348,10.301,33.972,0,28.824,0"/>
	<path fill="#FFFFFF" d="M23.736,13.101H0.954c0,0,0.675,1.505,0.66,1.489l22.122,0.008l22.076-0.008
		c-0.014,0.016,0.66-1.489,0.66-1.489H23.736z"/>
</g>
<polygon fill="#FFFFFF" points="23.736,64.122 23.736,64.122 9.407,64.11 9.413,66.306 23.736,66.306 38.014,66.306 38.021,64.11 
	"/>
<polygon fill="#FFFFFF" points="23.736,67.957 8.033,67.953 8.034,70.081 23.736,70.081 39.393,70.081 39.396,67.953 "/>
<polygon fill="#FFFFFF" points="23.737,71.663 6.146,71.652 6.146,74.115 23.737,74.13 41.281,74.115 41.281,71.652 "/>
<g>
</g>
<g>
</g>
<g>
</g>
<g>
</g>
<g>
</g>
<g>
</g>
</svg>
