<?xml version="1.0" encoding="utf-8"?>
<!-- Generator: Adobe Illustrator 16.0.4, SVG Export Plug-In . SVG Version: 6.00 Build 0)  -->
<!DOCTYPE svg PUBLIC "-//W3C//DTD SVG 1.1//EN" "http://www.w3.org/Graphics/SVG/1.1/DTD/svg11.dtd">
<svg version="1.1" xmlns="http://www.w3.org/2000/svg" xmlns:xlink="http://www.w3.org/1999/xlink" x="0px" y="0px"
	 width="444.214px" height="74.129px" viewBox="0 0 444.214 74.129" enable-background="new 0 0 444.214 74.129"
	 xml:space="preserve">
<g id="Layer_1">
	<g>
		<path fill="#FFFFFF" d="M23.868,19.999h-0.133h-0.133l-1.722-4.138h1.854h1.812L23.868,19.999z M25.564,22.298h2.287v3.989h-2.295
			L25.564,22.298z M28.604,22.298h2.291v3.989h-2.291V22.298z M33.936,22.298l0.002,3.989h-2.291v-3.989H33.936z M19.577,26.287
			l-0.002-3.989h2.288l0.008,3.989H19.577z M18.824,26.287h-2.289v-3.989h2.289V26.287z M15.781,26.287h-2.289v-3.989h2.292
			L15.781,26.287z M45.744,64.538l0.003-10.416l0.908-1.248c0,0-1.428-1.48-1.42-1.517l0.047-29.686
			c0,0.007,0.625-0.843,0.625-0.863c0.01,0.005-0.674-0.82-0.645-0.825c-0.006,0.005-0.013-4.1,0-4.128l0.312-0.679l-4.98,0.002
			l-0.289,0.515h-13.36l-0.285-0.399h-2.924H20.77l-0.287,0.399H7.122l-0.286-0.515l-4.984-0.002l0.312,0.679
			c0.015,0.028,0.005,4.133,0,4.128c0.029,0.005-0.651,0.83-0.642,0.825c0,0.021,0.625,0.87,0.625,0.863l0.046,29.686
			c0.008,0.035-1.42,1.517-1.42,1.517l0.91,1.246v10.418l-0.773,0.672v4.406l6.139,0.002l0.002-1.734l0.984-1.199
			c0-0.562,0.022-2.046,0-2.046c-0.026,0-0.714-0.101-0.741-0.091L7.257,54.12l1.04-1.246l-1.422-1.226L6.836,21.773
			c0.008-0.007,0.649-0.972,0.631-0.965c0.019,0-0.718-0.825-0.733-0.825c0.021,0,0.002-2.455,0.002-2.455h15.205l1.075,2.471
			H10.911l-0.013,42.853h12.837h12.793l-0.014-42.853H24.454l1.033-2.471h15.203c0,0-0.017,2.455,0.004,2.455
			c-0.019,0-0.752,0.825-0.734,0.825c-0.02-0.007,0.625,0.958,0.634,0.965l-0.041,29.879l-1.423,1.222l1.04,1.248l-0.036,10.426
			c-0.028-0.01-0.713,0.091-0.743,0.091c-0.02,0,0,1.483,0,2.046l0.987,1.199l0.001,1.734l6.139-0.002v-4.406L45.744,64.538z"/>
		<path fill="#FFFFFF" d="M24.521,2.487c0,0.007-0.618,2.965-0.604,2.965c-0.005,0.026,0.352,0.307,0.347,0.307h-0.528h-0.527
			c-0.004,0,0.35-0.28,0.345-0.307c0.015,0-0.602-2.958-0.602-2.965c0,0.021-0.703,0-0.703,0c0-0.847,0.893-1.427,1.487-1.438
			c0.597,0.012,1.451,0.592,1.451,1.438C25.188,2.487,24.521,2.508,24.521,2.487 M25.015,10.763h-1.278h-1.305V6.749h1.305h1.278
			V10.763z M28.824,0c-2.244,0-2.682,0.901-3.257,1.645c-0.628-0.815-0.821-1.217-1.832-1.222c-1.014,0.005-1.225,0.406-1.877,1.222
			C21.285,0.901,20.848,0,18.605,0C13.458,0,10.079,10.301,0,10.883c0.008,0.008,0.551,1.284,0.551,1.265l23.186-0.008l23.14,0.008
			c0,0.02,0.545-1.257,0.554-1.265C37.348,10.301,33.972,0,28.824,0"/>
		<path fill="#FFFFFF" d="M23.736,13.101H0.954c0,0,0.675,1.505,0.659,1.489l22.122,0.008l22.076-0.008
			c-0.014,0.016,0.66-1.489,0.66-1.489H23.736z"/>
	</g>
	<polygon fill="#FFFFFF" points="23.736,64.122 23.736,64.122 9.407,64.11 9.413,66.306 23.736,66.306 38.014,66.306 38.021,64.11 	
		"/>
	<polygon fill="#FFFFFF" points="23.736,67.958 8.033,67.954 8.034,70.081 23.736,70.081 39.393,70.081 39.396,67.954 	"/>
	<polygon fill="#FFFFFF" points="23.737,71.663 6.146,71.652 6.146,74.116 23.737,74.129 41.281,74.116 41.281,71.652 	"/>
</g>
<g id="Layer_2">
	<g>
		<g>
			<path fill="#FFFFFF" d="M83.218,48.476c-1.24,0-4.447-0.145-5.32-0.145c-2.076,0-4.225,0.071-5.719,0.253
				c-0.221,0.038-0.109-0.399-0.037-0.435c3.242-0.329,3.424-0.291,3.424-5.905V31.315c0-5.612-0.182-5.574-3.424-5.938
				c-0.072,0-0.184-0.437,0.037-0.401c1.494,0.182,3.971,0.254,6.047,0.254c0.875,0,4.189-0.146,5.465-0.146
				c8.381,0,12.605,4.957,12.605,11.332C96.296,42.976,91.05,48.476,83.218,48.476z M82.599,25.924
				c-2.551,0-3.244,0.109-3.863,0.182c-0.219,1.204-0.328,2.404-0.328,5.174v12.278c0,3.645,0.512,4.08,5.793,4.08
				c5.174,0,9.182-3.681,9.182-10.057C93.382,29.859,89.228,25.924,82.599,25.924z"/>
			<path fill="#FFFFFF" d="M294.454,48.4c-1.066-0.145-2.523-0.25-3.98-0.25c-2.027,0-3.84,0.07-5.297,0.25
				c-0.178,0.033-0.107-0.392-0.037-0.428c1.709-0.177,2.523-0.25,2.523-1.245c0-1.065-0.676-2.736-1.312-4.513l-1.066-2.917h-8
				l-1.242,2.917c-0.889,2.134-1.527,3.519-1.527,4.513c0,0.855,0.711,1.104,2.342,1.245c0.109,0.036,0.18,0.461,0,0.428
				c-1.064-0.145-1.883-0.25-3.338-0.25c-2.027,0-2.062,0.07-3.52,0.25c-0.178,0.033-0.105-0.392-0.035-0.428
				c2.383-0.177,3.305-1.67,5.047-5.758l7.5-17.168c0.07-0.143,0.357-0.143,0.428,0l6.398,17.168
				c1.596,4.371,2.236,5.546,5.152,5.758C294.56,48.008,294.669,48.433,294.454,48.4z M281.657,29.062l-4.053,9.525h7.43
				L281.657,29.062z"/>
			<path fill="#FFFFFF" d="M115.12,47.853c-0.127,0.545-0.293,0.628-0.754,0.628c-1.129,0-3.055-0.167-5.314-0.167
				c-3.096,0-6.777,0.041-9.035,0.208c-0.168,0-0.084-0.502,0-0.502c3.18-0.377,3.473-0.837,3.473-4.938v-9.455
				c0-4.1-0.293-4.602-3.473-4.938c-0.084-0.042-0.168-0.543,0-0.543c2.258,0.209,5.814,0.25,8.912,0.25
				c2.217,0,4.309-0.125,5.982-0.25c-0.127,0.459-0.168,1.381-0.168,2.008c0,0.334,0,1.255,0.041,1.506c0,0.042-0.502,0-0.543,0
				c-0.209-1.424-0.713-2.174-4.77-2.174h-2.762c-0.125,0.75-0.209,1.923-0.209,3.972v4.017h2.176c3.557,0,3.807-0.167,4.1-1.548
				c0-0.043,0.502-0.126,0.502,0c-0.125,0.461-0.209,1.798-0.209,2.51c0,0.378,0.041,1.549,0.041,1.84
				c0.043,0.044-0.502,0.044-0.502,0c-0.291-1.671-0.543-1.881-3.932-1.881h-2.176v4.268c0,4.185,0.334,4.562,1.758,4.562h1.59
				c4.768,0,4.895-0.755,5.355-2.846c0.041-0.043,0.543-0.043,0.543,0.041C115.622,45.218,115.329,47.226,115.12,47.853z"/>
			<path fill="#FFFFFF" d="M135.406,47.853c-0.125,0.545-0.291,0.628-0.752,0.628c-1.129,0-3.055-0.167-5.314-0.167
				c-3.096,0-6.777,0.041-9.035,0.208c-0.168,0-0.084-0.502,0-0.502c3.18-0.377,3.473-0.837,3.473-4.938v-9.455
				c0-4.1-0.293-4.602-3.473-4.938c-0.084-0.042-0.168-0.543,0-0.543c2.258,0.209,5.814,0.25,8.912,0.25
				c2.217,0,4.309-0.125,5.982-0.25c-0.127,0.459-0.168,1.381-0.168,2.008c0,0.334,0,1.255,0.041,1.506c0,0.042-0.5,0-0.543,0
				c-0.209-1.424-0.713-2.174-4.77-2.174h-2.762c-0.127,0.75-0.209,1.923-0.209,3.972v4.017h2.174c3.559,0,3.809-0.167,4.102-1.548
				c0-0.043,0.502-0.126,0.502,0c-0.127,0.461-0.209,1.798-0.209,2.51c0,0.378,0.043,1.549,0.043,1.84
				c0.039,0.044-0.504,0.044-0.504,0c-0.291-1.671-0.543-1.881-3.934-1.881h-2.174v4.268c0,4.185,0.334,4.562,1.756,4.562h1.59
				c4.771,0,4.896-0.755,5.357-2.846c0.041-0.043,0.543-0.043,0.543,0.041C135.909,45.218,135.616,47.226,135.406,47.853z"/>
			<path fill="#FFFFFF" d="M150.616,39.191c-0.711,0.169-1.674,0.293-2.344,0.293c-0.668,0-0.836,0-1.34-0.042v3.641
				c0,3.893,0.338,4.688,3.223,4.938c0.084,0,0.168,0.545,0,0.502c-0.963-0.124-3.055-0.208-4.352-0.208
				c-1.799,0-3.766,0.041-5.061,0.208c-0.168,0.043-0.084-0.502,0-0.502c2.762-0.293,3.221-0.837,3.221-4.938v-9.455
				c0-3.766-0.711-4.561-2.176-4.561c-0.336,0-0.711,0.043-1.172,0.126c-0.084,0.041-0.209-0.46-0.041-0.503
				c1.297-0.417,4.852-0.543,8.201-0.543c5.354,0,8.24,1.715,8.24,4.977c0,2.093-1.463,4.101-3.85,5.104
				c1.549,4.351,5.564,10.253,9.164,10.253c0.082,0,0.166,0.501,0,0.501C155.72,48.982,151.954,44.13,150.616,39.191z
				 M148.357,29.067c-0.502,0-0.586,0.043-1.129,0.083c-0.168,0.586-0.295,1.798-0.295,4.184v5.188c0.504,0,0.713,0.043,1.299,0.043
				c4.143,0,5.73-1.674,5.73-4.604C153.962,30.364,151.954,29.067,148.357,29.067z"/>
			<path fill="#FFFFFF" d="M179.077,32.289c-0.418-2.093-0.293-2.801-5.062-2.801h-3.139c-0.125,0.75-0.207,1.923-0.207,3.972v4.143
				h1.965c3.432,0,3.766-0.544,4.143-2.051c0-0.041,0.502-0.125,0.502,0c-0.168,0.545-0.252,2.009-0.252,2.887
				c0,0.419,0,1.757,0.084,2.051c0.043,0.169-0.502,0.169-0.502,0c-0.25-1.298-0.586-1.924-3.975-1.924h-1.965v4.518
				c0,4.101,0.334,4.688,3.346,4.938c0.084,0,0.168,0.502,0,0.502c-0.961-0.124-3.221-0.208-4.518-0.208
				c-1.758,0-3.473,0.041-4.77,0.208c-0.168,0-0.084-0.502,0-0.502c2.426-0.293,2.928-0.921,2.928-4.938v-9.455
				c0-4.1-0.334-4.602-3.514-4.938c-0.043-0.042-0.125-0.543,0.041-0.543c2.26,0.209,5.943,0.25,9.037,0.25
				c2.217,0,4.184-0.125,5.314-0.125c0.459,0,0.629,0.042,0.752,0.543c0.125,0.712,0.168,2.636,0.293,3.473
				C179.62,32.372,179.12,32.372,179.077,32.289z"/>
			<path fill="#FFFFFF" d="M193.339,48.522c-0.92-0.124-3.055-0.208-4.309-0.208c-1.797,0-3.764,0.041-5.062,0.208
				c-0.209,0-0.082-0.502-0.039-0.502c2.801-0.293,3.221-0.878,3.221-4.938v-9.455c0-4.1-0.42-4.645-3.221-4.938
				c-0.043-0.042-0.17-0.543,0.039-0.543c1.299,0.209,3.266,0.25,5.062,0.25c1.254,0,3.389-0.125,4.309-0.25
				c0.211,0,0.084,0.501,0.043,0.543c-2.928,0.21-3.221,1.088-3.221,4.938v9.455c0,3.85,0.293,4.688,3.221,4.938
				C193.423,48.02,193.55,48.522,193.339,48.522z"/>
			<path fill="#FFFFFF" d="M213.154,47.853c-0.125,0.545-0.291,0.628-0.752,0.628c-1.129,0-3.055-0.167-5.314-0.167
				c-3.096,0-6.775,0.041-9.035,0.208c-0.166,0-0.084-0.502,0-0.502c3.18-0.377,3.473-0.837,3.473-4.938v-9.455
				c0-4.1-0.293-4.602-3.473-4.938c-0.084-0.042-0.166-0.543,0-0.543c2.26,0.209,5.812,0.25,8.91,0.25
				c2.219,0,4.311-0.125,5.984-0.25c-0.127,0.459-0.168,1.381-0.168,2.008c0,0.334,0,1.255,0.041,1.506c0,0.042-0.502,0-0.545,0
				c-0.207-1.424-0.711-2.174-4.768-2.174h-2.762c-0.125,0.75-0.209,1.923-0.209,3.972v4.017h2.176c3.553,0,3.807-0.167,4.1-1.548
				c0-0.043,0.502-0.126,0.502,0c-0.125,0.461-0.207,1.798-0.207,2.51c0,0.378,0.039,1.549,0.039,1.84c0.043,0.044-0.5,0.044-0.5,0
				c-0.297-1.671-0.545-1.881-3.934-1.881h-2.176v4.268c0,4.185,0.336,4.562,1.756,4.562h1.59c4.77,0,4.896-0.755,5.355-2.846
				c0.043-0.043,0.543-0.043,0.543,0.041C213.657,45.218,213.363,47.226,213.154,47.853z"/>
			<path fill="#FFFFFF" d="M233.023,47.853c-0.17,0.545-0.297,0.628-0.76,0.628c-1.133,0-2.807-0.167-5.066-0.167
				c-3.098,0-7.074,0.041-9.291,0.208c-0.207,0-0.082-0.502-0.043-0.502c3.182-0.377,3.516-0.837,3.516-4.938v-9.455
				c0-4.1-0.418-4.645-3.219-4.938c-0.086-0.042-0.17-0.543,0.041-0.543c1.258,0.209,3.262,0.25,5.02,0.25
				c1.297,0,3.389-0.125,4.354-0.25c0.168,0,0.084,0.501,0.041,0.543c-2.928,0.21-3.266,1.088-3.266,4.938v9.161
				c0,3.182,0.338,4.354,1.926,4.354h1.467c4.861,0,5.111-0.878,5.49-2.678c0-0.084,0.549-0.084,0.506,0
				C233.656,45.342,233.193,47.226,233.023,47.853z"/>
			<path fill="#FFFFFF" d="M247.228,48.438c-1.049,0-3.807-0.124-4.561-0.124c-1.756,0-4.227,0.041-5.492,0.208
				c-0.209,0-0.127-0.502-0.043-0.502c2.814-0.293,3.234-0.878,3.234-4.938v-9.455c0-4.1-0.42-4.645-3.234-4.938
				c-0.084-0.042-0.166-0.543,0.043-0.543c1.266,0.209,3.986,0.25,5.785,0.25c0.752,0,3.596-0.125,4.686-0.125
				c7.236,0,11.129,4.267,11.129,9.791C258.775,43.71,254.005,48.438,247.228,48.438z M246.724,29.277
				c-2.215,0-2.51,0.084-3.053,0.167c-0.209,1.045-0.293,1.756-0.293,4.183v10.586c0,2.382,0.211,3.22,4.727,3.22
				c3.684,0,7.615-2.635,7.615-8.116C255.72,32.666,252.415,29.277,246.724,29.277z"/>
			<path fill="#FFFFFF" d="M313.642,47.266c-1.088,0.838-2.971,1.673-6.736,1.673c-6.945,0-11.506-4.769-11.506-10.123
				c0-5.649,4.771-11.046,11.633-11.046c2.885,0,5.855,1.212,6.486,1.674c0.25,0.167,0.541,2.97,0.664,4.853
				c0,0.125-0.5,0.125-0.541,0.041c-0.504-2.466-2.721-5.564-7.322-5.564c-4.643,0-7.822,3.14-7.822,8.829
				c0,6.986,4.266,10.335,8.701,10.335c3.223,0,6.359-2.301,6.611-5.565c0-0.043,0.5-0.084,0.5,0.043
				C314.183,44.337,313.892,47.099,313.642,47.266z"/>
			<path fill="#FFFFFF" d="M335.046,48.314c-1.758,0-3.932,0.041-5.23,0.208c-0.166,0-0.084-0.502,0-0.502
				c1.506-0.167,2.344-0.083,2.344-0.961c0-0.965-0.461-2.428-1.045-3.977l-0.795-2.301h-6.734l-0.965,2.301
				c-0.797,1.84-1.254,3.096-1.254,3.934c0,0.754,0.795,0.878,2.219,1.004c0.125,0,0.164,0.502,0,0.502
				c-0.924-0.124-2.219-0.208-3.518-0.208c-1.756,0-2.051,0.041-3.389,0.208c-0.168,0-0.084-0.502,0-0.502
				c2.094-0.167,3.182-1.381,4.77-4.938l6.738-15.187c0.039-0.125,0.291-0.125,0.334,0l5.814,15.187
				c1.17,3.142,1.801,4.688,4.812,4.938c0.082,0,0.166,0.502,0,0.502C338.185,48.398,336.386,48.314,335.046,48.314z
				 M327.265,32.289l-3.305,7.53h6.023L327.265,32.289z"/>
			<path fill="#FFFFFF" d="M351.849,48.438c-1.045,0-3.807-0.124-4.561-0.124c-1.756,0-4.227,0.041-5.482,0.208
				c-0.207,0-0.123-0.502-0.039-0.502c2.803-0.293,3.221-0.878,3.221-4.938v-9.455c0-4.1-0.418-4.645-3.221-4.938
				c-0.084-0.042-0.168-0.543,0.039-0.543c1.256,0.209,3.977,0.25,5.775,0.25c0.752,0,3.6-0.125,4.686-0.125
				c7.238,0,11.129,4.267,11.129,9.791C363.396,43.71,358.628,48.438,351.849,48.438z M351.345,29.277
				c-2.217,0-2.508,0.084-3.053,0.167c-0.209,1.045-0.291,1.756-0.291,4.183v10.586c0,2.382,0.209,3.22,4.729,3.22
				c3.68,0,7.611-2.635,7.611-8.116C360.341,32.666,357.036,29.277,351.345,29.277z"/>
			<path fill="#FFFFFF" d="M381.534,47.853c-0.123,0.545-0.291,0.628-0.752,0.628c-1.129,0-3.051-0.167-5.312-0.167
				c-3.098,0-6.777,0.041-9.037,0.208c-0.166,0-0.082-0.502,0-0.502c3.182-0.377,3.473-0.837,3.473-4.938v-9.455
				c0-4.1-0.291-4.602-3.473-4.938c-0.082-0.042-0.166-0.543,0-0.543c2.26,0.209,5.816,0.25,8.912,0.25
				c2.217,0,4.309-0.125,5.982-0.25c-0.125,0.459-0.168,1.381-0.168,2.008c0,0.334,0,1.255,0.043,1.506c0,0.042-0.504,0-0.543,0
				c-0.211-1.424-0.711-2.174-4.771-2.174h-2.76c-0.125,0.75-0.209,1.923-0.209,3.972v4.017h2.174c3.557,0,3.807-0.167,4.102-1.548
				c0-0.043,0.502-0.126,0.502,0c-0.129,0.461-0.211,1.798-0.211,2.51c0,0.378,0.043,1.549,0.043,1.84
				c0.039,0.044-0.504,0.044-0.504,0c-0.291-1.671-0.543-1.881-3.932-1.881h-2.174v4.268c0,4.185,0.334,4.562,1.758,4.562h1.588
				c4.77,0,4.895-0.755,5.355-2.846c0.041-0.043,0.545-0.043,0.545,0.041C382.038,45.218,381.745,47.226,381.534,47.853z"/>
			<path fill="#FFFFFF" d="M409.202,48.314c-1.799,0-3.471,0.041-4.77,0.208c-0.168,0.043-0.127-0.502-0.043-0.502
				c2.428-0.25,2.928-0.878,2.848-4.938l-0.17-11.588l-7.154,17.028c-0.041,0.126-0.332,0.126-0.375,0l-7.822-16.694l-0.168,11.254
				c-0.086,3.513,0.209,4.688,3.096,4.938c0.084,0,0.168,0.545,0,0.502c-0.965-0.124-2.09-0.208-3.391-0.208
				c-1.758,0-3.053,0.041-4.352,0.208c-0.164,0.043-0.082-0.502,0-0.502c2.805-0.293,3.223-1.212,3.309-4.938l0.207-11.002
				c0-1.507-1.338-3.14-3.766-3.39c-0.084,0-0.17-0.543,0-0.502c1.549,0.21,3.643,0.21,6.527,0.21l7.488,15.773l4.1-10.124
				c0.879-2.092,1.717-4.06,2.133-5.732c2.053,0.168,5.105,0.083,6.57-0.126c0.168-0.041,0.084,0.502,0.041,0.502
				c-3.305,0.292-3.514,1.046-3.43,4.938l0.168,9.455c0.082,3.893,0.334,4.688,3.596,4.938c0.086,0,0.17,0.545,0,0.502
				C412.886,48.398,410.499,48.314,409.202,48.314z"/>
			<path fill="#FFFFFF" d="M440.423,28.152c-1.111,0.144-1.756,0.25-3.227,0.25c-2.043,0-2.795-0.071-4.266-0.25
				c-0.176-0.036-0.105,0.396,0,0.396c2.939,0.357,2.83,0.751-0.715,5.806l-3.119,4.552l-2.436-3.727
				c-3.408-5.27-4.053-6.345-0.898-6.63c0.072,0,0.18-0.432-0.037-0.396c-1.072,0.144-2.832,0.25-4.301,0.25
				c-2.043,0-3.654-0.071-5.123-0.25c-0.18-0.036-0.109,0.396,0,0.396c2.975,0.32,3.904,1.145,7.309,6.63l3.121,4.945v0.137v0.038
				v1.951c0,5.521-0.145,5.447-3.371,5.807c-0.07,0.035-0.143,0.466,0.037,0.43c1.564-0.189,2.695-0.159,4.832-0.159
				c1.506,0,3.553,0.016,4.631,0.159c0.215,0.036,0.107-0.395,0.035-0.43c-3.332-0.251-3.367-0.537-3.367-5.807v-1.951V40.26v-0.422
				l3.834-5.484c3.332-4.804,4.014-5.555,7.061-5.806C440.532,28.548,440.603,28.117,440.423,28.152z"/>
		</g>
	</g>
</g>
</svg>
