<svg xmlns="http://www.w3.org/2000/svg" viewBox="0 0 93.22 35">
  <title>Asset 1</title>
  <g id="Layer_2" data-name="Layer 2">
    <g id="Layer_1-2" data-name="Layer 1">
      <g id="Page-1">
        <g id="Desktop">
          <g id="poetic-wachs">
            <path id="Fill-11" d="M86.8,16.3a5.42,5.42,0,0,0-4.7-2.6c-3.4,0-5.8,2.8-5.8,6.3s2.4,6.3,5.8,6.3a5.3,5.3,0,0,0,4.7-2.6h2.4A7.28,7.28,0,0,1,82,28.4,8.06,8.06,0,0,1,74,20a8.06,8.06,0,0,1,8-8.4,7.37,7.37,0,0,1,7.2,4.7Z" fill="#fefefe"/>
            <path id="Fill-15" d="M69.6,8.9a1.6,1.6,0,1,1,1.6-1.6A1.58,1.58,0,0,1,69.6,8.9Z" fill="#fefefe"/>
            <polygon id="Fill-13" points="68.5 27.9 70.8 27.9 70.8 12.1 68.5 12.1 68.5 27.9" fill="#fefefe"/>
            <path id="Fill-9" d="M59.3,7.3v4.8h5.5v2.1H59.3v8.5c0,2.3,1.1,3.1,3.3,3.1h2.1v2.1H62.5c-3.9,0-5.6-1.6-5.6-4.7v-9H53.7V12.1H57V7.3Z" fill="#fefefe"/>
            <path id="Fill-7" d="M49.7,18.7c-.3-2.8-2.2-5-5.1-5a5.32,5.32,0,0,0-5.5,5ZM52,20.8H39.1a5.76,5.76,0,0,0,5.6,5.4c2.3,0,3.9-.9,4.7-2.6h2.3a7.11,7.11,0,0,1-7.1,4.7c-4.6,0-8-3.5-8-8.4s3.2-8.3,7.8-8.3c4.3,0,7.4,3.6,7.4,8.2a.92.92,0,0,1,.2,1Z" fill="#fefefe"/>
            <path id="Fill-5" d="M26.3,13.7c-3.4,0-5.7,2.8-5.7,6.3s2.3,6.3,5.7,6.3S32,23.5,32,20s-2.3-6.3-5.7-6.3m0,14.6c-4.6,0-8-3.6-8-8.4s3.4-8.4,8-8.4,8,3.6,8,8.4-3.4,8.4-8,8.4" fill="#fefefe"/>
            <path id="Fill-2" d="M7.9,13.7c-3,0-5.7,2.1-5.7,6.3s2.7,6.3,5.7,6.3c3.3,0,5.6-2.9,5.6-6.3s-2.2-6.3-5.6-6.3m0,14.6a7.37,7.37,0,0,1-5.6-2.4V35H0V12.1H2.3v2a7,7,0,0,1,5.6-2.4c5.2,0,7.8,4,7.8,8.4s-2.6,8.2-7.8,8.2" fill="#fefefe"/>
            <path id="Path-2" d="M93,0V35" fill="none" stroke="#fff" stroke-width="0.45"/>
          </g>
        </g>
      </g>
    </g>
  </g>
</svg>
