<svg xmlns="http://www.w3.org/2000/svg" viewBox="0 0 22 17.88"><defs><style>.cls-1{fill:#fff;}</style></defs><path class="cls-1" d="M19.4 2.83a4.53 4.53 0 0 0 2-2.5 9 9 0 0 1-2.87 1.09 4.51 4.51 0 0 0-7.69 4.12A12.81 12.81 0 0 1 1.53.83a4.52 4.52 0 0 0 1.4 6 4.5 4.5 0 0 1-2-.56v.08a4.52 4.52 0 0 0 3.57 4.43 4.52 4.52 0 0 1-2 .08A4.52 4.52 0 0 0 6.68 14a9.05 9.05 0 0 1-5.6 1.93A9.16 9.16 0 0 1 0 15.86a12.77 12.77 0 0 0 6.92 2A12.75 12.75 0 0 0 19.76 5v-.58A9.17 9.17 0 0 0 22 2.12a9 9 0 0 1-2.6.71z"/></svg>