<svg id="media" xmlns="http://www.w3.org/2000/svg" viewBox="0 0 44 38"><defs><style>.cls-1{fill:#221f1f;}</style></defs><path class="cls-1" d="M40 8H26.11l5.62-5.62a1 1 0 0 0 0-1.4L31 .29a1 1 0 0 0-1.4 0l-7.29 7.32a1 1 0 0 0-.23.41h-.14a1 1 0 0 0-.23-.38L14.38.29a1 1 0 0 0-1.4 0l-.7.72a1 1 0 0 0 0 1.4L17.87 8H4a4.31 4.31 0 0 0-4 4v22a4.28 4.28 0 0 0 4 4h36a4.29 4.29 0 0 0 4-4V12a4.3 4.3 0 0 0-4-4zM30 28a4.3 4.3 0 0 1-4 4H10a4.3 4.3 0 0 1-4-4V18a4.3 4.3 0 0 1 4-4h16a4.3 4.3 0 0 1 4 4zm7 2a3 3 0 1 1 3-3 3 3 0 0 1-3 3zm0-8a3 3 0 1 1 3-3 3 3 0 0 1-3 3z"/></svg>