<svg id="Layer_17" data-name="Layer 17" xmlns="http://www.w3.org/2000/svg" viewBox="0 0 47.98 40"><defs><style>.cls-1{fill:#231f20;}</style></defs><path class="cls-1" d="M15.99 23.7c-6.23 0-13.55 3-13.55 3L-.01 38.52a84.65 84.65 0 0 0 16 1.48 85.92 85.92 0 0 0 16-1.48l-2.45-11.85a39.46 39.46 0 0 0-13.55-2.97zm29.93 0a33.1 33.1 0 0 0-11.43-2.56 31.56 31.56 0 0 0-9 1.64c2.57.61 5.64 1.47 6.5 2.22 1.52 1.31 1.87 5.89 2 8 .1 1.76.72 2 .93 2a71.85 71.85 0 0 0 13.07-1.27zm-18.12-8a9 9 0 0 0 6.67 3 8.85 8.85 0 1 0 0-17.7 9 9 0 0 0-7.05 3.4 10 10 0 0 1 .38 11.28zm-11.81 5.12a10.51 10.51 0 0 0 10.6-10.41A10.51 10.51 0 0 0 15.99 0 10.51 10.51 0 0 0 5.37 10.41a10.51 10.51 0 0 0 10.62 10.41z"/></svg>