<svg xmlns="http://www.w3.org/2000/svg" viewBox="0 0 47 40"><path d="M16 23.71c-6.23 0-13.55 3-13.55 3L0 38.52A84.81 84.81 0 0 0 16 40a85.92 85.92 0 0 0 16-1.48l-2.5-11.85A39.46 39.46 0 0 0 16 23.71zm0-3c6.5.04 10.5-6.31 10.5-8.85 0-.63.1-2.36 0-3A10.79 10.79 0 0 0 16 0 10.58 10.58 0 0 0 5.5 8.89c-.08.54 0 2.4 0 3 0 2.51 4 8.86 10.5 8.86zm29.92-8.74V9.43c0-3.55-2.42-6.42-5.42-6.42s-5.42 2.88-5.42 6.43v2.57H34v9h13v-9h-1.08zm-2.17 0h-6.5V9.43c0-2.13 1.46-3.86 3.25-3.86s3.25 1.73 3.25 3.86V12z"/></svg>