<svg id="athletics_event" data-name="athletics event" xmlns="http://www.w3.org/2000/svg" viewBox="0 0 42 48"><defs><style>.cls-1{fill-rule:evenodd;}</style></defs><path class="cls-1" d="M21 24a3 3 0 1 0 3 3 3 3 0 0 0-3-3zm15.83-10.75l2.06-2.06a1.5 1.5 0 0 0-2.12-2.12l-2.07 2.07A21 21 0 0 0 26 6.62V3h1.5a1.5 1.5 0 0 0 0-3h-13a1.5 1.5 0 0 0 0 3H16v3.62a21 21 0 1 0 20.83 6.63zM19 3h4v3.1c-.66-.1-1.32-.1-2-.1s-1.34 0-2 .1V3zm2 29a5 5 0 0 1-3.91-8.08.83.83 0 0 1-.24-.15l-4.62-4.3a.887.887 0 0 1 1.27-1.24l4.8 4.12a.84.84 0 0 1 .2.36A5 5 0 1 1 21 32z"/></svg>