<svg id="embed" xmlns="http://www.w3.org/2000/svg" viewBox="0 0 44 44"><defs><style>.cls-1{fill-rule:evenodd;}</style></defs><path class="cls-1" d="M40 0H4a4.38 4.38 0 0 0-4 4v36a4.28 4.28 0 0 0 4 4h36a4.3 4.3 0 0 0 4-4V4a4.35 4.35 0 0 0-4-4zM16.49 29.08a1.68 1.68 0 0 1 0 2.42 1.8 1.8 0 0 1-2.5 0l-8.48-8.29a1.68 1.68 0 0 1 0-2.42L14 12.51a1.8 1.8 0 0 1 2.5 0 1.68 1.68 0 0 1 0 2.42L9.25 22zm22-5.85L30 31.52a1.81 1.81 0 0 1-2.5 0 1.68 1.68 0 0 1 0-2.43L34.77 22l-7.25-7.09a1.68 1.68 0 0 1 0-2.43 1.81 1.81 0 0 1 2.5 0l8.49 8.3a1.68 1.68 0 0 1 .01 2.45z"/></svg>