<svg id="Layer_1" data-name="Layer 1" xmlns="http://www.w3.org/2000/svg" viewBox="0 0 16 16"><title>new_window</title><path d="M14.87,0H10A1.06,1.06,0,0,0,9,1.1a1.2,1.2,0,0,0,1,1.19h2.2L6.79,7.64a1,1,0,0,0,0,1.42l0,0a1,1,0,0,0,1.41,0l0,0,5.41-5.41.06,2.24A1,1,0,0,0,14.62,7h.24C15.67,7,16,6.58,16,6V1.14A1.24,1.24,0,0,0,14.87,0Z" transform="translate(0)"/><path d="M13,8a1,1,0,0,0-1,1v2a3,3,0,0,1-3,3H5a3,3,0,0,1-3-3V7A3,3,0,0,1,5,4H7A1,1,0,0,0,7,2H5A5,5,0,0,0,0,7v4a5,5,0,0,0,5,5H9a5,5,0,0,0,5-5V9A1,1,0,0,0,13,8Z" transform="translate(0)"/></svg>