<svg xmlns="http://www.w3.org/2000/svg" viewBox="0 0 44 31.17"><path data-name="Youtube" d="M43.56 6.73s-.43-3.05-1.75-4.4A6.26 6.26 0 0 0 37.4.45C31.25 0 22 0 22 0S12.76 0 6.61.45A6.26 6.26 0 0 0 2.2 2.33C.88 3.67.45 6.73.45 6.73A67.51 67.51 0 0 0 0 13.9v3.36a67.47 67.47 0 0 0 .44 7.17s.43 3.05 1.75 4.4C3.86 30.6 6.06 30.54 7 30.72c3.52.34 15 .45 15 .45s9.25 0 15.4-.46a6.27 6.27 0 0 0 4.41-1.88c1.32-1.34 1.75-4.4 1.75-4.4a67.47 67.47 0 0 0 .44-7.17V13.9a67.51 67.51 0 0 0-.44-7.17zm-26.1 14.6V8.88l11.88 6.29z"/></svg>