<svg id="Layer_1" data-name="Layer 1" xmlns="http://www.w3.org/2000/svg" viewBox="0 0 500 190.82">
  <title>plan-primary-rgb-fullcolor</title>
  <g id="_Group_" data-name="&lt;Group&gt;">
    <g id="_Group_2" data-name="&lt;Group&gt;">
      <path id="_Path_" data-name="&lt;Path&gt;" d="M67.21,186.63c0,1.59-2.12,1.59-2.3,2.82a4,4,0,0,1-.71.18c-4.24-.88-5.83-2.83-6.36-6.89,0-.71.53-1.77-1.24-1.41-0.88.18-.71-1.41-0.18-1.59,2.12-.71,2.3-2.83,4.06-3.71,1.06-.53.18-0.71-0.35-1.06-3.71-2.12-3.88-4.41-.53-7.06,1.24-.88,1.41-2.12,0-2.65a1.59,1.59,0,0,1-.88-2.65c0.53-.88,1.41-1.41,0-2.47-0.35-.18,0-0.88.88-1.06,2.82-.71,2.82-2.3.88-4.41-0.88-.88-2.47-2.65-0.35-3.88A1.65,1.65,0,0,0,61,149c0-2.47-1.06-4.77-.71-7.24a0.75,0.75,0,0,0-.53-0.88c-2.65-1.59-1.41-2.83.35-4.06-2.47-1.94-2.83-4.59-1.06-6.71l0.18-.18c-1.24-3,1.41-5.65,1.41-8.65-0.18-2.83-3-4.94-2.3-7.95,0.18-.88-0.35-1.77,1.06-2.3,0.71-.18.88-0.88,0.35-1.59-0.71-1.41-.35-2.47,1.77-3q-3.44-1.85-1.06-4.24a1.51,1.51,0,0,0,0-2.3c-1.94-1.77-1.94-3.35-.35-5.12,0.18-.18.53-0.18,0.35-0.53-1.41-4.06.53-8.12,0.71-12.36,0.18-3.53-3.18-6-2.3-9.36,0.18-.53-0.35-0.71-0.88-0.88-0.71,0-1.06-.71-0.88-0.88,1.77-.71,1.24-2.83,2.65-3.53,2.65-1.24,3-2.47.88-4.41-0.88-.88-1.94-0.88.18-1.77,2.3-1.06,2.3-5.12.53-6.89A2.25,2.25,0,0,1,61.21,51c1.06-1.24,1.41-1.94-.18-3a2.44,2.44,0,0,0-.71-0.53c2.47-1.94-2.12-4.24.53-6.71,1.94-1.77-.71-5.3,1.41-7.59,0.88-.88-0.53-0.88-0.88-1.41-0.71-1.24-1.59-2.65,1.24-3,0.53,0,1.41.53,1.41-.71,0-.88.18-1.77-0.88-1.94-1.77-.18-1.24-1.24-1.24-1.94,0.18-1.24,1.41-.88,2.12-0.88,2.83,0.18,5.47.18,6-3.18,0.18-1.06,1.24-.71,1.94-0.71,9.89-.35,19.78-0.71,29.66-0.53,3.53,0,7.06-1.06,10.77-.18,0.88,0.18,2.47-1.94,4.41-1.41,1.06,0.18,2.47-.53,3.18,1.24,0.53,1.06,3.71.88,4.24,0.18,1.24-1.59,2.47-.88,3.71-0.88h9.36a1.08,1.08,0,0,0,1.24-.53c0.88-1.06,2.3-1.24,3,.18a1.42,1.42,0,0,0,1.94.71c4.24-2.12,8.83-.53,13.24-1.06,1.94-.18,4.06.53,5.83-1.06a2.87,2.87,0,0,1,2.65.18c1.06,0.88,2.3,1.94,3.35-.18,0.35-.71,1.59-0.18,2.12.53,0.88,1.24,1.77,1.41,2.82.18,0.53-.71,1.41-0.35,1.94-0.35h9.36c0.71,0,1.59.71,1.77-.53a1.21,1.21,0,0,1,1.59-.53c3.53,2.3,6.71-1.06,10.24-.18,3.71,1.06,7.77.71,11.65,0.53,1.77,0,3.71.53,5.12-1.06a1.35,1.35,0,0,1,1.41,0c2.65,2.3,4.94-.71,7.77-0.18,3,0.71,6.18.53,9.36,0.71,1.06,0,2.47.53,2.83-1.24,0.18-.88,5.47-0.35,6.36.53a4.25,4.25,0,0,0,5.3,0c0.53-.71,1.24-0.35,1.94-0.35,2.83,0.18,5.47-.18,8.3.35,1.41,0.35,3.53,1.06,5.12-1.06,0.71-1.06,3.53-.53,5.3-0.18a15.15,15.15,0,0,0,3.88.35c7.95-.35,15.89.88,24,0.53,1.06,0,2.47.53,2.83-1.24,0.18-.71.88-0.53,1.41,0,1.59,1.59,2.47,1.59,3.88.18a0.84,0.84,0,0,1,.88-0.18c2.47,0.53,5.3-.88,7.06,1.77a0.84,0.84,0,0,0,.88.18c3-2.83,6.71-.88,10.24-1.24,2.3-.18,5.65.71,7.24,0,2.12-1.06,3-.71,4.41.35a2,2,0,0,0,1.41-.18c0.88-1.59,1.59-2.47,2.3,0a2.24,2.24,0,0,0,1.06.18c2.12-3.18,5.65-1.59,8.12-1.41,8.48,0.71,17,.71,25.43,1.24,2.83,0.18,5.65.35,8.48,0.35,1.24,0,2.83.71,3.53-1.24a1.81,1.81,0,0,1,2.83.53c0.53,1.24,1.94,1.24,3,.53,2.12-1.59,2.83-1.59,4.24.71,1.41-.88,2.83-3.53,4.77-0.18a2,2,0,0,0,2.65.35c2.3-1.41,4.59-2.12,6.71.35a1.07,1.07,0,0,0,1.41,0c3-1.94,7.59-2.12,10.24-.18,0.88,0.53,1.24.18,1.94-.18,1.24-.71,3.18-1.41,3.53.88,0.18,1.24,1.24.88,1.94,0.88H450.9c1.77-1.59,3.71-.53,5.65-0.71,0.71,0,2.47.71,2.47-1.24,0-.53,1.77-0.53,2.3-0.18a5.58,5.58,0,0,0,6.36-.53,0.8,0.8,0,0,1,1.24,0,2.16,2.16,0,0,0,3.53-.53c0.18-.35,2.83-0.71,3-0.35,0.35,0.88,1.59.88,1.59,1.06,2.3,3.88,2.83,0,3.18-.71,1.06-2.47,3.35-1.59,4.77-1.06s2.83,0.71,3.71.18c4.06-2.65,8.83-2.12,13.24-2.3,9.36-.71,18.54-1.77,27.9-2.3a2.28,2.28,0,0,0,1.41-.35c0.71-3.71,4.41-1.41,6.53-2.3,1.24-.53,2.65-0.88,3.88-1.41,3.71-1.24,7.95-1.06,12-.88,1.06,0,.35,1.24.71,1.77,0.35,0.71,1.41-.71,1.59.35,0.35,1.24-1.41.71-1.59,1.24-0.18,2.3-3.18,3.18-3.53,4.94s-0.71,4.06.88,5.47a4.68,4.68,0,0,1,.88,5.65c-0.53,1.24-.18,2.3-0.35,3.35-0.35,2.3,1.41,4.59-.35,6.89-0.35.53-1.94,3.35,1.59,3.35a2.27,2.27,0,0,1,.18,1.24,36.27,36.27,0,0,0-1.24,6c-0.53,3-1.06,3.35,1.06,6a2.17,2.17,0,0,1,.18,1.77c-1.41,1.24-.53,3.53-2.12,4.59a0.17,0.17,0,0,1-.18.18c-1.41,1.59,2.12,1.94,1.24,3.35-0.88,1.24-1.06,2.47.71,3.35a0.84,0.84,0,0,1,.53.88c-2.65,1.24.18,4.06-1.94,5.3a1.06,1.06,0,0,0-.18.71c3,0.53,1.06,2.83,1.94,4.24a1.12,1.12,0,0,1-.71,1.77,1.31,1.31,0,0,0-.71,1.59,20.86,20.86,0,0,1,.53,8.12c-0.18.88,0.88,2.3,1.24,3.71,1.06,3.53.18,6.71-.35,10.06a15.7,15.7,0,0,0,.71,6.36c0.18,1.24,1.06,2.3-1.06,2.83-0.71.18-.35,1.06-0.18,1.77,0.88,4.41,2.47,8.83,1.41,13.07-0.71,3,1.24,6.53-1.77,9.36-0.35.35-.53,2.47,0.88,3,1.24,0.35,1.06,1.06,1.24,1.77a3.3,3.3,0,0,1-1.59,4.24c-0.88.53-1.59,0.88,0,1.24a1,1,0,0,1,.88,1.24c0.18,1.77-1.77,3.53.53,5.12,0.18,0.18.35,1.41-.53,1.41-2.83.18-2.3,1.77-2.12,3.35a3.25,3.25,0,0,1-.88,3.18c-0.71.88-.71,2.65,0.71,4.06a4.83,4.83,0,0,1,.88,5.65,6.49,6.49,0,0,0-.88,2.83c0,2.83-1.41,5.65-.35,8.48,0.18,0.53-2.65,1.59-3.35,1.41-1.94-.88-4.41-0.18-4.77.88-0.53,1.77-1.59,1.59-2.83,1.59a57.56,57.56,0,0,0-9.53.53c-3.35.53-6.89-.71-10.42-0.53-2.12.18-4.24,0-5.83,1.59a1.39,1.39,0,0,1-2.3-.18c-0.53-.88-6.18-0.71-7.06,0-2.47,1.94-3,1.77-6.89.53-0.88-.18-3.71-0.88-4.59,1.24a1.52,1.52,0,0,1-1.94,1.06,24.84,24.84,0,0,0-4.94.53c-1.06.18-2.47,0.53-3.53-1.06s-3.71,0-5.47.35c-2.12.35-3,.53-3-1.77,0-1.24-1.24-1.24-2.3-1.24H441c-0.88,0-2.12-.35-1.94,1.06,0.18,1.94-1.24,1.77-2.65,1.59-13.95-.71-27.9-0.53-41.85-1.59-1.24,0-3-.88-3.88,1.24-0.35.71-2.83,0.88-3.88-.18-1.94-1.94-3.71-1.59-5.83-.53a1.08,1.08,0,0,1-1.06.18c-3.53-1.77-3.53-1.77-7.59.18-1.24.53-3.18,0.88-4.24-.53a2,2,0,0,0-2.83-.71c-2.47,1.94-5.12.35-7.59,0.88-1.77.35-.88-1.59-2.12-1.77-1.59-.18-2.47,1.06-3.88,1.06-5.47.18-11.12,0.18-16.6-.18-1.24,0-2.83.18-3.88-1.24-0.71-1.06-1.41.88-2.47,0.88-3.71,0-7.42.35-10.95-.18a58.49,58.49,0,0,0-13.6-.18c-1.94.18-4.24,0.88-6.36,0.88-1.24,0-2.47.35-3.18-1.06-0.35-.71-1.59-0.71-1.59-0.18,0.18,2.65-2.12,1.24-2.83,1.24a66.22,66.22,0,0,0-10.24-.35c-0.71,0-1.41-.18-1.94.53-0.71.88-1.24,1.06-1.59-.18a1.91,1.91,0,0,0-1.06-.18c-3.53,2.12-7.24.35-10.95,0.88a1.05,1.05,0,0,1-1.41-.71c-0.18-1.24-1.77-1.06-2.12-.88-2.65,1.77-5.47.71-8.3,1.06-1.06.18-2.47-.35-3,1.06a0.92,0.92,0,0,1-.71.35c-4.24-2.47-8.48.88-12.71-.18a0.94,0.94,0,0,0-1.24.88c-0.35,1.24-1.06.71-1.59,0.18-1.24-1.59-1.41-1.59-2.12-.18-0.53,1.24-1.06.71-2.12,0.71-5.47-.53-11.12-0.88-16.24,0a39.37,39.37,0,0,1-11.12.71c-4.41-.53-8.83-0.88-12.89-0.18a71.87,71.87,0,0,1-10.77.88c-1.77,0-3.71.35-5.47-.35a2.43,2.43,0,0,0-1.94.18c-2.65,2.65-6,.88-9,1.24-1.77.18-3.53-1.06-5.12,0.53a0.93,0.93,0,0,1-1.41-.18c-0.71-1.06-1.41-1.24-2.12,0a1.17,1.17,0,0,1-1.06.18c-3.35-1.41-6.89.71-10.24,0-3.18-.71-6-1.94-9.53-1.41-7.42,1.06-14.83,2.12-22.42,2.12-4.41,3-9.71,1.77-14.48,2.47-4.94.71-10.06,0.53-15.18,0.88-1.41,0-4.94-1.94-6-3-1.41-1.41-3.71-1.41-5.47-1.77a6.72,6.72,0,0,0-1.41-2.3" transform="translate(-56 -2.87)" style="fill: #006ee6"/>
      <path id="_Compound_Path_" data-name="&lt;Compound Path&gt;" d="M269.56,60.56c0-7.59,3.71-11.65,10.77-11.65h18c19.42,0,30,8.48,30,24.72s-10.24,24.19-29.49,24.19h-8.12v19.07H269.56V60.56Zm20.84,21.89h7.77c6.36,0,9.71-3.18,9.71-8.83s-3.53-8.83-10.06-8.83h-7.42V82.45Z" transform="translate(-56 -2.87)" style="fill: #fff"/>
      <path id="_Path_2" data-name="&lt;Path&gt;" d="M334.18,58.26c0-6.71,3-9.71,8.83-9.71h3c6,0,9.18,3.18,9.18,9.71V98.7h20.66c6.53,0,9.71,3,9.71,8.65v0.35c0,6-3.18,9.18-9.71,9.18H334V58.26h0.18Z" transform="translate(-56 -2.87)" style="fill: #fff"/>
      <path id="_Compound_Path_2" data-name="&lt;Compound Path&gt;" d="M434.12,102.93H412.05l-5.3,14.13h-21L410.11,54.2c1.06-3.35,3.88-5.83,13.42-5.83s12,2.47,13.07,5.83L462,117.06H439.77ZM415.76,87.75h14.66L423,68Z" transform="translate(-56 -2.87)" style="fill: #fff"/>
      <path id="_Path_3" data-name="&lt;Path&gt;" d="M464.49,58.26c0-6.53,3.18-9.71,8.65-9.71h1.94c4.94,0,6.53,1.41,9.53,4.94L509,85.28V48.9h19.78v58.8c0,6.53-3.18,9.71-8.48,9.71h-1.77c-5.12,0-6.53-1.24-9.36-4.59l-24.9-32.31v36.37H464.49V58.26Z" transform="translate(-56 -2.87)" style="fill: #fff"/>
      <path id="_Path_4" data-name="&lt;Path&gt;" d="M271.15,139.31a2.42,2.42,0,0,1,2.65-2.65h0.88a2.42,2.42,0,0,1,2.65,2.65v17.3h-6.18v-17.3Z" transform="translate(-56 -2.87)" style="fill: #fff"/>
      <path id="_Path_5" data-name="&lt;Path&gt;" d="M281.92,139.48c0-1.94.88-2.83,2.47-2.83h0.53a3,3,0,0,1,2.83,1.41l7.06,9.18V136.66h5.83v17.13c0,1.94-.88,2.83-2.47,2.83h-0.53A2.61,2.61,0,0,1,295,155.2l-7.24-9.36v10.59h-5.83v-17Z" transform="translate(-56 -2.87)" style="fill: #fff"/>
      <path id="_Path_6" data-name="&lt;Path&gt;" d="M303.81,139.48h0c0-1.77,1.06-2.65,2.83-2.65h12.71c1.94,0,2.83.88,2.83,2.47v0.18c0,1.77-.88,2.65-2.83,2.65h-3.18v14.48H310V142.13h-3.35c-1.77,0-2.83-.88-2.83-2.65" transform="translate(-56 -2.87)" style="fill: #fff"/>
      <path id="_Path_7" data-name="&lt;Path&gt;" d="M325.53,153.61V140.19c0-2.12,1.06-3.35,3.18-3.35H342v5.3H331.71v1.94h7.59V149h-7.59v2.3H342v5.3H328.53a2.7,2.7,0,0,1-3-3" transform="translate(-56 -2.87)" style="fill: #fff"/>
      <path id="_Compound_Path_3" data-name="&lt;Compound Path&gt;" d="M355.9,154.31l-2.83-3.71H352v6.18h-6.18V140.37c0-2.12,1.06-3.35,3.18-3.35h6.18c5.47,0,8.3,2.3,8.3,6.53a5.69,5.69,0,0,1-4.24,5.83l4.41,5.47c0.18,0.18-.88,2.12-3.53,2.12a5.15,5.15,0,0,1-4.24-2.65m-4.06-8.12h2.65c1.77,0,2.83-.88,2.83-2.3,0-1.59-.88-2.3-2.83-2.3H352v4.59h-0.18Z" transform="translate(-56 -2.87)" style="fill: #fff"/>
      <path id="_Path_8" data-name="&lt;Path&gt;" d="M367.38,139.48c0-1.94.88-2.83,2.47-2.83h0.53a3,3,0,0,1,2.83,1.41l7.06,9.18V136.66h5.83v17.13c0,1.94-.88,2.83-2.47,2.83h-0.53a2.61,2.61,0,0,1-2.65-1.41l-7.24-9.36v10.59h-5.83v-17Z" transform="translate(-56 -2.87)" style="fill: #fff"/>
      <path id="_Compound_Path_4" data-name="&lt;Compound Path&gt;" d="M402.69,152.55h-6.36l-1.59,4.06h-6.18l7.06-18.36c0.35-1.06,1.06-1.77,3.88-1.77s3.53,0.71,3.88,1.77l7.42,18.36h-6.36Zm-5.3-4.41h4.24l-2.12-5.83Z" transform="translate(-56 -2.87)" style="fill: #fff"/>
      <path id="_Path_9" data-name="&lt;Path&gt;" d="M412.05,139.48h0c0-1.77,1.06-2.65,2.83-2.65h12.71c1.94,0,2.83.88,2.83,2.47v0.18c0,1.77-.88,2.65-2.83,2.65h-3.18v14.48h-6.18V142.13h-3.35c-1.94,0-2.83-.88-2.83-2.65" transform="translate(-56 -2.87)" style="fill: #fff"/>
      <path id="_Path_10" data-name="&lt;Path&gt;" d="M433.77,139.31a2.42,2.42,0,0,1,2.65-2.65h0.88a2.42,2.42,0,0,1,2.65,2.65v17.3h-6.18v-17.3Z" transform="translate(-56 -2.87)" style="fill: #fff"/>
      <path id="_Compound_Path_5" data-name="&lt;Compound Path&gt;" d="M443.83,146.72a10.11,10.11,0,0,1,10.42-10.42c6.18,0,10.42,4.24,10.42,10.42a10.42,10.42,0,0,1-20.84,0m14.83,0c0-2.83-1.77-4.94-4.41-4.94s-4.41,1.94-4.41,4.94,1.77,4.94,4.41,4.94,4.41-1.94,4.41-4.94" transform="translate(-56 -2.87)" style="fill: #fff"/>
      <path id="_Path_11" data-name="&lt;Path&gt;" d="M468.55,139.48c0-1.94.88-2.83,2.47-2.83h0.53a3,3,0,0,1,2.83,1.41l7.06,9.18V136.66h5.83v17.13c0,1.94-.88,2.83-2.47,2.83h-0.53a2.61,2.61,0,0,1-2.65-1.41l-7.24-9.36v10.59h-5.83v-17Z" transform="translate(-56 -2.87)" style="fill: #fff"/>
      <path id="_Compound_Path_6" data-name="&lt;Compound Path&gt;" d="M503.87,152.55h-6.36l-1.59,4.06h-6.18l7.06-18.36c0.35-1.06,1.06-1.77,3.88-1.77s3.53,0.71,3.88,1.77L512,156.61h-6.36Zm-5.47-4.41h4.24l-2.12-5.83Z" transform="translate(-56 -2.87)" style="fill: #fff"/>
      <path id="_Path_12" data-name="&lt;Path&gt;" d="M514.28,139.48c0-1.94.88-2.83,2.65-2.83h0.88c1.77,0,2.65.88,2.65,2.83v11.83h6c1.94,0,2.83.88,2.83,2.47V154c0,1.77-.88,2.65-2.83,2.65H514.28V139.48Z" transform="translate(-56 -2.87)" style="fill: #fff"/>
      <path id="_Path_13" data-name="&lt;Path&gt;" d="M102.17,56.14c-1.41.88-7.95,7.77-8.65,8.83-0.35.53-1.59,2.65-1.77,2.83s-1.06,1.41-1.24,1.59-0.88,2.3-1.06,2.47c-0.35.53-1.41,1.41-1.59,1.77a2.63,2.63,0,0,1-1.06,2.83c-1.06.88-1.77,4.41-1.94,4.59-0.18.71-1.59,2.3-1.41,3.71a2.27,2.27,0,0,1-.71,1.77c-0.18.53-.18,2.3-1.24,2.65-0.88.35-.53,1.77-0.35,2.3a3.49,3.49,0,0,1,.18,2.65A2.61,2.61,0,0,0,81.51,96c0.71,1.06,0,2.83-.18,3.35-0.18,3.18,1.94,4.06,1.41,6-0.35,1.24.35,2.12,0.18,3.35a2.35,2.35,0,0,0,.71,1.77,7.48,7.48,0,0,1,.71,2.12c-0.35,1.77,2.3,4.24,2.12,6.71-0.18,2.12,2.47,3.18,2.65,3.35,1.24,1.59,1.24,3.35,2.65,4.24a10.72,10.72,0,0,0,1.77,1.24c0.88,0.53,0,1.06.18,1.24a11.16,11.16,0,0,0,3.35,3.88c5.47,6.36,18.54,14.48,20,14.66a5.57,5.57,0,0,1,3.35,1.24,30.65,30.65,0,0,0,5.83,2.65c0.71,0.35,1.41.18,2.12,0.53,0.71,0.18,4.77,1.77,5.3,1.94a22.68,22.68,0,0,0,4.77,1.59c1.24,0.35,2.65,1.06,4.06,1.41,1.59,0.35,2.83-1.06,4.06-.18a14.24,14.24,0,0,0,4.24,1.59c6.53,1.41,15.89,1.77,22.42,1.41a10.53,10.53,0,0,0,4.41,0c2.3-.18,4.94-0.88,7.24-1.06,3.35-.88,7.24-1.77,10.42-3.35,1.06-.18,2.3-1.41,3-1.59a14,14,0,0,0,3.88-2.65c0.18-.18,2.3-1.41,2.3-1.41a10.43,10.43,0,0,0,1.41-.88c0.53-.35,5.83-4.59,5.83-4.59,0.35-.88,1.41-1.24,2.3-1.77a0.67,0.67,0,0,1,.35-0.35,3.69,3.69,0,0,1,1.06-.71c0.18-.18.35-0.18,0.53-0.35l0.18-.18a0.35,0.35,0,0,1,.18-0.35,0.17,0.17,0,0,1,.18-0.18c0.18,0,.18.18,0.18,0l0.18-.18a0.17,0.17,0,0,1,.18-0.18c0.18-.18.18-0.35,0-0.35a0.67,0.67,0,0,1-.35-0.35,0.94,0.94,0,0,1,.35-0.53,0.56,0.56,0,0,1,.53,0,0.67,0.67,0,0,0,.35.35,0.38,0.38,0,0,0,.35-0.35,0.35,0.35,0,0,1,.18-0.35c0.18-.18-0.18-0.18-0.35-0.18s0-.18.18-0.18a0.38,0.38,0,0,0-.35-0.35c-0.18,0-.35.18-0.53,0.18l-0.18.18h-0.18v0.18c0,0.18-.18,0-0.18,0h-0.71a0.17,0.17,0,0,0-.18.18c-0.18,0-.18.18-0.35,0.18a2.51,2.51,0,0,0-1.06.35,1.34,1.34,0,0,1-.71.35h-0.53l-0.18.18-0.18.18a0.62,0.62,0,0,1-.53.53,1.17,1.17,0,0,1-1.24-.35c-0.88,0-.88-0.53-1.06-1.06a0.29,0.29,0,0,0-.35-0.35,0.67,0.67,0,0,0-.35.35,2.57,2.57,0,0,1-1.59,1.06,7.65,7.65,0,0,0-.88.18,1,1,0,0,0-.71,0c-0.18,0-.18.18-0.18,0.35s-0.18.18-.18,0.35c-0.18.18-.35,0.35-0.53,0.18-0.18,0-.53-0.18-0.18-0.53,0.18-.18.53-0.18,0.35-0.53,0-.18-0.18,0-0.35,0a0.65,0.65,0,0,1-.53.18,0.62,0.62,0,0,1-.71-0.53v-0.18l0.18-.18,0.18-.18V139a0.67,0.67,0,0,1,.35-0.35,1.5,1.5,0,0,1,.53-0.53,0.85,0.85,0,0,0,.71-0.18c0.18-.35,0-0.53.18-0.88s0.53-.35.18-0.71-0.71,0-1.06.18a0.94,0.94,0,0,1-.53.35c-0.35,0-.18-0.18,0-0.35l0.53-.53a0.79,0.79,0,0,1,.71-0.53,0.65,0.65,0,0,0,.53-0.18c0.18-.35,0-0.53-0.35-0.53a2.51,2.51,0,0,0-1.06.35,2.44,2.44,0,0,0-.71.53,0.53,0.53,0,0,1-.71.18h-0.18a0.94,0.94,0,0,0-.53.35c-0.35.18-.71,0.35-0.88-0.18a0.67,0.67,0,0,1,.35-0.35s0.88-.18,1.06-0.18a1.86,1.86,0,0,0,.88-0.35,0.17,0.17,0,0,1,.18-0.18c0.35-.35-0.18-1.06-0.53-0.71a4.16,4.16,0,0,0-.88.88,1.34,1.34,0,0,1-.71.35c-0.18,0-.71-0.18-0.53-0.53a1.36,1.36,0,0,1,.53-0.35l0.53-.53,1.06-.53c0.18,0,.71,0,0.71-0.35,0-.18-0.18-0.18-0.35-0.18H203.7a1.59,1.59,0,0,1-.88-0.18c-0.18-.18,0-0.53-0.35-0.53-0.53,0-.18.18-0.35,0.53a1.17,1.17,0,0,1-1.06.18c-0.18-.35.35-0.71,0.53-0.71a1.32,1.32,0,0,1,.88-0.18h0.35c0.18,0,.18-0.35.35-0.35s0.18-.35,0-0.35h-0.71a1.5,1.5,0,0,0-.53.53,1.34,1.34,0,0,1-.71.35c-0.35,0-.35-0.35-0.71-0.35-0.35-.18-0.35.35-0.35,0.53a0.6,0.6,0,0,1-.71.35l-0.53.53a3.41,3.41,0,0,1-1.77.53,0.65,0.65,0,0,0-.53.35c-0.53.35-1.06-.18-1.59,0l-0.35.18c-0.18,0-.18-0.18-0.35-0.18a6.27,6.27,0,0,1-1.24-.18,0.94,0.94,0,0,0-.53.35,1.53,1.53,0,0,1-1.06.53,0.94,0.94,0,0,1-.53-0.35,0.33,0.33,0,0,0-.53,0,1.36,1.36,0,0,1-.35.53c-0.18,0-.35,0-0.35-0.18s0.18-.18.18-0.35,0-.18-0.18-0.18l-0.35.18h-0.88a0.35,0.35,0,0,1-.35-0.18c-0.18,0-.18-0.18-0.35-0.18a0.67,0.67,0,0,0-.35.35h-0.53a0.56,0.56,0,0,0-.53,0l-0.35.35h-0.88a10.13,10.13,0,0,0-2.12.18c-1.06.18-1.94,0.53-3,.71s-5.47.35-6.18,0.35-3.53-.18-3.71.18h-0.88a1.36,1.36,0,0,0-.53-0.35c-0.53-.18-0.18.35-0.88-0.18a3.33,3.33,0,0,0-1.94-.18c-1.24,0-3.53-.35-3.88-0.35a4,4,0,0,1-2.12-1.06c-0.35-.53-1.06-0.53-1.06-1.24a15.55,15.55,0,0,1,.53-4.59c0.18-.71.35-3.18,0.53-3.35s0-.18.18-0.35c0.88-.88.53-0.88,0.71-1.77,0.35-1.41.88-3.71,2.47-4.06a15.78,15.78,0,0,0,2.3-.88,10.76,10.76,0,0,0,3-.53,2.59,2.59,0,0,1,.71-0.35c1.06-.18,1.94.18,3,0a15,15,0,0,1,2.3-.18c0.35,0,0-.35.18-0.35,0.53-.18.53,0.35,1.06,0.53a11.65,11.65,0,0,0,2.47.18c0.18,0,0-.18.18-0.35,0.35-.35.53,0.35,0.71,0.35,0.35,0.35,7.77,1.24,8.3,1.24a4.47,4.47,0,0,0,3-.35,9.51,9.51,0,0,0,2.3-1.24,0.56,0.56,0,0,0,0-.53,2.16,2.16,0,0,0,.53-1.59,1.06,1.06,0,0,1,.18-0.71,1.5,1.5,0,0,0,0-.88,0.84,0.84,0,0,1,.35-0.88,1.09,1.09,0,0,0,.18-1.24,3.61,3.61,0,0,0-.88-0.88c-0.35-.18,0,0,0-0.35a0.65,0.65,0,0,0-.53-0.18,5,5,0,0,1-1.41-.18,9,9,0,0,0-3-.53c-1.59,0-3.18-.71-4.94-0.53-0.35,0-.88.18-1.06,0.18-0.35,0,0-.53-1.06-0.53a12,12,0,0,1-2.65-.35c-0.71-.18-3.18,0-3.35-0.18a0.65,0.65,0,0,1-.53-0.18,3.79,3.79,0,0,0-1.24-.71,0.62,0.62,0,0,1-.35-0.18,1.47,1.47,0,0,1-.88,0c-0.35-.18-1.06-0.35-1.06-0.88-0.18-.88,1.41-1.94,2.12-2.3,0.53-.35,1.06-1.06,1.77-0.88a2.35,2.35,0,0,0,.88-0.53,40.84,40.84,0,0,1,3.53-4.24c0.71-.53.18-1.41,1.24-2.12a6.2,6.2,0,0,0,.88-1.41c0.53-.88.35-2.3,1.24-3L183,90.4a0.85,0.85,0,0,0-.18-0.71,1.47,1.47,0,0,1,0-.88V86.16a0.76,0.76,0,0,1,.88-0.88c0.35,0,0-.88,0-1.24a2.45,2.45,0,0,0-2.12-1.94c-1.41-.18-2.47.88-3.35,1.94-0.53.71-2.3,3-2.47,3.18-0.53.35,0,.53-0.53,1.24-0.18.18-.53,0.18-0.71,0.35A6.4,6.4,0,0,0,174,90a0.58,0.58,0,0,1-.18.71c-0.71.53-.71-0.18-1.06,0-1.24.88-1.24,1.24-1.41,1.24A4.17,4.17,0,0,1,169.8,93a2.16,2.16,0,0,0-1.59.71c-0.18.35-1.06,0.35-1.06-.18a7.45,7.45,0,0,1,.53-2.12c0.18-.71-1.06-1.24-0.35-1.94a0.85,0.85,0,0,0,0-1.24A3.27,3.27,0,0,1,167,87c-0.35-.53.18-0.53-0.35-1.24-0.18-.35-0.53.18-0.71-0.71A1.72,1.72,0,0,0,165,84c-0.35-.35-0.88-0.71-1.24-1.06a11,11,0,0,0-3.88-1.77,11.43,11.43,0,0,0-4.24-.18c-0.35,0-.88,0-0.88-0.35a0.17,0.17,0,0,0-.18-0.18,1.55,1.55,0,0,0-1.24.18c-0.88.35,0,.71-0.53,0.88-0.71.18-2.3,0.71-2.83,0.88a6.24,6.24,0,0,1-1.06.18c-0.53,0-.53.35-1.06,0.71-1.06.53-.88,3.18-0.88,3.88a0.29,0.29,0,0,0,.35.35c0.18,0,.53.18,0.53,0.88a5.45,5.45,0,0,1-.18,1.59c-0.18.71,0.18,0.35,0.18,0.88s0.71,2.3.53,2.65c0,0.18.18,0.35,0.18,0.53a0.17,0.17,0,0,0,.18.18c0.35,0,.35.71,0.53,1.24a2.85,2.85,0,0,0,.71,1.24c0.18,0.18.18,0.35,0.35,0.53s0.35,0.35.18,0.53-0.71.71-.88,0.53c-0.35-.18-1.24-0.18-1.59-0.35-0.71-.18-1.41.18-1.59,0a4.54,4.54,0,0,0-.88-0.35c-0.35-.18-0.35.18-0.53,0.18a1.5,1.5,0,0,1-.53-0.53,3.14,3.14,0,0,0-1.77-.71,9.13,9.13,0,0,1-2.3-1.06c-0.71-.53-3.35-1.41-3.35-1.77-0.18-.35-0.88-0.18-1.06-0.35,0-.35-0.88-0.35-0.88-0.53,0-.35-0.53-0.18-0.71-0.35a0.78,0.78,0,0,0-.88-0.18,0.54,0.54,0,0,1-.71,0,1.36,1.36,0,0,0-.53-0.35,1.09,1.09,0,0,0-1.24.35,4.13,4.13,0,0,0-1.24,1.24c-0.18.35-.35,0.53-0.53,0.88a2.44,2.44,0,0,1-.53.71,0.55,0.55,0,0,0,.35.88c0.35,0.18,0,.53.35,0.71,0.53,0.18.71,1.24,1.24,1.77a5.91,5.91,0,0,1,1.24,2.3c0.35,0.71,1.41.18,1.77,0.88a9,9,0,0,0,1.94,1.94,9.37,9.37,0,0,0,3,1.41,6,6,0,0,1,3.53,1.59,2.54,2.54,0,0,1,1.94,1.59,17.31,17.31,0,0,1,.71,3.71c0.35,2.3,1.24,1.94.88,2.65-0.53,1.06.35,2.12,0.35,4.77a6.74,6.74,0,0,1-.71,2.3c-0.53,1.41.35,3.35,0.18,3.88-0.35.88-.53,4.06-1.24,4.77a1.06,1.06,0,0,1-1.24,0c-0.71-.35-2.83.18-3.35-0.18-0.88-.88-2.12-0.71-2.65-0.88a5.29,5.29,0,0,1-1.77-.71c-0.88-.53-4.77-1.77-6.18-2.65-3.53-1.77-8.3-3.88-8.65-5.83-0.18-.71-5.47-4.24-6.18-5.3-0.53-.71-1.41-1.59-1.59-1.94s-0.35-1.41-.53-1.77c-0.71-.88-1.59-1.06-1.94-2.83-0.18-.71-0.53-0.35-1.41-2.12-1.94-4.77-1.59-10.42-1.59-12.36,0-1.77,1.59-5.65,2.12-7.06,0.35-.88,1.24-1.41,1.59-2.83,0-.53,2.3-1.94,3.18-3.35a14.35,14.35,0,0,1,3.35-3.18c0.71-.35,8.83-6.53,9.53-7.24a3.5,3.5,0,0,1,2.83-1.59,2,2,0,0,0,1.41-.88c0.18-.88,8.65-3,9.89-4.41,0.35-.53,3-1.24,4.24-1.41,0.35,0,.35.35,1.06-0.35,0.71-.53,1.94.35,2.83-0.35,1.06-1.06,1.24-1.24,3.18-1.24s1.77-1.06,3.18-1.06a3.11,3.11,0,0,0,2.65-1.41c0.35-.71,4.06-0.88,4.77-1.41,1.77-1.41,3,.18,5.3-0.35,0.35,0,1.24.18,1.77,0.18s1.41-.71,1.59-0.18c0.18,0.35,3.53.18,4.41,0.18a1.33,1.33,0,0,1,.71-0.18c-0.18.35,2.12,0.18,2.47,0.53a3,3,0,0,0,2.65.71,11.2,11.2,0,0,1,4.06.53c0.71,0.18-.53.53,1.94,0.71,1.59,0,6.71,3.18,7.77,3.35,1.24,0,1.59,1.41,3,1.94,2.47,0.88,5.3,3,11.3,7.59,0.35,0.18.53,1.24,0.88,1.24,1.59,0,3,2.83,3.71,3.71,0.18,0.18,1.24-.35,1.06,1.41,0,0.35.71-.18,0.88,1.06,0,1.41,2.47,2.12,3.18,5.12a2.35,2.35,0,0,0,.53.88,32.54,32.54,0,0,1,2.12,7.95,26.93,26.93,0,0,1-.18,6.36,44.72,44.72,0,0,1-2.12,6.36c-0.53,1.24-1.77,3-1.77,3.53,0,0.35-.35.88-0.35,1.41a1.32,1.32,0,0,1-.18.88,1.72,1.72,0,0,0-1.06.88c0,0.35-.71.35-0.71,0.71,0,0.53-.88.35-0.88,0.88,0,0.35-.71.53-0.53,1.06a1.36,1.36,0,0,1-.53.35,3.7,3.7,0,0,0-1.06,1.41,1.22,1.22,0,0,0-.53.71,3.1,3.1,0,0,1-.71.88c-0.18.35-.53,0.35-0.53,0.53a1.32,1.32,0,0,0-.18.88c0,0.35-.53,1.24.18,1.24a1.5,1.5,0,0,0,.53-0.53,1.5,1.5,0,0,1,.88-0.53,4.42,4.42,0,0,0,1.24-.71,1.38,1.38,0,0,1,.71-0.71H215a0.17,0.17,0,0,0,.18-0.18c0.18-.18.35-0.53,0.53-0.71s0.35,0,.53-0.18a0.35,0.35,0,0,1,.18-0.35c0.18,0,.35,0,0.35-0.18a0.67,0.67,0,0,0,.35-0.35,0.58,0.58,0,0,1,.71-0.18c0.35,0.18-.88,1.24-0.88,1.41-0.35.35-.35,0.71-0.71,1.06l-0.71.71c-0.18,0-.18.18-0.35,0.18,0,0.18-.18.18-0.18,0.35l-0.53.53c-0.18.18-.18,0.35-0.35,0.53a0.7,0.7,0,0,0-.18.88c0,0.18.18,0.35,0.35,0.18a0.94,0.94,0,0,0,.35-0.53c0.18-.18.18-0.35,0.35-0.53s0.35-.18.53-0.35a0.67,0.67,0,0,0,.35-0.35,4.68,4.68,0,0,1,.88-1.06l0.53-.53c0.18,0,.35,0,0.35-0.18s0-.35.18-0.35,0.18,0.18.18,0.35,0,0.18.18,0.18a0.38,0.38,0,0,0,.35-0.35,0.94,0.94,0,0,1,.35-0.53c0.18-.18.35-0.18,0.53-0.35l0.71-.71,0.53-.53a1.5,1.5,0,0,1,.53-0.53h0.35c0.18,0,.18,0,0.18-0.18l0.18-.18c0.18,0,.18.35,0.18,0.53v0.35h0.35c0.18,0,.35,0,0.18.18,0,0.18-.18.18-0.18,0.35l-0.71.71-0.35.35c-0.35.35-.53,0.71-0.88,1.06-0.18.35-.53,0.53-0.71,0.88a43878.35,43878.35,0,0,1-.71,1.06,1.38,1.38,0,0,1-.71.71,0.65,0.65,0,0,0-.18.53,0.38,0.38,0,0,1-.35.35,3.7,3.7,0,0,0-.71,1.06c0,0.18,0,.53.18,0.35a0.67,0.67,0,0,1,.35-0.35,0.65,0.65,0,0,1,.53-0.18,0.56,0.56,0,0,0,.53-0.53c0-.18,0-0.53.18-0.53,0.18-.18.35,0,0.53-0.18,0.18,0,.35-0.18.53-0.18a0.65,0.65,0,0,0,.53-0.18h0v-0.35c0-.18-0.18-0.18,0-0.18l0.18-.18a0.35,0.35,0,0,0-.18-0.35,0.67,0.67,0,0,1-.35-0.35,0.35,0.35,0,0,1,.18-0.35,0.62,0.62,0,0,0,.18-0.35V119a0.17,0.17,0,0,1,.18-0.18l0.18-.18c0.18,0,.35.18,0.53,0.18h1.06c0.18,0,.35,0,0.35-0.18v-0.18c0-.18-0.18-0.18-0.18-0.35s0-.35.18-0.35a0.35,0.35,0,0,1,.35-0.18c0.35,0,.71.53,1.06,0.35,0.18,0,.18-0.18.18-0.35l-0.18-.18a0.17,0.17,0,0,0-.18-0.18,0.58,0.58,0,0,1,.18-0.71l0.53-.53c0.18,0,.18-0.18.35-0.18h0c0.18,0,.18.18,0.18,0.35s0,0.35-.18.35a0.53,0.53,0,0,0-.18.71,0.85,0.85,0,0,0,.71.18h0.71c0.18,0,.18.35,0.18,0.35a0.94,0.94,0,0,1-.35.53l-0.53.53a0.62,0.62,0,0,0-.35.18,0.94,0.94,0,0,0-.53.35c0,0.18,0,.35.18,0.35a0.6,0.6,0,0,1,.53.35,1,1,0,0,1-.71.88,0.94,0.94,0,0,0-.53.35l-0.18.18-0.18.35a0.62,0.62,0,0,1-.35-0.18H223.3l-0.18.18a0.17,0.17,0,0,0-.18.18v0.71a0.62,0.62,0,0,0-.18.35c0,0.18.35,0,.35,0,0.18,0,.18-0.18.18-0.35,0.18-.18.35,0.18,0.35,0.35s-0.18.18-.18,0.35a0.35,0.35,0,0,0,.18.35,0.92,0.92,0,0,0,.71-0.35h0a0.56,0.56,0,0,1,0-.53,0.35,0.35,0,0,1,.35.18,0.62,0.62,0,0,0,.35.18,0.67,0.67,0,0,0,.35-0.35,0.94,0.94,0,0,1,.53-0.35,1.5,1.5,0,0,0,.88-0.53l0.53-1.06c0-.18.18-0.35,0.18-0.53,0.35-.35.71-0.18,1.06-0.53a0.35,0.35,0,0,0,.18-0.35c0-.18.18-0.18,0.18-0.35a0.24,0.24,0,0,0,0-.35,0.62,0.62,0,0,1,.18-0.35c0.18-.18.35-0.18,0.35,0a1,1,0,0,0,.71,0,0.58,0.58,0,0,1-.18.71c-0.53.35-.35,1.06-0.88,1.59-0.18.18-.53,0.18-0.71,0.35s-0.18.71-.35,0.88-0.35-.18-0.35,0a0.62,0.62,0,0,0-.18.35v0.18c0,0.18-.35.35-0.18,0.53h0.35a0.35,0.35,0,0,0,.35-0.18l0.18-.18,0.18,0.18s0.18,0.18.18,0v-0.18l0.18-.18,0.18,0.18c0,0.18.35,0,.35,0l0.18-.18a0.94,0.94,0,0,0,.35-0.53l0.53-.53c0.18,0,.35,0,0.35-0.18a0.38,0.38,0,0,0,.35-0.35,1.85,1.85,0,0,0,.71-0.53c0.18-.18.35-0.35,0.35,0v0.35c0,0.35-.53.35-0.53,0.71v0.35c0,0.35-.35.18-0.53,0.35a1.76,1.76,0,0,0-.71.88v0.35a0.62,0.62,0,0,1,.18.35h-0.35c-0.35,0-.18.35-0.18,0.53s-0.35-.18-0.35.18a0.65,0.65,0,0,1-.18.53,0.6,0.6,0,0,1-.53.35h-0.18a0.17,0.17,0,0,0-.18.18v0.35a0.17,0.17,0,0,1-.18.18l-0.35.35a0.17,0.17,0,0,0,.18.18h0.53a0.17,0.17,0,0,0,.18-0.18c0.18,0,.18-0.18.35-0.18,0.35-.35.71-0.53,1.06-0.88a5.6,5.6,0,0,1,.88-1.06,0.94,0.94,0,0,1,.53-0.35c0.35-.18.35,0.35,0.18,0.53a0.55,0.55,0,0,1-.18.35,0.17,0.17,0,0,0-.18.18,0.62,0.62,0,0,0-.18.35,1.85,1.85,0,0,1-.53.71c-0.18.18-.35,0.18-0.53,0.35s-0.18.35-.35,0.53c0,0.18-.18.35,0.18,0.35a0.6,0.6,0,0,0,.53-0.35c0.18-.18.53-0.18,0.71-0.35s0.18-.35.35-0.53a0.38,0.38,0,0,1,.35-0.35,0.67,0.67,0,0,1,.35-0.35c0-.18,0-0.18.18-0.18s0.53-.18.53,0.18a0.94,0.94,0,0,1-.35.53,5.37,5.37,0,0,0-.88,1.24,4.61,4.61,0,0,1-.53,1.41c-0.18.18-.35,0.53-0.53,0.71s-0.35.18-.53,0.35l-0.53.53a1.76,1.76,0,0,1-.88.71l-0.35.35-0.53.53c-0.18.18-.18,0.35-0.35,0.53a0.94,0.94,0,0,0-.35.53H227l-0.18.18c0,0.18-.18.18-0.18,0.35a0.62,0.62,0,0,0-.18.35c0.18,0.35,1.06-.53,1.06-0.53l0.88-.88,2.3-2.3a18.71,18.71,0,0,0,1.77-2.12c0.18-.35.53-0.71,0.71-1.06a2.35,2.35,0,0,1,.53-0.88c0.18-.18.53,0,0.71-0.18,0.88-.35,1.41-1.59,1.94-2.3a37.75,37.75,0,0,0,3.88-7.06c0.18-.35.18-1.24,1.06-1.41,0.53-.18.35-1.41,0.53-1.77a3.7,3.7,0,0,1,.71-1.94,5.66,5.66,0,0,0,.88-3c0.18-1.06,2.3-8.3,1.77-13.95-0.18-1.06-.18-7.77-1.94-9.89-1.24-1.24.18-3-.53-4.94-0.18-.53.53-0.71,0.71-1.24A2.48,2.48,0,0,0,242,75c-0.71-.18-1.77-0.18-2.12-1.06-0.18-.35.53-1.94-0.35-3.53-0.35-.71-1.06-2.65-6.36-6.71A58.55,58.55,0,0,1,228.6,59a26.92,26.92,0,0,0-3.88-3.88c-0.53-.35-1.24-1.94-3.53-2.83-0.71-.35-5.83-4.41-6.36-4.59-2.12-.71-5.83-3.35-6.53-3.53-3.88-.88-5.12-3-6.53-3.18-1.06-.18-4.06-0.35-5.65-2.12a2.67,2.67,0,0,0-3.35-.53c-0.71.35-3.18-1.77-6.71-1.24-0.71.18-1.41-1.24-4.06-.88-2.47.35-4.24-1.41-5.12-1.59-0.88-.35-6.18-1.77-8.65-1.59H166.8a50.94,50.94,0,0,0-14.66,0c-1.24.35-16.24,4.24-17.66,4.94-1.24.71-4.41,1.77-5.12,2.12-1.59.71-7.95,2.83-8.3,3.53-0.18.35-1.06,0.35-1.41,0.71A10.34,10.34,0,0,1,115.77,47c-1.24.53-7.59,5.12-8.83,6-0.35.18-4.24,2.83-4.77,3.18" transform="translate(-56 -2.87)" style="fill: #fff"/>
      <path id="_Path_14" data-name="&lt;Path&gt;" d="M246.43,74.68a2,2,0,0,1-.53,1.41h-0.35a0.94,0.94,0,0,1-.53-0.35,0.62,0.62,0,0,1-.18-0.35,0.35,0.35,0,0,1-.18-0.35,0.62,0.62,0,0,0-.18-0.35,0.35,0.35,0,0,1,.18-0.35c0-.18.18-0.18,0.18-0.35a0.62,0.62,0,0,1,.35-0.18,1.07,1.07,0,0,1,1.24.88" transform="translate(-56 -2.87)" style="fill: #fff"/>
      <path id="_Path_15" data-name="&lt;Path&gt;" d="M208.64,120.94h0a1.1,1.1,0,0,1-.53.71c-0.18.18-.18,0.71-0.53,0.35a2.25,2.25,0,0,1,.71-1.06c0.18,0,.35-0.18.35,0" transform="translate(-56 -2.87)" style="fill: #fff"/>
      <path id="_Path_16" data-name="&lt;Path&gt;" d="M210.23,121.65c0,0.18-.18.18-0.18,0.35a2.44,2.44,0,0,0-.53.71l-0.18.18a4.12,4.12,0,0,1-1.24,1.24c-0.18.18-.53,0.35-0.71,0.53-0.18,0-.53.53-0.71,0.35a0.56,0.56,0,0,1,0-.53,0.67,0.67,0,0,1,.35-0.35,0.65,0.65,0,0,0,.18-0.53,0.94,0.94,0,0,1,.35-0.53,1.06,1.06,0,0,1,.71-0.18c0.35,0,.35-0.18.53-0.53a0.17,0.17,0,0,1,.18-0.18c0-.18,0-0.18.18-0.18s0.18-.18.35-0.18a0.94,0.94,0,0,1,.53-0.35,0.17,0.17,0,0,1,.18.18" transform="translate(-56 -2.87)" style="fill: #fff"/>
      <path id="_Path_17" data-name="&lt;Path&gt;" d="M227.36,123.59v0.35c0,0.18-.18.18-0.35,0.18s-0.35.18-.53,0.18-0.35.18-.53,0.18c0,0-.53.18-0.35,0.18,0.18,0.18,0,.18-0.18.35a0.56,0.56,0,0,1-.53,0,1.06,1.06,0,0,1,.18-0.71c0.18-.18.35-0.18,0.53-0.35s0.35-.18.53-0.35a0.94,0.94,0,0,1,.53-0.35,2.59,2.59,0,0,1,.71.35" transform="translate(-56 -2.87)" style="fill: #fff"/>
      <path id="_Path_18" data-name="&lt;Path&gt;" d="M216.24,124.12h0c-0.18,0-.35.18-0.35,0-0.18-.18.18-0.35,0.35-0.35s0.18,0.35,0,.35" transform="translate(-56 -2.87)" style="fill: #fff"/>
      <path id="_Path_19" data-name="&lt;Path&gt;" d="M216.59,124.47c0,0.18-.18.18,0,0a1.36,1.36,0,0,0-.53.35c-0.18.18-.35,0.18-0.53,0.35a0.38,0.38,0,0,1-.35.35h0c-0.18,0-.35,0-0.35-0.18a0.38,0.38,0,0,1,.35-0.35c0.18,0,.35,0,0.35-0.18a0.55,0.55,0,0,0,.18-0.35h0.88" transform="translate(-56 -2.87)" style="fill: #fff"/>
      <path id="_Path_20" data-name="&lt;Path&gt;" d="M205.47,126.77c-0.53.53-1.41,1.24-1.94,0.71s-0.18-.88.18-1.41c0.71-.53,1.94-1.24,2.3-0.88,0.35,0.53-.35,1.24-0.53,1.59" transform="translate(-56 -2.87)" style="fill: #fff"/>
      <path id="_Path_21" data-name="&lt;Path&gt;" d="M224.18,126.59c-0.18,0-.18-0.35-0.18-0.35v-0.35c0-.18.35,0,0.35,0,0.18,0,.18,0,0.18.18s-0.18.18-.18,0.35c0-.18,0,0-0.18.18h0" transform="translate(-56 -2.87)" style="fill: #fff"/>
      <path id="_Path_22" data-name="&lt;Path&gt;" d="M213.59,126.59a0.53,0.53,0,0,1-.18-0.71c0-.18.18,0,0.18,0,0.18,0.18.18,0.35,0,.35,0.18,0.18.18,0.35,0,.35" transform="translate(-56 -2.87)" style="fill: #fff"/>
      <path id="_Path_23" data-name="&lt;Path&gt;" d="M212.88,127.3c0-.18.18-0.18,0.18-0.35l0.18-.18c0-.18-0.18-0.18-0.35-0.18a0.62,0.62,0,0,0-.35.18,4.53,4.53,0,0,1-.88.35h-0.53c-0.18,0-.35,0-0.35.18v0.35a0.84,0.84,0,0,0,.88.35c0.18,0,.53-0.18.71-0.18l0.53-.53" transform="translate(-56 -2.87)" style="fill: #fff"/>
      <path id="_Path_24" data-name="&lt;Path&gt;" d="M227.89,127.3h0c0.18,0.18,0,.18,0,0.18l-0.18.18a0.17,0.17,0,0,1-.18.18c-0.18,0-.18-0.18-0.18-0.35s0.18-.18.35-0.18h0.18" transform="translate(-56 -2.87)" style="fill: #fff"/>
      <path id="_Path_25" data-name="&lt;Path&gt;" d="M210.41,128.89h0a0.38,0.38,0,0,1-.35-0.35c0.18-.18.53-0.18,0.53,0,0.18,0.18,0,.35-0.18.35" transform="translate(-56 -2.87)" style="fill: #fff"/>
      <path id="_Path_26" data-name="&lt;Path&gt;" d="M200.87,131.54h0a0.34,0.34,0,0,1-.53-0.18,0.35,0.35,0,0,1,.18-0.35,0.94,0.94,0,0,1,.53-0.35c0.18-.18.35-0.18,0.18,0.18a0.67,0.67,0,0,1-.35.35v0.35" transform="translate(-56 -2.87)" style="fill: #fff"/>
      <path id="_Path_27" data-name="&lt;Path&gt;" d="M226.12,133.13c0.18,0,0,.71-0.18.71-0.35,0,0-.71.18-0.71" transform="translate(-56 -2.87)" style="fill: #fff"/>
      <path id="_Path_28" data-name="&lt;Path&gt;" d="M224.18,133.66a1.19,1.19,0,0,1-.53,1.24,0.85,0.85,0,0,1-.71.18,0.94,0.94,0,0,1-.53-0.35,1.06,1.06,0,0,1,.53-1.06,0.65,0.65,0,0,1,.53-0.18c0.35,0,.71,0,0.71.18" transform="translate(-56 -2.87)" style="fill: #fff"/>
      <path id="_Path_29" data-name="&lt;Path&gt;" d="M222.77,135.78l-0.18.18a0.17,0.17,0,0,0-.18.18h-0.35V136l0.18-.18a0.24,0.24,0,0,1,.35,0c0-.18,0,0,0.18,0" transform="translate(-56 -2.87)" style="fill: #fff"/>
      <path id="_Path_30" data-name="&lt;Path&gt;" d="M177.57,59.67a2.64,2.64,0,0,1-.53,1.24c-0.18.18-.18,0.35-0.35,0.53s-0.35.18-.53,0.35a0.8,0.8,0,0,1-.88,0c-0.35-.35,0-0.71,0-1.06a1.8,1.8,0,0,1,.35-1.59,5.37,5.37,0,0,1,.88-1.24,0.53,0.53,0,0,1,.71-0.18c0.53,0.35.35,1.24,0.35,1.94" transform="translate(-56 -2.87)" style="fill: #fff"/>
      <path id="_Path_31" data-name="&lt;Path&gt;" d="M170.15,62.32a3.74,3.74,0,0,0,.53,1.24,1.12,1.12,0,0,1,.18,1.24c-0.53,0-.35.35-0.53,0.35-0.35,0-1.59,0-1.94-.88a1.59,1.59,0,0,1-.18-0.88,7.12,7.12,0,0,0,0-1.94c0-.53.71-0.53,1.06-0.35a4.08,4.08,0,0,1,.88,1.24" transform="translate(-56 -2.87)" style="fill: #fff"/>
      <path id="_Path_32" data-name="&lt;Path&gt;" d="M185.16,63.21c-0.18.53-1.06,0.71-.71,1.41,0.18,0.35-.35.53-0.53,0.53-0.71.18-1.41,0.88-2.12,0.53-0.35-.53-1.24-0.71-1.24-1.41,0.35-.71,1.06-0.53,1.41-1.06,0.35,0,2.83-.53,3.18,0h0Z" transform="translate(-56 -2.87)" style="fill: #fff"/>
      <path id="_Path_33" data-name="&lt;Path&gt;" d="M167.5,68.15a1.92,1.92,0,0,1-.18.88,1.9,1.9,0,0,1-1.24.35,3.67,3.67,0,0,1-1.41,0,3,3,0,0,1-1.06-.53,2.24,2.24,0,0,1-.18-1.06,1,1,0,0,1,.88-0.53,2.92,2.92,0,0,1,1.24,0,10.16,10.16,0,0,0,1.77.35c0.18,0,.18.35,0.18,0.53" transform="translate(-56 -2.87)" style="fill: #fff"/>
      <path id="_Compound_Path_7" data-name="&lt;Compound Path&gt;" d="M181.1,71.86a9,9,0,0,1-5.65,4.41c-1.24.18-2.65,0.71-3.71-.18a3.34,3.34,0,0,0-1.06-.71,1.89,1.89,0,0,1-1.06-.35,1.62,1.62,0,0,1-.18-1.06c0-.18-0.18-0.53-0.18-0.71a2.64,2.64,0,0,1-.53-1.24,2.51,2.51,0,0,1,.35-1.77c0.18-.18.71-1.24,0.18-1.24-0.18,0-.18-0.53.18-0.88,0.53-.35.71-2.12,2.47-2.65,1.24-.35,2.12-1.94,3.53-1.94a3.67,3.67,0,0,1,1.94.18,2.87,2.87,0,0,1,1.59.88c0.18,0.35,1.24.88,1.59,1.59a7.37,7.37,0,0,1,1.06,1.41c0,0.35.35,1.24,0.35,1.59-0.53.53-.71,2.3-0.88,2.65m-3.35-3.53a1.81,1.81,0,0,0-1.06-.88,3,3,0,0,0-1.24-.18c-0.88-.35-1.41.53-2.12,0.71a1.1,1.1,0,0,0-.71.53c-0.71.53-1.24,2.3-1.41,2.65a1.23,1.23,0,0,0,1.06,1.59,6,6,0,0,0,1.77-.18A4.82,4.82,0,0,0,176.15,71a8.29,8.29,0,0,0,1.06-1.59c0.71-.71.53-1.06,0.53-1.06" transform="translate(-56 -2.87)" style="fill: #fff"/>
      <path id="_Path_34" data-name="&lt;Path&gt;" d="M186,72a0.56,0.56,0,0,1,.53.53c0,0.35-.35.18-0.53,0.18-0.35.18-.18,0.71-0.71,0.71-0.18,0-.53.18-0.71,0.18a6,6,0,0,1-1.77-.18,0.67,0.67,0,0,1-.35-0.35,0.79,0.79,0,0,1-.53-0.71c0-.18,0-0.18-0.18-0.18-0.18-.18,0-0.53.35-0.71h0.53a2.45,2.45,0,0,1,1.59,0,1.06,1.06,0,0,1,.71.18A6.94,6.94,0,0,0,186,72" transform="translate(-56 -2.87)" style="fill: #fff"/>
      <path id="_Path_35" data-name="&lt;Path&gt;" d="M167.15,75.39l0.18,0.18c0.18,0.35-.18.53-0.35,0.71s-0.53.35-.71,0.53a1.86,1.86,0,0,1-.88.35h-1.06a0.76,0.76,0,0,1-.71-0.71c0.18-1.24,1.77-1.41,2.65-1.94a0.76,0.76,0,0,1,.88.88" transform="translate(-56 -2.87)" style="fill: #fff"/>
      <path id="_Path_36" data-name="&lt;Path&gt;" d="M179.51,77.33a3.1,3.1,0,0,1,.71.88c0.18,0.35.18,0.71,0.35,1.06,0.18,0.53-.53.53-0.71,0.88a0.17,0.17,0,0,1-.18.18,1.06,1.06,0,0,1-.71-0.18,0.71,0.71,0,0,1-.71-0.35,0.85,0.85,0,0,1-.18-0.71,1.92,1.92,0,0,0-.18-0.88c0-.18-0.18-0.18-0.18-0.35V77.51c-0.18-.35.18-0.35,0.18-0.71,0-.18,0-0.35.18-0.35a1.06,1.06,0,0,1,.71.18c0.18,0.71.53,0.71,0.71,0.71" transform="translate(-56 -2.87)" style="fill: #fff"/>
      <path id="_Path_37" data-name="&lt;Path&gt;" d="M173.15,78.57a1.32,1.32,0,0,1,0,1.59c-0.18.35-.53,0.88-0.71,1.24-0.18.18-.18,0.35-0.35,0.53a0.73,0.73,0,0,1-.88-0.35,0.62,0.62,0,0,0-.18-0.35c0-1.24.88-3,1.41-3,0.18-.18.53,0.18,0.71,0.35" transform="translate(-56 -2.87)" style="fill: #fff"/>
      <path id="_Path_38" data-name="&lt;Path&gt;" d="M212.17,138.78c-0.35.18,0,.88-0.18,1.24a0.84,0.84,0,0,1-.88.35c-0.35-.18-0.18-0.35-0.18-0.71v-0.35a0.24,0.24,0,0,0,0-.35,0.17,0.17,0,0,1-.18-0.18v-0.53h0.18a0.62,0.62,0,0,1,.35.18h0.53a0.17,0.17,0,0,0,.18-0.18c0.18,0,.35,0,0.35.18,0,0,0,.35-0.18.35L212,138.6c0.35,0.18.18,0.18,0.18,0.18" transform="translate(-56 -2.87)" style="fill: #fff"/>
      <path id="_Path_39" data-name="&lt;Path&gt;" d="M203.7,132.07c-0.18,0-.18.18-0.35,0.18s-0.18-.18,0-0.35v-0.35c0.18-.35.71,0,0.71-0.35,0-.18.35-0.71,0.53-0.53a1.06,1.06,0,0,1-.18.71,0.35,0.35,0,0,1-.18.35,0.67,0.67,0,0,0-.35.35H203.7" transform="translate(-56 -2.87)" style="fill: #fff"/>
      <path id="_Path_40" data-name="&lt;Path&gt;" d="M211.65,120.24l-0.18.18a0.17,0.17,0,0,0,.18.18s0.35-.18.18-0.35c0-.18-0.18,0-0.18,0" transform="translate(-56 -2.87)" style="fill: #fff"/>
      <path id="_Path_41" data-name="&lt;Path&gt;" d="M219.94,122.53c0-.18-0.71,0-0.53.18-0.18.18,0.53,0,.53-0.18" transform="translate(-56 -2.87)" style="fill: #fff"/>
      <path id="_Path_42" data-name="&lt;Path&gt;" d="M220.83,119.71c-0.18,0-.18-0.35-0.35,0,0,0.18-.18.35,0,0.35,0.18,0.18.53,0.18,0.53,0,0.18-.18.35-0.35,0.18-0.35h-0.35" transform="translate(-56 -2.87)" style="fill: #fff"/>
      <path id="_Path_43" data-name="&lt;Path&gt;" d="M217.12,118.65a1.36,1.36,0,0,0-.53.35,4.68,4.68,0,0,0-.88,1.06l-0.53.53s-0.18.18,0,.18a0.65,0.65,0,0,0,.53-0.18c0.18,0,.18-0.18.35-0.18s0.18-.18.35-0.18l0.18-.18,0.18-.18,0.18-.18c0.18-.18.18-0.35,0.35-0.53a0.39,0.39,0,0,0-.18-0.53h0" transform="translate(-56 -2.87)" style="fill: #fff"/>
      <path id="_Path_44" data-name="&lt;Path&gt;" d="M223.48,118.47h-0.35c-0.35,0-.35-0.18-0.53.18a1.47,1.47,0,0,0,0,.88,0.8,0.8,0,0,0,.53-0.53c0.35,0,.71-0.53.35-0.53" transform="translate(-56 -2.87)" style="fill: #fff"/>
      <path id="_Path_45" data-name="&lt;Path&gt;" d="M224.53,120.59c0.18,0-.18.35-0.35,0.53a4,4,0,0,1-.71.18s-0.35.18-.35,0v-0.35c0-.18.18-0.18,0.35-0.18s0.18-.18.35-0.18a0.94,0.94,0,0,1,.71,0" transform="translate(-56 -2.87)" style="fill: #fff"/>
      <path id="_Path_46" data-name="&lt;Path&gt;" d="M212.88,121.83c0.35,0,.18.35,0,0.35l-0.35.35c-0.53.35,0-.53,0.35-0.71" transform="translate(-56 -2.87)" style="fill: #fff"/>
      <path id="_Path_47" data-name="&lt;Path&gt;" d="M211.65,123.06c-0.18-.18-0.53.35-0.71,0.53s-0.71.35-.35,0.71a0.52,0.52,0,0,0,.71-0.35,1,1,0,0,0,.35-0.88" transform="translate(-56 -2.87)" style="fill: #fff"/>
      <path id="_Path_48" data-name="&lt;Path&gt;" d="M222.06,123.42a0.17,0.17,0,0,1-.18.18v0.18a0.17,0.17,0,0,0,.18.18h0.18c0.18,0,.18-0.18.18-0.35a0.55,0.55,0,0,1-.35-0.18c0.18,0,0-.18,0,0" transform="translate(-56 -2.87)" style="fill: #fff"/>
      <path id="_Path_49" data-name="&lt;Path&gt;" d="M222.06,124.47a2.13,2.13,0,0,0-1.77.53c-0.35.35,0,.88,0.53,1.06a1.59,1.59,0,0,0,.88-0.18c0.18-.18.18-0.53,0.35-0.71a1.36,1.36,0,0,0,.53-0.35,0.44,0.44,0,0,0-.53-0.35" transform="translate(-56 -2.87)" style="fill: #fff"/>
      <path id="_Path_50" data-name="&lt;Path&gt;" d="M229.83,126.95a1.37,1.37,0,0,0-.88,1.06c0.18,0,1.24-1.24.88-1.06" transform="translate(-56 -2.87)" style="fill: #fff"/>
      <path id="_Path_51" data-name="&lt;Path&gt;" d="M220.47,126.24c-0.18,0-.71-0.35-0.71,0,0,0.53.71,0.35,0.71,0h0" transform="translate(-56 -2.87)" style="fill: #fff"/>
      <path id="_Path_52" data-name="&lt;Path&gt;" d="M196.81,132.24a0.58,0.58,0,0,0-.71.18c-0.18,0-.18.18-0.35,0.18H195.4c-0.18.18,0,.18,0.18,0.18h0.35a0.6,0.6,0,0,0,.71-0.35c0.18,0,.35,0,0.18-0.18" transform="translate(-56 -2.87)" style="fill: #fff"/>
      <path id="_Path_53" data-name="&lt;Path&gt;" d="M194.34,133.3h0a0.87,0.87,0,0,1-.53.18c-0.18,0-.18,0-0.18.18a0.24,0.24,0,0,0,0,.35h0.71a0.52,0.52,0,0,0,0-.71" transform="translate(-56 -2.87)" style="fill: #fff"/>
      <path id="_Path_54" data-name="&lt;Path&gt;" d="M204.94,131.89a0.67,0.67,0,0,0-.35.35l-0.18.18c0.18,0.18.18,0,.35,0a0.35,0.35,0,0,0,.35-0.18c0.18,0,.18-0.18.35-0.18a1.5,1.5,0,0,0,.53-0.53c0-.35-0.53,0-0.53,0-0.18.18-.35,0.18-0.53,0.35" transform="translate(-56 -2.87)" style="fill: #fff"/>
      <path id="_Path_55" data-name="&lt;Path&gt;" d="M205.29,134a1.5,1.5,0,0,0,.53.53c0.18,0,.71.18,0.71-0.18a0.62,0.62,0,0,1-.18-0.35c0-.18-0.18-0.18-0.35-0.18h-0.35a2.54,2.54,0,0,0-.53-0.35,1.78,1.78,0,0,0,.18.53" transform="translate(-56 -2.87)" style="fill: #fff"/>
      <path id="_Path_56" data-name="&lt;Path&gt;" d="M206.52,133.48a0.35,0.35,0,0,0,.18.35c0.53,0.35.35-.18,0.53-0.53,0-.18.35-0.35,0.35-0.53,0-.35-1.06.18-1.06,0.71" transform="translate(-56 -2.87)" style="fill: #fff"/>
      <path id="_Path_57" data-name="&lt;Path&gt;" d="M207.58,134.54c0.18,0,.18-0.18.35-0.18,0.18-.18.35-0.18,0.53-0.35,0,0,.18-0.35,0-0.35a1.5,1.5,0,0,0-.53.53,5.49,5.49,0,0,0-1.06.71c0,0.18.18,0.18,0.35,0.18s0.18,0,.18-0.18c0-.35.18-0.35,0.18-0.35" transform="translate(-56 -2.87)" style="fill: #fff"/>
      <path id="_Path_58" data-name="&lt;Path&gt;" d="M207.94,134.72a3489.18,3489.18,0,0,0-.71.35l-0.18.18a0.17,0.17,0,0,0,.18.18,0.35,0.35,0,0,0,.35.18,0.17,0.17,0,0,0,.18-0.18v-0.18l0.18-.18a0.24,0.24,0,0,0,0-.35h0" transform="translate(-56 -2.87)" style="fill: #fff"/>
      <path id="_Path_59" data-name="&lt;Path&gt;" d="M207.23,135.6c-0.18,0-.18.18,0,0-0.18,0-.35,0-0.35.18-0.18,0-.35.18-0.18,0.35h0.53l0.18-.18c-0.18,0-.18,0-0.18-0.35h0" transform="translate(-56 -2.87)" style="fill: #fff"/>
      <path id="_Path_60" data-name="&lt;Path&gt;" d="M213.94,138.78c-0.18,0-.35,0-0.35.18s-0.18.35,0,.35a3.83,3.83,0,0,0,1.41-.71,1.24,1.24,0,0,0-1.06.18h0" transform="translate(-56 -2.87)" style="fill: #fff"/>
      <path id="_Path_61" data-name="&lt;Path&gt;" d="M206,138.42a1.85,1.85,0,0,0-.53.71c0,0.35.35,0.35,0.71,0.35a2.25,2.25,0,0,0,2.12-.35,1.08,1.08,0,0,0,.18-1.06c-0.18-.35-0.53,0-0.88,0-0.53,0-1.06-.35-1.59.35" transform="translate(-56 -2.87)" style="fill: #fff"/>
      <path id="_Path_62" data-name="&lt;Path&gt;" d="M217.65,137.36h0c0,0.35.18,0.35,0.18,0.35a1.34,1.34,0,0,1,.71.35,0.67,0.67,0,0,0,.35.35,0.38,0.38,0,0,0,.35-0.35v-0.35c0-.18.18-0.18,0-0.18a0.6,0.6,0,0,0-.53-0.35h-0.53a0.35,0.35,0,0,0-.35.18c0.18,0,0-.18-0.18,0" transform="translate(-56 -2.87)" style="fill: #fff"/>
    </g>
  </g>
</svg>
