<svg id="Layer_1" data-name="Layer 1" xmlns="http://www.w3.org/2000/svg" viewBox="0 0 116.3 204.27"><defs><style>.cls-1{fill:#231f20;}</style></defs><title>BB_bug_black</title><path class="cls-1" d="M116.3,93.9A40.19,40.19,0,0,0,83,54.43,28.37,28.37,0,0,0,71.77,0h-39a1.28,1.28,0,0,0-1.27,1.31v21.8h-30A1.43,1.43,0,0,0,0,24.62V156.19a1.44,1.44,0,0,0,1.48,1.46h3.7a1.45,1.45,0,0,0,1.47-1.46V87H38.82a55.31,55.31,0,0,1,1,110.61,1.5,1.5,0,0,0-1.5,1.5v3.69a1.42,1.42,0,0,0,1.5,1.48h0a62,62,0,0,0,61-62A62.87,62.87,0,0,0,98.89,127,40.15,40.15,0,0,0,116.3,93.9ZM55.15,82.51A32.1,32.1,0,0,0,70.7,56.73h5.58A37.16,37.16,0,0,1,98.06,124,62.46,62.46,0,0,0,55.15,82.51ZM71.79,53.87H70.73A32.12,32.12,0,0,0,38.82,23.11H34.34V2.86H71.77a25.5,25.5,0,0,1,0,51ZM64.1,55.06A25.37,25.37,0,0,1,38.82,80.34H6.66V29.77H38.82A25.38,25.38,0,0,1,64.1,55.06Z"/></svg>