<?xml version="1.0" encoding="utf-8"?>
<!-- Generator: Adobe Illustrator 19.0.0, SVG Export Plug-In . SVG Version: 6.00 Build 0)  -->
<svg version="1.1" id="Layer_1" xmlns="http://www.w3.org/2000/svg" xmlns:xlink="http://www.w3.org/1999/xlink" x="0px" y="0px"
	 viewBox="45 -90.3 116.3 204.3" style="enable-background:new 45 -90.3 116.3 204.3;" xml:space="preserve">
<style type="text/css">
	.st0{fill:#FFFFFF;}
</style>
<title>BB_bug_black</title>
<path class="st0" d="M161.3,3.6c-0.1-19.5-14.1-36.1-33.3-39.5c14.4-6.2,21-22.9,14.8-37.3c-4.5-10.4-14.7-17.2-26.1-17.2h-39
	c-0.7,0-1.3,0.6-1.3,1.3c0,0,0,0,0,0v21.8h-30c-0.8,0-1.5,0.6-1.5,1.4c0,0.1,0,0.1,0,0.2V65.9c0,0.8,0.6,1.4,1.4,1.5c0,0,0,0,0.1,0
	h3.7c0.8,0,1.5-0.6,1.5-1.4c0,0,0,0,0,0V-3.3h32.2c30.5,0,55.3,24.8,55.3,55.4c0,30.1-24.1,54.7-54.3,55.2c-0.8,0-1.5,0.7-1.5,1.5
	v3.7c0,0.8,0.6,1.4,1.4,1.5c0,0,0.1,0,0.1,0l0,0c33.9-0.5,61-28.1,61-62c0-5.2-0.7-10.3-1.9-15.3C154.8,29.2,161.3,16.9,161.3,3.6z
	 M100.2-7.8c9.1-5.5,15-15.1,15.5-25.8h5.6c20.5,0,37.2,16.6,37.2,37.2c0,11.9-5.7,23.1-15.4,30.1C136.7,13.5,120.6-2.1,100.2-7.8z
	 M116.8-36.4h-1.1C115-53.5,101-67.1,83.8-67.2h-4.5v-20.2h37.4c14.1,0,25.5,11.4,25.5,25.5S130.9-36.4,116.8-36.4L116.8-36.4z
	 M109.1-35.2c0,13.9-11.3,25.2-25.3,25.3H51.7v-50.6h32.2C97.8-60.4,109.1-49.2,109.1-35.2z"/>
</svg>
