<?xml version="1.0" encoding="utf-8"?>
<svg version="1.1" id="Layer_1" xmlns="http://www.w3.org/2000/svg" xmlns:xlink="http://www.w3.org/1999/xlink" x="0px" y="0px"
	 viewBox="0 266.642 612 258.716" enable-background="new 0 266.642 612 258.716" xml:space="preserve">
<g>
	<g>
		<path fill="#231F20" d="M131.143,519.641l3.963-20.225l6.445,14.615l6.693-14.615l3.551,20.225h-2.905l-1.821-11.351
			l-5.561,12.206l-5.411-12.216l-2.025,11.366h-2.929V519.641z"/>
		<path fill="#231F20" d="M160.232,500.849v18.797h-2.841v-18.797H160.232z"/>
		<path fill="#231F20" d="M169.524,508.338l7.32-7.49h3.793l-8.505,8.505l8.544,10.292h-3.793l-6.766-8.369l-0.597,0.588v7.781
			h-2.841v-18.797h2.841v7.49H169.524z"/>
		<path fill="#231F20" d="M187.942,508.338l7.32-7.49h3.784l-8.505,8.505l8.558,10.292h-3.803l-6.766-8.369l-0.583,0.588v7.781
			h-2.841v-18.797h2.841v7.49H187.942z"/>
		<path fill="#231F20" d="M201.338,510.155c0-2.637,0.976-4.92,2.909-6.829c1.933-1.885,4.26-2.837,6.97-2.837
			c2.676,0,4.969,0.952,6.897,2.866c1.923,1.919,2.875,4.221,2.875,6.897c0,2.72-0.957,5.003-2.9,6.887
			c-1.943,1.894-4.289,2.837-7.023,2.837c-2.424,0-4.605-0.835-6.538-2.521C202.402,515.6,201.338,513.171,201.338,510.155z
			 M204.194,510.184c0,2.074,0.699,3.784,2.098,5.119c1.384,1.341,2.982,2.016,4.809,2.016c1.967,0,3.633-0.685,4.988-2.045
			c1.36-1.389,2.035-3.055,2.035-5.042c0-2.006-0.675-3.691-2.001-5.042c-1.336-1.36-2.987-2.045-4.954-2.045
			c-1.953,0-3.599,0.685-4.949,2.045C204.869,506.541,204.194,508.212,204.194,510.184z"/>
		<path fill="#231F20" d="M234.741,519.641v-20.084l13.712,14.348v-13.061h2.841v19.934l-13.717-14.309v13.173L234.741,519.641
			L234.741,519.641z"/>
		<path fill="#231F20" d="M260.561,500.849v18.797h-2.837v-18.797H260.561z"/>
		<path fill="#231F20" d="M277.523,503.627l-2.293,1.37c-0.437-0.753-0.845-1.243-1.229-1.467c-0.418-0.257-0.937-0.389-1.579-0.389
			c-0.787,0-1.438,0.228-1.957,0.665c-0.529,0.447-0.787,0.991-0.787,1.666c0,0.913,0.685,1.647,2.059,2.21l1.865,0.767
			c1.525,0.627,2.637,1.37,3.351,2.263c0.699,0.894,1.054,1.987,1.054,3.274c0,1.724-0.578,3.157-1.729,4.289
			c-1.156,1.141-2.599,1.705-4.328,1.705c-1.627,0-2.977-0.486-4.036-1.447c-1.044-0.971-1.695-2.341-1.957-4.09l2.871-0.636
			c0.131,1.098,0.359,1.865,0.685,2.293c0.573,0.806,1.428,1.224,2.56,1.224c0.884,0,1.622-0.296,2.205-0.894
			c0.573-0.597,0.874-1.35,0.874-2.254c0-0.364-0.053-0.704-0.16-1.001c-0.102-0.296-0.262-0.588-0.471-0.845
			c-0.214-0.248-0.495-0.486-0.826-0.724c-0.35-0.219-0.748-0.427-1.224-0.636l-1.817-0.753c-2.569-1.083-3.861-2.681-3.861-4.765
			c0-1.409,0.539-2.594,1.627-3.546c1.073-0.962,2.424-1.438,4.031-1.438C274.613,500.47,276.303,501.524,277.523,503.627z"/>
		<path fill="#231F20" d="M293.983,503.627l-2.302,1.37c-0.437-0.753-0.84-1.243-1.229-1.467c-0.403-0.257-0.928-0.389-1.564-0.389
			c-0.792,0-1.452,0.228-1.967,0.665c-0.515,0.447-0.782,0.991-0.782,1.666c0,0.913,0.685,1.647,2.055,2.21l1.865,0.767
			c1.53,0.627,2.647,1.37,3.356,2.263c0.704,0.894,1.059,1.987,1.059,3.274c0,1.724-0.578,3.157-1.734,4.289
			c-1.151,1.141-2.603,1.705-4.328,1.705c-1.627,0-2.977-0.486-4.031-1.447c-1.049-0.971-1.705-2.341-1.962-4.09l2.875-0.636
			c0.121,1.098,0.359,1.865,0.675,2.293c0.588,0.806,1.438,1.224,2.565,1.224c0.884,0,1.617-0.296,2.2-0.894
			c0.588-0.597,0.874-1.35,0.874-2.254c0-0.364-0.044-0.704-0.146-1.001c-0.102-0.296-0.262-0.588-0.476-0.845
			c-0.209-0.248-0.486-0.486-0.835-0.724c-0.345-0.219-0.743-0.427-1.219-0.636l-1.807-0.753c-2.579-1.083-3.866-2.681-3.866-4.765
			c0-1.409,0.544-2.594,1.627-3.546c1.073-0.962,2.424-1.438,4.027-1.438C291.069,500.47,292.769,501.524,293.983,503.627z"/>
		<path fill="#231F20" d="M302.639,500.849v18.797h-2.837v-18.797H302.639z"/>
		<path fill="#231F20" d="M309.07,519.641v-20.084l13.717,14.348v-13.061h2.837v19.934l-13.712-14.309v13.173L309.07,519.641
			L309.07,519.641z"/>
		<path fill="#231F20" d="M342.438,503.506h-7.529v4.512h7.31v2.671h-7.31v6.28h7.529v2.671h-10.385v-18.797h10.385V503.506z"/>
		<path fill="#231F20" d="M348.131,519.641v-20.084l13.717,14.348v-13.061h2.837v19.934l-13.712-14.309v13.173L348.131,519.641
			L348.131,519.641z"/>
		<path fill="#231F20" d="M384.525,513.458l-2.521,6.183h-1.219l7.878-19.433l7.859,19.433h-1.229l-2.516-6.183H384.525z
			 M388.659,503.258l-3.691,9.083h7.368L388.659,503.258z"/>
		<path fill="#231F20" d="M409.564,519.641h-1.379l-6.135-8.903h-0.607v8.903h-1.19v-18.797h2.341c1.53,0,3.016,0.019,4.289,0.933
			c1.35,0.952,1.904,2.448,1.904,4.051c0,3.264-2.268,4.964-5.387,4.911L409.564,519.641z M402.973,509.621
			c1.171,0,2.341-0.058,3.293-0.874c0.889-0.724,1.311-1.846,1.311-2.977c0-1.389-0.636-2.778-1.987-3.385
			c-0.991-0.476-2.273-0.427-3.376-0.427h-0.777v7.66h1.535V509.621z"/>
		<path fill="#231F20" d="M417.666,519.641h-1.195v-17.685h-4.867v-1.112h10.914v1.112h-4.852V519.641z"/>
		<path fill="#231F20" d="M427.467,519.641h-1.19v-18.797h1.19V519.641z"/>
		<path fill="#231F20" d="M441.558,503.923c-0.845-1.341-2.045-2.215-3.813-2.215c-2.025,0-3.555,1.617-3.555,3.585
			c0,1.972,1.889,2.798,3.4,3.531l3.585,1.865c1.428,0.894,2.142,2.045,2.142,3.73c0,3.118-2.837,5.469-5.877,5.469
			c-2.618,0-4.663-1.617-5.532-4.036l1.049-0.476c0.792,1.991,2.263,3.395,4.527,3.395c2.482,0,4.643-1.948,4.643-4.444
			c0-2.118-2.161-3.016-3.789-3.813l-3.395-1.797c-1.243-0.772-1.948-1.875-1.948-3.361c0-2.798,1.996-4.765,4.823-4.765
			c1.885,0,3.682,1.01,4.58,2.637L441.558,503.923z"/>
		<path fill="#231F20" d="M451.777,519.641h-1.19v-17.685h-4.872v-1.112h10.929v1.112h-4.867V519.641z"/>
		<path fill="#231F20" d="M461.584,519.641h-1.205v-18.797h1.205V519.641z"/>
		<path fill="#231F20" d="M482.246,504.676c-1.452-1.768-3.993-2.968-6.314-2.968c-4.682,0-8.558,4.041-8.558,8.655
			c0,2.195,0.952,4.26,2.526,5.809c1.564,1.496,3.813,2.599,6.033,2.599c2.161,0,4.911-1.171,6.314-2.871v1.642
			c-1.768,1.477-3.954,2.351-6.271,2.351c-5.226,0-9.787-4.357-9.787-9.627c0-5.338,4.488-9.675,9.826-9.675
			c2.263,0,4.556,0.894,6.232,2.443L482.246,504.676L482.246,504.676z"/>
		<path fill="#231F20" d="M495.958,500.849h3.395c2.739,0,4.911,0.437,6.975,2.361c1.972,1.846,3.002,4.367,3.002,7.053
			c0,2.594-1.005,5.061-2.89,6.878c-2.079,2.006-4.289,2.501-7.082,2.501h-3.395v-18.792H495.958z M499.329,518.509
			c2.467,0,4.512-0.495,6.305-2.263c1.598-1.598,2.497-3.745,2.497-5.984c0-2.39-0.942-4.634-2.72-6.261
			c-1.787-1.617-3.73-2.045-6.076-2.045h-2.176v16.553H499.329z"/>
		<path fill="#231F20" d="M515.153,519.641h-1.19v-18.797h1.19V519.641z"/>
		<path fill="#231F20" d="M530.133,519.641h-1.375l-6.135-8.903h-0.602v8.903h-1.19v-18.797h2.341c1.515,0,3.016,0.019,4.289,0.933
			c1.35,0.952,1.894,2.448,1.894,4.051c0,3.264-2.273,4.964-5.387,4.911L530.133,519.641z M523.547,509.621
			c1.175,0,2.341-0.058,3.293-0.874c0.894-0.724,1.311-1.846,1.311-2.977c0-1.389-0.641-2.778-1.987-3.385
			c-1.005-0.476-2.278-0.427-3.376-0.427h-0.772v7.66h1.53V509.621z"/>
		<path fill="#231F20" d="M535.573,501.956v6.829h7.582v1.132h-7.582v8.592h7.781v1.132h-8.991v-18.797h8.991v1.112L535.573,501.956
			L535.573,501.956z"/>
		<path fill="#231F20" d="M563.263,504.676c-1.452-1.768-3.993-2.968-6.309-2.968c-4.682,0-8.558,4.041-8.558,8.655
			c0,2.195,0.952,4.26,2.521,5.809c1.564,1.496,3.813,2.599,6.033,2.599c2.161,0,4.911-1.171,6.309-2.871v1.642
			c-1.768,1.477-3.939,2.351-6.266,2.351c-5.226,0-9.792-4.357-9.792-9.627c0-5.338,4.483-9.675,9.826-9.675
			c2.263,0,4.566,0.894,6.232,2.443v1.642H563.263z"/>
		<path fill="#231F20" d="M572.366,519.641h-1.2v-17.685h-4.867v-1.112h10.929v1.112h-4.862V519.641z"/>
		<path fill="#231F20" d="M598.079,510.233c0,5.299-4.469,9.656-9.748,9.656c-5.294,0-9.753-4.357-9.753-9.656
			c0-5.28,4.435-9.646,9.753-9.646C593.611,500.586,598.079,504.953,598.079,510.233z M579.778,510.233
			c0,4.643,3.861,8.534,8.553,8.534c4.668,0,8.544-3.92,8.544-8.534c0-4.643-3.881-8.524-8.544-8.524
			C583.639,501.708,579.778,505.589,579.778,510.233z"/>
		<path fill="#231F20" d="M612,519.641h-1.365l-6.149-8.903h-0.597v8.903h-1.19v-18.797h2.341c1.53,0,3.016,0.019,4.289,0.933
			c1.35,0.952,1.894,2.448,1.894,4.051c0,3.264-2.268,4.964-5.387,4.911L612,519.641z M605.423,509.621
			c1.166,0,2.341-0.058,3.283-0.874c0.903-0.724,1.321-1.846,1.321-2.977c0-1.389-0.636-2.778-1.987-3.385
			c-1.005-0.476-2.283-0.427-3.376-0.427h-0.777v7.66h1.535V509.621z"/>
	</g>
	<path fill="#231F20" d="M610.086,269.858h-0.787c-0.996,0-1.773,0.792-1.773,1.802v113.56l-72.07-114.867
		c-0.33-0.432-1.03-1.326-2.171-1.326h-0.583c-0.908,0-1.86,0.641-1.86,1.831v83.65h-23.11c2.657-7.087,4.119-14.761,4.119-22.761
		c0-35.904-29.201-65.105-65.095-65.105c-35.904,0-65.11,29.201-65.11,65.105c0,23.45,12.463,44.04,31.125,55.507V482.8
		c0,1.365,0.996,2.356,2.356,2.356h66.873c1.379,0,2.351-0.971,2.351-2.356v-3.361c0-1.302-1.059-2.361-2.351-2.361h-61.142v-56.119
		h49.009c1.311,0,2.307-1.005,2.307-2.331v-3.4c0-1.345-0.996-2.351-2.307-2.351h-49.009v-21.415
		c7.937,3.458,16.694,5.387,25.898,5.387c24.737,0,46.298-13.877,57.309-34.257h34.141v120.166c0,1.311,0.986,2.302,2.297,2.302
		h3.473c1.341,0,2.307-0.967,2.307-2.302V362.59h34.087c1.311,0,2.273-1.005,2.273-2.39v-3.351c0-1.268-1.054-2.336-2.307-2.336
		h-45.123v-76.354l72.065,114.876c0.432,0.797,0.952,1.321,2.113,1.321h0.01l0.588-0.005c1.175,0,1.909-0.714,1.909-1.865V271.66
		C611.888,270.596,611.15,269.858,610.086,269.858z M503.083,354.508h-0.112l-0.092,0.539c-3.016,7.257-7.446,13.921-13.177,19.642
		c-11.468,11.468-26.729,17.792-42.947,17.792c-9.117,0-17.908-1.991-25.898-5.765V362.59h61.185c1.316,0,2.312-1.005,2.312-2.331
		v-3.439c0-1.311-0.991-2.307-2.312-2.307H415.13c-1.394,0-2.356,0.986-2.356,2.385v25.199c-3.186-2.157-6.188-4.624-8.966-7.402
		c-11.468-11.468-17.797-26.724-17.797-42.947c0-16.223,6.329-31.474,17.797-42.952c11.473-11.468,26.729-17.787,42.952-17.787
		c16.218,0,31.474,6.319,42.947,17.787c11.473,11.477,17.782,26.729,17.782,42.952C507.484,339.679,505.973,347.373,503.083,354.508
		z M223.249,331.747c0-35.778-29.099-64.887-64.877-64.887c-35.773,0-64.882,29.109-64.882,64.887
		c0,28.754,18.807,53.191,44.763,61.671l-20.92,48.547c-6.97-15.013-20.031-26.452-35.807-31.363
		c8.247-5.697,13.255-15.111,13.255-25.277c0-11.026-5.863-20.696-14.62-26.107c0.044-0.782,0.078-1.559,0.078-2.336
		c0-17.826-12.614-33.262-29.765-37.021c8.898-4.58,14.703-13.921,14.707-24.062c-0.005-14.907-12.133-27.025-27.03-27.025H1.773
		C0.777,268.77,0,269.566,0,270.586v122.546c0,1.01,0.743,1.749,1.768,1.749h25.175v84.713c0,1.292,1.025,2.302,2.327,2.302h3.453
		c1.297,0,2.312-1.01,2.312-2.302v-63.551h29.031c13.517,0,26.229,5.265,35.792,14.819c9.564,9.564,14.824,22.275,14.834,35.797
		c-0.01,13.517-5.27,26.229-14.834,35.792c-9.335,9.331-21.726,14.581-34.865,14.809c-1.292,0-2.336,1.054-2.336,2.341v3.439
		c0,1.345,0.981,2.317,2.336,2.317h0.019c31.843-0.505,57.756-26.836,57.761-58.694c0-4.459-0.52-8.942-1.53-13.323l6.795-15.776
		h60.807l19.822,45.779c0.398,0.86,1.413,1.724,2.574,1.724h3.92c0.69,0,1.316-0.34,1.685-0.903
		c0.374-0.583,0.423-1.326,0.121-1.987l-38.43-88.774C204.476,384.894,223.249,360.482,223.249,331.747z M3.842,272.612h34.301
		c12.765,0.029,23.169,10.428,23.188,23.188c-0.024,12.755-10.419,23.154-23.173,23.188H3.842V272.612z M29.274,354.615
		c-1.35,0-2.331,0.986-2.331,2.341v34.087H3.842v-68.219h38.507c18.734,0.034,34.01,15.31,34.049,34.053
		c0,0.107-0.019,0.219-0.019,0.33c-3.774-1.661-7.932-2.599-12.313-2.599H29.274V354.615z M64.066,407.956H35.035v-45.254h29.031
		c12.459,0.019,22.605,10.171,22.629,22.625C86.676,397.785,76.524,407.936,64.066,407.956z M185.349,429.478h-53.822l14.649-34.01
		c3.954,0.753,8.029,1.161,12.196,1.161c4.182,0,8.286-0.408,12.25-1.175L185.349,429.478z M147.944,391.359l10.423-24.198
		l10.477,24.189c-3.429,0.593-6.926,0.918-10.477,0.918C154.836,392.267,151.353,391.947,147.944,391.359z M176.815,389.402
		l-14.329-33.087c-0.481-1.127-1.462-1.807-2.623-1.807l-1.525,0.005h-1.486c-1.107,0-2.118,0.68-2.579,1.729l-14.295,33.179
		c-9.102-2.895-17.447-7.932-24.402-14.877c-11.424-11.434-17.719-26.627-17.729-42.791c0.01-16.165,6.309-31.363,17.729-42.791
		c11.429-11.429,26.627-17.724,42.801-17.724c16.16,0,31.363,6.295,42.787,17.724c11.434,11.429,17.724,26.627,17.724,42.791
		c0,16.165-6.295,31.363-17.724,42.791C194.227,381.475,185.893,386.507,176.815,389.402z M347.048,391.723
		c0,1.03,0.763,1.802,1.783,1.802h0.84c1.044,0,1.739-0.724,1.739-1.802v-118.82h35.919c1.054,0,1.763-0.719,1.763-1.792v-0.777
		c0-1.025-0.763-1.797-1.763-1.797h-76.17c-1.073,0-1.792,0.923-1.792,1.783v0.831c0,1.001,0.767,1.753,1.792,1.753h35.894v118.82
		H347.048z M389.397,477.102h-60.263V356.961c0-1.365-0.996-2.395-2.327-2.395h-3.385c-1.326,0-2.361,1.02-2.361,2.336v125.96
		c0,1.345,0.967,2.317,2.312,2.317h66.023c1.36,0,2.341-0.971,2.341-2.317v-3.381C391.738,478.127,390.733,477.102,389.397,477.102z
		 M269.727,396.629c10.074,0,19.497-3.842,26.535-10.827c7.096-7.033,11.011-16.519,11.011-26.714
		c0.034-9.403-3.541-17.083-10.593-22.819c-6.402-5.217-14.751-8.476-22.829-11.623c-3.764-1.467-7.32-2.856-10.705-4.43
		c-11.123-5.226-18.535-11.278-18.579-23.834c0-6.353,2.691-12.74,7.388-17.52c4.828-4.925,11.137-7.635,17.772-7.635
		c11.992-0.005,22.367,8.515,24.708,20.351c0.253,0.816,0.947,1.321,1.812,1.321l0.155-0.005l0.078-0.01l0.787-0.126
		c0.84-0.16,1.603-0.991,1.418-2.142c-2.725-13.76-14.907-23.751-28.958-23.756c-15.98,0.029-29.502,13.547-29.527,29.522
		c-0.034,8.932,3.551,16.228,10.647,21.673c6.052,4.668,13.911,7.737,21.517,10.7c4.007,1.564,8.17,3.181,11.929,5.003
		c9.641,4.692,18.559,11.016,18.608,25.325c0,18.593-14.576,33.165-33.169,33.179c-13.362-0.029-24.903-8.005-30.153-19.433v-15.868
		c0-1.365-1.005-2.395-2.331-2.395h-3.385c-1.326,0-2.365,1.02-2.365,2.336v125.96c0,1.345,0.971,2.317,2.317,2.317h66.018
		c1.36,0,2.336-0.971,2.336-2.317v-3.381c0-1.355-1.005-2.38-2.336-2.38h-60.253v-95.676
		C246.422,390.645,257.38,396.629,269.727,396.629z"/>
</g>
</svg>
