<?xml version="1.0" encoding="UTF-8" standalone="no"?>
<svg width="29px" height="29px" viewBox="0 0 29 29" version="1.1" xmlns="http://www.w3.org/2000/svg" xmlns:xlink="http://www.w3.org/1999/xlink">
    <!-- Generator: Sketch 3.8.3 (29802) - http://www.bohemiancoding.com/sketch -->
    <title>social-twitter</title>
    <desc>Created with Sketch.</desc>
    <defs></defs>
    <g id="Page-1" stroke="none" stroke-width="1" fill="none" fill-rule="evenodd">
        <g id="social-twitter" fill="#FFFFFF">
            <g id="Layer_1">
                <g id="_Group_">
                    <path d="M14.48,1.73 C21.7951676,1.73000833 27.7263082,7.65817671 27.7299832,14.9733434 C27.7336583,22.2885101 21.8084771,28.2226349 14.4933132,28.2299933 C7.1781493,28.2373517 1.24104176,22.3151593 1.23,15 C1.22734683,11.483229 2.62183468,8.109442 5.10669191,5.62083405 C7.59154914,3.13222609 10.963229,1.73265117 14.48,1.73 L14.48,1.73 Z M14.48,0.98 C6.7480135,0.98 0.48,7.2480135 0.48,14.98 C0.48,22.7119865 6.7480135,28.98 14.48,28.98 C22.2119865,28.98 28.48,22.7119865 28.48,14.98 C28.48,7.2480135 22.2119865,0.98 14.48,0.98 L14.48,0.98 L14.48,0.98 Z" id="Shape"></path>
                </g>
                <g id="_Group_2" transform="translate(5.000000, 8.000000)">
                    <path d="M18.37,2 C17.7093194,2.29363998 17.0080772,2.48580733 16.29,2.57 C17.0448598,2.11804915 17.6098863,1.40732397 17.88,0.57 C17.1691255,0.992346209 16.3912397,1.28997209 15.58,1.45 C14.4602294,0.250221989 12.6734261,-0.046151375 11.2262679,0.727855454 C9.77910969,1.50186228 9.03370015,3.1525796 9.41,4.75 C6.52253374,4.59774044 3.83269563,3.23648633 2,1 C1.03913798,2.65312643 1.52964988,4.76845899 3.12,5.83 C2.54524026,5.81312646 1.98288381,5.65882134 1.48,5.38 L1.48,5.38 C1.44233213,7.11960437 2.64765573,8.63990801 4.35,9 C4.02433845,9.08964781 3.68775818,9.13340324 3.35,9.13 C3.13311672,9.10647946 2.91887194,9.06296098 2.71,9 C3.18429334,10.47316 4.54262711,11.4818635 6.09,11.51 C4.81303306,12.5255826 3.23156062,13.0820918 1.6,13.09 C1.31356434,13.1062752 1.02643566,13.1062752 0.74,13.09 C3.90788375,15.1190633 7.93055443,15.2576391 11.2305598,13.4513861 C14.5305652,11.6451332 16.5818415,8.18199175 16.58,4.42 L16.58,3.95 C17.2897586,3.41368202 17.8962586,2.75296969 18.37,2 L18.37,2 Z" id="_Path_"></path>
                </g>
            </g>
        </g>
    </g>
</svg>