<?xml version="1.0" encoding="UTF-8" standalone="no"?>
<svg width="29px" height="29px" viewBox="0 0 29 29" version="1.1" xmlns="http://www.w3.org/2000/svg" xmlns:xlink="http://www.w3.org/1999/xlink">
    <!-- Generator: Sketch 3.8.3 (29802) - http://www.bohemiancoding.com/sketch -->
    <title>social-youtube-1</title>
    <desc>Created with Sketch.</desc>
    <defs></defs>
    <g id="Page-1" stroke="none" stroke-width="1" fill="none" fill-rule="evenodd">
        <g id="social-youtube-1" fill="#FFFFFF">
            <g id="Layer_1">
                <g id="_Group_">
                    <path d="M14.48,1.73 C21.7951676,1.73000833 27.7263082,7.65817671 27.7299832,14.9733434 C27.7336583,22.2885101 21.8084771,28.2226349 14.4933132,28.2299933 C7.1781493,28.2373517 1.24104176,22.3151593 1.23,15 C1.22999169,7.67898476 7.15899307,1.74103393 14.48,1.73 L14.48,1.73 Z M14.48,0.98 C6.7480135,0.98 0.48,7.2480135 0.48,14.98 C0.48,22.7119865 6.7480135,28.98 14.48,28.98 C22.2119865,28.98 28.48,22.7119865 28.48,14.98 C28.48,7.2480135 22.2119865,0.98 14.48,0.98 L14.48,0.98 L14.48,0.98 Z" id="Shape"></path>
                </g>
                <g id="_Group_2" transform="translate(6.000000, 9.000000)">
                    <path d="M16.89,2.91 C16.8789989,1.61051677 15.8195179,0.564446952 14.52,0.57 C12.75,0.49 10.93,0.46 9.08,0.46 L8.51,0.46 C6.66,0.46 4.85,0.46 3.07,0.57 C2.4450127,0.564675203 1.84365046,0.808538685 1.39889572,1.24766362 C0.954140984,1.68678855 0.702636934,2.28499558 0.7,2.91 C0.62,3.91 0.59,4.91 0.59,5.98 C0.59,7.05 0.59,7.98 0.7,9.05 C0.702636934,9.67500442 0.954140984,10.2732115 1.39889572,10.7123364 C1.84365046,11.1514613 2.4450127,11.3953248 3.07,11.39 C4.94,11.47 6.85,11.51 8.79,11.5 C10.73,11.49 12.65,11.5 14.51,11.39 C15.1349873,11.3953248 15.7363495,11.1514613 16.1811043,10.7123364 C16.625859,10.2732115 16.8773631,9.67500442 16.88,9.05 C17,8 17,7 17,6 C17,5 17,3.94 16.89,2.91 L16.89,2.91 Z M11.31,6.48 L6.8,9.09 C6.63025908,9.2292161 6.39226096,9.24937796 6.20151983,9.14069988 C6.01077871,9.0320218 5.90677989,8.81700121 5.94,8.6 L5.94,3.38 C5.90153922,3.16123032 6.00357736,2.94168643 6.19560581,2.83004199 C6.38763425,2.71839754 6.62890912,2.73834084 6.8,2.88 L11.32,5.48 C11.5322156,5.5546082 11.674216,5.75505146 11.674216,5.98 C11.674216,6.20494854 11.5322156,6.4053918 11.32,6.48 L11.31,6.48 Z" id="_Compound_Path_"></path>
                </g>
            </g>
        </g>
    </g>
</svg>