<?xml version="1.0" encoding="UTF-8" standalone="no"?>
<svg width="29px" height="29px" viewBox="0 0 29 29" version="1.1" xmlns="http://www.w3.org/2000/svg" xmlns:xlink="http://www.w3.org/1999/xlink">
    <!-- Generator: Sketch 3.8.3 (29802) - http://www.bohemiancoding.com/sketch -->
    <title>social-facebook-1</title>
    <desc>Created with Sketch.</desc>
    <defs></defs>
    <g id="Page-1" stroke="none" stroke-width="1" fill="none" fill-rule="evenodd">
        <g id="social-facebook-1" fill="#FFFFFF">
            <g id="Layer_1">
                <path d="M11.73,10 L11.73,12.38 L10,12.38 L10,15.3 L11.72,15.3 L11.72,23.3 L15.25,23.3 L15.25,15.3 L17.62,15.3 C17.62,15.3 17.84,13.91 17.95,12.38 L15.27,12.38 L15.27,10.38 C15.3378041,10.0177305 15.6338377,9.74197318 16,9.7 L18,9.7 L18,6.7 L15.34,6.7 C11.64,6.67 11.73,9.58 11.73,10 L11.73,10 Z" id="Facebook"></path>
                <g id="_Group_">
                    <path d="M14.48,1.73 C21.7951676,1.73000833 27.7263082,7.65817671 27.7299832,14.9733434 C27.7336583,22.2885101 21.8084771,28.2226349 14.4933132,28.2299933 C7.1781493,28.2373517 1.24104176,22.3151593 1.23,15 C1.22999169,7.67898476 7.15899307,1.74103393 14.48,1.73 L14.48,1.73 Z M14.48,0.98 C6.7480135,0.98 0.48,7.2480135 0.48,14.98 C0.48,22.7119865 6.7480135,28.98 14.48,28.98 C22.2119865,28.98 28.48,22.7119865 28.48,14.98 C28.48,7.2480135 22.2119865,0.98 14.48,0.98 L14.48,0.98 L14.48,0.98 Z" id="Shape"></path>
                </g>
            </g>
        </g>
    </g>
</svg>