<?xml version="1.0" encoding="UTF-8" standalone="no"?>
<svg width="29px" height="29px" viewBox="0 0 29 29" version="1.1" xmlns="http://www.w3.org/2000/svg" xmlns:xlink="http://www.w3.org/1999/xlink">
    <!-- Generator: Sketch 3.8.3 (29802) - http://www.bohemiancoding.com/sketch -->
    <title>social-instagram-1</title>
    <desc>Created with Sketch.</desc>
    <defs></defs>
    <g id="Page-1" stroke="none" stroke-width="1" fill="none" fill-rule="evenodd">
        <g id="social-instagram-1" fill="#FFFFFF">
            <g id="Layer_1">
                <g id="_Group_">
                    <path d="M14.48,1.73 C21.7951676,1.73000833 27.7263082,7.65817671 27.7299832,14.9733434 C27.7336583,22.2885101 21.8084771,28.2226349 14.4933132,28.2299933 C7.1781493,28.2373517 1.24104176,22.3151593 1.23,15 C1.22999169,7.67898476 7.15899307,1.74103393 14.48,1.73 L14.48,1.73 Z M14.48,0.98 C6.7480135,0.98 0.48,7.2480135 0.48,14.98 C0.48,22.7119865 6.7480135,28.98 14.48,28.98 C22.2119865,28.98 28.48,22.7119865 28.48,14.98 C28.48,7.2480135 22.2119865,0.98 14.48,0.98 L14.48,0.98 L14.48,0.98 Z" id="Shape"></path>
                </g>
                <g id="_Group_2" transform="translate(7.000000, 8.000000)">
                    <g id="_Group_3">
                        <g id="_Group_4">
                            <g id="_Group_5">
                                <path d="M12.32,0.32 L3.16,0.32 C1.73891803,0.303305353 0.571935739,1.43898927 0.55,2.86 L0.55,11.78 C0.571935739,13.2010107 1.73891803,14.3366946 3.16,14.32 L12.33,14.32 C13.751082,14.3366946 14.9180643,13.2010107 14.94,11.78 L14.94,2.86 C14.9294732,2.17571497 14.6475041,1.52364796 14.1561406,1.047288 C13.6647772,0.57092805 13.0042825,0.309308709 12.32,0.32 L12.32,0.32 Z M10.63,2.32 C10.629779,2.16613177 10.692879,2.01895134 10.8044807,1.9130243 C10.9160824,1.80709725 11.0663526,1.75175689 11.22,1.76 L12.93,1.76 C13.2101449,1.74984849 13.4560853,1.94490473 13.51,2.22 C13.512879,2.24993093 13.512879,2.28006907 13.51,2.31 L13.51,3.95 C13.5122629,4.22839542 13.3061417,4.46457588 13.03,4.5 L11.22,4.5 C10.928482,4.50278465 10.6801979,4.28874665 10.64,4 C10.638058,3.97336869 10.638058,3.94663131 10.64,3.92 C10.6333333,3.37333333 10.63,2.83 10.63,2.29 L10.63,2.32 Z M7.74,4.51 C9.23817445,4.58637099 10.3987308,5.84932629 10.3484527,7.34860322 C10.2981745,8.84788015 9.05561436,10.0302471 7.55568936,10.006077 C6.05576436,9.98190685 4.85194528,8.76011847 4.85,7.26 C4.8577985,6.50501833 5.16802205,5.78469481 5.71121833,5.26029425 C6.25441461,4.73589369 6.9852117,4.45121804 7.74,4.47 L7.74,4.51 Z M13.52,6.23 L13.52,11.11 L13.52,12.19 C13.518739,12.4580436 13.324434,12.6861408 13.06,12.73 L2.59,12.73 C2.51375456,12.7413655 2.43624544,12.7413655 2.36,12.73 C2.13990498,12.6686217 1.98068283,12.4775551 1.96,12.25 L1.96,12.16 L1.96,6.16 L3.26,6.16 C2.95600005,7.25907519 3.11880312,8.43487514 3.71,9.41 C4.13579671,10.1365733 4.7603006,10.7263825 5.51,11.11 C7.53575675,12.1648867 10.0242664,11.6462729 11.46,9.87 C12.2849253,8.82659014 12.5668427,7.45409733 12.22,6.17 L13.52,6.17 L13.52,6.2 L13.52,6.23 Z" id="_Compound_Path_"></path>
                            </g>
                        </g>
                    </g>
                </g>
            </g>
        </g>
    </g>
</svg>