<?xml version="1.0" encoding="utf-8"?>
<!-- Generator: Adobe Illustrator 13.0.0, SVG Export Plug-In . SVG Version: 6.00 Build 14948)  -->
<!DOCTYPE svg PUBLIC "-//W3C//DTD SVG 1.1//EN" "http://www.w3.org/Graphics/SVG/1.1/DTD/svg11.dtd">
<svg version="1.1" id="Layer_1" xmlns="http://www.w3.org/2000/svg" xmlns:xlink="http://www.w3.org/1999/xlink" x="0px" y="0px"
	 width="433px" height="42.25px" viewBox="45.122 41.186 433 42.25" enable-background="new 45.122 41.186 433 42.25"
	 xml:space="preserve">
<g>
	<g>
		<path fill="#F3F3F3" d="M99.249,66.332c-0.174,2.438-0.351,4.877-0.523,7.312c-0.262-0.045-0.521-0.066-0.782-0.066
			c-0.26,0-0.512,0-0.751,0c-0.261,0-0.517,0-0.768,0c-0.25,0-0.505,0.021-0.766,0.066c0.696-3.744,1.316-7.461,1.859-11.162
			c0.543-3.7,1.043-7.451,1.5-11.257c0.239,0.045,0.461,0.08,0.669,0.113c0.208,0.033,0.43,0.05,0.668,0.05
			c0.196,0,0.405-0.017,0.621-0.05c0.217-0.033,0.445-0.068,0.685-0.113c0.587,1.306,1.203,2.631,1.844,3.981
			c0.644,1.348,1.284,2.692,1.927,4.03c0.64,1.337,1.28,2.648,1.923,3.932c0.642,1.283,1.256,2.5,1.845,3.649
			c1.304-2.432,2.603-4.981,3.898-7.649c1.292-2.663,2.529-5.313,3.704-7.944c0.54,0.108,1.011,0.164,1.4,0.164
			c0.372,0,0.829-0.056,1.373-0.164c0.217,1.87,0.449,3.882,0.7,6.035c0.252,2.157,0.496,4.259,0.738,6.316
			c0.237,2.055,0.476,3.975,0.717,5.76c0.237,1.785,0.457,3.221,0.65,4.309c-0.435-0.045-0.874-0.066-1.32-0.066
			c-0.448,0-0.889,0-1.323,0c-0.435,0-0.879,0-1.336,0c-0.458,0-0.916,0.021-1.373,0.066c-0.108-2.242-0.287-4.668-0.536-7.277
			c-0.251-2.611-0.507-5.201-0.769-7.767h-0.064c-1.239,2.566-2.457,5.087-3.655,7.57c-1.196,2.48-2.382,4.971-3.558,7.475
			c-0.109-0.022-0.211-0.039-0.307-0.051c-0.1-0.011-0.204-0.016-0.312-0.016c-0.109,0-0.209,0.005-0.31,0.016
			c-0.097,0.012-0.203,0.027-0.311,0.051c-1.175-2.436-2.341-4.875-3.506-7.312c-1.164-2.435-2.368-4.902-3.606-7.407h-0.065
			C99.683,61.43,99.423,63.898,99.249,66.332z"/>
		<path fill="#F3F3F3" d="M144.833,73.645c-0.523-0.045-1.018-0.066-1.486-0.066c-0.467,0-0.929,0-1.387,0c-0.456,0-0.92,0-1.387,0
			c-0.468,0-0.931,0.021-1.386,0.066c-0.351-1.067-0.708-2.156-1.078-3.267c-0.369-1.106-0.761-2.218-1.174-3.328
			c-0.695-0.02-1.392-0.034-2.089-0.051c-0.696-0.008-1.392-0.017-2.087-0.017c-0.568,0-1.131,0.009-1.699,0.017
			c-0.565,0.017-1.129,0.03-1.695,0.051c-0.435,1.11-0.838,2.222-1.208,3.328c-0.369,1.108-0.706,2.198-1.012,3.267
			c-0.261-0.045-0.515-0.066-0.766-0.066c-0.25,0-0.507,0-0.767,0c-0.26,0-0.521,0-0.781,0c-0.264,0-0.546,0.021-0.851,0.066
			c0.261-0.566,0.608-1.351,1.046-2.354c0.435-0.999,0.913-2.128,1.434-3.393c0.523-1.26,1.083-2.615,1.68-4.062
			c0.599-1.448,1.197-2.909,1.794-4.39c0.599-1.477,1.186-2.934,1.764-4.371c0.578-1.438,1.104-2.774,1.581-4.014
			c0.218,0.044,0.424,0.082,0.62,0.117c0.198,0.032,0.404,0.047,0.621,0.047c0.216,0,0.425-0.015,0.62-0.047
			c0.196-0.035,0.403-0.072,0.619-0.117c0.698,1.851,1.441,3.831,2.235,5.938c0.797,2.111,1.596,4.183,2.398,6.214
			c0.807,2.037,1.588,3.969,2.35,5.793C143.503,70.835,144.199,72.382,144.833,73.645z M133.28,57.36
			c-0.564,1.304-1.098,2.594-1.598,3.866c-0.5,1.273-0.991,2.572-1.469,3.897h5.971c-0.479-1.325-0.951-2.625-1.417-3.897
			C134.296,59.954,133.804,58.664,133.28,57.36z"/>
		<path fill="#F3F3F3" d="M153.022,63.364v1.341c0,1.804,0.02,3.41,0.065,4.811c0.043,1.403,0.109,2.779,0.193,4.129
			c-0.366-0.045-0.77-0.065-1.204-0.065c-0.435,0-0.926,0-1.467,0c-0.545,0-1.037,0-1.471,0c-0.435,0-0.836,0.021-1.209,0.065
			c0.09-1.35,0.157-2.726,0.196-4.129c0.045-1.399,0.068-3.007,0.068-4.811v-4.441c0-1.805-0.023-3.409-0.068-4.812
			c-0.04-1.403-0.106-2.809-0.196-4.226c0.373,0.045,0.774,0.08,1.209,0.113c0.434,0.033,0.925,0.05,1.471,0.05
			c0.586,0,1.253-0.027,2.005-0.083c0.752-0.052,1.679-0.08,2.791-0.08c0.826,0,1.532,0.022,2.12,0.067
			c0.587,0.041,1.093,0.107,1.518,0.194c0.423,0.088,0.794,0.201,1.108,0.34c0.317,0.146,0.617,0.312,0.899,0.509
			c0.652,0.477,1.167,1.07,1.551,1.777c0.376,0.707,0.567,1.548,0.567,2.531c0,1.585-0.435,2.879-1.303,3.88
			c-0.87,1.001-2.119,1.709-3.752,2.121c1.043,1.851,2.164,3.694,3.36,5.531c1.198,1.842,2.395,3.659,3.59,5.469
			c-0.5-0.045-0.99-0.066-1.469-0.066c-0.478,0-0.967,0-1.468,0c-0.502,0-0.994,0-1.484,0c-0.491,0-0.986,0.021-1.486,0.066
			l-5.841-10.28H153.022z M157.884,55.076c-0.195-0.565-0.497-0.996-0.897-1.289c-0.405-0.293-0.926-0.482-1.568-0.569
			c-0.641-0.089-1.409-0.134-2.3-0.134c-0.065,2.958-0.097,5.92-0.097,8.875c0.13,0.024,0.255,0.038,0.374,0.051
			c0.122,0.01,0.233,0.013,0.343,0.013c1.435,0,2.534-0.383,3.295-1.155c0.762-0.771,1.144-1.943,1.144-3.508
			C158.178,56.404,158.079,55.643,157.884,55.076z"/>
		<path fill="#F3F3F3" d="M171.963,54.815c-0.011-0.523-0.041-0.902-0.083-1.142c-0.324,0-0.728,0.01-1.206,0.032
			c-0.479,0.022-0.988,0.05-1.534,0.083c-0.543,0.032-1.099,0.077-1.665,0.131c-0.563,0.055-1.086,0.113-1.564,0.179
			c0.042-0.24,0.081-0.479,0.112-0.717c0.035-0.239,0.048-0.478,0.048-0.72c0-0.239-0.014-0.476-0.048-0.717
			c-0.032-0.239-0.07-0.478-0.112-0.717c0.738,0.022,1.408,0.045,2.004,0.067c0.599,0.022,1.21,0.035,1.829,0.046
			c0.62,0.012,1.295,0.023,2.024,0.033c0.727,0.01,1.601,0.017,2.626,0.017c1.021,0,1.899-0.007,2.625-0.017
			c0.73-0.01,1.396-0.021,2.008-0.033c0.607-0.011,1.2-0.024,1.778-0.046c0.577-0.021,1.202-0.044,1.877-0.067
			c-0.043,0.239-0.083,0.478-0.117,0.717c-0.031,0.242-0.048,0.478-0.048,0.717c0,0.242,0.018,0.48,0.048,0.72
			c0.034,0.238,0.073,0.477,0.117,0.717c-0.436-0.066-0.927-0.124-1.47-0.179c-0.543-0.054-1.083-0.099-1.616-0.131
			c-0.534-0.032-1.039-0.061-1.518-0.083c-0.478-0.021-0.88-0.032-1.205-0.032c-0.025,0.109-0.039,0.259-0.049,0.458
			c-0.014,0.196-0.019,0.424-0.019,0.685v1.729v8.16c0,1.804,0.022,3.41,0.068,4.811c0.041,1.403,0.106,2.779,0.193,4.129
			c-0.37-0.045-0.771-0.065-1.206-0.065c-0.437,0-0.925,0-1.468,0c-0.544,0-1.035,0-1.47,0s-0.837,0.021-1.208,0.065
			c0.087-1.35,0.153-2.726,0.196-4.129c0.043-1.399,0.067-3.007,0.067-4.811v-8.16C171.98,55.914,171.973,55.336,171.963,54.815z"/>
		<path fill="#F3F3F3" d="M186.338,55.451c-0.047-1.403-0.113-2.809-0.2-4.226c0.373,0.045,0.773,0.08,1.21,0.113
			c0.434,0.033,0.923,0.05,1.468,0.05c0.542,0,1.031-0.017,1.467-0.05c0.436-0.033,0.837-0.068,1.206-0.113
			c-0.087,1.417-0.152,2.822-0.194,4.226c-0.043,1.403-0.065,3.007-0.065,4.812v4.441c0,1.804,0.022,3.41,0.065,4.812
			c0.042,1.402,0.107,2.778,0.194,4.129c-0.369-0.045-0.771-0.066-1.206-0.066c-0.435,0-0.924,0-1.467,0c-0.545,0-1.035,0-1.468,0
			c-0.437,0-0.837,0.021-1.21,0.066c0.087-1.351,0.153-2.727,0.2-4.129c0.043-1.4,0.062-3.008,0.062-4.812v-4.441
			C186.4,58.458,186.381,56.854,186.338,55.451z"/>
		<path fill="#F3F3F3" d="M197.364,53.932c-0.044-1.02-0.077-1.924-0.097-2.707c0.606,0.108,1.098,0.164,1.466,0.164
			c0.37,0,0.86-0.056,1.469-0.164c2.371,2.631,4.717,5.22,7.033,7.766c2.316,2.544,4.693,5.134,7.128,7.765v-2.837v-3.166
			c0-1.064-0.005-2.114-0.017-3.148c-0.009-1.033-0.022-1.987-0.031-2.856c-0.01-0.872-0.032-1.62-0.065-2.253
			c-0.034-0.627-0.07-1.053-0.117-1.27c0.608,0.108,1.102,0.164,1.469,0.164c0.373,0,0.86-0.056,1.469-0.164
			c-0.108,1.98-0.196,3.768-0.261,5.368c-0.066,1.599-0.118,3.106-0.162,4.518c-0.045,1.417-0.072,2.813-0.082,4.193
			c-0.012,1.383-0.017,2.855-0.017,4.422v3.918c-0.435-0.045-0.88-0.066-1.335-0.066c-0.48,0-0.907,0.021-1.273,0.066
			c-4.48-5.224-9.235-10.476-14.26-15.764c-0.024,0.631-0.039,1.26-0.049,1.893c-0.011,0.634-0.019,1.272-0.019,1.924v3.786
			c0,1.305,0.007,2.416,0.019,3.33c0.01,0.912,0.025,1.685,0.049,2.314c0.021,0.635,0.042,1.148,0.065,1.553
			c0.021,0.397,0.043,0.723,0.064,0.963c-0.26-0.045-0.521-0.066-0.785-0.066c-0.259,0-0.51,0-0.749,0c-0.5,0-1,0.021-1.503,0.066
			c0.046-0.177,0.1-0.795,0.168-1.859c0.062-1.066,0.132-2.369,0.212-3.901c0.073-1.532,0.136-3.198,0.193-4.993
			c0.053-1.795,0.083-3.516,0.083-5.172C197.43,56.218,197.407,54.958,197.364,53.932z"/>
		<path fill="#F3F3F3" d="M243.861,62.758c-0.829-0.032-1.653-0.049-2.481-0.049c-0.827,0-1.652,0.014-2.478,0.033
			c-0.83,0.027-1.655,0.057-2.481,0.099v1.863c0,1.804,0.021,3.41,0.065,4.812c0.044,1.402,0.109,2.778,0.195,4.129
			c-0.369-0.045-0.772-0.066-1.208-0.066s-0.923,0-1.466,0c-0.546,0-1.034,0-1.471,0c-0.435,0-0.836,0.021-1.205,0.066
			c0.086-1.351,0.153-2.727,0.196-4.129c0.042-1.4,0.064-3.008,0.064-4.812v-4.441c0-1.805-0.022-3.409-0.064-4.812
			c-0.043-1.403-0.11-2.809-0.196-4.226c0.369,0.045,0.77,0.08,1.205,0.113c0.438,0.033,0.925,0.05,1.471,0.05
			c0.543,0,1.031-0.017,1.466-0.05c0.435-0.033,0.838-0.068,1.208-0.113c-0.109,1.417-0.178,2.812-0.21,4.192
			c-0.034,1.383-0.051,2.975-0.051,4.782c0.567,0.021,1.247,0.038,2.039,0.045c0.793,0.014,1.777,0.019,2.954,0.019
			c1.173,0,2.131-0.005,2.87-0.019c0.739-0.007,1.426-0.023,2.056-0.045c0-1.807-0.022-3.399-0.062-4.782
			c-0.046-1.38-0.113-2.775-0.199-4.192c0.37,0.045,0.773,0.08,1.209,0.113c0.434,0.033,0.925,0.05,1.467,0.05
			c0.543,0,1.032-0.017,1.467-0.05c0.438-0.033,0.837-0.068,1.211-0.113c-0.09,1.417-0.153,2.822-0.199,4.226
			c-0.044,1.403-0.064,3.007-0.064,4.812v4.441c0,1.804,0.021,3.41,0.064,4.812c0.045,1.402,0.108,2.778,0.199,4.129
			c-0.374-0.045-0.773-0.066-1.211-0.066c-0.435,0-0.923,0-1.467,0c-0.542,0-1.034,0-1.467,0c-0.436,0-0.839,0.021-1.209,0.066
			c0.086-1.351,0.153-2.727,0.199-4.129c0.04-1.4,0.062-3.008,0.062-4.812v-1.863C245.513,62.821,244.687,62.794,243.861,62.758z"/>
		<path fill="#F3F3F3" d="M256.594,55.451c-0.038-1.403-0.094-2.809-0.172-4.226c0.979,0.022,1.947,0.054,2.904,0.096
			c0.959,0.045,1.924,0.067,2.903,0.067c1.609,0,3.041-0.017,4.291-0.05c1.252-0.033,2.094-0.068,2.528-0.113
			c-0.088,0.35-0.131,0.805-0.131,1.371c0,0.349,0.01,0.621,0.033,0.815c0.022,0.194,0.057,0.413,0.098,0.651
			c-0.631-0.041-1.317-0.084-2.069-0.131c-0.752-0.041-1.48-0.085-2.187-0.128c-0.71-0.044-1.347-0.077-1.91-0.099
			c-0.565-0.021-0.971-0.032-1.207-0.032c-0.088,1.197-0.138,2.382-0.147,3.557c-0.01,1.173-0.016,2.361-0.016,3.556
			c1.411-0.022,2.69-0.053,3.832-0.097c1.145-0.043,2.333-0.101,3.573-0.165c-0.063,0.37-0.108,0.653-0.131,0.847
			c-0.021,0.196-0.031,0.404-0.031,0.62c0,0.176,0.019,0.357,0.049,0.541c0.031,0.184,0.07,0.453,0.113,0.801
			c-2.479-0.2-4.948-0.294-7.405-0.294c0,0.694-0.005,1.392-0.015,2.084c-0.015,0.7-0.019,1.396-0.019,2.091
			c0,1.414,0.032,2.775,0.098,4.077c1.238,0,2.479-0.03,3.718-0.097c1.245-0.065,2.494-0.172,3.754-0.326
			c-0.041,0.24-0.074,0.457-0.099,0.65c-0.022,0.198-0.032,0.471-0.032,0.817c0,0.351,0.01,0.621,0.032,0.813
			c0.023,0.197,0.058,0.359,0.099,0.492c-0.586-0.022-1.312-0.039-2.17-0.051c-0.858-0.011-2.038-0.016-3.539-0.016
			c-1.328,0-2.406,0-3.231,0c-0.806,0-1.453,0-1.94,0c-0.491,0-0.859,0.005-1.111,0.016c-0.249,0.012-0.461,0.027-0.636,0.051
			c0.078-1.35,0.134-2.726,0.172-4.129c0.038-1.4,0.058-3.007,0.058-4.811V60.26C256.652,58.458,256.632,56.854,256.594,55.451z"/>
		<path fill="#F3F3F3" d="M291.696,73.645c-0.523-0.045-1.016-0.066-1.486-0.066c-0.469,0-0.928,0-1.385,0c-0.459,0-0.918,0-1.389,0
			c-0.47,0-0.929,0.021-1.386,0.066c-0.35-1.067-0.709-2.156-1.077-3.267c-0.371-1.106-0.761-2.218-1.175-3.328
			c-0.698-0.02-1.394-0.034-2.09-0.051c-0.694-0.008-1.394-0.017-2.09-0.017c-0.563,0-1.132,0.009-1.695,0.017
			c-0.565,0.017-1.131,0.03-1.694,0.051c-0.437,1.11-0.838,2.222-1.209,3.328c-0.369,1.108-0.705,2.198-1.011,3.267
			c-0.26-0.045-0.518-0.066-0.764-0.066c-0.257,0-0.511,0-0.771,0c-0.264,0-0.522,0-0.783,0c-0.26,0-0.543,0.021-0.85,0.066
			c0.26-0.566,0.609-1.351,1.045-2.354c0.437-0.999,0.912-2.128,1.437-3.393c0.521-1.26,1.081-2.615,1.68-4.062
			c0.599-1.448,1.197-2.909,1.793-4.39c0.601-1.477,1.188-2.934,1.765-4.371c0.575-1.438,1.104-2.774,1.584-4.014
			c0.213,0.044,0.424,0.082,0.619,0.117c0.192,0.032,0.401,0.047,0.618,0.047c0.218,0,0.425-0.015,0.621-0.047
			c0.195-0.035,0.401-0.072,0.621-0.117c0.692,1.851,1.438,3.831,2.233,5.938c0.793,2.111,1.593,4.183,2.398,6.214
			c0.803,2.037,1.584,3.969,2.348,5.793C290.368,70.835,291.063,72.382,291.696,73.645z M280.146,57.36
			c-0.565,1.304-1.102,2.594-1.6,3.866c-0.502,1.273-0.992,2.572-1.471,3.897h5.973c-0.479-1.325-0.953-2.625-1.42-3.897
			C281.163,59.954,280.667,58.664,280.146,57.36z"/>
		<path fill="#F3F3F3" d="M294.987,55.451c-0.041-1.403-0.107-2.809-0.193-4.226c0.369,0.045,0.771,0.08,1.205,0.113
			c0.436,0.033,0.928,0.05,1.471,0.05s1.031-0.017,1.469-0.05c0.435-0.033,0.84-0.068,1.207-0.113
			c-0.086,1.417-0.149,2.822-0.194,4.226c-0.043,1.403-0.063,3.007-0.063,4.812v4.441c0,1.235,0.004,2.437,0.016,3.587
			c0.01,1.152,0.029,2.152,0.049,3c1.24,0,2.479-0.03,3.721-0.098c1.24-0.064,2.49-0.172,3.752-0.325
			c-0.045,0.241-0.078,0.457-0.1,0.649c-0.021,0.199-0.031,0.472-0.031,0.818c0,0.35,0.01,0.621,0.031,0.814
			c0.021,0.197,0.055,0.358,0.1,0.492c-0.586-0.023-1.311-0.039-2.174-0.052c-0.854-0.011-2.037-0.016-3.537-0.016
			c-1.326,0-2.402,0-3.229,0c-0.807,0-1.453,0-1.943,0c-0.488,0-0.861,0.005-1.109,0.016c-0.248,0.013-0.461,0.027-0.637,0.052
			c0.086-1.351,0.152-2.727,0.193-4.129c0.045-1.4,0.066-3.008,0.066-4.812v-4.441C295.054,58.458,295.032,56.854,294.987,55.451z"
			/>
		<path fill="#F3F3F3" d="M315.202,54.815c-0.008-0.523-0.035-0.902-0.078-1.142c-0.326,0-0.729,0.01-1.207,0.032
			c-0.479,0.022-0.992,0.05-1.533,0.083c-0.547,0.032-1.102,0.077-1.668,0.131c-0.563,0.055-1.086,0.113-1.563,0.179
			c0.045-0.24,0.084-0.479,0.112-0.717c0.031-0.239,0.05-0.478,0.05-0.72c0-0.239-0.019-0.476-0.05-0.717
			c-0.028-0.239-0.067-0.478-0.112-0.717c0.739,0.022,1.41,0.045,2.008,0.067s1.205,0.035,1.826,0.046
			c0.621,0.012,1.295,0.023,2.021,0.033c0.73,0.01,1.605,0.017,2.627,0.017c1.023,0,1.9-0.007,2.627-0.017
			c0.73-0.01,1.396-0.021,2.011-0.033c0.606-0.011,1.198-0.024,1.776-0.046c0.576-0.021,1.201-0.044,1.875-0.067
			c-0.045,0.239-0.084,0.478-0.113,0.717c-0.032,0.242-0.051,0.478-0.051,0.717c0,0.242,0.019,0.48,0.051,0.72
			c0.029,0.238,0.068,0.477,0.113,0.717c-0.436-0.066-0.924-0.124-1.471-0.179c-0.543-0.054-1.082-0.099-1.615-0.131
			c-0.529-0.032-1.035-0.061-1.516-0.083c-0.479-0.021-0.881-0.032-1.207-0.032c-0.021,0.109-0.039,0.259-0.049,0.458
			c-0.011,0.196-0.015,0.424-0.015,0.685v1.729v8.16c0,1.804,0.019,3.41,0.062,4.811c0.043,1.403,0.108,2.779,0.196,4.129
			c-0.37-0.045-0.774-0.065-1.211-0.065c-0.434,0-0.922,0-1.467,0s-1.031,0-1.467,0c-0.437,0-0.838,0.021-1.209,0.065
			c0.088-1.35,0.154-2.726,0.197-4.129c0.043-1.399,0.063-3.007,0.063-4.811v-8.16C315.22,55.914,315.216,55.336,315.202,54.815z"/>
		<path fill="#F3F3F3" d="M341.78,62.758c-0.826-0.032-1.652-0.049-2.482-0.049c-0.822,0-1.649,0.014-2.477,0.033
			c-0.826,0.027-1.654,0.057-2.482,0.099v1.863c0,1.804,0.023,3.41,0.068,4.812c0.043,1.402,0.104,2.778,0.192,4.129
			c-0.368-0.045-0.77-0.066-1.205-0.066c-0.434,0-0.926,0-1.469,0s-1.035,0-1.469,0s-0.834,0.021-1.207,0.066
			c0.088-1.351,0.15-2.727,0.195-4.129c0.047-1.4,0.063-3.008,0.063-4.812v-4.441c0-1.805-0.018-3.409-0.063-4.812
			c-0.045-1.403-0.107-2.809-0.195-4.226c0.373,0.045,0.773,0.08,1.207,0.113c0.434,0.033,0.926,0.05,1.469,0.05
			s1.035-0.017,1.469-0.05c0.437-0.033,0.837-0.068,1.205-0.113c-0.106,1.417-0.18,2.812-0.209,4.192
			c-0.034,1.383-0.053,2.975-0.053,4.782c0.566,0.021,1.248,0.038,2.043,0.045c0.793,0.014,1.777,0.019,2.951,0.019
			s2.131-0.005,2.873-0.019c0.738-0.007,1.422-0.023,2.055-0.045c0-1.807-0.022-3.399-0.065-4.782
			c-0.043-1.38-0.109-2.775-0.193-4.192c0.371,0.045,0.771,0.08,1.205,0.113c0.436,0.033,0.926,0.05,1.467,0.05
			c0.547,0,1.035-0.017,1.471-0.05c0.437-0.033,0.839-0.068,1.207-0.113c-0.088,1.417-0.149,2.822-0.194,4.226
			c-0.045,1.404-0.064,3.007-0.064,4.812v4.441c0,1.804,0.021,3.41,0.064,4.812c0.045,1.402,0.106,2.778,0.194,4.129
			c-0.368-0.045-0.771-0.066-1.207-0.066c-0.436,0-0.924,0-1.471,0c-0.541,0-1.031,0-1.467,0c-0.435,0-0.834,0.021-1.205,0.066
			c0.084-1.351,0.15-2.727,0.193-4.129c0.043-1.4,0.065-3.008,0.065-4.812v-1.863C343.438,62.821,342.606,62.794,341.78,62.758z"/>
		<path fill="#F3F3F3" d="M369.647,52.826c-1.003,0-1.818,0.293-2.447,0.879c-0.633,0.587-0.949,1.275-0.949,2.055
			c0,0.807,0.246,1.465,0.738,1.976c0.487,0.512,1.1,0.973,1.842,1.387c0.74,0.414,1.531,0.812,2.379,1.189
			c0.848,0.383,1.646,0.853,2.385,1.404c0.738,0.558,1.354,1.228,1.847,2.026c0.487,0.792,0.731,1.812,0.731,3.048
			c0,1.09-0.207,2.086-0.619,2.987c-0.416,0.902-1,1.675-1.764,2.314c-0.762,0.643-1.672,1.135-2.723,1.473
			c-1.058,0.334-2.236,0.5-3.543,0.5c-1.175,0-2.226-0.121-3.146-0.375c-0.926-0.246-1.627-0.557-2.104-0.926
			c0.217-0.762,0.401-1.459,0.553-2.089c0.154-0.632,0.285-1.315,0.391-2.056h0.621c0.088,0.477,0.25,0.929,0.488,1.354
			c0.242,0.424,0.543,0.801,0.914,1.129c0.371,0.324,0.815,0.578,1.338,0.767c0.523,0.183,1.111,0.272,1.764,0.272
			c1.308,0,2.271-0.324,2.888-0.979c0.62-0.652,0.93-1.436,0.93-2.348c0-0.828-0.238-1.5-0.717-2.025
			c-0.479-0.523-1.078-0.982-1.793-1.387c-0.72-0.398-1.504-0.793-2.353-1.174c-0.846-0.381-1.631-0.844-2.35-1.387
			c-0.717-0.542-1.316-1.214-1.795-2.008c-0.478-0.791-0.718-1.812-0.718-3.053c0-1.127,0.203-2.131,0.604-2.999
			c0.4-0.87,0.939-1.599,1.613-2.186c0.678-0.588,1.453-1.033,2.338-1.336c0.879-0.306,1.809-0.458,2.787-0.458
			c1.176,0,2.205,0.14,3.084,0.424c0.883,0.283,1.637,0.676,2.268,1.175c-0.197,0.501-0.363,0.984-0.506,1.452
			c-0.143,0.469-0.32,1.062-0.541,1.776h-0.486C372.897,53.76,371.583,52.826,369.647,52.826z"/>
		<path fill="#F3F3F3" d="M390.202,58.877c0.436-0.795,0.858-1.625,1.271-2.497c0.416-0.869,0.818-1.747,1.209-2.625
			c0.392-0.88,0.769-1.725,1.142-2.529c0.239,0.045,0.483,0.08,0.733,0.113c0.248,0.033,0.507,0.05,0.767,0.05
			c0.262,0,0.516-0.017,0.768-0.05c0.252-0.033,0.517-0.068,0.799-0.113c-0.366,0.609-0.832,1.411-1.387,2.399
			c-0.553,0.987-1.146,2.062-1.779,3.213c-0.629,1.155-1.264,2.332-1.903,3.541c-0.646,1.205-1.224,2.32-1.75,3.346
			c0,0.522-0.008,1.047-0.029,1.582c-0.021,0.531-0.033,1.072-0.033,1.614c0,1.11,0.015,2.21,0.049,3.295
			c0.033,1.089,0.127,2.229,0.279,3.429c-0.459-0.045-0.922-0.065-1.389-0.065c-0.469,0-0.931,0-1.385,0c-0.459,0-0.923,0-1.392,0
			s-0.93,0.021-1.383,0.065c0.039-1,0.117-2.022,0.225-3.067c0.111-1.045,0.166-2.089,0.166-3.132c0-0.5-0.006-1.01-0.018-1.518
			c-0.012-0.512-0.027-1.02-0.049-1.52c-0.547-1.084-1.17-2.3-1.877-3.639c-0.705-1.337-1.392-2.637-2.058-3.897
			c-0.662-1.263-1.271-2.405-1.828-3.427c-0.553-1.023-0.961-1.762-1.223-2.218c0.502,0.045,0.992,0.08,1.471,0.113
			c0.479,0.033,0.97,0.05,1.468,0.05c0.5,0,0.981-0.017,1.45-0.05c0.47-0.033,0.955-0.068,1.451-0.113
			c0.373,0.805,0.791,1.699,1.26,2.673c0.468,0.979,0.927,1.938,1.384,2.874c0.459,0.934,0.883,1.785,1.274,2.547
			c0.394,0.758,0.705,1.326,0.945,1.696h0.066C389.331,60.383,389.767,59.673,390.202,58.877z"/>
		<path fill="#F3F3F3" d="M405.896,52.826c-1,0-1.814,0.293-2.445,0.879c-0.631,0.587-0.947,1.275-0.947,2.055
			c0,0.807,0.244,1.465,0.734,1.976c0.489,0.512,1.104,0.973,1.844,1.387c0.738,0.414,1.533,0.812,2.383,1.189
			c0.846,0.383,1.639,0.853,2.379,1.404c0.744,0.558,1.355,1.228,1.847,2.026c0.487,0.792,0.731,1.812,0.731,3.048
			c0,1.09-0.207,2.086-0.619,2.987c-0.412,0.902-1,1.675-1.76,2.314c-0.764,0.643-1.67,1.135-2.727,1.473
			c-1.056,0.334-2.234,0.5-3.539,0.5c-1.175,0-2.226-0.121-3.148-0.375c-0.928-0.246-1.627-0.557-2.104-0.926
			c0.215-0.762,0.397-1.459,0.551-2.089c0.154-0.632,0.281-1.315,0.395-2.056h0.617c0.088,0.477,0.252,0.929,0.49,1.354
			c0.24,0.424,0.543,0.801,0.914,1.129c0.371,0.324,0.815,0.578,1.338,0.767c0.522,0.183,1.106,0.272,1.762,0.272
			c1.305,0,2.269-0.324,2.89-0.979c0.618-0.652,0.93-1.436,0.93-2.348c0-0.828-0.238-1.5-0.717-2.025
			c-0.48-0.523-1.078-0.982-1.798-1.387c-0.719-0.398-1.5-0.793-2.348-1.174c-0.852-0.381-1.631-0.844-2.35-1.387
			c-0.722-0.542-1.316-1.214-1.795-2.008c-0.48-0.791-0.718-1.812-0.718-3.053c0-1.127,0.199-2.131,0.603-2.999
			c0.404-0.87,0.938-1.599,1.617-2.186c0.67-0.588,1.451-1.033,2.332-1.336c0.881-0.306,1.813-0.458,2.789-0.458
			c1.172,0,2.205,0.14,3.082,0.424c0.885,0.283,1.641,0.676,2.27,1.175c-0.195,0.501-0.363,0.984-0.506,1.452
			c-0.141,0.469-0.322,1.062-0.537,1.776h-0.492C409.149,53.76,407.837,52.826,405.896,52.826z"/>
		<path fill="#F3F3F3" d="M420.366,54.815c-0.013-0.523-0.039-0.902-0.08-1.142c-0.328,0-0.73,0.01-1.207,0.032
			c-0.48,0.022-0.992,0.05-1.531,0.083c-0.545,0.032-1.102,0.077-1.666,0.131c-0.565,0.055-1.088,0.113-1.567,0.179
			c0.047-0.24,0.084-0.479,0.114-0.717c0.033-0.239,0.05-0.478,0.05-0.72c0-0.239-0.017-0.476-0.05-0.717
			c-0.03-0.239-0.067-0.478-0.114-0.717c0.737,0.022,1.411,0.045,2.008,0.067c0.6,0.022,1.207,0.035,1.826,0.046
			c0.618,0.012,1.295,0.023,2.022,0.033s1.607,0.017,2.627,0.017c1.023,0,1.898-0.007,2.627-0.017c0.73-0.01,1.4-0.021,2.011-0.033
			c0.604-0.011,1.198-0.024,1.776-0.046c0.574-0.021,1.201-0.044,1.875-0.067c-0.045,0.239-0.084,0.478-0.113,0.717
			c-0.032,0.242-0.049,0.478-0.049,0.717c0,0.242,0.017,0.48,0.049,0.72c0.029,0.238,0.068,0.477,0.113,0.717
			c-0.436-0.066-0.924-0.124-1.467-0.179c-0.547-0.054-1.086-0.099-1.617-0.131c-0.529-0.032-1.037-0.061-1.516-0.083
			c-0.48-0.021-0.883-0.032-1.209-0.032c-0.021,0.109-0.037,0.259-0.049,0.458c-0.011,0.196-0.017,0.424-0.017,0.685v1.729v8.16
			c0,1.804,0.021,3.41,0.064,4.811c0.043,1.403,0.108,2.779,0.194,4.129c-0.366-0.045-0.772-0.065-1.209-0.065
			c-0.434,0-0.922,0-1.467,0c-0.543,0-1.031,0-1.467,0c-0.437,0-0.84,0.021-1.209,0.065c0.088-1.35,0.152-2.726,0.199-4.129
			c0.043-1.399,0.062-3.007,0.062-4.811v-8.16C420.384,55.914,420.38,55.336,420.366,54.815z"/>
		<path fill="#F3F3F3" d="M434.292,55.451c-0.037-1.403-0.096-2.809-0.17-4.226c0.979,0.022,1.945,0.054,2.904,0.096
			c0.952,0.045,1.922,0.067,2.901,0.067c1.609,0,3.039-0.017,4.291-0.05c1.252-0.033,2.097-0.068,2.529-0.113
			c-0.09,0.35-0.131,0.805-0.131,1.371c0,0.349,0.01,0.621,0.031,0.815c0.022,0.194,0.057,0.413,0.1,0.651
			c-0.631-0.041-1.324-0.084-2.074-0.131c-0.75-0.041-1.477-0.085-2.184-0.128c-0.711-0.044-1.345-0.077-1.914-0.099
			c-0.564-0.021-0.965-0.032-1.203-0.032c-0.088,1.197-0.137,2.382-0.146,3.557c-0.016,1.173-0.02,2.361-0.02,3.556
			c1.416-0.022,2.691-0.053,3.836-0.097c1.141-0.043,2.334-0.101,3.572-0.165c-0.064,0.37-0.111,0.653-0.133,0.847
			c-0.019,0.196-0.031,0.404-0.031,0.62c0,0.176,0.018,0.357,0.051,0.541c0.031,0.184,0.07,0.453,0.113,0.801
			c-2.48-0.2-4.951-0.294-7.408-0.294c0,0.694-0.004,1.392-0.018,2.084c-0.011,0.7-0.015,1.396-0.015,2.091
			c0,1.414,0.031,2.775,0.096,4.077c1.242,0,2.48-0.03,3.72-0.097c1.244-0.065,2.492-0.172,3.756-0.326
			c-0.043,0.24-0.076,0.457-0.101,0.65c-0.021,0.198-0.03,0.471-0.03,0.817c0,0.351,0.01,0.621,0.03,0.813
			c0.023,0.197,0.058,0.359,0.101,0.492c-0.588-0.022-1.312-0.039-2.168-0.051c-0.865-0.011-2.043-0.016-3.543-0.016
			c-1.33,0-2.402,0-3.232,0c-0.801,0-1.448,0-1.938,0s-0.859,0.005-1.107,0.016c-0.252,0.012-0.465,0.027-0.637,0.051
			c0.074-1.35,0.133-2.726,0.17-4.129c0.039-1.4,0.057-3.007,0.057-4.811V60.26C434.349,58.458,434.331,56.854,434.292,55.451z"/>
		<path fill="#F3F3F3" d="M452.817,66.332c-0.175,2.438-0.351,4.877-0.521,7.312c-0.264-0.045-0.521-0.066-0.783-0.066
			c-0.26,0-0.512,0-0.752,0c-0.26,0-0.516,0-0.766,0c-0.252,0-0.506,0.021-0.769,0.066c0.699-3.744,1.318-7.461,1.859-11.162
			c0.543-3.7,1.045-7.451,1.502-11.257c0.24,0.045,0.463,0.08,0.668,0.113c0.209,0.033,0.433,0.05,0.67,0.05
			c0.197,0,0.402-0.017,0.619-0.05c0.219-0.033,0.447-0.068,0.688-0.113c0.586,1.306,1.198,2.631,1.844,3.981
			c0.639,1.348,1.281,2.692,1.922,4.03c0.643,1.337,1.285,2.648,1.926,3.932c0.646,1.283,1.256,2.5,1.844,3.649
			c1.306-2.432,2.604-4.981,3.898-7.649c1.297-2.663,2.531-5.313,3.705-7.944c0.547,0.108,1.012,0.164,1.402,0.164
			c0.37,0,0.825-0.056,1.37-0.164c0.22,1.87,0.451,3.882,0.701,6.035c0.252,2.157,0.494,4.259,0.734,6.316
			c0.24,2.055,0.479,3.975,0.717,5.76c0.238,1.785,0.459,3.221,0.654,4.309c-0.438-0.045-0.877-0.066-1.32-0.066
			c-0.449,0-0.889,0-1.322,0c-0.438,0-0.881,0-1.338,0s-0.914,0.021-1.373,0.066c-0.104-2.242-0.285-4.668-0.535-7.277
			c-0.252-2.611-0.508-5.201-0.768-7.767h-0.068c-1.237,2.566-2.452,5.087-3.649,7.57c-1.195,2.48-2.383,4.971-3.56,7.475
			c-0.108-0.022-0.213-0.039-0.309-0.051c-0.1-0.011-0.201-0.016-0.314-0.016c-0.106,0-0.209,0.005-0.309,0.016
			c-0.096,0.012-0.199,0.027-0.307,0.051c-1.174-2.436-2.345-4.875-3.508-7.312c-1.166-2.435-2.367-4.902-3.607-7.407H453.6
			C453.255,61.43,452.991,63.898,452.817,66.332z"/>
	</g>
	<g>
		<g>
			<path fill="#F3F3F3" d="M60.076,46.596v8.088c0,1.243,1.014,2.252,2.26,2.252c1.242,0,2.253-1.01,2.253-2.252v-6.878
				L60.076,46.596z"/>
			<path fill="#F3F3F3" d="M62.336,68.029c-1.246,0-2.26,1.014-2.26,2.259v8.082l4.513-1.218v-6.864
				C64.589,69.042,63.578,68.029,62.336,68.029z"/>
			<path fill="#F3F3F3" d="M66.597,77.152l4.513,1.218v-8.082c0-1.245-1.014-2.259-2.26-2.259c-1.242,0-2.253,1.014-2.253,2.259
				V77.152z"/>
			<path fill="#F3F3F3" d="M50.919,61.482h6.877c1.243,0,2.252-1.015,2.252-2.259c0-1.246-1.009-2.257-2.252-2.257h-8.087
				L50.919,61.482z"/>
			<path fill="#F3F3F3" d="M49.709,68.003h8.087c1.243,0,2.252-1.017,2.252-2.264c0-1.241-1.009-2.253-2.252-2.253h-6.877
				L49.709,68.003z"/>
			<path fill="#F3F3F3" d="M73.393,63.486c-1.243,0-2.256,1.013-2.256,2.254c0,1.248,1.013,2.264,2.256,2.264h8.08l-1.203-4.518
				H73.393z"/>
			<g>
				<path fill="#F3F3F3" d="M68.85,56.937c1.246,0,2.26-1.01,2.26-2.252v-8.088l-4.513,1.21v6.878
					C66.597,55.927,67.608,56.937,68.85,56.937z"/>
				<path fill="#F3F3F3" d="M66.597,47.806l4.513-1.21v8.088c0,1.243-1.014,2.252-2.26,2.252c-1.242,0-2.253-1.01-2.253-2.252
					V47.806z"/>
			</g>
			<path fill="#F3F3F3" d="M73.393,56.966c-1.243,0-2.256,1.011-2.256,2.257c0,1.244,1.013,2.259,2.256,2.259h6.877l1.203-4.516
				H73.393z"/>
		</g>
		<g>
			<path fill="#F3F3F3" d="M84.562,43.122c0.206,0,0.38,0.176,0.38,0.377v37.872c0,0.203-0.174,0.378-0.38,0.378H46.696
				c-0.207,0-0.38-0.175-0.38-0.378V43.499c0-0.201,0.174-0.377,0.38-0.377H84.562 M84.562,42.097H46.696
				c-0.772,0-1.403,0.635-1.403,1.402v37.872c0,0.771,0.631,1.402,1.403,1.402h37.867c0.772,0,1.403-0.633,1.403-1.402V43.499
				C85.965,42.731,85.334,42.097,84.562,42.097L84.562,42.097z"/>
		</g>
	</g>
</g>
</svg>
