<?xml version="1.0" encoding="utf-8"?>
<!-- Generator: Adobe Illustrator 13.0.0, SVG Export Plug-In  -->
<!DOCTYPE svg PUBLIC "-//W3C//DTD SVG 1.1//EN" "http://www.w3.org/Graphics/SVG/1.1/DTD/svg11.dtd" [
	<!ENTITY ns_flows "http://ns.adobe.com/Flows/1.0/">
]>
<svg version="1.1"
	 xmlns="http://www.w3.org/2000/svg" xmlns:xlink="http://www.w3.org/1999/xlink" xmlns:a="http://ns.adobe.com/AdobeSVGViewerExtensions/3.0/"
	 x="0px" y="0px" width="432px" height="43px" viewBox="-3.013 -1.973 432 43" enable-background="new -3.013 -1.973 432 43"
	 xml:space="preserve">
<defs>
</defs>
<path fill="#007396" d="M52.993,23.37c-0.173,2.441-0.349,4.884-0.522,7.324c-0.263-0.043-0.523-0.065-0.785-0.065
	c-0.262,0-0.513,0-0.753,0c-0.26,0-0.518,0-0.768,0c-0.252,0-0.506,0.022-0.767,0.065c0.697-3.748,1.317-7.478,1.864-11.185
	c0.544-3.702,1.045-7.465,1.502-11.278c0.24,0.045,0.463,0.08,0.672,0.114c0.206,0.033,0.428,0.048,0.667,0.048
	c0.198,0,0.404-0.016,0.623-0.048c0.218-0.034,0.447-0.067,0.685-0.114c0.588,1.308,1.206,2.637,1.847,3.989
	c0.646,1.351,1.288,2.698,1.931,4.037c0.643,1.341,1.284,2.653,1.928,3.938c0.644,1.287,1.259,2.508,1.848,3.662
	c1.308-2.438,2.609-4.994,3.908-7.666c1.294-2.67,2.533-5.326,3.709-7.961c0.543,0.11,1.015,0.164,1.405,0.164
	c0.372,0,0.831-0.054,1.375-0.162c0.218,1.873,0.452,3.892,0.703,6.045c0.251,2.158,0.496,4.267,0.737,6.326
	c0.238,2.062,0.478,3.984,0.72,5.771c0.239,1.788,0.456,3.229,0.651,4.315c-0.435-0.043-0.876-0.065-1.322-0.065
	c-0.449,0-0.889,0-1.325,0c-0.434,0-0.881,0-1.34,0s-0.916,0.022-1.374,0.065c-0.11-2.244-0.29-4.677-0.54-7.291
	c-0.251-2.617-0.506-5.209-0.77-7.781h-0.064c-1.242,2.572-2.462,5.101-3.662,7.584c-1.199,2.486-2.387,4.98-3.564,7.486
	c-0.111-0.022-0.212-0.037-0.309-0.047c-0.099-0.015-0.204-0.021-0.313-0.021s-0.21,0.006-0.309,0.021
	c-0.098,0.01-0.204,0.021-0.313,0.047c-1.174-2.438-2.345-4.881-3.511-7.322c-1.167-2.44-2.372-4.918-3.615-7.422h-0.066
	C53.429,18.455,53.169,20.929,52.993,23.37z"/>
<path fill="#007396" d="M98.669,30.694c-0.525-0.043-1.021-0.065-1.491-0.065c-0.466,0-0.93,0-1.389,0c-0.458,0-0.921,0-1.389,0
	c-0.47,0-0.934,0.022-1.388,0.065c-0.352-1.067-0.71-2.158-1.082-3.271c-0.369-1.112-0.762-2.225-1.175-3.334
	c-0.699-0.021-1.396-0.037-2.094-0.049c-0.696-0.014-1.394-0.018-2.091-0.018c-0.569,0-1.134,0.004-1.702,0.018
	c-0.566,0.012-1.132,0.025-1.7,0.049c-0.435,1.109-0.837,2.224-1.209,3.334c-0.37,1.109-0.708,2.201-1.015,3.271
	c-0.261-0.043-0.517-0.065-0.768-0.065c-0.25,0-0.507,0-0.768,0c-0.261,0-0.521,0-0.783,0c-0.263,0-0.546,0.022-0.852,0.065
	c0.261-0.565,0.611-1.351,1.047-2.354c0.436-1,0.916-2.133,1.437-3.396c0.524-1.268,1.085-2.623,1.684-4.072
	c0.601-1.448,1.201-2.912,1.798-4.395c0.602-1.48,1.19-2.941,1.768-4.38c0.577-1.44,1.106-2.78,1.585-4.024
	c0.217,0.045,0.425,0.082,0.621,0.115c0.196,0.031,0.402,0.049,0.622,0.049c0.217,0,0.425-0.018,0.621-0.049
	c0.198-0.033,0.403-0.07,0.619-0.115c0.7,1.854,1.447,3.838,2.24,5.949c0.797,2.119,1.598,4.193,2.403,6.229
	c0.808,2.041,1.592,3.977,2.355,5.805C97.338,27.88,98.036,29.429,98.669,30.694z M87.094,14.379c-0.566,1.31-1.1,2.603-1.604,3.874
	c-0.5,1.275-0.991,2.581-1.469,3.91h5.981c-0.477-1.329-0.952-2.635-1.42-3.91C88.112,16.982,87.617,15.689,87.094,14.379z"/>
<path fill="#007396" d="M106.873,20.398v1.338c0,1.812,0.021,3.416,0.068,4.822c0.041,1.406,0.106,2.787,0.192,4.137
	c-0.367-0.043-0.772-0.064-1.208-0.064s-0.929,0-1.47,0c-0.545,0-1.038,0-1.473,0c-0.436,0-0.836,0.021-1.208,0.064
	c0.086-1.35,0.152-2.729,0.194-4.137c0.045-1.404,0.068-3.01,0.068-4.822v-4.443c0-1.811-0.023-3.417-0.068-4.822
	c-0.042-1.408-0.108-2.818-0.194-4.234c0.372,0.045,0.772,0.08,1.208,0.113c0.436,0.033,0.928,0.049,1.473,0.049
	c0.588,0,1.258-0.027,2.01-0.082c0.752-0.053,1.683-0.08,2.797-0.08c0.825,0,1.534,0.022,2.124,0.062
	c0.587,0.045,1.095,0.111,1.521,0.201c0.423,0.084,0.795,0.199,1.112,0.34c0.316,0.143,0.615,0.312,0.898,0.508
	c0.653,0.479,1.17,1.072,1.553,1.781c0.38,0.707,0.571,1.552,0.571,2.536c0,1.588-0.435,2.887-1.306,3.888
	c-0.874,1.002-2.125,1.71-3.763,2.125c1.048,1.854,2.168,3.701,3.37,5.542c1.199,1.843,2.396,3.668,3.595,5.478
	c-0.5-0.043-0.992-0.065-1.471-0.065s-0.969,0-1.472,0c-0.501,0-0.995,0-1.486,0c-0.49,0-0.987,0.022-1.488,0.065l-5.853-10.297
	h-0.294V20.398L106.873,20.398z M111.747,12.093c-0.198-0.568-0.499-0.998-0.9-1.295c-0.404-0.293-0.929-0.482-1.571-0.57
	c-0.642-0.084-1.411-0.129-2.304-0.129c-0.065,2.961-0.099,5.93-0.099,8.893c0.131,0.021,0.257,0.035,0.376,0.047
	c0.12,0.01,0.232,0.016,0.343,0.016c1.44,0,2.54-0.386,3.303-1.158c0.762-0.771,1.145-1.947,1.145-3.517
	C112.04,13.423,111.939,12.659,111.747,12.093z"/>
<path fill="#007396" d="M125.853,11.829c-0.012-0.521-0.04-0.904-0.085-1.143c-0.324,0-0.729,0.008-1.206,0.03
	c-0.482,0.022-0.992,0.05-1.539,0.081c-0.544,0.035-1.102,0.079-1.668,0.133c-0.564,0.053-1.089,0.113-1.568,0.18
	c0.043-0.242,0.08-0.481,0.114-0.717c0.035-0.242,0.049-0.482,0.049-0.723c0-0.236-0.014-0.477-0.049-0.717
	c-0.034-0.241-0.07-0.482-0.114-0.721c0.741,0.022,1.41,0.045,2.01,0.062c0.6,0.023,1.21,0.04,1.831,0.05
	c0.622,0.011,1.297,0.021,2.029,0.033c0.729,0.01,1.605,0.017,2.63,0.017c1.025,0,1.902-0.006,2.632-0.017
	c0.731-0.013,1.4-0.022,2.011-0.033c0.61-0.01,1.203-0.026,1.78-0.05c0.579-0.018,1.205-0.041,1.882-0.062
	c-0.044,0.237-0.083,0.479-0.116,0.721c-0.031,0.24-0.049,0.479-0.049,0.717c0,0.24,0.018,0.48,0.049,0.723
	c0.034,0.235,0.072,0.475,0.116,0.717c-0.437-0.066-0.928-0.127-1.473-0.18c-0.543-0.054-1.083-0.099-1.618-0.133
	c-0.534-0.031-1.041-0.059-1.52-0.081c-0.48-0.022-0.882-0.03-1.209-0.03c-0.023,0.108-0.039,0.26-0.049,0.459
	c-0.013,0.194-0.018,0.422-0.018,0.684v1.732v8.174c0,1.812,0.021,3.416,0.067,4.822c0.041,1.405,0.107,2.786,0.195,4.137
	c-0.371-0.043-0.774-0.065-1.209-0.065c-0.436,0-0.927,0-1.472,0c-0.542,0-1.034,0-1.47,0s-0.839,0.022-1.21,0.065
	c0.087-1.351,0.153-2.729,0.197-4.137c0.043-1.404,0.066-3.011,0.066-4.822v-8.174C125.87,12.933,125.863,12.353,125.853,11.829z"/>
<path fill="#007396" d="M140.255,12.469c-0.045-1.407-0.11-2.817-0.197-4.235c0.372,0.045,0.773,0.08,1.212,0.115
	c0.433,0.032,0.924,0.047,1.47,0.047c0.545,0,1.035-0.016,1.471-0.047c0.434-0.035,0.838-0.068,1.209-0.115
	c-0.088,1.418-0.153,2.828-0.196,4.235c-0.042,1.404-0.065,3.013-0.065,4.822v4.444c0,1.812,0.023,3.416,0.065,4.822
	c0.043,1.405,0.108,2.786,0.196,4.137c-0.372-0.043-0.775-0.065-1.209-0.065c-0.436,0-0.926,0-1.471,0s-1.037,0-1.47,0
	c-0.439,0-0.84,0.022-1.212,0.065c0.087-1.351,0.152-2.729,0.197-4.137c0.044-1.404,0.065-3.011,0.065-4.822v-4.444
	C140.32,15.482,140.299,13.873,140.255,12.469z"/>
<path fill="#007396" d="M151.305,10.946c-0.044-1.023-0.075-1.928-0.096-2.713c0.608,0.109,1.098,0.162,1.469,0.162
	c0.37,0,0.861-0.053,1.47-0.162c2.376,2.637,4.726,5.231,7.047,7.781c2.321,2.549,4.703,5.145,7.145,7.783v-2.844v-3.172
	c0-1.067-0.007-2.119-0.018-3.157c-0.008-1.033-0.021-1.986-0.031-2.862c-0.011-0.867-0.035-1.617-0.066-2.252
	c-0.034-0.634-0.071-1.059-0.116-1.275c0.609,0.109,1.104,0.162,1.472,0.162c0.372,0,0.86-0.053,1.471-0.162
	c-0.11,1.983-0.197,3.775-0.261,5.379c-0.066,1.605-0.119,3.109-0.164,4.529c-0.045,1.416-0.071,2.817-0.082,4.202
	c-0.011,1.384-0.016,2.859-0.016,4.429v3.922c-0.437-0.043-0.883-0.063-1.339-0.063c-0.482,0-0.907,0.021-1.278,0.063
	c-4.49-5.229-9.252-10.494-14.288-15.791c-0.023,0.631-0.036,1.265-0.048,1.897c-0.013,0.632-0.017,1.274-0.017,1.929v3.793
	c0,1.31,0.004,2.418,0.017,3.332c0.012,0.916,0.025,1.69,0.048,2.321c0.021,0.636,0.044,1.148,0.067,1.556
	c0.02,0.401,0.043,0.724,0.064,0.963c-0.261-0.043-0.523-0.063-0.786-0.063c-0.26,0-0.51,0-0.75,0c-0.501,0-1.002,0.021-1.505,0.063
	c0.043-0.174,0.098-0.797,0.165-1.86c0.065-1.068,0.134-2.371,0.213-3.906c0.073-1.535,0.139-3.205,0.195-5.003
	c0.053-1.8,0.081-3.524,0.081-5.185C151.37,13.235,151.35,11.971,151.305,10.946z"/>
<path fill="#007396" d="M197.894,19.792c-0.827-0.033-1.653-0.049-2.483-0.049c-0.828,0-1.658,0.01-2.484,0.031
	c-0.829,0.021-1.657,0.055-2.482,0.101v1.86c0,1.812,0.02,3.416,0.062,4.822c0.045,1.405,0.109,2.786,0.195,4.137
	c-0.369-0.043-0.773-0.065-1.209-0.065c-0.437,0-0.927,0-1.472,0s-1.036,0-1.472,0c-0.438,0-0.838,0.022-1.208,0.065
	c0.085-1.351,0.151-2.729,0.194-4.137c0.043-1.404,0.064-3.011,0.064-4.822v-4.444c0-1.81-0.021-3.417-0.064-4.822
	c-0.043-1.407-0.109-2.817-0.194-4.235c0.37,0.045,0.771,0.08,1.208,0.114c0.436,0.033,0.927,0.048,1.472,0.048
	s1.035-0.016,1.472-0.048c0.436-0.034,0.84-0.067,1.209-0.114c-0.108,1.418-0.181,2.817-0.211,4.203
	c-0.033,1.383-0.049,2.979-0.049,4.789c0.567,0.022,1.247,0.038,2.043,0.047c0.793,0.01,1.779,0.02,2.957,0.02
	c1.178,0,2.139-0.01,2.879-0.02c0.739-0.009,1.428-0.023,2.06-0.047c0-1.81-0.022-3.406-0.063-4.789
	c-0.046-1.386-0.111-2.785-0.199-4.203c0.371,0.045,0.774,0.08,1.211,0.114c0.436,0.033,0.926,0.048,1.473,0.048
	c0.545,0,1.031-0.016,1.47-0.048c0.437-0.034,0.839-0.067,1.212-0.114c-0.089,1.418-0.152,2.828-0.197,4.235
	c-0.043,1.404-0.066,3.013-0.066,4.822v4.444c0,1.812,0.023,3.416,0.066,4.822c0.045,1.405,0.108,2.786,0.197,4.137
	c-0.373-0.043-0.775-0.065-1.212-0.065c-0.438,0-0.925,0-1.47,0c-0.547,0-1.037,0-1.473,0c-0.437,0-0.84,0.022-1.211,0.065
	c0.088-1.351,0.153-2.729,0.199-4.137c0.041-1.404,0.063-3.011,0.063-4.822v-1.86C199.55,19.853,198.723,19.825,197.894,19.792z"/>
<path fill="#007396" d="M210.654,12.469c-0.039-1.407-0.097-2.817-0.172-4.235c0.98,0.023,1.95,0.053,2.909,0.099
	c0.96,0.043,1.929,0.063,2.909,0.063c1.613,0,3.047-0.016,4.299-0.047c1.254-0.035,2.101-0.068,2.535-0.115
	C223.045,8.584,223,9.041,223,9.607c0,0.35,0.01,0.621,0.035,0.818c0.021,0.193,0.055,0.416,0.098,0.655
	c-0.633-0.046-1.323-0.089-2.076-0.132c-0.752-0.041-1.481-0.088-2.188-0.131c-0.713-0.043-1.349-0.078-1.914-0.1
	c-0.566-0.021-0.974-0.031-1.211-0.031c-0.088,1.201-0.137,2.387-0.146,3.565c-0.012,1.175-0.02,2.362-0.02,3.56
	c1.418-0.021,2.697-0.052,3.844-0.097c1.144-0.042,2.338-0.097,3.578-0.163c-0.063,0.371-0.104,0.654-0.129,0.85
	c-0.023,0.197-0.033,0.401-0.033,0.623c0,0.172,0.019,0.355,0.049,0.539c0.031,0.187,0.07,0.451,0.113,0.801
	c-2.48-0.194-4.957-0.297-7.422-0.297c0,0.699-0.002,1.397-0.014,2.097c-0.012,0.694-0.018,1.395-0.018,2.09
	c0,1.418,0.03,2.778,0.097,4.088c1.243,0,2.485-0.029,3.729-0.101c1.241-0.062,2.493-0.172,3.76-0.321
	c-0.045,0.235-0.076,0.453-0.099,0.649C223.01,28.763,223,29.041,223,29.386c0,0.347,0.01,0.621,0.034,0.816
	c0.021,0.195,0.054,0.361,0.099,0.488c-0.59-0.021-1.312-0.037-2.176-0.047c-0.859-0.014-2.043-0.02-3.548-0.02
	c-1.327,0-2.407,0-3.237,0c-0.806,0-1.454,0-1.943,0c-0.49,0-0.859,0.006-1.111,0.02c-0.25,0.01-0.465,0.021-0.637,0.047
	c0.075-1.35,0.133-2.729,0.172-4.139c0.037-1.402,0.057-3.008,0.057-4.82v-4.443C210.709,15.482,210.692,13.873,210.654,12.469z"/>
<path fill="#007396" d="M245.826,30.694c-0.522-0.043-1.021-0.065-1.487-0.065c-0.47,0-0.933,0-1.392,0c-0.457,0-0.92,0-1.392,0
	c-0.471,0-0.932,0.022-1.391,0.065c-0.348-1.067-0.707-2.158-1.078-3.271s-0.762-2.225-1.178-3.334
	c-0.697-0.021-1.395-0.037-2.092-0.049c-0.697-0.014-1.396-0.018-2.096-0.018c-0.564,0-1.133,0.004-1.699,0.018
	c-0.564,0.012-1.133,0.025-1.695,0.049c-0.438,1.109-0.843,2.224-1.211,3.334c-0.371,1.109-0.709,2.201-1.014,3.271
	c-0.264-0.043-0.521-0.065-0.771-0.065s-0.506,0-0.769,0c-0.265,0-0.522,0-0.784,0s-0.544,0.022-0.852,0.065
	c0.261-0.565,0.608-1.351,1.047-2.354c0.438-1,0.912-2.133,1.438-3.396c0.521-1.268,1.082-2.623,1.685-4.072
	c0.602-1.448,1.197-2.912,1.797-4.395c0.602-1.48,1.188-2.941,1.768-4.38c0.578-1.44,1.105-2.78,1.586-4.024
	c0.217,0.045,0.426,0.082,0.623,0.115c0.193,0.031,0.402,0.049,0.619,0.049c0.219,0,0.424-0.018,0.621-0.049
	c0.195-0.033,0.402-0.07,0.621-0.115c0.695,1.854,1.443,3.838,2.24,5.949c0.795,2.119,1.594,4.193,2.402,6.229
	c0.807,2.041,1.588,3.977,2.354,5.805C244.494,27.88,245.194,29.429,245.826,30.694z M234.25,14.379
	c-0.564,1.31-1.104,2.603-1.604,3.874c-0.502,1.275-0.991,2.581-1.473,3.91h5.982c-0.479-1.329-0.955-2.635-1.422-3.91
	C235.269,16.982,234.773,15.689,234.25,14.379z"/>
<path fill="#007396" d="M249.125,12.469c-0.043-1.407-0.107-2.817-0.195-4.235c0.371,0.045,0.774,0.08,1.211,0.115
	c0.438,0.032,0.926,0.047,1.473,0.047c0.543,0,1.031-0.016,1.469-0.047c0.438-0.035,0.844-0.068,1.211-0.115
	c-0.088,1.418-0.15,2.828-0.193,4.235c-0.043,1.404-0.065,3.013-0.065,4.822v4.444c0,1.242,0.007,2.44,0.021,3.599
	c0.01,1.153,0.024,2.159,0.049,3.006c1.242,0,2.48-0.029,3.729-0.099c1.242-0.063,2.494-0.172,3.76-0.323
	c-0.047,0.237-0.076,0.454-0.1,0.651c-0.021,0.194-0.033,0.472-0.033,0.817s0.012,0.621,0.033,0.814
	c0.021,0.195,0.053,0.361,0.1,0.488c-0.59-0.021-1.312-0.037-2.176-0.047c-0.859-0.014-2.043-0.02-3.547-0.02
	c-1.33,0-2.406,0-3.236,0c-0.807,0-1.453,0-1.943,0c-0.489,0-0.859,0.006-1.109,0.02c-0.25,0.01-0.466,0.023-0.641,0.047
	c0.086-1.35,0.152-2.729,0.195-4.137c0.043-1.404,0.064-3.01,0.064-4.822v-4.442C249.191,15.482,249.168,13.873,249.125,12.469z"/>
<path fill="#007396" d="M269.381,11.829c-0.013-0.521-0.039-0.904-0.082-1.143c-0.328,0-0.729,0.008-1.207,0.03
	c-0.48,0.022-0.994,0.05-1.537,0.081c-0.547,0.035-1.104,0.079-1.67,0.133c-0.564,0.053-1.092,0.113-1.564,0.18
	c0.039-0.242,0.078-0.481,0.111-0.717c0.029-0.242,0.049-0.482,0.049-0.723c0-0.236-0.02-0.477-0.049-0.717
	c-0.033-0.241-0.07-0.482-0.111-0.721c0.738,0.022,1.408,0.045,2.01,0.062c0.6,0.023,1.207,0.04,1.83,0.05
	c0.619,0.011,1.295,0.021,2.025,0.033c0.73,0.01,1.605,0.017,2.631,0.017c1.023,0,1.902-0.006,2.633-0.017
	c0.729-0.013,1.398-0.022,2.012-0.033c0.609-0.01,1.203-0.026,1.781-0.05c0.578-0.018,1.205-0.041,1.881-0.062
	c-0.045,0.237-0.084,0.479-0.115,0.721c-0.032,0.24-0.049,0.479-0.049,0.717c0,0.24,0.017,0.48,0.049,0.723
	c0.031,0.235,0.07,0.475,0.115,0.717c-0.438-0.066-0.928-0.127-1.473-0.18c-0.545-0.054-1.084-0.099-1.619-0.133
	c-0.531-0.031-1.039-0.059-1.52-0.081c-0.479-0.022-0.885-0.03-1.211-0.03c-0.021,0.108-0.037,0.26-0.051,0.459
	c-0.011,0.194-0.015,0.422-0.015,0.684v1.732v8.174c0,1.812,0.021,3.416,0.062,4.822c0.043,1.405,0.109,2.786,0.197,4.137
	c-0.371-0.043-0.775-0.065-1.211-0.065c-0.438,0-0.926,0-1.473,0c-0.543,0-1.033,0-1.473,0c-0.435,0-0.838,0.022-1.207,0.065
	c0.086-1.351,0.151-2.729,0.192-4.137c0.045-1.404,0.068-3.011,0.068-4.822v-8.174C269.399,12.933,269.391,12.353,269.381,11.829z"
	/>
<path fill="#007396" d="M296.01,19.792c-0.83-0.033-1.652-0.049-2.484-0.049c-0.826,0-1.654,0.01-2.484,0.031
	c-0.826,0.021-1.656,0.055-2.484,0.101v1.86c0,1.812,0.021,3.416,0.068,4.822c0.041,1.405,0.105,2.786,0.193,4.137
	c-0.369-0.043-0.771-0.065-1.209-0.065s-0.93,0-1.473,0c-0.545,0-1.035,0-1.472,0c-0.436,0-0.838,0.022-1.211,0.065
	c0.091-1.351,0.152-2.729,0.197-4.137c0.043-1.404,0.062-3.011,0.062-4.822v-4.444c0-1.81-0.021-3.417-0.062-4.822
	c-0.045-1.407-0.106-2.817-0.197-4.235c0.373,0.045,0.775,0.08,1.211,0.114c0.437,0.033,0.927,0.048,1.472,0.048
	c0.543,0,1.035-0.016,1.473-0.048c0.438-0.034,0.84-0.067,1.209-0.114c-0.111,1.418-0.18,2.817-0.211,4.203
	c-0.035,1.383-0.053,2.979-0.053,4.789c0.565,0.022,1.248,0.038,2.047,0.047c0.793,0.01,1.777,0.02,2.955,0.02
	c1.18,0,2.137-0.01,2.881-0.02c0.738-0.009,1.426-0.023,2.061-0.047c0-1.81-0.023-3.406-0.068-4.789
	c-0.043-1.386-0.106-2.785-0.19-4.203c0.369,0.045,0.771,0.08,1.209,0.114c0.437,0.033,0.927,0.048,1.472,0.048
	c0.543,0,1.032-0.016,1.473-0.048c0.438-0.034,0.84-0.067,1.213-0.114c-0.094,1.418-0.154,2.828-0.199,4.235
	c-0.045,1.404-0.066,3.013-0.066,4.822v4.444c0,1.812,0.021,3.416,0.066,4.822c0.045,1.405,0.105,2.786,0.199,4.137
	c-0.373-0.043-0.775-0.065-1.213-0.065c-0.438,0-0.93,0-1.473,0c-0.545,0-1.035,0-1.472,0c-0.438,0-0.84,0.022-1.209,0.065
	c0.084-1.351,0.147-2.729,0.19-4.137c0.045-1.404,0.068-3.011,0.068-4.822v-1.86C297.667,19.853,296.84,19.825,296.01,19.792z"/>
<path fill="#007396" d="M323.932,9.836c-1.002,0-1.818,0.293-2.451,0.882c-0.633,0.59-0.947,1.277-0.947,2.061
	c0,0.805,0.246,1.465,0.736,1.979c0.488,0.513,1.104,0.976,1.848,1.39c0.74,0.414,1.535,0.813,2.383,1.19
	c0.854,0.382,1.646,0.853,2.392,1.405c0.739,0.559,1.354,1.234,1.848,2.029s0.738,1.813,0.738,3.058
	c0,1.088-0.211,2.086-0.623,2.987c-0.414,0.905-1.004,1.681-1.769,2.319c-0.764,0.646-1.676,1.14-2.729,1.476
	c-1.062,0.338-2.24,0.506-3.551,0.506c-1.177,0-2.229-0.123-3.152-0.375c-0.932-0.248-1.631-0.561-2.109-0.93
	c0.218-0.767,0.402-1.461,0.556-2.095c0.149-0.633,0.285-1.315,0.395-2.061h0.623c0.084,0.479,0.248,0.936,0.486,1.355
	c0.24,0.426,0.547,0.801,0.916,1.129c0.371,0.324,0.815,0.582,1.342,0.768c0.521,0.189,1.109,0.277,1.768,0.277
	c1.31,0,2.271-0.326,2.896-0.98c0.617-0.649,0.932-1.438,0.932-2.354c0-0.826-0.242-1.502-0.721-2.025
	c-0.48-0.523-1.078-0.986-1.797-1.391c-0.724-0.402-1.508-0.793-2.355-1.178c-0.85-0.379-1.635-0.846-2.354-1.388
	c-0.719-0.549-1.316-1.217-1.799-2.016c-0.479-0.795-0.72-1.812-0.72-3.057c0-1.133,0.201-2.135,0.605-3.008
	c0.399-0.871,0.938-1.602,1.617-2.191c0.678-0.586,1.453-1.035,2.338-1.338c0.883-0.305,1.812-0.459,2.795-0.459
	c1.18,0,2.205,0.141,3.088,0.426c0.885,0.285,1.641,0.674,2.273,1.176c-0.195,0.502-0.363,0.988-0.509,1.455
	c-0.143,0.473-0.317,1.064-0.539,1.783h-0.487C327.19,10.773,325.871,9.836,323.932,9.836z"/>
<path fill="#007396" d="M344.529,15.902c0.438-0.797,0.857-1.631,1.271-2.502c0.416-0.873,0.82-1.748,1.21-2.633
	c0.396-0.882,0.772-1.727,1.146-2.533c0.24,0.045,0.486,0.08,0.736,0.115c0.25,0.032,0.508,0.047,0.768,0.047
	c0.262,0,0.519-0.016,0.769-0.047c0.254-0.035,0.52-0.068,0.803-0.115c-0.369,0.61-0.832,1.416-1.392,2.403
	c-0.555,0.991-1.146,2.068-1.778,3.218c-0.635,1.156-1.271,2.342-1.912,3.551c-0.646,1.211-1.228,2.326-1.75,3.35
	c0,0.523-0.012,1.054-0.031,1.588c-0.021,0.533-0.031,1.07-0.031,1.617c0,1.113,0.017,2.215,0.048,3.303
	c0.032,1.091,0.125,2.23,0.278,3.433c-0.457-0.043-0.924-0.063-1.391-0.063c-0.471,0-0.935,0-1.39,0c-0.459,0-0.924,0-1.393,0
	c-0.473,0-0.932,0.021-1.389,0.063c0.043-1.002,0.117-2.024,0.227-3.071c0.111-1.048,0.166-2.095,0.166-3.142
	c0-0.5-0.006-1.006-0.018-1.517c-0.015-0.516-0.029-1.02-0.049-1.522c-0.548-1.092-1.177-2.306-1.884-3.646
	c-0.707-1.339-1.393-2.646-2.062-3.907c-0.662-1.262-1.271-2.408-1.826-3.432c-0.557-1.023-0.965-1.766-1.229-2.223
	c0.504,0.045,0.991,0.08,1.473,0.113c0.479,0.033,0.971,0.049,1.471,0.049c0.502,0,0.984-0.017,1.455-0.049
	c0.469-0.033,0.955-0.068,1.453-0.113c0.373,0.806,0.791,1.701,1.262,2.681c0.469,0.981,0.931,1.938,1.387,2.875
	c0.46,0.938,0.886,1.786,1.277,2.553c0.392,0.765,0.707,1.33,0.949,1.7h0.062C343.656,17.409,344.092,16.696,344.529,15.902z"/>
<path fill="#007396" d="M360.253,9.836c-1.002,0-1.817,0.293-2.45,0.882c-0.632,0.59-0.947,1.277-0.947,2.061
	c0,0.805,0.246,1.465,0.734,1.979c0.491,0.513,1.106,0.976,1.85,1.39c0.738,0.414,1.531,0.813,2.387,1.19
	c0.849,0.382,1.644,0.853,2.387,1.405c0.742,0.559,1.355,1.234,1.851,2.029c0.486,0.795,0.731,1.813,0.731,3.058
	c0,1.088-0.207,2.086-0.623,2.987c-0.411,0.905-1,1.681-1.762,2.319c-0.766,0.646-1.676,1.14-2.729,1.476
	c-1.062,0.338-2.238,0.506-3.55,0.506c-1.176,0-2.229-0.123-3.149-0.375c-0.932-0.248-1.635-0.561-2.109-0.93
	c0.215-0.767,0.396-1.461,0.554-2.095c0.149-0.633,0.282-1.315,0.396-2.061h0.621c0.086,0.479,0.248,0.936,0.486,1.355
	c0.239,0.426,0.545,0.801,0.916,1.129c0.37,0.324,0.819,0.582,1.34,0.768c0.524,0.189,1.112,0.277,1.77,0.277
	c1.308,0,2.271-0.326,2.894-0.98c0.619-0.649,0.934-1.438,0.934-2.354c0-0.826-0.24-1.502-0.721-2.025
	c-0.479-0.523-1.08-0.986-1.799-1.391c-0.72-0.402-1.505-0.793-2.354-1.178c-0.854-0.379-1.635-0.846-2.354-1.388
	c-0.72-0.549-1.316-1.217-1.796-2.016c-0.481-0.795-0.721-1.812-0.721-3.057c0-1.133,0.199-2.135,0.604-3.008
	c0.401-0.871,0.94-1.602,1.618-2.191c0.675-0.586,1.453-1.035,2.339-1.338c0.885-0.305,1.813-0.459,2.795-0.459
	c1.178,0,2.207,0.141,3.092,0.426c0.883,0.285,1.641,0.674,2.27,1.176c-0.192,0.502-0.364,0.988-0.506,1.455
	c-0.141,0.473-0.322,1.064-0.539,1.783h-0.489C363.516,10.773,362.197,9.836,360.253,9.836z"/>
<path fill="#007396" d="M374.755,11.829c-0.014-0.521-0.04-0.904-0.084-1.143c-0.325,0-0.729,0.008-1.211,0.03
	c-0.477,0.022-0.991,0.05-1.532,0.081c-0.545,0.035-1.103,0.079-1.67,0.133c-0.564,0.053-1.089,0.113-1.566,0.18
	c0.043-0.242,0.082-0.481,0.113-0.717c0.03-0.242,0.051-0.482,0.051-0.723c0-0.236-0.021-0.477-0.051-0.717
	c-0.031-0.241-0.07-0.482-0.113-0.721c0.738,0.022,1.41,0.045,2.012,0.062c0.599,0.023,1.207,0.04,1.828,0.05
	c0.623,0.011,1.299,0.021,2.025,0.033c0.729,0.01,1.608,0.017,2.637,0.017c1.021,0,1.898-0.006,2.633-0.017
	c0.729-0.013,1.396-0.022,2.01-0.033c0.609-0.01,1.203-0.026,1.779-0.05c0.578-0.018,1.205-0.041,1.883-0.062
	c-0.045,0.237-0.084,0.479-0.115,0.721c-0.03,0.24-0.051,0.479-0.051,0.717c0,0.24,0.021,0.48,0.051,0.723
	c0.031,0.235,0.07,0.475,0.115,0.717c-0.438-0.066-0.926-0.127-1.473-0.18c-0.545-0.054-1.084-0.099-1.619-0.133
	c-0.533-0.031-1.039-0.059-1.521-0.081c-0.479-0.022-0.884-0.03-1.212-0.03c-0.02,0.108-0.038,0.26-0.049,0.459
	c-0.01,0.194-0.016,0.422-0.016,0.684v1.732v8.174c0,1.812,0.021,3.416,0.062,4.822c0.046,1.405,0.109,2.786,0.195,4.137
	c-0.369-0.043-0.772-0.065-1.207-0.065c-0.438,0-0.926,0-1.471,0c-0.547,0-1.035,0-1.476,0c-0.436,0-0.838,0.022-1.209,0.065
	c0.089-1.351,0.15-2.729,0.197-4.137c0.043-1.404,0.062-3.011,0.062-4.822v-8.174C374.772,12.933,374.768,12.353,374.755,11.829z"/>
<path fill="#007396" d="M388.705,12.469c-0.037-1.407-0.094-2.817-0.17-4.235c0.982,0.023,1.949,0.053,2.912,0.099
	c0.955,0.043,1.926,0.063,2.906,0.063c1.612,0,3.047-0.016,4.301-0.047c1.254-0.035,2.098-0.068,2.533-0.115
	c-0.092,0.35-0.133,0.807-0.133,1.373c0,0.35,0.012,0.621,0.032,0.818c0.021,0.193,0.06,0.416,0.101,0.655
	c-0.631-0.046-1.326-0.089-2.078-0.132c-0.75-0.041-1.479-0.088-2.189-0.131c-0.707-0.043-1.346-0.078-1.914-0.1
	c-0.562-0.021-0.967-0.031-1.209-0.031c-0.086,1.201-0.133,2.387-0.145,3.565c-0.014,1.175-0.019,2.362-0.019,3.56
	c1.418-0.021,2.695-0.052,3.843-0.097c1.143-0.042,2.338-0.097,3.578-0.163c-0.062,0.371-0.107,0.654-0.132,0.85
	c-0.02,0.197-0.026,0.401-0.026,0.623c0,0.172,0.016,0.355,0.047,0.539c0.033,0.187,0.07,0.451,0.111,0.801
	c-2.482-0.194-4.957-0.297-7.421-0.297c0,0.699-0.008,1.397-0.02,2.097c-0.008,0.694-0.012,1.395-0.012,2.09
	c0,1.418,0.028,2.778,0.096,4.088c1.242,0,2.486-0.029,3.729-0.101c1.244-0.062,2.494-0.172,3.763-0.321
	c-0.041,0.235-0.078,0.453-0.101,0.649c-0.021,0.194-0.032,0.472-0.032,0.817c0,0.347,0.012,0.621,0.032,0.816
	c0.021,0.195,0.06,0.361,0.101,0.488c-0.594-0.021-1.314-0.037-2.174-0.047c-0.863-0.014-2.048-0.02-3.552-0.02
	c-1.33,0-2.407,0-3.235,0c-0.808,0-1.453,0-1.945,0c-0.49,0-0.859,0.006-1.109,0.02c-0.252,0.01-0.465,0.021-0.639,0.047
	c0.076-1.35,0.133-2.729,0.172-4.139c0.039-1.402,0.062-3.008,0.062-4.82v-4.443C388.766,15.482,388.744,13.873,388.705,12.469z"/>
<path fill="#007396" d="M407.27,23.37c-0.176,2.441-0.354,4.884-0.523,7.324c-0.264-0.043-0.52-0.065-0.783-0.065
	c-0.263,0-0.514,0-0.752,0c-0.262,0-0.518,0-0.77,0c-0.25,0-0.508,0.022-0.771,0.065c0.699-3.748,1.316-7.478,1.863-11.185
	c0.545-3.702,1.045-7.465,1.502-11.278c0.242,0.045,0.465,0.08,0.672,0.114c0.207,0.033,0.437,0.048,0.672,0.048
	c0.197,0,0.4-0.016,0.619-0.048c0.22-0.034,0.449-0.067,0.689-0.114c0.586,1.308,1.199,2.637,1.846,3.989
	c0.646,1.351,1.285,2.698,1.928,4.037c0.644,1.341,1.289,2.653,1.933,3.938c0.643,1.287,1.258,2.508,1.846,3.662
	c1.31-2.438,2.613-4.994,3.91-7.666c1.293-2.67,2.529-5.326,3.711-7.961c0.543,0.108,1.01,0.162,1.404,0.162
	c0.367,0,0.824-0.054,1.371-0.162c0.219,1.873,0.453,3.892,0.705,6.045c0.25,2.158,0.493,4.267,0.731,6.326
	c0.24,2.062,0.479,3.984,0.719,5.771c0.24,1.788,0.457,3.229,0.654,4.315c-0.438-0.043-0.875-0.065-1.32-0.065
	c-0.448,0-0.893,0-1.328,0c-0.434,0-0.881,0-1.34,0c-0.455,0-0.914,0.022-1.371,0.065c-0.104-2.244-0.291-4.677-0.541-7.291
	c-0.254-2.617-0.506-5.209-0.768-7.781h-0.066c-1.241,2.572-2.463,5.101-3.661,7.584c-1.197,2.486-2.388,4.979-3.562,7.486
	c-0.109-0.022-0.211-0.037-0.311-0.048c-0.099-0.014-0.201-0.02-0.312-0.02c-0.106,0-0.211,0.006-0.312,0.02
	c-0.099,0.011-0.201,0.022-0.31,0.048c-1.178-2.438-2.35-4.882-3.516-7.322s-2.373-4.918-3.615-7.422h-0.063
	C407.705,18.455,407.444,20.929,407.27,23.37z"/>
<path fill="#007396" d="M38.907,37.566c0,0.736-0.603,1.342-1.342,1.342H1.342C0.604,38.908,0,38.304,0,37.566V1.34
	C0,0.605,0.604,0,1.342,0h36.223c0.739,0,1.342,0.604,1.342,1.34V37.566z"/>
<path fill="#FFFFFF" d="M13.897,3.448v8.146c0,1.252,1.021,2.271,2.277,2.271c1.251,0,2.269-1.021,2.269-2.271V4.666L13.897,3.448z"
	/>
<path fill="#FFFFFF" d="M16.174,25.041c-1.256,0-2.277,1.021-2.277,2.274v8.142l4.546-1.226v-6.916
	C18.443,26.062,17.425,25.041,16.174,25.041z"/>
<path fill="#FFFFFF" d="M20.467,34.232l4.545,1.227v-8.143c0-1.254-1.021-2.273-2.276-2.273c-1.251,0-2.269,1.021-2.269,2.273
	V34.232z"/>
<path fill="#FFFFFF" d="M4.672,18.443h6.929c1.251,0,2.269-1.021,2.269-2.272c0-1.255-1.018-2.274-2.269-2.274H3.454L4.672,18.443z"
	/>
<path fill="#FFFFFF" d="M3.453,25.013H11.6c1.251,0,2.269-1.021,2.269-2.277c0-1.252-1.018-2.271-2.269-2.271H4.671L3.453,25.013z"
	/>
<path fill="#FFFFFF" d="M27.313,20.462c-1.253,0-2.272,1.02-2.272,2.271c0,1.258,1.02,2.279,2.272,2.279h8.14l-1.211-4.551H27.313
	L27.313,20.462z"/>
<path fill="#FFFFFF" d="M22.736,13.866c1.255,0,2.276-1.02,2.276-2.271V3.448l-4.545,1.219v6.929
	C20.467,12.847,21.485,13.866,22.736,13.866z"/>
<path fill="#FFFFFF" d="M20.467,4.667l4.545-1.219v8.146c0,1.252-1.021,2.271-2.276,2.271c-1.251,0-2.269-1.021-2.269-2.271V4.667z"
	/>
<path fill="#FFFFFF" d="M27.313,13.896c-1.253,0-2.272,1.019-2.272,2.273c0,1.252,1.02,2.273,2.272,2.273h6.929l1.211-4.547
	L27.313,13.896L27.313,13.896z"/>
</svg>
