<?xml version="1.0" encoding="utf-8"?>
<!-- Generator: Adobe Illustrator 13.0.0, SVG Export Plug-In . SVG Version: 6.00 Build 14948)  -->
<!DOCTYPE svg PUBLIC "-//W3C//DTD SVG 1.1//EN" "http://www.w3.org/Graphics/SVG/1.1/DTD/svg11.dtd">
<svg version="1.1" id="Layer_1" xmlns="http://www.w3.org/2000/svg" xmlns:xlink="http://www.w3.org/1999/xlink" x="0px" y="0px"
	 width="227px" height="91.25px" viewBox="143.122 18.435 227 91.25" enable-background="new 143.122 18.435 227 91.25"
	 xml:space="preserve">
<g>
	<path fill="#007396" d="M254.519,35.109c-0.173,2.366-0.342,4.722-0.51,7.082c-0.247-0.042-0.503-0.057-0.757-0.057
		c-0.252,0-0.498,0-0.729,0c-0.25,0-0.504,0-0.743,0c-0.238,0-0.491,0.015-0.742,0.057c0.673-3.621,1.273-7.233,1.805-10.82
		c0.527-3.585,1.011-7.227,1.449-10.911c0.237,0.036,0.454,0.078,0.652,0.108c0.199,0.03,0.414,0.042,0.646,0.042
		c0.189,0,0.394-0.012,0.6-0.042c0.217-0.03,0.434-0.072,0.669-0.108c0.573,1.261,1.166,2.549,1.79,3.861
		c0.616,1.304,1.24,2.604,1.865,3.904c0.617,1.294,1.243,2.564,1.867,3.813c0.622,1.24,1.213,2.423,1.787,3.546
		c1.267-2.363,2.524-4.84,3.78-7.422c1.252-2.588,2.451-5.153,3.592-7.702c0.525,0.102,0.98,0.15,1.359,0.15
		c0.356,0,0.799-0.048,1.332-0.15c0.203,1.809,0.436,3.765,0.68,5.857c0.238,2.083,0.474,4.129,0.71,6.122
		c0.231,1.983,0.466,3.847,0.694,5.583c0.236,1.733,0.442,3.124,0.637,4.168c-0.424-0.042-0.854-0.057-1.285-0.057s-0.859,0-1.275,0
		c-0.43,0-0.856,0-1.303,0c-0.441,0-0.884,0.015-1.326,0.057c-0.107-2.173-0.279-4.521-0.525-7.052
		c-0.241-2.534-0.492-5.038-0.745-7.527h-0.062c-1.198,2.489-2.386,4.927-3.546,7.338c-1.154,2.414-2.306,4.825-3.445,7.242
		c-0.102-0.009-0.207-0.03-0.301-0.042c-0.095-0.009-0.195-0.015-0.299-0.015c-0.107,0-0.209,0.006-0.3,0.015
		c-0.095,0.012-0.197,0.033-0.302,0.042c-1.139-2.36-2.276-4.716-3.403-7.082c-1.127-2.363-2.293-4.759-3.496-7.188h-0.064
		C254.936,30.35,254.685,32.746,254.519,35.109z"/>
	<path fill="#007396" d="M298.72,42.191c-0.501-0.042-0.982-0.057-1.438-0.057c-0.45,0-0.898,0-1.343,0c-0.442,0-0.892,0-1.347,0
		c-0.45,0-0.901,0.015-1.345,0.057c-0.338-1.026-0.691-2.089-1.043-3.164c-0.364-1.071-0.741-2.146-1.141-3.229
		c-0.674-0.015-1.353-0.027-2.024-0.039c-0.673-0.018-1.347-0.018-2.026-0.018c-0.546,0-1.097,0-1.642,0.018
		c-0.552,0.012-1.099,0.024-1.646,0.039c-0.427,1.084-0.812,2.158-1.179,3.229c-0.353,1.075-0.682,2.137-0.973,3.164
		c-0.257-0.042-0.507-0.057-0.746-0.057c-0.242,0-0.486,0-0.742,0c-0.253,0-0.507,0-0.763,0c-0.252,0-0.527,0.015-0.817,0.057
		c0.25-0.551,0.585-1.309,1.007-2.27c0.424-0.966,0.887-2.071,1.396-3.292c0.503-1.225,1.05-2.531,1.631-3.943
		c0.58-1.403,1.16-2.82,1.737-4.256c0.58-1.43,1.147-2.847,1.707-4.238c0.563-1.39,1.072-2.691,1.537-3.895
		c0.211,0.042,0.412,0.081,0.603,0.108c0.188,0.036,0.39,0.054,0.603,0.054c0.207,0,0.406-0.018,0.6-0.054
		c0.193-0.027,0.389-0.066,0.601-0.108c0.675,1.791,1.398,3.72,2.169,5.764c0.764,2.041,1.545,4.054,2.321,6.02
		c0.787,1.986,1.544,3.858,2.28,5.619C297.435,39.473,298.112,40.975,298.72,42.191z M287.521,26.404
		c-0.547,1.264-1.067,2.51-1.553,3.75c-0.482,1.234-0.955,2.492-1.426,3.781h5.788c-0.459-1.289-0.919-2.546-1.368-3.781
		C288.508,28.915,288.026,27.668,287.521,26.404z"/>
	<path fill="#007396" d="M306.666,32.226v1.297c0,1.758,0.024,3.311,0.062,4.671c0.045,1.357,0.104,2.688,0.188,3.997
		c-0.357-0.042-0.745-0.057-1.17-0.057c-0.418,0-0.895,0-1.424,0c-0.527,0-1,0-1.424,0c-0.416,0-0.813,0.015-1.174,0.057
		c0.088-1.309,0.151-2.64,0.19-3.997c0.05-1.36,0.067-2.914,0.067-4.671v-4.298c0-1.752-0.019-3.314-0.067-4.668
		c-0.039-1.36-0.104-2.724-0.19-4.096c0.359,0.036,0.758,0.078,1.174,0.108c0.424,0.03,0.896,0.042,1.424,0.042
		c0.574,0,1.22-0.018,1.949-0.072c0.726-0.057,1.629-0.078,2.705-0.078c0.805,0,1.485,0.015,2.054,0.063
		c0.572,0.039,1.062,0.105,1.474,0.193c0.412,0.078,0.771,0.189,1.074,0.328c0.306,0.141,0.601,0.301,0.873,0.493
		c0.632,0.464,1.132,1.036,1.499,1.722c0.373,0.688,0.56,1.499,0.56,2.456c0,1.532-0.429,2.787-1.268,3.756
		c-0.848,0.975-2.06,1.662-3.64,2.065c1.013,1.788,2.099,3.582,3.258,5.357c1.156,1.782,2.322,3.555,3.477,5.297
		c-0.483-0.042-0.956-0.057-1.419-0.057s-0.938,0-1.42,0c-0.492,0-0.971,0-1.446,0c-0.474,0-0.954,0.015-1.437,0.057l-5.666-9.965
		H306.666z M311.378,24.192c-0.188-0.544-0.479-0.966-0.871-1.258c-0.389-0.274-0.893-0.464-1.519-0.545
		c-0.623-0.087-1.366-0.135-2.229-0.135c-0.063,2.877-0.096,5.746-0.096,8.614c0.124,0.024,0.243,0.042,0.362,0.057
		c0.111,0.006,0.224,0.006,0.327,0.006c1.396,0,2.466-0.37,3.196-1.125c0.737-0.744,1.113-1.884,1.113-3.401
		C311.666,25.483,311.567,24.743,311.378,24.192z"/>
	<path fill="#007396" d="M325.027,23.939c-0.006-0.512-0.03-0.876-0.072-1.105c-0.313,0-0.704,0.003-1.174,0.027
		c-0.464,0.021-0.957,0.045-1.487,0.072c-0.522,0.039-1.065,0.081-1.61,0.135c-0.551,0.054-1.05,0.111-1.521,0.175
		c0.044-0.235,0.078-0.464,0.111-0.698c0.032-0.232,0.046-0.464,0.046-0.702c0-0.226-0.014-0.46-0.046-0.689
		c-0.033-0.232-0.067-0.458-0.111-0.695c0.721,0.015,1.368,0.036,1.946,0.063c0.581,0.015,1.174,0.039,1.771,0.045
		c0.601,0.012,1.256,0.024,1.96,0.03c0.71,0.006,1.564,0.012,2.552,0.012c0.99,0,1.837-0.006,2.548-0.012
		c0.704-0.006,1.354-0.018,1.943-0.03c0.593-0.006,1.165-0.03,1.723-0.045c0.56-0.027,1.168-0.048,1.816-0.063
		c-0.042,0.238-0.078,0.463-0.104,0.695c-0.033,0.229-0.053,0.463-0.053,0.689c0,0.238,0.02,0.47,0.053,0.702
		c0.025,0.234,0.062,0.463,0.104,0.698c-0.415-0.063-0.894-0.121-1.42-0.175c-0.53-0.054-1.048-0.096-1.568-0.135
		c-0.515-0.027-1.003-0.051-1.469-0.072c-0.464-0.024-0.857-0.027-1.174-0.027c-0.016,0.1-0.036,0.253-0.046,0.439
		c-0.012,0.19-0.015,0.41-0.015,0.666v1.679v7.904c0,1.758,0.021,3.311,0.061,4.671c0.042,1.357,0.111,2.688,0.195,3.997
		c-0.361-0.042-0.753-0.057-1.175-0.057c-0.421,0-0.896,0-1.421,0c-0.528,0-1.005,0-1.43,0c-0.418,0-0.81,0.015-1.171,0.057
		c0.091-1.309,0.151-2.64,0.193-3.997c0.042-1.36,0.064-2.914,0.064-4.671v-7.904C325.05,25.005,325.044,24.442,325.027,23.939z"/>
	<path fill="#007396" d="M338.968,24.556c-0.042-1.36-0.107-2.724-0.187-4.096c0.354,0.036,0.749,0.078,1.171,0.108
		c0.424,0.03,0.896,0.042,1.421,0.042c0.532,0,1.008-0.012,1.423-0.042c0.422-0.03,0.813-0.072,1.174-0.108
		c-0.084,1.373-0.149,2.736-0.191,4.096c-0.036,1.354-0.063,2.917-0.063,4.668v4.298c0,1.758,0.027,3.311,0.063,4.671
		c0.042,1.357,0.107,2.688,0.191,3.997c-0.359-0.042-0.752-0.057-1.174-0.057c-0.415,0-0.891,0-1.423,0c-0.524,0-0.997,0-1.421,0
		c-0.422,0-0.815,0.015-1.171,0.057c0.078-1.309,0.145-2.64,0.187-3.997c0.045-1.36,0.072-2.914,0.072-4.671v-4.298
		C339.041,27.473,339.013,25.911,338.968,24.556z"/>
	<path fill="#007396" d="M349.66,23.087c-0.036-1-0.072-1.866-0.094-2.627c0.593,0.102,1.073,0.15,1.424,0.15
		c0.36,0,0.843-0.048,1.427-0.15c2.3,2.549,4.575,5.06,6.82,7.527c2.248,2.468,4.551,4.981,6.913,7.531v-2.757V29.7
		c0-1.042-0.003-2.05-0.016-3.064c-0.006-0.987-0.021-1.917-0.036-2.757c-0.006-0.852-0.023-1.577-0.061-2.182
		c-0.029-0.614-0.066-1.029-0.108-1.237c0.587,0.102,1.062,0.15,1.428,0.15c0.357,0,0.83-0.048,1.421-0.15
		c-0.108,1.914-0.192,3.651-0.257,5.207c-0.062,1.55-0.11,3.007-0.152,4.379c-0.049,1.373-0.072,2.721-0.088,4.066
		c-0.006,1.34-0.01,2.77-0.01,4.289v3.79c-0.421-0.042-0.854-0.057-1.297-0.057c-0.467,0-0.876,0.015-1.236,0.057
		c-4.347-5.06-8.951-10.152-13.824-15.275c-0.021,0.611-0.042,1.225-0.051,1.836c-0.011,0.608-0.017,1.231-0.017,1.857v3.678
		c0,1.267,0.006,2.342,0.017,3.232c0.009,0.882,0.028,1.623,0.051,2.249c0.016,0.605,0.036,1.102,0.062,1.496
		c0.024,0.395,0.039,0.708,0.058,0.927c-0.243-0.042-0.502-0.057-0.749-0.057c-0.259,0-0.5,0-0.734,0
		c-0.487,0-0.969,0.015-1.457,0.057c0.045-0.166,0.094-0.765,0.16-1.8c0.065-1.029,0.132-2.293,0.207-3.771
		c0.072-1.496,0.136-3.118,0.192-4.852c0.049-1.736,0.079-3.404,0.079-5.017C349.732,25.297,349.71,24.075,349.66,23.087z"/>
</g>
<g>
	<path fill="#007396" d="M264.104,64.628c-0.806-0.029-1.605-0.041-2.406-0.041c-0.804,0-1.604,0.006-2.405,0.035
		c-0.802,0.006-1.603,0.051-2.404,0.088v1.806c0,1.755,0.021,3.308,0.066,4.661c0.039,1.361,0.101,2.697,0.185,4.007
		c-0.36-0.033-0.749-0.063-1.165-0.063c-0.427,0-0.899,0-1.428,0c-0.525,0-1.004,0-1.425,0c-0.423,0-0.81,0.03-1.17,0.063
		c0.083-1.31,0.146-2.646,0.193-4.007c0.039-1.354,0.057-2.906,0.057-4.661v-4.31c0-1.746-0.018-3.299-0.057-4.656
		c-0.047-1.36-0.11-2.727-0.193-4.108c0.36,0.045,0.747,0.081,1.17,0.117c0.421,0.036,0.899,0.042,1.425,0.042
		c0.528,0,1.001-0.006,1.428-0.042c0.416-0.036,0.805-0.072,1.165-0.117c-0.103,1.381-0.171,2.736-0.206,4.072
		c-0.028,1.339-0.045,2.886-0.045,4.632c0.551,0.024,1.205,0.042,1.978,0.054c0.771,0.006,1.726,0.006,2.86,0.006
		c1.141,0,2.07,0,2.789-0.006c0.717-0.012,1.381-0.03,1.99-0.054c0-1.746-0.02-3.293-0.064-4.632
		c-0.043-1.336-0.103-2.691-0.186-4.072c0.358,0.045,0.746,0.081,1.171,0.117c0.415,0.036,0.894,0.042,1.421,0.042
		c0.526,0,1.006-0.006,1.428-0.042c0.424-0.036,0.81-0.072,1.172-0.117c-0.094,1.381-0.152,2.748-0.195,4.108
		c-0.038,1.357-0.062,2.911-0.062,4.656v4.31c0,1.755,0.024,3.308,0.062,4.661c0.043,1.361,0.102,2.697,0.195,4.007
		c-0.362-0.033-0.748-0.063-1.172-0.063c-0.422,0-0.9,0-1.428,0s-1.006,0-1.421,0c-0.425,0-0.812,0.03-1.171,0.063
		c0.083-1.31,0.143-2.646,0.186-4.007c0.045-1.354,0.064-2.906,0.064-4.661V64.71C265.704,64.692,264.901,64.671,264.104,64.628z"/>
	<path fill="#007396" d="M276.451,57.55c-0.035-1.36-0.091-2.727-0.169-4.108c0.953,0.027,1.889,0.051,2.824,0.093
		c0.924,0.048,1.861,0.066,2.811,0.066c1.562,0,2.945-0.006,4.161-0.042c1.213-0.036,2.028-0.072,2.45-0.117
		c-0.088,0.346-0.125,0.792-0.125,1.336c0,0.337,0.011,0.605,0.029,0.792c0.019,0.192,0.055,0.4,0.096,0.626
		c-0.612-0.033-1.279-0.084-2.008-0.121c-0.727-0.042-1.437-0.087-2.119-0.126c-0.684-0.045-1.307-0.076-1.851-0.105
		c-0.551-0.006-0.938-0.033-1.175-0.033c-0.083,1.165-0.133,2.314-0.143,3.467c-0.01,1.135-0.01,2.278-0.01,3.443
		c1.368-0.012,2.604-0.054,3.709-0.096c1.107-0.051,2.269-0.097,3.471-0.163c-0.064,0.364-0.102,0.635-0.129,0.829
		c-0.019,0.188-0.027,0.387-0.027,0.607c0,0.168,0.016,0.337,0.042,0.518c0.036,0.178,0.069,0.432,0.114,0.777
		c-2.406-0.201-4.801-0.285-7.18-0.285c0,0.668-0.012,1.346-0.021,2.025c-0.011,0.677-0.021,1.339-0.021,2.02
		c0,1.375,0.039,2.686,0.101,3.955c1.204,0,2.403-0.033,3.608-0.087c1.201-0.069,2.412-0.178,3.635-0.319
		c-0.041,0.235-0.077,0.447-0.096,0.633c-0.02,0.187-0.028,0.447-0.028,0.793c0,0.332,0.01,0.591,0.028,0.787
		c0.019,0.195,0.055,0.346,0.096,0.473c-0.567-0.018-1.27-0.033-2.1-0.039c-0.832-0.018-1.98-0.023-3.434-0.023
		c-1.291,0-2.334,0-3.135,0c-0.779,0-1.412,0-1.881,0c-0.477,0-0.836,0.006-1.078,0.023c-0.246,0.006-0.446,0.021-0.62,0.039
		c0.079-1.311,0.134-2.646,0.169-4.006c0.035-1.354,0.057-2.907,0.057-4.662v-4.31C276.507,60.461,276.487,58.908,276.451,57.55z"/>
	<path fill="#007396" d="M310.486,75.185c-0.501-0.033-0.982-0.062-1.439-0.062c-0.453,0-0.893,0-1.343,0c-0.438,0-0.891,0-1.344,0
		c-0.45,0-0.903,0.029-1.35,0.062c-0.332-1.033-0.679-2.083-1.037-3.158c-0.36-1.089-0.74-2.164-1.146-3.238
		c-0.671-0.015-1.345-0.039-2.021-0.045c-0.677-0.012-1.353-0.018-2.022-0.018c-0.554,0-1.104,0.006-1.646,0.018
		c-0.549,0.006-1.097,0.03-1.651,0.045c-0.417,1.074-0.81,2.149-1.171,3.238c-0.354,1.075-0.686,2.125-0.979,3.158
		c-0.255-0.033-0.5-0.062-0.747-0.062c-0.239,0-0.485,0-0.739,0c-0.252,0-0.51,0-0.761,0c-0.255,0-0.524,0.029-0.819,0.062
		c0.252-0.548,0.591-1.311,1.011-2.279c0.419-0.975,0.886-2.066,1.388-3.289c0.514-1.22,1.055-2.531,1.633-3.935
		c0.584-1.408,1.161-2.829,1.745-4.259c0.577-1.433,1.146-2.85,1.709-4.241c0.554-1.396,1.065-2.694,1.529-3.895
		c0.211,0.045,0.415,0.079,0.604,0.115c0.187,0.033,0.387,0.039,0.597,0.039c0.221,0,0.413-0.006,0.606-0.039
		c0.187-0.036,0.389-0.069,0.598-0.115c0.677,1.794,1.398,3.717,2.166,5.761c0.771,2.046,1.551,4.051,2.326,6.032
		c0.782,1.971,1.543,3.84,2.278,5.607C309.204,72.466,309.876,73.96,310.486,75.185z M299.287,59.401
		c-0.55,1.267-1.062,2.513-1.552,3.738c-0.481,1.243-0.957,2.501-1.422,3.792h5.791c-0.467-1.292-0.92-2.549-1.375-3.792
		C300.274,61.915,299.795,60.668,299.287,59.401z"/>
	<path fill="#007396" d="M313.69,57.55c-0.048-1.36-0.109-2.727-0.192-4.108c0.352,0.045,0.746,0.081,1.169,0.117
		c0.425,0.036,0.896,0.042,1.419,0.042c0.535,0,1.006-0.006,1.429-0.042c0.421-0.036,0.812-0.072,1.169-0.117
		c-0.08,1.381-0.143,2.748-0.189,4.108c-0.04,1.357-0.065,2.911-0.065,4.656v4.31c0,1.207,0.012,2.368,0.021,3.47
		c0.009,1.123,0.022,2.104,0.044,2.92c1.203,0,2.41-0.033,3.607-0.088c1.207-0.068,2.414-0.178,3.643-0.318
		c-0.042,0.234-0.078,0.445-0.096,0.631c-0.02,0.188-0.036,0.449-0.036,0.795c0,0.33,0.018,0.59,0.036,0.785
		c0.018,0.197,0.054,0.347,0.096,0.474c-0.571-0.019-1.271-0.033-2.104-0.039c-0.834-0.019-1.978-0.024-3.435-0.024
		c-1.288,0-2.332,0-3.132,0c-0.782,0-1.41,0-1.884,0c-0.479,0-0.838,0.006-1.076,0.024c-0.244,0.006-0.45,0.021-0.615,0.039
		c0.083-1.31,0.146-2.646,0.192-4.007c0.039-1.354,0.059-2.906,0.059-4.661v-4.31C313.749,60.461,313.729,58.908,313.69,57.55z"/>
	<path fill="#007396" d="M333.289,56.93c-0.009-0.505-0.036-0.879-0.081-1.12c-0.313,0-0.704,0.027-1.174,0.033
		c-0.458,0.03-0.951,0.06-1.481,0.087c-0.531,0.04-1.067,0.076-1.619,0.126c-0.548,0.054-1.047,0.121-1.517,0.175
		c0.045-0.232,0.078-0.463,0.114-0.689c0.029-0.241,0.045-0.479,0.045-0.701c0-0.235-0.016-0.466-0.045-0.698
		c-0.036-0.229-0.069-0.46-0.114-0.701c0.72,0.027,1.369,0.045,1.944,0.063c0.584,0.024,1.174,0.042,1.771,0.054
		c0.604,0.012,1.262,0.018,1.96,0.036c0.713,0,1.56,0.006,2.549,0.006c0.993,0,1.841-0.006,2.551-0.006
		c0.71-0.018,1.354-0.024,1.946-0.036c0.587-0.012,1.165-0.03,1.72-0.054c0.564-0.018,1.171-0.036,1.82-0.063
		c-0.043,0.241-0.079,0.472-0.11,0.701c-0.024,0.232-0.043,0.463-0.043,0.698c0,0.223,0.019,0.46,0.043,0.701
		c0.031,0.226,0.067,0.458,0.11,0.689c-0.419-0.054-0.895-0.121-1.421-0.175c-0.533-0.051-1.051-0.087-1.567-0.126
		c-0.516-0.027-1.006-0.057-1.47-0.087c-0.464-0.006-0.854-0.033-1.174-0.033c-0.021,0.114-0.03,0.265-0.042,0.455
		c-0.013,0.189-0.019,0.412-0.019,0.665v1.673v7.913c0,1.755,0.023,3.308,0.061,4.661c0.045,1.361,0.108,2.697,0.195,4.007
		c-0.361-0.033-0.755-0.063-1.177-0.063c-0.418,0-0.889,0-1.425,0c-0.522,0-1.002,0-1.417,0c-0.431,0-0.818,0.03-1.174,0.063
		c0.084-1.31,0.146-2.646,0.192-4.007c0.039-1.354,0.061-2.906,0.061-4.661v-7.913C333.304,57.99,333.297,57.43,333.289,56.93z"/>
	<path fill="#007396" d="M359.062,64.628c-0.802-0.029-1.604-0.041-2.408-0.041c-0.801,0-1.602,0.006-2.401,0.035
		c-0.804,0.006-1.602,0.051-2.405,0.088v1.806c0,1.755,0.021,3.308,0.059,4.661c0.045,1.361,0.107,2.697,0.191,4.007
		c-0.354-0.033-0.746-0.063-1.171-0.063c-0.415,0-0.898,0-1.421,0c-0.529,0-1.002,0-1.423,0c-0.428,0-0.812,0.03-1.174,0.063
		c0.084-1.31,0.149-2.646,0.191-4.007c0.042-1.354,0.066-2.906,0.066-4.661v-4.31c0-1.746-0.024-3.299-0.066-4.656
		c-0.042-1.36-0.107-2.727-0.191-4.108c0.359,0.045,0.746,0.081,1.174,0.117c0.421,0.036,0.894,0.042,1.423,0.042
		c0.521,0,1.006-0.006,1.421-0.042c0.425-0.036,0.815-0.072,1.171-0.117c-0.103,1.381-0.175,2.736-0.2,4.072
		c-0.033,1.339-0.05,2.886-0.05,4.632c0.549,0.024,1.21,0.042,1.979,0.054c0.768,0.006,1.719,0.006,2.858,0.006
		c1.145,0,2.071,0,2.79-0.006c0.718-0.012,1.38-0.03,1.99-0.054c0-1.746-0.019-3.293-0.062-4.632
		c-0.039-1.336-0.104-2.691-0.185-4.072c0.361,0.045,0.746,0.081,1.168,0.117c0.418,0.036,0.899,0.042,1.42,0.042
		c0.533,0,1.003-0.006,1.428-0.042c0.416-0.036,0.81-0.072,1.168-0.117c-0.081,1.381-0.146,2.748-0.192,4.108
		c-0.036,1.357-0.061,2.911-0.061,4.656v4.31c0,1.755,0.023,3.308,0.061,4.661c0.048,1.361,0.111,2.697,0.192,4.007
		c-0.358-0.033-0.752-0.063-1.168-0.063c-0.425,0-0.895,0-1.428,0c-0.521,0-1.002,0-1.42,0c-0.422,0-0.807,0.03-1.168,0.063
		c0.081-1.31,0.146-2.646,0.185-4.007c0.045-1.354,0.062-2.906,0.062-4.661V64.71C360.664,64.692,359.86,64.671,359.062,64.628z"/>
</g>
<g>
	<path fill="#007396" d="M259.005,87.908c-0.972,0-1.758,0.288-2.367,0.857c-0.621,0.564-0.926,1.229-0.926,1.986
		c0,0.781,0.242,1.426,0.719,1.922c0.472,0.486,1.066,0.949,1.786,1.341c0.716,0.396,1.483,0.792,2.306,1.146
		c0.824,0.381,1.597,0.838,2.315,1.371c0.716,0.537,1.312,1.19,1.783,1.959c0.479,0.77,0.715,1.76,0.715,2.965
		c0,1.051-0.203,2.017-0.604,2.889c-0.4,0.88-0.969,1.629-1.707,2.252c-0.738,0.617-1.619,1.099-2.642,1.424
		c-1.028,0.316-2.167,0.49-3.436,0.49c-1.139,0-2.161-0.129-3.051-0.37c-0.895-0.234-1.579-0.539-2.039-0.896
		c0.209-0.732,0.387-1.41,0.535-2.029c0.145-0.607,0.277-1.272,0.378-1.989h0.605c0.081,0.461,0.24,0.899,0.471,1.304
		c0.231,0.415,0.526,0.785,0.888,1.102c0.358,0.312,0.792,0.561,1.296,0.74c0.506,0.176,1.073,0.273,1.711,0.273
		c1.263,0,2.197-0.325,2.798-0.954c0.601-0.629,0.905-1.392,0.905-2.278c0-0.801-0.235-1.447-0.697-1.955
		c-0.468-0.513-1.048-0.961-1.743-1.34c-0.695-0.406-1.453-0.777-2.273-1.15c-0.823-0.366-1.582-0.817-2.277-1.342
		c-0.699-0.526-1.287-1.172-1.747-1.951c-0.462-0.764-0.695-1.754-0.695-2.955c0-1.098,0.2-2.07,0.589-2.907
		c0.388-0.849,0.913-1.547,1.562-2.124c0.662-0.572,1.412-1,2.269-1.295c0.852-0.301,1.756-0.439,2.701-0.439
		c1.145,0,2.138,0.133,2.993,0.4c0.854,0.279,1.591,0.658,2.197,1.145c-0.192,0.48-0.355,0.953-0.486,1.404
		c-0.145,0.461-0.314,1.039-0.52,1.734h-0.479C262.166,88.811,260.891,87.908,259.005,87.908z"/>
	<path fill="#007396" d="M278.946,93.779c0.421-0.773,0.828-1.58,1.229-2.416c0.398-0.846,0.793-1.697,1.173-2.553
		c0.379-0.85,0.752-1.674,1.104-2.459c0.231,0.048,0.474,0.084,0.719,0.117c0.241,0.035,0.486,0.049,0.742,0.049
		c0.253,0,0.496-0.014,0.737-0.049c0.242-0.033,0.502-0.069,0.781-0.117c-0.363,0.6-0.807,1.369-1.347,2.329
		c-0.542,0.961-1.118,2.002-1.729,3.118c-0.609,1.119-1.224,2.264-1.847,3.429c-0.622,1.174-1.188,2.258-1.698,3.254
		c0,0.493-0.002,1.015-0.027,1.532c-0.023,0.512-0.033,1.041-0.033,1.562c0,1.08,0.02,2.133,0.049,3.201
		c0.025,1.057,0.121,2.155,0.271,3.316c-0.442-0.038-0.897-0.062-1.344-0.062c-0.457,0-0.897,0-1.354,0c-0.438,0-0.883,0-1.335,0
		c-0.459,0-0.905,0.024-1.356,0.062c0.053-0.973,0.125-1.971,0.231-2.973c0.103-1.016,0.153-2.035,0.153-3.035
		c0-0.483-0.01-0.969-0.012-1.478c-0.017-0.483-0.031-0.981-0.05-1.472c-0.528-1.057-1.136-2.23-1.819-3.52
		c-0.686-1.301-1.354-2.564-1.998-3.787c-0.645-1.219-1.23-2.338-1.771-3.324c-0.537-0.984-0.928-1.707-1.187-2.155
		c0.488,0.048,0.961,0.084,1.426,0.116c0.464,0.037,0.941,0.05,1.423,0.05c0.483,0,0.955-0.013,1.405-0.05
		c0.459-0.032,0.93-0.068,1.414-0.116c0.359,0.784,0.759,1.649,1.218,2.599c0.45,0.953,0.899,1.871,1.345,2.789
		c0.443,0.899,0.854,1.725,1.232,2.469c0.379,0.736,0.682,1.285,0.914,1.644h0.067C278.097,95.233,278.522,94.546,278.946,93.779z"
		/>
	<path fill="#007396" d="M294.161,87.908c-0.969,0-1.76,0.288-2.37,0.857c-0.615,0.564-0.918,1.229-0.918,1.986
		c0,0.781,0.233,1.426,0.713,1.922c0.47,0.486,1.065,0.949,1.787,1.341c0.719,0.396,1.481,0.792,2.313,1.146
		c0.82,0.381,1.58,0.838,2.299,1.371c0.721,0.537,1.32,1.19,1.791,1.959c0.477,0.77,0.721,1.76,0.721,2.965
		c0,1.051-0.214,2.017-0.607,2.889c-0.402,0.88-0.967,1.629-1.709,2.252c-0.736,0.617-1.621,1.099-2.641,1.424
		c-1.03,0.316-2.167,0.49-3.434,0.49c-1.142,0-2.16-0.129-3.056-0.37c-0.897-0.234-1.579-0.539-2.039-0.896
		c0.212-0.732,0.396-1.41,0.534-2.029c0.146-0.607,0.273-1.272,0.383-1.989h0.604c0.081,0.461,0.237,0.899,0.468,1.304
		c0.232,0.415,0.529,0.785,0.889,1.102c0.358,0.312,0.79,0.561,1.297,0.74c0.508,0.176,1.084,0.273,1.707,0.273
		c1.269,0,2.202-0.325,2.801-0.954c0.604-0.629,0.901-1.392,0.901-2.278c0-0.801-0.229-1.447-0.69-1.955
		c-0.471-0.513-1.051-0.961-1.743-1.34c-0.698-0.406-1.454-0.777-2.277-1.15c-0.827-0.366-1.583-0.817-2.274-1.342
		c-0.699-0.526-1.277-1.172-1.742-1.951c-0.459-0.764-0.697-1.754-0.697-2.955c0-1.098,0.191-2.07,0.592-2.907
		c0.391-0.849,0.904-1.547,1.557-2.124c0.654-0.572,1.412-1,2.27-1.295c0.852-0.301,1.76-0.439,2.705-0.439
		c1.131,0,2.141,0.133,2.986,0.4c0.855,0.279,1.591,0.658,2.199,1.145c-0.187,0.48-0.354,0.953-0.492,1.404
		c-0.135,0.461-0.311,1.039-0.516,1.734h-0.484C297.313,88.811,296.041,87.908,294.161,87.908z"/>
	<path fill="#007396" d="M308.19,89.839c-0.008-0.508-0.033-0.879-0.072-1.109c-0.321,0-0.708,0.016-1.17,0.036
		c-0.469,0.019-0.958,0.045-1.483,0.069c-0.539,0.035-1.069,0.09-1.623,0.131c-0.547,0.056-1.052,0.121-1.517,0.182
		c0.044-0.24,0.076-0.473,0.115-0.697c0.023-0.232,0.041-0.474,0.041-0.705c0-0.223-0.018-0.459-0.041-0.697
		c-0.039-0.221-0.071-0.457-0.115-0.695c0.718,0.023,1.365,0.048,1.947,0.066c0.578,0.022,1.174,0.039,1.771,0.051
		c0.603,0.006,1.258,0.016,1.961,0.035c0.706,0,1.556,0.014,2.546,0.014c0.995,0,1.841-0.014,2.55-0.014
		c0.701-0.021,1.354-0.029,1.944-0.035c0.589-0.012,1.168-0.027,1.727-0.051c0.558-0.02,1.166-0.043,1.817-0.066
		c-0.036,0.238-0.072,0.477-0.109,0.695c-0.029,0.238-0.052,0.476-0.052,0.697c0,0.231,0.021,0.473,0.052,0.705
		c0.037,0.225,0.073,0.457,0.109,0.697c-0.42-0.061-0.891-0.126-1.424-0.182c-0.526-0.041-1.047-0.096-1.562-0.131
		c-0.521-0.024-1.013-0.053-1.471-0.069c-0.463-0.021-0.855-0.036-1.172-0.036c-0.022,0.1-0.043,0.256-0.047,0.445
		c-0.012,0.187-0.022,0.408-0.022,0.664v1.678v7.919c0,1.745,0.026,3.296,0.069,4.649c0.04,1.357,0.099,2.699,0.187,4.01
		c-0.359-0.039-0.747-0.062-1.171-0.062c-0.418,0-0.895,0-1.426,0c-0.525,0-1,0-1.42,0c-0.425,0-0.817,0.023-1.176,0.062
		c0.088-1.311,0.146-2.651,0.19-4.01c0.044-1.354,0.069-2.904,0.069-4.649v-7.919C308.215,90.899,308.209,90.339,308.19,89.839z"/>
	<path fill="#007396" d="M321.701,90.462c-0.036-1.362-0.094-2.729-0.172-4.11c0.951,0.022,1.891,0.062,2.822,0.097
		c0.922,0.045,1.86,0.069,2.817,0.069c1.557,0,2.943-0.013,4.16-0.05c1.21-0.032,2.021-0.068,2.449-0.116
		c-0.091,0.343-0.132,0.785-0.132,1.334c0,0.333,0.015,0.603,0.035,0.791c0.023,0.194,0.055,0.396,0.097,0.638
		c-0.613-0.045-1.281-0.093-2.011-0.129c-0.729-0.042-1.436-0.085-2.118-0.13c-0.688-0.045-1.305-0.071-1.849-0.09
		c-0.551-0.021-0.944-0.036-1.172-0.036c-0.09,1.168-0.132,2.312-0.146,3.455c-0.004,1.135-0.014,2.277-0.014,3.443
		c1.366-0.012,2.606-0.043,3.719-0.088c1.102-0.049,2.26-0.1,3.458-0.172c-0.059,0.367-0.098,0.635-0.124,0.834
		c-0.026,0.188-0.032,0.389-0.032,0.6c0,0.175,0.018,0.343,0.048,0.518c0.036,0.184,0.075,0.439,0.108,0.773
		c-2.399-0.192-4.802-0.28-7.177-0.28c0,0.672-0.012,1.347-0.018,2.026c-0.007,0.674-0.013,1.349-0.013,2.021
		c0,1.369,0.029,2.689,0.091,3.958c1.207,0,2.403-0.036,3.607-0.094c1.207-0.065,2.414-0.175,3.64-0.317
		c-0.042,0.233-0.072,0.444-0.097,0.631c-0.021,0.182-0.036,0.455-0.036,0.789c0,0.34,0.016,0.604,0.036,0.797
		c0.023,0.192,0.055,0.351,0.097,0.471c-0.565-0.023-1.272-0.039-2.106-0.045c-0.831-0.014-1.979-0.02-3.429-0.02
		c-1.294,0-2.335,0-3.133,0c-0.782,0-1.408,0-1.888,0c-0.473,0-0.834,0.006-1.074,0.02c-0.24,0.006-0.445,0.021-0.62,0.045
		c0.078-1.311,0.136-2.651,0.172-4.01c0.036-1.354,0.055-2.904,0.055-4.649v-4.315C321.755,93.371,321.737,91.82,321.701,90.462z"/>
	<path fill="#007396" d="M339.661,101.007c-0.163,2.361-0.337,4.726-0.5,7.088c-0.259-0.039-0.505-0.062-0.758-0.062
		s-0.494,0-0.731,0c-0.256,0-0.5,0-0.74,0c-0.243,0-0.493,0.023-0.743,0.062c0.672-3.621,1.271-7.227,1.803-10.823
		c0.526-3.588,1.015-7.222,1.457-10.92c0.226,0.048,0.448,0.084,0.646,0.116c0.192,0.037,0.415,0.05,0.649,0.05
		c0.188,0,0.386-0.013,0.603-0.05c0.204-0.032,0.421-0.068,0.662-0.116c0.565,1.272,1.162,2.556,1.785,3.866
		c0.623,1.299,1.243,2.617,1.869,3.904c0.616,1.301,1.233,2.57,1.859,3.819c0.622,1.246,1.223,2.42,1.794,3.55
		c1.262-2.367,2.521-4.85,3.779-7.43c1.26-2.585,2.444-5.154,3.588-7.711c0.53,0.117,0.987,0.166,1.36,0.166
		c0.361,0,0.804-0.049,1.337-0.166c0.21,1.814,0.432,3.771,0.674,5.854c0.241,2.102,0.484,4.135,0.718,6.123
		c0.229,2,0.463,3.86,0.691,5.594c0.229,1.73,0.448,3.119,0.635,4.172c-0.425-0.038-0.852-0.062-1.278-0.062
		c-0.438,0-0.861,0-1.282,0c-0.425,0-0.854,0-1.297,0c-0.449,0-0.896,0.024-1.334,0.062c-0.104-2.163-0.276-4.522-0.519-7.062
		c-0.247-2.52-0.492-5.033-0.746-7.52h-0.062c-1.198,2.486-2.381,4.934-3.546,7.338c-1.155,2.402-2.306,4.822-3.446,7.244
		c-0.104-0.023-0.204-0.038-0.301-0.045c-0.093-0.012-0.192-0.018-0.298-0.018c-0.108,0-0.208,0.006-0.304,0.018
		c-0.098,0.007-0.193,0.021-0.302,0.045c-1.139-2.361-2.274-4.725-3.4-7.088c-1.132-2.35-2.294-4.756-3.495-7.182h-0.065
		C340.085,96.251,339.83,98.656,339.661,101.007z"/>
</g>
<g>
	<path fill="#007396" d="M234.388,106.262c0,1.713-1.402,3.112-3.12,3.112h-84.101c-1.715,0-3.117-1.399-3.117-3.112v-84.11
		c0-1.712,1.401-3.115,3.117-3.115h84.101c1.718,0,3.12,1.403,3.12,3.115V106.262z"/>
	<path fill="#FFFFFF" d="M176.316,27.048v18.917c0,2.904,2.373,5.27,5.288,5.27c2.908,0,5.268-2.366,5.268-5.27V29.877
		L176.316,27.048z"/>
	<path fill="#FFFFFF" d="M181.604,77.173c-2.915,0-5.288,2.375-5.288,5.293v18.896l10.556-2.841V82.466
		C186.872,79.548,184.512,77.173,181.604,77.173z"/>
	<path fill="#FFFFFF" d="M191.573,98.521l10.551,2.841V82.466c0-2.918-2.368-5.293-5.287-5.293c-2.903,0-5.264,2.375-5.264,5.293
		V98.521z"/>
	<path fill="#FFFFFF" d="M154.898,61.86h16.087c2.903,0,5.267-2.369,5.267-5.282c0-2.911-2.364-5.273-5.267-5.273H152.07
		L154.898,61.86z"/>
	<path fill="#FFFFFF" d="M152.07,77.115h18.916c2.903,0,5.267-2.369,5.267-5.285c0-2.914-2.364-5.279-5.267-5.279h-16.087
		L152.07,77.115z"/>
	<path fill="#FFFFFF" d="M207.468,66.55c-2.908,0-5.278,2.365-5.278,5.279c0,2.916,2.37,5.285,5.278,5.285h18.897l-2.811-10.564
		H207.468z"/>
	<g>
		<path fill="#FFFFFF" d="M196.837,51.235c2.919,0,5.287-2.366,5.287-5.27V27.048l-10.551,2.829v16.088
			C191.573,48.87,193.934,51.235,196.837,51.235z"/>
		<path fill="#FFFFFF" d="M191.573,29.877l10.551-2.829v18.917c0,2.904-2.368,5.27-5.287,5.27c-2.903,0-5.264-2.366-5.264-5.27
			V29.877z"/>
	</g>
	<path fill="#FFFFFF" d="M207.468,51.305c-2.908,0-5.278,2.363-5.278,5.273c0,2.914,2.37,5.282,5.278,5.282h16.086l2.811-10.556
		L207.468,51.305L207.468,51.305z"/>
</g>
</svg>
