<?xml version="1.0" encoding="UTF-8"?>
<svg width="80px" height="110px" viewBox="0 0 80 110" version="1.1" xmlns="http://www.w3.org/2000/svg" xmlns:xlink="http://www.w3.org/1999/xlink">
    <!-- Generator: Sketch 45.2 (43514) - http://www.bohemiancoding.com/sketch -->
    <title>logo</title>
    <desc>Created with Sketch.</desc>
    <defs></defs>
    <g id="Style-Guide" stroke="none" stroke-width="1" fill="none" fill-rule="evenodd">
        <g transform="translate(-60.000000, -13.000000)" id="Header">
            <g>
                <g id="Logo" transform="translate(40.000000, 2.000000)">
                    <g id="Logo/CCHS-Seal-2Color" transform="translate(20.000000, 11.000000)">
                        <g id="CCHS-Seal-2Color">
                            <g id="Group-3" fill="#DC3B41">
                                <path d="M16.2245926,77.4340217 C15.8091852,77.9122826 14.9795556,78.0318478 14.4468148,78.4503261 C14.0906667,79.1677174 14.7431111,79.9448913 14.7431111,80.6025 C15.1573333,81.7383696 15.2758519,82.7546739 15.9282963,83.7111957 C15.7499259,84.0101087 16.2245926,84.3090217 16.2832593,84.4883696 C16.7573333,86.2220652 17.824,87.8959783 18.9499259,89.3307609 L18.8314074,89.3905435 C19.3054815,90.1677174 20.0165926,90.526413 20.3727407,91.1846196 C21.024,91.901413 21.7351111,92.8579348 22.5647407,93.5161413 C23.1573333,93.6357065 23.3943704,94.1139674 23.8684444,94.5324457 C26.1795556,96.0270109 28.8462222,97.7009239 31.3357037,98.29875 C32.6388148,99.1351087 34.3573333,99.1351087 35.7801481,99.4944022 C38.861037,100.031848 42.594963,99.7933152 46.1505185,98.8361957 C46.4468148,98.4183152 46.9795556,98.7172283 47.1573333,98.29875 C48.9351111,97.9394565 50.8912593,97.1030978 52.3727407,96.0270109 C52.7277037,96.1459783 53.1425185,95.6085326 53.3795556,95.3694022 L53.4388148,95.4291848 L53.6165926,95.2492391 C54.1505185,95.1302717 54.5647407,94.5916304 55.0980741,94.2927174 L55.1573333,94.3525 C56.9351111,92.7981522 58.3573333,91.6622826 59.7801481,89.6894565 L59.8980741,89.7492391 C60.0764444,89.0916304 60.9048889,88.8525 60.8456296,88.1351087 C61.4974815,87.5970652 61.7345185,86.7601087 62.0900741,86.1025 C63.1573333,84.4883696 63.7499259,82.5155435 64.2832593,80.7818478 L64.3425185,80.7818478 C64.4604444,80.0644565 64.5795556,79.4068478 64.6974815,78.7492391 C64.0462222,78.2709783 63.3357037,78.0318478 62.5647407,77.7329348 C61.4974815,79.4666304 61.024,81.3198913 59.9567407,82.9340217 C59.6604444,83.4122826 59.4234074,83.9503261 59.0091852,84.3090217 C58.7715556,84.4883696 58.6536296,85.026413 58.5351111,85.3253261 C57.4684444,86.0427174 56.9351111,87.4775 56.0462222,88.1948913 L55.9282963,88.1351087 L55.6906667,88.3742391 L55.7499259,88.4938043 C55.2758519,88.6731522 55.2165926,89.3307609 54.6832593,89.3307609 C54.0314074,90.4666304 52.3727407,91.0046739 51.4838519,92.1411413 L51.3647407,92.0813587 C50.594963,92.7981522 49.8832593,92.9183152 49.0536296,93.5161413 C48.5208889,93.9346196 47.986963,94.17375 47.4536296,94.5324457 C46.624,95.0704891 45.1425185,95.1302717 44.3727407,95.7872826 C43.2462222,96.0861957 42.1202963,96.5052717 40.9943704,96.8041848 C40.3425185,96.8041848 39.8091852,97.222663 39.1573333,96.9829348 C39.0980741,96.92375 39.0394074,97.0427174 38.9801481,97.1030978 L38.8017778,96.9829348 C38.6838519,96.92375 38.624,97.0427174 38.5647407,97.1030978 C37.9721481,96.624837 36.9653333,96.6840217 36.3727407,96.5052717 L36.3727407,96.4448913 C35.8980741,96.5052717 35.7801481,96.1459783 35.3054815,96.2661413 C35.1282963,95.8470652 34.594963,96.1459783 34.4758519,95.7872826 C34.0023704,96.1459783 33.7060741,95.1894565 33.3505185,95.5481522 C33.1721481,95.1894565 32.7573333,95.1894565 32.461037,95.0107065 C31.8684444,95.3096196 31.6906667,94.472663 31.2165926,94.651413 L30.9795556,94.4128804 C30.861037,94.4128804 30.6832593,94.17375 30.5647407,94.4128804 L30.0314074,93.9346196 C29.9128889,93.874837 29.8542222,93.8150543 29.7943704,93.9938043 C29.5579259,93.7546739 29.024,93.3367935 28.669037,93.3367935 C28.3727407,93.0378804 27.9573333,92.6194022 27.4838519,92.5590217 L27.1277037,92.2003261 C25.4684444,91.2444022 23.8684444,89.3307609 22.3277037,88.1948913 C21.3202963,86.8198913 20.3727407,85.6840217 19.4838519,84.3688043 C18.6536296,83.5916304 18.4165926,82.6351087 17.824,81.678587 C17.7060741,81.2003261 17.6462222,80.7220652 17.2314074,80.303587 L17.2906667,80.2438043 C17.2906667,79.9448913 17.0536296,79.7057609 16.8758519,79.526413 C17.1134815,79.2872826 16.6980741,79.0481522 16.6388148,78.8688043 C16.6388148,78.4503261 16.3425185,77.7329348 16.2245926,77.4340217 Z M40.2245926,9.64054348 C39.5727407,9.58076087 38.8017778,9.52097826 38.2684444,9.7601087 C34.594963,9.70032609 30.6832593,11.553587 27.8980741,14.1840217 L27.8388148,14.1242391 C27.4838519,14.4829348 27.1875556,14.8416304 26.7128889,15.2003261 L26.7721481,15.2601087 C25.2314074,16.8144565 24.2245926,18.4883696 23.5721481,20.4611957 C23.632,21.776413 22.1505185,21.2383696 21.4980741,21.4775 C17.4684444,22.4938043 13.6758519,25.7220652 12.9054815,30.026413 L15.6906667,30.4448913 L15.8091852,25.4231522 L15.986963,25.3633696 C17.7060741,26.2601087 19.1875556,27.3361957 21.0832593,27.9938043 C21.3202963,26.9775 21.1425185,25.7220652 21.2017778,24.526413 C21.3795556,24.1677174 21.4388148,24.3470652 21.7943704,24.1677174 C23.2165926,24.9448913 25.0536296,25.4829348 26.6536296,25.1242391 C29.6165926,25.1242391 32.6980741,23.0916304 35.6017778,23.4503261 C36.1351111,23.5101087 36.669037,23.4503261 37.1425185,23.6296739 C37.2023704,23.6296739 37.2616296,23.6296739 37.3202963,23.5698913 C38.0912593,23.9883696 38.861037,24.2275 39.632,24.3470652 C42.8912593,22.553587 46.2091852,23.9883696 49.1134815,25.1242391 C49.2906667,25.1242391 49.4097778,25.4829348 49.586963,25.303587 C50.594963,25.7220652 51.7801481,25.5427174 52.7277037,25.7220652 C54.5054815,25.6025 56.0462222,24.526413 57.6462222,24.4666304 L57.7060741,28.2329348 C58.9499259,27.3959783 60.253037,26.7383696 61.3795556,25.8416304 C62.0900741,25.6622826 62.861037,24.9448913 63.632,24.9448913 L63.7499259,30.4448913 C64.8171852,30.3253261 65.8826667,30.2057609 66.9499259,29.9666304 C66.7128889,28.7709783 66.2382222,27.7546739 65.7060741,26.5590217 C64.1641481,24.4666304 62.5054815,22.4938043 59.9567407,21.6568478 C59.3641481,21.4177174 58.7715556,21.3579348 58.2986667,21.1188043 C57.7060741,21.2981522 57.2314074,20.7003261 56.6388148,20.8198913 C55.7499259,20.9394565 55.6906667,19.8633696 55.2165926,19.3851087 L55.3357037,19.3253261 C53.4388148,15.678587 50.2388148,12.6894565 46.624,11.0753261 C46.4468148,11.0753261 46.2091852,10.7166304 46.0906667,11.0155435 C45.7351111,10.7166304 45.2616296,10.5970652 44.9054815,10.5970652 C43.424,9.8198913 41.8832593,9.7601087 40.2245926,9.64054348 Z M61.4382222,13.1677174 C63.0394074,14.303587 65.3493333,14.901413 66.8912593,16.276413 C70.5647407,18.9068478 73.4684444,22.6731522 74.4165926,26.7981522 C74.6536296,26.9775 74.594963,27.4557609 74.7128889,27.8144565 C75.2462222,29.7872826 75.3641481,31.5209783 75.3054815,33.6133696 C74.8308148,35.7057609 74.594963,38.3361957 73.4684444,40.3090217 C73.1134815,41.026413 72.7567407,40.4883696 72.2832593,40.3090217 C71.216,39.9503261 70.3863704,39.3525 69.3795556,38.8742391 C68.786963,40.6079348 69.4974815,42.401413 69.5579259,44.4340217 C69.6758519,45.3905435 69.9721481,47.0046739 70.1505185,48.0209783 L69.8542222,48.3198913 C68.3727407,46.7655435 67.0091852,45.6296739 65.8826667,44.2546739 C65.5277037,44.3144565 65.3493333,44.6731522 65.053037,44.7927174 L63.5122963,45.8090217 C63.5122963,52.5644565 63.4536296,59.4394565 63.5715556,66.1351087 C65.3493333,63.3851087 66.8308148,60.4557609 68.8456296,57.8851087 C69.9721481,58.0644565 70.3271111,59.7383696 70.8017778,60.6948913 C71.632,61.5916304 71.8678519,62.7872826 72.6388148,63.6242391 C74.7128889,62.9666304 76.9653333,62.2492391 79.216,62.3688043 C79.986963,63.3253261 78.5054815,63.8633696 78.2684444,64.7003261 C76.1351111,67.9883696 74.6536296,71.9938043 73.4684444,75.5209783 C74.2986667,76.2383696 76.1351111,76.2383696 75.6604444,77.7329348 C75.4838519,80.1242391 74.7128889,82.3959783 74.2986667,84.7275 C73.8826667,84.6677174 74.178963,85.0861957 74.0023704,85.2057609 C74.0023704,85.3851087 73.7060741,85.6840217 73.8826667,85.9231522 C73.1721481,86.7601087 73.1721481,88.0753261 72.5208889,88.9122826 C72.2245926,89.7492391 71.8678519,90.2275 71.5715556,91.0046739 C71.1573333,91.8422283 70.3271111,92.8579348 69.9128889,93.8150543 C66.2382222,98.7172283 61.2616296,103.679185 56.0462222,105.950326 C54.9202963,106.548152 54.1505185,106.78788 53.0832593,107.385707 C50.8314074,108.1025 48.1647407,108.999239 45.7351111,109.478098 C44.669037,109.298152 44.0165926,109.895978 43.0091852,109.717228 L42.8912593,109.836196 C36.669037,110.434022 30.9795556,109.358533 25.1721481,107.205761 C24.9351111,106.847065 24.1647407,106.78788 23.7499259,106.429185 C23.2758519,106.548152 23.0980741,106.010109 22.6832593,106.070489 C18.6536296,103.857935 15.5128889,101.2275 12.4906667,97.8204891 C11.8980741,97.2818478 11.424,96.624837 10.9499259,96.1459783 C10.8314074,95.6085326 10.2388148,95.1894565 9.94251852,94.7117935 C9.29066667,93.9346196 9.17214815,93.3367935 8.52088889,92.6194022 C7.98696296,91.6025 7.3357037,90.1677174 6.80177778,89.2709783 C6.38696296,88.6133696 6.20918519,87.5372826 5.85422222,86.9992391 C5.49866667,85.7438043 4.96533333,84.1296739 4.43140741,82.8742391 L4.60977778,82.6948913 C4.31348148,82.0970652 4.31348148,81.2003261 4.01718519,80.4829348 C3.89807407,79.8253261 3.72088889,79.4666304 3.60177778,78.8090217 C3.78014815,78.2111957 3.60177778,77.2546739 3.42459259,76.5372826 C3.83881481,75.5209783 5.024,75.7003261 5.55792593,74.8633696 C4.31348148,71.0372826 2.23940741,66.6731522 0.0462222222,63.4448913 C-0.0717037037,63.0861957 0.0462222222,62.7872826 0.283259259,62.6079348 C2.23940741,62.8470652 4.43140741,63.3253261 6.09066667,63.5644565 C6.26844444,63.7438043 6.74311111,63.7438043 7.03940741,63.6242391 C7.03940741,63.5644565 6.97955556,63.5046739 6.9202963,63.5046739 L7.03940741,63.5644565 C7.51288889,62.6079348 8.28325926,61.7111957 8.57955556,60.6948913 C9.05362963,60.276413 9.17214815,59.9177174 9.29066667,59.3796739 C9.34992593,59.2003261 9.70607407,58.7220652 9.70607407,58.4829348 C10.0023704,58.1840217 9.76474074,57.7057609 10.2388148,57.5861957 C11.7202963,59.0807609 12.786963,61.1731522 13.7351111,63.0861957 C14.386963,64.3416304 14.9795556,65.7166304 15.632,67.0318478 L15.8091852,66.8525 L15.8091852,45.9883696 C15.4536296,45.6296739 14.9202963,45.151413 14.5647407,45.151413 C14.386963,44.7927174 13.9721481,44.553587 13.5579259,44.1948913 C12.1943704,45.5101087 10.9499259,46.7655435 9.76474074,48.0209783 C9.46844444,47.9611957 9.23140741,48.4394565 8.93511111,48.0807609 C8.52088889,47.8416304 8.81718519,47.4829348 8.81718519,47.1840217 C9.17214815,46.4068478 9.23140741,45.4503261 9.29066667,44.6133696 C9.46844444,42.8796739 9.88325926,40.9666304 9.64622222,38.9340217 C8.46103704,39.053587 7.51288889,40.1296739 6.38696296,40.1296739 C5.91288889,39.4122826 5.14251852,38.5753261 5.14251852,37.5590217 C4.37274074,36.0046739 4.37274074,33.9122826 4.25362963,32.2383696 C4.25362963,29.7275 4.54992593,26.5590217 5.67585185,24.3470652 C7.9282963,18.9666304 12.3128889,14.1242391 18.1202963,13.1079348 C19.0684444,11.4938043 20.1943704,9.99923913 21.4388148,8.4448913 C27.5425185,1.62967391 37.1425185,-1.29967391 46.0906667,0.972065217 L46.0906667,1.03184783 C51.0091852,2.16771739 55.3357037,5.15684783 58.8912593,9.22206522 C59.7197037,10.5372826 60.9048889,11.7329348 61.4382222,13.1677174 L61.4382222,13.1677174 Z" id="Fill-1"></path>
                            </g>
                            <path d="M44.6091852,1.39054348 C50.594963,2.52641304 55.9282963,5.93402174 59.3641481,11.3144565 C60.7277037,12.151413 60.3122963,14.7818478 62.2684444,14.7220652 C67.0091852,16.3361957 71.632,20.8796739 73.3493333,26.0209783 C74.3573333,28.8307609 74.7128889,31.8796739 74.3573333,34.6894565 C74.0023704,36.4231522 73.7647407,38.1568478 72.8758519,39.651413 C70.861037,38.8144565 69.1419259,37.9177174 67.1271111,37.0807609 C67.1271111,36.4829348 67.4838519,35.8851087 67.6604444,35.2872826 C68.786963,30.6242391 67.1875556,25.1840217 62.861037,22.2546739 C61.2616296,21.178587 59.4234074,20.2818478 57.586963,20.1622826 C57.4097778,20.1025 56.9351111,20.0427174 56.5795556,19.9231522 C55.0980741,17.4720652 53.9128889,15.1405435 51.8388148,13.4666304 C46.5054815,8.62423913 38.0314074,7.42858696 31.7499259,10.5372826 L31.6906667,10.4775 C30.9202963,11.0155435 29.8542222,11.3742391 29.1425185,12.0916304 C26.2986667,14.1242391 23.9282963,16.8144565 22.5647407,20.2220652 C21.1425185,20.6405435 19.5425185,21.1188043 18.2388148,21.776413 C14.6832593,23.928587 12.0764444,27.4557609 11.8388148,31.5807609 C11.6017778,33.2546739 12.0764444,35.1079348 12.3727407,36.7220652 C10.4165926,37.4394565 8.46103704,38.3959783 6.56474074,38.9340217 C4.31348148,34.4503261 4.54992593,28.5916304 6.74311111,24.1079348 C8.52088889,20.2220652 11.5425185,16.3361957 15.632,14.7818478 C15.8091852,14.7818478 16.1647407,14.5427174 16.4017778,14.4231522 L18.594963,14.0644565 C20.3727407,10.5372826 23.0394074,7.36880435 26.3573333,5.21663043 C27.7801481,4.02097826 29.6758519,3.12423913 31.4536296,2.70576087 C34.0023704,1.33076087 36.8462222,1.15141304 39.632,0.8525 C41.3505185,0.8525 42.8912593,1.09163043 44.6091852,1.39054348" id="Fill-4" fill="#FFFFFE"></path>
                            <path d="M43.4838519,3.18402174 C43.661037,3.90141304 43.2462222,4.43945652 42.7721481,4.85793478 C42.594963,4.79815217 42.5351111,4.91771739 42.4758519,4.9775 L43.1875556,7.12967391 L42.6536296,7.0698913 C42.2388148,6.3525 42.3573333,5.27641304 41.5277037,4.85793478 C41.1721481,4.85793478 40.5208889,4.73836957 40.6388148,5.33619565 C40.5795556,5.87423913 40.6980741,6.59163043 40.2245926,6.83076087 L40.0462222,6.83076087 C40.2245926,5.21663043 40.2245926,3.66228261 40.5208889,2.2275 C41.5277037,2.40684783 42.8314074,2.16771739 43.4838519,3.18402174" id="Fill-5" fill="#093566"></path>
                            <path d="M38.2684444,3.30358696 L38.7431111,6.83076087 C38.624,6.89054348 38.5647407,6.89054348 38.4468148,7.0101087 C37.9128889,6.41228261 38.3875556,5.39597826 37.8542222,4.85793478 C37.0832593,4.91771739 36.1943704,4.9775 35.661037,5.33619565 C35.6017778,6.05358696 36.1943704,6.89054348 35.7801481,7.36880435 C35.2462222,7.24923913 35.5425185,6.47206522 35.2462222,6.11336957 C35.1282963,5.09706522 34.9499259,3.90141304 34.7721481,2.82532609 C34.832,2.70576087 35.0684444,2.76554348 35.1875556,2.76554348 C35.4245926,3.42315217 35.2462222,4.73836957 36.1351111,4.61880435 C36.5499259,4.3198913 37.3795556,4.61880435 37.8542222,4.14054348 L37.5579259,2.46663043 C38.3277037,1.86880435 37.9721481,3.06445652 38.2684444,3.30358696" id="Fill-6" fill="#093566"></path>
                            <path d="M42.8912593,3.48293478 C42.8912593,3.90141304 42.7128889,4.37967391 42.2388148,4.37967391 C41.824,4.37967391 41.1721481,4.2601087 40.8171852,4.14054348 C40.9943704,3.66228261 40.7579259,3.24380435 41.0542222,2.82532609 C41.6462222,3.06445652 42.6536296,2.58619565 42.8912593,3.48293478" id="Fill-7" fill="#FFFFFE"></path>
                            <path d="M33.1721481,3.6025 L32.0462222,4.2601087 C32.4017778,5.6351087 33.1721481,6.77097826 33.4684444,8.14597826 L33.1134815,8.20576087 C32.5208889,6.95032609 32.1647407,5.6351087 31.3943704,4.49923913 C30.9795556,4.55902174 30.2684444,5.15684783 30.0314074,4.55902174 C30.9795556,4.08076087 32.0462222,3.66228261 33.0542222,3.30358696 L33.1721481,3.6025" id="Fill-8" fill="#093566"></path>
                            <path d="M48.0462222,3.96119565 C48.7573333,4.67858696 48.3425185,5.81445652 48.2245926,6.71119565 C47.9282963,7.42858696 47.0980741,8.08619565 46.3277037,8.20576087 C45.5579259,8.08619565 44.7277037,7.78728261 44.5499259,7.0101087 C44.3727407,5.6948913 44.669037,4.3198913 45.9128889,3.54271739 C46.6832593,3.36336957 47.4536296,3.24380435 48.0462222,3.96119565" id="Fill-9" fill="#093566"></path>
                            <path d="M47.6906667,4.37967391 C47.986963,4.85793478 48.0462222,5.33619565 47.8684444,5.81445652 C47.6906667,6.53184783 47.1573333,7.48836957 46.3277037,7.54815217 C46.0906667,7.84706522 45.7351111,7.42858696 45.4388148,7.36880435 C44.8462222,6.47206522 45.0832593,5.57532609 45.5579259,4.67858696 C45.9128889,4.02097826 47.2165926,3.6025 47.6906667,4.37967391" id="Fill-10" fill="#FFFFFE"></path>
                            <path d="M50.594963,6.47206522 C50.061037,7.36880435 48.9943704,8.20576087 49.2906667,9.22206522 C49.7060741,9.7601087 50.2388148,9.99923913 50.8314074,9.87967391 C51.7801481,9.1025 52.3128889,7.84706522 53.1425185,6.95032609 C53.3795556,7.0101087 53.5579259,7.18945652 53.3795556,7.42858696 C52.1943704,8.32532609 52.0764444,10.5970652 50.1795556,10.5372826 C49.4684444,10.0590217 48.6388148,9.7601087 48.6980741,8.80358696 C48.9943704,7.42858696 50.1795556,6.3525 50.8314074,5.21663043 C51.5425185,5.6351087 50.6536296,6.05358696 50.594963,6.47206522" id="Fill-11" fill="#093566"></path>
                            <path d="M26.2986667,7.84706522 C25.5277037,7.84706522 25.0536296,7.90684783 24.6388148,8.50467391 C24.6388148,8.92315217 24.8171852,9.34163043 25.2906667,9.34163043 C26.1202963,9.22206522 27.4838519,8.68402174 28.1351111,9.52097826 C28.3128889,9.87967391 28.5499259,10.3579348 28.3128889,10.8361957 C28.0764444,11.3742391 27.7801481,11.7329348 27.1875556,11.9720652 C26.7721481,12.0916304 26.2388148,12.0916304 25.9425185,11.7927174 C25.8832593,11.7329348 25.6462222,11.4938043 25.824,11.3144565 C26.1795556,11.4938043 26.6536296,11.6133696 27.0684444,11.4340217 C27.5425185,11.3742391 27.661037,10.9557609 27.8980741,10.5970652 C27.8980741,10.1188043 27.7202963,9.7601087 27.2462222,9.58076087 C26.2986667,9.64054348 24.9351111,10.4775 24.2245926,9.28184783 C23.9282963,8.50467391 24.4017778,7.90684783 24.9943704,7.48836957 C25.4097778,7.36880435 26.4758519,7.18945652 26.2986667,7.84706522" id="Fill-12" fill="#093566"></path>
                            <path d="M56.8171852,10.1188043 C56.9351111,10.4177174 56.8171852,10.776413 56.6388148,11.0753261 L56.461037,11.0753261 C56.4017778,10.776413 56.5208889,10.4177174 56.2832593,10.1188043 C55.8684444,9.40141304 55.1573333,9.34163043 54.4468148,9.58076087 L54.2091852,9.8198913 L54.1505185,9.7601087 C53.4980741,10.3579348 52.7277037,11.0155435 52.9653333,12.151413 C53.2017778,12.3905435 53.3202963,12.6894565 53.6165926,12.8688043 C54.2091852,13.2275 54.624,12.6296739 55.0394074,12.2709783 C54.8017778,11.9122826 54.4468148,11.6133696 54.1505185,11.3144565 C54.3277037,11.1948913 54.3277037,11.0155435 54.5647407,11.0753261 C54.9795556,11.6133696 55.5721481,11.7329348 55.6906667,12.3905435 C55.0394074,12.8090217 54.5054815,13.9448913 53.4388148,13.4068478 C53.024,13.0481522 52.6091852,12.7492391 52.4314074,12.2709783 C52.1351111,11.4340217 52.669037,10.5970652 53.0832593,9.93945652 C53.6758519,9.28184783 54.861037,8.68402174 55.7499259,8.98293478 C56.2832593,9.1025 56.5208889,9.70032609 56.8171852,10.1188043" id="Fill-13" fill="#093566"></path>
                            <path d="M25.6462222,13.7057609 C25.824,14.4829348 24.9943704,14.901413 24.461037,15.4394565 L23.3357037,15.4394565 L20.5499259,12.7492391 C20.669037,12.6296739 20.669037,12.4503261 20.8462222,12.3307609 C21.9128889,13.2872826 22.5647407,14.4231522 23.8684444,14.901413 C24.5795556,15.0807609 24.6980741,14.4231522 25.1134815,14.1242391 C25.2314074,12.5698913 23.3943704,11.9720652 22.5647407,10.7166304 L22.861037,10.3579348 C23.6906667,11.3144565 25.2906667,12.3307609 25.6462222,13.7057609" id="Fill-14" fill="#093566"></path>
                            <path d="M58.9499259,12.151413 C58.6536296,12.8090217 57.2906667,13.0481522 57.6462222,13.8851087 C58.1202963,14.2438043 58.4758519,15.3198913 59.1875556,15.1405435 C59.6604444,14.8416304 60.0764444,14.0046739 60.669037,14.3633696 L60.669037,14.6025 C59.4838519,15.5590217 58.2388148,16.3959783 57.1134815,17.4122826 C56.9943704,17.1731522 56.5795556,17.2329348 56.7573333,16.8742391 C56.8171852,16.8742391 56.8758519,16.8742391 56.9351111,16.7546739 L56.9351111,16.6351087 C57.4684444,16.3959783 57.9425185,16.0372826 58.3573333,15.6188043 C57.824,15.0209783 57.7060741,14.0644565 56.8171852,13.8851087 L55.2165926,15.0807609 C55.1573333,14.9611957 54.9202963,14.8416304 55.0394074,14.6025 C56.3425185,13.8253261 57.4684444,12.6296739 58.8308148,11.9720652 L58.9499259,12.151413" id="Fill-15" fill="#093566"></path>
                            <path d="M20.5499259,14.4829348 C20.5499259,14.6622826 20.6091852,14.8416304 20.4314074,14.901413 C19.8980741,14.5427174 19.3647407,14.6622826 18.8314074,14.9611957 C18.594963,15.1405435 18.7721481,15.4992391 18.7128889,15.7981522 C19.7202963,16.6351087 22.4468148,15.4394565 21.9721481,17.7709783 C21.7943704,18.428587 21.3795556,18.7275 20.786963,19.026413 C20.1351111,19.2655435 19.661037,18.9068478 19.1875556,18.6079348 C19.2462222,18.4883696 19.1277037,18.3090217 19.3054815,18.2492391 C19.8388148,18.3688043 20.5499259,18.8470652 21.1425185,18.3688043 C21.4980741,18.1894565 21.4980741,17.8307609 21.5579259,17.5318478 C21.4980741,17.1133696 21.2017778,16.7546739 20.7277037,16.7546739 C19.7202963,16.7546739 18.7721481,16.9938043 18.2986667,15.9775 C18.1795556,15.4992391 18.2388148,14.901413 18.6536296,14.4829348 C19.1277037,14.1840217 20.0764444,14.1840217 20.5499259,14.4829348" id="Fill-16" fill="#093566"></path>
                            <path d="M16.8758519,15.6188043 C16.8758519,16.3361957 15.8091852,16.3361957 15.2758519,16.7546739 C15.3943704,17.2927174 15.632,17.7709783 15.9282963,18.2492391 C16.461037,18.0698913 16.8758519,17.651413 17.4684444,17.651413 C17.4097778,18.3090217 16.5208889,18.3090217 16.0462222,18.7275 C16.461037,19.2057609 16.4017778,19.9231522 16.9351111,20.2220652 C17.586963,20.1622826 18.061037,19.4448913 18.7128889,19.5644565 L18.7128889,19.8633696 C18.061037,20.3416304 17.2906667,20.5807609 16.5795556,20.8198913 C15.9282963,19.3851087 15.0980741,18.0698913 14.624,16.5753261 C15.3943704,16.3361957 16.0462222,15.7981522 16.8758519,15.6188043" id="Fill-17" fill="#093566"></path>
                            <path d="M64.5795556,17.053587 C64.2832593,18.2492391 63.7499259,19.3851087 63.632,20.5209783 C64.7567407,19.9829348 65.5277037,19.0861957 66.6536296,18.4883696 C66.8912593,18.4883696 67.0091852,18.7275 67.2462222,18.8470652 C66.4165926,20.1622826 65.4097778,21.4177174 64.4604444,22.6133696 C64.1641481,22.7329348 64.2245926,22.4340217 64.1048889,22.3742391 C64.8758519,21.5372826 65.5277037,20.5209783 66.2382222,19.5046739 L65.8826667,19.5046739 C64.8758519,20.2220652 63.8678519,21.1188043 62.8017778,21.4775 C63.0394074,20.2818478 63.6906667,18.9068478 63.9282963,17.651413 C63.0394074,18.3688043 62.3863704,19.5046739 61.5579259,20.4611957 C61.4382222,20.5209783 61.3202963,20.3416304 61.2011852,20.2818478 L61.2011852,20.1025 L63.986963,16.5753261 C64.2832593,16.6351087 64.4604444,16.8144565 64.5795556,17.053587" id="Fill-18" fill="#093566"></path>
                            <path d="M15.2165926,21.4775 C15.2758519,21.9557609 15.0394074,22.4340217 14.624,22.6731522 C14.0314074,22.8525 13.5579259,22.4340217 13.1425185,22.2546739 C13.2017778,22.0753261 12.9653333,21.9557609 13.2017778,21.8361957 C13.6165926,22.1948913 14.0314074,22.2546739 14.5054815,22.1948913 C14.7431111,22.0155435 14.861037,21.7166304 14.7431111,21.4775 C13.9128889,20.4611957 13.1425185,19.6840217 12.0764444,18.4883696 L12.3128889,18.2492391 C13.3795556,19.3851087 14.4468148,20.1622826 15.2165926,21.4775" id="Fill-19" fill="#093566"></path>
                            <path d="M69.8542222,22.1948913 L67.6017778,26.0209783 C66.8912593,25.7220652 67.6604444,25.2438043 67.7197037,24.8253261 L67.8388148,24.7057609 C67.0678519,24.1677174 66.6536296,22.1948913 65.3493333,23.4503261 L65.053037,23.2111957 C66.4752593,22.4340217 68.1351111,21.8959783 69.7345185,21.2981522 C69.9721481,21.5372826 70.1505185,21.8361957 69.8542222,22.1948913" id="Fill-20" fill="#093566"></path>
                            <path d="M68.1351111,23.9883696 C67.6604444,23.8090217 67.3054815,23.2709783 67.1271111,22.8525 C67.8388148,22.6133696 68.5493333,22.1351087 69.2616296,22.1351087 L68.1351111,23.9883696" id="Fill-21" fill="#FFFFFE"></path>
                            <path d="M48.8758519,26.0807609 C50.0023704,26.3796739 51.4838519,26.6188043 52.7277037,26.4394565 L54.0314074,26.2601087 L54.0314074,48.1405435 C50.5351111,46.2872826 45.9128889,46.2872826 42.7721481,47.0046739 L42.7721481,47.0644565 C40.9943704,47.0644565 39.3943704,49.5753261 37.7351111,47.7220652 C35.0684444,46.1677174 31.5128889,46.1079348 28.5499259,46.9448913 C27.3647407,47.3633696 26.1795556,47.8416304 24.9943704,48.2601087 L24.9351111,26.2601087 C26.2388148,25.9611957 27.8388148,26.1405435 29.2616296,25.7220652 C30.9202963,25.1840217 32.9351111,24.5861957 34.7128889,24.526413 C35.3647407,24.3470652 36.1943704,24.3470652 36.9060741,24.526413 C37.6758519,24.7655435 38.3875556,25.2438043 39.0980741,25.5427174 C41.7647407,23.8090217 45.0832593,24.1677174 47.8091852,25.7818478 C48.1647407,25.901413 48.5795556,25.8416304 48.8758519,26.0807609" id="Fill-22" fill="#FFFFFE"></path>
                            <path d="M11.7202963,26.4992391 C11.8388148,27.276413 11.6017778,27.9340217 11.0684444,28.5318478 C10.0023704,29.1296739 8.81718519,28.651413 7.80918519,28.053587 C7.39437037,27.8144565 7.03940741,27.276413 7.03940741,26.7383696 C7.09807407,26.0807609 7.3357037,25.4829348 7.9282963,25.1242391 C9.23140741,24.5861957 11.0091852,25.303587 11.7202963,26.4992391" id="Fill-23" fill="#093566"></path>
                            <path d="M72.6388148,26.3796739 C72.7567407,27.0372826 73.053037,27.8144565 72.4011852,28.3525 C72.0462222,28.4720652 71.2752593,28.7709783 70.9197037,28.4720652 C70.0900741,27.5155435 69.6165926,29.2492391 68.786963,29.5481522 C68.6085926,29.6079348 68.5493333,29.3688043 68.5493333,29.2492391 C68.9653333,28.4720652 69.5579259,28.053587 70.2091852,27.4557609 C70.1505185,27.0372826 70.1505185,26.4992391 69.6165926,26.4394565 L67.9567407,26.9775 L67.7197037,26.5590217 C69.2011852,26.0209783 70.7431111,25.6622826 72.2245926,25.1840217 L72.6388148,26.3796739" id="Fill-24" fill="#093566"></path>
                            <path d="M11.3054815,26.9177174 C11.3054815,27.4557609 11.1277037,27.9938043 10.594963,28.1731522 C9.94251852,28.2927174 9.34992593,28.053587 8.69807407,27.9340217 C8.46103704,27.5753261 7.69066667,27.4557609 7.57214815,26.9177174 C7.45362963,26.6188043 7.51288889,26.2003261 7.632,25.901413 C8.52088889,25.2438043 9.46844444,25.7818478 10.4165926,25.901413 C10.7721481,26.2003261 11.1875556,26.4394565 11.3054815,26.9177174" id="Fill-25" fill="#FFFFFE"></path>
                            <polyline id="Fill-26" fill="#FFFFFE" points="56.1647407 48.9775 56.1054815 25.8416304 56.8171852 25.5427174 56.8171852 49.1568478 56.1647407 48.9775"></polyline>
                            <path d="M22.8017778,25.901413 L22.861037,49.2166304 C22.5647407,49.2166304 22.386963,49.5753261 22.0906667,49.4557609 L22.0906667,25.7818478 C22.2684444,25.9611957 22.5647407,25.7818478 22.8017778,25.901413" id="Fill-27" fill="#FFFFFE"></path>
                            <path d="M38.4468148,26.1405435 C38.624,26.1405435 37.9721481,26.4992391 38.4468148,26.7383696 C38.3277037,26.7981522 37.9128889,26.4992391 37.7351111,26.9177174 C37.7351111,26.8579348 37.8542222,26.2601087 37.4986667,26.3796739 L37.3795556,26.2601087 C37.7351111,26.3796739 38.0314074,26.1405435 37.9128889,25.7818478 C38.0314074,26.0209783 38.1505185,26.2601087 38.4468148,26.1405435" id="Fill-28" fill="#DC3B41"></path>
                            <path d="M41.1721481,26.3796739 C41.0542222,26.4394565 40.9351111,26.4394565 40.8171852,26.5590217 C40.9351111,26.678587 40.8758519,26.8579348 40.8758519,26.9775 C40.8758519,26.8579348 40.6980741,26.7383696 40.6388148,26.6188043 L40.1054815,26.7981522 C40.3425185,26.5590217 40.3425185,26.2601087 40.1054815,26.0807609 C40.2245926,26.1405435 40.4017778,26.1405435 40.5208889,26.1405435 L40.7579259,25.7818478 C40.5795556,26.1405435 40.9943704,26.3796739 41.1721481,26.3796739" id="Fill-29" fill="#DC3B41"></path>
                            <path d="M72.2245926,26.7981522 C72.3425185,27.1568478 72.2832593,27.5753261 71.986963,27.8742391 C71.5122963,28.2329348 70.9197037,27.8742391 70.8017778,27.3361957 L70.5054815,26.2003261 C71.1573333,25.901413 72.3425185,25.5427174 72.2245926,26.7981522" id="Fill-30" fill="#FFFFFE"></path>
                            <path d="M55.3943704,48.7383696 C55.1573333,48.7981522 54.9795556,48.678587 54.8017778,48.4992391 L54.8017778,26.1405435 C54.9795556,25.9611957 55.1573333,26.0209783 55.3943704,25.901413 L55.3943704,48.7383696" id="Fill-31" fill="#FFFFFE"></path>
                            <path d="M24.0462222,26.2003261 L24.0462222,48.678587 C23.9282963,48.8579348 23.7499259,48.9177174 23.5721481,48.8579348 L23.5721481,26.1405435 C23.6906667,26.2601087 23.8684444,26.2003261 24.0462222,26.2003261" id="Fill-32" fill="#FFFFFE"></path>
                            <path d="M35.6017778,26.7981522 L35.8980741,26.7383696 C36.0171852,26.678587 35.661037,27.2166304 36.0171852,27.3361957 C35.9573333,27.276413 35.7801481,27.276413 35.6017778,27.276413 L35.3054815,27.6351087 C35.3054815,27.3959783 35.3647407,27.0372826 35.0684444,27.0970652 L34.8912593,27.0970652 C35.2462222,27.1568478 35.4245926,26.7383696 35.3054815,26.4394565 C35.3647407,26.5590217 35.5425185,26.678587 35.6017778,26.7981522" id="Fill-33" fill="#DC3B41"></path>
                            <path d="M43.7202963,27.0970652 L43.8388148,27.0970652 C43.6017778,27.0970652 43.424,27.276413 43.3647407,27.5753261 C43.3054815,27.5155435 43.0684444,27.0372826 42.6536296,27.276413 C42.9499259,27.2166304 43.0684444,26.9177174 42.8912593,26.7383696 L42.8314074,26.6188043 C42.9499259,26.678587 43.424,26.9177174 43.4838519,26.4992391 C43.4838519,26.5590217 43.424,27.0372826 43.7202963,27.0970652" id="Fill-34" fill="#DC3B41"></path>
                            <path d="M45.7351111,27.9340217 C45.9128889,27.9938043 45.4388148,28.3525 45.9128889,28.5916304 C45.6758519,28.5318478 45.3202963,28.4720652 45.2616296,28.8905435 C45.3202963,28.5916304 45.1425185,28.2927174 44.9054815,28.2927174 L44.7277037,28.2927174 C44.9653333,28.2329348 45.3202963,28.1133696 45.2017778,27.6948913 C45.2616296,27.9340217 45.5579259,28.1133696 45.7351111,27.9340217" id="Fill-35" fill="#DC3B41"></path>
                            <path d="M33.6468148,28.1731522 L34.0023704,28.4720652 C33.7060741,28.4122826 33.4097778,28.5916304 33.4097778,28.8905435 C33.4097778,28.8905435 33.2314074,28.2927174 32.8171852,28.5318478 C33.1134815,28.4720652 33.1721481,28.053587 33.0542222,27.8742391 C33.2314074,27.8144565 33.2906667,28.2329348 33.4684444,27.9938043 L33.7060741,27.8144565 C33.6468148,27.9340217 33.7647407,28.053587 33.6468148,28.1731522" id="Fill-36" fill="#DC3B41"></path>
                            <path d="M40.6388148,28.2927174 C41.2314074,29.1296739 41.4097778,29.8470652 41.7647407,30.803587 C42.2388148,30.6242391 42.5351111,29.9666304 43.1277037,29.7872826 C43.6017778,29.7275 43.9573333,29.6677174 44.3727407,29.9666304 L44.4906667,29.9068478 C44.6091852,30.2057609 45.024,30.6242391 44.6091852,31.0427174 C44.4314074,31.1025 44.2536296,31.2818478 44.1351111,31.1025 C43.8388148,30.8633696 44.0764444,30.2655435 43.6017778,30.3253261 C43.1277037,30.8633696 43.1277037,31.7601087 42.9499259,32.4775 L42.8314074,35.2872826 C41.7060741,34.8090217 42.5351111,33.3742391 42.4165926,32.4177174 C42.5351111,31.7601087 42.7128889,31.0427174 43.0091852,30.4448913 L42.8912593,30.3253261 C41.7060741,31.3416304 41.6462222,33.0155435 41.824,34.5698913 C41.586963,34.928587 41.3505185,34.3905435 41.1134815,34.3905435 C40.8758519,32.2383696 41.7647407,29.8470652 40.0462222,28.2329348 C39.2764444,27.8144565 38.8017778,28.5318478 38.3875556,29.0101087 C37.8542222,30.5046739 38.0314074,32.5970652 37.9721481,34.3307609 C37.794963,34.4503261 37.6165926,34.5101087 37.4986667,34.6894565 C37.2023704,33.9720652 37.4388148,32.8959783 37.2616296,32.0590217 C37.024,31.4611957 36.9653333,30.6242391 36.2536296,30.3253261 C35.9573333,30.5644565 36.3727407,30.8633696 36.4906667,31.1622826 C36.9060741,32.3579348 36.786963,33.9122826 36.786963,35.0481522 C36.5499259,35.0481522 36.4906667,35.4068478 36.2536296,35.2872826 C36.2536296,33.4340217 36.4314074,31.7601087 35.5425185,30.2655435 C34.9499259,30.2057609 35.3054815,30.6840217 35.1282963,31.0427174 C34.832,31.0427174 34.4758519,31.0427174 34.4165926,30.7438043 C34.1795556,30.4448913 34.5357037,30.2057609 34.594963,29.9666304 C35.3054815,29.3688043 35.9573333,29.8470652 36.6097778,30.0861957 L37.3202963,30.803587 C37.794963,29.8470652 37.9721481,28.1731522 39.3943704,27.8144565 C39.9282963,27.6351087 40.2245926,28.053587 40.6388148,28.2927174" id="Fill-37" fill="#093566"></path>
                            <path d="M6.86103704,29.0101087 C6.80177778,29.428587 6.74311111,29.9068478 6.74311111,30.3851087 L10.7721481,30.9829348 C10.6536296,31.1025 10.7128889,31.2818478 10.7128889,31.4611957 C9.40977778,31.2220652 8.04622222,31.1025 6.624,30.9829348 C6.50548148,31.401413 6.624,32.0590217 6.26844444,32.2383696 L6.09066667,32.2383696 L6.50548148,29.0101087 L6.86103704,29.0101087" id="Fill-38" fill="#093566"></path>
                            <path d="M73.4097778,29.9666304 C73.2900741,30.8633696 72.2245926,30.7438043 71.6906667,31.3416304 L71.8085926,31.7601087 L73.4684444,32.5372826 C73.4097778,32.776413 73.7060741,32.8959783 73.4684444,33.0753261 C71.9282963,32.5372826 70.8017778,31.2818478 68.8456296,31.8796739 C68.786963,31.7601087 68.669037,31.5807609 68.7277037,31.401413 C70.5647407,31.8198913 71.8678519,30.5046739 73.3493333,29.7872826 L73.4097778,29.9666304" id="Fill-39" fill="#093566"></path>
                            <path d="M32.6388148,30.4448913 L32.7573333,30.4448913 C32.6388148,30.5046739 32.5208889,30.6242391 32.4017778,30.7438043 L32.5208889,31.1025 C32.3425185,30.9231522 32.0462222,30.6840217 31.7499259,30.9829348 C31.8091852,30.803587 31.986963,30.7438043 31.9282963,30.5046739 L31.6906667,30.3253261 C31.986963,30.3253261 32.2832593,30.3253261 32.2832593,29.9666304 C32.4017778,30.026413 32.2832593,30.5046739 32.6388148,30.4448913" id="Fill-40" fill="#DC3B41"></path>
                            <path d="M46.8017778,30.3851087 L47.1573333,30.3253261 C46.8017778,30.4448913 46.9795556,30.9231522 47.0394074,31.0427174 C46.861037,30.6840217 46.5054815,31.0427174 46.386963,31.1622826 C46.5054815,31.0427174 46.4468148,30.9231522 46.4468148,30.7438043 C46.3277037,30.6242391 46.1505185,30.6242391 46.0314074,30.4448913 C46.2684444,30.5046739 46.6832593,30.3851087 46.5054815,30.026413 C46.5647407,30.1459783 46.6832593,30.2655435 46.8017778,30.3851087" id="Fill-41" fill="#DC3B41"></path>
                            <path d="M31.986963,32.5970652 L32.2832593,32.5970652 C31.986963,32.776413 31.9282963,33.0753261 32.1054815,33.3144565 C31.9282963,33.3144565 31.8684444,33.0155435 31.632,33.1351087 L31.3943704,33.3144565 C31.3943704,33.1351087 31.5128889,32.776413 31.0980741,32.7166304 C31.4536296,32.776413 31.6906667,32.4775 31.6906667,32.178587 C31.8091852,32.3579348 31.6906667,32.7166304 31.986963,32.5970652" id="Fill-42" fill="#DC3B41"></path>
                            <path d="M47.3357037,32.776413 L47.5721481,32.776413 C47.3357037,32.8361957 47.1573333,33.1351087 47.3357037,33.4340217 C47.0394074,33.1351087 46.8017778,33.1351087 46.5054815,33.3144565 C46.7431111,33.1351087 46.7431111,32.8959783 46.4468148,32.7166304 C46.5647407,32.776413 47.0980741,32.6568478 47.0394074,32.2383696 C47.1573333,32.4177174 47.0394074,32.7166304 47.3357037,32.776413" id="Fill-43" fill="#DC3B41"></path>
                            <path d="M65.2900741,36.9611957 C66.061037,38.0970652 67.4838519,37.7981522 68.3122963,38.6351087 C68.253037,38.9938043 68.3727407,39.4122826 68.1943704,39.7709783 C68.7277037,40.0101087 68.1351111,40.4883696 68.4314074,40.9068478 C68.6085926,41.9231522 68.5493333,43.2981522 68.8456296,44.3742391 C68.5493333,44.9720652 69.2011852,45.5101087 69.0832593,46.2275 L69.024,46.2872826 C67.8388148,45.0318478 67.0091852,44.0753261 65.5863704,43.178587 C64.9351111,43.7166304 64.3425185,44.4938043 63.5715556,44.7927174 L63.5715556,34.151413 C64.1641481,34.9883696 64.8758519,36.0046739 65.2900741,36.9611957" id="Fill-44" fill="#FFFFFE"></path>
                            <path d="M31.5721481,34.6296739 C31.632,34.5101087 31.8091852,34.5698913 31.9282963,34.5698913 C31.5128889,34.7492391 31.7499259,34.9883696 31.8091852,35.2872826 C31.6906667,35.2275 31.4536296,34.8688043 31.2758519,35.2275 L31.0394074,35.4068478 C31.2758519,35.1677174 30.9795556,34.7492391 30.7431111,34.6894565 C31.2165926,34.8688043 31.2165926,34.4503261 31.2758519,34.2111957 C31.3357037,34.3307609 31.3943704,34.5101087 31.5721481,34.6296739" id="Fill-45" fill="#DC3B41"></path>
                            <path d="M47.8091852,34.8688043 C47.6906667,34.928587 47.5721481,34.928587 47.4536296,35.0481522 C47.5721481,35.1677174 47.5128889,35.3470652 47.5128889,35.4666304 C47.5128889,35.3470652 47.3357037,35.2275 47.2165926,35.1079348 L46.7431111,35.2872826 C46.9795556,35.0481522 46.9795556,34.7492391 46.7431111,34.5698913 C46.861037,34.6296739 47.0394074,34.6296739 47.1573333,34.6296739 L47.3943704,34.2709783 C47.2165926,34.6296739 47.632,34.8688043 47.8091852,34.8688043" id="Fill-46" fill="#DC3B41"></path>
                            <path d="M15.6906667,34.5101087 C15.6906667,37.9177174 15.7499259,41.4448913 15.632,44.8525 C14.8017778,44.3144565 14.624,43.5372826 13.6165926,43.3579348 L13.6165926,43.2981522 C13.2017778,42.9992391 12.8462222,43.7166304 12.4906667,43.8959783 L12.4906667,44.0753261 C12.4314074,44.0753261 12.3128889,44.0155435 12.3128889,44.1351087 L12.3128889,44.2546739 C12.1943704,44.2546739 12.1351111,44.2546739 12.0764444,44.3742391 L12.0764444,44.4938043 C12.0165926,44.4938043 11.8980741,44.4938043 11.8388148,44.553587 L11.8388148,44.7329348 C11.7801481,44.7329348 11.7202963,44.6731522 11.661037,44.7927174 L11.661037,44.9122826 C11.6017778,44.9720652 11.5425185,44.9122826 11.4838519,44.8525 C11.3647407,44.9122826 11.4838519,45.0318478 11.424,45.151413 C11.3647407,45.151413 11.3054815,45.0916304 11.3054815,45.0916304 C11.1875556,45.0916304 11.2462222,45.2111957 11.2462222,45.2709783 C11.1277037,45.2709783 11.0684444,45.2709783 11.0091852,45.3307609 C10.8314074,45.5698913 10.5351111,45.8688043 10.4165926,46.1677174 C10.3573333,46.1677174 10.2388148,46.1079348 10.2388148,46.2275 L10.2388148,46.3470652 C10.061037,46.2872826 9.824,46.2275 10.0023704,45.9883696 C10.1202963,43.5372826 10.7128889,41.3851087 10.4758519,38.5753261 C11.6017778,38.0372826 12.9054815,37.678587 13.8542222,36.9611957 L13.7943704,36.8416304 C14.386963,35.9448913 14.9202963,35.1677174 15.5128889,34.3307609 C15.5721481,34.3307609 15.632,34.4503261 15.6906667,34.5101087" id="Fill-47" fill="#FFFFFE"></path>
                            <path d="M41.5277037,36.0046739 C41.586963,36.303587 41.4684444,36.6025 41.1721481,36.7220652 C40.8758519,36.7818478 40.5795556,36.6622826 40.4616296,36.3633696 C40.4017778,36.0644565 40.5208889,35.7655435 40.8171852,35.6459783 C41.1134815,35.5861957 41.4097778,35.7057609 41.5277037,36.0046739" id="Fill-48" fill="#DC3B41"></path>
                            <path d="M38.6838519,36.0644565 C38.7431111,36.3633696 38.624,36.6622826 38.3277037,36.7818478 C38.0314074,36.8416304 37.7351111,36.7220652 37.6165926,36.4231522 C37.5579259,36.1242391 37.6758519,35.8253261 37.9721481,35.7057609 C38.2684444,35.6459783 38.5647407,35.7655435 38.6838519,36.0644565" id="Fill-49" fill="#DC3B41"></path>
                            <path d="M36.9653333,36.4231522 C37.024,36.7220652 36.9060741,37.0209783 36.6097778,37.1405435 C36.3134815,37.2003261 36.0171852,37.0807609 35.8980741,36.7818478 C35.8388148,36.4829348 35.9573333,36.1840217 36.2536296,36.0644565 C36.5499259,36.0046739 36.8462222,36.1242391 36.9653333,36.4231522" id="Fill-50" fill="#DC3B41"></path>
                            <path d="M43.1875556,36.4231522 C43.2462222,36.7220652 43.1277037,37.0209783 42.8314074,37.1405435 C42.5351111,37.2003261 42.2388148,37.0807609 42.1202963,36.7818478 C42.061037,36.4829348 42.1795556,36.1840217 42.4758519,36.0644565 C42.7721481,36.0046739 43.0684444,36.1242391 43.1875556,36.4231522" id="Fill-51" fill="#DC3B41"></path>
                            <path d="M39.4536296,39.1133696 C40.1653333,38.6351087 40.6980741,37.6188043 41.586963,37.678587 C41.9425185,39.053587 41.2314074,41.4448913 43.1277037,42.1622826 L43.2462222,42.0427174 C42.6536296,40.8470652 41.9425185,39.2927174 42.7721481,37.9177174 C42.8912593,37.9177174 43.0091852,37.7383696 43.1875556,37.7981522 C43.7202963,38.3959783 43.0684444,39.1133696 42.8912593,39.651413 C42.7128889,40.428587 42.7721481,41.2655435 43.3647407,41.803587 C43.8388148,41.9231522 44.2536296,41.5644565 44.3727407,42.1025 L44.3128889,42.1622826 C44.5499259,42.5209783 44.8462222,42.1622826 45.0832593,42.1025 C45.2017778,41.8633696 45.4388148,41.7438043 45.4388148,41.4448913 C45.2017778,41.3851087 44.786963,41.4448913 44.669037,41.026413 C44.6091852,40.8470652 44.7277037,40.7275 44.9054815,40.6677174 C45.2616296,40.6677174 45.4388148,40.9068478 45.6165926,41.2057609 C45.7351111,41.6840217 45.4388148,42.1025 44.9653333,42.401413 C44.1351111,42.2818478 43.3647407,43.0590217 42.6536296,42.2818478 C41.6462222,41.1459783 41.0542222,39.5916304 41.0542222,38.2166304 C40.5208889,38.3959783 40.0462222,38.8144565 39.6906667,39.3525 C39.9282963,40.1296739 40.5795556,40.9068478 40.1054815,41.7438043 C39.986963,41.9231522 39.8091852,42.2818478 39.5128889,42.1622826 C39.1573333,42.2220652 39.0394074,41.803587 38.9202963,41.5644565 C38.8017778,40.8470652 38.9801481,40.1296739 39.3943704,39.5318478 C39.2165926,38.8144565 38.6838519,38.5155435 38.0912593,38.1568478 C37.7351111,39.8905435 37.4388148,42.3416304 35.3054815,42.6405435 C34.7128889,42.2818478 33.824,42.4611957 33.4684444,41.6242391 C33.5277037,41.2057609 33.3505185,40.9666304 33.7060741,40.6677174 C33.9431111,40.5481522 34.2986667,40.6079348 34.4165926,40.9068478 C34.3573333,41.2655435 33.9431111,41.3253261 33.6468148,41.3851087 C33.586963,41.7438043 33.9431111,42.0427174 34.1795556,42.1622826 L34.594963,42.2818478 C34.4758519,42.0427174 34.8912593,41.803587 34.9499259,41.6840217 C35.1875556,41.803587 35.4245926,41.7438043 35.661037,41.7438043 C36.2536296,41.2057609 36.3727407,40.3090217 36.1943704,39.5318478 C35.8980741,39.053587 35.5425185,38.5155435 35.7801481,37.8579348 C35.8980741,37.7981522 36.0171852,37.678587 36.1943704,37.7383696 C37.3795556,38.9938043 36.4314074,40.7872826 35.8980741,42.0427174 C36.4314074,42.2220652 36.6097778,41.3851087 37.024,41.2057609 C37.5579259,40.0101087 37.2616296,38.7546739 37.5579259,37.5590217 C38.2684444,37.6188043 38.9202963,38.4557609 39.4536296,39.1133696" id="Fill-52" fill="#093566"></path>
                            <path d="M39.986963,40.7275 C39.9282963,41.2057609 40.0462222,41.7438043 39.632,41.9829348 C39.2165926,42.0427174 39.2165926,41.5644565 39.0980741,41.3253261 C39.1573333,40.7872826 39.2165926,40.1296739 39.632,39.8307609 L39.986963,40.7275" id="Fill-53" fill="#FFFFFE"></path>
                            <path d="M39.632,41.7438043 C38.861037,41.4448913 39.5727407,40.5481522 39.5128889,40.1296739 C39.6906667,40.6079348 40.0462222,41.2655435 39.632,41.7438043" id="Fill-54" fill="#093566"></path>
                            <path d="M39.632,41.4448913 L39.5128889,41.5644565 L39.5128889,40.6079348 C39.632,40.7872826 39.7499259,41.2057609 39.632,41.4448913" id="Fill-55" fill="#FFFFFE"></path>
                            <path d="M32.1054815,41.4448913 C31.8684444,41.803587 31.6906667,42.0427174 31.2758519,42.0427174 C31.2165926,41.8633696 31.0980741,41.7438043 31.2758519,41.5644565 C31.5721481,41.4448913 31.9282963,40.9666304 32.1054815,41.4448913" id="Fill-56" fill="#093566"></path>
                            <path d="M31.986963,41.4448913 C31.8091852,41.6242391 31.5721481,41.9231522 31.2758519,41.9231522 C31.2758519,41.6840217 31.7499259,41.2057609 31.986963,41.4448913" id="Fill-57" fill="#FFFFFE"></path>
                            <path d="M47.5721481,41.803587 C47.4536296,41.5644565 47.1573333,41.5046739 46.9795556,41.5644565 L47.4536296,42.1025 C47.3943704,41.9829348 47.2165926,42.0427174 47.0980741,42.0427174 C46.861037,42.1622826 47.2165926,42.2818478 47.1573333,42.401413 L47.3357037,42.5209783 C46.9202963,42.401413 46.6832593,42.2818478 46.4468148,41.9829348 L47.0980741,41.9231522 C47.2165926,41.5644565 46.5647407,41.6840217 46.861037,41.3253261 C47.0980741,41.5046739 47.5128889,41.5644565 47.5721481,41.803587" id="Fill-58" fill="#093566"></path>
                            <path d="M32.1647407,42.4611957 C32.4017778,42.7601087 32.5208889,42.2818478 32.7573333,42.3416304 C32.9943704,42.7003261 32.2832593,42.7601087 32.1647407,43.0590217 L32.6388148,42.6405435 C32.461037,42.5209783 32.2245926,42.7601087 31.986963,42.7601087 C31.986963,42.5807609 32.2245926,42.401413 32.0462222,42.2818478 L31.632,42.5209783 L32.4017778,41.9231522 C32.5208889,42.1025 32.2832593,42.2818478 32.1647407,42.4611957" id="Fill-59" fill="#093566"></path>
                            <path d="M46.7431111,42.8796739 L46.8017778,43.3579348 C46.5647407,43.0590217 46.0906667,42.7601087 46.2684444,42.3416304 L47.0980741,42.8198913 L46.7431111,42.8796739" id="Fill-60" fill="#093566"></path>
                            <path d="M32.9943704,43.3579348 L33.1134815,43.4775 L33.5277037,43.0590217 C33.3505185,43.3579348 33.1134815,43.5970652 32.8171852,43.8361957 C32.9943704,43.7166304 32.8171852,43.4177174 32.9943704,43.2981522 C32.7573333,43.0590217 32.6388148,43.4177174 32.461037,43.4177174 L33.1721481,42.7003261 C33.1134815,42.8796739 33.0542222,43.1188043 32.9943704,43.3579348" id="Fill-61" fill="#093566"></path>
                            <path d="M46.624,42.7601087 L46.624,42.8198913 L46.4468148,42.7003261 C46.5054815,42.6405435 46.5647407,42.7003261 46.624,42.7601087" id="Fill-62" fill="#FFFFFE"></path>
                            <polyline id="Fill-63" fill="#093566" points="46.5054815 43.5372826 45.7351111 42.8796739 46.3277037 43.3579348 46.5054815 43.5372826"></polyline>
                            <path d="M46.1505185,43.8959783 C46.1505185,43.9557609 45.3202963,43.4775 45.6758519,44.1351087 L45.0832593,43.5372826 C45.2616296,43.4177174 45.3795556,43.178587 45.6165926,43.178587 C45.6758519,43.5970652 46.0314074,43.5372826 46.1505185,43.8959783" id="Fill-64" fill="#093566"></path>
                            <path d="M33.1721481,44.0753261 L33.824,43.3579348 C33.7647407,43.6568478 33.4097778,43.8959783 33.1721481,44.0753261" id="Fill-65" fill="#093566"></path>
                            <path d="M45.6165926,43.7166304 C45.5579259,43.6568478 45.4980741,43.7166304 45.4388148,43.776413 L45.3795556,43.5372826 L45.6165926,43.5372826 L45.6165926,43.7166304" id="Fill-66" fill="#FFFFFE"></path>
                            <path d="M34.3573333,44.9122826 C34.2986667,44.7329348 34.5357037,44.4938043 34.2394074,44.4340217 C34.1795556,44.4340217 34.061037,44.4938043 34.0023704,44.553587 L33.8832593,44.4938043 L34.594963,43.776413 C34.6536296,44.0753261 34.594963,44.4938043 34.3573333,44.9122826" id="Fill-67" fill="#093566"></path>
                            <path d="M45.4388148,44.553587 C45.3202963,44.7329348 45.1425185,44.1351087 44.9653333,44.553587 C45.0832593,44.6133696 45.024,44.7329348 45.024,44.8525 C44.9653333,44.553587 44.6091852,44.1948913 44.7277037,43.8361957 C45.0832593,44.0155435 45.2616296,44.3144565 45.4388148,44.553587" id="Fill-68" fill="#093566"></path>
                            <path d="M34.5357037,44.1948913 L34.4165926,44.1948913 L34.4758519,44.0753261 C34.5357037,44.0753261 34.594963,44.1351087 34.5357037,44.1948913" id="Fill-69" fill="#FFFFFE"></path>
                            <path d="M35.5425185,44.2546739 C35.661037,44.6133696 35.4245926,45.0318478 35.0684444,45.2111957 C34.8912593,45.2709783 34.832,45.0916304 34.7128889,45.0916304 L35.1282963,44.1351087 C35.2462222,44.2546739 35.4245926,44.1351087 35.5425185,44.2546739" id="Fill-70" fill="#093566"></path>
                            <path d="M44.6091852,44.9720652 L44.2536296,44.6133696 L44.1943704,45.0916304 L43.8388148,44.7927174 C43.6017778,45.0318478 44.0165926,45.151413 43.9573333,45.4503261 C43.8388148,45.151413 43.3054815,44.7329348 43.5425185,44.4340217 C43.7202963,44.3742391 43.8980741,44.8525 44.1351111,44.9122826 L44.1351111,44.1948913 C44.3727407,44.3742391 44.4906667,44.7927174 44.6091852,44.9720652" id="Fill-71" fill="#093566"></path>
                            <path d="M35.3054815,44.3742391 C35.3647407,44.6133696 35.3054815,44.8525 35.1282963,45.0916304 L34.8912593,45.0916304 C34.9499259,44.7927174 35.0684444,44.4340217 35.3054815,44.3742391" id="Fill-72" fill="#FFFFFE"></path>
                            <path d="M36.2536296,45.6296739 C36.2536296,45.7492391 36.0171852,45.6894565 35.8980741,45.6894565 L35.8980741,45.3307609 C36.0171852,45.4503261 36.0171852,45.6296739 36.1943704,45.5698913 L36.5499259,44.7329348 C36.5499259,44.9122826 36.4314074,45.3307609 36.2536296,45.6296739" id="Fill-73" fill="#093566"></path>
                            <path d="M43.1875556,45.6894565 C43.0684444,45.6894565 42.9499259,45.2709783 42.6536296,45.4503261 C42.5351111,45.5101087 42.6536296,45.6894565 42.594963,45.8688043 C42.594963,45.5101087 42.0023704,45.0318478 42.5351111,44.7927174 C43.1277037,44.6731522 42.8912593,45.5698913 43.1875556,45.6894565" id="Fill-74" fill="#093566"></path>
                            <path d="M37.2616296,44.9122826 C37.2616296,44.9720652 36.7277037,44.8525 36.9060741,45.2111957 L37.2023704,45.4503261 C37.024,45.2111957 36.786963,45.5101087 36.786963,45.6296739 C36.7277037,45.8090217 36.8462222,45.9883696 36.9653333,45.9883696 C37.024,46.0481522 36.786963,45.8688043 36.669037,45.928587 C36.669037,45.5101087 36.669037,45.2709783 36.9060741,44.8525 L37.2616296,44.9122826" id="Fill-75" fill="#093566"></path>
                            <path d="M42.7721481,45.151413 C42.7128889,45.0318478 42.594963,45.0916304 42.5351111,45.0916304 L42.6536296,44.8525 C42.8314074,44.9122826 42.7128889,45.0318478 42.7721481,45.151413" id="Fill-76" fill="#FFFFFE"></path>
                            <path d="M37.9721481,45.2709783 C37.9721481,45.3307609 37.9721481,44.9720652 37.7351111,45.0916304 C37.5579259,45.3905435 38.4468148,46.2275 37.5579259,46.0481522 C37.4986667,45.9883696 37.3795556,45.9883696 37.3795556,45.8688043 C37.4388148,45.8090217 38.0314074,46.2872826 37.9128889,45.6894565 C37.7351111,45.5101087 37.3795556,45.2709783 37.6165926,44.9720652 C37.8542222,45.0916304 37.9721481,44.8525 38.0314074,45.151413 C38.0912593,45.2111957 38.0314074,45.2709783 37.9721481,45.2709783" id="Fill-77" fill="#093566"></path>
                            <path d="M41.8832593,44.9720652 C41.8832593,45.2111957 41.586963,45.0916304 41.7060741,45.3307609 L41.824,45.5101087 C41.8832593,45.3905435 42.0023704,45.4503261 42.1202963,45.4503261 C42.0023704,45.3905435 41.8832593,45.5101087 41.824,45.5698913 L41.824,45.928587 L42.1202963,45.928587 C42.061037,45.9883696 42.0023704,45.9883696 42.061037,46.0481522 C41.586963,46.0481522 41.7060741,45.2709783 41.586963,44.9720652 L41.8832593,44.9720652" id="Fill-78" fill="#093566"></path>
                            <path d="M41.4097778,45.5101087 C41.2906667,45.8090217 40.7579259,45.7492391 40.9943704,46.1677174 L40.8171852,46.1677174 C41.1721481,45.7492391 40.3425185,44.7329348 41.4097778,45.151413 L41.4097778,45.5101087" id="Fill-79" fill="#093566"></path>
                            <path d="M39.6906667,45.6894565 C39.632,45.5101087 40.0462222,45.3905435 39.8091852,45.2111957 L40.0462222,45.2111957 L40.0462222,46.1677174 L39.986963,45.4503261 C39.7499259,45.5698913 39.7499259,45.928587 39.6906667,46.2275 C39.5727407,45.928587 39.5727407,45.5698913 39.3943704,45.3307609 L39.2764444,46.2275 L39.3357037,45.151413 C39.7499259,45.2111957 39.3357037,45.5101087 39.6906667,45.6894565" id="Fill-80" fill="#093566"></path>
                            <path d="M38.624,46.2275 C39.0394074,45.9883696 38.6838519,45.5101087 38.9202963,45.2111957 C39.0980741,45.5698913 38.861037,45.8688043 38.8017778,46.2275 C38.624,46.2275 38.3277037,46.2275 38.3277037,45.928587 L38.3875556,45.2111957 C38.3875556,45.3905435 38.3277037,45.9883696 38.624,46.2275" id="Fill-81" fill="#093566"></path>
                            <path d="M41.2314074,45.3307609 L41.2314074,45.5101087 L41.0542222,45.5101087 L41.0542222,45.2111957 C41.1134815,45.2111957 41.1721481,45.3307609 41.2314074,45.3307609" id="Fill-82" fill="#FFFFFE"></path>
                            <path d="M37.5579259,48.7383696 L26.7128889,48.7383696 C27.7202963,48.0209783 29.024,47.6622826 30.2684444,47.5427174 C30.4468148,47.2438043 30.7431111,47.4829348 31.0394074,47.303587 C33.2906667,46.9448913 35.4838519,47.8416304 37.5579259,48.7383696" id="Fill-83" fill="#FFFFFE"></path>
                            <path d="M53.1425185,48.7981522 L41.0542222,48.7981522 C42.4758519,47.7818478 44.2536296,47.6622826 45.9721481,47.3633696 C48.1647407,47.303587 51.0684444,47.6025 53.1425185,48.7981522" id="Fill-84" fill="#FFFFFE"></path>
                            <path d="M46.386963,59.7383696 C46.386963,61.5916304 46.624,63.1459783 45.7943704,64.9992391 C46.0314074,65.6568478 45.2017778,66.0155435 45.2616296,66.4938043 C44.4314074,67.3307609 44.1351111,68.4666304 43.2462222,69.1840217 L43.1875556,69.1242391 C42.7721481,69.5427174 42.2986667,70.0209783 41.7647407,70.4992391 C41.2906667,71.0970652 40.0462222,70.9177174 40.1653333,71.9938043 L54.4468148,71.9938043 L54.386963,74.6242391 C53.8542222,74.5644565 53.4388148,74.5046739 53.024,74.4448913 L52.9653333,74.5046739 L48.461037,74.3851087 L48.3425185,74.2057609 C46.0314074,74.2057609 43.1875556,74.026413 40.5208889,74.026413 L40.1653333,74.4448913 L40.1653333,80.7818478 C39.5128889,80.7818478 38.861037,80.1840217 38.2091852,79.9448913 L38.2091852,74.4448913 L38.0314074,74.2655435 L27.6017778,74.026413 L29.6758519,71.9938043 L38.2091852,71.9938043 C38.2091852,65.1188043 38.1505185,58.1840217 38.2684444,51.3090217 C39.632,51.0698913 40.9351111,52.1459783 42.1795556,52.9231522 C44.1351111,54.5372826 45.9721481,56.9883696 46.386963,59.7383696" id="Fill-85" fill="#FFFFFE"></path>
                            <path d="M43.6017778,60.3959783 L44.8462222,62.7872826 L44.6091852,63.2655435 C43.1277037,64.7003261 41.824,66.4340217 40.2245926,67.6894565 L40.2245926,54.7166304 C40.4616296,54.4177174 40.6980741,54.5970652 40.7579259,54.6568478 L43.6017778,60.3959783" id="Fill-86" fill="#DC3B41"></path>
                            <path d="M72.0462222,64.5807609 C73.9419259,63.9829348 76.253037,63.3253261 78.1505185,63.2057609 C78.1505185,63.3253261 78.0308148,63.3253261 77.9721481,63.4448913 L78.0900741,63.5046739 C75.8388148,66.9122826 74.2986667,70.7981522 72.8758519,74.5046739 C72.9937778,74.5644565 72.8758519,74.6840217 72.9351111,74.803587 C72.8758519,74.7438043 72.8171852,74.803587 72.7567407,74.8633696 L72.7567407,75.1025 C70.2091852,73.9068478 67.8388148,72.4122826 65.2314074,71.3959783 C64.7567407,71.7546739 64.3425185,71.9938043 64.1641481,72.4720652 C64.0462222,72.4720652 63.986963,72.4720652 63.9282963,72.5318478 L63.9282963,72.7111957 L63.8085926,72.7111957 C63.5715556,71.3361957 63.632,69.7220652 63.7499259,68.2872826 C65.4684444,65.2981522 67.1271111,62.1296739 69.0832593,59.2601087 C70.2091852,60.9340217 70.861037,62.9666304 72.0462222,64.5807609" id="Fill-87" fill="#FFFFFE"></path>
                            <path d="M12.7277037,62.6079348 C13.7943704,64.7003261 14.6832593,66.9122826 15.5128889,68.9448913 C15.1573333,69.3633696 15.8684444,69.3633696 15.6906667,69.7818478 C15.7499259,70.678587 15.986963,71.5753261 15.6906667,72.651413 C14.9202963,72.2927174 14.2684444,71.4557609 13.6165926,70.9775 C11.1277037,71.6948913 8.81718519,73.3090217 6.38696296,74.5046739 C6.03140741,74.3851087 6.44681481,74.2057609 6.20918519,74.0861957 C4.96533333,70.4394565 3.54251852,67.2111957 1.5277037,63.9231522 C2.00237037,63.7438043 2.77214815,63.9231522 3.36474074,64.0427174 C4.37274074,64.2220652 4.84622222,64.2818478 5.73511111,64.7003261 C5.91288889,64.4611957 6.09066667,64.8796739 6.20918519,64.8796739 C6.56474074,64.7601087 7.03940741,65.1188043 7.39437037,64.7003261 C8.46103704,62.9666304 9.5277037,60.9938043 10.594963,59.3198913 C11.424,60.276413 11.9573333,61.5318478 12.7277037,62.6079348" id="Fill-88" fill="#FFFFFE"></path>
                            <path d="M23.3357037,64.1622826 C22.861037,67.2111957 22.7431111,70.3198913 23.2165926,73.5481522 C22.624,73.8470652 21.9128889,73.428587 21.4388148,73.0698913 C20.0165926,72.1133696 18.8912593,70.2601087 19.0684444,68.4666304 C19.3647407,66.6133696 20.5499259,64.9394565 22.2684444,64.2818478 C22.624,64.2818478 23.0394074,64.0427174 23.3357037,64.1622826" id="Fill-89" fill="#FFFFFE"></path>
                            <path d="M12.0165926,65.3579348 C12.5499259,66.4938043 12.786963,68.1079348 12.0764444,69.303587 C11.7202963,69.4829348 11.9573333,69.9611957 11.6017778,70.1405435 L11.661037,70.2003261 C11.424,70.3198913 11.3054815,70.4394565 11.0091852,70.3796739 C11.2462222,69.6025 11.7202963,68.526413 11.424,67.5698913 C10.8912593,67.928587 10.2388148,68.1677174 9.64622222,67.8090217 C9.05362963,67.0318478 8.28325926,66.0155435 8.81718519,64.9394565 C9.29066667,64.1622826 10.0023704,64.0427174 10.8912593,64.2220652 L12.0165926,65.3579348" id="Fill-90" fill="#093566"></path>
                            <path d="M28.786963,67.928587 C29.1425185,70.2003261 28.0764444,72.2329348 26.4165926,73.3090217 C26.1795556,73.1296739 25.9425185,73.4883696 25.7647407,73.5481522 C25.0536296,73.3090217 25.8832593,72.4720652 25.6462222,71.9340217 C25.9425185,69.4829348 25.9425185,66.8525 25.6462222,64.401413 C27.1875556,64.9394565 28.2536296,66.2546739 28.786963,67.928587" id="Fill-91" fill="#FFFFFE"></path>
                            <path d="M11.0684444,66.6133696 C11.0684444,66.7927174 11.1875556,67.151413 10.8912593,67.151413 C10.0023704,66.7329348 9.70607407,65.6568478 9.64622222,64.7601087 C10.7128889,64.4611957 10.4758519,66.0753261 11.0684444,66.6133696" id="Fill-92" fill="#FFFFFE"></path>
                            <path d="M69.4382222,65.4775 C69.7345185,66.0155435 69.1419259,66.2546739 69.1419259,66.7329348 L68.1351111,67.2111957 C68.4314074,68.1079348 68.669037,68.5861957 68.1351111,69.4231522 C67.5425185,70.2003261 66.8308148,70.4992391 65.9419259,70.3796739 C65.7060741,70.3198913 65.5277037,69.9611957 65.2900741,70.2003261 C65.1134815,69.901413 64.8171852,69.901413 64.6388148,69.6025 C64.5795556,69.3633696 64.7567407,69.1840217 64.9351111,69.1242391 C65.7647407,68.8253261 65.5863704,70.1405435 66.4165926,69.9611957 C66.8912593,69.5427174 67.2462222,68.8851087 67.3054815,68.2275 C67.1875556,67.6894565 66.1202963,67.4503261 66.5345185,66.9720652 C67.0678519,67.2111957 67.6017778,66.7927174 68.016,66.6731522 C68.1351111,66.3144565 68.3727407,65.6568478 67.8388148,65.3579348 C67.5425185,64.8796739 67.2462222,65.3579348 66.8912593,65.2383696 C66.7715556,65.178587 66.7715556,65.0590217 66.7715556,64.9992391 C67.5425185,64.401413 69.1419259,64.4611957 69.4382222,65.4775" id="Fill-93" fill="#093566"></path>
                            <path d="M6.56474074,65.8959783 C7.51288889,67.4503261 7.9282963,69.4231522 9.29066667,70.678587 C9.46844444,70.6188043 9.64622222,70.6188043 9.76474074,70.8579348 L7.74992593,71.9938043 C7.09807407,71.7546739 7.98696296,71.4557609 7.80918519,71.0372826 C7.3357037,69.901413 6.68325926,68.7655435 6.15051852,67.6894565 C5.79496296,67.5698913 5.67585185,68.1677174 5.43881481,67.8090217 C5.26162963,67.2709783 6.20918519,66.8525 5.85422222,66.0753261 C6.09066667,65.9557609 6.26844444,65.5372826 6.56474074,65.8959783" id="Fill-94" fill="#093566"></path>
                            <g id="Group-98" transform="translate(4.148148, 65.760870)">
                                <path d="M69.4974815,1.09163043 L69.6165926,1.27097826 C69.1419259,1.45032609 69.0832593,2.46663043 68.4314074,1.98836957 C68.0764444,2.10793478 67.2462222,1.09163043 67.0091852,1.98836957 C67.6017778,2.82532609 68.4314074,3.6025 68.016,4.73836957 C67.8980741,5.45576087 67.1875556,5.81445652 66.6536296,6.17315217 C66.061037,6.11336957 65.4097778,6.23293478 64.8758519,6.05358696 C64.6974815,5.81445652 64.2832593,5.6948913 64.4011852,5.27641304 C64.6388148,4.9775 64.8758519,5.21663043 65.053037,5.15684783 C65.5277037,5.33619565 65.6456296,6.11336957 66.3573333,5.81445652 C66.8912593,5.51554348 67.2462222,4.79815217 67.0091852,4.14054348 C66.9499259,3.54271739 65.824,2.9448913 65.9419259,2.28728261 L67.7197037,0.493804348 C68.253037,0.792717391 68.786963,1.15141304 69.4974815,1.09163043" id="Fill-95" fill="#093566"></path>
                                <path d="M8.75733333,6.59163043 C8.69807407,9.52097826 9.17214815,11.3742391 9.46844444,13.8253261 C9.40977778,14.7220652 10.2986667,15.4992391 10.061037,16.3959783 C10.594963,17.2329348 10.7721481,18.1296739 11.3054815,18.9666304 C11.0091852,19.3253261 11.8388148,19.4448913 11.424,19.7438043 C12.1351111,20.0427174 11.7202963,20.9394565 12.3727407,21.2383696 C12.1943704,21.776413 13.024,21.8959783 12.8462222,22.4340217 C13.024,22.6133696 13.6165926,23.0318478 13.4980741,23.4503261 C13.7351111,23.928587 14.5647407,24.2275 14.5647407,24.9448913 L14.6832593,24.9448913 L14.624,25.0046739 C15.7499259,26.2607065 17.2906667,27.8150543 18.6536296,29.0107065 L18.7128889,28.9509239 C18.7128889,29.3096196 18.9499259,29.0704891 19.1875556,29.249837 C21.4388148,31.1030978 24.1054815,32.4177174 26.8314074,33.5541848 C27.0091852,33.4346196 27.3647407,33.5541848 27.424,33.7933152 C27.4838519,33.7933152 27.4838519,33.7335326 27.5425185,33.7335326 C27.9573333,34.2111957 28.6091852,33.7933152 29.024,34.2111957 L29.5579259,34.2111957 L29.5579259,34.2709783 C31.986963,34.8688043 34.7721481,34.8688043 37.3202963,34.749837 L37.4388148,34.8688043 C37.8542222,34.6302717 38.386963,34.749837 38.7431111,34.5101087 L38.861037,34.6302717 C39.7499259,34.2111957 40.5795556,34.4509239 41.4097778,34.0324457 C42.2986667,34.0324457 43.0091852,33.4346196 43.8980741,33.4346196 C44.3727407,33.0753261 44.7277037,32.8965761 45.3202963,32.8367935 C45.4388148,32.6574457 45.6165926,32.597663 45.7943704,32.5378804 L45.8542222,32.6574457 C46.386963,32.0596196 46.9202963,32.178587 47.5721481,31.7009239 C49.3499259,30.5650543 51.6017778,29.428587 53.3795556,27.6948913 C53.3795556,27.5161413 53.4388148,27.2770109 53.6758519,27.3959783 C54.861037,26.2003261 56.2832593,24.8253261 57.2314074,23.151413 C57.8826667,22.9122826 57.5863704,22.1351087 58.2382222,21.776413 C58.2382222,21.3579348 58.594963,21.0590217 58.6536296,20.7003261 L58.7128889,20.7601087 C59.0091852,20.2818478 59.3641481,19.4448913 59.4838519,18.9666304 C60.016,18.428587 59.8980741,17.9503261 60.3122963,17.3525 C60.4314074,16.9340217 60.3122963,16.5155435 60.7277037,16.0970652 C60.7277037,15.6188043 60.9048889,14.9611957 61.1419259,14.4829348 C61.2011852,13.4068478 61.6165926,12.5101087 61.4974815,11.4340217 C61.6165926,10.5372826 61.6165926,9.7601087 61.7937778,9.04271739 C61.4974815,8.4448913 61.6758519,7.7275 61.7345185,7.12967391 C64.9351111,8.74380435 67.4838519,10.0590217 70.6826667,11.6133696 C70.6234074,12.0318478 70.5647407,12.8090217 70.5054815,13.2872826 L70.5054815,13.4666304 L70.4468148,13.4666304 C70.3271111,14.4231522 70.0308148,15.678587 69.8542222,16.6351087 C69.8542222,16.8144565 69.8542222,16.9340217 69.7345185,16.9938043 C69.9721481,17.2329348 69.4974815,17.3525 69.5579259,17.5318478 C69.2011852,18.7275 68.9048889,20.0427174 68.253037,21.2383696 C67.7801481,22.8525 67.1271111,24.4068478 66.061037,25.722663 L66.1202963,25.7824457 C65.9419259,26.2003261 65.7060741,26.6194022 65.3493333,26.8585326 C65.4097778,27.0372826 65.2900741,27.3959783 65.053037,27.5161413 C64.5795556,28.472663 63.632,29.0107065 63.2752593,29.9672283 C59.7197037,34.2709783 55.0394074,38.2770109 50.061037,40.2492391 C49.4684444,40.5481522 48.6980741,40.8470652 48.0462222,41.1459783 C39.9282963,44.1954891 29.2616296,44.4340217 21.3202963,40.6085326 C17.0536296,38.9346196 13.0832593,35.8857065 9.76474074,32.5378804 C9.64622222,32.4177174 9.76474074,31.999837 9.40977778,32.0596196 C9.40977778,31.999837 9.46844444,31.9400543 9.46844444,31.9400543 C9.05362963,31.8198913 8.99437037,31.3422283 8.63881481,31.1030978 C7.57214815,30.0861957 6.74311111,29.0704891 5.97214815,27.6948913 C5.67585185,27.4563587 5.3202963,26.9780978 5.37955556,26.6791848 C4.78696296,26.2607065 4.78696296,25.4835326 4.19437037,25.0644565 C4.13511111,24.4666304 3.54251852,23.9883696 3.36474074,23.4503261 C3.66103704,22.8525 2.71288889,22.7927174 2.94992593,22.1948913 C2.71288889,21.5372826 2.53511111,20.9992391 2.23881481,20.401413 L2.29866667,20.3416304 C1.824,20.1622826 2.06103704,19.5046739 1.76474074,19.2057609 C1.70607407,18.9068478 1.46844444,18.3688043 1.40977778,17.9503261 C0.757925926,15.7383696 0.342518519,13.4068478 0.224592593,11.1351087 C3.06844444,9.52097826 5.91288889,8.02641304 8.75733333,6.59163043" id="Fill-97" fill="#FFFFFE"></path>
                            </g>
                            <path d="M29.6758519,76.5970652 L27.1277037,78.9883696 C26.1795556,78.0318478 25.6462222,76.8361957 24.9943704,75.7003261 L24.9943704,74.9829348 C26.7721481,74.9829348 28.3727407,75.401413 29.6758519,76.5970652" id="Fill-99" fill="#FFFFFE"></path>
                            <path d="M27.7801481,75.9394565 C28.0165926,76.2383696 28.1943704,76.7166304 27.8980741,77.0155435 C27.661037,77.4340217 27.2462222,77.4938043 26.8314074,77.553587 C26.4758519,77.3144565 26.1202963,77.3742391 26.0023704,76.8959783 C26.0023704,76.4177174 26.1202963,75.7601087 26.7128889,75.7003261 C27.1277037,75.7003261 27.4838519,75.7601087 27.7801481,75.9394565" id="Fill-100" fill="#DC3B41"></path>
                            <path d="M40.1653333,82.9340217 C35.7801481,83.3525 31.8091852,82.2166304 28.4906667,79.8851087 L28.4314074,79.7057609 L30.9202963,77.1948913 L40.1653333,81.7981522 L40.1653333,82.9340217" id="Fill-101" fill="#FFFFFE"></path>
                            <path d="M10.594963,78.0916304 C11.0684444,78.7492391 11.5425185,79.7057609 11.0684444,80.6025 C10.5351111,80.5427174 10.061037,81.2601087 9.76474074,80.4829348 C9.88325926,80.0644565 10.1202963,80.4231522 10.3573333,80.1840217 C10.8912593,80.0046739 10.7128889,79.526413 10.7128889,79.1677174 C9.40977778,78.4503261 7.9282963,79.2872826 6.56474074,79.526413 C6.3277037,79.7655435 6.03140741,80.0644565 6.15051852,80.4829348 C6.44681481,81.2003261 7.57214815,80.5427174 7.632,81.2601087 C7.09807407,81.4992391 6.56474074,81.678587 6.09066667,81.2601087 C5.67585185,80.6622826 5.61659259,79.8851087 5.85422222,79.1079348 C6.80177778,77.7329348 8.99437037,77.3742391 10.594963,78.0916304" id="Fill-102" fill="#093566"></path>
                            <path d="M72.9937778,78.3307609 C73.1721481,78.7492391 72.7567407,79.1079348 72.4011852,79.2275 C72.1641481,79.0481522 71.7499259,79.1079348 71.6906667,78.6894565 C71.7499259,78.3307609 71.8085926,77.9122826 72.2245926,77.9122826 C72.5208889,77.8525 72.8758519,77.9720652 72.9937778,78.3307609" id="Fill-103" fill="#093566"></path>
                            <path d="M68.8456296,79.7057609 C68.4906667,80.0046739 67.6604444,79.6459783 67.3641481,80.2438043 C67.3054815,80.5427174 67.3641481,80.901413 67.7197037,80.901413 C68.9048889,80.9611957 69.4974815,79.8851087 70.6234074,79.7655435 C71.0980741,79.7057609 71.3943704,79.7655435 71.8678519,79.9448913 C72.2832593,80.1840217 72.5208889,80.7220652 72.5208889,81.0807609 C72.4011852,81.6188043 72.2245926,82.5155435 71.632,82.6948913 L70.4468148,82.3959783 C70.3271111,81.5590217 71.6906667,82.3361957 71.986963,81.4992391 C72.2245926,81.2003261 71.9282963,80.7818478 71.632,80.7818478 C69.9128889,80.6622826 68.5493333,83.1133696 67.0678519,81.2003261 C66.8308148,80.901413 67.0091852,80.4829348 66.9499259,80.2438043 C66.9499259,79.6459783 67.3641481,79.526413 67.7197037,79.1079348 C68.0764444,79.4068478 69.024,79.0481522 68.8456296,79.7057609" id="Fill-104" fill="#093566"></path>
                            <path d="M51.8388148,80.0644565 C51.8980741,80.303587 51.7202963,80.5427174 51.5425185,80.7220652 C48.7573333,81.1405435 46.0906667,82.0372826 43.3647407,82.3959783 C43.7801481,82.2166304 44.6091852,81.9775 45.3202963,81.7981522 C47.4536296,81.2003261 49.4097778,80.6025 51.4838519,80.0644565 L51.8388148,80.0644565" id="Fill-105" fill="#FFFFFE"></path>
                            <path d="M12.7277037,84.3688043 C12.4314074,84.7275 12.0165926,84.6677174 11.7202963,84.8470652 C10.8912593,84.3090217 12.7277037,83.7111957 11.6017778,83.1133696 L10.061037,83.7111957 C10.0023704,83.8307609 10.1202963,84.1894565 10.3573333,84.1894565 C10.5351111,84.0698913 10.8912593,84.1894565 10.9499259,84.428587 C10.6536296,84.9666304 9.88325926,85.0861957 9.29066667,85.2057609 C9.11348148,84.6677174 10.061037,84.4883696 9.5277037,83.9503261 C8.93511111,84.1296739 7.9282963,84.0101087 7.632,84.8470652 C7.74992593,85.1459783 7.98696296,85.3253261 8.22459259,85.4448913 C8.46103704,85.2655435 8.69807407,85.5046739 8.93511111,85.5046739 C8.81718519,85.5644565 9.23140741,85.9231522 8.87585185,86.0427174 C8.57955556,85.9829348 8.16474074,86.2220652 7.80918519,86.2220652 C7.27585185,85.3253261 7.09807407,84.3090217 6.624,83.3525 C7.03940741,83.2927174 7.39437037,83.5916304 7.80918519,83.2927174 L11.1277037,82.0372826 L11.4838519,81.4992391 L12.7277037,84.3688043" id="Fill-106" fill="#093566"></path>
                            <path d="M51.6017778,81.7981522 C51.3647407,81.8579348 51.661037,82.2166304 51.4838519,82.2166304 L51.3647407,82.1568478 C51.3054815,82.1568478 51.3054815,82.276413 51.3054815,82.3361957 L46.3277037,83.7709783 C45.7351111,84.0101087 45.2616296,83.4122826 44.7277037,83.2329348 L44.7277037,82.9938043 C46.9795556,82.4557609 49.2906667,82.0970652 51.5425185,81.5590217 L51.6017778,81.7981522" id="Fill-107" fill="#FFFFFE"></path>
                            <polyline id="Fill-108" fill="#FFFFFE" points="30.1505185 81.9775 30.5054815 82.276413 30.1505185 81.9775"></polyline>
                            <path d="M41.9425185,82.6948913 C41.586963,82.8144565 41.2906667,82.8144565 40.9943704,82.7546739 L40.9943704,82.276413 C41.4097778,82.0970652 41.6462222,82.5155435 41.9425185,82.6948913" id="Fill-109" fill="#FFFFFE"></path>
                            <polyline id="Fill-110" fill="#FFFFFE" points="30.624 82.3361957 30.7431111 82.3361957 30.624 82.3361957"></polyline>
                            <path d="M40.1653333,83.8307609 C40.1054815,84.2492391 40.4616296,85.1459783 39.6906667,84.9666304 C37.1425185,85.0861957 34.6536296,84.3090217 32.4017778,83.3525 C31.8684444,83.1133696 31.1573333,83.053587 30.9202963,82.3959783 C33.7060741,83.651413 37.0832593,83.7709783 40.1653333,83.8307609" id="Fill-111" fill="#FFFFFE"></path>
                            <path d="M51.3054815,83.1133696 C51.1277037,84.1894565 51.1875556,85.3851087 50.4758519,86.1025 C49.4097778,85.4448913 48.2832593,85.1459783 47.1573333,84.3688043 C48.2832593,83.7111957 49.7647407,83.5916304 50.9499259,83.053587 L51.3054815,83.1133696" id="Fill-112" fill="#FFFFFE"></path>
                            <path d="M44.6091852,84.0101087 C44.1943704,84.4883696 43.0091852,84.4883696 42.1795556,84.7275 C41.824,84.7872826 41.3505185,84.7872826 40.9943704,84.7872826 C40.4616296,83.5916304 41.7060741,83.5318478 42.4758519,83.4720652 C43.3054815,83.2927174 44.0165926,83.4720652 44.6091852,84.0101087" id="Fill-113" fill="#FFFFFE"></path>
                            <path d="M66.5345185,84.0698913 C67.7197037,84.6677174 69.024,85.2655435 70.1505185,85.8633696 C70.4468148,85.7438043 70.6234074,85.803587 70.861037,85.803587 C70.6826667,86.2818478 70.4468148,87.1188043 70.0308148,87.5372826 C69.6165926,86.8198913 68.8456296,86.5209783 68.0764444,86.2818478 C67.9567407,86.5807609 67.6017778,86.7601087 67.7197037,87.178587 C68.4314074,87.4177174 69.1419259,88.3144565 69.9128889,87.7166304 C69.9128889,88.3742391 69.4382222,88.9720652 69.2011852,89.6296739 L68.9048889,89.6296739 C69.0832593,88.9122826 68.253037,89.0318478 67.9567407,88.6133696 C66.6536296,88.4340217 65.7060741,87.0590217 64.3425185,87.4775 C64.2832593,87.2981522 64.3425185,86.9992391 64.5795556,86.8796739 C64.7567407,86.4611957 64.8758519,85.5644565 65.4097778,85.6840217 C65.4097778,86.401413 66.4752593,86.5807609 67.0678519,86.8796739 C67.3641481,86.7601087 67.4234074,86.401413 67.4838519,86.1025 C66.9499259,85.6242391 66.178963,85.026413 65.4097778,85.3851087 L65.2900741,85.1459783 L66.061037,83.4720652 C66.4752593,83.4122826 66.4165926,83.8307609 66.5345185,84.0698913" id="Fill-114" fill="#093566"></path>
                            <path d="M71.5715556,84.1296739 C71.632,84.4883696 71.3943704,84.7872826 71.0980741,84.8470652 C70.7431111,84.8470652 70.3271111,84.7275 70.2684444,84.3688043 C70.2091852,83.8905435 70.5647407,83.5318478 70.978963,83.4720652 C71.2752593,83.651413 71.632,83.7709783 71.5715556,84.1296739" id="Fill-115" fill="#093566"></path>
                            <path d="M40.1653333,93.6948913 C39.9282963,94.17375 39.2764444,94.3525 38.7431111,94.17375 C38.2684444,94.053587 38.2091852,93.5759239 38.2091852,93.1568478 L38.2091852,85.5644565 C38.861037,85.7438043 39.632,85.6242391 40.2245926,85.5046739 L40.1653333,93.6948913" id="Fill-116" fill="#FFFFFE"></path>
                            <path d="M13.8542222,86.7601087 C13.4980741,87.6568478 12.9653333,88.553587 12.3727407,89.3905435 C13.0832593,89.6296739 13.4388148,88.7927174 14.0906667,88.6731522 C14.3277037,88.4340217 14.0906667,88.2546739 14.2684444,87.9557609 C14.6832593,87.8959783 14.7431111,88.4340217 14.9795556,88.553587 C14.861037,88.7329348 15.2758519,89.151413 14.8017778,89.2111957 L14.5054815,88.9720652 C13.1425185,89.5101087 11.9573333,90.4666304 10.6536296,91.1242391 C10.5351111,91.1846196 10.4165926,91.1846196 10.3573333,91.2444022 L10.1202963,91.0046739 C10.8912593,89.8090217 11.4838519,88.6133696 12.1351111,87.3579348 L12.0165926,87.2383696 C11.1875556,87.6568478 10.1795556,88.1351087 9.5277037,88.8525 C9.5277037,89.0318478 9.5277037,89.3307609 9.29066667,89.3307609 C8.93511111,89.0916304 8.75733333,88.6731522 8.63881481,88.2546739 C8.81718519,87.8959783 8.99437037,88.3144565 9.17214815,88.3144565 L12.8462222,86.2220652 C12.9653333,86.0427174 12.9054815,85.6242391 13.2017778,85.5644565 L13.8542222,86.7601087" id="Fill-117" fill="#093566"></path>
                            <path d="M17.7060741,92.3802717 C17.2906667,92.4992391 17.2906667,93.0378804 16.7573333,92.9183152 C16.5795556,92.5590217 17.2314074,92.1411413 16.6980741,91.8422283 C15.5128889,92.7389674 14.386963,93.6357065 13.3795556,94.5916304 L13.3795556,94.9503261 C12.669037,94.8905435 12.4314074,93.9346196 11.9573333,93.5759239 L12.669037,93.5161413 C13.7351111,92.6194022 14.861037,91.722663 15.9282963,90.8253261 C15.8091852,90.1079348 14.7431111,91.1242391 14.9202963,90.2872826 L15.632,89.6894565 C16.2832593,90.6459783 17.2314074,91.3633696 17.7060741,92.3802717" id="Fill-118" fill="#093566"></path>
                            <path d="M63.4536296,91.3633696 C62.978963,91.5433152 62.2091852,90.7057609 61.7345185,91.42375 C61.8542222,93.0970652 63.9282963,93.6948913 64.9937778,94.5916304 C65.2900741,94.4128804 65.7060741,94.472663 65.7647407,93.9938043 C65.7647407,93.5759239 65.3493333,93.3959783 65.1721481,93.1568478 L65.2314074,93.0970652 C65.1721481,92.9780978 65.1134815,92.9780978 64.9937778,92.9780978 L65.4097778,92.5590217 C65.824,92.7981522 66.1202963,93.2172283 66.4165926,93.5161413 C66.2382222,94.3525 65.4684444,95.1302717 64.6388148,95.3096196 C64.0462222,95.2492391 63.4536296,95.0704891 62.861037,94.9503261 C61.7937778,94.053587 60.7277037,92.9780978 61.0832593,91.6025 C61.4382222,91.0644565 62.0900741,90.4068478 62.7431111,90.3470652 C62.9197037,90.5861957 63.4536296,91.0046739 63.4536296,91.3633696" id="Fill-119" fill="#093566"></path>
                            <path d="M19.3647407,93.9938043 C20.0165926,94.2927174 20.3128889,94.7715761 20.5499259,95.3694022 C20.669037,95.9672283 20.4906667,96.6840217 19.8388148,97.1030978 L18.8314074,97.1030978 C18.594963,98.0596196 17.8832593,98.9563587 18.061037,99.9720652 C17.586963,99.5541848 17.1721481,99.1954891 16.7573333,98.8965761 C17.4684444,98.3585326 17.4684444,97.4020109 17.9425185,96.7438043 L17.6462222,96.5052717 C17.2314074,97.0427174 16.3425185,97.4617935 16.5795556,98.29875 L16.4017778,98.4775 C15.986963,98.0596196 15.4536296,97.5215761 14.9795556,97.0427174 L15.5721481,96.8639674 C16.5795556,95.8470652 17.7060741,94.8905435 18.4165926,93.5759239 L18.2986667,93.4557609 C18.7721481,92.9183152 18.8912593,93.9346196 19.3647407,93.9938043" id="Fill-120" fill="#093566"></path>
                            <path d="M59.6017778,94.17375 C60.6085926,95.1894565 61.5579259,96.4448913 62.5647407,97.3416304 L63.0394074,97.3416304 C62.7431111,97.999837 62.0900741,98.3585326 61.4974815,98.8361957 C61.3795556,98.597663 61.4382222,98.29875 61.4382222,98.0596196 L58.8308148,95.0704891 C58.6536296,94.8905435 58.2388148,95.1894565 58.1795556,94.9503261 C58.2986667,94.472663 59.0678519,94.053587 59.5425185,93.5759239 C60.0764444,93.6357065 59.3641481,93.9346196 59.6017778,94.17375" id="Fill-121" fill="#093566"></path>
                            <path d="M19.7202963,95.0107065 C19.5425185,95.5481522 19.1875556,95.7872826 18.7721481,96.2661413 C18.5351111,96.2063587 18.4758519,96.3259239 18.2388148,96.0861957 C18.5351111,95.6683152 19.1277037,94.2927174 19.7202963,95.0107065" id="Fill-122" fill="#FFFFFE"></path>
                            <path d="M56.4017778,96.5052717 C55.8684444,96.8041848 56.3425185,97.222663 56.5208889,97.5215761 C57.3499259,98.4775 57.9425185,99.9128804 58.9499259,100.510707 C59.3641481,100.211793 59.2462222,99.7329348 59.1875556,99.3150543 L59.0678519,99.2552717 C59.1271111,99.0161413 59.4838519,99.0161413 59.5425185,98.776413 C60.016,99.0161413 59.7801481,99.7329348 60.253037,100.031848 C59.5425185,100.510707 58.6536296,101.407446 57.6462222,101.825326 C57.586963,101.825326 57.5277037,101.706359 57.4684444,101.706359 C57.6462222,101.526413 57.7060741,101.108533 57.586963,100.988967 L55.2165926,97.7607065 C55.0394074,97.5807609 54.5054815,97.7607065 54.5647407,97.4020109 C55.2165926,97.1628804 55.5128889,96.5650543 56.1647407,96.3259239 L56.4017778,96.5052717" id="Fill-123" fill="#093566"></path>
                            <path d="M23.9282963,97.5215761 C23.5721481,97.7009239 23.986963,97.9394565 23.7499259,98.178587 C23.5128889,98.178587 23.7499259,98.5372826 23.5721481,98.6574457 C23.0394074,100.031848 22.5647407,101.586793 22.3277037,102.842228 C21.8542222,102.483533 21.1425185,102.18462 20.8462222,101.706359 C21.5579259,101.526413 21.6165926,100.928587 21.8542222,100.330761 C21.6758519,100.031848 21.3795556,99.8530978 21.0832593,99.6731522 C20.669037,99.9128804 20.4314074,100.152011 20.1351111,100.569891 C20.4314074,100.749837 20.1351111,101.04875 20.1351111,101.28788 L20.0165926,101.407446 C19.8388148,100.988967 19.0091852,101.108533 19.1875556,100.569891 C20.2536296,100.270978 20.7277037,99.0753261 21.5579259,98.597663 C22.0314074,97.9394565 22.6832593,97.7009239 23.0394074,96.9829348 C23.3357037,97.0427174 23.7499259,97.1628804 23.9282963,97.5215761" id="Fill-124" fill="#093566"></path>
                            <path d="M22.0906667,99.5541848 C21.7351111,99.5541848 21.7351111,99.3742391 21.4980741,99.2552717 L22.2684444,98.4775 C22.3277037,98.7172283 22.2684444,99.2552717 22.0906667,99.5541848" id="Fill-125" fill="#FFFFFE"></path>
                            <path d="M27.7202963,99.6139674 C27.6017778,99.6731522 27.5425185,99.8530978 27.424,99.8530978 L27.3647407,99.7933152 C26.594963,101.04875 25.8832593,102.423152 25.4684444,103.857935 C25.586963,104.156848 25.8832593,103.917717 26.061037,104.097663 C26.2986667,103.79875 26.594963,103.440054 27.0684444,103.499837 C27.3647407,103.679185 27.1277037,104.156848 27.0091852,104.396576 L26.4165926,104.93462 C25.586963,104.575924 24.6388148,104.03788 23.7499259,103.559022 C23.8684444,103.440054 23.9282963,103.200924 24.2245926,103.319891 C25.1134815,102.064457 25.5277037,100.629674 26.061037,99.2552717 L25.7647407,98.8965761 C26.2388148,98.4183152 26.8912593,99.1954891 27.3647407,99.2552717 C27.424,99.4340217 27.661037,99.3742391 27.7202963,99.6139674" id="Fill-126" fill="#093566"></path>
                            <path d="M54.7431111,100.330761 C54.9795556,101.2275 55.5128889,102.304185 55.0394074,103.319891 C54.4468148,103.978098 53.7943704,104.277011 52.9054815,104.03788 C51.8388148,103.440054 50.9499259,102.304185 50.7128889,101.04875 C50.8314074,100.270978 50.7721481,100.092228 51.0684444,99.4340217 C51.424,99.1351087 51.6017778,98.7172283 52.0764444,98.6574457 C53.2616296,98.5372826 54.2091852,99.3742391 54.7431111,100.330761" id="Fill-127" fill="#093566"></path>
                            <path d="M54.2091852,102.423152 C54.2684444,102.902011 54.2091852,103.260109 53.7943704,103.440054 C52.9054815,103.020978 52.669037,102.005272 52.2536296,101.108533 C51.9573333,100.629674 51.7202963,99.9720652 51.8388148,99.4944022 C52.1351111,99.0753261 52.4906667,99.3150543 52.7277037,99.5541848 C53.3202963,100.510707 53.6758519,101.407446 54.2091852,102.423152" id="Fill-128" fill="#FFFFFE"></path>
                            <path d="M49.0536296,101.2275 C49.5277037,102.423152 49.7060741,103.978098 50.2986667,104.93462 C50.4758519,104.994402 50.7721481,104.994402 50.6536296,105.293315 C50.061037,105.532446 49.3499259,105.711196 48.7573333,105.711196 C49.4097778,104.93462 48.461037,104.156848 48.461037,103.440054 C48.2245926,103.380272 47.8091852,103.499837 47.5128889,103.679185 C47.5721481,104.396576 47.7499259,105.472663 48.5208889,105.891141 C48.1054815,106.010109 47.0394074,106.488967 46.5054815,106.309022 C46.861037,105.11337 45.9721481,103.917717 45.9128889,102.782446 C45.6758519,102.36337 45.6758519,101.706359 45.2017778,101.646576 L44.9653333,101.407446 C45.4980741,101.108533 46.2684444,101.04875 46.861037,100.749837 C47.2758519,101.04875 46.7431111,101.28788 46.8017778,101.646576 C46.9202963,102.18462 46.9795556,102.722065 47.3943704,103.141141 C47.632,103.081359 47.9282963,103.020978 48.1647407,102.902011 C48.2245926,102.124239 47.8684444,101.2275 47.1573333,100.749837 L49.1134815,100.152011 C49.586963,100.450924 48.5795556,100.749837 49.0536296,101.2275" id="Fill-129" fill="#093566"></path>
                            <path d="M35.3054815,102.064457 C35.1875556,102.423152 35.3647407,102.902011 35.0684444,103.141141 C34.832,103.260109 34.7128889,102.961196 34.594963,102.902011 C34.8912593,102.662283 34.3573333,102.18462 34.5357037,102.064457 C34.5357037,101.706359 34.061037,101.765543 33.7647407,101.765543 C32.9943704,102.961196 32.6388148,104.396576 32.6980741,105.831359 C32.8171852,106.010109 33.0542222,106.369402 33.3505185,106.369402 C33.824,106.429185 34.0023704,105.891141 34.1795556,105.592228 C34.061037,105.3525 34.3573333,105.3525 34.4758519,105.233533 C34.8912593,105.412283 34.594963,105.831359 34.7128889,106.070489 C34.594963,106.488967 34.3573333,106.728098 34.0023704,106.847065 C33.0542222,106.728098 31.8684444,106.728098 31.5721481,105.592228 C31.2758519,104.21663 31.4536296,102.961196 32.3425185,101.825326 C33.1134815,100.928587 34.7721481,101.04875 35.3054815,102.064457" id="Fill-130" fill="#093566"></path>
                            <path d="M44.2536296,102.005272 C44.0165926,102.244402 44.3727407,102.543315 44.0165926,102.662283 C43.661037,102.662283 43.661037,101.765543 43.1277037,102.124239 C43.1277037,103.440054 43.3054815,104.874837 43.5425185,106.190054 L44.0165926,106.668315 C43.4838519,106.967228 42.594963,106.967228 41.9425185,106.967228 C41.8832593,106.728098 42.1795556,106.668315 42.2388148,106.548152 C42.1795556,105.233533 42.1202963,103.559022 41.7060741,102.18462 C41.4097778,102.36337 41.1721481,102.603098 41.2314074,102.902011 L40.7579259,102.902011 L40.6980741,101.945489 C41.7647407,101.706359 42.9499259,101.706359 44.0165926,101.46663 C44.1351111,101.646576 44.0165926,101.885707 44.2536296,102.005272" id="Fill-131" fill="#093566"></path>
                            <path d="M39.0394074,104.277011 C39.3357037,105.11337 39.2165926,106.429185 39.986963,107.027011 C39.3943704,107.266141 38.5054815,107.266141 37.9128889,107.027011 C38.4468148,106.78788 38.2684444,105.950326 38.2091852,105.472663 C38.0314074,105.053587 37.5579259,105.293315 37.2616296,105.233533 C36.786963,105.472663 36.9653333,106.190054 36.8462222,106.548152 C36.9060741,106.607935 37.2023704,106.78788 37.1425185,107.027011 L35.9573333,107.027011 C35.7801481,106.607935 36.3727407,106.548152 36.3727407,106.190054 C36.786963,104.695489 37.0832593,103.260109 37.5579259,101.825326 C39.2165926,101.407446 38.4468148,103.499837 39.0394074,104.277011" id="Fill-132" fill="#093566"></path>
                            <path d="M37.9128889,104.575924 L37.2616296,104.635707 L37.5579259,103.559022 C37.8542222,103.738967 37.794963,104.277011 37.9128889,104.575924" id="Fill-133" fill="#FFFFFE"></path>
                        </g>
                    </g>
                </g>
            </g>
        </g>
    </g>
</svg>