<svg id="Layer_1" xmlns="http://www.w3.org/2000/svg" xmlns:xlink="http://www.w3.org/1999/xlink" viewBox="0 0 512 186.8"><style>.st0,.st1{clip-path:url(#SVGID_2_);fill:#fff}.st1{clip-path:url(#SVGID_4_)}.st2,.st3{clip-path:url(#SVGID_6_);fill:#fff}.st3{clip-path:url(#SVGID_8_)}.st4,.st5{clip-path:url(#SVGID_10_);fill:#fff}.st5{clip-path:url(#SVGID_12_)}.st6,.st7{clip-path:url(#SVGID_14_);fill:#fff}.st7{clip-path:url(#SVGID_16_)}.st8,.st9{clip-path:url(#SVGID_18_);fill:#fff}.st9{clip-path:url(#SVGID_20_)}.st10,.st11{clip-path:url(#SVGID_22_);fill:#fff}.st11{clip-path:url(#SVGID_24_)}.st12,.st13{clip-path:url(#SVGID_26_);fill:#fff}.st13{clip-path:url(#SVGID_28_)}.st14,.st15{clip-path:url(#SVGID_30_);fill:#fff}.st15{clip-path:url(#SVGID_32_)}.st16,.st17{clip-path:url(#SVGID_34_);fill:#fff}.st17{clip-path:url(#SVGID_36_)}.st18,.st19{clip-path:url(#SVGID_38_);fill:#fff}.st19{clip-path:url(#SVGID_40_)}.st20,.st21{clip-path:url(#SVGID_42_);fill:#fff}.st21{clip-path:url(#SVGID_44_)}.st22,.st23{clip-path:url(#SVGID_46_);fill:#fff}.st23{clip-path:url(#SVGID_48_)}.st24,.st25{clip-path:url(#SVGID_50_);fill:#fff}.st25{clip-path:url(#SVGID_52_)}.st26,.st27{clip-path:url(#SVGID_54_);fill:#fff}.st27{clip-path:url(#SVGID_56_)}.st28,.st29{clip-path:url(#SVGID_58_);fill:#fff}.st29{clip-path:url(#SVGID_60_)}.st30,.st31{clip-path:url(#SVGID_62_);fill:#fff}.st31{clip-path:url(#SVGID_64_)}.st32,.st33{clip-path:url(#SVGID_66_);fill:#fff}.st33{clip-path:url(#SVGID_68_)}.st34,.st35{clip-path:url(#SVGID_70_);fill:#fff}.st35{clip-path:url(#SVGID_72_)}.st36,.st37{clip-path:url(#SVGID_74_);fill:#fff}.st37{clip-path:url(#SVGID_76_)}.st38,.st39{clip-path:url(#SVGID_78_);fill:#fff}.st39{clip-path:url(#SVGID_80_)}.st40,.st41{clip-path:url(#SVGID_82_);fill:#fff}.st41{clip-path:url(#SVGID_84_)}.st42{fill:none;stroke:#fff;stroke-width:1.3935;stroke-miterlimit:10}.st43{clip-path:url(#SVGID_86_);fill:#fff}.st44,.st45{clip-path:url(#SVGID_88_);fill:#fff}.st45{clip-path:url(#SVGID_90_)}.st46,.st47{clip-path:url(#SVGID_92_);fill:#fff}.st47{clip-path:url(#SVGID_94_)}.st48{clip-path:url(#SVGID_96_);enable-background:new}.st49{clip-path:url(#SVGID_98_)}.st50{clip-path:url(#SVGID_100_)}.st51{clip-path:url(#SVGID_102_);fill:#fff}.st52,.st53{clip-path:url(#SVGID_104_);fill:#fff}.st53{clip-path:url(#SVGID_106_)}</style><defs><path id="SVGID_1_" d="M371.9 147.8l-.8-1.9-.8 1.9h1.6zm-1.1-2.8h.7l2 4.7h-.8l-.5-1.1h-2.1l-.5 1.1h-.8l2-4.7z"/></defs><clipPath id="SVGID_2_"><use xlink:href="#SVGID_1_" overflow="visible"/></clipPath><path class="st0" d="M355.2 131.4h31.9v31.9h-31.9z"/><defs><path id="SVGID_3_" d="M373.5 145h.5l.7 2.2.7-2.2h.5v4.7h-.5v-3.4l-.7 2.2-.8-2.2v3.4h-.4z"/></defs><clipPath id="SVGID_4_"><use xlink:href="#SVGID_3_" overflow="visible"/></clipPath><path class="st1" d="M359.9 131.4h29.6v31.9h-29.6z"/><defs><path id="SVGID_5_" d="M378.2 145h2.3v.7h-1.7v1.2h1.5v.8h-1.5v1.2h1.7v.8h-2.3z"/></defs><clipPath id="SVGID_6_"><use xlink:href="#SVGID_5_" overflow="visible"/></clipPath><path class="st2" d="M364.6 131.4h29.6v31.9h-29.6z"/><defs><path id="SVGID_7_" d="M384.1 147.3c.3 0 .6-.3.6-.8s-.2-.8-.6-.8h-.7v1.6h.7zm-1.2-2.3h1.2c.3 0 .6.2.8.5.1.3.2.6.2 1 0 .8-.3 1.2-.7 1.4l.7 1.8h-.6l-.5-1.7h-.6v1.6h-.5V145z"/></defs><clipPath id="SVGID_8_"><use xlink:href="#SVGID_7_" overflow="visible"/></clipPath><path class="st3" d="M369.3 131.4h29.6v31.9h-29.6z"/><defs><path id="SVGID_9_" d="M385.2 145h.9v4.7h-.9z"/></defs><clipPath id="SVGID_10_"><use xlink:href="#SVGID_9_" overflow="visible"/></clipPath><path class="st4" d="M371.6 131.4h28.1v31.9h-28.1z"/><defs><path id="SVGID_11_" d="M387.6 147.3c0-1.3.5-2.4 1.3-2.4.5 0 .8.3 1 .7l-.3.6c-.2-.3-.4-.6-.7-.6-.5 0-.8.7-.8 1.6 0 .9.4 1.6.8 1.6.3 0 .5-.2.7-.6l.3.5c-.3.5-.6.8-1 .8-.8.2-1.3-.9-1.3-2.2"/></defs><clipPath id="SVGID_12_"><use xlink:href="#SVGID_11_" overflow="visible"/></clipPath><path class="st5" d="M374 131.4h29.6v31.9H374z"/><defs><path id="SVGID_13_" d="M395.4 147.8l-.8-1.9-.8 1.9h1.6zm-1.2-2.8h.7l2 4.7h-.8l-.5-1.1h-2.1l-.5 1.1h-.8l2-4.7z"/></defs><clipPath id="SVGID_14_"><use xlink:href="#SVGID_13_" overflow="visible"/></clipPath><path class="st6" d="M378.7 131.4h31.9v31.9h-31.9z"/><defs><path id="SVGID_15_" d="M397 145h.4l1.4 3.2V145h.5v4.7h-.4l-1.5-3.4v3.4h-.4z"/></defs><clipPath id="SVGID_16_"><use xlink:href="#SVGID_15_" overflow="visible"/></clipPath><path class="st7" d="M383.3 131.4h29.6v31.9h-29.6z"/><defs><path id="SVGID_17_" d="M401.6 145h.5l1.4 3.2V145h.5v4.7h-.4l-1.5-3.4v3.4h-.5z"/></defs><clipPath id="SVGID_18_"><use xlink:href="#SVGID_17_" overflow="visible"/></clipPath><path class="st8" d="M388 131.4h29.6v31.9H388z"/><defs><path id="SVGID_19_" d="M407.6 147.9v-2h.6v2c0 .7.3 1 .8 1s.8-.3.8-1v-2h.6v2c0 1-.6 1.6-1.4 1.6-.9-.1-1.4-.6-1.4-1.6"/></defs><clipPath id="SVGID_20_"><use xlink:href="#SVGID_19_" overflow="visible"/></clipPath><path class="st9" d="M394 132.2h30V163h-30z"/><defs><path id="SVGID_21_" d="M412.9 147.6c.4 0 .7-.2.7-.6 0-.4-.3-.6-.7-.6h-.8v1.2h.8zm-1.4-1.8h1.5c.4 0 .7.1.9.4.2.2.3.4.3.8 0 .6-.3.9-.8 1.1l.9 1.3h-.7l-.8-1.2h-.7v1.2h-.6v-3.6z"/></defs><clipPath id="SVGID_22_"><use xlink:href="#SVGID_21_" overflow="visible"/></clipPath><path class="st10" d="M397.9 132.2h30v30.7h-30z"/><defs><path id="SVGID_23_" d="M415 148.8l.3-.4c.3.3.6.5 1 .5s.6-.2.6-.4c0-.3-.1-.4-.7-.5-.7-.2-1.1-.4-1.1-1s.5-1 1.1-1c.5 0 .9.2 1.2.4l-.3.5c-.3-.2-.6-.4-.9-.4-.3 0-.5.2-.5.4 0 .3.1.4.8.5.7.2 1.1.4 1.1 1 0 .7-.5 1-1.2 1-.5 0-1-.2-1.4-.6"/></defs><clipPath id="SVGID_24_"><use xlink:href="#SVGID_23_" overflow="visible"/></clipPath><path class="st11" d="M401.4 132.2h29.8V163h-29.8z"/><defs><path id="SVGID_25_" d="M418 145h2.4v.7h-1.8v1.2h1.6v.8h-1.6v1.2h1.8v.8H418z"/></defs><clipPath id="SVGID_26_"><use xlink:href="#SVGID_25_" overflow="visible"/></clipPath><path class="st12" d="M404.4 131.4H434v31.9h-29.6z"/><defs><path id="SVGID_27_" d="M423.7 148.8l.4-.4c.3.3.7.5 1.1.5.4 0 .6-.2.6-.4 0-.3-.1-.4-.8-.5-.7-.2-1.2-.4-1.2-1s.5-1 1.2-1c.5 0 .9.2 1.3.4l-.3.5c-.3-.2-.6-.4-.9-.4-.4 0-.6.2-.6.4 0 .3.2.4.8.5.7.2 1.1.4 1.1 1 0 .7-.5 1-1.2 1-.6 0-1.1-.2-1.5-.6"/></defs><clipPath id="SVGID_28_"><use xlink:href="#SVGID_27_" overflow="visible"/></clipPath><path class="st13" d="M410.1 132.2H440V163h-29.9z"/><defs><path id="SVGID_29_" d="M429.2 147.6c0-1 .7-1.8 1.8-1.8.6 0 1 .2 1.4.5l-.4.5c-.3-.3-.6-.4-1-.4-.7 0-1.2.6-1.2 1.2 0 .7.5 1.2 1.2 1.2.4 0 .7-.2 1-.5l.4.4c-.4.4-.8.6-1.4.6-1 .1-1.8-.7-1.8-1.7"/></defs><clipPath id="SVGID_30_"><use xlink:href="#SVGID_29_" overflow="visible"/></clipPath><path class="st14" d="M415.6 132.2H446V163h-30.4z"/><defs><path id="SVGID_31_" d="M435 147.6c.4 0 .7-.2.7-.6 0-.4-.3-.6-.7-.6h-.9v1.2h.9zm-1.6-1.8h1.6c.4 0 .8.1 1 .4.2.2.3.4.3.8 0 .6-.3.9-.8 1.1l.9 1.3h-.7l-.9-1.2h-.8v1.2h-.6v-3.6z"/></defs><clipPath id="SVGID_32_"><use xlink:href="#SVGID_31_" overflow="visible"/></clipPath><path class="st15" d="M419.8 132.2H450v30.7h-30.2z"/><defs><path id="SVGID_33_" d="M436.8 145h2.3v.7h-1.7v1.2h1.5v.8h-1.5v1.2h1.7v.8h-2.3z"/></defs><clipPath id="SVGID_34_"><use xlink:href="#SVGID_33_" overflow="visible"/></clipPath><path class="st16" d="M423.2 131.4h29.6v31.9h-29.6z"/><defs><path id="SVGID_35_" d="M440.1 148.9c.5 0 .9-.7.9-1.6 0-.9-.4-1.6-.9-1.6h-.5v3.2h.5zm-1-3.9h1c.8 0 1.4 1 1.4 2.3 0 1.3-.6 2.3-1.4 2.3h-1V145z"/></defs><clipPath id="SVGID_36_"><use xlink:href="#SVGID_35_" overflow="visible"/></clipPath><path class="st17" d="M425.5 131.4h29.6v31.9h-29.6z"/><g><defs><path id="SVGID_37_" d="M443.8 145h2.4v.7h-1.8v1.2h1.6v.8h-1.6v1.2h1.8v.8h-2.4z"/></defs><clipPath id="SVGID_38_"><use xlink:href="#SVGID_37_" overflow="visible"/></clipPath><path class="st18" d="M430.2 131.4h29.6v31.9h-29.6z"/></g><g><defs><path id="SVGID_39_" d="M448.5 145h.5l1.4 3.2V145h.5v4.7h-.4l-1.5-3.4v3.4h-.5z"/></defs><clipPath id="SVGID_40_"><use xlink:href="#SVGID_39_" overflow="visible"/></clipPath><path class="st19" d="M434.9 131.4h29.6v31.9h-29.6z"/></g><g><defs><path id="SVGID_41_" d="M454.1 145.7h-.9v-.7h2.4v.7h-1v4h-.5z"/></defs><clipPath id="SVGID_42_"><use xlink:href="#SVGID_41_" overflow="visible"/></clipPath><path class="st20" d="M439.6 131.4h29.6v31.9h-29.6z"/></g><g><defs><path id="SVGID_43_" d="M455.6 145h.9v4.7h-.9z"/></defs><clipPath id="SVGID_44_"><use xlink:href="#SVGID_43_" overflow="visible"/></clipPath><path class="st21" d="M441.9 131.4H470v31.9h-28.1z"/></g><g><defs><path id="SVGID_45_" d="M461 147.8l-.8-1.9-.8 1.9h1.6zm-1.1-2.8h.7l2 4.7h-.8l-.5-1.1h-2.1l-.5 1.1h-.8l2-4.7z"/></defs><clipPath id="SVGID_46_"><use xlink:href="#SVGID_45_" overflow="visible"/></clipPath><path class="st22" d="M444.3 131.4h31.9v31.9h-31.9z"/></g><g><defs><path id="SVGID_47_" d="M462.6 145h.6v3.9h1.7v.8h-2.3z"/></defs><clipPath id="SVGID_48_"><use xlink:href="#SVGID_47_" overflow="visible"/></clipPath><path class="st23" d="M449 131.4h29.6v31.9H449z"/></g><g><defs><path id="SVGID_49_" d="M467.3 145h.9v4.7h-.9z"/></defs><clipPath id="SVGID_50_"><use xlink:href="#SVGID_49_" overflow="visible"/></clipPath><path class="st24" d="M453.7 131.4h28.1v31.9h-28.1z"/></g><g><defs><path id="SVGID_51_" d="M467.3 145h.4l1.5 3.2V145h.4v4.7h-.4l-1.5-3.4v3.4h-.4z"/></defs><clipPath id="SVGID_52_"><use xlink:href="#SVGID_51_" overflow="visible"/></clipPath><path class="st25" d="M453.7 131.4h29.6v31.9h-29.6z"/></g><g><defs><path id="SVGID_53_" d="M472.2 147.6c0-1 .8-1.8 1.9-1.8.7 0 1.1.2 1.4.5l-.4.5c-.3-.2-.6-.4-1-.4-.7 0-1.2.6-1.2 1.2 0 .7.5 1.2 1.3 1.2.4 0 .7-.1.9-.3v-.7h-1v-.5h1.6v1.5c-.4.3-.9.5-1.6.5-1.1.1-1.9-.7-1.9-1.7"/></defs><clipPath id="SVGID_54_"><use xlink:href="#SVGID_53_" overflow="visible"/></clipPath><path class="st26" d="M458.6 132.2h30.7V163h-30.7z"/></g><g><defs><path id="SVGID_55_" d="M478.8 147.6c0-1 .8-1.8 1.9-1.8.7 0 1.1.2 1.5.5l-.4.5c-.3-.3-.6-.4-1-.4-.7 0-1.2.6-1.2 1.2 0 .7.5 1.2 1.2 1.2.5 0 .8-.2 1.1-.5l.4.4c-.4.4-.8.6-1.5.6-1.2.1-2-.7-2-1.7"/></defs><clipPath id="SVGID_56_"><use xlink:href="#SVGID_55_" overflow="visible"/></clipPath><path class="st27" d="M465.2 132.2h30.6V163h-30.6z"/></g><g><defs><path id="SVGID_57_" d="M483.7 145h2.3v.7h-1.8v1.2h1.6v.8h-1.6v1.2h1.8v.8h-2.3z"/></defs><clipPath id="SVGID_58_"><use xlink:href="#SVGID_57_" overflow="visible"/></clipPath><path class="st28" d="M470.1 131.4h29.6v31.9h-29.6z"/></g><g><defs><path id="SVGID_59_" d="M486 145h.5l1.4 3.2V145h.5v4.7h-.4l-1.5-3.4v3.4h-.5z"/></defs><clipPath id="SVGID_60_"><use xlink:href="#SVGID_59_" overflow="visible"/></clipPath><path class="st29" d="M472.4 131.4H502v31.9h-29.6z"/></g><g><defs><path id="SVGID_61_" d="M491.6 145.7h-.9v-.7h2.4v.7h-1v4h-.5z"/></defs><clipPath id="SVGID_62_"><use xlink:href="#SVGID_61_" overflow="visible"/></clipPath><path class="st30" d="M477.1 131.4h29.6v31.9h-29.6z"/></g><g><defs><path id="SVGID_63_" d="M495.4 145h2.3v.7H496v1.2h1.5v.8H496v1.2h1.7v.8h-2.3z"/></defs><clipPath id="SVGID_64_"><use xlink:href="#SVGID_63_" overflow="visible"/></clipPath><path class="st31" d="M481.8 131.4h29.6v31.9h-29.6z"/></g><g><defs><path id="SVGID_65_" d="M500.2 146.8c.4 0 .7-.2.7-.6 0-.4-.3-.6-.7-.6h-.9v1.2h.9zm-1.5-1.7h1.6c.4 0 .8.1 1 .4.2.2.3.4.3.8 0 .6-.3.9-.8 1.1l1 1.3h-.7l-.9-1.2h-.8v1.2h-.6v-3.6z"/></defs><clipPath id="SVGID_66_"><use xlink:href="#SVGID_65_" overflow="visible"/></clipPath><path class="st32" d="M485.1 131.5h30.2v30.7h-30.2z"/></g><g><defs><path id="SVGID_67_" d="M442.3 133.1c.1 0 .1-.1.1-.1l-2-5.5c-.1-.3-.2-.3-.3 0l-1.8 5.5c0 .1 0 .1.1.1h3.9zm-2.2-8.2c.2-.7.3-.8.5-.8.1 0 .2.1.5.7.3.8 3.6 9.2 4.8 12.3.7 1.8 1.3 2.1 1.8 2.3.3.1.6.1.8.1.1 0 .2 0 .2.1s-.2.2-.4.2H445c-.4 0-.6 0-.6-.1s.1-.1.1-.1c.1 0 .2-.2.1-.6l-1.9-5c0-.1-.1-.1-.2-.1H438c-.1 0-.2.1-.2.2l-1.2 3.6c-.2.5-.3 1-.3 1.4 0 .4.4.6.8.6h.2c.1 0 .2 0 .2.1s-.1.2-.3.2c-.5 0-1.4-.1-1.6-.1-.2 0-1.4.1-2.3.1-.3 0-.4 0-.4-.2 0-.1.1-.1.2-.1h.6c1-.1 1.4-.9 1.7-1.9l4.7-12.9z"/></defs><clipPath id="SVGID_68_"><use xlink:href="#SVGID_67_" overflow="visible"/></clipPath><path class="st33" d="M419.2 110.5h43v43h-43z"/></g><g><defs><path id="SVGID_69_" d="M452.3 137c0 1.7.2 2.2.8 2.4.4.1.8.1 1 .1.1 0 .2 0 .2.1s-.1.2-.4.2c-1.2 0-2-.1-2.2-.1-.2 0-1.1.1-2 .1-.2 0-.3 0-.3-.2 0-.1.1-.1.2-.1.2 0 .5 0 .9-.1.5-.1.6-.7.6-2.6v-11.7c0-.8.1-1 .2-1 .2 0 .5.5.7.7.3.3 3.4 3.6 6.6 7 2.1 2.2 4.3 4.7 5 5.3l-.2-10.4c0-1.3-.2-1.8-.8-1.9-.4-.1-.9-.1-1-.1-.1 0-.2-.1-.2-.1 0-.1.2-.1.4-.1.9 0 1.9.1 2.2.1.2 0 .9-.1 1.8-.1.2 0 .4 0 .4.1s-.1.1-.2.1-.3 0-.5.1c-.7.1-.8.6-.8 1.8v12c0 1.4 0 1.5-.2 1.5s-.4-.2-1.5-1.3c-.2-.2-3.2-3.2-5.4-5.5-2.4-2.6-4.8-5.1-5.4-5.9l.1 9.6z"/></defs><clipPath id="SVGID_70_"><use xlink:href="#SVGID_69_" overflow="visible"/></clipPath><path class="st34" d="M435.8 110.5h43.9v43.1h-43.9z"/></g><g><defs><path id="SVGID_71_" d="M471.6 137.9c-2-1.8-2.5-4.1-2.5-6.1 0-1.4.5-3.8 2.3-5.6 1.2-1.2 3.1-2.2 6.3-2.2.8 0 2 .1 3 .2.8.1 1.5.3 2.1.3.2 0 .3.1.3.2 0 .2-.1.4-.1 1.1 0 .7 0 1.8-.1 2.1 0 .3-.1.4-.2.4s-.2-.1-.2-.4c0-.8-.3-1.6-.9-2.1-.7-.6-2.3-1.2-4.2-1.2-2.8 0-4 .8-4.8 1.5-1.5 1.4-1.9 3.3-1.9 5.3 0 3.9 3.1 7.5 7.5 7.5 1.6 0 2.8-.2 3.6-1 .4-.5.7-1.4.8-1.7 0-.2.1-.3.2-.3s.1.1.1.3c0 .1-.3 1.9-.5 2.6-.1.4-.2.4-.5.6-.8.3-2.4.5-3.7.5-2.8.2-4.9-.5-6.6-2"/></defs><clipPath id="SVGID_72_"><use xlink:href="#SVGID_71_" overflow="visible"/></clipPath><path class="st35" d="M455.5 110.5h41.3v43.3h-41.3z"/></g><g><defs><path id="SVGID_73_" d="M488.2 137.9c-2-1.8-2.5-4.1-2.5-6.1 0-1.4.5-3.8 2.3-5.6 1.2-1.2 3.1-2.2 6.3-2.2.8 0 2 .1 3 .2.8.1 1.5.3 2.1.3.2 0 .3.1.3.2 0 .2-.1.4-.1 1.1 0 .7 0 1.8-.1 2.1 0 .3-.1.4-.2.4s-.2-.1-.2-.4c0-.8-.3-1.6-.9-2.1-.7-.6-2.3-1.2-4.2-1.2-2.8 0-4 .8-4.8 1.5-1.5 1.4-1.9 3.3-1.9 5.3 0 3.9 3.1 7.5 7.5 7.5 1.6 0 2.8-.2 3.6-1 .4-.5.7-1.4.8-1.7 0-.2.1-.3.2-.3s.1.1.1.3c0 .1-.3 1.9-.5 2.6-.1.4-.2.4-.5.6-.8.3-2.4.5-3.7.5-2.8.2-4.9-.5-6.6-2"/></defs><clipPath id="SVGID_74_"><use xlink:href="#SVGID_73_" overflow="visible"/></clipPath><path class="st36" d="M472.1 110.5h41.3v43.3h-41.3z"/></g><g><defs><path id="SVGID_75_" d="M421.1 132.4c-1.4 1.1-2.6 2.7-4.9 4.1-3.4 2.1-7.8 1.5-10.9.8 4.2-.6 7.7-2.6 12.4-3.8-3.1-.4-4.5-.3-11.2-3 5.9-.8 10.4.8 14.6 1.9m-25.2 4.4c4.4-.7 7.6-2 11.4-2.8-2.8-1-4.7-.8-10.2-3.7 6.2-.4 9.6 2.6 14.7 3.3-1.5.8-3.4 1.8-5.8 2.8-3.5 1.3-7 1-10.1.4m-9.8-2.3c3.8.1 8.7-1 12.1-.8-3.8-1.4-6.2-3.8-8.3-5.2 1.6.2 4 1 5.8 2.1 1.9 1.1 3.4 2.5 5.4 3.5-2.4.7-4.6 1.7-7 1.8-2.4.1-5.5-.4-8-1.4m3.4-2.7c-2.9-1.8-4.3-3.7-6.3-5.1 2.1.5 4 1.5 5.5 2.6 1.4 1.1 1.5 1.6 4.8 3.6-2.2 0-4.5.8-6.7.5-2.1-.3-3.7-1.1-5.8-2.6 3.5.8 5.7 1.2 8.5 1m-3.3-1.3c-2.9-.2-7.6-1.6-10.7-2.9 4.1-.4 7.7 0 10.7 2.9m38.7-1.5c2.2.9 3.7 2.2 5.1 3.2V124h-60.7l5.3 7.8-5.8 7.8H430v-6.7c-3.6 1.2-7.4 3.8-11.7 4.4 4.1-4.4 6.3-4.2 9.3-5.1-4.5-1.3-9-1.9-13.4-2.1 3.8-1.2 6.9-2.6 10.7-1.1"/></defs><clipPath id="SVGID_76_"><use xlink:href="#SVGID_75_" overflow="visible"/></clipPath><path class="st37" d="M355.2 110.4h88.5v42.7h-88.5z"/></g><g><defs><path id="SVGID_77_" d="M282.3 150.4h1V143l5.9 7.4h.8v-9h-1v7.2l-5.7-7.2h-1v9zm-7.2-.8c-2.1 0-3.6-1.7-3.6-3.7s1.5-3.7 3.6-3.7 3.6 1.7 3.6 3.7c-.1 2-1.5 3.7-3.6 3.7zm-.1.9c2.8 0 4.7-2.2 4.7-4.7s-1.9-4.6-4.6-4.6c-2.8 0-4.7 2.2-4.7 4.6 0 2.6 1.9 4.7 4.6 4.7zm-8.3-.1h1v-9h-1v9zm-6.5 0h1v-8h3.1v-.9h-7.2v.9h3.1v8zm-10.2-3.3l2.1-4.6 2.1 4.6H250zm-2.5 3.3h1.1l1.1-2.4h5l1.1 2.4h1.1l-4.2-9.1h-1l-4.2 9.1zm-6-8.1c2.3 0 3.8 1.6 3.8 3.6s-1.5 3.5-3.8 3.5h-2.1v-7.1h2.1zm-3.2 8.1h3.2c2.9 0 4.8-2 4.8-4.5s-2-4.5-4.8-4.5h-3.2v9zm-10.7 0h1V143l5.9 7.4h.8v-9h-1v7.2l-5.7-7.2h-1v9zm-6.6.1c2.3 0 3.8-1.4 3.8-4v-5.1h-1v5.2c0 2-1.1 3-2.8 3-1.7 0-2.8-1.1-2.8-3v-5.2h-1v5.2c0 2.5 1.5 3.9 3.8 3.9zm-10.9-.9c-2.1 0-3.6-1.7-3.6-3.7s1.5-3.7 3.6-3.7 3.6 1.7 3.6 3.7-1.5 3.7-3.6 3.7zm0 .9c2.8 0 4.7-2.2 4.7-4.7s-1.9-4.6-4.6-4.6c-2.8 0-4.7 2.2-4.7 4.6 0 2.6 1.8 4.7 4.6 4.7zm-13-.1h1v-3.9h4.9v-.9h-4.9v-3.2h5.5v-.9H197v8.9z"/></defs><clipPath id="SVGID_78_"><use xlink:href="#SVGID_77_" overflow="visible"/></clipPath><path class="st38" d="M183.5 127.6h120.1v36.5H183.5z"/></g><g><defs><path id="SVGID_79_" d="M324.6 136.2c1.8 0 3.1-1 3.1-2.5 0-1.4-.9-2.1-3-2.5-2-.4-2.5-.9-2.5-1.7 0-.8.8-1.5 1.9-1.5.9 0 1.8.3 2.6 1l.6-.8c-.9-.7-1.9-1.1-3.2-1.1-1.7 0-3 1-3 2.5s1 2.1 3.1 2.6c1.9.4 2.4.9 2.4 1.7 0 .9-.8 1.5-2 1.5-1.3 0-2.2-.4-3.1-1.3l-.6.7c1 .9 2.2 1.4 3.7 1.4zm-11.9-.2h6.7v-.9h-5.6V132h5v-1h-5v-3h5.6v-1h-6.6v9zm-5.2.2c1.8 0 3.1-1 3.1-2.5 0-1.4-.9-2.1-3-2.5-2-.4-2.5-.9-2.5-1.7 0-.8.8-1.5 1.9-1.5.9 0 1.8.3 2.6 1l.6-.8c-.9-.7-1.9-1.1-3.2-1.1-1.7 0-3 1-3 2.5s1 2.1 3.1 2.6c1.9.4 2.4.9 2.4 1.7 0 .9-.8 1.5-2 1.5-1.3 0-2.2-.4-3.1-1.3l-.6.7c1.1.9 2.3 1.4 3.7 1.4zm-11.5-4.6V128h2.8c1.5 0 2.3.7 2.3 1.8 0 1.2-1 1.8-2.3 1.8H296zm-1 4.4h1v-3.5h2.6l2.6 3.5h1.3l-2.8-3.7c1.4-.3 2.5-1.1 2.5-2.6 0-.7-.3-1.3-.7-1.8-.6-.6-1.5-.9-2.6-.9H295v9zm-6.3.2c2.3 0 3.8-1.4 3.8-4V127h-1v5.2c0 2-1.1 3-2.8 3-1.7 0-2.8-1.1-2.8-3V127h-1v5.2c0 2.6 1.6 4 3.8 4zm-13.9-.2h1v-7.4l5.9 7.4h.8v-9h-1v7.2l-5.7-7.2h-1v9zm-14.2 0h1v-7.4l5.9 7.4h.8v-9h-1v7.2l-5.7-7.2h-1v9zm-8.6-3.3l2.1-4.6 2.1 4.6H252zm-2.5 3.3h1.1l1.1-2.4h5l1.1 2.4h1.1l-4.2-9.1h-1l-4.2 9.1zm-4.7.2c1.7 0 2.7-.6 3.6-1.6l-.7-.7c-.9.8-1.7 1.3-2.9 1.3-2 0-3.5-1.6-3.5-3.7s1.5-3.7 3.5-3.7c1.2 0 2.1.5 2.9 1.2l.7-.7c-.9-.8-1.9-1.4-3.6-1.4-2.7 0-4.6 2.1-4.6 4.6.1 2.6 2 4.7 4.6 4.7zm-7.8-.2h1v-9h-1v9zm-8.5-4.4V128h2.8c1.5 0 2.3.7 2.3 1.8 0 1.2-1 1.8-2.3 1.8h-2.8zm-1 4.4h1v-3.5h2.6l2.6 3.5h1.3l-2.8-3.7c1.4-.3 2.5-1.1 2.5-2.6 0-.7-.3-1.3-.7-1.8-.6-.6-1.5-.9-2.6-.9h-3.9v9zm-8.8 0h6.7v-.9h-5.6V132h5v-1h-5v-3h5.6v-1h-6.6v9zm-11.3 0h1v-7.3l3.3 4.8h.1l3.3-4.8v7.3h1v-9h-1l-3.3 4.9-3.3-4.9h-1v9zm-8.5-3.3l2.1-4.6 2.1 4.6h-4.2zm-2.6 3.3h1.1l1.1-2.4h5l1.1 2.4h1.1l-4.2-9.1h-1l-4.2 9.1z"/></defs><clipPath id="SVGID_80_"><use xlink:href="#SVGID_79_" overflow="visible"/></clipPath><path class="st39" d="M182.7 113.3h158.6v36.5H182.7z"/></g><g><defs><path id="SVGID_81_" d="M183 150.2c-17.3-21.8 11.7-19.9 8.8-30.1 8.9 11.5-6.7 11.6-8.6 20.1-1.4 5.7-.2 8.8-.2 10"/></defs><clipPath id="SVGID_82_"><use xlink:href="#SVGID_81_" overflow="visible"/></clipPath><path class="st40" d="M163.9 106.5h44.3v57.3h-44.3z"/></g><g><defs><path id="SVGID_83_" d="M189.2 116.2c-1.9 2.4-21.6 8.3-13.9 20.1 2-9.7 19.2-11.8 13.9-20.1"/></defs><clipPath id="SVGID_84_"><use xlink:href="#SVGID_83_" overflow="visible"/></clipPath><path class="st41" d="M159.9 102.6h43.9v47.3h-43.9z"/></g><path class="st42" d="M151.5 110.1v51.3M348.5 110.1v51.3"/><g><defs><path id="SVGID_85_" d="M22.1 116.5s14.1 3.6 14.1 12.4c0 8.5-12.5 8.5-11.7 18.7 0 0-5.8-2.7-5-7.4.8-4.7 8.5-9.1 9.2-13.3.7-4.1.3-6.3-6.6-10.4"/></defs><clipPath id="SVGID_86_"><use xlink:href="#SVGID_85_" overflow="visible"/></clipPath><path class="st43" d="M5.8 102.9h43.9v58.4H5.8z"/></g><g><defs><path id="SVGID_87_" d="M21.9 117.8c4.8 4.6 1.9 9.2-.1 11.3l4.6.1s-9.8 4.1-10.9 6.8c-1.1 2.7 0 4.4 0 4.4s-4.2-5-2.7-9.4 7-5.8 8.8-9.8c.8-1.5.3-3.4.3-3.4"/></defs><clipPath id="SVGID_88_"><use xlink:href="#SVGID_87_" overflow="visible"/></clipPath><path class="st44" d="M-1.1 104.2H40v49.7H-1.1z"/></g><g><defs><path id="SVGID_89_" d="M93.7 132.5l2.5-6 2.5 6h-5zm-7.5 7.8h4.3l1.7-4.2h8l1.7 4.2h4.4l-8.1-18.8h-3.8l-8.2 18.8zm-21.2 0h4.1v-11.8l9.2 11.8h3.5v-18.6h-4.1v11.5l-8.9-11.5H65v18.6zm-16.9-7.8l2.5-6 2.5 6h-5zm-7.4 7.8H45l1.7-4.2h8l1.7 4.2h4.4l-8.1-18.8h-3.8l-8.2 18.8z"/></defs><clipPath id="SVGID_90_"><use xlink:href="#SVGID_89_" overflow="visible"/></clipPath><path class="st45" d="M27.1 107.9h92.8v46H27.1z"/></g><g><defs><path id="SVGID_91_" d="M128.8 148.4h.7v-2.7l2.1 2.7h.6v-3.8h-.7v2.7l-2.1-2.7h-.6v3.8zm-2.7-.5c-.8 0-1.3-.6-1.3-1.4 0-.7.5-1.4 1.3-1.4s1.3.6 1.3 1.4c0 .8-.5 1.4-1.3 1.4zm0 .6c1.2 0 2-.9 2-2s-.8-2-2-2-2 .9-2 2 .9 2 2 2zm-3.4-.1h.7v-3.8h-.7v3.8zm-2.5 0h.7v-3.2h1.2v-.6H119v.6h1.2v3.2zm-3.7-1.5l.7-1.5.7 1.5h-1.4zm-1.3 1.5h.7l.4-.9h1.8l.4.9h.7l-1.7-3.9h-.6l-1.7 3.9zm-1.3 0h.7v-3.8h-.7v3.8zm-2.1.1c.7 0 1.2-.3 1.6-.7l-.4-.4c-.3.3-.6.5-1.1.5-.7 0-1.3-.6-1.3-1.4 0-.8.5-1.4 1.3-1.4.4 0 .8.2 1.1.5l.4-.5c-.4-.4-.8-.6-1.5-.6-1.2 0-2 .9-2 2-.1 1.1.7 2 1.9 2zm-4.5-.6c-.8 0-1.3-.6-1.3-1.4 0-.7.5-1.4 1.3-1.4s1.3.6 1.3 1.4c0 .8-.6 1.4-1.3 1.4zm0 .6c1.2 0 2-.9 2-2s-.8-2-2-2-2 .9-2 2 .8 2 2 2zm-3.9 0c.8 0 1.4-.4 1.4-1.1 0-.6-.4-.9-1.2-1.1-.7-.2-.9-.3-.9-.6s.2-.5.6-.5c.3 0 .7.1 1 .4l.4-.5c-.4-.3-.8-.5-1.4-.5-.8 0-1.3.5-1.3 1.1 0 .7.5.9 1.3 1.1.7.2.9.3.9.6s-.3.5-.7.5c-.5 0-.8-.2-1.2-.5l-.4.5c.3.4.9.6 1.5.6zm-3.4 0c.8 0 1.4-.4 1.4-1.1 0-.6-.4-.9-1.2-1.1-.7-.2-.9-.3-.9-.6s.2-.5.6-.5c.3 0 .7.1 1 .4l.4-.5c-.4-.3-.8-.5-1.4-.5-.8 0-1.3.5-1.3 1.1 0 .7.5.9 1.3 1.1.7.2.9.3.9.6s-.3.5-.7.5c-.5 0-.8-.2-1.2-.5l-.4.5c.4.4 1 .6 1.5.6zm-4.4-1.6l.7-1.5.7 1.5h-1.4zm-1.4 1.5h.7l.4-.9h1.8l.4.9h.7l-1.7-3.9h-.6l-1.7 3.9zm-3.2.1c.8 0 1.4-.4 1.4-1.1 0-.6-.4-.9-1.2-1.1-.7-.2-.9-.3-.9-.6s.2-.5.6-.5c.4 0 .7.1 1 .4l.4-.5c-.4-.3-.8-.5-1.4-.5-.8 0-1.3.5-1.3 1.1 0 .7.5.9 1.3 1.1.7.2.9.3.9.6s-.3.5-.7.5c-.5 0-.8-.2-1.2-.5l-.4.5c.3.4.9.6 1.5.6zm-4.9-.1H89v-.6h-2.2v-1h1.9v-.6h-1.9v-1H89v-.6h-2.8v3.8zm-2.1.1c.8 0 1.4-.4 1.4-1.1 0-.6-.4-.9-1.2-1.1-.7-.2-.9-.3-.9-.6s.2-.5.6-.5c.4 0 .7.1 1 .4l.4-.5c-.4-.3-.8-.5-1.4-.5-.8 0-1.3.5-1.3 1.1 0 .7.5.9 1.3 1.1.7.2.9.3.9.6s-.3.5-.7.5c-.5 0-.8-.2-1.2-.5l-.4.5c.4.4.9.6 1.5.6zm-4.5-2v-1.3h1c.5 0 .8.2.8.6 0 .4-.3.6-.8.6h-1zm-.7 1.9h.7v-1.3h.8l.9 1.3h.8l-1-1.5c.5-.2.9-.5.9-1.2 0-.3-.1-.6-.3-.8-.2-.2-.6-.4-1.1-.4h-1.7v3.9zm-2.4.1c1 0 1.6-.6 1.6-1.7v-2.2h-.7v2.2c0 .7-.4 1.1-1 1.1s-1-.4-1-1.1v-2.2h-.7v2.2c.2 1.1.8 1.7 1.8 1.7zm-5.8-.1h.7v-2.7l2.1 2.7h.6v-3.8h-.7v2.7l-2.1-2.7h-.6v3.8zm-5.7 0h.7v-2.7l2.1 2.7h.6v-3.8h-.7v2.7l-2.1-2.7h-.6v3.8zm-3.3-1.5l.7-1.5.7 1.5h-1.4zm-1.3 1.5h.7l.4-.9h1.8l.4.9h.7l-1.7-3.9H62l-1.7 3.9zm-1.8.1c.7 0 1.2-.3 1.6-.7l-.4-.4c-.3.3-.6.5-1.1.5-.7 0-1.3-.6-1.3-1.4 0-.8.5-1.4 1.3-1.4.4 0 .8.2 1.1.5l.4-.5c-.4-.4-.8-.6-1.5-.6-1.2 0-2 .9-2 2-.1 1.1.8 2 1.9 2zm-3.4-.1h.7v-3.8h-.7v3.8zm-3.2-1.9v-1.3h1c.5 0 .8.2.8.6 0 .4-.3.6-.8.6h-1zm-.7 1.9h.7v-1.3h.8l.9 1.3h.8l-1-1.5c.5-.2.9-.5.9-1.2 0-.3-.1-.6-.3-.8-.2-.2-.6-.4-1.1-.4h-1.7v3.9zm-3.5 0h2.9v-.6h-2.2v-1h1.9v-.6h-1.9v-1h2.2v-.6h-2.8v3.8zm-4.6 0h.7v-2.7l1.2 1.8 1.2-1.8v2.8h.7v-3.8h-.7l-1.2 1.8-1.2-1.8h-.7v3.7zm-3.3-1.5l.7-1.5.7 1.5h-1.4zm-1.3 1.5h.7l.4-.9h1.8l.4.9h.7l-1.7-3.9h-.6l-1.7 3.9z"/></defs><clipPath id="SVGID_92_"><use xlink:href="#SVGID_91_" overflow="visible"/></clipPath><path class="st46" d="M24.9 130.9h120.9v31.2H24.9z"/></g><g><defs><path id="SVGID_93_" d="M168.7 72.2c-31.6-31.1 14.5-33.8 8-49.3 16.3 16.6-11.5 22.6-9.4 33.1.7-6.4 21-13 18.5-23.7 14 20.1-18.5 26.1-17.1 39.9"/></defs><clipPath id="SVGID_94_"><use xlink:href="#SVGID_93_" overflow="visible"/></clipPath><path class="st47" d="M143.9 9.3h59v76.5h-59z"/></g><g><defs><path id="SVGID_95_" d="M150.7 17.2H174v34.4h-23.3z"/></defs><clipPath id="SVGID_96_"><use xlink:href="#SVGID_95_" overflow="visible"/></clipPath><g class="st48"><defs><path id="SVGID_97_" d="M140.5 16.1H184v38.1h-43.5z"/></defs><clipPath id="SVGID_98_"><use xlink:href="#SVGID_97_" overflow="visible"/></clipPath><g class="st49"><defs><path id="SVGID_99_" d="M171.7 17.2c-4.4 7.4-29.5 20.8-18 34.4 1.4-15.7 28.1-22.3 18-34.4"/></defs><clipPath id="SVGID_100_"><use xlink:href="#SVGID_99_" overflow="visible"/></clipPath><g class="st50"><defs><path id="SVGID_101_" d="M148.6 16.1h27.2v38.1h-27.2z"/></defs><clipPath id="SVGID_102_"><use xlink:href="#SVGID_101_" overflow="visible"/></clipPath><path class="st51" d="M137.1 3.6h50.5v61.7h-50.5z"/></g></g></g></g><g><defs><path id="SVGID_103_" d="M126.7 48.5l2.9-7.5 2.9 7.5h-5.8zm-8.7 9.8h5l2-5.2h9.4l2 5.2h5.1L132 34.8h-4.5L118 58.3zm-26.2 0h4.8V43.5l10.7 14.8h4.1V35h-4.8v14.3L96.3 35h-4.5v23.3zm-21.3-9.8l2.9-7.5 2.9 7.5h-5.8zm-8.7 9.8h5l2-5.2h9.4l2 5.2h5.1l-9.5-23.4h-4.5l-9.5 23.4z"/></defs><clipPath id="SVGID_104_"><use xlink:href="#SVGID_103_" overflow="visible"/></clipPath><path class="st52" d="M48.1 21.2H155v50.7H48.1z"/></g><g><defs><path id="SVGID_105_" d="M415.9 57.9h16.2v-2.3h-13.7v-8h12.1v-2.3h-12.1v-7.8H432v-2.3h-16.1v22.7zm-15.9.4c4.4 0 7.6-2.5 7.6-6.4v-.1c0-3.5-2.3-5.3-7.2-6.4-4.9-1.1-6-2.3-6-4.4v-.1c0-2.1 1.8-3.7 4.7-3.7 2.3 0 4.3.7 6.4 2.5l1.5-2c-2.3-1.9-4.6-2.8-7.8-2.8-4.2 0-7.3 2.6-7.3 6.2v.1c0 3.7 2.4 5.4 7.5 6.6 4.7 1 5.8 2.2 5.8 4.3v.1c0 2.2-2 3.9-5 3.9-3.1 0-5.3-1.1-7.6-3.2l-1.6 1.9c2.6 2.2 5.5 3.5 9 3.5zm-19.8-.4h2.5V35.1h-2.5v22.8zm-23.9-11.1v-9.2h6.9c3.6 0 5.7 1.7 5.7 4.5v.1c0 2.9-2.4 4.7-5.7 4.7h-6.9zm-2.5 11.1h2.5V49h6.4l6.4 8.9h3.1l-6.8-9.3c3.5-.6 6-2.9 6-6.6v-.1c0-1.8-.6-3.4-1.7-4.5-1.4-1.4-3.6-2.3-6.3-2.3h-9.6v22.8zM332 47.5v-10h5.6c3.6 0 6 1.7 6 4.9v.1c0 3-2.4 5-6.1 5H332zm-2.6 10.4h2.5v-8h5.4c4.7 0 8.7-2.5 8.7-7.5v-.1c0-4.5-3.3-7.2-8.3-7.2h-8.3v22.8zm-23.6-11.1v-9.2h6.9c3.6 0 5.7 1.7 5.7 4.5v.1c0 2.9-2.4 4.7-5.7 4.7h-6.9zm-2.5 11.1h2.5V49h6.4l6.4 8.9h3.1l-6.8-9.3c3.5-.6 6-2.9 6-6.6v-.1c0-1.8-.6-3.4-1.7-4.5-1.4-1.4-3.6-2.3-6.3-2.3h-9.6v22.8zm-24.4 0h16.2v-2.3h-13.7v-8h12.1v-2.3h-12.1v-7.8H295v-2.3h-16.1v22.7zm-17.9 0h2.5V37.5h7.5v-2.4h-17.5v2.4h7.5v20.4zm-34.1 0h2.4V39.2l14.4 18.7h2V35.1h-2.4v18.3l-14-18.3H227v22.8zm-24.5 0h16.2v-2.3h-13.7v-8H217v-2.3h-12.1v-7.8h13.6v-2.3h-16.1v22.7z"/></defs><clipPath id="SVGID_106_"><use xlink:href="#SVGID_105_" overflow="visible"/></clipPath><path class="st53" d="M188.8 21.2h256.9v50.7H188.8z"/></g></svg>