<?xml version="1.0" encoding="UTF-8"?>
<svg width="254px" height="58px" viewBox="0 0 254 58" version="1.1" xmlns="http://www.w3.org/2000/svg" xmlns:xlink="http://www.w3.org/1999/xlink">
    <!-- Generator: Sketch 47.1 (45422) - http://www.bohemiancoding.com/sketch -->
    <title>logo/anf</title>
    <desc>Created with Sketch.</desc>
    <defs>
        <polygon id="path-1" points="108.2327 40 216.242 40 216.242 0.288 0.2234 0.288 0.2234 40 108.2327 40"></polygon>
    </defs>
    <g id="-" stroke="none" stroke-width="1" fill="none" fill-rule="evenodd">
        <g id="logo/anf">
            <g id="Page-1">
                <g id="Group-3" transform="translate(37.000000, 17.264000)">
                    <mask id="mask-2" fill="white">
                        <use xlink:href="#path-1"></use>
                    </mask>
                    <g id="Clip-2"></g>
                    <path d="M214.6514,3.934 L215.8654,2.327 L215.7214,2.211 C214.0814,0.893 212.4714,0.331 210.3434,0.331 C207.3834,0.331 205.2374,2.128 205.2374,4.646 C205.2374,7.451 207.3044,8.476 210.4114,9.151 C213.5734,9.818 214.1524,10.569 214.1524,11.852 C214.1524,13.238 212.8584,14.206 211.0054,14.206 C209.0774,14.206 207.6274,13.607 206.0024,12.138 L205.8574,12.007 L204.5644,13.538 L204.7014,13.66 C206.5684,15.327 208.5504,16.103 210.9424,16.103 C214.0624,16.103 216.2424,14.284 216.2424,11.638 C216.2424,9.309 214.7394,7.987 211.2164,7.219 C207.9104,6.511 207.3044,5.746 207.3044,4.454 C207.3044,3.143 208.5374,2.228 210.3004,2.228 C211.8404,2.228 213.1754,2.73 214.4994,3.81 L214.6514,3.934 Z M191.2974,15.89 L202.6014,15.89 L202.6014,13.972 L193.3654,13.972 L193.3654,9.112 L201.5324,9.112 L201.5324,7.194 L193.3654,7.194 L193.3654,2.463 L202.4944,2.463 L202.4944,0.545 L191.2974,0.545 L191.2974,15.89 Z M179.2964,4.454 C179.2964,3.143 180.5284,2.228 182.2924,2.228 C183.8334,2.228 185.1674,2.73 186.4924,3.81 L186.6444,3.934 L187.8564,2.327 L187.7134,2.211 C186.0724,0.893 184.4634,0.331 182.3354,0.331 C179.3764,0.331 177.2284,2.128 177.2284,4.646 C177.2284,7.452 179.2964,8.476 182.4034,9.151 C185.5654,9.818 186.1444,10.569 186.1444,11.852 C186.1444,13.238 184.8494,14.206 182.9984,14.206 C181.0684,14.206 179.6184,13.607 177.9934,12.138 L177.8474,12.007 L176.5554,13.538 L176.6934,13.66 C178.5604,15.327 180.5424,16.103 182.9324,16.103 C186.0524,16.103 188.2334,14.284 188.2334,11.638 C188.2334,9.308 186.7304,7.987 183.2094,7.219 C179.9014,6.511 179.2964,5.746 179.2964,4.454 L179.2964,4.454 Z M175.1044,15.89 L170.4594,9.711 C172.9204,9.161 174.3794,7.5 174.3794,5.181 C174.3794,3.972 173.9494,2.876 173.1684,2.096 C172.1684,1.096 170.6094,0.545 168.7804,0.545 L162.1554,0.545 L162.1554,15.89 L164.2224,15.89 L164.2224,10.075 L168.2134,10.075 L172.5544,15.89 L175.1044,15.89 Z M168.6304,8.177 L164.2224,8.177 L164.2224,2.484 L168.6514,2.484 C170.9284,2.484 172.2904,3.516 172.2904,5.288 C172.2904,7.043 170.8534,8.177 168.6304,8.177 L168.6304,8.177 Z M158.5364,9.307 L158.5364,0.545 L156.4674,0.545 L156.4674,9.436 C156.4674,12.498 154.9324,14.184 152.1464,14.184 C149.3594,14.184 147.7604,12.415 147.7604,9.329 L147.7604,0.545 L145.6924,0.545 L145.6924,9.436 C145.6924,13.561 148.1484,16.124 152.1034,16.124 C156.1304,16.124 158.5364,13.576 158.5364,9.307 L158.5364,9.307 Z M152.3404,36.034 L143.1954,24.398 L141.3314,24.398 L141.3314,39.744 L143.3574,39.744 L143.3574,27.829 L152.6814,39.671 L152.7394,39.744 L154.3674,39.744 L154.3674,24.398 L152.3404,24.398 L152.3404,36.034 Z M140.4454,15.89 L142.0734,15.89 L142.0734,0.545 L140.0474,0.545 L140.0474,12.18 L130.9014,0.545 L129.0374,0.545 L129.0374,15.89 L131.0624,15.89 L131.0624,3.975 L140.3874,15.817 L140.4454,15.89 Z M129.6974,24.142 C125.2984,24.142 121.8544,27.624 121.8544,32.114 C121.8544,36.61 125.2074,40 129.6544,40 C134.0524,40 137.4994,36.517 137.4994,32.028 C137.4994,27.532 134.1454,24.142 129.6974,24.142 L129.6974,24.142 Z M129.6544,26.081 C132.9104,26.081 135.3654,28.656 135.3654,32.114 C135.3654,35.504 132.9274,38.06 129.6974,38.06 C126.4414,38.06 123.9864,35.485 123.9864,32.028 C123.9864,28.638 126.4224,26.081 129.6544,26.081 L129.6544,26.081 Z M117.1394,15.89 L118.7694,15.89 L118.7694,0.545 L116.7444,0.545 L116.7444,12.18 L107.5954,0.545 L105.7334,0.545 L105.7334,15.89 L107.7574,15.89 L107.7574,3.975 L117.0834,15.817 L117.1394,15.89 Z M101.0314,15.89 L103.2644,15.89 L96.3244,0.549 L96.2734,0.438 L94.4484,0.438 L87.4554,15.89 L89.6034,15.89 L91.3784,11.934 L99.2784,11.934 L101.0314,15.89 Z M98.4474,10.016 L92.2114,10.016 L95.3384,3.058 L98.4474,10.016 Z M74.5334,8.174 C74.5334,4.784 76.9434,2.228 80.1374,2.228 C81.8664,2.228 83.2344,2.826 84.7114,4.228 L84.8494,4.359 L86.2624,2.841 L86.1264,2.712 C84.7904,1.453 83.1434,0.288 80.1594,0.288 C75.8094,0.288 72.4014,3.771 72.4014,8.26 C72.4014,12.756 75.7094,16.146 80.0954,16.146 C83.1534,16.146 84.9054,14.788 86.2154,13.46 L86.3494,13.325 L84.9704,11.973 L84.8394,12.099 C83.5154,13.364 82.2094,14.206 80.1374,14.206 C76.9954,14.206 74.5334,11.576 74.5334,8.174 L74.5334,8.174 Z M74.5574,24.398 L69.1724,24.398 L69.1724,39.744 L74.5574,39.744 C79.2764,39.744 82.7004,36.517 82.7004,32.028 C82.7004,27.607 79.2764,24.398 74.5574,24.398 L74.5574,24.398 Z M74.5574,37.804 L71.2404,37.804 L71.2404,26.337 L74.5574,26.337 C78.0964,26.337 80.5684,28.695 80.5684,32.114 C80.5684,35.464 78.0964,37.804 74.5574,37.804 L74.5574,37.804 Z M66.9924,15.89 L69.0604,15.89 L69.0604,0.545 L66.9924,0.545 L66.9924,15.89 Z M63.0474,39.744 L64.6774,39.744 L64.6774,24.398 L62.6524,24.398 L62.6524,36.034 L53.5054,24.398 L51.6414,24.398 L51.6414,39.744 L53.6664,39.744 L53.6664,27.829 L62.9914,39.671 L63.0474,39.744 Z M64.3334,15.89 L59.6884,9.711 C62.1494,9.161 63.6084,7.5 63.6084,5.181 C63.6084,3.972 63.1784,2.876 62.3984,2.096 C61.3974,1.096 59.8394,0.545 58.0094,0.545 L51.3844,0.545 L51.3844,15.89 L53.4524,15.89 L53.4524,10.075 L57.4444,10.075 L61.7844,15.89 L64.3334,15.89 Z M57.8594,8.177 L53.4524,8.177 L53.4524,2.484 L57.8824,2.484 C60.1594,2.484 61.5194,3.516 61.5194,5.288 C61.5194,7.043 60.0824,8.177 57.8594,8.177 L57.8594,8.177 Z M37.0604,15.89 L48.3644,15.89 L48.3644,13.972 L39.1284,13.972 L39.1284,9.112 L47.2954,9.112 L47.2954,7.194 L39.1284,7.194 L39.1284,2.463 L48.2574,2.463 L48.2574,0.545 L37.0604,0.545 L37.0604,15.89 Z M36.6054,33.183 L36.6054,24.398 L34.5374,24.398 L34.5374,33.29 C34.5374,37.415 36.9934,39.978 40.9474,39.978 C44.9754,39.978 47.3804,37.43 47.3804,33.161 L47.3804,24.398 L45.3124,24.398 L45.3124,33.29 C45.3124,36.352 43.7774,38.038 40.9904,38.038 C38.2034,38.038 36.6054,36.268 36.6054,33.183 L36.6054,33.183 Z M31.1374,15.89 L33.2054,15.89 L33.2054,0.545 L31.2044,0.545 L25.8534,8.56 L20.5034,0.545 L18.5014,0.545 L18.5014,15.89 L20.5274,15.89 L20.5274,4.213 L25.6324,11.702 L25.6894,11.784 L25.9744,11.784 L31.1374,4.193 L31.1374,15.89 Z M23.1384,24.142 C18.7404,24.142 15.2944,27.624 15.2944,32.114 C15.2944,36.61 18.6484,40 23.0954,40 C27.4934,40 30.9394,36.517 30.9394,32.028 C30.9394,27.532 27.5854,24.142 23.1384,24.142 L23.1384,24.142 Z M23.0954,26.081 C26.3514,26.081 28.8074,28.656 28.8074,32.114 C28.8074,35.504 26.3704,38.06 23.1384,38.06 C19.8824,38.06 17.4274,35.485 17.4274,32.028 C17.4274,28.638 19.8634,26.081 23.0954,26.081 L23.0954,26.081 Z M13.8004,15.89 L16.0344,15.89 L9.0934,0.549 L9.0424,0.438 L7.2144,0.438 L0.2234,15.89 L2.3724,15.89 L4.1464,11.934 L12.0464,11.934 L13.8004,15.89 Z M11.2164,10.016 L4.9794,10.016 L8.1074,3.058 L11.2164,10.016 Z M12.7434,24.398 L1.6094,24.398 L1.6094,39.744 L3.6784,39.744 L3.6784,33.222 L11.7814,33.222 L11.7814,31.305 L3.6784,31.305 L3.6784,26.337 L12.7434,26.337 L12.7434,24.398 Z M91.1554,24.291 L84.1624,39.744 L86.3114,39.744 L88.0864,35.788 L95.9864,35.788 L97.7394,39.744 L99.9724,39.744 L93.0324,24.403 L92.9814,24.291 L91.1554,24.291 Z M92.0474,26.912 L95.1544,33.87 L88.9194,33.87 L92.0474,26.912 Z M112.2274,24.398 L100.0884,24.398 L100.0884,26.337 L105.1124,26.337 L105.1124,39.744 L107.2024,39.744 L107.2024,26.337 L112.2274,26.337 L112.2274,24.398 Z M115.8044,39.743 L117.8724,39.743 L117.8724,24.398 L115.8044,24.398 L115.8044,39.743 Z" id="Fill-1" fill="#53565A" mask="url(#mask-2)"></path>
                </g>
                <path d="M15.6138,56.6306 C-12.7702,20.4096 34.7738,23.4316 30.0458,6.4816 C44.5868,25.7096 19.0968,25.7746 15.8848,39.8956 C13.7128,49.4456 15.6728,54.6206 15.6138,56.6306" id="Fill-4" fill="#1899D5"></path>
                <path d="M25.7353,0.0002 C22.6283,4.0432 -9.6887,13.8622 2.8963,33.4512 C6.3383,17.3152 34.4973,13.8072 25.7353,0.0002" id="Fill-6" fill="#0B3A5C"></path>
            </g>
        </g>
    </g>
</svg>