<svg width="691.79" height="64.14" version="1.1" viewBox="0 0 691.79 64.14" xmlns="http://www.w3.org/2000/svg"><defs><clipPath id="clipPath123"><path d="m0 612h792v-612h-792z"/></clipPath></defs><g transform="matrix(1.3333 0 0 -1.3333 -220.87 471.74)"><g clip-path="url(#clipPath123)"/><path style="fill:#094562" d="m344.44 353.69v-41.142h2.1768v41.142zm-77.767-2.4972v2.405c0.449 0 2.013-0.046 4.692-0.137 1.309-0.046 3.167-0.068 5.572-0.068 2.053 0 3.812 0.043 5.278 0.13 2.425 0.108 4.429 0.163 6.013 0.163 3.069 0 5.366-0.221 6.891-0.661 1.525-0.441 2.825-1.356 3.9-2.746s1.613-3.083 1.613-5.08c0-2.369-0.733-4.523-2.199-6.461-1.467-1.938-3.724-3.474-6.774-4.61 0.488-0.873 1.045-1.766 1.671-2.678 0.626-0.911 0.992-1.465 1.1-1.658 0.107-0.195 0.22-0.379 0.337-0.554l4.546-6.781c1.212-1.805 1.866-2.775 1.964-2.91 1.467-1.941 2.366-3.086 2.699-3.435 0.332-0.349 0.655-0.592 0.967-0.728 0.313-0.135 0.929-0.213 1.848-0.233v-2.58c-3.011 0.078-5.191 0.117-6.54 0.117-1.564 0-3.119-0.039-4.662-0.117-0.099 0.43-0.333 0.987-0.705 1.671l-6.275 10.352c-1.799 2.972-3.324 5.308-4.575 7.01-0.626 0.86-1.232 1.505-1.819 1.935l0.323 0.967c2.346-0.078 4.115 0.163 5.308 0.721s2.2 1.557 3.021 2.996c0.821 1.44 1.231 3.051 1.231 4.833 0 1.802-0.43 3.3-1.29 4.495-0.861 1.195-1.926 2.027-3.197 2.497-0.82 0.294-2.287 0.441-4.398 0.441-0.938 0-1.868-0.078-2.786-0.234-0.059-0.704-0.117-2.288-0.176-4.751-0.118-5.539-0.176-9.237-0.176-11.096 0-2.936 0.029-6.048 0.088-9.335 0.078-4.031 0.136-6.321 0.176-6.869 0.059-1.096 0.166-1.81 0.322-2.142 0.078-0.157 0.206-0.299 0.382-0.426 0.175-0.128 0.459-0.23 0.85-0.308 0.391-0.079 1.525-0.137 3.402-0.177v-2.58c-3.343 0.137-6.726 0.205-10.147 0.205-3.05 0-5.875-0.068-8.475-0.205v2.58c2.229 0.079 3.548 0.186 3.959 0.324 0.234 0.058 0.405 0.156 0.513 0.293 0.108 0.136 0.191 0.41 0.249 0.822 0.137 0.763 0.235 1.917 0.294 3.463l0.235 8.57v10.889l-0.147 6.193c-0.04 2.446-0.156 3.913-0.351 4.402-0.097 0.215-0.242 0.382-0.437 0.499-0.466 0.235-1.905 0.43-4.315 0.587m-32.061-38.622v1.583c1.173 0.548 2.131 1.115 2.874 1.702 0.117 0.82 0.215 2.15 0.293 3.988 0.157 3.362 0.235 5.807 0.235 7.331v13.197c0 0.508-0.029 2.414-0.088 5.719-0.059 2.209-0.196 3.558-0.411 4.046-0.098 0.196-0.244 0.342-0.44 0.44-0.527 0.235-1.935 0.411-4.222 0.528v2.258l6.803 0.05c1.349 6e-3 2.64 9e-3 3.871 9e-3 2.679 0 5.66 0.029 8.945 0.088l5.953 0.146c0.704 0 2.13-0.039 4.281-0.117 0.196 0 0.518-0.058 0.968-0.176l0.206-0.381-0.558-4.223c-0.02-0.293-0.117-1.701-0.293-4.223h-2.288c-0.039 2.307-0.127 3.724-0.263 4.252-0.078 0.274-0.195 0.47-0.351 0.587-0.254 0.176-1.034 0.332-2.341 0.469-1.932 0.215-3.824 0.323-5.677 0.323-1.737 0-3.512-0.069-5.327-0.205-0.274-2.228-0.41-5.056-0.41-8.485v-6.061c1.326-0.098 2.71-0.147 4.154-0.147 0.448 0 2.067 0.039 4.856 0.117 1.053 0.02 1.672 0.088 1.857 0.206 0.185 0.117 0.327 0.322 0.424 0.616 0.234 0.742 0.37 1.984 0.41 3.724h2.375l-0.147-6.452 0.147-6.422h-2.375c0.019 2.268-0.129 3.666-0.444 4.194-0.238 0.39-0.662 0.635-1.274 0.733-1.363 0.215-3.111 0.322-5.243 0.322-1.916 0-3.496-0.069-4.74-0.205v-12.298c0-1.372 0.029-2.552 0.088-3.538 1.581-0.137 3.454-0.205 5.62-0.205 2.108 0 4.054 0.068 5.84 0.205s2.883 0.332 3.294 0.587c0.136 0.077 0.263 0.254 0.38 0.528 0.351 0.938 0.722 2.717 1.112 5.337h2.405c-0.43-3.871-0.645-7.058-0.645-9.561l-0.381-0.381c-1.252-0.137-3.031-0.205-5.338-0.205l-4.721 0.103c-4.653 0.068-7.859 0.102-9.619 0.102-0.469 0-3.734-0.068-9.795-0.205m-4.3115 41.027v-2.581c-1.987-0.058-3.167-0.131-3.541-0.219-0.374-0.089-0.639-0.196-0.796-0.323-0.158-0.127-0.266-0.289-0.324-0.484-0.138-0.332-0.236-0.968-0.296-1.906-0.039-0.509-0.068-1.466-0.087-2.874-0.079-4.81-0.118-7.4-0.118-7.772v-11.818l0.088-5.366c0-2.014 0.098-3.324 0.296-3.93 0.078-0.274 0.21-0.484 0.397-0.631 0.187-0.146 0.482-0.263 0.885-0.351 0.404-0.089 1.569-0.152 3.496-0.191v-2.581c-3.187 0.137-6.589 0.205-10.206 0.205-3.148 0-5.953-0.068-8.416-0.205v2.581c2.033 0.078 3.206 0.147 3.519 0.205 0.411 0.078 0.689 0.186 0.836 0.323 0.146 0.136 0.239 0.293 0.278 0.469 0.059 0.235 0.137 1.153 0.235 2.757 0.156 2.346 0.234 4.516 0.234 6.51v12.258c0 3.89-0.019 6.393-0.058 7.507-0.098 2.483-0.215 4.038-0.352 4.664-0.059 0.253-0.152 0.449-0.278 0.586-0.128 0.136-0.363 0.249-0.705 0.337s-1.579 0.171-3.709 0.249v2.581c2.463-0.137 5.288-0.205 8.475-0.205 3.578 0 6.96 0.068 10.147 0.205m-51.712-25.162c1.841-0.059 3.927-0.088 6.258-0.088 2.253 0 4.27 0.029 6.053 0.088l-6.277 15.155zm-12.932-15.865v2.434c1.583 0.117 2.526 0.22 2.83 0.308 0.303 0.088 0.561 0.224 0.777 0.41 0.215 0.186 0.435 0.479 0.66 0.88 0.224 0.4 0.894 1.892 2.009 4.472 0.508 1.212 1.485 3.608 2.932 7.185l7.654 18.886 2.581 6.657h4.164l13.109-30.616 1.818-4.018 1.173-2.698c0.195-0.352 0.381-0.606 0.558-0.763 0.175-0.156 0.375-0.273 0.601-0.351 0.224-0.079 0.796-0.147 1.715-0.206 0.293-0.039 0.723-0.088 1.29-0.146v-2.434l-8.149 0.205-10.292-0.205v2.434c2.365 0.097 3.7 0.228 4.003 0.394s0.455 0.444 0.455 0.834c0 0.487-0.226 1.286-0.675 2.398l-2.517 6.432h-15.12l-1.286-3.508c-0.974-2.691-1.461-4.367-1.461-5.03 0-0.467 0.156-0.799 0.468-0.994 0.467-0.273 1.864-0.449 4.19-0.526v-2.434l-6.763 0.205zm505.47 21.712v0.742c0.557 0.156 0.93 0.392 1.127 0.704 0.195 0.311 0.292 1.05 0.292 2.216v12.287c0 0.85-0.124 1.371-0.374 1.558-0.245 0.187-0.89 0.312-1.937 0.383v0.838c0.722-0.037 1.439-0.064 2.152-0.086 0.717-0.023 1.441-0.031 2.18-0.031 2.556 0 5.076 0.031 7.549 0.089 0.419 0.018 0.664 0.028 0.732 0.028 0.334 0 0.575-0.06 0.729-0.171 0.161-0.111 0.237-0.293 0.237-0.535 0-0.025-0.01-0.127-0.028-0.31-0.094-1.064-0.141-2.142-0.141-3.237h-0.73c-0.026 0.713-0.077 1.269-0.151 1.661-0.073 0.396-0.188 0.707-0.344 0.934-0.409 0.165-0.98 0.285-1.709 0.365-0.73 0.076-1.8 0.117-3.21 0.117-0.694 0-1.192-5e-3 -1.49-0.018-0.304-0.013-0.571-0.041-0.807-0.072-0.048-0.766-0.084-1.295-0.102-1.584-0.018-0.295-0.028-0.521-0.028-0.686v-4.488c0-0.245 0.036-0.401 0.112-0.475 0.076-0.076 0.24-0.113 0.504-0.113l2.505 0.055c1.495 0.036 2.391 0.163 2.685 0.395 0.298 0.233 0.444 0.717 0.444 1.456v0.508l0.838-0.014c-0.026-0.792-0.046-1.397-0.049-1.816-5e-3 -0.422-5e-3 -0.825-5e-3 -1.193 0-0.35 0-0.73 5e-3 -1.144 3e-3 -0.409 0.023-1.037 0.049-1.869h-0.838c0 0.07 5e-3 0.17 0.015 0.293 9e-3 0.125 0.013 0.214 0.013 0.267 0 0.794-0.151 1.309-0.449 1.55-0.303 0.244-1.198 0.383-2.7 0.418l-2.513 0.025c-0.264 0-0.428-0.034-0.504-0.109-0.076-0.072-0.112-0.231-0.112-0.478v-7.237h5.049c1.038 0 1.75 0.048 2.142 0.142 0.386 0.098 0.645 0.262 0.765 0.498 0.107 0.193 0.21 0.521 0.307 0.999 0.098 0.471 0.191 1.059 0.281 1.752h0.837c-0.072-0.721-0.12-1.41-0.156-2.074-0.036-0.66-0.053-1.288-0.053-1.878v-0.534c-0.486-0.053-0.984-0.089-1.487-0.116-0.503-0.026-1.025-0.04-1.563-0.04-0.41 0-1.287 0.022-2.631 0.067-1.339 0.039-2.489 0.063-3.437 0.063-0.766 0-1.988-0.032-3.676-0.09-0.148-9e-3 -0.255-0.012-0.325-0.012m-14.618 0v0.912c0.833 0.025 1.416 0.063 1.74 0.102 0.325 0.045 0.522 0.098 0.58 0.16 0.097 0.094 0.164 0.294 0.204 0.597 0.039 0.307 0.058 0.862 0.058 1.668v13.943c-0.201 0-0.472-5e-3 -0.823-0.013-0.348-9e-3 -0.597-0.014-0.753-0.014h-0.587c-1.341 0-2.163-0.088-2.472-0.267-0.31-0.177-0.488-0.53-0.542-1.064l-0.182-1.731h-0.758c0 0.235 5e-3 0.596 0.014 1.09 9e-3 0.49 0.013 0.855 0.013 1.1 0 0.272-8e-3 0.591-0.027 0.966-0.017 0.374-0.043 0.779-0.079 1.224 0.245-0.062 0.685-0.102 1.316-0.129 0.638-0.027 1.461-0.04 2.481-0.04h7.314c1.015 0 1.843 0.013 2.479 0.04 0.632 0.027 1.073 0.067 1.314 0.129-0.031-0.383-0.059-0.783-0.077-1.207-0.017-0.422-0.026-0.867-0.026-1.335 0-0.289 0-0.583 4e-3 -0.885 5e-3 -0.308 0.014-0.624 0.022-0.953h-0.756l-0.183 1.731c-0.053 0.418-0.142 0.713-0.267 0.877-0.125 0.165-0.361 0.281-0.698 0.352-0.241 0.04-0.681 0.076-1.319 0.098-0.631 0.023-1.597 0.031-2.892 0.031v-14.45c0-0.948 0.101-1.523 0.305-1.723 0.206-0.2 0.657-0.297 1.35-0.297 0.226 0 0.405 0 0.544 3e-3 0.133 5e-3 0.263 0.014 0.383 0.022v-0.937c-0.522 0.025-1.123 0.047-1.8 0.063-0.677 0.012-1.42 0.015-2.23 0.015-1.241 0-2.097-3e-3 -2.554-0.015-0.46-0.016-0.824-0.038-1.096-0.063m-22.808 6.352v9.374c0 0.983-0.116 1.572-0.347 1.767-0.228 0.196-0.9 0.303-2.012 0.321l-0.014 0.859c0.912-0.054 1.644-0.089 2.186-0.111 0.543-0.022 0.998-0.031 1.361-0.031 0.281 0 0.682 9e-3 1.206 0.026 0.527 0.019 1.391 0.054 2.592 0.116v-0.885h-0.481c-0.871 0-1.428-0.13-1.665-0.392-0.239-0.258-0.36-0.98-0.36-2.15v-8.829c0-1.837 0.419-3.143 1.252-3.921 0.835-0.778 2.22-1.167 4.161-1.167 2.043 0 3.468 0.464 4.283 1.389 0.814 0.926 1.219 2.592 1.219 5v6.886c0 1.487-0.124 2.391-0.374 2.707-0.245 0.316-0.805 0.477-1.674 0.477h-0.458v0.885c0.74-0.049 1.348-0.084 1.834-0.107 0.482-0.022 0.903-0.035 1.259-0.035 0.339 0 0.753 0.013 1.247 0.035 0.49 0.023 1.126 0.058 1.91 0.107v-0.885c-0.565 0-1.015-0.028-1.349-0.085-0.338-0.058-0.565-0.147-0.686-0.268-0.169-0.164-0.284-0.556-0.359-1.174-0.077-0.615-0.112-1.519-0.112-2.698v-4.879c0-1.928-0.071-3.286-0.208-4.06-0.14-0.778-0.375-1.456-0.706-2.031-0.537-0.975-1.378-1.718-2.524-2.229-1.143-0.511-2.527-0.77-4.151-0.77-2.539 0-4.346 0.512-5.418 1.531-1.074 1.024-1.612 2.765-1.612 5.227m-15.922-6.352v0.912c0.832 0.025 1.417 0.063 1.741 0.102 0.325 0.045 0.52 0.098 0.578 0.16 0.098 0.094 0.166 0.294 0.205 0.597 0.04 0.307 0.058 0.862 0.058 1.668v13.943c-0.201 0-0.472-5e-3 -0.824-0.013-0.346-9e-3 -0.596-0.014-0.753-0.014h-0.587c-1.34 0-2.164-0.088-2.471-0.267-0.311-0.177-0.489-0.53-0.542-1.064l-0.183-1.731h-0.756c0 0.235 3e-3 0.596 0.012 1.09 0.01 0.49 0.015 0.855 0.015 1.1 0 0.272-0.01 0.591-0.027 0.966-0.019 0.374-0.046 0.779-0.082 1.224 0.246-0.062 0.687-0.102 1.319-0.129 0.637-0.027 1.461-0.04 2.479-0.04h7.314c1.015 0 1.843 0.013 2.48 0.04 0.632 0.027 1.072 0.067 1.313 0.129-0.032-0.383-0.058-0.783-0.076-1.207-0.018-0.422-0.026-0.867-0.026-1.335 0-0.289 0-0.583 5e-3 -0.885 3e-3 -0.308 0.013-0.624 0.021-0.953h-0.756l-0.182 1.731c-0.055 0.418-0.144 0.713-0.268 0.877-0.125 0.165-0.36 0.281-0.699 0.352-0.24 0.04-0.682 0.076-1.317 0.098-0.632 0.023-1.598 0.031-2.895 0.031v-14.45c0-0.948 0.104-1.523 0.308-1.723 0.205-0.2 0.655-0.297 1.348-0.297 0.228 0 0.407 0 0.544 3e-3 0.134 5e-3 0.262 0.014 0.382 0.022v-0.937c-0.519 0.025-1.121 0.047-1.798 0.063-0.675 0.012-1.42 0.015-2.23 0.015-1.242 0-2.097-3e-3 -2.556-0.015-0.458-0.016-0.823-0.038-1.094-0.063m-8.434 3.493v-0.128c0-1.198 0.146-1.909 0.435-2.137 0.291-0.228 0.994-0.361 2.106-0.407l-0.014-0.821c-0.773 0.043-1.464 0.075-2.078 0.097-0.615 0.022-1.179 0.031-1.701 0.031-0.498 0-1.05-9e-3 -1.665-0.031-0.613-0.022-1.316-0.054-2.118-0.097l-0.014 0.821c1.105 0.019 1.803 0.144 2.088 0.379 0.289 0.237 0.432 0.984 0.432 2.244v11.89c0 1.171-0.147 1.875-0.436 2.106-0.294 0.227-0.992 0.361-2.106 0.396v0.824c0.739-0.045 1.416-0.076 2.036-0.098 0.613-0.022 1.201-0.031 1.757-0.031 0.281 0 0.669 9e-3 1.167 0.022 0.498 0.018 1.375 0.054 2.626 0.107l-0.013-0.824c-1.087-8e-3 -1.776-0.133-2.067-0.37-0.289-0.24-0.435-0.992-0.435-2.252zm-18.646-3.493v0.912c0.831 0.025 1.415 0.063 1.741 0.102 0.325 0.045 0.519 0.098 0.578 0.16 0.097 0.094 0.165 0.294 0.204 0.597 0.041 0.307 0.058 0.862 0.058 1.668v13.943c-0.2 0-0.472-5e-3 -0.824-0.013-0.346-9e-3 -0.596-0.014-0.753-0.014h-0.587c-1.339 0-2.164-0.088-2.469-0.267-0.313-0.177-0.491-0.53-0.544-1.064l-0.183-1.731h-0.756c0 0.235 5e-3 0.596 0.013 1.09 9e-3 0.49 0.014 0.855 0.014 1.1 0 0.272-9e-3 0.591-0.027 0.966-0.018 0.374-0.045 0.779-0.08 1.224 0.244-0.062 0.685-0.102 1.318-0.129 0.635-0.027 1.46-0.04 2.478-0.04h7.315c1.014 0 1.842 0.013 2.48 0.04 0.633 0.027 1.071 0.067 1.313 0.129-0.031-0.383-0.059-0.783-0.076-1.207-0.018-0.422-0.026-0.867-0.026-1.335 0-0.289 0-0.583 4e-3 -0.885 4e-3 -0.308 0.013-0.624 0.022-0.953h-0.756l-0.183 1.731c-0.055 0.418-0.142 0.713-0.267 0.877-0.125 0.165-0.361 0.281-0.7 0.352-0.24 0.04-0.681 0.076-1.316 0.098-0.633 0.023-1.599 0.031-2.895 0.031v-14.45c0-0.948 0.103-1.523 0.308-1.723 0.204-0.2 0.654-0.297 1.347-0.297 0.229 0 0.407 0 0.544 3e-3 0.134 5e-3 0.263 0.014 0.383 0.022v-0.937c-0.52 0.025-1.122 0.047-1.798 0.063-0.676 0.012-1.42 0.015-2.23 0.015-1.242 0-2.097-3e-3 -2.555-0.015-0.459-0.016-0.824-0.038-1.095-0.063m-18.174 0.559c0.074 0.722 0.136 1.434 0.182 2.137 0.044 0.703 0.068 1.403 0.068 2.089l0.844-0.027v-0.325c0-1.222 0.326-2.088 0.98-2.609 0.649-0.521 1.732-0.784 3.244-0.784 1.35 0 2.401 0.356 3.157 1.069 0.756 0.717 1.136 1.699 1.136 2.965 0 1.001-0.25 1.744-0.744 2.23-0.495 0.491-1.483 0.877-2.96 1.162-0.2 0.044-0.481 0.094-0.847 0.157-1.85 0.346-3.066 0.734-3.64 1.16-0.54 0.402-0.945 0.886-1.221 1.461-0.272 0.574-0.409 1.224-0.409 1.953 0 1.723 0.601 3.126 1.807 4.212 1.203 1.086 2.76 1.629 4.674 1.629 0.758 0 1.519-0.089 2.275-0.267 0.762-0.178 1.505-0.445 2.225-0.801-0.11-0.766-0.195-1.452-0.253-2.057-0.057-0.601-0.089-1.171-0.098-1.701l-0.864-0.039v0.276c0 1.215-0.289 2.1-0.867 2.657-0.575 0.557-1.506 0.837-2.782 0.837-1.15 0-2.074-0.347-2.782-1.042-0.709-0.693-1.064-1.602-1.064-2.724 0-0.948 0.263-1.674 0.787-2.173 0.526-0.498 1.456-0.89 2.787-1.166 0.248-0.044 0.615-0.107 1.095-0.195 1.772-0.311 2.97-0.689 3.584-1.136 0.52-0.382 0.902-0.831 1.148-1.358 0.245-0.52 0.366-1.138 0.366-1.851 0-1.905-0.74-3.496-2.214-4.767-1.473-1.275-3.324-1.911-5.56-1.911-0.667 0-1.343 0.08-2.021 0.236-0.676 0.156-1.358 0.388-2.033 0.703m-20.097 4.515c0-0.941 0.021-1.731 0.065-2.381 0.041-0.647 0.104-1.083 0.183-1.309 0.049-0.147 0.209-0.255 0.477-0.322 0.262-0.065 0.671-0.097 1.227-0.097h0.433l-0.014-0.965c-0.458 0.025-0.943 0.047-1.446 0.063-0.508 0.012-1.037 0.015-1.594 0.015-0.614 0-1.175-3e-3 -1.67-0.015-0.493-0.016-0.926-0.038-1.29-0.063v0.99c0.738 0 1.242 0.038 1.514 0.103 0.271 0.072 0.453 0.197 0.547 0.378 0.115 0.238 0.201 0.713 0.261 1.431 0.063 0.716 0.094 1.834 0.104 3.343l0.053 10.598c-0.209 0.335-0.472 0.566-0.788 0.709-0.32 0.137-0.823 0.226-1.508 0.271v0.837c0.463-0.018 0.872-0.036 1.237-0.053 0.368-0.018 0.667-0.027 0.902-0.027 0.375 0 0.763 9e-3 1.167 0.027 0.406 0.017 0.812 0.035 1.221 0.053 0.686-0.993 1.455-2.043 2.301-3.152 0.849-1.109 1.768-2.27 2.76-3.486l7.46-9.09v10.653c0 0.939-0.021 1.731-0.067 2.382-0.039 0.645-0.101 1.086-0.181 1.322-0.041 0.138-0.202 0.245-0.468 0.312-0.271 0.071-0.682 0.106-1.238 0.106h-0.419v0.953c0.467-0.027 0.958-0.045 1.466-0.058 0.511-0.013 1.032-0.022 1.572-0.022 0.599 0 1.157 9e-3 1.665 0.027 0.505 0.017 0.948 0.035 1.321 0.053v-0.979c-0.73 0-1.234-0.036-1.504-0.107-0.276-0.067-0.455-0.197-0.544-0.379-0.13-0.258-0.227-0.774-0.284-1.545-0.063-0.765-0.094-1.847-0.094-3.236l-0.053-10.093c0-0.662 3e-3 -1.178 8e-3 -1.552 4e-3 -0.374 9e-3 -0.735 0.019-1.082l-0.183-0.093-1.981 0.431c-0.895 1.167-2.351 2.993-4.368 5.476l-0.546 0.667-7.723 9.478zm-8.373-1.581v-0.128c0-1.198 0.146-1.909 0.435-2.137 0.29-0.228 0.994-0.361 2.106-0.407l-0.012-0.821c-0.775 0.043-1.466 0.075-2.079 0.097-0.614 0.022-1.18 0.031-1.701 0.031-0.499 0-1.05-9e-3 -1.664-0.031-0.615-0.022-1.319-0.054-2.12-0.097l-0.014 0.821c1.105 0.019 1.803 0.144 2.089 0.379 0.289 0.237 0.431 0.984 0.431 2.244v11.89c0 1.171-0.147 1.875-0.436 2.106-0.294 0.227-0.992 0.361-2.105 0.396v0.824c0.738-0.045 1.415-0.076 2.033-0.098 0.616-0.022 1.203-0.031 1.759-0.031 0.281 0 0.669 9e-3 1.167 0.022 0.499 0.018 1.375 0.054 2.626 0.107l-0.014-0.824c-1.086-8e-3 -1.776-0.133-2.066-0.37-0.289-0.24-0.435-0.992-0.435-2.252zm-31.156 1.581c0-0.941 0.023-1.731 0.067-2.381 0.04-0.647 0.103-1.083 0.183-1.309 0.047-0.147 0.209-0.255 0.476-0.322 0.262-0.065 0.672-0.097 1.228-0.097h0.432l-0.013-0.965c-0.458 0.025-0.944 0.047-1.447 0.063-0.506 0.012-1.038 0.015-1.593 0.015-0.615 0-1.175-3e-3 -1.67-0.015-0.494-0.016-0.925-0.038-1.29-0.063v0.99c0.738 0 1.241 0.038 1.513 0.103 0.272 0.072 0.453 0.197 0.548 0.378 0.114 0.238 0.2 0.713 0.263 1.431 0.06 0.716 0.092 1.834 0.101 3.343l0.053 10.598c-0.209 0.335-0.471 0.566-0.787 0.709-0.32 0.137-0.823 0.226-1.509 0.271v0.837c0.462-0.018 0.871-0.036 1.238-0.053 0.37-0.018 0.668-0.027 0.904-0.027 0.373 0 0.761 9e-3 1.165 0.027 0.406 0.017 0.81 0.035 1.22 0.053 0.686-0.993 1.456-2.043 2.301-3.152 0.851-1.109 1.768-2.27 2.76-3.486l7.461-9.09v10.653c0 0.939-0.022 1.731-0.065 2.382-0.041 0.645-0.104 1.086-0.183 1.322-0.041 0.138-0.2 0.245-0.468 0.312-0.271 0.071-0.68 0.106-1.237 0.106h-0.418v0.953c0.467-0.027 0.956-0.045 1.463-0.058 0.513-0.013 1.033-0.022 1.572-0.022 0.602 0 1.157 9e-3 1.665 0.027 0.508 0.017 0.948 0.035 1.322 0.053v-0.979c-0.73 0-1.233-0.036-1.504-0.107-0.277-0.067-0.455-0.197-0.544-0.379-0.128-0.258-0.227-0.774-0.285-1.545-0.062-0.765-0.093-1.847-0.093-3.236l-0.053-10.093c0-0.662 4e-3 -1.178 9e-3 -1.552 3e-3 -0.374 8e-3 -0.735 0.017-1.082l-0.182-0.093-1.982 0.431c-0.894 1.167-2.35 2.993-4.367 5.476l-0.547 0.667-7.724 9.478zm-23.671-5.074v0.821h0.053c0.835 0 1.665 0.991 2.494 2.962 0.074 0.191 0.136 0.338 0.182 0.444l6.089 14.655c0.026 0.054 0.072 0.09 0.13 0.116 0.062 0.027 0.146 0.04 0.248 0.04 0.104 0 0.188-0.013 0.24-0.04 0.059-0.026 0.104-0.067 0.14-0.129l6.404-15.857 0.063-0.155c0.539-1.357 1.256-2.036 2.154-2.036h0.104v-0.821c-0.166 6e-3 -0.393 0.016-0.677 0.025-1.203 0.05-2.034 0.077-2.507 0.077-0.677 0-1.296-0.01-1.857-0.027-0.56-0.019-1.089-0.041-1.583-0.075v0.821c0.885 0.038 1.458 0.104 1.716 0.2 0.265 0.104 0.393 0.269 0.393 0.503 0 0.132-0.026 0.309-0.075 0.522-0.053 0.219-0.13 0.453-0.222 0.709l-1.737 4.691h-6.325l-1.738-4.536c-0.137-0.364-0.23-0.642-0.28-0.828-0.044-0.187-0.07-0.364-0.07-0.529 0-0.254 0.133-0.428 0.391-0.532 0.263-0.096 0.802-0.162 1.62-0.2v-0.821c-0.481 0.034-0.943 0.056-1.398 0.075-0.449 0.017-0.894 0.027-1.331 0.027-0.493 0-0.956-0.01-1.379-0.027-0.428-0.019-0.842-0.041-1.242-0.075m5.885 8.657h5.359l-2.662 6.73zm-7.866-6.117 0.298-0.169-0.715-1.384c-0.801-0.459-1.688-0.801-2.663-1.028-0.971-0.228-2.052-0.339-3.245-0.339-1.384 0-2.685 0.217-3.898 0.65-1.216 0.436-2.272 1.059-3.158 1.865-0.992 0.908-1.732 1.959-2.221 3.165-0.493 1.201-0.739 2.579-0.739 4.127 0 2.965 0.929 5.311 2.796 7.043 1.866 1.732 4.407 2.595 7.624 2.595 1.096 0 2.157-0.093 3.175-0.276 1.02-0.182 2.022-0.463 2.991-0.846-0.19-0.641-0.337-1.295-0.44-1.963-0.106-0.664-0.174-1.354-0.209-2.065h-0.677c-0.044 0.4-0.08 0.779-0.103 1.139-0.027 0.361-0.048 0.703-0.066 1.024-0.765 0.61-1.602 1.073-2.507 1.388-0.903 0.317-1.829 0.477-2.777 0.477-2.199 0-3.935-0.69-5.203-2.074-1.271-1.381-1.906-3.272-1.906-5.672 0-2.746 0.77-4.955 2.315-6.623 1.545-1.67 3.574-2.507 6.098-2.507 0.997 0 1.94 0.125 2.831 0.37 0.886 0.25 1.687 0.619 2.399 1.103m-21.673 0.953v-0.128c0-1.198 0.148-1.909 0.437-2.137s0.993-0.361 2.105-0.407l-0.013-0.821c-0.774 0.043-1.465 0.075-2.078 0.097-0.616 0.022-1.18 0.031-1.701 0.031-0.499 0-1.05-9e-3 -1.665-0.031s-1.318-0.054-2.119-0.097l-0.014 0.821c1.104 0.019 1.803 0.144 2.089 0.379 0.289 0.237 0.431 0.984 0.431 2.244v11.89c0 1.171-0.147 1.875-0.436 2.106-0.293 0.227-0.993 0.361-2.106 0.396v0.824c0.738-0.045 1.415-0.076 2.034-0.098 0.615-0.022 1.202-0.031 1.759-0.031 0.28 0 0.668 9e-3 1.166 0.022 0.498 0.018 1.375 0.054 2.626 0.107l-0.013-0.824c-1.087-8e-3 -1.776-0.133-2.065-0.37-0.289-0.24-0.437-0.992-0.437-2.252zm-23.587-3.493-0.013 0.872c1.086 0.017 1.749 0.142 1.994 0.378 0.245 0.235 0.366 0.974 0.366 2.218v12.453c0 0.887-0.112 1.42-0.339 1.6-0.226 0.178-0.859 0.267-1.906 0.267v0.872c0.628-0.027 1.233-0.045 1.822-0.058 0.587-0.013 1.153-0.022 1.701-0.022 0.271 0 0.858 0.018 1.762 0.057 0.903 0.041 1.678 0.063 2.323 0.063 2.182 0 3.731-0.303 4.652-0.908 0.922-0.604 1.385-1.594 1.385-2.965 0-1.264-0.374-2.333-1.127-3.21-0.752-0.876-1.883-1.567-3.382-2.06l4.638-6.171c0.116-0.146 0.276-0.36 0.485-0.637 0.948-1.286 1.696-1.931 2.243-1.931h0.155v-0.818c-0.261 0.025-0.533 0.047-0.823 0.063-0.284 0.012-0.592 0.015-0.912 0.015-0.383 0-0.717-3e-3 -0.997-0.015-0.284-0.016-0.517-0.038-0.699-0.063l-0.391 0.534c-0.815 1.156-1.448 2.029-1.889 2.621l-2.96 3.949-0.052 0.066c-1.114 1.468-1.799 2.265-2.062 2.387v0.481h0.183c1.625 0 2.871 0.347 3.731 1.045 0.859 0.694 1.29 1.692 1.29 2.987 0 1.189-0.339 2.084-1.01 2.676-0.677 0.591-1.701 0.885-3.073 0.885-0.373 0-0.747-0.026-1.116-0.079-0.37-0.05-0.735-0.125-1.1-0.218-0.027-0.735-0.048-1.319-0.062-1.759-0.013-0.437-0.019-0.762-0.019-0.971v-11.083c0-1.297 0.117-2.062 0.353-2.289 0.236-0.232 0.796-0.346 1.683-0.346h0.471v-0.886c-0.721 0.025-1.384 0.047-1.99 0.063-0.606 0.012-1.157 0.015-1.66 0.015-0.566 0-1.157-3e-3 -1.772-0.015-0.61-0.016-1.237-0.038-1.883-0.063m-16.287 0v0.742c0.556 0.156 0.93 0.392 1.127 0.704 0.196 0.311 0.293 1.05 0.293 2.216v12.287c0 0.85-0.124 1.371-0.374 1.558-0.245 0.187-0.889 0.312-1.936 0.383v0.838c0.72-0.037 1.437-0.064 2.15-0.086 0.717-0.023 1.443-0.031 2.182-0.031 2.555 0 5.074 0.031 7.55 0.089 0.419 0.018 0.663 0.028 0.729 0.028 0.334 0 0.574-0.06 0.731-0.171 0.159-0.111 0.235-0.293 0.235-0.535 0-0.025-9e-3 -0.127-0.026-0.31-0.093-1.064-0.142-2.142-0.142-3.237h-0.731c-0.026 0.713-0.076 1.269-0.152 1.661-0.071 0.396-0.186 0.707-0.343 0.934-0.409 0.165-0.979 0.285-1.709 0.365-0.729 0.076-1.798 0.117-3.209 0.117-0.695 0-1.193-5e-3 -1.492-0.018-0.303-0.013-0.569-0.041-0.804-0.072-0.05-0.766-0.086-1.295-0.103-1.584-0.019-0.295-0.027-0.521-0.027-0.686v-4.488c0-0.245 0.036-0.401 0.111-0.475 0.076-0.076 0.241-0.113 0.504-0.113l2.506 0.055c1.495 0.036 2.39 0.163 2.685 0.395 0.296 0.233 0.444 0.717 0.444 1.456v0.508l0.837-0.014c-0.027-0.792-0.044-1.397-0.049-1.816-4e-3 -0.422-4e-3 -0.825-4e-3 -1.193 0-0.35 0-0.73 4e-3 -1.144 5e-3 -0.409 0.022-1.037 0.049-1.869h-0.837c0 0.07 5e-3 0.17 0.013 0.293 9e-3 0.125 0.014 0.214 0.014 0.267 0 0.794-0.151 1.309-0.45 1.55-0.303 0.244-1.198 0.383-2.697 0.418l-2.515 0.025c-0.263 0-0.428-0.034-0.504-0.109-0.075-0.072-0.111-0.231-0.111-0.478v-7.237h5.047c1.039 0 1.75 0.048 2.142 0.142 0.388 0.098 0.646 0.262 0.766 0.498 0.106 0.193 0.209 0.521 0.307 0.999 0.098 0.471 0.192 1.059 0.28 1.752h0.838c-0.072-0.721-0.122-1.41-0.157-2.074-0.035-0.66-0.053-1.288-0.053-1.878v-0.534c-0.485-0.053-0.984-0.089-1.488-0.116-0.502-0.026-1.022-0.04-1.561-0.04-0.409 0-1.286 0.022-2.631 0.067-1.34 0.039-2.488 0.063-3.437 0.063-0.765 0-1.99-0.032-3.676-0.09-0.148-9e-3 -0.254-0.012-0.326-0.012m-27.202 0v0.898c0.566 0.017 1.006 0.067 1.33 0.142 0.322 0.082 0.544 0.192 0.664 0.339 0.113 0.152 0.196 0.47 0.249 0.975 0.05 0.498 0.093 1.478 0.129 2.938l0.183 9.744v0.69c0 0.886-0.151 1.442-0.448 1.67-0.3 0.227-1.003 0.338-2.107 0.338v0.926c0.494-0.027 0.944-0.045 1.345-0.058 0.399-0.013 0.742-0.022 1.027-0.022 0.366 0 0.766 9e-3 1.194 0.022 0.432 0.013 0.899 0.031 1.403 0.058 0.271-0.668 0.604-1.443 1.01-2.32 0.404-0.881 0.886-1.891 1.442-3.04l4.563-9.326 4.487 9.353c0.418 0.876 0.819 1.755 1.206 2.635 0.389 0.877 0.766 1.776 1.14 2.698 0.495-0.027 0.948-0.045 1.362-0.058s0.797-0.022 1.157-0.022c0.459 0 0.887 9e-3 1.282 0.022 0.397 0.013 0.806 0.031 1.234 0.058l-0.014-0.846c-1.148-0.026-1.843-0.142-2.088-0.343-0.244-0.2-0.363-0.849-0.363-1.954v-11.726c0-0.739 0.025-1.313 0.083-1.717 0.058-0.41 0.147-0.678 0.268-0.796 0.088-0.091 0.275-0.153 0.56-0.197 0.289-0.044 0.823-0.084 1.607-0.116l-0.013-0.965c-0.308 0.025-0.686 0.047-1.148 0.063-0.46 0.012-1.269 0.015-2.426 0.015-1.131 0-1.932-3e-3 -2.414-0.015-0.476-0.016-0.889-0.038-1.238-0.063v0.937h0.433c0.823 0 1.349 0.125 1.576 0.38 0.227 0.248 0.338 0.951 0.338 2.096v12.34l-5.556-11.801c-0.485-1.056-0.876-1.915-1.171-2.587-0.297-0.668-0.512-1.194-0.641-1.574h-0.561c-0.227 0.527-0.471 1.09-0.734 1.68-0.267 0.594-0.574 1.256-0.921 1.997l-5.726 12.023 0.04-10.902c0-1.268 0.032-2.115 0.09-2.538 0.062-0.419 0.173-0.695 0.329-0.828 0.129-0.094 0.383-0.17 0.761-0.226 0.379-0.06 0.828-0.085 1.35-0.085v-0.912c-0.446 0.025-0.922 0.047-1.43 0.063-0.507 0.012-1.036 0.015-1.585 0.015-0.574 0-1.131-3e-3 -1.669-0.015-0.538-0.016-1.067-0.038-1.589-0.063m-19.995 0v0.821h0.054c0.836 0 1.664 0.991 2.492 2.962 0.076 0.191 0.139 0.338 0.183 0.444l6.089 14.655c0.027 0.054 0.072 0.09 0.129 0.116 0.063 0.027 0.147 0.04 0.25 0.04 0.102 0 0.187-0.013 0.241-0.04 0.057-0.026 0.101-0.067 0.137-0.129l6.407-15.857 0.061-0.155c0.539-1.357 1.256-2.036 2.155-2.036h0.103v-0.821c-0.165 6e-3 -0.393 0.016-0.677 0.025-1.202 0.05-2.034 0.077-2.506 0.077-0.676 0-1.296-0.01-1.857-0.027-0.56-0.019-1.09-0.041-1.584-0.075v0.821c0.886 0.038 1.459 0.104 1.718 0.2 0.262 0.104 0.392 0.269 0.392 0.503 0 0.132-0.027 0.309-0.076 0.522-0.054 0.219-0.13 0.453-0.223 0.709l-1.736 4.691h-6.325l-1.736-4.536c-0.138-0.364-0.231-0.642-0.281-0.828-0.045-0.187-0.071-0.364-0.071-0.529 0-0.254 0.134-0.428 0.392-0.532 0.262-0.096 0.801-0.162 1.62-0.2v-0.821c-0.481 0.034-0.944 0.056-1.399 0.075-0.448 0.017-0.893 0.027-1.33 0.027-0.495 0-0.957-0.01-1.381-0.027-0.426-0.019-0.84-0.041-1.241-0.075m5.885 8.657h5.359l-2.661 6.73zm285.61-27.525v-0.118c0-1.1 0.129-1.753 0.396-1.962 0.261-0.21 0.908-0.331 1.939-0.372l-0.013-0.758c-0.712 0.041-1.346 0.07-1.91 0.089-0.564 0.022-1.084 0.03-1.562 0.03-0.457 0-0.965-8e-3 -1.531-0.03-0.564-0.019-1.211-0.048-1.946-0.089l-0.013 0.758c1.006 0.015 1.645 0.131 1.915 0.347 0.266 0.216 0.4 0.903 0.4 2.062v10.925c0 1.075-0.134 1.722-0.4 1.934-0.27 0.209-0.912 0.331-1.935 0.366v0.756c0.68-0.041 1.301-0.071 1.87-0.091 0.563-0.02 1.104-0.028 1.615-0.028 0.24 0 0.581 8e-3 1.019 0.02 0.437 0.017 1.251 0.049 2.441 0.099l-0.013-0.756c-0.989-0.01-1.615-0.119-1.876-0.333-0.267-0.208-0.396-0.905-0.396-2.078v-4.263c0.551 0 1.373-6e-3 2.47-0.025 1.092-0.015 1.918-0.022 2.466-0.022 0.536 0 1.354 7e-3 2.446 0.022 1.097 0.019 1.914 0.025 2.459 0.025v4.374c0 1.075-0.131 1.722-0.397 1.934-0.262 0.209-0.909 0.331-1.93 0.366v0.756c0.652-0.041 1.266-0.071 1.84-0.091 0.571-0.02 1.12-0.028 1.648-0.028 0.262 0 0.642 8e-3 1.137 0.028 0.495 0.015 1.271 0.045 2.335 0.091v-0.756c-1.014-0.018-1.648-0.132-1.911-0.35-0.255-0.216-0.387-0.903-0.387-2.061v-10.889c0-1.1 0.132-1.753 0.395-1.962 0.263-0.21 0.905-0.331 1.928-0.372v-0.758c-0.654 0.041-1.269 0.07-1.845 0.089-0.576 0.022-1.117 0.03-1.628 0.03-0.25 0-0.601-8e-3 -1.063-0.023-0.458-0.018-1.26-0.047-2.401-0.096v0.758c0.998 0.015 1.627 0.131 1.888 0.339 0.26 0.213 0.391 0.904 0.391 2.07v5.399c-1.352 0.015-2.365 0.028-3.04 0.037-0.675 7e-3 -1.296 0.012-1.865 0.012-0.574 0-1.203-5e-3 -1.885-0.012-0.683-9e-3 -1.701-0.025-3.051-0.05zm-6.336-0.874 0.273-0.155-0.66-1.273c-0.735-0.421-1.548-0.736-2.444-0.944-0.892-0.209-1.886-0.313-2.981-0.313-1.274 0-2.467 0.201-3.584 0.599-1.118 0.401-2.087 0.974-2.901 1.714-0.913 0.834-1.591 1.8-2.041 2.908-0.454 1.104-0.679 2.368-0.679 3.792 0 2.722 0.856 4.878 2.568 6.471 1.716 1.591 4.051 2.384 7.008 2.384 1.006 0 1.979-0.085 2.917-0.253 0.936-0.168 1.857-0.425 2.749-0.778-0.177-0.589-0.313-1.19-0.407-1.802-0.098-0.611-0.159-1.246-0.192-1.9h-0.621c-0.041 0.369-0.073 0.716-0.094 1.047-0.025 0.331-0.046 0.647-0.061 0.94-0.704 0.562-1.473 0.987-2.303 1.278-0.83 0.29-1.682 0.437-2.552 0.437-2.021 0-3.616-0.634-4.782-1.905-1.166-1.269-1.751-3.006-1.751-5.212 0-2.524 0.708-4.552 2.128-6.086 1.418-1.534 3.283-2.303 5.603-2.303 0.915 0 1.783 0.115 2.601 0.339 0.813 0.231 1.551 0.57 2.206 1.015m-31.479-2.336-0.013 0.802c0.998 0.015 1.607 0.131 1.832 0.347 0.225 0.218 0.336 0.896 0.336 2.038v11.445c0 0.813-0.104 1.303-0.311 1.469-0.21 0.162-0.789 0.244-1.752 0.244v0.803c0.577-0.025 1.135-0.041 1.674-0.054 0.54-0.012 1.059-0.022 1.562-0.022 0.25 0 0.791 0.018 1.62 0.054 0.831 0.037 1.542 0.058 2.136 0.058 2.003 0 3.426-0.279 4.273-0.835s1.273-1.463 1.273-2.724c0-1.161-0.343-2.144-1.036-2.948-0.69-0.806-1.73-1.44-3.108-1.895l4.262-5.669c0.107-0.135 0.254-0.331 0.446-0.584 0.872-1.184 1.559-1.776 2.062-1.776h0.142v-0.753c-0.24 0.025-0.49 0.046-0.756 0.058-0.263 0.012-0.544 0.015-0.839 0.015-0.351 0-0.657-3e-3 -0.915-0.015-0.262-0.012-0.475-0.033-0.642-0.058l-0.361 0.492c-0.748 1.063-1.329 1.865-1.734 2.409l-2.72 3.627-0.05 0.063c-1.021 1.349-1.652 2.081-1.892 2.191v0.443h0.167c1.493 0 2.638 0.318 3.429 0.96 0.789 0.639 1.185 1.554 1.185 2.745 0 1.093-0.31 1.915-0.93 2.459-0.62 0.543-1.562 0.813-2.821 0.813-0.344 0-0.687-0.025-1.026-0.073-0.34-0.045-0.676-0.116-1.011-0.2-0.024-0.675-0.045-1.212-0.058-1.616-0.012-0.402-0.015-0.699-0.015-0.893v-10.185c0-1.19 0.106-1.893 0.322-2.102 0.217-0.213 0.732-0.319 1.546-0.319h0.434v-0.814c-0.662 0.025-1.273 0.046-1.829 0.058s-1.062 0.015-1.524 0.015c-0.521 0-1.064-3e-3 -1.628-0.015-0.561-0.012-1.138-0.033-1.73-0.058m-17.654 1e-4v0.758h0.048c0.768 0 1.531 0.907 2.29 2.718 0.07 0.178 0.128 0.312 0.169 0.409l5.596 13.466c0.024 0.049 0.065 0.083 0.118 0.106 0.057 0.025 0.134 0.037 0.228 0.037 0.095 0 0.172-0.012 0.222-0.037 0.053-0.023 0.094-0.06 0.126-0.117l5.887-14.57 0.057-0.144c0.493-1.246 1.153-1.868 1.98-1.868h0.093v-0.758c-0.152 8e-3 -0.359 0.018-0.622 0.025-1.104 0.045-1.868 0.071-2.302 0.071-0.622 0-1.191-0.01-1.706-0.026-0.516-0.016-1.001-0.037-1.455-0.07v0.758c0.813 0.031 1.341 0.094 1.577 0.184 0.242 0.094 0.361 0.244 0.361 0.461 0 0.118-0.025 0.283-0.069 0.48-0.05 0.2-0.119 0.415-0.204 0.649l-1.595 4.312h-5.814l-1.595-4.168c-0.127-0.336-0.213-0.59-0.257-0.762-0.042-0.172-0.067-0.335-0.067-0.486 0-0.233 0.123-0.392 0.361-0.486 0.24-0.09 0.735-0.153 1.488-0.184v-0.758c-0.441 0.033-0.866 0.054-1.283 0.07-0.414 0.016-0.822 0.026-1.224 0.026-0.454 0-0.879-0.01-1.268-0.026-0.392-0.016-0.774-0.037-1.14-0.07m5.406 7.956h4.925l-2.446 6.185zm-18.778-7.956v0.683c0.511 0.143 0.854 0.359 1.034 0.646 0.181 0.288 0.271 0.966 0.271 2.037v11.29c0 0.782-0.115 1.261-0.344 1.432-0.226 0.172-0.817 0.286-1.779 0.35v0.77c0.662-0.032 1.321-0.058 1.975-0.078 0.659-0.02 1.325-0.028 2.004-0.028 2.349 0 4.663 0.028 6.938 0.082 0.384 0.017 0.609 0.024 0.671 0.024 0.307 0 0.527-0.053 0.67-0.154 0.148-0.103 0.218-0.272 0.218-0.492 0-0.024-0.01-0.118-0.025-0.286-0.086-0.978-0.131-1.968-0.131-2.974h-0.672c-0.023 0.654-0.068 1.165-0.138 1.526-0.065 0.364-0.171 0.651-0.315 0.859-0.376 0.151-0.899 0.261-1.571 0.336-0.67 0.068-1.652 0.106-2.95 0.106-0.637 0-1.095-5e-3 -1.368-0.017-0.28-0.011-0.525-0.036-0.742-0.064-0.044-0.705-0.077-1.191-0.094-1.458-0.015-0.27-0.023-0.479-0.023-0.629v-4.124c0-0.225 0.031-0.367 0.101-0.438 0.071-0.068 0.22-0.103 0.462-0.103l2.303 0.05c1.375 0.035 2.196 0.152 2.467 0.366 0.274 0.212 0.409 0.658 0.409 1.337v0.466l0.769-0.013c-0.026-0.728-0.041-1.284-0.045-1.669-4e-3 -0.388-4e-3 -0.756-4e-3 -1.096 0-0.322 0-0.672 4e-3 -1.051 4e-3 -0.376 0.019-0.952 0.045-1.717h-0.769c0 0.065 3e-3 0.155 0.013 0.268 8e-3 0.117 0.012 0.198 0.012 0.247 0 0.729-0.139 1.202-0.414 1.422-0.278 0.225-1.1 0.353-2.479 0.384l-2.311 0.025c-0.242 0-0.391-0.031-0.462-0.101-0.07-0.066-0.101-0.213-0.101-0.438v-6.651h4.638c0.953 0 1.607 0.045 1.966 0.131 0.357 0.089 0.594 0.242 0.705 0.46 0.098 0.175 0.192 0.475 0.281 0.913 0.091 0.434 0.177 0.975 0.258 1.612h0.77c-0.065-0.662-0.111-1.297-0.143-1.905-0.034-0.607-0.049-1.182-0.049-1.725v-0.492c-0.447-0.049-0.905-0.083-1.367-0.106-0.462-0.024-0.941-0.036-1.436-0.036-0.376 0-1.183 0.018-2.418 0.059-1.23 0.037-2.287 0.06-3.157 0.06-0.702 0-1.827-0.031-3.379-0.083-0.134-8e-3 -0.233-0.013-0.298-0.013m-13.372 0.5156c0.07 0.662 0.127 1.317 0.168 1.964 0.042 0.646 0.062 1.287 0.062 1.918l0.777-0.026v-0.297c0-1.121 0.298-1.918 0.899-2.398 0.599-0.478 1.592-0.719 2.983-0.719 1.24 0 2.205 0.329 2.9 0.981 0.695 0.659 1.043 1.562 1.043 2.724 0 0.922-0.229 1.603-0.684 2.05-0.455 0.449-1.362 0.806-2.719 1.069-0.185 0.04-0.443 0.084-0.779 0.141-1.701 0.321-2.817 0.675-3.345 1.068-0.493 0.368-0.867 0.815-1.12 1.343-0.25 0.528-0.376 1.124-0.376 1.793 0 1.584 0.552 2.873 1.66 3.871 1.104 0.998 2.535 1.497 4.296 1.497 0.695 0 1.394-0.082 2.089-0.246 0.699-0.164 1.383-0.407 2.045-0.735-0.103-0.703-0.18-1.334-0.234-1.891-0.053-0.552-0.081-1.074-0.089-1.562l-0.794-0.037v0.253c0 1.118-0.265 1.931-0.798 2.443-0.526 0.511-1.382 0.769-2.555 0.769-1.056 0-1.906-0.319-2.558-0.956-0.649-0.639-0.975-1.475-0.975-2.504 0-0.872 0.24-1.539 0.722-1.997 0.484-0.457 1.338-0.817 2.561-1.072 0.229-0.04 0.565-0.098 1.006-0.179 1.628-0.287 2.729-0.634 3.293-1.043 0.478-0.352 0.831-0.764 1.055-1.247 0.226-0.48 0.335-1.048 0.335-1.703 0-1.75-0.678-3.211-2.032-4.38-1.354-1.17-3.056-1.756-5.11-1.756-0.613 0-1.234 0.075-1.856 0.218s-1.248 0.357-1.87 0.646m-14.381-0.5156v0.683c0.512 0.143 0.855 0.359 1.034 0.646 0.18 0.288 0.271 0.966 0.271 2.037v11.29c0 0.782-0.115 1.261-0.344 1.432-0.225 0.172-0.818 0.286-1.779 0.35v0.77c0.663-0.032 1.322-0.058 1.976-0.078 0.657-0.02 1.324-0.028 2.004-0.028 2.348 0 4.663 0.028 6.938 0.082 0.383 0.017 0.609 0.024 0.67 0.024 0.306 0 0.528-0.053 0.669-0.154 0.149-0.103 0.218-0.272 0.218-0.492 0-0.024-8e-3 -0.118-0.023-0.286-0.086-0.978-0.132-1.968-0.132-2.974h-0.672c-0.023 0.654-0.068 1.165-0.139 1.526-0.065 0.364-0.171 0.651-0.313 0.859-0.377 0.151-0.9 0.261-1.572 0.336-0.67 0.068-1.653 0.106-2.95 0.106-0.636 0-1.096-5e-3 -1.369-0.017-0.278-0.011-0.523-0.036-0.741-0.064-0.045-0.705-0.076-1.191-0.094-1.458-0.015-0.27-0.024-0.479-0.024-0.629v-4.124c0-0.225 0.032-0.367 0.102-0.438 0.07-0.068 0.221-0.103 0.461-0.103l2.305 0.05c1.374 0.035 2.196 0.152 2.466 0.366 0.273 0.212 0.409 0.658 0.409 1.337v0.466l0.77-0.013c-0.026-0.728-0.041-1.284-0.046-1.669-5e-3 -0.388-5e-3 -0.756-5e-3 -1.096 0-0.322 0-0.672 5e-3 -1.051 5e-3 -0.376 0.02-0.952 0.046-1.717h-0.77c0 0.065 4e-3 0.155 0.013 0.268 8e-3 0.117 0.011 0.198 0.011 0.247 0 0.729-0.139 1.202-0.413 1.422-0.278 0.225-1.101 0.353-2.478 0.384l-2.313 0.025c-0.24 0-0.391-0.031-0.461-0.101-0.07-0.066-0.102-0.213-0.102-0.438v-6.651h4.64c0.952 0 1.607 0.045 1.965 0.131 0.357 0.089 0.594 0.242 0.704 0.46 0.098 0.175 0.194 0.475 0.283 0.913 0.091 0.434 0.176 0.975 0.258 1.612h0.768c-0.065-0.662-0.109-1.297-0.143-1.905-0.032-0.607-0.049-1.182-0.049-1.725v-0.492c-0.446-0.049-0.904-0.083-1.366-0.106-0.462-0.024-0.942-0.036-1.435-0.036-0.377 0-1.183 0.018-2.418 0.059-1.231 0.037-2.287 0.06-3.157 0.06-0.704 0-1.829-0.031-3.379-0.083-0.136-8e-3 -0.235-0.013-0.299-0.013m-16.98 0-0.013 0.802c0.998 0.015 1.608 0.131 1.834 0.347 0.225 0.218 0.334 0.896 0.334 2.038v11.445c0 0.813-0.101 1.303-0.31 1.469-0.208 0.162-0.789 0.244-1.75 0.244v0.802c0.577-0.024 1.133-0.04 1.674-0.053 0.539-0.012 1.058-0.022 1.561-0.022 0.25 0 0.789 0.018 1.62 0.053 0.829 0.038 1.542 0.059 2.136 0.059 2.004 0 3.427-0.279 4.273-0.835 0.847-0.556 1.272-1.463 1.272-2.724 0-1.161-0.344-2.144-1.034-2.948-0.692-0.806-1.731-1.44-3.109-1.895l4.262-5.669c0.106-0.135 0.255-0.331 0.446-0.584 0.87-1.184 1.558-1.776 2.061-1.776h0.143v-0.753c-0.24 0.025-0.49 0.046-0.756 0.058-0.262 0.012-0.544 0.015-0.838 0.015-0.352 0-0.66-3e-3 -0.917-0.015-0.261-0.012-0.474-0.033-0.642-0.058l-0.359 0.492c-0.75 1.063-1.329 1.865-1.736 2.409l-2.719 3.627-0.049 0.063c-1.024 1.349-1.653 2.081-1.893 2.191v0.443h0.167c1.493 0 2.637 0.318 3.427 0.96 0.789 0.639 1.186 1.554 1.186 2.745 0 1.093-0.311 1.915-0.928 2.459-0.622 0.543-1.563 0.813-2.822 0.813-0.344 0-0.688-0.025-1.027-0.073-0.341-0.046-0.675-0.116-1.011-0.2-0.023-0.675-0.045-1.212-0.056-1.616-0.013-0.402-0.017-0.699-0.017-0.893v-10.185c0-1.19 0.106-1.893 0.323-2.102 0.217-0.213 0.733-0.319 1.546-0.319h0.433v-0.814c-0.662 0.025-1.272 0.046-1.827 0.058-0.557 0.012-1.064 0.015-1.527 0.015-0.518 0-1.063-3e-3 -1.628-0.015-0.56-0.012-1.136-0.033-1.73-0.058m-7.8984 2.3359 0.275-0.155-0.659-1.273c-0.736-0.421-1.55-0.736-2.446-0.944-0.891-0.209-1.886-0.313-2.983-0.313-1.271 0-2.466 0.201-3.582 0.599-1.116 0.401-2.086 0.974-2.9 1.714-0.912 0.834-1.591 1.8-2.042 2.908-0.453 1.104-0.678 2.368-0.678 3.792 0 2.722 0.855 4.878 2.569 6.471 1.715 1.591 4.05 2.384 7.008 2.384 1.005 0 1.978-0.085 2.916-0.253 0.935-0.168 1.855-0.425 2.748-0.778-0.176-0.589-0.312-1.19-0.406-1.802-0.097-0.611-0.159-1.246-0.191-1.9h-0.622c-0.041 0.369-0.073 0.716-0.094 1.047-0.025 0.331-0.045 0.647-0.06 0.94-0.706 0.563-1.474 0.987-2.305 1.278-0.829 0.29-1.681 0.437-2.553 0.437-2.019 0-3.614-0.634-4.779-1.905-1.167-1.269-1.751-3.006-1.751-5.212 0-2.524 0.707-4.552 2.126-6.086 1.42-1.534 3.285-2.303 5.604-2.303 0.915 0 1.783 0.115 2.601 0.339 0.814 0.231 1.55 0.57 2.204 1.015m-18.922 0.874v-0.118c0-1.1 0.137-1.753 0.401-1.962 0.266-0.21 0.913-0.331 1.935-0.372l-0.011-0.758c-0.713 0.041-1.346 0.07-1.911 0.089-0.565 0.022-1.084 0.03-1.563 0.03-0.458 0-0.964-8e-3 -1.53-0.03-0.563-0.019-1.211-0.048-1.946-0.089l-0.013 0.758c1.014 0.015 1.657 0.131 1.918 0.347 0.266 0.216 0.398 0.903 0.398 2.062v10.925c0 1.075-0.135 1.722-0.402 1.934-0.268 0.209-0.912 0.331-1.934 0.366v0.756c0.679-0.041 1.302-0.071 1.869-0.091 0.565-0.02 1.103-0.028 1.616-0.028 0.258 0 0.612 8e-3 1.071 0.02 0.458 0.017 1.265 0.049 2.415 0.099l-0.013-0.756c-0.998-0.01-1.633-0.125-1.899-0.341-0.264-0.222-0.401-0.912-0.401-2.07zm-27.702-3.2099v0.826c0.519 0.016 0.924 0.063 1.222 0.132 0.295 0.073 0.5 0.175 0.61 0.311 0.102 0.138 0.18 0.432 0.229 0.895 0.044 0.459 0.085 1.358 0.119 2.699l0.168 8.954v0.634c0 0.814-0.141 1.325-0.414 1.534s-0.92 0.311-1.934 0.311v0.851c0.453-0.024 0.867-0.04 1.234-0.053 0.369-0.012 0.684-0.022 0.946-0.022 0.336 0 0.704 0.01 1.096 0.022 0.397 0.013 0.827 0.029 1.288 0.053 0.25-0.615 0.557-1.324 0.928-2.13 0.372-0.811 0.815-1.741 1.325-2.795l4.193-8.568 4.124 8.593c0.385 0.805 0.753 1.61 1.109 2.421 0.355 0.805 0.703 1.633 1.046 2.479 0.455-0.024 0.872-0.04 1.252-0.053 0.381-0.012 0.732-0.022 1.063-0.022 0.42 0 0.814 0.01 1.178 0.022 0.364 0.013 0.74 0.029 1.133 0.053l-0.013-0.777c-1.054-0.025-1.693-0.132-1.918-0.316s-0.334-0.781-0.334-1.795v-10.774c0-0.677 0.024-1.206 0.077-1.578 0.052-0.378 0.135-0.621 0.245-0.734 0.083-0.081 0.255-0.137 0.515-0.178 0.267-0.042 0.758-0.078 1.478-0.106l-0.013-0.889c-0.282 0.025-0.629 0.046-1.056 0.058-0.419 0.012-1.165 0.015-2.229 0.015-1.038 0-1.774-3e-3 -2.216-0.015-0.437-0.012-0.819-0.033-1.138-0.058v0.864h0.397c0.757 0 1.24 0.115 1.448 0.347 0.208 0.227 0.311 0.875 0.311 1.928v11.337l-5.105-10.844c-0.445-0.968-0.805-1.759-1.075-2.376-0.274-0.613-0.47-1.097-0.589-1.448h-0.514c-0.21 0.488-0.435 1.003-0.676 1.546-0.246 0.544-0.528 1.154-0.846 1.833l-5.262 11.049 0.037-10.018c0-1.167 0.029-1.944 0.082-2.332 0.058-0.385 0.16-0.638 0.303-0.761 0.119-0.086 0.352-0.154 0.698-0.208 0.349-0.053 0.763-0.078 1.241-0.078v-0.839c-0.409 0.025-0.847 0.046-1.314 0.058-0.466 0.012-0.953 0.015-1.456 0.015-0.528 0-1.039-3e-3 -1.534-0.015s-0.98-0.033-1.459-0.058m-19.691 8.5215c0 1.333 0.222 2.546 0.667 3.64 0.441 1.096 1.1 2.062 1.979 2.899 0.823 0.794 1.792 1.395 2.904 1.812 1.114 0.413 2.307 0.622 3.575 0.622 2.753 0 4.941-0.744 6.559-2.234 1.615-1.493 2.423-3.501 2.423-6.033 0-1.391-0.211-2.642-0.641-3.759-0.425-1.112-1.072-2.118-1.931-3.014-0.921-0.941-1.964-1.648-3.129-2.119-1.166-0.469-2.454-0.709-3.865-0.709-2.598 0-4.667 0.806-6.217 2.423-1.552 1.611-2.324 3.773-2.324 6.472m2.504 0.8c0-2.593 0.625-4.684 1.873-6.266 1.251-1.582 2.888-2.373 4.916-2.373 1.963 0 3.497 0.672 4.606 2.012 1.105 1.344 1.656 3.209 1.656 5.596 0 2.574-0.592 4.589-1.783 6.055-1.19 1.46-2.817 2.193-4.887 2.193-2.009 0-3.575-0.631-4.7-1.893-1.121-1.263-1.681-3.037-1.681-5.324m-20.023-4.6584c0-0.862 0.021-1.59 0.062-2.187 0.036-0.593 0.093-0.997 0.167-1.203 0.045-0.135 0.192-0.234 0.437-0.295 0.242-0.061 0.618-0.089 1.13-0.089h0.396l-0.012-0.889c-0.42 0.025-0.867 0.046-1.329 0.058-0.467 0.012-0.954 0.015-1.464 0.015-0.564 0-1.08-3e-3 -1.534-0.015s-0.851-0.033-1.186-0.058v0.912c0.679 0 1.141 0.033 1.391 0.094 0.249 0.066 0.417 0.179 0.503 0.348 0.106 0.216 0.184 0.654 0.241 1.313 0.056 0.659 0.087 1.686 0.094 3.071l0.048 9.741c-0.191 0.306-0.432 0.518-0.722 0.65-0.295 0.126-0.758 0.209-1.388 0.25v0.768c0.425-0.017 0.802-0.034 1.138-0.049 0.339-0.016 0.613-0.026 0.83-0.026 0.344 0 0.699 0.01 1.071 0.026 0.372 0.015 0.745 0.032 1.121 0.049 0.631-0.912 1.337-1.878 2.114-2.896 0.783-1.018 1.624-2.087 2.537-3.202l6.854-8.355v9.789c0 0.864-0.02 1.592-0.061 2.19-0.036 0.592-0.093 0.997-0.167 1.214-0.036 0.126-0.184 0.225-0.429 0.286-0.25 0.065-0.627 0.099-1.138 0.099h-0.384v0.875c0.43-0.025 0.879-0.04 1.347-0.053 0.468-0.012 0.947-0.022 1.443-0.022 0.551 0 1.062 0.01 1.53 0.026 0.466 0.015 0.871 0.032 1.214 0.049v-0.9c-0.671 0-1.133-0.034-1.383-0.1-0.253-0.059-0.417-0.177-0.498-0.346-0.119-0.236-0.208-0.712-0.262-1.419-0.058-0.702-0.086-1.698-0.086-2.974l-0.05-9.272c0-0.61 5e-3 -1.084 0.01-1.428 3e-3 -0.344 8e-3 -0.675 0.016-0.994l-0.169-0.087-1.82 0.398c-0.822 1.072-2.159 2.747-4.011 5.032l-0.505 0.612-7.096 8.709zm-23.069 3.8584c0 1.333 0.221 2.546 0.667 3.64 0.442 1.096 1.1 2.062 1.979 2.899 0.823 0.794 1.792 1.395 2.905 1.812 1.112 0.413 2.306 0.622 3.574 0.622 2.753 0 4.941-0.744 6.557-2.234 1.617-1.493 2.425-3.501 2.425-6.033 0-1.391-0.211-2.642-0.642-3.759-0.425-1.112-1.071-2.118-1.931-3.014-0.92-0.941-1.963-1.648-3.128-2.119-1.165-0.469-2.455-0.709-3.866-0.709-2.597 0-4.666 0.806-6.216 2.423-1.55 1.611-2.324 3.773-2.324 6.472m2.503 0.8c0-2.593 0.627-4.684 1.873-6.266 1.252-1.582 2.89-2.373 4.917-2.373 1.965 0 3.498 0.672 4.606 2.012 1.104 1.344 1.657 3.209 1.657 5.596 0 2.574-0.593 4.589-1.784 6.055-1.19 1.46-2.819 2.193-4.887 2.193-2.009 0-3.576-0.631-4.7-1.893-1.122-1.263-1.682-3.037-1.682-5.324m-4.8136-6.9856 0.274-0.155-0.659-1.273c-0.735-0.421-1.551-0.736-2.446-0.944-0.892-0.209-1.886-0.313-2.982-0.313-1.272 0-2.466 0.201-3.582 0.599-1.118 0.401-2.087 0.974-2.901 1.714-0.912 0.834-1.591 1.8-2.041 2.908-0.453 1.104-0.679 2.368-0.679 3.792 0 2.722 0.855 4.878 2.57 6.471 1.713 1.591 4.049 2.384 7.006 2.384 1.005 0 1.979-0.085 2.917-0.253 0.935-0.168 1.856-0.425 2.748-0.778-0.175-0.589-0.311-1.19-0.405-1.802-0.098-0.611-0.16-1.246-0.193-1.9h-0.621c-0.041 0.369-0.073 0.716-0.095 1.047-0.024 0.331-0.045 0.647-0.06 0.94-0.705 0.563-1.473 0.987-2.303 1.278-0.831 0.29-1.682 0.437-2.553 0.437-2.02 0-3.616-0.634-4.782-1.905-1.165-1.269-1.75-3.006-1.75-5.212 0-2.524 0.708-4.552 2.127-6.086 1.42-1.534 3.285-2.303 5.603-2.303 0.917 0 1.784 0.115 2.602 0.339 0.814 0.231 1.55 0.57 2.205 1.015m-29.299-2.3359v0.683c0.511 0.143 0.854 0.359 1.034 0.646 0.181 0.288 0.271 0.966 0.271 2.037v11.29c0 0.782-0.116 1.261-0.344 1.432-0.225 0.172-0.817 0.286-1.779 0.35v0.77c0.662-0.032 1.321-0.058 1.975-0.078 0.658-0.02 1.325-0.028 2.004-0.028 2.348 0 4.664 0.028 6.938 0.082 0.384 0.017 0.61 0.024 0.671 0.024 0.306 0 0.527-0.053 0.67-0.154 0.147-0.103 0.216-0.272 0.216-0.492 0-0.024-8e-3 -0.118-0.023-0.286-0.086-0.978-0.131-1.968-0.131-2.974h-0.672c-0.023 0.654-0.068 1.165-0.139 1.526-0.064 0.364-0.17 0.651-0.314 0.859-0.376 0.151-0.899 0.261-1.57 0.336-0.672 0.068-1.654 0.106-2.95 0.106-0.637 0-1.096-5e-3 -1.371-0.017-0.277-0.011-0.523-0.036-0.74-0.064-0.044-0.705-0.077-1.191-0.094-1.458-0.016-0.27-0.024-0.479-0.024-0.629v-4.124c0-0.225 0.033-0.367 0.101-0.438 0.071-0.068 0.222-0.103 0.463-0.103l2.303 0.05c1.374 0.035 2.196 0.152 2.466 0.366 0.274 0.212 0.409 0.658 0.409 1.337v0.466l0.77-0.013c-0.025-0.728-0.041-1.284-0.045-1.669-5e-3 -0.388-5e-3 -0.756-5e-3 -1.096 0-0.322 0-0.672 5e-3 -1.051 4e-3 -0.376 0.02-0.952 0.045-1.717h-0.77c0 0.065 4e-3 0.155 0.013 0.268 8e-3 0.117 0.013 0.198 0.013 0.247 0 0.729-0.14 1.202-0.414 1.422-0.279 0.225-1.1 0.353-2.479 0.384l-2.311 0.025c-0.241 0-0.392-0.031-0.463-0.101-0.068-0.066-0.101-0.213-0.101-0.438v-6.651h4.639c0.952 0 1.607 0.045 1.966 0.131 0.357 0.089 0.593 0.242 0.705 0.46 0.097 0.175 0.192 0.475 0.282 0.913 0.09 0.434 0.176 0.975 0.258 1.612h0.768c-0.065-0.662-0.11-1.297-0.143-1.905-0.033-0.607-0.048-1.182-0.048-1.725v-0.492c-0.447-0.049-0.906-0.083-1.367-0.106-0.463-0.024-0.941-0.036-1.436-0.036-0.376 0-1.182 0.018-2.417 0.059-1.231 0.037-2.286 0.06-3.158 0.06-0.703 0-1.828-0.031-3.378-0.083-0.136-8e-3 -0.234-0.013-0.299-0.013m-15.805-0.0733c0.601 2.128 1.071 4.074 1.419 5.849 0.348 1.776 0.523 3.027 0.523 3.752 0 0.191-0.019 0.334-0.061 0.424-0.04 0.094-0.098 0.14-0.18 0.14-0.2 0-0.467-0.096-0.805-0.283-0.339-0.188-0.761-0.47-1.256-0.842l-0.275 0.379c0.966 0.794 1.796 1.388 2.488 1.788 0.691 0.397 1.226 0.598 1.611 0.598 0.135 0 0.241-0.049 0.311-0.144 0.074-0.098 0.106-0.236 0.106-0.42 0-0.303-0.066-0.875-0.2-1.723-0.139-0.847-0.324-1.812-0.565-2.888 1.056 1.852 1.935 3.183 2.634 3.989 0.705 0.806 1.334 1.209 1.882 1.209 0.098 0 0.183-0.012 0.258-0.028 0.077-0.02 0.147-0.053 0.213-0.091l0.119-0.178-0.454-2.324-0.205-0.049c-0.135 0.112-0.275 0.196-0.414 0.254-0.138 0.053-0.278 0.083-0.413 0.083-0.961 0-1.878-0.832-2.753-2.487-0.87-1.657-1.586-3.937-2.138-6.828-0.327-0.049-0.621-0.099-0.893-0.152-0.265-0.049-0.507-0.106-0.723-0.172zm-5.956 11.097c0.744 0 1.306-0.266 1.686-0.798 0.379-0.533 0.568-1.317 0.568-2.356 0-2.298-0.336-4.11-1.002-5.44-0.667-1.325-1.575-1.988-2.729-1.988-0.711 0-1.252 0.282-1.627 0.85-0.376 0.568-0.565 1.388-0.565 2.459 0 1.04 0.118 2.059 0.352 3.056 0.238 0.998 0.573 1.899 1.002 2.696 0.274 0.487 0.609 0.862 1.006 1.124 0.402 0.266 0.839 0.397 1.309 0.397m-5.502-7.417c0-1.302 0.283-2.293 0.852-2.977 0.568-0.683 1.386-1.026 2.458-1.026 1.78 0 3.263 0.77 4.454 2.31 1.189 1.543 1.788 3.505 1.788 5.886 0 1.367-0.271 2.368-0.814 3.002-0.545 0.635-1.396 0.953-2.552 0.953-1.76 0-3.228-0.769-4.411-2.306-1.181-1.538-1.775-3.485-1.775-5.842m-4.4414 6.0645h-0.421c-0.246 0-0.487-9e-3 -0.721-0.025-0.228-0.017-0.465-0.042-0.703-0.07v0.379c0.221 0.091 0.741 0.313 1.554 0.664l0.459 0.205c0.176 1.234 0.364 2.171 0.561 2.801 0.2 0.634 0.458 1.148 0.768 1.546 0.647 0.801 1.351 1.46 2.107 1.984 0.76 0.523 1.382 0.786 1.873 0.786 0.172 0 0.339-0.025 0.491-0.075 0.151-0.044 0.299-0.119 0.441-0.213-0.118-0.29-0.232-0.605-0.335-0.953-0.102-0.346-0.209-0.756-0.31-1.218l-0.243 0.131c-0.126 0.256-0.293 0.453-0.495 0.597-0.204 0.139-0.437 0.209-0.702 0.209-0.59 0-1.04-0.234-1.346-0.7-0.307-0.471-0.561-1.366-0.749-2.691l-0.315-2.254c0.475 0 0.937 0.015 1.392 0.05 0.457 0.031 0.916 0.078 1.377 0.142l-0.359-1.295h-2.61l-0.339-2.312c-0.847-5.784-1.657-9.543-2.431-11.273-0.776-1.73-1.852-2.594-3.234-2.594-0.226 0-0.435 0.012-0.631 0.036-0.195 0.025-0.38 0.062-0.556 0.119l-0.074 0.193 0.671 1.762 0.311 0.082c0.209-0.302 0.43-0.531 0.659-0.681 0.232-0.154 0.482-0.23 0.743-0.23 1.023 0 1.932 3.619 2.721 10.858 0.184 1.728 0.331 3.075 0.446 4.04"/></g></svg>
