<svg xmlns="http://www.w3.org/2000/svg" viewBox="0 0 24 24"><g id="Layer_2" data-name="Layer 2"><path d="M12,0A12,12,0,1,0,24,12,12,12,0,0,0,12,0Zm0,21.5a9.5,9.5,0,1,1,9.5-9.5A9.51,9.51,0,0,1,12,21.52Z" transform="translate(-0.01 -0.02)"/><path d="M11.06,4.06a8,8,0,0,0-5.35,3,.26.26,0,0,0,.07.37L11,10.59a.25.25,0,0,0,.38-.21V4.32A.26.26,0,0,0,11.06,4.06Z" transform="translate(-0.01 -0.02)"/><path d="M13.05,10.62l5.26-3.05a.26.26,0,0,0,.08-.37A8,8,0,0,0,13,4.06a.26.26,0,0,0-.28.26v6.09A.25.25,0,0,0,13.05,10.62Z" transform="translate(-0.01 -0.02)"/><path d="M10.34,11.77,5.09,8.61a.25.25,0,0,0-.36.11,8,8,0,0,0-.08,6.45.26.26,0,0,0,.36.12l5.32-3.09A.25.25,0,0,0,10.34,11.77Z" transform="translate(-0.01 -0.02)"/><path d="M19.34,8.85A.26.26,0,0,0,19,8.73L13.69,11.8a.25.25,0,0,0,0,.43L19,15.4a.26.26,0,0,0,.36-.11,8,8,0,0,0,0-6.45Z" transform="translate(-0.01 -0.02)"/><path d="M11,13.38l-5.3,3.07a.26.26,0,0,0-.08.37A8,8,0,0,0,11.06,20a.26.26,0,0,0,.28-.26V13.6A.25.25,0,0,0,11,13.38Z" transform="translate(-0.01 -0.02)"/><path d="M13.06,13.41a.25.25,0,0,0-.38.21v6.12A.26.26,0,0,0,13,20a8,8,0,0,0,5.39-3.08.26.26,0,0,0-.07-.37Z" transform="translate(-0.01 -0.02)"/></g></svg>