<svg id="Layer_1" data-name="Layer 1" xmlns="http://www.w3.org/2000/svg" width="24" height="24" viewBox="0 0 24 24"><title>email_preferences</title><polygon points="24 22.12 24 11.48 17.59 16.49 24 22.12"/><polygon points="0 11.4 0 22.2 6.4 16.4 0 11.4"/><path d="M12.87,20.17a1.32,1.32,0,0,1-1.64,0L7.45,17.23,0,24H24v-.11l-7.49-6.56Z"/><path d="M11.13,18.62l.08.07a1.16,1.16,0,0,0,1.58,0l.08-.07,10.84-8.41a1,1,0,0,0,0-1.42L12.87.38,12.79.31a1.16,1.16,0,0,0-1.58,0l-.08.07L.29,8.79a1,1,0,0,0,0,1.42Z"/></svg>