<svg id="Layer_1" data-name="Layer 1" xmlns="http://www.w3.org/2000/svg" width="16" height="14" viewBox="0 0 16 14"><defs><style>.cls-1{fill:#fff;fill-rule:evenodd;}</style></defs><title>shared_white</title><path class="cls-1" d="M15.92,10.62A1,1,0,0,0,15,10H14V8a3,3,0,0,0-3-3H10A1,1,0,0,1,9,4V1A1,1,0,1,0,7,1V4A1,1,0,0,1,6,5H5A3,3,0,0,0,2,8v2H1a1,1,0,0,0-.71,1.71l2,2a1,1,0,0,0,1.41,0l2-2A1,1,0,0,0,5,10H4V8A1,1,0,0,1,5,7H6a3,3,0,0,0,2-.78A3,3,0,0,0,10,7h1a1,1,0,0,1,1,1v2H11a1,1,0,0,0-.71,1.71l2,2a1,1,0,0,0,1.41,0l2-2A1,1,0,0,0,15.92,10.62Z"/></svg>