<svg id="BB_N_Primary_Identifier" data-name="BB&amp;N Primary Identifier" xmlns="http://www.w3.org/2000/svg" viewBox="0 0 319 133">
  <defs>
    <style>
      .cls-1 {
        fill: none;
      }

      .cls-2 {
        fill: #f5a81c;
      }

      .cls-3 {
        fill: #1b3769;
      }

      .cls-4 {
        fill: #fff;
      }
    </style>
  </defs>
  <title>logo</title>
  <rect class="cls-1" width="319" height="133"/>
  <g>
    <g>
      <polygon class="cls-2" points="20.08 52.89 8.81 110.96 46.62 123.74 86.59 77.13 95.2 16.89 20.08 52.89"/>
      <polygon class="cls-3" points="19.88 28.19 20.52 106.61 46.62 123.74 86.59 89.72 86.59 9.61 19.88 28.19"/>
      <g>
        <path class="cls-4" d="M41.19,67.34H28.44v-.67l4-.71V43.53l-4-.72v-.67H40.16c5.5,0,8.35,2.49,8.35,5.66,0,2.65-1.74,5.06-5.69,5.9v.19c5,.55,7.36,3.33,7.36,6.21C50.17,64,46.89,67.34,41.19,67.34ZM39.61,53.65c3,0,4.79-1.94,4.79-5.38,0-3.76-2.53-5.1-5.06-5.1a15.58,15.58,0,0,0-3,.24V53.65Zm-.16,1.11H36.36V66a18.58,18.58,0,0,0,3.25.28c4.19,0,6.05-2.25,6.05-5.89C45.66,57.06,43.84,54.76,39.45,54.76Z"/>
        <path class="cls-4" d="M65.93,53.61H53.19v-.67l4-.71V29.78l-4-.71V28.4H64.9c5.5,0,8.34,2.49,8.34,5.65,0,2.65-1.74,5.06-5.69,5.9v.19c5,.55,7.36,3.32,7.36,6.21C74.91,50.24,71.63,53.61,65.93,53.61ZM64.34,39.91c3,0,4.79-1.94,4.79-5.38,0-3.76-2.53-5.11-5.06-5.11a15.86,15.86,0,0,0-3,.24V39.91ZM64.19,41H61.1V52.29a17.93,17.93,0,0,0,3.24.28c4.19,0,6.05-2.25,6.05-5.89C70.4,43.31,68.58,41,64.19,41Z"/>
      </g>
      <polygon class="cls-4" points="72.1 59.83 72.1 60.5 75.24 61.57 75.24 77.8 75 77.8 64.45 63.87 61.47 59.83 54.01 59.83 54.01 60.5 57.15 61.53 57.15 81.5 58.45 81.5 58.45 63.2 58.74 63.2 72.49 81.28 75.47 85.33 76.58 85.33 76.58 61.57 79.72 60.5 79.72 59.83 72.1 59.83"/>
      <path class="cls-4" d="M61.54,85.22v-.57h-8v.44l2.32,1.27-3.77,6.8L43.46,81.58c-1.44-2-2-3.25-2-4.7,0-2.42,1.23-3.82,3.07-3.82s3.29,1.75,3.29,4.08a7.61,7.61,0,0,1-.3,2.17l2,1.93a5.48,5.48,0,0,0,1.87-3.88C51.4,74.82,49.25,72,45,72c-3.65,0-7.24,2.28-7.24,6.14A9.49,9.49,0,0,0,40.3,84l-1.58.79c-3.2,1.58-5.7,4.34-5.7,8,0,4.22,3.56,7.42,8.69,7.42,3.15,0,5.31-1.27,8.07-3.59,1.75,2.33,3.42,3.59,5.44,3.59A9.61,9.61,0,0,0,60.92,98l-.17-.48c-.74,0-1.18.09-2.28.09-2,0-3.34-.7-5.71-3.55l5.84-7.77Zm-17.86,12c-3.72,0-6.45-2.11-6.45-5.49a9.07,9.07,0,0,1,2.85-6.27l.79-.79,8.29,11.19A12.25,12.25,0,0,1,43.68,97.24Z"/>
    </g>
    <g>
      <path class="cls-1" d="M135,58.55c-.32,0-.85,0-1.15,0v3c.34,0,.77,0,1,0,1.22,0,2.09-.38,2.09-1.52S136.3,58.55,135,58.55Z"/>
      <path class="cls-1" d="M136.66,31.57c0-.86-.59-1.26-1.69-1.26l-1.08,0V33h1.06C135.9,33,136.66,32.6,136.66,31.57Z"/>
      <path class="cls-1" d="M185.57,77.69c-1.69,0-3,1.4-3,3.8s1.22,3.73,2.94,3.73,2.94-1.28,2.94-3.7S187.22,77.69,185.57,77.69Z"/>
      <path class="cls-1" d="M233.51,30.64h-.05a4.06,4.06,0,0,1-.11.76l-1.19,3.8h2.67l-1.21-3.8A5.51,5.51,0,0,1,233.51,30.64Z"/>
      <path class="cls-1" d="M216.38,60.4a1.77,1.77,0,0,0,2,1.71,3.33,3.33,0,0,0,1.89-.62c-.63-.73-1.86-2.12-2.52-2.9A2,2,0,0,0,216.38,60.4Z"/>
      <path class="cls-1" d="M219.84,54.58a1,1,0,0,0-1.06-1,1,1,0,0,0-1.06,1,2.34,2.34,0,0,0,.85,1.62C219.57,55.68,219.84,55.13,219.84,54.58Z"/>
      <path class="cls-1" d="M136.66,55.2c0-.86-.59-1.26-1.69-1.26l-1.08,0v2.69h1.06C135.9,56.65,136.66,56.23,136.66,55.2Z"/>
      <path class="cls-1" d="M146.85,54l-1.22,0v3.11h1.21a1.65,1.65,0,0,0,1.86-1.61C148.68,54.56,148.11,54,146.85,54Z"/>
      <path class="cls-1" d="M159.73,54.06c-1.69,0-3,1.4-3,3.8s1.22,3.73,2.94,3.73,2.94-1.28,2.94-3.7S161.38,54.06,159.73,54.06Z"/>
      <path class="cls-1" d="M283.24,54.06c-1.69,0-3,1.4-3,3.8s1.22,3.73,2.94,3.73,2.94-1.28,2.94-3.7S284.89,54.06,283.24,54.06Z"/>
      <path class="cls-1" d="M171.68,77.69c-1.69,0-3,1.4-3,3.8s1.22,3.73,2.94,3.73,2.94-1.28,2.94-3.7S173.34,77.69,171.68,77.69Z"/>
      <path class="cls-1" d="M135,34.92c-.32,0-.85,0-1.15,0v3c.34,0,.77,0,1,0,1.22,0,2.09-.38,2.09-1.52S136.3,34.92,135,34.92Z"/>
      <path class="cls-3" d="M137.56,33.74a2.74,2.74,0,0,0,2-2.66c0-1.71-1.28-2.78-3.57-2.78l-5,0c0,.74,0,2.16,0,4.14v3.19c0,2.54,0,3.51-.09,4.35l4.72,0c2.63,0,4.47-1.23,4.47-3.38A2.7,2.7,0,0,0,137.56,33.74Zm-3.67-3.42,1.08,0c1.1,0,1.69.4,1.69,1.26,0,1-.76,1.45-1.71,1.45h-1.06Zm1,7.61c-.27,0-.7,0-1,0v-3c.31,0,.83,0,1.15,0,1.26,0,2,.45,2,1.5S136.15,37.94,134.93,37.94Z"/>
      <path class="cls-3" d="M142.54,35.09c0,3.57,1.75,5.16,4.92,5.16,3.44,0,5.22-1.83,5.22-5.28V30.88c0-1,0-1.92,0-2.56h-3c0,.54.05,1.64.05,2.61v4.32c0,1.9-.9,2.59-2.14,2.59-1.42,0-2.18-.9-2.18-2.64V31c0-1.05.05-2.09.07-2.68h-3c0,.73,0,1.59,0,2.68Z"/>
      <path class="cls-3" d="M161.27,40.25a9.57,9.57,0,0,0,3.49-.64l-.29-2.43a5.56,5.56,0,0,1-2.7.74,3.44,3.44,0,0,1-3.64-3.66,3.54,3.54,0,0,1,3.78-3.78,4.78,4.78,0,0,1,2.5.67l.38-2.61a10.6,10.6,0,0,0-3.06-.47c-3.78,0-6.66,2.42-6.66,6.34C155.07,38,157.63,40.25,161.27,40.25Z"/>
      <path class="cls-3" d="M167.66,40h2.94v-5.8a4.1,4.1,0,0,0,.32.62L174.18,40h3.75c-1.42-1.88-3.24-4.59-4.23-6.11,1-1.45,3-4.2,4-5.58h-3.53l-3.19,5.11a4,4,0,0,0-.34.62V28.32h-2.94c0,.74,0,2.3,0,4.56V35.7C167.7,37.78,167.68,39.25,167.66,40Z"/>
      <path class="cls-3" d="M180.72,35.64c0,2.23,0,3.54,0,4.37h3c0-.92-.05-2-.05-4.44v-3c0-2.28,0-3.49.07-4.26h-3c0,.76.05,2,.05,4.28Z"/>
      <path class="cls-3" d="M187.64,40h2.7V33a4.66,4.66,0,0,0-.09-.83h.05a3.16,3.16,0,0,0,.36.74L196.25,40h2.52c0-.78,0-2.35,0-4.42V32.36c0-2.05,0-3.26,0-4H196v6.73a8.06,8.06,0,0,0,.09,1h-.05a3.78,3.78,0,0,0-.38-.69l-5.31-7h-2.74c0,.83,0,2.43,0,4.18v3.21C187.68,37.39,187.66,39.25,187.64,40Z"/>
      <path class="cls-3" d="M207,35.49h2v2.19a3.44,3.44,0,0,1-1.37.29c-1.8,0-3.31-1.26-3.31-3.7A3.56,3.56,0,0,1,208,30.46a5.43,5.43,0,0,1,3.1.86l.63-2.59a10.72,10.72,0,0,0-3.76-.66c-3.64,0-6.61,2.4-6.61,6.34,0,3.57,2.47,5.84,6.07,5.84a10.23,10.23,0,0,0,4.4-1V33.36H207Z"/>
      <path class="cls-3" d="M214.85,40h3c0-.69,0-1.69,0-3.14V35.32h4.72v1.62c0,1.4,0,2.35-.05,3.07h3c0-.76-.05-1.66-.05-3.9V32.29c0-2.4,0-3.19.05-4h-3c0,.6.05,1.45.05,3.07v1.52h-4.72V31.26c0-1.36,0-2.33.05-2.94h-3c0,.86,0,1.35,0,3.87v3.87C214.91,38.48,214.87,39.18,214.85,40Z"/>
      <path class="cls-3" d="M237.57,34.57c-1.1-3-2-5.3-2.29-6.29H232c-.36,1.14-1.06,3-2.2,6-1,2.78-1.8,4.64-2.25,5.72h3.24c.2-.66.56-1.73.94-2.87h3.67c.43,1.28.74,2.12,1,2.87h3.24C239.24,39.15,238.5,37.13,237.57,34.57Zm-5.4.62,1.19-3.8a4.06,4.06,0,0,0,.11-.76h.05a5.51,5.51,0,0,0,.11.76l1.21,3.8Z"/>
      <path class="cls-3" d="M252.91,31.22h0c0,.28-.05.9-.05,1.21L253,40h3c-.07-1.3-.14-3-.23-5.65s-.16-4.77-.16-6h-3.53l-3,7.49a5.81,5.81,0,0,0-.23,1h-.05a6.64,6.64,0,0,0-.2-1l-2.81-7.51h-3.64c0,1.24-.11,3-.23,6-.13,2.75-.23,4.33-.32,5.66h2.74l.25-7.42c0-.41,0-1.11-.05-1.35h.05a10.38,10.38,0,0,0,.31,1.35L247.71,40h2l2.92-7.6A9.56,9.56,0,0,0,252.91,31.22Z"/>
      <path class="cls-3" d="M137.56,57.37a2.74,2.74,0,0,0,2-2.66c0-1.71-1.28-2.78-3.57-2.78l-5,0c0,.74,0,2.16,0,4.14v3.19c0,2.54,0,3.51-.09,4.35l4.72,0c2.63,0,4.47-1.23,4.47-3.38A2.7,2.7,0,0,0,137.56,57.37ZM133.88,54l1.08,0c1.1,0,1.69.4,1.69,1.26,0,1-.76,1.45-1.71,1.45h-1.06Zm1,7.61c-.27,0-.7,0-1,0v-3c.31,0,.83,0,1.15,0,1.26,0,2,.45,2,1.5S136.15,61.57,134.93,61.57Z"/>
      <path class="cls-3" d="M149.28,58.51a3.46,3.46,0,0,0,2.38-3.33c0-1.83-1-3.25-4.11-3.25-1.26,0-3.21,0-4.86,0,0,.93.05,2,.05,4.09v3.64c0,2,0,3-.05,4h3c0-1-.07-2.38-.07-4.42h1c.52,1,1.84,3.33,2.47,4.42h3.4C151.68,62.38,150.2,60.07,149.28,58.51Zm-2.45-1.38h-1.21V54l1.22,0c1.26,0,1.84.55,1.84,1.52A1.65,1.65,0,0,1,146.83,57.13Z"/>
      <path class="cls-3" d="M159.89,51.69a5.85,5.85,0,0,0-6.18,6.22,5.62,5.62,0,0,0,5.93,6c3.62,0,6-2.52,6-6.2S163.4,51.69,159.89,51.69Zm-.2,9.89c-1.71,0-2.94-1.42-2.94-3.73s1.28-3.8,3-3.8,2.9,1.36,2.9,3.83S161.28,61.59,159.69,61.59Z"/>
      <path class="cls-3" d="M170.14,63.68H173l2.11-7.41a7.57,7.57,0,0,0,.2-1.28h0a8.21,8.21,0,0,0,.16,1.29l1.91,7.39h3.08c.34-1.31.94-3.52,1.66-6.1s1.28-4.45,1.62-5.63h-2.88l-1.71,7.49a10.22,10.22,0,0,0-.16,1.24h0a6.35,6.35,0,0,0-.18-1.19l-2-7.55h-2.56l-2.14,7.46a7,7,0,0,0-.2,1.29h0a12.5,12.5,0,0,0-.14-1.28L170,52h-3.22c.31,1,.77,2.66,1.59,5.49C169.27,60.64,169.78,62.26,170.14,63.68Z"/>
      <path class="cls-3" d="M185.88,63.64h2.7v-7a4.66,4.66,0,0,0-.09-.83h.05a3.16,3.16,0,0,0,.36.74l5.58,7.17H197c0-.78,0-2.35,0-4.42V56c0-2.05,0-3.26,0-4h-2.76v6.73a8.05,8.05,0,0,0,.09,1h-.05a3.78,3.78,0,0,0-.38-.69l-5.31-7h-2.74c0,.83,0,2.43,0,4.18v3.21C185.92,61,185.9,62.88,185.88,63.64Z"/>
      <path class="cls-3" d="M203.21,61.43V58.77H205c.92,0,1.46,0,2.16,0l.09-2.09c-.79,0-1.44,0-2.32,0h-1.69V54.18h1.64c1.3,0,2,0,2.63.05l0-2.28h-7.17c0,.73.05,2,.05,4.13v3.3c0,2.05,0,3.47-.05,4.26h7.44l.09-2.3c-.72,0-1.4.09-2.74.09Z"/>
      <path class="cls-3" d="M223.28,61.31A8.08,8.08,0,0,0,225,56.82c-.67.05-1.59.09-2.25.12a5.59,5.59,0,0,1-.81,2.92c-.58-.62-1.48-1.59-2.14-2.35,1.84-.9,2.38-2,2.38-3.13,0-1.71-1.57-2.54-3.21-2.54-2.13,0-3.53,1.19-3.53,2.85a3.56,3.56,0,0,0,1.17,2.5c-1.73.85-2.72,1.9-2.72,3.42,0,2,1.55,3.37,4,3.37a6.31,6.31,0,0,0,3.66-1.16c.49.55.92,1,1.26,1.38.88-.19,1.91-.4,2.7-.6Zm-4.5-7.74a1,1,0,0,1,1.06,1c0,.55-.27,1.11-1.28,1.62a2.34,2.34,0,0,1-.85-1.62A1,1,0,0,1,218.78,53.57Zm-.41,8.53a1.77,1.77,0,0,1-2-1.71,2,2,0,0,1,1.35-1.81c.67.78,1.89,2.18,2.52,2.9A3.33,3.33,0,0,1,218.36,62.1Z"/>
      <path class="cls-3" d="M243.12,52h-2.76v6.73a8.05,8.05,0,0,0,.09,1h-.05A3.77,3.77,0,0,0,240,59l-5.31-7H232c0,.83,0,2.43,0,4.18v3.21c0,1.67,0,3.54,0,4.3h2.7v-7a4.64,4.64,0,0,0-.09-.83h.05a3.15,3.15,0,0,0,.36.74l5.58,7.17h2.52c0-.78,0-2.35,0-4.42V56C243.08,53.94,243.08,52.73,243.12,52Z"/>
      <path class="cls-3" d="M249.39,52h-3c0,.76.05,2,.05,4.28v3c0,2.23,0,3.54,0,4.37h3c0-.92-.05-2-.05-4.44v-3C249.31,53.94,249.35,52.73,249.39,52Z"/>
      <path class="cls-3" d="M258.72,54.11a4.77,4.77,0,0,1,2.5.67l.38-2.61a10.6,10.6,0,0,0-3.06-.47c-3.78,0-6.67,2.42-6.67,6.34,0,3.63,2.56,5.84,6.2,5.84a9.57,9.57,0,0,0,3.49-.64l-.29-2.43a5.56,5.56,0,0,1-2.7.74,3.44,3.44,0,0,1-3.64-3.66A3.54,3.54,0,0,1,258.72,54.11Z"/>
      <path class="cls-3" d="M274.68,52h-3c0,.6.05,1.45.05,3.07v1.52H267V54.89c0-1.36,0-2.33.05-2.94h-3c0,.86,0,1.35,0,3.87v3.87c0,2.42,0,3.13-.05,4h3c0-.69,0-1.69,0-3.14V58.94h4.72v1.62c0,1.4,0,2.35-.05,3.07h3c0-.76-.05-1.66-.05-3.9V55.92C274.62,53.52,274.66,52.73,274.68,52Z"/>
      <path class="cls-3" d="M283.4,51.69a5.85,5.85,0,0,0-6.18,6.22,5.62,5.62,0,0,0,5.93,6c3.62,0,6-2.52,6-6.2S286.91,51.69,283.4,51.69Zm-.2,9.89c-1.71,0-2.94-1.42-2.94-3.73s1.28-3.8,3-3.8,2.9,1.36,2.9,3.83S284.79,61.59,283.2,61.59Z"/>
      <path class="cls-3" d="M294.71,61.29V55.41c0-1.21,0-2.31.05-3.45h-3c0,.92,0,2,0,4.39v3c0,1.9,0,3.49-.07,4.28H299l.09-2.42c-.65,0-1.62.07-2.59.07Z"/>
      <path class="cls-3" d="M305.85,56.84c-1.53-.55-1.87-.85-1.87-1.66a1.38,1.38,0,0,1,1.55-1.28,4.2,4.2,0,0,1,2.4.78l.47-2.45a8.47,8.47,0,0,0-3.06-.54c-2.61,0-4.38,1.57-4.38,3.76,0,1.36.5,2.43,2.61,3.28,1.51.6,2,.92,2,1.67s-.49,1.31-1.55,1.31a5,5,0,0,1-3-1.09l-.23,2.52a7.88,7.88,0,0,0,3.24.74c3.08,0,4.72-1.69,4.72-3.82C308.81,58.51,307.85,57.56,305.85,56.84Z"/>
      <path class="cls-3" d="M135.32,80.47c-1.53-.55-1.87-.85-1.87-1.66A1.38,1.38,0,0,1,135,77.53a4.2,4.2,0,0,1,2.4.78l.47-2.45a8.47,8.47,0,0,0-3.06-.54c-2.61,0-4.38,1.57-4.38,3.76,0,1.36.5,2.43,2.61,3.28,1.51.6,2,.92,2,1.67s-.49,1.31-1.55,1.31a5,5,0,0,1-3-1.09l-.23,2.52a7.88,7.88,0,0,0,3.24.74c3.08,0,4.72-1.69,4.72-3.82C138.28,82.14,137.32,81.19,135.32,80.47Z"/>
      <path class="cls-3" d="M147,77.74a4.77,4.77,0,0,1,2.5.67l.38-2.61a10.6,10.6,0,0,0-3.06-.47c-3.78,0-6.67,2.42-6.67,6.34,0,3.63,2.56,5.84,6.2,5.84a9.57,9.57,0,0,0,3.49-.64l-.29-2.43a5.56,5.56,0,0,1-2.7.74,3.44,3.44,0,0,1-3.64-3.66A3.54,3.54,0,0,1,147,77.74Z"/>
      <path class="cls-3" d="M163.23,75.58h-3c0,.6.05,1.45.05,3.07v1.52h-4.72V78.52c0-1.36,0-2.33.05-2.94h-3c0,.86,0,1.35,0,3.87v3.87c0,2.42,0,3.13-.05,4h3c0-.69,0-1.69,0-3.14V82.57h4.72V84.2c0,1.4,0,2.35-.05,3.07h3c0-.76-.05-1.66-.05-3.9V79.55C163.18,77.15,163.21,76.36,163.23,75.58Z"/>
      <path class="cls-3" d="M171.84,75.32a5.85,5.85,0,0,0-6.18,6.22,5.62,5.62,0,0,0,5.93,6c3.62,0,6-2.52,6-6.2S175.35,75.32,171.84,75.32Zm-.2,9.89c-1.71,0-2.94-1.42-2.94-3.73s1.28-3.8,3-3.8,2.9,1.36,2.9,3.83S173.23,85.22,171.64,85.22Z"/>
      <path class="cls-3" d="M185.73,75.32a5.85,5.85,0,0,0-6.18,6.22,5.62,5.62,0,0,0,5.93,6c3.62,0,6-2.52,6-6.2S189.24,75.32,185.73,75.32Zm-.2,9.89c-1.71,0-2.94-1.42-2.94-3.73s1.28-3.8,3-3.8,2.9,1.36,2.9,3.83S187.12,85.22,185.53,85.22Z"/>
      <path class="cls-3" d="M197,84.92V79c0-1.21,0-2.31.05-3.45h-3c0,.92,0,2,0,4.39v3c0,1.9,0,3.49-.07,4.28h7.28l.09-2.42c-.65,0-1.62.07-2.59.07Z"/>
    </g>
  </g>
</svg>
