<?xml version="1.0" encoding="utf-8"?>
<!-- Generator: Adobe Illustrator 15.0.0, SVG Export Plug-In . SVG Version: 6.00 Build 0)  -->
<!DOCTYPE svg PUBLIC "-//W3C//DTD SVG 1.1//EN" "http://www.w3.org/Graphics/SVG/1.1/DTD/svg11.dtd">
<svg version="1.1" id="Layer_1" xmlns="http://www.w3.org/2000/svg" xmlns:xlink="http://www.w3.org/1999/xlink" x="0px" y="0px"
	 width="54px" height="23.5px" viewBox="0 0 54 23.5" enable-background="new 0 0 54 23.5" xml:space="preserve">
<path fill="#FFFFFF" d="M40.401,17.777l0.001-3.193c0-0.01,0.005-0.015,0.015-0.015c0.187-0.005,0.286-0.105,0.292-0.311
	c0-0.01,0.004-0.015,0.013-0.015h0.352c0.01,0,0.017,0.004,0.017,0.015l-0.002,3.519c0,0.01-0.006,0.016-0.015,0.016l-0.658-0.001
	C40.406,17.792,40.401,17.787,40.401,17.777"/>
<path fill="#FFFFFF" d="M44.941,15.214c0-0.307-0.266-0.468-0.642-0.468c-0.421,0-0.612,0.201-0.612,0.463
	c0,0.286,0.235,0.476,0.61,0.476C44.694,15.686,44.941,15.46,44.941,15.214 M45.145,16.74c0-0.315-0.335-0.522-0.837-0.522
	c-0.526,0-0.856,0.21-0.857,0.522c0,0.245,0.231,0.502,0.845,0.503C44.954,17.243,45.145,16.946,45.145,16.74 M42.763,16.774
	c0-0.437,0.301-0.758,0.653-0.878c-0.251-0.156-0.407-0.342-0.406-0.749c0-0.501,0.486-0.974,1.323-0.974
	c0.717,0.001,1.274,0.402,1.274,0.975c0,0.402-0.13,0.618-0.412,0.769c0.351,0.09,0.637,0.372,0.637,0.875
	c-0.001,0.573-0.538,1.029-1.551,1.028C43.289,17.819,42.763,17.412,42.763,16.774"/>
<path fill="#FFFFFF" d="M49.242,15.352c0-0.336-0.201-0.587-0.783-0.587c-0.445,0-0.807,0.225-0.807,0.632
	c0,0.41,0.441,0.572,0.788,0.573C48.841,15.969,49.242,15.694,49.242,15.352 M47.1,17.203c0,0,0-0.01,0.005-0.015l0.446-0.421
	c0.006-0.012,0.015-0.006,0.024,0c0.201,0.341,0.436,0.466,0.837,0.466c0.462,0.001,0.853-0.356,0.934-1.127
	c-0.24,0.27-0.642,0.436-1.002,0.436c-0.723,0-1.359-0.393-1.359-1.11c0-0.658,0.542-1.254,1.536-1.254
	c0.757,0,1.503,0.452,1.503,1.677c-0.001,1.31-0.729,1.998-1.686,1.998C47.651,17.851,47.275,17.509,47.1,17.203"/>
<path fill="#FFFFFF" d="M51.025,17.054c0-0.005,0-0.015,0.009-0.02l0.527-0.291c0.005,0,0.016,0,0.02,0.01
	c0.236,0.412,0.597,0.492,1.028,0.492c0.417,0.001,0.692-0.22,0.692-0.593c0-0.42-0.421-0.591-0.877-0.592
	c-0.275,0-0.375,0.01-0.542,0.036c-0.004,0-0.014-0.005-0.014-0.015v-0.558l0.005-0.01l0.913-0.677l-1.474-0.001
	c-0.01,0-0.015-0.004-0.015-0.016v-0.557c0-0.009,0.005-0.015,0.015-0.015l2.327,0.002c0.01,0,0.016,0.004,0.016,0.015v0.577
	l-0.005,0.01l-0.974,0.732c0.617-0.023,1.293,0.298,1.293,1.076c0,0.899-0.858,1.206-1.435,1.206
	C51.822,17.863,51.291,17.612,51.025,17.054"/>
<path fill="#FFFFFF" d="M0.251,17.757l0.002-3.52c0-0.009,0.004-0.015,0.016-0.015L2.6,14.225c0.01,0,0.015,0.004,0.015,0.014v0.617
	c0,0.011-0.005,0.016-0.015,0.016L0.941,14.88v0.829l1.158,0.015c0.009,0,0.015,0.005,0.015,0.015v0.603
	c0,0.009-0.006,0.015-0.015,0.015L0.94,16.367v0.753h1.79c0.009,0,0.014,0.006,0.014,0.017l0,0.622c0,0.009-0.004,0.015-0.015,0.015
	l-2.463-0.001C0.256,17.772,0.251,17.768,0.251,17.757"/>
<path fill="#FFFFFF" d="M4.153,17.126c0-0.009,0-0.02,0.004-0.02l0.466-0.34c0.011-0.006,0.021-0.006,0.026,0
	c0.195,0.306,0.525,0.461,0.856,0.461c0.29,0,0.441-0.195,0.441-0.396c0-0.217-0.14-0.413-0.547-0.558
	c-0.655-0.231-1.046-0.533-1.046-1.14c0-0.588,0.446-0.979,1.033-0.979c0.577,0.001,0.942,0.312,1.163,0.618
	c0.005,0.006,0.005,0.016,0,0.021l-0.431,0.356c-0.005,0.005-0.016,0.005-0.02,0c-0.181-0.21-0.411-0.372-0.691-0.372
	c-0.256,0-0.396,0.165-0.396,0.401c-0.001,0.216,0.194,0.332,0.591,0.463c0.626,0.206,0.987,0.592,0.987,1.125
	c0,0.558-0.352,1.074-1.184,1.074C4.749,17.839,4.357,17.458,4.153,17.126"/>
<path fill="#FFFFFF" d="M9.226,17.762l0.001-2.867l-1.229-0.011c-0.009,0-0.015-0.006-0.015-0.016l0.001-0.627
	c0-0.009,0.004-0.015,0.015-0.015l3.158,0.001c0.011,0,0.016,0.005,0.016,0.015v0.628c0,0.009-0.005,0.015-0.016,0.015l-1.244,0.009
	l-0.001,2.867c0,0.009-0.005,0.015-0.014,0.015H9.24C9.231,17.776,9.226,17.771,9.226,17.762"/>
<path fill="#FFFFFF" d="M12.839,17.341c0,0.241-0.195,0.436-0.437,0.436c-0.239,0-0.434-0.195-0.434-0.436
	c0-0.242,0.194-0.437,0.435-0.437C12.644,16.904,12.839,17.099,12.839,17.341"/>
<path fill="#FFFFFF" d="M33.639,21.559c-0.518-0.168-0.96-0.475-1.338-0.863c-0.725-0.885-0.686-1.645-0.16-3.37
	c0.079-0.259,0.192-0.534,0.312-0.841c0,0,0.221-0.634,0.522-1.499c0.297-0.851,0.673-1.923,0.993-2.839
	c0.19-0.548,0.32-0.917,0.325-0.931c0.567-1.714,1.621-4.896,4.246-4.896l0.306,0.001l-0.092-0.29l-0.5-1.434l-0.169,0.016
	c-3.531,0.324-4.86,4.341-5.428,6.055l-0.233,0.665l-1.778,5.098c-0.044,0.125-0.129,0.201-0.229,0.201
	c-0.098,0-0.183-0.075-0.228-0.201l-0.341-0.978l-0.005-0.015l-0.072-0.208l-0.526-1.503l-0.062-0.186l-1.096-3.127
	c-0.139-0.396-0.27-0.77-0.27-1.164c0.001-0.39,0.164-0.855,0.271-1.165c0.204-0.582,0.436-1.259,0.436-1.259
	c0.531-1.605,1.519-4.589,3.876-4.868l0.268-0.031l-0.434-1.239L32.08,0.255l-0.182,0.034c-0.125,0.022-0.246,0.049-0.364,0.082
	c-2.613,0.695-3.842,3.498-4.545,5.587c-0.055,0.188-0.149,0.274-0.239,0.267c-0.09,0.007-0.184-0.079-0.238-0.267
	c-0.702-2.09-1.928-4.894-4.541-5.593c-0.118-0.031-0.238-0.059-0.363-0.081L21.426,0.25l-0.153,0.435L20.84,1.922l0.268,0.033
	c2.358,0.281,3.342,3.266,3.871,4.871c0,0,0.231,0.679,0.434,1.261c0.107,0.308,0.27,0.774,0.27,1.164
	c0,0.393-0.132,0.769-0.272,1.164l-1.097,3.126l-0.063,0.185l-0.527,1.502l-0.073,0.208l-0.004,0.015l-0.343,0.978
	c-0.044,0.125-0.13,0.201-0.229,0.201c-0.098,0-0.184-0.076-0.228-0.201l-1.775-5.1l-0.23-0.665
	c-0.567-1.715-1.893-5.733-5.423-6.061L15.25,4.588l-0.503,1.431L14.655,6.31h0.306c2.625,0.001,3.676,3.186,4.242,4.899
	c0.004,0.015,0.133,0.385,0.325,0.932c0.318,0.917,0.692,1.989,0.988,2.841c0.301,0.863,0.521,1.497,0.521,1.497
	c0.12,0.308,0.232,0.583,0.311,0.842c0.523,1.726,0.563,2.487-0.162,3.369c-0.379,0.389-0.822,0.694-1.34,0.863
	c0.182,0.521,0.375,1.073,0.568,1.628c2.161-0.712,3.328-2.895,4.039-4.79c0,0,0.046-0.134,0.117-0.342
	c0.001-0.002,0.004-0.004,0.004-0.007l0.029-0.084c0.182-0.523,0.489-1.404,0.681-1.95l0.558-1.595
	c0.036-0.101,0.069-0.201,0.105-0.303l0.559-1.597c0.039-0.111,0.124-0.178,0.228-0.178c0.004,0,0.009,0.003,0.014,0.003
	c0.005,0,0.009-0.003,0.015-0.003c0.103,0,0.189,0.068,0.228,0.178l0.557,1.598c0.036,0.103,0.071,0.202,0.105,0.301h0l0.555,1.596
	c0.191,0.547,0.498,1.427,0.68,1.951l0.028,0.085c0.001,0.002,0.003,0.005,0.004,0.007c0.071,0.208,0.119,0.343,0.119,0.343
	c0.708,1.894,1.874,4.079,4.033,4.793C33.264,22.632,33.457,22.081,33.639,21.559"/>
</svg>
