<?xml version="1.0" encoding="utf-8"?>
<!-- Generator: Adobe Illustrator 15.0.0, SVG Export Plug-In . SVG Version: 6.00 Build 0)  -->
<!DOCTYPE svg PUBLIC "-//W3C//DTD SVG 1.1//EN" "http://www.w3.org/Graphics/SVG/1.1/DTD/svg11.dtd">
<svg version="1.1" id="Layer_1" xmlns="http://www.w3.org/2000/svg" xmlns:xlink="http://www.w3.org/1999/xlink" x="0px" y="0px"
	 width="148px" height="57.5px" viewBox="0 0 148 57.5" enable-background="new 0 0 148 57.5" xml:space="preserve">
<path fill="#502850" d="M89.197,19.734l0.001-3.55c0-0.011,0.006-0.016,0.017-0.016c0.208-0.006,0.318-0.117,0.325-0.346
	c0-0.011,0.004-0.017,0.015-0.017h0.391c0.012,0,0.019,0.005,0.019,0.017l-0.002,3.912c0,0.011-0.007,0.018-0.017,0.018
	l-0.733-0.001C89.202,19.75,89.197,19.745,89.197,19.734"/>
<path fill="#502850" d="M94.25,16.885c0-0.341-0.296-0.521-0.714-0.521c-0.469,0-0.682,0.224-0.682,0.515
	c0,0.318,0.262,0.529,0.68,0.529C93.975,17.409,94.25,17.159,94.25,16.885 M94.477,18.581c0-0.35-0.374-0.581-0.931-0.581
	c-0.585,0-0.953,0.234-0.954,0.581c0,0.273,0.257,0.558,0.941,0.559C94.265,19.14,94.477,18.811,94.477,18.581 M91.826,18.62
	c0-0.486,0.335-0.843,0.727-0.977c-0.28-0.173-0.453-0.381-0.452-0.833c0-0.557,0.542-1.083,1.474-1.083
	c0.798,0.001,1.418,0.447,1.418,1.084c0,0.447-0.146,0.687-0.458,0.854c0.39,0.1,0.709,0.414,0.709,0.972
	c-0.001,0.637-0.599,1.145-1.726,1.143C92.412,19.781,91.826,19.328,91.826,18.62"/>
<path fill="#502850" d="M99.038,17.038c0-0.374-0.224-0.653-0.872-0.653c-0.496,0-0.898,0.25-0.898,0.704
	c0,0.456,0.491,0.635,0.876,0.636C98.592,17.724,99.038,17.418,99.038,17.038 M96.653,19.095c0,0,0-0.01,0.006-0.016l0.497-0.468
	c0.006-0.013,0.017-0.007,0.027,0c0.224,0.379,0.485,0.518,0.933,0.518c0.515,0.001,0.949-0.396,1.039-1.253
	c-0.268,0.3-0.714,0.484-1.116,0.484c-0.804,0-1.513-0.437-1.513-1.234c0.001-0.731,0.604-1.395,1.71-1.395
	c0.843,0,1.673,0.503,1.673,1.865c-0.001,1.456-0.811,2.221-1.877,2.221C97.267,19.816,96.849,19.437,96.653,19.095"/>
<path fill="#502850" d="M101.023,18.93c0-0.006,0-0.017,0.01-0.022l0.587-0.324c0.006,0,0.018,0,0.022,0.012
	c0.263,0.457,0.665,0.547,1.145,0.547c0.463,0.001,0.771-0.245,0.771-0.659c0-0.468-0.469-0.658-0.977-0.659
	c-0.306,0-0.417,0.012-0.603,0.04c-0.004,0-0.016-0.006-0.016-0.017v-0.62l0.005-0.011l1.017-0.753l-1.642-0.001
	c-0.01,0-0.017-0.005-0.017-0.018v-0.619c0-0.011,0.006-0.016,0.017-0.016l2.59,0.002c0.011,0,0.017,0.005,0.017,0.017v0.641
	l-0.006,0.011l-1.083,0.813c0.687-0.025,1.44,0.332,1.44,1.197c0,0.999-0.956,1.34-1.597,1.34
	C101.911,19.83,101.319,19.55,101.023,18.93"/>
<path fill="#502850" d="M44.502,19.712l0.002-3.913c0-0.011,0.005-0.016,0.018-0.016l2.595,0.002c0.011,0,0.017,0.004,0.017,0.015
	v0.687c0,0.012-0.006,0.017-0.017,0.017l-1.847,0.009v0.922l1.289,0.016c0.01,0,0.017,0.006,0.017,0.017v0.67
	c0,0.01-0.006,0.017-0.017,0.017l-1.29,0.011v0.837h1.993c0.01,0,0.016,0.007,0.016,0.019l-0.001,0.691
	c0,0.011-0.005,0.017-0.016,0.017l-2.742-0.001C44.506,19.729,44.502,19.724,44.502,19.712"/>
<path fill="#502850" d="M48.845,19.01c0-0.01,0-0.022,0.005-0.022l0.519-0.378c0.012-0.007,0.023-0.007,0.029,0
	c0.217,0.34,0.584,0.514,0.953,0.514c0.323,0,0.491-0.218,0.491-0.44c0-0.241-0.156-0.459-0.608-0.621
	c-0.73-0.257-1.166-0.593-1.166-1.268c0-0.654,0.497-1.088,1.15-1.088c0.643,0.001,1.049,0.347,1.295,0.687
	c0.005,0.007,0.005,0.018,0,0.023l-0.479,0.396c-0.006,0.006-0.018,0.006-0.022,0c-0.202-0.234-0.457-0.413-0.77-0.413
	c-0.285,0-0.441,0.184-0.441,0.446c-0.001,0.24,0.216,0.369,0.658,0.514c0.697,0.229,1.099,0.659,1.099,1.25
	c0,0.621-0.392,1.194-1.318,1.194C49.508,19.803,49.072,19.379,48.845,19.01"/>
<path fill="#502850" d="M54.492,19.717l0.001-3.187l-1.368-0.012c-0.011,0-0.017-0.006-0.017-0.017l0.001-0.697
	c0-0.01,0.005-0.016,0.017-0.016l3.516,0.001c0.012,0,0.018,0.006,0.018,0.017v0.698c0,0.01-0.006,0.018-0.018,0.018l-1.384,0.009
	l-0.001,3.187c0,0.01-0.005,0.016-0.016,0.016h-0.732C54.498,19.733,54.492,19.728,54.492,19.717"/>
<path fill="#502850" d="M58.514,19.249c0,0.268-0.216,0.484-0.485,0.484c-0.267,0-0.483-0.217-0.483-0.484
	c0-0.269,0.216-0.486,0.484-0.486C58.297,18.763,58.514,18.98,58.514,19.249"/>
<path fill="#502850" d="M81.669,23.938c-0.577-0.188-1.069-0.529-1.49-0.959c-0.807-0.984-0.763-1.829-0.179-3.747
	c0.088-0.288,0.215-0.594,0.347-0.935c0,0,0.246-0.706,0.582-1.666c0.331-0.946,0.749-2.138,1.105-3.157
	c0.212-0.608,0.356-1.018,0.362-1.035c0.631-1.905,1.804-5.442,4.726-5.442L87.463,7l-0.103-0.322l-0.557-1.594l-0.189,0.018
	c-3.931,0.36-5.411,4.826-6.042,6.731l-0.26,0.739l-1.98,5.667c-0.049,0.14-0.143,0.224-0.254,0.224
	c-0.109,0-0.205-0.084-0.253-0.224l-0.38-1.087l-0.005-0.017l-0.081-0.231l-0.585-1.67l-0.069-0.208l-1.22-3.477
	c-0.155-0.44-0.3-0.855-0.3-1.293c0.001-0.433,0.182-0.951,0.302-1.294c0.227-0.647,0.484-1.4,0.484-1.4
	c0.591-1.784,1.691-5.102,4.316-5.412l0.298-0.034l-0.483-1.377l-0.169-0.483l-0.202,0.038c-0.139,0.024-0.274,0.055-0.405,0.09
	c-2.909,0.773-4.277,3.889-5.059,6.211C74.205,6.804,74.1,6.899,74,6.891c-0.1,0.008-0.205-0.087-0.266-0.296
	c-0.781-2.323-2.146-5.44-5.054-6.218c-0.131-0.033-0.265-0.065-0.404-0.089L68.074,0.25l-0.17,0.483L67.42,2.109l0.298,0.036
	c2.625,0.312,3.72,3.63,4.31,5.415c0,0,0.258,0.754,0.483,1.401c0.12,0.342,0.3,0.861,0.3,1.294c0,0.437-0.147,0.854-0.303,1.293
	l-1.221,3.476l-0.07,0.206l-0.586,1.67l-0.082,0.232l-0.004,0.016l-0.382,1.087c-0.049,0.14-0.145,0.224-0.254,0.224
	c-0.109,0-0.205-0.085-0.253-0.224l-1.976-5.669l-0.256-0.739c-0.631-1.907-2.107-6.374-6.038-6.738l-0.188-0.016l-0.56,1.591
	l-0.103,0.324h0.34c2.923,0.001,4.091,3.541,4.722,5.446c0.005,0.017,0.148,0.427,0.361,1.037c0.355,1.018,0.77,2.211,1.1,3.157
	c0.335,0.96,0.581,1.664,0.581,1.664c0.133,0.342,0.258,0.648,0.346,0.936c0.583,1.918,0.627,2.765-0.18,3.746
	c-0.422,0.432-0.915,0.772-1.491,0.959c0.203,0.579,0.417,1.193,0.632,1.81c2.405-0.792,3.704-3.218,4.496-5.324
	c0,0,0.051-0.149,0.13-0.381c0.001-0.002,0.005-0.004,0.005-0.008l0.032-0.094c0.203-0.582,0.545-1.561,0.758-2.167l0.621-1.773
	c0.04-0.112,0.077-0.224,0.118-0.336l0.622-1.775c0.043-0.124,0.138-0.198,0.254-0.198c0.004,0,0.01,0.004,0.015,0.004
	c0.006,0,0.011-0.004,0.016-0.004c0.115,0,0.21,0.076,0.254,0.198l0.619,1.776c0.04,0.114,0.079,0.224,0.117,0.335h0l0.618,1.773
	c0.213,0.608,0.555,1.586,0.757,2.169l0.031,0.094c0.001,0.002,0.003,0.005,0.005,0.008c0.079,0.232,0.132,0.381,0.132,0.381
	c0.789,2.105,2.085,4.535,4.49,5.329C81.251,25.131,81.466,24.518,81.669,23.938"/>
<path fill="#502850" d="M14.616,45.3c0,0-2.329-6.27-3.067-8.425c-1.669,4.25-3.3,8.427-3.3,8.427L6.365,45.3
	c0,0-2.446-7.396-4.154-12.073c-0.214-0.563-0.428-0.816-1.009-0.933L0.25,32.1v-0.796l3.203,0.097l3.436-0.097V32.1l-1.029,0.194
	c-0.698,0.136-1.029,0.369-0.834,0.933C6.248,36.875,7.879,42,8.17,42.951l2.913-7.338l-0.778-2.387
	c-0.194-0.583-0.408-0.816-0.989-0.933L8.365,32.1v-0.796l3.435,0.097l3.36-0.097V32.1l-1.127,0.232
	c-0.485,0.098-0.893,0.311-0.893,0.971c0,0.233,0.058,0.525,0.176,0.895c0.717,2.27,2.737,7.763,3.066,8.754l3.28-9.725
	c0.195-0.563-0.115-0.796-0.814-0.933L17.818,32.1v-0.796l3.107,0.097l1.981-0.097V32.1l-0.952,0.194
	c-0.582,0.117-0.835,0.349-1.048,0.914c-1.883,4.891-4.343,12.094-4.343,12.094L14.616,45.3z"/>
<path fill="#502850" d="M25.325,40.802l-0.889,2.564c-0.277,0.791-0.178,0.949,0.533,1.048l1.066,0.158v0.73l-2.686-0.079
	l-1.777,0.079v-0.73l0.731-0.158c0.533-0.119,0.71-0.335,0.947-0.948c1.106-2.922,3.614-9.417,3.614-9.417l2.132-0.297
	c0,0,1.718,4.54,3.889,9.891c0.179,0.454,0.318,0.672,0.81,0.771l0.771,0.158v0.73l-2.527-0.079l-3.239,0.079v-0.73l0.83-0.158
	c0.454-0.079,0.69-0.236,0.69-0.513c0-0.159-0.178-0.652-0.374-1.185l-0.711-1.914H25.325z M27.201,35.43l-1.619,4.542h3.297
	L27.201,35.43z"/>
<path fill="#502850" d="M41.771,44.335h1.6c0.789,0,1.323-0.04,1.895-1.106l0.731-1.362h0.67l-0.375,3.435
	c0,0-2.251-0.078-3.159-0.078h-3.911l-2.626,0.078v-0.73l0.83-0.159c0.573-0.117,0.75-0.295,0.771-0.769c0,0,0.039-1.5,0.039-4.106
	c0-2.606-0.039-3.771-0.039-3.771c-0.021-0.532-0.198-0.671-0.771-0.77l-0.83-0.157v-0.75l2.844,0.078l2.824-0.078v0.75
	l-0.829,0.157c-0.574,0.098-0.732,0.237-0.771,0.77c0,0-0.039,1.165-0.039,3.771c0,2.606,0,2.98,0.039,3.91
	C40.686,44.118,40.982,44.335,41.771,44.335"/>
<path fill="#502850" d="M50.114,34.997l-0.79-0.158v-0.75l2.272,0.08l2.211-0.08c0,0,0.395,0.889,0.848,1.482l5.252,6.869
	c0,0-0.098-5.666-0.118-6.672c-0.02-0.514-0.178-0.671-0.751-0.77l-0.85-0.158v-0.75l2.152,0.08l2.054-0.08v0.75l-0.809,0.158
	c-0.593,0.098-0.771,0.256-0.771,0.77c0,0-0.099,5.232-0.099,9.536h-1.56c-4.185-5.548-7.463-9.752-7.463-9.752
	s0.02,5.981,0.02,8.095c0,0.493,0.197,0.651,0.75,0.77l0.85,0.157v0.731l-2.133-0.079l-2.073,0.079v-0.731l0.829-0.157
	c0.592-0.119,0.75-0.276,0.771-0.77c0.02-1.343,0.157-6.616,0.157-7.878C50.864,35.273,50.667,35.095,50.114,34.997"/>
<path fill="#502850" d="M68.891,41.314c0,2.408,1.401,3.041,3.001,3.041c2.548,0,3.377-1.778,3.377-3.258
	c0-1.658-0.04-4.738-0.04-5.331c0-0.514-0.198-0.671-0.75-0.771l-0.829-0.157v-0.75l2.093,0.079l2.093-0.079v0.75l-0.809,0.157
	c-0.574,0.099-0.771,0.257-0.771,0.771c0,1.284-0.02,5.352-0.02,5.352c0,2.843-1.935,4.343-4.857,4.343
	c-2.844,0-4.917-1.382-4.917-4.028v-5.666c0-0.514-0.179-0.671-0.751-0.771l-0.83-0.157v-0.75l2.686,0.079l2.883-0.079v0.75
	l-0.809,0.157c-0.553,0.099-0.75,0.257-0.75,0.771V41.314z"/>
<path fill="#502850" d="M88.677,34.167c1.324-0.018,2.37-0.138,2.37-0.176c0,0,0.039,1.954,0.157,3.376h-0.75l-0.296-0.929
	c-0.317-1.007-0.712-1.302-1.364-1.324c-0.632-0.018-1.282-0.039-1.916-0.039c0,0-0.038,2.033-0.038,4.641
	c0,2.605,0.038,3.929,0.038,3.929c0.02,0.473,0.178,0.669,0.751,0.768l0.83,0.159v0.73l-2.806-0.079l-2.842,0.079v-0.73l0.83-0.159
	c0.572-0.099,0.75-0.295,0.77-0.768c0,0,0.039-1.324,0.039-3.929c0-2.607-0.039-4.641-0.039-4.641c-0.632,0-1.284,0.021-1.917,0.039
	c-0.65,0.022-1.046,0.317-1.362,1.324l-0.297,0.929h-0.75c0.117-1.422,0.159-3.376,0.159-3.376c0,0.038,1.044,0.158,2.37,0.176
	l3.021,0.04L88.677,34.167z"/>
<path fill="#502850" d="M109.19,37.643c0-2.962-0.059-4.364-0.059-4.364c-0.04-0.631-0.218-0.828-0.927-0.968l-1.027-0.197v-0.81
	l3.276,0.1l3.278-0.1v0.81l-1.027,0.197c-0.711,0.14-0.908,0.337-0.948,0.968c0,0-0.06,1.717-0.06,4.975
	c0,3.259,0.06,5.114,0.06,5.114c0.019,0.593,0.236,0.809,0.948,0.948l1.027,0.196v0.811l-3.278-0.099l-3.276,0.099v-0.811
	l1.027-0.196c0.709-0.139,0.908-0.355,0.927-0.948c0,0,0.059-1.678,0.059-4.758h-6.832c0,3.08,0.06,4.758,0.06,4.758
	c0.02,0.593,0.216,0.809,0.928,0.948l1.026,0.196v0.811l-3.277-0.099l-3.279,0.099v-0.811l1.027-0.196
	c0.71-0.139,0.929-0.355,0.948-0.948c0,0,0.059-1.855,0.059-5.114c0-3.258-0.059-4.975-0.059-4.975
	c-0.04-0.631-0.238-0.828-0.948-0.968l-1.027-0.197v-0.81l3.279,0.1l3.277-0.1v0.81l-1.026,0.197
	c-0.712,0.14-0.888,0.337-0.928,0.968c0,0-0.06,1.402-0.06,4.364H109.19z"/>
<path fill="#502850" d="M116.732,45.302v-0.731l0.829-0.157c0.573-0.119,0.75-0.296,0.769-0.77c0,0,0.041-1.323,0.041-3.929
	s-0.041-3.949-0.041-3.949c-0.038-0.533-0.196-0.671-0.769-0.77l-0.829-0.158v-0.75l2.822,0.079l2.844-0.079v0.75l-0.829,0.158
	c-0.573,0.098-0.711,0.236-0.771,0.77c0,0-0.039,1.343-0.039,3.949s0.039,3.929,0.039,3.929c0.021,0.473,0.198,0.651,0.771,0.77
	l0.829,0.157v0.731l-2.844-0.079L116.732,45.302z"/>
<path fill="#502850" d="M130.966,44.335h1.601c0.789,0,1.323-0.04,1.896-1.106l0.73-1.362h0.671l-0.376,3.435
	c0,0-2.25-0.078-3.158-0.078h-3.911l-2.626,0.078v-0.73l0.83-0.159c0.572-0.117,0.75-0.295,0.769-0.769c0,0,0.04-1.5,0.04-4.106
	c0-2.606-0.04-3.771-0.04-3.771c-0.02-0.532-0.197-0.671-0.769-0.77l-0.83-0.157v-0.75l2.843,0.078l2.823-0.078v0.75l-0.828,0.157
	c-0.573,0.098-0.731,0.237-0.771,0.77c0,0-0.039,1.165-0.039,3.771c0,2.606,0,2.98,0.039,3.91
	C129.881,44.118,130.178,44.335,130.966,44.335"/>
<path fill="#502850" d="M142.853,44.335h1.6c0.789,0,1.324-0.04,1.895-1.106l0.731-1.362h0.672l-0.375,3.435
	c0,0-2.25-0.078-3.16-0.078h-3.909l-2.626,0.078v-0.73l0.83-0.159c0.571-0.117,0.749-0.295,0.768-0.769c0,0,0.041-1.5,0.041-4.106
	c0-2.606-0.041-3.771-0.041-3.771c-0.019-0.532-0.197-0.671-0.768-0.77l-0.83-0.157v-0.75l2.843,0.078l2.824-0.078v0.75l-0.83,0.157
	c-0.571,0.098-0.729,0.237-0.769,0.77c0,0-0.04,1.165-0.04,3.771c0,2.606,0,2.98,0.04,3.91
	C141.766,44.118,142.063,44.335,142.853,44.335"/>
<path fill="#502850" d="M22.982,56.546c0-0.013,0-0.027,0.006-0.027l0.621-0.454c0.014-0.007,0.027-0.007,0.034,0
	c0.26,0.407,0.7,0.614,1.14,0.614c0.388,0,0.588-0.262,0.588-0.527c0-0.287-0.187-0.547-0.728-0.74
	c-0.874-0.308-1.395-0.707-1.395-1.517c0-0.78,0.595-1.3,1.375-1.3c0.767,0,1.255,0.414,1.548,0.82c0.007,0.007,0.007,0.021,0,0.026
	l-0.574,0.475c-0.007,0.007-0.02,0.007-0.025,0c-0.241-0.28-0.548-0.493-0.922-0.493c-0.341,0-0.526,0.219-0.526,0.534
	c0,0.286,0.26,0.44,0.786,0.614c0.835,0.273,1.315,0.788,1.315,1.494c0,0.74-0.468,1.428-1.575,1.428
	C23.776,57.493,23.255,56.987,22.982,56.546"/>
<path fill="#502850" d="M28.177,55.037c0-1.16,0.781-2.442,2.383-2.442c1.033,0,1.58,0.473,1.761,0.728
	c0.008,0.007,0.008,0.02,0,0.025l-0.587,0.629c-0.005,0.013-0.021,0.006-0.026,0c-0.174-0.254-0.594-0.554-1.102-0.554
	c-0.874,0-1.455,0.554-1.455,1.614c0,1.081,0.674,1.641,1.529,1.641c0.627,0,1.001-0.366,1.127-0.533
	c0.007-0.007,0.021-0.014,0.027,0l0.527,0.634c0.007,0.006,0.007,0.021,0,0.027c-0.348,0.373-0.901,0.694-1.783,0.694
	C29.325,57.5,28.177,56.653,28.177,55.037"/>
<path fill="#502850" d="M34.6,57.386v-4.677c0-0.013,0.007-0.02,0.02-0.02h0.875c0.013,0,0.02,0.007,0.02,0.02v1.955h2.229v-1.955
	c0-0.013,0.007-0.02,0.02-0.02h0.869c0.013,0,0.019,0.007,0.019,0.02v4.677c0,0.013-0.006,0.021-0.019,0.021h-0.869
	c-0.013,0-0.02-0.008-0.02-0.021v-1.848h-2.229v1.848c0,0.013-0.007,0.021-0.02,0.021H34.62C34.607,57.407,34.6,57.399,34.6,57.386"
	/>
<path fill="#502850" d="M40.916,55.064c0-1.528,1.214-2.469,2.51-2.469c1.328,0,2.469,1.087,2.469,2.469
	c0,1.389-1.121,2.429-2.469,2.429C41.95,57.493,40.916,56.299,40.916,55.064 M44.947,55.064c0-0.894-0.675-1.641-1.521-1.641
	c-0.982,0-1.529,0.687-1.529,1.641c0,0.861,0.582,1.614,1.529,1.614C44.394,56.678,44.947,55.965,44.947,55.064"/>
<path fill="#502850" d="M47.74,55.064c0-1.528,1.214-2.469,2.509-2.469c1.33,0,2.47,1.087,2.47,2.469
	c0,1.389-1.122,2.429-2.47,2.429C48.774,57.493,47.74,56.299,47.74,55.064 M51.771,55.064c0-0.894-0.675-1.641-1.522-1.641
	c-0.981,0-1.528,0.687-1.528,1.641c0,0.861,0.582,1.614,1.528,1.614C51.217,56.678,51.771,55.965,51.771,55.064"/>
<path fill="#502850" d="M54.984,57.386v-4.677c0-0.013,0.007-0.02,0.02-0.02h0.874c0.013,0,0.02,0.007,0.02,0.02v3.83l2.383,0.007
	c0.014,0,0.021,0.006,0.021,0.02v0.82c0,0.013-0.007,0.021-0.021,0.021h-3.277C54.991,57.407,54.984,57.399,54.984,57.386"/>
<path fill="#502850" d="M63.357,57.386v-4.677c0-0.013,0.006-0.02,0.02-0.02h3.103c0.013,0,0.021,0.007,0.021,0.02v0.82
	c0,0.014-0.007,0.02-0.021,0.02l-2.209,0.014v1.188l1.369,0.019c0.013,0,0.019,0.008,0.019,0.021v0.801
	c0,0.013-0.005,0.02-0.019,0.02l-1.369,0.014v1.761c0,0.013-0.007,0.021-0.02,0.021h-0.875
	C63.363,57.407,63.357,57.399,63.357,57.386"/>
<path fill="#502850" d="M68.264,55.064c0-1.528,1.216-2.469,2.51-2.469c1.33,0,2.47,1.087,2.47,2.469
	c0,1.389-1.122,2.429-2.47,2.429C69.299,57.493,68.264,56.299,68.264,55.064 M72.296,55.064c0-0.894-0.675-1.641-1.522-1.641
	c-0.98,0-1.529,0.687-1.529,1.641c0,0.861,0.583,1.614,1.529,1.614C71.741,56.678,72.296,55.965,72.296,55.064"/>
<path fill="#502850" d="M75.508,57.386v-4.677c0-0.013,0.007-0.02,0.021-0.02h1.936c0.392,0,1.354,0.234,1.354,1.488
	c0,0.533-0.314,0.98-0.787,1.153c0.081,0.148,0.56,1.056,0.84,1.603c0.107,0.214,0.201,0.354,0.267,0.441
	c0.021,0.02,0.007,0.032-0.013,0.032h-1.081c-0.006,0-0.013-0.006-0.02-0.013l-0.815-1.755l-0.826-0.007v1.755
	c0,0.014-0.007,0.02-0.021,0.02h-0.833C75.515,57.406,75.508,57.399,75.508,57.386 M77.177,54.737c0.46,0,0.755-0.194,0.755-0.606
	c0-0.26-0.134-0.635-0.614-0.635h-0.922v1.242H77.177z"/>
<path fill="#502850" d="M84.862,57.386v-3.81l-1.634-0.013c-0.014,0-0.02-0.007-0.02-0.02v-0.834c0-0.013,0.006-0.02,0.02-0.02
	h4.204c0.015,0,0.02,0.007,0.02,0.02v0.834c0,0.012-0.005,0.02-0.02,0.02l-1.653,0.013v3.81c0,0.013-0.009,0.021-0.021,0.021h-0.873
	C84.868,57.407,84.862,57.399,84.862,57.386"/>
<path fill="#502850" d="M89.624,57.386v-4.677c0-0.013,0.005-0.02,0.021-0.02h0.874c0.014,0,0.021,0.007,0.021,0.02v1.955h2.229
	v-1.955c0-0.013,0.006-0.02,0.02-0.02h0.867c0.015,0,0.02,0.007,0.02,0.02v4.677c0,0.013-0.005,0.021-0.02,0.021h-0.867
	c-0.014,0-0.02-0.008-0.02-0.021v-1.848h-2.229v1.848c0,0.013-0.007,0.021-0.021,0.021h-0.874
	C89.629,57.407,89.624,57.399,89.624,57.386"/>
<path fill="#502850" d="M96.339,57.386v-4.677c0-0.013,0.005-0.02,0.019-0.02h3.103c0.014,0,0.021,0.007,0.021,0.02v0.82
	c0,0.014-0.007,0.02-0.021,0.02l-2.208,0.014v1.101l1.541,0.021c0.013,0,0.02,0.006,0.02,0.019v0.801
	c0,0.014-0.007,0.021-0.02,0.021l-1.541,0.013v1.001h2.383c0.013,0,0.019,0.007,0.019,0.019v0.828c0,0.013-0.005,0.021-0.019,0.021
	h-3.277C96.345,57.407,96.339,57.399,96.339,57.386"/>
<path fill="#502850" d="M103.923,57.38l2.002-4.678c0.008-0.008,0.014-0.014,0.021-0.014h0.701c0.006,0,0.013,0.005,0.02,0.014
	l1.903,4.678c0.006,0.013-0.008,0.025-0.021,0.025h-0.935c-0.006,0-0.013-0.007-0.019-0.013l-0.507-1.294h-1.675l-0.535,1.294
	c-0.007,0.006-0.013,0.013-0.019,0.013h-0.916C103.923,57.406,103.917,57.393,103.923,57.38 M106.794,55.318l-0.516-1.342
	l-0.56,1.342H106.794z"/>
<path fill="#502850" d="M110.686,57.386v-4.677c0-0.013,0.008-0.02,0.021-0.02h1.935c0.394,0,1.354,0.234,1.354,1.488
	c0,0.533-0.313,0.98-0.788,1.153c0.082,0.148,0.562,1.056,0.842,1.603c0.107,0.214,0.2,0.354,0.268,0.441
	c0.02,0.02,0.006,0.032-0.015,0.032h-1.081c-0.007,0-0.014-0.006-0.02-0.013l-0.814-1.755l-0.829-0.007v1.755
	c0,0.014-0.006,0.02-0.019,0.02h-0.835C110.694,57.406,110.686,57.399,110.686,57.386 M112.355,54.737
	c0.46,0,0.754-0.194,0.754-0.606c0-0.26-0.132-0.635-0.615-0.635h-0.922v1.242H112.355z"/>
<path fill="#502850" d="M117.503,57.386v-3.81l-1.634-0.013c-0.014,0-0.022-0.007-0.022-0.02v-0.834c0-0.013,0.008-0.02,0.022-0.02
	h4.203c0.015,0,0.021,0.007,0.021,0.02v0.834c0,0.012-0.005,0.02-0.021,0.02l-1.654,0.013v3.81c0,0.013-0.007,0.021-0.019,0.021
	h-0.876C117.509,57.407,117.503,57.399,117.503,57.386"/>
<path fill="#502850" d="M121.774,56.546c0-0.013,0-0.027,0.005-0.027l0.622-0.454c0.014-0.007,0.027-0.007,0.033,0
	c0.262,0.407,0.702,0.614,1.141,0.614c0.388,0,0.588-0.262,0.588-0.527c0-0.287-0.186-0.547-0.727-0.74
	c-0.874-0.308-1.394-0.707-1.394-1.517c0-0.78,0.593-1.3,1.374-1.3c0.769,0,1.254,0.414,1.548,0.82c0.007,0.007,0.007,0.021,0,0.026
	l-0.573,0.475c-0.007,0.007-0.021,0.007-0.026,0c-0.241-0.28-0.548-0.493-0.921-0.493c-0.341,0-0.527,0.219-0.527,0.534
	c0,0.286,0.259,0.44,0.787,0.614c0.835,0.273,1.314,0.788,1.314,1.494c0,0.74-0.467,1.428-1.574,1.428
	C122.568,57.493,122.047,56.987,121.774,56.546"/>
</svg>
