<?xml version="1.0" encoding="UTF-8"?>
<svg width="38px" height="38px" viewBox="0 0 38 38" version="1.1" xmlns="http://www.w3.org/2000/svg" xmlns:xlink="http://www.w3.org/1999/xlink">
    <!-- Generator: Sketch 45.1 (43504) - http://www.bohemiancoding.com/sketch -->
    <title>Facebook with outline</title>
    <desc>Created with Sketch.</desc>
    <defs></defs>
    <g id="symbols" stroke="none" stroke-width="1" fill="none" fill-rule="evenodd" opacity="0.797667572">
        <g id="top-of-footer" transform="translate(-61.000000, -311.000000)">
            <g id="top-footer-piece">
                <g id="social-icons" transform="translate(61.000000, 311.000000)">
                    <g id="Facebook-with-outline">
                        <path d="M18.8,1 C8.97158407,1 1,9.05638815 1,19 C1,28.9436118 8.97158407,37 18.8,37 C28.6284159,37 36.6,28.9436118 36.6,19 C36.6,9.05638815 28.6284159,1 18.8,1 Z" id="Path" stroke="#FFFFFF" stroke-width="2"></path>
                        <path d="M23.25325,13.1297917 L20.427375,13.1297917 C20.0925,13.1297917 19.7204167,13.5751042 19.7204167,14.166875 L19.7204167,16.2291667 L23.2552083,16.2291667 L22.7205833,19.1702083 L19.7204167,19.1702083 L19.7204167,27.9992708 L16.385375,27.9992708 L16.385375,19.1702083 L13.35975,19.1702083 L13.35975,16.2291667 L16.385375,16.2291667 L16.385375,14.499375 C16.385375,12.0175 18.089125,10.0007292 20.427375,10.0007292 L23.25325,10.0007292 L23.25325,13.1297917 L23.25325,13.1297917 Z" id="Path" fill="#FFFFFF"></path>
                    </g>
                </g>
            </g>
        </g>
    </g>
</svg>