<?xml version="1.0" encoding="UTF-8"?>
<svg width="38px" height="38px" viewBox="0 0 38 38" version="1.1" xmlns="http://www.w3.org/2000/svg" xmlns:xlink="http://www.w3.org/1999/xlink">
    <!-- Generator: Sketch 45.1 (43504) - http://www.bohemiancoding.com/sketch -->
    <title>Twitter with outline</title>
    <desc>Created with Sketch.</desc>
    <defs></defs>
    <g id="symbols" stroke="none" stroke-width="1" fill="none" fill-rule="evenodd" opacity="0.797667572">
        <g id="top-of-footer" transform="translate(-122.000000, -311.000000)">
            <g id="top-footer-piece">
                <g id="social-icons" transform="translate(61.000000, 311.000000)">
                    <g id="Twitter-with-outline" transform="translate(61.100000, 0.000000)">
                        <path d="M1,19 C1,28.9436118 8.97158407,37 18.8,37 C28.6284159,37 36.6,28.9436118 36.6,19 C36.6,9.05638815 28.6284159,1 18.8,1 C8.97158407,1 1,9.05638815 1,19 Z" id="Path" stroke="#FFFFFF" stroke-width="2"></path>
                        <path d="M26.4472917,15.5641667 C26.455125,15.7264583 26.4570833,15.88875 26.4570833,16.0470833 C26.4570833,20.995 22.7342917,26.6969792 15.9232083,26.6969792 C13.8317083,26.6969792 11.885125,26.0794792 10.2479583,25.0146875 C10.5358333,25.0503125 10.8315417,25.0641667 11.1311667,25.0641667 C12.86625,25.0641667 14.4622917,24.4684375 15.7293333,23.4630208 C14.1097917,23.4313542 12.742875,22.3507292 12.2709167,20.8663542 C12.496125,20.9079167 12.7272083,20.9316667 12.966125,20.9316667 C13.3029583,20.9316667 13.6319583,20.8861458 13.941375,20.8010417 C12.2474167,20.4566667 10.9705833,18.9445833 10.9705833,17.1316667 L10.9705833,17.0861458 C11.4699583,17.3652083 12.0417917,17.5354167 12.648875,17.5552083 C11.6540417,16.8822917 11.0019167,15.7383333 11.0019167,14.4380208 C11.0019167,13.7532292 11.1840417,13.1080208 11.50325,12.5558333 C13.330375,14.82 16.056375,16.3083333 19.134875,16.4686458 C19.07025,16.1935417 19.0389167,15.9085417 19.0389167,15.6136458 C19.0389167,13.549375 20.6956667,11.8710417 22.742125,11.8710417 C23.8055,11.8710417 24.769,12.32625 25.444625,13.0545833 C26.2886667,12.884375 27.0798333,12.575625 27.794625,12.1461458 C27.5185,13.0189583 26.9329583,13.7532292 26.16725,14.2183333 C26.9172917,14.1253125 27.630125,13.9254167 28.294,13.6265625 C27.7985417,14.3766667 27.1699167,15.0377083 26.4472917,15.5641667 L26.4472917,15.5641667 Z" id="Path" fill="#FFFFFF"></path>
                    </g>
                </g>
            </g>
        </g>
    </g>
</svg>