<?xml version="1.0" encoding="UTF-8"?>
<svg width="38px" height="38px" viewBox="0 0 38 38" version="1.1" xmlns="http://www.w3.org/2000/svg" xmlns:xlink="http://www.w3.org/1999/xlink">
    <!-- Generator: Sketch 45.1 (43504) - http://www.bohemiancoding.com/sketch -->
    <title>Pinterest with outline</title>
    <desc>Created with Sketch.</desc>
    <defs></defs>
    <g id="symbols" stroke="none" stroke-width="1" fill="none" fill-rule="evenodd" opacity="0.797667572">
        <g id="top-of-footer" transform="translate(-244.000000, -311.000000)">
            <g id="top-footer-piece">
                <g id="social-icons" transform="translate(61.000000, 311.000000)">
                    <g id="Pinterest-with-outline" transform="translate(183.300000, 0.000000)">
                        <ellipse id="bg" stroke="#FFFFFF" stroke-width="2" cx="18.8" cy="19" rx="17.8" ry="18"></ellipse>
                        <path d="M10.2545455,17.5570205 C10.2545455,19.7757128 11.0808395,21.7492223 12.8518676,22.4847708 C13.1423942,22.6052364 13.4022658,22.4890226 13.4865673,22.1616397 C13.5450906,21.9355896 13.6837352,21.3644411 13.7450454,21.1263444 C13.8300436,20.8032133 13.7972984,20.6898339 13.5625083,20.4078028 C13.0525191,19.7948456 12.7257637,19.0018987 12.7257637,17.8780259 C12.7257637,14.619078 15.123131,11.7009768 18.9696481,11.7009768 C22.3751498,11.7009768 24.245807,13.8176276 24.245807,16.6436081 C24.245807,20.362451 22.6273576,23.501642 20.22581,23.501642 C18.898584,23.501642 17.9057771,22.3855639 18.224172,21.0172168 C18.6052705,19.3831368 19.3430828,17.6193792 19.3430828,16.4402339 C19.3430828,15.3843886 18.7857175,14.5042814 17.6333648,14.5042814 C16.2775738,14.5042814 15.187228,15.9307354 15.187228,17.8418862 C15.187228,19.0600056 15.5920146,19.8827146 15.5920146,19.8827146 C15.5920146,19.8827146 14.2041751,25.8641843 13.9610245,26.9115261 C13.4768134,28.9977063 13.888567,31.5544108 13.9234023,31.8123488 C13.9436068,31.9654109 14.1365945,32.0022592 14.2243795,31.886754 C14.3497867,31.7202281 15.9640559,29.6921548 16.5144541,27.6662075 C16.6691229,27.0922245 17.4055418,24.1209767 17.4055418,24.1209767 C17.846557,24.9755736 19.1340708,25.7281291 20.5030992,25.7281291 C24.5802261,25.7281291 27.3454545,21.9483448 27.3454545,16.888791 C27.3454545,13.0629463 24.1594154,9.5 19.3173046,9.5 C13.2928828,9.5 10.2545455,13.8934501 10.2545455,17.5570205 Z" id="Pinterest" fill="#FFFFFF"></path>
                    </g>
                </g>
            </g>
        </g>
    </g>
</svg>