<?xml version="1.0" encoding="UTF-8"?>
<svg width="38px" height="38px" viewBox="0 0 38 38" version="1.1" xmlns="http://www.w3.org/2000/svg" xmlns:xlink="http://www.w3.org/1999/xlink">
    <!-- Generator: Sketch 45.1 (43504) - http://www.bohemiancoding.com/sketch -->
    <title>Linkedin with outline</title>
    <desc>Created with Sketch.</desc>
    <defs>
        <polygon id="path-1" points="18.4918143 9.83915 18.4918143 0.265864286 0.000100714286 0.265864286 0.000100714286 9.83915 18.4918143 9.83915"></polygon>
        <polygon id="path-3" points="4.12341071 0.0413928571 0.145867857 0.0413928571 0.145867857 7.10393036 4.12341071 7.10393036 4.12341071 0.0413928571"></polygon>
    </defs>
    <g id="symbols" stroke="none" stroke-width="1" fill="none" fill-rule="evenodd" opacity="0.797667572">
        <g id="top-of-footer" transform="translate(-183.000000, -311.000000)">
            <g id="top-footer-piece">
                <g id="social-icons" transform="translate(61.000000, 311.000000)">
                    <g id="Linkedin-with-outline" transform="translate(122.200000, 0.000000)">
                        <path d="M18.8,1 C8.97158407,1 1,9.05638815 1,19 C1,28.9436118 8.97158407,37 18.8,37 C28.6284159,37 36.6,28.9436118 36.6,19 C36.6,9.05638815 28.6284159,1 18.8,1 Z" id="Path" stroke="#FFFFFF" stroke-width="2"></path>
                        <g id="youtube-icon" transform="translate(9.400000, 9.500000)">
                            <g id="Group-3" transform="translate(0.000000, 8.780036)">
                                <mask id="mask-2" fill="white">
                                    <use xlink:href="#path-1"></use>
                                </mask>
                                <g id="Clip-2"></g>
                                <path d="M15.5648221,5.63098929 L13.7744579,5.63098929 L13.7744579,6.521275 C13.7744579,6.77031071 13.8050079,6.94300714 13.8664436,7.04004286 C13.9275436,7.13673929 14.0343007,7.18254286 14.1836936,7.18254286 C14.3398007,7.18254286 14.4462221,7.14216786 14.5090007,7.06141786 C14.5701007,6.97795357 14.6023293,6.80016786 14.6023293,6.521275 L14.6023293,6.30582857 L15.5648221,6.30582857 L15.5648221,6.549775 C15.5648221,7.03325714 15.448665,7.39832857 15.211315,7.64498929 C14.9793364,7.88859643 14.6288507,8.01006071 14.1622079,8.01006071 C13.742565,8.01006071 13.4118864,7.88181071 13.1721864,7.62056071 C12.9321507,7.36338214 12.8109579,7.00373929 12.8109579,6.549775 L12.8109579,4.42381071 C12.8109579,4.01429286 12.9425579,3.67907857 13.209115,3.42020357 C13.4733221,3.163025 13.8117221,3.03375714 14.2330436,3.03375714 C14.6610793,3.03375714 14.9900793,3.153525 15.2193721,3.3934 C15.4500079,3.633275 15.5648221,3.975275 15.5648221,4.42381071 L15.5648221,5.63098929 Z M12.3204793,6.90398929 C12.3204793,7.23920357 12.2469579,7.49536429 12.1002507,7.67416786 C11.9552221,7.85365 11.7417079,7.94254286 11.4647436,7.94254286 C11.2804364,7.94254286 11.1179507,7.90895357 10.9739293,7.83872143 C10.8325936,7.77018571 10.6983079,7.66500714 10.5757721,7.51809643 L10.5757721,7.88181071 L9.63040071,7.88181071 L9.63040071,1.47100714 L10.5757721,1.47100714 L10.5757721,3.53454286 C10.7023364,3.39204286 10.8366221,3.28143571 10.9752721,3.20611429 C11.1192936,3.13079286 11.2623079,3.09313214 11.4083436,3.09313214 C11.7044436,3.09313214 11.9310507,3.1939 12.085815,3.39475714 C12.2429293,3.59697143 12.3204793,3.89181071 12.3204793,4.27995357 L12.3204793,6.90398929 Z M8.92540071,7.88181071 L7.989765,7.88181071 L7.989765,7.36338214 C7.81653643,7.5544 7.63927929,7.70165 7.45127929,7.79970357 C7.26428643,7.90216786 7.08333643,7.95068571 6.90607929,7.95068571 C6.68987929,7.95068571 6.52873643,7.88181071 6.41962929,7.73931071 C6.31052214,7.59748929 6.25412214,7.38882857 6.25412214,7.10450714 L6.25412214,3.15081071 L7.18975786,3.15081071 L7.18975786,6.78015 C7.18975786,6.891775 7.20990071,6.972525 7.24750071,7.0224 C7.28879357,7.07363214 7.35257929,7.09772143 7.44053643,7.09772143 C7.50700786,7.09772143 7.594965,7.06582857 7.70172214,6.99831071 C7.80579357,6.93079286 7.90315071,6.84732857 7.989765,6.74350714 L7.989765,3.15081071 L8.92540071,3.15081071 L8.92540071,7.88181071 Z M5.84354357,2.40200714 L4.75314357,2.40200714 L4.75314357,7.88181071 L3.69732214,7.88181071 L3.69732214,2.40200714 L2.60860071,2.40200714 L2.60860071,1.47100714 L5.84354357,1.47100714 L5.84354357,2.40200714 Z M15.1139579,0.265864286 L3.37772214,0.265864286 C1.51182214,0.265864286 0.000100714286,1.79570357 0.000100714286,3.68179286 L0.000100714286,6.42457857 C0.000100714286,8.31032857 1.51182214,9.83915 3.37772214,9.83915 L15.1139579,9.83915 C16.9801936,9.83915 18.491915,8.31032857 18.491915,6.42457857 L18.491915,3.68179286 C18.491915,1.79570357 16.9801936,0.265864286 15.1139579,0.265864286 L15.1139579,0.265864286 Z" id="Fill-1" fill="#FFFFFF" mask="url(#mask-2)"></path>
                            </g>
                            <path d="M14.1917843,12.6407 C14.0437343,12.6407 13.9356343,12.6837893 13.8731914,12.7716643 C13.8063843,12.8551286 13.7744914,12.9979679 13.7744914,13.1961107 L13.7744914,13.6741643 L14.6023629,13.6741643 L14.6023629,13.1961107 C14.6023629,12.9979679 14.5687914,12.8551286 14.5036629,12.7716643 C14.4408843,12.6837893 14.3341271,12.6407 14.1917843,12.6407" id="Fill-4" fill="#FFFFFF"></path>
                            <path d="M10.9661071,12.6261107 C10.8996357,12.6261107 10.8328286,12.6393429 10.7673643,12.6705571 C10.7022357,12.7017714 10.6377786,12.7513071 10.5756714,12.8161107 L10.5756714,15.7617893 C10.6515429,15.8388071 10.7247286,15.8971643 10.7965714,15.9317714 C10.86875,15.9626464 10.9436143,15.9819857 11.0235143,15.9819857 C11.13665,15.9819857 11.2222571,15.9480571 11.2753,15.8805393 C11.3283429,15.8133607 11.3565429,15.706825 11.3565429,15.5544857 L11.3565429,13.1126464 C11.3565429,12.9521643 11.3229714,12.8310393 11.2591857,12.7485929 C11.1900286,12.6664857 11.0926714,12.6261107 10.9661071,12.6261107" id="Fill-6" fill="#FFFFFF"></path>
                            <g id="Group-10" transform="translate(3.357143, 0.297893)">
                                <mask id="mask-4" fill="white">
                                    <use xlink:href="#path-3"></use>
                                </mask>
                                <g id="Clip-9"></g>
                                <polygon id="Fill-8" fill="#FFFFFF" mask="url(#mask-4)" points="0.145867857 0.0413589286 1.55721071 4.3075375 1.55721071 7.10393036 2.74228214 7.10393036 2.74228214 4.17419821 4.12341071 0.0413589286 2.91718929 0.0413589286 2.18398929 2.86455536 2.10946071 2.86455536 1.33899643 0.0413589286"></polygon>
                            </g>
                            <path d="M9.55046714,3.34345714 L9.55046714,6.18293929 C9.55046714,6.32136786 9.50648857,6.43231429 9.42390286,6.51306429 C9.33963857,6.59245714 9.22516,6.631475 9.08382429,6.631475 C8.94383143,6.631475 8.83606714,6.59381429 8.76120286,6.51442143 C8.68667429,6.43468929 8.64907429,6.32543929 8.64907429,6.18293929 L8.64907429,3.34345714 C8.64907429,3.23013571 8.69036714,3.13852857 8.76926,3.06727857 C8.85050286,2.99704643 8.95491,2.96345714 9.08382429,2.96345714 C9.22247429,2.96345714 9.33426714,2.99704643 9.41953857,3.06727857 C9.50648857,3.13852857 9.55046714,3.23013571 9.55046714,3.34345714 M7.98973143,2.41754643 C7.70840286,2.65776071 7.56572429,2.97838571 7.56572429,3.38383214 L7.56572429,6.08454643 C7.56572429,6.52765357 7.70437429,6.87813571 7.97898857,7.14040357 C8.25763143,7.40199286 8.62557429,7.53533214 9.08651,7.53533214 C9.56523857,7.53533214 9.94090286,7.40776071 10.2155171,7.153975 C10.4861029,6.89815357 10.62341,6.550725 10.62341,6.10490357 L10.62341,3.41301071 C10.62341,3.01740357 10.4834171,2.68999286 10.2064529,2.43790357 C9.92781,2.18751071 9.57061,2.06095714 9.13317429,2.06095714 C8.65612429,2.06095714 8.27475286,2.17902857 7.98973143,2.41754643" id="Fill-11" fill="#FFFFFF"></path>
                            <path d="M14.4822443,7.40199286 L14.4822443,2.19158214 L13.4291086,2.19158214 L13.4291086,6.14799286 C13.3320871,6.26131429 13.2239871,6.35393929 13.1051443,6.42824286 C12.9852943,6.50085 12.8882729,6.53715357 12.8107229,6.53715357 C12.7123586,6.53715357 12.64018,6.51035 12.5962014,6.45368929 C12.5535657,6.39838571 12.52973,6.30949286 12.52973,6.18701071 L12.52973,2.19158214 L11.4765943,2.19158214 L11.4765943,6.54665357 C11.4765943,6.85777857 11.5390371,7.08951071 11.6619086,7.24456429 C11.7857871,7.39927857 11.9684157,7.47901071 12.2121443,7.47901071 C12.4108871,7.47901071 12.6136586,7.42235 12.8228086,7.31174286 C13.0346443,7.20011786 13.23708,7.03861786 13.4291086,6.82554643 L13.4291086,7.40199286 L14.4822443,7.40199286 Z" id="Fill-13" fill="#FFFFFF"></path>
                        </g>
                    </g>
                </g>
            </g>
        </g>
    </g>
</svg>