<svg id="_Layer_1" data-name=" Layer 1" xmlns="http://www.w3.org/2000/svg" viewBox="0 0 288 46"><defs><style>.cls-1{fill:#fff;}</style></defs><title>Skidmore_NoCollege_White</title><path class="cls-1" d="M14.4,19.62C8.5,19.11,6.13,17.78,5,14.34a8.47,8.47,0,0,1-.44-3c0-5.39,3.21-8,9.81-8a11.53,11.53,0,0,1,5.75,1.3c.79.54,1.06,1.35,1.61,4.81v.27l1.64-.61.54-6.78-.14-.06A20.93,20.93,0,0,0,18.61.46,17.12,17.12,0,0,0,14.91,0C7.32,0,.67,6.45.67,13.81a9.88,9.88,0,0,0,2.69,7c1.68,1.6,3.86,2.34,8.05,2.75,5.59.58,8,1.81,9.34,4.89a8.78,8.78,0,0,1,.72,3.7c0,6-3.75,9.23-10.55,9.23a15.25,15.25,0,0,1-5.12-.75,3.91,3.91,0,0,1-2.44-2.11,8,8,0,0,1-.66-4v-.23H1L0,42.18l.12.08a13.37,13.37,0,0,0,4.21,2A15.44,15.44,0,0,0,9.19,45c8.93,0,16.47-7.11,16.47-15.51a10.59,10.59,0,0,0-1.29-5.31C22.73,21.34,20,20.09,14.4,19.62Z" transform="translate(0 0.01)"/><path class="cls-1" d="M67.3,39.92a9.68,9.68,0,0,1-2.24.23c-2.6,0-4.41-.94-8.81-4.56l-17-14.14L54.07,6.16A25,25,0,0,1,56.28,4c.85-.76,1.24-1.1,2.33-2l.55-.44L58,1.59H52.48l-.06.12a23.93,23.93,0,0,1-3.27,4.68L35.3,20.92V12.19a42.77,42.77,0,0,1,.51-7.3c.24-1,.64-1.34,2.66-1.58h.2V1.46h-.25a42.49,42.49,0,0,1-5.11.29A45,45,0,0,1,28,1.46h-.24V3.31H28c1.73.23,2.32.5,2.61,1.2a11.41,11.41,0,0,1,.5,2.84v1.1a11,11,0,0,0,.07,1.48c.06,1.16.06,1.91.06,2.27v22.7a14.35,14.35,0,0,1-.11,1.91v.33a14.69,14.69,0,0,1-.43,3.19c-.24.93-.67,1.29-2.72,1.53h-.2V43.7H28a45.19,45.19,0,0,1,5.34-.29c1.45,0,3,.11,5,.29h.24V41.85h-.19c-1.89-.23-2.41-.54-2.66-1.58a41.31,41.31,0,0,1-.51-7.3V23.6L53.49,39.5c2.76,2.4,3.82,3.13,5.42,3.71a5.32,5.32,0,0,0,2.14.43c2,0,3.82-1,6.42-3.33l.6-.55Z" transform="translate(0 0.01)"/><path class="cls-1" d="M73.26,1.76a43,43,0,0,1-5.1-.29h-.24V3.32h.19c1.81.23,2.43.51,2.67,1.2a12.87,12.87,0,0,1,.44,3.72c.06,1.17.11,3.1.11,4V36.49a13.87,13.87,0,0,1-.5,4.18c-.28.66-.77,1-2.67,1.21H68v1.86h.24a42.37,42.37,0,0,1,5.16-.29,43,43,0,0,1,5.16.29h.24V41.88h-.2c-2-.18-2.43-.62-2.66-1.47a37.72,37.72,0,0,1-.45-7.18V11.49c0-1.07,0-2.1.1-3.19V8a11.19,11.19,0,0,1,.39-3.33c.25-.82.86-1.14,2.61-1.36h.19V1.47H78.5A43.39,43.39,0,0,1,73.26,1.76Z" transform="translate(0 0.01)"/><path class="cls-1" d="M105,1.12c-1.11,0-2.77.06-4.92.17-4.36.28-9.19.47-12,.47a48.94,48.94,0,0,1-5.62-.29h-.24V3.33h.21c1.78.13,2.29.53,2.55,1.15.39.91.5,1.82.61,5.12.06,1,.06,1.85.06,2.61V32.92a58.23,58.23,0,0,1-.39,7.19A8.51,8.51,0,0,1,84,43.24l-.23.38h.44l.71-.06c.37,0,.64-.06.94-.06.68-.06,2-.06,3-.06s1.93,0,3.24.06l3.42.17c.86.06,1.67.06,2.52.06,4.71,0,8.08-.49,10.91-1.59a20.33,20.33,0,0,0,10.55-9.74,28.23,28.23,0,0,0,3.1-13.58C122.54,7.4,116.31,1.12,105,1.12Zm13.35,21c0,8.49-3.29,14.66-9,17a20.41,20.41,0,0,1-7.06,1.21c-1.91.11-3.9.18-5.46.18-.73,0-1.42,0-2.84-.06l-1.5-.06c-.88,0-1.58-.06-2-.06H90a19,19,0,0,1-.24-3.2v-.33c-.06-.69-.06-1.27-.06-1.62V10a26.87,26.87,0,0,1,.48-5.17,25.34,25.34,0,0,1,3.36-.38c2.69-.15,5.51-.29,7.91-.29a23,23,0,0,1,7.9,1,13.64,13.64,0,0,1,6.62,6h0c1.58,2.84,2.37,6.39,2.37,11Z" transform="translate(0 0.01)"/><path class="cls-1" d="M175.35,38c0-.19-.06-.72-.06-.86-.64-23.35-.78-28.86-.81-30h0c0-2.65.58-3.63,2.4-3.74a2.35,2.35,0,0,0,.57-.07l.27,0h.19V1.45l-1.27.14c-1.18.11-2.28.17-2.94.17h-1.76a8,8,0,0,1-1.6-.18l-.18,0-18.3,36.72-17.92-33-.45-.84c-.39-.72-.7-1.3-1.43-2.78L132,1.51h-.15l-.44,0-.58.06-.75.07a12.71,12.71,0,0,1-1.4.1,12.87,12.87,0,0,1-1.49-.11,13.19,13.19,0,0,0-1.54-.12h-.12a.87.87,0,0,0-.23,0h-.22V3.41h.21c1.67,0,2,.36,3,2.21,0,0,.25.51.43.78l-2.45,30.55c-.35,4.19-1,4.83-3.27,5h-.21v1.85H123l1,0a5.17,5.17,0,0,0,1-.06c.68,0,1.24-.08,1.7-.11s.74-.06,1-.06c.49,0,1.37.06,2.79.18a12.83,12.83,0,0,1,1.48.07l.9.06V42h-.56c-2.26,0-2.68-.55-2.68-3.45a7.18,7.18,0,0,1,0-.82,3.14,3.14,0,0,1,.06-.69l1.77-26.5L151.14,46,170.08,8l.77,29.8v1.34c0,1.3-.11,1.66-.41,2-.45.57-1,.73-2.45.73h-.22V43.7H168c.76-.09,1.09-.11,1.68-.14h.54a28,28,0,0,1,3.06-.12,40.78,40.78,0,0,1,5.1.29h.25V41.85h-.5C176,41.85,175.58,41.56,175.35,38Z" transform="translate(0 0.01)"/><path class="cls-1" d="M203.68.07a28.85,28.85,0,0,0-12.06,2.65C183.41,6.6,179.07,13.63,179.07,23c0,13.35,8,22,20.4,22,14.2,0,24.5-10.53,24.5-25C224,7.53,216.38.07,203.68.07Zm15.85,21.87c0,12.23-6.67,20.14-17,20.14-11.6,0-19.1-8.14-19.1-20.72a23.57,23.57,0,0,1,1.64-9A13.78,13.78,0,0,1,191.87,5a17.59,17.59,0,0,1,9.3-2.25C212.5,2.74,219.53,10.1,219.53,21.94Z" transform="translate(0 0.01)"/><path class="cls-1" d="M258.33,40c-1.31-.61-2.49-1.69-5-4.61l-13.6-15.7A13.11,13.11,0,0,0,244.84,16a10.56,10.56,0,0,0,3.25-7.28c0-4.53-3.67-7.35-9.57-7.35-1.08,0-1.74.06-5,.35-1.24.12-2.43.12-3.68.12a41,41,0,0,1-4.65-.29H225V3.39h.21c1.8.06,2.28.39,2.54,1,.32.77.49,2.25.61,5.29V33c0,.22,0,.81-.06,1.85a9.35,9.35,0,0,1-.06,1.33,21.72,21.72,0,0,1-.45,4.12c-.18.94-.61,1.39-2.65,1.57h-.2v1.86h.24a46,46,0,0,1,10.33,0h.24V41.86h-.2c-1.32-.11-1.85-.27-2.25-.68s-.86-2.12-.86-4.64c0-.23-.11-22.65-.06-24.27,0,0,.06-1.81.11-4.37V6.76a14.4,14.4,0,0,1,.11-2.17,16.7,16.7,0,0,1,3.5-.37c4.64,0,7.3,2.28,7.3,6.25,0,3-1.72,5.52-4.83,7a12.28,12.28,0,0,1-4.66,1.27l-.41,0,16.28,19.34c3.17,3.78,5.62,5.62,7.46,5.62,1.37,0,2.75-.74,4.76-2.57l.37-.33-.49-.06A11.31,11.31,0,0,1,258.33,40Z" transform="translate(0 0.01)"/><path class="cls-1" d="M286.55,35.93l-.2,1.26c-.31,1.89-.72,2.82-1.34,3a8.16,8.16,0,0,1-2.34.28h-1.81c-.43,0-.67,0-2.2.07h-2.94c-1.71.06-3,.06-3.64.06h-2.22a18.1,18.1,0,0,1-.41-4.21V23.16h12.86l1.46-3.2H269.4V8.7a21.45,21.45,0,0,1,.36-4h2.8c1-.06,2.57-.06,3.41-.06,3.32,0,4.91.21,6,.79.61.37.94.9,1.39,2.27l.08.25L285,7.17V7a7.1,7.1,0,0,1-.11-1.53,21.67,21.67,0,0,1,.4-3.41V1.85l-.2,0a12.25,12.25,0,0,0-3.47-.36h-1.36l-1.44.07c-5.55.24-9.4.35-10.76.35a55.68,55.68,0,0,1-5.85-.29h-.24V3.42h.19c2.63.33,2.83.62,3.06,4.34a15.67,15.67,0,0,0,.1,1.61,23.17,23.17,0,0,1,.07,2.35V33.89c0,.86-.08,2.57-.14,3.81v.73a8.26,8.26,0,0,1-.15,1.23,3.34,3.34,0,0,1-.07.5,8.61,8.61,0,0,1-1.34,3.31l-.22.38,2.48-.21c2.16-.17,3.2-.17,4.2-.17,1.2,0,2.25.07,5.69.29S281,44,282,44a19.73,19.73,0,0,0,5-.49c.33-.17.45-.56.58-1.82,0-.71.08-1,.1-1.21s0-.39.07-1a5.48,5.48,0,0,1,.22-1.3v-.1Z" transform="translate(0 0.01)"/></svg>