<?xml version="1.0" encoding="UTF-8"?>
<svg width="227px" height="34px" viewBox="0 0 227 34" version="1.1" xmlns="http://www.w3.org/2000/svg" xmlns:xlink="http://www.w3.org/1999/xlink">
    <!-- Generator: Sketch 45.1 (43504) - http://www.bohemiancoding.com/sketch -->
    <title>logo</title>
    <desc>Created with Sketch.</desc>
    <defs>
        <polygon id="path-1" points="2.45678892e-15 33.2442623 2.45678892e-15 0.39329615 19.1388142 0.39329615 19.1388142 33.2442623 0 33.2442623"></polygon>
        <polygon id="path-3" points="0.0316052525 0.925572936 34.6210349 0.925572936 34.6210349 34.1124029 0.0316052525 34.1124029"></polygon>
    </defs>
    <g id="symbols" stroke="none" stroke-width="1" fill="none" fill-rule="evenodd">
        <g id="top-nav" transform="translate(-61.000000, -33.000000)">
            <g id="logo">
                <g transform="translate(61.000000, 32.000000)">
                    <g id="Group-32" transform="translate(0.000000, 0.099129)">
                        <g id="Group-15" transform="translate(0.000000, 1.266091)">
                            <mask id="mask-2" fill="white">
                                <use xlink:href="#path-1"></use>
                            </mask>
                            <g id="Clip-14"></g>
                            <path d="M17.9226974,2.19633056 C15.4904671,0.727785379 14.3934442,0.39329615 11.5352301,0.39329615 C5.57145636,0.39329615 0.523776902,5.00054163 0.523776902,10.4096449 C0.523776902,14.6824011 2.95600721,16.8840734 8.43196074,17.4866122 L9.77174862,17.6194915 C14.759882,18.1532996 16.4019809,19.6882844 16.4019809,23.894601 C16.4019809,28.3689672 13.3605479,31.040299 8.31057825,31.040299 C3.62704626,31.040299 1.68034593,29.7046331 1.68034593,26.5659328 C1.68034593,26.4330535 1.66431428,26.4307625 1.65057286,26.1146015 C1.63225098,25.6907624 0.761961414,25.6724342 0.645159394,25.8992454 C0.535228081,26.1146015 0.606225387,26.3918151 0.606225387,26.3918151 C0.606225387,26.3918151 0.553549966,27.7939207 -0.000687070707,31.0311349 C1.41467859,32.3347265 4.4767237,33.2442623 6.84940788,33.2442623 C13.3605479,33.2442623 19.1388126,27.9015987 19.1388126,21.8258081 C19.1411028,17.7523707 16.6470362,15.4819678 11.5947762,14.9481597 L10.1954422,14.7488407 C5.32869138,14.2150326 3.0773897,12.2791189 3.0773897,8.53787978 C3.0773897,4.86766235 5.81651158,2.39564948 9.83129475,2.39564948 C13.1773291,2.39564948 16.0973796,3.53199645 16.2805985,5.00054163 L16.4203028,5.91465945 C16.4203028,5.91465945 16.5622974,6.90208999 16.5829096,7.00289496 C16.6790995,7.43589814 17.6020644,7.41756996 17.55855,7.13577424 C17.4577796,6.48512396 17.9226974,2.19633056 17.9226974,2.19633056" id="Fill-13" fill="#006A52" mask="url(#mask-2)"></path>
                        </g>
                        <path d="M22.8027316,2.50798191 C22.4981303,2.59733178 22.4775182,3.44500996 22.8027316,3.56414311 C22.9584677,3.62141866 23.1668791,3.56414311 23.224135,3.56414311 C24.7311101,3.56414311 25.2120596,3.96278096 25.273896,5.35114036 L25.5739168,17.2484182 L25.3334421,30.3393186 C25.273896,32.1240248 25.031131,32.453932 23.4050636,32.7173996 C23.3455175,32.7861302 23.2607788,32.760929 23.1668791,32.7861302 C22.7294441,32.8869352 22.8393754,33.7094121 23.1668791,33.7094121 C23.3180347,33.7117032 23.4050636,33.7094121 23.4050636,33.7094121 L27.1999842,33.5123842 L30.75443,33.7094121 C30.75443,33.7094121 30.9445195,33.7437775 31.0567411,33.7094121 C31.4529519,33.5971521 31.464403,32.6990714 31.0567411,32.6532509 C31.0086461,32.6486689 30.9353586,32.6532509 30.9353586,32.6532509 C29.1283626,32.6532509 28.5855768,32.1240248 28.5260306,30.2064393 L28.4069384,25.7778936 L28.2855559,18.9025362 L39.9405653,30.4699069 C42.8193916,33.3588858 44.3790421,34.0232822 44.8760232,34.0782667 C45.7944077,34.1790717 47.837298,33.7529416 48.1854138,32.9235916 C48.5289492,32.1148607 48.3319889,34.6670594 41.3376091,27.7504636 L40.8452084,27.166253 L31.0567411,17.5806164 L39.1321121,8.68228652 L40.112333,7.55968568 L42.5102098,5.21826108 L44.514166,3.32129477 C45.2836852,2.59504075 46.0761067,2.26055152 45.2401707,2.26055152 C45.2401707,2.26055152 43.2064414,2.44841534 41.8964266,2.3201181 L40.8360475,3.71076853 L38.8824764,6.11175971 L35.9670064,9.59411333 L35.3967377,10.2676738 L28.2855559,17.7776443 C28.2855559,15.0009255 28.2855559,12.9527518 28.345102,11.5643923 C28.4069384,8.45776635 28.4641943,6.4737412 28.4641943,5.54816826 C28.4641943,4.0292206 28.8878879,3.56414311 30.6948838,3.43355485 C30.6948838,3.43355485 30.7681714,3.43813689 30.8139761,3.43355485 C31.2124771,3.39002543 31.1620919,2.44383329 30.75443,2.37510263 C30.6857229,2.36364752 30.5757916,2.37510263 30.5757916,2.37510263 L26.7579687,2.63398813 L23.1668791,2.50798191 C23.1668791,2.50798191 22.9401458,2.46903454 22.8027316,2.50798191" id="Fill-16" fill="#006A52"></path>
                        <path d="M50.0618039,2.63307172 C49.6793345,2.70180238 49.6564322,3.55635363 50.0618039,3.6250843 C50.199218,3.64799452 50.3618248,3.6250843 50.4213709,3.6250843 C52.1092746,3.75796358 52.4642611,4.16118347 52.4642611,5.74657078 L52.4642611,18.0424865 L52.4642611,29.8756157 C52.4642611,32.0566688 52.1642403,32.4553066 50.2381521,32.7187742 C50.1763157,32.7187742 50.1259305,32.705028 50.0572234,32.7187742 C49.6770443,32.7875048 49.6701736,33.7291149 50.0572234,33.7107868 C53.7193103,33.5229229 53.8842073,33.4496102 57.7066106,33.7107868 C58.1074019,33.738279 58.253977,32.6660807 57.7066106,32.6523345 C57.5898086,32.6500435 57.525682,32.6523345 57.4042995,32.6523345 C55.8400686,32.5217463 55.5973036,32.4553066 55.4163749,31.7267616 C55.1759002,30.9340679 55.1163541,28.8858942 55.1163541,20.0929513 C55.1163541,8.45684995 55.1232248,5.7076234 55.4232457,4.78205047 C55.6660106,4.05579646 55.9774827,3.75796358 57.6722571,3.62966634 C58.0593069,3.59988305 58.0478558,2.72929465 57.6722571,2.63765376 C57.5829379,2.61474354 57.4340726,2.63765376 57.4340726,2.63765376 L54.0674261,2.76365998 L50.2427325,2.63307172 C50.2427325,2.63307172 50.130511,2.62161661 50.0618039,2.63307172" id="Fill-18" fill="#006A52"></path>
                        <path d="M79.4842328,1.84473101 C77.2787358,1.84473101 74.7755082,1.97761029 71.9699695,2.17463819 C70.002657,2.30751748 68.5117136,2.37395712 67.6185217,2.37395712 L63.5029681,2.17463819 C63.5029681,2.17463819 63.3174591,2.14256389 63.2052375,2.17463819 C62.8090267,2.29148032 62.7471904,3.13228544 63.3243298,3.23309041 C63.4159392,3.24912757 63.5648045,3.23309041 63.5648045,3.23309041 C65.4725708,3.3659697 65.8298476,3.76231652 65.8298476,5.87692994 L65.921457,21.2863447 L65.921457,23.799596 C65.921457,26.1135283 65.921457,28.0288228 65.8642011,29.5500615 C65.8023648,31.0690092 65.5664705,31.4493188 65.1656793,32.1480806 C65.1656793,32.1480806 64.0892685,33.3966876 64.6435055,33.2660994 C65.3466079,33.0988547 66.5787547,33.2523532 66.5787547,33.2523532 C67.8910597,33.2523532 68.7865419,33.2523532 72.8998052,33.4493811 C73.9739257,33.4493811 74.9266638,33.5158208 75.7625998,33.5158208 C86.5564806,33.5158208 94.0111978,26.3105562 94.0111978,15.7993467 C94.0111978,7.07284348 88.7894604,1.84473101 79.4842328,1.84473101 M76.8962665,31.7975542 C75.5244153,31.7975542 72.36389,31.5982353 69.0224362,31.2018884 L68.7247055,31.2018884 C68.5460671,29.8799687 68.486521,24.5922896 68.486521,19.3687592 C68.486521,9.78312265 68.6926422,5.61346239 69.166721,4.15866335 C71.7340752,3.76231652 72.6868133,3.62943724 75.6687001,3.62943724 C79.4246867,3.62943724 81.6324739,4.02578407 84.257084,5.08423629 C88.5489857,6.80250287 91.1461129,11.7007082 91.1461129,17.8498115 C91.1461129,20.2278925 90.6697439,22.5418248 89.776552,24.6564382 C87.7474032,29.4836218 83.6341399,31.7975542 76.8962665,31.7975542" id="Fill-20" fill="#006A52"></path>
                        <path d="M96.821775,2.00762268 C96.4347252,1.98013042 96.4370154,2.9515238 96.821775,2.99734424 C96.8675797,3.0042173 96.9408673,2.99734424 96.9408673,2.99734424 C98.5692248,3.06378388 99.0478841,3.32954244 99.6525063,4.78434149 L98.2646235,22.6314038 C98.2646235,22.7642831 98.2646235,22.963602 98.2073676,23.2935092 C98.2073676,23.4263885 98.0859851,24.5489893 97.9050565,26.6658937 C97.6645818,29.4426125 97.4836531,30.6980927 97.2408881,31.2914674 C97.0004134,31.8871332 96.5194639,32.0864521 95.2552538,32.0864521 C95.1338713,32.0864521 95.0285205,32.0841611 94.907138,32.1483097 C94.53841,32.3430466 94.5590222,33.0830467 94.9552329,33.2090529 C95.0995178,33.2571644 95.227771,33.1953068 95.3491535,33.1930158 C97.3668511,33.1357402 98.3653939,33.0990839 98.628771,33.0784647 L102.364145,33.2090529 C102.364145,33.2090529 102.513011,33.2296721 102.60233,33.2090529 C103.007702,33.119703 103.053506,32.288062 102.664166,32.1528917 C102.529042,32.1047803 102.423692,32.1528917 102.302309,32.1528917 C100.314384,31.8871332 100.014364,31.6878142 100.07391,30.5652134 L100.07391,30.0359873 C100.195292,28.9798261 100.376221,25.4745622 100.614405,19.4583382 C100.795334,15.6918978 101.097645,11.8567268 101.519048,8.02384677 L101.578595,7.42818101 L101.82136,7.7580882 C104.109305,11.3275007 106.456797,15.4261392 108.927961,20.0540039 C113.025193,27.7220549 115.613159,32.4827989 116.820113,34.3339448 L117.120134,34.7967312 L132.24027,5.90694233 C132.599837,8.81654042 132.599837,9.34576653 132.599837,16.5510311 C132.659383,19.3918985 132.721219,23.8891749 132.902148,30.1024269 L132.902148,30.2353062 C132.902148,31.6878142 132.780766,31.8871332 130.673749,32.1528917 C130.614203,32.2170403 130.556947,32.180384 130.49282,32.2170403 C130.156155,32.4117772 130.10577,33.2090529 130.49282,33.2090529 L130.795131,33.2090529 L134.466379,33.012025 L138.323136,33.2090529 C138.323136,33.2090529 138.510935,33.2434182 138.625447,33.2090529 C138.994175,33.0967928 138.998755,32.3086812 138.625447,32.2170403 C138.533838,32.1964211 138.382682,32.2170403 138.382682,32.2170403 C136.397048,31.9535728 136.094737,31.6878142 136.035191,30.2994548 L135.492405,16.8809383 L135.130547,7.89096748 L135.130547,6.89895491 C135.130547,3.59300999 135.432859,3.06378388 137.480329,2.73387669 C137.480329,2.73387669 137.626904,2.7453318 137.720804,2.73387669 C138.133046,2.68805625 138.055178,1.86099727 137.720804,1.8747434 C133.937335,2.04427904 132.24027,1.8747434 132.24027,1.8747434 C132.059341,2.14050197 131.997505,2.14050197 131.997505,2.27109023 C131.576102,2.99734424 129.169064,7.7580882 124.769521,16.6174707 C123.445765,19.2613103 121.157819,23.4263885 117.903395,29.176854 L117.603374,29.6396405 C117.481991,29.5067612 117.481991,29.5067612 117.422445,29.4426125 C116.939205,28.7805072 114.470331,24.3519614 110.011242,16.2211239 L102.302309,2.33752987 L102.12138,2.00762268 L101.940452,2.00762268 L99.8929811,2.07406232 C99.4715777,2.07406232 99.1165912,2.08093539 98.6951878,2.08093539 C97.9737636,2.08093539 97.3508195,2.04427904 96.821775,2.00762268" id="Fill-22" fill="#006A52"></path>
                        <g id="Group-26" transform="translate(141.994613, 0.000000)">
                            <mask id="mask-4" fill="white">
                                <use xlink:href="#path-3"></use>
                            </mask>
                            <g id="Clip-25"></g>
                            <path d="M3.07303825,16.9893036 C3.07303825,8.06577247 8.44135071,2.44589521 17.0274443,2.44589521 C25.9135588,2.44589521 31.5796019,8.13221211 31.5796019,16.922864 C31.5796019,26.245033 26.032651,32.5247246 17.8038342,32.5247246 C15.0601319,32.5247246 12.4355218,31.7984706 9.99184027,30.4101112 C5.22127933,27.6333924 3.07303825,23.4683142 3.07303825,16.9893036 M0.0316052525,18.4441027 C0.0316052525,27.9632996 6.2335635,34.1124029 15.7746854,34.1124029 C26.6281123,34.1124029 34.6210349,26.1785933 34.6210349,15.4039163 C34.6210349,6.4116545 28.7168073,0.924656527 18.9375009,0.924656527 C7.66496081,0.924656527 0.0316052525,7.99933283 0.0316052525,18.4441027" id="Fill-24" fill="#006A52" mask="url(#mask-4)"></path>
                        </g>
                        <path d="M179.489206,1.71849569 C179.065513,1.8330468 179.060932,2.75174667 179.489206,2.84338755 C179.580816,2.86171573 179.670135,2.84338755 179.729681,2.84338755 C181.17482,2.90982719 181.417585,2.97626683 181.715315,3.83540013 C182.139009,4.89156132 182.198555,6.01645319 182.198555,11.7669187 L182.198555,14.4107582 L182.017627,29.8820306 C182.017627,31.4674179 181.836698,31.6644458 179.970156,31.8637647 C179.90832,31.9302044 179.81671,31.8843839 179.729681,31.9302044 C179.360953,32.1180682 179.347212,32.9061798 179.670135,32.9863656 C179.988478,33.0688424 180.151085,32.9863656 180.512942,32.9863656 C180.812963,32.9863656 183.304739,32.825994 183.728433,32.8489042 C184.362828,32.8855606 186.595808,32.9863656 186.838573,32.9863656 C186.957665,32.9863656 187.221042,32.9772015 187.498161,32.9863656 C187.985981,33.0069848 187.995142,31.9347864 187.559997,31.8637647 C187.49129,31.8523096 187.379068,31.8637647 187.379068,31.8637647 L185.753001,31.6002972 C185.272052,31.5338575 184.96974,30.6082846 184.96974,29.3505135 L184.788812,19.0386229 C184.729266,16.9240095 184.729266,14.8093961 184.729266,12.6924916 C184.729266,8.1310666 184.850648,5.35434779 185.031577,4.16530731 L185.088833,3.89954875 C185.272052,3.83540013 185.393434,3.83540013 185.393434,3.76896049 C185.872093,3.56964156 186.595808,3.50320192 187.679089,3.50320192 C191.957249,3.50320192 194.126103,5.5513757 193.931433,8.24790873 C193.697829,11.4667948 191.354918,14.28017 186.414879,14.7429564 L186.595808,14.9399843 L193.823792,23.3365804 L199.815048,30.3746003 C201.938097,32.4640125 202.112155,32.7022788 203.660354,33.3323099 C204.161915,33.5362109 205.096332,33.4926815 205.607054,33.2223408 C207.063644,32.4433933 207.349924,31.9370774 207.228541,31.9324954 C206.124647,31.8729288 205.826917,31.7446316 204.150464,30.44104 C202.886254,29.2497085 200.137971,26.1522466 197.197309,22.7409146 C194.066557,19.1096446 192.621418,17.8495824 190.814422,15.2057429 C190.814422,15.2057429 191.173989,14.903328 191.451107,14.8116871 C192.117566,14.5871669 193.345132,13.6386838 193.345132,13.6386838 C195.394893,12.316764 197.30266,9.23992131 197.30266,7.05886825 C197.30266,3.75292333 194.607052,1.58790743 189.788396,1.58790743 C189.007426,1.58561641 187.9814,1.65205605 186.71719,1.71849569 C185.148379,1.85137497 184.126934,1.91781462 183.584148,1.91781462 C182.981816,1.91781462 181.715315,1.85137497 179.791518,1.71849569 C179.791518,1.71849569 179.601428,1.6887124 179.489206,1.71849569" id="Fill-27" fill="#006A52"></path>
                        <g id="Group-31" transform="translate(206.121212, 1.266091)" fill="#006A52">
                            <path d="M0.793566667,0.261104173 C0.385904714,0.332125859 0.351551178,1.25769879 0.805017845,1.31955639 C0.942431987,1.34017559 1.16458485,1.31955639 1.16458485,1.31955639 C2.12877407,1.31955639 2.55017744,1.51887532 2.79065219,2.11225005 C2.90974444,2.44444825 2.97158081,2.84079508 3.03112694,3.37002119 C3.15250943,8.19491377 3.21205556,15.2031504 3.21205556,20.6237088 C3.21205556,22.406124 3.21205556,24.3260005 3.15250943,26.6399328 C3.15250943,28.8828435 2.93951751,29.9550418 2.39673165,30.9470544 C2.35550741,31.0364043 2.15854714,31.3227821 2.1883202,31.3983858 C2.21122256,31.4579524 2.55017744,31.3983858 2.55017744,31.3983858 L8.15209394,31.1349182 L15.2609855,31.3319461 L18.151263,31.3319461 L18.8131411,31.3319461 C19.7177842,31.3319461 19.8048131,31.1280452 20.0200953,30.6056921 C20.0200953,30.6056921 20.4621108,28.7843295 20.3636306,27.4738649 C20.3636306,27.3203664 20.3796623,27.1668679 20.3796623,27.1668679 C20.4506596,26.7132456 19.4154731,25.6341741 19.3559269,26.0442671 C19.3444758,26.1244529 19.3398953,26.1840194 19.3330246,26.2527501 C19.2001909,27.3501497 18.9139114,28.2619765 18.5726663,28.8209859 C18.2703552,29.350212 17.1275276,29.4166517 9.0544468,29.4166517 C9.0544468,29.4166517 6.41151481,29.551822 6.28555185,29.4166517 C6.19165219,29.3135557 6.22600572,29.2173327 6.16416936,29.0844534 C5.98324074,27.9618526 5.86414848,26.0442671 5.86414848,23.2675483 L5.86414848,22.4748546 L5.98324074,16.1287234 L5.98324074,15.9958441 L15.906832,15.9958441 C15.906832,15.9958441 16.0259242,15.9935531 16.101502,15.9958441 C16.6168051,16.0050082 17.3267781,14.018692 17.0840131,13.9614164 C16.9786623,13.9362152 16.790863,13.9453793 16.790863,13.9453793 L5.92369461,13.8812307 L5.92369461,4.75838059 L5.92369461,4.55906167 L5.98324074,3.43646083 C6.0450771,2.77435544 6.0450771,2.64147615 6.22600572,2.17868969 L6.5260266,2.11225005 L11.6469936,2.04810143 C15.6022306,2.04810143 16.9282771,2.14203333 17.2053956,4.23602755 C17.2489101,4.40098114 17.3313586,4.47658487 17.3771633,4.49262203 C17.7069572,4.6140462 17.9886562,4.39181705 18.0894266,4.02983556 C18.1558434,3.80073335 18.0894266,3.50290047 18.0894266,3.23714191 C18.0894266,2.11225005 18.2108091,1.55094963 18.3917377,0.659742022 C18.4146401,0.554355005 18.151263,0.593302381 18.151263,0.526862739 C17.548931,0.327543815 16.5251956,0.196955554 15.0182205,0.196955554 L14.4181788,0.196955554 L10.0804724,0.327543815 C7.42837946,0.393983456 5.92369461,0.460423098 5.56183737,0.393983456 L0.985946465,0.263395196 C0.985946465,0.263395196 0.866854209,0.249649063 0.793566667,0.261104173" id="Fill-29"></path>
                        </g>
                    </g>
                </g>
            </g>
        </g>
    </g>
</svg>