<svg data-name="Layer 1" xmlns="http://www.w3.org/2000/svg" viewBox="0 0 40 48"><path d="M34.87 2.51H24.62c-.48-.69-.87-1.22-1-1.46-1-1.15-4.49-1.64-6.15 0a18.2 18.2 0 0 0-1.27 1.46h-11a5.09 5.09 0 0 0-5.2 5V43a5.09 5.09 0 0 0 5.13 5h29.74A5.09 5.09 0 0 0 40 43V7.56a5.09 5.09 0 0 0-5.13-5.05zM28 28v2H12v-2zm-16-4v-2h16v2zm0-6v-2h16v2zm8-14.92a1.52 1.52 0 1 1-1.54 1.52A1.52 1.52 0 0 1 20 3.08zm16.92 38.73A3.18 3.18 0 0 1 33.75 45H7.16a4.07 4.07 0 0 1-4.1-4V9.59a4.07 4.07 0 0 1 4.1-4h6.69l-2.06 2.54H8.21a2 2 0 0 0-2 1.95V40.48a2 2 0 0 0 2 2h23.58a2 2 0 0 0 2-1.95V10.15a2 2 0 0 0-2-2h-3.36l-1.71-2.61h7a3.18 3.18 0 0 1 3.2 3.15z"/></svg>