<svg xmlns="http://www.w3.org/2000/svg" viewBox="0 0 22.86 29.72"><defs><style>.cls-1{fill:#fff;}</style></defs><path class="cls-1" d="M0 10.66A9.85 9.85 0 0 1 .67 7a9.33 9.33 0 0 1 1.85-3 12.62 12.62 0 0 1 6-3.59A14.09 14.09 0 0 1 12.14 0a11.79 11.79 0 0 1 5.25 1.19 9.91 9.91 0 0 1 3.95 3.45 9 9 0 0 1 1.52 5.12 16.57 16.57 0 0 1-.34 3.36 13.56 13.56 0 0 1-1.07 3.16A11 11 0 0 1 19.66 19a7.75 7.75 0 0 1-2.59 1.84 8.18 8.18 0 0 1-3.38.69 5.55 5.55 0 0 1-2.41-.57 3.57 3.57 0 0 1-1.71-1.57q-.18.7-.5 2T8.65 23q-.1.38-.37 1.27a8.26 8.26 0 0 1-.46 1.27l-.57 1.16a12.39 12.39 0 0 1-.82 1.38q-.43.65-1.11 1.55l-.25.09-.16-.18q-.27-2.8-.27-3.36A20.17 20.17 0 0 1 5 22.49q.38-2 1.19-5.13t.93-3.63a6.86 6.86 0 0 1-.57-3 4.71 4.71 0 0 1 .95-2.8 2.79 2.79 0 0 1 2.36-1.3 2.09 2.09 0 0 1 1.7.72 2.75 2.75 0 0 1 .61 1.83 11.3 11.3 0 0 1-.79 3.41 11.26 11.26 0 0 0-.79 3.34 2.43 2.43 0 0 0 .8 1.87 2.77 2.77 0 0 0 1.95.74 3.82 3.82 0 0 0 1.82-.45 4.11 4.11 0 0 0 1.4-1.21 10.23 10.23 0 0 0 1-1.7 9.81 9.81 0 0 0 .68-2 19.15 19.15 0 0 0 .36-2 14.76 14.76 0 0 0 .12-1.78 6.08 6.08 0 0 0-2-4.81 7.42 7.42 0 0 0-5.1-1.72 8.24 8.24 0 0 0-6 2.31 7.81 7.81 0 0 0-2.39 5.87 5.18 5.18 0 0 0 .22 1.52 5.25 5.25 0 0 0 .55 1.2l.48.81a1.35 1.35 0 0 1 .22.55 4.35 4.35 0 0 1-.27 1.3.92.92 0 0 1-.66.8l-.3-.05a3.65 3.65 0 0 1-1.62-1 5.21 5.21 0 0 1-1.07-1.69 11 11 0 0 1-.58-1.93 9.62 9.62 0 0 1-.2-1.9z"/></svg>