<svg id="tools" xmlns="http://www.w3.org/2000/svg" viewBox="0 0 48 46.01"><defs><style>.cls-1{fill:#1d1b1c;}</style></defs><path class="cls-1" d="M17 24.27A1.12 1.12 0 0 1 18.17 23h11.64A1.15 1.15 0 0 1 31 24.25V30h17V12.29C48 10.39 45.94 9 44 9H34V4a4.2 4.2 0 0 0-4.39-4H18.94C16.52 0 14 1.64 14 4v5H4c-1.94 0-4 1.38-4 3.28V30h17zM18 6c0-1.42.55-2 2-2h8c1.45 0 2 .58 2 2v3H18zm2 28h8v-8h-8zm11 2c0 .66-.4 1-1.09 1h-11.8A1 1 0 0 1 17 36v-2H0v8.56A3.5 3.5 0 0 0 3.53 46h40.94A3.5 3.5 0 0 0 48 42.57V34H31z"/></svg>