<svg id="twitter" xmlns="http://www.w3.org/2000/svg" viewBox="0 0 44 34.99"><defs><style>.cls-1{fill:#1c1a1b;fill-rule:evenodd;}</style></defs><path class="cls-1" d="M44 4.02l-4.12 4v.67a8.47 8.47 0 0 1-.3 2.12 23.47 23.47 0 0 1-9.33 18.68C15.65 40.95 0 30.88 0 30.88c12.38 0 12.38-4 12.38-4-2.75-.03-8.25-5.39-8.25-5.39 1.37 1.34 4.13 0 4.13 0-6.88-4-6.88-8.06-6.88-8.06 1.38 1.34 4.13 0 4.13 0C-1.37 8.05 2.75 1.34 2.75 1.34 4.13 8.05 22 10.74 22 10.74l.23-.11A15.57 15.57 0 0 1 22 8.05c0-4.82 4-8.06 8.94-8.06a9 9 0 0 1 6.76 3.08l.8-.39 4.13-2.69-2.75 5.37z"/></svg>