<svg id="Layer_1" data-name="Layer 1" xmlns="http://www.w3.org/2000/svg" width="16" height="16" viewBox="0 0 16 16"><defs><style>.cls-1{fill:#fff;}</style></defs><title>copied_white</title><path class="cls-1" d="M10.29,3h-8A2.79,2.79,0,0,0,0,5.71v8A2.52,2.52,0,0,0,2.29,16h8c1.2,0,2.71-1.18,2.71-2.29v-8A3.64,3.64,0,0,0,10.29,3Zm.49,4.72-4.51,5A.91.91,0,0,1,5,12.77l-.66-.59h0l-2-1.84a.87.87,0,0,1-.06-1.24h0A.91.91,0,0,1,3.51,9l1.57,1.41a.61.61,0,0,0,.86,0L9.43,6.54a.91.91,0,0,1,1.28-.06h0A.87.87,0,0,1,10.78,7.72Z"/><path class="cls-1" d="M13.71,0H6.86C5.37,0,5,1,4.57,2h6.86a2.58,2.58,0,0,1,2.29,2.43c-.14.13,0,8.07,0,8.07C15,12,16,11.78,16,10.29v-8A2.5,2.5,0,0,0,13.71,0Z"/></svg>