<?xml version="1.0" standalone="no"?>
<!DOCTYPE svg PUBLIC "-//W3C//DTD SVG 1.1//EN" "http://www.w3.org/Graphics/SVG/1.1/DTD/svg11.dtd" >
<svg xmlns="http://www.w3.org/2000/svg">
<metadata>Generated by IcoMoon</metadata>
<defs>
<font id="icomoon" horiz-adv-x="1024">
<font-face units-per-em="1024" ascent="960" descent="-64" />
<missing-glyph horiz-adv-x="1024" />
<glyph unicode="&#x20;" horiz-adv-x="512" d="" />
<glyph unicode="&#xe900;" glyph-name="accordion-caret-closed" horiz-adv-x="512" d="M0-51.886c0-4.879 2.811-9.278 7.341-11.198s9.528-0.72 12.808 2.639l488.259 500.063c2.343 2.4 3.592 5.599 3.592 8.478s-1.171 6.319-3.592 8.478l-488.019 499.817c-3.124 3.439-8.278 4.639-13.042 2.64-4.53-1.92-7.341-6.319-7.341-11.198l-0.006-999.719z" />
<glyph unicode="&#xe901;" glyph-name="accordion-caret-open" horiz-adv-x="2048" d="M24.228 960c-9.758 0-18.556-5.623-22.396-14.682s-1.44-19.055 5.279-25.615l1000.125-976.518c4.799-4.686 11.198-7.185 16.957-7.185s12.637 2.343 16.957 7.185l999.634 976.038c6.879 6.248 9.278 16.556 5.279 26.084-3.839 9.059-12.637 14.682-22.396 14.682l-1999.439 0.011z" />
<glyph unicode="&#xe902;" glyph-name="map-marker" horiz-adv-x="585" d="M438.857 585.143c0 80.571-65.714 146.286-146.286 146.286s-146.286-65.714-146.286-146.286 65.714-146.286 146.286-146.286 146.286 65.714 146.286 146.286zM585.143 585.143c0-34.857-4-70.857-18.857-102.286l-208-442.286c-12-25.143-38.286-40.571-65.714-40.571s-53.714 15.429-65.143 40.571l-208.571 442.286c-14.857 31.429-18.857 67.429-18.857 102.286 0 161.714 130.857 292.571 292.571 292.571s292.571-130.857 292.571-292.571z" />
<glyph unicode="&#xe903;" glyph-name="clock-o" horiz-adv-x="878" d="M512 640v-256c0-10.286-8-18.286-18.286-18.286h-182.857c-10.286 0-18.286 8-18.286 18.286v36.571c0 10.286 8 18.286 18.286 18.286h128v201.143c0 10.286 8 18.286 18.286 18.286h36.571c10.286 0 18.286-8 18.286-18.286zM749.714 438.857c0 171.429-139.429 310.857-310.857 310.857s-310.857-139.429-310.857-310.857 139.429-310.857 310.857-310.857 310.857 139.429 310.857 310.857zM877.714 438.857c0-242.286-196.571-438.857-438.857-438.857s-438.857 196.571-438.857 438.857 196.571 438.857 438.857 438.857 438.857-196.571 438.857-438.857z" />
<glyph unicode="&#xe904;" glyph-name="icon-quicklinks" horiz-adv-x="1497" d="M572.794 209.609l-131.363-125.864c-39.006-37.373-102.49-37.373-141.497 0l-145.647 139.55c-39.006 37.373-39.006 98.2 0 135.632l330.602 316.763c39.006 37.373 102.49 37.373 141.497 0l145.647-139.55c28.507-27.313 37.114-68.138 21.975-103.873-13.002-30.648 2.442-65.564 34.428-78.021 31.926-12.458 68.429 2.339 81.43 32.986 34.123 80.478 14.711 172.186-49.384 233.65l-145.647 139.55c-87.779 84.046-230.559 84.046-318.273 0l-330.727-316.883c-87.779-84.046-87.779-220.908 0-304.95l145.647-139.55c43.89-42.052 101.514-63.049 159.144-63.049s115.309 20.996 159.144 63.049l131.363 125.864c24.417 23.395 24.417 61.295 0 84.689-24.356 23.395-63.973 23.395-88.328 0l-0.011 0.007zM1430.81 757.399l-145.663 139.561c-87.728 84.053-230.584 84.053-318.307 0l-131.377-125.873c-24.42-23.397-24.42-61.3 0-84.695s64.041-23.397 88.398 0l131.377 125.873c39.011 37.376 102.502 37.376 141.512 0l145.663-139.561c39.011-37.376 39.011-98.208 0-135.642l-330.638-316.727c-39.011-37.376-102.502-37.376-141.512 0l-145.663 139.561c-28.51 27.315-37.118 68.143-21.977 103.881 13.003 30.65-2.442 65.569-34.431 78.027s-68.436-2.281-81.439-32.989c-34.127-80.485-14.713-172.2 49.389-233.667l145.663-139.561c43.894-42.056 101.525-63.053 159.162-63.053s115.261 20.998 159.162 63.053l330.638 316.787c87.789 84.17 87.789 220.984 0.061 305.033l-0.017-0.007z" />
<glyph unicode="&#xe905;" glyph-name="icon-search" d="M940.28 91.755l-267.487 267.528c41.141 54.017 64.291 123.467 64.291 198.078 0 185.2-149.178 334.373-334.384 334.373s-334.433-149.222-334.433-334.422c0-185.2 149.178-334.373 334.384-334.373 74.613 0 141.461 23.15 198.084 64.289l267.537-267.528c10.273-10.273 23.151-15.433 36.029-15.433s25.707 5.161 36.029 15.433c20.547 20.594 20.547 51.461-0.048 72.054l-0.001 0.001zM402.7 325.811c-128.632 0-231.508 102.872-231.508 231.5s102.876 231.5 231.508 231.5c128.632 0 231.508-102.872 231.508-231.5 0-128.578-102.924-231.5-231.508-231.5z" />
<glyph unicode="&#xe906;" glyph-name="icon-mobile-close-menu" d="M424.479 448l-424.479-424.479 87.521-87.521 424.479 424.479 424.479-424.479 87.521 87.521-424.479 424.479 424.479 424.479-87.521 87.521-424.479-424.479-424.479 424.479-87.521-87.521 424.479-424.479z" />
<glyph unicode="&#xe907;" glyph-name="icon-mobile-hamburger-menu" horiz-adv-x="1536" d="M0 960h1536v-128h-1536v128zM0 512h1536v-128h-1536v128zM0 64h1536v-128h-1536v128z" />
<glyph unicode="&#xe908;" glyph-name="angle-left" horiz-adv-x="384" d="M358.286 640c0-4.571-2.286-9.714-5.714-13.143l-224.571-224.571 224.571-224.571c3.429-3.429 5.714-8.571 5.714-13.143s-2.286-9.714-5.714-13.143l-28.571-28.571c-3.429-3.429-8.571-5.714-13.143-5.714s-9.714 2.286-13.143 5.714l-266.286 266.286c-3.429 3.429-5.714 8.571-5.714 13.143s2.286 9.714 5.714 13.143l266.286 266.286c3.429 3.429 8.571 5.714 13.143 5.714s9.714-2.286 13.143-5.714l28.571-28.571c3.429-3.429 5.714-8 5.714-13.143z" />
<glyph unicode="&#xe909;" glyph-name="angle-right" horiz-adv-x="347" d="M340 402.286c0-4.571-2.286-9.714-5.714-13.143l-266.286-266.286c-3.429-3.429-8.571-5.714-13.143-5.714s-9.714 2.286-13.143 5.714l-28.571 28.571c-3.429 3.429-5.714 8-5.714 13.143 0 4.571 2.286 9.714 5.714 13.143l224.571 224.571-224.571 224.571c-3.429 3.429-5.714 8.571-5.714 13.143s2.286 9.714 5.714 13.143l28.571 28.571c3.429 3.429 8.571 5.714 13.143 5.714s9.714-2.286 13.143-5.714l266.286-266.286c3.429-3.429 5.714-8.571 5.714-13.143z" />
<glyph unicode="&#xe90a;" glyph-name="icon-next" d="M771.195 960v-453.755l-771.195 453.755v-1024l771.195 453.755v-453.755h252.805v1024z" />
<glyph unicode="&#xe90b;" glyph-name="icon-pause" horiz-adv-x="768" d="M0 960h256v-1024h-256v1024zM512 960h256v-1024h-256v1024z" />
<glyph unicode="&#xe90c;" glyph-name="icon-prev" d="M252.805 960v-453.755l771.195 453.755v-1024l-771.195 453.755v-453.755h-252.805v1024z" />
<glyph unicode="&#xe90d;" glyph-name="play" horiz-adv-x="712" d="M0.527 960l-0.527-1024 711.374 512.527-710.848 511.473z" />
<glyph unicode="&#xe90e;" glyph-name="audio-off" horiz-adv-x="1093" d="M639.038 956.15c-7.699 3.85-15.398 3.85-23.098 0l-388.812-296.421h-207.88c-11.549 0-19.248-11.549-19.248-23.098v-377.263c0-11.549 7.699-19.248 19.248-19.248h207.88l388.812-296.421c3.85-3.85 7.699-3.85 11.549-3.85s7.699 0 7.699 3.85c7.699 3.85 11.549 11.549 11.549 19.248v981.654c3.85 3.85 0 11.549-7.699 11.549v0zM612.090 898.406v-900.812l-361.865 277.173c-3.85 3.85-7.699 3.85-11.549 3.85h-196.331v338.767h196.331c3.85 0 7.699 0 11.549 3.85l361.865 277.173zM950.857 448l138.586 138.586c3.85 3.85 7.699 7.699 7.699 15.398 0 3.85-3.85 11.549-7.699 15.398-7.699 7.699-19.248 7.699-26.947 0l-138.586-138.586-138.586 138.586c-3.85 3.85-7.699 7.699-15.398 7.699v0c-3.85 0-11.549-3.85-15.398-7.699s-7.699-7.699-7.699-15.398c0-3.85 3.85-11.549 7.699-15.398l138.586-138.586-138.586-142.436c-3.85-3.85-7.699-7.699-7.699-15.398 0-3.85 3.85-11.549 7.699-15.398 7.699-7.699 23.098-7.699 26.947 0l138.586 138.586 138.586-138.586c3.85-3.85 7.699-7.699 15.398-7.699 3.85 0 11.549 3.85 15.398 7.699s7.699 7.699 7.699 15.398c0 3.85-3.85 11.549-7.699 15.398l-138.586 142.436z" />
<glyph unicode="&#xe90f;" glyph-name="audio-on" horiz-adv-x="651" d="M640.289 958.074c-3.030 1.822-6.686 2.9-10.594 2.9s-7.565-1.078-10.689-2.952l0.094 0.052-390.26-300.497h-208.421c-11.277 0-20.418-9.142-20.418-20.418v-378.318c0-11.277 9.142-20.418 20.418-20.418v0h208.421l389.875-298.185c3.375-2.618 7.663-4.208 12.321-4.238h0.007c0.010 0 0.022 0 0.034 0 3.201 0 6.237 0.71 8.957 1.981l-0.13-0.055c6.692 3.549 11.172 10.471 11.172 18.44 0 0.018 0 0.037 0 0.055v-0.003 983.163c0.001 0.085 0.002 0.186 0.002 0.286 0 7.904-4.491 14.759-11.060 18.152l-0.114 0.054zM611.010 898.36v-901.49l-362.907 277.381c-3.269 2.641-7.476 4.24-12.057 4.24-0.095 0-0.191-0.001-0.286-0.002h-195.309v338.251h195.323c4.665 0.030 8.953 1.619 12.375 4.272l-0.047-0.035z" />
<glyph unicode="&#xe910;" glyph-name="icon-notification-bell" d="M977.455 75.563c0 0-232.727 93.042-465.455 93.042s-465.455-93.042-465.455-93.042c-25.6 0-46.545 20.934-46.545 46.521s20.945 46.521 46.545 46.521c0 0 4.655 2.326 16.291 6.978 18.618 6.978 30.255 23.26 30.255 44.195v274.474c0 216.322 162.909 393.102 372.364 416.363v2.326c0 18.608 11.636 37.217 30.255 44.195 32.582 11.63 62.836-13.956 62.836-44.195v-2.326c209.455-23.26 372.364-200.040 372.364-416.363v-276.8c0-18.608 11.636-37.217 30.255-44.195 11.636-2.326 16.291-4.652 16.291-4.652 25.6 0 46.545-20.934 46.545-46.521s-20.945-46.521-46.545-46.521zM837.818 494.252c0 183.758-153.6 332.625-339.782 325.647-176.873-6.978-311.855-160.497-311.855-334.951v-211.67c0-30.239 27.927-51.173 55.855-44.195 79.127 16.282 174.545 32.565 269.964 32.565s190.836-16.282 269.964-34.891c30.255-6.978 55.855 16.282 55.855 44.195v223.301zM512 29.042c27.927 0 51.2 11.63 67.491 30.239 9.309 9.304 20.945 16.282 34.909 16.282v0c39.564 0 60.509-46.521 34.909-76.76-32.582-39.543-81.455-62.803-137.309-62.803s-104.727 25.587-139.636 62.803c-25.6 30.239-2.327 76.76 37.236 76.76v0c13.964 0 25.6-6.978 34.909-16.282 16.291-18.608 39.564-30.239 67.491-30.239z" />
<glyph unicode="&#xe911;" glyph-name="icon-heart" horiz-adv-x="1114" d="M571.362-37.669c-9.324-0.055-18.264 3.675-24.844 10.256l-410.129 410.239c-135.192 138.757-144.896 353.688-19.909 478.633 118.081 118.081 316.075 116.381 455.045 1.261 138.867 115.119 336.966 116.655 454.877-1.261 124.936-124.936 115.668-340.041-20.787-479.349l-2.797-3.071-406.62-406.452c-6.581-6.581-15.522-10.311-24.844-10.256h0.009zM336.075 879.61c-63.4 1.042-124.607-23.364-169.915-67.678-98.282-98.282-88.301-268.576 21.334-380.618l2.523-2.687 381.334-381.615 384.182 384.25c109.635 112.322 119.178 282.617 21.225 380.519-98.008 97.844-268.576 88.465-380.519-21.060h-0.055c-14.040-12.779-35.484-12.779-49.524 0-55.997 55.942-131.518 87.806-210.604 88.903l0.020-0.014z" />
<glyph unicode="&#xe912;" glyph-name="noun_805673_cc" horiz-adv-x="587" d="M434.576 260.683h-282.349c-5.161 0.027-9.578 3.179-11.458 7.66l-0.031 0.082-118.384 285.721c-14.135 33.021-22.354 71.447-22.354 111.792 0 0.21 0 0.42 0.001 0.63v-0.032c0.029 162.053 131.406 293.412 293.463 293.412 162.075 0 293.463-131.388 293.463-293.463 0-40.532-8.217-79.145-23.076-114.264l0.723 1.925-118.384-285.721c-1.918-4.582-6.366-7.743-11.551-7.743-0.022 0-0.044 0-0.066 0h0.003zM160.593 285.659h265.616l96.656 233.522c10.115 24.976 15.485 37.463 19.231 44.332h-0.749c13.029 30.313 20.605 65.597 20.605 102.65 0 0.132 0 0.263 0 0.395v-0.020c0 148.282-120.206 268.488-268.488 268.488s-268.488-120.206-268.488-268.488v0c0-0.133 0-0.291 0-0.449 0-36.931 7.53-72.102 21.138-104.064l-0.658 1.738h-0.749c3.746-6.993 9.116-19.98 19.231-44.332zM434.576 177.389h-282.224c-6.897 0-12.488 5.591-12.488 12.488v0 83.294c0 6.897 5.591 12.488 12.488 12.488v0h282.224c6.897 0 12.488-5.591 12.488-12.488v0-83.294c0-6.897-5.591-12.488-12.488-12.488v0zM164.714 202.365h257.374v58.318h-257.249zM434.576 94.096h-282.224c-6.897 0-12.488 5.591-12.488 12.488v0 83.294c0 6.897 5.591 12.488 12.488 12.488v0h282.224c6.897 0 12.488-5.591 12.488-12.488v0-83.294c0-6.897-5.591-12.488-12.488-12.488v0zM164.714 119.071h257.374v58.318h-257.249zM434.576 10.927h-282.224c-6.897 0-12.488 5.591-12.488 12.488v0 83.169c0 6.897 5.591 12.488 12.488 12.488v0h282.224c6.897 0 12.488-5.591 12.488-12.488v0-83.169c0-6.897-5.591-12.488-12.488-12.488v0zM164.839 35.902h257.249v58.193h-257.249zM355.902-64h-124.878c-5.161 0.027-9.578 3.179-11.458 7.66l-0.031 0.082-31.22 74.927c-0.593 1.403-0.937 3.034-0.937 4.746 0 6.875 5.556 12.452 12.422 12.488h187.32c6.87-0.035 12.426-5.613 12.426-12.488 0-1.712-0.344-3.343-0.967-4.828l0.031 0.082-31.22-74.927c-1.91-4.563-6.328-7.716-11.485-7.742h-0.003zM239.391-39.024h108.269l20.855 49.951h-149.854zM293.463 529.171c-4.071 0-7.688 1.948-9.967 4.964l-0.023 0.031-93.659 124.878c-1.559 2.061-2.498 4.667-2.498 7.493 0 6.897 5.591 12.488 12.488 12.488 4.071 0 7.688-1.948 9.967-4.964l0.023-0.031 83.668-111.516 83.668 111.516c2.302 3.047 5.919 4.995 9.99 4.995 6.897 0 12.488-5.591 12.488-12.488 0-2.825-0.938-5.432-2.52-7.524l0.023 0.031-93.659-124.878c-2.302-3.047-5.919-4.995-9.99-4.995v0zM293.463 260.683c-6.897 0-12.488 5.591-12.488 12.488v0 268.488c0 6.897 5.591 12.488 12.488 12.488s12.488-5.591 12.488-12.488v0-268.488c0-6.897-5.591-12.488-12.488-12.488v0z" />
<glyph unicode="&#xe913;" glyph-name="icon-visit" horiz-adv-x="701" d="M350.316 960c-193.21 0-350.316-156.403-350.316-348.748 0-51.719 22.054-116.36 53.368-187.316s72.272-147.078 113.579-217.968c82.614-141.779 165.579-260.88 165.579-260.88 4.113-5.705 10.735-9.089 17.789-9.089s13.676 3.383 17.789 9.089c0 0 82.964 119.101 165.579 260.88 41.307 70.89 82.265 147.012 113.579 217.968s53.368 135.597 53.368 187.316c0 192.345-157.106 348.748-350.316 348.748zM350.316 916.406c169.542 0 306.526-136.371 306.526-305.155 0-38.563-18.998-101.027-49.263-169.606s-71.413-143.865-112.211-213.881c-72.744-124.841-130.11-208.453-145.053-230.228-14.943 21.776-72.308 105.388-145.053 230.228-40.798 70.016-81.946 145.302-112.211 213.881s-49.263 131.043-49.263 169.606c0 168.784 136.984 305.155 306.526 305.155zM350.316 807.423c-108.57 0-197.053-88.087-197.053-196.171s88.483-196.171 197.053-196.171c108.57 0 197.053 88.087 197.053 196.171s-88.483 196.171-197.053 196.171zM350.316 763.829c84.904 0 153.263-68.053 153.263-152.577s-68.359-152.577-153.263-152.577c-84.904 0-153.263 68.053-153.263 152.577s68.359 152.577 153.263 152.577zM350.316 698.439c-48.365 0-87.579-39.038-87.579-87.187s39.213-87.187 87.579-87.187c48.365 0 87.579 39.038 87.579 87.187 0 12.228-2.288 23.508-6.842 34.057-6.021-7.607-15.512-12.261-26-12.261-18.129 0-32.842 14.647-32.842 32.695 0 10.441 4.675 19.89 12.316 25.884-10.597 4.534-21.928 6.811-34.211 6.811z" />
<glyph unicode="&#xe914;" glyph-name="twitter" horiz-adv-x="951" d="M925.714 717.714c-25.143-36.571-56.571-69.143-92.571-95.429 0.571-8 0.571-16 0.571-24 0-244-185.714-525.143-525.143-525.143-104.571 0-201.714 30.286-283.429 82.857 14.857-1.714 29.143-2.286 44.571-2.286 86.286 0 165.714 29.143 229.143 78.857-81.143 1.714-149.143 54.857-172.571 128 11.429-1.714 22.857-2.857 34.857-2.857 16.571 0 33.143 2.286 48.571 6.286-84.571 17.143-148 91.429-148 181.143v2.286c24.571-13.714 53.143-22.286 83.429-23.429-49.714 33.143-82.286 89.714-82.286 153.714 0 34.286 9.143 65.714 25.143 93.143 90.857-112 227.429-185.143 380.571-193.143-2.857 13.714-4.571 28-4.571 42.286 0 101.714 82.286 184.571 184.571 184.571 53.143 0 101.143-22.286 134.857-58.286 41.714 8 81.714 23.429 117.143 44.571-13.714-42.857-42.857-78.857-81.143-101.714 37.143 4 73.143 14.286 106.286 28.571z" />
<glyph unicode="&#xe915;" glyph-name="facebook, facebook-f" horiz-adv-x="602" d="M548 944v-150.857h-89.714c-70.286 0-83.429-33.714-83.429-82.286v-108h167.429l-22.286-169.143h-145.143v-433.714h-174.857v433.714h-145.714v169.143h145.714v124.571c0 144.571 88.571 223.429 217.714 223.429 61.714 0 114.857-4.571 130.286-6.857z" />
<glyph unicode="&#xe916;" glyph-name="quotation" horiz-adv-x="1638" d="M1616.813 319.1c-23.42 153.586-156.624 263.027-307.911 270.142 37.838 137.724 129.617 192.406 241.223 224.203 10.831 3.517 9.002 14.138 9.002 14.138l-18.004 109.448c0 0-1.829 8.828-16.176 7.035-385.258-42.344-646.322-330.134-597.728-679.724 45.011-241.858 237.64-335.378 415.938-310.696 178.215 28.277 300.655 190.694 273.649 365.444l0.008 0.010zM387.095 589.241c36.009 137.724 131.446 192.406 241.223 224.203 10.831 3.517 9.002 14.138 9.002 14.138l-16.176 109.448c0 0-1.829 8.828-16.176 7.035-385.33-40.552-644.575-328.351-599.564-677.923 46.77-243.659 241.223-337.178 417.684-312.479 178.215 28.277 300.655 190.694 271.902 365.444-23.42 155.38-154.867 264.828-307.911 270.142l0.016-0.007z" />
<glyph unicode="&#xe917;" glyph-name="instagram" horiz-adv-x="878" d="M585.143 438.857c0 80.571-65.714 146.286-146.286 146.286s-146.286-65.714-146.286-146.286 65.714-146.286 146.286-146.286 146.286 65.714 146.286 146.286zM664 438.857c0-124.571-100.571-225.143-225.143-225.143s-225.143 100.571-225.143 225.143 100.571 225.143 225.143 225.143 225.143-100.571 225.143-225.143zM725.714 673.143c0-29.143-23.429-52.571-52.571-52.571s-52.571 23.429-52.571 52.571 23.429 52.571 52.571 52.571 52.571-23.429 52.571-52.571zM438.857 798.857c-64 0-201.143 5.143-258.857-17.714-20-8-34.857-17.714-50.286-33.143s-25.143-30.286-33.143-50.286c-22.857-57.714-17.714-194.857-17.714-258.857s-5.143-201.143 17.714-258.857c8-20 17.714-34.857 33.143-50.286s30.286-25.143 50.286-33.143c57.714-22.857 194.857-17.714 258.857-17.714s201.143-5.143 258.857 17.714c20 8 34.857 17.714 50.286 33.143s25.143 30.286 33.143 50.286c22.857 57.714 17.714 194.857 17.714 258.857s5.143 201.143-17.714 258.857c-8 20-17.714 34.857-33.143 50.286s-30.286 25.143-50.286 33.143c-57.714 22.857-194.857 17.714-258.857 17.714zM877.714 438.857c0-60.571 0.571-120.571-2.857-181.143-3.429-70.286-19.429-132.571-70.857-184s-113.714-67.429-184-70.857c-60.571-3.429-120.571-2.857-181.143-2.857s-120.571-0.571-181.143 2.857c-70.286 3.429-132.571 19.429-184 70.857s-67.429 113.714-70.857 184c-3.429 60.571-2.857 120.571-2.857 181.143s-0.571 120.571 2.857 181.143c3.429 70.286 19.429 132.571 70.857 184s113.714 67.429 184 70.857c60.571 3.429 120.571 2.857 181.143 2.857s120.571 0.571 181.143-2.857c70.286-3.429 132.571-19.429 184-70.857s67.429-113.714 70.857-184c3.429-60.571 2.857-120.571 2.857-181.143z" />
<glyph unicode="&#xe918;" glyph-name="comment" d="M1024 438.857c0-202.286-229.143-365.714-512-365.714-28 0-56 1.714-82.857 4.571-74.857-66.286-164-113.143-262.857-138.286-20.571-5.714-42.857-9.714-65.143-12.571-12.571-1.143-24.571 8-27.429 21.714v0.571c-2.857 14.286 6.857 22.857 15.429 33.143 36 40.571 77.143 74.857 104 170.286-117.714 66.857-193.143 170.286-193.143 286.286 0 201.714 229.143 365.714 512 365.714s512-163.429 512-365.714z" />
<glyph unicode="&#xe919;" glyph-name="heart" d="M512 0c-9.143 0-18.286 3.429-25.143 10.286l-356.571 344c-4.571 4-130.286 118.857-130.286 256 0 167.429 102.286 267.429 273.143 267.429 100 0 193.714-78.857 238.857-123.429 45.143 44.571 138.857 123.429 238.857 123.429 170.857 0 273.143-100 273.143-267.429 0-137.143-125.714-252-130.857-257.143l-356-342.857c-6.857-6.857-16-10.286-25.143-10.286z" />
<glyph unicode="&#xe91a;" glyph-name="thumbs-up" horiz-adv-x="914" d="M146.286 182.857c0 20-16.571 36.571-36.571 36.571-20.571 0-36.571-16.571-36.571-36.571 0-20.571 16-36.571 36.571-36.571 20 0 36.571 16 36.571 36.571zM237.714 475.428v-365.714c0-20-16.571-36.571-36.571-36.571h-164.571c-20 0-36.571 16.571-36.571 36.571v365.714c0 20 16.571 36.571 36.571 36.571h164.571c20 0 36.571-16.571 36.571-36.571zM914.286 475.428c0-30.286-12-62.857-31.429-85.143 6.286-18.286 8.571-35.429 8.571-43.429 1.143-28.571-7.429-55.429-24.571-78.286 6.286-21.143 6.286-44 0-66.857-5.714-21.143-16.571-40-30.857-53.714 3.429-42.857-6.286-77.714-28-103.429-24.571-29.143-62.286-44-112.571-44.571h-73.714c-81.714 0-158.857 26.857-220.571 48-36 12.571-70.286 24.571-90.286 25.143-19.429 0.571-36.571 16.571-36.571 36.571v366.286c0 18.857 16 34.857 34.857 36.571 21.143 1.714 76 69.714 101.143 102.857 20.571 26.286 40 50.857 57.714 68.571 22.286 22.286 28.571 56.571 35.429 89.714 6.286 33.714 13.143 69.143 37.714 93.143 6.857 6.857 16 10.857 25.714 10.857 128 0 128-102.286 128-146.286 0-46.857-16.571-80-32-109.714-6.286-12.571-12-18.286-16.571-36.571h158.286c59.429 0 109.714-50.286 109.714-109.714z" />
<glyph unicode="&#xe91b;" glyph-name="icon-apply" horiz-adv-x="819" d="M241.92 959.977c-9.791-1.868-16.816-10.514-16.64-20.48v-20.48h-163.84c-33.699 0-61.44-27.74-61.44-61.439v-860.141c0-33.698 27.741-61.439 61.44-61.439h696.32c33.699 0 61.44 27.74 61.44 61.439v860.141c0 33.698-27.741 61.439-61.44 61.439h-163.84v20.48c-0.001 11.31-9.17 20.478-20.48 20.48h-327.68c-0.64 0.030-1.28 0.030-1.92 0-0.64 0.030-1.28 0.030-1.92 0v0zM266.24 919.018h286.72v-122.877h-286.72v122.877zM61.44 878.059h163.84v-40.959h-143.36v-819.182h655.36v819.182h-143.36v40.959h163.84c11.357 0 20.48-9.123 20.48-20.48v-860.141c0-11.357-9.123-20.48-20.48-20.48h-696.32c-11.357 0-20.48 9.123-20.48 20.48v860.141c0 11.357 9.123 20.48 20.48 20.48zM122.88 796.141h102.4v-20.48c0.001-11.31 9.17-20.478 20.48-20.48h327.68c11.31 0.001 20.479 9.169 20.48 20.48v20.48h102.4v-737.264h-573.44v737.264zM567.68 578.546l-11.52-17.28-166.4-257.914-110.080 98.558-14.72 13.44-27.52-30.079 15.36-14.080 126.72-114.557 17.92-16 12.8 19.84 191.36 295.674-33.92 22.4z" />
</font>
</defs>
</svg>
