<?xml version="1.0" encoding="utf-8"?>
<!-- Generator: Adobe Illustrator 21.1.0, SVG Export Plug-In . SVG Version: 6.00 Build 0)  -->
<svg version="1.1" id="Logo" xmlns="http://www.w3.org/2000/svg" xmlns:xlink="http://www.w3.org/1999/xlink" x="0px" y="0px"
	 viewBox="0 0 512 512" style="enable-background:new 0 0 512 512;" xml:space="preserve">
<style type="text/css">
	.st0{fill:#FFFFFF;}
	.st1{fill:#757275;}
	.st2{fill:#DDDDDD;}
</style>
<circle class="st0" cx="256" cy="262.6" r="244.7"/>
<circle class="st1" cx="256" cy="246.1" r="244.7"/>
<g>
	<path class="st2" d="M256,132.5c36.7,0,41,0.1,55.5,0.8c13.4,0.6,20.7,2.8,25.5,4.7c6.4,2.5,11,5.5,15.8,10.3
		c4.8,4.8,7.8,9.4,10.3,15.8c1.9,4.8,4.1,12.1,4.7,25.5c0.7,14.5,0.8,18.8,0.8,55.5s-0.1,41-0.8,55.5c-0.6,13.4-2.8,20.7-4.7,25.5
		c-2.5,6.4-5.5,11-10.3,15.8c-4.8,4.8-9.4,7.8-15.8,10.3c-4.8,1.9-12.1,4.1-25.5,4.7c-14.5,0.7-18.8,0.8-55.5,0.8s-41-0.1-55.5-0.8
		c-13.4-0.6-20.7-2.8-25.5-4.7c-6.4-2.5-11-5.5-15.8-10.3c-4.8-4.8-7.8-9.4-10.3-15.8c-1.9-4.8-4.1-12.1-4.7-25.5
		c-0.7-14.5-0.8-18.8-0.8-55.5s0.1-41,0.8-55.5c0.6-13.4,2.8-20.7,4.7-25.5c2.5-6.4,5.5-11,10.3-15.8c4.8-4.8,9.4-7.8,15.8-10.3
		c4.8-1.9,12.1-4.1,25.5-4.7C215,132.7,219.3,132.5,256,132.5 M256,107.8c-37.3,0-42,0.2-56.6,0.8c-14.6,0.7-24.6,3-33.3,6.4
		c-9,3.5-16.7,8.2-24.3,15.8c-7.6,7.6-12.3,15.3-15.8,24.3c-3.4,8.7-5.7,18.7-6.4,33.3c-0.7,14.6-0.8,19.3-0.8,56.6
		c0,37.3,0.2,42,0.8,56.6c0.7,14.6,3,24.6,6.4,33.3c3.5,9,8.2,16.7,15.8,24.3c7.6,7.6,15.3,12.3,24.3,15.8
		c8.7,3.4,18.7,5.7,33.3,6.4c14.6,0.7,19.3,0.8,56.6,0.8s42-0.2,56.6-0.8c14.6-0.7,24.6-3,33.3-6.4c9-3.5,16.7-8.2,24.3-15.8
		c7.6-7.6,12.3-15.3,15.8-24.3c3.4-8.7,5.7-18.7,6.4-33.3c0.7-14.6,0.8-19.3,0.8-56.6s-0.2-42-0.8-56.6c-0.7-14.6-3-24.6-6.4-33.3
		c-3.5-9-8.2-16.7-15.8-24.3c-7.6-7.6-15.3-12.3-24.3-15.8c-8.7-3.4-18.7-5.7-33.3-6.4C298,108,293.3,107.8,256,107.8L256,107.8z"/>
	<path class="st2" d="M256,174.6c-38.9,0-70.5,31.6-70.5,70.5s31.6,70.5,70.5,70.5s70.5-31.6,70.5-70.5S294.9,174.6,256,174.6z
		 M256,290.9c-25.3,0-45.8-20.5-45.8-45.8s20.5-45.8,45.8-45.8c25.3,0,45.8,20.5,45.8,45.8S281.3,290.9,256,290.9z"/>
	<circle class="st2" cx="329.3" cy="171.8" r="16.5"/>
</g>
</svg>
