<?xml version="1.0" encoding="utf-8"?>
<!-- Generator: Adobe Illustrator 21.1.0, SVG Export Plug-In . SVG Version: 6.00 Build 0)  -->
<svg version="1.1" id="Logo" xmlns="http://www.w3.org/2000/svg" xmlns:xlink="http://www.w3.org/1999/xlink" x="0px" y="0px"
	 viewBox="0 0 512 512" style="enable-background:new 0 0 512 512;" xml:space="preserve">
<style type="text/css">
	.st0{fill:#FFFFFF;}
	.st1{fill:#222222;}
	.st2{fill:#DDDDDD;}
</style>
<g>
	<g>
		<circle class="st0" cx="256" cy="260" r="251.3"/>
	</g>
	<g>
		<circle class="st1" cx="256" cy="253" r="251.3"/>
	</g>
</g>
<g>
	<path class="st2" d="M256,136.4c37.6,0,42.1,0.1,57,0.8c13.7,0.6,21.2,2.9,26.2,4.9c6.6,2.6,11.3,5.6,16.2,10.5
		c4.9,4.9,8,9.6,10.5,16.2c1.9,5,4.2,12.4,4.9,26.2c0.7,14.9,0.8,19.3,0.8,57s-0.1,42.1-0.8,57c-0.6,13.7-2.9,21.2-4.9,26.2
		c-2.6,6.6-5.6,11.3-10.5,16.2c-4.9,4.9-9.6,8-16.2,10.5c-5,1.9-12.4,4.2-26.2,4.9c-14.9,0.7-19.3,0.8-57,0.8s-42.1-0.1-57-0.8
		c-13.7-0.6-21.2-2.9-26.2-4.9c-6.6-2.6-11.3-5.6-16.2-10.5c-4.9-4.9-8-9.6-10.5-16.2c-1.9-5-4.2-12.4-4.9-26.2
		c-0.7-14.9-0.8-19.3-0.8-57s0.1-42.1,0.8-57c0.6-13.7,2.9-21.2,4.9-26.2c2.6-6.6,5.6-11.3,10.5-16.2c4.9-4.9,9.6-8,16.2-10.5
		c5-1.9,12.4-4.2,26.2-4.9C213.9,136.5,218.4,136.4,256,136.4 M256,111c-38.3,0-43.1,0.2-58.1,0.8c-15,0.7-25.3,3.1-34.2,6.6
		c-9.3,3.6-17.1,8.4-25,16.3c-7.8,7.8-12.7,15.7-16.3,25c-3.5,9-5.9,19.2-6.6,34.2c-0.7,15-0.8,19.8-0.8,58.1
		c0,38.3,0.2,43.1,0.8,58.1c0.7,15,3.1,25.3,6.6,34.2c3.6,9.3,8.4,17.1,16.3,25c7.8,7.8,15.7,12.7,25,16.3c9,3.5,19.2,5.9,34.2,6.6
		c15,0.7,19.8,0.8,58.1,0.8s43.1-0.2,58.1-0.8c15-0.7,25.3-3.1,34.2-6.6c9.3-3.6,17.1-8.4,25-16.3c7.8-7.8,12.7-15.7,16.3-25
		c3.5-9,5.9-19.2,6.6-34.2c0.7-15,0.8-19.8,0.8-58.1s-0.2-43.1-0.8-58.1c-0.7-15-3.1-25.3-6.6-34.2c-3.6-9.3-8.4-17.1-16.3-25
		c-7.8-7.8-15.7-12.7-25-16.3c-9-3.5-19.2-5.9-34.2-6.6C299.1,111.2,294.3,111,256,111L256,111z"/>
	<path class="st2" d="M256,179.6c-40,0-72.4,32.4-72.4,72.4s32.4,72.4,72.4,72.4s72.4-32.4,72.4-72.4S296,179.6,256,179.6z M256,299
		c-26,0-47-21-47-47c0-26,21-47,47-47c26,0,47,21,47,47C303,278,282,299,256,299z"/>
	<circle class="st2" cx="331.3" cy="176.7" r="16.9"/>
</g>
</svg>
