<?xml  version="1.0" encoding="UTF-8"?>
<!DOCTYPE svg PUBLIC "-//W3C//DTD SVG 1.0//EN" "http://www.w3.org/TR/2001/REC-SVG-20010904/DTD/svg10.dtd" >
<svg xmlns="http://www.w3.org/2000/svg" >
<metadata>
<version>1.0</version>
<id><![CDATA[Myriad W08 Semibold Italic]]></id>
<vendor>Monotype Imaging Inc.</vendor>
<credits>
<name>Fonts.com WebFonts</name>
<URL>http://webfonts.fonts.com</URL>
<role>Home of the Web fonts</role>
</credits>
<license>
<URL>http://webfonts.fonts.com/Legal</URL>
</license>
<copyright><![CDATA[© 1992, 1994, 1997, 2000, 2004 Adobe Systems Incorporated. All rights reserved.]]></copyright>
<trademark><![CDATA[Myriad is either a registered trademark or a trademark of Adobe Systems Incorporated in the United States and/or other countries.]]></trademark>
<licensee>
<name></name>
</licensee>
</metadata>
<defs >
<font horiz-adv-x="492" id="3da42724-5f41-40a8-8d41-00138cccd112">
<font-face font-family="" panose-1="2 11 6 3 3 4 3 9 2 4" ascent="1005" descent="-251" units-per-em="1000" alphabetic="0">
</font-face>
<missing-glyph horiz-adv-x="500" d="M0 700H500V0H0V700ZM420 650H80L250 395L420 650ZM450 95V605L280 350L450 95ZM420 50L250 305L80 50H420ZM50 95L220 350L50 605V95Z"  />

<glyph unicode="&#xA;" />
<glyph unicode="&#xD;" horiz-adv-x="183" />
<glyph unicode=" " horiz-adv-x="183" />
<glyph unicode="!" horiz-adv-x="254" d="M74 209L146 674H273L166 209H74ZM87 -11Q55 -11 37 9T18 60Q18 95 41 120T99 145Q131 145 150 125T170 72Q170 37 147 13T87 -11Z"  />
<glyph unicode="&quot;" horiz-adv-x="350" d="M229 685L160 423H86L116 685H229ZM402 685L333 423H259L289 685H402Z"  />
<glyph unicode="#" horiz-adv-x="519" d="M297 262L337 392H249L209 262H297ZM51 0L109 187H27L40 262H134L175 392H89L102 467H198L256 650H330L272 467H361L419 650H493L436 467H517L505 392H412L372 262H457L444 187H347L290 0H214L273 187H184L126 0H51Z"  />
<glyph unicode="$" horiz-adv-x="519" d="M153 -87L171 11Q129 13 89 28T26 60L64 149Q90 129 126 116T211 102Q260 102 293 126T326 191Q326 220 308 243T242 289Q182 320 143 359T104 455Q104 491 118 522T157 578T217 618T295 639L313 732H392L375 639Q414 637 446 627T495 604L457 517Q439 527 408 539T330 551Q282 551 256 528T229 472Q229 444 251 424T328 375Q387 345 419 305T452 210Q452 166 436 131T393 71T329 31T251 11L232 -87H153Z"  />
<glyph unicode="%" horiz-adv-x="826" d="M266 660Q299 660 324 649T365 619T390 573T399 518Q399 464 384 418T343 336T280 281T201 261Q140 261 103 301T65 411Q65 459 79 503T119 583T183 639T266 660ZM255 591Q231 591 213 573T182 528T163 468T156 409Q156 377 168 354T211 330Q235 330 253 349T283 396T301 457T308 516Q308 530 306 543T297 567T281 584T255 591ZM146 -11L632 661H705L220 -11H146ZM657 392Q690 392 715 381T756 351T781 305T790 249Q790 195 775 149T734 67T672 12T593 -8Q531 -8 494 32T456 142Q456 189 470 234T510 314T574 370T657 392ZM646 323Q622 323 604 305T573 259T554 199T547 139Q547 107 559 84T602 61Q626 61 644 80T674 127T692 188T699 248Q699 261 697 274T688 299T672 316T646 323Z"  />
<glyph unicode="&amp;" horiz-adv-x="631" d="M438 0Q427 13 418 26T397 53Q360 23 316 6T212 -11Q167 -11 131 1T69 37T30 92T16 163Q16 202 29 234T66 293T118 339T180 375L181 378Q164 407 154 436T144 496Q144 535 158 569T199 629T261 670T340 685Q376 685 405 675T454 645T485 600T496 543Q496 483 454 437T326 352V349Q349 311 378 269T430 194Q462 232 485 278T526 379H634Q607 300 572 236T483 119Q503 92 526 62T575 0H438ZM244 78Q277 78 303 90T350 122Q325 157 290 207T221 311Q207 302 192 290T164 262T143 226T134 182Q134 138 162 108T244 78ZM330 607Q296 607 273 579T250 508Q250 459 280 414Q329 437 359 468T390 541Q390 567 376 587T330 607Z"  />
<glyph unicode="&apos;" horiz-adv-x="184" d="M233 685L165 424H90L121 685H233Z"  />
<glyph unicode="(" horiz-adv-x="301" d="M359 691Q320 644 285 586T221 461T177 317T160 157Q160 86 170 21T207 -117H123Q94 -57 79 11T64 155Q64 243 81 321T126 468T192 592T269 691H359Z"  />
<glyph unicode=")" horiz-adv-x="301" d="M-41 -117Q-2 -70 34 -12T97 114T142 258T159 418Q159 489 149 553T111 691H197Q225 631 240 564T255 420Q255 331 238 253T193 107T127 -17T50 -117H-41Z"  />
<glyph unicode="*" horiz-adv-x="435" d="M415 642L298 516L299 514L458 541L441 454L292 477V475L381 353L300 308L256 456H254L178 308L109 353L225 476V478L69 454L85 541L229 514V517L143 642L225 685L268 538H270L343 685L415 642Z"  />
<glyph unicode="+" horiz-adv-x="596" d="M342 532V306H555V228H342V0H261V228H48V306H261V532H342Z"  />
<glyph unicode="&#x2c;" horiz-adv-x="238" d="M-51 -121Q-37 -93 -22 -60T7 8T33 77T55 143L186 153Q170 118 152 81T113 9T73 -57T35 -113L-51 -121Z"  />
<glyph unicode="-" horiz-adv-x="315" d="M296 309L280 224H29L46 309H296Z"  />
<glyph unicode="." horiz-adv-x="238" d="M89 -10Q57 -10 38 10T19 62Q19 97 42 122T101 148Q133 148 152 128T172 74Q172 38 149 14T89 -10Z"  />
<glyph unicode="/" horiz-adv-x="326" d="M-46 -40L326 685H413L40 -40H-46Z"  />
<glyph unicode="0" horiz-adv-x="519" d="M337 661Q386 661 420 643T474 594T503 526T512 447Q512 395 504 341T479 236T438 140T381 62T307 9T218 -11Q170 -11 137 7T82 55T51 128T41 218Q41 297 61 376T118 518T211 621T337 661ZM323 568Q297 568 275 551T234 504T201 437T176 361T161 283T156 214Q156 192 158 169T169 127T193 95T233 82Q260 82 283 101T324 152T355 223T378 303T391 380T396 443Q396 461 394 483T385 523T363 555T323 568Z"  />
<glyph unicode="1" horiz-adv-x="519" d="M284 538H282L162 482L155 573L321 650H418L295 0H182L284 538Z"  />
<glyph unicode="2" horiz-adv-x="519" d="M-2 0L12 76L133 172Q189 218 234 258T310 335T357 406T374 475Q374 510 352 536T280 563Q236 563 202 550T144 520L118 604Q155 629 205 645T307 661Q355 661 390 647T448 610T483 557T495 492Q495 441 475 396T421 308T341 226T247 146L187 101V99H438L419 0H-2Z"  />
<glyph unicode="3" horiz-adv-x="519" d="M48 123Q68 112 102 100T183 88Q218 88 245 97T290 123T317 160T327 203Q327 254 290 278T191 302H162L180 392H207Q231 392 258 398T307 417T344 449T359 495Q359 526 339 544T273 563Q234 563 201 553T144 529L125 617Q159 637 204 649T296 661Q337 661 371 651T430 621T468 575T482 514Q482 483 471 457T440 409T394 373T338 350L337 348Q390 337 419 298T449 204Q449 155 427 115T368 47T282 4T180 -11Q122 -11 77 2T11 32L48 123Z"  />
<glyph unicode="4" horiz-adv-x="519" d="M257 0L289 167H11L26 245L352 650H490L416 258H497L480 167H399L367 0H257ZM306 258L342 433Q348 462 355 491T370 549H366Q345 517 327 489T286 431L146 260L145 258H306Z"  />
<glyph unicode="5" horiz-adv-x="519" d="M492 550H266L226 420Q234 422 241 422T256 422Q285 422 318 414T381 386Q418 363 436 325T455 242Q455 182 432 135T370 56T279 6T170 -11Q116 -11 74 0T14 26L46 119Q65 108 99 98T174 87Q204 87 233 96T284 124T320 166T334 221Q334 245 327 265T301 300T252 323T175 332Q152 332 135 331T98 328L190 650H512L492 550Z"  />
<glyph unicode="6" horiz-adv-x="519" d="M476 563Q464 563 450 563T419 560Q331 548 269 496T177 369L179 368Q207 398 244 415T324 433Q361 433 391 420T442 382T474 325T486 253Q486 203 468 156T416 71T337 12T236 -11Q185 -11 147 6T84 52T47 122T34 210Q34 266 47 318T82 416T134 499T196 563Q248 605 310 629T439 658Q457 660 469 660T493 659L476 563ZM241 80Q270 80 293 95T332 133T357 185T366 242Q366 292 342 318T275 344Q242 344 212 324T162 271Q153 255 151 239Q148 218 148 196Q148 146 172 113T241 80Z"  />
<glyph unicode="7" horiz-adv-x="519" d="M544 650L529 571Q438 428 347 286T163 0H34Q126 138 216 274T397 548L396 550H107L126 650H544Z"  />
<glyph unicode="8" horiz-adv-x="519" d="M324 661Q362 661 395 651T452 621T490 573T504 508Q504 453 471 413T383 347V344Q430 318 452 279T475 196Q475 145 454 107T397 42T317 2T228 -11Q179 -11 141 1T76 36T35 88T21 154Q21 190 32 219T64 272T110 313T166 343V346Q131 372 115 403T99 470Q99 513 117 548T166 608T238 647T324 661ZM239 75Q262 75 283 83T319 105T344 139T353 185Q353 228 328 255T255 299Q234 293 214 282T178 255T152 217T142 168Q142 130 166 103T239 75ZM311 575Q290 575 272 567T240 546T219 515T211 478Q211 443 233 420T295 383Q314 389 331 400T362 425T384 457T392 495Q392 526 373 550T311 575Z"  />
<glyph unicode="9" horiz-adv-x="519" d="M66 88Q79 86 93 87T127 90Q161 94 195 106T260 141Q296 166 324 202T371 284L369 285Q343 256 307 242T235 227Q196 227 165 240T113 277T80 332T68 400Q68 451 87 498T141 582T222 639T322 661Q372 661 408 644T469 598T504 529T516 444Q516 385 502 330T464 228T411 143T350 80Q303 42 245 20T126 -8Q100 -10 83 -10T52 -9L66 88ZM311 570Q285 570 263 557T224 521T197 471T187 414Q187 370 209 343T273 316Q307 316 334 332T379 373Q384 379 387 386T393 403Q396 414 397 430T399 462Q399 508 379 539T311 570Z"  />
<glyph unicode=":" horiz-adv-x="238" d="M153 326Q121 326 102 346T83 397Q83 432 106 457T165 483Q197 483 216 462T235 409Q235 374 212 350T153 326ZM89 -11Q57 -11 38 9T19 60Q19 95 42 120T101 146Q133 146 152 126T171 73Q171 37 148 13T89 -11Z"  />
<glyph unicode=";" horiz-adv-x="238" d="M-51 -121Q-37 -93 -22 -60T7 8T34 77T56 143L185 153Q170 118 151 81T113 9T73 -57T34 -113L-51 -121ZM157 326Q126 326 107 346T88 397Q88 414 94 429T111 457T136 476T169 483Q201 483 220 462T240 409Q240 374 217 350T157 326Z"  />
<glyph unicode="&lt;" horiz-adv-x="596" d="M64 302L527 532V443L161 267V265L527 89V0L64 230V302Z"  />
<glyph unicode="=" horiz-adv-x="596" d="M48 331V409H555V331H48ZM48 128V206H555V128H48Z"  />
<glyph unicode="&gt;" horiz-adv-x="596" d="M547 228L83 0V89L455 265V267L83 443V532L547 304V228Z"  />
<glyph unicode="?" horiz-adv-x="413" d="M129 209Q129 216 129 222T131 235Q136 276 158 317T224 406Q240 422 255 438T282 469T301 499T308 532Q308 555 294 572T241 590Q210 590 184 583T136 562L119 645Q148 662 186 673T274 685Q310 685 338 675T387 647T417 605T428 554Q428 524 419 499T395 451T361 406T319 362Q286 329 270 300T247 235Q245 228 245 222T242 209H129ZM153 -11Q121 -11 103 9T84 60Q84 95 106 120T165 145Q197 145 216 125T235 72Q235 37 212 13T153 -11Z"  />
<glyph unicode="@" horiz-adv-x="736" d="M452 355Q445 357 436 359T413 361Q384 361 360 348T316 314T287 263T276 202Q276 171 290 152T333 133Q351 133 367 143T398 170T421 208T435 252L452 355ZM525 -66Q482 -88 440 -96T347 -104Q283 -104 227 -83T128 -21T62 78T37 210Q37 286 63 355T138 477T254 561T407 592Q473 592 527 571T621 511T682 419T704 303Q704 247 690 203T650 129T592 82T520 65Q487 65 464 84T439 147H436Q387 65 301 65Q255 65 223 99T191 193Q191 239 208 281T256 356T330 408T427 428Q459 428 490 422T540 405L509 222Q491 124 536 124Q554 123 572 134T604 167T628 222T638 298Q638 350 622 393T576 469T500 519T397 537Q338 537 285 515T192 451T129 350T105 217Q105 154 124 105T177 22T258 -30T363 -48Q401 -48 439 -40T508 -15L525 -66Z"  />
<glyph unicode="A" horiz-adv-x="596" d="M188 192L96 0H-28L310 674H456L541 0H419L400 192H188ZM393 282L374 450Q372 477 369 512T364 578H362Q348 548 335 514T307 450L225 282H393Z"  />
<glyph unicode="B" horiz-adv-x="553" d="M150 663Q184 671 225 675T312 679Q365 679 404 670T474 638Q503 620 521 591T539 523Q539 491 528 465T497 417T452 382T399 360V357Q447 343 477 305T507 209Q507 155 482 116T420 51Q378 21 319 9T182 -4Q131 -4 91 -2T26 6L150 663ZM215 398H269Q302 398 329 405T377 427T408 461T419 508Q419 550 390 568T312 587Q270 587 250 582L215 398ZM155 91Q183 88 217 88Q250 88 280 95T333 117T370 155T384 213Q384 240 374 259T345 289T303 306T252 312H197L155 91Z"  />
<glyph unicode="C" horiz-adv-x="571" d="M512 20Q485 8 441 -1T336 -10Q270 -10 217 9T127 66T69 155T49 273Q49 379 91 464T207 605Q313 685 458 685Q514 685 552 675T605 654L571 560Q554 569 522 576T444 584Q396 584 352 568T272 522Q227 483 201 422T175 287Q175 245 186 209T220 146T280 104T366 89Q403 89 438 95T501 115L512 20Z"  />
<glyph unicode="D" horiz-adv-x="666" d="M151 664Q233 679 329 679Q493 679 576 598Q611 566 632 518T653 400Q653 304 617 222T516 87Q457 39 381 18T201 -4Q147 -4 101 -1T26 6L151 664ZM160 95Q177 93 195 92T234 91Q372 91 447 174Q487 216 507 274T527 398Q527 440 516 474T480 533T418 571T327 585Q307 585 287 584T252 579L160 95Z"  />
<glyph unicode="E" horiz-adv-x="496" d="M440 300H198L160 99H432L413 0H24L152 674H526L507 575H250L216 398H459L440 300Z"  />
<glyph unicode="F" horiz-adv-x="490" d="M152 674H524L504 575H250L214 385H450L431 287H195L141 0H24L152 674Z"  />
<glyph unicode="G" horiz-adv-x="651" d="M554 30Q519 18 465 6T348 -7Q278 -7 222 12T126 72Q86 110 68 163T49 274Q49 365 83 445T184 582Q240 630 313 655T472 681Q536 681 580 671T642 650L606 552Q582 564 546 572T463 580Q409 580 361 563T275 514Q229 475 203 414T176 283Q176 192 224 142T368 92Q395 92 417 96T454 107L486 276H367L386 370H618L554 30Z"  />
<glyph unicode="H" horiz-adv-x="648" d="M269 674L217 402H491L543 674H660L532 0H415L472 298H197L141 0H25L153 674H269Z"  />
<glyph unicode="I" horiz-adv-x="256" d="M267 674L139 0H22L150 674H267Z"  />
<glyph unicode="J" horiz-adv-x="383" d="M-10 105Q7 99 27 96T72 92Q123 92 154 122T201 234L285 674H401L315 221Q292 97 235 43T73 -11Q41 -11 11 -6T-33 6L-10 105Z"  />
<glyph unicode="K" horiz-adv-x="556" d="M152 674H267L208 361H212Q228 383 244 401T275 438L485 674H630L352 383L516 0H389L261 310L185 239L139 0H24L152 674Z"  />
<glyph unicode="L" horiz-adv-x="467" d="M152 674H269L160 102H425L406 0H24L152 674Z"  />
<glyph unicode="M" horiz-adv-x="802" d="M588 0L633 317Q641 369 651 435T674 564H671Q645 504 616 443T559 327L393 8H303L268 322Q262 379 258 441T250 564H248Q241 535 234 503T220 437T206 373T193 317L116 0H8L179 674H333L369 359Q373 314 377 264T382 165H386Q404 213 426 263T471 358L634 674H790L701 0H588Z"  />
<glyph unicode="N" horiz-adv-x="651" d="M24 0L152 674H286L404 361Q426 299 440 250T465 150H467Q470 200 476 252T497 378L553 674H663L535 0H416L295 319Q283 352 274 379T258 432T244 483T231 536L227 535Q222 487 212 425T188 288L133 0H24Z"  />
<glyph unicode="O" horiz-adv-x="688" d="M411 685Q478 685 528 663T611 603T660 515T676 406Q676 361 668 316T645 229T607 150T554 84Q508 39 448 14T313 -11Q248 -11 199 11T116 71T65 159T48 267Q48 312 56 357T81 445T120 524T174 591Q220 636 281 660T411 685ZM397 587Q358 587 325 572T264 529Q242 507 225 477T195 412T177 342T171 273Q171 235 180 201T208 142T257 102T330 87Q367 87 401 102T461 144Q483 166 500 197T528 263T546 334T552 402Q552 435 545 468T521 528T474 570T397 587Z"  />
<glyph unicode="P" horiz-adv-x="535" d="M150 663Q181 671 224 675T313 679Q360 679 406 668T485 631Q515 608 531 575T547 497Q547 437 523 390T461 314Q420 282 365 266T250 250Q232 250 217 251T187 255L139 0H24L150 663ZM205 351Q219 348 233 347T266 345Q303 345 333 356T385 386T418 432T430 488Q430 515 421 533T396 563T359 580T313 585Q268 585 249 579L205 351Z"  />
<glyph unicode="Q" horiz-adv-x="688" d="M571 -109Q537 -100 502 -89T434 -67T373 -45T327 -25Q303 -15 294 -13T280 -9Q231 -6 189 14T116 69T66 155T48 269Q48 312 56 355T79 440T116 518T168 585Q216 633 279 659T411 685Q480 685 529 662T611 601T659 512T675 406Q675 364 668 321T645 236T609 158T559 93Q536 70 507 52T447 22V19Q484 11 527 2T612 -15L571 -109ZM397 587Q358 587 325 572T265 530Q242 507 225 476T195 410T177 338T171 270Q171 232 180 199T207 141T256 101T328 86Q367 86 400 101T460 142Q482 164 499 196T528 263T546 336T552 405Q552 436 546 468T522 526T474 570T397 587Z"  />
<glyph unicode="R" horiz-adv-x="556" d="M151 663Q183 671 227 675T317 679Q366 679 410 669T486 635Q515 615 532 585T550 513Q550 476 538 445T504 390T455 348T394 320L393 317Q426 304 441 271T462 189Q465 157 467 128T473 73T479 29T486 0H366Q362 12 358 56T348 161Q344 226 321 252T250 278H193L140 0H25L151 663ZM210 367H276Q310 367 338 377T386 404T417 445T428 496Q428 543 396 564T313 586Q272 586 251 580L210 367Z"  />
<glyph unicode="S" horiz-adv-x="490" d="M45 133Q74 114 113 102T197 90Q221 90 244 96T284 115T311 147T322 190Q322 223 300 248T227 299Q168 331 129 373T90 475Q90 523 109 562T163 628T242 670T338 685Q395 685 431 674T488 651L450 554Q433 563 402 574T328 584Q272 584 242 557T212 496Q212 461 238 438T313 387Q375 355 409 313T444 208Q444 157 425 117T371 49T289 5T184 -10Q122 -10 75 4T5 37L45 133Z"  />
<glyph unicode="T" horiz-adv-x="503" d="M253 572H66L86 674H577L557 572H369L261 0H144L253 572Z"  />
<glyph unicode="U" horiz-adv-x="639" d="M267 674L192 281Q184 241 184 199Q185 147 214 117T295 87Q358 87 399 132T461 280L536 674H653L578 282Q549 130 477 60T280 -11Q232 -11 193 1T127 39T84 104T68 197Q68 219 70 243T77 290L150 674H267Z"  />
<glyph unicode="V" horiz-adv-x="579" d="M165 0L82 674H201L240 303Q246 250 249 208T255 121H257Q274 163 294 209T340 308L520 674H649L298 0H165Z"  />
<glyph unicode="W" horiz-adv-x="848" d="M124 0L95 674H212L219 327Q220 264 219 216T216 128H218Q234 170 250 216T293 324L444 674H571L576 334Q577 271 576 222T573 131H575Q592 179 609 227T646 327L791 674H914L610 0H484L474 325Q473 354 473 380T473 430T475 480T478 535H475Q458 483 441 434T400 330L252 0H124Z"  />
<glyph unicode="X" horiz-adv-x="547" d="M370 0L316 150Q305 182 296 209T277 266H275Q258 240 242 212T202 148L103 0H-36L221 344L99 674H222L273 525Q283 494 290 470T306 417H308Q326 448 341 474T374 526L476 674H615L363 343L494 0H370Z"  />
<glyph unicode="Y" horiz-adv-x="546" d="M155 0L208 277L77 674H201L254 482Q265 438 271 413T282 364H284Q298 388 314 417T354 484L475 674H613L324 279L271 0H155Z"  />
<glyph unicode="Z" horiz-adv-x="540" d="M-10 69L411 570V574H116L135 674H587L573 601L157 104L158 100H483L464 0H-23L-10 69Z"  />
<glyph unicode="[" horiz-adv-x="301" d="M9 -112L161 686H350L336 616H237L111 -42H211L198 -112H9Z"  />
<glyph unicode="\" horiz-adv-x="333" d="M228 -40L56 685H140L312 -40H228Z"  />
<glyph unicode="]" horiz-adv-x="301" d="M308 686L156 -112H-33L-20 -42H79L205 616H105L119 686H308Z"  />
<glyph unicode="^" horiz-adv-x="596" d="M450 182L296 553H294L140 182H51L257 650H335L540 182H450Z"  />
<glyph unicode="_" horiz-adv-x="500" d="M448 -75L438 -125H-62L-52 -75H448Z"  />
<glyph unicode="`" horiz-adv-x="389" d="M249 694L320 546H237L130 694H249Z"  />
<glyph unicode="a" horiz-adv-x="540" d="M340 0Q341 22 343 50T349 110H346Q310 42 264 16T172 -11Q106 -11 67 35T28 155Q28 217 49 278T114 388T221 467T371 498Q411 498 450 492T518 476L468 222Q463 195 459 165T452 106T448 49T448 0H340ZM388 403Q379 405 368 406T340 408Q299 408 265 388T204 334T164 260T149 176Q149 138 165 111T219 83Q239 83 261 95T302 132T337 192T362 275L388 403Z"  />
<glyph unicode="b" horiz-adv-x="545" d="M269 710L208 415H210Q239 455 280 476T370 498Q409 498 437 484T482 445T508 390T517 326Q517 268 497 208T438 100T340 20T203 -11Q126 -11 83 21T41 120Q41 141 43 162T50 204L152 710H269ZM166 198Q164 185 162 171T161 140Q161 78 226 78Q264 78 295 100T349 155T383 228T395 304Q395 345 377 374T318 403Q295 403 273 392T232 360T198 310T176 243L166 198Z"  />
<glyph unicode="c" horiz-adv-x="430" d="M368 17Q347 6 311 -2T228 -10Q182 -10 146 4T84 43T45 104T31 184Q31 248 54 305T118 405T216 473T341 498Q373 498 399 492T440 479L410 388Q396 394 379 398T337 403Q295 403 261 385T203 338T166 273T153 198Q153 143 182 114T260 84Q294 84 319 91T364 107L368 17Z"  />
<glyph unicode="d" horiz-adv-x="544" d="M567 710L465 173Q457 131 451 86T443 0H336L346 87H344Q311 36 268 13T177 -11Q144 -11 117 2T71 38T40 95T29 170Q29 234 51 293T114 398T210 471T333 498Q352 498 372 495T408 484L451 710H567ZM391 389Q380 397 363 402T324 408Q286 408 255 389T200 339T163 269T150 188Q150 144 168 114T228 83Q247 83 268 93T307 124T339 173T362 241L391 389Z"  />
<glyph unicode="e" horiz-adv-x="479" d="M402 28Q366 9 321 0T230 -10Q179 -10 142 4T80 45T43 109T30 191Q30 246 49 301T105 399T192 470T306 498Q378 498 420 460T463 361Q463 314 440 283T374 232T273 206T144 200Q142 187 145 166T157 131Q186 81 257 81Q299 81 332 90T391 113L402 28ZM353 360Q353 384 336 397T291 411Q264 411 242 400T202 371T173 331T156 287Q201 286 237 289T299 301T339 323T353 360Z"  />
<glyph unicode="f" horiz-adv-x="308" d="M34 0L109 397H46L63 487H126L131 512Q139 559 158 602T212 676Q239 699 272 710T340 721Q366 721 384 717T412 708L390 616Q371 624 343 624Q302 624 278 591T246 510L242 487H343L326 397H225L150 0H34Z"  />
<glyph unicode="g" horiz-adv-x="543" d="M39 -87Q61 -100 97 -108T168 -116Q196 -116 221 -109T266 -84T302 -38T326 33L338 88H336Q277 2 183 2Q147 2 119 16T71 53T41 108T30 174Q30 235 51 293T114 396T214 470T349 498Q397 498 440 489T518 464L444 62Q430 -10 408 -65T344 -155Q325 -171 303 -181T258 -198T210 -206T163 -209Q116 -209 76 -200T11 -176L39 -87ZM391 395Q382 400 365 403T327 407Q289 407 257 388T202 339T166 270T153 192Q153 173 157 155T170 124T194 102T231 93Q253 93 274 105T313 138T344 188T364 250L391 395Z"  />
<glyph unicode="h" horiz-adv-x="550" d="M20 0L154 710H271L214 414H216Q247 452 287 475T379 498Q404 498 426 490T465 466T491 425T501 367Q501 348 499 325T493 281L439 0H323L375 273Q377 287 379 303T381 337Q381 365 367 384T320 403Q299 403 277 391T236 357T202 303T180 232L136 0H20Z"  />
<glyph unicode="i" horiz-adv-x="249" d="M20 0L112 487H229L136 0H20ZM191 557Q164 557 147 574T131 619Q131 651 151 670T201 690Q228 690 245 673T263 627Q262 595 241 576T191 557Z"  />
<glyph unicode="j" horiz-adv-x="254" d="M239 487L149 10Q137 -52 122 -92T83 -159Q60 -185 28 -197T-40 -209Q-56 -209 -72 -208T-103 -202L-89 -113Q-76 -116 -54 -116Q-40 -116 -28 -112T-5 -94T15 -59T30 -2L123 487H239ZM196 557Q170 557 153 574T136 619Q136 651 156 670T206 690Q234 690 251 673T268 627Q268 595 247 576T196 557Z"  />
<glyph unicode="k" horiz-adv-x="496" d="M20 0L155 710H270L188 276H190Q201 290 212 303T234 328L380 487H524L314 286L454 0H325L225 223L168 169L136 0H20Z"  />
<glyph unicode="l" horiz-adv-x="249" d="M20 0L156 710H272L137 0H20Z"  />
<glyph unicode="m" horiz-adv-x="821" d="M20 0L82 336Q90 380 96 417T106 487H207L197 402H198Q233 451 276 474T367 498Q424 498 451 468T482 398Q514 449 558 473T654 498Q704 498 738 466T773 368Q773 352 771 329T765 285L711 0H598L649 272Q651 287 653 303T656 334Q656 365 642 384T596 403Q576 403 556 391T518 357T486 303T465 233L421 0H309L361 276Q367 306 367 333Q367 361 356 382T309 403Q289 403 268 390T229 354T196 300T175 231L133 0H20Z"  />
<glyph unicode="n" horiz-adv-x="550" d="M20 0L83 336Q92 380 97 417T108 487H211L201 399H203Q237 449 282 473T378 498Q430 498 466 466T502 364Q502 347 500 325T493 283L439 0H323L375 275Q377 289 379 304T381 333Q381 363 368 383T320 403Q300 403 279 391T237 357T202 301T178 225L136 0H20Z"  />
<glyph unicode="o" horiz-adv-x="543" d="M313 498Q362 498 399 482T462 438T500 373T513 296Q513 234 493 179T435 81T345 14T231 -11Q185 -11 148 4T86 46T46 109T32 190Q32 252 52 308T110 406T199 473T313 498ZM299 408Q264 408 237 387T191 335T162 265T152 193Q152 142 177 111T247 79Q280 79 306 99T352 151T381 221T392 296Q392 315 388 334T372 370T344 397T299 408Z"  />
<glyph unicode="p" horiz-adv-x="545" d="M-21 -198L74 306Q82 350 89 399T102 487H207L196 407H198Q230 451 272 474T363 498Q402 498 431 483T479 443T507 386T517 317Q517 253 496 194T438 90T348 17T233 -11Q199 -11 175 -5T136 10H134L95 -198H-21ZM153 103Q182 79 231 79Q265 79 294 99T346 152T382 226T395 308Q395 325 391 342T378 372T354 394T318 403Q296 403 274 391T232 355T197 299T174 222L153 103Z"  />
<glyph unicode="q" horiz-adv-x="545" d="M278 -198L337 79H335Q306 34 264 12T177 -11Q142 -11 115 2T68 40T39 98T29 170Q29 230 50 288T111 393T212 469T351 498Q402 498 445 489T520 468L395 -198H278ZM391 394Q368 407 324 407Q287 407 256 388T201 338T164 266T150 184Q150 136 169 110T221 83Q245 83 267 95T309 129T342 181T363 246L391 394Z"  />
<glyph unicode="r" horiz-adv-x="347" d="M20 0L77 300Q87 352 92 403T102 487H203Q201 462 199 437T192 384H195Q220 434 258 466T348 498Q354 498 360 498T373 496L350 382Q345 383 340 383T328 384Q297 384 272 369T227 329T194 269T173 196L136 0H20Z"  />
<glyph unicode="s" horiz-adv-x="397" d="M32 109Q51 98 83 87T149 76Q184 77 204 94T224 136Q224 159 210 175T160 211Q118 233 91 264T64 338Q64 373 78 402T119 453T182 486T261 498Q299 498 329 491T376 473L346 389Q332 397 309 404T255 411Q222 411 202 395T181 354Q181 334 197 319T244 287Q284 265 314 234T345 156Q345 116 329 85T286 33T220 1T138 -10Q95 -10 59 0T2 25L32 109Z"  />
<glyph unicode="t" horiz-adv-x="333" d="M269 621L244 487H354L336 397H227L188 200Q185 183 183 165T180 131Q180 111 190 100T223 88Q234 88 244 88T263 90L252 -1Q239 -6 218 -8T176 -11Q116 -11 88 18T60 89Q60 110 62 131T71 180L113 397H47L64 487H130L150 592L269 621Z"  />
<glyph unicode="u" horiz-adv-x="545" d="M524 487L460 151Q452 107 447 70T436 0H333L343 85H341Q306 37 262 13T172 -11Q145 -11 122 -4T82 20T55 63T45 127Q45 167 55 214L107 487H223L173 221Q165 183 165 154Q165 124 178 105T227 85Q247 85 268 96T308 129T341 181T363 250L408 487H524Z"  />
<glyph unicode="v" horiz-adv-x="486" d="M168 487L199 245Q204 201 207 172T213 118H216Q225 141 237 169T269 242L390 487H519L248 0H131L48 487H168Z"  />
<glyph unicode="w" horiz-adv-x="721" d="M172 487L181 250Q183 207 182 175T179 106H181Q192 138 206 172T238 243L356 487H453L473 249Q476 207 477 173T478 106H480Q491 141 503 175T530 249L635 487H753L514 0H405L383 212Q380 248 379 282T378 356H376Q358 312 346 281T318 217L210 0H101L56 487H172Z"  />
<glyph unicode="x" horiz-adv-x="472" d="M182 487L220 399Q231 373 238 354T251 319H254Q268 339 279 355T307 395L377 487H511L305 250L419 0H292L253 92Q242 119 235 138T220 180H217Q206 163 195 144T168 101L91 0H-43L169 251L55 487H182Z"  />
<glyph unicode="y" horiz-adv-x="472" d="M167 487L205 252Q212 213 216 185T224 131H226Q235 154 245 180T273 247L378 487H501L323 128Q278 38 236 -27T145 -140Q124 -161 102 -175T60 -200T23 -216T-5 -224L-32 -124Q-15 -119 8 -109T54 -82Q79 -64 101 -39T140 15Q145 25 142 38L45 487H167Z"  />
<glyph unicode="z" horiz-adv-x="434" d="M-11 71L182 282Q213 315 238 338T293 389L294 392H67L86 487H452L438 412L249 205Q216 170 191 146T138 97V95H385L366 0H-24L-11 71Z"  />
<glyph unicode="{" horiz-adv-x="301" d="M44 320Q69 321 85 327T112 344T126 366T134 391Q141 430 142 471T152 553Q165 623 208 654T318 686H349L335 616H317Q282 615 263 595T236 537Q230 506 229 473T222 401Q214 347 189 322T125 288V286Q154 279 169 260T185 213Q185 190 178 163T162 108Q153 81 146 56T139 12Q139 -12 151 -26T192 -41H210L197 -112H172Q115 -112 81 -88T47 -7Q47 20 55 49T72 106Q81 134 89 159T97 204Q97 222 84 238T32 255L44 320Z"  />
<glyph unicode="|" horiz-adv-x="229" d="M173 750V-250H91V750H173Z"  />
<glyph unicode="}" horiz-adv-x="301" d="M270 253Q244 253 228 247T202 230T187 208T180 183Q172 144 171 103T162 21Q148 -49 105 -80T-4 -112H-35L-22 -41H-3Q32 -41 50 -21T77 37Q84 68 84 101T92 173Q100 226 124 251T189 285V287Q160 295 145 314T129 361Q129 384 136 411T152 465Q160 493 167 518T175 562Q175 586 162 600T121 616H104L117 686H141Q198 686 232 662T266 582Q266 553 259 525T242 467Q232 440 224 415T216 370Q216 351 230 335T282 319L270 253Z"  />
<glyph unicode="~" horiz-adv-x="596" d="M55 201Q53 289 90 329T184 370Q216 370 247 359T320 325Q355 306 380 295T427 284Q450 284 461 303T474 365H553Q555 317 546 285T520 232T479 204T428 195Q396 195 362 207T285 245Q262 257 235 270T185 283Q161 283 149 261T134 201H55Z"  />
<glyph unicode="&#xA0;" horiz-adv-x="183" />
<glyph unicode="&#xA1;" horiz-adv-x="254" d="M-21 -198L86 265H178L107 -198H-21ZM166 492Q198 492 216 472T235 421Q235 386 213 361T154 336Q122 336 103 356T84 409Q84 445 107 468T166 492Z"  />
<glyph unicode="&#xA2;" horiz-adv-x="519" d="M218 -13L237 87Q198 94 170 111T121 154Q83 206 83 281Q83 339 102 389T156 478T235 542T332 575L350 673H429L412 579Q434 578 459 572T500 557L464 469Q447 477 426 482T374 488Q341 488 311 474T257 433T221 372T207 294Q207 240 238 208T323 176Q352 176 376 182T419 197L426 110Q406 99 376 93T316 85L297 -13H218Z"  />
<glyph unicode="&#xA3;" horiz-adv-x="519" d="M18 0L30 68Q73 87 108 125T158 209Q163 226 165 243T167 281H75L91 366H167Q168 392 170 421T179 481Q199 564 255 612T403 661Q438 661 464 653T503 637L471 547Q442 564 396 564Q348 564 321 536T285 461Q280 436 279 413T279 366H420L405 281H275Q273 264 271 248T263 213Q254 180 235 152T186 101V99H461L444 0H18Z"  />
<glyph unicode="&#xA4;" horiz-adv-x="519" d="M272 543Q308 543 337 533T387 505L462 585L518 526L435 451Q449 432 459 403T469 335Q469 293 458 263T434 214L515 137L459 80L386 162Q364 142 333 132T272 121Q240 121 210 131T159 160L89 80L32 137L112 212Q98 232 87 261T75 331Q75 373 86 402T112 451L29 525L87 585L160 505Q181 523 210 533T272 543ZM272 462Q248 462 229 452T195 425T172 384T164 333Q164 299 174 274T200 233T235 210T272 202Q291 202 310 209T345 233T370 274T380 333Q380 359 373 382T351 423T317 451T272 462Z"  />
<glyph unicode="&#xA5;" horiz-adv-x="519" d="M152 0L184 167H36L47 228H195L208 296H60L72 357H190L86 650H206L254 469Q260 441 265 417T276 368H280Q293 391 307 417T339 471L457 650H585L362 357H479L467 296H317L305 228H455L443 167H293L262 0H152Z"  />
<glyph unicode="&#xA6;" horiz-adv-x="229" d="M173 174V-176H91V174H173ZM173 674V324H91V674H173Z"  />
<glyph unicode="&#xA7;" horiz-adv-x="531" d="M168 343Q168 317 184 298T246 258Q274 246 300 234T341 211Q361 223 375 243T390 286Q390 309 376 329T326 368Q301 379 272 392T223 417Q200 406 184 386T168 343ZM474 577Q453 589 422 598T351 608Q309 608 282 589T254 540Q254 514 277 498T351 462Q381 450 407 436T451 404T481 364T492 313Q492 262 464 227T398 168Q412 154 418 135T424 97Q424 53 405 22T355 -30T286 -60T209 -69Q165 -69 119 -59T40 -24L73 50Q96 35 131 22T210 8Q256 8 284 27T313 79Q313 102 293 122T218 165Q189 177 162 191T113 224T80 264T67 313Q67 358 96 396T173 458Q159 474 154 490T148 524Q148 563 166 593T214 644T282 674T362 685Q404 685 442 676T505 650L474 577Z"  />
<glyph unicode="&#xA8;" horiz-adv-x="389" d="M167 561Q143 561 126 577T109 619Q109 648 128 666T174 685Q200 685 215 668T231 626Q231 597 213 579T167 561ZM363 561Q338 561 321 577T304 619Q304 648 323 666T369 685Q395 685 410 668T426 626Q426 597 408 579T363 561Z"  />
<glyph unicode="&#xA9;" horiz-adv-x="674" d="M362 648Q425 648 480 624T576 558T640 460T664 340Q664 275 641 219T577 120T481 54T362 30Q298 30 243 54T146 120T81 218T57 340Q57 404 80 460T145 558T242 624T362 648ZM362 598Q310 598 265 578T187 523T134 441T115 338Q115 284 134 237T186 155T265 100T362 80Q413 80 457 100T535 155T587 237T606 339Q606 393 587 440T535 523T458 578T362 598ZM483 444Q473 450 447 459T386 468Q323 468 290 433T256 337Q256 309 265 285T290 243T331 215T386 205Q417 205 444 212T488 231L501 185Q475 167 442 160T377 153Q333 153 299 167T242 205T207 263T194 334Q194 377 210 411T252 470T313 507T386 520Q424 520 455 511T496 492L483 444Z"  />
<glyph unicode="&#xAA;" horiz-adv-x="378" d="M270 266Q270 279 270 294T272 324H271Q249 292 220 277T158 261Q115 261 88 292T60 378Q60 418 73 456T114 525T183 573T281 591Q313 591 344 585T393 571L357 368Q352 339 351 312T350 266H270ZM299 521Q282 527 260 527Q236 527 216 516T180 486T157 443T148 394Q148 367 160 348T198 329Q225 329 249 354T281 413L299 521Z"  />
<glyph unicode="&#xAB;" horiz-adv-x="438" d="M114 250L212 64H127L27 252L167 440H261L114 250ZM293 250L392 64H307L207 252L347 440H441L293 250Z"  />
<glyph unicode="&#xAC;" horiz-adv-x="596" d="M547 412V112H466V334H41V412H547Z"  />
<glyph unicode="&#xAD;" horiz-adv-x="315" d="M296 309L280 224H29L46 309H296Z"  />
<glyph unicode="&#xAE;" horiz-adv-x="403" d="M233 432H189V593Q198 595 215 597T256 599Q282 599 295 596T316 586Q333 574 333 551Q333 538 324 529T298 514V512Q322 504 329 471Q333 454 335 446T340 432H292Q288 437 286 446T280 469Q276 493 250 493H233V432ZM234 524H250Q265 524 274 529T284 545Q284 567 253 567Q247 567 243 567T234 566V524ZM257 684Q293 684 325 671T380 635T416 582T430 516Q430 480 417 449T380 395T325 359T257 346Q221 346 189 359T134 395T97 449T83 516Q83 551 96 581T133 635T189 671T257 684ZM256 646Q229 646 206 636T167 608T141 566T131 515Q131 488 140 465T166 423T206 395T257 385Q284 385 307 395T346 423T372 464T382 515Q382 542 373 566T347 607T307 635T256 646Z"  />
<glyph unicode="&#xAF;" horiz-adv-x="389" d="M392 655L379 588H144L158 655H392Z"  />
<glyph unicode="&#xB0;" horiz-adv-x="339" d="M231 685Q263 685 288 674T332 645T360 603T370 551Q370 519 358 493T325 448T279 418T225 407Q194 407 169 417T125 446T96 489T86 542Q86 571 97 597T129 642T175 673T231 685ZM230 626Q213 626 199 619T176 600T161 573T155 543Q155 510 175 488T227 466Q259 466 280 490T301 549Q301 577 284 601T230 626Z"  />
<glyph unicode="&#xB1;" horiz-adv-x="596" d="M339 576V393H551V315H339V128H257V315H45V393H257V576H339ZM551 78V0H45V78H551Z"  />
<glyph unicode="&#xB2;" horiz-adv-x="322" d="M45 406L55 455L129 513Q195 563 236 603T277 681Q277 699 265 713T222 727Q198 727 175 718T135 698L118 758Q144 777 179 789T253 801Q307 801 342 774T378 697Q378 667 365 641T330 592T281 547T224 504L193 480V478H345L331 406H45Z"  />
<glyph unicode="&#xB3;" horiz-adv-x="315" d="M123 766Q145 781 178 791T249 801Q303 801 337 776T371 712Q371 676 344 652T277 616V614Q307 608 330 586T353 528Q353 498 339 475T302 435T246 410T177 401Q139 401 105 409T51 432L81 495Q95 485 120 477T172 468Q210 468 232 485T254 529Q254 557 229 570T167 584H148L160 641H178Q194 641 211 644T241 655T263 673T272 697Q272 713 261 723T221 734Q197 734 173 726T133 706L123 766Z"  />
<glyph unicode="&#xB4;" horiz-adv-x="389" d="M408 694L277 546H189L285 694H408Z"  />
<glyph unicode="&#xB5;" horiz-adv-x="543" d="M170 207Q147 84 236 84Q252 84 267 92T296 112T320 141T339 173Q352 195 356 220L407 487H524L461 151Q453 111 460 97T490 81L466 -5Q458 -7 450 -9T428 -11Q393 -11 373 10T351 84H347Q326 46 293 19T214 -8Q187 -8 165 2T131 35L121 -19Q117 -39 113 -63T106 -113T101 -160T100 -198H-5Q-7 -189 -7 -171T-4 -128T2 -76T12 -18L107 487H223L170 207Z"  />
<glyph unicode="&#xB6;" horiz-adv-x="518" d="M154 -49L214 263Q211 264 208 264T202 265Q179 271 156 284T115 317T85 366T73 432Q73 488 95 533T158 610T259 659T392 676Q434 676 467 674T520 667L383 -49H304L429 601H357L232 -49H154Z"  />
<glyph unicode="&#xB7;" horiz-adv-x="238" d="M114 181Q82 181 64 201T45 253Q45 288 67 313T127 339Q159 339 178 318T197 265Q197 228 174 205T114 181Z"  />
<glyph unicode="&#xB8;" horiz-adv-x="389" d="M194 3L158 -47Q183 -53 199 -70T216 -111Q216 -136 206 -153T178 -182T139 -199T97 -204Q74 -204 55 -199T25 -185L47 -134Q69 -149 100 -149Q115 -149 127 -142T139 -118Q139 -103 123 -94T70 -81L127 3H194Z"  />
<glyph unicode="&#xB9;" horiz-adv-x="253" d="M135 406L194 716H192L117 684L109 750L221 796H304L230 406H135Z"  />
<glyph unicode="&#xBA;" horiz-adv-x="366" d="M239 591Q308 591 345 552T383 454Q383 412 369 377T330 316T270 276T194 261Q162 261 136 271T92 300T63 343T53 396Q53 439 67 475T107 536T166 576T239 591ZM233 528Q213 528 196 516T167 486T149 444T142 396Q142 362 159 343T203 324Q222 324 238 335T267 364T286 407T293 458Q293 484 281 506T233 528Z"  />
<glyph unicode="&#xBB;" horiz-adv-x="437" d="M55 440H140L240 252L100 64H6L154 255L55 440ZM235 440H320L420 252L279 64H186L333 255L235 440Z"  />
<glyph unicode="&#xBC;" horiz-adv-x="793" d="M568 0L587 96H393L403 149L625 394H732L688 159H742L730 96H676L658 0H568ZM616 252Q620 271 624 288T633 322H631Q618 304 607 289T585 260L496 160L497 159H599L616 252ZM130 266L189 576H188L113 544L105 610L217 656H300L225 266H130ZM110 -11L597 661H674L187 -11H110Z"  />
<glyph unicode="&#xBD;" horiz-adv-x="793" d="M124 266L184 576H182L107 544L99 610L211 656H294L219 266H124ZM91 -11L580 661H655L166 -11H91ZM418 0L428 49L501 107Q567 158 608 197T649 275Q649 293 637 307T595 321Q570 321 547 312T508 291L491 352Q517 371 552 383T626 395Q680 395 715 368T750 291Q750 261 737 236T702 187T653 141T596 98L565 74V72H717L703 0H418Z"  />
<glyph unicode="&#xBE;" horiz-adv-x="793" d="M143 -11L629 661H706L220 -11H143ZM107 626Q128 641 161 651T233 661Q286 661 320 636T355 572Q355 536 328 512T261 476L260 474Q291 468 313 446T336 388Q336 358 323 335T285 295T229 270T160 261Q122 261 89 269T35 292L65 355Q79 345 103 337T156 328Q194 328 216 345T238 389Q238 417 213 430T151 444H132L143 501H161Q177 501 194 505T225 516T247 533T256 557Q256 573 244 583T204 594Q181 594 157 586T117 566L107 626ZM579 0L598 96H404L415 149L636 394H744L699 159H754L742 96H687L669 0H579ZM627 252Q631 271 635 288T644 322H642Q619 288 596 260L507 160L508 159H610L627 252Z"  />
<glyph unicode="&#xBF;" horiz-adv-x="413" d="M293 270Q292 263 292 257T290 244Q285 203 263 161T196 71Q164 38 139 8T114 -55Q114 -78 128 -95T180 -114Q241 -114 285 -86L303 -169Q275 -186 236 -197T149 -209Q112 -209 83 -199T34 -170T4 -127T-7 -75Q-7 -20 24 24T101 115Q134 148 151 178T175 244L180 270H293ZM269 493Q300 493 319 473T338 422Q338 387 315 362T256 337Q224 337 205 357T186 410Q186 445 209 469T269 493Z"  />
<glyph unicode="&#xC0;" horiz-adv-x="596" d="M361 832L438 711H341L228 832H361ZM188 192L96 0H-28L310 674H456L541 0H419L400 192H188ZM393 282L374 450Q372 477 369 512T364 578H362Q348 548 335 514T307 450L225 282H393Z"  />
<glyph unicode="&#xC1;" horiz-adv-x="596" d="M557 832L423 710H323L420 832H557ZM188 192L96 0H-28L310 674H456L541 0H419L400 192H188ZM393 282L374 450Q372 477 369 512T364 578H362Q348 548 335 514T307 450L225 282H393Z"  />
<glyph unicode="&#xC2;" horiz-adv-x="596" d="M450 832L530 710H444L399 776H397L333 710H239L361 832H450ZM188 192L96 0H-28L310 674H456L541 0H419L400 192H188ZM393 282L374 450Q372 477 369 512T364 578H362Q348 548 335 514T307 450L225 282H393Z"  />
<glyph unicode="&#xC3;" horiz-adv-x="596" d="M248 714Q257 769 281 798T339 828Q360 828 373 822T401 808Q412 800 422 795T443 789Q455 789 463 798T477 831H536Q527 774 504 747T443 720Q423 720 409 725T382 739Q370 747 361 752T341 757Q319 757 308 714H248ZM188 192L96 0H-28L310 674H456L541 0H419L400 192H188ZM393 282L374 450Q372 477 369 512T364 578H362Q348 548 335 514T307 450L225 282H393Z"  />
<glyph unicode="&#xC4;" horiz-adv-x="596" d="M289 716Q266 716 249 731T232 772Q232 800 251 818T296 836Q322 836 337 819T352 779Q352 751 334 734T289 716ZM486 716Q463 716 446 731T429 772Q429 800 448 818T493 836Q519 836 534 819T549 779Q549 751 531 734T486 716ZM188 192L96 0H-28L310 674H456L541 0H419L400 192H188ZM393 282L374 450Q372 477 369 512T364 578H362Q348 548 335 514T307 450L225 282H393Z"  />
<glyph unicode="&#xC5;" horiz-adv-x="596" d="M402 882Q447 882 476 859T505 792Q503 747 471 722T390 696Q348 696 319 719T289 782Q288 827 320 854T402 882ZM398 839Q377 839 364 824T351 785Q351 766 362 753T394 740Q416 740 429 754T442 790Q442 811 431 825T398 839ZM188 192L96 0H-28L310 674H456L541 0H419L400 192H188ZM393 282L374 450Q372 477 369 512T364 578H362Q348 548 335 514T307 450L225 282H393Z"  />
<glyph unicode="&#xC6;" horiz-adv-x="812" d="M-50 0L379 674H816L798 575H544L526 395H768L749 297H522L504 99H759L740 0H385L403 209H205L75 0H-50ZM409 306L426 484Q428 507 430 534T436 587H432Q418 562 403 535T374 484L262 306H409Z"  />
<glyph unicode="&#xC7;" horiz-adv-x="572" d="M512 23Q486 11 445 1T359 -10L332 -47Q358 -53 373 -70T389 -113Q389 -137 379 -153T351 -181T313 -197T271 -202Q248 -202 229 -197T199 -182L220 -134Q232 -141 245 -145T272 -149Q287 -149 300 -142T313 -118Q313 -104 297 -94T244 -81L295 -8Q236 -2 190 20T113 79T65 165T49 273Q49 379 91 465T207 605Q314 685 458 685Q514 685 552 675T605 654L571 560Q554 569 522 576T444 584Q396 584 352 568T272 522Q227 483 201 422T175 288Q175 245 186 209T220 146T279 104T365 89Q402 89 438 96T501 117L512 23Z"  />
<glyph unicode="&#xC8;" horiz-adv-x="496" d="M336 832L412 711H316L203 832H336ZM440 300H198L160 99H432L413 0H24L152 674H526L507 575H250L216 398H459L440 300Z"  />
<glyph unicode="&#xC9;" horiz-adv-x="496" d="M515 832L381 710H281L378 832H515ZM440 300H198L160 99H432L413 0H24L152 674H526L507 575H250L216 398H459L440 300Z"  />
<glyph unicode="&#xCA;" horiz-adv-x="496" d="M410 832L490 710H404L359 776H357L293 710H199L321 832H410ZM440 300H198L160 99H432L413 0H24L152 674H526L507 575H250L216 398H459L440 300Z"  />
<glyph unicode="&#xCB;" horiz-adv-x="496" d="M440 300H198L160 99H432L413 0H24L152 674H526L507 575H250L216 398H459L440 300ZM255 716Q232 716 215 731T198 772Q198 800 216 818T262 836Q288 836 303 819T318 779Q318 751 300 734T255 716ZM452 716Q429 716 412 731T395 772Q395 800 413 818T459 836Q484 836 499 819T515 779Q515 751 497 734T452 716Z"  />
<glyph unicode="&#xCC;" horiz-adv-x="256" d="M202 832L278 711H182L69 832H202ZM267 674L139 0H22L150 674H267Z"  />
<glyph unicode="&#xCD;" horiz-adv-x="256" d="M385 832L251 710H150L248 832H385ZM267 674L139 0H22L150 674H267Z"  />
<glyph unicode="&#xCE;" horiz-adv-x="256" d="M274 832L354 710H268L224 776H222L157 710H63L185 832H274ZM267 674L139 0H22L150 674H267Z"  />
<glyph unicode="&#xCF;" horiz-adv-x="256" d="M267 674L139 0H22L150 674H267ZM122 716Q99 716 82 731T65 772Q65 800 83 818T128 836Q154 836 169 819T185 779Q185 751 167 734T122 716ZM319 716Q296 716 279 731T262 772Q262 800 280 818T325 836Q351 836 366 819T382 779Q382 751 364 734T319 716Z"  />
<glyph unicode="&#xD0;" horiz-adv-x="676" d="M31 397H110L161 664Q246 679 339 679Q419 679 482 660T584 601Q620 569 641 520T663 401Q663 305 626 223T523 88Q466 41 390 19T211 -4Q155 -4 110 -1T36 7L92 301H12L31 397ZM355 301H209L170 96Q187 93 206 92T246 91Q309 91 363 112T455 175Q495 217 516 275T537 396Q537 439 526 473T490 533T429 571T339 585Q317 585 298 584T262 580L228 397H374L355 301Z"  />
<glyph unicode="&#xD1;" horiz-adv-x="651" d="M284 715Q292 771 316 800T375 830Q396 830 409 824T436 810Q447 802 457 797T479 791Q491 791 498 800T513 833H572Q563 775 540 749T479 722Q459 722 445 727T418 740Q405 748 396 753T376 759Q353 757 344 715H284ZM24 0L152 674H286L404 361Q426 299 440 250T465 150H467Q470 200 476 252T497 378L553 674H663L535 0H416L295 319Q283 352 274 379T258 432T244 483T231 536L227 535Q222 487 212 425T188 288L133 0H24Z"  />
<glyph unicode="&#xD2;" horiz-adv-x="688" d="M408 832L484 711H388L275 832H408ZM411 685Q478 685 528 663T611 603T660 515T676 406Q676 361 668 316T645 229T607 150T554 84Q508 39 448 14T313 -11Q248 -11 199 11T116 71T65 159T48 267Q48 312 56 357T81 445T120 524T174 591Q220 636 281 660T411 685ZM397 587Q358 587 325 572T264 529Q242 507 225 477T195 412T177 342T171 273Q171 235 180 201T208 142T257 102T330 87Q367 87 401 102T461 144Q483 166 500 197T528 263T546 334T552 402Q552 435 545 468T521 528T474 570T397 587Z"  />
<glyph unicode="&#xD3;" horiz-adv-x="688" d="M598 835L463 712H363L461 835H598ZM411 685Q478 685 528 663T611 603T660 515T676 406Q676 361 668 316T645 229T607 150T554 84Q508 39 448 14T313 -11Q248 -11 199 11T116 71T65 159T48 267Q48 312 56 357T81 445T120 524T174 591Q220 636 281 660T411 685ZM397 587Q358 587 325 572T264 529Q242 507 225 477T195 412T177 342T171 273Q171 235 180 201T208 142T257 102T330 87Q367 87 401 102T461 144Q483 166 500 197T528 263T546 334T552 402Q552 435 545 468T521 528T474 570T397 587Z"  />
<glyph unicode="&#xD4;" horiz-adv-x="688" d="M487 832L567 710H481L437 776H435L370 710H276L398 832H487ZM411 685Q478 685 528 663T611 603T660 515T676 406Q676 361 668 316T645 229T607 150T554 84Q508 39 448 14T313 -11Q248 -11 199 11T116 71T65 159T48 267Q48 312 56 357T81 445T120 524T174 591Q220 636 281 660T411 685ZM397 587Q358 587 325 572T264 529Q242 507 225 477T195 412T177 342T171 273Q171 235 180 201T208 142T257 102T330 87Q367 87 401 102T461 144Q483 166 500 197T528 263T546 334T552 402Q552 435 545 468T521 528T474 570T397 587Z"  />
<glyph unicode="&#xD5;" horiz-adv-x="688" d="M293 715Q301 771 325 800T384 830Q405 830 418 824T445 810Q456 802 466 797T488 791Q500 791 507 800T522 833H581Q572 775 549 749T488 722Q468 722 454 727T426 740Q414 748 405 753T385 759Q362 757 353 715H293ZM411 685Q478 685 528 663T611 603T660 515T676 406Q676 361 668 316T645 229T607 150T554 84Q508 39 448 14T313 -11Q248 -11 199 11T116 71T65 159T48 267Q48 312 56 357T81 445T120 524T174 591Q220 636 281 660T411 685ZM397 587Q358 587 325 572T264 529Q242 507 225 477T195 412T177 342T171 273Q171 235 180 201T208 142T257 102T330 87Q367 87 401 102T461 144Q483 166 500 197T528 263T546 334T552 402Q552 435 545 468T521 528T474 570T397 587Z"  />
<glyph unicode="&#xD6;" horiz-adv-x="688" d="M336 716Q313 716 296 731T279 772Q279 800 298 818T343 836Q369 836 384 819T399 779Q399 751 381 734T336 716ZM533 716Q510 716 493 731T476 772Q476 800 494 818T540 836Q566 836 581 819T596 779Q596 751 578 734T533 716ZM411 685Q478 685 528 663T611 603T660 515T676 406Q676 361 668 316T645 229T607 150T554 84Q508 39 448 14T313 -11Q248 -11 199 11T116 71T65 159T48 267Q48 312 56 357T81 445T120 524T174 591Q220 636 281 660T411 685ZM397 587Q358 587 325 572T264 529Q242 507 225 477T195 412T177 342T171 273Q171 235 180 201T208 142T257 102T330 87Q367 87 401 102T461 144Q483 166 500 197T528 263T546 334T552 402Q552 435 545 468T521 528T474 570T397 587Z"  />
<glyph unicode="&#xD7;" horiz-adv-x="596" d="M103 526L301 316L498 526L553 470L354 263L553 56L498 0L300 209L102 0L49 57L246 263L48 470L103 526Z"  />
<glyph unicode="&#xD8;" horiz-adv-x="686" d="M28 -3L102 85Q76 121 62 166T47 273Q47 364 79 445T168 585Q216 633 277 659T406 685Q458 685 497 673T567 636L642 723L703 675L624 582Q674 515 674 404Q674 359 666 315T643 230T605 153T555 88Q509 41 447 15T318 -11Q222 -11 163 36L84 -56L28 -3ZM498 552Q481 569 457 578T398 588Q360 588 327 573T266 532T217 472T183 397Q167 346 166 291T183 183H186L498 552ZM232 119Q249 102 272 94T330 86Q364 86 395 99T453 137T501 194T535 267Q551 315 554 370T541 480H538L232 119Z"  />
<glyph unicode="&#xD9;" horiz-adv-x="639" d="M396 832L472 711H376L263 832H396ZM267 674L192 281Q184 241 184 199Q185 147 214 117T295 87Q358 87 399 132T461 280L536 674H653L578 282Q549 130 477 60T280 -11Q232 -11 193 1T127 39T84 104T68 197Q68 219 70 243T77 290L150 674H267Z"  />
<glyph unicode="&#xDA;" horiz-adv-x="639" d="M572 832L438 710H338L435 832H572ZM267 674L192 281Q184 241 184 199Q185 147 214 117T295 87Q358 87 399 132T461 280L536 674H653L578 282Q549 130 477 60T280 -11Q232 -11 193 1T127 39T84 104T68 197Q68 219 70 243T77 290L150 674H267Z"  />
<glyph unicode="&#xDB;" horiz-adv-x="639" d="M475 832L555 710H469L425 776H423L358 710H264L386 832H475ZM267 674L192 281Q184 241 184 199Q185 147 214 117T295 87Q358 87 399 132T461 280L536 674H653L578 282Q549 130 477 60T280 -11Q232 -11 193 1T127 39T84 104T68 197Q68 219 70 243T77 290L150 674H267Z"  />
<glyph unicode="&#xDC;" horiz-adv-x="639" d="M315 716Q292 716 275 731T258 772Q258 800 277 818T322 836Q348 836 363 819T378 779Q378 751 360 734T315 716ZM512 716Q489 716 472 731T455 772Q455 800 474 818T519 836Q545 836 560 819T575 779Q575 751 557 734T512 716ZM267 674L192 281Q184 241 184 199Q185 147 214 117T295 87Q358 87 399 132T461 280L536 674H653L578 282Q549 130 477 60T280 -11Q232 -11 193 1T127 39T84 104T68 197Q68 219 70 243T77 290L150 674H267Z"  />
<glyph unicode="&#xDD;" horiz-adv-x="546" d="M519 832L384 710H284L382 832H519ZM155 0L208 277L77 674H201L254 482Q265 438 271 413T282 364H284Q298 388 314 417T354 484L475 674H613L324 279L271 0H155Z"  />
<glyph unicode="&#xDE;" horiz-adv-x="535" d="M152 674H266L242 548Q256 550 274 552T315 554Q364 554 403 542T472 504Q524 458 524 382Q524 320 500 274T437 198T345 153T237 138Q215 138 198 139T166 143L138 0H24L152 674ZM184 238Q198 236 214 235T247 233Q280 233 309 242T359 269T394 311T407 366Q407 415 375 437T289 460Q269 460 252 458T224 454L184 238Z"  />
<glyph unicode="&#xDF;" horiz-adv-x="561" d="M20 0L106 454Q117 512 137 561T190 645T267 701T373 721Q412 721 444 710T499 679T534 630T547 568Q547 537 535 509T505 464Q475 450 452 430T429 378Q429 356 437 338T460 300Q479 273 493 240T507 172Q507 126 491 92T447 35T382 1T302 -11Q268 -11 241 -5T196 12L225 98Q241 89 261 85T300 80Q339 80 364 101T389 159Q389 176 383 194T357 240Q334 272 322 299T309 355Q309 404 340 440T413 496Q421 504 426 518T432 556Q432 584 414 605T357 627Q310 627 275 588T224 463L136 0H20Z"  />
<glyph unicode="&#xE0;" horiz-adv-x="540" d="M331 694L402 546H319L212 694H331ZM340 0Q341 22 343 50T349 110H346Q310 42 264 16T172 -11Q106 -11 67 35T28 155Q28 217 49 278T114 388T221 467T371 498Q411 498 450 492T518 476L468 222Q463 195 459 165T452 106T448 49T448 0H340ZM388 403Q379 405 368 406T340 408Q299 408 265 388T204 334T164 260T149 176Q149 138 165 111T219 83Q239 83 261 95T302 132T337 192T362 275L388 403Z"  />
<glyph unicode="&#xE1;" horiz-adv-x="540" d="M516 694L385 546H297L393 694H516ZM340 0Q341 22 343 50T349 110H346Q310 42 264 16T172 -11Q106 -11 67 35T28 155Q28 217 49 278T114 388T221 467T371 498Q411 498 450 492T518 476L468 222Q463 195 459 165T452 106T448 49T448 0H340ZM388 403Q379 405 368 406T340 408Q299 408 265 388T204 334T164 260T149 176Q149 138 165 111T219 83Q239 83 261 95T302 132T337 192T362 275L388 403Z"  />
<glyph unicode="&#xE2;" horiz-adv-x="540" d="M411 694L483 546H404L363 630H361L297 546H211L330 694H411ZM340 0Q341 22 343 50T349 110H346Q310 42 264 16T172 -11Q106 -11 67 35T28 155Q28 217 49 278T114 388T221 467T371 498Q411 498 450 492T518 476L468 222Q463 195 459 165T452 106T448 49T448 0H340ZM388 403Q379 405 368 406T340 408Q299 408 265 388T204 334T164 260T149 176Q149 138 165 111T219 83Q239 83 261 95T302 132T337 192T362 275L388 403Z"  />
<glyph unicode="&#xE3;" horiz-adv-x="540" d="M208 563Q215 616 237 646T295 677Q315 677 329 671T357 656Q368 649 377 644T396 638Q408 638 415 646T427 681H486Q478 624 457 597T398 570Q379 570 364 576T336 590Q325 598 316 603T296 608Q285 608 279 596T268 563H208ZM340 0Q341 22 343 50T349 110H346Q310 42 264 16T172 -11Q106 -11 67 35T28 155Q28 217 49 278T114 388T221 467T371 498Q411 498 450 492T518 476L468 222Q463 195 459 165T452 106T448 49T448 0H340ZM388 403Q379 405 368 406T340 408Q299 408 265 388T204 334T164 260T149 176Q149 138 165 111T219 83Q239 83 261 95T302 132T337 192T362 275L388 403Z"  />
<glyph unicode="&#xE4;" horiz-adv-x="540" d="M245 561Q220 561 203 577T186 619Q186 648 205 666T251 685Q277 685 293 668T309 626Q309 597 291 579T245 561ZM440 561Q415 561 399 577T382 619Q382 648 401 666T447 685Q473 685 488 668T504 626Q504 597 486 579T440 561ZM340 0Q341 22 343 50T349 110H346Q310 42 264 16T172 -11Q106 -11 67 35T28 155Q28 217 49 278T114 388T221 467T371 498Q411 498 450 492T518 476L468 222Q463 195 459 165T452 106T448 49T448 0H340ZM388 403Q379 405 368 406T340 408Q299 408 265 388T204 334T164 260T149 176Q149 138 165 111T219 83Q239 83 261 95T302 132T337 192T362 275L388 403Z"  />
<glyph unicode="&#xE5;" horiz-adv-x="540" d="M353 728Q395 728 425 705T455 636Q454 588 421 562T340 536Q298 536 269 560T239 625Q238 672 270 700T353 728ZM349 684Q326 684 313 668T299 629Q299 609 311 595T344 581Q367 581 381 596T395 635Q395 655 383 669T349 684ZM340 0Q341 22 343 50T349 110H346Q310 42 264 16T172 -11Q106 -11 67 35T28 155Q28 217 49 278T114 388T221 467T371 498Q411 498 450 492T518 476L468 222Q463 195 459 165T452 106T448 49T448 0H340ZM388 403Q379 405 368 406T340 408Q299 408 265 388T204 334T164 260T149 176Q149 138 165 111T219 83Q239 83 261 95T302 132T337 192T362 275L388 403Z"  />
<glyph unicode="&#xE6;" horiz-adv-x="743" d="M663 30Q628 10 584 0T493 -11Q437 -11 394 14T333 85H330Q300 40 253 15T147 -11Q114 -11 88 -1T43 27T15 68T5 119Q5 171 31 208T101 270T202 304T319 314L322 329Q324 341 322 356T309 383T282 404T237 413Q196 413 164 401T105 372L85 448Q119 470 162 484T251 498Q308 498 344 475T393 408H396Q425 452 472 475T573 498Q613 498 642 487T690 458T718 418T727 372Q727 320 702 288T633 240T531 219T407 217Q404 195 405 174T414 134Q444 81 520 81Q567 81 597 90T656 113L663 30ZM307 236Q281 237 249 234T189 219T141 189T122 137Q122 110 138 95T184 79Q222 79 255 106T298 187L307 236ZM614 361Q614 381 599 396T552 412Q524 412 502 401T463 372T436 336T421 299Q459 297 494 298T555 305T598 324T614 361Z"  />
<glyph unicode="&#xE7;" horiz-adv-x="429" d="M367 18Q348 10 321 2T266 -9L238 -47Q264 -53 280 -70T296 -114Q296 -137 286 -154T259 -182T222 -198T181 -204Q158 -204 137 -199T105 -185L127 -134Q139 -142 153 -145T181 -149Q196 -149 208 -142T220 -118Q220 -103 204 -93T151 -80L201 -8Q158 -5 126 11T73 54T41 113T30 184Q30 248 53 305T117 405T214 473T339 498Q371 498 398 492T439 479L409 388Q395 394 378 398T336 403Q294 403 260 386T202 339T165 273T152 197Q152 143 181 114T259 84Q294 84 319 91T362 107L367 18Z"  />
<glyph unicode="&#xE8;" horiz-adv-x="479" d="M297 694L368 546H284L178 694H297ZM402 28Q366 9 321 0T230 -10Q179 -10 142 4T80 45T43 109T30 191Q30 246 49 301T105 399T192 470T306 498Q378 498 420 460T463 361Q463 314 440 283T374 232T273 206T144 200Q142 187 145 166T157 131Q186 81 257 81Q299 81 332 90T391 113L402 28ZM353 360Q353 384 336 397T291 411Q264 411 242 400T202 371T173 331T156 287Q201 286 237 289T299 301T339 323T353 360Z"  />
<glyph unicode="&#xE9;" horiz-adv-x="479" d="M474 694L343 546H255L351 694H474ZM402 28Q366 9 321 0T230 -10Q179 -10 142 4T80 45T43 109T30 191Q30 246 49 301T105 399T192 470T306 498Q378 498 420 460T463 361Q463 314 440 283T374 232T273 206T144 200Q142 187 145 166T157 131Q186 81 257 81Q299 81 332 90T391 113L402 28ZM353 360Q353 384 336 397T291 411Q264 411 242 400T202 371T173 331T156 287Q201 286 237 289T299 301T339 323T353 360Z"  />
<glyph unicode="&#xEA;" horiz-adv-x="479" d="M373 694L445 546H366L325 630H323L260 546H173L292 694H373ZM402 28Q366 9 321 0T230 -10Q179 -10 142 4T80 45T43 109T30 191Q30 246 49 301T105 399T192 470T306 498Q378 498 420 460T463 361Q463 314 440 283T374 232T273 206T144 200Q142 187 145 166T157 131Q186 81 257 81Q299 81 332 90T391 113L402 28ZM353 360Q353 384 336 397T291 411Q264 411 242 400T202 371T173 331T156 287Q201 286 237 289T299 301T339 323T353 360Z"  />
<glyph unicode="&#xEB;" horiz-adv-x="479" d="M402 28Q366 9 321 0T230 -10Q179 -10 142 4T80 45T43 109T30 191Q30 246 49 301T105 399T192 470T306 498Q378 498 420 460T463 361Q463 314 440 283T374 232T273 206T144 200Q142 187 145 166T157 131Q186 81 257 81Q299 81 332 90T391 113L402 28ZM353 360Q353 384 336 397T291 411Q264 411 242 400T202 371T173 331T156 287Q201 286 237 289T299 301T339 323T353 360ZM223 561Q199 561 182 577T165 619Q165 648 184 666T230 685Q256 685 271 668T287 626Q287 597 269 579T223 561ZM419 561Q394 561 377 577T360 619Q360 648 379 666T425 685Q451 685 466 668T482 626Q482 597 464 579T419 561Z"  />
<glyph unicode="&#xEC;" horiz-adv-x="249" d="M159 694L230 546H147L41 694H159ZM20 0L112 487H229L136 0H20Z"  />
<glyph unicode="&#xED;" horiz-adv-x="249" d="M345 694L213 546H126L222 694H345ZM20 0L112 487H229L136 0H20Z"  />
<glyph unicode="&#xEE;" horiz-adv-x="249" d="M243 694L315 546H236L195 630H193L129 546H43L162 694H243ZM20 0L112 487H229L136 0H20Z"  />
<glyph unicode="&#xEF;" horiz-adv-x="249" d="M20 0L112 487H229L136 0H20ZM94 561Q69 561 52 577T35 619Q35 648 54 666T100 685Q126 685 141 668T157 626Q157 597 139 579T94 561ZM289 561Q264 561 248 577T231 619Q231 648 249 666T296 685Q322 685 337 668T353 626Q353 597 335 579T289 561Z"  />
<glyph unicode="&#xF0;" horiz-adv-x="539" d="M240 79Q273 79 299 96T344 142T373 208T385 283Q386 306 384 321T373 352Q364 369 346 381T296 393Q263 393 236 375T190 327T160 261T150 189Q150 144 172 112T240 79ZM138 543L262 597Q245 613 222 627T176 652L230 718Q269 702 301 683T363 639L499 697L519 646L408 598Q454 550 481 483T509 332Q509 255 488 192T429 84T341 14T231 -11Q181 -11 144 5T81 48T42 112T29 190Q29 248 49 299T103 390T185 453T287 478Q309 479 333 472T377 444L380 446Q368 479 351 507T308 558L157 491L138 543Z"  />
<glyph unicode="&#xF1;" horiz-adv-x="550" d="M201 563Q209 616 231 646T289 677Q309 677 323 671T351 656Q362 649 371 644T390 638Q402 638 408 646T421 681H480Q472 624 451 597T392 570Q373 570 357 576T330 590Q319 598 310 603T290 608Q279 608 273 596T262 563H201ZM20 0L83 336Q92 380 97 417T108 487H211L201 399H203Q237 449 282 473T378 498Q430 498 466 466T502 364Q502 347 500 325T493 283L439 0H323L375 275Q377 289 379 304T381 333Q381 363 368 383T320 403Q300 403 279 391T237 357T202 301T178 225L136 0H20Z"  />
<glyph unicode="&#xF2;" horiz-adv-x="543" d="M304 694L375 546H292L185 694H304ZM313 498Q362 498 399 482T462 438T500 373T513 296Q513 234 493 179T435 81T345 14T231 -11Q185 -11 148 4T86 46T46 109T32 190Q32 252 52 308T110 406T199 473T313 498ZM299 408Q264 408 237 387T191 335T162 265T152 193Q152 142 177 111T247 79Q280 79 306 99T352 151T381 221T392 296Q392 315 388 334T372 370T344 397T299 408Z"  />
<glyph unicode="&#xF3;" horiz-adv-x="543" d="M486 694L354 546H266L363 694H486ZM313 498Q362 498 399 482T462 438T500 373T513 296Q513 234 493 179T435 81T345 14T231 -11Q185 -11 148 4T86 46T46 109T32 190Q32 252 52 308T110 406T199 473T313 498ZM299 408Q264 408 237 387T191 335T162 265T152 193Q152 142 177 111T247 79Q280 79 306 99T352 151T381 221T392 296Q392 315 388 334T372 370T344 397T299 408Z"  />
<glyph unicode="&#xF4;" horiz-adv-x="543" d="M390 694L462 546H383L342 630H340L276 546H190L309 694H390ZM313 498Q362 498 399 482T462 438T500 373T513 296Q513 234 493 179T435 81T345 14T231 -11Q185 -11 148 4T86 46T46 109T32 190Q32 252 52 308T110 406T199 473T313 498ZM299 408Q264 408 237 387T191 335T162 265T152 193Q152 142 177 111T247 79Q280 79 306 99T352 151T381 221T392 296Q392 315 388 334T372 370T344 397T299 408Z"  />
<glyph unicode="&#xF5;" horiz-adv-x="543" d="M188 563Q195 616 217 646T276 677Q296 677 309 671T337 656Q348 649 358 644T377 638Q389 638 395 646T408 681H467Q459 624 438 597T379 570Q359 570 344 576T317 590Q306 598 297 603T277 608Q266 608 259 596T248 563H188ZM313 498Q362 498 399 482T462 438T500 373T513 296Q513 234 493 179T435 81T345 14T231 -11Q185 -11 148 4T86 46T46 109T32 190Q32 252 52 308T110 406T199 473T313 498ZM299 408Q264 408 237 387T191 335T162 265T152 193Q152 142 177 111T247 79Q280 79 306 99T352 151T381 221T392 296Q392 315 388 334T372 370T344 397T299 408Z"  />
<glyph unicode="&#xF6;" horiz-adv-x="543" d="M238 561Q213 561 197 577T180 619Q180 648 199 666T245 685Q271 685 286 668T302 626Q302 597 284 579T238 561ZM433 561Q409 561 392 577T375 619Q375 648 394 666T440 685Q466 685 481 668T497 626Q497 597 479 579T433 561ZM313 498Q362 498 399 482T462 438T500 373T513 296Q513 234 493 179T435 81T345 14T231 -11Q185 -11 148 4T86 46T46 109T32 190Q32 252 52 308T110 406T199 473T313 498ZM299 408Q264 408 237 387T191 335T162 265T152 193Q152 142 177 111T247 79Q280 79 306 99T352 151T381 221T392 296Q392 315 388 334T372 370T344 397T299 408Z"  />
<glyph unicode="&#xF7;" horiz-adv-x="596" d="M302 377Q273 377 256 395T238 442Q238 472 255 490T302 508Q331 508 348 490T366 442Q366 413 349 395T302 377ZM49 228V306H555V228H49ZM302 26Q273 26 256 44T238 91Q238 121 255 139T302 157Q331 157 348 139T366 91Q366 62 349 44T302 26Z"  />
<glyph unicode="&#xF8;" horiz-adv-x="543" d="M19 -12L78 57Q32 109 32 194Q32 255 52 310T110 407T198 473T311 498Q347 498 375 490T426 466L484 533L523 499L466 432Q491 403 502 367T513 297Q513 230 491 174T432 76T344 12T239 -11Q198 -11 169 -3T116 23L55 -48L19 -12ZM359 388Q337 412 297 412Q262 412 236 392T190 342T161 277T151 212Q150 176 161 152L163 151L359 388ZM184 101Q208 75 249 75Q280 75 306 93T351 140T382 204T394 275Q394 306 385 335H382L184 101Z"  />
<glyph unicode="&#xF9;" horiz-adv-x="545" d="M305 694L376 546H293L186 694H305ZM524 487L460 151Q452 107 447 70T436 0H333L343 85H341Q306 37 262 13T172 -11Q145 -11 122 -4T82 20T55 63T45 127Q45 167 55 214L107 487H223L173 221Q165 183 165 154Q165 124 178 105T227 85Q247 85 268 96T308 129T341 181T363 250L408 487H524Z"  />
<glyph unicode="&#xFA;" horiz-adv-x="545" d="M484 694L353 546H265L361 694H484ZM524 487L460 151Q452 107 447 70T436 0H333L343 85H341Q306 37 262 13T172 -11Q145 -11 122 -4T82 20T55 63T45 127Q45 167 55 214L107 487H223L173 221Q165 183 165 154Q165 124 178 105T227 85Q247 85 268 96T308 129T341 181T363 250L408 487H524Z"  />
<glyph unicode="&#xFB;" horiz-adv-x="545" d="M395 694L467 546H387L346 630H344L281 546H195L313 694H395ZM524 487L460 151Q452 107 447 70T436 0H333L343 85H341Q306 37 262 13T172 -11Q145 -11 122 -4T82 20T55 63T45 127Q45 167 55 214L107 487H223L173 221Q165 183 165 154Q165 124 178 105T227 85Q247 85 268 96T308 129T341 181T363 250L408 487H524Z"  />
<glyph unicode="&#xFC;" horiz-adv-x="545" d="M238 561Q213 561 196 577T179 619Q179 648 198 666T244 685Q270 685 285 668T301 626Q301 597 283 579T238 561ZM433 561Q408 561 392 577T375 619Q375 648 393 666T440 685Q466 685 481 668T497 626Q497 597 479 579T433 561ZM524 487L460 151Q452 107 447 70T436 0H333L343 85H341Q306 37 262 13T172 -11Q145 -11 122 -4T82 20T55 63T45 127Q45 167 55 214L107 487H223L173 221Q165 183 165 154Q165 124 178 105T227 85Q247 85 268 96T308 129T341 181T363 250L408 487H524Z"  />
<glyph unicode="&#xFD;" horiz-adv-x="472" d="M449 694L317 546H229L326 694H449ZM167 487L205 252Q212 213 216 185T224 131H226Q235 154 245 180T273 247L378 487H501L323 128Q278 38 236 -27T145 -140Q124 -161 102 -175T60 -200T23 -216T-5 -224L-32 -124Q-15 -119 8 -109T54 -82Q79 -64 101 -39T140 15Q145 25 142 38L45 487H167Z"  />
<glyph unicode="&#xFE;" horiz-adv-x="547" d="M150 710H267L210 415H212Q236 451 275 474T363 498Q402 498 431 484T479 445T508 387T517 317Q517 250 496 191T436 86T346 15T234 -11Q207 -11 181 -6T137 10H134L95 -198H-21L150 710ZM152 102Q165 91 186 85T230 78Q264 78 294 98T347 150T382 224T395 307Q395 324 391 341T378 372T355 394T319 403Q297 403 275 391T233 356T198 298T173 218L152 102Z"  />
<glyph unicode="&#xFF;" horiz-adv-x="472" d="M195 561Q170 561 153 577T136 619Q136 648 155 666T201 685Q227 685 242 668T258 626Q258 597 240 579T195 561ZM390 561Q365 561 349 577T332 619Q332 648 350 666T397 685Q423 685 438 668T454 626Q454 597 436 579T390 561ZM167 487L205 252Q212 213 216 185T224 131H226Q235 154 245 180T273 247L378 487H501L323 128Q278 38 236 -27T145 -140Q124 -161 102 -175T60 -200T23 -216T-5 -224L-32 -124Q-15 -119 8 -109T54 -82Q79 -64 101 -39T140 15Q145 25 142 38L45 487H167Z"  />
<glyph unicode="&#x100;" horiz-adv-x="596" d="M525 802L512 734H268L282 802H525ZM188 192L96 0H-28L310 674H456L541 0H419L400 192H188ZM393 282L374 450Q372 477 369 512T364 578H362Q348 548 335 514T307 450L225 282H393Z"  />
<glyph unicode="&#x101;" horiz-adv-x="540" d="M474 655L460 588H226L239 655H474ZM340 0Q341 22 343 50T349 110H346Q310 42 264 16T172 -11Q106 -11 67 35T28 155Q28 217 49 278T114 388T221 467T371 498Q411 498 450 492T518 476L468 222Q463 195 459 165T452 106T448 49T448 0H340ZM388 403Q379 405 368 406T340 408Q299 408 265 388T204 334T164 260T149 176Q149 138 165 111T219 83Q239 83 261 95T302 132T337 192T362 275L388 403Z"  />
<glyph unicode="&#x102;" horiz-adv-x="596" d="M188 192L96 0H-28L310 674H456L541 0H419L400 192H188ZM393 282L374 450Q372 477 369 512T364 578H362Q348 548 335 514T307 450L225 282H393ZM343 841Q342 821 354 805T399 789Q431 789 447 804T469 841H539Q531 793 496 760T393 726Q358 726 334 735T296 759T277 796T275 841H343Z"  />
<glyph unicode="&#x103;" horiz-adv-x="540" d="M293 687Q293 661 304 643T344 625Q377 625 393 644T415 687H480Q471 630 435 596T340 561Q306 561 284 571T248 598T231 638T230 687H293ZM340 0Q341 22 343 50T349 110H346Q310 42 264 16T172 -11Q106 -11 67 35T28 155Q28 217 49 278T114 388T221 467T371 498Q411 498 450 492T518 476L468 222Q463 195 459 165T452 106T448 49T448 0H340ZM388 403Q379 405 368 406T340 408Q299 408 265 388T204 334T164 260T149 176Q149 138 165 111T219 83Q239 83 261 95T302 132T337 192T362 275L388 403Z"  />
<glyph unicode="&#x104;" horiz-adv-x="596" d="M541 0H487Q469 -23 456 -48T443 -94Q443 -134 484 -134Q496 -134 508 -132T529 -125L538 -184Q519 -200 494 -206T444 -213Q401 -213 378 -191T354 -129Q354 -110 361 -90T378 -53T400 -21T419 3L400 192H188L96 0H-28L310 674H456L541 0ZM393 282L374 450Q372 477 369 512T364 578H362Q348 548 335 514T307 450L225 282H393Z"  />
<glyph unicode="&#x105;" horiz-adv-x="540" d="M470 222Q465 195 461 165T454 106T450 49T450 0H419Q398 -22 382 -49T366 -99Q366 -115 376 -124T405 -134Q419 -134 431 -132T453 -125L462 -184Q443 -200 418 -206T368 -213Q325 -213 302 -191T278 -129Q278 -110 285 -90T302 -53T324 -21T343 3Q344 25 346 52T351 110H349Q312 42 266 16T173 -11Q107 -11 68 35T29 155Q29 217 50 278T115 388T222 467T372 498Q412 498 451 492T519 476L470 222ZM388 403Q370 408 341 408Q301 408 266 388T206 334T165 260T150 176Q150 138 166 111T220 83Q241 83 262 95T304 132T339 192T364 275L388 403Z"  />
<glyph unicode="&#x106;" horiz-adv-x="571" d="M589 837L455 714H355L452 837H589ZM512 20Q485 8 441 -1T336 -10Q270 -10 217 9T127 66T69 155T49 273Q49 379 91 464T207 605Q313 685 458 685Q514 685 552 675T605 654L571 560Q554 569 522 576T444 584Q396 584 352 568T272 522Q227 483 201 422T175 287Q175 245 186 209T220 146T280 104T366 89Q403 89 438 95T501 115L512 20Z"  />
<glyph unicode="&#x107;" horiz-adv-x="430" d="M462 694L331 546H243L339 694H462ZM368 17Q347 6 311 -2T228 -10Q182 -10 146 4T84 43T45 104T31 184Q31 248 54 305T118 405T216 473T341 498Q373 498 399 492T440 479L410 388Q396 394 379 398T337 403Q295 403 261 385T203 338T166 273T153 198Q153 143 182 114T260 84Q294 84 319 91T364 107L368 17Z"  />
<glyph unicode="&#x108;" horiz-adv-x="571" d="M483 835L563 712H477L433 778H431L366 712H272L394 835H483ZM512 20Q485 8 441 -1T336 -10Q270 -10 217 9T127 66T69 155T49 273Q49 379 91 464T207 605Q313 685 458 685Q514 685 552 675T605 654L571 560Q554 569 522 576T444 584Q396 584 352 568T272 522Q227 483 201 422T175 287Q175 245 186 209T220 146T280 104T366 89Q403 89 438 95T501 115L512 20Z"  />
<glyph unicode="&#x109;" horiz-adv-x="430" d="M358 694L430 546H351L310 630H308L244 546H158L277 694H358ZM368 17Q347 6 311 -2T228 -10Q182 -10 146 4T84 43T45 104T31 184Q31 248 54 305T118 405T216 473T341 498Q373 498 399 492T440 479L410 388Q396 394 379 398T337 403Q295 403 261 385T203 338T166 273T153 198Q153 143 182 114T260 84Q294 84 319 91T364 107L368 17Z"  />
<glyph unicode="&#x10A;" horiz-adv-x="571" d="M436 718Q412 718 395 734T378 775Q378 803 397 821T442 840Q468 840 483 823T499 782Q499 754 481 736T436 718ZM512 20Q485 8 441 -1T336 -10Q270 -10 217 9T127 66T69 155T49 273Q49 379 91 464T207 605Q313 685 458 685Q514 685 552 675T605 654L571 560Q554 569 522 576T444 584Q396 584 352 568T272 522Q227 483 201 422T175 287Q175 245 186 209T220 146T280 104T366 89Q403 89 438 95T501 115L512 20Z"  />
<glyph unicode="&#x10B;" horiz-adv-x="430" d="M319 560Q294 560 277 576T260 619Q260 648 279 666T326 685Q352 685 367 669T383 626Q383 597 365 579T319 560ZM368 17Q347 6 311 -2T228 -10Q182 -10 146 4T84 43T45 104T31 184Q31 248 54 305T118 405T216 473T341 498Q373 498 399 492T440 479L410 388Q396 394 379 398T337 403Q295 403 261 385T203 338T166 273T153 198Q153 143 182 114T260 84Q294 84 319 91T364 107L368 17Z"  />
<glyph unicode="&#x10C;" horiz-adv-x="571" d="M373 714L293 837H380L423 769H425L490 837H584L462 714H373ZM512 20Q485 8 441 -1T336 -10Q270 -10 217 9T127 66T69 155T49 273Q49 379 91 464T207 605Q313 685 458 685Q514 685 552 675T605 654L571 560Q554 569 522 576T444 584Q396 584 352 568T272 522Q227 483 201 422T175 287Q175 245 186 209T220 146T280 104T366 89Q403 89 438 95T501 115L512 20Z"  />
<glyph unicode="&#x10D;" horiz-adv-x="430" d="M262 546L189 694H269L310 609H312L377 694H463L343 546H262ZM368 17Q347 6 311 -2T228 -10Q182 -10 146 4T84 43T45 104T31 184Q31 248 54 305T118 405T216 473T341 498Q373 498 399 492T440 479L410 388Q396 394 379 398T337 403Q295 403 261 385T203 338T166 273T153 198Q153 143 182 114T260 84Q294 84 319 91T364 107L368 17Z"  />
<glyph unicode="&#x10E;" horiz-adv-x="666" d="M330 710L250 832H337L380 765H383L447 832H542L420 710H330ZM151 664Q233 679 329 679Q493 679 576 598Q611 566 632 518T653 400Q653 304 617 222T516 87Q457 39 381 18T201 -4Q147 -4 101 -1T26 6L151 664ZM160 95Q177 93 195 92T234 91Q372 91 447 174Q487 216 507 274T527 398Q527 440 516 474T480 533T418 571T327 585Q307 585 287 584T252 579L160 95Z"  />
<glyph unicode="&#x10F;" horiz-adv-x="553" d="M566 561Q589 577 604 602T620 659Q620 673 616 684T606 704L688 720Q697 712 704 695T712 658Q712 633 703 611T678 570T644 537T606 514L566 561ZM567 710L465 173Q457 131 451 86T443 0H336L346 87H344Q311 36 268 13T177 -11Q144 -11 117 2T71 38T40 95T29 170Q29 234 51 293T114 398T210 471T333 498Q352 498 372 495T408 484L451 710H567ZM391 389Q380 397 363 402T324 408Q286 408 255 389T200 339T163 269T150 188Q150 144 168 114T228 83Q247 83 268 93T307 124T339 173T362 241L391 389Z"  />
<glyph unicode="&#x110;" horiz-adv-x="676" d="M31 397H110L161 664Q246 679 339 679Q419 679 482 660T584 601Q620 569 641 520T663 401Q663 305 626 223T523 88Q466 41 390 19T211 -4Q155 -4 110 -1T36 7L92 301H12L31 397ZM355 301H209L170 96Q187 93 206 92T246 91Q309 91 363 112T455 175Q495 217 516 275T537 396Q537 439 526 473T490 533T429 571T339 585Q317 585 298 584T262 580L228 397H374L355 301Z"  />
<glyph unicode="&#x111;" horiz-adv-x="544" d="M391 389Q380 397 363 402T324 408Q286 408 255 389T200 339T163 269T150 188Q150 144 168 114T228 83Q247 83 267 93T306 124T339 174T362 241L391 389ZM433 616L451 710H567L549 616H627L614 549H536L465 173Q457 131 451 86T443 0H336L346 87H344Q311 36 268 13T177 -11Q144 -11 117 2T71 38T40 95T29 170Q29 234 51 293T114 398T210 471T333 498Q352 498 372 495T408 484L420 549H230L243 616H433Z"  />
<glyph unicode="&#x112;" horiz-adv-x="496" d="M481 802L467 734H224L237 802H481ZM440 300H198L160 99H432L413 0H24L152 674H526L507 575H250L216 398H459L440 300Z"  />
<glyph unicode="&#x113;" horiz-adv-x="479" d="M437 655L424 588H189L203 655H437ZM402 28Q366 9 321 0T230 -10Q179 -10 142 4T80 45T43 109T30 191Q30 246 49 301T105 399T192 470T306 498Q378 498 420 460T463 361Q463 314 440 283T374 232T273 206T144 200Q142 187 145 166T157 131Q186 81 257 81Q299 81 332 90T391 113L402 28ZM353 360Q353 384 336 397T291 411Q264 411 242 400T202 371T173 331T156 287Q201 286 237 289T299 301T339 323T353 360Z"  />
<glyph unicode="&#x114;" horiz-adv-x="496" d="M294 835Q294 815 306 800T351 784Q383 784 399 798T421 835H491Q487 811 477 791T448 754T405 729T345 720Q310 720 286 729T248 754T229 790T227 835H294ZM440 300H198L160 99H432L413 0H24L152 674H526L507 575H250L216 398H459L440 300Z"  />
<glyph unicode="&#x115;" horiz-adv-x="479" d="M263 687Q262 661 273 643T313 625Q346 625 362 644T385 687H449Q440 630 404 596T309 561Q275 561 253 571T217 598T201 638T200 687H263ZM402 28Q366 9 321 0T230 -10Q179 -10 142 4T80 45T43 109T30 191Q30 246 49 301T105 399T192 470T306 498Q378 498 420 460T463 361Q463 314 440 283T374 232T273 206T144 200Q142 187 145 166T157 131Q186 81 257 81Q299 81 332 90T391 113L402 28ZM353 360Q353 384 336 397T291 411Q264 411 242 400T202 371T173 331T156 287Q201 286 237 289T299 301T339 323T353 360Z"  />
<glyph unicode="&#x116;" horiz-adv-x="496" d="M350 716Q327 716 310 731T292 773Q292 800 311 818T357 837Q383 837 398 820T414 780Q414 752 395 734T350 716ZM440 300H198L160 99H432L413 0H24L152 674H526L507 575H250L216 398H459L440 300Z"  />
<glyph unicode="&#x117;" horiz-adv-x="479" d="M315 560Q291 560 274 576T256 619Q256 648 275 666T322 685Q348 685 364 669T380 626Q380 597 362 579T315 560ZM402 28Q366 9 321 0T230 -10Q179 -10 142 4T80 45T43 109T30 191Q30 246 49 301T105 399T192 470T306 498Q378 498 420 460T463 361Q463 314 440 283T374 232T273 206T144 200Q142 187 145 166T157 131Q186 81 257 81Q299 81 332 90T391 113L402 28ZM353 360Q353 384 336 397T291 411Q264 411 242 400T202 371T173 331T156 287Q201 286 237 289T299 301T339 323T353 360Z"  />
<glyph unicode="&#x118;" horiz-adv-x="496" d="M152 674H526L507 575H250L216 398H459L440 300H198L160 99H432L413 0H395Q361 -23 338 -51T314 -106Q314 -120 322 -128T344 -136Q356 -136 368 -133T389 -126L405 -185Q384 -200 360 -207T309 -214Q268 -214 246 -193T224 -136Q224 -116 232 -96T253 -59T282 -26T313 0H24L152 674Z"  />
<glyph unicode="&#x119;" horiz-adv-x="479" d="M353 360Q353 384 336 397T291 411Q264 411 242 400T202 371T173 331T156 287Q201 286 237 289T299 301T339 323T353 360ZM346 -181Q302 -208 249 -208Q209 -208 188 -187T167 -130Q167 -96 188 -65T241 -10V-9Q235 -10 229 -10T215 -10Q121 -6 76 49T30 191Q30 246 49 301T105 399T192 470T306 498Q378 498 420 460T463 361Q463 314 440 283T375 232T273 206T144 200Q142 187 145 166T157 131Q186 81 257 81Q299 81 332 90T391 113L402 28Q394 23 384 19T353 7Q313 -16 285 -44T257 -99Q257 -113 265 -121T287 -130Q299 -130 311 -128T333 -121L346 -181Z"  />
<glyph unicode="&#x11A;" horiz-adv-x="496" d="M297 710L217 832H304L347 765H350L414 832H509L387 710H297ZM440 300H198L160 99H432L413 0H24L152 674H526L507 575H250L216 398H459L440 300Z"  />
<glyph unicode="&#x11B;" horiz-adv-x="479" d="M262 546L189 694H268L310 609H312L377 694H463L343 546H262ZM402 28Q366 9 321 0T230 -10Q179 -10 142 4T80 45T43 109T30 191Q30 246 49 301T105 399T192 470T306 498Q378 498 420 460T463 361Q463 314 440 283T374 232T273 206T144 200Q142 187 145 166T157 131Q186 81 257 81Q299 81 332 90T391 113L402 28ZM353 360Q353 384 336 397T291 411Q264 411 242 400T202 371T173 331T156 287Q201 286 237 289T299 301T339 323T353 360Z"  />
<glyph unicode="&#x11C;" horiz-adv-x="651" d="M510 832L590 710H504L460 776H458L393 710H299L421 832H510ZM554 30Q519 18 465 6T348 -7Q278 -7 222 12T126 72Q86 110 68 163T49 274Q49 365 83 445T184 582Q240 630 313 655T472 681Q536 681 580 671T642 650L606 552Q582 564 546 572T463 580Q409 580 361 563T275 514Q229 475 203 414T176 283Q176 192 224 142T368 92Q395 92 417 96T454 107L486 276H367L386 370H618L554 30Z"  />
<glyph unicode="&#x11D;" horiz-adv-x="543" d="M395 694L467 546H387L346 630H344L281 546H195L313 694H395ZM39 -87Q61 -100 97 -108T168 -116Q196 -116 221 -109T266 -84T302 -38T326 33L338 88H336Q277 2 183 2Q147 2 119 16T71 53T41 108T30 174Q30 235 51 293T114 396T214 470T349 498Q397 498 440 489T518 464L444 62Q430 -10 408 -65T344 -155Q325 -171 303 -181T258 -198T210 -206T163 -209Q116 -209 76 -200T11 -176L39 -87ZM391 395Q382 400 365 403T327 407Q289 407 257 388T202 339T166 270T153 192Q153 173 157 155T170 124T194 102T231 93Q253 93 274 105T313 138T344 188T364 250L391 395Z"  />
<glyph unicode="&#x11E;" horiz-adv-x="651" d="M386 836Q385 816 397 801T442 785Q474 785 490 800T512 836H582Q578 812 568 792T539 756T496 731T436 722Q401 722 377 731T339 755T320 791T318 836H386ZM554 30Q519 18 465 6T348 -7Q278 -7 222 12T126 72Q86 110 68 163T49 274Q49 365 83 445T184 582Q240 630 313 655T472 681Q536 681 580 671T642 650L606 552Q582 564 546 572T463 580Q409 580 361 563T275 514Q229 475 203 414T176 283Q176 192 224 142T368 92Q395 92 417 96T454 107L486 276H367L386 370H618L554 30Z"  />
<glyph unicode="&#x11F;" horiz-adv-x="543" d="M295 687Q294 661 305 643T345 625Q378 625 394 644T417 687H481Q472 630 436 596T341 561Q307 561 285 571T249 598T233 638T232 687H295ZM39 -87Q61 -100 97 -108T168 -116Q196 -116 221 -109T266 -84T302 -38T326 33L338 88H336Q277 2 183 2Q147 2 119 16T71 53T41 108T30 174Q30 235 51 293T114 396T214 470T349 498Q397 498 440 489T518 464L444 62Q430 -10 408 -65T344 -155Q325 -171 303 -181T258 -198T210 -206T163 -209Q116 -209 76 -200T11 -176L39 -87ZM391 395Q382 400 365 403T327 407Q289 407 257 388T202 339T166 270T153 192Q153 173 157 155T170 124T194 102T231 93Q253 93 274 105T313 138T344 188T364 250L391 395Z"  />
<glyph unicode="&#x120;" horiz-adv-x="651" d="M455 716Q431 716 414 731T397 773Q397 800 416 818T461 837Q487 837 503 820T519 780Q519 752 500 734T455 716ZM554 30Q519 18 465 6T348 -7Q278 -7 222 12T126 72Q86 110 68 163T49 274Q49 365 83 445T184 582Q240 630 313 655T472 681Q536 681 580 671T642 650L606 552Q582 564 546 572T463 580Q409 580 361 563T275 514Q229 475 203 414T176 283Q176 192 224 142T368 92Q395 92 417 96T454 107L486 276H367L386 370H618L554 30Z"  />
<glyph unicode="&#x121;" horiz-adv-x="543" d="M347 560Q322 560 305 576T288 619Q288 648 307 666T354 685Q380 685 395 669T411 626Q411 597 393 579T347 560ZM39 -87Q61 -100 97 -108T168 -116Q196 -116 221 -109T266 -84T302 -38T326 33L338 88H336Q277 2 183 2Q147 2 119 16T71 53T41 108T30 174Q30 235 51 293T114 396T214 470T349 498Q397 498 440 489T518 464L444 62Q430 -10 408 -65T344 -155Q325 -171 303 -181T258 -198T210 -206T163 -209Q116 -209 76 -200T11 -176L39 -87ZM391 395Q382 400 365 403T327 407Q289 407 257 388T202 339T166 270T153 192Q153 173 157 155T170 124T194 102T231 93Q253 93 274 105T313 138T344 188T364 250L391 395Z"  />
<glyph unicode="&#x122;" horiz-adv-x="651" d="M200 -176Q214 -174 228 -169T255 -155T274 -134T282 -105Q282 -90 276 -78T260 -57L349 -41Q358 -49 366 -65T375 -102Q375 -135 360 -158T322 -197T270 -221T213 -231L200 -176ZM554 30Q519 18 465 6T348 -7Q278 -7 222 12T126 72Q86 110 68 163T49 274Q49 365 83 445T184 582Q240 630 313 655T472 681Q536 681 580 671T642 650L606 552Q582 564 546 572T463 580Q409 580 361 563T275 514Q229 475 203 414T176 283Q176 192 224 142T368 92Q395 92 417 96T454 107L486 276H367L386 370H618L554 30Z"  />
<glyph unicode="&#x123;" horiz-adv-x="543" d="M457 667Q442 665 428 660T401 646T382 625T374 596Q374 580 380 568T395 547L311 531Q302 539 294 555T285 593Q285 625 299 648T337 687T389 711T444 721L457 667ZM39 -87Q61 -100 97 -108T168 -116Q196 -116 221 -109T266 -84T302 -38T326 33L338 88H336Q277 2 183 2Q147 2 119 16T71 53T41 108T30 174Q30 235 51 293T114 396T214 470T349 498Q397 498 440 489T518 464L444 62Q430 -10 408 -65T344 -155Q325 -171 303 -181T258 -198T210 -206T163 -209Q116 -209 76 -200T11 -176L39 -87ZM391 395Q382 400 365 403T327 407Q289 407 257 388T202 339T166 270T153 192Q153 173 157 155T170 124T194 102T231 93Q253 93 274 105T313 138T344 188T364 250L391 395Z"  />
<glyph unicode="&#x124;" horiz-adv-x="648" d="M479 832L559 710H473L429 776H427L362 710H268L390 832H479ZM269 674L217 402H491L543 674H660L532 0H415L472 298H197L141 0H25L153 674H269Z"  />
<glyph unicode="&#x125;" horiz-adv-x="550" d="M283 861L363 738H277L233 804H231L166 738H72L194 861H283ZM20 0L154 710H271L214 414H216Q247 452 287 475T379 498Q404 498 426 490T465 466T491 425T501 367Q501 348 499 325T493 281L439 0H323L375 273Q377 287 379 303T381 337Q381 365 367 384T320 403Q299 403 277 391T236 357T202 303T180 232L136 0H20Z"  />
<glyph unicode="&#x126;" horiz-adv-x="648" d="M231 475L214 383H487L505 475H231ZM129 550L153 674H269L246 550H520L543 674H660L636 550H705L691 475H622L532 0H415L468 279H194L141 0H25L115 475H38L53 550H129Z"  />
<glyph unicode="&#x127;" horiz-adv-x="550" d="M137 615L154 710H271L253 615H427L414 548H240L214 414H216Q247 452 287 475T379 498Q404 498 426 490T465 466T491 425T501 367Q501 348 499 325T493 281L439 0H323L375 273Q377 287 379 303T381 337Q381 365 367 384T320 403Q299 403 277 391T236 357T202 303T180 232L136 0H20L124 547H36L49 615H137Z"  />
<glyph unicode="&#x128;" horiz-adv-x="256" d="M83 714Q92 769 116 798T174 828Q195 828 208 822T236 808Q247 800 257 795T278 789Q290 789 298 798T312 831H371Q362 774 339 747T278 720Q258 720 244 725T217 739Q205 747 196 752T176 757Q154 757 143 714H83ZM267 674L139 0H22L150 674H267Z"  />
<glyph unicode="&#x129;" horiz-adv-x="249" d="M60 563Q67 616 90 646T148 677Q168 677 182 671T210 656Q221 649 230 644T249 638Q261 638 267 646T280 681H339Q331 624 310 597T251 570Q232 570 216 576T189 590Q178 598 169 603T149 608Q138 608 132 596T121 563H60ZM20 0L112 487H229L136 0H20Z"  />
<glyph unicode="&#x12A;" horiz-adv-x="256" d="M356 802L343 734H100L113 802H356ZM267 674L139 0H22L150 674H267Z"  />
<glyph unicode="&#x12B;" horiz-adv-x="249" d="M20 0L112 487H229L136 0H20ZM322 655L309 588H74L88 655H322Z"  />
<glyph unicode="&#x12C;" horiz-adv-x="256" d="M174 838Q173 818 185 803T230 787Q262 787 278 801T300 838H370Q366 814 356 794T327 757T284 732T224 723Q189 723 165 732T127 757T108 793T106 838H174ZM267 674L139 0H22L150 674H267Z"  />
<glyph unicode="&#x12D;" horiz-adv-x="249" d="M147 687Q147 661 158 643T198 625Q230 625 247 644T269 687H334Q325 630 289 596T193 561Q159 561 137 571T102 598T85 638T84 687H147ZM20 0L112 487H229L136 0H20Z"  />
<glyph unicode="&#x12E;" horiz-adv-x="256" d="M139 0H91Q73 -22 60 -47T47 -94Q47 -134 88 -134Q101 -134 112 -132T133 -125L142 -184Q123 -200 98 -206T48 -213Q6 -213 -17 -191T-41 -129Q-41 -110 -34 -90T-17 -53T4 -21T23 3L150 674H267L139 0Z"  />
<glyph unicode="&#x12F;" horiz-adv-x="249" d="M191 561Q162 561 145 579T127 626Q128 659 150 680T202 701Q231 701 249 683T267 635Q266 600 245 581T191 561ZM136 0H89Q71 -22 58 -47T45 -94Q45 -134 86 -134Q98 -134 110 -132T131 -125L140 -184Q121 -200 96 -206T46 -213Q3 -213 -20 -191T-44 -129Q-44 -110 -37 -90T-20 -53T2 -21T21 3L112 487H229L136 0Z"  />
<glyph unicode="&#x130;" horiz-adv-x="256" d="M228 716Q204 716 187 731T170 773Q170 800 189 818T234 837Q260 837 275 820T291 780Q291 752 273 734T228 716ZM267 674L139 0H22L150 674H267Z"  />
<glyph unicode="&#x131;" horiz-adv-x="249" d="M20 0L112 487H229L136 0H20Z"  />
<glyph unicode="&#x132;" horiz-adv-x="639" d="M267 674L139 0H22L150 674H267ZM246 105Q262 99 282 96T328 92Q378 92 410 122T457 234L540 674H657L570 221Q558 159 539 115T490 43T421 2T328 -11Q297 -11 267 -6T222 6L246 105Z"  />
<glyph unicode="&#x133;" horiz-adv-x="502" d="M20 0L112 487H229L136 0H20ZM191 557Q164 557 147 574T131 619Q131 651 151 670T201 690Q228 690 245 673T263 627Q262 595 241 576T191 557ZM487 487L397 10Q386 -52 371 -92T332 -159Q309 -185 276 -197T208 -209Q192 -209 176 -208T146 -202L159 -113Q174 -116 194 -116Q208 -116 220 -112T243 -94T263 -59T279 -2L371 487H487ZM445 557Q418 557 401 574T385 619Q385 651 405 670T455 690Q482 690 499 673T517 627Q516 595 495 576T445 557Z"  />
<glyph unicode="&#x134;" horiz-adv-x="383" d="M414 832L494 710H408L363 776H361L297 710H202L325 832H414ZM-10 105Q7 99 27 96T72 92Q123 92 154 122T201 234L285 674H401L315 221Q292 97 235 43T73 -11Q41 -11 11 -6T-33 6L-10 105Z"  />
<glyph unicode="&#x135;" horiz-adv-x="254" d="M239 487L149 10Q137 -52 122 -92T83 -159Q60 -185 28 -197T-40 -209Q-56 -209 -72 -208T-103 -202L-89 -113Q-76 -116 -54 -116Q-40 -116 -28 -112T-5 -94T15 -59T30 -2L123 487H239ZM245 694L317 546H239L198 635H196L132 546H47L166 694H245Z"  />
<glyph unicode="&#x136;" horiz-adv-x="556" d="M122 -176Q136 -174 150 -169T176 -155T195 -134T203 -105Q203 -90 197 -78T181 -57L270 -41Q280 -49 288 -65T297 -102Q297 -135 282 -158T244 -197T192 -221T135 -231L122 -176ZM152 674H267L208 361H212Q228 383 244 401T275 438L485 674H630L352 383L516 0H389L261 310L185 239L139 0H24L152 674Z"  />
<glyph unicode="&#x137;" horiz-adv-x="496" d="M92 -176Q106 -174 120 -169T146 -155T165 -134T173 -105Q173 -90 167 -78T151 -57L240 -41Q250 -49 258 -65T267 -102Q267 -135 252 -158T214 -197T162 -221T105 -231L92 -176ZM20 0L155 710H270L188 276H190Q201 290 212 303T234 328L380 487H524L314 286L454 0H325L225 223L168 169L136 0H20Z"  />
<glyph unicode="&#x138;" horiz-adv-x="496" d="M20 0L112 487H228L188 276H190Q201 290 212 303T234 328L380 487H524L314 286L454 0H325L225 223L168 169L136 0H20Z"  />
<glyph unicode="&#x139;" horiz-adv-x="467" d="M412 832L278 710H177L275 832H412ZM152 674H269L160 102H425L406 0H24L152 674Z"  />
<glyph unicode="&#x13A;" horiz-adv-x="249" d="M391 868L257 745H156L254 868H391ZM20 0L156 710H272L137 0H20Z"  />
<glyph unicode="&#x13B;" horiz-adv-x="467" d="M87 -176Q101 -174 115 -169T141 -155T160 -134T168 -105Q168 -90 162 -78T146 -57L235 -41Q245 -49 253 -65T262 -102Q262 -135 247 -158T209 -197T157 -221T100 -231L87 -176ZM152 674H269L160 102H425L406 0H24L152 674Z"  />
<glyph unicode="&#x13C;" horiz-adv-x="249" d="M-36 -176Q-22 -174 -8 -169T18 -155T37 -134T45 -105Q45 -90 39 -78T23 -57L112 -41Q121 -49 130 -65T139 -102Q139 -135 124 -158T86 -197T33 -221T-24 -231L-36 -176ZM20 0L156 710H272L137 0H20Z"  />
<glyph unicode="&#x13D;" horiz-adv-x="467" d="M298 544Q312 546 326 551T353 565T372 586T380 615Q380 630 374 642T358 663L447 679Q456 671 464 655T473 617Q473 585 458 562T420 523T368 499T311 489L298 544ZM152 674H269L160 102H425L406 0H24L152 674Z"  />
<glyph unicode="&#x13E;" horiz-adv-x="256" d="M274 559Q294 573 311 599T328 659Q328 673 324 684T314 704L396 720Q405 712 412 695T419 658Q419 629 409 606T384 564T351 533T316 514L274 559ZM20 0L156 710H272L137 0H20Z"  />
<glyph unicode="&#x13F;" horiz-adv-x="469" d="M365 311Q341 311 324 327T307 369Q307 396 326 414T371 433Q397 433 412 416T428 376Q428 347 410 329T365 311ZM152 674H269L160 102H425L406 0H24L152 674Z"  />
<glyph unicode="&#x140;" horiz-adv-x="315" d="M301 301Q278 301 262 316T246 358Q246 386 264 404T308 422Q333 422 347 406T362 365Q362 336 345 319T301 301ZM20 0L156 710H272L137 0H20Z"  />
<glyph unicode="&#x141;" horiz-adv-x="476" d="M33 0L81 251L-9 195L9 283L98 339L161 674H278L229 421L369 509L353 420L212 332L169 102H434L415 0H33Z"  />
<glyph unicode="&#x142;" horiz-adv-x="260" d="M26 0L74 253L0 201L17 291L91 343L162 710H278L225 435L305 490L288 400L208 344L142 0H26Z"  />
<glyph unicode="&#x143;" horiz-adv-x="651" d="M579 832L444 710H344L442 832H579ZM24 0L152 674H286L404 361Q426 299 440 250T465 150H467Q470 200 476 252T497 378L553 674H663L535 0H416L295 319Q283 352 274 379T258 432T244 483T231 536L227 535Q222 487 212 425T188 288L133 0H24Z"  />
<glyph unicode="&#x144;" horiz-adv-x="550" d="M497 694L365 546H278L374 694H497ZM20 0L83 336Q92 380 97 417T108 487H211L201 399H203Q237 449 282 473T378 498Q430 498 466 466T502 364Q502 347 500 325T493 283L439 0H323L375 275Q377 289 379 304T381 333Q381 363 368 383T320 403Q300 403 279 391T237 357T202 301T178 225L136 0H20Z"  />
<glyph unicode="&#x145;" horiz-adv-x="651" d="M174 -176Q188 -174 202 -169T229 -155T248 -134T256 -105Q256 -90 250 -78T234 -57L322 -41Q332 -49 340 -65T349 -102Q349 -135 334 -158T296 -197T244 -221T187 -231L174 -176ZM24 0L152 674H286L404 361Q426 299 440 250T465 150H467Q470 200 476 252T497 378L553 674H663L535 0H416L295 319Q283 352 274 379T258 432T244 483T231 536L227 535Q222 487 212 425T188 288L133 0H24Z"  />
<glyph unicode="&#x146;" horiz-adv-x="550" d="M119 -176Q133 -174 147 -169T173 -155T192 -134T200 -105Q200 -90 194 -78T178 -57L267 -41Q277 -49 285 -65T294 -102Q294 -135 279 -158T241 -197T189 -221T132 -231L119 -176ZM20 0L83 336Q92 380 97 417T108 487H211L201 399H203Q237 449 282 473T378 498Q430 498 466 466T502 364Q502 347 500 325T493 283L439 0H323L375 275Q377 289 379 304T381 333Q381 363 368 383T320 403Q300 403 279 391T237 357T202 301T178 225L136 0H20Z"  />
<glyph unicode="&#x147;" horiz-adv-x="651" d="M371 710L291 832H378L421 765H424L488 832H583L460 710H371ZM24 0L152 674H286L404 361Q426 299 440 250T465 150H467Q470 200 476 252T497 378L553 674H663L535 0H416L295 319Q283 352 274 379T258 432T244 483T231 536L227 535Q222 487 212 425T188 288L133 0H24Z"  />
<glyph unicode="&#x148;" horiz-adv-x="550" d="M278 546L206 694H285L326 609H329L393 694H479L360 546H278ZM20 0L83 336Q92 380 97 417T108 487H211L201 399H203Q237 449 282 473T378 498Q430 498 466 466T502 364Q502 347 500 325T493 283L439 0H323L375 275Q377 289 379 304T381 333Q381 363 368 383T320 403Q300 403 279 391T237 357T202 301T178 225L136 0H20Z"  />
<glyph unicode="&#x149;" horiz-adv-x="550" d="M61 598Q79 604 95 622T112 668Q112 683 106 696T91 718L175 733Q184 725 192 709T201 671Q201 639 189 616T157 577T116 553T75 543L61 598ZM20 0L83 336Q92 380 97 417T108 487H211L201 399H203Q237 449 282 473T378 498Q430 498 466 466T502 364Q502 347 500 325T493 283L439 0H323L375 275Q377 289 379 304T381 333Q381 363 368 383T320 403Q300 403 279 391T237 357T202 301T178 225L136 0H20Z"  />
<glyph unicode="&#x14A;" horiz-adv-x="651" d="M280 -111Q331 -106 366 -81T416 -5L295 319Q283 352 274 379T257 432T243 483T231 536L227 535Q222 487 212 425T188 288L133 0H24L152 674H286L404 361Q426 299 440 250T465 150H467Q470 200 476 252T497 378L553 674H663L542 37Q529 -32 505 -78T448 -151T375 -191T290 -205L280 -111Z"  />
<glyph unicode="&#x14B;" horiz-adv-x="550" d="M204 -88Q229 -85 249 -78T286 -55T313 -14T332 48L375 275Q377 289 379 304T381 333Q381 363 368 383T320 403Q300 403 279 391T237 357T202 301T178 225L136 0H20L83 336Q91 380 97 417T108 487H211L201 399H203Q237 449 281 473T377 498Q403 498 426 490T466 466T492 424T502 363Q502 347 500 325T493 283L449 52Q437 -14 415 -58T363 -129T296 -168T215 -184L204 -88Z"  />
<glyph unicode="&#x14C;" horiz-adv-x="688" d="M566 802L553 734H310L323 802H566ZM411 685Q478 685 528 663T611 603T660 515T676 406Q676 361 668 316T645 229T607 150T554 84Q508 39 448 14T313 -11Q248 -11 199 11T116 71T65 159T48 267Q48 312 56 357T81 445T120 524T174 591Q220 636 281 660T411 685ZM397 587Q358 587 325 572T264 529Q242 507 225 477T195 412T177 342T171 273Q171 235 180 201T208 142T257 102T330 87Q367 87 401 102T461 144Q483 166 500 197T528 263T546 334T552 402Q552 435 545 468T521 528T474 570T397 587Z"  />
<glyph unicode="&#x14D;" horiz-adv-x="543" d="M469 655L456 588H221L235 655H469ZM313 498Q362 498 399 482T462 438T500 373T513 296Q513 234 493 179T435 81T345 14T231 -11Q185 -11 148 4T86 46T46 109T32 190Q32 252 52 308T110 406T199 473T313 498ZM299 408Q264 408 237 387T191 335T162 265T152 193Q152 142 177 111T247 79Q280 79 306 99T352 151T381 221T392 296Q392 315 388 334T372 370T344 397T299 408Z"  />
<glyph unicode="&#x14E;" horiz-adv-x="688" d="M384 839Q383 819 395 804T440 788Q473 788 489 802T511 839H580Q576 815 566 795T537 758T494 733T434 724Q399 724 376 733T338 758T319 794T316 839H384ZM411 685Q478 685 528 663T611 603T660 515T676 406Q676 361 668 316T645 229T607 150T554 84Q508 39 448 14T313 -11Q248 -11 199 11T116 71T65 159T48 267Q48 312 56 357T81 445T120 524T174 591Q220 636 281 660T411 685ZM397 587Q358 587 325 572T264 529Q242 507 225 477T195 412T177 342T171 273Q171 235 180 201T208 142T257 102T330 87Q367 87 401 102T461 144Q483 166 500 197T528 263T546 334T552 402Q552 435 545 468T521 528T474 570T397 587Z"  />
<glyph unicode="&#x14F;" horiz-adv-x="543" d="M292 687Q292 661 303 643T343 625Q375 625 392 644T414 687H479Q469 630 433 596T338 561Q304 561 282 571T246 598T230 638T229 687H292ZM313 498Q362 498 399 482T462 438T500 373T513 296Q513 234 493 179T435 81T345 14T231 -11Q185 -11 148 4T86 46T46 109T32 190Q32 252 52 308T110 406T199 473T313 498ZM299 408Q264 408 237 387T191 335T162 265T152 193Q152 142 177 111T247 79Q280 79 306 99T352 151T381 221T392 296Q392 315 388 334T372 370T344 397T299 408Z"  />
<glyph unicode="&#x150;" horiz-adv-x="688" d="M500 833L376 717H289L380 833H500ZM667 833L543 717H456L546 833H667ZM411 685Q478 685 528 663T611 603T660 515T676 406Q676 361 668 316T645 229T607 150T554 84Q508 39 448 14T313 -11Q248 -11 199 11T116 71T65 159T48 267Q48 312 56 357T81 445T120 524T174 591Q220 636 281 660T411 685ZM397 587Q358 587 325 572T264 529Q242 507 225 477T195 412T177 342T171 273Q171 235 180 201T208 142T257 102T330 87Q367 87 401 102T461 144Q483 166 500 197T528 263T546 334T552 402Q552 435 545 468T521 528T474 570T397 587Z"  />
<glyph unicode="&#x151;" horiz-adv-x="543" d="M384 693L261 545H189L277 693H384ZM545 693L423 545H350L438 693H545ZM313 498Q362 498 399 482T462 438T500 373T513 296Q513 234 493 179T435 81T345 14T231 -11Q185 -11 148 4T86 46T46 109T32 190Q32 252 52 308T110 406T199 473T313 498ZM299 408Q264 408 237 387T191 335T162 265T152 193Q152 142 177 111T247 79Q280 79 306 99T352 151T381 221T392 296Q392 315 388 334T372 370T344 397T299 408Z"  />
<glyph unicode="&#x152;" horiz-adv-x="890" d="M807 0H466Q452 0 439 -1T408 -4Q391 -7 373 -8T332 -9Q261 -9 207 13T117 73T63 164T44 275Q44 356 71 430T150 560T279 649T454 683Q483 683 501 682T537 678Q558 676 573 675T605 674H920L901 575H638L605 398H852L834 299H586L549 99H825L807 0ZM522 576Q508 581 491 583T445 585Q380 585 329 560T242 494T187 398T168 283Q168 242 179 207T215 145T275 104T360 89Q380 89 397 91T432 97L522 576Z"  />
<glyph unicode="&#x153;" horiz-adv-x="814" d="M737 30Q702 10 658 0T571 -11Q517 -11 473 12T407 88H405Q372 37 324 13T223 -11Q180 -11 145 4T84 46T45 111T31 194Q31 257 51 312T107 409T191 474T296 498Q356 498 397 472T456 397H458Q490 445 540 471T645 498Q685 498 714 487T762 456T789 414T798 368Q798 315 771 283T699 233T598 209T483 204Q480 186 483 167T494 131Q508 108 534 95T597 82Q639 82 670 91T727 113L737 30ZM243 80Q277 80 304 101T349 155T377 224T387 295Q387 317 383 337T368 374T341 399T298 409Q263 409 236 389T190 339T161 271T151 197Q151 145 176 113T243 80ZM689 359Q689 381 673 396T623 411Q597 411 576 400T539 372T512 333T495 290Q531 290 566 292T628 301T672 322T689 359Z"  />
<glyph unicode="&#x154;" horiz-adv-x="556" d="M510 832L376 710H276L373 832H510ZM151 663Q183 671 227 675T317 679Q366 679 410 669T486 635Q515 615 532 585T550 513Q550 476 538 445T504 390T455 348T394 320L393 317Q426 304 441 271T462 189Q465 157 467 128T473 73T479 29T486 0H366Q362 12 358 56T348 161Q344 226 321 252T250 278H193L140 0H25L151 663ZM210 367H276Q310 367 338 377T386 404T417 445T428 496Q428 543 396 564T313 586Q272 586 251 580L210 367Z"  />
<glyph unicode="&#x155;" horiz-adv-x="347" d="M393 694L262 546H174L270 694H393ZM20 0L77 300Q87 352 92 403T102 487H203Q201 462 199 437T192 384H195Q220 434 258 466T348 498Q354 498 360 498T373 496L350 382Q345 383 340 383T328 384Q297 384 272 369T227 329T194 269T173 196L136 0H20Z"  />
<glyph unicode="&#x156;" horiz-adv-x="556" d="M122 -176Q136 -174 150 -169T176 -155T195 -134T203 -105Q203 -90 197 -78T182 -57L270 -41Q280 -49 288 -65T297 -102Q297 -135 282 -158T244 -197T192 -221T135 -231L122 -176ZM151 663Q183 671 227 675T317 679Q366 679 410 669T486 635Q515 615 532 585T550 513Q550 476 538 445T504 390T455 348T394 320L393 317Q426 304 441 271T462 189Q465 157 467 128T473 73T479 29T486 0H366Q362 12 358 56T348 161Q344 226 321 252T250 278H193L140 0H25L151 663ZM210 367H276Q310 367 338 377T386 404T417 445T428 496Q428 543 396 564T313 586Q272 586 251 580L210 367Z"  />
<glyph unicode="&#x157;" horiz-adv-x="347" d="M-13 -176Q1 -174 15 -169T41 -155T60 -134T68 -105Q68 -90 62 -78T47 -57L135 -41Q145 -49 153 -65T162 -102Q162 -135 147 -158T109 -197T57 -221T0 -231L-13 -176ZM20 0L77 300Q87 352 92 403T102 487H203Q201 462 199 437T192 384H195Q220 434 258 466T348 498Q354 498 360 498T373 496L350 382Q345 383 340 383T328 384Q297 384 272 369T227 329T194 269T173 196L136 0H20Z"  />
<glyph unicode="&#x158;" horiz-adv-x="556" d="M292 710L212 832H299L342 765H345L409 832H504L381 710H292ZM151 663Q183 671 227 675T317 679Q366 679 410 669T486 635Q515 615 532 585T550 513Q550 476 538 445T504 390T455 348T394 320L393 317Q426 304 441 271T462 189Q465 157 467 128T473 73T479 29T486 0H366Q362 12 358 56T348 161Q344 226 321 252T250 278H193L140 0H25L151 663ZM210 367H276Q310 367 338 377T386 404T417 445T428 496Q428 543 396 564T313 586Q272 586 251 580L210 367Z"  />
<glyph unicode="&#x159;" horiz-adv-x="347" d="M197 546L124 694H203L244 609H247L311 694H397L278 546H197ZM20 0L77 300Q87 352 92 403T102 487H203Q201 462 199 437T192 384H195Q220 434 258 466T348 498Q354 498 360 498T373 496L350 382Q345 383 340 383T328 384Q297 384 272 369T227 329T194 269T173 196L136 0H20Z"  />
<glyph unicode="&#x15A;" horiz-adv-x="490" d="M497 833L362 710H262L360 833H497ZM45 133Q74 114 113 102T197 90Q221 90 244 96T284 115T311 147T322 190Q322 223 300 248T227 299Q168 331 129 373T90 475Q90 523 109 562T163 628T242 670T338 685Q395 685 431 674T488 651L450 554Q433 563 402 574T328 584Q272 584 242 557T212 496Q212 461 238 438T313 387Q375 355 409 313T444 208Q444 157 425 117T371 49T289 5T184 -10Q122 -10 75 4T5 37L45 133Z"  />
<glyph unicode="&#x15B;" horiz-adv-x="397" d="M407 694L276 546H188L284 694H407ZM32 109Q51 98 83 87T149 76Q184 77 204 94T224 136Q224 159 210 175T160 211Q118 233 91 264T64 338Q64 373 78 402T119 453T182 486T261 498Q299 498 329 491T376 473L346 389Q332 397 309 404T255 411Q222 411 202 395T181 354Q181 334 197 319T244 287Q284 265 314 234T345 156Q345 116 329 85T286 33T220 1T138 -10Q95 -10 59 0T2 25L32 109Z"  />
<glyph unicode="&#x15C;" horiz-adv-x="490" d="M400 832L480 710H394L349 776H347L283 710H189L311 832H400ZM45 133Q74 114 113 102T197 90Q221 90 244 96T284 115T311 147T322 190Q322 223 300 248T227 299Q168 331 129 373T90 475Q90 523 109 562T163 628T242 670T338 685Q395 685 431 674T488 651L450 554Q433 563 402 574T328 584Q272 584 242 557T212 496Q212 461 238 438T313 387Q375 355 409 313T444 208Q444 157 425 117T371 49T289 5T184 -10Q122 -10 75 4T5 37L45 133Z"  />
<glyph unicode="&#x15D;" horiz-adv-x="397" d="M319 694L391 546H311L270 630H268L205 546H119L237 694H319ZM32 109Q51 98 83 87T149 76Q184 77 204 94T224 136Q224 159 210 175T160 211Q118 233 91 264T64 338Q64 373 78 402T119 453T182 486T261 498Q299 498 329 491T376 473L346 389Q332 397 309 404T255 411Q222 411 202 395T181 354Q181 334 197 319T244 287Q284 265 314 234T345 156Q345 116 329 85T286 33T220 1T138 -10Q95 -10 59 0T2 25L32 109Z"  />
<glyph unicode="&#x15E;" horiz-adv-x="490" d="M450 554Q433 563 402 574T328 584Q272 584 242 557T212 496Q212 461 238 438T313 387Q375 355 409 313T444 208Q444 123 392 68T253 -4L223 -46Q249 -52 265 -69T281 -113Q281 -137 271 -154T243 -182T205 -198T162 -204Q139 -204 120 -198T90 -184L112 -133Q136 -149 165 -149Q180 -149 192 -142T205 -117Q205 -103 189 -93T136 -80L183 -10H173Q155 -10 132 -7T85 2T41 17T5 37L45 133Q74 114 113 102T197 90Q221 90 244 96T284 115T311 147T322 190Q322 223 300 248T227 299Q168 331 129 373T90 475Q90 523 109 562T163 628T242 670T338 685Q395 685 431 674T488 651L450 554Z"  />
<glyph unicode="&#x15F;" horiz-adv-x="397" d="M346 389Q332 397 309 404T255 411Q222 411 202 395T181 354Q181 334 197 319T244 287Q284 266 314 234T345 156Q345 91 306 51T203 -4L173 -46Q199 -52 215 -69T231 -111Q231 -135 221 -152T193 -180T155 -196T112 -201Q89 -201 70 -196T40 -182L62 -133Q86 -149 115 -149Q130 -149 142 -141T155 -117Q155 -102 139 -93T86 -80L133 -10H129Q112 -10 94 -7T59 0T26 11T2 25L32 109Q51 98 83 87T149 76Q184 77 204 94T224 136Q224 159 210 175T160 211Q118 234 91 265T64 338Q64 373 78 402T119 453T182 486T261 498Q299 498 329 491T376 473L346 389Z"  />
<glyph unicode="&#x160;" horiz-adv-x="490" d="M284 710L204 832H291L334 765H336L401 832H495L373 710H284ZM45 133Q74 114 113 102T197 90Q221 90 244 96T284 115T311 147T322 190Q322 223 300 248T227 299Q168 331 129 373T90 475Q90 523 109 562T163 628T242 670T338 685Q395 685 431 674T488 651L450 554Q433 563 402 574T328 584Q272 584 242 557T212 496Q212 461 238 438T313 387Q375 355 409 313T444 208Q444 157 425 117T371 49T289 5T184 -10Q122 -10 75 4T5 37L45 133Z"  />
<glyph unicode="&#x161;" horiz-adv-x="397" d="M214 546L142 694H221L262 609H265L329 694H415L296 546H214ZM32 109Q51 98 83 87T149 76Q184 77 204 94T224 136Q224 159 210 175T160 211Q118 233 91 264T64 338Q64 373 78 402T119 453T182 486T261 498Q299 498 329 491T376 473L346 389Q332 397 309 404T255 411Q222 411 202 395T181 354Q181 334 197 319T244 287Q284 265 314 234T345 156Q345 116 329 85T286 33T220 1T138 -10Q95 -10 59 0T2 25L32 109Z"  />
<glyph unicode="&#x162;" horiz-adv-x="503" d="M577 674L557 572H369L261 0H239L205 -47Q230 -53 246 -70T263 -111Q263 -136 253 -153T225 -182T186 -199T144 -204Q121 -204 102 -199T72 -185L94 -134Q116 -149 147 -149Q162 -149 174 -142T186 -118Q186 -103 170 -94T117 -81L172 0H144L253 572H66L86 674H577Z"  />
<glyph unicode="&#x163;" horiz-adv-x="333" d="M188 200Q185 183 183 165T180 131Q180 111 190 100T223 88Q234 88 244 88T263 90L252 -1Q240 -6 220 -8T179 -11L152 -47Q178 -53 194 -70T210 -111Q210 -136 200 -153T172 -182T134 -199T92 -204Q69 -204 50 -199T19 -185L41 -134Q65 -149 94 -149Q109 -149 121 -142T134 -118Q134 -103 118 -94T65 -81L119 -1Q89 11 75 35T60 89Q60 110 62 131T71 180L113 397H47L64 487H130L150 592L269 621L244 487H354L336 397H227L188 200Z"  />
<glyph unicode="&#x164;" horiz-adv-x="503" d="M293 710L213 832H300L343 765H346L410 832H504L382 710H293ZM253 572H66L86 674H577L557 572H369L261 0H144L253 572Z"  />
<glyph unicode="&#x165;" horiz-adv-x="333" d="M320 589Q338 597 351 615T365 656Q365 671 360 684T346 707L427 723Q438 715 446 697T455 659Q455 631 444 610T417 573T381 550T346 538L320 589ZM269 621L244 487H354L336 397H227L188 200Q185 183 183 165T180 131Q180 111 190 100T223 88Q234 88 244 88T263 90L252 -1Q239 -6 218 -8T176 -11Q116 -11 88 18T60 89Q60 110 62 131T71 180L113 397H47L64 487H130L150 592L269 621Z"  />
<glyph unicode="&#x166;" horiz-adv-x="503" d="M369 572L333 379H460L445 304H318L261 0H144L202 304H81L96 379H216L253 572H66L86 674H577L557 572H369Z"  />
<glyph unicode="&#x167;" horiz-adv-x="333" d="M227 397L209 307H301L288 240H196L188 200Q185 183 183 165T180 131Q180 111 190 100T223 88Q234 88 244 88T263 90L252 -1Q239 -6 218 -8T176 -11Q116 -11 88 18T60 89Q60 110 62 131T71 180L83 240H27L40 307H96L113 397H47L64 487H130L150 592L269 621L244 487H354L336 397H227Z"  />
<glyph unicode="&#x168;" horiz-adv-x="639" d="M281 715Q290 771 314 800T373 830Q394 830 407 824T434 810Q445 802 455 797T476 791Q489 791 496 800T511 833H570Q561 775 538 749T477 722Q457 722 443 727T415 740Q403 748 394 753T374 759Q351 757 342 715H281ZM267 674L192 281Q184 241 184 199Q185 147 214 117T295 87Q358 87 399 132T461 280L536 674H653L578 282Q549 130 477 60T280 -11Q232 -11 193 1T127 39T84 104T68 197Q68 219 70 243T77 290L150 674H267Z"  />
<glyph unicode="&#x169;" horiz-adv-x="545" d="M209 563Q216 616 238 646T296 677Q317 677 330 671T358 656Q369 649 379 644T398 638Q410 638 416 646T429 681H487Q479 624 458 597T399 570Q380 570 365 576T337 590Q327 598 318 603T298 608Q287 608 280 596T269 563H209ZM524 487L460 151Q452 107 447 70T436 0H333L343 85H341Q306 37 262 13T172 -11Q145 -11 122 -4T82 20T55 63T45 127Q45 167 55 214L107 487H223L173 221Q165 183 165 154Q165 124 178 105T227 85Q247 85 268 96T308 129T341 181T363 250L408 487H524Z"  />
<glyph unicode="&#x16A;" horiz-adv-x="639" d="M548 802L535 734H291L304 802H548ZM267 674L192 281Q184 241 184 199Q185 147 214 117T295 87Q358 87 399 132T461 280L536 674H653L578 282Q549 130 477 60T280 -11Q232 -11 193 1T127 39T84 104T68 197Q68 219 70 243T77 290L150 674H267Z"  />
<glyph unicode="&#x16B;" horiz-adv-x="545" d="M465 655L452 588H218L231 655H465ZM524 487L460 151Q452 107 447 70T436 0H333L343 85H341Q306 37 262 13T172 -11Q145 -11 122 -4T82 20T55 63T45 127Q45 167 55 214L107 487H223L173 221Q165 183 165 154Q165 124 178 105T227 85Q247 85 268 96T308 129T341 181T363 250L408 487H524Z"  />
<glyph unicode="&#x16C;" horiz-adv-x="639" d="M365 834Q364 814 376 798T421 782Q453 782 469 797T491 834H561Q557 810 547 790T518 753T475 728T415 719Q380 719 356 728T318 753T299 789T297 834H365ZM267 674L192 281Q184 241 184 199Q185 147 214 117T295 87Q358 87 399 132T461 280L536 674H653L578 282Q549 130 477 60T280 -11Q232 -11 193 1T127 39T84 104T68 197Q68 219 70 243T77 290L150 674H267Z"  />
<glyph unicode="&#x16D;" horiz-adv-x="545" d="M284 687Q283 661 294 643T334 625Q367 625 383 644T406 687H470Q461 630 425 596T330 561Q296 561 274 571T238 598T222 638T221 687H284ZM524 487L460 151Q452 107 447 70T436 0H333L343 85H341Q306 37 262 13T172 -11Q145 -11 122 -4T82 20T55 63T45 127Q45 167 55 214L107 487H223L173 221Q165 183 165 154Q165 124 178 105T227 85Q247 85 268 96T308 129T341 181T363 250L408 487H524Z"  />
<glyph unicode="&#x16E;" horiz-adv-x="639" d="M419 880Q464 880 493 857T522 791Q520 746 488 721T407 695Q365 695 336 718T306 781Q305 803 313 821T337 852T373 872T419 880ZM415 837Q393 837 381 822T368 784Q368 765 379 752T411 738Q433 738 446 752T459 789Q459 809 448 823T415 837ZM267 674L192 281Q184 241 184 199Q185 147 214 117T295 87Q358 87 399 132T461 280L536 674H653L578 282Q549 130 477 60T280 -11Q232 -11 193 1T127 39T84 104T68 197Q68 219 70 243T77 290L150 674H267Z"  />
<glyph unicode="&#x16F;" horiz-adv-x="545" d="M353 728Q395 728 425 705T455 636Q454 588 420 562T340 536Q298 536 269 560T239 625Q238 672 270 700T353 728ZM349 684Q326 684 313 668T299 629Q299 609 311 595T344 581Q367 581 381 596T395 635Q395 655 383 669T349 684ZM524 487L460 151Q452 107 447 70T436 0H333L343 85H341Q306 37 262 13T172 -11Q145 -11 122 -4T82 20T55 63T45 127Q45 167 55 214L107 487H223L173 221Q165 183 165 154Q165 124 178 105T227 85Q247 85 268 96T308 129T341 181T363 250L408 487H524Z"  />
<glyph unicode="&#x170;" horiz-adv-x="639" d="M477 833L353 717H266L357 833H477ZM644 833L520 717H433L523 833H644ZM267 674L192 281Q184 241 184 199Q185 147 214 117T295 87Q358 87 399 132T461 280L536 674H653L578 282Q549 130 477 60T280 -11Q232 -11 193 1T127 39T84 104T68 197Q68 219 70 243T77 290L150 674H267Z"  />
<glyph unicode="&#x171;" horiz-adv-x="545" d="M390 693L267 545H195L283 693H390ZM552 693L429 545H356L445 693H552ZM524 487L460 151Q452 107 447 70T436 0H333L343 85H341Q306 37 262 13T172 -11Q145 -11 122 -4T82 20T55 63T45 127Q45 167 55 214L107 487H223L173 221Q165 183 165 154Q165 124 178 105T227 85Q247 85 268 96T308 129T341 181T363 250L408 487H524Z"  />
<glyph unicode="&#x172;" horiz-adv-x="639" d="M390 -180Q370 -193 347 -198T297 -204Q256 -204 233 -184T210 -125Q210 -96 229 -66T277 -10H256Q214 -7 180 7T121 46T82 109T68 197Q68 219 70 243T77 290L150 674H267L192 281Q184 241 184 199Q185 147 214 117T295 87Q358 87 399 132T461 280L536 674H653L578 282Q558 174 516 108T405 13Q391 6 377 -2T352 -19Q328 -36 315 -57T301 -96Q301 -111 309 -118T332 -126Q344 -126 356 -124T376 -119L390 -180Z"  />
<glyph unicode="&#x173;" horiz-adv-x="545" d="M460 151Q452 107 447 70T436 0H401Q383 -22 371 -46T358 -92Q358 -132 399 -132Q412 -132 423 -130T444 -123L453 -182Q434 -197 409 -204T359 -211Q316 -211 293 -189T269 -127Q269 -108 276 -88T293 -51T315 -19T334 5L343 85H341Q306 37 262 13T172 -11Q145 -11 122 -4T82 20T55 63T45 127Q45 167 55 214L107 487H223L173 221Q165 183 165 154Q165 124 178 105T227 85Q247 85 268 96T308 129T341 181T363 250L408 487H524L460 151Z"  />
<glyph unicode="&#x174;" horiz-adv-x="848" d="M578 832L658 710H572L528 776H526L461 710H367L489 832H578ZM124 0L95 674H212L219 327Q220 264 219 216T216 128H218Q234 170 250 216T293 324L444 674H571L576 334Q577 271 576 222T573 131H575Q592 179 609 227T646 327L791 674H914L610 0H484L474 325Q473 354 473 380T473 430T475 480T478 535H475Q458 483 441 434T400 330L252 0H124Z"  />
<glyph unicode="&#x175;" horiz-adv-x="721" d="M482 694L554 546H474L434 630H432L368 546H282L400 694H482ZM172 487L181 250Q183 207 182 175T179 106H181Q192 138 206 172T238 243L356 487H453L473 249Q476 207 477 173T478 106H480Q491 141 503 175T530 249L635 487H753L514 0H405L383 212Q380 248 379 282T378 356H376Q358 312 346 281T318 217L210 0H101L56 487H172Z"  />
<glyph unicode="&#x176;" horiz-adv-x="546" d="M411 832L491 710H405L361 776H359L294 710H200L322 832H411ZM155 0L208 277L77 674H201L254 482Q265 438 271 413T282 364H284Q298 388 314 417T354 484L475 674H613L324 279L271 0H155Z"  />
<glyph unicode="&#x177;" horiz-adv-x="472" d="M349 694L421 546H342L301 630H299L235 546H149L268 694H349ZM167 487L205 252Q212 213 216 185T224 131H226Q235 154 245 180T273 247L378 487H501L323 128Q278 38 236 -27T145 -140Q124 -161 102 -175T60 -200T23 -216T-5 -224L-32 -124Q-15 -119 8 -109T54 -82Q79 -64 101 -39T140 15Q145 25 142 38L45 487H167Z"  />
<glyph unicode="&#x178;" horiz-adv-x="546" d="M255 716Q232 716 215 731T198 772Q198 800 216 818T262 836Q288 836 303 819T318 779Q318 751 300 734T255 716ZM452 716Q429 716 412 731T395 772Q395 800 413 818T458 836Q484 836 499 819T515 779Q515 751 497 734T452 716ZM155 0L208 277L77 674H201L254 482Q265 438 271 413T282 364H284Q298 388 314 417T354 484L475 674H613L324 279L271 0H155Z"  />
<glyph unicode="&#x179;" horiz-adv-x="540" d="M531 832L397 710H296L394 832H531ZM-10 69L411 570V574H116L135 674H587L573 601L157 104L158 100H483L464 0H-23L-10 69Z"  />
<glyph unicode="&#x17A;" horiz-adv-x="434" d="M435 694L303 546H216L312 694H435ZM-11 71L182 282Q213 315 238 338T293 389L294 392H67L86 487H452L438 412L249 205Q216 170 191 146T138 97V95H385L366 0H-24L-11 71Z"  />
<glyph unicode="&#x17B;" horiz-adv-x="540" d="M364 716Q341 716 324 731T306 773Q306 800 325 818T371 837Q397 837 412 820T428 780Q428 752 409 734T364 716ZM-10 69L411 570V574H116L135 674H587L573 601L157 104L158 100H483L464 0H-23L-10 69Z"  />
<glyph unicode="&#x17C;" horiz-adv-x="434" d="M284 560Q260 560 243 576T226 619Q226 648 245 666T291 685Q318 685 333 669T349 626Q349 597 331 579T284 560ZM-11 71L182 282Q213 315 238 338T293 389L294 392H67L86 487H452L438 412L249 205Q216 170 191 146T138 97V95H385L366 0H-24L-11 71Z"  />
<glyph unicode="&#x17D;" horiz-adv-x="540" d="M317 710L237 832H324L367 765H369L434 832H528L406 710H317ZM-10 69L411 570V574H116L135 674H587L573 601L157 104L158 100H483L464 0H-23L-10 69Z"  />
<glyph unicode="&#x17E;" horiz-adv-x="434" d="M236 546L163 694H242L284 609H286L351 694H436L317 546H236ZM-11 71L182 282Q213 315 238 338T293 389L294 392H67L86 487H452L438 412L249 205Q216 170 191 146T138 97V95H385L366 0H-24L-11 71Z"  />
<glyph unicode="&#x192;" horiz-adv-x="519" d="M134 406H224L234 446Q242 478 256 515T295 585T358 639T454 661Q503 660 528 644L498 559Q487 564 475 567T447 570Q408 570 384 537T347 449L337 406H445L432 321H317L269 127Q258 81 242 42T203 -26T146 -71T67 -88Q38 -88 17 -82T-15 -69L10 14Q20 9 34 6T63 3Q97 3 120 38T164 157L204 321H121L134 406Z"  />
<glyph unicode="&#x1A0;" horiz-adv-x="688" d="M742 757Q747 745 751 725T755 683Q755 628 723 596T637 564Q657 532 666 491T676 406Q676 361 668 316T645 229T607 150T554 84Q508 39 448 14T313 -11Q248 -11 199 11T116 71T65 159T48 267Q48 312 56 357T81 445T120 524T174 591Q220 636 281 660T411 685Q447 685 475 679T532 661Q554 652 574 642T616 631Q642 631 652 645T663 685Q663 701 660 715T651 742L742 757ZM397 587Q358 587 325 572T264 529Q242 507 225 477T195 412T177 342T171 273Q171 235 180 201T208 142T257 102T330 87Q367 87 401 102T461 144Q483 166 500 197T528 263T546 334T552 402Q552 435 545 468T521 528T474 570T397 587Z"  />
<glyph unicode="&#x1A1;" horiz-adv-x="545" d="M299 408Q264 408 237 387T191 335T162 265T152 193Q152 142 177 111T247 79Q280 79 306 99T352 151T381 221T392 296Q392 315 388 334T372 370T344 397T299 408ZM589 575Q594 561 597 544T600 511Q600 457 571 427T490 394Q501 374 507 349T513 296Q513 234 493 179T435 81T345 14T231 -11Q185 -11 148 4T86 46T46 109T32 190Q32 252 52 308T110 406T199 473T313 498Q338 498 359 494T399 482Q416 474 432 466T468 458Q512 458 512 506Q512 519 510 532T502 560L589 575Z"  />
<glyph unicode="&#x1AF;" horiz-adv-x="652" d="M267 674L192 281Q184 241 184 199Q185 147 214 117T295 87Q358 87 399 132T461 280L536 674H626Q688 674 688 730Q688 744 685 755T679 778L766 793Q774 766 774 739Q774 680 741 646T641 609L578 282Q549 129 477 59T280 -11Q232 -11 193 1T127 39T84 104T68 197Q68 219 70 243T77 290L150 674H267Z"  />
<glyph unicode="&#x1B0;" horiz-adv-x="561" d="M635 605Q643 579 643 550Q643 496 611 461T512 423L460 151Q452 107 447 70T436 0H333L343 85H341Q306 37 262 13T172 -11Q145 -11 122 -4T82 20T55 63T45 127Q45 167 55 214L107 487H223L173 221Q165 183 165 154Q165 124 178 105T227 85Q247 85 268 96T308 129T341 181T363 250L408 487H496Q558 487 558 542Q558 555 555 567T548 590L635 605Z"  />
<glyph unicode="&#x1FA;" horiz-adv-x="596" d="M395 692Q350 692 325 714T300 772Q300 810 330 835T407 861Q450 861 474 839T499 781Q499 743 471 718T395 692ZM398 737Q420 737 432 749T444 778Q444 794 433 806T401 818Q381 818 369 805T357 775Q357 758 368 748T398 737ZM602 964L462 878H360L465 964H602ZM188 192L96 0H-28L310 674H456L541 0H419L400 192H188ZM393 282L374 450Q372 477 369 512T364 578H362Q348 548 335 514T307 450L225 282H393Z"  />
<glyph unicode="&#x1FB;" horiz-adv-x="540" d="M572 853L416 740H327L447 853H572ZM373 716Q416 716 446 692T476 623Q475 576 441 550T361 524Q319 524 290 548T260 613Q259 636 267 655T291 687T328 708T373 716ZM369 672Q347 672 334 656T320 616Q320 597 332 583T365 568Q388 568 402 584T416 623Q416 643 404 657T369 672ZM340 0Q341 22 343 50T349 110H346Q310 42 264 16T172 -11Q106 -11 67 35T28 155Q28 217 49 278T114 388T221 467T371 498Q411 498 450 492T518 476L468 222Q463 195 459 165T452 106T448 49T448 0H340ZM388 403Q379 405 368 406T340 408Q299 408 265 388T204 334T164 260T149 176Q149 138 165 111T219 83Q239 83 261 95T302 132T337 192T362 275L388 403Z"  />
<glyph unicode="&#x1FC;" horiz-adv-x="812" d="M711 832L577 710H477L574 832H711ZM-50 0L379 674H816L798 575H544L526 395H768L749 297H522L504 99H759L740 0H385L403 209H205L75 0H-50ZM409 306L426 484Q428 507 430 534T436 587H432Q418 562 403 535T374 484L262 306H409Z"  />
<glyph unicode="&#x1FD;" horiz-adv-x="743" d="M585 694L454 546H366L462 694H585ZM663 30Q628 10 584 0T493 -11Q437 -11 394 14T333 85H330Q300 40 253 15T147 -11Q114 -11 88 -1T43 27T15 68T5 119Q5 171 31 208T101 270T202 304T319 314L322 329Q324 341 322 356T309 383T282 404T237 413Q196 413 164 401T105 372L85 448Q119 470 162 484T251 498Q308 498 344 475T393 408H396Q425 452 472 475T573 498Q613 498 642 487T690 458T718 418T727 372Q727 320 702 288T633 240T531 219T407 217Q404 195 405 174T414 134Q444 81 520 81Q567 81 597 90T656 113L663 30ZM307 236Q281 237 249 234T189 219T141 189T122 137Q122 110 138 95T184 79Q222 79 255 106T298 187L307 236ZM614 361Q614 381 599 396T552 412Q524 412 502 401T463 372T436 336T421 299Q459 297 494 298T555 305T598 324T614 361Z"  />
<glyph unicode="&#x1FE;" horiz-adv-x="686" d="M596 837L462 714H362L459 837H596ZM28 -3L102 85Q76 121 62 166T47 273Q47 364 79 445T168 585Q216 633 277 659T406 685Q458 685 497 673T567 636L642 723L703 675L624 582Q674 515 674 404Q674 359 666 315T643 230T605 153T555 88Q509 41 447 15T318 -11Q222 -11 163 36L84 -56L28 -3ZM498 552Q481 569 457 578T398 588Q360 588 327 573T266 532T217 472T183 397Q167 346 166 291T183 183H186L498 552ZM232 119Q249 102 272 94T330 86Q364 86 395 99T453 137T501 194T535 267Q551 315 554 370T541 480H538L232 119Z"  />
<glyph unicode="&#x1FF;" horiz-adv-x="543" d="M487 694L356 546H268L364 694H487ZM19 -12L78 57Q32 109 32 194Q32 255 52 310T110 407T198 473T311 498Q347 498 375 490T426 466L484 533L523 499L466 432Q491 403 502 367T513 297Q513 230 491 174T432 76T344 12T239 -11Q198 -11 169 -3T116 23L55 -48L19 -12ZM359 388Q337 412 297 412Q262 412 236 392T190 342T161 277T151 212Q150 176 161 152L163 151L359 388ZM184 101Q208 75 249 75Q280 75 306 93T351 140T382 204T394 275Q394 306 385 335H382L184 101Z"  />
<glyph unicode="&#x218;" horiz-adv-x="490" d="M89 -176Q103 -174 117 -169T143 -155T162 -134T170 -105Q170 -90 164 -78T148 -57L237 -41Q246 -49 255 -65T264 -102Q264 -135 249 -158T211 -197T158 -221T101 -231L89 -176ZM45 133Q74 114 113 102T197 90Q221 90 244 96T284 115T311 147T322 190Q322 223 300 248T227 299Q168 331 129 373T90 475Q90 523 109 562T163 628T242 670T338 685Q395 685 431 674T488 651L450 554Q433 563 402 574T328 584Q272 584 242 557T212 496Q212 461 238 438T313 387Q375 355 409 313T444 208Q444 157 425 117T371 49T289 5T184 -10Q122 -10 75 4T5 37L45 133Z"  />
<glyph unicode="&#x219;" horiz-adv-x="397" d="M40 -176Q54 -174 68 -169T95 -155T114 -134T122 -105Q122 -90 116 -78T100 -57L189 -41Q198 -49 206 -65T215 -102Q215 -135 200 -158T162 -197T110 -221T53 -231L40 -176ZM32 109Q51 98 83 87T149 76Q184 77 204 94T224 136Q224 159 210 175T160 211Q118 233 91 264T64 338Q64 373 78 402T119 453T182 486T261 498Q299 498 329 491T376 473L346 389Q332 397 309 404T255 411Q222 411 202 395T181 354Q181 334 197 319T244 287Q284 265 314 234T345 156Q345 116 329 85T286 33T220 1T138 -10Q95 -10 59 0T2 25L32 109Z"  />
<glyph unicode="&#x21A;" horiz-adv-x="503" d="M88 -176Q102 -174 116 -169T142 -155T161 -134T169 -105Q169 -90 163 -78T148 -57L236 -41Q246 -49 254 -65T263 -102Q263 -135 248 -158T210 -197T158 -221T101 -231L88 -176ZM253 572H66L86 674H577L557 572H369L261 0H144L253 572Z"  />
<glyph unicode="&#x21B;" horiz-adv-x="333" d="M14 -176Q28 -174 42 -169T68 -155T87 -134T95 -105Q95 -90 89 -78T74 -57L162 -41Q172 -49 180 -65T189 -102Q189 -135 174 -158T136 -197T84 -221T27 -231L14 -176ZM269 621L244 487H354L336 397H227L188 200Q185 183 183 165T180 131Q180 111 190 100T223 88Q234 88 244 88T263 90L252 -1Q239 -6 218 -8T176 -11Q116 -11 88 18T60 89Q60 110 62 131T71 180L113 397H47L64 487H130L150 592L269 621Z"  />
<glyph unicode="&#x21C;" d="M-10 -27Q59 -21 120 -3T226 43T297 108T323 191Q323 209 317 226T297 258T261 280T206 289Q183 289 162 285T117 274L104 354Q144 362 183 376T254 412T306 459T326 519Q326 554 300 572T236 590Q199 590 172 580T121 558L100 635Q132 654 180 669T282 685Q323 685 355 674T408 644T441 600T453 547Q453 515 442 489T412 440T366 399T309 367V365Q338 359 364 346T409 311T440 263T451 204Q451 137 417 81T323 -17T180 -85T-1 -120L-10 -27Z"  />
<glyph unicode="&#x21D;" horiz-adv-x="418" d="M-58 -116Q-42 -115 -13 -111T52 -99T122 -77T187 -45T234 2T253 65Q253 98 226 121T144 144Q128 144 106 141T61 130L49 210Q88 219 125 231T190 259T236 297T253 347Q252 372 232 387T174 403Q138 403 112 394T63 373L42 447Q74 466 120 482T220 498Q256 498 284 488T333 462T363 423T374 378Q374 321 342 285T249 223L248 221Q305 210 341 172T377 80Q377 14 340 -38T243 -126T106 -183T-51 -208L-58 -116Z"  />
<glyph unicode="&#x232;" horiz-adv-x="546" d="M155 0L208 277L77 674H201L254 482Q265 438 271 413T282 364H284Q298 388 314 417T354 484L475 674H613L324 279L271 0H155ZM501 802L488 734H244L257 802H501Z"  />
<glyph unicode="&#x233;" horiz-adv-x="472" d="M167 487L205 252Q212 213 216 185T224 131H226Q235 154 245 180T273 247L378 487H501L323 128Q278 38 236 -27T145 -140Q124 -161 102 -175T60 -200T23 -216T-5 -224L-32 -124Q-15 -119 8 -109T54 -82Q79 -64 101 -39T140 15Q145 25 142 38L45 487H167ZM433 655L420 588H185L199 655H433Z"  />
<glyph unicode="&#x2C6;" horiz-adv-x="389" d="M317 694L389 546H310L269 630H267L203 546H117L236 694H317Z"  />
<glyph unicode="&#x2C7;" horiz-adv-x="389" d="M217 546L144 694H223L265 609H267L332 694H417L298 546H217Z"  />
<glyph unicode="&#x2C9;" horiz-adv-x="389" d="M392 655L379 588H144L158 655H392Z"  />
<glyph unicode="&#x2D8;" horiz-adv-x="389" d="M217 687Q217 661 228 643T268 625Q301 625 317 644T340 687H404Q395 630 359 596T264 561Q230 561 208 571T172 598T156 638T155 687H217Z"  />
<glyph unicode="&#x2D9;" horiz-adv-x="389" d="M263 560Q239 560 222 576T205 619Q205 648 224 666T270 685Q297 685 312 669T328 626Q328 597 310 579T263 560Z"  />
<glyph unicode="&#x2DA;" horiz-adv-x="390" d="M275 728Q318 728 347 705T377 636Q376 588 343 562T263 536Q221 536 192 560T161 625Q160 672 192 700T275 728ZM271 684Q248 684 235 668T221 629Q221 609 233 595T266 581Q289 581 303 596T317 635Q317 655 305 669T271 684Z"  />
<glyph unicode="&#x2DB;" horiz-adv-x="389" d="M205 2Q183 -18 165 -45T147 -96Q147 -134 187 -134Q200 -134 212 -132T233 -125L242 -184Q221 -199 196 -206T147 -213Q105 -213 82 -192T58 -133Q58 -112 65 -92T84 -55T108 -23T131 2H205Z"  />
<glyph unicode="&#x2DC;" horiz-adv-x="389" d="M131 563Q138 616 160 646T218 677Q238 677 252 671T280 656Q291 649 300 644T319 638Q331 638 338 646T350 681H409Q401 624 380 597T321 570Q302 570 287 576T259 590Q248 598 239 603T220 608Q208 608 202 596T191 563H131Z"  />
<glyph unicode="&#x2DD;" horiz-adv-x="389" d="M320 693L197 545H124L213 693H320ZM481 693L358 545H286L374 693H481Z"  />
<glyph unicode="&#x37E;" horiz-adv-x="243" d="M-37 -121Q-24 -93 -11 -60T15 8T38 75T56 139L185 142Q172 111 155 76T120 7T83 -58T48 -113L-37 -121ZM154 304Q121 304 101 325T81 378Q81 414 104 441T166 468Q198 468 218 446T239 391Q239 353 215 329T154 304Z"  />
<glyph unicode="&#x384;" horiz-adv-x="347" d="M407 694L276 546H190L286 694H407Z"  />
<glyph unicode="&#x385;" horiz-adv-x="395" d="M340 709L244 547H179L241 709H340ZM111 563Q89 563 74 577T59 615Q59 641 76 657T117 673Q141 673 155 658T169 621Q169 595 152 579T111 563ZM387 563Q364 563 349 577T334 615Q334 641 351 657T393 673Q416 673 430 658T444 621Q444 595 428 579T387 563Z"  />
<glyph unicode="&#x386;" horiz-adv-x="596" d="M190 674L134 509H66L89 674H190ZM188 192L96 0H-28L310 674H456L541 0H419L400 192H188ZM393 282L374 450Q372 477 369 512T364 578H362Q348 548 335 514T307 450L225 282H393Z"  />
<glyph unicode="&#x387;" horiz-adv-x="243" d="M125 235Q92 235 72 256T52 310Q52 346 76 372T137 399Q171 399 191 378T211 322Q211 284 187 260T125 235Z"  />
<glyph unicode="&#x388;" horiz-adv-x="535" d="M132 674L77 509H9L32 674H132ZM478 300H237L198 99H471L452 0H63L191 674H565L545 575H289L255 398H498L478 300Z"  />
<glyph unicode="&#x389;" horiz-adv-x="686" d="M132 674L76 509H8L31 674H132ZM307 674L255 402H529L581 674H697L569 0H453L509 298H235L179 0H62L190 674H307Z"  />
<glyph unicode="&#x38A;" horiz-adv-x="295" d="M133 674L78 509H10L32 674H133ZM306 674L178 0H61L189 674H306Z"  />
<glyph unicode="&#x38C;" horiz-adv-x="716" d="M130 674L75 509H7L29 674H130ZM439 685Q506 685 556 663T639 603T688 515T704 406Q704 361 696 316T673 229T635 150T582 84Q536 39 476 14T341 -11Q276 -11 227 11T144 71T93 159T76 267Q76 312 84 357T109 445T148 524T202 591Q248 636 309 660T439 685ZM425 587Q386 587 353 572T292 529Q270 507 253 477T223 412T205 342T199 273Q199 235 208 201T236 142T285 102T358 87Q395 87 429 102T489 144Q511 166 528 197T556 263T574 334T580 402Q580 435 573 468T549 528T502 570T425 587Z"  />
<glyph unicode="&#x38E;" horiz-adv-x="643" d="M122 674L66 509H-2L21 674H122ZM171 680Q190 679 211 673T253 656T293 628T327 592Q356 551 372 492T384 359H390Q414 432 453 491T536 591Q581 633 627 655T705 680L714 577Q683 566 647 542T574 482T504 400T446 296Q432 264 422 231T403 158L374 0H257L287 159Q294 197 297 229T299 293Q297 414 256 490T143 583L171 680Z"  />
<glyph unicode="&#x38F;" horiz-adv-x="732" d="M133 674L77 509H9L32 674H133ZM17 0L33 90H170L171 95Q137 128 110 184T83 312Q83 391 111 459T187 577T301 656T442 685Q508 685 559 664T645 606T699 522T717 421Q717 362 701 312T660 220T604 148T543 95V90H671L655 0H386L399 73Q432 94 466 125T529 199T575 294T593 407Q593 444 583 477T552 536T502 575T431 590Q381 590 340 566T268 501T222 406T205 293Q205 217 231 161T298 73L285 0H17Z"  />
<glyph unicode="&#x390;" horiz-adv-x="249" d="M283 703L187 541H122L185 703H283ZM54 556Q33 556 18 570T3 607Q3 632 20 648T60 664Q83 664 96 649T110 613Q110 588 94 572T54 556ZM330 556Q308 556 294 570T279 607Q279 632 295 648T335 664Q358 664 372 649T386 613Q386 588 370 572T330 556ZM157 136Q151 104 158 92T192 81L169 -4Q161 -7 149 -9T122 -11Q83 -11 59 8T33 79Q34 95 38 118T48 171L108 487H224L157 136Z"  />
<glyph unicode="&#x391;" horiz-adv-x="596" d="M188 192L96 0H-28L310 674H456L541 0H419L400 192H188ZM393 282L374 450Q372 477 369 512T364 578H362Q348 548 335 514T307 450L225 282H393Z"  />
<glyph unicode="&#x392;" horiz-adv-x="553" d="M150 663Q184 671 225 675T312 679Q365 679 404 670T474 638Q503 620 521 591T539 523Q539 491 528 465T497 417T452 382T399 360V357Q446 343 476 305T507 209Q507 155 482 116T420 51Q378 21 319 9T182 -4Q131 -4 91 -2T26 6L150 663ZM215 398H269Q302 398 329 405T377 427T408 461T419 508Q419 550 390 568T312 587Q270 587 250 582L215 398ZM155 91Q183 88 216 88Q249 88 279 95T332 117T370 155T384 213Q384 240 374 259T345 289T303 306T252 312H197L155 91Z"  />
<glyph unicode="&#x393;" horiz-adv-x="458" d="M528 674L509 575H252L142 0H24L152 674H528Z"  />
<glyph unicode="&#x394;" horiz-adv-x="618" d="M-15 65L319 674H460L568 65L557 0H-25L-15 65ZM443 95L388 419Q385 436 383 456T378 496T373 535T368 571H364Q353 545 334 506T298 433L123 95H443Z"  />
<glyph unicode="&#x395;" horiz-adv-x="496" d="M440 300H198L160 99H432L413 0H24L152 674H526L507 575H250L216 398H459L440 300Z"  />
<glyph unicode="&#x396;" horiz-adv-x="540" d="M-10 69L411 570V574H116L135 674H587L573 601L157 104L158 100H483L464 0H-23L-10 69Z"  />
<glyph unicode="&#x397;" horiz-adv-x="648" d="M269 674L217 402H491L543 674H660L532 0H415L472 298H197L141 0H25L153 674H269Z"  />
<glyph unicode="&#x398;" horiz-adv-x="688" d="M314 -11Q248 -11 199 11T116 71T65 159T48 267Q48 357 80 442T170 587Q216 633 278 659T411 685Q478 685 528 663T611 603T660 515T676 406Q676 362 668 318T645 232T608 155T558 89Q511 41 450 15T314 -11ZM329 86Q378 86 419 115T489 190T535 292T552 402Q552 436 545 469T521 528T474 571T397 588Q346 588 305 559T234 483T188 381T171 273Q171 235 180 201T208 142T257 101T329 86ZM488 392L472 299H239L254 392H488Z"  />
<glyph unicode="&#x399;" horiz-adv-x="256" d="M267 674L139 0H22L150 674H267Z"  />
<glyph unicode="&#x39A;" horiz-adv-x="556" d="M152 674H267L208 361H212Q228 383 244 401T275 438L485 674H630L352 383L516 0H389L261 310L185 239L139 0H24L152 674Z"  />
<glyph unicode="&#x39B;" horiz-adv-x="596" d="M418 0L371 430Q365 501 362 570H359Q346 534 332 500T302 430L99 0H-28L308 674H456L542 0H418Z"  />
<glyph unicode="&#x39C;" horiz-adv-x="802" d="M588 0L633 317Q641 369 651 435T674 564H671Q645 504 616 443T559 327L393 8H303L268 322Q262 379 258 441T250 564H248Q241 535 234 503T220 437T206 373T193 317L116 0H8L179 674H333L369 359Q373 314 377 264T382 165H386Q404 213 426 263T471 358L634 674H790L701 0H588Z"  />
<glyph unicode="&#x39D;" horiz-adv-x="651" d="M24 0L152 674H286L404 361Q426 299 440 250T465 150H467Q470 200 476 252T497 378L553 674H663L535 0H416L295 319Q283 352 274 379T258 432T244 483T231 536L227 535Q222 487 212 425T188 288L133 0H24Z"  />
<glyph unicode="&#x39E;" horiz-adv-x="549" d="M578 674L561 576H113L130 674H578ZM495 396L479 298H96L112 396H495ZM487 99L470 0H-3L14 99H487Z"  />
<glyph unicode="&#x39F;" horiz-adv-x="688" d="M411 685Q478 685 528 663T611 603T660 515T676 406Q676 361 668 316T645 229T607 150T554 84Q508 39 448 14T313 -11Q248 -11 199 11T116 71T65 159T48 267Q48 312 56 357T81 445T120 524T174 591Q220 636 281 660T411 685ZM397 587Q358 587 325 572T264 529Q242 507 225 477T195 412T177 342T171 273Q171 235 180 201T208 142T257 102T330 87Q367 87 401 102T461 144Q483 166 500 197T528 263T546 334T552 402Q552 435 545 468T521 528T474 570T397 587Z"  />
<glyph unicode="&#x3A0;" horiz-adv-x="639" d="M524 0H407L515 576H249L141 0H25L152 674H651L524 0Z"  />
<glyph unicode="&#x3A1;" horiz-adv-x="535" d="M150 663Q181 671 224 675T313 679Q360 679 406 668T485 631Q515 608 531 575T547 497Q547 437 523 390T461 314Q420 282 365 266T250 250Q232 250 217 251T187 255L139 0H24L150 663ZM205 351Q219 348 233 347T266 345Q303 345 333 356T385 386T418 432T430 488Q430 515 421 533T396 563T359 580T313 585Q268 585 249 579L205 351Z"  />
<glyph unicode="&#x3A3;" horiz-adv-x="547" d="M-16 0L-5 72L256 338L97 592L111 674H569L552 576H242V572L391 333L161 103V99H499L482 0H-16Z"  />
<glyph unicode="&#x3A4;" horiz-adv-x="503" d="M253 572H66L86 674H577L557 572H369L261 0H144L253 572Z"  />
<glyph unicode="&#x3A5;" horiz-adv-x="551" d="M81 680Q100 679 121 673T163 656T203 628T237 592Q266 551 282 492T294 359H300Q324 432 363 491T445 591Q490 633 536 655T615 680L624 577Q592 566 556 542T483 482T414 400T356 296Q342 264 332 231T313 158L284 0H167L197 159Q204 197 207 229T209 293Q207 414 166 490T53 583L81 680Z"  />
<glyph unicode="&#x3A6;" horiz-adv-x="732" d="M270 28Q225 34 185 53T114 105T66 183T48 284Q48 373 81 441T164 555T273 625T387 649L398 701H507L497 649Q542 644 582 625T652 572T701 494T719 392Q719 306 689 240T609 127T500 55T380 28L370 -28H260L270 28ZM371 564Q338 563 302 543T236 487T186 401T166 288Q166 215 200 169T287 114L371 564ZM396 113Q436 116 473 137T538 195T584 282T601 391Q601 466 567 511T481 564L396 113Z"  />
<glyph unicode="&#x3A7;" horiz-adv-x="547" d="M370 0L316 150Q305 182 296 209T277 266H275Q258 240 242 212T202 148L103 0H-36L221 344L99 674H222L273 525Q283 494 290 470T306 417H308Q326 448 341 474T374 526L476 674H615L363 343L494 0H370Z"  />
<glyph unicode="&#x3A8;" horiz-adv-x="671" d="M675 465Q650 333 573 266T379 194L343 0H233L269 194Q233 197 197 209T132 244T85 304T67 392Q67 410 69 428T75 470L113 674H227L190 479Q182 433 182 406Q182 346 207 319T286 285L359 674H468L395 285Q426 287 453 298T501 333T539 394T565 487L600 674H714L675 465Z"  />
<glyph unicode="&#x3A9;" horiz-adv-x="702" d="M-13 0L3 90H141L142 95Q108 128 81 184T54 312Q54 391 82 459T158 577T272 656T413 685Q479 685 530 664T616 606T669 522T688 421Q688 362 672 312T631 220T574 148T513 95V90H641L625 0H357L369 73Q402 94 437 125T500 199T546 294T564 407Q564 444 554 477T523 536T473 575T402 590Q352 590 311 566T239 501T193 406T176 293Q176 217 202 161T268 73L255 0H-13Z"  />
<glyph unicode="&#x3AA;" horiz-adv-x="256" d="M119 712Q95 712 79 727T62 769Q62 797 80 815T125 833Q151 833 166 817T182 776Q182 747 164 730T119 712ZM316 712Q292 712 276 727T259 769Q259 797 277 815T322 833Q348 833 363 817T378 776Q378 747 360 730T316 712ZM267 674L139 0H22L150 674H267Z"  />
<glyph unicode="&#x3AB;" horiz-adv-x="551" d="M256 701Q233 701 216 716T199 758Q199 786 218 804T263 822Q289 822 304 805T319 765Q319 736 301 719T256 701ZM453 701Q429 701 413 716T396 758Q396 786 414 804T460 822Q486 822 501 805T516 765Q516 736 498 719T453 701ZM81 680Q100 679 121 673T163 656T203 628T237 592Q266 551 282 492T294 359H300Q324 432 363 491T445 591Q490 633 536 655T615 680L624 577Q592 566 556 542T483 482T414 400T356 296Q342 264 332 231T313 158L284 0H167L197 159Q204 197 207 229T209 293Q207 414 166 490T53 583L81 680Z"  />
<glyph unicode="&#x3AC;" horiz-adv-x="560" d="M491 694L360 546H274L370 694H491ZM363 83Q331 38 288 14T191 -11Q156 -11 127 1T76 37T42 94T30 170Q30 242 53 302T113 406T195 474T286 498Q340 498 371 475T416 414H420Q426 437 432 454T444 487H542Q537 467 530 436T515 376Q503 322 491 267T470 163Q461 115 469 97T501 81L478 -6Q471 -8 463 -9T442 -11Q407 -11 387 12T366 83H363ZM151 185Q151 140 172 111T235 82Q255 82 274 91T309 117T337 153T358 193Q363 207 366 221T373 252Q375 266 377 280T379 306Q379 348 358 378T295 408Q268 408 242 390T196 340T163 269T151 185Z"  />
<glyph unicode="&#x3AD;" horiz-adv-x="423" d="M423 694L291 546H206L302 694H423ZM281 216Q254 216 229 212T184 198T154 174T142 138Q142 109 171 94T242 79Q279 79 316 88T377 109L383 27Q365 17 343 10T298 -2T250 -9T205 -11Q167 -11 133 -4T73 18T31 58T15 116Q15 146 26 170T56 213T97 242T145 258L146 263Q107 274 88 298T68 353Q68 381 82 407T125 453T193 485T285 498Q332 498 368 489T425 462L396 388Q382 396 354 405T290 414Q242 414 214 395T186 349Q186 322 217 309T302 295H348L335 216H281Z"  />
<glyph unicode="&#x3AE;" horiz-adv-x="550" d="M487 694L356 546H270L366 694H487ZM20 0L83 336Q91 380 96 419T97 487H199Q208 458 200 399H203Q237 449 282 473T378 498Q429 498 465 466T502 364Q502 347 500 324T493 283L436 -17Q432 -40 428 -66T420 -116T415 -162T414 -198H305Q301 -190 301 -171T303 -126T310 -73T320 -18L375 275Q377 287 379 303T381 333Q381 363 368 383T320 403Q300 403 279 391T238 357T203 301T179 225L137 0H20Z"  />
<glyph unicode="&#x3AF;" horiz-adv-x="249" d="M348 694L216 546H131L227 694H348ZM157 136Q151 104 158 92T192 81L169 -4Q161 -7 149 -9T122 -11Q83 -11 59 8T33 79Q34 95 38 118T48 171L108 487H224L157 136Z"  />
<glyph unicode="&#x3B0;" horiz-adv-x="520" d="M393 703L297 541H231L294 703H393ZM164 556Q142 556 128 570T113 607Q113 632 129 648T169 664Q192 664 206 649T220 613Q220 588 204 572T164 556ZM439 556Q417 556 403 570T388 607Q388 632 404 648T445 664Q468 664 481 649T495 613Q495 588 479 572T439 556ZM482 487Q487 473 491 449T495 396Q495 351 488 304T466 212T429 126T375 55T304 7T216 -11Q177 -11 145 0T90 31T55 80T42 148Q42 164 44 182T51 220L70 320Q81 380 87 422T90 487H201Q206 478 206 455T200 396L170 234Q167 217 164 199T161 167Q161 128 183 107T234 85Q268 85 295 113T341 186T370 289T381 407Q381 435 379 455T374 487H482Z"  />
<glyph unicode="&#x3B1;" horiz-adv-x="560" d="M363 83Q331 38 288 14T191 -11Q156 -11 127 1T76 37T42 94T30 170Q30 242 53 302T113 406T195 474T286 498Q340 498 371 475T416 414H420Q426 437 432 454T444 487H542Q537 467 530 436T515 376Q503 322 491 267T470 163Q461 115 469 97T501 81L478 -6Q471 -8 463 -9T442 -11Q407 -11 387 12T366 83H363ZM151 185Q151 140 172 111T235 82Q255 82 274 91T309 117T337 153T358 193Q363 207 366 221T373 252Q375 266 377 280T379 306Q379 348 358 378T295 408Q268 408 242 390T196 340T163 269T151 185Z"  />
<glyph unicode="&#x3B2;" horiz-adv-x="549" d="M-1 -198Q-7 -176 -3 -127T13 -22L96 422Q106 474 118 513T145 582T176 631T209 666Q240 692 275 706T359 721Q396 721 426 709T477 676T509 627T520 568Q520 503 489 457T409 388L408 382Q430 377 449 363T484 328T507 280T516 221Q516 167 496 124T444 51T370 5T287 -11Q240 -11 203 3T142 44H139L128 -21Q124 -43 120 -67T112 -115T108 -160T107 -198H-1ZM280 407Q285 407 289 407T298 408Q348 415 379 452T410 545Q410 581 392 605T341 629Q296 629 264 585T213 444L158 145Q172 119 200 99T269 78Q294 78 317 88T358 117T386 162T397 218Q397 268 367 297T290 331Q284 332 279 332T266 331L280 407Z"  />
<glyph unicode="&#x3B3;" horiz-adv-x="463" d="M77 -198Q89 -142 101 -72T113 67Q112 120 103 179T79 295T49 402T18 487H146Q157 462 168 424T190 338T206 238T213 133H217Q238 165 259 202T300 280T334 363T357 446Q359 457 360 468T361 487H476Q478 470 473 442Q465 398 445 348T394 244T324 135T237 25Q231 18 229 12T225 -2Q219 -40 210 -93T192 -198H77Z"  />
<glyph unicode="&#x3B4;" horiz-adv-x="538" d="M465 582Q447 601 415 618T348 636Q321 636 309 625T296 599Q296 582 311 566T350 527L412 467Q454 428 480 380T506 270Q506 217 487 167T433 77T348 13T237 -11Q192 -11 154 4T87 46T44 112T28 198Q28 253 46 298T95 379T162 439T238 481V485L219 507Q205 521 190 545T175 598Q175 623 186 645T219 684T269 711T333 721Q368 721 395 715T444 698T481 675T508 651L465 582ZM294 423Q267 410 241 389T194 341T161 278T148 202Q148 143 178 109T253 75Q280 75 304 88T347 126T376 182T387 252Q387 290 376 322T332 386L294 423Z"  />
<glyph unicode="&#x3B5;" horiz-adv-x="423" d="M281 216Q254 216 229 212T184 198T154 174T142 138Q142 109 171 94T242 79Q279 79 316 88T377 109L383 27Q365 17 343 10T298 -2T250 -9T205 -11Q167 -11 133 -4T73 18T31 58T15 116Q15 146 26 170T56 213T97 242T145 258L146 263Q107 274 88 298T68 353Q68 381 82 407T125 453T193 485T285 498Q332 498 368 489T425 462L396 388Q382 396 354 405T290 414Q242 414 214 395T186 349Q186 322 217 309T302 295H348L335 216H281Z"  />
<glyph unicode="&#x3B6;" horiz-adv-x="411" d="M468 631Q419 605 364 560T263 460T186 343T155 221Q155 170 176 140T240 92Q266 78 300 71T370 58Q377 58 377 48Q377 32 368 6T345 -49T314 -105T279 -149L206 -124Q212 -116 219 -103T233 -74T246 -45T254 -20Q237 -16 213 -10T160 8Q135 18 112 34T72 74T44 128T33 199Q33 257 57 318T121 435T211 539T312 620V624H252Q218 624 192 627T149 638L171 716Q191 711 223 711T294 710H465L468 631Z"  />
<glyph unicode="&#x3B7;" horiz-adv-x="550" d="M20 0L83 336Q91 380 96 419T97 487H199Q208 458 200 399H203Q237 449 282 473T378 498Q429 498 465 466T502 364Q502 347 500 324T493 283L436 -17Q432 -40 428 -66T420 -116T415 -162T414 -198H305Q301 -190 301 -171T303 -126T310 -73T320 -18L375 275Q377 287 379 303T381 333Q381 363 368 383T320 403Q300 403 279 391T238 357T203 301T179 225L137 0H20Z"  />
<glyph unicode="&#x3B8;" horiz-adv-x="538" d="M231 -11Q140 -11 90 50T39 229Q39 267 44 310T60 402Q75 467 101 525T163 626T245 695T348 721Q393 721 427 704T485 656T520 583T532 492Q532 457 529 420T518 347Q504 273 480 208T420 95T337 18T231 -11ZM410 406Q419 461 419 502Q419 562 398 599T334 637Q304 637 280 619T236 569T202 495T179 406H410ZM163 321Q152 257 152 212Q152 146 175 110T241 73Q271 73 295 91T337 142T370 220T395 321H163Z"  />
<glyph unicode="&#x3B9;" horiz-adv-x="249" d="M157 136Q151 104 158 92T192 81L169 -4Q161 -7 149 -9T122 -11Q83 -11 59 8T33 79Q34 95 38 118T48 171L108 487H224L157 136Z"  />
<glyph unicode="&#x3BA;" horiz-adv-x="495" d="M21 0L89 366Q92 382 94 400T99 436T101 466T100 487H210Q215 479 216 456T211 398L189 278H193Q253 338 302 390T394 487H527V482Q474 431 418 378T293 263L292 260Q327 248 349 213T392 130L448 0H321L280 99Q260 147 239 177T185 207H175L137 0H21Z"  />
<glyph unicode="&#x3BB;" horiz-adv-x="458" d="M262 257Q259 277 256 300T250 348H245Q236 327 227 303T206 256L85 0H-38L202 455Q211 473 211 484Q211 488 211 492T210 503Q200 557 180 592T117 627H100L123 716Q140 721 160 721Q196 721 222 707T268 665T301 594T326 493L418 0H300L262 257Z"  />
<glyph unicode="&#x3BC;" horiz-adv-x="543" d="M170 207Q147 84 236 84Q252 84 267 92T296 112T320 141T339 173Q352 195 356 220L407 487H524L461 151Q453 111 460 97T490 81L466 -5Q458 -7 450 -9T428 -11Q393 -11 373 10T351 84H347Q326 46 293 19T214 -8Q187 -8 165 2T131 35L121 -19Q117 -39 113 -63T106 -113T101 -160T100 -198H-5Q-7 -189 -7 -171T-4 -128T2 -76T12 -18L107 487H223L170 207Z"  />
<glyph unicode="&#x3BD;" horiz-adv-x="464" d="M155 487Q163 428 170 366T186 243Q190 208 192 178T199 116H203Q225 150 248 190T292 271T329 355T353 436Q358 462 360 487H473Q473 478 473 467T470 444Q461 396 439 342T383 230T310 115T224 0H113Q93 122 73 245T32 487H155Z"  />
<glyph unicode="&#x3BE;" horiz-adv-x="437" d="M351 350Q305 350 268 339T205 309T165 262T151 203Q151 156 180 127T272 81Q302 73 334 67T396 58Q404 57 404 46Q404 31 394 4T368 -52T336 -107T305 -148L232 -124Q237 -116 244 -102T259 -73T271 -44T280 -19Q261 -17 236 -12T188 1Q162 9 134 23T81 59T42 112T26 184Q26 228 42 264T83 329T141 375T206 402L207 407Q168 423 144 456T119 532Q119 569 135 603T182 664T256 705T356 721Q399 721 432 712T484 689L454 613Q440 623 416 629T363 636Q305 636 271 605T237 528Q237 483 271 460T362 433Q370 432 378 432T396 432L382 350H351Z"  />
<glyph unicode="&#x3BF;" horiz-adv-x="543" d="M313 498Q362 498 399 482T462 438T499 373T512 296Q512 234 492 179T434 81T345 14T230 -11Q184 -11 147 4T85 46T45 109T31 190Q31 252 51 308T109 406T198 473T313 498ZM298 408Q263 408 236 387T190 335T162 265T152 193Q152 142 177 111T247 79Q279 79 305 99T351 151T380 221T391 296Q391 315 387 334T371 370T343 397T298 408Z"  />
<glyph unicode="&#x3C0;" horiz-adv-x="552" d="M489 396L444 153Q433 96 430 59T428 0H317Q311 12 313 50T327 145L373 396H249Q244 373 239 350T227 301Q215 256 202 211T173 125T143 52T114 0H2Q17 25 32 58T62 131T90 213T114 298Q121 324 126 348T136 396Q79 396 40 387L38 455Q55 470 91 478T197 487H574L553 396H489Z"  />
<glyph unicode="&#x3C1;" horiz-adv-x="553" d="M-7 -198Q-13 -159 11 -22L52 197Q61 248 73 286T101 352T133 401T169 438Q205 470 245 484T335 498Q378 498 413 483T473 442T511 379T525 301Q525 235 504 178T447 79T365 13T269 -11Q227 -11 193 4T143 48H140L127 -22Q123 -44 119 -69T111 -117T105 -162T103 -198H-7ZM170 203Q166 188 166 165Q166 152 172 137T190 109T219 88T261 79Q289 79 315 96T361 142T393 210T405 293Q405 315 400 335T383 370T354 394T314 403Q266 403 229 361T175 231L170 203Z"  />
<glyph unicode="&#x3C2;" horiz-adv-x="428" d="M214 -124Q220 -116 227 -103T241 -74T253 -45T261 -20Q244 -17 220 -11T172 4Q149 12 124 27T77 67T42 124T28 202Q28 259 50 312T111 407T205 473T325 498Q364 498 391 491T439 472L407 389Q375 406 325 406Q290 406 258 392T202 353T164 294T149 218Q149 162 178 132T252 85Q281 74 311 68T376 57Q383 56 383 45Q383 28 374 2T350 -53T319 -107T286 -149L214 -124Z"  />
<glyph unicode="&#x3C3;" horiz-adv-x="564" d="M451 415Q467 404 478 387T496 351T506 314T509 281Q509 226 489 174T433 80T345 14T233 -11Q186 -11 149 4T85 46T45 109T31 190Q31 252 51 308T109 406T198 473T311 498H592L577 410Q560 410 529 412T451 420V415ZM245 79Q278 79 305 99T351 151T380 221T391 296Q391 315 387 335T372 371T343 397T299 408Q264 408 237 387T190 335T162 265T152 193Q152 142 176 111T245 79Z"  />
<glyph unicode="&#x3C4;" horiz-adv-x="411" d="M275 -2Q266 -6 251 -8T222 -11Q163 -11 138 19T113 99Q113 115 115 136T121 175L162 395H119Q82 395 61 393T22 388V457Q30 463 42 468T72 477T116 484T179 487H440L418 395H279L236 165Q234 151 233 142T232 124Q232 101 243 92T271 82Q277 82 282 82T293 83L275 -2Z"  />
<glyph unicode="&#x3C5;" horiz-adv-x="520" d="M482 487Q487 473 491 449T495 396Q495 351 488 304T466 212T429 126T375 55T304 7T216 -11Q177 -11 145 0T90 31T55 80T42 148Q42 164 44 182T51 220L70 320Q81 380 87 422T90 487H201Q206 478 206 455T200 396L170 234Q167 217 164 199T161 167Q161 128 183 107T234 85Q268 85 295 113T341 186T370 289T381 407Q381 435 379 455T374 487H482Z"  />
<glyph unicode="&#x3C6;" horiz-adv-x="653" d="M289 331Q305 419 348 458T449 498Q485 498 516 484T571 443T608 381T622 301Q622 229 597 172T531 74T437 12T330 -11L295 -198H191L226 -11Q190 -7 156 8T93 50T48 113T31 201Q31 267 53 318T106 406T174 465T238 497L278 438Q259 428 236 409T193 362T159 296T145 210Q145 158 169 120T242 71L289 331ZM345 71Q380 74 410 92T462 141T496 211T509 296Q509 320 504 341T490 379T469 404T441 414Q409 414 400 361L345 71Z"  />
<glyph unicode="&#x3C7;" horiz-adv-x="449" d="M164 487L204 342Q211 316 217 290T229 238H234Q247 261 260 285T290 337Q312 375 334 412T379 487H497Q440 401 384 317T271 147L377 -195L265 -220L223 -71Q214 -39 205 -8T188 59H182Q170 37 157 14T126 -40Q99 -85 72 -130T17 -220L-80 -184Q-22 -96 34 -12T148 159L43 487H164Z"  />
<glyph unicode="&#x3C8;" horiz-adv-x="661" d="M622 487Q628 470 632 447T636 392Q636 306 615 234T555 108T461 24T335 -11L300 -198H194L229 -11Q193 -8 160 4T101 38T61 95T46 175Q46 210 54 256L74 366Q82 402 86 433T89 487H194Q199 477 199 454T192 396L167 259Q163 237 161 218T159 178Q160 125 184 101T245 73L346 614H451L350 73Q381 73 412 94T468 156T508 258T524 401Q524 433 522 455T516 487H622Z"  />
<glyph unicode="&#x3C9;" horiz-adv-x="698" d="M615 487Q634 466 649 421T665 317Q665 250 647 191T598 86T525 15T434 -11Q389 -11 360 11T319 71H315Q294 36 262 13T179 -11Q149 -11 122 0T75 35T42 94T30 177Q30 231 43 280T75 369T117 440T159 487H272V484Q252 465 230 435T190 366T160 283T148 189Q148 138 165 113T208 88Q237 88 256 118T284 193L314 363H423L393 213Q389 196 387 181T384 153Q384 142 387 131T396 110T412 94T436 88Q458 88 478 108T515 161T541 239T551 331Q551 378 541 418T511 484V487H615Z"  />
<glyph unicode="&#x3CA;" horiz-adv-x="249" d="M81 551Q57 551 41 566T24 608Q24 636 42 654T87 672Q113 672 128 656T144 615Q144 586 126 569T81 551ZM276 551Q252 551 236 566T219 608Q219 636 237 654T282 672Q308 672 323 656T339 615Q339 586 321 569T276 551ZM157 136Q151 104 158 92T192 81L169 -4Q161 -7 149 -9T122 -11Q83 -11 59 8T33 79Q34 95 38 118T48 171L108 487H224L157 136Z"  />
<glyph unicode="&#x3CB;" horiz-adv-x="520" d="M200 551Q177 551 160 566T143 608Q143 636 162 654T207 672Q233 672 248 656T263 615Q263 586 245 569T200 551ZM395 551Q372 551 355 566T338 608Q338 636 357 654T402 672Q428 672 443 656T458 615Q458 586 440 569T395 551ZM482 487Q487 473 491 449T495 396Q495 351 488 304T466 212T429 126T375 55T304 7T216 -11Q177 -11 145 0T90 31T55 80T42 148Q42 164 44 182T51 220L70 320Q81 380 87 422T90 487H201Q206 478 206 455T200 396L170 234Q167 217 164 199T161 167Q161 128 183 107T234 85Q268 85 295 113T341 186T370 289T381 407Q381 435 379 455T374 487H482Z"  />
<glyph unicode="&#x3CC;" horiz-adv-x="543" d="M475 694L344 546H258L354 694H475ZM313 498Q362 498 399 482T462 438T499 373T512 296Q512 234 492 179T434 81T345 14T230 -11Q184 -11 147 4T85 46T45 109T31 190Q31 252 51 308T109 406T198 473T313 498ZM298 408Q263 408 236 387T190 335T162 265T152 193Q152 142 177 111T247 79Q279 79 305 99T351 151T380 221T391 296Q391 315 387 334T371 370T343 397T298 408Z"  />
<glyph unicode="&#x3CD;" horiz-adv-x="520" d="M446 694L314 546H228L324 694H446ZM482 487Q487 473 491 449T495 396Q495 351 488 304T466 212T429 126T375 55T304 7T216 -11Q177 -11 145 0T90 31T55 80T42 148Q42 164 44 182T51 220L70 320Q81 380 87 422T90 487H201Q206 478 206 455T200 396L170 234Q167 217 164 199T161 167Q161 128 183 107T234 85Q268 85 295 113T341 186T370 289T381 407Q381 435 379 455T374 487H482Z"  />
<glyph unicode="&#x3CE;" horiz-adv-x="698" d="M559 694L427 546H341L437 694H559ZM615 487Q634 466 649 421T665 317Q665 250 647 191T598 86T525 15T434 -11Q389 -11 360 11T319 71H315Q294 36 262 13T179 -11Q149 -11 122 0T75 35T42 94T30 177Q30 231 43 280T75 369T117 440T159 487H272V484Q252 465 230 435T190 366T160 283T148 189Q148 138 165 113T208 88Q237 88 256 118T284 193L314 363H423L393 213Q389 196 387 181T384 153Q384 142 387 131T396 110T412 94T436 88Q458 88 478 108T515 161T541 239T551 331Q551 378 541 418T511 484V487H615Z"  />
<glyph unicode="&#x401;" horiz-adv-x="496" d="M440 300H198L160 99H432L413 0H24L152 674H526L507 575H250L216 398H459L440 300ZM255 716Q232 716 215 731T198 772Q198 800 216 818T262 836Q288 836 303 819T318 779Q318 751 300 734T255 716ZM452 716Q429 716 412 731T395 772Q395 800 413 818T459 836Q484 836 499 819T515 779Q515 751 497 734T452 716Z"  />
<glyph unicode="&#x402;" horiz-adv-x="667" d="M603 674L583 573H358L329 421H331Q350 432 379 441T443 450Q486 450 520 435T577 391T612 323T624 236Q624 154 597 81T521 -43Q478 -88 427 -113T328 -144L309 -46Q342 -38 372 -22T428 20Q462 57 480 110T499 223Q499 250 493 273T475 315T444 343T397 353Q374 353 352 345T311 325L251 0H135L243 573H67L87 674H603Z"  />
<glyph unicode="&#x403;" horiz-adv-x="428" d="M499 832L365 710H264L362 832H499ZM502 674L482 572H250L141 0H25L153 674H502Z"  />
<glyph unicode="&#x404;" horiz-adv-x="557" d="M568 560Q550 570 516 578T439 586Q391 586 350 571T275 530T219 468T185 386H483L468 292H176Q175 287 175 280T174 265Q174 231 185 199T220 142T278 102T361 87Q403 87 439 96T501 116L513 24Q484 10 436 0T332 -11Q262 -11 209 11T121 71T67 163T49 280Q49 374 83 453T180 587Q234 634 301 659T450 685Q510 685 548 674T603 654L568 560Z"  />
<glyph unicode="&#x405;" horiz-adv-x="490" d="M45 133Q74 114 113 102T197 90Q221 90 244 96T284 115T311 147T322 190Q322 223 300 248T227 299Q168 331 129 373T90 475Q90 523 109 562T163 628T242 670T338 685Q395 685 431 674T488 651L450 554Q433 563 402 574T328 584Q272 584 242 557T212 496Q212 461 238 438T313 387Q375 355 409 313T444 208Q444 157 425 117T371 49T289 5T184 -10Q122 -10 75 4T5 37L45 133Z"  />
<glyph unicode="&#x406;" horiz-adv-x="256" d="M267 674L139 0H22L150 674H267Z"  />
<glyph unicode="&#x407;" horiz-adv-x="256" d="M267 674L139 0H22L150 674H267ZM122 716Q99 716 82 731T65 772Q65 800 83 818T128 836Q154 836 169 819T185 779Q185 751 167 734T122 716ZM319 716Q296 716 279 731T262 772Q262 800 280 818T325 836Q351 836 366 819T382 779Q382 751 364 734T319 716Z"  />
<glyph unicode="&#x408;" horiz-adv-x="383" d="M-10 105Q7 99 27 96T72 92Q123 92 154 122T201 234L285 674H401L315 221Q292 97 235 43T73 -11Q41 -11 11 -6T-33 6L-10 105Z"  />
<glyph unicode="&#x409;" horiz-adv-x="894" d="M615 674L567 430Q582 434 602 435T643 437Q689 437 728 425T796 389T841 329T858 244Q858 191 840 150T790 79Q765 56 734 40T667 13T595 -2T520 -7Q471 -7 433 -4T372 2L479 575H307L273 393Q262 339 249 288T219 191T180 110T129 48Q101 22 62 7T-25 -9L-36 89Q-11 90 15 102T57 131Q75 149 91 176T120 238T143 309T161 385L215 674H615ZM502 90Q515 88 528 88T559 87Q590 87 621 96T678 123T719 167T735 230Q735 290 699 317T609 344Q593 344 578 343T549 338L502 90Z"  />
<glyph unicode="&#x40A;" horiz-adv-x="903" d="M269 674L219 410H457L507 674H623L575 422Q590 425 609 427T649 429Q694 429 733 418T802 382T849 322T867 237Q867 187 849 148T799 77Q774 54 743 38T677 12T604 -2T530 -7Q481 -7 442 -4T381 2L439 315H200L141 0H25L153 674H269ZM511 89Q523 87 537 87T569 87Q602 87 633 96T689 122T728 166T743 225Q743 253 733 274T705 308T664 328T615 335Q584 335 556 330L511 89Z"  />
<glyph unicode="&#x40B;" horiz-adv-x="675" d="M597 674L577 574H355L322 406H324Q347 422 384 435T469 449Q507 449 535 438T581 406T607 359T616 298Q615 275 612 248T603 195L569 0H452L488 190Q492 210 494 231T497 270Q497 302 478 326T411 351Q378 351 350 338T304 310L245 0H131L239 574H67L87 674H597Z"  />
<glyph unicode="&#x40C;" horiz-adv-x="557" d="M535 832L400 710H300L398 832H535ZM267 674L211 381H229L481 674H624L332 365Q391 346 419 293T462 163Q472 111 480 71T499 0H379Q370 25 362 68T346 155Q339 189 330 215T306 260T269 287T214 296H195L139 0H24L152 674H267Z"  />
<glyph unicode="&#x40E;" horiz-adv-x="529" d="M317 833Q315 807 325 790T363 773Q391 773 405 789T427 833H513Q502 779 462 749T357 718Q290 718 261 749T233 833H317ZM208 674L278 405Q286 376 293 344T307 279H311Q327 317 340 350T370 419L484 674H617L444 334Q423 294 402 253T357 174T310 102T258 45Q225 14 189 2T115 -11Q92 -11 72 -8T35 4L56 100Q66 96 80 94T108 91Q127 91 143 98T173 117T198 144T217 174Q223 184 224 193T221 217L80 674H208Z"  />
<glyph unicode="&#x40F;" horiz-adv-x="630" d="M269 674L160 99H416L526 674H642L514 0H327L284 -180H191L218 0H25L152 674H269Z"  />
<glyph unicode="&#x410;" horiz-adv-x="596" d="M188 192L96 0H-28L310 674H456L541 0H419L400 192H188ZM393 282L374 450Q372 477 369 512T364 578H362Q348 548 335 514T307 450L225 282H393Z"  />
<glyph unicode="&#x411;" horiz-adv-x="548" d="M530 674L513 574H250L221 424Q236 427 257 429T297 431Q341 431 380 420T448 384T493 324T510 240Q510 181 487 138T427 64Q379 26 313 10T179 -7Q130 -7 89 -4T25 2L152 674H530ZM157 88Q180 84 216 84Q247 84 277 93T332 120T372 164T387 226Q387 284 353 312T263 341Q249 341 233 339T203 335L157 88Z"  />
<glyph unicode="&#x412;" horiz-adv-x="557" d="M150 663Q184 671 225 675T312 679Q365 679 404 670T474 638Q503 620 521 591T539 523Q539 491 528 465T497 417T452 382T399 360V357Q446 343 476 305T507 209Q507 155 482 116T420 51Q378 21 319 9T182 -4Q131 -4 91 -2T26 6L150 663ZM215 398H269Q302 398 329 405T377 427T408 461T419 508Q419 550 390 568T312 587Q270 587 250 582L215 398ZM155 91Q183 88 216 88Q249 88 279 95T332 117T370 155T384 213Q384 240 374 259T345 289T303 306T252 312H197L155 91Z"  />
<glyph unicode="&#x413;" horiz-adv-x="428" d="M502 674L482 572H250L141 0H25L153 674H502Z"  />
<glyph unicode="&#x414;" horiz-adv-x="634" d="M622 674L513 96L574 92L513 -167H419L445 0H68L26 -167H-67L-23 92L27 96Q59 140 84 184T131 277Q153 330 169 384T196 497L230 674H622ZM296 462Q286 410 271 358T235 254Q218 212 197 173T149 98H397L487 574H318L296 462Z"  />
<glyph unicode="&#x415;" horiz-adv-x="496" d="M440 300H198L160 99H432L413 0H24L152 674H526L507 575H250L216 398H459L440 300Z"  />
<glyph unicode="&#x416;" horiz-adv-x="812" d="M219 674L351 379H368L423 674H534L479 379H497L734 674H867L587 365Q619 357 641 338T678 292T702 233T718 168Q726 121 732 80T752 0H635Q624 37 617 78T603 164Q592 228 567 262T484 297H465L409 0H297L353 298H335Q277 298 240 262T172 162Q151 118 134 78T93 0H-31Q-5 38 16 85T60 179Q82 223 102 255T146 309T198 345T264 366L95 674H219Z"  />
<glyph unicode="&#x417;" horiz-adv-x="481" d="M147 396H186Q214 396 242 402T293 422T329 457T342 509Q342 548 317 568T253 589Q215 589 181 578T119 551L95 634Q127 654 173 669T278 685Q314 685 347 676T407 648T448 599T464 528Q464 493 452 465T418 415T370 378T312 356V354Q365 343 399 303T434 202Q434 149 412 109T354 43T271 3T172 -11Q121 -11 72 3T-12 40L25 129Q46 116 86 102T171 88Q199 88 225 95T270 118T302 155T314 207Q314 234 301 253T268 284T224 301T176 307H130L147 396Z"  />
<glyph unicode="&#x418;" horiz-adv-x="646" d="M263 674L216 425Q201 348 186 280T154 143H156Q193 203 231 258T310 370L532 674H657L529 0H419L467 254Q481 327 493 387T523 512L521 513Q487 455 449 398T368 282L159 0H25L153 674H263Z"  />
<glyph unicode="&#x419;" horiz-adv-x="646" d="M374 831Q372 805 383 788T421 771Q448 771 463 787T485 831H570Q559 777 519 747T414 716Q348 716 318 747T290 831H374ZM263 674L216 425Q201 348 186 280T154 143H156Q193 203 231 258T310 370L532 674H657L529 0H419L467 254Q481 327 493 387T523 512L521 513Q487 455 449 398T368 282L159 0H25L153 674H263Z"  />
<glyph unicode="&#x41A;" horiz-adv-x="557" d="M267 674L211 381H229L481 674H624L332 365Q391 346 419 293T462 163Q472 111 480 71T499 0H379Q370 25 362 68T346 155Q339 189 330 215T306 260T269 287T214 296H195L139 0H24L152 674H267Z"  />
<glyph unicode="&#x41B;" horiz-adv-x="615" d="M627 674L498 0H382L491 575H307L272 392Q247 261 215 179T131 51Q105 25 66 9T-24 -10L-36 88Q22 94 59 134Q94 169 118 232T160 384L214 674H627Z"  />
<glyph unicode="&#x41C;" horiz-adv-x="802" d="M588 0L633 317Q641 369 651 435T674 564H671Q645 504 616 443T559 327L393 8H303L268 322Q262 379 258 441T250 564H248Q241 535 234 503T220 437T206 373T193 317L116 0H8L179 674H333L369 359Q373 314 377 264T382 165H386Q404 213 426 263T471 358L634 674H790L701 0H588Z"  />
<glyph unicode="&#x41D;" horiz-adv-x="648" d="M269 674L217 402H491L543 674H660L532 0H415L472 298H197L141 0H25L153 674H269Z"  />
<glyph unicode="&#x41E;" horiz-adv-x="688" d="M411 685Q478 685 528 663T611 603T660 515T676 406Q676 361 668 316T645 229T607 150T554 84Q508 39 448 14T313 -11Q248 -11 199 11T116 71T65 159T48 267Q48 312 56 357T81 445T120 524T174 591Q220 636 281 660T411 685ZM397 587Q358 587 325 572T264 529Q242 507 225 477T195 412T177 342T171 273Q171 235 180 201T208 142T257 102T330 87Q367 87 401 102T461 144Q483 166 500 197T528 263T546 334T552 402Q552 435 545 468T521 528T474 570T397 587Z"  />
<glyph unicode="&#x41F;" horiz-adv-x="633" d="M645 674L517 0H400L510 575H251L141 0H25L153 674H645Z"  />
<glyph unicode="&#x420;" horiz-adv-x="535" d="M150 663Q181 671 224 675T313 679Q360 679 406 668T485 631Q515 608 531 575T547 497Q547 437 523 390T461 314Q420 282 365 266T250 250Q232 250 217 251T187 255L139 0H24L150 663ZM205 351Q219 348 233 347T266 345Q303 345 333 356T385 386T418 432T430 488Q430 515 421 533T396 563T359 580T313 585Q268 585 249 579L205 351Z"  />
<glyph unicode="&#x421;" horiz-adv-x="570" d="M512 20Q485 8 441 -1T336 -10Q270 -10 217 9T127 66T69 155T49 273Q49 379 91 464T207 605Q313 685 458 685Q514 685 552 675T605 654L571 560Q554 569 522 576T444 584Q396 584 352 568T272 522Q227 483 201 422T175 287Q175 245 186 209T220 146T280 104T366 89Q403 89 438 95T501 115L512 20Z"  />
<glyph unicode="&#x422;" horiz-adv-x="503" d="M253 572H66L86 674H577L557 572H369L261 0H144L253 572Z"  />
<glyph unicode="&#x423;" horiz-adv-x="529" d="M208 674L278 405Q286 376 293 344T307 279H311Q327 317 340 350T370 419L484 674H617L444 334Q423 294 402 253T357 174T310 102T258 45Q225 14 189 2T115 -11Q92 -11 72 -8T35 4L56 100Q66 96 80 94T108 91Q127 91 143 98T173 117T198 144T217 174Q223 184 224 193T221 217L80 674H208Z"  />
<glyph unicode="&#x424;" horiz-adv-x="741" d="M277 34Q234 41 194 61T122 113T73 191T54 297Q54 390 87 456T170 564T279 627T393 647L404 701H513L503 644Q546 637 586 618T657 565T706 485T725 375Q725 288 696 224T619 117T510 53T386 30L375 -28H265L277 34ZM377 562Q341 561 305 543T239 491T191 409T172 299Q172 223 207 177T293 120L377 562ZM402 115Q447 117 484 137T549 192T591 275T607 384Q607 461 573 506T486 559L402 115Z"  />
<glyph unicode="&#x425;" horiz-adv-x="547" d="M370 0L316 150Q305 182 296 209T277 266H275Q258 240 242 212T202 148L103 0H-36L221 344L99 674H222L273 525Q283 494 290 470T306 417H308Q326 448 341 474T374 526L476 674H615L363 343L494 0H370Z"  />
<glyph unicode="&#x426;" horiz-adv-x="646" d="M269 674L160 99H417L526 674H642L533 96L593 92L533 -167H439L465 0H25L153 674H269Z"  />
<glyph unicode="&#x427;" horiz-adv-x="581" d="M250 674L214 485Q211 472 208 454T205 420Q205 377 231 357T305 336Q341 336 371 346T419 368L476 674H592L465 0H348L401 271L398 272Q375 260 338 250T258 240Q177 240 131 280T85 391Q85 412 88 434T96 479L133 674H250Z"  />
<glyph unicode="&#x428;" horiz-adv-x="846" d="M267 674L158 99H339L448 674H562L453 99H634L743 674H857L729 0H25L153 674H267Z"  />
<glyph unicode="&#x429;" horiz-adv-x="861" d="M268 674L158 99H339L448 674H563L453 99H634L743 674H858L748 96L808 92L748 -167H653L679 0H25L153 674H268Z"  />
<glyph unicode="&#x42A;" horiz-adv-x="655" d="M377 674L330 430Q345 433 364 435T403 437Q450 437 490 425T559 389T604 328T620 243Q620 190 602 150T553 79Q529 55 498 39T432 13T358 -2T282 -7Q233 -7 195 -4T134 2L242 573H66L85 674H377ZM265 91Q277 89 290 88T323 87Q354 87 385 96T440 122T480 166T496 229Q496 286 462 315T371 344Q354 344 338 342T311 337L265 91Z"  />
<glyph unicode="&#x42B;" horiz-adv-x="773" d="M268 674L220 430Q235 433 255 435T296 437Q339 437 377 425T444 389T488 329T505 244Q504 191 486 150T438 79Q412 54 381 38T316 11T245 -3T173 -7Q124 -7 86 -4T25 2L152 674H268ZM156 91Q166 89 180 88T213 87Q243 87 273 96T327 122T366 166T381 228Q381 286 348 315T261 344Q246 344 231 342T202 337L156 91ZM784 674L656 0H534L663 674H784Z"  />
<glyph unicode="&#x42C;" horiz-adv-x="547" d="M268 674L220 430Q234 433 255 435T296 437Q342 437 381 425T449 389T494 329T511 243Q511 190 493 150T446 81Q395 33 323 13T173 -7Q124 -7 86 -4T25 2L152 674H268ZM156 91Q168 89 181 88T214 87Q245 87 276 96T331 122T371 166T387 228Q387 287 353 315T261 344Q245 344 229 342T202 337L156 91Z"  />
<glyph unicode="&#x42D;" horiz-adv-x="559" d="M134 385H422Q423 390 423 396T423 410Q423 445 412 477T378 533T322 571T246 586Q214 586 179 579T112 559L89 647Q117 661 162 673T262 685Q328 685 380 664T469 603T525 509T545 387Q545 302 517 224T430 87Q380 38 315 14T163 -11Q107 -11 60 1T-11 29L20 121Q50 105 86 97T161 89Q212 89 254 104T327 147T379 212T408 291H116L134 385Z"  />
<glyph unicode="&#x42E;" horiz-adv-x="904" d="M269 674L217 401H311Q325 455 350 502T410 587Q454 633 513 659T639 685Q703 685 750 663T829 603T876 515T892 406Q892 317 863 232T779 88Q735 41 677 15T548 -11Q486 -11 439 11T361 70T313 154T296 251Q296 277 300 300H197L141 0H25L153 674H269ZM562 86Q608 86 646 115T711 190T754 292T770 402Q770 435 764 468T742 528T698 571T625 588Q577 588 538 559T471 483T428 381T412 273Q412 235 420 201T447 142T493 101T562 86Z"  />
<glyph unicode="&#x42F;" horiz-adv-x="548" d="M436 0H319L373 281H334Q298 281 272 267T227 231T192 180T163 125Q149 94 133 61T99 0H-29Q-7 33 12 73T51 152Q64 179 79 205T113 254T154 294T204 320V322Q184 328 164 339T128 369T102 412T92 469Q92 525 118 566T183 633Q225 659 275 669T385 679Q432 679 480 675T560 663L436 0ZM429 583Q419 585 403 586T368 588Q337 588 309 581T260 558T226 520T213 465Q213 440 223 422T249 391T288 372T335 366Q350 366 365 366T389 368L429 583Z"  />
<glyph unicode="&#x430;" horiz-adv-x="540" d="M340 0Q341 22 343 50T349 110H346Q310 42 264 16T172 -11Q106 -11 67 35T28 155Q28 217 49 278T114 388T221 467T371 498Q411 498 450 492T518 476L468 222Q463 195 459 165T452 106T448 49T448 0H340ZM388 403Q379 405 368 406T340 408Q299 408 265 388T204 334T164 260T149 176Q149 138 165 111T219 83Q239 83 261 95T302 132T337 192T362 275L388 403Z"  />
<glyph unicode="&#x431;" horiz-adv-x="537" d="M539 621Q521 614 501 611T461 606Q429 602 399 598T341 584T285 559T234 517Q211 493 193 458T167 390H171Q201 435 244 461T341 487Q381 487 412 473T465 433T497 373T508 298Q508 240 489 185T435 86T349 16T235 -11Q144 -11 95 50T46 222Q46 325 76 417T166 574Q198 610 232 633T304 669T381 690T466 702Q491 705 514 709T557 720L539 621ZM248 76Q284 76 310 97T354 150T379 219T388 288Q388 309 384 329T369 366T343 391T304 401Q275 401 250 384T205 341Q185 314 174 277T162 197Q162 174 167 152T182 113T209 86T248 76Z"  />
<glyph unicode="&#x432;" horiz-adv-x="507" d="M310 498Q345 498 374 491T425 470T457 434T469 382Q469 357 458 338T431 303T394 278T355 263V260Q373 258 391 251T424 230T447 199T456 156Q456 110 433 78T375 27T297 -1T216 -10Q131 -10 84 24T37 136Q37 169 44 214T68 304T107 389T164 453Q194 475 229 486T310 498ZM298 417Q270 417 250 404T216 371T192 327T176 278Q211 283 247 290T311 311Q330 321 343 335T357 369Q357 392 341 404T298 417ZM252 216Q225 216 201 211T161 201Q159 189 157 174T154 143Q154 110 171 91T230 72Q275 72 306 93T338 152Q338 188 313 202T252 216Z"  />
<glyph unicode="&#x433;" horiz-adv-x="397" d="M93 464Q119 478 157 488T237 498Q311 497 348 463T386 370Q386 339 374 315T339 272T289 238T228 209Q185 189 157 171T129 123Q129 103 143 90T189 77Q225 76 258 88T315 112L329 29Q299 12 256 1T169 -10Q94 -9 52 24T9 120Q9 156 23 182T60 227T112 261T172 289Q191 297 209 305T241 323T264 343T273 368Q273 386 258 398T214 410Q185 411 158 403T108 385L93 464Z"  />
<glyph unicode="&#x434;" horiz-adv-x="530" d="M138 720Q167 712 202 711T265 707Q322 701 364 686T437 639Q479 602 496 543T513 417Q513 373 507 324T485 228T447 137T392 61T316 9T219 -11Q129 -11 80 42T31 187Q31 240 48 293T98 390T176 460T281 487Q333 487 366 463T414 397H417Q417 406 417 415T418 434Q418 450 416 467T407 502T392 535T371 563Q346 588 312 598T230 612Q210 614 188 616T140 623L138 720ZM236 76Q269 76 294 98T338 152T365 220T375 284Q375 305 370 325T355 362T328 388T288 398Q253 398 228 377T185 325T160 256T151 186Q151 165 156 145T171 110T197 85T236 76Z"  />
<glyph unicode="&#x435;" horiz-adv-x="479" d="M402 28Q366 9 321 0T230 -10Q179 -10 142 4T80 45T43 109T30 191Q30 246 49 301T105 399T192 470T306 498Q378 498 420 460T463 361Q463 314 440 283T374 232T273 206T144 200Q142 187 145 166T157 131Q186 81 257 81Q299 81 332 90T391 113L402 28ZM353 360Q353 384 336 397T291 411Q264 411 242 400T202 371T173 331T156 287Q201 286 237 289T299 301T339 323T353 360Z"  />
<glyph unicode="&#x436;" horiz-adv-x="686" d="M185 487L278 279H293L332 487H442L401 279H417L591 487H721L513 269Q532 264 546 251T572 219T590 177T602 131Q609 99 615 63T631 0H519Q510 24 505 54T495 110Q486 155 468 183T404 211H388L348 0H238L280 211H268Q220 211 190 187T137 117Q120 83 107 54T78 0H-37Q-20 28 -6 59T26 128Q54 185 93 224T186 268L59 487H185Z"  />
<glyph unicode="&#x437;" horiz-adv-x="434" d="M108 292H155Q174 292 195 295T233 307T262 327T273 358Q273 386 252 399T199 413Q170 413 139 404T81 380L59 452Q93 472 136 484T223 497Q252 497 282 492T338 472T380 434T396 374Q396 348 385 329T357 294T317 270T270 256V255Q290 252 310 243T345 220T371 187T381 142Q381 98 360 69T307 23T235 -1T159 -9Q108 -9 63 2T-18 36L12 116Q41 99 76 88T148 77Q167 77 186 81T222 93T248 115T258 148Q258 167 249 180T223 200T187 211T146 214H96L108 292Z"  />
<glyph unicode="&#x438;" horiz-adv-x="545" d="M524 487L460 151Q452 107 447 70T436 0H333L343 85H341Q306 37 262 13T172 -11Q145 -11 122 -4T82 20T55 63T45 127Q45 167 55 214L107 487H223L173 221Q165 183 165 154Q165 124 178 105T227 85Q247 85 268 96T308 129T341 181T363 250L408 487H524Z"  />
<glyph unicode="&#x439;" horiz-adv-x="545" d="M300 688Q297 658 308 639T343 619Q369 619 383 640T406 688H485Q471 626 433 594T336 561Q303 561 281 571T245 598T226 638T223 688H300ZM524 487L460 151Q452 107 447 70T436 0H333L343 85H341Q306 37 262 13T172 -11Q145 -11 122 -4T82 20T55 63T45 127Q45 167 55 214L107 487H223L173 221Q165 183 165 154Q165 124 178 105T227 85Q247 85 268 96T308 129T341 181T363 250L408 487H524Z"  />
<glyph unicode="&#x43A;" horiz-adv-x="484" d="M226 487L187 280H203L387 487H526L301 267Q338 255 359 219T395 126Q405 91 413 57T431 0H317Q308 19 301 51T283 117Q267 167 247 188T187 210H173L133 0H20L113 487H226Z"  />
<glyph unicode="&#x43B;" horiz-adv-x="529" d="M510 487L418 0H302L377 396H243L222 288Q203 192 176 131T105 38Q80 16 51 5T-23 -7L-31 85Q-11 87 6 93T34 110Q63 133 82 179T114 289L152 487H510Z"  />
<glyph unicode="&#x43C;" horiz-adv-x="692" d="M283 487L311 272Q314 246 318 213T324 149H326Q331 161 339 177T357 213T378 253T400 294L505 487H653L589 0H481L512 212Q517 247 524 293T538 377H534Q523 352 502 311T458 226L339 6H250L223 220Q218 258 214 302T207 378H203Q199 358 194 336T184 292T174 248T165 209L112 0H8L138 487H283Z"  />
<glyph unicode="&#x43D;" horiz-adv-x="544" d="M228 487L193 300H373L409 487H525L433 0H316L356 209H176L136 0H20L112 487H228Z"  />
<glyph unicode="&#x43E;" horiz-adv-x="542" d="M313 498Q362 498 399 482T462 438T500 373T513 296Q513 234 493 179T435 81T345 14T231 -11Q185 -11 148 4T86 46T46 109T32 190Q32 252 52 308T110 406T199 473T313 498ZM299 408Q264 408 237 387T191 335T162 265T152 193Q152 142 177 111T247 79Q280 79 306 99T352 151T381 221T392 296Q392 315 388 334T372 370T344 397T299 408Z"  />
<glyph unicode="&#x43F;" horiz-adv-x="550" d="M20 0L83 336Q92 380 97 417T108 487H211L201 399H203Q237 449 282 473T378 498Q430 498 466 466T502 364Q502 347 500 325T493 283L439 0H323L375 275Q377 289 379 304T381 333Q381 363 368 383T320 403Q300 403 279 391T237 357T202 301T178 225L136 0H20Z"  />
<glyph unicode="&#x440;" horiz-adv-x="548" d="M-21 -198L74 306Q82 350 89 399T102 487H207L196 407H198Q230 451 272 474T363 498Q402 498 431 483T479 443T507 386T517 317Q517 253 496 194T438 90T348 17T233 -11Q199 -11 175 -5T136 10H134L95 -198H-21ZM153 103Q182 79 231 79Q265 79 294 99T346 152T382 226T395 308Q395 325 391 342T378 372T354 394T318 403Q296 403 274 391T232 355T197 299T174 222L153 103Z"  />
<glyph unicode="&#x441;" horiz-adv-x="428" d="M367 17Q345 6 310 -2T227 -10Q181 -10 145 4T83 43T44 104T30 184Q30 248 53 305T117 405T214 473T339 498Q371 498 398 492T439 479L409 388Q395 394 378 398T336 403Q294 403 260 385T202 338T165 273T152 198Q152 143 181 114T259 84Q293 84 318 91T362 107L367 17Z"  />
<glyph unicode="&#x442;" horiz-adv-x="821" d="M20 0L82 336Q90 380 96 417T106 487H207L197 402H198Q233 451 276 474T367 498Q424 498 451 468T482 398Q514 449 558 473T654 498Q704 498 738 466T773 368Q773 352 771 329T765 285L711 0H598L649 272Q651 287 653 303T656 334Q656 365 642 384T596 403Q576 403 556 391T518 357T486 303T465 233L421 0H309L361 276Q367 306 367 333Q367 361 356 382T309 403Q289 403 268 390T229 354T196 300T175 231L133 0H20Z"  />
<glyph unicode="&#x443;" horiz-adv-x="471" d="M167 487L205 252Q212 213 216 185T224 131H226Q235 154 245 180T273 247L378 487H501L323 128Q278 38 236 -27T145 -140Q124 -161 102 -175T60 -200T23 -216T-5 -224L-32 -124Q-15 -119 8 -109T54 -82Q79 -64 101 -39T140 15Q145 25 142 38L45 487H167Z"  />
<glyph unicode="&#x444;" horiz-adv-x="709" d="M263 44H262Q243 21 216 5T149 -11Q95 -11 62 34T28 161Q28 217 44 277T90 386T163 466T261 498Q292 498 311 481T339 444H341L391 710H496L442 441H444Q461 461 490 479T555 498Q589 498 613 484T652 445T675 388T682 321Q682 264 667 205T622 98T550 20T455 -11Q425 -11 402 4T369 42H367L324 -198H215L263 44ZM273 408Q242 408 218 383T178 322T153 246T144 173Q144 131 159 107T201 83Q219 83 233 91T259 113T277 142T288 176L314 306Q317 319 318 330T319 355Q319 375 306 391T273 408ZM512 403Q470 403 441 357Q432 340 427 321T416 279Q405 226 395 171Q393 158 393 147T397 129Q398 121 402 113T413 97T429 86T451 82Q478 84 499 107T535 165T558 237T566 309Q566 327 564 344T555 374T538 395T512 403Z"  />
<glyph unicode="&#x445;" horiz-adv-x="472" d="M182 487L220 399Q231 373 238 354T251 319H254Q268 339 279 355T307 395L377 487H511L305 250L419 0H292L253 92Q242 119 235 138T220 180H217Q206 163 195 144T168 101L91 0H-43L169 251L55 487H182Z"  />
<glyph unicode="&#x446;" horiz-adv-x="558" d="M223 487L173 221Q165 183 165 154Q165 124 178 105T227 85Q247 85 268 96T308 129T341 181T363 250L408 487H524L468 190Q464 173 462 156T459 125Q459 98 474 82T527 64L459 -148H374L414 1Q402 4 390 12T370 33Q362 45 359 59T356 88H354Q319 40 273 15T178 -11Q151 -11 127 -4T84 20T56 63T45 127Q45 167 55 214L107 487H223Z"  />
<glyph unicode="&#x447;" horiz-adv-x="520" d="M210 487L188 377Q185 361 182 344T179 309Q179 283 194 265T251 247Q275 247 302 257T347 282L385 487H501L408 0H292L331 194H329Q306 180 275 171T205 161Q128 161 94 195T59 283Q59 302 62 323T69 366L94 487H210Z"  />
<glyph unicode="&#x448;" horiz-adv-x="809" d="M220 487L169 214Q167 200 165 184T163 153Q163 121 176 103T219 84Q239 84 259 96T296 130T327 183T348 253L392 487H505L453 211Q450 196 448 182T446 154Q446 126 457 105T502 84Q521 84 541 97T580 133T612 187T633 256L676 487H789L727 154Q720 115 718 74T713 0H608Q609 24 610 45T613 85H611Q578 36 536 13T445 -11Q418 -11 397 -3T362 19T341 51T332 88Q299 38 255 14T159 -11Q111 -11 78 21T45 118Q45 135 47 158T53 202L107 487H220Z"  />
<glyph unicode="&#x449;" horiz-adv-x="824" d="M220 487L169 214Q167 200 165 184T163 153Q163 121 176 103T219 84Q238 84 258 96T295 130T326 183T348 253L392 487H505L453 211Q450 196 448 182T446 154Q446 126 457 105T502 84Q521 84 541 97T580 133T612 187T633 256L676 487H789L735 197Q732 182 729 160T725 123Q725 97 740 81T793 64L725 -148H640L679 1Q666 4 655 12T637 33T625 59T620 88H617Q583 38 539 14T444 -11Q417 -11 397 -3T362 19T341 51T332 88Q299 38 255 14T161 -11Q113 -11 79 21T45 118Q45 135 47 158T53 202L107 487H220Z"  />
<glyph unicode="&#x44A;" horiz-adv-x="550" d="M353 487Q321 436 291 387T238 282H239Q264 307 299 321T376 336Q434 336 471 302T509 206Q509 166 492 128T442 59T364 11T260 -8Q228 -8 199 -2T147 19T111 60T97 128Q97 159 106 194T130 265T164 334T203 396H38L55 487H353ZM273 76Q297 76 318 84T357 106T384 141T394 185Q394 215 377 233T327 252Q309 252 292 246T261 229T237 205T221 178Q212 157 212 136Q212 111 227 94T273 76Z"  />
<glyph unicode="&#x44B;" horiz-adv-x="701" d="M231 487L180 283H181Q205 307 241 321T313 336Q372 336 409 302T446 204Q446 164 429 126T380 58T300 10T192 -8Q164 -8 137 -4T88 13T53 47T39 104Q39 125 43 151T52 198L116 487H231ZM214 76Q235 76 256 83T293 105T320 140T331 185Q331 215 314 233T265 252Q247 252 230 245T199 225T175 198T161 168Q158 157 156 148T154 125Q154 102 169 89T214 76ZM682 487L589 0H467L560 487H682Z"  />
<glyph unicode="&#x44C;" horiz-adv-x="493" d="M231 487L180 283H181Q205 307 242 321T315 336Q374 336 413 302T452 205Q452 163 435 124T384 56T304 10T195 -8Q166 -8 138 -3T88 14T53 50T39 109Q39 128 43 154T53 200L117 487H231ZM215 76Q237 76 259 83T298 105T326 139T337 184Q337 215 321 233T271 252Q251 252 234 245T202 225T178 199T163 172Q159 161 157 152T155 128Q155 103 170 90T215 76Z"  />
<glyph unicode="&#x44D;" horiz-adv-x="457" d="M105 283H306V296Q306 342 275 375T184 408Q153 408 126 402T78 387L58 469Q85 480 121 489T199 498Q253 498 295 482T365 435T407 363T422 270Q422 209 403 158T346 69T255 10T132 -11Q89 -11 52 -2T-13 24L16 106Q36 96 67 88T133 80Q196 80 239 112T296 206H92L105 283Z"  />
<glyph unicode="&#x44E;" horiz-adv-x="734" d="M228 487L193 297H263Q276 340 300 377T356 441T428 483T512 498Q558 498 594 482T654 437T691 372T704 293Q704 232 685 177T630 80T545 14T436 -11Q391 -11 357 4T298 44T262 104T249 179Q249 187 249 195T251 212H176L136 0H20L112 487H228ZM449 79Q479 79 504 99T547 150T575 220T585 295Q585 314 581 334T567 370T541 397T500 408Q468 408 443 387T399 334T372 264T362 193Q362 144 384 112T449 79Z"  />
<glyph unicode="&#x44F;" horiz-adv-x="506" d="M395 0H281L318 193H279Q234 193 207 171T157 104Q143 77 131 51T102 0H-22Q-1 32 14 63T46 128Q68 167 96 194T167 229V231Q150 235 132 244T100 266T76 298T67 340Q67 391 92 421T156 468T240 490T326 495Q370 495 412 492T487 484L395 0ZM359 410Q347 412 334 413T301 415Q279 415 259 412T222 399T197 375T187 338Q187 320 196 307T220 286T253 274T288 270H332L359 410Z"  />
<glyph unicode="&#x451;" horiz-adv-x="479" d="M402 28Q366 9 321 0T230 -10Q179 -10 142 4T80 45T43 109T30 191Q30 246 49 301T105 399T192 470T306 498Q378 498 420 460T463 361Q463 314 440 283T374 232T273 206T144 200Q142 187 145 166T157 131Q186 81 257 81Q299 81 332 90T391 113L402 28ZM353 360Q353 384 336 397T291 411Q264 411 242 400T202 371T173 331T156 287Q201 286 237 289T299 301T339 323T353 360ZM223 561Q199 561 182 577T165 619Q165 648 184 666T230 685Q256 685 271 668T287 626Q287 597 269 579T223 561ZM419 561Q394 561 377 577T360 619Q360 648 379 666T425 685Q451 685 466 668T482 626Q482 597 464 579T419 561Z"  />
<glyph unicode="&#x452;" horiz-adv-x="549" d="M270 710L257 636H494L478 558H242L216 424H218Q244 453 279 472T361 492Q401 492 429 476T476 433T503 368T512 289Q512 240 504 190T480 94T438 6T377 -66Q346 -100 301 -122T211 -150L192 -54Q221 -49 243 -37T289 -1Q312 18 330 47T362 112T383 188T391 269Q391 294 388 317T375 358T351 385T312 396Q290 396 270 385T233 355T204 310T186 255L137 0H20L126 558H68L84 636H141L155 710H270Z"  />
<glyph unicode="&#x453;" horiz-adv-x="397" d="M426 694L295 546H207L303 694H426ZM93 464Q119 478 157 488T237 498Q311 497 348 463T386 370Q386 339 374 315T339 272T289 238T228 209Q185 189 157 171T129 123Q129 103 143 90T189 77Q225 76 258 88T315 112L329 29Q299 12 256 1T169 -10Q94 -9 52 24T9 120Q9 156 23 182T60 227T112 261T172 289Q191 297 209 305T241 323T264 343T273 368Q273 386 258 398T214 410Q185 411 158 403T108 385L93 464Z"  />
<glyph unicode="&#x454;" horiz-adv-x="433" d="M417 388Q403 395 380 401T326 408Q264 408 222 373T164 283H371L357 207H152Q151 202 151 199T151 190Q156 142 188 112T277 81Q304 81 329 86T375 101L384 17Q358 3 322 -4T243 -11Q196 -11 157 4T91 47T48 115T32 204Q32 267 52 320T111 412Q151 454 206 476T326 498Q366 498 398 490T447 471L417 388Z"  />
<glyph unicode="&#x455;" horiz-adv-x="397" d="M32 109Q51 98 83 87T149 76Q184 77 204 94T224 136Q224 159 210 175T160 211Q118 233 91 264T64 338Q64 373 78 402T119 453T182 486T261 498Q299 498 329 491T376 473L346 389Q332 397 309 404T255 411Q222 411 202 395T181 354Q181 334 197 319T244 287Q284 265 314 234T345 156Q345 116 329 85T286 33T220 1T138 -10Q95 -10 59 0T2 25L32 109Z"  />
<glyph unicode="&#x456;" horiz-adv-x="250" d="M20 0L112 487H229L136 0H20ZM191 557Q164 557 147 574T131 619Q131 651 151 670T201 690Q228 690 245 673T263 627Q262 595 241 576T191 557Z"  />
<glyph unicode="&#x457;" horiz-adv-x="249" d="M20 0L112 487H229L136 0H20ZM94 561Q69 561 52 577T35 619Q35 648 54 666T100 685Q126 685 141 668T157 626Q157 597 139 579T94 561ZM289 561Q264 561 248 577T231 619Q231 648 249 666T296 685Q322 685 337 668T353 626Q353 597 335 579T289 561Z"  />
<glyph unicode="&#x458;" horiz-adv-x="254" d="M239 487L149 10Q137 -52 122 -92T83 -159Q60 -185 28 -197T-40 -209Q-56 -209 -72 -208T-103 -202L-89 -113Q-76 -116 -54 -116Q-40 -116 -28 -112T-5 -94T15 -59T30 -2L123 487H239ZM196 557Q170 557 153 574T136 619Q136 651 156 670T206 690Q234 690 251 673T268 627Q268 595 247 576T196 557Z"  />
<glyph unicode="&#x459;" horiz-adv-x="762" d="M492 487L450 285H452Q478 309 514 322T587 336Q645 336 683 303T722 206Q722 165 705 127T655 58T574 10T464 -8Q435 -8 407 -3T357 14T322 49T309 108Q309 127 313 151T321 198L362 396H234L212 286Q202 236 191 197T166 128T135 75T97 36Q74 15 45 4T-24 -8L-32 84Q-17 86 -2 92T25 109Q53 130 72 174T105 287L143 487H492ZM486 76Q508 76 529 83T568 105T596 139T607 183Q607 215 590 233T542 252Q523 252 506 245T474 226T450 200T433 172Q425 151 425 130Q425 76 486 76Z"  />
<glyph unicode="&#x45A;" horiz-adv-x="772" d="M228 487L194 308H354L389 487H502L461 285H463Q486 309 522 322T594 336Q623 336 648 327T691 302T720 260T731 204Q731 163 714 125T664 57T583 10T472 -8Q444 -8 417 -4T368 13T333 46T319 102Q319 116 321 134T327 168L337 219H177L136 0H20L112 487H228ZM495 76Q519 76 541 83T580 105T607 139T617 183Q617 214 599 233T549 252Q529 252 512 245T481 225T457 199T442 169Q440 159 437 150T434 126Q434 103 451 90T495 76Z"  />
<glyph unicode="&#x45B;" horiz-adv-x="551" d="M272 710L258 635H483L466 558H243L215 414H217Q247 451 288 474T380 498Q405 498 427 490T466 466T493 426T503 367Q503 348 501 325T494 281L441 0H324L376 273Q378 287 380 302T382 335Q382 364 369 383T321 403Q300 403 278 391T237 357T203 303T181 232L137 0H21L127 558H59L75 635H141L156 710H272Z"  />
<glyph unicode="&#x45C;" horiz-adv-x="484" d="M464 694L333 546H245L341 694H464ZM226 487L187 280H203L387 487H526L301 267Q338 255 359 219T395 126Q405 91 413 57T431 0H317Q308 19 301 51T283 117Q267 167 247 188T187 210H173L133 0H20L113 487H226Z"  />
<glyph unicode="&#x45E;" horiz-adv-x="471" d="M252 688Q249 658 260 639T295 619Q321 619 335 640T358 688H437Q423 626 385 594T288 561Q255 561 233 571T197 598T178 638T175 688H252ZM167 487L205 252Q212 213 216 185T224 131H226Q235 154 245 180T273 247L378 487H501L323 128Q278 38 236 -27T145 -140Q124 -161 102 -175T60 -200T23 -216T-5 -224L-32 -124Q-15 -119 8 -109T54 -82Q79 -64 101 -39T140 15Q145 25 142 38L45 487H167Z"  />
<glyph unicode="&#x45F;" horiz-adv-x="545" d="M138 -205L171 -46L276 -38L232 -193L138 -205ZM524 487L460 151Q452 107 447 70T436 0H333L343 85H341Q306 37 262 13T172 -11Q145 -11 122 -4T82 20T55 63T45 127Q45 167 55 214L107 487H223L173 221Q165 183 165 154Q165 124 178 105T227 85Q247 85 268 96T308 129T341 181T363 250L408 487H524Z"  />
<glyph unicode="&#x490;" horiz-adv-x="426" d="M403 674L447 804H537L480 572H249L142 0H25L152 674H403Z"  />
<glyph unicode="&#x491;" horiz-adv-x="389" d="M320 487L359 599H446L396 395H210L136 0H20L112 487H320Z"  />
<glyph unicode="&#x4D9;" horiz-adv-x="473" d="M71 457Q106 477 153 487T245 498Q296 498 333 483T395 441T432 377T444 295Q444 240 425 186T370 88T284 17T170 -10Q97 -10 54 27T11 126Q11 173 34 204T100 255T201 281T331 287Q332 300 329 320T318 355Q304 381 278 393T218 406Q177 406 144 396T86 373L71 457ZM184 77Q211 77 233 88T273 117T301 157T319 201Q228 202 175 187T122 127Q122 104 139 91T184 77Z"  />
<glyph unicode="&#x1E80;" horiz-adv-x="848" d="M487 832L564 711H467L354 832H487ZM124 0L95 674H212L219 327Q220 264 219 216T216 128H218Q234 170 250 216T293 324L444 674H571L576 334Q577 271 576 222T573 131H575Q592 179 609 227T646 327L791 674H914L610 0H484L474 325Q473 354 473 380T473 430T475 480T478 535H475Q458 483 441 434T400 330L252 0H124Z"  />
<glyph unicode="&#x1E81;" horiz-adv-x="721" d="M401 694L472 546H388L282 694H401ZM172 487L181 250Q183 207 182 175T179 106H181Q192 138 206 172T238 243L356 487H453L473 249Q476 207 477 173T478 106H480Q491 141 503 175T530 249L635 487H753L514 0H405L383 212Q380 248 379 282T378 356H376Q358 312 346 281T318 217L210 0H101L56 487H172Z"  />
<glyph unicode="&#x1E82;" horiz-adv-x="848" d="M682 832L548 710H447L545 832H682ZM124 0L95 674H212L219 327Q220 264 219 216T216 128H218Q234 170 250 216T293 324L444 674H571L576 334Q577 271 576 222T573 131H575Q592 179 609 227T646 327L791 674H914L610 0H484L474 325Q473 354 473 380T473 430T475 480T478 535H475Q458 483 441 434T400 330L252 0H124Z"  />
<glyph unicode="&#x1E83;" horiz-adv-x="721" d="M571 694L440 546H352L448 694H571ZM172 487L181 250Q183 207 182 175T179 106H181Q192 138 206 172T238 243L356 487H453L473 249Q476 207 477 173T478 106H480Q491 141 503 175T530 249L635 487H753L514 0H405L383 212Q380 248 379 282T378 356H376Q358 312 346 281T318 217L210 0H101L56 487H172Z"  />
<glyph unicode="&#x1E84;" horiz-adv-x="848" d="M423 716Q400 716 383 731T366 772Q366 800 385 818T430 836Q456 836 471 819T486 779Q486 751 468 734T423 716ZM620 716Q597 716 580 731T563 772Q563 800 582 818T627 836Q653 836 668 819T683 779Q683 751 665 734T620 716ZM124 0L95 674H212L219 327Q220 264 219 216T216 128H218Q234 170 250 216T293 324L444 674H571L576 334Q577 271 576 222T573 131H575Q592 179 609 227T646 327L791 674H914L610 0H484L474 325Q473 354 473 380T473 430T475 480T478 535H475Q458 483 441 434T400 330L252 0H124Z"  />
<glyph unicode="&#x1E85;" horiz-adv-x="721" d="M328 561Q303 561 286 577T269 619Q269 648 288 666T334 685Q360 685 376 668T392 626Q392 597 374 579T328 561ZM523 561Q498 561 482 577T465 619Q465 648 484 666T530 685Q556 685 571 668T587 626Q587 597 569 579T523 561ZM172 487L181 250Q183 207 182 175T179 106H181Q192 138 206 172T238 243L356 487H453L473 249Q476 207 477 173T478 106H480Q491 141 503 175T530 249L635 487H753L514 0H405L383 212Q380 248 379 282T378 356H376Q358 312 346 281T318 217L210 0H101L56 487H172Z"  />
<glyph unicode="&#x1EA0;" horiz-adv-x="596" d="M188 192L96 0H-28L310 674H456L541 0H419L400 192H188ZM393 282L374 450Q372 477 369 512T364 578H362Q348 548 335 514T307 450L225 282H393ZM233 -201Q207 -201 190 -183T172 -140Q172 -115 189 -98T233 -80Q258 -80 274 -97T291 -140Q291 -164 275 -182T233 -201Z"  />
<glyph unicode="&#x1EA1;" horiz-adv-x="540" d="M340 0Q341 22 343 50T349 110H346Q310 42 264 16T172 -11Q106 -11 67 35T28 155Q28 217 49 278T114 388T221 467T371 498Q411 498 450 492T518 476L468 222Q463 195 459 165T452 106T448 49T448 0H340ZM388 403Q379 405 368 406T340 408Q299 408 265 388T204 334T164 260T149 176Q149 138 165 111T219 83Q239 83 261 95T302 132T337 192T362 275L388 403ZM210 -204Q183 -204 166 -186T148 -142Q148 -116 166 -98T210 -80Q236 -80 253 -98T270 -142Q270 -168 253 -186T210 -204Z"  />
<glyph unicode="&#x1EA2;" horiz-adv-x="596" d="M188 192L96 0H-28L310 674H456L541 0H419L400 192H188ZM393 282L374 450Q372 477 369 512T364 578H362Q348 548 335 514T307 450L225 282H393ZM356 725Q364 740 374 750T394 770T409 788T416 810Q416 821 409 829T388 837Q373 837 361 827T339 806L302 833Q322 862 349 881T415 901Q453 901 476 880T500 827Q500 806 491 791T468 763T439 737T411 706L356 725Z"  />
<glyph unicode="&#x1EA3;" horiz-adv-x="540" d="M340 0Q341 22 343 50T349 110H346Q310 42 264 16T172 -11Q106 -11 67 35T28 155Q28 217 49 278T114 388T221 467T371 498Q411 498 450 492T518 476L468 222Q463 195 459 165T452 106T448 49T448 0H340ZM388 403Q379 405 368 406T340 408Q299 408 265 388T204 334T164 260T149 176Q149 138 165 111T219 83Q239 83 261 95T302 132T337 192T362 275L388 403ZM295 546Q301 562 312 574T335 597T354 619T362 645Q362 658 355 666T335 674Q318 674 305 663T283 638L243 665Q263 696 291 717T360 738Q399 738 421 716T444 662Q444 637 434 620T410 588T380 561T355 530L295 546Z"  />
<glyph unicode="&#x1EA4;" horiz-adv-x="596" d="M188 192L96 0H-28L310 674H456L541 0H419L400 192H188ZM393 282L374 450Q372 477 369 512T364 578H362Q348 548 335 514T307 450L225 282H393ZM456 829L522 710H438L406 776H404L340 710H247L371 829H456ZM688 906L559 798H497L586 906H688Z"  />
<glyph unicode="&#x1EA5;" horiz-adv-x="540" d="M340 0Q341 22 343 50T349 110H346Q310 42 264 16T172 -11Q106 -11 67 35T28 155Q28 217 49 278T114 388T221 467T371 498Q411 498 450 492T518 476L468 222Q463 195 459 165T452 106T448 49T448 0H340ZM388 403Q379 405 368 406T340 408Q299 408 265 388T204 334T164 260T149 176Q149 138 165 111T219 83Q239 83 261 95T302 132T337 192T362 275L388 403ZM409 698L472 550H392L359 640H356L296 550H211L322 698H409ZM646 785L519 645H456L546 785H646Z"  />
<glyph unicode="&#x1EA6;" horiz-adv-x="596" d="M188 192L96 0H-28L310 674H456L541 0H419L400 192H188ZM393 282L374 450Q372 477 369 512T364 578H362Q348 548 335 514T307 450L225 282H393ZM551 892L608 783H546L448 892H551ZM455 829L521 710H437L406 776H404L340 710H246L371 829H455Z"  />
<glyph unicode="&#x1EA7;" horiz-adv-x="540" d="M340 0Q341 22 343 50T349 110H346Q310 42 264 16T172 -11Q106 -11 67 35T28 155Q28 217 49 278T114 388T221 467T371 498Q411 498 450 492T518 476L468 222Q463 195 459 165T452 106T448 49T448 0H340ZM388 403Q379 405 368 406T340 408Q299 408 265 388T204 334T164 260T149 176Q149 138 165 111T219 83Q239 83 261 95T302 132T337 192T362 275L388 403ZM486 787L555 647H497L394 787H486ZM399 698L462 550H382L349 640H346L286 550H201L312 698H399Z"  />
<glyph unicode="&#x1EA8;" horiz-adv-x="596" d="M188 192L96 0H-28L310 674H456L541 0H419L400 192H188ZM393 282L374 450Q372 477 369 512T364 578H362Q348 548 335 514T307 450L225 282H393ZM519 775Q526 789 536 798T556 816T572 832T579 852Q579 863 571 871T549 879Q535 879 522 870T500 851L468 883Q484 904 511 921T573 938Q609 938 631 918T654 868Q654 847 645 833T623 806T595 783T570 755L519 775ZM457 829L523 710H439L408 776H406L342 710H248L373 829H457Z"  />
<glyph unicode="&#x1EA9;" horiz-adv-x="540" d="M340 0Q341 22 343 50T349 110H346Q310 42 264 16T172 -11Q106 -11 67 35T28 155Q28 217 49 278T114 388T221 467T371 498Q411 498 450 492T518 476L468 222Q463 195 459 165T452 106T448 49T448 0H340ZM388 403Q379 405 368 406T340 408Q299 408 265 388T204 334T164 260T149 176Q149 138 165 111T219 83Q239 83 261 95T302 132T337 192T362 275L388 403ZM399 698L462 550H382L349 640H346L286 550H201L312 698H399ZM458 653Q465 667 475 676T495 694T511 710T518 730Q518 742 510 749T488 757Q474 757 461 748T439 729L407 761Q423 782 450 799T512 816Q548 816 570 796T593 746Q593 725 584 711T562 684T534 661T509 633L458 653Z"  />
<glyph unicode="&#x1EAA;" horiz-adv-x="596" d="M188 192L96 0H-28L310 674H456L541 0H419L400 192H188ZM393 282L374 450Q372 477 369 512T364 578H362Q348 548 335 514T307 450L225 282H393ZM285 844Q290 892 313 919T372 946Q390 946 404 940T432 926Q444 919 454 914T473 909Q485 909 492 917T504 950H563Q558 894 536 871T476 847Q457 847 444 853T414 868Q400 876 392 879T375 883Q364 883 357 872T345 844H285ZM456 829L522 710H438L407 776H405L341 710H247L372 829H456Z"  />
<glyph unicode="&#x1EAB;" horiz-adv-x="540" d="M340 0Q341 22 343 50T349 110H346Q310 42 264 16T172 -11Q106 -11 67 35T28 155Q28 217 49 278T114 388T221 467T371 498Q411 498 450 492T518 476L468 222Q463 195 459 165T452 106T448 49T448 0H340ZM388 403Q379 405 368 406T340 408Q299 408 265 388T204 334T164 260T149 176Q149 138 165 111T219 83Q239 83 261 95T302 132T337 192T362 275L388 403ZM228 699Q233 747 256 774T315 801Q333 801 347 795T376 781Q387 774 397 769T416 764Q428 764 435 772T447 805H506Q501 749 479 725T419 701Q400 701 387 708T357 723Q343 731 335 734T318 738Q307 738 300 727T288 699H228ZM396 677L463 550H385L352 621H350L298 550H211L315 677H396Z"  />
<glyph unicode="&#x1EAC;" horiz-adv-x="596" d="M188 192L96 0H-28L310 674H456L541 0H419L400 192H188ZM393 282L374 450Q372 477 369 512T364 578H362Q348 548 335 514T307 450L225 282H393ZM452 832L532 710H446L402 776H400L335 710H241L363 832H452ZM234 -201Q208 -201 191 -183T173 -140Q173 -115 191 -98T235 -80Q260 -80 276 -97T293 -140Q293 -164 277 -182T234 -201Z"  />
<glyph unicode="&#x1EAD;" horiz-adv-x="540" d="M340 0Q341 22 343 50T349 110H346Q310 42 264 16T172 -11Q106 -11 67 35T28 155Q28 217 49 278T114 388T221 467T371 498Q411 498 450 492T518 476L468 222Q463 195 459 165T452 106T448 49T448 0H340ZM388 403Q379 405 368 406T340 408Q299 408 265 388T204 334T164 260T149 176Q149 138 165 111T219 83Q239 83 261 95T302 132T337 192T362 275L388 403ZM403 694L475 546H396L355 630H353L289 546H203L322 694H403ZM219 -204Q192 -204 175 -186T157 -142Q157 -116 175 -98T219 -80Q245 -80 262 -98T279 -142Q279 -168 262 -186T219 -204Z"  />
<glyph unicode="&#x1EAE;" horiz-adv-x="596" d="M188 192L96 0H-28L310 674H456L541 0H419L400 192H188ZM393 282L374 450Q372 477 369 512T364 578H362Q348 548 335 514T307 450L225 282H393ZM544 911L416 801H358L434 911H544ZM334 812Q333 792 347 777T393 762Q426 762 443 776T466 812H531Q523 765 489 732T387 699Q352 699 329 708T291 732T272 768T270 812H334Z"  />
<glyph unicode="&#x1EAF;" horiz-adv-x="540" d="M340 0Q341 22 343 50T349 110H346Q310 42 264 16T172 -11Q106 -11 67 35T28 155Q28 217 49 278T114 388T221 467T371 498Q411 498 450 492T518 476L468 222Q463 195 459 165T452 106T448 49T448 0H340ZM388 403Q379 405 368 406T340 408Q299 408 265 388T204 334T164 260T149 176Q149 138 165 111T219 83Q239 83 261 95T302 132T337 192T362 275L388 403ZM495 793L376 652H309L392 793H495ZM284 658Q283 632 298 614T343 596Q378 596 397 615T421 658H486Q477 601 438 567T339 532Q305 532 282 542T244 570T225 611T223 658H284Z"  />
<glyph unicode="&#x1EB0;" horiz-adv-x="596" d="M188 192L96 0H-28L310 674H456L541 0H419L400 192H188ZM393 282L374 450Q372 477 369 512T364 578H362Q348 548 335 514T307 450L225 282H393ZM382 912L441 802H382L273 912H382ZM335 812Q335 792 349 777T395 762Q427 762 444 776T467 812H533Q525 765 490 732T388 699Q354 699 331 708T293 732T274 768T272 812H335Z"  />
<glyph unicode="&#x1EB1;" horiz-adv-x="540" d="M340 0Q341 22 343 50T349 110H346Q310 42 264 16T172 -11Q106 -11 67 35T28 155Q28 217 49 278T114 388T221 467T371 498Q411 498 450 492T518 476L468 222Q463 195 459 165T452 106T448 49T448 0H340ZM388 403Q379 405 368 406T340 408Q299 408 265 388T204 334T164 260T149 176Q149 138 165 111T219 83Q239 83 261 95T302 132T337 192T362 275L388 403ZM321 794L391 653H326L221 794H321ZM283 658Q282 632 297 614T342 596Q377 596 396 615T420 658H485Q476 601 437 567T338 532Q304 532 281 542T243 570T224 611T222 658H283Z"  />
<glyph unicode="&#x1EB2;" horiz-adv-x="596" d="M188 192L96 0H-28L310 674H456L541 0H419L400 192H188ZM393 282L374 450Q372 477 369 512T364 578H362Q348 548 335 514T307 450L225 282H393ZM361 809Q368 823 378 832T398 850T414 866T421 886Q421 898 413 905T391 913Q377 913 364 904T342 885L310 918Q326 938 353 955T415 972Q451 972 473 952T496 902Q496 881 487 867T465 840T437 817T412 789L361 809ZM336 812Q336 792 349 777T395 762Q428 762 445 776T468 812H533Q525 765 491 732T389 699Q354 699 331 708T293 732T274 768T272 812H336Z"  />
<glyph unicode="&#x1EB3;" horiz-adv-x="540" d="M340 0Q341 22 343 50T349 110H346Q310 42 264 16T172 -11Q106 -11 67 35T28 155Q28 217 49 278T114 388T221 467T371 498Q411 498 450 492T518 476L468 222Q463 195 459 165T452 106T448 49T448 0H340ZM388 403Q379 405 368 406T340 408Q299 408 265 388T204 334T164 260T149 176Q149 138 165 111T219 83Q239 83 261 95T302 132T337 192T362 275L388 403ZM283 661Q282 635 297 617T342 599Q377 599 396 618T420 661H485Q476 604 437 570T338 535Q304 535 281 545T243 573T224 613T222 661H283ZM310 663Q317 677 327 686T347 704T363 720T370 740Q370 751 362 759T340 767Q326 767 313 758T291 739L258 771Q275 792 302 809T363 826Q400 826 422 806T445 755Q445 734 436 720T414 694T386 670T361 643L310 663Z"  />
<glyph unicode="&#x1EB4;" horiz-adv-x="596" d="M188 192L96 0H-28L310 674H456L541 0H419L400 192H188ZM393 282L374 450Q372 477 369 512T364 578H362Q348 548 335 514T307 450L225 282H393ZM338 812Q337 792 349 777T393 762Q425 762 441 776T463 812H532Q524 765 489 732T387 699Q353 699 330 708T292 732T273 768T271 812H338ZM271 842Q279 890 303 918T361 947Q382 947 395 941T422 927Q433 919 443 914T464 908Q477 908 484 917T499 950H558Q548 893 525 866T465 839Q445 839 431 844T403 858Q391 866 382 871T362 876Q342 876 332 842H271Z"  />
<glyph unicode="&#x1EB5;" horiz-adv-x="540" d="M340 0Q341 22 343 50T349 110H346Q310 42 264 16T172 -11Q106 -11 67 35T28 155Q28 217 49 278T114 388T221 467T371 498Q411 498 450 492T518 476L468 222Q463 195 459 165T452 106T448 49T448 0H340ZM388 403Q379 405 368 406T340 408Q299 408 265 388T204 334T164 260T149 176Q149 138 165 111T219 83Q239 83 261 95T302 132T337 192T362 275L388 403ZM292 660Q291 634 302 616T342 598Q375 598 391 617T414 660H478Q469 603 433 569T338 534Q304 534 282 544T246 572T230 612T229 660H292ZM227 695Q235 743 259 772T317 801Q337 801 351 795T378 781Q389 773 399 768T420 762Q433 762 440 771T455 804H514Q504 746 481 720T421 693Q401 693 387 698T359 711Q347 719 338 724T318 730Q298 729 287 695H227Z"  />
<glyph unicode="&#x1EB6;" horiz-adv-x="596" d="M188 192L96 0H-28L310 674H456L541 0H419L400 192H188ZM393 282L374 450Q372 477 369 512T364 578H362Q348 548 335 514T307 450L225 282H393ZM345 841Q344 821 356 805T401 789Q433 789 449 804T471 841H541Q533 793 498 760T395 726Q326 726 299 759T277 841H345ZM231 -201Q205 -201 188 -183T170 -140Q170 -115 187 -98T231 -80Q256 -80 272 -97T289 -140Q289 -164 273 -182T231 -201Z"  />
<glyph unicode="&#x1EB7;" horiz-adv-x="540" d="M340 0Q341 22 343 50T349 110H346Q310 42 264 16T172 -11Q106 -11 67 35T28 155Q28 217 49 278T114 388T221 467T371 498Q411 498 450 492T518 476L468 222Q463 195 459 165T452 106T448 49T448 0H340ZM388 403Q379 405 368 406T340 408Q299 408 265 388T204 334T164 260T149 176Q149 138 165 111T219 83Q239 83 261 95T302 132T337 192T362 275L388 403ZM299 687Q299 661 310 643T349 625Q382 625 399 644T421 687H486Q476 630 440 596T345 561Q311 561 289 571T253 598T237 638T236 687H299ZM213 -204Q186 -204 169 -186T151 -142Q151 -116 169 -98T214 -80Q239 -80 256 -98T273 -142Q273 -168 256 -186T213 -204Z"  />
<glyph unicode="&#x1EB8;" horiz-adv-x="496" d="M440 300H198L160 99H432L413 0H24L152 674H526L507 575H250L216 398H459L440 300ZM203 -201Q177 -201 160 -183T142 -140Q142 -115 159 -98T203 -80Q228 -80 244 -97T261 -140Q261 -164 245 -182T203 -201Z"  />
<glyph unicode="&#x1EB9;" horiz-adv-x="479" d="M402 28Q366 9 321 0T230 -10Q179 -10 142 4T80 45T43 109T30 191Q30 246 49 301T105 399T192 470T306 498Q378 498 420 460T463 361Q463 314 440 283T374 232T273 206T144 200Q142 187 145 166T157 131Q186 81 257 81Q299 81 332 90T391 113L402 28ZM353 360Q353 384 336 397T291 411Q264 411 242 400T202 371T173 331T156 287Q201 286 237 289T299 301T339 323T353 360ZM199 -204Q172 -204 154 -186T136 -142Q136 -116 154 -98T199 -80Q225 -80 241 -98T258 -142Q258 -168 242 -186T199 -204Z"  />
<glyph unicode="&#x1EBA;" horiz-adv-x="496" d="M440 300H198L160 99H432L413 0H24L152 674H526L507 575H250L216 398H459L440 300ZM308 725Q316 740 326 750T346 770T361 788T368 810Q368 821 361 829T340 837Q326 837 314 827T291 806L254 833Q274 862 302 881T368 901Q406 901 429 880T452 827Q452 806 443 791T421 763T392 737T364 706L308 725Z"  />
<glyph unicode="&#x1EBB;" horiz-adv-x="479" d="M402 28Q366 9 321 0T230 -10Q179 -10 142 4T80 45T43 109T30 191Q30 246 49 301T105 399T192 470T306 498Q378 498 420 460T463 361Q463 314 440 283T374 232T273 206T144 200Q142 187 145 166T157 131Q186 81 257 81Q299 81 332 90T391 113L402 28ZM353 360Q353 384 336 397T291 411Q264 411 242 400T202 371T173 331T156 287Q201 286 237 289T299 301T339 323T353 360ZM265 546Q271 562 282 574T305 597T324 619T332 645Q332 658 325 666T305 674Q288 674 275 663T253 638L213 665Q233 696 261 717T330 738Q369 738 391 716T414 662Q414 637 404 620T380 588T350 561T325 530L265 546Z"  />
<glyph unicode="&#x1EBC;" horiz-adv-x="496" d="M440 300H198L160 99H432L413 0H24L152 674H526L507 575H250L216 398H459L440 300ZM215 715Q223 771 247 800T306 830Q327 830 340 824T367 810Q378 802 388 797T410 791Q422 791 429 800T444 833H503Q494 775 471 749T410 722Q390 722 376 727T348 740Q336 748 327 753T307 759Q284 757 275 715H215Z"  />
<glyph unicode="&#x1EBD;" horiz-adv-x="479" d="M402 28Q366 9 321 0T230 -10Q179 -10 142 4T80 45T43 109T30 191Q30 246 49 301T105 399T192 470T306 498Q378 498 420 460T463 361Q463 314 440 283T374 232T273 206T144 200Q142 187 145 166T157 131Q186 81 257 81Q299 81 332 90T391 113L402 28ZM353 360Q353 384 336 397T291 411Q264 411 242 400T202 371T173 331T156 287Q201 286 237 289T299 301T339 323T353 360ZM179 563Q186 616 208 646T266 677Q286 677 300 671T328 656Q339 649 348 644T367 638Q379 638 386 646T398 681H457Q449 624 428 597T369 570Q350 570 335 576T307 590Q296 598 287 603T268 608Q256 608 250 596T239 563H179Z"  />
<glyph unicode="&#x1EBE;" horiz-adv-x="496" d="M440 300H198L160 99H432L413 0H24L152 674H526L507 575H250L216 398H459L440 300ZM417 829L483 710H399L368 776H366L302 710H208L333 829H417ZM650 906L520 798H458L547 906H650Z"  />
<glyph unicode="&#x1EBF;" horiz-adv-x="479" d="M402 28Q366 9 321 0T230 -10Q179 -10 142 4T80 45T43 109T30 191Q30 246 49 301T105 399T192 470T306 498Q378 498 420 460T463 361Q463 314 440 283T374 232T273 206T144 200Q142 187 145 166T157 131Q186 81 257 81Q299 81 332 90T391 113L402 28ZM353 360Q353 384 336 397T291 411Q264 411 242 400T202 371T173 331T156 287Q201 286 237 289T299 301T339 323T353 360ZM365 698L428 550H348L315 640H312L252 550H167L278 698H365ZM602 785L475 645H411L502 785H602Z"  />
<glyph unicode="&#x1EC0;" horiz-adv-x="496" d="M440 300H198L160 99H432L413 0H24L152 674H526L507 575H250L216 398H459L440 300ZM509 892L567 783H504L406 892H509ZM414 829L480 710H396L364 776H362L298 710H205L329 829H414Z"  />
<glyph unicode="&#x1EC1;" horiz-adv-x="479" d="M402 28Q366 9 321 0T230 -10Q179 -10 142 4T80 45T43 109T30 191Q30 246 49 301T105 399T192 470T306 498Q378 498 420 460T463 361Q463 314 440 283T374 232T273 206T144 200Q142 187 145 166T157 131Q186 81 257 81Q299 81 332 90T391 113L402 28ZM353 360Q353 384 336 397T291 411Q264 411 242 400T202 371T173 331T156 287Q201 286 237 289T299 301T339 323T353 360ZM452 787L521 647H463L360 787H452ZM365 698L428 550H348L315 640H312L252 550H167L278 698H365Z"  />
<glyph unicode="&#x1EC2;" horiz-adv-x="496" d="M440 300H198L160 99H432L413 0H24L152 674H526L507 575H250L216 398H459L440 300ZM480 775Q487 789 497 798T517 816T533 832T540 852Q540 863 532 871T510 879Q496 879 483 870T461 851L428 883Q445 904 472 921T533 938Q570 938 592 918T615 868Q615 847 606 833T584 806T556 783T531 755L480 775ZM418 829L484 710H400L368 776H366L302 710H209L334 829H418Z"  />
<glyph unicode="&#x1EC3;" horiz-adv-x="479" d="M402 28Q366 9 321 0T230 -10Q179 -10 142 4T80 45T43 109T30 191Q30 246 49 301T105 399T192 470T306 498Q378 498 420 460T463 361Q463 314 440 283T374 232T273 206T144 200Q142 187 145 166T157 131Q186 81 257 81Q299 81 332 90T391 113L402 28ZM353 360Q353 384 336 397T291 411Q264 411 242 400T202 371T173 331T156 287Q201 286 237 289T299 301T339 323T353 360ZM365 698L428 550H348L315 640H312L252 550H167L278 698H365ZM424 653Q431 667 441 676T461 694T477 710T484 730Q484 742 476 749T454 757Q440 757 427 748T405 729L372 761Q389 782 416 799T477 816Q514 816 536 796T559 746Q559 725 550 711T528 684T500 661T475 633L424 653Z"  />
<glyph unicode="&#x1EC4;" horiz-adv-x="496" d="M440 300H198L160 99H432L413 0H24L152 674H526L507 575H250L216 398H459L440 300ZM243 844Q248 892 271 919T330 946Q348 946 361 940T390 926Q402 919 412 914T431 909Q443 909 450 917T462 950H521Q516 894 493 871T434 847Q415 847 401 853T372 868Q358 876 350 879T333 883Q322 883 315 872T303 844H243ZM414 829L480 710H396L365 776H363L298 710H205L330 829H414Z"  />
<glyph unicode="&#x1EC5;" horiz-adv-x="479" d="M402 28Q366 9 321 0T230 -10Q179 -10 142 4T80 45T43 109T30 191Q30 246 49 301T105 399T192 470T306 498Q378 498 420 460T463 361Q463 314 440 283T374 232T273 206T144 200Q142 187 145 166T157 131Q186 81 257 81Q299 81 332 90T391 113L402 28ZM353 360Q353 384 336 397T291 411Q264 411 242 400T202 371T173 331T156 287Q201 286 237 289T299 301T339 323T353 360ZM194 699Q199 747 222 774T281 801Q299 801 312 795T341 781Q353 774 363 769T382 764Q394 764 401 772T413 805H472Q467 749 444 725T385 701Q366 701 352 708T323 723Q309 731 301 734T284 738Q273 738 266 727T254 699H194ZM361 677L429 550H351L317 621H315L263 550H177L281 677H361Z"  />
<glyph unicode="&#x1EC6;" horiz-adv-x="496" d="M440 300H198L160 99H432L413 0H24L152 674H526L507 575H250L216 398H459L440 300ZM408 832L488 710H401L357 776H355L291 710H196L318 832H408ZM203 -201Q177 -201 160 -183T142 -140Q142 -115 159 -98T203 -80Q228 -80 245 -97T262 -140Q262 -164 245 -182T203 -201Z"  />
<glyph unicode="&#x1EC7;" horiz-adv-x="479" d="M402 28Q366 9 321 0T230 -10Q179 -10 142 4T80 45T43 109T30 191Q30 246 49 301T105 399T192 470T306 498Q378 498 420 460T463 361Q463 314 440 283T374 232T273 206T144 200Q142 187 145 166T157 131Q186 81 257 81Q299 81 332 90T391 113L402 28ZM353 360Q353 384 336 397T291 411Q264 411 242 400T202 371T173 331T156 287Q201 286 237 289T299 301T339 323T353 360ZM366 694L438 546H359L318 630H316L252 546H166L284 694H366ZM199 -204Q172 -204 154 -186T136 -142Q136 -116 154 -98T199 -80Q225 -80 241 -98T258 -142Q258 -168 242 -186T199 -204Z"  />
<glyph unicode="&#x1EC8;" horiz-adv-x="256" d="M267 674L139 0H22L150 674H267ZM183 725Q191 740 201 750T221 770T236 788T243 810Q243 821 236 829T215 837Q200 837 188 827T166 806L129 833Q149 862 176 881T242 901Q280 901 303 880T327 827Q327 806 318 791T295 763T266 737T238 706L183 725Z"  />
<glyph unicode="&#x1EC9;" horiz-adv-x="249" d="M20 0L112 487H229L136 0H20ZM147 546Q153 562 164 574T187 597T206 619T214 645Q214 658 207 666T187 674Q170 674 157 663T135 638L95 665Q115 696 143 717T213 738Q251 738 273 716T296 662Q296 637 286 620T262 588T233 561T208 530L147 546Z"  />
<glyph unicode="&#x1ECA;" horiz-adv-x="256" d="M267 674L139 0H22L150 674H267ZM58 -201Q32 -201 15 -183T-3 -140Q-3 -115 15 -98T59 -80Q83 -80 100 -97T117 -140Q117 -164 100 -182T58 -201Z"  />
<glyph unicode="&#x1ECB;" horiz-adv-x="249" d="M20 0L112 487H229L136 0H20ZM191 557Q164 557 147 574T131 619Q131 651 151 670T201 690Q228 690 245 673T263 627Q262 595 241 576T191 557ZM69 -204Q42 -204 24 -186T6 -142Q6 -116 24 -98T69 -80Q95 -80 111 -98T128 -142Q128 -168 112 -186T69 -204Z"  />
<glyph unicode="&#x1ECC;" horiz-adv-x="688" d="M411 685Q478 685 528 663T611 603T660 515T676 406Q676 361 668 316T645 229T607 150T554 84Q508 39 448 14T313 -11Q248 -11 199 11T116 71T65 159T48 267Q48 312 56 357T81 445T120 524T174 591Q220 636 281 660T411 685ZM397 587Q358 587 325 572T264 529Q242 507 225 477T195 412T177 342T171 273Q171 235 180 201T208 142T257 102T330 87Q367 87 401 102T461 144Q483 166 500 197T528 263T546 334T552 402Q552 435 545 468T521 528T474 570T397 587ZM263 -201Q237 -201 220 -183T202 -140Q202 -115 219 -98T263 -80Q288 -80 304 -97T321 -140Q321 -164 305 -182T263 -201Z"  />
<glyph unicode="&#x1ECD;" horiz-adv-x="543" d="M313 498Q362 498 399 482T462 438T500 373T513 296Q513 234 493 179T435 81T345 14T231 -11Q185 -11 148 4T86 46T46 109T32 190Q32 252 52 308T110 406T199 473T313 498ZM299 408Q264 408 237 387T191 335T162 265T152 193Q152 142 177 111T247 79Q280 79 306 99T352 151T381 221T392 296Q392 315 388 334T372 370T344 397T299 408ZM213 -204Q186 -204 169 -186T151 -142Q151 -116 169 -98T213 -80Q239 -80 255 -98T272 -142Q272 -168 256 -186T213 -204Z"  />
<glyph unicode="&#x1ECE;" horiz-adv-x="688" d="M411 685Q478 685 528 663T611 603T660 515T676 406Q676 361 668 316T645 229T607 150T554 84Q508 39 448 14T313 -11Q248 -11 199 11T116 71T65 159T48 267Q48 312 56 357T81 445T120 524T174 591Q220 636 281 660T411 685ZM397 587Q358 587 325 572T264 529Q242 507 225 477T195 412T177 342T171 273Q171 235 180 201T208 142T257 102T330 87Q367 87 401 102T461 144Q483 166 500 197T528 263T546 334T552 402Q552 435 545 468T521 528T474 570T397 587ZM395 725Q403 740 413 750T433 770T448 788T455 810Q455 821 448 829T427 837Q413 837 400 827T378 806L341 833Q361 862 388 881T454 901Q492 901 515 880T539 827Q539 806 530 791T508 763T479 737T451 706L395 725Z"  />
<glyph unicode="&#x1ECF;" horiz-adv-x="543" d="M313 498Q362 498 399 482T462 438T500 373T513 296Q513 234 493 179T435 81T345 14T231 -11Q185 -11 148 4T86 46T46 109T32 190Q32 252 52 308T110 406T199 473T313 498ZM299 408Q264 408 237 387T191 335T162 265T152 193Q152 142 177 111T247 79Q280 79 306 99T352 151T381 221T392 296Q392 315 388 334T372 370T344 397T299 408ZM295 546Q301 562 312 574T335 597T354 619T362 645Q362 658 355 666T335 674Q318 674 305 663T283 638L243 665Q263 696 291 717T361 738Q399 738 421 716T444 662Q444 637 434 620T410 588T381 561T356 530L295 546Z"  />
<glyph unicode="&#x1ED0;" horiz-adv-x="688" d="M411 685Q478 685 528 663T611 603T660 515T676 406Q676 361 668 316T645 229T607 150T554 84Q508 39 448 14T313 -11Q248 -11 199 11T116 71T65 159T48 267Q48 312 56 357T81 445T120 524T174 591Q220 636 281 660T411 685ZM397 587Q358 587 325 572T264 529Q242 507 225 477T195 412T177 342T171 273Q171 235 180 201T208 142T257 102T330 87Q367 87 401 102T461 144Q483 166 500 197T528 263T546 334T552 402Q552 435 545 468T521 528T474 570T397 587ZM492 829L558 710H474L443 776H441L377 710H283L408 829H492ZM725 906L595 798H534L622 906H725Z"  />
<glyph unicode="&#x1ED1;" horiz-adv-x="543" d="M313 498Q362 498 399 482T462 438T500 373T513 296Q513 234 493 179T435 81T345 14T231 -11Q185 -11 148 4T86 46T46 109T32 190Q32 252 52 308T110 406T199 473T313 498ZM299 408Q264 408 237 387T191 335T162 265T152 193Q152 142 177 111T247 79Q280 79 306 99T352 151T381 221T392 296Q392 315 388 334T372 370T344 397T299 408ZM390 698L452 550H373L339 640H337L277 550H191L302 698H390ZM627 785L500 645H436L526 785H627Z"  />
<glyph unicode="&#x1ED2;" horiz-adv-x="688" d="M411 685Q478 685 528 663T611 603T660 515T676 406Q676 361 668 316T645 229T607 150T554 84Q508 39 448 14T313 -11Q248 -11 199 11T116 71T65 159T48 267Q48 312 56 357T81 445T120 524T174 591Q220 636 281 660T411 685ZM397 587Q358 587 325 572T264 529Q242 507 225 477T195 412T177 342T171 273Q171 235 180 201T208 142T257 102T330 87Q367 87 401 102T461 144Q483 166 500 197T528 263T546 334T552 402Q552 435 545 468T521 528T474 570T397 587ZM586 892L644 783H582L483 892H586ZM491 829L557 710H473L441 776H439L375 710H282L407 829H491Z"  />
<glyph unicode="&#x1ED3;" horiz-adv-x="543" d="M313 498Q362 498 399 482T462 438T500 373T513 296Q513 234 493 179T435 81T345 14T231 -11Q185 -11 148 4T86 46T46 109T32 190Q32 252 52 308T110 406T199 473T313 498ZM299 408Q264 408 237 387T191 335T162 265T152 193Q152 142 177 111T247 79Q280 79 306 99T352 151T381 221T392 296Q392 315 388 334T372 370T344 397T299 408ZM476 787L545 647H487L384 787H476ZM390 698L452 550H373L339 640H337L277 550H191L302 698H390Z"  />
<glyph unicode="&#x1ED4;" horiz-adv-x="688" d="M411 685Q478 685 528 663T611 603T660 515T676 406Q676 361 668 316T645 229T607 150T554 84Q508 39 448 14T313 -11Q248 -11 199 11T116 71T65 159T48 267Q48 312 56 357T81 445T120 524T174 591Q220 636 281 660T411 685ZM397 587Q358 587 325 572T264 529Q242 507 225 477T195 412T177 342T171 273Q171 235 180 201T208 142T257 102T330 87Q367 87 401 102T461 144Q483 166 500 197T528 263T546 334T552 402Q552 435 545 468T521 528T474 570T397 587ZM552 775Q559 789 569 798T589 816T605 832T612 852Q612 863 604 871T582 879Q568 879 555 870T533 851L500 883Q517 904 544 921T605 938Q642 938 664 918T687 868Q687 847 678 833T656 806T628 783T603 755L552 775ZM490 829L556 710H472L441 776H439L374 710H281L406 829H490Z"  />
<glyph unicode="&#x1ED5;" horiz-adv-x="543" d="M313 498Q362 498 399 482T462 438T500 373T513 296Q513 234 493 179T435 81T345 14T231 -11Q185 -11 148 4T86 46T46 109T32 190Q32 252 52 308T110 406T199 473T313 498ZM299 408Q264 408 237 387T191 335T162 265T152 193Q152 142 177 111T247 79Q280 79 306 99T352 151T381 221T392 296Q392 315 388 334T372 370T344 397T299 408ZM387 698L449 550H369L336 640H334L273 550H188L299 698H387ZM445 653Q452 667 462 676T482 694T498 710T505 730Q505 742 497 749T475 757Q461 757 448 748T426 729L394 761Q411 782 437 799T499 816Q536 816 558 796T580 746Q580 725 571 711T549 684T522 661T497 633L445 653Z"  />
<glyph unicode="&#x1ED6;" horiz-adv-x="688" d="M411 685Q478 685 528 663T611 603T660 515T676 406Q676 361 668 316T645 229T607 150T554 84Q508 39 448 14T313 -11Q248 -11 199 11T116 71T65 159T48 267Q48 312 56 357T81 445T120 524T174 591Q220 636 281 660T411 685ZM397 587Q358 587 325 572T264 529Q242 507 225 477T195 412T177 342T171 273Q171 235 180 201T208 142T257 102T330 87Q367 87 401 102T461 144Q483 166 500 197T528 263T546 334T552 402Q552 435 545 468T521 528T474 570T397 587ZM319 844Q324 892 347 919T406 946Q424 946 438 940T467 926Q478 919 488 914T507 909Q519 909 526 917T538 950H597Q592 894 570 871T510 847Q492 847 478 853T448 868Q434 876 426 879T409 883Q398 883 391 872T379 844H319ZM490 829L556 710H472L441 776H439L375 710H281L406 829H490Z"  />
<glyph unicode="&#x1ED7;" horiz-adv-x="543" d="M313 498Q362 498 399 482T462 438T500 373T513 296Q513 234 493 179T435 81T345 14T231 -11Q185 -11 148 4T86 46T46 109T32 190Q32 252 52 308T110 406T199 473T313 498ZM299 408Q264 408 237 387T191 335T162 265T152 193Q152 142 177 111T247 79Q280 79 306 99T352 151T381 221T392 296Q392 315 388 334T372 370T344 397T299 408ZM219 699Q224 747 247 774T306 801Q323 801 337 795T366 781Q377 774 387 769T407 764Q419 764 426 772T438 805H497Q492 749 469 725T410 701Q391 701 377 708T348 723Q334 731 326 734T309 738Q298 738 290 727T279 699H219ZM386 677L453 550H376L342 621H340L288 550H202L306 677H386Z"  />
<glyph unicode="&#x1ED8;" horiz-adv-x="688" d="M411 685Q478 685 528 663T611 603T660 515T676 406Q676 361 668 316T645 229T607 150T554 84Q508 39 448 14T313 -11Q248 -11 199 11T116 71T65 159T48 267Q48 312 56 357T81 445T120 524T174 591Q220 636 281 660T411 685ZM397 587Q358 587 325 572T264 529Q242 507 225 477T195 412T177 342T171 273Q171 235 180 201T208 142T257 102T330 87Q367 87 401 102T461 144Q483 166 500 197T528 263T546 334T552 402Q552 435 545 468T521 528T474 570T397 587ZM488 832L568 710H481L437 776H435L371 710H276L398 832H488ZM263 -201Q237 -201 220 -183T202 -140Q202 -115 219 -98T263 -80Q288 -80 304 -97T321 -140Q321 -164 305 -182T263 -201Z"  />
</font>
</defs>
</svg>
