<?xml version="1.0" encoding="utf-8"?>
<!-- Generator: Adobe Illustrator 16.0.4, SVG Export Plug-In . SVG Version: 6.00 Build 0)  -->
<!DOCTYPE svg PUBLIC "-//W3C//DTD SVG 1.1//EN" "http://www.w3.org/Graphics/SVG/1.1/DTD/svg11.dtd">
<svg version="1.1" xmlns="http://www.w3.org/2000/svg" xmlns:xlink="http://www.w3.org/1999/xlink" x="0px" y="0px" width="512px"
	 height="512px" viewBox="0 0 512 512" enable-background="new 0 0 512 512" xml:space="preserve">
<g id="Layer_1">
	<path fill="rgb(65, 213, 42)" d="M294.969,108.739L294.968,50H246.95l0.001,56.086h-40.357V50h-47.985l-0.015,56.086h-49.469l0.011,51.949
		l35.606-0.021c11.648,0.003,13.862,5.488,13.862,12.654v164.086c0,9.123-4.417,13.588-14.278,13.588h-26.879l-9.207,55.616h50.36
		L158.618,462h47.976v-58.042h40.36L246.936,462h48.021v-60.024c69.265-12.391,121.86-73.319,121.86-146.62
		C416.817,182.061,364.228,121.134,294.969,108.739z M268.808,348.222h-62.215V158.231h62.215c52.105,0,94.346,42.531,94.346,94.996
		C363.153,305.691,320.913,348.222,268.808,348.222z"/>
</g>
<g id="Layer_2">
</g>
</svg>
