<?xml version="1.0" encoding="utf-8"?>
<!-- Generator: Adobe Illustrator 16.0.4, SVG Export Plug-In . SVG Version: 6.00 Build 0)  -->
<!DOCTYPE svg PUBLIC "-//W3C//DTD SVG 1.1//EN" "http://www.w3.org/Graphics/SVG/1.1/DTD/svg11.dtd">
<svg version="1.1" id="Layer_1" xmlns="http://www.w3.org/2000/svg" xmlns:xlink="http://www.w3.org/1999/xlink" x="0px" y="0px"
	 width="512px" height="512px" viewBox="0 0 512 512" enable-background="new 0 0 512 512" xml:space="preserve">
<path fill="rgb(65, 213, 42)" d="M293.821,50.192h-1.034c-9.953,0-18.094,8.153-18.094,18.099v47.628v27.352h-65.152
	c-46.266,0-83.771,37.505-83.771,83.768c0,39.634,27.563,72.76,64.541,81.464v-37.988c-16.675-7.405-28.343-24.092-28.343-43.476
	c0-26.233,21.337-47.573,47.573-47.573h65.152v11.623v4.891v4.886v36.199v4.888v4.885v27.772h-27.617v36.197h27.617h18.613h18.613
	v-62.727v-5.039v-5.03v-36.574v-4.932v-4.932v-75.653V68.291C311.92,58.345,303.773,50.192,293.821,50.192"/>
<path fill="rgb(65, 213, 42)" d="M321.691,203.173v37.986c16.679,7.405,28.345,24.088,28.345,43.471c0,26.235-21.34,47.574-47.58,47.574
	h-65.149v-11.623v-4.886v-4.89v-36.197v-4.887v-4.89v-27.77h27.613v-36.199h-27.613h-18.611h-18.612v62.728v5.037v5.03v36.578v4.931
	v4.93v69.882v53.397c0,9.957,8.143,18.103,18.096,18.103h1.03c9.954,0,18.097-8.146,18.097-18.103v-53.397V368.4h65.149
	c46.267,0,83.774-37.508,83.774-83.771C386.23,244.999,358.671,211.873,321.691,203.173"/>
</svg>
