<?xml version="1.0" encoding="utf-8"?>
<!-- Generator: Adobe Illustrator 16.0.4, SVG Export Plug-In . SVG Version: 6.00 Build 0)  -->
<!DOCTYPE svg PUBLIC "-//W3C//DTD SVG 1.1//EN" "http://www.w3.org/Graphics/SVG/1.1/DTD/svg11.dtd">
<svg version="1.1" id="Layer_1" xmlns="http://www.w3.org/2000/svg" xmlns:xlink="http://www.w3.org/1999/xlink" x="0px" y="0px"
	 width="512px" height="512px" viewBox="0 0 512 512" enable-background="new 0 0 512 512" xml:space="preserve">
<path id="key-icon" fill="rgb(65, 213, 42)" d="M286.529,325.486L241.216,370.8h-43.874l0.001,43.873l-45.745-0.002v41.345H50v-70.457
	l145.737-145.738C212.174,278.996,244.714,310.706,286.529,325.486z M425.646,92.338c48.473,48.474,48.471,127.064-0.002,175.536
	c-48.475,48.476-127.062,48.476-175.537,0.001c-48.473-48.472-48.475-127.062,0-175.537
	C298.58,43.865,377.173,43.865,425.646,92.338z M400.732,117.165c-12.024-12.021-31.518-12.022-43.538,0
	c-12.022,12.023-12.022,31.516,0,43.538c12.021,12.022,31.513,12.021,43.536-0.001C412.754,148.679,412.752,129.187,400.732,117.165
	z"/>
</svg>
