<?xml version="1.0" encoding="utf-8"?>
<!-- Generator: Adobe Illustrator 16.0.4, SVG Export Plug-In . SVG Version: 6.00 Build 0)  -->
<!DOCTYPE svg PUBLIC "-//W3C//DTD SVG 1.1//EN" "http://www.w3.org/Graphics/SVG/1.1/DTD/svg11.dtd">
<svg version="1.1" id="Layer_1" xmlns="http://www.w3.org/2000/svg" xmlns:xlink="http://www.w3.org/1999/xlink" x="0px" y="0px"
	 width="512px" height="512px" viewBox="0 0 512 512" enable-background="new 0 0 512 512" xml:space="preserve">
<g>
	<path fill="rgb(65, 213, 42)" d="M201.874,124.022c0-3.74,3.032-6.771,6.771-6.771h94.708c3.74,0,6.771,3.032,6.771,6.771v17.063h30v-30.563
		c0-11.748-9.524-21.271-21.271-21.271H193.146c-11.748,0-21.271,9.523-21.271,21.271v30.562h29.999V124.022z"/>
	<path fill="rgb(65, 213, 42)" d="M427,161.084H85c-19.33,0-35,15.67-35,35V387.75c0,19.33,15.67,35,35,35h342c19.33,0,35-15.67,35-35
		V196.084C462,176.754,446.33,161.084,427,161.084z M187.622,195.732l19.295,19.295l-34.403,34.401l-19.294-19.295L187.622,195.732z
		 M200.069,376.012c-6.464,6.465-16.945,6.465-23.409,0c-6.464-6.464-6.464-16.945,0-23.408l39.635-39.474l23.409,23.408
		L200.069,376.012z M182.268,259.183l34.402-34.401L329.088,337.2l-34.4,34.401L182.268,259.183z M304.461,381.335l34.361-34.361
		l8.684,42.306L304.461,381.335z M338.031,286.582l-10.496-10.496c0,0,4.531-6.48-0.861-11.872
		c-4.873-4.876-10.955-3.499-17.32,2.868c-3.557,3.555-15.453,15.452-15.453,15.452l-23.436-23.437l15.633-15.634
		c14.473-14.474-0.467-30.126-35.477-33.625c0,0,44.049-21.681,73.301,0.344c16.596,12.497,14.367,23.66,21.854,31.145
		c6.881,6.883,15.312,1.205,15.312,1.205l10.496,10.497L338.031,286.582z"/>
</g>
</svg>
