<svg data-name="Layer 1" xmlns="http://www.w3.org/2000/svg" viewBox="0 0 48.01 44.02"><path d="M46.23 10a1.75 1.75 0 0 0-1.69 1.3l-7.07 2.32A14.82 14.82 0 0 0 11.7 7.85l-8.17-6v-.11A1.76 1.76 0 0 0 1.77 0 1.76 1.76 0 0 0 0 1.74a1.76 1.76 0 0 0 1.79 1.73 1.76 1.76 0 0 0 .54-.1l8.26 6.1A13.94 13.94 0 0 0 9.51 22.2l-6.45 2.13a1.79 1.79 0 0 0-2.24.27A1.71 1.71 0 0 0 .91 27a1.79 1.79 0 0 0 2.48 0 1.7 1.7 0 0 0 .44-.82L10.38 24a14.77 14.77 0 0 0 10.4 7.07l-1.33 9.6a1.81 1.81 0 0 0-.56 2.74 1.77 1.77 0 0 0 1.21.59h.16A1.76 1.76 0 0 0 22 42.44a1.47 1.47 0 0 0 0-.27 1.71 1.71 0 0 0-.62-1.3l1.34-9.67h.42A14.76 14.76 0 0 0 33 27.42l3 2.27a1.64 1.64 0 0 0 0 .21 1.71 1.71 0 0 0 .47 1.25 1.77 1.77 0 0 0 1.23.55 1.73 1.73 0 0 0 1.37-2.91 1.76 1.76 0 0 0-1.73-.51l-3-2.23a13.89 13.89 0 0 0 3.36-10.53l7.42-2.42a1.77 1.77 0 0 0 1 .34 1.75 1.75 0 1 0 0-3.49zM23.17 29.53A12.93 12.93 0 0 1 10.1 16.77 12.93 12.93 0 0 1 23.17 4a12.93 12.93 0 0 1 13.07 12.78 13 13 0 0 1-13.07 12.75z"/><path d="M22.85 8.38C17.45 8.38 13 11.82 13 16s4.42 7.67 9.82 7.67a17.67 17.67 0 0 0 2.18-.11 9.67 9.67 0 0 0 6.87 1.36.22.22 0 0 0 .28-.13.21.21 0 0 0 0-.1.43.43 0 0 1-.24-.16 4.22 4.22 0 0 1-3.11-2.32 7.31 7.31 0 0 0 3.87-6.15c-.01-4.25-4.43-7.68-9.82-7.68zm-3.92 9a1.28 1.28 0 1 1 1.3-1.38 1.33 1.33 0 0 1-1.31 1.33zm4 0A1.28 1.28 0 1 1 24.16 16a1.28 1.28 0 0 1-1.27 1.33zm3.92 0A1.28 1.28 0 1 1 28.08 16a1.28 1.28 0 0 1-1.27 1.33z"/></svg>