<?xml version="1.0" encoding="utf-8"?>
<!-- Generator: Adobe Illustrator 19.0.0, SVG Export Plug-In . SVG Version: 6.00 Build 0)  -->
<svg version="1.1" id="BB_x26_N_Primary_Identifier"
	 xmlns="http://www.w3.org/2000/svg" xmlns:xlink="http://www.w3.org/1999/xlink" x="0px" y="0px" viewBox="0 0 1523 585"
	 style="enable-background:new 0 0 1523 585;" xml:space="preserve">
<style type="text/css">
	.st0{fill:#F7A800;}
	.st1{fill:#002E6D;}
	.st2{fill:#FFFFFF;}
	.st3{fill:none;}
</style>
<g>
	<g>
		<g>
			<g>
				<polygon class="st0" points="60.7,223.1 3.8,516.2 194.6,580.7 396.4,345.4 439.8,41.4 				"/>
			</g>
			<g>
				<g>
					<g>
						<polygon class="st1" points="59.7,98.4 62.9,494.2 194.6,580.7 396.4,408.9 396.4,4.7 						"/>
					</g>
				</g>
			</g>
			<g>
				<path class="st2" d="M167.2,296h-64.3v-3.4l20-3.6V175.8l-20-3.6v-3.4H162c27.8,0,42.2,12.6,42.2,28.6
					c0,13.4-8.8,25.6-28.7,29.8v1c25.4,2.8,37.1,16.8,37.1,31.4C212.6,279.1,196,296,167.2,296z M159.2,226.9
					c15.2,0,24.2-9.8,24.2-27.2c0-19-12.8-25.7-25.6-25.7c-5.6,0-11.2,0.4-15,1.2v51.7H159.2z M158.4,232.5h-15.6v56.9
					c3.8,0.8,10.6,1.4,16.4,1.4c21.2,0,30.5-11.4,30.5-29.8C189.8,244.1,180.6,232.5,158.4,232.5z"/>
				<path class="st2" d="M292.1,226.7h-64.3v-3.4l20-3.6V106.5l-20-3.6v-3.4h59.1c27.7,0,42.1,12.6,42.1,28.5
					c0,13.4-8.8,25.6-28.7,29.8v1c25.4,2.8,37.1,16.8,37.1,31.4C337.4,209.7,320.8,226.7,292.1,226.7z M284.1,157.6
					c15.2,0,24.2-9.8,24.2-27.2c0-19-12.7-25.8-25.5-25.8c-5.6,0-11.2,0.4-15,1.2v51.7H284.1z M283.3,163.2h-15.6v56.9
					c3.8,0.8,10.6,1.4,16.4,1.4c21.2,0,30.6-11.4,30.6-29.8C314.6,174.8,305.4,163.2,283.3,163.2z"/>
			</g>
			<polygon class="st2" points="323.2,258.1 323.2,261.5 339,266.9 339,348.8 337.8,348.8 284.6,278.5 269.6,258.1 231.9,258.1 
				231.9,261.5 247.8,266.7 247.8,367.5 254.3,367.5 254.3,275.1 255.8,275.1 325.2,366.4 340.2,386.8 345.8,386.8 345.8,266.9 
				361.6,261.5 361.6,258.1 			"/>
			<path class="st2" d="M269.9,386.2v-2.9h-40.3v2.2l11.7,6.4l-19,34.3l-43.6-58.4c-7.3-10.2-10.2-16.4-10.2-23.7
				c0-12.2,6.2-19.3,15.5-19.3c9.8,0,16.6,8.8,16.6,20.6c0,3.8-0.5,7.4-1.5,11l10.2,9.7c6.5-6.6,9.5-13,9.5-19.6
				c0-12.8-10.9-27-32.3-27c-18.4,0-36.6,11.5-36.6,31c0,8.4,3.8,18.8,12.9,29.7l-8,4c-16.1,8-28.8,21.9-28.8,40.3
				c0,21.3,17.9,37.4,43.9,37.4c15.9,0,26.8-6.4,40.7-18.1c8.8,11.7,17.3,18.1,27.4,18.1c10.9,0,19.9-4.6,28.8-11.1l-0.9-2.4
				c-3.7,0.2-5.9,0.4-11.5,0.4c-10.2,0-16.8-3.5-28.8-17.9l29.5-39.2L269.9,386.2z M179.8,446.9c-18.8,0-32.5-10.7-32.5-27.7
				c0-13.3,7.1-24.3,14.4-31.6l4-4l41.8,56.5C198.6,444.2,190.2,446.9,179.8,446.9z"/>
		</g>
		<g>
			<path class="st3" d="M640.8,251.6c-1.6,0-4.3-0.1-5.8,0v15.2c1.7,0.1,3.9,0.1,5.3,0.1c6.2,0,10.5-1.9,10.5-7.7
				C650.8,253.9,647.2,251.6,640.8,251.6z"/>
			<path class="st3" d="M649,115.5c0-4.4-3-6.4-8.5-6.4c-1.4,0-3.3,0.1-5.5,0.1v13.6c2.5,0,4.2,0,5.4,0
				C645.2,122.8,649,120.7,649,115.5z"/>
			<path class="st3" d="M895.9,348.2c-8.5,0-15,7.1-15,19.2c0,11.7,6.2,18.8,14.8,18.8c8,0,14.8-6.4,14.8-18.6
				C910.5,355.1,904.2,348.2,895.9,348.2z"/>
			<path class="st3" d="M1137.8,110.8h-0.3c0,0.7-0.3,3-0.5,3.8l-6,19.2h13.5l-6.1-19.2C1138.2,113.9,1137.8,111.5,1137.8,110.8z"/>
			<path class="st3" d="M1051.4,261c0,5.5,4.5,8.6,10,8.6c3.3,0,7-1.2,9.5-3.1c-3.2-3.7-9.4-10.7-12.7-14.6
				C1053.8,254.1,1051.4,256.9,1051.4,261z"/>
			<path class="st3" d="M1068.8,231.6c0-3-2.2-5.1-5.4-5.1c-2.8,0-5.4,2.2-5.4,5.1c0,2.4,1,4.7,4.3,8.2
				C1067.5,237.2,1068.8,234.4,1068.8,231.6z"/>
			<path class="st3" d="M649,234.7c0-4.4-3-6.4-8.5-6.4c-1.4,0-3.3,0.1-5.5,0.1v13.6c2.5,0,4.2,0,5.4,0
				C645.2,242.1,649,240,649,234.7z"/>
			<path class="st3" d="M700.4,228.7c-1.7,0-4.8,0.1-6.2,0.1v15.7c1.6,0,4.7,0,6.1,0c5.1,0,9.4-2.8,9.4-8.1
				C709.7,231.5,706.8,228.7,700.4,228.7z"/>
			<path class="st3" d="M765.4,229c-8.5,0-15,7.1-15,19.2c0,11.7,6.2,18.8,14.8,18.8c8,0,14.8-6.4,14.8-18.6
				C780.1,235.9,773.8,229,765.4,229z"/>
			<path class="st3" d="M1388.8,229c-8.5,0-15,7.1-15,19.2c0,11.7,6.2,18.8,14.8,18.8c8,0,14.8-6.4,14.8-18.6
				C1403.4,235.9,1397.2,229,1388.8,229z"/>
			<path class="st3" d="M825.8,348.2c-8.5,0-15,7.1-15,19.2c0,11.7,6.2,18.8,14.8,18.8c8,0,14.8-6.4,14.8-18.6
				C840.4,355.1,834.1,348.2,825.8,348.2z"/>
			<path class="st3" d="M640.8,132.4c-1.6,0-4.3-0.1-5.8,0v15.2c1.7,0.1,3.9,0.1,5.3,0.1c6.2,0,10.5-1.9,10.5-7.7
				C650.8,134.7,647.2,132.4,640.8,132.4z"/>
			<path class="st1" d="M653.6,126.5c6.5-1.9,10.2-7.4,10.2-13.4c0-8.6-6.5-14-18-14c-3.2,0-14.2,0.1-25.5,0.1
				c0.2,3.7,0.2,10.9,0.2,20.9v16.1c0,12.8-0.2,17.7-0.5,22c9.3,0,19.5,0.1,23.8,0.1c13.3,0,22.5-6.2,22.5-17.1
				C666.4,133.4,662.7,128.2,653.6,126.5z M635,109.2c2.2,0,4.1-0.1,5.5-0.1c5.5,0,8.5,2,8.5,6.4c0,5.2-3.8,7.3-8.6,7.3
				c-1.2,0-2.9,0-5.4,0V109.2z M640.3,147.6c-1.4,0-3.5,0-5.3-0.1v-15.2c1.5-0.1,4.2,0,5.8,0c6.4,0,10,2.3,10,7.6
				C650.8,145.7,646.5,147.6,640.3,147.6z"/>
			<path class="st1" d="M678.7,133.3c0,18,8.8,26.1,24.8,26.1c17.4,0,26.4-9.2,26.4-26.7V112c0-5,0.1-9.7,0.2-12.9H715
				c0.1,2.7,0.3,8.3,0.3,13.2V134c0,9.6-4.5,13.1-10.8,13.1c-7.2,0-11-4.5-11-13.3v-21.2c0-5.3,0.3-10.5,0.4-13.5h-15.3
				c0.2,3.7,0.2,8,0.2,13.5V133.3z"/>
			<path class="st1" d="M773.2,159.3c6.5,0,13.1-1.3,17.6-3.2l-1.5-12.3c-3.6,2.2-8.8,3.7-13.6,3.7c-10.9,0-18.4-7.2-18.4-18.5
				c0-11.9,7.8-19.1,19.1-19.1c4.7,0,9.1,1.2,12.6,3.4l1.9-13.2c-4-1.3-9.9-2.4-15.5-2.4c-19.1,0-33.6,12.2-33.6,32
				C742,148.2,754.9,159.3,773.2,159.3z"/>
			<path class="st1" d="M805.5,158.1h14.8v-25.7c0-1,0-2.4,0-3.6c0.5,1.1,1,2.1,1.6,3.1l16.5,26.1h18.9
				c-7.2-9.5-16.4-23.2-21.4-30.8c5.2-7.3,15-21.2,20-28.1h-17.8L822,124.9c-0.5,0.9-1.2,1.8-1.7,3.1c0-1.5,0-2.5,0-3.7V99.1h-14.8
				c0.2,3.7,0.2,11.6,0.2,23v14.2C805.7,146.9,805.6,154.3,805.5,158.1z"/>
			<path class="st1" d="M871.4,136.1c0,11.2-0.1,17.9-0.2,22h15.1c-0.1-4.6-0.3-10.3-0.3-22.4v-15.1c0-11.5,0.2-17.6,0.4-21.5h-15.3
				c0.2,3.8,0.3,9.9,0.3,21.6V136.1z"/>
			<path class="st1" d="M906.3,158.1H920v-35.6c0-1-0.2-3-0.5-4.2h0.3c0.3,0.9,1.2,3,1.8,3.7l28.2,36.2h12.7
				c0-3.9-0.1-11.9-0.1-22.3v-16.5c0-10.4,0-16.5,0.2-20.4h-13.9v34c0,1.3,0.3,3.7,0.5,4.9h-0.3c-0.4-0.9-1.2-2.5-1.9-3.5
				l-26.8-35.4h-13.8c0.2,4.2,0.2,12.3,0.2,21.1v16.2C906.5,144.9,906.4,154.3,906.3,158.1z"/>
			<path class="st1" d="M1004.1,135.3h10v11.1c-2,0.9-4.4,1.5-6.9,1.5c-9.1,0-16.7-6.4-16.7-18.6c0-12.2,8.3-19.3,18.5-19.3
				c5.4,0,10.9,1.1,15.6,4.4l3.2-13.1c-5.4-2-11.7-3.3-19-3.3c-18.4,0-33.4,12.1-33.4,32c0,18,12.5,29.5,30.6,29.5
				c8.1,0,15.9-1.9,22.2-5v-29.8h-24.2V135.3z"/>
			<path class="st1" d="M1043.7,158.1h15.1c-0.1-3.5-0.2-8.5-0.2-15.9v-7.8h23.8v8.2c0,7.1-0.2,11.9-0.3,15.5h15.1
				c-0.1-3.8-0.3-8.4-0.3-19.7v-19.3c0-12.1,0.2-16.1,0.3-20h-15.1c0.1,3.1,0.3,7.3,0.3,15.5v7.7h-23.8v-8.4
				c0-6.9,0.2-11.8,0.3-14.8h-15c0.1,4.4,0.1,6.8,0.1,19.5v19.5C1043.9,150.3,1043.8,153.9,1043.7,158.1z"/>
			<path class="st1" d="M1158.3,130.6c-5.5-15.1-9.9-26.8-11.5-31.7H1130c-1.8,5.8-5.4,15.3-11.1,30.3c-5.3,14-9.1,23.4-11.4,28.8
				h16.4c1-3.3,2.8-8.7,4.7-14.5h18.5c2.2,6.4,3.7,10.7,5,14.5h16.4C1166.7,153.7,1163,143.5,1158.3,130.6z M1131,133.8l6-19.2
				c0.3-0.9,0.5-3.1,0.5-3.8h0.3c0,0.7,0.4,3.1,0.5,3.8l6.1,19.2H1131z"/>
			<path class="st1" d="M1235.7,113.7h0.2c-0.1,1.4-0.3,4.5-0.3,6.1l0.6,38.3h15.1c-0.4-6.5-0.7-14.9-1.2-28.5
				c-0.5-13-0.8-24.1-0.8-30.5h-17.8l-14.9,37.8c-0.5,1.3-1.1,4.4-1.2,5.1h-0.3c-0.1-0.7-0.5-3.7-1-5L1200,99.1h-18.4
				c-0.1,6.3-0.5,15.3-1.2,30.4c-0.6,13.9-1.2,21.9-1.6,28.6h13.8l1.3-37.5c0.1-2.1-0.2-5.6-0.3-6.8h0.3c0.2,1.1,0.9,5.1,1.5,6.8
				l14,37.6h10l14.7-38.3C1235,117.8,1235.5,114.9,1235.7,113.7z"/>
			<path class="st1" d="M653.6,245.7c6.5-1.9,10.2-7.4,10.2-13.4c0-8.6-6.5-14-18-14c-3.2,0-14.2,0.1-25.5,0.1
				c0.2,3.7,0.2,10.9,0.2,20.9v16.1c0,12.8-0.2,17.7-0.5,22c9.3,0,19.5,0.1,23.8,0.1c13.3,0,22.5-6.2,22.5-17.1
				C666.4,252.6,662.7,247.5,653.6,245.7z M635,228.5c2.2,0,4.1-0.1,5.5-0.1c5.5,0,8.5,2,8.5,6.4c0,5.2-3.8,7.3-8.6,7.3
				c-1.2,0-2.9,0-5.4,0V228.5z M640.3,266.9c-1.4,0-3.5,0-5.3-0.1v-15.2c1.5-0.1,4.2,0,5.8,0c6.4,0,10,2.3,10,7.6
				C650.8,265,646.5,266.9,640.3,266.9z"/>
			<path class="st1" d="M712.7,251.5c7.1-2.5,12-8.7,12-16.8c0-9.2-5-16.4-20.7-16.4c-6.4,0-16.2,0-24.5,0.1
				c0.2,4.7,0.3,9.8,0.3,20.7v18.4c0,10.1-0.2,15.1-0.3,20h15.2c-0.2-5-0.4-12-0.4-22.3c1.5,0,3.2,0,5.1,0
				c2.6,5.1,9.3,16.8,12.5,22.3H729C724.8,271,717.4,259.3,712.7,251.5z M700.4,244.5c-1.4,0-4.5,0-6.1,0v-15.7
				c1.4,0,4.5-0.1,6.2-0.1c6.4,0,9.3,2.8,9.3,7.7C709.7,241.7,705.4,244.5,700.4,244.5z"/>
			<path class="st1" d="M766.3,217.1c-18.8,0-31.2,12.6-31.2,31.4c0,18,11.7,30.2,29.9,30.2c18.3,0,30.5-12.7,30.5-31.3
				C795.4,228.9,784,217.1,766.3,217.1z M765.3,267c-8.6,0-14.8-7.1-14.8-18.8c0-12.1,6.5-19.2,15-19.2c8.4,0,14.6,6.9,14.6,19.3
				C780.1,260.5,773.3,267,765.3,267z"/>
			<path class="st1" d="M818,277.5h14.5l10.6-37.4c0.5-1.7,0.9-4.7,1-6.4h0.2c0.1,1.7,0.4,4.8,0.8,6.5l9.6,37.3h15.5
				c1.7-6.6,4.7-17.8,8.4-30.8c3.7-13.3,6.5-22.5,8.2-28.4h-14.5l-8.6,37.8c-0.4,1.7-0.7,4.7-0.8,6.3h-0.2c-0.1-1.7-0.5-4.4-0.9-6
				l-10-38.1h-12.9L828,256c-0.5,1.7-0.9,5.1-1,6.5h-0.2c-0.1-1.3-0.4-4.7-0.7-6.4l-8.7-37.7h-16.3c1.5,5.1,3.9,13.4,8,27.7
				C813.6,262.2,816.2,270.4,818,277.5z"/>
			<path class="st1" d="M897.5,277.4h13.6v-35.6c0-1-0.2-3-0.5-4.2h0.3c0.3,0.9,1.2,3,1.8,3.7l28.2,36.2h12.7
				c0-3.9-0.1-11.9-0.1-22.3v-16.5c0-10.4,0-16.5,0.2-20.4h-13.9v34c0,1.3,0.3,3.7,0.5,4.9H940c-0.4-0.9-1.2-2.5-1.9-3.5l-26.8-35.4
				h-13.8c0.2,4.2,0.2,12.3,0.2,21.1v16.2C897.6,264.1,897.6,273.5,897.5,277.4z"/>
			<path class="st1" d="M984.9,266.2v-13.4h8.9c4.6,0,7.4,0.2,10.9,0.2l0.5-10.5c-4,0.1-7.3,0.2-11.7,0.2h-8.5v-13h8.3
				c6.5,0,9.9,0.2,13.3,0.3l-0.2-11.5h-36.2c0.1,3.7,0.3,9.9,0.3,20.8v16.6c0,10.4,0,17.5-0.3,21.5h37.5l0.5-11.6
				c-3.6,0.2-7.1,0.4-13.8,0.4H984.9z"/>
			<path class="st1" d="M1086.2,265.6c4.9-6.3,8.5-15.5,8.5-22.7c-3.4,0.3-8,0.4-11.4,0.6c0.2,5.4-2,11.6-4.1,14.7
				c-2.9-3.1-7.5-8-10.8-11.9c9.3-4.5,12-10.1,12-15.8c0-8.6-7.9-12.8-16.2-12.8c-10.7,0-17.8,6-17.8,14.4c0,3.6,1,7.1,5.9,12.6
				c-8.7,4.3-13.7,9.6-13.7,17.3c0,10.1,7.8,17,20.4,17c7.1,0,13.4-2.3,18.5-5.8c2.5,2.8,4.6,5.1,6.4,7c4.5-1,9.6-2,13.6-3
				C1094.3,274,1089.8,269.3,1086.2,265.6z M1063.5,226.5c3.2,0,5.4,2.1,5.4,5.1c0,2.8-1.4,5.6-6.5,8.2c-3.3-3.5-4.3-5.8-4.3-8.2
				C1058.1,228.7,1060.7,226.5,1063.5,226.5z M1061.4,269.6c-5.5,0-10-3.1-10-8.6c0-4.1,2.5-6.9,6.8-9.2c3.4,3.9,9.5,11,12.7,14.6
				C1068.4,268.4,1064.7,269.6,1061.4,269.6z"/>
			<path class="st1" d="M1186.3,218.4h-13.9v34c0,1.3,0.3,3.7,0.5,4.9h-0.3c-0.4-0.9-1.2-2.5-1.9-3.5l-26.8-35.4H1130
				c0.2,4.2,0.2,12.3,0.2,21.1v16.2c0,8.5-0.1,17.9-0.2,21.7h13.6v-35.6c0-1-0.2-3-0.5-4.2h0.3c0.3,0.9,1.2,3,1.8,3.7l28.2,36.2
				h12.7c0-3.9-0.1-11.9-0.1-22.3v-16.5C1186.1,228.4,1186.1,222.3,1186.3,218.4z"/>
			<path class="st1" d="M1217.9,218.4h-15.3c0.2,3.8,0.3,9.9,0.3,21.6v15.3c0,11.2-0.1,17.9-0.2,22h15.1c-0.1-4.6-0.3-10.3-0.3-22.4
				v-15.1C1217.6,228.4,1217.8,222.3,1217.9,218.4z"/>
			<path class="st1" d="M1265,229.3c4.7,0,9.1,1.2,12.6,3.4l1.9-13.2c-4-1.3-9.9-2.4-15.5-2.4c-19.1,0-33.6,12.2-33.6,32
				c0,18.3,12.9,29.5,31.3,29.5c6.5,0,13.1-1.3,17.6-3.2l-1.5-12.3c-3.6,2.2-8.8,3.7-13.6,3.7c-10.9,0-18.4-7.2-18.4-18.5
				C1246,236.4,1253.8,229.3,1265,229.3z"/>
			<path class="st1" d="M1345.6,218.4h-15.1c0.1,3.1,0.3,7.3,0.3,15.5v7.7H1307v-8.4c0-6.9,0.2-11.8,0.3-14.8h-15
				c0.1,4.4,0.1,6.8,0.1,19.5v19.5c0,12.2-0.2,15.8-0.3,20h15.1c-0.1-3.5-0.2-8.5-0.2-15.9v-7.8h23.8v8.2c0,7.1-0.2,11.9-0.3,15.5
				h15.1c-0.1-3.8-0.3-8.4-0.3-19.7v-19.3C1345.3,226.3,1345.5,222.3,1345.6,218.4z"/>
			<path class="st1" d="M1389.6,217.1c-18.8,0-31.2,12.6-31.2,31.4c0,18,11.7,30.2,29.9,30.2c18.3,0,30.5-12.7,30.5-31.3
				C1418.8,228.9,1407.3,217.1,1389.6,217.1z M1388.6,267c-8.6,0-14.8-7.1-14.8-18.8c0-12.1,6.5-19.2,15-19.2
				c8.4,0,14.6,6.9,14.6,19.3C1403.4,260.5,1396.6,267,1388.6,267z"/>
			<path class="st1" d="M1446.7,265.5v-29.7c0-6.1,0.1-11.7,0.3-17.4h-15.1c0.1,4.6,0.2,9.9,0.2,22.1v15.3c0,9.6-0.2,17.6-0.4,21.6
				h36.7l0.5-12.2c-3.3,0.2-8.2,0.3-13.1,0.3H1446.7z"/>
			<path class="st1" d="M1502.9,243c-7.7-2.8-9.5-4.3-9.5-8.4c0-3.8,3.4-6.4,7.8-6.4c3.9,0,8.3,1.2,12.1,3.9l2.4-12.4
				c-4.1-1.6-9.2-2.7-15.5-2.7c-13.2,0-22.1,7.9-22.1,19c0,6.9,2.5,12.3,13.2,16.6c7.6,3.1,10.2,4.6,10.2,8.5c0,3.6-2.5,6.6-7.8,6.6
				c-4.5,0-9.5-1.5-14.9-5.5l-1.2,12.7c4.2,2.1,10.6,3.7,16.4,3.7c15.5,0,23.8-8.5,23.8-19.3C1517.8,251.5,1513,246.7,1502.9,243z"
				/>
			<path class="st1" d="M642.3,362.3c-7.7-2.8-9.5-4.3-9.5-8.4c0-3.8,3.4-6.4,7.8-6.4c3.9,0,8.3,1.2,12.1,3.9l2.4-12.4
				c-4.1-1.6-9.2-2.7-15.5-2.7c-13.2,0-22.1,7.9-22.1,19c0,6.9,2.5,12.3,13.2,16.6c7.6,3.1,10.2,4.6,10.2,8.5c0,3.6-2.5,6.6-7.8,6.6
				c-4.5,0-9.5-1.5-14.9-5.5l-1.2,12.7c4.2,2.1,10.6,3.7,16.4,3.7c15.5,0,23.8-8.5,23.8-19.3C657.2,370.7,652.4,365.9,642.3,362.3z"
				/>
			<path class="st1" d="M701.1,348.5c4.7,0,9.1,1.2,12.6,3.4l1.9-13.2c-4-1.3-9.9-2.4-15.5-2.4c-19.1,0-33.6,12.2-33.6,32
				c0,18.3,12.9,29.5,31.3,29.5c6.5,0,13.1-1.3,17.6-3.2l-1.5-12.3c-3.6,2.2-8.8,3.7-13.6,3.7c-10.9,0-18.4-7.2-18.4-18.5
				C682,355.7,689.8,348.5,701.1,348.5z"/>
			<path class="st1" d="M783.1,337.6H768c0.1,3.1,0.3,7.3,0.3,15.5v7.7h-23.8v-8.4c0-6.9,0.2-11.8,0.3-14.8h-15
				c0.1,4.4,0.1,6.8,0.1,19.5v19.5c0,12.2-0.2,15.8-0.3,20h15.1c-0.1-3.5-0.2-8.5-0.2-15.9v-7.8h23.8v8.2c0,7.1-0.2,11.9-0.3,15.5
				h15.1c-0.1-3.8-0.3-8.4-0.3-19.7v-19.3C782.9,345.5,783,341.5,783.1,337.6z"/>
			<path class="st1" d="M826.6,336.3c-18.8,0-31.2,12.6-31.2,31.4c0,18,11.7,30.2,29.9,30.2c18.3,0,30.5-12.7,30.5-31.3
				C855.8,348.2,844.3,336.3,826.6,336.3z M825.6,386.2c-8.6,0-14.8-7.1-14.8-18.8c0-12.1,6.5-19.2,15-19.2
				c8.4,0,14.6,6.9,14.6,19.3C840.4,379.8,833.6,386.2,825.6,386.2z"/>
			<path class="st1" d="M896.7,336.3c-18.8,0-31.2,12.6-31.2,31.4c0,18,11.7,30.2,29.9,30.2c18.3,0,30.5-12.7,30.5-31.3
				C925.9,348.2,914.4,336.3,896.7,336.3z M895.7,386.2c-8.6,0-14.8-7.1-14.8-18.8c0-12.1,6.5-19.2,15-19.2
				c8.4,0,14.6,6.9,14.6,19.3C910.5,379.8,903.7,386.2,895.7,386.2z"/>
			<path class="st1" d="M953.7,384.8V355c0-6.1,0.1-11.7,0.3-17.4h-15.1c0.1,4.6,0.2,9.9,0.2,22.1V375c0,9.6-0.2,17.6-0.4,21.6h36.7
				l0.5-12.2c-3.3,0.2-8.2,0.3-13.1,0.3H953.7z"/>
		</g>
	</g>
</g>
</svg>
