<?xml version="1.0" standalone="no"?>
<!DOCTYPE svg PUBLIC "-//W3C//DTD SVG 1.1//EN" "http://www.w3.org/Graphics/SVG/1.1/DTD/svg11.dtd" >
<svg>
<metadata>
Created by FontForge 20090622 at Mon Sep 19 11:14:44 2016
 By deploy user
Copyright 2003 Monotype Imaging, Inc. All rights reserved.
</metadata>
<defs>
<font id="MundoSansPro-Medium" horiz-adv-x="537" >
  <font-face 
    font-family="Mundo Sans Pro Medium"
    font-weight="500"
    font-stretch="normal"
    units-per-em="1000"
    panose-1="2 0 5 2 2 1 4 2 3 3"
    ascent="716"
    descent="-284"
    x-height="489"
    cap-height="677"
    bbox="-199 -258 1060 921"
    underline-thickness="20"
    underline-position="-113"
    unicode-range="U+0020-U+FB04"
  />
<missing-glyph horiz-adv-x="500" 
d="M487 0h-475v665h475v-665zM250 375l161 243h-323zM60 91l161 242l-161 242v-484zM440 90v485l-162 -242zM411 48l-161 242l-162 -242h323z" />
    <glyph glyph-name="IJ" unicode="IJ" horiz-adv-x="588" 
d="M209 0h-125q2 96 2 256v178q0 176 -3 243h127q-3 -138 -3 -242v-177q0 -208 2 -258zM209 -182l2 103q29 -12 64 -12q55 0 80 43.5t25 134.5v379q0 123 -2 211h124q-1 -45 -1 -212v-381q0 -139 -56.5 -208t-163.5 -69q-41 0 -72 11z" />
    <glyph glyph-name="ij" unicode="ij" horiz-adv-x="528" 
d="M201 648q0 -29 -19 -45t-49 -16q-31 0 -50 16t-19 44q0 30 18.5 46.5t51.5 16.5q30 0 48.5 -16t18.5 -46zM194 0h-124q2 36 2 193v109q0 122 -3 188l125 3q0 -28 -1 -88t-1 -102v-107q0 -157 2 -196zM466 648q0 -29 -19 -45t-49 -16q-31 0 -50 16t-19 44q0 30 18.5 46.5
t51.5 16.5q30 0 48.5 -16t18.5 -46zM179 -221l7 93q27 -17 58 -17q50 0 71 38t21 119v270q0 156 -3 208l124 3q0 -13 -0.5 -92.5t-0.5 -118.5v-254q0 -128 -46 -195.5t-152 -67.5q-45 0 -79 14z" />
    <glyph glyph-name="napostrophe" unicode="&#x27;n" horiz-adv-x="617" 
d="M36 467l-74 14q57 111 57 232l95 3q-9 -133 -78 -249zM552 0h-124q2 53 2 156v112q0 75 -21.5 104.5t-66.5 29.5q-57 0 -110 -70v-332h-122q2 63 2 184v116q0 108 -3 190l123 3v-78q71 85 165 85q82 0 117.5 -49.5t35.5 -148.5v-112q0 -157 2 -190z" />
    <glyph glyph-name="f_f" unicode="ff" horiz-adv-x="623" 
d="M506 0h-121q2 63 2 408h-194v-408h-121q2 64 2 408h-68l5 81h63q0 7 0.5 25t0.5 25q4 86 53.5 134t136.5 48q42 0 73 -11l-8 -88q-20 13 -56 13q-37 0 -59 -25.5t-22 -75.5v-45h194q0 9 0.5 27t0.5 23q4 86 53.5 134t136.5 48q42 0 73 -11l-8 -88q-19 13 -55 13
q-38 0 -60 -25.5t-22 -75.5v-45h121l-6 -81h-115v-408z" />
    <glyph glyph-name="fi" unicode="fi" horiz-adv-x="580" 
d="M517 648q0 -29 -19 -45t-49 -16q-31 0 -50 16t-19 44q0 30 18.5 46.5t51.5 16.5q31 0 49 -16t18 -46zM509 0h-122q2 72 2 193v116q0 113 -3 181l123 3q0 -28 -0.5 -84t-0.5 -98v-115q0 -156 1 -196zM189 0h-121q3 64 3 408h-65l5 81h60q0 7 0.5 25t0.5 25q4 86 53.5 134
t135.5 48q41 0 74 -11l-9 -88q-19 13 -55 13q-38 0 -60 -25.5t-22 -75.5v-45h122l-6 -81h-116v-408z" />
    <glyph glyph-name="fl" unicode="fl" horiz-adv-x="574" 
d="M508 0h-123q3 129 3 255v174q0 148 -2 282l122 4q-2 -172 -2 -284v-173q0 -164 2 -258zM189 0h-121q3 64 3 408h-65l5 81h60q0 7 0.5 25t0.5 25q4 86 53.5 134t135.5 48q41 0 74 -11l-9 -88q-19 13 -55 13q-38 0 -60 -25.5t-22 -75.5v-45h122l-6 -81h-116v-408z" />
    <glyph glyph-name="f_f_i" unicode="ffi" horiz-adv-x="898" 
d="M506 0h-121q2 63 2 408h-194v-408h-121q2 64 2 408h-68l5 81h63q0 7 0.5 25t0.5 25q4 86 53.5 134t136.5 48q42 0 73 -11l-8 -88q-20 13 -56 13q-37 0 -59 -25.5t-22 -75.5v-45h194q0 9 0.5 27t0.5 23q4 86 53.5 134t136.5 48q42 0 73 -11l-8 -88q-19 13 -55 13
q-38 0 -60 -25.5t-22 -75.5v-45h121l-6 -81h-115v-408zM835 648q0 -29 -19 -45t-49 -16q-31 0 -50 16t-19 44q0 30 18.5 46.5t51.5 16.5q30 0 48.5 -16t18.5 -46zM828 0h-124q2 36 2 193v109q0 122 -3 188l125 3q0 -28 -1 -88t-1 -102v-107q0 -157 2 -196z" />
    <glyph glyph-name="f_f_l" unicode="ffl" horiz-adv-x="880" 
d="M506 0h-121q2 64 2 408h-194v-408h-121q2 64 2 408h-68l5 81h63q0 7 0.5 25t0.5 25q4 86 53.5 134t136.5 48q42 0 73 -11l-8 -88q-20 13 -56 13q-37 0 -59 -25.5t-22 -75.5v-45h194q0 8 0.5 26t0.5 24q4 86 53.5 134t136.5 48q42 0 73 -11l-8 -88q-19 13 -55 13
q-38 0 -60 -25.5t-22 -75.5v-45h121l-6 -81h-115v-408zM814 0h-125q4 172 4 255v174q0 81 -3 282l124 4q-2 -172 -2 -284v-173q0 -164 2 -258z" />
    <glyph glyph-name=".notdef" horiz-adv-x="500" 
d="M487 0h-475v665h475v-665zM250 375l161 243h-323zM60 91l161 242l-161 242v-484zM440 90v485l-162 -242zM411 48l-161 242l-162 -242h323z" />
    <glyph glyph-name=".null" horiz-adv-x="0" 
 />
    <glyph glyph-name="nonmarkingreturn" horiz-adv-x="333" 
 />
    <glyph glyph-name="space" unicode=" " horiz-adv-x="226" 
 />
    <glyph glyph-name="exclam" unicode="!" horiz-adv-x="299" 
d="M200 179h-101l-11 496h123zM219 52q0 -29 -19.5 -45.5t-50.5 -16.5q-32 0 -50.5 16.5t-18.5 43.5q0 31 18.5 48.5t52.5 17.5q68 0 68 -64z" />
    <glyph glyph-name="quotedbl" unicode="&#x22;" horiz-adv-x="335" 
d="M276 471h-71l-10 241h91zM129 470h-70l-10 242h91z" />
    <glyph glyph-name="numbersign" unicode="#" horiz-adv-x="512" 
d="M329 14h-68l25 189h-97l-25 -189h-68l25 189h-105l10 71h105l19 146h-108l9 71h108l24 178h68l-23 -178h97l24 178h67l-24 -178h107l-9 -71h-107l-19 -146h111l-10 -71h-111zM296 274l20 146h-98l-20 -146h98z" />
    <glyph glyph-name="dollar" unicode="$" 
d="M299 -86h-86v111q-78 3 -140 46l15 103q69 -66 145 -66q50 0 77 24t27 61q0 28 -17 49t-36 31t-59 27q-69 30 -106.5 69.5t-37.5 108.5q0 67 42.5 114t115.5 61l1 110h82l-2 -104q64 -3 123 -34l-22 -97q-51 47 -125 47q-40 0 -69.5 -23.5t-29.5 -62.5q0 -41 22 -62.5
t94 -50.5q74 -30 108.5 -69.5t34.5 -98.5q0 -68 -41.5 -115.5t-114.5 -61.5z" />
    <glyph glyph-name="percent" unicode="%" horiz-adv-x="752" 
d="M560 -2q-66 0 -107 41.5t-41 113.5q0 78 43.5 122.5t116.5 44.5q69 0 108 -40.5t39 -115.5q0 -78 -43.5 -122t-115.5 -44zM216 0h-86l413 677h86zM180 340q-66 0 -107 41t-41 113q0 78 43.5 122.5t115.5 44.5q69 0 109 -39.5t40 -114.5q0 -78 -44 -122.5t-116 -44.5z
M566 65q32 0 51.5 24.5t19.5 70.5t-20 69t-50 23q-32 0 -51 -24.5t-19 -70.5q0 -45 19 -68.5t50 -23.5zM186 406q32 0 51 25t19 71t-19.5 69.5t-48.5 23.5q-32 0 -52 -25.5t-20 -71.5q0 -45 19.5 -68.5t50.5 -23.5z" />
    <glyph glyph-name="ampersand" unicode="&#x26;" horiz-adv-x="696" 
d="M688 9q-18 -5 -59.5 -15.5t-60.5 -16.5q-12 13 -40.5 40.5t-42.5 42.5q-90 -71 -211 -71q-100 0 -160.5 52.5t-60.5 140.5q0 124 153 202q-69 77 -69 147q0 67 49.5 112t136.5 45q77 0 119 -40.5t42 -96.5q0 -59 -32 -98.5t-110 -81.5q61 -74 160 -175q21 30 34.5 84
t11.5 103q7 0 44 2t55 4q0 -63 -23 -134t-61 -123zM290 431q53 30 74.5 54.5t21.5 57.5t-22 50.5t-53 17.5q-33 0 -53.5 -20.5t-20.5 -53.5q0 -46 53 -106zM429 122q-89 91 -175 196q-94 -48 -94 -129q0 -55 37 -86t96 -31q81 0 136 50z" />
    <glyph glyph-name="quotesingle" unicode="'" horiz-adv-x="190" 
d="M131 470h-71l-11 242h92z" />
    <glyph glyph-name="parenleft" unicode="(" horiz-adv-x="310" 
d="M284 -175l-89 -31q-151 218 -151 477q0 273 156 493l88 -22q-139 -204 -139 -459q0 -259 135 -458z" />
    <glyph glyph-name="parenright" unicode=")" horiz-adv-x="310" 
d="M112 -204l-90 28q139 202 139 465q0 253 -134 452l88 26q152 -214 152 -484q0 -265 -155 -487z" />
    <glyph glyph-name="asterisk" unicode="*" horiz-adv-x="370" 
d="M282 374l-77 -24l-34 136l-100 -95l-54 59l120 79l-108 82l52 59l91 -97l38 129l76 -22l-61 -126l131 5l-9 -76l-121 15z" />
    <glyph glyph-name="plus" unicode="+" 
d="M474 243h-163v-163h-84v163h-164v84h164v162h84v-162h163v-84z" />
    <glyph glyph-name="comma" unicode="," horiz-adv-x="220" 
d="M113 -135l-70 10q21 49 21 132q0 57 -11 94l116 13q2 -22 2 -32q0 -53 -16 -115.5t-42 -101.5z" />
    <glyph glyph-name="hyphen" unicode="-" horiz-adv-x="388" 
d="M322 216h-257v88h257v-88z" />
    <glyph glyph-name="period" unicode="." horiz-adv-x="220" 
d="M180 54q0 -31 -19 -48t-49 -17q-32 0 -52 17.5t-20 45.5q0 32 19 50.5t53 18.5q32 0 50 -18t18 -49z" />
    <glyph glyph-name="slash" unicode="/" horiz-adv-x="396" 
d="M79 -98h-90l321 816h91z" />
    <glyph glyph-name="zero" unicode="0" 
d="M264 -11q-104 0 -166.5 84t-62.5 253q0 185 66 273.5t180 88.5q109 0 165.5 -82.5t56.5 -264.5q0 -178 -64 -265t-175 -87zM273 76q114 0 114 257q0 146 -30 205.5t-84 59.5q-119 0 -120 -270q-1 -127 32 -189.5t88 -62.5z" />
    <glyph glyph-name="one" unicode="1" 
d="M357 0h-126q3 93 3 238v354l-149 -33l-2 98l270 44v-442q0 -149 4 -259z" />
    <glyph glyph-name="two" unicode="2" 
d="M477 0h-426l-13 76q98 94 206 214q66 73 88 113.5t22 78.5q0 49 -29 77.5t-80 28.5q-77 0 -145 -73l-24 107q98 66 203 66q92 0 143 -50.5t51 -137.5q0 -58 -28 -112t-87 -117l-87 -88.5l-79 -79.5h112q89 0 182 6z" />
    <glyph glyph-name="three" unicode="3" 
d="M44 34l25 100q32 -26 73.5 -40t76.5 -14q64 0 99 29.5t35 80.5q0 57 -42.5 84.5t-135.5 27.5q-34 0 -49 -1l4 89q6 0 18 -0.5t17 -0.5q169 0 169 108q0 42 -28 69t-85 27q-72 0 -132 -50l-19 98q85 47 180 47t148 -45.5t53 -115.5q0 -60 -32 -106.5t-102 -66.5
q72 -8 113.5 -51.5t41.5 -106.5q0 -92 -68.5 -149.5t-189.5 -57.5q-43 0 -91 13t-79 32z" />
    <glyph glyph-name="four" unicode="4" 
d="M420 0h-111q2 61 2 171h-288l-12 65l304 452h103v-433h93l-13 -84h-80q0 -47 2 -171zM311 255v241q0 13 2.5 35.5t2.5 28.5h-3q-15 -41 -27 -60l-155 -245h180z" />
    <glyph glyph-name="five" unicode="5" 
d="M60 27l12 102q64 -48 146 -48q65 0 102 33t37 92q0 93 -102 117q-31 7 -83 7q-29 0 -87 -4q1 37 7.5 171t7.5 180h350l-2 -96h-247l-6 -167h11h14h12q35 0 77 -5q80 -11 124.5 -61t44.5 -135q0 -98 -64.5 -161t-184.5 -63q-91 0 -169 38z" />
    <glyph glyph-name="six" unicode="6" 
d="M416 702l51 -83q-121 -25 -191 -76q-37 -27 -68 -70t-40 -90q72 36 130 36q92 0 148 -52.5t56 -150.5q0 -101 -65 -164t-173 -63q-96 0 -159.5 73t-63.5 207q0 98 38.5 182t104.5 141q94 82 232 110zM159 301q-3 -27 -3 -52q0 -80 34 -125t87 -45q50 0 81.5 35.5
t31.5 90.5q0 65 -32.5 97t-89.5 32q-51 0 -109 -33z" />
    <glyph glyph-name="seven" unicode="7" 
d="M243 0h-122l235 579h-160q-67 0 -160 -3l8 101h451l4 -10z" />
    <glyph glyph-name="eight" unicode="8" 
d="M354 355q78 -32 112 -75.5t34 -103.5q0 -86 -63.5 -136.5t-181.5 -50.5q-94 0 -154 47.5t-60 127.5q0 63 32.5 108t109.5 79q-62 34 -88.5 73.5t-26.5 90.5q0 76 58 124.5t160 48.5q90 0 144 -44.5t54 -116.5q0 -109 -130 -172zM276 399q95 37 95 114q0 44 -25 68t-68 24
q-45 0 -70.5 -24t-25.5 -67q0 -73 94 -115zM268 306q-62 -24 -85.5 -55t-23.5 -75q0 -48 30.5 -74.5t82.5 -26.5q53 0 83 27t30 71t-26 76.5t-91 56.5z" />
    <glyph glyph-name="nine" unicode="9" 
d="M125 -21l-52 82q103 22 173 69q40 27 75 74t48 100q-63 -36 -133 -36q-80 0 -135.5 53t-55.5 147q0 101 65 160.5t163 59.5q104 0 163.5 -70.5t59.5 -200.5q0 -101 -44 -193t-113 -146q-101 -79 -214 -99zM378 386q4 28 4 55q0 75 -32 117t-83 42q-50 0 -81 -33.5
t-31 -88.5q0 -63 33.5 -94.5t85.5 -31.5q49 0 104 34z" />
    <glyph glyph-name="colon" unicode=":" horiz-adv-x="220" 
d="M181 442q0 -29 -19 -45.5t-49 -16.5q-33 0 -53 17t-20 44q0 31 19.5 48.5t53.5 17.5q32 0 50 -17.5t18 -47.5zM181 52q0 -29 -19 -45.5t-49 -16.5q-33 0 -53.5 17t-20.5 44q0 31 20 48.5t54 17.5q32 0 50 -17.5t18 -47.5z" />
    <glyph glyph-name="semicolon" unicode=";" horiz-adv-x="220" 
d="M182 440q0 -30 -19 -45.5t-49 -15.5t-52 15.5t-22 44.5q0 32 20.5 49t53.5 17q31 0 49.5 -17t18.5 -48zM108 -138l-70 11q21 49 21 132q0 57 -11 94l116 13q2 -22 2 -32q0 -53 -16 -116t-42 -102z" />
    <glyph glyph-name="less" unicode="&#x3c;" 
d="M426 64l-359 195v44l355 210l37 -74l-266 -155l269 -148z" />
    <glyph glyph-name="equal" unicode="=" 
d="M474 331h-411v83h411v-83zM474 149h-411v83h411v-83z" />
    <glyph glyph-name="greater" unicode="&#x3e;" 
d="M455 265l-356 -210l-38 73l268 156l-269 146l37 73l358 -195v-43z" />
    <glyph glyph-name="question" unicode="?" horiz-adv-x="418" 
d="M227 178l-100 -5q-20 38 -20 79q0 43 21 77t64 71q28 25 41 38.5t24.5 35.5t11.5 46q0 40 -23.5 61.5t-63.5 21.5q-72 0 -132 -60l-18 99q75 53 169 53q89 0 136 -44.5t47 -108.5q0 -54 -21 -92.5t-66 -79.5q-50 -45 -66 -70t-16 -59q0 -37 12 -63zM255 51
q0 -29 -19.5 -46t-49.5 -17q-32 0 -51.5 17t-19.5 44q0 31 19 48.5t53 17.5q32 0 50 -16.5t18 -47.5z" />
    <glyph glyph-name="at" unicode="@" horiz-adv-x="886" 
d="M591 -15l4 -84q-76 -32 -167 -32q-168 0 -269.5 104t-101.5 274q0 190 115.5 306.5t307.5 116.5q156 0 252.5 -92t96.5 -251q0 -128 -66 -205.5t-149 -77.5q-104 0 -105 137q-68 -133 -149 -133q-54 0 -85 43t-31 121q0 127 69.5 203.5t184.5 76.5q61 0 119 -15
q-25 -139 -25 -262q0 -85 50 -85q41 0 73 52t32 132q0 129 -72.5 205.5t-211.5 76.5q-141 0 -232 -94.5t-91 -244.5q0 -152 81.5 -230.5t221.5 -78.5q35 0 78.5 10.5t69.5 26.5zM506 263q14 131 17 153q-24 6 -51 6q-59 0 -97 -56t-38 -130q0 -99 55 -99q27 0 58 35.5
t56 90.5z" />
    <glyph glyph-name="A" unicode="A" horiz-adv-x="647" 
d="M641 0h-135l-68 191h-231l-34.5 -100l-31.5 -91h-135q51 124 125 323q101 274 127 356h136q30 -90 131 -367q83 -228 116 -312zM411 281l-82 238q-1 4 -6 45h-3q-3 -27 -8 -45l-80 -238h179z" />
    <glyph glyph-name="B" unicode="B" horiz-adv-x="585" 
d="M86 259v169q0 204 -2 249q53 0 136.5 0.5t96.5 0.5q84 0 140.5 -36.5t56.5 -119.5q0 -122 -112 -161q73 -10 109 -54t36 -112q0 -87 -62 -141.5t-178 -54.5q-23 0 -103 0.5t-123 0.5q5 80 5 259zM207 585v-191h72q59 0 87.5 28t28.5 75q0 89 -104 89q-57 0 -84 -1z
M207 306v-213q42 -2 84 -2q129 0 129 111q0 105 -126 105q-11 0 -44 -0.5t-43 -0.5z" />
    <glyph glyph-name="C" unicode="C" horiz-adv-x="603" 
d="M556 138l12 -109q-81 -42 -196 -42q-147 0 -240.5 92t-93.5 247q0 167 101.5 265.5t258.5 98.5q95 0 175 -31l-16 -115q-67 42 -154 42q-107 0 -172.5 -67.5t-65.5 -185.5q0 -109 64 -175.5t162 -66.5q96 0 165 47z" />
    <glyph glyph-name="D" unicode="D" horiz-adv-x="701" 
d="M86 244v190q0 117 -3 243q36 0 122 1t108 1q351 0 351 -332q0 -158 -101.5 -253t-269.5 -95q-19 0 -96.5 0.5t-114.5 0.5q4 84 4 244zM207 579v-482h93q112 0 176.5 67.5t64.5 179.5q0 118 -61.5 176.5t-174.5 58.5h-98z" />
    <glyph glyph-name="E" unicode="E" horiz-adv-x="505" 
d="M471 0h-389q4 49 4 250v186q0 161 -4 241h373l3 -102q-114 3 -155 3h-96v-191h100q87 0 135 2l-4 -95q-20 0 -60.5 0.5t-67.5 0.5h-103v-197h109q79 0 159 4z" />
    <glyph glyph-name="F" unicode="F" horiz-adv-x="490" 
d="M210 0h-128q4 90 4 246v192q0 107 -3 239h373l2 -102q-25 0 -76.5 0.5t-81.5 0.5h-93v-206h92q100 0 142 3l-4 -100q-37 1 -139 1h-91v-96q0 -64 3 -178z" />
    <glyph glyph-name="G" unicode="G" horiz-adv-x="667" 
d="M484 112v162h-129v96h247v-327q-106 -56 -233 -56q-147 0 -239 93t-92 249q0 112 50 195.5t129.5 124.5t175.5 41q118 0 207 -42l-28 -116q-73 53 -180 53q-98 0 -164 -67.5t-66 -182.5q0 -116 62 -181.5t156 -65.5q54 0 104 24z" />
    <glyph glyph-name="H" unicode="H" horiz-adv-x="727" 
d="M644 0h-126q3 126 3 195v95h-314v-90q0 -124 2 -200h-126q3 141 3 229v228q0 130 -2 220h126q-3 -102 -3 -184v-98h314v88q0 89 -3 194h126q-2 -82 -2 -231v-222q0 -134 2 -224z" />
    <glyph glyph-name="I" unicode="I" horiz-adv-x="294" 
d="M209 0h-125q2 96 2 256v178q0 176 -3 243h127q-3 -138 -3 -242v-177q0 -208 2 -258z" />
    <glyph glyph-name="J" unicode="J" horiz-adv-x="294" 
d="M-85 -182l2 103q29 -12 64 -12q55 0 80 43.5t25 134.5v379q0 123 -2 211h124q-1 -45 -1 -212v-381q0 -139 -56.5 -208t-163.5 -69q-41 0 -72 11z" />
    <glyph glyph-name="K" unicode="K" horiz-adv-x="619" 
d="M618 0h-161l-220 293q-20 27 -30 46v-47v-292h-124q3 138 3 260v142q0 187 -2 275h123v-280v-47l29 42l211 285h150q-35 -40 -264 -323q127 -168 285 -354z" />
    <glyph glyph-name="L" unicode="L" horiz-adv-x="471" 
d="M464 0h-382q4 92 4 256v161q0 101 -3 260h127q-3 -101 -3 -200v-374h103q97 0 159 5z" />
    <glyph glyph-name="M" unicode="M" horiz-adv-x="911" 
d="M837 0h-124l-12 476q0 36 4 70h-2q-11 -50 -18 -69l-193 -480h-76l-187 472q-13 32 -19 75h-2q5 -44 4 -78l-18 -466h-116q14 218 19 331q11 237 14 351h144l193 -481q7 -16 11 -62h4q3 36 14 63l196 479h140q0 -104 10 -351q9 -238 14 -330z" />
    <glyph glyph-name="N" unicode="N" horiz-adv-x="749" 
d="M670 -5h-98l-357 472q-11 14 -22 53h-3q8 -32 8 -58v-462h-114q2 96 2 252v183q0 198 -2 247h108l338 -454q23 -30 32 -64h2q-8 38 -8 69v444h115q-2 -47 -2 -239v-180q0 -218 1 -263z" />
    <glyph glyph-name="O" unicode="O" horiz-adv-x="728" 
d="M360 -13q-145 0 -233.5 95.5t-88.5 247.5q0 162 92.5 261t244.5 99q143 0 229 -94.5t86 -250.5q0 -161 -90.5 -259.5t-239.5 -98.5zM364 88q87 0 144 65.5t57 180.5q0 118 -55 185.5t-144 67.5t-145.5 -67.5t-56.5 -182.5q0 -111 55.5 -180t144.5 -69z" />
    <glyph glyph-name="P" unicode="P" horiz-adv-x="564" 
d="M211 0h-129q4 188 4 243v187q0 59 -1.5 143t-1.5 104q29 0 103 1t115 1q110 0 173 -47.5t63 -151.5q0 -97 -67.5 -160t-187.5 -63h-75q0 -176 4 -257zM207 589v-242h69q68 0 104.5 32.5t36.5 92.5q0 118 -136 118q-56 0 -74 -1z" />
    <glyph glyph-name="Q" unicode="Q" horiz-adv-x="722" 
d="M509 -194q-84 84 -166 186q-141 7 -223 102t-82 239q0 158 93 257.5t242 99.5q144 0 231 -94t87 -256q0 -126 -63 -217t-165 -116q136 -130 187 -168q-45 -9 -141 -33zM364 94q93 0 147 66.5t54 177.5q0 113 -54 181t-143 68q-91 0 -147 -68.5t-56 -185.5
q0 -112 56 -175.5t143 -63.5z" />
    <glyph glyph-name="R" unicode="R" horiz-adv-x="595" 
d="M587 0h-146l-156 277h-78q0 -161 4 -277h-127q2 122 2 232v205q0 184 -2 240q162 2 229 2q224 0 224 -180q0 -68 -38 -120t-102 -73q88 -151 190 -306zM207 588v-222h84q52 0 87 31.5t35 84.5q0 108 -127 108q-13 0 -42 -1t-37 -1z" />
    <glyph glyph-name="S" unicode="S" horiz-adv-x="495" 
d="M42 33l12 114q77 -66 162 -66q52 0 80 27.5t28 68.5q0 39 -27 63.5t-101 56.5q-84 36 -115.5 81.5t-31.5 108.5q0 89 63 146.5t165 57.5q93 0 160 -32l-21 -111q-56 46 -135 46q-44 0 -75 -25.5t-31 -67.5q0 -44 23 -68t95 -53q85 -34 124.5 -78t39.5 -110
q0 -90 -63.5 -148t-178.5 -58q-97 0 -173 47z" />
    <glyph glyph-name="T" unicode="T" horiz-adv-x="534" 
d="M327 0h-126q3 165 3 259v314h-71q-91 0 -123 -1l2 105h512v-105q-32 1 -125 1h-74v-316q0 -199 2 -257z" />
    <glyph glyph-name="U" unicode="U" horiz-adv-x="685" 
d="M489 271v265q0 48 -3 141h126q-2 -74 -2 -137v-255q0 -148 -69.5 -223t-204.5 -75q-260 0 -260 289v252q0 32 -3 149h128q-4 -136 -4 -145v-258q0 -180 148 -180q144 0 144 177z" />
    <glyph glyph-name="V" unicode="V" horiz-adv-x="626" 
d="M369 -4h-125l-126 359l-45.5 127l-43 120l-26.5 75h137l162 -498q9 -24 11 -63h2q2 31 13 64l165 497h130l-115 -302z" />
    <glyph glyph-name="W" unicode="W" horiz-adv-x="935" 
d="M735 -7h-127l-128 474q-7 28 -9 72h-2q-5 -49 -11 -71l-141 -475h-116q-6 23 -103 365l-92 319h135l120 -479q7 -29 9 -70h3q2 36 12 71l142 478h105l131 -483q8 -28 10 -65h2q2 45 9 69l122 479h119l-93 -327z" />
    <glyph glyph-name="X" unicode="X" horiz-adv-x="608" 
d="M601 0h-148l-134 245q-4 7 -12 31q-3 -6 -6 -16t-6 -15l-143 -245h-149l227 338l-205 339h151l126 -240q3 -6 6.5 -16.5t6.5 -16.5q12 29 14 33l138 240h138l-215 -335z" />
    <glyph glyph-name="Y" unicode="Y" horiz-adv-x="566" 
d="M344 0h-128q3 96 3 163v78l-114 232l-104 204h137l133 -297q4 -9 13 -40h2q5 21 14 40l139 297h126l-111 -214l-113 -219v-79q0 -91 3 -165z" />
    <glyph glyph-name="Z" unicode="Z" horiz-adv-x="562" 
d="M537 0h-528l-6 16l370 559h-146q-63 0 -189 -3l6 105h507l6 -15l-369 -560h157q99 0 199 5z" />
    <glyph glyph-name="bracketleft" unicode="[" horiz-adv-x="265" 
d="M242 -196h-206v957h206v-80h-105v-794h105v-83z" />
    <glyph glyph-name="backslash" unicode="\" horiz-adv-x="396" 
d="M401 -98h-90l-322 816h91z" />
    <glyph glyph-name="bracketright" unicode="]" horiz-adv-x="265" 
d="M229 -196h-206v83h105v794h-105v80h206v-957z" />
    <glyph glyph-name="asciicircum" unicode="^" 
d="M466 426l-80 -15l-114 208l-120 -208l-81 15l166 279h67z" />
    <glyph glyph-name="underscore" unicode="_" horiz-adv-x="401" 
d="M401 -131h-401v51h400z" />
    <glyph glyph-name="grave" unicode="`" horiz-adv-x="265" 
d="M236 567l-77 -20l-168 120l86 33z" />
    <glyph glyph-name="a" unicode="a" horiz-adv-x="499" 
d="M495 82v-70q-41 -23 -83 -23q-93 0 -102 74q-39 -41 -69.5 -57.5t-73.5 -16.5q-63 0 -101 37.5t-38 99.5q0 108 111 146q46 16 170 34v20q0 43 -20 64.5t-66 21.5q-31 0 -70.5 -17t-71.5 -43l-13 100q98 50 180 50q87 0 133 -41.5t46 -119.5v-226q0 -46 35 -46
q14 0 33 13zM309 138v96q-66 -9 -102 -20q-62 -21 -62 -76q0 -62 65 -62q48 0 99 62z" />
    <glyph glyph-name="b" unicode="b" horiz-adv-x="583" 
d="M166 0h-96q2 42 2 213v311q0 43 -3 187l120 4q0 -5 -0.5 -52t-0.5 -84v-148q67 69 161 69q89 0 143.5 -60.5t54.5 -172.5q0 -126 -65.5 -202t-168.5 -76q-78 0 -133 46zM188 344v-217q41 -48 99 -48q61 0 98 46.5t37 128.5q0 77 -31.5 116t-85.5 39q-68 0 -117 -65z" />
    <glyph glyph-name="c" unicode="c" horiz-adv-x="459" 
d="M415 114l14 -92q-66 -34 -154 -34q-107 0 -173 68t-66 177q0 123 74.5 196t196.5 73q73 0 133 -30l-20 -97q-48 36 -113 36q-71 0 -111.5 -47.5t-40.5 -122.5q0 -67 34.5 -114t110.5 -47q66 0 115 34z" />
    <glyph glyph-name="d" unicode="d" horiz-adv-x="578" 
d="M510 0h-121v43q-63 -54 -135 -54q-93 0 -155.5 64.5t-62.5 191.5q0 119 71.5 187t169.5 68q66 0 112 -28q0 213 -2 240l122 3q-2 -92 -2 -299v-207q0 -146 3 -209zM389 127v249q-35 35 -98 35q-55 0 -94.5 -42.5t-39.5 -120.5q0 -82 37 -124t93 -42q53 0 102 45z" />
    <glyph glyph-name="e" unicode="e" horiz-adv-x="516" 
d="M449 126l2 -96q-79 -43 -178 -43q-104 0 -170 63.5t-66 181.5q0 123 69 196.5t178 73.5q98 0 150.5 -57t52.5 -155q0 -30 -4 -70h-324v-7q0 -61 35.5 -98t104.5 -37q38 0 79.5 14t70.5 34zM161 298h210q0 2 0.5 6t0.5 6q0 48 -26 77.5t-71 29.5q-44 0 -74.5 -30.5
t-39.5 -88.5z" />
    <glyph glyph-name="f" unicode="f" horiz-adv-x="310" 
d="M192 0h-119q3 64 3 408h-70l7 81h63q0 36 1 50q3 83 51 132.5t133 49.5q47 0 77 -12l-9 -88q-22 15 -54 15q-38 0 -60.5 -26t-22.5 -76v-45h122l-6 -81h-116v-408z" />
    <glyph glyph-name="g" unicode="g" horiz-adv-x="509" 
d="M510 416l-76 -12q20 -33 20 -75q0 -76 -53.5 -128t-149.5 -52q-41 0 -66 9q-41 -25 -41 -47q0 -19 14 -28t54 -9q10 0 52.5 2.5t62.5 2.5q81 0 124 -36.5t43 -100.5q0 -75 -71 -129.5t-193 -54.5q-101 0 -152.5 37.5t-51.5 95.5q0 64 74 112q-63 19 -63 77q0 56 83 105
q-72 44 -72 136q0 78 57.5 129t158.5 51q78 0 124 -34q34 6 122 26v-77zM252 233q41 0 64.5 25t23.5 67q0 43 -22.5 68t-64.5 25q-40 0 -63.5 -25t-23.5 -69q0 -41 22.5 -66t63.5 -25zM188 -16q-30 -21 -40.5 -37t-10.5 -38q0 -69 114 -69q61 0 95 25.5t34 57.5
q0 33 -22 49.5t-75 16.5q-9 0 -43 -2.5t-52 -2.5z" />
    <glyph glyph-name="h" unicode="h" horiz-adv-x="574" 
d="M512 0h-122v270q0 71 -20.5 101.5t-65.5 30.5q-58 0 -112 -72v-330h-124q4 100 4 223v253q0 129 -4 233l124 6v-302q75 87 167 87q151 0 151 -198v-134q0 -136 2 -168z" />
    <glyph glyph-name="i" unicode="i" horiz-adv-x="264" 
d="M201 648q0 -29 -19 -45t-49 -16q-31 0 -50 16t-19 44q0 30 18.5 46.5t51.5 16.5q30 0 48.5 -16t18.5 -46zM194 0h-124q2 36 2 193v109q0 122 -3 188l125 3q0 -28 -1 -88t-1 -102v-107q0 -157 2 -196z" />
    <glyph glyph-name="j" unicode="j" horiz-adv-x="264" 
d="M202 648q0 -29 -19 -45t-49 -16q-31 0 -50 16t-19 44q0 30 18.5 46.5t51.5 16.5q30 0 48.5 -16t18.5 -46zM-85 -221l7 93q27 -17 58 -17q50 0 71 38t21 119v270q0 156 -3 208l124 3q0 -13 -0.5 -92.5t-0.5 -118.5v-254q0 -128 -46 -195.5t-152 -67.5q-45 0 -79 14z" />
    <glyph glyph-name="k" unicode="k" horiz-adv-x="505" 
d="M512 0h-147l-160 220q-7 10 -13 24v-244h-123q3 51 3 228v243q0 153 -2 242l122 3v-462q1 1 5.5 10t8.5 13l163 212h142l-198 -234q119 -161 199 -255z" />
    <glyph glyph-name="l" unicode="l" horiz-adv-x="260" 
d="M194 0h-126q4 172 4 255v174q0 81 -3 282l125 4q-2 -85 -2 -284v-173q0 -164 2 -258z" />
    <glyph glyph-name="m" unicode="m" horiz-adv-x="871" 
d="M803 0h-123v269q0 75 -18.5 103.5t-61.5 28.5q-52 0 -104 -71v-330h-120v282q0 65 -19 92t-62 27q-58 0 -103 -71v-330h-122q2 43 2 170v137q0 133 -2 183l122 3v-78q73 85 162 85q101 0 134 -91q77 91 165 91q80 0 113.5 -47t33.5 -151v-136q0 -127 3 -166z" />
    <glyph glyph-name="n" unicode="n" horiz-adv-x="577" 
d="M512 0h-124q2 53 2 156v112q0 75 -21.5 104.5t-66.5 29.5q-57 0 -110 -70v-332h-122q2 63 2 184v116q0 108 -3 190l123 3v-78q71 85 165 85q82 0 117.5 -49.5t35.5 -148.5v-112q0 -157 2 -190z" />
    <glyph glyph-name="o" unicode="o" horiz-adv-x="575" 
d="M281 -13q-108 0 -176 68t-68 179q0 123 73 195.5t189 72.5q110 0 175 -68.5t65 -182.5q0 -123 -70.5 -193.5t-187.5 -70.5zM289 76q57 0 94 44t37 122q0 82 -37 125t-93 43t-95.5 -45.5t-39.5 -124.5q0 -77 39 -120.5t95 -43.5z" />
    <glyph glyph-name="p" unicode="p" horiz-adv-x="577" 
d="M195 -224l-125 -2q2 130 2 206v350q0 118 -1 159l121 4v-55q65 62 148 62q97 0 150.5 -60.5t53.5 -181.5q0 -128 -70 -198.5t-178 -70.5q-63 0 -104 25q0 -82 3 -238zM192 354v-247q46 -29 90 -29q63 0 102.5 44.5t39.5 126.5q0 83 -34.5 121t-92.5 38q-57 0 -105 -54z
" />
    <glyph glyph-name="q" unicode="q" horiz-adv-x="579" 
d="M511 -222l-125 -5q3 189 3 267q-60 -51 -138 -51q-94 0 -154.5 64.5t-60.5 178.5q0 128 68.5 198t176.5 70q58 0 111 -37l5 26h115q-3 -60 -3 -167v-313q0 -43 1 -125t1 -106zM389 130v244q-41 36 -94 36q-59 0 -98.5 -42t-39.5 -121q0 -82 36.5 -123.5t96.5 -41.5
q56 0 99 48z" />
    <glyph glyph-name="r" unicode="r" horiz-adv-x="379" 
d="M196 0h-127q3 96 3 182v117q0 110 -3 191l123 3v-88q50 94 140 94q32 0 50 -9l-15 -113q-25 17 -58 17q-34 0 -65.5 -26t-51.5 -75v-131q0 -64 4 -162z" />
    <glyph glyph-name="s" unicode="s" horiz-adv-x="391" 
d="M32 16l13 104q61 -46 123 -46q78 0 78 57q0 16 -4 26t-17 18.5t-25.5 13.5t-41.5 15q-68 23 -94 59t-26 87q0 68 50.5 110t138.5 42q69 0 120 -22l-19 -95q-45 31 -102 31q-34 0 -53 -15t-19 -42q0 -29 18.5 -43.5t66.5 -30.5q124 -40 124 -142q0 -69 -51 -112.5
t-148 -43.5q-74 0 -132 29z" />
    <glyph glyph-name="t" unicode="t" horiz-adv-x="321" 
d="M308 92l-2 -86q-45 -18 -96 -18q-70 0 -104.5 40t-34.5 109q0 24 1 122.5t0 148.5h-67l10 81h57v105l119 29v-134h127l-10 -81h-117v-258q0 -39 15.5 -56t48.5 -17q32 0 53 15z" />
    <glyph glyph-name="u" unicode="u" horiz-adv-x="564" 
d="M507 0h-124v68q-65 -79 -157 -79q-82 0 -121.5 54t-39.5 141v138q0 123 -2 168l125 2q-3 -144 -3 -153v-140q0 -115 92 -115q60 0 106 71v165q0 7 -3 169l126 2q-3 -129 -3 -181v-116q0 -48 2 -111.5t2 -82.5z" />
    <glyph glyph-name="v" unicode="v" horiz-adv-x="502" 
d="M308 -4h-126l-94 269q-60 167 -82 224h130l106 -343q7 -25 9 -50h4q2 34 9 54l112 339h120l-92 -236q-83 -219 -96 -257z" />
    <glyph glyph-name="w" unicode="w" horiz-adv-x="740" 
d="M612 -4h-132l-84 318q-3 13 -7 55h-3q-3 -34 -9 -54l-101 -319h-130l-75 271q-56 201 -63 222h125l83 -342q4 -17 6 -51h2q6 44 9 53l108 340h114l86 -342q2 -9 6 -52h3q3 34 7 52l87 342h111q-6 -17 -69 -235q-57 -193 -74 -258z" />
    <glyph glyph-name="x" unicode="x" horiz-adv-x="479" 
d="M480 0h-135l-89 150q-4 7 -13 31q-9 -22 -15 -32l-88 -149h-134q45 62 162 239l-151 250h134l87 -161q5 -10 13 -30q2 4 6.5 14.5t7.5 16.5l88 160h128l-159 -245q69 -113 158 -244z" />
    <glyph glyph-name="y" unicode="y" horiz-adv-x="510" 
d="M220 -226h-125q55 111 103 224l-25 65l-38.5 98l-41.5 107q-81 206 -88 221h134l110 -329q6 -18 8 -38h3q2 20 9 38l116 329h121l-152 -377z" />
    <glyph glyph-name="z" unicode="z" horiz-adv-x="449" 
d="M425 0h-419l-3 10l268 391h-113q-87 0 -121 -1l6 89h389l4 -12l-258 -387h122q69 0 133 4z" />
    <glyph glyph-name="braceleft" unicode="{" horiz-adv-x="319" 
d="M291 -112l-3 -84q-116 2 -154.5 51.5t-38.5 162.5v71q0 83 -17.5 113.5t-58.5 30.5v78q43 0 59.5 31t16.5 112v85q0 125 42.5 171t154.5 51l4 -83q-57 -4 -78 -37t-21 -122v-80q0 -81 -19.5 -119.5t-62.5 -47.5q45 -10 63.5 -47t18.5 -121v-69q0 -80 20 -112.5t74 -34.5z
" />
    <glyph glyph-name="bar" unicode="|" horiz-adv-x="151" 
d="M115 -258h-79v1100h79v-1100z" />
    <glyph glyph-name="braceright" unicode="}" horiz-adv-x="319" 
d="M31 -196l-3 84q54 2 74 34.5t20 112.5v69q0 84 19 121t64 47q-43 9 -63 48t-20 119v80q0 90 -20.5 122.5t-77.5 36.5l3 83q112 -5 154.5 -51t42.5 -171v-85q0 -81 16.5 -112t59.5 -31v-78q-41 0 -58.5 -30.5t-17.5 -113.5v-71q0 -113 -38.5 -162.5t-154.5 -51.5z" />
    <glyph glyph-name="asciitilde" unicode="~" 
d="M428 354l61 -21q-25 -74 -58.5 -100.5t-82.5 -26.5q-27 0 -50.5 12.5t-37.5 27t-33 27t-37 12.5q-53 0 -83 -80l-59 30q25 60 59.5 88.5t86.5 28.5q36 0 65 -21t51 -41.5t43 -20.5q27 0 44.5 20.5t30.5 64.5z" />
    <glyph glyph-name="uni00A0" unicode="&#xa0;" 
 />
    <glyph glyph-name="exclamdown" unicode="&#xa1;" horiz-adv-x="299" 
d="M219 450q0 -32 -19 -49t-51 -17q-33 0 -51 16.5t-18 46.5q0 29 18.5 46.5t50.5 17.5q33 0 51.5 -16.5t18.5 -44.5zM213 -173h-124l10 495h102z" />
    <glyph glyph-name="cent" unicode="&#xa2;" 
d="M348 -14l-91 -1l3 101q-89 16 -143 77t-54 159q0 106 54 172t155 84v108l90 1l-3 -105q69 -1 113 -27l-23 -93q-46 34 -113 34q-68 0 -110 -44.5t-42 -124.5t45.5 -120.5t110.5 -40.5q64 0 115 37l9 -88q-66 -28 -116 -31v-98z" />
    <glyph glyph-name="sterling" unicode="&#xa3;" 
d="M507 99l-9 -100q-8 -5 -142 -2t-144 3q-102 0 -151 -10l-14 73q100 46 100 157q0 25 -4 73h-92l5 71h80q-10 92 -10 121q0 92 59 148t153 56q73 0 131 -24l-22 -99q-43 29 -100 29q-51 0 -79.5 -33t-28.5 -91q0 -26 9 -107h172l-6 -71h-159q3 -30 1 -67q-3 -91 -59 -138
q47 2 167 2q107 0 143 9z" />
    <glyph glyph-name="currency" unicode="&#xa4;" horiz-adv-x="607" 
d="M419 188q-51 -36 -116 -36t-116 36l-68 -67l-53 54l69 65q-37 57 -37 114q0 62 37 114l-69 66l53 54l68 -67q52 36 116 36q66 0 115 -36l69 67l53 -54l-69 -66q36 -51 36 -114q0 -59 -36 -114l69 -65l-53 -54zM432 355q0 54 -39 90.5t-90 36.5q-54 0 -91.5 -37.5
t-37.5 -89.5q0 -53 38 -91t91 -38t91 38t38 91z" />
    <glyph glyph-name="yen" unicode="&#xa5;" 
d="M326 0h-119q1 37 1 155h-146v65h146v92h-146v64h118q-53 119 -148 301h122l106 -260q7 -17 11 -38q2 5 5 17.5t6 19.5l107 261h114q-64 -118 -150 -301h115v-64h-144v-92h144v-65h-144q0 -109 2 -155z" />
    <glyph glyph-name="brokenbar" unicode="&#xa6;" horiz-adv-x="151" 
d="M115 356h-79v485h79v-485zM115 -258h-79v518h79v-518z" />
    <glyph glyph-name="section" unicode="&#xa7;" horiz-adv-x="429" 
d="M35 -119l17 98q63 -47 120 -47q38 -1 65 20.5t27 52.5q0 8 -1 15.5t-2.5 13t-5.5 11t-6.5 9.5t-10 9t-11.5 8t-15 8.5l-17 8.5l-21 10l-23 11q-63 30 -90.5 65t-27.5 86q0 83 74 139q-28 19 -43 50.5t-15 59.5q0 73 55.5 118.5t137.5 45.5q67 0 130 -27l-22 -88
q-48 38 -115 38q-39 -1 -61 -22t-22 -57q0 -32 26 -51t112 -57q111 -49 111 -149q0 -43 -21 -83t-56 -63q41 -33 41 -95q0 -78 -53.5 -123t-144.5 -45q-69 0 -132 30zM182 365q-58 -29 -58 -89q0 -39 25.5 -61.5t98.5 -55.5q27 14 44 39.5t17 53.5q0 36 -27 58.5t-100 54.5z
" />
    <glyph glyph-name="dieresis" unicode="&#xa8;" horiz-adv-x="359" 
d="M328 610q0 -23 -16 -36.5t-38 -13.5q-25 0 -40 15t-15 35q0 23 14.5 37.5t40.5 14.5q25 0 39.5 -14t14.5 -38zM140 611q0 -23 -15.5 -35.5t-37.5 -12.5q-25 0 -40.5 13.5t-15.5 33.5q0 23 15 37.5t41 14.5q53 0 53 -51z" />
    <glyph glyph-name="copyright" unicode="&#xa9;" horiz-adv-x="718" 
d="M739 339q0 -148 -99 -246t-248 -98q-152 0 -250.5 95.5t-98.5 245.5q0 147 100 247t251 100q146 0 245.5 -95.5t99.5 -248.5zM391 31q127 0 216 87t89 220t-88.5 220t-216.5 87q-135 0 -220.5 -88t-85.5 -219q0 -134 88.5 -220.5t217.5 -86.5zM526 215l9 -77
q-60 -30 -131 -30q-98 0 -162 59t-64 162q0 112 67.5 176.5t175.5 64.5q47 0 120 -25l-13 -83q-44 29 -105 29q-63 0 -105.5 -40.5t-42.5 -114.5q0 -65 41 -107t106 -42q58 0 104 28z" />
    <glyph glyph-name="ordfeminine" unicode="&#xaa;" horiz-adv-x="339" 
d="M324 422l-3 -50q-22 -11 -53 -11q-23 0 -39 13.5t-19 32.5q-45 -45 -93 -45q-40 0 -64.5 24t-24.5 61q0 67 75 91q21 7 101 19q1 37 -12 50t-40 13q-45 0 -92 -41l-10 61q65 34 118 34q55 0 81.5 -23.5t26.5 -76.5q0 -14 -1 -46.5t-1 -53.5q0 -39 13 -49.5t37 -2.5z
M205 513q-60 -2 -82 -15.5t-22 -38.5q0 -39 44 -39q22 0 40 16t19 40q0 4 0.5 15t0.5 22z" />
    <glyph glyph-name="guillemotleft" unicode="&#xab;" horiz-adv-x="424" 
d="M402 131l-83 -32l-117 152l123 152l76 -28l-103 -124zM221 134l-82 -31l-118 150l123 154l76 -29l-102 -125z" />
    <glyph glyph-name="logicalnot" unicode="&#xac;" 
d="M474 129h-82v202h-329v83h411v-285z" />
    <glyph glyph-name="uni00AD" unicode="&#xad;" horiz-adv-x="388" 
d="M322 216h-257v88h257v-88z" />
    <glyph glyph-name="registered" unicode="&#xae;" horiz-adv-x="517" 
d="M478 487q0 -91 -64.5 -155.5t-155.5 -64.5t-155 64.5t-64 155.5t64 155t155 64t155.5 -64t64.5 -155zM441 487q0 76 -53.5 129.5t-129.5 53.5t-129.5 -53.5t-53.5 -129.5t53.5 -129.5t129.5 -53.5t129.5 53.5t53.5 129.5zM363 359h-65l-46 104h-36v-104h-53v266
q29 1 95 1q94 0 94 -74q0 -25 -14 -45t-38 -30zM217 585v-86q5 0 19 0.5t16 0.5q21 0 33 12t12 33q0 40 -51 40h-29z" />
    <glyph glyph-name="macron" unicode="&#xaf;" horiz-adv-x="266" 
d="M253 563h-242v68h242v-68z" />
    <glyph glyph-name="degree" unicode="&#xb0;" horiz-adv-x="368" 
d="M185 418q-60 0 -103.5 43t-43.5 103t43.5 103t103.5 43t102.5 -43t42.5 -103t-42.5 -103t-102.5 -43zM265 564q0 33 -23.5 56.5t-56.5 23.5t-56.5 -23.5t-23.5 -56.5t23.5 -56t56.5 -23t56.5 23t23.5 56z" />
    <glyph glyph-name="plusminus" unicode="&#xb1;" 
d="M311 168h-85v163h-163v84h162v163h85v-163h163v-84h-162v-163zM474 23h-411v84h411v-84z" />
    <glyph glyph-name="two.superior" unicode="&#xb2;" horiz-adv-x="334" 
d="M296 391h-259l-8 50q38 35 117 118q62 66 62 103q0 26 -15.5 40.5t-44.5 14.5q-50 0 -85 -40l-13 71q57 36 123 36q58 0 89 -29t31 -80q0 -58 -66 -125q-52 -54 -92 -92h62q75 0 103 3z" />
    <glyph glyph-name="three.superior" unicode="&#xb3;" horiz-adv-x="313" 
d="M26 408l13 65q42 -29 87 -29q35 0 54.5 15.5t19.5 41.5q0 57 -96 57q-23 0 -31 -1l4 59h23q90 0 90 54q0 22 -15 36t-45 14q-43 0 -78 -28l-12 65q54 26 110 26q60 0 92.5 -26t32.5 -67q0 -75 -79 -97q42 -5 66 -29.5t24 -60.5q0 -53 -41.5 -85.5t-116.5 -32.5
q-61 0 -102 23z" />
    <glyph glyph-name="acute" unicode="&#xb4;" horiz-adv-x="271" 
d="M282 665l-169 -119l-77 21l162 132z" />
    <glyph glyph-name="mu" unicode="&#xb5;" horiz-adv-x="564" 
d="M496 1l-118 -2l1 57q-49 -61 -108 -61q-35 0 -59.5 17.5t-34.5 44.5l3 -198h-117q2 56 2 229v230q0 126 -2 171l121 4q-2 -96 -2 -158v-124q0 -59 26 -89t66 -30q58 0 101 71v168q0 19 -0.5 45t-1.5 59.5t-1 52.5l123 4q-3 -129 -3 -172v-140q0 -42 2 -105t2 -74z" />
    <glyph glyph-name="paragraph" unicode="&#xb6;" horiz-adv-x="481" 
d="M399 -92h-76v695h-78v-695h-75v466q-59 0 -102 42.5t-43 108.5q0 65 43.5 106t103.5 41h281v-69h-54v-695z" />
    <glyph glyph-name="periodcentered" unicode="&#xb7;" horiz-adv-x="220" 
d="M180 252q0 -31 -19 -48t-49 -17q-32 0 -52 17.5t-20 45.5q0 32 19 50.5t53 18.5q32 0 50 -18t18 -49z" />
    <glyph glyph-name="cedilla" unicode="&#xb8;" horiz-adv-x="205" 
d="M28 -200l3 50q15 -3 27 -3q26 0 40.5 10t14.5 26q0 38 -58 38h-10l13 92l51 -3l-7 -55q35 -1 55 -19t20 -49q0 -38 -33 -63t-93 -25q-15 0 -23 1z" />
    <glyph glyph-name="one.superior" unicode="&#xb9;" horiz-adv-x="279" 
d="M201 391h-91q3 108 3 135v192l-87 -17l-1 64l173 25v-249q0 -103 3 -150z" />
    <glyph glyph-name="ordmasculine" unicode="&#xba;" horiz-adv-x="356" 
d="M176 364q-66 0 -108.5 40t-42.5 109q0 74 45 117.5t115 43.5q67 0 106.5 -39.5t39.5 -112.5q0 -71 -44 -114.5t-111 -43.5zM179 427q36 0 58 24.5t22 66.5q0 45 -22.5 69.5t-57.5 24.5t-58 -26t-23 -69t22.5 -66.5t58.5 -23.5z" />
    <glyph glyph-name="guillemotright" unicode="&#xbb;" horiz-adv-x="424" 
d="M281 103l-75 29l103 122l-104 122l81 31l117 -153zM96 105l-77 28l104 123l-104 122l82 30l118 -152z" />
    <glyph glyph-name="onequarter" unicode="&#xbc;" horiz-adv-x="734" 
d="M181 0h-86l412 677h86zM201 291h-91q3 108 3 135v192l-87 -17l-1 64l173 25v-249q0 -103 3 -150zM644 0h-79q1 33 1 91h-161l-9 48l170 252h77q-1 -72 -1 -243h48l-7 -57h-41q0 -25 2 -91zM566 148v121q0 7 1 19t1 17h-2q-3 -13 -16 -32l-80 -125h96z" />
    <glyph glyph-name="onehalf" unicode="&#xbd;" horiz-adv-x="766" 
d="M181 0h-86l412 677h86zM201 291h-91q3 108 3 135v192l-87 -17l-1 64l173 25v-249q0 -103 3 -150zM713 0h-259l-8 50q38 35 117 118q62 66 62 103q0 26 -15.5 40.5t-44.5 14.5q-50 0 -85 -40l-13 71q57 36 123 36q58 0 89 -29t31 -80q0 -58 -66 -125q-52 -54 -92 -92h62
q74 0 103 3z" />
    <glyph glyph-name="threequarters" unicode="&#xbe;" horiz-adv-x="763" 
d="M227 0h-86l412 677h86zM26 308l13 65q42 -29 87 -29q35 0 54.5 15.5t19.5 41.5q0 57 -96 57q-23 0 -31 -1l4 59h23q90 0 90 54q0 22 -15 36t-45 14q-43 0 -78 -28l-12 65q54 26 110 26q60 0 92.5 -26t32.5 -67q0 -75 -79 -97q42 -5 66 -29.5t24 -60.5q0 -53 -41.5 -85.5
t-116.5 -32.5q-61 0 -102 23zM692 0h-79q1 33 1 91h-161l-9 48l170 252h77q-1 -72 -1 -243h48l-7 -57h-41q0 -25 2 -91zM614 148v121q0 7 1 19t1 17h-2q-3 -13 -16 -32l-80 -125h96z" />
    <glyph glyph-name="questiondown" unicode="&#xbf;" horiz-adv-x="418" 
d="M301 451q0 -31 -19 -48t-54 -17q-67 0 -67 64q0 29 19.5 45.5t49.5 16.5q32 0 51.5 -17t19.5 -44zM365 -41l18 -99q-72 -55 -175 -55q-78 0 -127 43t-49 109q0 92 85 168q48 44 65.5 73.5t17.5 62.5q0 37 -18 72l104 8q23 -40 23 -87q0 -76 -86 -152q-41 -36 -59 -61.5
t-18 -60.5q0 -40 27 -61t67 -21q65 0 125 61z" />
    <glyph glyph-name="Agrave" unicode="&#xc0;" horiz-adv-x="647" 
d="M641 0h-135l-68 191h-231l-34.5 -100l-31.5 -91h-135q51 124 125 323q101 274 127 356h136q30 -90 131 -367q83 -228 116 -312zM411 281l-82 238q-1 4 -6 45h-3q-3 -27 -8 -45l-80 -238h179zM420 755l-77 -20l-168 120l86 33z" />
    <glyph glyph-name="Aacute" unicode="&#xc1;" horiz-adv-x="647" 
d="M641 0h-135l-68 191h-231l-34.5 -100l-31.5 -91h-135q51 124 125 323q101 274 127 356h136q30 -90 131 -367q83 -228 116 -312zM411 281l-82 238q-1 4 -6 45h-3q-3 -27 -8 -45l-80 -238h179zM475 853l-169 -119l-77 21l162 132z" />
    <glyph glyph-name="Acircumflex" unicode="&#xc2;" horiz-adv-x="647" 
d="M641 0h-135l-68 191h-231l-34.5 -100l-31.5 -91h-135q51 124 125 323q101 274 127 356h136q30 -90 131 -367q83 -228 116 -312zM411 281l-82 238q-1 4 -6 45h-3q-3 -27 -8 -45l-80 -238h179zM468 745l-81 -10l-66 83l-70 -83l-76 13l118 132h61z" />
    <glyph glyph-name="Atilde" unicode="&#xc3;" horiz-adv-x="647" 
d="M641 0h-135l-68 191h-231l-34.5 -100l-31.5 -91h-135q51 124 125 323q101 274 127 356h136q30 -90 131 -367q83 -228 116 -312zM411 281l-82 238q-1 4 -6 45h-3q-3 -27 -8 -45l-80 -238h179zM448 858l49 -36q-49 -78 -114 -78q-32 0 -65.5 24t-52.5 24q-31 0 -59 -45
l-44 46q50 65 110 65q33 0 66 -23.5t47 -23.5q33 0 63 47z" />
    <glyph glyph-name="Adieresis" unicode="&#xc4;" horiz-adv-x="647" 
d="M641 0h-135l-68 191h-231l-34.5 -100l-31.5 -91h-135q51 124 125 323q101 274 127 356h136q30 -90 131 -367q83 -228 116 -312zM411 281l-82 238q-1 4 -6 45h-3q-3 -27 -8 -45l-80 -238h179zM472 798q0 -23 -16 -36.5t-38 -13.5q-25 0 -40 15t-15 35q0 23 14.5 37.5
t40.5 14.5q25 0 39.5 -14t14.5 -38zM284 799q0 -23 -15.5 -35.5t-37.5 -12.5q-25 0 -40.5 13.5t-15.5 33.5q0 23 15 37.5t41 14.5q53 0 53 -51z" />
    <glyph glyph-name="Aring" unicode="&#xc5;" horiz-adv-x="647" 
d="M641 0h-135l-68 191h-231l-34.5 -100l-31.5 -91h-135q51 124 125 323q101 274 127 356h136q30 -90 131 -367q83 -228 116 -312zM411 281l-82 238q-1 4 -6 45h-3q-3 -27 -8 -45l-80 -238h179zM428 826q0 -40 -30 -65.5t-72 -25.5q-44 0 -72.5 24t-28.5 63q0 43 29.5 67
t74.5 24q44 0 71.5 -23.5t27.5 -63.5zM371 824q0 19 -12.5 31.5t-31.5 12.5t-31.5 -12t-12.5 -31t12.5 -31.5t31.5 -12.5t31.5 12t12.5 31z" />
    <glyph glyph-name="AE" unicode="&#xc6;" horiz-adv-x="879" 
d="M845 0h-395q4 80 4 194l-193 1q-28 -44 -69 -119t-42 -76h-151l190 305l219 372h421l2 -99q-144 4 -154 4h-102v-195h104q90 0 145 2l-2 -94q-78 3 -143 3h-104v-201h119q102 0 155 4zM454 276v218q0 46 1 70q-8 -21 -19 -41l-140 -247h158z" />
    <glyph glyph-name="Ccedilla" unicode="&#xc7;" horiz-adv-x="603" 
d="M290 -192l3 50q15 -3 27 -3q26 0 40.5 10t14.5 26q0 38 -58 38h-10l9 63q-125 17 -201.5 105.5t-76.5 227.5q0 167 101.5 264.5t258.5 97.5q95 0 175 -31l-16 -116q-67 42 -154 42q-107 0 -172.5 -66.5t-65.5 -184.5q0 -108 64 -174t162 -66q96 0 165 47l12 -108
q-81 -42 -196 -42h-5l-3 -25q35 -1 55 -19t20 -49q0 -38 -33 -63t-93 -25q-15 0 -23 1z" />
    <glyph glyph-name="Egrave" unicode="&#xc8;" horiz-adv-x="505" 
d="M471 0h-389q4 49 4 250v186q0 161 -4 241h373l3 -102q-114 3 -155 3h-96v-191h100q87 0 135 2l-4 -95q-20 0 -60.5 0.5t-67.5 0.5h-103v-197h109q79 0 159 4zM388 755l-77 -20l-168 120l86 33z" />
    <glyph glyph-name="Eacute" unicode="&#xc9;" horiz-adv-x="505" 
d="M471 0h-389q4 49 4 250v186q0 161 -4 241h373l3 -102q-114 3 -155 3h-96v-191h100q87 0 135 2l-4 -95q-20 0 -60.5 0.5t-67.5 0.5h-103v-197h109q79 0 159 4zM447 853l-169 -119l-77 21l162 132z" />
    <glyph glyph-name="Ecircumflex" unicode="&#xca;" horiz-adv-x="505" 
d="M471 0h-389q4 49 4 250v186q0 161 -4 241h373l3 -102q-114 3 -155 3h-96v-191h100q87 0 135 2l-4 -95q-20 0 -60.5 0.5t-67.5 0.5h-103v-197h109q79 0 159 4zM441 745l-81 -10l-66 83l-70 -83l-76 13l118 132h61z" />
    <glyph glyph-name="Edieresis" unicode="&#xcb;" horiz-adv-x="505" 
d="M471 0h-389q4 49 4 250v186q0 161 -4 241h373l3 -102q-114 3 -155 3h-96v-191h100q87 0 135 2l-4 -95q-20 0 -60.5 0.5t-67.5 0.5h-103v-197h109q79 0 159 4zM435 798q0 -23 -16 -36.5t-38 -13.5q-25 0 -40 15t-15 35q0 23 14.5 37.5t40.5 14.5q25 0 39.5 -14t14.5 -38z
M247 799q0 -23 -15.5 -35.5t-37.5 -12.5q-25 0 -40.5 13.5t-15.5 33.5q0 23 15 37.5t41 14.5q53 0 53 -51z" />
    <glyph glyph-name="Igrave" unicode="&#xcc;" horiz-adv-x="294" 
d="M209 0h-125q2 96 2 256v178q0 176 -3 243h127q-3 -138 -3 -242v-177q0 -208 2 -258zM254 755l-77 -20l-168 120l86 33z" />
    <glyph glyph-name="Iacute" unicode="&#xcd;" horiz-adv-x="294" 
d="M209 0h-125q2 96 2 256v178q0 176 -3 243h127q-3 -138 -3 -242v-177q0 -208 2 -258zM288 853l-169 -119l-77 21l162 132z" />
    <glyph glyph-name="Icircumflex" unicode="&#xce;" horiz-adv-x="294" 
d="M209 0h-125q2 96 2 256v178q0 176 -3 243h127q-3 -138 -3 -242v-177q0 -208 2 -258zM296 745l-81 -10l-66 83l-70 -83l-76 13l118 132h61z" />
    <glyph glyph-name="Idieresis" unicode="&#xcf;" horiz-adv-x="294" 
d="M209 0h-125q2 96 2 256v178q0 176 -3 243h127q-3 -138 -3 -242v-177q0 -208 2 -258zM297 798q0 -23 -16 -36.5t-38 -13.5q-25 0 -40 15t-15 35q0 23 14.5 37.5t40.5 14.5q25 0 39.5 -14t14.5 -38zM109 799q0 -23 -15.5 -35.5t-37.5 -12.5q-25 0 -40.5 13.5t-15.5 33.5
q0 23 15 37.5t41 14.5q53 0 53 -51z" />
    <glyph glyph-name="Eth" unicode="&#xd0;" horiz-adv-x="701" 
d="M86 231v56h-77v89h77v70q0 171 -3 231q36 0 116 0.5t108 0.5q171 0 264 -82t93 -249q0 -157 -102.5 -252.5t-268.5 -95.5q-165 0 -211 1q4 65 4 231zM207 95h92q110 0 176 68t66 179q0 114 -64 175.5t-173 61.5h-97v-203h131v-89h-131v-192z" />
    <glyph glyph-name="Ntilde" unicode="&#xd1;" horiz-adv-x="749" 
d="M670 -5h-98l-357 472q-11 14 -22 53h-3q8 -32 8 -58v-462h-114q2 96 2 252v183q0 198 -2 247h108l338 -454q23 -30 32 -64h2q-8 38 -8 69v444h115q-2 -47 -2 -239v-180q0 -218 1 -263zM514 858l49 -36q-49 -78 -114 -78q-32 0 -65.5 24t-52.5 24q-31 0 -59 -45l-44 46
q50 65 110 65q33 0 66 -23.5t47 -23.5q33 0 63 47z" />
    <glyph glyph-name="Ograve" unicode="&#xd2;" horiz-adv-x="728" 
d="M360 -13q-145 0 -233.5 95.5t-88.5 247.5q0 162 92.5 261t244.5 99q143 0 229 -94.5t86 -250.5q0 -161 -90.5 -259.5t-239.5 -98.5zM364 88q87 0 144 65.5t57 180.5q0 118 -55 185.5t-144 67.5t-145.5 -67.5t-56.5 -182.5q0 -111 55.5 -180t144.5 -69zM474 755l-77 -20
l-168 120l86 33z" />
    <glyph glyph-name="Oacute" unicode="&#xd3;" horiz-adv-x="728" 
d="M360 -13q-145 0 -233.5 95.5t-88.5 247.5q0 162 92.5 261t244.5 99q143 0 229 -94.5t86 -250.5q0 -161 -90.5 -259.5t-239.5 -98.5zM364 88q87 0 144 65.5t57 180.5q0 118 -55 185.5t-144 67.5t-145.5 -67.5t-56.5 -182.5q0 -111 55.5 -180t144.5 -69zM547 853l-169 -119
l-77 21l162 132z" />
    <glyph glyph-name="Ocircumflex" unicode="&#xd4;" horiz-adv-x="728" 
d="M360 -13q-145 0 -233.5 95.5t-88.5 247.5q0 162 92.5 261t244.5 99q143 0 229 -94.5t86 -250.5q0 -161 -90.5 -259.5t-239.5 -98.5zM364 88q87 0 144 65.5t57 180.5q0 118 -55 185.5t-144 67.5t-145.5 -67.5t-56.5 -182.5q0 -111 55.5 -180t144.5 -69zM522 745l-81 -10
l-66 83l-70 -83l-76 13l118 132h61z" />
    <glyph glyph-name="Otilde" unicode="&#xd5;" horiz-adv-x="728" 
d="M360 -13q-145 0 -233.5 95.5t-88.5 247.5q0 162 92.5 261t244.5 99q143 0 229 -94.5t86 -250.5q0 -161 -90.5 -259.5t-239.5 -98.5zM364 88q87 0 144 65.5t57 180.5q0 118 -55 185.5t-144 67.5t-145.5 -67.5t-56.5 -182.5q0 -111 55.5 -180t144.5 -69zM490 858l49 -36
q-49 -78 -114 -78q-32 0 -65.5 24t-52.5 24q-31 0 -59 -45l-44 46q50 65 110 65q33 0 66 -23.5t47 -23.5q33 0 63 47z" />
    <glyph glyph-name="Odieresis" unicode="&#xd6;" horiz-adv-x="728" 
d="M360 -13q-145 0 -233.5 95.5t-88.5 247.5q0 162 92.5 261t244.5 99q143 0 229 -94.5t86 -250.5q0 -161 -90.5 -259.5t-239.5 -98.5zM364 88q87 0 144 65.5t57 180.5q0 118 -55 185.5t-144 67.5t-145.5 -67.5t-56.5 -182.5q0 -111 55.5 -180t144.5 -69zM520 798
q0 -23 -16 -36.5t-38 -13.5q-25 0 -40 15t-15 35q0 23 14.5 37.5t40.5 14.5q25 0 39.5 -14t14.5 -38zM332 799q0 -23 -15.5 -35.5t-37.5 -12.5q-25 0 -40.5 13.5t-15.5 33.5q0 23 15 37.5t41 14.5q53 0 53 -51z" />
    <glyph glyph-name="multiply" unicode="&#xd7;" 
d="M470 143l-60 -60l-141 142l-141 -142l-61 60l143 142l-143 141l60 59l141 -141l141 141l61 -59l-143 -141z" />
    <glyph glyph-name="Oslash" unicode="&#xd8;" horiz-adv-x="728" 
d="M99 -27l-45 38l67 79q-83 92 -83 240q0 161 92.5 258t244.5 97q118 0 199 -64l61 72l44 -37l-64 -76q75 -91 75 -235q0 -161 -90 -257.5t-240 -96.5q-113 0 -195 60zM202 184l295 347q-51 51 -131 51q-89 0 -145.5 -65.5t-56.5 -179.5q0 -90 38 -153zM532 483l-293 -345
q51 -46 125 -46q87 0 144 64t57 178q0 88 -33 149z" />
    <glyph glyph-name="Ugrave" unicode="&#xd9;" horiz-adv-x="685" 
d="M489 271v265q0 48 -3 141h126q-2 -74 -2 -137v-255q0 -148 -69.5 -223t-204.5 -75q-260 0 -260 289v252q0 32 -3 149h128q-4 -136 -4 -145v-258q0 -180 148 -180q144 0 144 177zM437 755l-77 -20l-168 120l86 33z" />
    <glyph glyph-name="Uacute" unicode="&#xda;" horiz-adv-x="685" 
d="M489 271v265q0 48 -3 141h126q-2 -74 -2 -137v-255q0 -148 -69.5 -223t-204.5 -75q-260 0 -260 289v252q0 32 -3 149h128q-4 -136 -4 -145v-258q0 -180 148 -180q144 0 144 177zM508 853l-169 -119l-77 21l162 132z" />
    <glyph glyph-name="Ucircumflex" unicode="&#xdb;" horiz-adv-x="685" 
d="M489 271v265q0 48 -3 141h126q-2 -74 -2 -137v-255q0 -148 -69.5 -223t-204.5 -75q-260 0 -260 289v252q0 32 -3 149h128q-4 -136 -4 -145v-258q0 -180 148 -180q144 0 144 177zM487 745l-81 -10l-66 83l-70 -83l-76 13l118 132h61z" />
    <glyph glyph-name="Udieresis" unicode="&#xdc;" horiz-adv-x="685" 
d="M489 271v265q0 48 -3 141h126q-2 -74 -2 -137v-255q0 -148 -69.5 -223t-204.5 -75q-260 0 -260 289v252q0 32 -3 149h128q-4 -136 -4 -145v-258q0 -180 148 -180q144 0 144 177zM495 798q0 -23 -16 -36.5t-38 -13.5q-25 0 -40 15t-15 35q0 23 14.5 37.5t40.5 14.5
q25 0 39.5 -14t14.5 -38zM307 799q0 -23 -15.5 -35.5t-37.5 -12.5q-25 0 -40.5 13.5t-15.5 33.5q0 23 15 37.5t41 14.5q53 0 53 -51z" />
    <glyph glyph-name="Yacute" unicode="&#xdd;" horiz-adv-x="566" 
d="M344 0h-128q3 96 3 163v78l-114 232l-104 204h137l133 -297q4 -9 13 -40h2q5 21 14 40l139 297h126l-111 -214l-113 -219v-79q0 -91 3 -165zM464 853l-169 -119l-77 21l162 132z" />
    <glyph glyph-name="Thorn" unicode="&#xde;" horiz-adv-x="564" 
d="M212 0h-130q4 64 4 262v141q0 243 -1 274h126q-1 -19 -1.5 -60t-0.5 -62q23 1 80 1q131 0 189.5 -49.5t58.5 -152.5q0 -95 -72.5 -152t-181.5 -57h-74q0 -12 1 -61.5t2 -83.5zM209 469v-236h63q64 0 103.5 29t39.5 90q0 118 -137 118q-56 0 -69 -1z" />
    <glyph glyph-name="germandbls" unicode="&#xdf;" horiz-adv-x="555" 
d="M253 12l15 95q30 -30 76 -30q30 0 48.5 19t18.5 52q0 43 -62 94q-47 39 -65 71t-18 76q0 67 52 116q34 31 34 67q0 31 -19 47.5t-51 16.5q-54 0 -74.5 -34t-20.5 -95v-507h-116v514q0 94 53.5 150.5t161.5 56.5q85 0 136 -35.5t51 -97.5q0 -58 -57 -108q-37 -32 -37 -72
q0 -27 13.5 -49t51.5 -51q89 -70 89 -153q0 -78 -52 -123t-129 -45q-60 0 -99 25z" />
    <glyph glyph-name="agrave" unicode="&#xe0;" horiz-adv-x="499" 
d="M495 82v-70q-41 -23 -83 -23q-93 0 -102 74q-39 -41 -69.5 -57.5t-73.5 -16.5q-63 0 -101 37.5t-38 99.5q0 108 111 146q46 16 170 34v20q0 43 -20 64.5t-66 21.5q-31 0 -70.5 -17t-71.5 -43l-13 100q98 50 180 50q87 0 133 -41.5t46 -119.5v-226q0 -46 35 -46
q14 0 33 13zM309 138v96q-66 -9 -102 -20q-62 -21 -62 -76q0 -62 65 -62q48 0 99 62zM345 567l-77 -20l-168 120l86 33z" />
    <glyph glyph-name="aacute" unicode="&#xe1;" horiz-adv-x="499" 
d="M495 82v-70q-41 -23 -83 -23q-93 0 -102 74q-39 -41 -69.5 -57.5t-73.5 -16.5q-63 0 -101 37.5t-38 99.5q0 108 111 146q46 16 170 34v20q0 43 -20 64.5t-66 21.5q-31 0 -70.5 -17t-71.5 -43l-13 100q98 50 180 50q87 0 133 -41.5t46 -119.5v-226q0 -46 35 -46
q14 0 33 13zM309 138v96q-66 -9 -102 -20q-62 -21 -62 -76q0 -62 65 -62q48 0 99 62zM400 665l-169 -119l-77 21l162 132z" />
    <glyph glyph-name="acircumflex" unicode="&#xe2;" horiz-adv-x="499" 
d="M495 82v-70q-41 -23 -83 -23q-93 0 -102 74q-39 -41 -69.5 -57.5t-73.5 -16.5q-63 0 -101 37.5t-38 99.5q0 108 111 146q46 16 170 34v20q0 43 -20 64.5t-66 21.5q-31 0 -70.5 -17t-71.5 -43l-13 100q98 50 180 50q87 0 133 -41.5t46 -119.5v-226q0 -46 35 -46
q14 0 33 13zM309 138v96q-66 -9 -102 -20q-62 -21 -62 -76q0 -62 65 -62q48 0 99 62zM394 557l-81 -10l-66 83l-70 -83l-76 13l118 132h61z" />
    <glyph glyph-name="atilde" unicode="&#xe3;" horiz-adv-x="499" 
d="M495 82v-70q-41 -23 -83 -23q-93 0 -102 74q-39 -41 -69.5 -57.5t-73.5 -16.5q-63 0 -101 37.5t-38 99.5q0 108 111 146q46 16 170 34v20q0 43 -20 64.5t-66 21.5q-31 0 -70.5 -17t-71.5 -43l-13 100q98 50 180 50q87 0 133 -41.5t46 -119.5v-226q0 -46 35 -46
q14 0 33 13zM309 138v96q-66 -9 -102 -20q-62 -21 -62 -76q0 -62 65 -62q48 0 99 62zM376 670l49 -36q-49 -78 -114 -78q-32 0 -65.5 24t-52.5 24q-31 0 -59 -45l-44 46q50 65 110 65q33 0 66 -23.5t47 -23.5q33 0 63 47z" />
    <glyph glyph-name="adieresis" unicode="&#xe4;" horiz-adv-x="499" 
d="M495 82v-70q-41 -23 -83 -23q-93 0 -102 74q-39 -41 -69.5 -57.5t-73.5 -16.5q-63 0 -101 37.5t-38 99.5q0 108 111 146q46 16 170 34v20q0 43 -20 64.5t-66 21.5q-31 0 -70.5 -17t-71.5 -43l-13 100q98 50 180 50q87 0 133 -41.5t46 -119.5v-226q0 -46 35 -46
q14 0 33 13zM309 138v96q-66 -9 -102 -20q-62 -21 -62 -76q0 -62 65 -62q48 0 99 62zM399 610q0 -23 -16 -36.5t-38 -13.5q-25 0 -40 15t-15 35q0 23 14.5 37.5t40.5 14.5q25 0 39.5 -14t14.5 -38zM211 611q0 -23 -15.5 -35.5t-37.5 -12.5q-25 0 -40.5 13.5t-15.5 33.5
q0 23 15 37.5t41 14.5q53 0 53 -51z" />
    <glyph glyph-name="aring" unicode="&#xe5;" horiz-adv-x="499" 
d="M495 82v-70q-41 -23 -83 -23q-93 0 -102 74q-39 -41 -69.5 -57.5t-73.5 -16.5q-63 0 -101 37.5t-38 99.5q0 108 111 146q46 16 170 34v20q0 43 -20 64.5t-66 21.5q-31 0 -70.5 -17t-71.5 -43l-13 100q98 50 180 50q87 0 133 -41.5t46 -119.5v-226q0 -46 35 -46
q14 0 33 13zM309 138v96q-66 -9 -102 -20q-62 -21 -62 -76q0 -62 65 -62q48 0 99 62zM356 638q0 -40 -30 -65.5t-72 -25.5q-44 0 -72.5 24t-28.5 63q0 43 29.5 67t74.5 24q44 0 71.5 -23.5t27.5 -63.5zM299 636q0 19 -12.5 31.5t-31.5 12.5t-31.5 -12t-12.5 -31t12.5 -31.5
t31.5 -12.5t31.5 12t12.5 31z" />
    <glyph glyph-name="ae" unicode="&#xe6;" horiz-adv-x="776" 
d="M710 122l2 -92q-80 -41 -176 -41q-131 0 -191 95q-46 -51 -87 -73t-98 -22q-60 0 -96 36.5t-36 98.5q0 109 112 148q52 19 169 31v32q0 40 -20 58t-63 18q-36 0 -77.5 -15.5t-69.5 -41.5l-14 96q92 50 181 50q98 0 137 -69q60 69 162 69q98 0 150 -55.5t52 -153.5
q0 -26 -4 -66h-322v-9q0 -69 38 -103.5t106 -34.5q79 0 145 44zM422 296h213q0 2 0.5 7t0.5 8q0 51 -25.5 79.5t-73.5 28.5q-44 0 -76.5 -32t-38.5 -91zM316 149q-7 35 -7 86q-61 -5 -105 -20q-62 -21 -62 -75q0 -64 66 -64q51 0 108 73z" />
    <glyph glyph-name="ccedilla" unicode="&#xe7;" horiz-adv-x="459" 
d="M203 -188l3 50q15 -3 27 -3q26 0 40.5 10t14.5 26q0 38 -58 38h-10l9 62q-88 14 -140.5 78t-52.5 160q0 124 74 196.5t197 72.5q73 0 133 -33l-22 -97q-49 39 -112 39q-67 0 -109 -45.5t-42 -122.5q0 -78 41.5 -119.5t108.5 -41.5q60 0 109 35l15 -92q-58 -32 -149 -34
l-3 -24q35 -1 55 -19t20 -49q0 -38 -33 -63t-93 -25q-15 0 -23 1z" />
    <glyph glyph-name="egrave" unicode="&#xe8;" horiz-adv-x="516" 
d="M449 126l2 -96q-79 -43 -178 -43q-104 0 -170 63.5t-66 181.5q0 123 69 196.5t178 73.5q98 0 150.5 -57t52.5 -155q0 -30 -4 -70h-324v-7q0 -61 35.5 -98t104.5 -37q38 0 79.5 14t70.5 34zM161 298h210q0 2 0.5 6t0.5 6q0 48 -26 77.5t-71 29.5q-44 0 -74.5 -30.5
t-39.5 -88.5zM380 567l-77 -20l-168 120l86 33z" />
    <glyph glyph-name="eacute" unicode="&#xe9;" horiz-adv-x="516" 
d="M449 126l2 -96q-79 -43 -178 -43q-104 0 -170 63.5t-66 181.5q0 123 69 196.5t178 73.5q98 0 150.5 -57t52.5 -155q0 -30 -4 -70h-324v-7q0 -61 35.5 -98t104.5 -37q38 0 79.5 14t70.5 34zM161 298h210q0 2 0.5 6t0.5 6q0 48 -26 77.5t-71 29.5q-44 0 -74.5 -30.5
t-39.5 -88.5zM441 665l-169 -119l-77 21l162 132z" />
    <glyph glyph-name="ecircumflex" unicode="&#xea;" horiz-adv-x="516" 
d="M449 126l2 -96q-79 -43 -178 -43q-104 0 -170 63.5t-66 181.5q0 123 69 196.5t178 73.5q98 0 150.5 -57t52.5 -155q0 -30 -4 -70h-324v-7q0 -61 35.5 -98t104.5 -37q38 0 79.5 14t70.5 34zM161 298h210q0 2 0.5 6t0.5 6q0 48 -26 77.5t-71 29.5q-44 0 -74.5 -30.5
t-39.5 -88.5zM425 557l-81 -10l-66 83l-70 -83l-76 13l118 132h61z" />
    <glyph glyph-name="edieresis" unicode="&#xeb;" horiz-adv-x="516" 
d="M449 126l2 -96q-79 -43 -178 -43q-104 0 -170 63.5t-66 181.5q0 123 69 196.5t178 73.5q98 0 150.5 -57t52.5 -155q0 -30 -4 -70h-324v-7q0 -61 35.5 -98t104.5 -37q38 0 79.5 14t70.5 34zM161 298h210q0 2 0.5 6t0.5 6q0 48 -26 77.5t-71 29.5q-44 0 -74.5 -30.5
t-39.5 -88.5zM425 610q0 -23 -16 -36.5t-38 -13.5q-25 0 -40 15t-15 35q0 23 14.5 37.5t40.5 14.5q25 0 39.5 -14t14.5 -38zM237 611q0 -23 -15.5 -35.5t-37.5 -12.5q-25 0 -40.5 13.5t-15.5 33.5q0 23 15 37.5t41 14.5q53 0 53 -51z" />
    <glyph glyph-name="igrave" unicode="&#xec;" horiz-adv-x="264" 
d="M194 0h-124q2 36 2 193v109q0 122 -3 188l125 3q0 -28 -1 -88t-1 -102v-107q0 -157 2 -196zM234 567l-77 -20l-168 120l86 33z" />
    <glyph glyph-name="iacute" unicode="&#xed;" horiz-adv-x="264" 
d="M194 0h-124q2 36 2 193v109q0 122 -3 188l125 3q0 -28 -1 -88t-1 -102v-107q0 -157 2 -196zM272 665l-169 -119l-77 21l162 132z" />
    <glyph glyph-name="icircumflex" unicode="&#xee;" horiz-adv-x="264" 
d="M194 0h-124q2 36 2 193v109q0 122 -3 188l125 3q0 -28 -1 -88t-1 -102v-107q0 -157 2 -196zM279 557l-81 -10l-66 83l-70 -83l-76 13l118 132h61z" />
    <glyph glyph-name="idieresis" unicode="&#xef;" horiz-adv-x="264" 
d="M194 0h-124q2 36 2 193v109q0 122 -3 188l125 3q0 -28 -1 -88t-1 -102v-107q0 -157 2 -196zM282 610q0 -23 -16 -36.5t-38 -13.5q-25 0 -40 15t-15 35q0 23 14.5 37.5t40.5 14.5q25 0 39.5 -14t14.5 -38zM94 611q0 -23 -15.5 -35.5t-37.5 -12.5q-25 0 -40.5 13.5
t-15.5 33.5q0 23 15 37.5t41 14.5q53 0 53 -51z" />
    <glyph glyph-name="eth" unicode="&#xf0;" horiz-adv-x="575" 
d="M469 670l-98 -51q80 -62 124.5 -159.5t44.5 -200.5q0 -124 -72 -197t-187 -73q-109 0 -177 67.5t-68 179.5q0 120 70 188.5t174 68.5q26 0 57 -11.5t46 -27.5q-18 32 -49 67t-58 52l-127 -66l-46 52l107 57q-64 40 -104 57q18 11 88 51q28 -11 110 -63l117 60zM289 78
q57 0 94.5 44.5t37.5 122.5q0 82 -36.5 123t-93.5 41t-97 -44t-40 -124q0 -77 39 -120t96 -43z" />
    <glyph glyph-name="ntilde" unicode="&#xf1;" horiz-adv-x="577" 
d="M512 0h-124q2 53 2 156v112q0 75 -21.5 104.5t-66.5 29.5q-57 0 -110 -70v-332h-122q2 63 2 184v116q0 108 -3 190l123 3v-78q71 85 165 85q82 0 117.5 -49.5t35.5 -148.5v-112q0 -157 2 -190zM420 670l49 -36q-49 -78 -114 -78q-32 0 -65.5 24t-52.5 24q-31 0 -59 -45
l-44 46q50 65 110 65q33 0 66 -23.5t47 -23.5q33 0 63 47z" />
    <glyph glyph-name="ograve" unicode="&#xf2;" horiz-adv-x="575" 
d="M281 -13q-108 0 -176 68t-68 179q0 123 73 195.5t189 72.5q110 0 175 -68.5t65 -182.5q0 -123 -70.5 -193.5t-187.5 -70.5zM289 76q57 0 94 44t37 122q0 82 -37 125t-93 43t-95.5 -45.5t-39.5 -124.5q0 -77 39 -120.5t95 -43.5zM395 567l-77 -20l-168 120l86 33z" />
    <glyph glyph-name="oacute" unicode="&#xf3;" horiz-adv-x="575" 
d="M281 -13q-108 0 -176 68t-68 179q0 123 73 195.5t189 72.5q110 0 175 -68.5t65 -182.5q0 -123 -70.5 -193.5t-187.5 -70.5zM289 76q57 0 94 44t37 122q0 82 -37 125t-93 43t-95.5 -45.5t-39.5 -124.5q0 -77 39 -120.5t95 -43.5zM452 665l-169 -119l-77 21l162 132z" />
    <glyph glyph-name="ocircumflex" unicode="&#xf4;" horiz-adv-x="575" 
d="M281 -13q-108 0 -176 68t-68 179q0 123 73 195.5t189 72.5q110 0 175 -68.5t65 -182.5q0 -123 -70.5 -193.5t-187.5 -70.5zM289 76q57 0 94 44t37 122q0 82 -37 125t-93 43t-95.5 -45.5t-39.5 -124.5q0 -77 39 -120.5t95 -43.5zM443 557l-81 -10l-66 83l-70 -83l-76 13
l118 132h61z" />
    <glyph glyph-name="otilde" unicode="&#xf5;" horiz-adv-x="575" 
d="M281 -13q-108 0 -176 68t-68 179q0 123 73 195.5t189 72.5q110 0 175 -68.5t65 -182.5q0 -123 -70.5 -193.5t-187.5 -70.5zM289 76q57 0 94 44t37 122q0 82 -37 125t-93 43t-95.5 -45.5t-39.5 -124.5q0 -77 39 -120.5t95 -43.5zM419 670l49 -36q-49 -78 -114 -78
q-32 0 -65.5 24t-52.5 24q-31 0 -59 -45l-44 46q50 65 110 65q33 0 66 -23.5t47 -23.5q33 0 63 47z" />
    <glyph glyph-name="odieresis" unicode="&#xf6;" horiz-adv-x="575" 
d="M281 -13q-108 0 -176 68t-68 179q0 123 73 195.5t189 72.5q110 0 175 -68.5t65 -182.5q0 -123 -70.5 -193.5t-187.5 -70.5zM289 76q57 0 94 44t37 122q0 82 -37 125t-93 43t-95.5 -45.5t-39.5 -124.5q0 -77 39 -120.5t95 -43.5zM442 610q0 -23 -16 -36.5t-38 -13.5
q-25 0 -40 15t-15 35q0 23 14.5 37.5t40.5 14.5q25 0 39.5 -14t14.5 -38zM254 611q0 -23 -15.5 -35.5t-37.5 -12.5q-25 0 -40.5 13.5t-15.5 33.5q0 23 15 37.5t41 14.5q53 0 53 -51z" />
    <glyph glyph-name="divide" unicode="&#xf7;" 
d="M269 389q-23 0 -40 16t-17 39q0 24 16 41t40 17t40 -16.5t16 -40.5q0 -23 -16 -39.5t-39 -16.5zM474 243h-411v84h411v-84zM269 70q-23 0 -40 16.5t-17 39.5t16.5 39.5t39.5 16.5q24 0 40 -16t16 -40q0 -23 -16 -39.5t-39 -16.5z" />
    <glyph glyph-name="oslash" unicode="&#xf8;" horiz-adv-x="575" 
d="M82 -38l-40 36l57 65q-62 67 -62 172q0 123 72.5 194.5t189.5 71.5q86 0 146 -43l57 65l39 -35l-57 -66q55 -68 55 -170q0 -122 -70.5 -192.5t-187.5 -70.5q-80 0 -141 39zM175 149l199 228q-33 32 -84 32q-56 0 -95.5 -44.5t-39.5 -123.5q0 -52 20 -92zM404 331
l-196 -224q35 -29 81 -29q57 0 94 43.5t37 121.5q0 50 -16 88z" />
    <glyph glyph-name="ugrave" unicode="&#xf9;" horiz-adv-x="564" 
d="M507 0h-124v68q-65 -79 -157 -79q-82 0 -121.5 54t-39.5 141v138q0 123 -2 168l125 2q-3 -144 -3 -153v-140q0 -115 92 -115q60 0 106 71v165q0 7 -3 169l126 2q-3 -129 -3 -181v-116q0 -48 2 -111.5t2 -82.5zM385 567l-77 -20l-168 120l86 33z" />
    <glyph glyph-name="uacute" unicode="&#xfa;" horiz-adv-x="564" 
d="M507 0h-124v68q-65 -79 -157 -79q-82 0 -121.5 54t-39.5 141v138q0 123 -2 168l125 2q-3 -144 -3 -153v-140q0 -115 92 -115q60 0 106 71v165q0 7 -3 169l126 2q-3 -129 -3 -181v-116q0 -48 2 -111.5t2 -82.5zM448 665l-169 -119l-77 21l162 132z" />
    <glyph glyph-name="ucircumflex" unicode="&#xfb;" horiz-adv-x="564" 
d="M507 0h-124v68q-65 -79 -157 -79q-82 0 -121.5 54t-39.5 141v138q0 123 -2 168l125 2q-3 -144 -3 -153v-140q0 -115 92 -115q60 0 106 71v165q0 7 -3 169l126 2q-3 -129 -3 -181v-116q0 -48 2 -111.5t2 -82.5zM429 557l-81 -10l-66 83l-70 -83l-76 13l118 132h61z" />
    <glyph glyph-name="udieresis" unicode="&#xfc;" horiz-adv-x="564" 
d="M507 0h-124v68q-65 -79 -157 -79q-82 0 -121.5 54t-39.5 141v138q0 123 -2 168l125 2q-3 -144 -3 -153v-140q0 -115 92 -115q60 0 106 71v165q0 7 -3 169l126 2q-3 -129 -3 -181v-116q0 -48 2 -111.5t2 -82.5zM431 610q0 -23 -16 -36.5t-38 -13.5q-25 0 -40 15t-15 35
q0 23 14.5 37.5t40.5 14.5q25 0 39.5 -14t14.5 -38zM243 611q0 -23 -15.5 -35.5t-37.5 -12.5q-25 0 -40.5 13.5t-15.5 33.5q0 23 15 37.5t41 14.5q53 0 53 -51z" />
    <glyph glyph-name="yacute" unicode="&#xfd;" horiz-adv-x="510" 
d="M220 -226h-125q55 111 103 224l-25 65l-38.5 98l-41.5 107q-81 206 -88 221h134l110 -329q6 -18 8 -38h3q2 20 9 38l116 329h121l-152 -377zM445 665l-169 -119l-77 21l162 132z" />
    <glyph glyph-name="thorn" unicode="&#xfe;" horiz-adv-x="577" 
d="M194 -237l-124 -5q3 252 3 365v358q0 64 -3 226l122 7q-1 -23 -1 -276q68 63 148 63q97 0 151 -60.5t54 -181.5q0 -128 -69.5 -198t-179.5 -70q-62 0 -104 26q0 -107 3 -254zM191 354v-245q41 -29 90 -29q64 0 103.5 44t39.5 126q0 158 -127 158q-58 0 -106 -54z" />
    <glyph glyph-name="ydieresis" unicode="&#xff;" horiz-adv-x="510" 
d="M220 -226h-125q55 111 103 224l-25 65l-38.5 98l-41.5 107q-81 206 -88 221h134l110 -329q6 -18 8 -38h3q2 20 9 38l116 329h121l-152 -377zM407 610q0 -23 -16 -36.5t-38 -13.5q-25 0 -40 15t-15 35q0 23 14.5 37.5t40.5 14.5q25 0 39.5 -14t14.5 -38zM219 611
q0 -23 -15.5 -35.5t-37.5 -12.5q-25 0 -40.5 13.5t-15.5 33.5q0 23 15 37.5t41 14.5q53 0 53 -51z" />
    <glyph glyph-name="Amacron" unicode="&#x100;" horiz-adv-x="647" 
d="M641 0h-135l-68 191h-231l-34.5 -100l-31.5 -91h-135q51 124 125 323q101 274 127 356h136q30 -90 131 -367q83 -228 116 -312zM411 281l-82 238q-1 4 -6 45h-3q-3 -27 -8 -45l-80 -238h179zM447 751h-242v68h242v-68z" />
    <glyph glyph-name="amacron" unicode="&#x101;" horiz-adv-x="499" 
d="M495 82v-70q-41 -23 -83 -23q-93 0 -102 74q-39 -41 -69.5 -57.5t-73.5 -16.5q-63 0 -101 37.5t-38 99.5q0 108 111 146q46 16 170 34v20q0 43 -20 64.5t-66 21.5q-31 0 -70.5 -17t-71.5 -43l-13 100q98 50 180 50q87 0 133 -41.5t46 -119.5v-226q0 -46 35 -46
q14 0 33 13zM309 138v96q-66 -9 -102 -20q-62 -21 -62 -76q0 -62 65 -62q48 0 99 62zM369 563h-242v68h242v-68z" />
    <glyph glyph-name="Abreve" unicode="&#x102;" horiz-adv-x="647" 
d="M641 0h-135l-68 191h-231l-34.5 -100l-31.5 -91h-135q51 124 125 323q101 274 127 356h136q30 -90 131 -367q83 -228 116 -312zM411 281l-82 238q-1 4 -6 45h-3q-3 -27 -8 -45l-80 -238h179zM378 867h71q-2 -60 -37 -93t-97 -33q-124 0 -127 127h69q0 -71 64 -71
q57 0 57 70z" />
    <glyph glyph-name="abreve" unicode="&#x103;" horiz-adv-x="499" 
d="M495 82v-70q-41 -23 -83 -23q-93 0 -102 74q-39 -41 -69.5 -57.5t-73.5 -16.5q-63 0 -101 37.5t-38 99.5q0 108 111 146q46 16 170 34v20q0 43 -20 64.5t-66 21.5q-31 0 -70.5 -17t-71.5 -43l-13 100q98 50 180 50q87 0 133 -41.5t46 -119.5v-226q0 -46 35 -46
q14 0 33 13zM309 138v96q-66 -9 -102 -20q-62 -21 -62 -76q0 -62 65 -62q48 0 99 62zM305 679h71q-2 -60 -37 -93t-97 -33q-124 0 -127 127h69q0 -71 64 -71q57 0 57 70z" />
    <glyph glyph-name="Aogonek" unicode="&#x104;" horiz-adv-x="647" 
d="M566 -153l-4 -55q-16 -2 -34 -2q-42 0 -65 21t-23 58q0 56 64 133l-66 189h-229l-66 -191h-137l126 323q99 264 128 356h133q5 -17 133 -367q84 -236 115 -312h-83q-53 -71 -53 -113q0 -43 41 -43q10 0 20 3zM412 280l-77 230q-8 23 -13 55h-2q-8 -42 -13 -55l-76 -230
h181z" />
    <glyph glyph-name="aogonek" unicode="&#x105;" horiz-adv-x="499" 
d="M466 -153l-4 -56q-22 -2 -31 -2q-45 0 -67.5 22.5t-22.5 60.5q0 47 54 117q-73 6 -84 74q-64 -74 -144 -74q-64 0 -101.5 39t-37.5 100q0 104 112 145q58 21 170 32v30q0 78 -84 78q-34 0 -75 -16t-69 -42l-15 94q97 52 185 52q175 0 175 -160q0 -37 -0.5 -116t-0.5 -112
q0 -43 33 -43q17 0 36 13l-2 -72q-21 -11 -37 -14q-51 -70 -51 -110q0 -43 40 -43q12 0 21 3zM310 141v95q-62 -5 -103 -20q-61 -19 -61 -74q0 -30 17.5 -48t48.5 -18q49 0 98 65z" />
    <glyph glyph-name="Cacute" unicode="&#x106;" horiz-adv-x="603" 
d="M556 138l12 -109q-81 -42 -196 -42q-147 0 -240.5 92t-93.5 247q0 167 101.5 265.5t258.5 98.5q95 0 175 -31l-16 -115q-67 42 -154 42q-107 0 -172.5 -67.5t-65.5 -185.5q0 -109 64 -175.5t162 -66.5q96 0 165 47zM528 853l-169 -119l-77 21l162 132z" />
    <glyph glyph-name="cacute" unicode="&#x107;" horiz-adv-x="459" 
d="M415 114l14 -92q-66 -34 -154 -34q-107 0 -173 68t-66 177q0 123 74.5 196t196.5 73q73 0 133 -30l-20 -97q-48 36 -113 36q-71 0 -111.5 -47.5t-40.5 -122.5q0 -67 34.5 -114t110.5 -47q66 0 115 34zM441 665l-169 -119l-77 21l162 132z" />
    <glyph glyph-name="Ccircumflex" unicode="&#x108;" horiz-adv-x="603" 
d="M556 138l12 -109q-81 -42 -196 -42q-147 0 -240.5 92t-93.5 247q0 167 101.5 265.5t258.5 98.5q95 0 175 -31l-16 -115q-67 42 -154 42q-107 0 -172.5 -67.5t-65.5 -185.5q0 -109 64 -175.5t162 -66.5q96 0 165 47zM513 745l-81 -10l-66 83l-70 -83l-76 13l118 132h61z
" />
    <glyph glyph-name="ccircumflex" unicode="&#x109;" horiz-adv-x="459" 
d="M415 114l14 -92q-66 -34 -154 -34q-107 0 -173 68t-66 177q0 123 74.5 196t196.5 73q73 0 133 -30l-20 -97q-48 36 -113 36q-71 0 -111.5 -47.5t-40.5 -122.5q0 -67 34.5 -114t110.5 -47q66 0 115 34zM415 557l-81 -10l-66 83l-70 -83l-76 13l118 132h61z" />
    <glyph glyph-name="Cdotaccent" unicode="&#x10a;" horiz-adv-x="603" 
d="M556 138l12 -109q-81 -42 -196 -42q-147 0 -240.5 92t-93.5 247q0 167 101.5 265.5t258.5 98.5q95 0 175 -31l-16 -115q-67 42 -154 42q-107 0 -172.5 -67.5t-65.5 -185.5q0 -109 64 -175.5t162 -66.5q96 0 165 47zM426 808q0 -24 -16 -38t-38 -14q-24 0 -40.5 14.5
t-16.5 35.5q0 24 15.5 39t41.5 15q25 0 39.5 -13.5t14.5 -38.5z" />
    <glyph glyph-name="cdotaccent" unicode="&#x10b;" horiz-adv-x="459" 
d="M415 114l14 -92q-66 -34 -154 -34q-107 0 -173 68t-66 177q0 123 74.5 196t196.5 73q73 0 133 -30l-20 -97q-48 36 -113 36q-71 0 -111.5 -47.5t-40.5 -122.5q0 -67 34.5 -114t110.5 -47q66 0 115 34zM336 620q0 -24 -16 -38t-38 -14q-24 0 -40.5 14.5t-16.5 35.5
q0 24 15.5 39t41.5 15q25 0 39.5 -13.5t14.5 -38.5z" />
    <glyph glyph-name="Ccaron" unicode="&#x10c;" horiz-adv-x="603" 
d="M556 138l12 -109q-81 -42 -196 -42q-147 0 -240.5 92t-93.5 247q0 167 101.5 265.5t258.5 98.5q95 0 175 -31l-16 -115q-67 42 -154 42q-107 0 -172.5 -67.5t-65.5 -185.5q0 -109 64 -175.5t162 -66.5q96 0 165 47zM399 735h-61l-114 135l81 10l66 -83l70 83l76 -13z" />
    <glyph glyph-name="ccaron" unicode="&#x10d;" horiz-adv-x="459" 
d="M415 114l14 -92q-66 -34 -154 -34q-107 0 -173 68t-66 177q0 123 74.5 196t196.5 73q73 0 133 -30l-20 -97q-48 36 -113 36q-71 0 -111.5 -47.5t-40.5 -122.5q0 -67 34.5 -114t110.5 -47q66 0 115 34zM303 547h-61l-114 135l81 10l66 -83l70 83l76 -13z" />
    <glyph glyph-name="Dcaron" unicode="&#x10e;" horiz-adv-x="701" 
d="M86 244v190q0 117 -3 243q36 0 122 1t108 1q351 0 351 -332q0 -158 -101.5 -253t-269.5 -95q-19 0 -96.5 0.5t-114.5 0.5q4 84 4 244zM207 579v-482h93q112 0 176.5 67.5t64.5 179.5q0 118 -61.5 176.5t-174.5 58.5h-98zM358 735h-61l-114 135l81 10l66 -83l70 83l76 -13
z" />
    <glyph glyph-name="dcaron" unicode="&#x10f;" horiz-adv-x="578" 
d="M510 0h-121v43q-63 -54 -135 -54q-93 0 -155.5 64.5t-62.5 191.5q0 119 71.5 187t169.5 68q66 0 112 -28q0 213 -2 240l122 3q-2 -92 -2 -299v-207q0 -146 3 -209zM389 127v249q-35 35 -98 35q-55 0 -94.5 -42.5t-39.5 -120.5q0 -82 37 -124t93 -42q53 0 102 45zM596 541
l-54 16q31 60 31 105q2 31 -8 63l83 13q5 -22 5 -38q0 -74 -57 -159z" />
    <glyph glyph-name="Dcroat" unicode="&#x110;" horiz-adv-x="701" 
d="M86 231v56h-77v89h77v70q0 171 -3 231q36 0 116 0.5t108 0.5q171 0 264 -82t93 -249q0 -157 -102.5 -252.5t-268.5 -95.5q-165 0 -211 1q4 65 4 231zM207 95h92q110 0 176 68t66 179q0 114 -64 175.5t-173 61.5h-97v-203h131v-89h-131v-192z" />
    <glyph glyph-name="dcroat" unicode="&#x111;" horiz-adv-x="578" 
d="M510 0h-121v43q-63 -54 -135 -54q-93 0 -155.5 64.5t-62.5 191.5q0 119 71.5 187t169.5 68q66 0 112 -28v82h-161v79h161q0 13 -0.5 31.5t-1 30.5t-0.5 17l122 3q-1 -16 -1 -82h100v-79h-101v-138v-207q0 -146 3 -209zM389 127v249q-35 35 -98 35q-55 0 -94.5 -42.5
t-39.5 -120.5q0 -82 37 -124t93 -42q53 0 102 45z" />
    <glyph glyph-name="Emacron" unicode="&#x112;" horiz-adv-x="505" 
d="M471 0h-389q4 49 4 250v186q0 161 -4 241h373l3 -102q-114 3 -155 3h-96v-191h100q87 0 135 2l-4 -95q-20 0 -60.5 0.5t-67.5 0.5h-103v-197h109q79 0 159 4zM400 751h-242v68h242v-68z" />
    <glyph glyph-name="emacron" unicode="&#x113;" horiz-adv-x="516" 
d="M449 126l2 -96q-79 -43 -178 -43q-104 0 -170 63.5t-66 181.5q0 123 69 196.5t178 73.5q98 0 150.5 -57t52.5 -155q0 -30 -4 -70h-324v-7q0 -61 35.5 -98t104.5 -37q38 0 79.5 14t70.5 34zM161 298h210q0 2 0.5 6t0.5 6q0 48 -26 77.5t-71 29.5q-44 0 -74.5 -30.5
t-39.5 -88.5zM401 563h-242v68h242v-68z" />
    <glyph glyph-name="Ebreve" unicode="&#x114;" horiz-adv-x="505" 
d="M471 0h-389q4 49 4 250v186q0 161 -4 241h373l3 -102q-114 3 -155 3h-96v-191h100q87 0 135 2l-4 -95q-20 0 -60.5 0.5t-67.5 0.5h-103v-197h109q79 0 159 4zM340 867h71q-2 -60 -37 -93t-97 -33q-124 0 -127 127h69q0 -71 64 -71q57 0 57 70z" />
    <glyph glyph-name="ebreve" unicode="&#x115;" horiz-adv-x="516" 
d="M449 126l2 -96q-79 -43 -178 -43q-104 0 -170 63.5t-66 181.5q0 123 69 196.5t178 73.5q98 0 150.5 -57t52.5 -155q0 -30 -4 -70h-324v-7q0 -61 35.5 -98t104.5 -37q38 0 79.5 14t70.5 34zM161 298h210q0 2 0.5 6t0.5 6q0 48 -26 77.5t-71 29.5q-44 0 -74.5 -30.5
t-39.5 -88.5zM334 679h71q-2 -60 -37 -93t-97 -33q-124 0 -127 127h69q0 -71 64 -71q57 0 57 70z" />
    <glyph glyph-name="Edotaccent" unicode="&#x116;" horiz-adv-x="505" 
d="M471 0h-389q4 49 4 250v186q0 161 -4 241h373l3 -102q-114 3 -155 3h-96v-191h100q87 0 135 2l-4 -95q-20 0 -60.5 0.5t-67.5 0.5h-103v-197h109q79 0 159 4zM338 808q0 -24 -16 -38t-38 -14q-24 0 -40.5 14.5t-16.5 35.5q0 24 15.5 39t41.5 15q25 0 39.5 -13.5
t14.5 -38.5z" />
    <glyph glyph-name="edotaccent" unicode="&#x117;" horiz-adv-x="516" 
d="M449 126l2 -96q-79 -43 -178 -43q-104 0 -170 63.5t-66 181.5q0 123 69 196.5t178 73.5q98 0 150.5 -57t52.5 -155q0 -30 -4 -70h-324v-7q0 -61 35.5 -98t104.5 -37q38 0 79.5 14t70.5 34zM161 298h210q0 2 0.5 6t0.5 6q0 48 -26 77.5t-71 29.5q-44 0 -74.5 -30.5
t-39.5 -88.5zM333 620q0 -24 -16 -38t-38 -14q-24 0 -40.5 14.5t-16.5 35.5q0 24 15.5 39t41.5 15q25 0 39.5 -13.5t14.5 -38.5z" />
    <glyph glyph-name="Eogonek" unicode="&#x118;" horiz-adv-x="505" 
d="M407 -153l-4 -56q-18 -2 -33 -2q-43 0 -65.5 22t-22.5 58q0 53 63 131h-263q4 61 4 250v186q0 182 -3 241h373l2 -102q-114 3 -154 3h-97v-191h104q83 0 131 2l-4 -95q-20 0 -59 0.5t-66 0.5h-106v-197h110q55 0 158 5l-4 -103h-72q-53 -74 -53 -113q0 -43 41 -43
q11 0 20 3z" />
    <glyph glyph-name="eogonek" unicode="&#x119;" horiz-adv-x="516" 
d="M368 -156l-4 -56q-18 -2 -26 -2q-95 0 -95 83q0 49 55 119q-8 -1 -25 -1q-104 0 -170 63.5t-66 181.5q0 123 69 196.5t178 73.5q98 0 150.5 -57t52.5 -155q0 -30 -4 -70h-324v-7q0 -61 35.5 -98t104.5 -37q38 0 79.5 14t70.5 34l2 -96q-47 -26 -92 -34q-52 -73 -52 -112
q0 -42 42 -42q5 0 19 2zM161 298h210q0 2 0.5 6t0.5 6q0 48 -26 77.5t-71 29.5q-44 0 -74.5 -30.5t-39.5 -88.5z" />
    <glyph glyph-name="Ecaron" unicode="&#x11a;" horiz-adv-x="505" 
d="M471 0h-389q4 49 4 250v186q0 161 -4 241h373l3 -102q-114 3 -155 3h-96v-191h100q87 0 135 2l-4 -95q-20 0 -60.5 0.5t-67.5 0.5h-103v-197h109q79 0 159 4zM306 735h-61l-114 135l81 10l66 -83l70 83l76 -13z" />
    <glyph glyph-name="ecaron" unicode="&#x11b;" horiz-adv-x="516" 
d="M449 126l2 -96q-79 -43 -178 -43q-104 0 -170 63.5t-66 181.5q0 123 69 196.5t178 73.5q98 0 150.5 -57t52.5 -155q0 -30 -4 -70h-324v-7q0 -61 35.5 -98t104.5 -37q38 0 79.5 14t70.5 34zM161 298h210q0 2 0.5 6t0.5 6q0 48 -26 77.5t-71 29.5q-44 0 -74.5 -30.5
t-39.5 -88.5zM305 547h-61l-114 135l81 10l66 -83l70 83l76 -13z" />
    <glyph glyph-name="Gcircumflex" unicode="&#x11c;" horiz-adv-x="667" 
d="M484 112v162h-129v96h247v-327q-106 -56 -233 -56q-147 0 -239 93t-92 249q0 112 50 195.5t129.5 124.5t175.5 41q118 0 207 -42l-28 -116q-73 53 -180 53q-98 0 -164 -67.5t-66 -182.5q0 -116 62 -181.5t156 -65.5q54 0 104 24zM508 745l-81 -10l-66 83l-70 -83l-76 13
l118 132h61z" />
    <glyph glyph-name="gcircumflex" unicode="&#x11d;" horiz-adv-x="509" 
d="M510 416l-76 -12q20 -33 20 -75q0 -76 -53.5 -128t-149.5 -52q-41 0 -66 9q-41 -25 -41 -47q0 -19 14 -28t54 -9q10 0 52.5 2.5t62.5 2.5q81 0 124 -36.5t43 -100.5q0 -75 -71 -129.5t-193 -54.5q-101 0 -152.5 37.5t-51.5 95.5q0 64 74 112q-63 19 -63 77q0 56 83 105
q-72 44 -72 136q0 78 57.5 129t158.5 51q78 0 124 -34q34 6 122 26v-77zM252 233q41 0 64.5 25t23.5 67q0 43 -22.5 68t-64.5 25q-40 0 -63.5 -25t-23.5 -69q0 -41 22.5 -66t63.5 -25zM188 -16q-30 -21 -40.5 -37t-10.5 -38q0 -69 114 -69q61 0 95 25.5t34 57.5
q0 33 -22 49.5t-75 16.5q-9 0 -43 -2.5t-52 -2.5zM408 557l-81 -10l-66 83l-70 -83l-76 13l118 132h61z" />
    <glyph glyph-name="Gbreve" unicode="&#x11e;" horiz-adv-x="667" 
d="M484 112v162h-129v96h247v-327q-106 -56 -233 -56q-147 0 -239 93t-92 249q0 112 50 195.5t129.5 124.5t175.5 41q118 0 207 -42l-28 -116q-73 53 -180 53q-98 0 -164 -67.5t-66 -182.5q0 -116 62 -181.5t156 -65.5q54 0 104 24zM432 867h71q-2 -60 -37 -93t-97 -33
q-124 0 -127 127h69q0 -71 64 -71q57 0 57 70z" />
    <glyph glyph-name="gbreve" unicode="&#x11f;" horiz-adv-x="509" 
d="M510 416l-76 -12q20 -33 20 -75q0 -76 -53.5 -128t-149.5 -52q-41 0 -66 9q-41 -25 -41 -47q0 -19 14 -28t54 -9q10 0 52.5 2.5t62.5 2.5q81 0 124 -36.5t43 -100.5q0 -75 -71 -129.5t-193 -54.5q-101 0 -152.5 37.5t-51.5 95.5q0 64 74 112q-63 19 -63 77q0 56 83 105
q-72 44 -72 136q0 78 57.5 129t158.5 51q78 0 124 -34q34 6 122 26v-77zM252 233q41 0 64.5 25t23.5 67q0 43 -22.5 68t-64.5 25q-40 0 -63.5 -25t-23.5 -69q0 -41 22.5 -66t63.5 -25zM188 -16q-30 -21 -40.5 -37t-10.5 -38q0 -69 114 -69q61 0 95 25.5t34 57.5
q0 33 -22 49.5t-75 16.5q-9 0 -43 -2.5t-52 -2.5zM318 679h71q-2 -60 -37 -93t-97 -33q-124 0 -127 127h69q0 -71 64 -71q57 0 57 70z" />
    <glyph glyph-name="Gdotaccent" unicode="&#x120;" horiz-adv-x="667" 
d="M484 112v162h-129v96h247v-327q-106 -56 -233 -56q-147 0 -239 93t-92 249q0 112 50 195.5t129.5 124.5t175.5 41q118 0 207 -42l-28 -116q-73 53 -180 53q-98 0 -164 -67.5t-66 -182.5q0 -116 62 -181.5t156 -65.5q54 0 104 24zM432 808q0 -24 -16 -38t-38 -14
q-24 0 -40.5 14.5t-16.5 35.5q0 24 15.5 39t41.5 15q25 0 39.5 -13.5t14.5 -38.5z" />
    <glyph glyph-name="gdotaccent" unicode="&#x121;" horiz-adv-x="509" 
d="M510 416l-76 -12q20 -33 20 -75q0 -76 -53.5 -128t-149.5 -52q-41 0 -66 9q-41 -25 -41 -47q0 -19 14 -28t54 -9q10 0 52.5 2.5t62.5 2.5q81 0 124 -36.5t43 -100.5q0 -75 -71 -129.5t-193 -54.5q-101 0 -152.5 37.5t-51.5 95.5q0 64 74 112q-63 19 -63 77q0 56 83 105
q-72 44 -72 136q0 78 57.5 129t158.5 51q78 0 124 -34q34 6 122 26v-77zM252 233q41 0 64.5 25t23.5 67q0 43 -22.5 68t-64.5 25q-40 0 -63.5 -25t-23.5 -69q0 -41 22.5 -66t63.5 -25zM188 -16q-30 -21 -40.5 -37t-10.5 -38q0 -69 114 -69q61 0 95 25.5t34 57.5
q0 33 -22 49.5t-75 16.5q-9 0 -43 -2.5t-52 -2.5zM313 620q0 -24 -16 -38t-38 -14q-24 0 -40.5 14.5t-16.5 35.5q0 24 15.5 39t41.5 15q25 0 39.5 -13.5t14.5 -38.5z" />
    <glyph glyph-name="Gcommaaccent" unicode="&#x122;" horiz-adv-x="667" 
d="M484 112v162h-129v96h247v-327q-106 -56 -233 -56q-147 0 -239 93t-92 249q0 112 50 195.5t129.5 124.5t175.5 41q118 0 207 -42l-28 -116q-73 53 -180 53q-98 0 -164 -67.5t-66 -182.5q0 -116 62 -181.5t156 -65.5q54 0 104 24zM355 -238l-54 16q31 60 31 105
q2 31 -8 63l83 13q5 -23 5 -38q0 -74 -57 -159z" />
    <glyph glyph-name="gcommaaccent" unicode="&#x123;" horiz-adv-x="509" 
d="M302 561l-83 -13q-5 22 -5 38q0 74 57 159l54 -16q-31 -60 -31 -105q-2 -31 8 -63zM510 416l-76 -12q20 -33 20 -75q0 -76 -53.5 -128t-149.5 -52q-41 0 -66 9q-41 -25 -41 -47q0 -19 14 -28t54 -9q10 0 52.5 2.5t62.5 2.5q81 0 124 -36.5t43 -100.5q0 -75 -71 -129.5
t-193 -54.5q-101 0 -152.5 37.5t-51.5 95.5q0 64 74 112q-63 19 -63 77q0 56 83 105q-72 44 -72 136q0 78 57.5 129t158.5 51q78 0 124 -34q34 6 122 26v-77zM252 233q41 0 64.5 25t23.5 67q0 43 -22.5 68t-64.5 25q-40 0 -63.5 -25t-23.5 -69q0 -41 22.5 -66t63.5 -25z
M188 -16q-30 -21 -40.5 -37t-10.5 -38q0 -69 114 -69q61 0 95 25.5t34 57.5q0 33 -22 49.5t-75 16.5q-9 0 -43 -2.5t-52 -2.5z" />
    <glyph glyph-name="Hcircumflex" unicode="&#x124;" horiz-adv-x="727" 
d="M644 0h-126q3 126 3 195v95h-314v-90q0 -124 2 -200h-126q3 141 3 229v228q0 130 -2 220h126q-3 -102 -3 -184v-98h314v88q0 89 -3 194h126q-2 -82 -2 -231v-222q0 -134 2 -224zM503 745l-81 -10l-66 83l-70 -83l-76 13l118 132h61z" />
    <glyph glyph-name="hcircumflex" unicode="&#x125;" horiz-adv-x="574" 
d="M512 0h-122v270q0 71 -20.5 101.5t-65.5 30.5q-58 0 -112 -72v-330h-124q4 100 4 223v253q0 129 -4 233l124 6v-302q75 87 167 87q151 0 151 -198v-134q0 -136 2 -168zM280 778l-81 -10l-66 83l-70 -83l-76 13l118 132h61z" />
    <glyph glyph-name="Hbar" unicode="&#x126;" horiz-adv-x="727" 
d="M644 0h-126q3 126 3 195v85h-314v-80q0 -124 2 -200h-126q3 141 3 229v255h-79v88h79q-2 80 -2 105h125q0 -17 -2 -105h314q-2 96 -2 105h125q-2 -54 -2 -105h80v-88h-80v-260q0 -134 2 -224zM521 385v99h-314v-99h314z" />
    <glyph glyph-name="hbar" unicode="&#x127;" horiz-adv-x="574" 
d="M512 0h-122v266q0 131 -89 131q-61 0 -110 -70v-327h-122q3 150 3 223v253v78h-82v79h80q0 17 -0.5 41.5t-0.5 34.5l123 6v-82h177v-79h-177v-143q69 84 158 84q77 0 118.5 -48.5t41.5 -143.5v-135q0 -121 2 -168z" />
    <glyph glyph-name="Itilde" unicode="&#x128;" horiz-adv-x="294" 
d="M209 0h-125q2 96 2 256v178q0 176 -3 243h127q-3 -138 -3 -242v-177q0 -208 2 -258zM262 858l49 -36q-49 -78 -114 -78q-32 0 -65.5 24t-52.5 24q-31 0 -59 -45l-44 46q50 65 110 65q33 0 66 -23.5t47 -23.5q33 0 63 47z" />
    <glyph glyph-name="itilde" unicode="&#x129;" horiz-adv-x="264" 
d="M194 0h-124q2 36 2 193v109q0 122 -3 188l125 3q0 -28 -1 -88t-1 -102v-107q0 -157 2 -196zM245 670l49 -36q-49 -78 -114 -78q-32 0 -65.5 24t-52.5 24q-31 0 -59 -45l-44 46q50 65 110 65q33 0 66 -23.5t47 -23.5q33 0 63 47z" />
    <glyph glyph-name="Imacron" unicode="&#x12a;" horiz-adv-x="294" 
d="M209 0h-125q2 96 2 256v178q0 176 -3 243h127q-3 -138 -3 -242v-177q0 -208 2 -258zM266 751h-242v68h242v-68z" />
    <glyph glyph-name="imacron" unicode="&#x12b;" horiz-adv-x="264" 
d="M194 0h-124q2 36 2 193v109q0 122 -3 188l125 3q0 -28 -1 -88t-1 -102v-107q0 -157 2 -196zM252 563h-242v68h242v-68z" />
    <glyph glyph-name="Ibreve" unicode="&#x12c;" horiz-adv-x="294" 
d="M209 0h-125q2 96 2 256v178q0 176 -3 243h127q-3 -138 -3 -242v-177q0 -208 2 -258zM205 867h71q-2 -60 -37 -93t-97 -33q-124 0 -127 127h69q0 -71 64 -71q57 0 57 70z" />
    <glyph glyph-name="ibreve" unicode="&#x12d;" horiz-adv-x="264" 
d="M194 0h-124q2 36 2 193v109q0 122 -3 188l125 3q0 -28 -1 -88t-1 -102v-107q0 -157 2 -196zM189 679h71q-2 -60 -37 -93t-97 -33q-124 0 -127 127h69q0 -71 64 -71q57 0 57 70z" />
    <glyph glyph-name="Iogonek" unicode="&#x12e;" horiz-adv-x="294" 
d="M203 -156l-4 -56q-18 -2 -26 -2q-95 0 -95 83q0 51 65 131h-59q2 96 2 256v178q0 176 -3 243h127q-3 -138 -3 -242v-177q0 -208 2 -258h-12q-55 -76 -55 -116q0 -42 42 -42q5 0 19 2z" />
    <glyph glyph-name="iogonek" unicode="&#x12f;" horiz-adv-x="264" 
d="M187 -156l-4 -56q-18 -2 -26 -2q-95 0 -95 83q0 51 65 131h-57q2 36 2 193v109q0 122 -3 188l125 3q0 -28 -1 -88t-1 -102v-107q0 -157 2 -196h-13q-55 -76 -55 -116q0 -42 42 -42q5 0 19 2zM201 648q0 -29 -19 -45t-49 -16q-31 0 -50 16t-19 44q0 30 18.5 46.5
t51.5 16.5q30 0 48.5 -16t18.5 -46z" />
    <glyph glyph-name="Idotaccent" unicode="&#x130;" horiz-adv-x="294" 
d="M209 0h-125q2 96 2 256v178q0 176 -3 243h127q-3 -138 -3 -242v-177q0 -208 2 -258zM205 808q0 -24 -16 -38t-38 -14q-24 0 -40.5 14.5t-16.5 35.5q0 24 15.5 39t41.5 15q25 0 39.5 -13.5t14.5 -38.5z" />
    <glyph glyph-name="dotlessi" unicode="&#x131;" horiz-adv-x="264" 
d="M194 0h-124q2 36 2 193v109q0 122 -3 188l125 3q0 -28 -1 -88t-1 -102v-107q0 -157 2 -196z" />
    <glyph glyph-name="Jcircumflex" unicode="&#x134;" horiz-adv-x="294" 
d="M-85 -182l2 103q29 -12 64 -12q55 0 80 43.5t25 134.5v379q0 123 -2 211h124q-1 -45 -1 -212v-381q0 -139 -56.5 -208t-163.5 -69q-41 0 -72 11zM291 745l-81 -10l-66 83l-70 -83l-76 13l118 132h61z" />
    <glyph glyph-name="jcircumflex" unicode="&#x135;" horiz-adv-x="264" 
d="M-85 -221l7 93q27 -17 58 -17q50 0 71 38t21 119v270q0 156 -3 208l124 3q0 -13 -0.5 -92.5t-0.5 -118.5v-254q0 -128 -46 -195.5t-152 -67.5q-45 0 -79 14zM275 557l-81 -10l-66 83l-70 -83l-76 13l118 132h61z" />
    <glyph glyph-name="Kcommaaccent" unicode="&#x136;" horiz-adv-x="619" 
d="M618 0h-161l-220 293q-20 27 -30 46v-47v-292h-124q3 138 3 260v142q0 187 -2 275h123v-280v-47l29 42l211 285h150q-35 -40 -264 -323q127 -168 285 -354zM302 -238l-54 16q31 60 31 105q2 31 -8 63l83 13q5 -23 5 -38q0 -74 -57 -159z" />
    <glyph glyph-name="kcommaaccent" unicode="&#x137;" horiz-adv-x="505" 
d="M512 0h-147l-160 220q-7 10 -13 24v-244h-123q3 51 3 228v243q0 153 -2 242l122 3v-462q1 1 5.5 10t8.5 13l163 212h142l-198 -234q119 -161 199 -255zM259 -238l-54 16q31 60 31 105q2 31 -8 63l83 13q5 -23 5 -38q0 -74 -57 -159z" />
    <glyph glyph-name="kgreenlandic" unicode="&#x138;" horiz-adv-x="505" 
d="M505 0h-143l-158 220q-6 8 -13 25v-245h-122q3 51 3 228v24q0 106 -2 236l121 1v-237q2 3 6 11t7 12l161 214h138l-200 -234q137 -178 202 -255z" />
    <glyph glyph-name="Lacute" unicode="&#x139;" horiz-adv-x="471" 
d="M464 0h-382q4 92 4 256v161q0 101 -3 260h127q-3 -101 -3 -200v-374h103q97 0 159 5zM318 853l-169 -119l-77 21l162 132z" />
    <glyph glyph-name="lacute" unicode="&#x13a;" horiz-adv-x="260" 
d="M194 0h-126q4 172 4 255v174q0 81 -3 282l125 4q-2 -85 -2 -284v-173q0 -164 2 -258zM285 887l-169 -119l-77 21l162 132z" />
    <glyph glyph-name="Lcommaaccent" unicode="&#x13b;" horiz-adv-x="471" 
d="M464 0h-382q4 92 4 256v161q0 101 -3 260h127q-3 -101 -3 -200v-374h103q97 0 159 5zM257 -238l-54 16q31 60 31 105q2 31 -8 63l83 13q5 -23 5 -38q0 -74 -57 -159z" />
    <glyph glyph-name="lcommaaccent" unicode="&#x13c;" horiz-adv-x="260" 
d="M194 0h-126q4 172 4 255v174q0 81 -3 282l125 4q-2 -85 -2 -284v-173q0 -164 2 -258zM121 -238l-54 16q31 60 31 105q2 31 -8 63l83 13q5 -23 5 -38q0 -74 -57 -159z" />
    <glyph glyph-name="Lcaron" unicode="&#x13d;" horiz-adv-x="471" 
d="M464 0h-382q4 92 4 256v161q0 101 -3 260h127q-3 -101 -3 -200v-374h103q97 0 159 5zM371 482l-54 16q31 60 31 105q2 31 -8 63l83 13q5 -22 5 -38q0 -74 -57 -159z" />
    <glyph glyph-name="lcaron" unicode="&#x13e;" horiz-adv-x="260" 
d="M194 0h-126q4 172 4 255v174q0 81 -3 282l125 4q-2 -85 -2 -284v-173q0 -164 2 -258zM279 533l-54 16q31 60 31 105q2 31 -8 63l83 13q5 -22 5 -38q0 -74 -57 -159z" />
    <glyph glyph-name="Ldot" unicode="&#x13f;" horiz-adv-x="471" 
d="M464 0h-382q4 92 4 256v161q0 101 -3 260h127q-3 -101 -3 -200v-374h103q97 0 159 5zM450 370q0 -24 -16 -38t-38 -14q-24 0 -40.5 14.5t-16.5 35.5q0 24 15.5 39t41.5 15q25 0 39.5 -13.5t14.5 -38.5z" />
    <glyph glyph-name="ldot" unicode="&#x140;" horiz-adv-x="328" 
d="M194 0h-126q4 172 4 255v174q0 81 -3 282l125 4q-2 -85 -2 -284v-173q0 -164 2 -258zM348 357q0 -24 -16 -38t-38 -14q-24 0 -40.5 14.5t-16.5 35.5q0 24 15.5 39t41.5 15q25 0 39.5 -13.5t14.5 -38.5z" />
    <glyph glyph-name="Lslash" unicode="&#x141;" horiz-adv-x="471" 
d="M464 0h-383q5 108 5 204v39l-70 -36v95l70 37v87q0 92 -3 251h126q-2 -67 -2 -187v-97l142 72v-96l-142 -73v-193h103q89 0 159 6z" />
    <glyph glyph-name="lslash" unicode="&#x142;" horiz-adv-x="260" 
d="M194 0h-125q3 129 3 228v34l-72 -51v98l72 51v78q0 72 -3 273l125 4q-2 -85 -2 -267v-26l69 51v-97l-69 -51v-86q0 -145 2 -239z" />
    <glyph glyph-name="Nacute" unicode="&#x143;" horiz-adv-x="749" 
d="M670 -5h-98l-357 472q-11 14 -22 53h-3q8 -32 8 -58v-462h-114q2 96 2 252v183q0 198 -2 247h108l338 -454q23 -30 32 -64h2q-8 38 -8 69v444h115q-2 -47 -2 -239v-180q0 -218 1 -263zM564 853l-169 -119l-77 21l162 132z" />
    <glyph glyph-name="nacute" unicode="&#x144;" horiz-adv-x="577" 
d="M512 0h-124q2 53 2 156v112q0 75 -21.5 104.5t-66.5 29.5q-57 0 -110 -70v-332h-122q2 63 2 184v116q0 108 -3 190l123 3v-78q71 85 165 85q82 0 117.5 -49.5t35.5 -148.5v-112q0 -157 2 -190zM443 665l-169 -119l-77 21l162 132z" />
    <glyph glyph-name="Ncommaaccent" unicode="&#x145;" horiz-adv-x="749" 
d="M670 -5h-98l-357 472q-11 14 -22 53h-3q8 -32 8 -58v-462h-114q2 96 2 252v183q0 198 -2 247h108l338 -454q23 -30 32 -64h2q-8 38 -8 69v444h115q-2 -47 -2 -239v-180q0 -218 1 -263zM364 -238l-54 16q31 60 31 105q2 31 -8 63l83 13q5 -23 5 -38q0 -74 -57 -159z" />
    <glyph glyph-name="ncommaaccent" unicode="&#x146;" horiz-adv-x="577" 
d="M512 0h-124q2 53 2 156v112q0 75 -21.5 104.5t-66.5 29.5q-57 0 -110 -70v-332h-122q2 63 2 184v116q0 108 -3 190l123 3v-78q71 85 165 85q82 0 117.5 -49.5t35.5 -148.5v-112q0 -157 2 -190zM279 -238l-54 16q31 60 31 105q2 31 -8 63l83 13q5 -23 5 -38
q0 -74 -57 -159z" />
    <glyph glyph-name="Ncaron" unicode="&#x147;" horiz-adv-x="749" 
d="M670 -5h-98l-357 472q-11 14 -22 53h-3q8 -32 8 -58v-462h-114q2 96 2 252v183q0 198 -2 247h108l338 -454q23 -30 32 -64h2q-8 38 -8 69v444h115q-2 -47 -2 -239v-180q0 -218 1 -263zM417 735h-61l-114 135l81 10l66 -83l70 83l76 -13z" />
    <glyph glyph-name="ncaron" unicode="&#x148;" horiz-adv-x="577" 
d="M512 0h-124q2 53 2 156v112q0 75 -21.5 104.5t-66.5 29.5q-57 0 -110 -70v-332h-122q2 63 2 184v116q0 108 -3 190l123 3v-78q71 85 165 85q82 0 117.5 -49.5t35.5 -148.5v-112q0 -157 2 -190zM326 547h-61l-114 135l81 10l66 -83l70 83l76 -13z" />
    <glyph glyph-name="Eng" unicode="&#x14a;" horiz-adv-x="749" 
d="M377 -227v102q25 -14 65 -14q110 0 113 160l-340 442q-12 18 -20 43h-3q6 -28 6 -48v-458h-114q2 92 2 207v277q0 149 -2 198h108l343 -460q8 -11 23 -41h2q-5 22 -5 56v440h116q-2 -94 -2 -201v-436q0 -139 -56.5 -208.5t-163.5 -69.5q-41 0 -72 11z" />
    <glyph glyph-name="eng" unicode="&#x14b;" horiz-adv-x="577" 
d="M235 -228l5 87q28 -16 59 -16q43 0 67 34.5t24 120.5v283q0 121 -88 121q-59 0 -109 -70v-332h-122q3 147 3 190v125q0 97 -3 172l122 5v-76q69 84 159 84q157 0 157 -197v-283q0 -127 -46 -194.5t-149 -67.5q-40 0 -79 14z" />
    <glyph glyph-name="Omacron" unicode="&#x14c;" horiz-adv-x="728" 
d="M360 -13q-145 0 -233.5 95.5t-88.5 247.5q0 162 92.5 261t244.5 99q143 0 229 -94.5t86 -250.5q0 -161 -90.5 -259.5t-239.5 -98.5zM364 88q87 0 144 65.5t57 180.5q0 118 -55 185.5t-144 67.5t-145.5 -67.5t-56.5 -182.5q0 -111 55.5 -180t144.5 -69zM489 751h-242v68
h242v-68z" />
    <glyph glyph-name="omacron" unicode="&#x14d;" horiz-adv-x="575" 
d="M281 -13q-108 0 -176 68t-68 179q0 123 73 195.5t189 72.5q110 0 175 -68.5t65 -182.5q0 -123 -70.5 -193.5t-187.5 -70.5zM289 76q57 0 94 44t37 122q0 82 -37 125t-93 43t-95.5 -45.5t-39.5 -124.5q0 -77 39 -120.5t95 -43.5zM408 563h-242v68h242v-68z" />
    <glyph glyph-name="Obreve" unicode="&#x14e;" horiz-adv-x="728" 
d="M360 -13q-145 0 -233.5 95.5t-88.5 247.5q0 162 92.5 261t244.5 99q143 0 229 -94.5t86 -250.5q0 -161 -90.5 -259.5t-239.5 -98.5zM364 88q87 0 144 65.5t57 180.5q0 118 -55 185.5t-144 67.5t-145.5 -67.5t-56.5 -182.5q0 -111 55.5 -180t144.5 -69zM422 867h71
q-2 -60 -37 -93t-97 -33q-124 0 -127 127h69q0 -71 64 -71q57 0 57 70z" />
    <glyph glyph-name="obreve" unicode="&#x14f;" horiz-adv-x="575" 
d="M281 -13q-108 0 -176 68t-68 179q0 123 73 195.5t189 72.5q110 0 175 -68.5t65 -182.5q0 -123 -70.5 -193.5t-187.5 -70.5zM289 76q57 0 94 44t37 122q0 82 -37 125t-93 43t-95.5 -45.5t-39.5 -124.5q0 -77 39 -120.5t95 -43.5zM341 679h71q-2 -60 -37 -93t-97 -33
q-124 0 -127 127h69q0 -71 64 -71q57 0 57 70z" />
    <glyph glyph-name="Ohungarumlaut" unicode="&#x150;" horiz-adv-x="728" 
d="M360 -13q-145 0 -233.5 95.5t-88.5 247.5q0 162 92.5 261t244.5 99q143 0 229 -94.5t86 -250.5q0 -161 -90.5 -259.5t-239.5 -98.5zM364 88q87 0 144 65.5t57 180.5q0 118 -55 185.5t-144 67.5t-145.5 -67.5t-56.5 -182.5q0 -111 55.5 -180t144.5 -69zM450 735l-69 2
l81 148l81 -8zM314 735l-68 2l79 149l80 -7z" />
    <glyph glyph-name="ohungarumlaut" unicode="&#x151;" horiz-adv-x="575" 
d="M281 -13q-108 0 -176 68t-68 179q0 123 73 195.5t189 72.5q110 0 175 -68.5t65 -182.5q0 -123 -70.5 -193.5t-187.5 -70.5zM289 76q57 0 94 44t37 122q0 82 -37 125t-93 43t-95.5 -45.5t-39.5 -124.5q0 -77 39 -120.5t95 -43.5zM382 547l-69 2l81 148l81 -8zM246 547
l-68 2l79 149l80 -7z" />
    <glyph glyph-name="OE" unicode="&#x152;" horiz-adv-x="900" 
d="M865 0h-366q-11 0 -57 -4.5t-76 -4.5q-152 0 -240 93t-88 246q0 160 96 257t251 98q24 0 67.5 -4t59.5 -4l337 1l2 -98q-123 3 -153 3h-103v-195h101q71 0 149 3l-2 -95q-49 1 -146 1h-102v-199h109q108 0 166 6zM475 274v124q0 122 -3 171q-36 14 -98 14
q-92 0 -150.5 -66t-58.5 -180q0 -111 56 -178t148 -67q58 0 103 15q3 108 3 167z" />
    <glyph glyph-name="oe" unicode="&#x153;" horiz-adv-x="894" 
d="M827 127l2 -96q-77 -42 -178 -42q-123 0 -181 91q-67 -91 -189 -91q-108 0 -176 67t-68 178q0 123 72.5 194.5t189.5 71.5q122 0 181 -94q27 46 75.5 70t106.5 24q98 0 150.5 -56t52.5 -154q0 -30 -4 -70h-324v-7q0 -60 35.5 -96.5t104.5 -36.5q82 0 150 47zM539 298h210
q0 2 0.5 6t0.5 6q0 47 -25.5 76t-71.5 29q-44 0 -74.5 -29.5t-39.5 -87.5zM289 78q57 0 94 43t37 121q0 82 -37 124t-93 42t-95.5 -44.5t-39.5 -123.5q0 -77 38.5 -119.5t95.5 -42.5z" />
    <glyph glyph-name="Racute" unicode="&#x154;" horiz-adv-x="595" 
d="M587 0h-146l-156 277h-78q0 -161 4 -277h-127q2 122 2 232v205q0 184 -2 240q162 2 229 2q224 0 224 -180q0 -68 -38 -120t-102 -73q88 -151 190 -306zM207 588v-222h84q52 0 87 31.5t35 84.5q0 108 -127 108q-13 0 -42 -1t-37 -1zM454 853l-169 -119l-77 21l162 132z
" />
    <glyph glyph-name="racute" unicode="&#x155;" horiz-adv-x="379" 
d="M196 0h-127q3 96 3 182v117q0 110 -3 191l123 3v-88q50 94 140 94q32 0 50 -9l-15 -113q-25 17 -58 17q-34 0 -65.5 -26t-51.5 -75v-131q0 -64 4 -162zM338 665l-169 -119l-77 21l162 132z" />
    <glyph glyph-name="Rcommaaccent" unicode="&#x156;" horiz-adv-x="595" 
d="M587 0h-146l-156 277h-78q0 -161 4 -277h-127q2 122 2 232v205q0 184 -2 240q162 2 229 2q224 0 224 -180q0 -68 -38 -120t-102 -73q88 -151 190 -306zM207 588v-222h84q52 0 87 31.5t35 84.5q0 108 -127 108q-13 0 -42 -1t-37 -1zM307 -238l-54 16q31 60 31 105
q2 31 -8 63l83 13q5 -23 5 -38q0 -74 -57 -159z" />
    <glyph glyph-name="rcommaaccent" unicode="&#x157;" horiz-adv-x="379" 
d="M196 0h-127q3 96 3 182v117q0 110 -3 191l123 3v-88q50 94 140 94q32 0 50 -9l-15 -113q-25 17 -58 17q-34 0 -65.5 -26t-51.5 -75v-131q0 -64 4 -162zM127 -238l-54 16q31 60 31 105q2 31 -8 63l83 13q5 -23 5 -38q0 -74 -57 -159z" />
    <glyph glyph-name="Rcaron" unicode="&#x158;" horiz-adv-x="595" 
d="M587 0h-146l-156 277h-78q0 -161 4 -277h-127q2 122 2 232v205q0 184 -2 240q162 2 229 2q224 0 224 -180q0 -68 -38 -120t-102 -73q88 -151 190 -306zM207 588v-222h84q52 0 87 31.5t35 84.5q0 108 -127 108q-13 0 -42 -1t-37 -1zM326 735h-61l-114 135l81 10l66 -83
l70 83l76 -13z" />
    <glyph glyph-name="rcaron" unicode="&#x159;" horiz-adv-x="379" 
d="M196 0h-127q3 96 3 182v117q0 110 -3 191l123 3v-88q50 94 140 94q32 0 50 -9l-15 -113q-25 17 -58 17q-34 0 -65.5 -26t-51.5 -75v-131q0 -64 4 -162zM251 547h-61l-114 135l81 10l66 -83l70 83l76 -13z" />
    <glyph glyph-name="Sacute" unicode="&#x15a;" horiz-adv-x="495" 
d="M42 33l12 114q77 -66 162 -66q52 0 80 27.5t28 68.5q0 39 -27 63.5t-101 56.5q-84 36 -115.5 81.5t-31.5 108.5q0 89 63 146.5t165 57.5q93 0 160 -32l-21 -111q-56 46 -135 46q-44 0 -75 -25.5t-31 -67.5q0 -44 23 -68t95 -53q85 -34 124.5 -78t39.5 -110
q0 -90 -63.5 -148t-178.5 -58q-97 0 -173 47zM414 853l-169 -119l-77 21l162 132z" />
    <glyph glyph-name="sacute" unicode="&#x15b;" horiz-adv-x="391" 
d="M32 16l13 104q61 -46 123 -46q78 0 78 57q0 16 -4 26t-17 18.5t-25.5 13.5t-41.5 15q-68 23 -94 59t-26 87q0 68 50.5 110t138.5 42q69 0 120 -22l-19 -95q-45 31 -102 31q-34 0 -53 -15t-19 -42q0 -29 18.5 -43.5t66.5 -30.5q124 -40 124 -142q0 -69 -51 -112.5
t-148 -43.5q-74 0 -132 29zM355 665l-169 -119l-77 21l162 132z" />
    <glyph glyph-name="Scircumflex" unicode="&#x15c;" horiz-adv-x="495" 
d="M42 33l12 114q77 -66 162 -66q52 0 80 27.5t28 68.5q0 39 -27 63.5t-101 56.5q-84 36 -115.5 81.5t-31.5 108.5q0 89 63 146.5t165 57.5q93 0 160 -32l-21 -111q-56 46 -135 46q-44 0 -75 -25.5t-31 -67.5q0 -44 23 -68t95 -53q85 -34 124.5 -78t39.5 -110
q0 -90 -63.5 -148t-178.5 -58q-97 0 -173 47zM401 745l-81 -10l-66 83l-70 -83l-76 13l118 132h61z" />
    <glyph glyph-name="scircumflex" unicode="&#x15d;" horiz-adv-x="391" 
d="M32 16l13 104q61 -46 123 -46q78 0 78 57q0 16 -4 26t-17 18.5t-25.5 13.5t-41.5 15q-68 23 -94 59t-26 87q0 68 50.5 110t138.5 42q69 0 120 -22l-19 -95q-45 31 -102 31q-34 0 -53 -15t-19 -42q0 -29 18.5 -43.5t66.5 -30.5q124 -40 124 -142q0 -69 -51 -112.5
t-148 -43.5q-74 0 -132 29zM339 557l-81 -10l-66 83l-70 -83l-76 13l118 132h61z" />
    <glyph glyph-name="Scedilla" unicode="&#x15e;" horiz-adv-x="495" 
d="M171 -198l4 51q15 -3 27 -3q55 0 55 36q0 21 -17.5 29t-50.5 9l8 63q-92 5 -155 46l12 114q77 -66 162 -66q52 0 80 27.5t28 68.5q0 39 -27 63.5t-101 56.5q-84 36 -115.5 81.5t-31.5 108.5q0 89 63 146.5t165 57.5q93 0 160 -32l-21 -111q-56 46 -135 46
q-44 0 -75 -25.5t-31 -67.5q0 -44 23 -68t95 -53q85 -34 124.5 -78t39.5 -110q0 -83 -54.5 -139t-153.5 -65l-3 -30q75 -5 75 -68q0 -41 -33 -65t-91 -24q-17 0 -26 1z" />
    <glyph glyph-name="scedilla" unicode="&#x15f;" horiz-adv-x="391" 
d="M121 -198l3 51q15 -3 28 -3q54 0 54 36q0 22 -17 29.5t-51 8.5l9 64q-67 4 -115 28l13 104q61 -46 123 -46q78 0 78 57q0 16 -4 26t-17 18.5t-25.5 13.5t-41.5 15q-68 23 -94 59t-26 87q0 68 50.5 110t138.5 42q69 0 120 -22l-19 -95q-45 31 -102 31q-34 0 -53 -15
t-19 -42q0 -29 18.5 -43.5t66.5 -30.5q124 -40 124 -142q0 -62 -42 -104t-123 -50l-3 -31q75 -5 75 -68q0 -41 -33 -65t-90 -24q-17 0 -26 1z" />
    <glyph glyph-name="Scaron" unicode="&#x160;" horiz-adv-x="495" 
d="M42 33l12 114q77 -66 162 -66q52 0 80 27.5t28 68.5q0 39 -27 63.5t-101 56.5q-84 36 -115.5 81.5t-31.5 108.5q0 89 63 146.5t165 57.5q93 0 160 -32l-21 -111q-56 46 -135 46q-44 0 -75 -25.5t-31 -67.5q0 -44 23 -68t95 -53q85 -34 124.5 -78t39.5 -110
q0 -90 -63.5 -148t-178.5 -58q-97 0 -173 47zM306 735h-61l-114 135l81 10l66 -83l70 83l76 -13z" />
    <glyph glyph-name="scaron" unicode="&#x161;" horiz-adv-x="391" 
d="M32 16l13 104q61 -46 123 -46q78 0 78 57q0 16 -4 26t-17 18.5t-25.5 13.5t-41.5 15q-68 23 -94 59t-26 87q0 68 50.5 110t138.5 42q69 0 120 -22l-19 -95q-45 31 -102 31q-34 0 -53 -15t-19 -42q0 -29 18.5 -43.5t66.5 -30.5q124 -40 124 -142q0 -69 -51 -112.5
t-148 -43.5q-74 0 -132 29zM233 547h-61l-114 135l81 10l66 -83l70 83l76 -13z" />
    <glyph glyph-name="Tcedilla" unicode="&#x162;" horiz-adv-x="534" 
d="M327 0h-126q3 165 3 259v314h-71q-91 0 -123 -1l2 105h512v-105q-32 1 -125 1h-74v-316q0 -199 2 -257zM252 -238l-54 16q31 60 31 105q2 31 -8 63l83 13q5 -23 5 -38q0 -74 -57 -159z" />
    <glyph glyph-name="tcedilla" unicode="&#x163;" horiz-adv-x="321" 
d="M308 92l-2 -86q-45 -18 -96 -18q-70 0 -104.5 40t-34.5 109q0 24 1 122.5t0 148.5h-67l10 81h57v105l119 29v-134h127l-10 -81h-117v-258q0 -39 15.5 -56t48.5 -17q32 0 53 15zM169 -238l-54 16q31 60 31 105q2 31 -8 63l83 13q5 -23 5 -38q0 -74 -57 -159z" />
    <glyph glyph-name="Tcaron" unicode="&#x164;" horiz-adv-x="534" 
d="M327 0h-126q3 165 3 259v314h-71q-91 0 -123 -1l2 105h512v-105q-32 1 -125 1h-74v-316q0 -199 2 -257zM294 735h-61l-114 135l81 10l66 -83l70 83l76 -13z" />
    <glyph glyph-name="tcaron" unicode="&#x165;" horiz-adv-x="321" 
d="M308 92l-2 -86q-45 -18 -96 -18q-70 0 -104.5 40t-34.5 109q0 24 1 122.5t0 148.5h-67l10 81h57v105l119 29v-134h127l-10 -81h-117v-258q0 -39 15.5 -56t48.5 -17q32 0 53 15zM280 547l-54 16q31 60 31 105q2 31 -8 63l83 13q5 -23 5 -38q0 -74 -57 -159z" />
    <glyph glyph-name="Tbar" unicode="&#x166;" horiz-adv-x="534" 
d="M327 0h-126q3 153 3 237h-144v88h144v248h-71q-91 0 -123 -1l2 105h512v-105q-32 1 -125 1h-74v-248h145v-88h-145q0 -183 2 -237z" />
    <glyph glyph-name="tbar" unicode="&#x167;" horiz-adv-x="321" 
d="M308 90l-2 -84q-45 -18 -105 -18q-130 0 -130 153v78h-66v77h67v112h-67l10 81h57v105l119 29v-134h127l-10 -81h-117v-112h114l1 -77h-115v-61q0 -83 67 -83q27 0 50 15z" />
    <glyph glyph-name="Utilde" unicode="&#x168;" horiz-adv-x="685" 
d="M489 271v265q0 48 -3 141h126q-2 -74 -2 -137v-255q0 -148 -69.5 -223t-204.5 -75q-260 0 -260 289v252q0 32 -3 149h128q-4 -136 -4 -145v-258q0 -180 148 -180q144 0 144 177zM455 858l49 -36q-49 -78 -114 -78q-32 0 -65.5 24t-52.5 24q-31 0 -59 -45l-44 46
q50 65 110 65q33 0 66 -23.5t47 -23.5q33 0 63 47z" />
    <glyph glyph-name="utilde" unicode="&#x169;" horiz-adv-x="564" 
d="M507 0h-124v68q-65 -79 -157 -79q-82 0 -121.5 54t-39.5 141v138q0 123 -2 168l125 2q-3 -144 -3 -153v-140q0 -115 92 -115q60 0 106 71v165q0 7 -3 169l126 2q-3 -129 -3 -181v-116q0 -48 2 -111.5t2 -82.5zM399 670l49 -36q-49 -78 -114 -78q-32 0 -65.5 24t-52.5 24
q-31 0 -59 -45l-44 46q50 65 110 65q33 0 66 -23.5t47 -23.5q33 0 63 47z" />
    <glyph glyph-name="Umacron" unicode="&#x16a;" horiz-adv-x="685" 
d="M489 271v265q0 48 -3 141h126q-2 -74 -2 -137v-255q0 -148 -69.5 -223t-204.5 -75q-260 0 -260 289v252q0 32 -3 149h128q-4 -136 -4 -145v-258q0 -180 148 -180q144 0 144 177zM460 751h-242v68h242v-68z" />
    <glyph glyph-name="umacron" unicode="&#x16b;" horiz-adv-x="564" 
d="M507 0h-124v68q-65 -79 -157 -79q-82 0 -121.5 54t-39.5 141v138q0 123 -2 168l125 2q-3 -144 -3 -153v-140q0 -115 92 -115q60 0 106 71v165q0 7 -3 169l126 2q-3 -129 -3 -181v-116q0 -48 2 -111.5t2 -82.5zM400 563h-242v68h242v-68z" />
    <glyph glyph-name="Ubreve" unicode="&#x16c;" horiz-adv-x="685" 
d="M489 271v265q0 48 -3 141h126q-2 -74 -2 -137v-255q0 -148 -69.5 -223t-204.5 -75q-260 0 -260 289v252q0 32 -3 149h128q-4 -136 -4 -145v-258q0 -180 148 -180q144 0 144 177zM402 867h71q-2 -60 -37 -93t-97 -33q-124 0 -127 127h69q0 -71 64 -71q57 0 57 70z" />
    <glyph glyph-name="ubreve" unicode="&#x16d;" horiz-adv-x="564" 
d="M507 0h-124v68q-65 -79 -157 -79q-82 0 -121.5 54t-39.5 141v138q0 123 -2 168l125 2q-3 -144 -3 -153v-140q0 -115 92 -115q60 0 106 71v165q0 7 -3 169l126 2q-3 -129 -3 -181v-116q0 -48 2 -111.5t2 -82.5zM338 679h71q-2 -60 -37 -93t-97 -33q-124 0 -127 127h69
q0 -71 64 -71q57 0 57 70z" />
    <glyph glyph-name="Uring" unicode="&#x16e;" horiz-adv-x="685" 
d="M489 271v265q0 48 -3 141h126q-2 -74 -2 -137v-255q0 -148 -69.5 -223t-204.5 -75q-260 0 -260 289v252q0 32 -3 149h128q-4 -136 -4 -145v-258q0 -180 148 -180q144 0 144 177zM440 826q0 -40 -30 -65.5t-72 -25.5q-44 0 -72.5 24t-28.5 63q0 43 29.5 67t74.5 24
q44 0 71.5 -23.5t27.5 -63.5zM383 824q0 19 -12.5 31.5t-31.5 12.5t-31.5 -12t-12.5 -31t12.5 -31.5t31.5 -12.5t31.5 12t12.5 31z" />
    <glyph glyph-name="uring" unicode="&#x16f;" horiz-adv-x="564" 
d="M507 0h-124v68q-65 -79 -157 -79q-82 0 -121.5 54t-39.5 141v138q0 123 -2 168l125 2q-3 -144 -3 -153v-140q0 -115 92 -115q60 0 106 71v165q0 7 -3 169l126 2q-3 -129 -3 -181v-116q0 -48 2 -111.5t2 -82.5zM386 638q0 -40 -30 -65.5t-72 -25.5q-44 0 -72.5 24
t-28.5 63q0 43 29.5 67t74.5 24q44 0 71.5 -23.5t27.5 -63.5zM329 636q0 19 -12.5 31.5t-31.5 12.5t-31.5 -12t-12.5 -31t12.5 -31.5t31.5 -12.5t31.5 12t12.5 31z" />
    <glyph glyph-name="Uhungarumlaut" unicode="&#x170;" horiz-adv-x="685" 
d="M489 271v265q0 48 -3 141h126q-2 -74 -2 -137v-255q0 -148 -69.5 -223t-204.5 -75q-260 0 -260 289v252q0 32 -3 149h128q-4 -136 -4 -145v-258q0 -180 148 -180q144 0 144 177zM416 735l-69 2l81 148l81 -8zM280 735l-68 2l79 149l80 -7z" />
    <glyph glyph-name="uhungarumlaut" unicode="&#x171;" horiz-adv-x="564" 
d="M507 0h-124v68q-65 -79 -157 -79q-82 0 -121.5 54t-39.5 141v138q0 123 -2 168l125 2q-3 -144 -3 -153v-140q0 -115 92 -115q60 0 106 71v165q0 7 -3 169l126 2q-3 -129 -3 -181v-116q0 -48 2 -111.5t2 -82.5zM379 547l-69 2l81 148l81 -8zM243 547l-68 2l79 149l80 -7z
" />
    <glyph glyph-name="Uogonek" unicode="&#x172;" horiz-adv-x="685" 
d="M444 -153l-4 -56q-22 -2 -31 -2q-91 0 -91 83q0 48 54 117q-24 -2 -36 -2q-261 0 -261 289v252q0 71 -2 149h127q-3 -102 -3 -146v-257q0 -180 148 -180q144 0 144 175v267q0 48 -3 141h126q-2 -74 -2 -138v-254q0 -235 -174 -284q-53 -75 -53 -114q0 -43 40 -43
q11 0 21 3z" />
    <glyph glyph-name="uogonek" unicode="&#x173;" horiz-adv-x="564" 
d="M474 -153l-4 -56q-22 -2 -31 -2q-91 0 -91 83q0 51 64 128h-29v70q-69 -81 -157 -81q-161 0 -161 202v131q0 123 -2 168l125 2q-3 -144 -3 -153v-132q0 -66 21.5 -94.5t67.5 -28.5q60 0 109 74v163q0 6 -3 168l126 2q-3 -132 -3 -181v-116q0 -49 2 -112t2 -82h-41
q-53 -74 -53 -113q0 -43 40 -43q11 0 21 3z" />
    <glyph glyph-name="Wcircumflex" unicode="&#x174;" horiz-adv-x="935" 
d="M735 -7h-127l-128 474q-7 28 -9 72h-2q-5 -49 -11 -71l-141 -475h-116q-6 23 -103 365l-92 319h135l120 -479q7 -29 9 -70h3q2 36 12 71l142 478h105l131 -483q8 -28 10 -65h2q2 45 9 69l122 479h119l-93 -327zM623 745l-81 -10l-66 83l-70 -83l-76 13l118 132h61z" />
    <glyph glyph-name="wcircumflex" unicode="&#x175;" horiz-adv-x="740" 
d="M612 -4h-132l-84 318q-3 13 -7 55h-3q-3 -34 -9 -54l-101 -319h-130l-75 271q-56 201 -63 222h125l83 -342q4 -17 6 -51h2q6 44 9 53l108 340h114l86 -342q2 -9 6 -52h3q3 34 7 52l87 342h111q-6 -17 -69 -235q-57 -193 -74 -258zM540 557l-81 -10l-66 83l-70 -83l-76 13
l118 132h61z" />
    <glyph glyph-name="Ycircumflex" unicode="&#x176;" horiz-adv-x="566" 
d="M344 0h-128q3 96 3 163v78l-114 232l-104 204h137l133 -297q4 -9 13 -40h2q5 21 14 40l139 297h126l-111 -214l-113 -219v-79q0 -91 3 -165zM429 745l-81 -10l-66 83l-70 -83l-76 13l118 132h61z" />
    <glyph glyph-name="ycircumflex" unicode="&#x177;" horiz-adv-x="510" 
d="M220 -226h-125q55 111 103 224l-25 65l-38.5 98l-41.5 107q-81 206 -88 221h134l110 -329q6 -18 8 -38h3q2 20 9 38l116 329h121l-152 -377zM404 557l-81 -10l-66 83l-70 -83l-76 13l118 132h61z" />
    <glyph glyph-name="Ydieresis" unicode="&#x178;" horiz-adv-x="566" 
d="M344 0h-128q3 96 3 163v78l-114 232l-104 204h137l133 -297q4 -9 13 -40h2q5 21 14 40l139 297h126l-111 -214l-113 -219v-79q0 -91 3 -165zM438 798q0 -23 -16 -36.5t-38 -13.5q-25 0 -40 15t-15 35q0 23 14.5 37.5t40.5 14.5q25 0 39.5 -14t14.5 -38zM250 799
q0 -23 -15.5 -35.5t-37.5 -12.5q-25 0 -40.5 13.5t-15.5 33.5q0 23 15 37.5t41 14.5q53 0 53 -51z" />
    <glyph glyph-name="Zacute" unicode="&#x179;" horiz-adv-x="562" 
d="M537 0h-528l-6 16l370 559h-146q-63 0 -189 -3l6 105h507l6 -15l-369 -560h157q99 0 199 5zM463 853l-169 -119l-77 21l162 132z" />
    <glyph glyph-name="zacute" unicode="&#x17a;" horiz-adv-x="449" 
d="M425 0h-419l-3 10l268 391h-113q-87 0 -121 -1l6 89h389l4 -12l-258 -387h122q69 0 133 4zM399 665l-169 -119l-77 21l162 132z" />
    <glyph glyph-name="Zdotaccent" unicode="&#x17b;" horiz-adv-x="562" 
d="M537 0h-528l-6 16l370 559h-146q-63 0 -189 -3l6 105h507l6 -15l-369 -560h157q99 0 199 5zM350 808q0 -24 -16 -38t-38 -14q-24 0 -40.5 14.5t-16.5 35.5q0 24 15.5 39t41.5 15q25 0 39.5 -13.5t14.5 -38.5z" />
    <glyph glyph-name="zdotaccent" unicode="&#x17c;" horiz-adv-x="449" 
d="M425 0h-419l-3 10l268 391h-113q-87 0 -121 -1l6 89h389l4 -12l-258 -387h122q69 0 133 4zM290 620q0 -24 -16 -38t-38 -14q-24 0 -40.5 14.5t-16.5 35.5q0 24 15.5 39t41.5 15q25 0 39.5 -13.5t14.5 -38.5z" />
    <glyph glyph-name="Zcaron" unicode="&#x17d;" horiz-adv-x="562" 
d="M537 0h-528l-6 16l370 559h-146q-63 0 -189 -3l6 105h507l6 -15l-369 -560h157q99 0 199 5zM328 735h-61l-114 135l81 10l66 -83l70 83l76 -13z" />
    <glyph glyph-name="zcaron" unicode="&#x17e;" horiz-adv-x="449" 
d="M425 0h-419l-3 10l268 391h-113q-87 0 -121 -1l6 89h389l4 -12l-258 -387h122q69 0 133 4zM269 547h-61l-114 135l81 10l66 -83l70 83l76 -13z" />
    <glyph glyph-name="florin" unicode="&#x192;" 
d="M72 -3l4 83q13 -7 33 -7q31 0 48 24.5t25 97.5l20 176h-52l9 79h51q10 92 21 121q40 110 164 110q41 0 77 -10l-16 -88q-20 14 -53 14q-47 0 -60 -52q-10 -38 -15 -95h104l-15 -79h-98l-15 -159q-11 -114 -51 -169t-127 -55q-31 0 -54 9z" />
    <glyph glyph-name="AEacute" unicode="&#x1fc;" horiz-adv-x="879" 
d="M845 0h-395q4 80 4 194l-193 1q-28 -44 -69 -119t-42 -76h-151l190 305l219 372h421l2 -99q-144 4 -154 4h-102v-195h104q90 0 145 2l-2 -94q-78 3 -143 3h-104v-201h119q102 0 155 4zM454 276v218q0 46 1 70q-8 -21 -19 -41l-140 -247h158zM769 853l-169 -119l-77 21
l162 132z" />
    <glyph glyph-name="aeacute" unicode="&#x1fd;" horiz-adv-x="776" 
d="M710 122l2 -92q-80 -41 -176 -41q-131 0 -191 95q-46 -51 -87 -73t-98 -22q-60 0 -96 36.5t-36 98.5q0 109 112 148q52 19 169 31v32q0 40 -20 58t-63 18q-36 0 -77.5 -15.5t-69.5 -41.5l-14 96q92 50 181 50q98 0 137 -69q60 69 162 69q98 0 150 -55.5t52 -153.5
q0 -26 -4 -66h-322v-9q0 -69 38 -103.5t106 -34.5q79 0 145 44zM422 296h213q0 2 0.5 7t0.5 8q0 51 -25.5 79.5t-73.5 28.5q-44 0 -76.5 -32t-38.5 -91zM316 149q-7 35 -7 86q-61 -5 -105 -20q-62 -21 -62 -75q0 -64 66 -64q51 0 108 73zM557 665l-169 -119l-77 21l162 132z
" />
    <glyph glyph-name="Oslashacute" unicode="&#x1fe;" horiz-adv-x="728" 
d="M99 -27l-45 38l67 79q-83 92 -83 240q0 161 92.5 258t244.5 97q118 0 199 -64l61 72l44 -37l-64 -76q75 -91 75 -235q0 -161 -90 -257.5t-240 -96.5q-113 0 -195 60zM202 184l295 347q-51 51 -131 51q-89 0 -145.5 -65.5t-56.5 -179.5q0 -90 38 -153zM532 483l-293 -345
q51 -46 125 -46q87 0 144 64t57 178q0 88 -33 149zM534 853l-169 -119l-77 21l162 132z" />
    <glyph glyph-name="oslashacute" unicode="&#x1ff;" horiz-adv-x="575" 
d="M82 -38l-40 36l57 65q-62 67 -62 172q0 123 72.5 194.5t189.5 71.5q86 0 146 -43l57 65l39 -35l-57 -66q55 -68 55 -170q0 -122 -70.5 -192.5t-187.5 -70.5q-80 0 -141 39zM175 149l199 228q-33 32 -84 32q-56 0 -95.5 -44.5t-39.5 -123.5q0 -52 20 -92zM404 331
l-196 -224q35 -29 81 -29q57 0 94 43.5t37 121.5q0 50 -16 88zM456 665l-169 -119l-77 21l162 132z" />
    <glyph glyph-name="Scommaaccent" unicode="&#x218;" horiz-adv-x="495" 
d="M42 33l12 114q77 -66 162 -66q52 0 80 27.5t28 68.5q0 39 -27 63.5t-101 56.5q-84 36 -115.5 81.5t-31.5 108.5q0 89 63 146.5t165 57.5q93 0 160 -32l-21 -111q-56 46 -135 46q-44 0 -75 -25.5t-31 -67.5q0 -44 23 -68t95 -53q85 -34 124.5 -78t39.5 -110
q0 -90 -63.5 -148t-178.5 -58q-97 0 -173 47zM226 -238l-54 16q31 60 31 105q2 31 -8 63l83 13q5 -23 5 -38q0 -74 -57 -159z" />
    <glyph glyph-name="scommaaccent" unicode="&#x219;" horiz-adv-x="391" 
d="M32 16l13 104q61 -46 123 -46q78 0 78 57q0 16 -4 26t-17 18.5t-25.5 13.5t-41.5 15q-68 23 -94 59t-26 87q0 68 50.5 110t138.5 42q69 0 120 -22l-19 -95q-45 31 -102 31q-34 0 -53 -15t-19 -42q0 -29 18.5 -43.5t66.5 -30.5q124 -40 124 -142q0 -69 -51 -112.5
t-148 -43.5q-74 0 -132 29zM179 -238l-54 16q31 60 31 105q2 31 -8 63l83 13q5 -23 5 -38q0 -74 -57 -159z" />
    <glyph glyph-name="Tcommaaccent" unicode="&#x21a;" horiz-adv-x="534" 
d="M327 0h-126q3 165 3 259v314h-71q-91 0 -123 -1l2 105h512v-105q-32 1 -125 1h-74v-316q0 -199 2 -257zM252 -238l-54 16q31 60 31 105q2 31 -8 63l83 13q5 -23 5 -38q0 -74 -57 -159z" />
    <glyph glyph-name="tcommaaccent" unicode="&#x21b;" horiz-adv-x="321" 
d="M308 92l-2 -86q-45 -18 -96 -18q-70 0 -104.5 40t-34.5 109q0 24 1 122.5t0 148.5h-67l10 81h57v105l119 29v-134h127l-10 -81h-117v-258q0 -39 15.5 -56t48.5 -17q32 0 53 15zM169 -238l-54 16q31 60 31 105q2 31 -8 63l83 13q5 -23 5 -38q0 -74 -57 -159z" />
    <glyph glyph-name="circumflex" unicode="&#x2c6;" horiz-adv-x="292" 
d="M287 557l-81 -10l-66 83l-70 -83l-76 13l118 132h61z" />
    <glyph glyph-name="caron" unicode="&#x2c7;" horiz-adv-x="290" 
d="M172 547h-61l-114 135l81 10l66 -83l70 83l76 -13z" />
    <glyph glyph-name="uni02C9" unicode="&#x2c9;" horiz-adv-x="266" 
d="M253 563h-242v68h242v-68z" />
    <glyph glyph-name="breve" unicode="&#x2d8;" horiz-adv-x="284" 
d="M198 679h71q-2 -60 -37 -93t-97 -33q-124 0 -127 127h69q0 -71 64 -71q57 0 57 70z" />
    <glyph glyph-name="dotaccent" unicode="&#x2d9;" horiz-adv-x="216" 
d="M158 620q0 -24 -16 -38t-38 -14q-24 0 -40.5 14.5t-16.5 35.5q0 24 15.5 39t41.5 15q25 0 39.5 -13.5t14.5 -38.5z" />
    <glyph glyph-name="ring" unicode="&#x2da;" horiz-adv-x="273" 
d="M238 638q0 -40 -30 -65.5t-72 -25.5q-44 0 -72.5 24t-28.5 63q0 43 29.5 67t74.5 24q44 0 71.5 -23.5t27.5 -63.5zM181 636q0 19 -12.5 31.5t-31.5 12.5t-31.5 -12t-12.5 -31t12.5 -31.5t31.5 -12.5t31.5 12t12.5 31z" />
    <glyph glyph-name="ogonek" unicode="&#x2db;" horiz-adv-x="163" 
d="M142 -156l-4 -56q-18 -2 -26 -2q-95 0 -95 83q0 53 73 140h53q-62 -84 -62 -125q0 -42 42 -42q5 0 19 2z" />
    <glyph glyph-name="tilde" unicode="&#x2dc;" horiz-adv-x="355" 
d="M288 670l49 -36q-49 -78 -114 -78q-32 0 -65.5 24t-52.5 24q-31 0 -59 -45l-44 46q50 65 110 65q33 0 66 -23.5t47 -23.5q33 0 63 47z" />
    <glyph glyph-name="hungarumlaut" unicode="&#x2dd;" horiz-adv-x="293" 
d="M210 547l-69 2l81 148l81 -8zM74 547l-68 2l79 149l80 -7z" />
    <glyph glyph-name="uni03A9" unicode="&#x3a9;" horiz-adv-x="699" 
d="M649 0h-241v95q116 118 116 278q0 107 -45 172t-127 65t-130.5 -66.5t-48.5 -173.5q0 -164 118 -275v-95h-241v95h143q-145 121 -145 300q0 137 85.5 227t220.5 90q140 0 218 -87t78 -227q0 -185 -146 -303h145v-95z" />
    <glyph glyph-name="uni03BC" unicode="&#x3bc;" horiz-adv-x="564" 
d="M496 1l-118 -2l1 57q-49 -61 -108 -61q-35 0 -59.5 17.5t-34.5 44.5l3 -198h-117q2 56 2 229v230q0 126 -2 171l121 4q-2 -96 -2 -158v-124q0 -59 26 -89t66 -30q58 0 101 71v168q0 19 -0.5 45t-1.5 59.5t-1 52.5l123 4q-3 -129 -3 -172v-140q0 -42 2 -105t2 -74z" />
    <glyph glyph-name="pi" unicode="&#x3c0;" horiz-adv-x="634" 
d="M582 86l21 -75q-35 -20 -86 -20q-71 0 -103.5 42t-32.5 109v272h-109v-266q0 -94 -17 -148h-119q18 60 18 157v257q-50 0 -92 -23q-17 39 -31 75q58 34 154 34h412v-86h-99v-257q0 -80 52 -80q16 0 32 9z" />
    <glyph glyph-name="Wgrave" unicode="&#x1e80;" horiz-adv-x="935" 
d="M735 -7h-127l-128 474q-7 28 -9 72h-2q-5 -49 -11 -71l-141 -475h-116q-6 23 -103 365l-92 319h135l120 -479q7 -29 9 -70h3q2 36 12 71l142 478h105l131 -483q8 -28 10 -65h2q2 45 9 69l122 479h119l-93 -327zM554 755l-77 -20l-168 120l86 33z" />
    <glyph glyph-name="wgrave" unicode="&#x1e81;" horiz-adv-x="740" 
d="M612 -4h-132l-84 318q-3 13 -7 55h-3q-3 -34 -9 -54l-101 -319h-130l-75 271q-56 201 -63 222h125l83 -342q4 -17 6 -51h2q6 44 9 53l108 340h114l86 -342q2 -9 6 -52h3q3 34 7 52l87 342h111q-6 -17 -69 -235q-57 -193 -74 -258zM486 567l-77 -20l-168 120l86 33z" />
    <glyph glyph-name="Wacute" unicode="&#x1e82;" horiz-adv-x="935" 
d="M735 -7h-127l-128 474q-7 28 -9 72h-2q-5 -49 -11 -71l-141 -475h-116q-6 23 -103 365l-92 319h135l120 -479q7 -29 9 -70h3q2 36 12 71l142 478h105l131 -483q8 -28 10 -65h2q2 45 9 69l122 479h119l-93 -327zM642 853l-169 -119l-77 21l162 132z" />
    <glyph glyph-name="wacute" unicode="&#x1e83;" horiz-adv-x="740" 
d="M612 -4h-132l-84 318q-3 13 -7 55h-3q-3 -34 -9 -54l-101 -319h-130l-75 271q-56 201 -63 222h125l83 -342q4 -17 6 -51h2q6 44 9 53l108 340h114l86 -342q2 -9 6 -52h3q3 34 7 52l87 342h111q-6 -17 -69 -235q-57 -193 -74 -258zM545 665l-169 -119l-77 21l162 132z" />
    <glyph glyph-name="Wdieresis" unicode="&#x1e84;" horiz-adv-x="935" 
d="M735 -7h-127l-128 474q-7 28 -9 72h-2q-5 -49 -11 -71l-141 -475h-116q-6 23 -103 365l-92 319h135l120 -479q7 -29 9 -70h3q2 36 12 71l142 478h105l131 -483q8 -28 10 -65h2q2 45 9 69l122 479h119l-93 -327zM628 798q0 -23 -16 -36.5t-38 -13.5q-25 0 -40 15t-15 35
q0 23 14.5 37.5t40.5 14.5q25 0 39.5 -14t14.5 -38zM440 799q0 -23 -15.5 -35.5t-37.5 -12.5q-25 0 -40.5 13.5t-15.5 33.5q0 23 15 37.5t41 14.5q53 0 53 -51z" />
    <glyph glyph-name="wdieresis" unicode="&#x1e85;" horiz-adv-x="740" 
d="M612 -4h-132l-84 318q-3 13 -7 55h-3q-3 -34 -9 -54l-101 -319h-130l-75 271q-56 201 -63 222h125l83 -342q4 -17 6 -51h2q6 44 9 53l108 340h114l86 -342q2 -9 6 -52h3q3 34 7 52l87 342h111q-6 -17 -69 -235q-57 -193 -74 -258zM545 610q0 -23 -16 -36.5t-38 -13.5
q-25 0 -40 15t-15 35q0 23 14.5 37.5t40.5 14.5q25 0 39.5 -14t14.5 -38zM357 611q0 -23 -15.5 -35.5t-37.5 -12.5q-25 0 -40.5 13.5t-15.5 33.5q0 23 15 37.5t41 14.5q53 0 53 -51z" />
    <glyph glyph-name="Ygrave" unicode="&#x1ef2;" horiz-adv-x="566" 
d="M344 0h-128q3 96 3 163v78l-114 232l-104 204h137l133 -297q4 -9 13 -40h2q5 21 14 40l139 297h126l-111 -214l-113 -219v-79q0 -91 3 -165zM362 755l-77 -20l-168 120l86 33z" />
    <glyph glyph-name="ygrave" unicode="&#x1ef3;" horiz-adv-x="510" 
d="M220 -226h-125q55 111 103 224l-25 65l-38.5 98l-41.5 107q-81 206 -88 221h134l110 -329q6 -18 8 -38h3q2 20 9 38l116 329h121l-152 -377zM342 567l-77 -20l-168 120l86 33z" />
    <glyph glyph-name="endash" unicode="&#x2013;" horiz-adv-x="479" 
d="M424 216h-367v88h367v-88z" />
    <glyph glyph-name="emdash" unicode="&#x2014;" horiz-adv-x="684" 
d="M627 216h-569v88h569v-88z" />
    <glyph glyph-name="quoteleft" unicode="&#x2018;" horiz-adv-x="182" 
d="M111 476l-96 -3q9 132 79 250l73 -15q-56 -109 -56 -232z" />
    <glyph glyph-name="quoteright" unicode="&#x2019;" horiz-adv-x="182" 
d="M89 467l-74 14q57 111 57 232l95 3q-9 -133 -78 -249z" />
    <glyph glyph-name="quotesinglbase" unicode="&#x201a;" horiz-adv-x="182" 
d="M89 -131l-74 14q57 111 57 232l95 3q-9 -133 -78 -249z" />
    <glyph glyph-name="quotedblleft" unicode="&#x201c;" horiz-adv-x="336" 
d="M264 476l-96 -3q9 132 79 250l74 -15q-57 -111 -57 -232zM111 476l-96 -3q9 132 79 250l73 -15q-56 -109 -56 -232z" />
    <glyph glyph-name="quotedblright" unicode="&#x201d;" horiz-adv-x="336" 
d="M242 466l-74 14q57 111 57 232l96 3q-9 -131 -79 -249zM89 466l-74 14q57 111 57 232l95 3q-9 -133 -78 -249z" />
    <glyph glyph-name="quotedblbase" unicode="&#x201e;" horiz-adv-x="336" 
d="M242 -131l-74 14q57 111 57 232l96 3q-9 -131 -79 -249zM89 -131l-74 14q57 111 57 232l95 3q-9 -133 -78 -249z" />
    <glyph glyph-name="dagger" unicode="&#x2020;" horiz-adv-x="332" 
d="M196 177h-69l-1 319l-100 -2v63l100 -1l-1 131h76l-2 -130l107 1v-64l-108 2z" />
    <glyph glyph-name="daggerdbl" unicode="&#x2021;" horiz-adv-x="332" 
d="M196 177h-69l-1 198l-100 -1v63l100 -1v83l-100 -2v63l100 -1l-1 108h76l-2 -107l107 1v-64l-108 2v-83l108 2v-64h-109z" />
    <glyph glyph-name="bullet" unicode="&#x2022;" horiz-adv-x="321" 
d="M277 342q0 -52 -32.5 -83.5t-82.5 -31.5q-54 0 -88 31.5t-34 81.5q0 57 32 88t90 31q54 0 84.5 -30t30.5 -87z" />
    <glyph glyph-name="ellipsis" unicode="&#x2026;" horiz-adv-x="663" 
d="M617 54q0 -30 -18.5 -47t-48.5 -17q-31 0 -50.5 17t-19.5 45q0 31 18.5 49t51.5 18q31 0 49 -17t18 -48zM400 53q0 -30 -19 -47t-49 -17q-31 0 -50 17.5t-19 45.5q0 31 18 49t51 18q31 0 49.5 -17.5t18.5 -48.5zM183 53q0 -30 -18 -47t-48 -17q-32 0 -52 17.5t-20 45.5
q0 31 19 49t53 18q31 0 48.5 -17.5t17.5 -48.5z" />
    <glyph glyph-name="perthousand" unicode="&#x2030;" horiz-adv-x="1092" 
d="M901 -3q-66 0 -107 41.5t-41 113.5q0 78 43.5 122.5t116.5 44.5q69 0 108 -40.5t39 -115.5q0 -78 -43.5 -122t-115.5 -44zM557 -3q-66 0 -107.5 41.5t-41.5 113.5q0 79 43 123t116 44q69 0 108.5 -40.5t39.5 -115.5q0 -78 -43 -122t-115 -44zM216 0h-86l412 677h86z
M180 340q-66 0 -107 41t-41 113q0 78 43.5 122.5t115.5 44.5q69 0 109 -39.5t40 -114.5q0 -78 -44 -122.5t-116 -44.5zM908 64q32 0 51 24.5t19 70.5t-19.5 69t-49.5 23q-32 0 -51 -24t-19 -70q0 -45 19 -69t50 -24zM562 64q32 0 51 24.5t19 70.5t-19 69t-49 23
q-32 0 -51.5 -24.5t-19.5 -70.5q0 -45 19 -68.5t50 -23.5zM186 406q32 0 51 25t19 71t-19.5 69.5t-48.5 23.5q-32 0 -52 -25.5t-20 -71.5q0 -45 19.5 -68.5t50.5 -23.5z" />
    <glyph glyph-name="guilsinglleft" unicode="&#x2039;" horiz-adv-x="243" 
d="M221 134l-82 -31l-118 150l123 154l76 -29l-102 -125z" />
    <glyph glyph-name="guilsinglright" unicode="&#x203a;" horiz-adv-x="243" 
d="M99 106l-77 29l104 123l-104 121l82 31l118 -152z" />
    <glyph glyph-name="fraction" unicode="&#x2044;" horiz-adv-x="97" 
d="M-112 0h-86l412 677h86z" />
    <glyph glyph-name="zero.superior" unicode="&#x2070;" horiz-adv-x="358" 
d="M35 578q0 104 41 155t110 51q137 0 137 -197q0 -100 -40 -151t-108 -51q-64 0 -102 48.5t-38 144.5zM181 724q-62 0 -62 -145q0 -136 61 -136q26 0 43 33.5t17 104.5q0 143 -59 143z" />
    <glyph glyph-name="four.superior" unicode="&#x2074;" horiz-adv-x="343" 
d="M265 391h-79q1 33 1 91h-161l-9 48l170 252h77q-1 -72 -1 -243h48l-7 -57h-41q0 -25 2 -91zM187 539v121q0 16 2 36h-2q-9 -19 -16 -32l-80 -125h96z" />
    <glyph glyph-name="five.superior" unicode="&#x2075;" horiz-adv-x="323" 
d="M33 405l9 71q35 -26 86 -26q38 0 56.5 17t18.5 44q0 65 -82 65q-30 0 -70 -5l9 207h213l-1 -66h-142l-4 -83q4 0 16.5 0.5t19.5 0.5q56 0 92 -28.5t36 -86.5q0 -54 -41 -92t-117 -38q-48 0 -99 20z" />
    <glyph glyph-name="six.superior" unicode="&#x2076;" horiz-adv-x="348" 
d="M259 793l37 -55q-67 -12 -110 -40q-51 -33 -64 -84q38 19 75 19q54 0 87.5 -30t33.5 -86q0 -58 -40 -95t-106 -37q-58 0 -97.5 42t-39.5 121q0 114 83 183q54 46 141 62zM174 578q-25 0 -57 -17q-1 -10 -1 -25q0 -42 17.5 -66.5t46.5 -24.5q25 0 41.5 18t16.5 47
q0 68 -64 68z" />
    <glyph glyph-name="seven.superior" unicode="&#x2077;" horiz-adv-x="310" 
d="M147 392h-89l135 319h-92q-54 0 -88 -2l5 69h275l2 -10z" />
    <glyph glyph-name="eight.superior" unicode="&#x2078;" horiz-adv-x="338" 
d="M161 385q-59 0 -95 27.5t-36 72.5q0 71 83 106q-68 33 -68 91q0 45 35.5 73.5t99.5 28.5q57 0 89 -26.5t32 -68.5q0 -62 -75 -96q84 -35 84 -101q0 -49 -38 -78t-111 -29zM169 560q-58 -22 -58 -67q0 -25 16.5 -39t43.5 -14q28 0 44 14t16 38q0 46 -62 68zM174 731
q-23 0 -37.5 -13.5t-14.5 -35.5q0 -38 51 -60q51 20 51 59q0 24 -13.5 37t-36.5 13z" />
    <glyph glyph-name="nine.superior" unicode="&#x2079;" horiz-adv-x="344" 
d="M84 379l-36 55q61 11 100 34q55 34 71 92q-37 -20 -75 -20q-48 0 -81 30.5t-33 84.5q0 58 40.5 93t100.5 35q65 0 101.5 -41.5t36.5 -115.5q0 -58 -27 -110.5t-70 -83.5q-59 -43 -128 -53zM167 724q-26 0 -42.5 -17t-16.5 -46q0 -32 18 -48.5t45 -16.5q29 0 55 17
q3 21 3 29q0 39 -17.5 60.5t-44.5 21.5z" />
    <glyph glyph-name="zero.inferior" unicode="&#x2080;" horiz-adv-x="358" 
d="M35 87q0 104 41 155t110 51q137 0 137 -197q0 -100 -40 -151t-108 -51q-64 0 -102 48.5t-38 144.5zM181 233q-62 0 -62 -145q0 -136 61 -136q26 0 43 33.5t17 104.5q0 143 -59 143z" />
    <glyph glyph-name="one.inferior" unicode="&#x2081;" horiz-adv-x="279" 
d="M201 -100h-91q3 108 3 135v192l-87 -17l-1 64l173 25v-249q0 -103 3 -150z" />
    <glyph glyph-name="two.inferior" unicode="&#x2082;" horiz-adv-x="334" 
d="M296 -100h-259l-8 50q38 35 117 118q62 66 62 103q0 26 -15.5 40.5t-44.5 14.5q-50 0 -85 -40l-13 71q57 36 123 36q58 0 89 -29t31 -80q0 -58 -66 -125q-52 -54 -92 -92h62q75 0 103 3z" />
    <glyph glyph-name="three.inferior" unicode="&#x2083;" horiz-adv-x="313" 
d="M26 -83l13 65q42 -29 87 -29q35 0 54.5 15.5t19.5 41.5q0 57 -96 57q-23 0 -31 -1l4 59h23q90 0 90 54q0 22 -15 36t-45 14q-43 0 -78 -28l-12 65q54 26 110 26q60 0 92.5 -26t32.5 -67q0 -75 -79 -97q42 -5 66 -29.5t24 -60.5q0 -53 -41.5 -85.5t-116.5 -32.5
q-61 0 -102 23z" />
    <glyph glyph-name="four.inferior" unicode="&#x2084;" horiz-adv-x="343" 
d="M265 -100h-79q1 33 1 91h-161l-9 48l170 252h77q-1 -72 -1 -243h48l-7 -57h-41q0 -25 2 -91zM187 48v121q0 16 2 36h-2q-9 -19 -16 -32l-80 -125h96z" />
    <glyph glyph-name="five.inferior" unicode="&#x2085;" horiz-adv-x="323" 
d="M33 -86l9 71q35 -26 86 -26q38 0 56.5 17t18.5 44q0 65 -82 65q-30 0 -70 -5l2.5 65.5t3.5 84t3 57.5h213l-1 -66h-142l-4 -83q4 0 16.5 0.5t19.5 0.5q56 0 92 -28.5t36 -86.5q0 -54 -41 -92t-117 -38q-48 0 -99 20z" />
    <glyph glyph-name="six.inferior" unicode="&#x2086;" horiz-adv-x="348" 
d="M259 302l37 -55q-67 -12 -110 -40q-51 -33 -64 -84q38 19 75 19q54 0 87.5 -30t33.5 -86q0 -58 -40 -95t-106 -37q-58 0 -97.5 42t-39.5 121q0 114 83 183q54 46 141 62zM174 87q-25 0 -57 -17q-1 -10 -1 -25q0 -42 17.5 -66.5t46.5 -24.5q25 0 41.5 18t16.5 47
q0 68 -64 68z" />
    <glyph glyph-name="seven.inferior" unicode="&#x2087;" horiz-adv-x="310" 
d="M147 -99h-89l135 319h-92q-54 0 -88 -2l5 69h275l2 -10z" />
    <glyph glyph-name="eight.inferior" unicode="&#x2088;" horiz-adv-x="338" 
d="M161 -106q-59 0 -95 27.5t-36 72.5q0 71 83 106q-68 33 -68 91q0 45 35.5 73.5t99.5 28.5q57 0 89 -26.5t32 -68.5q0 -62 -75 -96q84 -35 84 -101q0 -49 -38 -78t-111 -29zM169 69q-58 -22 -58 -67q0 -25 16.5 -39t43.5 -14q28 0 44 14t16 38q0 46 -62 68zM174 240
q-23 0 -37.5 -13.5t-14.5 -35.5q0 -37 51 -60q51 19 51 59q0 24 -13.5 37t-36.5 13z" />
    <glyph glyph-name="nine.inferior" unicode="&#x2089;" horiz-adv-x="344" 
d="M84 -112l-36 55q61 11 100 34q55 34 71 92q-37 -20 -75 -20q-48 0 -81 30.5t-33 84.5q0 58 40.5 93t100.5 35q65 0 101.5 -41.5t36.5 -115.5q0 -58 -27 -110.5t-70 -83.5q-59 -43 -128 -53zM167 233q-26 0 -42.5 -17t-16.5 -46q0 -32 18 -48.5t45 -16.5q29 0 55 17
q3 21 3 29q0 39 -17.5 60.5t-44.5 21.5z" />
    <glyph glyph-name="Euro" unicode="&#x20ac;" 
d="M473 101l10 -85q-49 -28 -130 -28q-99 0 -164.5 62t-81.5 179h-82l8 62h70v78h-65l8 62h61q14 116 84 188t181 72q65 0 125 -24l-19 -91q-35 27 -100 27q-138 0 -160 -172h230l-10 -62h-225q-1 -30 1 -78h210l-10 -62h-194q11 -79 48 -117t102 -38q64 0 103 27z" />
    <glyph glyph-name="litre" unicode="&#x2113;" horiz-adv-x="485" 
d="M152 151v80l-53 -55q-24 34 -35 51l88 92v214q0 95 38.5 145t103.5 50q56 0 83 -36t27 -82q0 -67 -29.5 -128t-85.5 -131q-22 -27 -31 -37v-153q0 -94 57 -94q35 0 74 41q10 -21 32 -63q-67 -60 -134 -60q-58 0 -94 36q-41 41 -41 130zM258 549v-141q11 14 15 20
q65 89 65 169q0 48 -34 48q-46 0 -46 -96z" />
    <glyph glyph-name="trademark" unicode="&#x2122;" horiz-adv-x="724" 
d="M665 376h-63l-15 204l-79 -204h-46l-77 202l-17 -202h-60l31 305h70l79 -216l83 216h72zM192 376h-64v251h-86v51h237v-51h-87v-251z" />
    <glyph glyph-name="Omega" unicode="&#x2126;" horiz-adv-x="699" 
d="M649 0h-241v95q116 118 116 278q0 107 -45 172t-127 65t-130.5 -66.5t-48.5 -173.5q0 -164 118 -275v-95h-241v95h143q-145 121 -145 300q0 137 85.5 227t220.5 90q140 0 218 -87t78 -227q0 -185 -146 -303h145v-95z" />
    <glyph glyph-name="estimated" unicode="&#x212e;" horiz-adv-x="654" 
d="M602 280h-431v-193q62 -62 153 -62q131 0 206 127q6 -4 17.5 -11t17.5 -11q-48 -71 -103.5 -106.5t-137.5 -35.5q-123 0 -198 83.5t-75 208.5t74.5 208t198.5 83q126 0 199.5 -82t78.5 -209zM478 317v154q-66 64 -155 64q-91 0 -152 -63v-155h307z" />
    <glyph glyph-name="onethird" unicode="&#x2153;" horiz-adv-x="757" 
d="M181 0h-86l412 677h86zM201 291h-91q3 108 3 135v192l-87 -17l-1 64l173 25v-249q0 -103 3 -150zM455 17l13 65q42 -29 87 -29q35 0 54.5 15.5t19.5 41.5q0 57 -96 57q-23 0 -31 -1l4 59h23q90 0 90 54q0 22 -15 36t-45 14q-43 0 -78 -28l-12 65q54 26 110 26
q60 0 92.5 -26t32.5 -67q0 -75 -79 -97q42 -5 66 -29.5t24 -60.5q0 -53 -41.5 -85.5t-116.5 -32.5q-61 0 -102 23z" />
    <glyph glyph-name="twothirds" unicode="&#x2154;" horiz-adv-x="845" 
d="M269 0h-86l412 677h86zM296 291h-259l-8 50q38 35 117 118q62 66 62 103q0 26 -15.5 40.5t-44.5 14.5q-50 0 -85 -40l-13 71q57 36 123 36q58 0 89 -29t31 -80q0 -58 -66 -125q-52 -54 -92 -92h62q75 0 103 3zM542 17l13 65q42 -29 87 -29q35 0 54.5 15.5t19.5 41.5
q0 57 -96 57q-23 0 -31 -1l4 59h23q90 0 90 54q0 22 -15 36t-45 14q-43 0 -78 -28l-12 65q54 26 110 26q60 0 92.5 -26t32.5 -67q0 -75 -79 -97q42 -5 66 -29.5t24 -60.5q0 -53 -41.5 -85.5t-116.5 -32.5q-61 0 -102 23z" />
    <glyph glyph-name="oneeighth" unicode="&#x215b;" horiz-adv-x="754" 
d="M181 0h-86l412 677h86zM201 291h-91q3 108 3 135v192l-87 -17l-1 64l173 25v-249q0 -103 3 -150zM564 -6q-59 0 -95 27.5t-36 72.5q0 71 83 106q-68 33 -68 91q0 45 35.5 73.5t99.5 28.5q57 0 89 -26.5t32 -68.5q0 -62 -75 -96q84 -35 84 -101q0 -49 -38 -78t-111 -29z
M577 340q-23 0 -37.5 -13.5t-14.5 -35.5q0 -38 51 -60q51 19 51 59q0 23 -14 36.5t-36 13.5zM572 169q-58 -22 -58 -67q0 -25 16.5 -39t43.5 -14q28 0 44 14.5t16 37.5q0 46 -62 68z" />
    <glyph glyph-name="threeeighths" unicode="&#x215c;" horiz-adv-x="801" 
d="M227 0h-86l412 677h86zM26 308l13 65q42 -29 87 -29q35 0 54.5 15.5t19.5 41.5q0 57 -96 57q-23 0 -31 -1l4 59h23q90 0 90 54q0 22 -15 36t-45 14q-43 0 -78 -28l-12 65q54 26 110 26q60 0 92.5 -26t32.5 -67q0 -75 -79 -97q42 -5 66 -29.5t24 -60.5q0 -53 -41.5 -85.5
t-116.5 -32.5q-61 0 -102 23zM612 -6q-59 0 -95 27.5t-36 72.5q0 71 83 106q-68 33 -68 91q0 45 35.5 73.5t99.5 28.5q57 0 89 -26.5t32 -68.5q0 -62 -75 -96q84 -35 84 -101q0 -49 -38 -78t-111 -29zM625 340q-23 0 -37.5 -13.5t-14.5 -35.5q0 -38 51 -60q51 19 51 59
q0 23 -14 36.5t-36 13.5zM620 169q-58 -22 -58 -67q0 -25 16.5 -39t43.5 -14q28 0 44 14.5t16 37.5q0 46 -62 68z" />
    <glyph glyph-name="fiveeighths" unicode="&#x215d;" horiz-adv-x="801" 
d="M226 0h-86l412 677h86zM33 305l9 71q35 -26 86 -26q38 0 56.5 17t18.5 44q0 65 -82 65q-30 0 -70 -5l2.5 65.5t3.5 84t3 57.5h213l-1 -66h-142l-4 -83q4 0 16.5 0.5t19.5 0.5q56 0 92 -28.5t36 -86.5q0 -54 -41 -92t-117 -38q-48 0 -99 20zM611 -6q-59 0 -95 27.5
t-36 72.5q0 71 83 106q-68 33 -68 91q0 45 35.5 73.5t99.5 28.5q57 0 89 -26.5t32 -68.5q0 -62 -75 -96q84 -35 84 -101q0 -49 -38 -78t-111 -29zM624 340q-23 0 -37.5 -13.5t-14.5 -35.5q0 -38 51 -60q51 19 51 59q0 23 -14 36.5t-36 13.5zM619 169q-58 -22 -58 -67
q0 -25 16.5 -39t43.5 -14q28 0 44 14.5t16 37.5q0 46 -62 68z" />
    <glyph glyph-name="seveneighths" unicode="&#x215e;" horiz-adv-x="749" 
d="M175 0h-86l412 677h86zM147 292h-89l135 319h-92q-54 0 -88 -2l5 69h275l2 -10zM560 -6q-59 0 -95 27.5t-36 72.5q0 71 83 106q-68 33 -68 91q0 45 35.5 73.5t99.5 28.5q57 0 89 -26.5t32 -68.5q0 -62 -75 -96q84 -35 84 -101q0 -49 -38 -78t-111 -29zM573 340
q-23 0 -37.5 -13.5t-14.5 -35.5q0 -38 51 -60q51 19 51 59q0 23 -14 36.5t-36 13.5zM568 169q-58 -22 -58 -67q0 -25 16.5 -39t43.5 -14q28 0 44 14.5t16 37.5q0 46 -62 68z" />
    <glyph glyph-name="partialdiff" unicode="&#x2202;" horiz-adv-x="565" 
d="M411 434h2q4 38 4 61q0 72 -33 109.5t-92 37.5q-49 0 -92 -25q-16 52 -25 78q55 35 133 35q103 0 162.5 -67.5t59.5 -191.5q0 -93 -23 -190q-20 -80 -56.5 -143.5t-94.5 -106t-127 -42.5q-87 0 -141 54.5t-54 141.5q0 142 77.5 225.5t177.5 83.5q43 0 75.5 -17.5
t46.5 -42.5zM400 343q-22 70 -92 70q-63 0 -110 -69t-47 -166q0 -46 21 -73t57 -27q61 0 107 76t64 189z" />
    <glyph glyph-name="Delta" unicode="&#x2206;" horiz-adv-x="594" 
d="M590 0h-586v51l214 649h161l211 -649v-51zM136 96h315l-140 444q-5 16 -16 61h-4q-4 -26 -14 -59z" />
    <glyph glyph-name="product" unicode="&#x220f;" horiz-adv-x="704" 
d="M629 -230h-119v828h-316v-828h-119v930h554v-930z" />
    <glyph glyph-name="summation" unicode="&#x2211;" horiz-adv-x="619" 
d="M578 -230h-538v61l284 408l-265 394v67h498v-95h-357l245 -363l-261 -377h394v-95z" />
    <glyph glyph-name="minus" unicode="&#x2212;" 
d="M474 243h-411v84h411v-84z" />
    <glyph glyph-name="uni2215" unicode="&#x2215;" horiz-adv-x="90" 
d="M-113 1h-86l413 676h86z" />
    <glyph glyph-name="uni2219" unicode="&#x2219;" horiz-adv-x="220" 
d="M180 252q0 -31 -19 -48t-49 -17q-32 0 -52 17.5t-20 45.5q0 32 19 50.5t53 18.5q32 0 50 -18t18 -49z" />
    <glyph glyph-name="radical" unicode="&#x221a;" horiz-adv-x="498" 
d="M317 -12h-96l-122 313l-53 -35l-37 60l141 94l118 -308l140 617h80z" />
    <glyph glyph-name="infinity" unicode="&#x221e;" horiz-adv-x="766" 
d="M384 222h-2q-73 -103 -172 -103q-70 0 -120.5 46.5t-50.5 125.5t50 125.5t120 46.5q104 0 173 -103h2q27 41 71 72t101 31q74 0 122.5 -48t48.5 -121q0 -75 -47.5 -125t-120.5 -50q-53 0 -99 28t-76 75zM426 292q51 -93 123 -93q42 0 65 27.5t23 66.5t-23 64.5t-65 25.5
q-37 0 -65.5 -23t-57.5 -68zM339 292q-55 91 -123 91q-41 0 -64 -26.5t-23 -65.5t24.5 -65.5t63.5 -26.5q69 0 122 93z" />
    <glyph glyph-name="integral" unicode="&#x222b;" horiz-adv-x="482" 
d="M181 -53v612q0 87 43.5 139t128.5 52q50 0 80 -15l-24 -83q-18 8 -41 8q-70 0 -70 -89v-612q0 -87 -42.5 -138.5t-127.5 -51.5q-50 0 -80 13l21 84q19 -7 41 -7q71 0 71 88z" />
    <glyph glyph-name="approxequal" unicode="&#x2248;" 
d="M428 274l61 -21q-25 -74 -58.5 -100.5t-82.5 -26.5q-27 0 -50.5 12.5t-37.5 27t-33 27t-37 12.5q-53 0 -83 -80l-59 30q25 60 59.5 88.5t86.5 28.5q36 0 65 -21t51 -41.5t43 -20.5q27 0 44.5 20.5t30.5 64.5zM428 434l61 -21q-25 -74 -58.5 -100.5t-82.5 -26.5
q-27 0 -50.5 12.5t-37.5 27t-33 27t-37 12.5q-53 0 -83 -80l-59 30q25 60 59.5 88.5t86.5 28.5q36 0 65 -21t51 -41.5t43 -20.5q27 0 44.5 20.5t30.5 64.5z" />
    <glyph glyph-name="notequal" unicode="&#x2260;" 
d="M474 149h-213l-49 -125h-90l49 125h-108v83h140l39 99h-179v83h212l65 164h91l-65 -164h108v-83h-141l-39 -99h180v-83z" />
    <glyph glyph-name="lessequal" unicode="&#x2264;" 
d="M465 23h-392v84h392v-84zM465 157l-392 180v71l392 181v-89l-286 -127v-2l286 -127v-87z" />
    <glyph glyph-name="greaterequal" unicode="&#x2265;" 
d="M465 23h-392v84h392v-84zM465 337l-392 -180v89l286 127v2l-286 126v88l392 -180v-72z" />
    <glyph glyph-name="lozenge" unicode="&#x25ca;" horiz-adv-x="547" 
d="M300 0h-55l-193 349l193 351h55l194 -350zM408 350l-135 246l-135 -246l134 -246z" />
    <glyph glyph-name="a.sc" unicode="&#xe000;" horiz-adv-x="565" 
d="M560 0h-128l-53 135h-198l-50 -135h-127l108 255q79 194 108 278h128q33 -92 109 -279zM354 215l-61 172q-7 20 -13 50h-2q-7 -32 -14 -50l-60 -172h150z" />
    <glyph glyph-name="ae.sc" unicode="&#xe001;" horiz-adv-x="777" 
d="M742 0h-353q2 43 2 135h-178l-82 -135h-134l166 255q102 156 173 277h391l2 -89q-64 2 -130 2h-94v-137h95q35 0 115 2l-5 -83q-16 0 -50 0.5t-57 0.5h-98v-142h106q30 0 135 3zM391 215v189q0 32 1 46h-2q-10 -23 -27 -50l-110 -185h138z" />
    <glyph glyph-name="aacute.sc" unicode="&#xe002;" horiz-adv-x="565" 
d="M560 0h-128l-53 135h-198l-50 -135h-127l108 255q79 194 108 278h128q33 -92 109 -279zM354 215l-61 172q-7 20 -13 50h-2q-7 -32 -14 -50l-60 -172h150zM433 705l-169 -119l-77 21l162 132z" />
    <glyph glyph-name="acircumflex.sc" unicode="&#xe003;" horiz-adv-x="565" 
d="M560 0h-128l-53 135h-198l-50 -135h-127l108 255q79 194 108 278h128q33 -92 109 -279zM354 215l-61 172q-7 20 -13 50h-2q-7 -32 -14 -50l-60 -172h150zM428 597l-81 -10l-66 83l-70 -83l-76 13l118 132h61z" />
    <glyph glyph-name="adieresis.sc" unicode="&#xe004;" horiz-adv-x="565" 
d="M560 0h-128l-53 135h-198l-50 -135h-127l108 255q79 194 108 278h128q33 -92 109 -279zM354 215l-61 172q-7 20 -13 50h-2q-7 -32 -14 -50l-60 -172h150zM427 650q0 -23 -16 -36.5t-38 -13.5q-25 0 -40 15t-15 35q0 23 14.5 37.5t40.5 14.5q25 0 39.5 -14t14.5 -38z
M239 651q0 -23 -15.5 -35.5t-37.5 -12.5q-25 0 -40.5 13.5t-15.5 33.5q0 23 15 37.5t41 14.5q53 0 53 -51z" />
    <glyph glyph-name="agrave.sc" unicode="&#xe005;" horiz-adv-x="565" 
d="M560 0h-128l-53 135h-198l-50 -135h-127l108 255q79 194 108 278h128q33 -92 109 -279zM354 215l-61 172q-7 20 -13 50h-2q-7 -32 -14 -50l-60 -172h150zM371 607l-77 -20l-168 120l86 33z" />
    <glyph glyph-name="aring.sc" unicode="&#xe006;" horiz-adv-x="565" 
d="M560 0h-128l-53 135h-198l-50 -135h-127l108 255q79 194 108 278h128q33 -92 109 -279zM354 215l-61 172q-7 20 -13 50h-2q-7 -32 -14 -50l-60 -172h150zM383 678q0 -40 -30 -65.5t-72 -25.5q-44 0 -72.5 24t-28.5 63q0 43 29.5 67t74.5 24q44 0 71.5 -23.5t27.5 -63.5z
M326 676q0 19 -12.5 31.5t-31.5 12.5t-31.5 -12t-12.5 -31t12.5 -31.5t31.5 -12.5t31.5 12t12.5 31z" />
    <glyph glyph-name="atilde.sc" unicode="&#xe007;" horiz-adv-x="565" 
d="M560 0h-128l-53 135h-198l-50 -135h-127l108 255q79 194 108 278h128q33 -92 109 -279zM354 215l-61 172q-7 20 -13 50h-2q-7 -32 -14 -50l-60 -172h150zM396 710l49 -36q-49 -78 -114 -78q-32 0 -65.5 24t-52.5 24q-31 0 -59 -45l-44 46q50 65 110 65q33 0 66 -23.5
t47 -23.5q33 0 63 47z" />
    <glyph glyph-name="b.sc" unicode="&#xe008;" horiz-adv-x="544" 
d="M85 201v137q0 159 -1 194h218q82 0 126.5 -32.5t44.5 -89.5q0 -44 -25 -78t-75 -48q132 -18 132 -130q0 -68 -52.5 -111.5t-162.5 -43.5q-19 0 -93.5 0.5t-115.5 0.5q4 49 4 201zM199 454v-140h62q42 0 69 18.5t27 56.5q0 66 -92 66q-43 0 -66 -1zM199 238v-159h74
q109 0 109 81q0 78 -110 78h-73z" />
    <glyph glyph-name="c.sc" unicode="&#xe009;" horiz-adv-x="513" 
d="M474 116l9 -95q-71 -33 -165 -33q-128 0 -204.5 71.5t-76.5 194.5q0 132 84 209t218 77q84 0 147 -24l-16 -101q-52 32 -125 32q-88 0 -138.5 -49t-50.5 -139q0 -83 48.5 -130.5t130.5 -47.5q79 0 139 35z" />
    <glyph glyph-name="ccedilla.sc" unicode="&#xe00a;" horiz-adv-x="513" 
d="M240 -200l3 50q15 -3 27 -3q26 0 40.5 10t14.5 26q0 38 -58 38h-10l10 71q-106 14 -168 83t-62 179q0 132 84 209t218 77q84 0 147 -24l-16 -101q-52 32 -125 32q-88 0 -138.5 -49t-50.5 -139q0 -83 48.5 -130.5t130.5 -47.5q79 0 139 35l9 -95q-71 -33 -165 -33l-4 -33
q35 -1 55 -19t20 -49q0 -38 -33 -63t-93 -25q-15 0 -23 1z" />
    <glyph glyph-name="d.sc" unicode="&#xe00b;" horiz-adv-x="621" 
d="M85 190v152q0 124 -2 190h206q295 0 295 -260q0 -124 -85.5 -198.5t-228.5 -74.5q-15 0 -84.5 0.5t-103.5 0.5q3 51 3 190zM200 445v-360h76q91 0 141 49.5t50 134.5q0 177 -187 177q-58 0 -80 -1z" />
    <glyph glyph-name="eth.sc" unicode="&#xe00c;" horiz-adv-x="621" 
d="M85 190v34h-80v88h80v30q0 124 -2 190h206q295 0 295 -260q0 -124 -85.5 -198.5t-228.5 -74.5q-15 0 -84.5 0.5t-103.5 0.5q3 51 3 190zM200 85h76q91 0 141 49.5t50 134.5q0 177 -187 177q-58 0 -80 -1v-133h121v-88h-121v-139z" />
    <glyph glyph-name="e.sc" unicode="&#xe00d;" horiz-adv-x="471" 
d="M435 0h-354q3 54 3 196v147q0 157 -2 189h338l2 -89q-64 2 -130 2h-94v-137h95q35 0 115 2l-5 -83q-17 0 -51 0.5t-56 0.5h-98v-142h107q33 0 135 3z" />
    <glyph glyph-name="eacute.sc" unicode="&#xe00e;" horiz-adv-x="471" 
d="M435 0h-354q3 54 3 196v147q0 157 -2 189h338l2 -89q-64 2 -130 2h-94v-137h95q35 0 115 2l-5 -83q-17 0 -51 0.5t-56 0.5h-98v-142h107q33 0 135 3zM407 705l-169 -119l-77 21l162 132z" />
    <glyph glyph-name="ecircumflex.sc" unicode="&#xe00f;" horiz-adv-x="471" 
d="M435 0h-354q3 54 3 196v147q0 157 -2 189h338l2 -89q-64 2 -130 2h-94v-137h95q35 0 115 2l-5 -83q-17 0 -51 0.5t-56 0.5h-98v-142h107q33 0 135 3zM404 597l-81 -10l-66 83l-70 -83l-76 13l118 132h61z" />
    <glyph glyph-name="edieresis.sc" unicode="&#xe010;" horiz-adv-x="471" 
d="M435 0h-354q3 54 3 196v147q0 157 -2 189h338l2 -89q-64 2 -130 2h-94v-137h95q35 0 115 2l-5 -83q-17 0 -51 0.5t-56 0.5h-98v-142h107q33 0 135 3zM405 650q0 -23 -16 -36.5t-38 -13.5q-25 0 -40 15t-15 35q0 23 14.5 37.5t40.5 14.5q25 0 39.5 -14t14.5 -38zM217 651
q0 -23 -15.5 -35.5t-37.5 -12.5q-25 0 -40.5 13.5t-15.5 33.5q0 23 15 37.5t41 14.5q53 0 53 -51z" />
    <glyph glyph-name="egrave.sc" unicode="&#xe011;" horiz-adv-x="471" 
d="M435 0h-354q3 54 3 196v147q0 157 -2 189h338l2 -89q-64 2 -130 2h-94v-137h95q35 0 115 2l-5 -83q-17 0 -51 0.5t-56 0.5h-98v-142h107q33 0 135 3zM363 607l-77 -20l-168 120l86 33z" />
    <glyph glyph-name="f.sc" unicode="&#xe012;" horiz-adv-x="454" 
d="M201 0h-120q3 52 3 194v150q0 154 -1 188h337l2 -89q-43 1 -133 1h-91v-152h88q85 0 120 2l-3 -88q-32 1 -118 1h-87v-68q0 -46 3 -139z" />
    <glyph glyph-name="g.sc" unicode="&#xe013;" horiz-adv-x="582" 
d="M408 91v117h-115v85h225v-258q-92 -47 -203 -47q-132 0 -205 74t-73 194q0 134 84 209t215 75q101 0 179 -34l-25 -98q-67 40 -154 40q-81 0 -131.5 -49t-50.5 -138t46.5 -137.5t122.5 -48.5q48 0 85 16z" />
    <glyph glyph-name="h.sc" unicode="&#xe014;" horiz-adv-x="657" 
d="M574 0h-119q2 66 2 150v73h-257v-70q0 -123 1 -153h-118q3 111 3 180v178q0 137 -1 174h116q-1 -27 -1 -142v-73h257v66q0 93 -2 149h119q-2 -66 -2 -182v-173q0 -107 2 -177z" />
    <glyph glyph-name="i.sc" unicode="&#xe015;" horiz-adv-x="287" 
d="M202 0h-118q2 76 2 199v140q0 141 -3 193h120q-4 -72 -4 -192v-138q0 -82 3 -202z" />
    <glyph glyph-name="iacute.sc" unicode="&#xe016;" horiz-adv-x="287" 
d="M202 0h-118q2 76 2 199v140q0 141 -3 193h120q-4 -72 -4 -192v-138q0 -82 3 -202zM303 705l-169 -119l-77 21l162 132z" />
    <glyph glyph-name="icircumflex.sc" unicode="&#xe017;" horiz-adv-x="287" 
d="M202 0h-118q2 76 2 199v140q0 141 -3 193h120q-4 -72 -4 -192v-138q0 -82 3 -202zM291 597l-81 -10l-66 83l-70 -83l-76 13l118 132h61z" />
    <glyph glyph-name="idieresis.sc" unicode="&#xe018;" horiz-adv-x="287" 
d="M202 0h-118q2 76 2 199v140q0 141 -3 193h120q-4 -72 -4 -192v-138q0 -82 3 -202zM291 650q0 -23 -16 -36.5t-38 -13.5q-25 0 -40 15t-15 35q0 23 14.5 37.5t40.5 14.5q25 0 39.5 -14t14.5 -38zM103 651q0 -23 -15.5 -35.5t-37.5 -12.5q-25 0 -40.5 13.5t-15.5 33.5
q0 23 15 37.5t41 14.5q53 0 53 -51z" />
    <glyph glyph-name="igrave.sc" unicode="&#xe019;" horiz-adv-x="287" 
d="M202 0h-118q2 76 2 199v140q0 141 -3 193h120q-4 -72 -4 -192v-138q0 -82 3 -202zM237 607l-77 -20l-168 120l86 33z" />
    <glyph glyph-name="j.sc" unicode="&#xe01a;" horiz-adv-x="286" 
d="M-59 -164v91q20 -11 55 -11q46 0 67.5 31.5t21.5 99.5v316q0 99 -2 169h118q-2 -72 -2 -169v-311q0 -111 -50 -167.5t-144 -56.5q-34 0 -64 8z" />
    <glyph glyph-name="k.sc" unicode="&#xe01b;" horiz-adv-x="544" 
d="M542 0h-143l-178 233q-13 17 -22 33v-266h-116q2 102 2 202v159q0 81 -2 171h116v-257q13 20 21 31l174 226h134l-209 -255q112 -148 223 -277z" />
    <glyph glyph-name="l.sc" unicode="&#xe01c;" horiz-adv-x="439" 
d="M428 0h-347q3 36 3 199v130q0 161 -1 203h118q-2 -53 -2 -158v-284h89q94 0 145 3z" />
    <glyph glyph-name="lslash.sc" unicode="&#xe01d;" horiz-adv-x="439" 
d="M428 0h-347q3 33 3 167v17l-67 -36v85l67 35v61q0 161 -1 203h118q-2 -53 -2 -158v-53l124 66v-84l-124 -66v-147l99 1q103 2 135 4z" />
    <glyph glyph-name="m.sc" unicode="&#xe01e;" horiz-adv-x="810" 
d="M733 0h-113l-8 331q-1 35 2 83h-2q-10 -37 -19 -58l-153 -358h-75l-133 313q-9 19 -36 99h-2q3 -36 1 -69l-15 -341h-105q8 96 17 259q14 235 15 274h135l148 -360q14 -31 16 -53h3q4 20 16 50l155 363h133q0 -82 7 -270q5 -113 13 -263z" />
    <glyph glyph-name="n.sc" unicode="&#xe01f;" horiz-adv-x="675" 
d="M593 -2h-95l-283 343q-11 13 -26 41h-3q3 -20 3 -57v-325h-106q2 72 2 162v203q0 106 -3 169h105l272 -337q9 -11 27 -40h2q-2 15 -2 52v323h107q-2 -74 -2 -161v-189q0 -114 2 -184z" />
    <glyph glyph-name="ntilde.sc" unicode="&#xe020;" horiz-adv-x="675" 
d="M593 -2h-95l-283 343q-11 13 -26 41h-3q3 -20 3 -57v-325h-106q2 72 2 162v203q0 106 -3 169h105l272 -337q9 -11 27 -40h2q-2 15 -2 52v323h107q-2 -74 -2 -161v-189q0 -114 2 -184zM449 710l49 -36q-49 -78 -114 -78q-32 0 -65.5 24t-52.5 24q-31 0 -59 -45l-44 46
q50 65 110 65q33 0 66 -23.5t47 -23.5q33 0 63 47z" />
    <glyph glyph-name="o.sc" unicode="&#xe021;" horiz-adv-x="640" 
d="M602 271q0 -128 -78 -205.5t-208 -77.5q-126 0 -202 75.5t-76 195.5q0 128 79.5 205.5t211.5 77.5q124 0 198.5 -74t74.5 -197zM319 77q71 0 117.5 49t46.5 136q0 90 -44.5 139.5t-117.5 49.5q-72 0 -118 -50t-46 -137q0 -86 44.5 -136.5t117.5 -50.5z" />
    <glyph glyph-name="oe.sc" unicode="&#xe022;" horiz-adv-x="804" 
d="M768 0h-272q-9 0 -76 -6t-104 -6q-126 0 -202 75.5t-76 195.5q0 123 77 203t228 80q37 0 90.5 -5t66.5 -5h253l2 -89q-64 2 -130 2h-94v-137h95q35 0 115 2l-5 -83q-16 0 -50 0.5t-57 0.5h-98v-142h107q33 0 135 3zM417 196v147v98q-37 10 -83 10q-81 0 -129 -49.5
t-48 -137.5q0 -86 44.5 -136.5t117.5 -50.5q55 0 97 9q1 30 1 110z" />
    <glyph glyph-name="oacute.sc" unicode="&#xe023;" horiz-adv-x="640" 
d="M602 271q0 -128 -78 -205.5t-208 -77.5q-126 0 -202 75.5t-76 195.5q0 128 79.5 205.5t211.5 77.5q124 0 198.5 -74t74.5 -197zM319 77q71 0 117.5 49t46.5 136q0 90 -44.5 139.5t-117.5 49.5q-72 0 -118 -50t-46 -137q0 -86 44.5 -136.5t117.5 -50.5zM479 705l-169 -119
l-77 21l162 132z" />
    <glyph glyph-name="ocircumflex.sc" unicode="&#xe024;" horiz-adv-x="640" 
d="M602 271q0 -128 -78 -205.5t-208 -77.5q-126 0 -202 75.5t-76 195.5q0 128 79.5 205.5t211.5 77.5q124 0 198.5 -74t74.5 -197zM319 77q71 0 117.5 49t46.5 136q0 90 -44.5 139.5t-117.5 49.5q-72 0 -118 -50t-46 -137q0 -86 44.5 -136.5t117.5 -50.5zM472 597l-81 -10
l-66 83l-70 -83l-76 13l118 132h61z" />
    <glyph glyph-name="odieresis.sc" unicode="&#xe025;" horiz-adv-x="640" 
d="M602 271q0 -128 -78 -205.5t-208 -77.5q-126 0 -202 75.5t-76 195.5q0 128 79.5 205.5t211.5 77.5q124 0 198.5 -74t74.5 -197zM319 77q71 0 117.5 49t46.5 136q0 90 -44.5 139.5t-117.5 49.5q-72 0 -118 -50t-46 -137q0 -86 44.5 -136.5t117.5 -50.5zM473 650
q0 -23 -16 -36.5t-38 -13.5q-25 0 -40 15t-15 35q0 23 14.5 37.5t40.5 14.5q25 0 39.5 -14t14.5 -38zM285 651q0 -23 -15.5 -35.5t-37.5 -12.5q-25 0 -40.5 13.5t-15.5 33.5q0 23 15 37.5t41 14.5q53 0 53 -51z" />
    <glyph glyph-name="ograve.sc" unicode="&#xe026;" horiz-adv-x="640" 
d="M602 271q0 -128 -78 -205.5t-208 -77.5q-126 0 -202 75.5t-76 195.5q0 128 79.5 205.5t211.5 77.5q124 0 198.5 -74t74.5 -197zM319 77q71 0 117.5 49t46.5 136q0 90 -44.5 139.5t-117.5 49.5q-72 0 -118 -50t-46 -137q0 -86 44.5 -136.5t117.5 -50.5zM427 607l-77 -20
l-168 120l86 33z" />
    <glyph glyph-name="oslash.sc" unicode="&#xe027;" horiz-adv-x="640" 
d="M89 -38l-42 36l62 70q-71 73 -71 191q0 129 79 206t212 77q95 0 161 -45l66 74l42 -35l-64 -74q68 -75 68 -191q0 -128 -78 -205.5t-209 -77.5q-100 0 -163 46zM183 153l240 267q-42 34 -101 34q-75 0 -121 -49.5t-46 -140.5q0 -66 28 -111zM456 378l-239 -268
q43 -35 102 -35q74 0 121 49t47 138q0 70 -31 116z" />
    <glyph glyph-name="otilde.sc" unicode="&#xe028;" horiz-adv-x="640" 
d="M602 271q0 -128 -78 -205.5t-208 -77.5q-126 0 -202 75.5t-76 195.5q0 128 79.5 205.5t211.5 77.5q124 0 198.5 -74t74.5 -197zM319 77q71 0 117.5 49t46.5 136q0 90 -44.5 139.5t-117.5 49.5q-72 0 -118 -50t-46 -137q0 -86 44.5 -136.5t117.5 -50.5zM437 710l49 -36
q-49 -78 -114 -78q-32 0 -65.5 24t-52.5 24q-31 0 -59 -45l-44 46q50 65 110 65q33 0 66 -23.5t47 -23.5q33 0 63 47z" />
    <glyph glyph-name="p.sc" unicode="&#xe029;" horiz-adv-x="519" 
d="M202 0h-120q3 108 3 189v149q0 48 -1 113t-1 81q26 0 96 0.5t106 0.5q206 0 206 -164q0 -79 -58.5 -132t-164.5 -53h-69q0 -114 3 -184zM199 450v-183h62q56 0 85.5 25.5t29.5 70.5q0 89 -111 89q-51 0 -66 -2z" />
    <glyph glyph-name="thorn.sc" unicode="&#xe02a;" horiz-adv-x="519" 
d="M201 0h-119q3 108 3 189v156q0 150 -3 187h119q-2 -66 -2 -89h86q206 0 206 -159q0 -78 -58 -129.5t-165 -51.5h-69q0 -17 2 -103zM199 361v-177h62q56 0 85.5 24t29.5 69q0 86 -111 86q-51 0 -66 -2z" />
    <glyph glyph-name="q.sc" unicode="&#xe02b;" horiz-adv-x="640" 
d="M587 -146l-130 -28q-75 72 -157 164q-119 4 -190.5 78.5t-71.5 191.5q0 128 79.5 205.5t211.5 77.5q124 0 198.5 -74t74.5 -197q0 -101 -49.5 -171.5t-137.5 -96.5q133 -119 172 -150zM319 78q71 0 117.5 48.5t46.5 135.5q0 90 -44.5 140t-117.5 50q-72 0 -118 -50
t-46 -137q0 -86 44.5 -136.5t117.5 -50.5z" />
    <glyph glyph-name="r.sc" unicode="&#xe02c;" horiz-adv-x="543" 
d="M535 0h-138l-130 200h-67q0 -108 2 -200h-119q2 94 2 182v162q0 159 -2 188q70 1 217 1q98 0 146 -40.5t48 -109.5q0 -60 -33.5 -100.5t-87.5 -57.5zM200 451v-169h74q46 0 73 23.5t27 64.5q0 82 -103 82q-11 0 -38 -0.5t-33 -0.5z" />
    <glyph glyph-name="s.sc" unicode="&#xe02d;" horiz-adv-x="448" 
d="M39 20l10 102q71 -48 146 -48q44 0 66 17.5t22 47.5q0 31 -21.5 47.5t-87.5 40.5q-70 25 -98.5 59.5t-28.5 90.5q0 71 54 117.5t149 46.5q79 0 144 -24l-18 -96q-57 33 -122 33q-43 0 -64.5 -19.5t-21.5 -46.5q0 -32 19.5 -49t80.5 -38q76 -26 109.5 -59.5t33.5 -90.5
q0 -71 -57 -117.5t-160 -46.5q-84 0 -155 33z" />
    <glyph glyph-name="scaron.sc" unicode="&#xe02e;" horiz-adv-x="448" 
d="M39 20l10 102q71 -48 146 -48q44 0 66 17.5t22 47.5q0 31 -21.5 47.5t-87.5 40.5q-70 25 -98.5 59.5t-28.5 90.5q0 71 54 117.5t149 46.5q79 0 144 -24l-18 -96q-57 33 -122 33q-43 0 -64.5 -19.5t-21.5 -46.5q0 -32 19.5 -49t80.5 -38q76 -26 109.5 -59.5t33.5 -90.5
q0 -71 -57 -117.5t-160 -46.5q-84 0 -155 33zM253 587h-61l-114 135l81 10l66 -83l70 83l76 -13z" />
    <glyph glyph-name="t.sc" unicode="&#xe02f;" horiz-adv-x="472" 
d="M291 0h-117q3 132 3 203v238h-69q-48 0 -104 -2l2 93h461l1 -93q-56 2 -106 2h-73v-240q0 -109 2 -201z" />
    <glyph glyph-name="u.sc" unicode="&#xe030;" horiz-adv-x="629" 
d="M439 222v158q0 80 -2 152h117q-1 -29 -1 -107v-194q0 -116 -63.5 -178.5t-181.5 -62.5q-110 0 -170.5 59t-60.5 175v189q0 57 -2 119h120q-3 -99 -3 -153v-153q0 -67 33 -104.5t91 -37.5q55 0 89 34.5t34 103.5z" />
    <glyph glyph-name="uacute.sc" unicode="&#xe031;" horiz-adv-x="629" 
d="M439 222v158q0 80 -2 152h117q-1 -29 -1 -107v-194q0 -116 -63.5 -178.5t-181.5 -62.5q-110 0 -170.5 59t-60.5 175v189q0 57 -2 119h120q-3 -99 -3 -153v-153q0 -67 33 -104.5t91 -37.5q55 0 89 34.5t34 103.5zM483 705l-169 -119l-77 21l162 132z" />
    <glyph glyph-name="ucircumflex.sc" unicode="&#xe032;" horiz-adv-x="629" 
d="M439 222v158q0 80 -2 152h117q-1 -29 -1 -107v-194q0 -116 -63.5 -178.5t-181.5 -62.5q-110 0 -170.5 59t-60.5 175v189q0 57 -2 119h120q-3 -99 -3 -153v-153q0 -67 33 -104.5t91 -37.5q55 0 89 34.5t34 103.5zM462 597l-81 -10l-66 83l-70 -83l-76 13l118 132h61z" />
    <glyph glyph-name="udieresis.sc" unicode="&#xe033;" horiz-adv-x="629" 
d="M439 222v158q0 80 -2 152h117q-1 -29 -1 -107v-194q0 -116 -63.5 -178.5t-181.5 -62.5q-110 0 -170.5 59t-60.5 175v189q0 57 -2 119h120q-3 -99 -3 -153v-153q0 -67 33 -104.5t91 -37.5q55 0 89 34.5t34 103.5zM464 650q0 -23 -16 -36.5t-38 -13.5q-25 0 -40 15t-15 35
q0 23 14.5 37.5t40.5 14.5q25 0 39.5 -14t14.5 -38zM276 651q0 -23 -15.5 -35.5t-37.5 -12.5q-25 0 -40.5 13.5t-15.5 33.5q0 23 15 37.5t41 14.5q53 0 53 -51z" />
    <glyph glyph-name="ugrave.sc" unicode="&#xe034;" horiz-adv-x="629" 
d="M439 222v158q0 80 -2 152h117q-1 -29 -1 -107v-194q0 -116 -63.5 -178.5t-181.5 -62.5q-110 0 -170.5 59t-60.5 175v189q0 57 -2 119h120q-3 -99 -3 -153v-153q0 -67 33 -104.5t91 -37.5q55 0 89 34.5t34 103.5zM400 607l-77 -20l-168 120l86 33z" />
    <glyph glyph-name="v.sc" unicode="&#xe035;" horiz-adv-x="552" 
d="M328 -4h-115q-2 6 -109 281q-96 253 -97 255h128l132 -388q7 -26 9 -47h2q3 18 11 48l135 387h121l-98 -239l-47.5 -119l-43.5 -107z" />
    <glyph glyph-name="w.sc" unicode="&#xe036;" horiz-adv-x="827" 
d="M644 -2h-116l-104 348q-7 28 -13 66h-2q-4 -40 -13 -64l-114 -350h-110q-4 16 -82 275l-79 259h124l92 -351q6 -27 11 -62h2q4 29 14 60l115 353h100l106 -354q8 -27 14 -65h2q5 44 13 70l98 349h113l-83 -255q-73 -225 -88 -279z" />
    <glyph glyph-name="x.sc" unicode="&#xe037;" horiz-adv-x="547" 
d="M533 0h-136l-103 175q-11 20 -18 37q-6 -12 -22 -40l-110 -172h-134l192 266l-175 266h139l99 -177q7 -13 17 -35q4 10 18 33l110 179h127l-183 -264z" />
    <glyph glyph-name="y.sc" unicode="&#xe038;" horiz-adv-x="504" 
d="M309 0h-121q3 75 3 127v57q-9 20 -94 177l-93 171h130l100 -215q14 -29 19 -47h2q9 24 23 51l103 211h119q-5 -10 -21 -37.5l-39 -68.5l-40 -72q-79 -140 -93 -169v-56q0 -51 2 -129z" />
    <glyph glyph-name="yacute.sc" unicode="&#xe039;" horiz-adv-x="504" 
d="M309 0h-121q3 75 3 127v57q-9 20 -94 177l-93 171h130l100 -215q14 -29 19 -47h2q9 24 23 51l103 211h119q-5 -10 -21 -37.5l-39 -68.5l-40 -72q-79 -140 -93 -169v-56q0 -51 2 -129zM417 705l-169 -119l-77 21l162 132z" />
    <glyph glyph-name="ydieresis.sc" unicode="&#xe03a;" horiz-adv-x="504" 
d="M309 0h-121q3 75 3 127v57q-9 20 -94 177l-93 171h130l100 -215q14 -29 19 -47h2q9 24 23 51l103 211h119q-5 -10 -21 -37.5l-39 -68.5l-40 -72q-79 -140 -93 -169v-56q0 -51 2 -129zM399 650q0 -23 -16 -36.5t-38 -13.5q-25 0 -40 15t-15 35q0 23 14.5 37.5t40.5 14.5
q25 0 39.5 -14t14.5 -38zM211 651q0 -23 -15.5 -35.5t-37.5 -12.5q-25 0 -40.5 13.5t-15.5 33.5q0 23 15 37.5t41 14.5q53 0 53 -51z" />
    <glyph glyph-name="z.sc" unicode="&#xe03b;" horiz-adv-x="508" 
d="M479 0h-463l-5 16l310 427h-123q-80 0 -156 -3l5 92h443l5 -17l-309 -426h135q91 0 165 4z" />
    <glyph glyph-name="zcaron.sc" unicode="&#xe03c;" horiz-adv-x="508" 
d="M479 0h-463l-5 16l310 427h-123q-80 0 -156 -3l5 92h443l5 -17l-309 -426h135q91 0 165 4zM299 587h-61l-114 135l81 10l66 -83l70 83l76 -13z" />
    <glyph glyph-name="germandbls.sc" unicode="&#xe03d;" horiz-adv-x="888" 
d="M39 20l10 102q71 -48 146 -48q44 0 66 17.5t22 47.5q0 31 -21.5 47.5t-87.5 40.5q-70 25 -98.5 59.5t-28.5 90.5q0 71 54 117.5t149 46.5q79 0 144 -24l-18 -96q-57 33 -122 33q-43 0 -64.5 -19.5t-21.5 -46.5q0 -32 19.5 -49t80.5 -38q76 -26 109.5 -59.5t33.5 -90.5
q0 -71 -57 -117.5t-160 -46.5q-84 0 -155 33zM479 20l10 102q71 -48 146 -48q44 0 66 17.5t22 47.5q0 31 -21.5 47.5t-87.5 40.5q-70 25 -98.5 59.5t-28.5 90.5q0 71 54 117.5t149 46.5q79 0 144 -24l-18 -96q-57 33 -122 33q-43 0 -64.5 -19.5t-21.5 -46.5q0 -32 19.5 -49
t80.5 -38q76 -26 109.5 -59.5t33.5 -90.5q0 -71 -57 -117.5t-160 -46.5q-84 0 -155 33z" />
    <glyph glyph-name="abreve.sc" unicode="&#xe040;" horiz-adv-x="565" 
d="M560 0h-128l-53 135h-198l-50 -135h-127l108 255q79 194 108 278h128q33 -92 109 -279zM354 215l-61 172q-7 20 -13 50h-2q-7 -32 -14 -50l-60 -172h150zM339 719h71q-2 -60 -37 -93t-97 -33q-124 0 -127 127h69q0 -71 64 -71q57 0 57 70z" />
    <glyph glyph-name="amacron.sc" unicode="&#xe041;" horiz-adv-x="565" 
d="M560 0h-128l-53 135h-198l-50 -135h-127l108 255q79 194 108 278h128q33 -92 109 -279zM354 215l-61 172q-7 20 -13 50h-2q-7 -32 -14 -50l-60 -172h150zM400 603h-242v68h242v-68z" />
    <glyph glyph-name="aogonek.sc" unicode="&#xe042;" horiz-adv-x="565" 
d="M493 -153l-4 -56q-18 -2 -34 -2q-43 0 -65.5 22t-22.5 58q0 55 64 132l-52 134h-198l-50 -135h-127l108 255q79 194 108 278h128q33 -92 109 -279l103 -254h-75q-53 -74 -53 -113q0 -43 40 -43q10 0 21 3zM354 215l-61 172q-7 20 -13 50h-2q-7 -32 -14 -50l-60 -172h150z
" />
    <glyph glyph-name="aeacute.sc" unicode="&#xe043;" horiz-adv-x="777" 
d="M742 0h-353q2 43 2 135h-178l-82 -135h-134l166 255q102 156 173 277h391l2 -89q-64 2 -130 2h-94v-137h95q35 0 115 2l-5 -83q-16 0 -50 0.5t-57 0.5h-98v-142h106q30 0 135 3zM391 215v189q0 32 1 46h-2q-10 -23 -27 -50l-110 -185h138zM671 705l-169 -119l-77 21
l162 132z" />
    <glyph glyph-name="cacute.sc" unicode="&#xe044;" horiz-adv-x="513" 
d="M474 116l9 -95q-71 -33 -165 -33q-128 0 -204.5 71.5t-76.5 194.5q0 132 84 209t218 77q84 0 147 -24l-16 -101q-52 32 -125 32q-88 0 -138.5 -49t-50.5 -139q0 -83 48.5 -130.5t130.5 -47.5q79 0 139 35zM468 705l-169 -119l-77 21l162 132z" />
    <glyph glyph-name="ccaron.sc" unicode="&#xe045;" horiz-adv-x="513" 
d="M474 116l9 -95q-71 -33 -165 -33q-128 0 -204.5 71.5t-76.5 194.5q0 132 84 209t218 77q84 0 147 -24l-16 -101q-52 32 -125 32q-88 0 -138.5 -49t-50.5 -139q0 -83 48.5 -130.5t130.5 -47.5q79 0 139 35zM339 587h-61l-114 135l81 10l66 -83l70 83l76 -13z" />
    <glyph glyph-name="ccircumflex.sc" unicode="&#xe046;" horiz-adv-x="513" 
d="M474 116l9 -95q-71 -33 -165 -33q-128 0 -204.5 71.5t-76.5 194.5q0 132 84 209t218 77q84 0 147 -24l-16 -101q-52 32 -125 32q-88 0 -138.5 -49t-50.5 -139q0 -83 48.5 -130.5t130.5 -47.5q79 0 139 35zM460 597l-81 -10l-66 83l-70 -83l-76 13l118 132h61z" />
    <glyph glyph-name="cdotaccent.sc" unicode="&#xe047;" horiz-adv-x="513" 
d="M474 116l9 -95q-71 -33 -165 -33q-128 0 -204.5 71.5t-76.5 194.5q0 132 84 209t218 77q84 0 147 -24l-16 -101q-52 32 -125 32q-88 0 -138.5 -49t-50.5 -139q0 -83 48.5 -130.5t130.5 -47.5q79 0 139 35zM376 660q0 -24 -16 -38t-38 -14q-24 0 -40.5 14.5t-16.5 35.5
q0 24 15.5 39t41.5 15q25 0 39.5 -13.5t14.5 -38.5z" />
    <glyph glyph-name="dcaron.sc" unicode="&#xe048;" horiz-adv-x="621" 
d="M85 190v152q0 124 -2 190h206q295 0 295 -260q0 -124 -85.5 -198.5t-228.5 -74.5q-15 0 -84.5 0.5t-103.5 0.5q3 51 3 190zM200 445v-360h76q91 0 141 49.5t50 134.5q0 177 -187 177q-58 0 -80 -1zM346 587h-61l-114 135l81 10l66 -83l70 83l76 -13z" />
    <glyph glyph-name="dcroat.sc" unicode="&#xe049;" horiz-adv-x="621" 
d="M85 190v34h-80v88h80v30q0 124 -2 190h206q295 0 295 -260q0 -124 -85.5 -198.5t-228.5 -74.5q-15 0 -84.5 0.5t-103.5 0.5q3 51 3 190zM200 85h76q91 0 141 49.5t50 134.5q0 177 -187 177q-58 0 -80 -1v-133h121v-88h-121v-139z" />
    <glyph glyph-name="ebreve.sc" unicode="&#xe04a;" horiz-adv-x="471" 
d="M435 0h-354q3 54 3 196v147q0 157 -2 189h338l2 -89q-64 2 -130 2h-94v-137h95q35 0 115 2l-5 -83q-17 0 -51 0.5t-56 0.5h-98v-142h107q33 0 135 3zM314 719h71q-2 -60 -37 -93t-97 -33q-124 0 -127 127h69q0 -71 64 -71q57 0 57 70z" />
    <glyph glyph-name="ecaron.sc" unicode="&#xe04b;" horiz-adv-x="471" 
d="M435 0h-354q3 54 3 196v147q0 157 -2 189h338l2 -89q-64 2 -130 2h-94v-137h95q35 0 115 2l-5 -83q-17 0 -51 0.5t-56 0.5h-98v-142h107q33 0 135 3zM284 587h-61l-114 135l81 10l66 -83l70 83l76 -13z" />
    <glyph glyph-name="edotaccent.sc" unicode="&#xe04c;" horiz-adv-x="471" 
d="M435 0h-354q3 54 3 196v147q0 157 -2 189h338l2 -89q-64 2 -130 2h-94v-137h95q35 0 115 2l-5 -83q-17 0 -51 0.5t-56 0.5h-98v-142h107q33 0 135 3zM320 660q0 -24 -16 -38t-38 -14q-24 0 -40.5 14.5t-16.5 35.5q0 24 15.5 39t41.5 15q25 0 39.5 -13.5t14.5 -38.5z" />
    <glyph glyph-name="emacron.sc" unicode="&#xe04d;" horiz-adv-x="471" 
d="M435 0h-354q3 54 3 196v147q0 157 -2 189h338l2 -89q-64 2 -130 2h-94v-137h95q35 0 115 2l-5 -83q-17 0 -51 0.5t-56 0.5h-98v-142h107q33 0 135 3zM375 603h-242v68h242v-68z" />
    <glyph glyph-name="eng.sc" unicode="&#xe04e;" horiz-adv-x="675" 
d="M337 -226v90q20 -11 55 -11q94 0 94 127v37l-280 334q-10 12 -20 35h-3q6 -22 6 -41v-345h-106q2 72 2 162v218q0 96 -3 154h105l282 -347q9 -10 18 -31h2q-3 15 -3 48v328h107q-2 -74 -2 -168v-375q0 -111 -48.5 -167.5t-142.5 -56.5q-36 0 -63 9z" />
    <glyph glyph-name="eogonek.sc" unicode="&#xe04f;" horiz-adv-x="471" 
d="M373 -153l-4 -56q-22 -2 -31 -2q-91 0 -91 83q0 51 64 128h-230q3 54 3 196v147q0 157 -2 189h338l2 -89q-64 2 -130 2h-94v-137h95q35 0 115 2l-5 -83q-17 0 -51 0.5t-56 0.5h-98v-142h107q33 0 135 3l-5 -89h-70q-53 -74 -53 -113q0 -43 40 -43q10 0 21 3z" />
    <glyph glyph-name="gbreve.sc" unicode="&#xe050;" horiz-adv-x="582" 
d="M408 91v117h-115v85h225v-258q-92 -47 -203 -47q-132 0 -205 74t-73 194q0 134 84 209t215 75q101 0 179 -34l-25 -98q-67 40 -154 40q-81 0 -131.5 -49t-50.5 -138t46.5 -137.5t122.5 -48.5q48 0 85 16zM372 719h71q-2 -60 -37 -93t-97 -33q-124 0 -127 127h69
q0 -71 64 -71q57 0 57 70z" />
    <glyph glyph-name="gcircumflex.sc" unicode="&#xe051;" horiz-adv-x="582" 
d="M408 91v117h-115v85h225v-258q-92 -47 -203 -47q-132 0 -205 74t-73 194q0 134 84 209t215 75q101 0 179 -34l-25 -98q-67 40 -154 40q-81 0 -131.5 -49t-50.5 -138t46.5 -137.5t122.5 -48.5q48 0 85 16zM457 597l-81 -10l-66 83l-70 -83l-76 13l118 132h61z" />
    <glyph glyph-name="gcommaaccent.sc" unicode="&#xe052;" horiz-adv-x="582" 
d="M408 91v117h-115v85h225v-258q-92 -47 -203 -47q-132 0 -205 74t-73 194q0 134 84 209t215 75q101 0 179 -34l-25 -98q-67 40 -154 40q-81 0 -131.5 -49t-50.5 -138t46.5 -137.5t122.5 -48.5q48 0 85 16zM300 -238l-54 16q31 60 31 105q2 31 -8 63l83 13q5 -23 5 -38
q0 -74 -57 -159z" />
    <glyph glyph-name="gdotaccent.sc" unicode="&#xe053;" horiz-adv-x="582" 
d="M408 91v117h-115v85h225v-258q-92 -47 -203 -47q-132 0 -205 74t-73 194q0 134 84 209t215 75q101 0 179 -34l-25 -98q-67 40 -154 40q-81 0 -131.5 -49t-50.5 -138t46.5 -137.5t122.5 -48.5q48 0 85 16zM374 660q0 -24 -16 -38t-38 -14q-24 0 -40.5 14.5t-16.5 35.5
q0 24 15.5 39t41.5 15q25 0 39.5 -13.5t14.5 -38.5z" />
    <glyph glyph-name="hbar.sc" unicode="&#xe054;" horiz-adv-x="657" 
d="M574 0h-118q0 11 1 59.5t1 90.5v58h-258v-55q0 -123 1 -153h-118q3 111 3 180v186h-75v83h75q0 18 -0.5 46t-0.5 38h117q-2 -34 -2 -84h258l-2 84h118q-2 -42 -2 -84h76v-83h-76v-189q0 -107 2 -177zM458 294v72h-258v-72h258z" />
    <glyph glyph-name="hcircumflex.sc" unicode="&#xe055;" horiz-adv-x="657" 
d="M574 0h-119q2 66 2 150v73h-257v-70q0 -123 1 -153h-118q3 111 3 180v178q0 137 -1 174h116q-1 -27 -1 -142v-73h257v66q0 93 -2 149h119q-2 -66 -2 -182v-173q0 -107 2 -177zM477 597l-81 -10l-66 83l-70 -83l-76 13l118 132h61z" />
    <glyph glyph-name="ibreve.sc" unicode="&#xe056;" horiz-adv-x="287" 
d="M202 0h-118q2 76 2 199v140q0 141 -3 193h120q-4 -72 -4 -192v-138q0 -82 3 -202zM203 719h71q-2 -60 -37 -93t-97 -33q-124 0 -127 127h69q0 -71 64 -71q57 0 57 70z" />
    <glyph glyph-name="ij.sc" unicode="&#xe058;" horiz-adv-x="573" 
d="M202 0h-118q2 76 2 199v140q0 141 -3 193h120q-4 -72 -4 -192v-138q0 -82 3 -202zM228 -164v91q20 -11 55 -11q46 0 67.5 31.5t21.5 99.5v316q0 99 -2 169h118q-2 -72 -2 -169v-311q0 -111 -50 -167.5t-144 -56.5q-34 0 -64 8z" />
    <glyph glyph-name="imacron.sc" unicode="&#xe059;" horiz-adv-x="287" 
d="M202 0h-118q2 76 2 199v140q0 141 -3 193h120q-4 -72 -4 -192v-138q0 -82 3 -202zM264 603h-242v68h242v-68z" />
    <glyph glyph-name="iogonek.sc" unicode="&#xe05a;" horiz-adv-x="287" 
d="M195 -153l-4 -56q-22 -2 -31 -2q-46 0 -68 22.5t-22 60.5q0 49 52 128h-38q2 76 2 199v140q0 141 -3 193h120q-4 -72 -4 -192v-138q0 -82 3 -202h-25q-43 -74 -43 -113q0 -43 40 -43q12 0 21 3z" />
    <glyph glyph-name="itilde.sc" unicode="&#xe05b;" horiz-adv-x="287" 
d="M202 0h-118q2 76 2 199v140q0 141 -3 193h120q-4 -72 -4 -192v-138q0 -82 3 -202zM259 710l49 -36q-49 -78 -114 -78q-32 0 -65.5 24t-52.5 24q-31 0 -59 -45l-44 46q50 65 110 65q33 0 66 -23.5t47 -23.5q33 0 63 47z" />
    <glyph glyph-name="jcircumflex.sc" unicode="&#xe05c;" horiz-adv-x="286" 
d="M-59 -164v91q20 -11 55 -11q46 0 67.5 31.5t21.5 99.5v316q0 99 -2 169h118q-2 -72 -2 -169v-311q0 -111 -50 -167.5t-144 -56.5q-34 0 -64 8zM284 597l-81 -10l-66 83l-70 -83l-76 13l118 132h61z" />
    <glyph glyph-name="kcommaaccent.sc" unicode="&#xe05d;" horiz-adv-x="544" 
d="M542 0h-143l-178 233q-13 17 -22 33v-266h-116q2 102 2 202v159q0 81 -2 171h116v-257q13 20 21 31l174 226h134l-209 -255q112 -148 223 -277zM267 -238l-54 16q31 60 31 105q2 31 -8 63l83 13q5 -23 5 -38q0 -74 -57 -159z" />
    <glyph glyph-name="lacute.sc" unicode="&#xe05e;" horiz-adv-x="439" 
d="M428 0h-347q3 36 3 199v130q0 161 -1 203h118q-2 -53 -2 -158v-284h89q94 0 145 3zM308 705l-169 -119l-77 21l162 132z" />
    <glyph glyph-name="lcaron.sc" unicode="&#xe05f;" horiz-adv-x="439" 
d="M428 0h-347q3 36 3 199v130q0 161 -1 203h118q-2 -53 -2 -158v-284h89q94 0 145 3zM342 342l-54 16q31 60 31 105q2 31 -8 63l83 13q5 -23 5 -38q0 -74 -57 -159z" />
    <glyph glyph-name="lcommaaccent.sc" unicode="&#xe060;" horiz-adv-x="439" 
d="M428 0h-347q3 36 3 199v130q0 161 -1 203h118q-2 -53 -2 -158v-284h89q94 0 145 3zM241 -238l-54 16q31 60 31 105q2 31 -8 63l83 13q5 -23 5 -38q0 -74 -57 -159z" />
    <glyph glyph-name="ldot.sc" unicode="&#xe061;" horiz-adv-x="439" 
d="M428 0h-347q3 36 3 199v130q0 161 -1 203h118q-2 -53 -2 -158v-284h89q94 0 145 3zM411 299q0 -24 -16 -38t-38 -14q-24 0 -40.5 14.5t-16.5 35.5q0 24 15.5 39t41.5 15q25 0 39.5 -13.5t14.5 -38.5z" />
    <glyph glyph-name="nacute.sc" unicode="&#xe062;" horiz-adv-x="675" 
d="M593 -2h-95l-283 343q-11 13 -26 41h-3q3 -20 3 -57v-325h-106q2 72 2 162v203q0 106 -3 169h105l272 -337q9 -11 27 -40h2q-2 15 -2 52v323h107q-2 -74 -2 -161v-189q0 -114 2 -184zM505 705l-169 -119l-77 21l162 132z" />
    <glyph glyph-name="ncaron.sc" unicode="&#xe063;" horiz-adv-x="675" 
d="M593 -2h-95l-283 343q-11 13 -26 41h-3q3 -20 3 -57v-325h-106q2 72 2 162v203q0 106 -3 169h105l272 -337q9 -11 27 -40h2q-2 15 -2 52v323h107q-2 -74 -2 -161v-189q0 -114 2 -184zM366 587h-61l-114 135l81 10l66 -83l70 83l76 -13z" />
    <glyph glyph-name="ncommaaccent.sc" unicode="&#xe064;" horiz-adv-x="675" 
d="M593 -2h-95l-283 343q-11 13 -26 41h-3q3 -20 3 -57v-325h-106q2 72 2 162v203q0 106 -3 169h105l272 -337q9 -11 27 -40h2q-2 15 -2 52v323h107q-2 -74 -2 -161v-189q0 -114 2 -184zM330 -238l-54 16q31 60 31 105q2 31 -8 63l83 13q5 -23 5 -38q0 -74 -57 -159z" />
    <glyph glyph-name="obreve.sc" unicode="&#xe065;" horiz-adv-x="640" 
d="M602 271q0 -128 -78 -205.5t-208 -77.5q-126 0 -202 75.5t-76 195.5q0 128 79.5 205.5t211.5 77.5q124 0 198.5 -74t74.5 -197zM319 77q71 0 117.5 49t46.5 136q0 90 -44.5 139.5t-117.5 49.5q-72 0 -118 -50t-46 -137q0 -86 44.5 -136.5t117.5 -50.5zM384 719h71
q-2 -60 -37 -93t-97 -33q-124 0 -127 127h69q0 -71 64 -71q57 0 57 70z" />
    <glyph glyph-name="ohungarumlaut.sc" unicode="&#xe066;" horiz-adv-x="640" 
d="M602 271q0 -128 -78 -205.5t-208 -77.5q-126 0 -202 75.5t-76 195.5q0 128 79.5 205.5t211.5 77.5q124 0 198.5 -74t74.5 -197zM319 77q71 0 117.5 49t46.5 136q0 90 -44.5 139.5t-117.5 49.5q-72 0 -118 -50t-46 -137q0 -86 44.5 -136.5t117.5 -50.5zM408 587l-69 2
l81 148l81 -8zM272 587l-68 2l79 149l80 -7z" />
    <glyph glyph-name="omacron.sc" unicode="&#xe067;" horiz-adv-x="640" 
d="M602 271q0 -128 -78 -205.5t-208 -77.5q-126 0 -202 75.5t-76 195.5q0 128 79.5 205.5t211.5 77.5q124 0 198.5 -74t74.5 -197zM319 77q71 0 117.5 49t46.5 136q0 90 -44.5 139.5t-117.5 49.5q-72 0 -118 -50t-46 -137q0 -86 44.5 -136.5t117.5 -50.5zM443 603h-242v68
h242v-68z" />
    <glyph glyph-name="oslashacute.sc" unicode="&#xe068;" horiz-adv-x="640" 
d="M89 -38l-42 36l62 70q-71 73 -71 191q0 129 79 206t212 77q95 0 161 -45l66 74l42 -35l-64 -74q68 -75 68 -191q0 -128 -78 -205.5t-209 -77.5q-100 0 -163 46zM183 153l240 267q-42 34 -101 34q-75 0 -121 -49.5t-46 -140.5q0 -66 28 -111zM456 378l-239 -268
q43 -35 102 -35q74 0 121 49t47 138q0 70 -31 116zM497 705l-169 -119l-77 21l162 132z" />
    <glyph glyph-name="racute.sc" unicode="&#xe069;" horiz-adv-x="543" 
d="M535 0h-138l-130 200h-67q0 -108 2 -200h-119q2 94 2 182v162q0 159 -2 188q70 1 217 1q98 0 146 -40.5t48 -109.5q0 -60 -33.5 -100.5t-87.5 -57.5zM200 451v-169h74q46 0 73 23.5t27 64.5q0 82 -103 82q-11 0 -38 -0.5t-33 -0.5zM426 705l-169 -119l-77 21l162 132z
" />
    <glyph glyph-name="rcaron.sc" unicode="&#xe06a;" horiz-adv-x="543" 
d="M535 0h-138l-130 200h-67q0 -108 2 -200h-119q2 94 2 182v162q0 159 -2 188q70 1 217 1q98 0 146 -40.5t48 -109.5q0 -60 -33.5 -100.5t-87.5 -57.5zM200 451v-169h74q46 0 73 23.5t27 64.5q0 82 -103 82q-11 0 -38 -0.5t-33 -0.5zM305 587h-61l-114 135l81 10l66 -83
l70 83l76 -13z" />
    <glyph glyph-name="rcommaaccent.sc" unicode="&#xe06b;" horiz-adv-x="543" 
d="M535 0h-138l-130 200h-67q0 -108 2 -200h-119q2 94 2 182v162q0 159 -2 188q70 1 217 1q98 0 146 -40.5t48 -109.5q0 -60 -33.5 -100.5t-87.5 -57.5zM200 451v-169h74q46 0 73 23.5t27 64.5q0 82 -103 82q-11 0 -38 -0.5t-33 -0.5zM283 -238l-54 16q31 60 31 105
q2 31 -8 63l83 13q5 -23 5 -38q0 -74 -57 -159z" />
    <glyph glyph-name="sacute.sc" unicode="&#xe06c;" horiz-adv-x="448" 
d="M39 20l10 102q71 -48 146 -48q44 0 66 17.5t22 47.5q0 31 -21.5 47.5t-87.5 40.5q-70 25 -98.5 59.5t-28.5 90.5q0 71 54 117.5t149 46.5q79 0 144 -24l-18 -96q-57 33 -122 33q-43 0 -64.5 -19.5t-21.5 -46.5q0 -32 19.5 -49t80.5 -38q76 -26 109.5 -59.5t33.5 -90.5
q0 -71 -57 -117.5t-160 -46.5q-84 0 -155 33zM376 705l-169 -119l-77 21l162 132z" />
    <glyph glyph-name="scedilla.sc" unicode="&#xe06d;" horiz-adv-x="448" 
d="M148 -198l4 51q15 -3 28 -3q54 0 54 36q0 22 -17 29.5t-51 8.5l8 64q-79 5 -135 32l10 102q71 -48 146 -48q44 0 66 17.5t22 47.5q0 31 -21.5 47.5t-87.5 40.5q-70 25 -98.5 59.5t-28.5 90.5q0 71 54 117.5t149 46.5q79 0 144 -24l-18 -96q-57 33 -122 33
q-43 0 -64.5 -19.5t-21.5 -46.5q0 -32 19.5 -49t80.5 -38q76 -26 109.5 -59.5t33.5 -90.5q0 -66 -48.5 -111t-136.5 -52l-3 -30q75 -5 75 -68q0 -41 -33 -65t-90 -24q-18 0 -27 1z" />
    <glyph glyph-name="scircumflex.sc" unicode="&#xe06e;" horiz-adv-x="448" 
d="M39 20l10 102q71 -48 146 -48q44 0 66 17.5t22 47.5q0 31 -21.5 47.5t-87.5 40.5q-70 25 -98.5 59.5t-28.5 90.5q0 71 54 117.5t149 46.5q79 0 144 -24l-18 -96q-57 33 -122 33q-43 0 -64.5 -19.5t-21.5 -46.5q0 -32 19.5 -49t80.5 -38q76 -26 109.5 -59.5t33.5 -90.5
q0 -71 -57 -117.5t-160 -46.5q-84 0 -155 33zM381 597l-81 -10l-66 83l-70 -83l-76 13l118 132h61z" />
    <glyph glyph-name="scommaaccent.sc" unicode="&#xe06f;" horiz-adv-x="448" 
d="M39 20l10 102q71 -48 146 -48q44 0 66 17.5t22 47.5q0 31 -21.5 47.5t-87.5 40.5q-70 25 -98.5 59.5t-28.5 90.5q0 71 54 117.5t149 46.5q79 0 144 -24l-18 -96q-57 33 -122 33q-43 0 -64.5 -19.5t-21.5 -46.5q0 -32 19.5 -49t80.5 -38q76 -26 109.5 -59.5t33.5 -90.5
q0 -71 -57 -117.5t-160 -46.5q-84 0 -155 33zM205 -238l-54 16q31 60 31 105q2 31 -8 63l83 13q5 -23 5 -38q0 -74 -57 -159z" />
    <glyph glyph-name="tbar.sc" unicode="&#xe070;" horiz-adv-x="472" 
d="M291 0h-117l3 184h-133v83h133v174h-69q-48 0 -104 -2l2 93h461l1 -93q-56 2 -106 2h-73v-174h142v-83h-142q0 -100 2 -184z" />
    <glyph glyph-name="tcaron.sc" unicode="&#xe071;" horiz-adv-x="472" 
d="M291 0h-117q3 132 3 203v238h-69q-48 0 -104 -2l2 93h461l1 -93q-56 2 -106 2h-73v-240q0 -109 2 -201zM265 587h-61l-114 135l81 10l66 -83l70 83l76 -13z" />
    <glyph glyph-name="tcommaaccent.sc" unicode="&#xe072;" horiz-adv-x="472" 
d="M291 0h-117q3 132 3 203v238h-69q-48 0 -104 -2l2 93h461l1 -93q-56 2 -106 2h-73v-240q0 -109 2 -201zM225 -238l-54 16q31 60 31 105q2 31 -8 63l83 13q5 -23 5 -38q0 -74 -57 -159z" />
    <glyph glyph-name="ubreve.sc" unicode="&#xe073;" horiz-adv-x="629" 
d="M439 222v158q0 80 -2 152h117q-1 -29 -1 -107v-194q0 -116 -63.5 -178.5t-181.5 -62.5q-110 0 -170.5 59t-60.5 175v189q0 57 -2 119h120q-3 -99 -3 -153v-153q0 -67 33 -104.5t91 -37.5q55 0 89 34.5t34 103.5zM372 719h71q-2 -60 -37 -93t-97 -33q-124 0 -127 127h69
q0 -71 64 -71q57 0 57 70z" />
    <glyph glyph-name="uhungarumlaut.sc" unicode="&#xe074;" horiz-adv-x="629" 
d="M439 222v158q0 80 -2 152h117q-1 -29 -1 -107v-194q0 -116 -63.5 -178.5t-181.5 -62.5q-110 0 -170.5 59t-60.5 175v189q0 57 -2 119h120q-3 -99 -3 -153v-153q0 -67 33 -104.5t91 -37.5q55 0 89 34.5t34 103.5zM399 587l-69 2l81 148l81 -8zM263 587l-68 2l79 149l80 -7
z" />
    <glyph glyph-name="umacron.sc" unicode="&#xe075;" horiz-adv-x="629" 
d="M439 222v158q0 80 -2 152h117q-1 -29 -1 -107v-194q0 -116 -63.5 -178.5t-181.5 -62.5q-110 0 -170.5 59t-60.5 175v189q0 57 -2 119h120q-3 -99 -3 -153v-153q0 -67 33 -104.5t91 -37.5q55 0 89 34.5t34 103.5zM437 603h-242v68h242v-68z" />
    <glyph glyph-name="uogonek.sc" unicode="&#xe076;" horiz-adv-x="629" 
d="M397 -156l-4 -56q-18 -2 -26 -2q-95 0 -95 83q0 49 58 122q-7 -1 -22 -1q-110 0 -170.5 59t-60.5 175v189q0 57 -2 119h120q-3 -99 -3 -153v-153q0 -67 33 -104.5t91 -37.5q55 0 89 34.5t34 103.5v158q0 80 -2 152h117q-1 -29 -1 -107v-194q0 -93 -42 -152.5t-120 -78.5
q-55 -76 -55 -116q0 -42 42 -42q5 0 19 2z" />
    <glyph glyph-name="uring.sc" unicode="&#xe077;" horiz-adv-x="629" 
d="M439 222v158q0 80 -2 152h117q-1 -29 -1 -107v-194q0 -116 -63.5 -178.5t-181.5 -62.5q-110 0 -170.5 59t-60.5 175v189q0 57 -2 119h120q-3 -99 -3 -153v-153q0 -67 33 -104.5t91 -37.5q55 0 89 34.5t34 103.5zM417 678q0 -40 -30 -65.5t-72 -25.5q-44 0 -72.5 24
t-28.5 63q0 43 29.5 67t74.5 24q44 0 71.5 -23.5t27.5 -63.5zM360 676q0 19 -12.5 31.5t-31.5 12.5t-31.5 -12t-12.5 -31t12.5 -31.5t31.5 -12.5t31.5 12t12.5 31z" />
    <glyph glyph-name="utilde.sc" unicode="&#xe078;" horiz-adv-x="629" 
d="M439 222v158q0 80 -2 152h117q-1 -29 -1 -107v-194q0 -116 -63.5 -178.5t-181.5 -62.5q-110 0 -170.5 59t-60.5 175v189q0 57 -2 119h120q-3 -99 -3 -153v-153q0 -67 33 -104.5t91 -37.5q55 0 89 34.5t34 103.5zM432 718l49 -36q-49 -78 -114 -78q-32 0 -65.5 24
t-52.5 24q-31 0 -59 -45l-44 46q50 65 110 65q33 0 66 -23.5t47 -23.5q33 0 63 47z" />
    <glyph glyph-name="wacute.sc" unicode="&#xe079;" horiz-adv-x="827" 
d="M644 -2h-116l-104 348q-7 28 -13 66h-2q-4 -40 -13 -64l-114 -350h-110q-4 16 -82 275l-79 259h124l92 -351q6 -27 11 -62h2q4 29 14 60l115 353h100l106 -354q8 -27 14 -65h2q5 44 13 70l98 349h113l-83 -255q-73 -225 -88 -279zM595 705l-169 -119l-77 21l162 132z" />
    <glyph glyph-name="wcircumflex.sc" unicode="&#xe07a;" horiz-adv-x="827" 
d="M644 -2h-116l-104 348q-7 28 -13 66h-2q-4 -40 -13 -64l-114 -350h-110q-4 16 -82 275l-79 259h124l92 -351q6 -27 11 -62h2q4 29 14 60l115 353h100l106 -354q8 -27 14 -65h2q5 44 13 70l98 349h113l-83 -255q-73 -225 -88 -279zM563 597l-81 -10l-66 83l-70 -83l-76 13
l118 132h61z" />
    <glyph glyph-name="wdieresis.sc" unicode="&#xe07b;" horiz-adv-x="827" 
d="M644 -2h-116l-104 348q-7 28 -13 66h-2q-4 -40 -13 -64l-114 -350h-110q-4 16 -82 275l-79 259h124l92 -351q6 -27 11 -62h2q4 29 14 60l115 353h100l106 -354q8 -27 14 -65h2q5 44 13 70l98 349h113l-83 -255q-73 -225 -88 -279zM565 650q0 -23 -16 -36.5t-38 -13.5
q-25 0 -40 15t-15 35q0 23 14.5 37.5t40.5 14.5q25 0 39.5 -14t14.5 -38zM377 651q0 -23 -15.5 -35.5t-37.5 -12.5q-25 0 -40.5 13.5t-15.5 33.5q0 23 15 37.5t41 14.5q53 0 53 -51z" />
    <glyph glyph-name="wgrave.sc" unicode="&#xe07c;" horiz-adv-x="827" 
d="M644 -2h-116l-104 348q-7 28 -13 66h-2q-4 -40 -13 -64l-114 -350h-110q-4 16 -82 275l-79 259h124l92 -351q6 -27 11 -62h2q4 29 14 60l115 353h100l106 -354q8 -27 14 -65h2q5 44 13 70l98 349h113l-83 -255q-73 -225 -88 -279zM490 607l-77 -20l-168 120l86 33z" />
    <glyph glyph-name="ycircumflex.sc" unicode="&#xe07d;" horiz-adv-x="504" 
d="M309 0h-121q3 75 3 127v57q-9 20 -94 177l-93 171h130l100 -215q14 -29 19 -47h2q9 24 23 51l103 211h119q-5 -10 -21 -37.5l-39 -68.5l-40 -72q-79 -140 -93 -169v-56q0 -51 2 -129zM408 597l-81 -10l-66 83l-70 -83l-76 13l118 132h61z" />
    <glyph glyph-name="ygrave.sc" unicode="&#xe07e;" horiz-adv-x="504" 
d="M309 0h-121q3 75 3 127v57q-9 20 -94 177l-93 171h130l100 -215q14 -29 19 -47h2q9 24 23 51l103 211h119q-5 -10 -21 -37.5l-39 -68.5l-40 -72q-79 -140 -93 -169v-56q0 -51 2 -129zM351 607l-77 -20l-168 120l86 33z" />
    <glyph glyph-name="zacute.sc" unicode="&#xe07f;" horiz-adv-x="508" 
d="M479 0h-463l-5 16l310 427h-123q-80 0 -156 -3l5 92h443l5 -17l-309 -426h135q91 0 165 4zM420 705l-169 -119l-77 21l162 132z" />
    <glyph glyph-name="zdotaccent.sc" unicode="&#xe080;" horiz-adv-x="508" 
d="M479 0h-463l-5 16l310 427h-123q-80 0 -156 -3l5 92h443l5 -17l-309 -426h135q91 0 165 4zM325 660q0 -24 -16 -38t-38 -14q-24 0 -40.5 14.5t-16.5 35.5q0 24 15.5 39t41.5 15q25 0 39.5 -13.5t14.5 -38.5z" />
    <glyph glyph-name="idotaccent.sc" unicode="&#xe081;" horiz-adv-x="287" 
d="M202 0h-118q2 76 2 199v140q0 141 -3 193h120q-4 -72 -4 -192v-138q0 -82 3 -202zM196 660q0 -24 -16 -38t-38 -14q-24 0 -40.5 14.5t-16.5 35.5q0 24 15.5 39t41.5 15q25 0 39.5 -13.5t14.5 -38.5z" />
    <glyph glyph-name="tcedilla.sc" unicode="&#xe08a;" horiz-adv-x="472" 
d="M291 0h-117q3 132 3 203v238h-69q-48 0 -104 -2l2 93h461l1 -93q-56 2 -106 2h-73v-240q0 -109 2 -201zM225 -238l-54 16q31 60 31 105q2 31 -8 63l83 13q5 -23 5 -38q0 -74 -57 -159z" />
    <glyph glyph-name="ampersand.sc" unicode="&#xe08c;" horiz-adv-x="611" 
d="M589 6q-36 -9 -113 -23q-28 24 -65 61q-71 -59 -178 -59q-90 0 -139.5 42.5t-49.5 110.5q0 98 129 157q-61 65 -61 117t41.5 88.5t119.5 36.5q69 0 106.5 -33.5t37.5 -82.5q0 -84 -116 -140q26 -31 123 -125q37 51 49 141q8 1 43 2.5t52 3.5q-15 -111 -87 -201
q20 -20 58 -52.5t50 -43.5zM269 468q-30 0 -46 -15t-16 -39q0 -35 46 -84q41 20 57.5 39.5t16.5 45.5q0 22 -15.5 37.5t-42.5 15.5zM358 99q-99 93 -138 139q-76 -33 -76 -93q0 -38 27 -62t79 -24q28 0 58.5 10.5t49.5 29.5z" />
    <glyph glyph-name="zero.fitted" unicode="&#xe097;" horiz-adv-x="572" 
d="M281 -11q-104 0 -166.5 84t-62.5 253q0 185 66 273.5t180 88.5q109 0 165.5 -82.5t56.5 -264.5q0 -178 -64 -265t-175 -87zM290 76q114 0 114 257q0 146 -30 205.5t-84 59.5q-119 0 -120 -270q-1 -127 32 -189.5t88 -62.5z" />
    <glyph glyph-name="two.fitted" unicode="&#xe098;" horiz-adv-x="531" 
d="M468 0h-426l-13 76q98 94 206 214q66 73 88 113.5t22 78.5q0 49 -29 77.5t-80 28.5q-77 0 -145 -73l-24 107q98 66 203 66q92 0 143 -50.5t51 -137.5q0 -58 -28 -112t-87 -117l-87 -88.5l-79 -79.5h112q89 0 182 6z" />
    <glyph glyph-name="three.fitted" unicode="&#xe099;" horiz-adv-x="518" 
d="M28 34l25 100q32 -26 73.5 -40t76.5 -14q64 0 99 29.5t35 80.5q0 57 -42.5 84.5t-135.5 27.5q-34 0 -49 -1l4 89q6 0 18 -0.5t17 -0.5q169 0 169 108q0 42 -28 69t-85 27q-72 0 -132 -50l-19 98q85 47 180 47t148 -45.5t53 -115.5q0 -60 -32 -106.5t-102 -66.5
q72 -8 113.5 -51.5t41.5 -106.5q0 -92 -68.5 -149.5t-189.5 -57.5q-43 0 -91 13t-79 32z" />
    <glyph glyph-name="four.fitted" unicode="&#xe09a;" horiz-adv-x="530" 
d="M410 0h-111q2 61 2 171h-288l-12 65l304 452h103v-433h93l-13 -84h-80q0 -47 2 -171zM301 255v241q0 13 2.5 35.5t2.5 28.5h-3q-15 -41 -27 -60l-155 -245h180z" />
    <glyph glyph-name="five.fitted" unicode="&#xe09b;" horiz-adv-x="533" 
d="M61 27l12 102q64 -48 146 -48q65 0 102 33t37 92q0 93 -102 117q-31 7 -83 7q-29 0 -87 -4q1 37 7.5 171t7.5 180h350l-2 -96h-247l-6 -167h11h14h12q35 0 77 -5q80 -11 124.5 -61t44.5 -135q0 -98 -64.5 -161t-184.5 -63q-91 0 -169 38z" />
    <glyph glyph-name="six.fitted" unicode="&#xe09c;" horiz-adv-x="558" 
d="M428 702l51 -83q-121 -25 -191 -76q-37 -27 -68 -70t-40 -90q72 36 130 36q92 0 148 -52.5t56 -150.5q0 -101 -65 -164t-173 -63q-96 0 -159.5 73t-63.5 207q0 98 38.5 182t104.5 141q94 82 232 110zM171 301q-3 -27 -3 -52q0 -80 34 -125t87 -45q50 0 81.5 35.5
t31.5 90.5q0 65 -32.5 97t-89.5 32q-51 0 -109 -33z" />
    <glyph glyph-name="seven.fitted" unicode="&#xe09d;" horiz-adv-x="484" 
d="M210 0h-122l235 579h-160q-67 0 -160 -3l8 101h451l4 -10z" />
    <glyph glyph-name="eight.fitted" unicode="&#xe09e;" horiz-adv-x="561" 
d="M364 355q78 -32 112 -75.5t34 -103.5q0 -86 -63.5 -136.5t-181.5 -50.5q-94 0 -154 47.5t-60 127.5q0 63 32.5 108t109.5 79q-62 34 -88.5 73.5t-26.5 90.5q0 76 58 124.5t160 48.5q90 0 144 -44.5t54 -116.5q0 -109 -130 -172zM286 399q95 37 95 114q0 44 -25 68t-68 24
q-45 0 -70.5 -24t-25.5 -67q0 -73 94 -115zM278 306q-62 -24 -85.5 -55t-23.5 -75q0 -48 30.5 -74.5t82.5 -26.5q53 0 83 27t30 71t-26 76.5t-91 56.5z" />
    <glyph glyph-name="nine.fitted" unicode="&#xe09f;" horiz-adv-x="550" 
d="M125 -21l-52 82q103 22 173 69q40 27 75 74t48 100q-63 -36 -133 -36q-80 0 -135.5 53t-55.5 147q0 101 65 160.5t163 59.5q104 0 163.5 -70.5t59.5 -200.5q0 -101 -44 -193t-113 -146q-101 -79 -214 -99zM378 386q4 28 4 55q0 75 -32 117t-83 42q-50 0 -81 -33.5
t-31 -88.5q0 -63 33.5 -94.5t85.5 -31.5q49 0 104 34z" />
    <glyph glyph-name="zero.taboldstyle" unicode="&#xe100;" horiz-adv-x="509" 
d="M24 236q0 122 66 192.5t172 71.5q103 1 163 -66.5t60 -181.5q0 -120 -65.5 -192.5t-173.5 -72.5q-101 0 -161.5 68.5t-60.5 180.5zM254 407q-50 0 -84.5 -42t-34.5 -126q0 -74 31.5 -117t85.5 -43q56 0 88.5 43.5t32.5 119.5q0 79 -31.5 122t-87.5 43z" />
    <glyph glyph-name="one.taboldstyle" unicode="&#xe101;" horiz-adv-x="509" 
d="M348 0h-126q4 75 4 182v210l-141 -35l-3 97l263 54v-286q0 -169 3 -222z" />
    <glyph glyph-name="two.taboldstyle" unicode="&#xe102;" horiz-adv-x="509" 
d="M452 0h-397l-14 84l184 132q88 63 88 114q0 34 -23 57t-69 23q-76 0 -137 -57l-23 92q92 57 191 57q85 0 132.5 -40.5t47.5 -106.5q0 -83 -82 -146q-69 -55 -170 -119l126 1q98 2 153 7z" />
    <glyph glyph-name="three.taboldstyle" unicode="&#xe103;" horiz-adv-x="509" 
d="M32 -141l14 92q63 -33 137 -33q68 0 101.5 32t33.5 78q0 105 -161 105q-25 0 -56 -3l3 85q100 1 144.5 32t44.5 75q0 41 -26.5 64t-72.5 23q-65 0 -120 -41l-18 91q77 41 172 41q80 0 130.5 -42.5t50.5 -109.5q0 -109 -124 -157q74 -8 113.5 -48.5t39.5 -106.5
q0 -90 -71.5 -148t-187.5 -58q-81 0 -147 29z" />
    <glyph glyph-name="four.taboldstyle" unicode="&#xe104;" horiz-adv-x="509" 
d="M402 -166l-110 -16q3 174 3 201h-276l-12 68l92 130.5l112.5 160.5l80.5 118h109q-1 -122 -1 -391h93l-16 -86h-77q0 -127 2 -185zM295 105v201q0 43 1 63h-2q-10 -21 -34 -57l-140 -207h175z" />
    <glyph glyph-name="five.taboldstyle" unicode="&#xe105;" horiz-adv-x="509" 
d="M50 -145l11 100q61 -33 124 -33q67 0 104.5 29.5t37.5 82.5q0 126 -178 126q-30 0 -68 -2q23 220 32 331h324l-9 -97h-223l-17 -151h21q125 0 183 -53.5t58 -142.5q0 -90 -69.5 -152t-196.5 -62q-71 0 -134 24z" />
    <glyph glyph-name="six.taboldstyle" unicode="&#xe106;" horiz-adv-x="509" 
d="M387 661l57 -74q-108 -35 -182 -97t-97 -148q65 35 135 35q86 0 134.5 -49t48.5 -132q0 -93 -64.5 -152.5t-162.5 -59.5q-96 0 -156 66t-60 185q1 160 94.5 266.5t252.5 159.5zM158 267q-3 -18 -3 -36q0 -76 31 -116.5t82 -40.5q44 0 72.5 31t28.5 78q0 111 -108 111
q-57 0 -103 -27z" />
    <glyph glyph-name="seven.taboldstyle" unicode="&#xe107;" horiz-adv-x="509" 
d="M185 -168h-118l259 559h-133q-67 0 -160 -3l8 101h421l4 -10z" />
    <glyph glyph-name="eight.taboldstyle" unicode="&#xe108;" horiz-adv-x="509" 
d="M336 334q134 -59 134 -169q0 -77 -61.5 -127.5t-168.5 -50.5q-88 0 -144 48t-56 121q0 112 134 177q-105 63 -105 152q0 74 55.5 120.5t147.5 46.5q82 0 132.5 -44t50.5 -113q0 -98 -119 -161zM261 378q86 43 86 106q0 42 -23 65.5t-60 23.5q-39 0 -62 -24.5t-23 -65.5
q0 -62 82 -105zM255 286q-101 -41 -101 -117q0 -45 29 -72.5t74 -27.5q43 0 72.5 27.5t29.5 70.5q0 78 -104 119z" />
    <glyph glyph-name="nine.taboldstyle" unicode="&#xe109;" horiz-adv-x="509" 
d="M127 -181l-55 77q216 70 277 245q-63 -37 -131 -37q-85 0 -134.5 51t-49.5 135q0 91 65 150t160 59q98 0 157 -63t59 -183q0 -149 -94 -264.5t-254 -169.5zM357 216q3 36 3 43q0 74 -30 112.5t-81 38.5q-45 0 -74 -31t-29 -78q0 -53 28.5 -82.5t80.5 -29.5q51 0 102 27z
" />
    <glyph glyph-name="zero.denominator" unicode="&#xe10a;" horiz-adv-x="358" 
d="M35 187q0 104 41 155t110 51q137 0 137 -197q0 -100 -40 -151t-108 -51q-64 0 -102 48.5t-38 144.5zM181 333q-62 0 -62 -145q0 -136 61 -136q26 0 43 33.5t17 104.5q0 143 -59 143z" />
    <glyph glyph-name="one.denominator" unicode="&#xe10b;" horiz-adv-x="279" 
d="M201 0h-91q3 108 3 135v192l-87 -17l-1 64l173 25v-249q0 -104 3 -150z" />
    <glyph glyph-name="two.denominator" unicode="&#xe10c;" horiz-adv-x="334" 
d="M296 0h-259l-8 50q38 35 117 118q62 66 62 103q0 26 -15.5 40.5t-44.5 14.5q-50 0 -85 -40l-13 71q57 36 123 36q58 0 89 -29t31 -80q0 -58 -66 -125q-52 -54 -92 -92h62q75 0 103 3z" />
    <glyph glyph-name="three.denominator" unicode="&#xe10d;" horiz-adv-x="313" 
d="M26 17l13 65q42 -29 87 -29q35 0 54.5 15.5t19.5 41.5q0 57 -96 57q-23 0 -31 -1l4 59h23q90 0 90 54q0 22 -15 36t-45 14q-43 0 -78 -28l-12 65q54 26 110 26q60 0 92.5 -26t32.5 -67q0 -75 -79 -97q42 -5 66 -29.5t24 -60.5q0 -53 -41.5 -85.5t-116.5 -32.5
q-61 0 -102 23z" />
    <glyph glyph-name="four.denominator" unicode="&#xe10e;" horiz-adv-x="343" 
d="M265 0h-79q1 33 1 91h-161l-9 48l170 252h77q-1 -72 -1 -243h48l-7 -57h-41q0 -25 2 -91zM187 148v121q0 7 1 19t1 17h-2q-3 -13 -16 -32l-80 -125h96z" />
    <glyph glyph-name="five.denominator" unicode="&#xe10f;" horiz-adv-x="323" 
d="M33 14l9 71q35 -26 86 -26q38 0 56.5 17t18.5 44q0 65 -82 65q-30 0 -70 -5l2.5 65.5t3.5 84t3 57.5h213l-1 -66h-141l-3 -82q4 0 15 0.5t18 0.5q57 0 93 -29.5t36 -87.5q0 -53 -41 -91t-117 -38q-48 0 -99 20z" />
    <glyph glyph-name="six.denominator" unicode="&#xe110;" horiz-adv-x="348" 
d="M259 402l37 -55q-67 -12 -110 -40q-51 -33 -64 -84q38 19 75 19q54 0 87.5 -30t33.5 -86q0 -58 -40 -95t-106 -37q-58 0 -97.5 42t-39.5 121q0 114 83 183q54 46 141 62zM174 187q-25 0 -57 -17q-1 -8 -1 -26q0 -42 17.5 -66t46.5 -24q25 0 41.5 18t16.5 47q0 68 -64 68z
" />
    <glyph glyph-name="seven.denominator" unicode="&#xe111;" horiz-adv-x="310" 
d="M147 1h-89l135 319h-92q-54 0 -88 -2l5 69h275l2 -10z" />
    <glyph glyph-name="eight.denominator" unicode="&#xe112;" horiz-adv-x="338" 
d="M161 -6q-59 0 -95 27.5t-36 72.5q0 71 83 106q-68 33 -68 91q0 45 35.5 73.5t99.5 28.5q57 0 89 -26.5t32 -68.5q0 -62 -75 -96q84 -35 84 -101q0 -49 -38 -78t-111 -29zM174 340q-23 0 -37.5 -13.5t-14.5 -35.5q0 -38 51 -60q51 19 51 59q0 23 -14 36.5t-36 13.5z
M169 169q-58 -22 -58 -67q0 -25 16.5 -39t43.5 -14q28 0 44 14.5t16 37.5q0 46 -62 68z" />
    <glyph glyph-name="nine.denominator" unicode="&#xe113;" horiz-adv-x="344" 
d="M84 -12l-36 55q61 11 100 34q55 34 71 92q-37 -20 -75 -20q-48 0 -81 30.5t-33 84.5q0 58 40.5 93t100.5 35q65 0 101.5 -41.5t36.5 -115.5q0 -58 -27 -110.5t-70 -83.5q-59 -43 -128 -53zM167 333q-26 0 -42.5 -17t-16.5 -46q0 -32 18 -48.5t45 -16.5q29 0 55 17
q3 21 3 29q0 39 -17.5 60.5t-44.5 21.5z" />
    <glyph glyph-name="zero.numerator" unicode="&#xe11e;" horiz-adv-x="358" 
d="M35 478q0 104 41 155t110 51q137 0 137 -197q0 -100 -40 -151t-108 -51q-64 0 -102 48.5t-38 144.5zM181 624q-62 0 -62 -145q0 -136 61 -136q26 0 43 33.5t17 104.5q0 143 -59 143z" />
    <glyph glyph-name="one.numerator" unicode="&#xe11f;" horiz-adv-x="279" 
d="M201 291h-91q3 108 3 135v192l-87 -17l-1 64l173 25v-249q0 -103 3 -150z" />
    <glyph glyph-name="two.numerator" unicode="&#xe120;" horiz-adv-x="334" 
d="M296 291h-259l-8 50q38 35 117 118q62 66 62 103q0 26 -15.5 40.5t-44.5 14.5q-50 0 -85 -40l-13 71q57 36 123 36q58 0 89 -29t31 -80q0 -58 -66 -125q-52 -54 -92 -92h62q75 0 103 3z" />
    <glyph glyph-name="three.numerator" unicode="&#xe121;" horiz-adv-x="313" 
d="M26 308l13 65q42 -29 87 -29q35 0 54.5 15.5t19.5 41.5q0 57 -96 57q-23 0 -31 -1l4 59h23q90 0 90 54q0 22 -15 36t-45 14q-43 0 -78 -28l-12 65q54 26 110 26q60 0 92.5 -26t32.5 -67q0 -75 -79 -97q42 -5 66 -29.5t24 -60.5q0 -53 -41.5 -85.5t-116.5 -32.5
q-61 0 -102 23z" />
    <glyph glyph-name="four.numerator" unicode="&#xe122;" horiz-adv-x="343" 
d="M265 291h-79q1 33 1 91h-161l-9 48l170 252h77q-1 -72 -1 -243h48l-7 -57h-41q0 -25 2 -91zM187 439v121q0 16 2 36h-2q-9 -19 -16 -32l-80 -125h96z" />
    <glyph glyph-name="five.numerator" unicode="&#xe123;" horiz-adv-x="323" 
d="M33 305l9 71q35 -26 86 -26q38 0 56.5 17t18.5 44q0 65 -82 65q-30 0 -70 -5l2.5 65.5t3.5 84t3 57.5h213l-1 -66h-142l-4 -83q4 0 16.5 0.5t19.5 0.5q56 0 92 -28.5t36 -86.5q0 -54 -41 -92t-117 -38q-48 0 -99 20z" />
    <glyph glyph-name="six.numerator" unicode="&#xe124;" horiz-adv-x="348" 
d="M259 693l37 -55q-67 -12 -110 -40q-51 -33 -64 -84q38 19 75 19q54 0 87.5 -30t33.5 -86q0 -58 -40 -95t-106 -37q-58 0 -97.5 42t-39.5 121q0 114 83 183q54 46 141 62zM174 478q-25 0 -57 -17q-1 -10 -1 -25q0 -42 17.5 -66.5t46.5 -24.5q25 0 41.5 18t16.5 47
q0 68 -64 68z" />
    <glyph glyph-name="seven.numerator" unicode="&#xe125;" horiz-adv-x="310" 
d="M147 292h-89l135 319h-92q-54 0 -88 -2l5 69h275l2 -10z" />
    <glyph glyph-name="eight.numerator" unicode="&#xe126;" horiz-adv-x="338" 
d="M161 285q-59 0 -95 27.5t-36 72.5q0 71 83 106q-68 33 -68 91q0 45 35.5 73.5t99.5 28.5q57 0 89 -26.5t32 -68.5q0 -62 -75 -96q84 -35 84 -101q0 -49 -38 -78t-111 -29zM169 460q-58 -22 -58 -67q0 -25 16.5 -39t43.5 -14q28 0 44 14t16 38q0 46 -62 68zM174 631
q-23 0 -37.5 -13.5t-14.5 -35.5q0 -38 51 -60q51 20 51 59q0 24 -13.5 37t-36.5 13z" />
    <glyph glyph-name="nine.numerator" unicode="&#xe127;" horiz-adv-x="344" 
d="M84 279l-36 55q61 11 100 34q55 34 71 92q-37 -20 -75 -20q-48 0 -81 30.5t-33 84.5q0 58 40.5 93t100.5 35q65 0 101.5 -41.5t36.5 -115.5q0 -58 -27 -110.5t-70 -83.5q-59 -43 -128 -53zM167 624q-26 0 -42.5 -17t-16.5 -46q0 -32 18 -48.5t45 -16.5q29 0 55 17
q3 21 3 29q0 39 -17.5 60.5t-44.5 21.5z" />
    <glyph glyph-name="guillemotleft.cap" unicode="&#xe134;" horiz-adv-x="424" 
d="M402 186l-83 -32l-117 152l123 152l76 -28l-103 -124zM221 189l-82 -31l-118 150l123 154l76 -29l-102 -125z" />
    <glyph glyph-name="guillemotright.cap" unicode="&#xe135;" horiz-adv-x="424" 
d="M281 158l-75 29l103 122l-104 122l81 31l117 -153zM96 160l-77 28l104 123l-104 122l82 30l118 -152z" />
    <glyph glyph-name="guilsinglleft.cap" unicode="&#xe136;" horiz-adv-x="243" 
d="M221 189l-82 -31l-118 150l123 154l76 -29l-102 -125z" />
    <glyph glyph-name="guilsinglright.cap" unicode="&#xe137;" horiz-adv-x="243" 
d="M99 161l-77 29l104 123l-104 121l82 31l118 -152z" />
    <glyph glyph-name="braceleft.cap" unicode="&#xe139;" horiz-adv-x="319" 
d="M291 -67l-3 -84q-116 2 -154.5 51.5t-38.5 162.5v71q0 83 -17.5 113.5t-58.5 30.5v78q43 0 59.5 31t16.5 112v85q0 125 42.5 171t154.5 51l4 -83q-57 -4 -78 -37t-21 -122v-80q0 -81 -19.5 -119.5t-62.5 -47.5q45 -10 63.5 -47t18.5 -121v-69q0 -80 20 -112.5t74 -34.5z
" />
    <glyph glyph-name="braceright.cap" unicode="&#xe13a;" horiz-adv-x="319" 
d="M31 -151l-3 84q54 2 74 34.5t20 112.5v69q0 84 19 121t64 47q-43 9 -63 48t-20 119v80q0 90 -20.5 122.5t-77.5 36.5l3 83q112 -5 154.5 -51t42.5 -171v-85q0 -81 16.5 -112t59.5 -31v-78q-41 0 -58.5 -30.5t-17.5 -113.5v-71q0 -113 -38.5 -162.5t-154.5 -51.5z" />
    <glyph glyph-name="bracketleft.cap" unicode="&#xe13b;" horiz-adv-x="265" 
d="M242 -151h-206v957h206v-80h-105v-794h105v-83z" />
    <glyph glyph-name="bracketright.cap" unicode="&#xe13c;" horiz-adv-x="265" 
d="M229 -151h-206v83h105v794h-105v80h206v-957z" />
    <glyph glyph-name="emdash.cap" unicode="&#xe13d;" horiz-adv-x="684" 
d="M627 266h-569v88h569v-88z" />
    <glyph glyph-name="endash.cap" unicode="&#xe13e;" horiz-adv-x="479" 
d="M424 266h-367v88h367v-88z" />
    <glyph glyph-name="hyphen.cap" unicode="&#xe13f;" horiz-adv-x="388" 
d="M322 266h-257v88h257v-88z" />
    <glyph glyph-name="parenleft.cap" unicode="&#xe140;" horiz-adv-x="310" 
d="M284 -130l-89 -31q-151 218 -151 477q0 273 156 493l88 -22q-139 -204 -139 -459q0 -259 135 -458z" />
    <glyph glyph-name="parenright.cap" unicode="&#xe141;" horiz-adv-x="310" 
d="M112 -159l-90 28q139 202 139 465q0 253 -134 452l88 26q152 -214 152 -484q0 -265 -155 -487z" />
    <glyph glyph-name="exclamdown.cap" unicode="&#xe142;" horiz-adv-x="299" 
d="M219 625q0 -32 -19 -49t-51 -17q-33 0 -51 16.5t-18 46.5q0 29 18.5 46.5t50.5 17.5q33 0 51.5 -16.5t18.5 -44.5zM213 2h-124l10 495h102z" />
    <glyph glyph-name="questiondown.cap" unicode="&#xe143;" horiz-adv-x="418" 
d="M301 626q0 -31 -19 -48t-54 -17q-67 0 -67 64q0 29 19.5 45.5t49.5 16.5q32 0 51.5 -17t19.5 -44zM365 134l18 -99q-72 -55 -175 -55q-78 0 -127 43t-49 109q0 92 85 168q48 44 65.5 73.5t17.5 62.5q0 38 -18 72l104 8q23 -40 23 -87q0 -76 -86 -152q-41 -36 -59 -61.5
t-18 -60.5q0 -40 27 -61t67 -21q65 0 125 61z" />
    <glyph glyph-name="periodcentered.cap" unicode="&#xe22b;" horiz-adv-x="220" 
d="M180 317q0 -31 -19 -48t-49 -17q-32 0 -52 17.5t-20 45.5q0 32 19 50.5t53 18.5q32 0 50 -18t18 -49z" />
    <glyph glyph-name="Euro.sc" unicode="&#xe506;" horiz-adv-x="539" 
d="M480 101l7 -83q-62 -31 -149 -31q-89 0 -151.5 42t-83.5 122h-80l8 60h62q-1 7 -1 25q0 12 2 32h-57l9 59h59q24 82 92.5 128.5t169.5 46.5q81 0 135 -28l-26 -82q-47 28 -111 28q-113 0 -150 -93h240l-18 -59h-235q-1 -7 -1 -27q0 -21 1 -30h217l-18 -60h-185
q33 -79 143 -79q67 0 121 29z" />
    <glyph glyph-name="dollar.sc" unicode="&#xe507;" horiz-adv-x="454" 
d="M269 -97h-89v93q-69 6 -121 32l13 95q55 -47 127 -47q42 0 62.5 16t20.5 41q0 29 -21 44t-80 35q-61 22 -87.5 53.5t-26.5 81.5q0 56 36 93t97 48v91h82v-87q63 -3 101 -27l-17 -88q-52 38 -110 38q-35 0 -56 -15t-21 -45q0 -29 20 -43t75 -32q61 -19 92 -49.5t31 -85.5
q0 -51 -34.5 -90t-93.5 -51v-101z" />
    <glyph glyph-name="sterling.sc" unicode="&#xe508;" horiz-adv-x="473" 
d="M447 94l-15 -93q-28 -3 -74 -3q-24 0 -84.5 3t-92.5 3q-56 0 -115 -8l-12 66q83 30 83 104q0 11 -2 26t-2 17h-71v69h63q-8 37 -8 63q0 68 47.5 114t138.5 46q65 0 120 -21l-19 -87q-45 26 -96 26q-42 0 -64 -23t-22 -62q0 -24 8 -56l124 -1l-1 -68h-117q1 -9 1 -30
q-1 -58 -42 -94q32 2 54 2q19 0 51.5 -0.5t44.5 -0.5q63 0 102 8z" />
    <glyph glyph-name="yen.sc" unicode="&#xe509;" horiz-adv-x="489" 
d="M437 82h-134q0 -22 2 -82h-114q2 54 2 82h-133v61h133v54h-133v61h101q-31 60 -127 231h118l88 -191q6 -12 12 -40q7 26 15 41l91 190h109l-134 -231h104v-61h-134v-54h134v-61z" />
    <glyph glyph-name="bullet.cap" unicode="&#xe59d;" horiz-adv-x="321" 
d="M277 342q0 -52 -32.5 -83.5t-82.5 -31.5q-54 0 -88 31.5t-34 81.5q0 57 32 88t90 31q54 0 84.5 -30t30.5 -87z" />
    <glyph glyph-name="commaaccent" unicode="&#xf6c3;" horiz-adv-x="236" 
d="M111 -238l-54 16q31 60 31 105q2 31 -8 63l83 13q5 -23 5 -38q0 -74 -57 -159z" />
    <glyph glyph-name="Acute" unicode="&#xf6c9;" horiz-adv-x="225" 
d="M282 853l-169 -119l-77 21l162 132z" />
    <glyph glyph-name="Caron" unicode="&#xf6ca;" horiz-adv-x="258" 
d="M172 735h-61l-114 135l81 10l66 -83l70 83l76 -13z" />
    <glyph glyph-name="Dieresis" unicode="&#xf6cb;" horiz-adv-x="350" 
d="M328 798q0 -23 -16 -36.5t-38 -13.5q-25 0 -40 15t-15 35q0 23 14.5 37.5t40.5 14.5q25 0 39.5 -14t14.5 -38zM140 799q0 -23 -15.5 -35.5t-37.5 -12.5q-25 0 -40.5 13.5t-15.5 33.5q0 23 15 37.5t41 14.5q53 0 53 -51z" />
    <glyph glyph-name="Grave" unicode="&#xf6ce;" horiz-adv-x="219" 
d="M236 755l-77 -20l-168 120l86 33z" />
    <glyph glyph-name="Hungarumlaut" unicode="&#xf6cf;" horiz-adv-x="265" 
d="M210 735l-69 2l81 148l81 -8zM74 735l-68 2l79 149l80 -7z" />
    <glyph glyph-name="Macron" unicode="&#xf6d0;" horiz-adv-x="251" 
d="M253 751h-242v68h242v-68z" />
    <glyph glyph-name="one.fitted" unicode="&#xf6dc;" horiz-adv-x="429" 
d="M294 0h-126q3 93 3 238v354l-149 -33l-2 98l270 44v-442q0 -149 4 -259z" />
    <glyph glyph-name="Dotaccent" unicode="&#xf71a;" horiz-adv-x="179" 
d="M158 808q0 -24 -16 -38t-38 -14q-24 0 -40.5 14.5t-16.5 35.5q0 24 15.5 39t41.5 15q25 0 39.5 -13.5t14.5 -38.5z" />
    <glyph glyph-name="Ring" unicode="&#xf71b;" horiz-adv-x="258" 
d="M238 826q0 -40 -30 -65.5t-72 -25.5q-44 0 -72.5 24t-28.5 63q0 43 29.5 67t74.5 24q44 0 71.5 -23.5t27.5 -63.5zM181 824q0 19 -12.5 31.5t-31.5 12.5t-31.5 -12t-12.5 -31t12.5 -31.5t31.5 -12.5t31.5 12t12.5 31z" />
    <glyph glyph-name="Tilde" unicode="&#xf71c;" horiz-adv-x="304" 
d="M288 858l49 -36q-49 -78 -114 -78q-32 0 -65.5 24t-52.5 24q-31 0 -59 -45l-44 46q50 65 110 65q33 0 66 -23.5t47 -23.5q33 0 63 47z" />
    <glyph glyph-name="Breve" unicode="&#xf71d;" horiz-adv-x="258" 
d="M198 867h71q-2 -60 -37 -93t-97 -33q-124 0 -127 127h69q0 -71 64 -71q57 0 57 70z" />
    <glyph glyph-name="Circumflex" unicode="&#xf71e;" horiz-adv-x="261" 
d="M287 745l-81 -10l-66 83l-70 -83l-76 13l118 132h61z" />
    <glyph glyph-name="Cedilla" unicode="&#xf722;" horiz-adv-x="195" 
d="M28 -200l3 50q15 -3 27 -3q26 0 40.5 10t14.5 26q0 38 -58 38h-10l13 92l51 -3l-7 -55q35 -1 55 -19t20 -49q0 -38 -33 -63t-93 -25q-15 0 -23 1z" />
    <glyph glyph-name="zero.oldstyle" unicode="&#xf730;" horiz-adv-x="623" 
d="M304 -13q-112 0 -179.5 69.5t-67.5 179.5q0 116 72 190t190 74q115 0 181 -68.5t66 -179.5q0 -119 -72.5 -192t-189.5 -73zM311 81q60 0 99.5 44t39.5 117q0 75 -37 119.5t-102 44.5q-61 0 -100 -44.5t-39 -122.5q0 -73 38 -115.5t101 -42.5z" />
    <glyph glyph-name="one.oldstyle" unicode="&#xf731;" horiz-adv-x="401" 
d="M282 0h-126q4 75 4 182v210l-141 -35l-3 97l263 54v-286q0 -169 3 -222z" />
    <glyph glyph-name="two.oldstyle" unicode="&#xf732;" horiz-adv-x="506" 
d="M445 0h-397l-14 84l184 132q88 63 88 114q0 34 -23 57t-69 23q-76 0 -137 -57l-23 92q92 57 191 57q85 0 132.5 -40.5t47.5 -106.5q0 -83 -82 -146q-69 -55 -170 -119l126 1q98 2 153 7z" />
    <glyph glyph-name="three.oldstyle" unicode="&#xf733;" horiz-adv-x="478" 
d="M17 -141l14 92q63 -33 137 -33q68 0 101.5 32t33.5 78q0 105 -161 105q-24 0 -56 -3l3 85q100 1 144.5 32t44.5 75q0 41 -26.5 64t-72.5 23q-65 0 -120 -41l-18 91q77 41 172 41q80 0 130.5 -42.5t50.5 -109.5q0 -109 -124 -157q74 -8 113.5 -48.5t39.5 -106.5
q0 -90 -71.5 -148t-187.5 -58q-81 0 -147 29z" />
    <glyph glyph-name="four.oldstyle" unicode="&#xf734;" horiz-adv-x="525" 
d="M406 -166l-110 -16q3 174 3 201h-276l-12 68l92 130.5l112.5 160.5l80.5 118h109q-1 -122 -1 -391h93l-16 -86h-77q0 -127 2 -185zM299 105v201q0 43 1 63h-2q-10 -21 -34 -57l-140 -207h175z" />
    <glyph glyph-name="five.oldstyle" unicode="&#xf735;" horiz-adv-x="483" 
d="M30 -145l11 100q61 -33 124 -33q67 0 104.5 29.5t37.5 82.5q0 126 -178 126q-30 0 -68 -2q23 220 32 331h324l-9 -97h-223l-17 -151h21q125 0 183 -53.5t58 -142.5q0 -90 -69.5 -152t-196.5 -62q-71 0 -134 24z" />
    <glyph glyph-name="six.oldstyle" unicode="&#xf736;" horiz-adv-x="529" 
d="M397 661l57 -74q-108 -35 -182 -97t-97 -148q65 35 135 35q86 0 134.5 -49t48.5 -132q0 -93 -64.5 -152.5t-162.5 -59.5q-96 0 -156 66t-60 185q1 160 94.5 266.5t252.5 159.5zM168 267q-3 -18 -3 -36q0 -76 31 -116.5t82 -40.5q44 0 72.5 31t28.5 78q0 111 -108 111
q-57 0 -103 -27z" />
    <glyph glyph-name="seven.oldstyle" unicode="&#xf737;" horiz-adv-x="450" 
d="M156 -168h-118l259 559h-133q-67 0 -160 -3l8 101h421l4 -10z" />
    <glyph glyph-name="eight.oldstyle" unicode="&#xf738;" horiz-adv-x="527" 
d="M345 334q134 -59 134 -169q0 -77 -61.5 -127.5t-168.5 -50.5q-88 0 -144 48t-56 121q0 112 134 177q-105 63 -105 152q0 74 55.5 120.5t147.5 46.5q82 0 132.5 -44t50.5 -113q0 -98 -119 -161zM270 378q86 43 86 106q0 42 -23 65.5t-60 23.5q-39 0 -62 -24.5t-23 -65.5
q0 -62 82 -105zM264 286q-101 -41 -101 -117q0 -45 29 -72.5t74 -27.5q43 0 72.5 27.5t29.5 70.5q0 78 -104 119z" />
    <glyph glyph-name="nine.oldstyle" unicode="&#xf739;" horiz-adv-x="530" 
d="M131 -181l-55 77q216 70 277 245q-63 -37 -131 -37q-85 0 -134.5 51t-49.5 135q0 91 65 150t160 59q98 0 157 -63t59 -183q0 -149 -94 -264.5t-254 -169.5zM361 216q3 36 3 43q0 74 -30 112.5t-81 38.5q-45 0 -74 -31t-29 -78q0 -53 28.5 -82.5t80.5 -29.5q51 0 102 27z
" />
    <glyph glyph-name="Ogonek" horiz-adv-x="163" 
d="M142 -156l-4 -56q-18 -2 -26 -2q-95 0 -95 83q0 53 73 140h53q-62 -84 -62 -125q0 -42 42 -42q5 0 19 2z" />
    </font>
</defs>
</svg>
