<?xml version="1.0" standalone="no"?>
<!DOCTYPE svg PUBLIC "-//W3C//DTD SVG 1.1//EN" "http://www.w3.org/Graphics/SVG/1.1/DTD/svg11.dtd" >
<svg>
<metadata>
Created by FontForge 20090622 at Mon Sep 19 11:12:34 2016
 By deploy user
Copyright 2003 Monotype Imaging, Inc. All rights reserved.
</metadata>
<defs>
<font id="MundoSansPro-ExtraLight" horiz-adv-x="330" >
  <font-face 
    font-family="Mundo Sans Pro Extra Light"
    font-weight="250"
    font-stretch="normal"
    units-per-em="1000"
    panose-1="2 0 5 3 3 0 0 2 0 3"
    ascent="719"
    descent="-281"
    x-height="475"
    cap-height="677"
    bbox="-208 -264 946 914"
    underline-thickness="20"
    underline-position="-113"
    unicode-range="U+0020-U+FB04"
  />
<missing-glyph horiz-adv-x="500" 
d="M12 665h475v-665h-475v665zM88 618l162 -243l161 243h-323zM60 575v-484l161 242zM440 575l-162 -242l162 -243v485zM250 290l-162 -242h323z" />
    <glyph glyph-name="IJ" unicode="IJ" horiz-adv-x="490" 
d="M110 677h25q-2 -66 -2 -124v-419q0 -104 1 -134h-24q1 32 1 133v418q0 93 -1 126zM355 677h24q-1 -31 -1 -125v-458q0 -33 -2 -58.5t-11.5 -58.5t-25.5 -54.5t-46 -37t-71 -15.5q-30 0 -47 7v25q20 -10 51 -10q42 0 70 18.5t40 52.5t16 64t4 70v459q0 89 -1 121z" />
    <glyph glyph-name="ij" unicode="ij" horiz-adv-x="448" 
d="M138 628q0 -10 -6.5 -16.5t-16.5 -6.5t-16.5 6.5t-6.5 16.5t6.5 16.5t16.5 6.5t16.5 -6.5t6.5 -16.5zM101 474l24 3q-1 -20 -1 -98v-292q0 -67 1 -87h-24q1 19 1 86v293q0 77 -1 95zM362 628q0 -10 -6.5 -16.5t-16.5 -6.5t-17 6.5t-7 16.5t7 16.5t17 6.5t16.5 -6.5
t6.5 -16.5zM325 474l24 2q0 -13 -0.5 -54t-0.5 -71v-423q0 -182 -146 -182q-41 0 -65 12l-1 22q32 -15 64 -15q65 0 95.5 40.5t30.5 125.5v417q0 29 -0.5 72.5t-0.5 53.5z" />
    <glyph glyph-name="napostrophe" unicode="&#x27;n" horiz-adv-x="528" 
d="M436 292v-185q0 -21 0.5 -53t0.5 -54h-24q0 26 0.5 56t0.5 51v180q0 94 -31.5 135.5t-97.5 41.5q-88 0 -168 -111v-353h-23q1 50 1 107v281q0 53 -1 86l23 2v-93q79 102 175 102q76 0 110 -48t34 -145zM55 717h22q-14 -118 -77 -227l-18 5q63 119 73 222z" />
    <glyph glyph-name="f_f" unicode="ff" horiz-adv-x="464" 
d="M516 714l-5 -21q-23 9 -52 9q-110 0 -110 -142v-85h128l-3 -20h-125v-455h-23q1 34 1 116v339h-210v-455h-23q1 34 1 116v339h-71l6 20h65v86q0 80 36 120.5t98 40.5q31 0 55 -8l-5 -21q-23 9 -52 9q-110 0 -110 -142v-85h210v86q0 80 36 120.5t98 40.5q31 0 55 -8z" />
    <glyph glyph-name="fi" unicode="fi" horiz-adv-x="456" 
d="M370 628q0 -10 -6.5 -16.5t-16.5 -6.5t-16.5 6.5t-6.5 16.5t6.5 16.5t16.5 6.5t16.5 -6.5t6.5 -16.5zM329 473l24 3q-1 -20 -1 -98v-291q0 -67 1 -87h-24q1 19 1 86v292q0 77 -1 95zM284 714l-5 -21q-23 9 -52 9q-110 0 -110 -142v-85h128l-3 -20h-125v-342v-113h-23
q1 34 1 116v339h-71l6 20h65v86q0 80 36 120.5t98 40.5q31 0 55 -8z" />
    <glyph glyph-name="fl" unicode="fl" horiz-adv-x="456" 
d="M332 716l24 3q-1 -20 -1 -98v-534q0 -67 1 -87h-24q1 19 1 86v535q0 77 -1 95zM284 714l-5 -21q-23 9 -52 9q-110 0 -110 -142v-85h128l-3 -20h-125v-342v-113h-23q1 34 1 116v339h-71l6 20h65v86q0 80 36 120.5t98 40.5q31 0 55 -8z" />
    <glyph glyph-name="f_f_i" unicode="ffi" horiz-adv-x="688" 
d="M516 714l-5 -21q-23 9 -52 9q-110 0 -110 -142v-85h128l-3 -20h-125v-455h-23q1 34 1 116v339h-210v-455h-23q1 34 1 116v339h-71l6 20h65v86q0 80 36 120.5t98 40.5q31 0 55 -8l-5 -21q-23 9 -52 9q-110 0 -110 -142v-85h210v86q0 80 36 120.5t98 40.5q31 0 55 -8z
M565 474l24 3q-1 -20 -1 -98v-292q0 -67 1 -87h-24q1 19 1 86v293q0 77 -1 95zM602 628q0 -10 -6.5 -16.5t-16.5 -6.5t-16.5 6.5t-6.5 16.5t6.5 16.5t16.5 6.5t16.5 -6.5t6.5 -16.5z" />
    <glyph glyph-name="f_f_l" unicode="ffl" horiz-adv-x="688" 
d="M516 714l-5 -21q-23 9 -52 9q-110 0 -110 -142v-85h128l-3 -20h-125v-455h-23q1 34 1 116v339h-210v-455h-23q1 34 1 116v339h-71l6 20h65v86q0 80 36 120.5t98 40.5q31 0 55 -8l-5 -21q-23 9 -52 9q-110 0 -110 -142v-85h210v86q0 80 36 120.5t98 40.5q31 0 55 -8z
M564 717l24 2q-1 -26 -1 -97v-535q0 -67 1 -87h-24q1 19 1 86v536q0 71 -1 95z" />
    <glyph glyph-name=".notdef" horiz-adv-x="500" 
d="M12 665h475v-665h-475v665zM88 618l162 -243l161 243h-323zM60 575v-484l161 242zM440 575l-162 -242l162 -243v485zM250 290l-162 -242h323z" />
    <glyph glyph-name=".null" horiz-adv-x="0" 
 />
    <glyph glyph-name="nonmarkingreturn" horiz-adv-x="333" 
 />
    <glyph glyph-name="space" unicode=" " horiz-adv-x="244" 
 />
    <glyph glyph-name="exclam" unicode="!" horiz-adv-x="275" 
d="M155 675l-2 -516h-20l-2 516h24zM166 18q0 -10 -6.5 -16.5t-16.5 -6.5t-16.5 6.5t-6.5 16.5t6.5 16.5t16.5 6.5t16.5 -6.5t6.5 -16.5z" />
    <glyph glyph-name="quotedbl" unicode="&#x22;" horiz-adv-x="233" 
d="M185 717l-2 -235h-19l-2 235h23zM71 717l-2 -235h-19l-2 235h23z" />
    <glyph glyph-name="numbersign" unicode="#" horiz-adv-x="471" 
d="M363 677l-27 -212h121l-3 -21h-121l-25 -201h124l-3 -22h-124l-28 -221h-21l28 221h-126l-28 -221h-21l28 221h-121l2 22h122l25 201h-125l3 21h125l27 212h21l-27 -212h126l27 212h21zM312 444h-126l-26 -201h127z" />
    <glyph glyph-name="dollar" unicode="$" horiz-adv-x="497" 
d="M263 781l-3 -117q69 -3 119 -30l-5 -26q-46 35 -125 35q-58 0 -102.5 -37t-44.5 -96q0 -61 29 -94t114 -72q81 -37 114.5 -76t33.5 -96q0 -62 -43 -107.5t-119 -51.5v-121h-22l2 121q-45 1 -83.5 15t-59.5 31l3 28q58 -54 141 -54q72 0 114.5 38.5t42.5 97.5
q0 32 -10.5 56.5t-34.5 43.5t-41 28.5t-51 25.5q-39 18 -60.5 30.5t-46 34t-35.5 50t-11 67.5q0 63 42 106t118 52l2 118h22z" />
    <glyph glyph-name="percent" unicode="%" horiz-adv-x="651" 
d="M190 677q56 0 89.5 -38.5t33.5 -105.5t-37 -106t-95 -39q-55 0 -91 37.5t-36 100.5q0 70 38.5 110.5t97.5 40.5zM582 677l-467 -677h-26l468 677h25zM491 283q56 0 89.5 -38t33.5 -105t-37 -106.5t-94 -39.5q-55 0 -91.5 38t-36.5 101q0 69 38.5 109.5t97.5 40.5z
M185 658q-46 0 -78 -35t-32 -93t31.5 -90.5t78.5 -32.5t76.5 33.5t29.5 90.5q0 61 -30 94t-76 33zM487 265q-46 0 -78.5 -35.5t-32.5 -93.5t32 -90.5t79 -32.5t76.5 34t29.5 91q0 61 -30 94t-76 33z" />
    <glyph glyph-name="ampersand" unicode="&#x26;" horiz-adv-x="672" 
d="M564 367l21 1q-5 -153 -77 -258q81 -79 131 -120q-5 -3 -19 -10q-44 36 -124 114q-84 -104 -215 -104q-91 0 -142 51t-51 133q0 65 33 113.5t114 95.5q-42 54 -59 90.5t-17 76.5q0 57 37.5 97t102.5 40q53 0 88 -34.5t35 -87.5q0 -56 -37 -96t-121 -90q97 -122 231 -256
q66 96 69 244zM252 393q80 45 114.5 82.5t34.5 87.5q0 45 -29 75t-76 30q-56 0 -86.5 -33.5t-30.5 -82.5q0 -36 16 -71.5t57 -87.5zM483 106q-128 126 -237 263q-76 -45 -107 -88t-31 -104q0 -74 46 -120.5t132 -46.5q123 0 197 96z" />
    <glyph glyph-name="quotesingle" unicode="'" horiz-adv-x="120" 
d="M72 717l-2 -235h-19l-3 235h24z" />
    <glyph glyph-name="parenleft" unicode="(" horiz-adv-x="263" 
d="M208 761l19 -8q-142 -212 -142 -478q0 -259 135 -468l-19 -11q-140 218 -140 474q0 267 147 491z" />
    <glyph glyph-name="parenright" unicode=")" horiz-adv-x="263" 
d="M43 753l19 12q140 -218 140 -475q0 -267 -147 -491l-19 8q142 212 142 478q0 259 -135 468z" />
    <glyph glyph-name="asterisk" unicode="*" horiz-adv-x="348" 
d="M249 677l-58 -156l160 1v-18l-160 2l53 -160l-19 -6l-50 162l-138 -109l-11 17l138 103l-127 110l13 16l126 -113l54 159z" />
    <glyph glyph-name="plus" unicode="+" horiz-adv-x="497" 
d="M435 290v-21h-176v-176h-21v176h-176v21h176v176h21v-176h176z" />
    <glyph glyph-name="comma" unicode="," horiz-adv-x="195" 
d="M90 50l28 3q0 -3 0.5 -8.5t0.5 -8.5q0 -82 -39 -150l-18 5q31 60 31 124q0 19 -3 35z" />
    <glyph glyph-name="hyphen" unicode="-" horiz-adv-x="374" 
d="M297 300v-21h-220v21h220z" />
    <glyph glyph-name="period" unicode="." horiz-adv-x="195" 
d="M120 18q0 -10 -6.5 -16.5t-16.5 -6.5t-16 6.5t-6 16.5t6 16.5t16 6.5t16.5 -6.5t6.5 -16.5z" />
    <glyph glyph-name="slash" unicode="/" horiz-adv-x="350" 
d="M350 700l-329 -798h-23l330 798h22z" />
    <glyph glyph-name="zero" unicode="0" horiz-adv-x="497" 
d="M255 687q87 0 138.5 -82t51.5 -263q0 -182 -55 -267t-144 -85q-84 0 -139 82t-55 253q0 189 55 275.5t148 86.5zM254 667q-85 0 -132.5 -84t-47.5 -253q0 -153 46 -236.5t128 -83.5q80 0 128 82t48 242q0 171 -45 252t-125 81z" />
    <glyph glyph-name="one" unicode="1" horiz-adv-x="497" 
d="M287 701v-573q0 -58 2 -128h-26q2 74 2 127v548l-165 -49v23z" />
    <glyph glyph-name="two" unicode="2" horiz-adv-x="497" 
d="M100 598l-8 24q80 65 170 65q75 0 117.5 -45t42.5 -114q0 -60 -28 -110t-106 -146l-211 -253h247q68 0 116 3l-1 -22h-387l-3 18q54 59 222 265q73 88 101 139.5t28 102.5q0 63 -38 102.5t-106 39.5q-84 0 -156 -69z" />
    <glyph glyph-name="three" unicode="3" horiz-adv-x="497" 
d="M91 618l-8 21q63 48 148 48q79 0 120 -45t41 -107q0 -71 -39.5 -117.5t-104.5 -62.5q79 -9 124.5 -54.5t45.5 -118.5q0 -93 -56.5 -142.5t-156.5 -49.5q-95 0 -156 42l6 23q61 -45 154 -45q86 0 136 43t50 125q0 77 -53 120t-152 43h-58l1 21h35q91 0 146.5 45t55.5 122
q0 61 -36 99t-110 38q-78 0 -133 -48z" />
    <glyph glyph-name="four" unicode="4" horiz-adv-x="497" 
d="M360 695v-467h78l-5 -20h-73v-99q0 -17 1 -52t1 -57h-26q2 78 2 106v102h-313l-1 12l321 475h15zM339 653h-2q-10 -20 -20 -35l-263 -390h284v384q0 26 1 41z" />
    <glyph glyph-name="five" unicode="5" horiz-adv-x="497" 
d="M396 677v-21h-265l-11 -261q22 2 73 2q230 0 230 -197q0 -91 -54 -150.5t-159 -59.5q-80 0 -143 36l4 25q61 -42 145 -42q87 0 135.5 52.5t48.5 132.5q0 91 -51 137t-162 46q-45 0 -90 -3l7.5 148t6.5 155h285z" />
    <glyph glyph-name="six" unicode="6" horiz-adv-x="497" 
d="M402 701l11 -17q-117 -34 -195 -100q-105 -89 -133 -239q82 60 173 60q88 0 138 -53.5t50 -149.5q0 -92 -53 -152t-147 -60q-87 0 -138.5 70.5t-51.5 197.5q0 104 41 194t102 143q88 76 203 106zM83 323q-5 -28 -5 -63q0 -122 48 -186t126 -64q85 0 128.5 55t43.5 134
q0 89 -43.5 137.5t-127.5 48.5q-82 0 -170 -62z" />
    <glyph glyph-name="seven" unicode="7" horiz-adv-x="497" 
d="M454 677l-295 -677h-25l287 656h-271q-55 0 -107 -2l2 23h409z" />
    <glyph glyph-name="eight" unicode="8" horiz-adv-x="497" 
d="M270 358q96 -36 134 -84t38 -109q0 -83 -53.5 -129t-150.5 -46q-83 0 -133 48.5t-50 120.5q0 74 41 118t130 79q-72 35 -104 75t-32 99q0 71 47.5 114t125.5 43q67 0 112 -40t45 -108q0 -60 -35.5 -104t-114.5 -77zM250 368q78 31 112.5 72t34.5 96q0 62 -37.5 96.5
t-100.5 34.5q-66 0 -106.5 -35.5t-40.5 -98.5q0 -58 32.5 -95.5t105.5 -69.5zM247 346q-93 -35 -131 -77.5t-38 -106.5q0 -65 43.5 -108t122.5 -43q89 0 132.5 42.5t43.5 107.5q0 64 -41.5 108.5t-131.5 76.5z" />
    <glyph glyph-name="nine" unicode="9" horiz-adv-x="497" 
d="M108 -26l-16 16q111 34 175 94q104 97 142 261q-39 -28 -75.5 -43t-87.5 -15q-87 0 -136 56.5t-49 142.5q0 94 55 147.5t137 53.5q81 0 133.5 -63t52.5 -192q0 -96 -41 -195.5t-103 -156.5q-84 -77 -187 -106zM412 367q6 50 6 75q0 105 -46 165t-124 60q-73 0 -119.5 -49
t-46.5 -126q0 -85 43.5 -134.5t125.5 -49.5q87 0 161 59z" />
    <glyph glyph-name="colon" unicode=":" horiz-adv-x="195" 
d="M123 452q0 -10 -6.5 -16.5t-16.5 -6.5t-16 6.5t-6 16.5t6 16.5t16 6.5t16.5 -6.5t6.5 -16.5zM123 18q0 -10 -6.5 -16.5t-16.5 -6.5t-16 6.5t-6 16.5t6 16.5t16 6.5t16.5 -6.5t6.5 -16.5z" />
    <glyph glyph-name="semicolon" unicode=";" horiz-adv-x="195" 
d="M123 452q0 -10 -6.5 -16.5t-16.5 -6.5t-16.5 6.5t-6.5 16.5t6.5 16.5t16.5 6.5t16.5 -6.5t6.5 -16.5zM88 50l31 4v-17q0 -82 -40 -151l-18 5q30 58 30 124q0 19 -3 35z" />
    <glyph glyph-name="less" unicode="&#x3c;" horiz-adv-x="497" 
d="M400 464l9 -18l-291 -167l293 -171l-8 -17l-317 184v7z" />
    <glyph glyph-name="equal" unicode="=" horiz-adv-x="497" 
d="M435 357v-21h-373v21h373zM435 211v-20h-373v20h373z" />
    <glyph glyph-name="greater" unicode="&#x3e;" horiz-adv-x="497" 
d="M411 282v-7l-317 -184l-8 17l293 171l-291 167l9 18z" />
    <glyph glyph-name="question" unicode="?" horiz-adv-x="390" 
d="M59 615l-7 23q61 58 145 58q64 0 104 -36.5t40 -95.5q0 -51 -21.5 -90t-62.5 -81q-54 -54 -74.5 -88.5t-20.5 -80.5q0 -50 20 -90l-22 -5q-22 42 -22 92q0 49 23 88.5t73 91.5q28 29 42.5 46t28 47t13.5 62q0 62 -38 91t-89 29q-76 0 -132 -61zM200 18q0 -10 -6.5 -16.5
t-16.5 -6.5t-16.5 6.5t-6.5 16.5t6.5 16.5t16.5 6.5t16.5 -6.5t6.5 -16.5z" />
    <glyph glyph-name="at" unicode="@" horiz-adv-x="902" 
d="M596 -81l2 -25q-71 -30 -157 -30q-176 0 -273.5 106t-97.5 281q0 192 112 309.5t300 117.5q152 0 251 -97.5t99 -265.5q0 -123 -56 -201.5t-132 -78.5q-94 0 -94 129q0 3 0.5 14t0.5 18q-53 -86 -94 -120.5t-86 -34.5q-47 0 -74.5 35.5t-27.5 111.5q0 122 66.5 215.5
t166.5 93.5q42 0 105 -18q-10 -57 -20 -132q-15 -113 -15 -166q0 -71 17.5 -97.5t59.5 -26.5q62 0 111.5 70t49.5 186q0 157 -90 250t-244 93q-175 0 -280 -112t-105 -288q0 -174 94 -272t264 -98q83 0 147 33zM582 460q-40 16 -83 16q-90 0 -148.5 -87t-58.5 -197
q0 -128 85 -128q76 0 175 170q16 136 30 226z" />
    <glyph glyph-name="A" unicode="A" horiz-adv-x="562" 
d="M273 681h15l134 -358l123 -323h-24l-95 250h-288l-94 -250h-27q32 75 122 317q117 312 134 364zM281 644h-1q-1 -5 -19 -58l-116 -316h274l-119 316z" />
    <glyph glyph-name="B" unicode="B" horiz-adv-x="521" 
d="M112 143v398q0 29 -0.5 71.5t-0.5 64.5q18 0 63.5 1t68.5 1q186 0 186 -155q0 -57 -31 -103.5t-95 -61.5q75 -6 119 -49.5t44 -120.5q0 -98 -58 -144t-156 -46q-31 0 -78 0.5t-64 0.5q2 86 2 143zM134 657v-291h94q85 0 131 40.5t46 116.5q0 135 -167 135q-11 0 -51 -0.5
t-53 -0.5zM249 345h-115v-324h115q193 0 193 165q0 159 -193 159z" />
    <glyph glyph-name="C" unicode="C" horiz-adv-x="619" 
d="M575 651l-5 -27q-70 41 -176 41q-139 0 -227.5 -89.5t-88.5 -246.5q0 -140 84 -228t210 -88q117 0 193 50l2 -24q-80 -49 -198 -49q-134 0 -224 91.5t-90 245.5q0 167 97.5 263.5t245.5 96.5q97 0 177 -36z" />
    <glyph glyph-name="D" unicode="D" horiz-adv-x="700" 
d="M111 140v406q0 90 -1 131q18 0 83.5 1t93.5 1q181 0 269.5 -82t88.5 -250q0 -157 -97 -252.5t-263 -95.5q-21 0 -86 0.5t-89 0.5q0 17 0.5 62t0.5 78zM133 657v-636h154q158 0 246.5 87.5t88.5 239.5q0 154 -82 232t-255 78q-105 0 -152 -1z" />
    <glyph glyph-name="E" unicode="E" horiz-adv-x="470" 
d="M409 677l1 -24q-74 2 -117 2h-160v-301h148q86 0 111 1l-3 -24q-22 1 -110 1h-146v-309h176q80 0 119 2l-1 -25h-317q1 44 1 132v414q0 94 -1 131h299z" />
    <glyph glyph-name="F" unicode="F" horiz-adv-x="451" 
d="M414 677l1 -22q-45 1 -114 1h-168v-311h150q47 0 111 2l-2 -24q-35 1 -111 1h-148v-213q0 -84 1 -111h-24q1 33 1 117v401q0 117 -1 159h304z" />
    <glyph glyph-name="G" unicode="G" horiz-adv-x="668" 
d="M595 640l-10 -24q-79 49 -196 49q-139 0 -225 -93t-86 -231q0 -156 86 -242t223 -86q103 0 183 44v252h-177v23h201v-288q-94 -54 -216 -54q-141 0 -232 93.5t-91 253.5q0 158 97 254t243 96q111 0 200 -47z" />
    <glyph glyph-name="H" unicode="H" horiz-adv-x="699" 
d="M564 677h25q-2 -60 -2 -109v-449q0 -49 2 -119h-26q0 13 1.5 50t1.5 68v216h-433v-207q0 -104 1 -127h-24q0 7 0.5 48t0.5 76v429q0 95 -1 124h24q-1 -27 -1 -124v-198h433v224q0 23 -1 54t-1 44z" />
    <glyph glyph-name="I" unicode="I" horiz-adv-x="245" 
d="M110 677h25q-2 -66 -2 -124v-419q0 -104 1 -134h-24q1 32 1 133v418q0 93 -1 126z" />
    <glyph glyph-name="J" unicode="J" horiz-adv-x="245" 
d="M110 677h24q-1 -31 -1 -125v-458q0 -33 -2 -58.5t-11.5 -58.5t-25.5 -54.5t-46 -37t-71 -15.5q-29 0 -47 7v25q20 -10 51 -10q42 0 70 18.5t40 52.5t16 64t4 70v459q0 89 -1 121z" />
    <glyph glyph-name="K" unicode="K" horiz-adv-x="521" 
d="M454 677h30l-323 -329l349 -348h-30l-335 331q-2 2 -5.5 6t-6.5 7v-27v-317h-23q1 38 1 111v446q0 88 -1 120h23v-303v-24l5 5l4 4l4 4z" />
    <glyph glyph-name="L" unicode="L" horiz-adv-x="443" 
d="M110 677h25q-2 -43 -2 -117v-538h200q63 0 99 2l-3 -24h-319q1 30 1 128v435q0 85 -1 114z" />
    <glyph glyph-name="M" unicode="M" horiz-adv-x="864" 
d="M718 683h17q5 -173 13 -352l7.5 -182.5t6.5 -148.5h-24l-21 548q0 5 -0.5 35t-0.5 43h-1q-6 -17 -28 -69l-248 -567h-3l-259 581q-19 46 -22 54h-2q0 -42 -1 -59l-26 -566h-26q12 181 19 330l8.5 183.5t7.5 171.5h16l270 -609q13 -27 17 -39h2q2 7 17 42z" />
    <glyph glyph-name="N" unicode="N" horiz-adv-x="725" 
d="M593 677h22q-1 -51 -1 -135v-399q0 -102 1 -152h-7l-453 604q-20 27 -23 33h-2q1 -19 1 -53v-575h-21q0 20 0.5 61t0.5 64v435q0 80 -1 125h6l445 -594q1 -1 31 -45h2q-1 16 -1 56v575z" />
    <glyph glyph-name="O" unicode="O" horiz-adv-x="741" 
d="M382 687q131 0 217.5 -93.5t86.5 -249.5q0 -166 -87 -260t-235 -94q-136 0 -222.5 99t-86.5 245q0 163 89.5 258t237.5 95zM375 667q-136 0 -217 -90.5t-81 -236.5q0 -143 82 -236.5t211 -93.5t211.5 87t82.5 239t-79.5 241.5t-209.5 89.5z" />
    <glyph glyph-name="P" unicode="P" horiz-adv-x="513" 
d="M219 299h-86q0 -231 2 -299h-25q1 32 1 117v459q0 20 -0.5 54t-0.5 47q47 3 136 3q106 0 159 -45t53 -140q0 -35 -11 -66.5t-36 -62t-74.5 -49t-117.5 -18.5zM133 658v-339h83q115 0 167.5 47t52.5 128q0 82 -46 124.5t-149 42.5q-60 0 -108 -3z" />
    <glyph glyph-name="Q" unicode="Q" horiz-adv-x="741" 
d="M396 -9q111 -118 205 -172q-25 -10 -29 -11q-86 53 -205 182q-139 0 -225.5 98.5t-86.5 245.5q0 163 89.5 258t237.5 95q131 0 217.5 -93.5t86.5 -249.5q0 -157 -78 -249.5t-212 -103.5zM375 666q-136 0 -217 -90.5t-81 -235.5t81.5 -237.5t211.5 -92.5q129 0 211.5 87
t82.5 239t-79.5 241t-209.5 89z" />
    <glyph glyph-name="R" unicode="R" horiz-adv-x="525" 
d="M260 322h-127q1 -295 2 -322h-25q1 34 1 120v444q0 16 -0.5 52.5t-0.5 60.5q58 2 145 2q93 0 144 -43.5t51 -125.5q0 -80 -44.5 -128t-120.5 -57l207 -325h-31zM133 657v-314h124q79 0 124.5 44.5t45.5 120.5q0 150 -177 150q-87 0 -117 -1z" />
    <glyph glyph-name="S" unicode="S" horiz-adv-x="474" 
d="M388 654l-6 -25q-56 36 -127 36q-75 0 -118 -40t-43 -100q0 -61 30.5 -97.5t118.5 -77.5q86 -40 123.5 -81.5t37.5 -105.5q0 -78 -54 -125.5t-142 -47.5q-91 0 -154 43l3 28q63 -49 154 -49q76 0 121.5 39.5t45.5 107.5q0 59 -33 97t-127 80q-79 35 -114 77t-35 108
q0 67 49.5 116.5t142.5 49.5q71 0 127 -33z" />
    <glyph glyph-name="T" unicode="T" horiz-adv-x="486" 
d="M474 677v-22q-31 1 -89 1h-134v-540q0 -36 0.5 -71t0.5 -45h-24q1 26 1 119v537h-130q-55 0 -87 -1l1 22h461z" />
    <glyph glyph-name="U" unicode="U" horiz-adv-x="666" 
d="M539 677h26q-1 -35 -1 -112v-301q0 -274 -235 -274q-117 0 -171.5 70.5t-54.5 194.5v293q0 61 -2 129h26q-2 -62 -2 -120v-296q0 -250 212 -250q205 0 205 245v305q0 20 -3 116z" />
    <glyph glyph-name="V" unicode="V" horiz-adv-x="554" 
d="M516 677h24l-111 -288l-154 -402h-5q-18 52 -65 176.5l-76 204.5l-115 309h24l213 -575l6.5 -17l8.5 -23.5t7 -21.5h1l23 63z" />
    <glyph glyph-name="W" unicode="W" horiz-adv-x="887" 
d="M850 677h22l-95 -324l-53 -183t-52 -182h-19l-181 565q-16 53 -22 77h-2q-6 -26 -22 -75l-190 -567h-15l-113 378l-93 311h23l177 -594q11 -37 14 -54h2q6 25 15 52l199 596h9l195 -600q3 -8 4.5 -15t3.5 -15.5t4 -15.5h2q4 18 13 50z" />
    <glyph glyph-name="X" unicode="X" horiz-adv-x="542" 
d="M488 677h26l-225 -334l215 -343h-27l-189 303q-1 2 -6 10.5t-8 12.5l-16 -25l-206 -301h-28l239 343l-211 334h27l181 -291q3 -5 8 -14.5t8 -13.5q1 2 6.5 11.5t10.5 16.5z" />
    <glyph glyph-name="Y" unicode="Y" horiz-adv-x="489" 
d="M458 677h23l-115 -211l-112 -210v-144q0 -81 1 -112h-24q0 12 0.5 49t0.5 58v149l-115 218l-108 203h24l183 -347q3 -7 9 -18.5l10 -19.5l7 -14h2q14 32 27 55z" />
    <glyph glyph-name="Z" unicode="Z" horiz-adv-x="533" 
d="M507 677l1 -3l-451 -654h330q70 0 118 3l-2 -23h-481l-2 4l449 652h-292q-15 0 -59.5 -0.5t-63.5 -0.5l2 22h451z" />
    <glyph glyph-name="bracketleft" unicode="[" horiz-adv-x="219" 
d="M184 767v-19h-107v-926h107v-18h-129v963h129z" />
    <glyph glyph-name="backslash" unicode="\" horiz-adv-x="350" 
d="M32 707l327 -806l-20 -1l-329 807h22z" />
    <glyph glyph-name="bracketright" unicode="]" horiz-adv-x="219" 
d="M164 767v-963h-129v18h107v926h-107v19h129z" />
    <glyph glyph-name="asciicircum" unicode="^" horiz-adv-x="497" 
d="M255 677l157 -282l-19 -6l-140 260l-149 -260l-18 7l163 281h6z" />
    <glyph glyph-name="underscore" unicode="_" horiz-adv-x="401" 
d="M401 -102v-21h-401v21h401z" />
    <glyph glyph-name="grave" unicode="`" horiz-adv-x="219" 
d="M40 667l125 -131l-16 -6l-130 126z" />
    <glyph glyph-name="a" unicode="a" horiz-adv-x="466" 
d="M343 109v147q-114 -12 -165 -27q-99 -29 -99 -115q0 -47 28 -75t73 -28q82 0 163 98zM364 347v-264q0 -41 9.5 -57t33.5 -16q19 0 33 8v-20q-14 -8 -36 -8q-36 0 -48.5 23t-12.5 70q-42 -49 -81 -71t-87 -22q-53 0 -86 34t-33 87q0 101 112 135q56 17 175 30v61
q0 69 -27.5 98t-82.5 29q-73 0 -139 -59l-8 23q77 57 152 57q126 0 126 -138z" />
    <glyph glyph-name="b" unicode="b" horiz-adv-x="528" 
d="M94 717l23 2v-107v-218q65 91 174 91q81 0 133.5 -60t52.5 -168q0 -125 -62 -196t-152 -71q-81 0 -146 56v-46h-23q1 35 1 102v486q0 26 -0.5 70.5t-0.5 58.5zM117 366v-293q62 -62 147 -62q86 0 138 66.5t52 177.5q0 96 -45 152.5t-123 56.5q-55 0 -94 -24t-75 -74z" />
    <glyph glyph-name="c" unicode="c" horiz-adv-x="440" 
d="M411 450l-8 -25q-47 39 -122 39q-93 0 -148 -62.5t-55 -167.5q0 -107 53 -165t143 -58q30 0 68 11.5t58 26.5l5 -21q-57 -38 -135 -38q-95 0 -155 64.5t-60 174.5q0 119 62 187.5t170 68.5q71 0 124 -35z" />
    <glyph glyph-name="d" unicode="d" horiz-adv-x="531" 
d="M411 716l25 3q-2 -100 -2 -327v-202q0 -128 3 -190h-25v71q-67 -81 -163 -81q-88 0 -143 62.5t-55 178.5t62.5 185t160.5 69q78 0 138 -53q0 266 -1 284zM412 96v310q-61 59 -142 59q-90 0 -143 -65t-53 -169q0 -100 46.5 -160t133.5 -60q93 0 158 85z" />
    <glyph glyph-name="e" unicode="e" horiz-adv-x="479" 
d="M433 255h-360v-14q0 -111 52 -170t143 -59q76 0 136 45l3 -22q-66 -45 -145 -45q-98 0 -154.5 66t-56.5 183q0 104 56.5 175t154.5 71q82 0 127 -53t45 -138q0 -26 -1 -39zM74 273h338v21q0 78 -40 125t-113 47q-74 0 -126 -53t-59 -140z" />
    <glyph glyph-name="f" unicode="f" horiz-adv-x="232" 
d="M284 714l-5 -21q-23 9 -52 9q-110 0 -110 -142v-85h128l-3 -20h-125v-342v-113h-23q1 34 1 116v339h-71l6 20h65v86q0 80 36 120.5t98 40.5q31 0 55 -8z" />
    <glyph glyph-name="g" unicode="g" horiz-adv-x="470" 
d="M467 476v-21l-101 -22q37 -42 37 -104q0 -67 -45.5 -113t-120.5 -46q-49 0 -77 15q-73 -46 -73 -85q0 -33 23.5 -46t76.5 -13q9 0 50 2.5t60 2.5q71 0 110 -32.5t39 -94.5q0 -63 -56 -113.5t-159 -50.5q-91 0 -138 37.5t-47 95.5q0 76 89 137q-70 13 -70 68
q0 25 17.5 48.5t62.5 52.5q-35 21 -53 56t-18 74q0 63 44.5 112t126.5 49q65 0 108 -36q27 5 114 27zM381 326q0 65 -39 102.5t-101 37.5q-63 0 -104 -40t-41 -101q0 -56 36.5 -95.5t106.5 -39.5q66 0 104 39.5t38 96.5zM158 20q-90 -59 -90 -128q0 -54 43.5 -86t123.5 -32
q85 0 137 45t52 96q0 111 -138 111q-16 0 -60 -3t-68 -3z" />
    <glyph glyph-name="h" unicode="h" horiz-adv-x="528" 
d="M117 719v-336q79 102 175 102q76 0 110 -48t34 -145v-185q0 -21 0.5 -53t0.5 -54h-24q0 26 0.5 56t0.5 51v180q0 94 -31.5 135.5t-97.5 41.5q-88 0 -168 -111v-353h-23q1 50 1 107v281q0 296 -1 329z" />
    <glyph glyph-name="i" unicode="i" horiz-adv-x="224" 
d="M138 628q0 -10 -6.5 -16.5t-16.5 -6.5t-16.5 6.5t-6.5 16.5t6.5 16.5t16.5 6.5t16.5 -6.5t6.5 -16.5zM101 474l24 3q-1 -20 -1 -98v-292q0 -67 1 -87h-24q1 19 1 86v293q0 77 -1 95z" />
    <glyph glyph-name="j" unicode="j" horiz-adv-x="224" 
d="M138 628q0 -10 -6.5 -16.5t-16.5 -6.5t-17 6.5t-7 16.5t7 16.5t17 6.5t16.5 -6.5t6.5 -16.5zM101 474l24 2q0 -13 -0.5 -54t-0.5 -71v-423q0 -182 -146 -182q-41 0 -65 12l-1 22q32 -15 64 -15q65 0 95.5 40.5t30.5 125.5v417q0 29 -0.5 72.5t-0.5 53.5z" />
    <glyph glyph-name="k" unicode="k" horiz-adv-x="408" 
d="M362 475h32l-247 -229q96 -104 242 -246h-31l-240 242v-242h-24q2 56 2 96v513q0 23 -0.5 60.5t-0.5 47.5l23 2v-474z" />
    <glyph glyph-name="l" unicode="l" horiz-adv-x="224" 
d="M100 717l24 2q-1 -26 -1 -97v-535q0 -67 1 -87h-24q1 19 1 86v536q0 71 -1 95z" />
    <glyph glyph-name="m" unicode="m" horiz-adv-x="807" 
d="M715 303v-215q0 -64 1 -88h-23v297q0 89 -27 128t-91 39q-83 0 -161 -113v-351h-22v325q0 62 -30 100.5t-90 38.5q-81 0 -155 -111v-353h-23q0 10 0.5 35.5t0.5 42.5v299q0 73 -1 98l23 1v-94q79 103 165 103q50 0 82.5 -29.5t43.5 -82.5q78 112 175 112q40 0 67 -14.5
t40.5 -41.5t19 -57t5.5 -69z" />
    <glyph glyph-name="n" unicode="n" horiz-adv-x="528" 
d="M436 292v-185q0 -21 0.5 -53t0.5 -54h-24q0 26 0.5 56t0.5 51v180q0 94 -31.5 135.5t-97.5 41.5q-88 0 -168 -111v-353h-23q1 50 1 107v281q0 53 -1 86l23 2v-93q79 102 175 102q76 0 110 -48t34 -145z" />
    <glyph glyph-name="o" unicode="o" horiz-adv-x="534" 
d="M274 485q96 0 152.5 -66t56.5 -179q0 -115 -62 -182.5t-158 -67.5q-93 0 -152.5 67t-59.5 177q0 118 62.5 184.5t160.5 66.5zM270 466q-88 0 -142.5 -62t-54.5 -166q0 -105 54 -166t139 -61q86 0 140 60.5t54 165.5q0 110 -52 169.5t-138 59.5z" />
    <glyph glyph-name="p" unicode="p" horiz-adv-x="530" 
d="M118 476v-81q70 90 174 90q82 0 134.5 -59t52.5 -167q0 -117 -58.5 -193t-161.5 -76q-75 0 -141 55q0 -259 2 -308l-26 -1q2 174 2 387v253q0 73 -1 98zM118 366v-296q66 -59 139 -59q94 0 146 66t52 177q0 102 -47 156t-123 54q-102 0 -167 -98z" />
    <glyph glyph-name="q" unicode="q" horiz-adv-x="530" 
d="M416 475h19q-2 -66 -2 -116v-512q0 -16 3 -106h-26q0 10 0.5 47t0.5 61v219q-65 -78 -154 -78q-94 0 -150 62t-56 179q0 116 62.5 185t160.5 69q77 0 137 -48zM411 92v318q-53 55 -141 55q-90 0 -143 -65t-53 -169q0 -101 47.5 -160.5t139.5 -59.5q88 0 150 81z" />
    <glyph glyph-name="r" unicode="r" horiz-adv-x="303" 
d="M297 481l-1 -23q-14 5 -39 5q-82 0 -140 -142v-235q0 -62 1 -86h-24q0 12 0.5 40t0.5 46v306q0 16 -0.5 44t-0.5 38l23 1v-119q52 129 151 129q18 0 29 -4z" />
    <glyph glyph-name="s" unicode="s" horiz-adv-x="362" 
d="M296 460l-7 -23q-40 29 -98 29q-53 0 -82 -29.5t-29 -72.5q0 -49 23 -71.5t87 -46.5q59 -23 90 -51t31 -78q0 -51 -36.5 -89t-113.5 -38q-62 0 -115 32l6 25q47 -35 114 -35q60 0 90.5 28t30.5 71q0 47 -27 71.5t-92 48.5q-60 23 -85 51.5t-25 77.5q0 51 36 88t105 37
q51 0 97 -25z" />
    <glyph glyph-name="t" unicode="t" horiz-adv-x="265" 
d="M248 475l-3 -20h-131v-337q0 -107 83 -107q30 0 55 14v-20q-32 -15 -61 -15q-99 0 -99 122v343h-74l6 20h68v99l22 9v-108h134z" />
    <glyph glyph-name="u" unicode="u" horiz-adv-x="529" 
d="M410 474l25 1q-2 -82 -2 -97v-300q0 -16 1 -43t1 -35h-24v91q-75 -101 -169 -101q-48 0 -80 16t-46 45.5t-19 58.5t-5 68v200q0 21 -0.5 52t-0.5 44l25 2q-2 -68 -2 -98v-196q0 -87 28.5 -129t104.5 -42q89 0 164 109v258q0 54 -1 96z" />
    <glyph glyph-name="v" unicode="v" horiz-adv-x="431" 
d="M386 475h22l-87 -227l-98 -257h-20l-100 268l-40 109t-40 107h23l153 -411q11 -34 13 -43h2q5 19 13 41z" />
    <glyph glyph-name="w" unicode="w" horiz-adv-x="704" 
d="M652 475h22l-150 -484h-26l-135 424q-5 15 -5 29h-3q-3 -18 -8 -33l-143 -420h-23l-152 484h23l134 -431q2 -5 3.5 -16t2.5 -14h1q1 2 2 8.5t2.5 12.5t3.5 11l147 429h17l139 -433q3 -10 7 -28h1q4 20 7 29z" />
    <glyph glyph-name="x" unicode="x" horiz-adv-x="410" 
d="M353 475h27l-161 -236l157 -239h-26l-147 221l-149 -221h-25l161 239l-154 236h27q79 -127 142 -219z" />
    <glyph glyph-name="y" unicode="y" horiz-adv-x="433" 
d="M387 475h23l-145 -374l-139 -360h-26l102 256l-179 478h24l153 -411q12 -35 13 -42h1q8 24 14 40z" />
    <glyph glyph-name="z" unicode="z" horiz-adv-x="397" 
d="M340 455h-204q-58 0 -83 -1l3 21h327q-4 -4 -84.5 -117.5l-158.5 -225.5l-79 -112h220q82 0 100 1l-4 -21h-357z" />
    <glyph glyph-name="braceleft" unicode="{" horiz-adv-x="255" 
d="M233 767l2 -18q-59 -9 -77.5 -41t-18.5 -131v-147q0 -83 -17 -116t-51 -39q23 -4 36.5 -14.5t22.5 -45t9 -97.5v-135q0 -88 16.5 -120.5t73.5 -40.5l-3 -18q-68 9 -88.5 45t-20.5 132v133q0 35 -1 55t-6 41t-15 31.5t-27 17.5t-43 7v18q58 0 75 30.5t17 116.5v152
q0 100 25 138t91 46z" />
    <glyph glyph-name="bar" unicode="|" horiz-adv-x="131" 
d="M76 840v-1096h-21v1096h21z" />
    <glyph glyph-name="braceright" unicode="}" horiz-adv-x="255" 
d="M20 749l3 18q66 -8 91 -46t25 -138v-152q0 -87 16.5 -117t74.5 -30v-18q-60 0 -75.5 -33t-15.5 -119v-133q0 -96 -20.5 -132t-88.5 -45l-3 18q57 8 73.5 40.5t16.5 120.5v135q0 63 9 97.5t22.5 45t36.5 14.5q-34 6 -51 39t-17 116v147q0 99 -18.5 131t-78.5 41z" />
    <glyph glyph-name="asciitilde" unicode="~" horiz-adv-x="497" 
d="M439 318l19 -13q-46 -72 -122 -72q-39 0 -91 36.5t-86 36.5q-59 0 -103 -60l-17 13q52 70 124 70q35 0 88.5 -37t89.5 -37q62 0 98 63z" />
    <glyph glyph-name="uni00A0" unicode="&#xa0;" horiz-adv-x="497" 
 />
    <glyph glyph-name="exclamdown" unicode="&#xa1;" horiz-adv-x="275" 
d="M138 486q10 0 16 -6.5t6 -16.5t-6 -16.5t-16 -6.5t-16.5 6.5t-6.5 16.5t6.5 16.5t16.5 6.5zM148 322l3 -516h-26l3 516h20z" />
    <glyph glyph-name="cent" unicode="&#xa2;" horiz-adv-x="497" 
d="M300 665l-3 -103q61 -1 122 -30l-6 -25q-44 33 -129 33q-80 0 -135 -58t-55 -165q0 -103 54 -157t136 -54q77 0 129 37l3 -22q-61 -35 -133 -38v-105l-24 -1l2 107q-89 10 -139 71t-50 160q0 103 55 172t151 75v103h22z" />
    <glyph glyph-name="sterling" unicode="&#xa3;" horiz-adv-x="497" 
d="M440 663l-6 -22q-42 28 -106 28q-69 0 -113 -46.5t-44 -124.5q0 -36 14 -154h199l-3 -19h-193q6 -61 6 -101q0 -134 -88 -205q48 5 108 5q33 0 86.5 -2t66.5 -2q63 0 110 6l-4 -24q-36 -4 -96 -4q-23 0 -82 2.5t-98 2.5q-84 0 -140 -11l-4 12q58 33 88.5 89.5t30.5 125.5
q0 41 -7 106h-106l2 19h101q-13 111 -13 153q0 87 51 139.5t132 52.5q61 0 108 -26z" />
    <glyph glyph-name="currency" unicode="&#xa4;" horiz-adv-x="583" 
d="M450 206l92 -92l-14 -15l-93 93q-62 -56 -145 -56q-82 0 -143 55l-92 -92l-15 15l92 92q-56 62 -56 145q0 82 56 144l-92 92l15 15l92 -93q61 55 144 55q85 0 144 -55l93 93l14 -15l-92 -93q55 -59 55 -144q0 -83 -55 -144zM485 350q0 80 -57 137t-137 57t-137 -57
t-57 -137t57 -137t137 -57t137 57t57 137z" />
    <glyph glyph-name="yen" unicode="&#xa5;" horiz-adv-x="497" 
d="M414 677h25l-174 -318h138v-18h-144v-129h144v-17h-144q0 -174 1 -195h-24q1 38 1 195h-149v17h149v129h-149v18h143l-173 318h26l148 -274q9 -16 17 -35q7 17 17 36z" />
    <glyph glyph-name="brokenbar" unicode="&#xa6;" horiz-adv-x="131" 
d="M76 840v-472h-21v472h21zM76 250v-506h-21v505z" />
    <glyph glyph-name="section" unicode="&#xa7;" horiz-adv-x="377" 
d="M304 653l-7 -24q-37 25 -100 25q-61 0 -91.5 -31t-30.5 -84t30 -81t118 -65q54 -23 85 -59.5t31 -82.5q0 -95 -91 -152q56 -37 56 -108q0 -61 -38.5 -100t-116.5 -39q-56 0 -110 26l4 28q54 -31 107 -31q64 0 97.5 29.5t33.5 81.5q0 21 -5.5 37.5t-11 26.5t-20.5 21
t-21 15t-27 13.5t-25 11.5q-65 31 -101.5 67t-36.5 96q0 91 87 144q-69 45 -69 117q0 59 39 100t112 41q49 0 102 -23zM140 407q-85 -45 -85 -128q0 -53 35.5 -89.5t138.5 -78.5q87 43 87 133q0 54 -36 86.5t-140 76.5z" />
    <glyph glyph-name="dieresis" unicode="&#xa8;" horiz-adv-x="350" 
d="M273 575q0 -8 -6.5 -14.5t-14.5 -6.5t-14 6.5t-6 14.5t6 14t14 6t14.5 -6t6.5 -14zM114 575q0 -8 -6.5 -14.5t-14.5 -6.5t-14 6.5t-6 14.5t6 14t14 6t14.5 -6t6.5 -14z" />
    <glyph glyph-name="copyright" unicode="&#xa9;" horiz-adv-x="737" 
d="M372 684q138 0 233 -96t95 -246q0 -148 -92 -247.5t-237 -99.5q-143 0 -236.5 98t-93.5 247t94 246.5t237 97.5zM371 665q-136 0 -223 -93t-87 -232q0 -144 89.5 -234.5t220.5 -90.5q132 0 220.5 91.5t88.5 233.5t-89 233.5t-220 91.5zM506 530l-6 -22q-48 28 -111 28
q-83 0 -134.5 -53.5t-51.5 -147.5q0 -83 50.5 -135.5t122.5 -52.5q76 0 123 33l2 -23q-51 -31 -128 -31q-79 0 -135.5 58.5t-56.5 149.5q0 101 60 162t151 61q62 0 114 -27z" />
    <glyph glyph-name="ordfeminine" unicode="&#xaa;" horiz-adv-x="306" 
d="M233 579v-161q0 -36 27 -36q12 0 22 7l1 -17q-18 -10 -30 -10q-42 0 -42 54q-26 -31 -46.5 -42.5t-47.5 -11.5q-34 0 -54.5 20.5t-20.5 53.5q0 62 71 85q32 10 98 18v37q0 69 -62 69q-46 0 -84 -37l-5 23q45 34 93 34q80 0 80 -86zM211 439v82q-62 -7 -94 -18
q-53 -17 -53 -64q0 -27 16 -42.5t44 -15.5q44 0 87 58z" />
    <glyph glyph-name="guillemotleft" unicode="&#xab;" horiz-adv-x="358" 
d="M312 355l-106 -106l104 -104l-16 -16l-116 120l118 120zM167 361l-105 -112l103 -98l-15 -16l-117 114l118 126z" />
    <glyph glyph-name="logicalnot" unicode="&#xac;" horiz-adv-x="497" 
d="M435 357v-186h-21v165h-352v21h373z" />
    <glyph glyph-name="uni00AD" unicode="&#xad;" horiz-adv-x="374" 
d="M297 300v-21h-220v21h220z" />
    <glyph glyph-name="registered" unicode="&#xae;" horiz-adv-x="494" 
d="M454 476q0 -86 -61 -146.5t-146 -60.5t-146 60.5t-61 146.5q0 85 60.5 145.5t146.5 60.5t146.5 -60.5t60.5 -145.5zM437 476q0 79 -55.5 134.5t-134.5 55.5t-135 -55.5t-56 -134.5t56 -135t135 -56t134.5 56t55.5 135zM337 346h-24q-11 17 -38 62.5t-36 59.5h-50v-122
h-19q0 12 0.5 39.5t0.5 53.5v75q0 74 -1 97q24 1 68 1q80 0 80 -67q0 -27 -15.5 -47t-43.5 -27q48 -83 78 -125zM189 596v-112h49q26 0 43.5 16.5t17.5 42.5q0 54 -64 54q-7 0 -25 -0.5t-21 -0.5z" />
    <glyph glyph-name="macron" unicode="&#xaf;" horiz-adv-x="251" 
d="M207 582v-22h-167v22h167z" />
    <glyph glyph-name="degree" unicode="&#xb0;" horiz-adv-x="346" 
d="M302 574q0 -53 -38 -91t-91 -38t-91 38t-38 91t38 90.5t91 37.5t91 -37.5t38 -90.5zM282 574q0 45 -32 76.5t-77 31.5t-77.5 -31.5t-32.5 -76.5t32.5 -77t77.5 -32t77 32t32 77z" />
    <glyph glyph-name="plusminus" unicode="&#xb1;" horiz-adv-x="497" 
d="M260 530v-175h174v-23h-174v-175h-24v175h-174v23h174v175h24zM435 75v-21h-373v21h373z" />
    <glyph glyph-name="two.superior" unicode="&#xb2;" 
d="M68 717l-6 21q49 45 114 45q48 0 75 -26.5t27 -69.5q0 -54 -83 -142l-124 -134h95q59 0 123 2l-1 -22h-244l-3 18q57 57 138 147q46 51 61 77t15 52q0 35 -21 57t-63 22q-61 0 -103 -47z" />
    <glyph glyph-name="three.superior" unicode="&#xb3;" 
d="M76 733l-8 19q46 31 96 31q51 0 77 -25.5t26 -63.5q0 -36 -21 -63t-65 -38q45 -4 72.5 -27t27.5 -66q0 -52 -36.5 -83.5t-100.5 -31.5q-22 0 -51.5 8.5t-44.5 20.5l8 20q40 -29 94 -29q50 0 79 25t29 64q0 88 -130 88q-20 0 -31 -1l2 20h16q71 0 100.5 25t29.5 61t-22 57
t-66 21q-45 0 -81 -32z" />
    <glyph glyph-name="acute" unicode="&#xb4;" horiz-adv-x="219" 
d="M201 656l-129 -126l-17 6l125 131z" />
    <glyph glyph-name="mu" unicode="&#xb5;" horiz-adv-x="519" 
d="M413 474l24 1q-1 -41 -1 -97v-300q0 -16 0.5 -43t0.5 -35h-23v88q-32 -54 -69.5 -77t-88.5 -23q-52 0 -88 27.5t-51 70.5v-259q0 -67 1 -87h-24q1 19 1 86v552q0 21 -0.5 52t-0.5 44l24 2q-1 -34 -1 -98v-191q0 -81 37.5 -129.5t106.5 -48.5q90 0 153 108v261q0 54 -1 96
z" />
    <glyph glyph-name="paragraph" unicode="&#xb6;" horiz-adv-x="414" 
d="M377 673v-21h-66v-743h-22v743h-124v-743h-22v569q-47 0 -76 27t-29 72q0 43 28 69.5t68 26.5h243z" />
    <glyph glyph-name="periodcentered" unicode="&#xb7;" horiz-adv-x="195" 
d="M120 296q0 -10 -6.5 -16.5t-16.5 -6.5t-16 6.5t-6 16.5t6 16.5t16 6.5t16.5 -6.5t6.5 -16.5z" />
    <glyph glyph-name="cedilla" unicode="&#xb8;" horiz-adv-x="188" 
d="M85 4l-5 -61q29 0 48.5 -16.5t19.5 -47.5q0 -37 -30 -62.5t-73 -25.5l-2 18q34 -2 60 18.5t26 48.5q0 26 -16 38t-52 12l7 78h17z" />
    <glyph glyph-name="one.superior" unicode="&#xb9;" 
d="M199 792v-264q0 -23 0.5 -72t0.5 -65h-24q1 32 1 137v237l-99 -26v21z" />
    <glyph glyph-name="ordmasculine" unicode="&#xba;" horiz-adv-x="336" 
d="M174 666q60 0 95 -39.5t35 -111.5q0 -71 -39.5 -115t-98.5 -44q-57 0 -95 42t-38 109q0 74 39.5 116.5t101.5 42.5zM171 647q-50 0 -83.5 -37t-33.5 -100t32.5 -98t82.5 -35t81 37.5t31 99.5q0 66 -30.5 99.5t-79.5 33.5z" />
    <glyph glyph-name="guillemotright" unicode="&#xbb;" horiz-adv-x="358" 
d="M194 375l118 -126l-117 -114l-15 16l103 98l-105 112zM49 369l119 -120l-117 -120l-16 16l104 104l-106 106z" />
    <glyph glyph-name="onequarter" unicode="&#xbc;" horiz-adv-x="679" 
d="M587 677l-468 -677h-25l468 677h25zM199 692v-264q0 -23 0.5 -72t0.5 -65h-24q1 32 1 137v237l-99 -26v21zM582 396h12v-261h48l-6 -17h-42q0 -76 1 -118h-22q1 39 1 118h-186l-3 8zM576 359h-2q-8 -16 -18 -31l-140 -193h158v185q0 15 2 39z" />
    <glyph glyph-name="onehalf" unicode="&#xbd;" horiz-adv-x="727" 
d="M587 677l-468 -677h-25l468 677h25zM199 692v-264q0 -23 0.5 -72t0.5 -65h-24q1 32 1 137v237l-99 -26v21zM465 326l-6 21q49 45 114 45q48 0 75 -26.5t27 -69.5q0 -54 -83 -142l-124 -134h95q59 0 123 2l-1 -22h-244l-3 18q57 57 138 147q46 51 61 77t15 52q0 35 -21 57
t-63 22q-61 0 -103 -47z" />
    <glyph glyph-name="threequarters" unicode="&#xbe;" horiz-adv-x="721" 
d="M629 677l-468 -677h-25l468 677h25zM76 633l-8 19q46 31 96 31q51 0 77 -25.5t26 -63.5q0 -36 -21 -63t-65 -38q45 -4 72.5 -27t27.5 -66q0 -52 -36.5 -83.5t-100.5 -31.5q-22 0 -51.5 8.5t-44.5 20.5l8 20q40 -29 94 -29q50 0 79 25t29 64q0 88 -130 88q-20 0 -31 -1
l2 20h16q71 0 100.5 25t29.5 61t-22 57t-66 21q-45 0 -81 -32zM624 396h12v-261h48l-6 -17h-42q0 -76 1 -118h-22q1 39 1 118h-186l-3 8zM618 359h-2q-8 -16 -18 -31l-140 -193h158v185q0 15 2 39z" />
    <glyph glyph-name="questiondown" unicode="&#xbf;" horiz-adv-x="390" 
d="M241 462q0 -10 -6.5 -16t-16.5 -6t-16.5 6t-6.5 16t6.5 16.5t16.5 6.5t16.5 -6.5t6.5 -16.5zM213 346l21 6q23 -44 23 -93q0 -48 -23 -88t-74 -92q-27 -27 -41.5 -45.5t-27.5 -48t-13 -61.5q0 -62 37.5 -90.5t89.5 -28.5q71 0 131 60l7 -23q-60 -58 -145 -58
q-65 0 -105.5 37t-40.5 95q0 51 22 90t63 81q55 56 75.5 92t20.5 76q0 51 -20 91z" />
    <glyph glyph-name="Agrave" unicode="&#xc0;" horiz-adv-x="562" 
d="M273 681h15l134 -358l123 -323h-24l-95 250h-288l-94 -250h-27q32 75 122 317q117 312 134 364zM281 644h-1q-1 -5 -19 -58l-116 -316h274l-119 316zM200 869l125 -131l-16 -6l-130 126z" />
    <glyph glyph-name="Aacute" unicode="&#xc1;" horiz-adv-x="562" 
d="M273 681h15l134 -358l123 -323h-24l-95 250h-288l-94 -250h-27q32 75 122 317q117 312 134 364zM281 644h-1q-1 -5 -19 -58l-116 -316h274l-119 316zM382 858l-129 -126l-17 6l125 131z" />
    <glyph glyph-name="Acircumflex" unicode="&#xc2;" horiz-adv-x="562" 
d="M273 681h15l134 -358l123 -323h-24l-95 250h-288l-94 -250h-27q32 75 122 317q117 312 134 364zM281 644h-1q-1 -5 -19 -58l-116 -316h274l-119 316zM288 872l103 -133l-19 -7l-90 116l-86 -116l-19 7l101 133h10z" />
    <glyph glyph-name="Atilde" unicode="&#xc3;" horiz-adv-x="562" 
d="M273 681h15l134 -358l123 -323h-24l-95 250h-288l-94 -250h-27q32 75 122 317q117 312 134 364zM281 644h-1q-1 -5 -19 -58l-116 -316h274l-119 316zM400 824l17 -13q-38 -66 -78 -66q-31 0 -67 32q-29 25 -49 25q-35 0 -64 -59l-14 12q36 67 79 67q31 0 66 -33
q26 -24 47 -24q17 0 31 13t32 46z" />
    <glyph glyph-name="Adieresis" unicode="&#xc4;" horiz-adv-x="562" 
d="M273 681h15l134 -358l123 -323h-24l-95 250h-288l-94 -250h-27q32 75 122 317q117 312 134 364zM281 644h-1q-1 -5 -19 -58l-116 -316h274l-119 316zM380 777q0 -8 -6.5 -14.5t-14.5 -6.5t-14 6.5t-6 14.5t6 14t14 6t14.5 -6t6.5 -14zM221 777q0 -8 -6.5 -14.5
t-14.5 -6.5t-14 6.5t-6 14.5t6 14t14 6t14.5 -6t6.5 -14z" />
    <glyph glyph-name="Aring" unicode="&#xc5;" horiz-adv-x="562" 
d="M273 681h15l134 -358l123 -323h-24l-95 250h-288l-94 -250h-27q32 75 122 317q117 312 134 364zM281 644h-1q-1 -5 -19 -58l-116 -316h274l-119 316zM359 811q0 -32 -22.5 -55.5t-53.5 -23.5q-33 0 -55.5 21.5t-22.5 53.5q0 34 23 56.5t56 22.5t54 -22t21 -53zM283 869
q-24 0 -41 -16.5t-17 -42.5q0 -27 16.5 -43.5t41.5 -16.5q24 0 40 17t16 42q0 27 -16 43.5t-40 16.5z" />
    <glyph glyph-name="AE" unicode="&#xc6;" horiz-adv-x="796" 
d="M735 677l1 -24q-74 2 -117 2h-160v-301h148q86 0 111 1l-3 -24q-22 1 -110 1h-146v-309h176q80 0 119 2l-1 -25h-318q0 6 1 40t1 69v146h-245q-150 -240 -160 -255h-30l192 299l238 378h303zM414 610l-208 -335h231v323q0 9 1.5 28t1.5 28q-4 -8 -14.5 -25t-11.5 -19z
" />
    <glyph glyph-name="Ccedilla" unicode="&#xc7;" horiz-adv-x="619" 
d="M575 651l-5 -27q-70 41 -176 41q-139 0 -227.5 -89.5t-88.5 -246.5q0 -140 84 -228t210 -88q117 0 193 50l2 -24q-80 -49 -196 -49l-4 -47q29 0 48.5 -16.5t19.5 -47.5q0 -37 -30 -62.5t-73 -25.5l-2 18q34 -2 60 18.5t26 48.5q0 26 -16 38t-52 12l6 64q-128 5 -213.5 96
t-85.5 241q0 167 97.5 263.5t245.5 96.5q97 0 177 -36z" />
    <glyph glyph-name="Egrave" unicode="&#xc8;" horiz-adv-x="470" 
d="M409 677l1 -24q-74 2 -117 2h-160v-301h148q86 0 111 1l-3 -24q-22 1 -110 1h-146v-309h176q80 0 119 2l-1 -25h-317q1 44 1 132v414q0 94 -1 131h299zM203 869l125 -131l-16 -6l-130 126z" />
    <glyph glyph-name="Eacute" unicode="&#xc9;" horiz-adv-x="470" 
d="M409 677l1 -24q-74 2 -117 2h-160v-301h148q86 0 111 1l-3 -24q-22 1 -110 1h-146v-309h176q80 0 119 2l-1 -25h-317q1 44 1 132v414q0 94 -1 131h299zM382 858l-129 -126l-17 6l125 131z" />
    <glyph glyph-name="Ecircumflex" unicode="&#xca;" horiz-adv-x="470" 
d="M409 677l1 -24q-74 2 -117 2h-160v-301h148q86 0 111 1l-3 -24q-22 1 -110 1h-146v-309h176q80 0 119 2l-1 -25h-317q1 44 1 132v414q0 94 -1 131h299zM277 872l103 -133l-19 -7l-90 116l-86 -116l-19 7l101 133h10z" />
    <glyph glyph-name="Edieresis" unicode="&#xcb;" horiz-adv-x="470" 
d="M409 677l1 -24q-74 2 -117 2h-160v-301h148q86 0 111 1l-3 -24q-22 1 -110 1h-146v-309h176q80 0 119 2l-1 -25h-317q1 44 1 132v414q0 94 -1 131h299zM373 777q0 -8 -6.5 -14.5t-14.5 -6.5t-14 6.5t-6 14.5t6 14t14 6t14.5 -6t6.5 -14zM214 777q0 -8 -6.5 -14.5
t-14.5 -6.5t-14 6.5t-6 14.5t6 14t14 6t14.5 -6t6.5 -14z" />
    <glyph glyph-name="Igrave" unicode="&#xcc;" horiz-adv-x="245" 
d="M110 677h25q-2 -66 -2 -124v-419q0 -104 1 -134h-24q1 32 1 133v418q0 93 -1 126zM51 869l125 -131l-16 -6l-130 126z" />
    <glyph glyph-name="Iacute" unicode="&#xcd;" horiz-adv-x="245" 
d="M110 677h25q-2 -66 -2 -124v-419q0 -104 1 -134h-24q1 32 1 133v418q0 93 -1 126zM217 858l-129 -126l-17 6l125 131z" />
    <glyph glyph-name="Icircumflex" unicode="&#xce;" horiz-adv-x="245" 
d="M110 677h25q-2 -66 -2 -124v-419q0 -104 1 -134h-24q1 32 1 133v418q0 93 -1 126zM129 872l103 -133l-19 -7l-90 116l-86 -116l-19 7l101 133h10z" />
    <glyph glyph-name="Idieresis" unicode="&#xcf;" horiz-adv-x="245" 
d="M110 677h25q-2 -66 -2 -124v-419q0 -104 1 -134h-24q1 32 1 133v418q0 93 -1 126zM222 777q0 -8 -6.5 -14.5t-14.5 -6.5t-14 6.5t-6 14.5t6 14t14 6t14.5 -6t6.5 -14zM63 777q0 -8 -6.5 -14.5t-14.5 -6.5t-14 6.5t-6 14.5t6 14t14 6t14.5 -6t6.5 -14z" />
    <glyph glyph-name="Eth" unicode="&#xd0;" horiz-adv-x="700" 
d="M111 343v203q0 49 -2 131q18 0 84.5 1t94.5 1q181 0 269 -82t88 -250q0 -157 -96.5 -252.5t-262.5 -95.5q-21 0 -87 0.5t-90 0.5q0 17 1 62t1 78v181h-101v22h101zM133 657v-314h171v-22h-171v-300h155q158 0 246 87.5t88 239.5q0 154 -81.5 232t-254.5 78
q-106 0 -153 -1z" />
    <glyph glyph-name="Ntilde" unicode="&#xd1;" horiz-adv-x="725" 
d="M593 677h22q-1 -51 -1 -135v-399q0 -102 1 -152h-7l-453 604q-20 27 -23 33h-2q1 -19 1 -53v-575h-21q0 20 0.5 61t0.5 64v435q0 80 -1 125h6l445 -594q1 -1 31 -45h2q-1 16 -1 56v575zM484 824l17 -13q-38 -66 -78 -66q-31 0 -67 32q-29 25 -49 25q-35 0 -64 -59l-14 12
q36 67 79 67q31 0 66 -33q26 -24 47 -24q17 0 31 13t32 46z" />
    <glyph glyph-name="Ograve" unicode="&#xd2;" horiz-adv-x="741" 
d="M382 687q131 0 217.5 -93.5t86.5 -249.5q0 -166 -87 -260t-235 -94q-136 0 -222.5 99t-86.5 245q0 163 89.5 258t237.5 95zM375 667q-136 0 -217 -90.5t-81 -236.5q0 -143 82 -236.5t211 -93.5t211.5 87t82.5 239t-79.5 241.5t-209.5 89.5zM302 869l125 -131l-16 -6
l-130 126z" />
    <glyph glyph-name="Oacute" unicode="&#xd3;" horiz-adv-x="741" 
d="M382 687q131 0 217.5 -93.5t86.5 -249.5q0 -166 -87 -260t-235 -94q-136 0 -222.5 99t-86.5 245q0 163 89.5 258t237.5 95zM375 667q-136 0 -217 -90.5t-81 -236.5q0 -143 82 -236.5t211 -93.5t211.5 87t82.5 239t-79.5 241.5t-209.5 89.5zM470 858l-129 -126l-17 6
l125 131z" />
    <glyph glyph-name="Ocircumflex" unicode="&#xd4;" horiz-adv-x="741" 
d="M382 687q131 0 217.5 -93.5t86.5 -249.5q0 -166 -87 -260t-235 -94q-136 0 -222.5 99t-86.5 245q0 163 89.5 258t237.5 95zM375 667q-136 0 -217 -90.5t-81 -236.5q0 -143 82 -236.5t211 -93.5t211.5 87t82.5 239t-79.5 241.5t-209.5 89.5zM376 872l103 -133l-19 -7
l-90 116l-86 -116l-19 7l101 133h10z" />
    <glyph glyph-name="Otilde" unicode="&#xd5;" horiz-adv-x="741" 
d="M382 687q131 0 217.5 -93.5t86.5 -249.5q0 -166 -87 -260t-235 -94q-136 0 -222.5 99t-86.5 245q0 163 89.5 258t237.5 95zM375 667q-136 0 -217 -90.5t-81 -236.5q0 -143 82 -236.5t211 -93.5t211.5 87t82.5 239t-79.5 241.5t-209.5 89.5zM493 824l17 -13
q-38 -66 -78 -66q-31 0 -67 32q-29 25 -49 25q-34 0 -64 -59l-14 12q36 67 79 67q31 0 66 -33q26 -24 47 -24q17 0 31 13t32 46z" />
    <glyph glyph-name="Odieresis" unicode="&#xd6;" horiz-adv-x="741" 
d="M382 687q131 0 217.5 -93.5t86.5 -249.5q0 -166 -87 -260t-235 -94q-136 0 -222.5 99t-86.5 245q0 163 89.5 258t237.5 95zM375 667q-136 0 -217 -90.5t-81 -236.5q0 -143 82 -236.5t211 -93.5t211.5 87t82.5 239t-79.5 241.5t-209.5 89.5zM472 777q0 -8 -6.5 -14.5
t-14.5 -6.5t-14 6.5t-6 14.5t6 14t14 6t14.5 -6t6.5 -14zM313 777q0 -8 -6.5 -14.5t-14.5 -6.5t-14 6.5t-6 14.5t6 14t14 6t14.5 -6t6.5 -14z" />
    <glyph glyph-name="multiply" unicode="&#xd7;" horiz-adv-x="497" 
d="M411 426l-148 -147l148 -147l-16 -17l-147 148l-147 -148l-16 17l148 147l-148 147l16 16l147 -148l147 148z" />
    <glyph glyph-name="Oslash" unicode="&#xd8;" horiz-adv-x="741" 
d="M681 673l-77 -85q82 -95 82 -244q0 -166 -87 -260t-235 -94q-130 0 -217 92l-78 -86l-16 12l81 90q-79 96 -79 236q0 163 89.5 258t237.5 95q122 0 207 -83l76 83zM149 115l426 472q-77 80 -200 80q-136 0 -217 -90.5t-81 -236.5q0 -134 72 -225zM589 571l-427 -472
q81 -89 208 -89q129 0 211.5 87t82.5 239q0 146 -75 235z" />
    <glyph glyph-name="Ugrave" unicode="&#xd9;" horiz-adv-x="666" 
d="M539 677h26q-1 -35 -1 -112v-301q0 -274 -235 -274q-117 0 -171.5 70.5t-54.5 194.5v293q0 61 -2 129h26q-2 -62 -2 -120v-296q0 -250 212 -250q205 0 205 245v305q0 20 -3 116zM278 869l125 -131l-16 -6l-130 126z" />
    <glyph glyph-name="Uacute" unicode="&#xda;" horiz-adv-x="666" 
d="M539 677h26q-1 -35 -1 -112v-301q0 -274 -235 -274q-117 0 -171.5 70.5t-54.5 194.5v293q0 61 -2 129h26q-2 -62 -2 -120v-296q0 -250 212 -250q205 0 205 245v305q0 20 -3 116zM434 858l-129 -126l-17 6l125 131z" />
    <glyph glyph-name="Ucircumflex" unicode="&#xdb;" horiz-adv-x="666" 
d="M539 677h26q-1 -35 -1 -112v-301q0 -274 -235 -274q-117 0 -171.5 70.5t-54.5 194.5v293q0 61 -2 129h26q-2 -62 -2 -120v-296q0 -250 212 -250q205 0 205 245v305q0 20 -3 116zM349 872l103 -133l-19 -7l-90 116l-86 -116l-19 7l101 133h10z" />
    <glyph glyph-name="Udieresis" unicode="&#xdc;" horiz-adv-x="666" 
d="M539 677h26q-1 -35 -1 -112v-301q0 -274 -235 -274q-117 0 -171.5 70.5t-54.5 194.5v293q0 61 -2 129h26q-2 -62 -2 -120v-296q0 -250 212 -250q205 0 205 245v305q0 20 -3 116zM436 777q0 -8 -6.5 -14.5t-14.5 -6.5t-14 6.5t-6 14.5t6 14t14 6t14.5 -6t6.5 -14zM277 777
q0 -8 -6.5 -14.5t-14.5 -6.5t-14 6.5t-6 14.5t6 14t14 6t14.5 -6t6.5 -14z" />
    <glyph glyph-name="Yacute" unicode="&#xdd;" horiz-adv-x="489" 
d="M458 677h23l-115 -211l-112 -210v-144q0 -81 1 -112h-24q0 12 0.5 49t0.5 58v149l-115 218l-108 203h24l183 -347q3 -7 9 -18.5l10 -19.5l7 -14h2q14 32 27 55zM358 858l-129 -126l-17 6l125 131z" />
    <glyph glyph-name="Thorn" unicode="&#xde;" horiz-adv-x="513" 
d="M219 164h-86v-47q0 -49 2 -117h-25q1 32 1 117v459q0 73 -1 101h23v-137q10 0 56 2t57 2q106 0 159 -45t53 -140q0 -35 -11 -66.5t-36 -62t-74.5 -48.5t-117.5 -18zM133 522v-339h83q115 0 167.5 47t52.5 128q0 83 -46.5 125.5t-148.5 42.5q-44 0 -108 -4z" />
    <glyph glyph-name="germandbls" unicode="&#xdf;" horiz-adv-x="474" 
d="M117 520v-520h-22v526q0 89 40 142t119 53q61 0 91.5 -31.5t30.5 -77.5q0 -48 -47 -95q-48 -48 -48 -108q0 -37 16 -65t58 -66q46 -42 65.5 -76.5t19.5 -73.5q0 -66 -37.5 -101.5t-93.5 -35.5q-59 0 -99 24l6 25q37 -27 96 -27q45 0 75.5 28.5t30.5 79.5q0 41 -18.5 72
t-59.5 69q-48 44 -65.5 75t-17.5 72q0 64 53 117q44 44 44 83q0 40 -27 66.5t-75 26.5q-135 0 -135 -182z" />
    <glyph glyph-name="agrave" unicode="&#xe0;" horiz-adv-x="466" 
d="M343 109v147q-114 -12 -165 -27q-99 -29 -99 -115q0 -47 28 -75t73 -28q82 0 163 98zM364 347v-264q0 -41 9.5 -57t33.5 -16q19 0 33 8v-20q-14 -8 -36 -8q-36 0 -48.5 23t-12.5 70q-42 -49 -81 -71t-87 -22q-53 0 -86 34t-33 87q0 101 112 135q56 17 175 30v61
q0 69 -27.5 98t-82.5 29q-73 0 -139 -59l-8 23q77 57 152 57q126 0 126 -138zM156 667l125 -131l-16 -6l-130 126z" />
    <glyph glyph-name="aacute" unicode="&#xe1;" horiz-adv-x="466" 
d="M343 109v147q-114 -12 -165 -27q-99 -29 -99 -115q0 -47 28 -75t73 -28q82 0 163 98zM364 347v-264q0 -41 9.5 -57t33.5 -16q19 0 33 8v-20q-14 -8 -36 -8q-36 0 -48.5 23t-12.5 70q-42 -49 -81 -71t-87 -22q-53 0 -86 34t-33 87q0 101 112 135q56 17 175 30v61
q0 69 -27.5 98t-82.5 29q-73 0 -139 -59l-8 23q77 57 152 57q126 0 126 -138zM330 656l-129 -126l-17 6l125 131z" />
    <glyph glyph-name="acircumflex" unicode="&#xe2;" horiz-adv-x="466" 
d="M343 109v147q-114 -12 -165 -27q-99 -29 -99 -115q0 -47 28 -75t73 -28q82 0 163 98zM364 347v-264q0 -41 9.5 -57t33.5 -16q19 0 33 8v-20q-14 -8 -36 -8q-36 0 -48.5 23t-12.5 70q-42 -49 -81 -71t-87 -22q-53 0 -86 34t-33 87q0 101 112 135q56 17 175 30v61
q0 69 -27.5 98t-82.5 29q-73 0 -139 -59l-8 23q77 57 152 57q126 0 126 -138zM229 670l103 -133l-19 -7l-90 116l-86 -116l-19 7l101 133h10z" />
    <glyph glyph-name="atilde" unicode="&#xe3;" horiz-adv-x="466" 
d="M343 109v147q-114 -12 -165 -27q-99 -29 -99 -115q0 -47 28 -75t73 -28q82 0 163 98zM364 347v-264q0 -41 9.5 -57t33.5 -16q19 0 33 8v-20q-14 -8 -36 -8q-36 0 -48.5 23t-12.5 70q-42 -49 -81 -71t-87 -22q-53 0 -86 34t-33 87q0 101 112 135q56 17 175 30v61
q0 69 -27.5 98t-82.5 29q-73 0 -139 -59l-8 23q77 57 152 57q126 0 126 -138zM343 622l17 -13q-38 -66 -78 -66q-31 0 -67 32q-29 25 -49 25q-34 0 -64 -59l-14 12q36 67 79 67q31 0 66 -33q26 -24 47 -24q17 0 31 13t32 46z" />
    <glyph glyph-name="adieresis" unicode="&#xe4;" horiz-adv-x="466" 
d="M343 109v147q-114 -12 -165 -27q-99 -29 -99 -115q0 -47 28 -75t73 -28q82 0 163 98zM364 347v-264q0 -41 9.5 -57t33.5 -16q19 0 33 8v-20q-14 -8 -36 -8q-36 0 -48.5 23t-12.5 70q-42 -49 -81 -71t-87 -22q-53 0 -86 34t-33 87q0 101 112 135q56 17 175 30v61
q0 69 -27.5 98t-82.5 29q-73 0 -139 -59l-8 23q77 57 152 57q126 0 126 -138zM320 575q0 -8 -6.5 -14.5t-14.5 -6.5t-14 6.5t-6 14.5t6 14t14 6t14.5 -6t6.5 -14zM161 575q0 -8 -6.5 -14.5t-14.5 -6.5t-14 6.5t-6 14.5t6 14t14 6t14.5 -6t6.5 -14z" />
    <glyph glyph-name="aring" unicode="&#xe5;" horiz-adv-x="466" 
d="M343 109v147q-114 -12 -165 -27q-99 -29 -99 -115q0 -47 28 -75t73 -28q82 0 163 98zM364 347v-264q0 -41 9.5 -57t33.5 -16q19 0 33 8v-20q-14 -8 -36 -8q-36 0 -48.5 23t-12.5 70q-42 -49 -81 -71t-87 -22q-53 0 -86 34t-33 87q0 101 112 135q56 17 175 30v61
q0 69 -27.5 98t-82.5 29q-73 0 -139 -59l-8 23q77 57 152 57q126 0 126 -138zM309 609q0 -32 -22.5 -55.5t-53.5 -23.5q-33 0 -55.5 21.5t-22.5 53.5q0 34 23 56.5t56 22.5t54 -22t21 -53zM233 667q-24 0 -41 -16.5t-17 -42.5q0 -27 16.5 -43.5t41.5 -16.5q24 0 40 17t16 42
q0 27 -16 43.5t-40 16.5z" />
    <glyph glyph-name="ae" unicode="&#xe6;" horiz-adv-x="762" 
d="M716 256h-359v-19q0 -108 51.5 -166.5t142.5 -58.5q75 0 136 49l4 -22q-70 -49 -146 -49q-138 0 -188 124q-49 -70 -92.5 -97t-88.5 -27q-54 0 -87 33.5t-33 86.5q0 101 112 136q59 18 168 29v63q0 68 -26 97t-77 29q-72 0 -140 -59l-8 24q80 56 153 56q54 0 86 -32.5
t32 -101.5q20 61 70 97.5t119 36.5q82 0 127 -53t45 -137q0 -26 -1 -39zM357 274h338v21q0 78 -40 125t-113 47q-70 0 -125.5 -53t-59.5 -140zM350 133q-14 45 -14 123q-99 -7 -158 -26q-100 -32 -100 -117q0 -43 27.5 -72.5t74.5 -29.5q80 0 170 122z" />
    <glyph glyph-name="ccedilla" unicode="&#xe7;" horiz-adv-x="440" 
d="M411 450l-8 -25q-47 39 -122 39q-93 0 -148 -62t-55 -167q0 -107 53 -165t143 -58q30 0 68 11.5t58 26.5l5 -21q-57 -38 -135 -38h-16l-4 -48q29 0 48.5 -16.5t19.5 -47.5q0 -37 -30 -62.5t-73 -25.5l-2 18q34 -2 60 18.5t26 48.5q0 26 -16 38t-52 12l6 67
q-82 11 -132 74t-50 163q0 119 62 187t170 68q71 0 124 -35z" />
    <glyph glyph-name="egrave" unicode="&#xe8;" horiz-adv-x="479" 
d="M433 255h-360v-14q0 -111 52 -170t143 -59q76 0 136 45l3 -22q-66 -45 -145 -45q-98 0 -154.5 66t-56.5 183q0 104 56.5 175t154.5 71q82 0 127 -53t45 -138q0 -26 -1 -39zM74 273h338v21q0 78 -40 125t-113 47q-74 0 -126 -53t-59 -140zM200 667l125 -131l-16 -6
l-130 126z" />
    <glyph glyph-name="eacute" unicode="&#xe9;" horiz-adv-x="479" 
d="M433 255h-360v-14q0 -111 52 -170t143 -59q76 0 136 45l3 -22q-66 -45 -145 -45q-98 0 -154.5 66t-56.5 183q0 104 56.5 175t154.5 71q82 0 127 -53t45 -138q0 -26 -1 -39zM74 273h338v21q0 78 -40 125t-113 47q-74 0 -126 -53t-59 -140zM362 656l-129 -126l-17 6
l125 131z" />
    <glyph glyph-name="ecircumflex" unicode="&#xea;" horiz-adv-x="479" 
d="M433 255h-360v-14q0 -111 52 -170t143 -59q76 0 136 45l3 -22q-66 -45 -145 -45q-98 0 -154.5 66t-56.5 183q0 104 56.5 175t154.5 71q82 0 127 -53t45 -138q0 -26 -1 -39zM74 273h338v21q0 78 -40 125t-113 47q-74 0 -126 -53t-59 -140zM263 670l103 -133l-19 -7
l-90 116l-86 -116l-19 7l101 133h10z" />
    <glyph glyph-name="edieresis" unicode="&#xeb;" horiz-adv-x="479" 
d="M433 255h-360v-14q0 -111 52 -170t143 -59q76 0 136 45l3 -22q-66 -45 -145 -45q-98 0 -154.5 66t-56.5 183q0 104 56.5 175t154.5 71q82 0 127 -53t45 -138q0 -26 -1 -39zM74 273h338v21q0 78 -40 125t-113 47q-74 0 -126 -53t-59 -140zM358 575q0 -8 -6.5 -14.5
t-14.5 -6.5t-14 6.5t-6 14.5t6 14t14 6t14.5 -6t6.5 -14zM199 575q0 -8 -6.5 -14.5t-14.5 -6.5t-14 6.5t-6 14.5t6 14t14 6t14.5 -6t6.5 -14z" />
    <glyph glyph-name="igrave" unicode="&#xec;" horiz-adv-x="224" 
d="M101 474l24 3q-1 -20 -1 -98v-292q0 -67 1 -87h-24q1 19 1 86v293q0 77 -1 95zM46 667l125 -131l-16 -6l-130 126z" />
    <glyph glyph-name="iacute" unicode="&#xed;" horiz-adv-x="224" 
d="M101 474l24 3q-1 -20 -1 -98v-292q0 -67 1 -87h-24q1 19 1 86v293q0 77 -1 95zM197 656l-129 -126l-17 6l125 131z" />
    <glyph glyph-name="icircumflex" unicode="&#xee;" horiz-adv-x="224" 
d="M101 474l24 3q-1 -20 -1 -98v-292q0 -67 1 -87h-24q1 19 1 86v293q0 77 -1 95zM117 670l103 -133l-19 -7l-90 116l-86 -116l-19 7l101 133h10z" />
    <glyph glyph-name="idieresis" unicode="&#xef;" horiz-adv-x="224" 
d="M101 474l24 3q-1 -20 -1 -98v-292q0 -67 1 -87h-24q1 19 1 86v293q0 77 -1 95zM213 575q0 -8 -6.5 -14.5t-14.5 -6.5t-14 6.5t-6 14.5t6 14t14 6t14.5 -6t6.5 -14zM54 575q0 -8 -6.5 -14.5t-14.5 -6.5t-14 6.5t-6 14.5t6 14t14 6t14.5 -6t6.5 -14z" />
    <glyph glyph-name="eth" unicode="&#xf0;" horiz-adv-x="534" 
d="M414 715l12 -17l-126 -71q39 -35 74 -77q108 -132 108 -306q0 -119 -62 -186.5t-156 -67.5q-98 0 -155.5 70t-57.5 174q0 117 62.5 184t159.5 67q92 0 152 -58q-27 58 -72 113q-37 44 -74 74l-154 -86l-12 17l149 84q-57 44 -131 84l15 17q73 -40 136 -89zM435 394
q-64 72 -164 72q-90 0 -144 -62t-54 -166q0 -101 52 -164t141 -63q90 0 142 64.5t52 165.5q0 91 -25 153z" />
    <glyph glyph-name="ntilde" unicode="&#xf1;" horiz-adv-x="528" 
d="M436 292v-185q0 -21 0.5 -53t0.5 -54h-24q0 26 0.5 56t0.5 51v180q0 94 -31.5 135.5t-97.5 41.5q-88 0 -168 -111v-353h-23q1 50 1 107v281q0 53 -1 86l23 2v-93q79 102 175 102q76 0 110 -48t34 -145zM393 622l17 -13q-38 -66 -78 -66q-31 0 -67 32q-29 25 -49 25
q-34 0 -64 -59l-14 12q36 67 79 67q31 0 66 -33q26 -24 47 -24q17 0 31 13t32 46z" />
    <glyph glyph-name="ograve" unicode="&#xf2;" horiz-adv-x="534" 
d="M274 485q96 0 152.5 -66t56.5 -179q0 -115 -62 -182.5t-158 -67.5q-93 0 -152.5 67t-59.5 177q0 118 62.5 184.5t160.5 66.5zM270 466q-88 0 -142.5 -62t-54.5 -166q0 -105 54 -166t139 -61q86 0 140 60.5t54 165.5q0 110 -52 169.5t-138 59.5zM219 667l125 -131l-16 -6
l-130 126z" />
    <glyph glyph-name="oacute" unicode="&#xf3;" horiz-adv-x="534" 
d="M274 485q96 0 152.5 -66t56.5 -179q0 -115 -62 -182.5t-158 -67.5q-93 0 -152.5 67t-59.5 177q0 118 62.5 184.5t160.5 66.5zM270 466q-88 0 -142.5 -62t-54.5 -166q0 -105 54 -166t139 -61q86 0 140 60.5t54 165.5q0 110 -52 169.5t-138 59.5zM369 656l-129 -126l-17 6
l125 131z" />
    <glyph glyph-name="ocircumflex" unicode="&#xf4;" horiz-adv-x="534" 
d="M274 485q96 0 152.5 -66t56.5 -179q0 -115 -62 -182.5t-158 -67.5q-93 0 -152.5 67t-59.5 177q0 118 62.5 184.5t160.5 66.5zM270 466q-88 0 -142.5 -62t-54.5 -166q0 -105 54 -166t139 -61q86 0 140 60.5t54 165.5q0 110 -52 169.5t-138 59.5zM277 670l103 -133l-19 -7
l-90 116l-86 -116l-19 7l101 133h10z" />
    <glyph glyph-name="otilde" unicode="&#xf5;" horiz-adv-x="534" 
d="M274 485q96 0 152.5 -66t56.5 -179q0 -115 -62 -182.5t-158 -67.5q-93 0 -152.5 67t-59.5 177q0 118 62.5 184.5t160.5 66.5zM270 466q-88 0 -142.5 -62t-54.5 -166q0 -105 54 -166t139 -61q86 0 140 60.5t54 165.5q0 110 -52 169.5t-138 59.5zM389 622l17 -13
q-38 -66 -78 -66q-31 0 -67 32q-29 25 -49 25q-34 0 -64 -59l-14 12q36 67 79 67q31 0 66 -33q26 -24 47 -24q17 0 31 13t32 46z" />
    <glyph glyph-name="odieresis" unicode="&#xf6;" horiz-adv-x="534" 
d="M274 485q96 0 152.5 -66t56.5 -179q0 -115 -62 -182.5t-158 -67.5q-93 0 -152.5 67t-59.5 177q0 118 62.5 184.5t160.5 66.5zM270 466q-88 0 -142.5 -62t-54.5 -166q0 -105 54 -166t139 -61q86 0 140 60.5t54 165.5q0 110 -52 169.5t-138 59.5zM375 575q0 -8 -6.5 -14.5
t-14.5 -6.5t-14 6.5t-6 14.5t6 14t14 6t14.5 -6t6.5 -14zM216 575q0 -8 -6.5 -14.5t-14.5 -6.5t-14 6.5t-6 14.5t6 14t14 6t14.5 -6t6.5 -14z" />
    <glyph glyph-name="divide" unicode="&#xf7;" horiz-adv-x="497" 
d="M271 431q0 -10 -6.5 -16.5t-16.5 -6.5t-16 6.5t-6 16.5t6 16.5t16 6.5t16.5 -6.5t6.5 -16.5zM435 290v-21h-373v21h373zM271 136q0 -10 -6.5 -16.5t-16.5 -6.5t-16 6.5t-6 16.5t6 16.5t16 6.5t16.5 -6.5t6.5 -16.5z" />
    <glyph glyph-name="oslash" unicode="&#xf8;" horiz-adv-x="534" 
d="M511 483l-73 -79q45 -64 45 -164q0 -115 -62 -182.5t-158 -67.5q-92 0 -151 65l-68 -74l-16 13l72 76q-49 66 -49 164q0 118 62.5 184.5t160.5 66.5q95 0 151 -64l70 75zM115 87l295 318q-52 61 -140 61t-142.5 -62t-54.5 -166q0 -92 42 -151zM422 388l-294 -317
q52 -60 138 -60t140 60.5t54 165.5q0 92 -38 151z" />
    <glyph glyph-name="ugrave" unicode="&#xf9;" horiz-adv-x="529" 
d="M410 474l25 1q-2 -82 -2 -97v-300q0 -16 1 -43t1 -35h-24v91q-75 -101 -169 -101q-48 0 -80 16t-46 45.5t-19 58.5t-5 68v200q0 21 -0.5 52t-0.5 44l25 2q-2 -68 -2 -98v-196q0 -87 28.5 -129t104.5 -42q89 0 164 109v258q0 54 -1 96zM206 667l125 -131l-16 -6l-130 126z
" />
    <glyph glyph-name="uacute" unicode="&#xfa;" horiz-adv-x="529" 
d="M410 474l25 1q-2 -82 -2 -97v-300q0 -16 1 -43t1 -35h-24v91q-75 -101 -169 -101q-48 0 -80 16t-46 45.5t-19 58.5t-5 68v200q0 21 -0.5 52t-0.5 44l25 2q-2 -68 -2 -98v-196q0 -87 28.5 -129t104.5 -42q89 0 164 109v258q0 54 -1 96zM361 656l-129 -126l-17 6l125 131z
" />
    <glyph glyph-name="ucircumflex" unicode="&#xfb;" horiz-adv-x="529" 
d="M410 474l25 1q-2 -82 -2 -97v-300q0 -16 1 -43t1 -35h-24v91q-75 -101 -169 -101q-48 0 -80 16t-46 45.5t-19 58.5t-5 68v200q0 21 -0.5 52t-0.5 44l25 2q-2 -68 -2 -98v-196q0 -87 28.5 -129t104.5 -42q89 0 164 109v258q0 54 -1 96zM269 670l103 -133l-19 -7l-90 116
l-86 -116l-19 7l101 133h10z" />
    <glyph glyph-name="udieresis" unicode="&#xfc;" horiz-adv-x="529" 
d="M410 474l25 1q-2 -82 -2 -97v-300q0 -16 1 -43t1 -35h-24v91q-75 -101 -169 -101q-48 0 -80 16t-46 45.5t-19 58.5t-5 68v200q0 21 -0.5 52t-0.5 44l25 2q-2 -68 -2 -98v-196q0 -87 28.5 -129t104.5 -42q89 0 164 109v258q0 54 -1 96zM368 575q0 -8 -6.5 -14.5
t-14.5 -6.5t-14 6.5t-6 14.5t6 14t14 6t14.5 -6t6.5 -14zM209 575q0 -8 -6.5 -14.5t-14.5 -6.5t-14 6.5t-6 14.5t6 14t14 6t14.5 -6t6.5 -14z" />
    <glyph glyph-name="yacute" unicode="&#xfd;" horiz-adv-x="433" 
d="M387 475h23l-145 -374l-139 -360h-26l102 256l-179 478h24l153 -411q12 -35 13 -42h1q8 24 14 40zM327 656l-129 -126l-17 6l125 131z" />
    <glyph glyph-name="thorn" unicode="&#xfe;" horiz-adv-x="530" 
d="M95 716l23 2v-107v-216q64 90 176 90q80 0 132.5 -60t52.5 -168q0 -125 -62.5 -196t-152.5 -71q-78 0 -146 56v-305h-23q1 35 1 103v743q0 26 -0.5 70.5t-0.5 58.5zM118 367v-294q63 -63 146 -63q86 0 138.5 67t52.5 178q0 96 -45 152.5t-123 56.5q-55 0 -94.5 -23.5
t-74.5 -73.5z" />
    <glyph glyph-name="ydieresis" unicode="&#xff;" horiz-adv-x="433" 
d="M387 475h23l-145 -374l-139 -360h-26l102 256l-179 478h24l153 -411q12 -35 13 -42h1q8 24 14 40zM316 575q0 -8 -6.5 -14.5t-14.5 -6.5t-14 6.5t-6 14.5t6 14t14 6t14.5 -6t6.5 -14zM157 575q0 -8 -6.5 -14.5t-14.5 -6.5t-14 6.5t-6 14.5t6 14t14 6t14.5 -6t6.5 -14z
" />
    <glyph glyph-name="Amacron" unicode="&#x100;" horiz-adv-x="562" 
d="M273 681h15l134 -358l123 -323h-24l-95 250h-288l-94 -250h-27q32 75 122 317q117 312 134 364zM281 644h-1q-1 -5 -19 -58l-116 -316h274l-119 316zM363 784v-22h-167v22h167z" />
    <glyph glyph-name="amacron" unicode="&#x101;" horiz-adv-x="466" 
d="M343 109v147q-114 -12 -165 -27q-99 -29 -99 -115q0 -47 28 -75t73 -28q82 0 163 98zM364 347v-264q0 -41 9.5 -57t33.5 -16q19 0 33 8v-20q-14 -8 -36 -8q-36 0 -48.5 23t-12.5 70q-42 -49 -81 -71t-87 -22q-53 0 -86 34t-33 87q0 101 112 135q56 17 175 30v61
q0 69 -27.5 98t-82.5 29q-73 0 -139 -59l-8 23q77 57 152 57q126 0 126 -138zM311 582v-22h-167v22h167z" />
    <glyph glyph-name="Abreve" unicode="&#x102;" horiz-adv-x="562" 
d="M273 681h15l134 -358l123 -323h-24l-95 250h-288l-94 -250h-27q32 75 122 317q117 312 134 364zM281 644h-1q-1 -5 -19 -58l-116 -316h274l-119 316zM367 860h21q-4 -58 -33.5 -87t-78.5 -29q-44 0 -72 29.5t-30 86.5h20q4 -52 25.5 -73.5t61.5 -21.5q82 0 86 95z" />
    <glyph glyph-name="abreve" unicode="&#x103;" horiz-adv-x="466" 
d="M343 109v147q-114 -12 -165 -27q-99 -29 -99 -115q0 -47 28 -75t73 -28q82 0 163 98zM364 347v-264q0 -41 9.5 -57t33.5 -16q19 0 33 8v-20q-14 -8 -36 -8q-36 0 -48.5 23t-12.5 70q-42 -49 -81 -71t-87 -22q-53 0 -86 34t-33 87q0 101 112 135q56 17 175 30v61
q0 69 -27.5 98t-82.5 29q-73 0 -139 -59l-8 23q77 57 152 57q126 0 126 -138zM321 658h21q-4 -58 -33.5 -87t-78.5 -29q-44 0 -72 29.5t-30 86.5h20q4 -52 25.5 -73.5t61.5 -21.5q82 0 86 95z" />
    <glyph glyph-name="Aogonek" unicode="&#x104;" horiz-adv-x="562" 
d="M273 681h15l134 -358l123 -323h-3q-41 -58 -54.5 -83t-13.5 -48q0 -59 57 -59q11 0 16 1v-19q-8 -1 -22 -1q-34 0 -52.5 20t-18.5 53q0 25 13.5 53.5t53.5 82.5l-95 250h-288l-94 -250h-27q32 75 122 317q117 312 134 364zM281 644h-1q-1 -5 -19 -58l-116 -316h274
l-119 316z" />
    <glyph glyph-name="aogonek" unicode="&#x105;" horiz-adv-x="466" 
d="M364 347v-264q0 -41 9.5 -57t33.5 -16q19 0 33 8v-20q-14 -8 -36 -8q-36 -51 -48.5 -75t-12.5 -46q0 -59 57 -59q11 0 16 1v-19q-8 -1 -22 -1q-34 0 -52.5 20t-18.5 53q0 24 12.5 51t48.5 77q-24 6 -32.5 28t-8.5 63q-42 -49 -81 -71t-87 -22q-53 0 -86 34t-33 87
q0 101 112 135q56 17 175 30v61q0 69 -27.5 98t-82.5 29q-73 0 -139 -59l-8 23q77 57 152 57q126 0 126 -138zM343 109v147q-114 -12 -165 -27q-99 -29 -99 -115q0 -47 28 -75t73 -28q82 0 163 98z" />
    <glyph glyph-name="Cacute" unicode="&#x106;" horiz-adv-x="619" 
d="M575 651l-5 -27q-70 41 -176 41q-139 0 -227.5 -89.5t-88.5 -246.5q0 -140 84 -228t210 -88q117 0 193 50l2 -24q-80 -49 -198 -49q-134 0 -224 91.5t-90 245.5q0 167 97.5 263.5t245.5 96.5q97 0 177 -36zM472 858l-129 -126l-17 6l125 131z" />
    <glyph glyph-name="cacute" unicode="&#x107;" horiz-adv-x="440" 
d="M411 450l-8 -25q-47 39 -122 39q-93 0 -148 -62.5t-55 -167.5q0 -107 53 -165t143 -58q30 0 68 11.5t58 26.5l5 -21q-57 -38 -135 -38q-95 0 -155 64.5t-60 174.5q0 119 62 187.5t170 68.5q71 0 124 -35zM373 656l-129 -126l-17 6l125 131z" />
    <glyph glyph-name="Ccircumflex" unicode="&#x108;" horiz-adv-x="619" 
d="M575 651l-5 -27q-70 41 -176 41q-139 0 -227.5 -89.5t-88.5 -246.5q0 -140 84 -228t210 -88q117 0 193 50l2 -24q-80 -49 -198 -49q-134 0 -224 91.5t-90 245.5q0 167 97.5 263.5t245.5 96.5q97 0 177 -36zM378 872l103 -133l-19 -7l-90 116l-86 -116l-19 7l101 133h10z
" />
    <glyph glyph-name="ccircumflex" unicode="&#x109;" horiz-adv-x="440" 
d="M411 450l-8 -25q-47 39 -122 39q-93 0 -148 -62.5t-55 -167.5q0 -107 53 -165t143 -58q30 0 68 11.5t58 26.5l5 -21q-57 -38 -135 -38q-95 0 -155 64.5t-60 174.5q0 119 62 187.5t170 68.5q71 0 124 -35zM268 670l103 -133l-19 -7l-90 116l-86 -116l-19 7l101 133h10z
" />
    <glyph glyph-name="Cdotaccent" unicode="&#x10a;" horiz-adv-x="619" 
d="M575 651l-5 -27q-70 41 -176 41q-139 0 -227.5 -89.5t-88.5 -246.5q0 -140 84 -228t210 -88q117 0 193 50l2 -24q-80 -49 -198 -49q-134 0 -224 91.5t-90 245.5q0 167 97.5 263.5t245.5 96.5q97 0 177 -36zM403 781q0 -9 -7 -16t-16 -7t-15.5 7t-6.5 16t6.5 15.5
t15.5 6.5t16 -6.5t7 -15.5z" />
    <glyph glyph-name="cdotaccent" unicode="&#x10b;" horiz-adv-x="440" 
d="M411 450l-8 -25q-47 39 -122 39q-93 0 -148 -62.5t-55 -167.5q0 -107 53 -165t143 -58q30 0 68 11.5t58 26.5l5 -21q-57 -38 -135 -38q-95 0 -155 64.5t-60 174.5q0 119 62 187.5t170 68.5q71 0 124 -35zM293 579q0 -9 -7 -16t-16 -7t-15.5 7t-6.5 16t6.5 15.5t15.5 6.5
t16 -6.5t7 -15.5z" />
    <glyph glyph-name="Ccaron" unicode="&#x10c;" horiz-adv-x="619" 
d="M575 651l-5 -27q-70 41 -176 41q-139 0 -227.5 -89.5t-88.5 -246.5q0 -140 84 -228t210 -88q117 0 193 50l2 -24q-80 -49 -198 -49q-134 0 -224 91.5t-90 245.5q0 167 97.5 263.5t245.5 96.5q97 0 177 -36zM487 865l-100 -133h-11l-103 133l19 7l90 -116l86 116z" />
    <glyph glyph-name="ccaron" unicode="&#x10d;" horiz-adv-x="440" 
d="M411 450l-8 -25q-47 39 -122 39q-93 0 -148 -62.5t-55 -167.5q0 -107 53 -165t143 -58q30 0 68 11.5t58 26.5l5 -21q-57 -38 -135 -38q-95 0 -155 64.5t-60 174.5q0 119 62 187.5t170 68.5q71 0 124 -35zM377 663l-100 -133h-11l-103 133l19 7l90 -116l86 116z" />
    <glyph glyph-name="Dcaron" unicode="&#x10e;" horiz-adv-x="700" 
d="M111 140v406q0 90 -1 131q18 0 83.5 1t93.5 1q181 0 269.5 -82t88.5 -250q0 -157 -97 -252.5t-263 -95.5q-21 0 -86 0.5t-89 0.5q0 17 0.5 62t0.5 78zM133 657v-636h154q158 0 246.5 87.5t88.5 239.5q0 154 -82 232t-255 78q-105 0 -152 -1zM439 865l-100 -133h-11
l-103 133l19 7l90 -116l86 116z" />
    <glyph glyph-name="dcaron" unicode="&#x10f;" horiz-adv-x="531" 
d="M411 716l25 3q-2 -100 -2 -327v-202q0 -128 3 -190h-25v71q-67 -81 -163 -81q-88 0 -143 62.5t-55 178.5t62.5 185t160.5 69q78 0 138 -53q0 266 -1 284zM412 96v310q-61 59 -142 59q-90 0 -143 -65t-53 -169q0 -100 46.5 -160t133.5 -60q93 0 158 85zM511 722l23 3
q3 -20 3 -37q0 -56 -37 -132l-17 5q32 70 32 120q0 23 -4 41z" />
    <glyph glyph-name="Dcroat" unicode="&#x110;" horiz-adv-x="700" 
d="M111 343v203q0 49 -2 131q18 0 84.5 1t94.5 1q181 0 269 -82t88 -250q0 -157 -96.5 -252.5t-262.5 -95.5q-21 0 -87 0.5t-90 0.5q0 17 1 62t1 78v181h-101v22h101zM133 657v-314h171v-22h-171v-300h155q158 0 246 87.5t88 239.5q0 154 -81.5 232t-254.5 78
q-106 0 -153 -1z" />
    <glyph glyph-name="dcroat" unicode="&#x111;" horiz-adv-x="531" 
d="M546 614v-21h-112v-201v-202q0 -128 3 -190h-25v71q-67 -81 -154 -81q-94 0 -150.5 62t-56.5 179q0 116 62.5 185t160.5 69q81 0 138 -54v162h-194v21h194q0 83 -1 102l25 3q0 -10 -0.5 -25.5t-1 -38.5t-0.5 -41h112zM412 96v309q-54 60 -142 60q-90 0 -143 -65t-53 -169
q0 -101 47.5 -160.5t139.5 -59.5q86 0 151 85z" />
    <glyph glyph-name="Emacron" unicode="&#x112;" horiz-adv-x="470" 
d="M409 677l1 -24q-74 2 -117 2h-160v-301h148q86 0 111 1l-3 -24q-22 1 -110 1h-146v-309h176q80 0 119 2l-1 -25h-317q1 44 1 132v414q0 94 -1 131h299zM349 784v-22h-167v22h167z" />
    <glyph glyph-name="emacron" unicode="&#x113;" horiz-adv-x="479" 
d="M433 255h-360v-14q0 -111 52 -170t143 -59q76 0 136 45l3 -22q-66 -45 -145 -45q-98 0 -154.5 66t-56.5 183q0 104 56.5 175t154.5 71q82 0 127 -53t45 -138q0 -26 -1 -39zM74 273h338v21q0 78 -40 125t-113 47q-74 0 -126 -53t-59 -140zM337 582v-22h-167v22h167z" />
    <glyph glyph-name="Ebreve" unicode="&#x114;" horiz-adv-x="470" 
d="M409 677l1 -24q-74 2 -117 2h-160v-301h148q86 0 111 1l-3 -24q-22 1 -110 1h-146v-309h176q80 0 119 2l-1 -25h-317q1 44 1 132v414q0 94 -1 131h299zM346 860h21q-4 -58 -33.5 -87t-78.5 -29q-44 0 -72 29.5t-30 86.5h20q4 -52 25.5 -73.5t61.5 -21.5q82 0 86 95z" />
    <glyph glyph-name="ebreve" unicode="&#x115;" horiz-adv-x="479" 
d="M433 255h-360v-14q0 -111 52 -170t143 -59q76 0 136 45l3 -22q-66 -45 -145 -45q-98 0 -154.5 66t-56.5 183q0 104 56.5 175t154.5 71q82 0 127 -53t45 -138q0 -26 -1 -39zM74 273h338v21q0 78 -40 125t-113 47q-74 0 -126 -53t-59 -140zM341 658h21q-4 -58 -33.5 -87
t-78.5 -29q-44 0 -72 29.5t-30 86.5h20q4 -52 25.5 -73.5t61.5 -21.5q82 0 86 95z" />
    <glyph glyph-name="Edotaccent" unicode="&#x116;" horiz-adv-x="470" 
d="M409 677l1 -24q-74 2 -117 2h-160v-301h148q86 0 111 1l-3 -24q-22 1 -110 1h-146v-309h176q80 0 119 2l-1 -25h-317q1 44 1 132v414q0 94 -1 131h299zM283 781q0 -9 -7 -16t-16 -7t-15.5 7t-6.5 16t6.5 15.5t15.5 6.5t16 -6.5t7 -15.5z" />
    <glyph glyph-name="edotaccent" unicode="&#x117;" horiz-adv-x="479" 
d="M433 255h-360v-14q0 -111 52 -170t143 -59q76 0 136 45l3 -22q-66 -45 -145 -45q-98 0 -154.5 66t-56.5 183q0 104 56.5 175t154.5 71q82 0 127 -53t45 -138q0 -26 -1 -39zM74 273h338v21q0 78 -40 125t-113 47q-74 0 -126 -53t-59 -140zM278 579q0 -9 -7 -16t-16 -7
t-15.5 7t-6.5 16t6.5 15.5t15.5 6.5t16 -6.5t7 -15.5z" />
    <glyph glyph-name="Eogonek" unicode="&#x118;" horiz-adv-x="470" 
d="M409 677l1 -24q-74 2 -117 2h-160v-301h148q86 0 111 1l-3 -24q-22 1 -110 1h-146v-309h176q80 0 119 2l-1 -25h-63q-41 -58 -54.5 -83t-13.5 -48q0 -59 57 -59q11 0 16 1v-19q-8 -1 -22 -1q-34 0 -52.5 20t-18.5 53q0 25 13.5 53.5t53.5 82.5h-233q1 44 1 132v414
q0 94 -1 131h299z" />
    <glyph glyph-name="eogonek" unicode="&#x119;" horiz-adv-x="479" 
d="M433 255h-359v-19q0 -108 51.5 -166t142.5 -58q76 0 136 48l3 -22q-43 -30 -81 -39q-40 -57 -53.5 -82t-13.5 -48q0 -59 57 -59q11 0 16 1v-19q-8 -1 -22 -1q-34 0 -52.5 20t-18.5 53q0 24 12.5 51t49.5 78q-19 -3 -39 -3q-98 0 -154.5 66.5t-56.5 185.5q0 102 57 172.5
t154 70.5q82 0 127 -53t45 -138q0 -26 -1 -39zM412 273v21q0 78 -40 125t-113 47q-74 0 -126 -53t-59 -140h338z" />
    <glyph glyph-name="Ecaron" unicode="&#x11a;" horiz-adv-x="470" 
d="M409 677l1 -24q-74 2 -117 2h-160v-301h148q86 0 111 1l-3 -24q-22 1 -110 1h-146v-309h176q80 0 119 2l-1 -25h-317q1 44 1 132v414q0 94 -1 131h299zM370 865l-100 -133h-11l-103 133l19 7l90 -116l86 116z" />
    <glyph glyph-name="ecaron" unicode="&#x11b;" horiz-adv-x="479" 
d="M433 255h-360v-14q0 -111 52 -170t143 -59q76 0 136 45l3 -22q-66 -45 -145 -45q-98 0 -154.5 66t-56.5 183q0 104 56.5 175t154.5 71q82 0 127 -53t45 -138q0 -26 -1 -39zM74 273h338v21q0 78 -40 125t-113 47q-74 0 -126 -53t-59 -140zM362 663l-100 -133h-11l-103 133
l19 7l90 -116l86 116z" />
    <glyph glyph-name="Gcircumflex" unicode="&#x11c;" horiz-adv-x="668" 
d="M595 640l-10 -24q-79 49 -196 49q-139 0 -225 -93t-86 -231q0 -156 86 -242t223 -86q103 0 183 44v252h-177v23h201v-288q-94 -54 -216 -54q-141 0 -232 93.5t-91 253.5q0 158 97 254t243 96q111 0 200 -47zM378 872l103 -133l-19 -7l-90 116l-86 -116l-19 7l101 133h10z
" />
    <glyph glyph-name="gcircumflex" unicode="&#x11d;" horiz-adv-x="470" 
d="M467 476v-21l-101 -22q37 -42 37 -104q0 -67 -45.5 -113t-120.5 -46q-49 0 -77 15q-73 -46 -73 -85q0 -33 23.5 -46t76.5 -13q9 0 50 2.5t60 2.5q71 0 110 -32.5t39 -94.5q0 -63 -56 -113.5t-159 -50.5q-91 0 -138 37.5t-47 95.5q0 76 89 137q-70 13 -70 68
q0 25 17.5 48.5t62.5 52.5q-35 21 -53 56t-18 74q0 63 44.5 112t126.5 49q65 0 108 -36q27 5 114 27zM381 326q0 65 -39 102.5t-101 37.5q-63 0 -104 -40t-41 -101q0 -56 36.5 -95.5t106.5 -39.5q66 0 104 39.5t38 96.5zM158 20q-90 -59 -90 -128q0 -54 43.5 -86t123.5 -32
q85 0 137 45t52 96q0 111 -138 111q-16 0 -60 -3t-68 -3zM244 670l103 -133l-19 -7l-90 116l-86 -116l-19 7l101 133h10z" />
    <glyph glyph-name="Gbreve" unicode="&#x11e;" horiz-adv-x="668" 
d="M595 640l-10 -24q-79 49 -196 49q-139 0 -225 -93t-86 -231q0 -156 86 -242t223 -86q103 0 183 44v252h-177v23h201v-288q-94 -54 -216 -54q-141 0 -232 93.5t-91 253.5q0 158 97 254t243 96q111 0 200 -47zM466 860h21q-4 -58 -33.5 -87t-78.5 -29q-44 0 -72 29.5
t-30 86.5h20q4 -52 25.5 -73.5t61.5 -21.5q82 0 86 95z" />
    <glyph glyph-name="gbreve" unicode="&#x11f;" horiz-adv-x="470" 
d="M467 476v-21l-101 -22q37 -42 37 -104q0 -67 -45.5 -113t-120.5 -46q-49 0 -77 15q-73 -46 -73 -85q0 -33 23.5 -46t76.5 -13q9 0 50 2.5t60 2.5q71 0 110 -32.5t39 -94.5q0 -63 -56 -113.5t-159 -50.5q-91 0 -138 37.5t-47 95.5q0 76 89 137q-70 13 -70 68
q0 25 17.5 48.5t62.5 52.5q-35 21 -53 56t-18 74q0 63 44.5 112t126.5 49q65 0 108 -36q27 5 114 27zM381 326q0 65 -39 102.5t-101 37.5q-63 0 -104 -40t-41 -101q0 -56 36.5 -95.5t106.5 -39.5q66 0 104 39.5t38 96.5zM158 20q-90 -59 -90 -128q0 -54 43.5 -86t123.5 -32
q85 0 137 45t52 96q0 111 -138 111q-16 0 -60 -3t-68 -3zM326 658h21q-4 -58 -33.5 -87t-78.5 -29q-44 0 -72 29.5t-30 86.5h20q4 -52 25.5 -73.5t61.5 -21.5q82 0 86 95z" />
    <glyph glyph-name="Gdotaccent" unicode="&#x120;" horiz-adv-x="668" 
d="M595 640l-10 -24q-79 49 -196 49q-139 0 -225 -93t-86 -231q0 -156 86 -242t223 -86q103 0 183 44v252h-177v23h201v-288q-94 -54 -216 -54q-141 0 -232 93.5t-91 253.5q0 158 97 254t243 96q111 0 200 -47zM403 781q0 -9 -7 -16t-16 -7t-15.5 7t-6.5 16t6.5 15.5
t15.5 6.5t16 -6.5t7 -15.5z" />
    <glyph glyph-name="gdotaccent" unicode="&#x121;" horiz-adv-x="470" 
d="M467 476v-21l-101 -22q37 -42 37 -104q0 -67 -45.5 -113t-120.5 -46q-49 0 -77 15q-73 -46 -73 -85q0 -33 23.5 -46t76.5 -13q9 0 50 2.5t60 2.5q71 0 110 -32.5t39 -94.5q0 -63 -56 -113.5t-159 -50.5q-91 0 -138 37.5t-47 95.5q0 76 89 137q-70 13 -70 68
q0 25 17.5 48.5t62.5 52.5q-35 21 -53 56t-18 74q0 63 44.5 112t126.5 49q65 0 108 -36q27 5 114 27zM381 326q0 65 -39 102.5t-101 37.5q-63 0 -104 -40t-41 -101q0 -56 36.5 -95.5t106.5 -39.5q66 0 104 39.5t38 96.5zM158 20q-90 -59 -90 -128q0 -54 43.5 -86t123.5 -32
q85 0 137 45t52 96q0 111 -138 111q-16 0 -60 -3t-68 -3zM263 579q0 -9 -7 -16t-16 -7t-15.5 7t-6.5 16t6.5 15.5t15.5 6.5t16 -6.5t7 -15.5z" />
    <glyph glyph-name="Gcommaaccent" unicode="&#x122;" horiz-adv-x="668" 
d="M595 640l-10 -24q-79 49 -196 49q-139 0 -225 -93t-86 -231q0 -156 86 -242t223 -86q103 0 183 44v252h-177v23h201v-288q-94 -54 -216 -54q-141 0 -232 93.5t-91 253.5q0 158 97 254t243 96q111 0 200 -47zM372 -56l23 3q3 -19 3 -37q0 -56 -37 -132l-17 5q32 70 32 120
q0 23 -4 41z" />
    <glyph glyph-name="gcommaaccent" unicode="&#x123;" horiz-adv-x="470" 
d="M264 728l18 -5q-30 -65 -30 -117q0 -14 5 -42l-28 -5q-3 18 -3 30q0 54 38 139zM467 476v-21l-101 -22q37 -42 37 -104q0 -67 -45.5 -113t-120.5 -46q-49 0 -77 15q-73 -46 -73 -85q0 -33 23.5 -46t76.5 -13q9 0 50 2.5t60 2.5q71 0 110 -32.5t39 -94.5q0 -63 -56 -113.5
t-159 -50.5q-91 0 -138 37.5t-47 95.5q0 76 89 137q-70 13 -70 68q0 25 17.5 48.5t62.5 52.5q-35 21 -53 56t-18 74q0 63 44.5 112t126.5 49q65 0 108 -36q27 5 114 27zM381 326q0 65 -39 102.5t-101 37.5q-63 0 -104 -40t-41 -101q0 -56 36.5 -95.5t106.5 -39.5
q66 0 104 39.5t38 96.5zM158 20q-90 -59 -90 -128q0 -54 43.5 -86t123.5 -32q85 0 137 45t52 96q0 111 -138 111q-16 0 -60 -3t-68 -3z" />
    <glyph glyph-name="Hcircumflex" unicode="&#x124;" horiz-adv-x="699" 
d="M564 677h25q-2 -60 -2 -109v-449q0 -49 2 -119h-26q0 13 1.5 50t1.5 68v216h-433v-207q0 -104 1 -127h-24q0 7 0.5 48t0.5 76v429q0 95 -1 124h24q-1 -27 -1 -124v-198h433v224q0 23 -1 54t-1 44zM357 872l103 -133l-19 -7l-90 116l-86 -116l-19 7l101 133h10z" />
    <glyph glyph-name="hcircumflex" unicode="&#x125;" horiz-adv-x="528" 
d="M117 719v-336q79 102 175 102q76 0 110 -48t34 -145v-185q0 -21 0.5 -53t0.5 -54h-24q0 26 0.5 56t0.5 51v180q0 94 -31.5 135.5t-97.5 41.5q-88 0 -168 -111v-353h-23q1 50 1 107v281q0 296 -1 329zM110 914l103 -133l-19 -7l-90 116l-86 -116l-19 7l101 133h10z" />
    <glyph glyph-name="Hbar" unicode="&#x126;" horiz-adv-x="699" 
d="M564 677h25q-2 -58 -2 -142h98v-21h-98v-375q0 -49 2 -139h-25q2 78 2 148v186h-433v-207q0 -104 1 -127h-24q0 7 0.5 48t0.5 76v390h-94v21h94q0 114 -1 142h24q-1 -35 -1 -142h433q0 78 -2 142zM566 514h-433v-159h433v159z" />
    <glyph glyph-name="hbar" unicode="&#x127;" horiz-adv-x="528" 
d="M311 614v-21h-194v-210q79 102 175 102q76 0 110 -48t34 -145v-185q0 -21 0.5 -53t0.5 -54h-24q0 26 0.5 56t0.5 51v180q0 94 -31.5 135.5t-97.5 41.5q-88 0 -168 -111v-353h-23q1 50 1 107v281v205h-112v21h112q0 29 -0.5 65.5t-0.5 37.5l23 2v-105h194z" />
    <glyph glyph-name="Itilde" unicode="&#x128;" horiz-adv-x="245" 
d="M110 677h25q-2 -66 -2 -124v-419q0 -104 1 -134h-24q1 32 1 133v418q0 93 -1 126zM242 824l17 -13q-38 -66 -78 -66q-31 0 -67 32q-29 25 -49 25q-35 0 -64 -59l-14 12q36 67 79 67q31 0 66 -33q26 -24 47 -24q17 0 31 13t32 46z" />
    <glyph glyph-name="itilde" unicode="&#x129;" horiz-adv-x="224" 
d="M101 474l24 3q-1 -20 -1 -98v-292q0 -67 1 -87h-24q1 19 1 86v293q0 77 -1 95zM232 622l17 -13q-38 -66 -78 -66q-31 0 -67 32q-29 25 -49 25q-35 0 -64 -59l-14 12q36 67 79 67q31 0 66 -33q26 -24 47 -24q17 0 31 13t32 46z" />
    <glyph glyph-name="Imacron" unicode="&#x12a;" horiz-adv-x="245" 
d="M110 677h25q-2 -66 -2 -124v-419q0 -104 1 -134h-24q1 32 1 133v418q0 93 -1 126zM204 784v-22h-167v22h167z" />
    <glyph glyph-name="imacron" unicode="&#x12b;" horiz-adv-x="224" 
d="M101 474l24 3q-1 -20 -1 -98v-292q0 -67 1 -87h-24q1 19 1 86v293q0 77 -1 95zM194 582v-22h-167v22h167z" />
    <glyph glyph-name="Ibreve" unicode="&#x12c;" horiz-adv-x="245" 
d="M110 677h25q-2 -66 -2 -124v-419q0 -104 1 -134h-24q1 32 1 133v418q0 93 -1 126zM208 860h21q-4 -58 -33.5 -87t-78.5 -29q-44 0 -72 29.5t-30 86.5h20q4 -52 25.5 -73.5t61.5 -21.5q82 0 86 95z" />
    <glyph glyph-name="ibreve" unicode="&#x12d;" horiz-adv-x="224" 
d="M101 474l24 3q-1 -20 -1 -98v-292q0 -67 1 -87h-24q1 19 1 86v293q0 77 -1 95zM200 658h21q-4 -58 -33.5 -87t-78.5 -29q-44 0 -72 29.5t-30 86.5h20q4 -52 25.5 -73.5t61.5 -21.5q82 0 86 95z" />
    <glyph glyph-name="Iogonek" unicode="&#x12e;" horiz-adv-x="245" 
d="M110 677h25q-2 -66 -2 -124v-419q0 -104 1 -134h-1q-54 -86 -54 -131q0 -59 57 -59q11 0 16 1v-19q-8 -1 -22 -1q-34 0 -52.5 20t-18.5 53q0 52 53 136h-2q1 32 1 133v418q0 93 -1 126z" />
    <glyph glyph-name="iogonek" unicode="&#x12f;" horiz-adv-x="224" 
d="M101 474l24 3q-1 -20 -1 -98v-292q0 -67 1 -87h-2q-27 -56 -35.5 -82t-8.5 -52q0 -25 15.5 -40.5t39.5 -15.5q11 0 16 1v-19q-8 -1 -22 -1q-30 0 -49.5 19.5t-19.5 50.5t9 57.5t35 81.5h-2q1 19 1 86v293q0 77 -1 95zM138 628q0 -10 -6.5 -16.5t-16.5 -6.5t-16.5 6.5
t-6.5 16.5t6.5 16.5t16.5 6.5t16.5 -6.5t6.5 -16.5z" />
    <glyph glyph-name="Idotaccent" unicode="&#x130;" horiz-adv-x="245" 
d="M110 677h25q-2 -66 -2 -124v-419q0 -104 1 -134h-24q1 32 1 133v418q0 93 -1 126zM145 781q0 -9 -7 -16t-16 -7t-15.5 7t-6.5 16t6.5 15.5t15.5 6.5t16 -6.5t7 -15.5z" />
    <glyph glyph-name="dotlessi" unicode="&#x131;" horiz-adv-x="224" 
d="M101 474l24 3q-1 -20 -1 -98v-292q0 -67 1 -87h-24q1 19 1 86v293q0 77 -1 95z" />
    <glyph glyph-name="Jcircumflex" unicode="&#x134;" horiz-adv-x="245" 
d="M110 677h24q-1 -31 -1 -125v-458q0 -33 -2 -58.5t-11.5 -58.5t-25.5 -54.5t-46 -37t-71 -15.5q-29 0 -47 7v25q20 -10 51 -10q42 0 70 18.5t40 52.5t16 64t4 70v459q0 89 -1 121zM127 872l103 -133l-19 -7l-90 116l-86 -116l-19 7l101 133h10z" />
    <glyph glyph-name="jcircumflex" unicode="&#x135;" horiz-adv-x="224" 
d="M101 474l24 2q0 -13 -0.5 -54t-0.5 -71v-423q0 -182 -146 -182q-41 0 -65 12l-1 22q32 -15 64 -15q65 0 95.5 40.5t30.5 125.5v417q0 29 -0.5 72.5t-0.5 53.5zM116 670l103 -133l-19 -7l-90 116l-86 -116l-19 7l101 133h10z" />
    <glyph glyph-name="Kcommaaccent" unicode="&#x136;" horiz-adv-x="521" 
d="M454 677h30l-323 -329l349 -348h-30l-335 331q-2 2 -5.5 6t-6.5 7v-27v-317h-23q1 38 1 111v446q0 88 -1 120h23v-303v-24l5 5l4 4l4 4zM269 -56l23 3q3 -19 3 -37q0 -56 -37 -132l-17 5q32 70 32 120q0 23 -4 41z" />
    <glyph glyph-name="kcommaaccent" unicode="&#x137;" horiz-adv-x="408" 
d="M362 475h32l-247 -229q96 -104 242 -246h-31l-240 242v-242h-24q2 56 2 96v513q0 23 -0.5 60.5t-0.5 47.5l23 2v-474zM213 -56l23 3q3 -19 3 -37q0 -56 -37 -132l-17 5q32 70 32 120q0 23 -4 41z" />
    <glyph glyph-name="kgreenlandic" unicode="&#x138;" horiz-adv-x="408" 
d="M362 475h32l-247 -229q96 -104 242 -246h-31l-240 242v-242h-24q2 56 2 96v270q0 23 -0.5 60.5t-0.5 47.5l23 2v-231z" />
    <glyph glyph-name="Lacute" unicode="&#x139;" horiz-adv-x="443" 
d="M110 677h25q-2 -43 -2 -117v-538h200q63 0 99 2l-3 -24h-319q1 30 1 128v435q0 85 -1 114zM232 858l-129 -126l-17 6l125 131z" />
    <glyph glyph-name="lacute" unicode="&#x13a;" horiz-adv-x="224" 
d="M100 717l24 2q-1 -26 -1 -97v-535q0 -67 1 -87h-24q1 19 1 86v536q0 71 -1 95zM203 900l-129 -126l-17 6l125 131z" />
    <glyph glyph-name="Lcommaaccent" unicode="&#x13b;" horiz-adv-x="443" 
d="M110 677h25q-2 -43 -2 -117v-538h200q63 0 99 2l-3 -24h-319q1 30 1 128v435q0 85 -1 114zM262 -56l23 3q3 -19 3 -37q0 -56 -37 -132l-17 5q32 70 32 120q0 23 -4 41z" />
    <glyph glyph-name="lcommaaccent" unicode="&#x13c;" horiz-adv-x="224" 
d="M100 717l24 2q-1 -26 -1 -97v-535q0 -67 1 -87h-24q1 19 1 86v536q0 71 -1 95zM106 -56l23 3q3 -19 3 -37q0 -56 -37 -132l-17 5q32 70 32 120q0 23 -4 41z" />
    <glyph glyph-name="Lcaron" unicode="&#x13d;" horiz-adv-x="443" 
d="M110 677h25q-2 -43 -2 -117v-538h200q63 0 99 2l-3 -24h-319q1 30 1 128v435q0 85 -1 114zM309 678l23 3q3 -20 3 -37q0 -56 -37 -132l-17 5q32 70 32 120q0 23 -4 41z" />
    <glyph glyph-name="lcaron" unicode="&#x13e;" horiz-adv-x="224" 
d="M100 717l24 2q-1 -26 -1 -97v-535q0 -67 1 -87h-24q1 19 1 86v536q0 71 -1 95zM197 718l23 3q3 -19 3 -37q0 -56 -37 -132l-17 5q32 70 32 120q0 23 -4 41z" />
    <glyph glyph-name="Ldot" unicode="&#x13f;" horiz-adv-x="443" 
d="M110 677h25q-2 -43 -2 -117v-538h200q63 0 99 2l-3 -24h-319q1 30 1 128v435q0 85 -1 114zM372 353q0 -10 -6.5 -16.5t-16.5 -6.5t-16 6.5t-6 16.5t6 16.5t16 6.5t16.5 -6.5t6.5 -16.5z" />
    <glyph glyph-name="ldot" unicode="&#x140;" horiz-adv-x="239" 
d="M100 717l24 2q-1 -26 -1 -97v-535q0 -67 1 -87h-24q1 19 1 86v536q0 71 -1 95zM251 351q0 -10 -6.5 -16.5t-16.5 -6.5t-16 6.5t-6 16.5t6 16.5t16 6.5t16.5 -6.5t6.5 -16.5z" />
    <glyph glyph-name="Lslash" unicode="&#x141;" horiz-adv-x="443" 
d="M110 677h25q-2 -43 -2 -117v-227l155 95v-24l-155 -95v-287h200q63 0 99 2l-3 -24h-319q1 30 1 128v168l-76 -46v24l76 46v243q0 85 -1 114z" />
    <glyph glyph-name="lslash" unicode="&#x142;" horiz-adv-x="224" 
d="M100 716l24 3q-1 -20 -1 -98v-255l82 67v-26l-82 -67v-253q0 -67 1 -87h-24q1 19 1 86v235l-79 -65v26l79 65v274q0 77 -1 95z" />
    <glyph glyph-name="Nacute" unicode="&#x143;" horiz-adv-x="725" 
d="M593 677h22q-1 -51 -1 -135v-399q0 -102 1 -152h-7l-453 604q-20 27 -23 33h-2q1 -19 1 -53v-575h-21q0 20 0.5 61t0.5 64v435q0 80 -1 125h6l445 -594q1 -1 31 -45h2q-1 16 -1 56v575zM488 858l-129 -126l-17 6l125 131z" />
    <glyph glyph-name="nacute" unicode="&#x144;" horiz-adv-x="528" 
d="M436 292v-185q0 -21 0.5 -53t0.5 -54h-24q0 26 0.5 56t0.5 51v180q0 94 -31.5 135.5t-97.5 41.5q-88 0 -168 -111v-353h-23q1 50 1 107v281q0 53 -1 86l23 2v-93q79 102 175 102q76 0 110 -48t34 -145zM356 656l-129 -126l-17 6l125 131z" />
    <glyph glyph-name="Ncommaaccent" unicode="&#x145;" horiz-adv-x="725" 
d="M593 677h22q-1 -51 -1 -135v-399q0 -102 1 -152h-7l-453 604q-20 27 -23 33h-2q1 -19 1 -53v-575h-21q0 20 0.5 61t0.5 64v435q0 80 -1 125h6l445 -594q1 -1 31 -45h2q-1 16 -1 56v575zM351 -56l23 3q3 -19 3 -37q0 -56 -37 -132l-17 5q32 70 32 120q0 23 -4 41z" />
    <glyph glyph-name="ncommaaccent" unicode="&#x146;" horiz-adv-x="528" 
d="M436 292v-185q0 -21 0.5 -53t0.5 -54h-24q0 26 0.5 56t0.5 51v180q0 94 -31.5 135.5t-97.5 41.5q-88 0 -168 -111v-353h-23q1 50 1 107v281q0 53 -1 86l23 2v-93q79 102 175 102q76 0 110 -48t34 -145zM255 -56l23 3q3 -19 3 -37q0 -56 -37 -132l-17 5q32 70 32 120
q0 23 -4 41z" />
    <glyph glyph-name="Ncaron" unicode="&#x147;" horiz-adv-x="725" 
d="M593 677h22q-1 -51 -1 -135v-399q0 -102 1 -152h-7l-453 604q-20 27 -23 33h-2q1 -19 1 -53v-575h-21q0 20 0.5 61t0.5 64v435q0 80 -1 125h6l445 -594q1 -1 31 -45h2q-1 16 -1 56v575zM482 865l-100 -133h-11l-103 133l19 7l90 -116l86 116z" />
    <glyph glyph-name="ncaron" unicode="&#x148;" horiz-adv-x="528" 
d="M436 292v-185q0 -21 0.5 -53t0.5 -54h-24q0 26 0.5 56t0.5 51v180q0 94 -31.5 135.5t-97.5 41.5q-88 0 -168 -111v-353h-23q1 50 1 107v281q0 53 -1 86l23 2v-93q79 102 175 102q76 0 110 -48t34 -145zM371 663l-100 -133h-11l-103 133l19 7l90 -116l86 116z" />
    <glyph glyph-name="Eng" unicode="&#x14a;" horiz-adv-x="725" 
d="M593 677h22q-1 -51 -1 -135v-555q0 -33 -2 -58.5t-11.5 -58.5t-25.5 -54.5t-46 -37t-71 -15.5q-29 0 -47 7v25q20 -10 51 -10q42 0 70 18.5t40.5 52t16.5 64t4 70.5v21l-438 584q-20 27 -23 33h-2q1 -19 1 -53v-575h-21q0 20 0.5 61t0.5 64v435q0 80 -1 125h6l445 -594
q10 -13 32 -45h1q-1 16 -1 56v575z" />
    <glyph glyph-name="eng" unicode="&#x14b;" horiz-adv-x="528" 
d="M436 292v-364q0 -182 -146 -182q-41 0 -65 12l-1 22q32 -15 64 -15q65 0 95.5 40.5t30.5 125.5v356q0 94 -31.5 135.5t-97.5 41.5q-88 0 -168 -111v-353h-23q1 50 1 107v281q0 53 -1 86l23 2v-93q79 102 175 102q76 0 110 -48t34 -145z" />
    <glyph glyph-name="Omacron" unicode="&#x14c;" horiz-adv-x="741" 
d="M382 687q131 0 217.5 -93.5t86.5 -249.5q0 -166 -87 -260t-235 -94q-136 0 -222.5 99t-86.5 245q0 163 89.5 258t237.5 95zM375 667q-136 0 -217 -90.5t-81 -236.5q0 -143 82 -236.5t211 -93.5t211.5 87t82.5 239t-79.5 241.5t-209.5 89.5zM452 784v-22h-167v22h167z" />
    <glyph glyph-name="omacron" unicode="&#x14d;" horiz-adv-x="534" 
d="M274 485q96 0 152.5 -66t56.5 -179q0 -115 -62 -182.5t-158 -67.5q-93 0 -152.5 67t-59.5 177q0 118 62.5 184.5t160.5 66.5zM270 466q-88 0 -142.5 -62t-54.5 -166q0 -105 54 -166t139 -61q86 0 140 60.5t54 165.5q0 110 -52 169.5t-138 59.5zM355 582v-22h-167v22h167z
" />
    <glyph glyph-name="Obreve" unicode="&#x14e;" horiz-adv-x="741" 
d="M382 687q131 0 217.5 -93.5t86.5 -249.5q0 -166 -87 -260t-235 -94q-136 0 -222.5 99t-86.5 245q0 163 89.5 258t237.5 95zM375 667q-136 0 -217 -90.5t-81 -236.5q0 -143 82 -236.5t211 -93.5t211.5 87t82.5 239t-79.5 241.5t-209.5 89.5zM456 860h21q-4 -58 -33.5 -87
t-78.5 -29q-44 0 -72 29.5t-30 86.5h20q4 -52 25.5 -73.5t61.5 -21.5q82 0 86 95z" />
    <glyph glyph-name="obreve" unicode="&#x14f;" horiz-adv-x="534" 
d="M274 485q96 0 152.5 -66t56.5 -179q0 -115 -62 -182.5t-158 -67.5q-93 0 -152.5 67t-59.5 177q0 118 62.5 184.5t160.5 66.5zM270 466q-88 0 -142.5 -62t-54.5 -166q0 -105 54 -166t139 -61q86 0 140 60.5t54 165.5q0 110 -52 169.5t-138 59.5zM363 658h21
q-4 -58 -33.5 -87t-78.5 -29q-44 0 -72 29.5t-30 86.5h20q4 -52 25.5 -73.5t61.5 -21.5q82 0 86 95z" />
    <glyph glyph-name="Ohungarumlaut" unicode="&#x150;" horiz-adv-x="741" 
d="M382 687q131 0 217.5 -93.5t86.5 -249.5q0 -166 -87 -260t-235 -94q-136 0 -222.5 99t-86.5 245q0 163 89.5 258t237.5 95zM375 667q-136 0 -217 -90.5t-81 -236.5q0 -143 82 -236.5t211 -93.5t211.5 87t82.5 239t-79.5 241.5t-209.5 89.5zM490 877l-68 -146h-17l61 149z
M389 877l-68 -146h-17l61 149z" />
    <glyph glyph-name="ohungarumlaut" unicode="&#x151;" horiz-adv-x="534" 
d="M274 485q96 0 152.5 -66t56.5 -179q0 -115 -62 -182.5t-158 -67.5q-93 0 -152.5 67t-59.5 177q0 118 62.5 184.5t160.5 66.5zM270 466q-88 0 -142.5 -62t-54.5 -166q0 -105 54 -166t139 -61q86 0 140 60.5t54 165.5q0 110 -52 169.5t-138 59.5zM377 675l-68 -146h-17
l61 149zM276 675l-68 -146h-17l61 149z" />
    <glyph glyph-name="OE" unicode="&#x152;" horiz-adv-x="881" 
d="M820 677l1 -24q-74 2 -118 2h-159v-301h147q86 0 111 1l-2 -24q-22 1 -110 1h-146v-309h176q80 0 119 2l-2 -25h-293q-18 0 -83 -4t-108 -4q-132 0 -215 97t-83 243q0 163 86 256.5t230 93.5q39 0 93.5 -2.5t77.5 -2.5h278zM522 132v414q0 73 -1 107q-81 9 -157 9
q-132 0 -209.5 -89.5t-77.5 -234.5q0 -143 78.5 -234.5t203.5 -91.5q95 0 162 12q1 39 1 108z" />
    <glyph glyph-name="oe" unicode="&#x153;" horiz-adv-x="886" 
d="M840 255h-358v-19q0 -108 51 -166t142 -58q77 0 137 48l3 -22q-69 -48 -145 -48q-77 0 -129 42t-71 119q-21 -76 -76 -118.5t-131 -42.5q-93 0 -152.5 67t-59.5 177q0 118 62.5 184.5t160.5 66.5q76 0 127 -41.5t70 -118.5q20 72 71.5 116t127.5 44q81 0 126 -53t45 -138
q0 -26 -1 -39zM482 273h337v21q0 78 -40 125.5t-112 47.5q-74 0 -126 -53t-59 -141zM270 466q-88 0 -142.5 -62t-54.5 -166q0 -105 54 -166t139 -61q86 0 140 60.5t54 165.5q0 110 -52 169.5t-138 59.5z" />
    <glyph glyph-name="Racute" unicode="&#x154;" horiz-adv-x="525" 
d="M260 322h-127q1 -295 2 -322h-25q1 34 1 120v444q0 16 -0.5 52.5t-0.5 60.5q58 2 145 2q93 0 144 -43.5t51 -125.5q0 -80 -44.5 -128t-120.5 -57l207 -325h-31zM133 657v-314h124q79 0 124.5 44.5t45.5 120.5q0 150 -177 150q-87 0 -117 -1zM364 858l-129 -126l-17 6
l125 131z" />
    <glyph glyph-name="racute" unicode="&#x155;" horiz-adv-x="303" 
d="M297 481l-1 -23q-14 5 -39 5q-82 0 -140 -142v-235q0 -62 1 -86h-24q0 12 0.5 40t0.5 46v306q0 16 -0.5 44t-0.5 38l23 1v-119q52 129 151 129q18 0 29 -4zM267 656l-129 -126l-17 6l125 131z" />
    <glyph glyph-name="Rcommaaccent" unicode="&#x156;" horiz-adv-x="525" 
d="M260 322h-127q1 -295 2 -322h-25q1 34 1 120v444q0 16 -0.5 52.5t-0.5 60.5q58 2 145 2q93 0 144 -43.5t51 -125.5q0 -80 -44.5 -128t-120.5 -57l207 -325h-31zM133 657v-314h124q79 0 124.5 44.5t45.5 120.5q0 150 -177 150q-87 0 -117 -1zM271 -56l23 3q3 -19 3 -37
q0 -56 -37 -132l-17 5q32 70 32 120q0 23 -4 41z" />
    <glyph glyph-name="rcommaaccent" unicode="&#x157;" horiz-adv-x="303" 
d="M297 481l-1 -23q-14 5 -39 5q-82 0 -140 -142v-235q0 -62 1 -86h-24q0 12 0.5 40t0.5 46v306q0 16 -0.5 44t-0.5 38l23 1v-119q52 129 151 129q18 0 29 -4zM100 -56l23 3q3 -19 3 -37q0 -56 -37 -132l-17 5q32 70 32 120q0 23 -4 41z" />
    <glyph glyph-name="Rcaron" unicode="&#x158;" horiz-adv-x="525" 
d="M260 322h-127q1 -295 2 -322h-25q1 34 1 120v444q0 16 -0.5 52.5t-0.5 60.5q58 2 145 2q93 0 144 -43.5t51 -125.5q0 -80 -44.5 -128t-120.5 -57l207 -325h-31zM133 657v-314h124q79 0 124.5 44.5t45.5 120.5q0 150 -177 150q-87 0 -117 -1zM369 865l-100 -133h-11
l-103 133l19 7l90 -116l86 116z" />
    <glyph glyph-name="rcaron" unicode="&#x159;" horiz-adv-x="303" 
d="M297 481l-1 -23q-14 5 -39 5q-82 0 -140 -142v-235q0 -62 1 -86h-24q0 12 0.5 40t0.5 46v306q0 16 -0.5 44t-0.5 38l23 1v-119q52 129 151 129q18 0 29 -4zM280 663l-100 -133h-11l-103 133l19 7l90 -116l86 116z" />
    <glyph glyph-name="Sacute" unicode="&#x15a;" horiz-adv-x="474" 
d="M388 654l-6 -25q-56 36 -127 36q-75 0 -118 -40t-43 -100q0 -61 30.5 -97.5t118.5 -77.5q86 -40 123.5 -81.5t37.5 -105.5q0 -78 -54 -125.5t-142 -47.5q-91 0 -154 43l3 28q63 -49 154 -49q76 0 121.5 39.5t45.5 107.5q0 59 -33 97t-127 80q-79 35 -114 77t-35 108
q0 67 49.5 116.5t142.5 49.5q71 0 127 -33zM350 858l-129 -126l-17 6l125 131z" />
    <glyph glyph-name="sacute" unicode="&#x15b;" horiz-adv-x="362" 
d="M296 460l-7 -23q-40 29 -98 29q-53 0 -82 -29.5t-29 -72.5q0 -49 23 -71.5t87 -46.5q59 -23 90 -51t31 -78q0 -51 -36.5 -89t-113.5 -38q-62 0 -115 32l6 25q47 -35 114 -35q60 0 90.5 28t30.5 71q0 47 -27 71.5t-92 48.5q-60 23 -85 51.5t-25 77.5q0 51 36 88t105 37
q51 0 97 -25zM282 656l-129 -126l-17 6l125 131z" />
    <glyph glyph-name="Scircumflex" unicode="&#x15c;" horiz-adv-x="474" 
d="M388 654l-6 -25q-56 36 -127 36q-75 0 -118 -40t-43 -100q0 -61 30.5 -97.5t118.5 -77.5q86 -40 123.5 -81.5t37.5 -105.5q0 -78 -54 -125.5t-142 -47.5q-91 0 -154 43l3 28q63 -49 154 -49q76 0 121.5 39.5t45.5 107.5q0 59 -33 97t-127 80q-79 35 -114 77t-35 108
q0 67 49.5 116.5t142.5 49.5q71 0 127 -33zM248 872l103 -133l-19 -7l-90 116l-86 -116l-19 7l101 133h10z" />
    <glyph glyph-name="scircumflex" unicode="&#x15d;" horiz-adv-x="362" 
d="M296 460l-7 -23q-40 29 -98 29q-53 0 -82 -29.5t-29 -72.5q0 -49 23 -71.5t87 -46.5q59 -23 90 -51t31 -78q0 -51 -36.5 -89t-113.5 -38q-62 0 -115 32l6 25q47 -35 114 -35q60 0 90.5 28t30.5 71q0 47 -27 71.5t-92 48.5q-60 23 -85 51.5t-25 77.5q0 51 36 88t105 37
q51 0 97 -25zM188 670l103 -133l-19 -7l-90 116l-86 -116l-19 7l101 133h10z" />
    <glyph glyph-name="Scedilla" unicode="&#x15e;" horiz-adv-x="474" 
d="M388 654l-6 -25q-56 36 -127 36q-75 0 -118 -40t-43 -100q0 -61 30.5 -97.5t118.5 -77.5q86 -40 123.5 -81.5t37.5 -105.5q0 -76 -51 -123t-134 -50l-4 -47q29 0 48.5 -16.5t19.5 -47.5q0 -37 -30 -62.5t-73 -25.5l-2 18q34 -2 60 18.5t26 48.5q0 26 -16 38t-52 12l5 64
q-90 3 -147 43l3 28q63 -49 154 -49q76 0 121.5 39.5t45.5 107.5q0 59 -33 97t-127 80q-79 35 -114 77t-35 108q0 67 49.5 116.5t142.5 49.5q71 0 127 -33z" />
    <glyph glyph-name="scedilla" unicode="&#x15f;" horiz-adv-x="362" 
d="M296 460l-7 -23q-40 29 -98 29q-53 0 -82 -29.5t-29 -72.5q0 -49 23 -71.5t87 -46.5q58 -22 89.5 -51t31.5 -78t-34 -86.5t-106 -40.5l-4 -47q29 0 48.5 -16.5t19.5 -47.5q0 -37 -30 -62.5t-73 -25.5l-2 18q34 -2 60 18.5t26 48.5q0 26 -16 38t-52 12l5 64q-60 3 -107 32
l6 25q47 -35 114 -35q60 0 90.5 28t30.5 71q0 48 -26 70.5t-93 49.5q-60 24 -85 52t-25 77q0 51 36 88t105 37q51 0 97 -25z" />
    <glyph glyph-name="Scaron" unicode="&#x160;" horiz-adv-x="474" 
d="M388 654l-6 -25q-56 36 -127 36q-75 0 -118 -40t-43 -100q0 -61 30.5 -97.5t118.5 -77.5q86 -40 123.5 -81.5t37.5 -105.5q0 -78 -54 -125.5t-142 -47.5q-91 0 -154 43l3 28q63 -49 154 -49q76 0 121.5 39.5t45.5 107.5q0 59 -33 97t-127 80q-79 35 -114 77t-35 108
q0 67 49.5 116.5t142.5 49.5q71 0 127 -33zM356 865l-100 -133h-11l-103 133l19 7l90 -116l86 116z" />
    <glyph glyph-name="scaron" unicode="&#x161;" horiz-adv-x="362" 
d="M296 460l-7 -23q-40 29 -98 29q-53 0 -82 -29.5t-29 -72.5q0 -49 23 -71.5t87 -46.5q59 -23 90 -51t31 -78q0 -51 -36.5 -89t-113.5 -38q-62 0 -115 32l6 25q47 -35 114 -35q60 0 90.5 28t30.5 71q0 47 -27 71.5t-92 48.5q-60 23 -85 51.5t-25 77.5q0 51 36 88t105 37
q51 0 97 -25zM292 663l-100 -133h-11l-103 133l19 7l90 -116l86 116z" />
    <glyph glyph-name="Tcedilla" unicode="&#x162;" horiz-adv-x="486" 
d="M474 677v-22q-31 1 -89 1h-134v-540q0 -36 0.5 -71t0.5 -45h-24q1 26 1 119v537h-130q-55 0 -87 -1l1 22h461zM231 -56l23 3q3 -19 3 -37q0 -56 -37 -132l-17 5q32 70 32 120q0 23 -4 41z" />
    <glyph glyph-name="tcedilla" unicode="&#x163;" horiz-adv-x="265" 
d="M248 475l-3 -20h-131v-337q0 -107 83 -107q30 0 55 14v-20q-32 -15 -61 -15q-99 0 -99 122v343h-74l6 20h68v99l22 9v-108h134zM165 -56l23 3q3 -19 3 -37q0 -56 -37 -132l-17 5q32 70 32 120q0 23 -4 41z" />
    <glyph glyph-name="Tcaron" unicode="&#x164;" horiz-adv-x="486" 
d="M474 677v-22q-31 1 -89 1h-134v-540q0 -36 0.5 -71t0.5 -45h-24q1 26 1 119v537h-130q-55 0 -87 -1l1 22h461zM346 865l-100 -133h-11l-103 133l19 7l90 -116l86 116z" />
    <glyph glyph-name="tcaron" unicode="&#x165;" horiz-adv-x="265" 
d="M248 475l-3 -20h-131v-337q0 -107 83 -107q30 0 55 14v-20q-32 -15 -61 -15q-99 0 -99 122v343h-74l6 20h68v99l22 9v-108h134zM192 716l23 3q3 -19 3 -37q0 -56 -37 -132l-17 5q32 70 32 120q0 23 -4 41z" />
    <glyph glyph-name="Tbar" unicode="&#x166;" horiz-adv-x="486" 
d="M474 677v-22q-31 1 -89 1h-134v-356h161v-21h-161v-163q0 -36 0.5 -71t0.5 -45h-24q1 26 1 119v160h-160v21h160v356h-130q-55 0 -87 -1l1 22h461z" />
    <glyph glyph-name="tbar" unicode="&#x167;" horiz-adv-x="265" 
d="M248 475l-3 -20h-131v-193h131v-20h-131v-124q0 -107 83 -107q30 0 55 14v-20q-32 -15 -61 -15q-99 0 -99 122v130h-70v20h70v193h-74l6 20h68v99l22 9v-108h134z" />
    <glyph glyph-name="Utilde" unicode="&#x168;" horiz-adv-x="666" 
d="M539 677h26q-1 -35 -1 -112v-301q0 -274 -235 -274q-117 0 -171.5 70.5t-54.5 194.5v293q0 61 -2 129h26q-2 -62 -2 -120v-296q0 -250 212 -250q205 0 205 245v305q0 20 -3 116zM458 824l17 -13q-38 -66 -78 -66q-31 0 -67 32q-29 25 -49 25q-35 0 -64 -59l-14 12
q36 67 79 67q31 0 66 -33q26 -24 47 -24q17 0 31 13t32 46z" />
    <glyph glyph-name="utilde" unicode="&#x169;" horiz-adv-x="529" 
d="M410 474l25 1q-2 -82 -2 -97v-300q0 -16 1 -43t1 -35h-24v91q-75 -101 -169 -101q-48 0 -80 16t-46 45.5t-19 58.5t-5 68v200q0 21 -0.5 52t-0.5 44l25 2q-2 -68 -2 -98v-196q0 -87 28.5 -129t104.5 -42q89 0 164 109v258q0 54 -1 96zM386 622l17 -13q-38 -66 -78 -66
q-31 0 -67 32q-29 25 -49 25q-35 0 -64 -59l-14 12q36 67 79 67q31 0 66 -33q26 -24 47 -24q17 0 31 13t32 46z" />
    <glyph glyph-name="Umacron" unicode="&#x16a;" horiz-adv-x="666" 
d="M539 677h26q-1 -35 -1 -112v-301q0 -274 -235 -274q-117 0 -171.5 70.5t-54.5 194.5v293q0 61 -2 129h26q-2 -62 -2 -120v-296q0 -250 212 -250q205 0 205 245v305q0 20 -3 116zM420 784v-22h-167v22h167z" />
    <glyph glyph-name="umacron" unicode="&#x16b;" horiz-adv-x="529" 
d="M410 474l25 1q-2 -82 -2 -97v-300q0 -16 1 -43t1 -35h-24v91q-75 -101 -169 -101q-48 0 -80 16t-46 45.5t-19 58.5t-5 68v200q0 21 -0.5 52t-0.5 44l25 2q-2 -68 -2 -98v-196q0 -87 28.5 -129t104.5 -42q89 0 164 109v258q0 54 -1 96zM351 582v-22h-167v22h167z" />
    <glyph glyph-name="Ubreve" unicode="&#x16c;" horiz-adv-x="666" 
d="M539 677h26q-1 -35 -1 -112v-301q0 -274 -235 -274q-117 0 -171.5 70.5t-54.5 194.5v293q0 61 -2 129h26q-2 -62 -2 -120v-296q0 -250 212 -250q205 0 205 245v305q0 20 -3 116zM419 860h21q-4 -58 -33.5 -87t-78.5 -29q-44 0 -72 29.5t-30 86.5h20q4 -52 25.5 -73.5
t61.5 -21.5q82 0 86 95z" />
    <glyph glyph-name="ubreve" unicode="&#x16d;" horiz-adv-x="529" 
d="M410 474l25 1q-2 -82 -2 -97v-300q0 -16 1 -43t1 -35h-24v91q-75 -101 -169 -101q-48 0 -80 16t-46 45.5t-19 58.5t-5 68v200q0 21 -0.5 52t-0.5 44l25 2q-2 -68 -2 -98v-196q0 -87 28.5 -129t104.5 -42q89 0 164 109v258q0 54 -1 96zM353 658h21q-4 -58 -33.5 -87
t-78.5 -29q-44 0 -72 29.5t-30 86.5h20q4 -52 25.5 -73.5t61.5 -21.5q82 0 86 95z" />
    <glyph glyph-name="Uring" unicode="&#x16e;" horiz-adv-x="666" 
d="M539 677h26q-1 -35 -1 -112v-301q0 -274 -235 -274q-117 0 -171.5 70.5t-54.5 194.5v293q0 61 -2 129h26q-2 -62 -2 -120v-296q0 -250 212 -250q205 0 205 245v305q0 20 -3 116zM418 811q0 -32 -22.5 -55.5t-53.5 -23.5q-33 0 -55.5 21.5t-22.5 53.5q0 34 23 56.5
t56 22.5t54 -22t21 -53zM342 869q-24 0 -41 -16.5t-17 -42.5q0 -27 16.5 -43.5t41.5 -16.5q24 0 40 17t16 42q0 27 -16 43.5t-40 16.5z" />
    <glyph glyph-name="uring" unicode="&#x16f;" horiz-adv-x="529" 
d="M410 474l25 1q-2 -82 -2 -97v-300q0 -16 1 -43t1 -35h-24v91q-75 -101 -169 -101q-48 0 -80 16t-46 45.5t-19 58.5t-5 68v200q0 21 -0.5 52t-0.5 44l25 2q-2 -68 -2 -98v-196q0 -87 28.5 -129t104.5 -42q89 0 164 109v258q0 54 -1 96zM345 609q0 -32 -22.5 -55.5
t-53.5 -23.5q-33 0 -55.5 21.5t-22.5 53.5q0 34 23 56.5t56 22.5t54 -22t21 -53zM269 667q-24 0 -41 -16.5t-17 -42.5q0 -27 16.5 -43.5t41.5 -16.5q24 0 40 17t16 42q0 27 -16 43.5t-40 16.5z" />
    <glyph glyph-name="Uhungarumlaut" unicode="&#x170;" horiz-adv-x="666" 
d="M539 677h26q-1 -35 -1 -112v-301q0 -274 -235 -274q-117 0 -171.5 70.5t-54.5 194.5v293q0 61 -2 129h26q-2 -62 -2 -120v-296q0 -250 212 -250q205 0 205 245v305q0 20 -3 116zM461 877l-68 -146h-17l61 149zM360 877l-68 -146h-17l61 149z" />
    <glyph glyph-name="uhungarumlaut" unicode="&#x171;" horiz-adv-x="529" 
d="M410 474l25 1q-2 -82 -2 -97v-300q0 -16 1 -43t1 -35h-24v91q-75 -101 -169 -101q-48 0 -80 16t-46 45.5t-19 58.5t-5 68v200q0 21 -0.5 52t-0.5 44l25 2q-2 -68 -2 -98v-196q0 -87 28.5 -129t104.5 -42q89 0 164 109v258q0 54 -1 96zM383 675l-68 -146h-17l61 149z
M282 675l-68 -146h-17l61 149z" />
    <glyph glyph-name="Uogonek" unicode="&#x172;" horiz-adv-x="666" 
d="M539 677h26q-1 -35 -1 -112v-301q0 -215 -145 -262q-42 -58 -56 -84t-14 -49q0 -59 57 -59q11 0 16 1v-19q-8 -1 -22 -1q-34 0 -52.5 20t-18.5 53q0 25 12.5 52.5t51.5 79.5q-30 -6 -64 -6q-117 0 -171.5 70.5t-54.5 194.5v293q0 61 -2 129h26q-2 -62 -2 -120v-296
q0 -250 212 -250q205 0 205 245v305q0 20 -3 116z" />
    <glyph glyph-name="uogonek" unicode="&#x173;" horiz-adv-x="529" 
d="M410 474l25 1q-2 -82 -2 -97v-300q0 -16 1 -43t1 -35h-2q-41 -58 -54.5 -83t-13.5 -48q0 -59 57 -59q11 0 16 1v-19q-8 -1 -22 -1q-34 0 -52.5 20t-18.5 53q0 25 13.5 53.5t53.5 82.5h-1v91q-75 -101 -169 -101q-48 0 -80 16t-46 45.5t-19 58.5t-5 68v200q0 21 -0.5 52
t-0.5 44l25 2q-2 -68 -2 -98v-196q0 -87 28.5 -129t104.5 -42q89 0 164 109v258q0 54 -1 96z" />
    <glyph glyph-name="Wcircumflex" unicode="&#x174;" horiz-adv-x="887" 
d="M850 677h22l-95 -324l-53 -183t-52 -182h-19l-181 565q-16 53 -22 77h-2q-6 -26 -22 -75l-190 -567h-15l-113 378l-93 311h23l177 -594q11 -37 14 -54h2q6 25 15 52l199 596h9l195 -600q3 -8 4.5 -15t3.5 -15.5t4 -15.5h2q4 18 13 50zM451 872l103 -133l-19 -7l-90 116
l-86 -116l-19 7l101 133h10z" />
    <glyph glyph-name="wcircumflex" unicode="&#x175;" horiz-adv-x="704" 
d="M652 475h22l-150 -484h-26l-135 424q-5 15 -5 29h-3q-3 -18 -8 -33l-143 -420h-23l-152 484h23l134 -431q2 -5 3.5 -16t2.5 -14h1q1 2 2 8.5t2.5 12.5t3.5 11l147 429h17l139 -433q3 -10 7 -28h1q4 20 7 29zM358 670l103 -133l-19 -7l-90 116l-86 -116l-19 7l101 133h10z
" />
    <glyph glyph-name="Ycircumflex" unicode="&#x176;" horiz-adv-x="489" 
d="M458 677h23l-115 -211l-112 -210v-144q0 -81 1 -112h-24q0 12 0.5 49t0.5 58v149l-115 218l-108 203h24l183 -347q3 -7 9 -18.5l10 -19.5l7 -14h2q14 32 27 55zM252 872l103 -133l-19 -7l-90 116l-86 -116l-19 7l101 133h10z" />
    <glyph glyph-name="ycircumflex" unicode="&#x177;" horiz-adv-x="433" 
d="M387 475h23l-145 -374l-139 -360h-26l102 256l-179 478h24l153 -411q12 -35 13 -42h1q8 24 14 40zM222 670l103 -133l-19 -7l-90 116l-86 -116l-19 7l101 133h10z" />
    <glyph glyph-name="Ydieresis" unicode="&#x178;" horiz-adv-x="489" 
d="M458 677h23l-115 -211l-112 -210v-144q0 -81 1 -112h-24q0 12 0.5 49t0.5 58v149l-115 218l-108 203h24l183 -347q3 -7 9 -18.5l10 -19.5l7 -14h2q14 32 27 55zM342 777q0 -8 -6.5 -14.5t-14.5 -6.5t-14 6.5t-6 14.5t6 14t14 6t14.5 -6t6.5 -14zM183 777q0 -8 -6.5 -14.5
t-14.5 -6.5t-14 6.5t-6 14.5t6 14t14 6t14.5 -6t6.5 -14z" />
    <glyph glyph-name="Zacute" unicode="&#x179;" horiz-adv-x="533" 
d="M507 677l1 -3l-451 -654h330q70 0 118 3l-2 -23h-481l-2 4l449 652h-292q-15 0 -59.5 -0.5t-63.5 -0.5l2 22h451zM384 858l-129 -126l-17 6l125 131z" />
    <glyph glyph-name="zacute" unicode="&#x17a;" horiz-adv-x="397" 
d="M340 455h-204q-58 0 -83 -1l3 21h327q-4 -4 -84.5 -117.5l-158.5 -225.5l-79 -112h220q82 0 100 1l-4 -21h-357zM315 656l-129 -126l-17 6l125 131z" />
    <glyph glyph-name="Zdotaccent" unicode="&#x17b;" horiz-adv-x="533" 
d="M507 677l1 -3l-451 -654h330q70 0 118 3l-2 -23h-481l-2 4l449 652h-292q-15 0 -59.5 -0.5t-63.5 -0.5l2 22h451zM302 781q0 -9 -7 -16t-16 -7t-15.5 7t-6.5 16t6.5 15.5t15.5 6.5t16 -6.5t7 -15.5z" />
    <glyph glyph-name="zdotaccent" unicode="&#x17c;" horiz-adv-x="397" 
d="M340 455h-204q-58 0 -83 -1l3 21h327q-4 -4 -84.5 -117.5l-158.5 -225.5l-79 -112h220q82 0 100 1l-4 -21h-357zM236 579q0 -9 -7 -16t-16 -7t-15.5 7t-6.5 16t6.5 15.5t15.5 6.5t16 -6.5t7 -15.5z" />
    <glyph glyph-name="Zcaron" unicode="&#x17d;" horiz-adv-x="533" 
d="M507 677l1 -3l-451 -654h330q70 0 118 3l-2 -23h-481l-2 4l449 652h-292q-15 0 -59.5 -0.5t-63.5 -0.5l2 22h451zM389 865l-100 -133h-11l-103 133l19 7l90 -116l86 116z" />
    <glyph glyph-name="zcaron" unicode="&#x17e;" horiz-adv-x="397" 
d="M340 455h-204q-58 0 -83 -1l3 21h327q-4 -4 -84.5 -117.5l-158.5 -225.5l-79 -112h220q82 0 100 1l-4 -21h-357zM319 663l-100 -133h-11l-103 133l19 7l90 -116l86 116z" />
    <glyph glyph-name="florin" unicode="&#x192;" horiz-adv-x="497" 
d="M401 672l-4 -22q-22 11 -46 11q-61 0 -76 -81q-6 -35 -15 -147h89l-4 -19h-87l-21 -229q-6 -61 -11 -88q-9 -50 -29 -79.5t-63 -29.5q-12 0 -24 3l2 25q12 -5 24 -5q20 0 34 11q29 26 43 164l21 228h-58l2 19h58q0 4 5 62t10 85q19 100 103 100q23 0 47 -8z" />
    <glyph glyph-name="AEacute" unicode="&#x1fc;" horiz-adv-x="796" 
d="M735 677l1 -24q-74 2 -117 2h-160v-301h148q86 0 111 1l-3 -24q-22 1 -110 1h-146v-309h176q80 0 119 2l-1 -25h-318q0 6 1 40t1 69v146h-245q-150 -240 -160 -255h-30l192 299l238 378h303zM414 610l-208 -335h231v323q0 9 1.5 28t1.5 28q-4 -8 -14.5 -25t-11.5 -19z
M697 858l-129 -126l-17 6l125 131z" />
    <glyph glyph-name="aeacute" unicode="&#x1fd;" horiz-adv-x="762" 
d="M716 256h-359v-19q0 -108 51.5 -166.5t142.5 -58.5q75 0 136 49l4 -22q-70 -49 -146 -49q-138 0 -188 124q-49 -70 -92.5 -97t-88.5 -27q-54 0 -87 33.5t-33 86.5q0 101 112 136q59 18 168 29v63q0 68 -26 97t-77 29q-72 0 -140 -59l-8 24q80 56 153 56q54 0 86 -32.5
t32 -101.5q20 61 70 97.5t119 36.5q82 0 127 -53t45 -137q0 -26 -1 -39zM357 274h338v21q0 78 -40 125t-113 47q-70 0 -125.5 -53t-59.5 -140zM350 133q-14 45 -14 123q-99 -7 -158 -26q-100 -32 -100 -117q0 -43 27.5 -72.5t74.5 -29.5q80 0 170 122zM497 656l-129 -126
l-17 6l125 131z" />
    <glyph glyph-name="Oslashacute" unicode="&#x1fe;" horiz-adv-x="741" 
d="M681 673l-77 -85q82 -95 82 -244q0 -166 -87 -260t-235 -94q-130 0 -217 92l-78 -86l-16 12l81 90q-79 96 -79 236q0 163 89.5 258t237.5 95q122 0 207 -83l76 83zM149 115l426 472q-77 80 -200 80q-136 0 -217 -90.5t-81 -236.5q0 -134 72 -225zM589 571l-427 -472
q81 -89 208 -89q129 0 211.5 87t82.5 239q0 146 -75 235zM482 858l-129 -126l-17 6l125 131z" />
    <glyph glyph-name="oslashacute" unicode="&#x1ff;" horiz-adv-x="534" 
d="M511 483l-73 -79q45 -64 45 -164q0 -115 -62 -182.5t-158 -67.5q-92 0 -151 65l-68 -74l-16 13l72 76q-49 66 -49 164q0 118 62.5 184.5t160.5 66.5q95 0 151 -64l70 75zM115 87l295 318q-52 61 -140 61t-142.5 -62t-54.5 -166q0 -92 42 -151zM422 388l-294 -317
q52 -60 138 -60t140 60.5t54 165.5q0 92 -38 151zM372 656l-129 -126l-17 6l125 131z" />
    <glyph glyph-name="Scommaaccent" unicode="&#x218;" horiz-adv-x="474" 
d="M388 654l-6 -25q-56 36 -127 36q-75 0 -118 -40t-43 -100q0 -61 30.5 -97.5t118.5 -77.5q86 -40 123.5 -81.5t37.5 -105.5q0 -78 -54 -125.5t-142 -47.5q-91 0 -154 43l3 28q63 -49 154 -49q76 0 121.5 39.5t45.5 107.5q0 59 -33 97t-127 80q-79 35 -114 77t-35 108
q0 67 49.5 116.5t142.5 49.5q71 0 127 -33zM210 -56l23 3q3 -19 3 -37q0 -56 -37 -132l-17 5q32 70 32 120q0 23 -4 41z" />
    <glyph glyph-name="scommaaccent" unicode="&#x219;" horiz-adv-x="362" 
d="M296 460l-7 -23q-40 29 -98 29q-53 0 -82 -29.5t-29 -72.5q0 -49 23 -71.5t87 -46.5q59 -23 90 -51t31 -78q0 -51 -36.5 -89t-113.5 -38q-62 0 -115 32l6 25q47 -35 114 -35q60 0 90.5 28t30.5 71q0 47 -27 71.5t-92 48.5q-60 23 -85 51.5t-25 77.5q0 51 36 88t105 37
q51 0 97 -25zM165 -56l23 3q3 -19 3 -37q0 -56 -37 -132l-17 5q32 70 32 120q0 23 -4 41z" />
    <glyph glyph-name="Tcommaaccent" unicode="&#x21a;" horiz-adv-x="486" 
d="M474 677v-22q-31 1 -89 1h-134v-540q0 -36 0.5 -71t0.5 -45h-24q1 26 1 119v537h-130q-55 0 -87 -1l1 22h461zM231 -56l23 3q3 -19 3 -37q0 -56 -37 -132l-17 5q32 70 32 120q0 23 -4 41z" />
    <glyph glyph-name="tcommaaccent" unicode="&#x21b;" horiz-adv-x="265" 
d="M248 475l-3 -20h-131v-337q0 -107 83 -107q30 0 55 14v-20q-32 -15 -61 -15q-99 0 -99 122v343h-74l6 20h68v99l22 9v-108h134zM165 -56l23 3q3 -19 3 -37q0 -56 -37 -132l-17 5q32 70 32 120q0 23 -4 41z" />
    <glyph glyph-name="circumflex" unicode="&#x2c6;" horiz-adv-x="261" 
d="M128 670l103 -133l-19 -7l-90 116l-86 -116l-19 7l101 133h10z" />
    <glyph glyph-name="caron" unicode="&#x2c7;" horiz-adv-x="238" 
d="M226 663l-100 -133h-11l-103 133l19 7l90 -116l86 116z" />
    <glyph glyph-name="uni02C9" unicode="&#x2c9;" horiz-adv-x="251" 
d="M207 582v-22h-167v22h167z" />
    <glyph glyph-name="breve" unicode="&#x2d8;" horiz-adv-x="258" 
d="M215 658h21q-4 -58 -33.5 -87t-78.5 -29q-44 0 -72 29.5t-30 86.5h20q4 -52 25.5 -73.5t61.5 -21.5q82 0 86 95z" />
    <glyph glyph-name="dotaccent" unicode="&#x2d9;" horiz-adv-x="187" 
d="M116 579q0 -9 -7 -16t-16 -7t-15.5 7t-6.5 16t6.5 15.5t15.5 6.5t16 -6.5t7 -15.5z" />
    <glyph glyph-name="ring" unicode="&#x2da;" horiz-adv-x="258" 
d="M210 609q0 -32 -22.5 -55.5t-53.5 -23.5q-33 0 -55.5 21.5t-22.5 53.5q0 34 23 56.5t56 22.5t54 -22t21 -53zM134 667q-24 0 -41 -16.5t-17 -42.5q0 -27 16.5 -43.5t41.5 -16.5q24 0 40 17t16 42q0 27 -16 43.5t-40 16.5z" />
    <glyph glyph-name="ogonek" unicode="&#x2db;" horiz-adv-x="149" 
d="M90 0h21q-41 -58 -54.5 -83t-13.5 -48q0 -59 57 -59q11 0 16 1v-19q-8 -1 -22 -1q-34 0 -52.5 20t-18.5 53q0 25 13.5 53.5t53.5 82.5z" />
    <glyph glyph-name="tilde" unicode="&#x2dc;" horiz-adv-x="304" 
d="M272 622l17 -13q-38 -66 -78 -66q-31 0 -67 32q-29 25 -49 25q-35 0 -64 -59l-14 12q36 67 79 67q31 0 66 -33q26 -24 47 -24q17 0 31 13t32 46z" />
    <glyph glyph-name="hungarumlaut" unicode="&#x2dd;" horiz-adv-x="265" 
d="M222 675l-68 -146h-17l61 149zM121 675l-68 -146h-17l61 149z" />
    <glyph glyph-name="uni03A9" unicode="&#x3a9;" horiz-adv-x="716" 
d="M665 19v-19h-207v16q188 138 188 362q0 138 -74 226.5t-209 88.5q-127 0 -209.5 -86t-82.5 -226q0 -130 57 -221.5t134 -143.5v-16h-208v19h171q-31 24 -59 54.5t-55.5 74t-43.5 103t-16 125.5q0 151 88 243.5t225 92.5q142 0 222 -91.5t80 -243.5q0 -118 -50.5 -208.5
t-128.5 -149.5h178z" />
    <glyph glyph-name="uni03BC" unicode="&#x3bc;" horiz-adv-x="519" 
d="M413 474l24 1q-1 -41 -1 -97v-300q0 -16 0.5 -43t0.5 -35h-23v88q-32 -54 -69.5 -77t-88.5 -23q-52 0 -88 27.5t-51 70.5v-259q0 -67 1 -87h-24q1 19 1 86v552q0 21 -0.5 52t-0.5 44l24 2q-1 -34 -1 -98v-191q0 -81 37.5 -129.5t106.5 -48.5q90 0 153 108v261q0 54 -1 96
z" />
    <glyph glyph-name="pi" unicode="&#x3c0;" horiz-adv-x="596" 
d="M575 475v-21h-124v-351q0 -46 17.5 -67t56.5 -21q20 0 37 5l2 -18q-18 -6 -42 -6q-92 0 -92 102v356h-255v-336q0 -63 -11 -118h-23q12 45 12 115v339q-70 0 -130 -21l-5 22q60 20 125 20h432z" />
    <glyph glyph-name="Wgrave" unicode="&#x1e80;" horiz-adv-x="887" 
d="M850 677h22l-95 -324l-53 -183t-52 -182h-19l-181 565q-16 53 -22 77h-2q-6 -26 -22 -75l-190 -567h-15l-113 378l-93 311h23l177 -594q11 -37 14 -54h2q6 25 15 52l199 596h9l195 -600q3 -8 4.5 -15t3.5 -15.5t4 -15.5h2q4 18 13 50zM376 869l125 -131l-16 -6l-130 126z
" />
    <glyph glyph-name="wgrave" unicode="&#x1e81;" horiz-adv-x="704" 
d="M652 475h22l-150 -484h-26l-135 424q-5 15 -5 29h-3q-3 -18 -8 -33l-143 -420h-23l-152 484h23l134 -431q2 -5 3.5 -16t2.5 -14h1q1 2 2 8.5t2.5 12.5t3.5 11l147 429h17l139 -433q3 -10 7 -28h1q4 20 7 29zM291 667l125 -131l-16 -6l-130 126z" />
    <glyph glyph-name="Wacute" unicode="&#x1e82;" horiz-adv-x="887" 
d="M850 677h22l-95 -324l-53 -183t-52 -182h-19l-181 565q-16 53 -22 77h-2q-6 -26 -22 -75l-190 -567h-15l-113 378l-93 311h23l177 -594q11 -37 14 -54h2q6 25 15 52l199 596h9l195 -600q3 -8 4.5 -15t3.5 -15.5t4 -15.5h2q4 18 13 50zM535 858l-129 -126l-17 6l125 131z
" />
    <glyph glyph-name="wacute" unicode="&#x1e83;" horiz-adv-x="704" 
d="M652 475h22l-150 -484h-26l-135 424q-5 15 -5 29h-3q-3 -18 -8 -33l-143 -420h-23l-152 484h23l134 -431q2 -5 3.5 -16t2.5 -14h1q1 2 2 8.5t2.5 12.5t3.5 11l147 429h17l139 -433q3 -10 7 -28h1q4 20 7 29zM452 656l-129 -126l-17 6l125 131z" />
    <glyph glyph-name="Wdieresis" unicode="&#x1e84;" horiz-adv-x="887" 
d="M850 677h22l-95 -324l-53 -183t-52 -182h-19l-181 565q-16 53 -22 77h-2q-6 -26 -22 -75l-190 -567h-15l-113 378l-93 311h23l177 -594q11 -37 14 -54h2q6 25 15 52l199 596h9l195 -600q3 -8 4.5 -15t3.5 -15.5t4 -15.5h2q4 18 13 50zM545 777q0 -8 -6.5 -14.5
t-14.5 -6.5t-14 6.5t-6 14.5t6 14t14 6t14.5 -6t6.5 -14zM386 777q0 -8 -6.5 -14.5t-14.5 -6.5t-14 6.5t-6 14.5t6 14t14 6t14.5 -6t6.5 -14z" />
    <glyph glyph-name="wdieresis" unicode="&#x1e85;" horiz-adv-x="704" 
d="M652 475h22l-150 -484h-26l-135 424q-5 15 -5 29h-3q-3 -18 -8 -33l-143 -420h-23l-152 484h23l134 -431q2 -5 3.5 -16t2.5 -14h1q1 2 2 8.5t2.5 12.5t3.5 11l147 429h17l139 -433q3 -10 7 -28h1q4 20 7 29zM458 575q0 -8 -6.5 -14.5t-14.5 -6.5t-14 6.5t-6 14.5t6 14
t14 6t14.5 -6t6.5 -14zM299 575q0 -8 -6.5 -14.5t-14.5 -6.5t-14 6.5t-6 14.5t6 14t14 6t14.5 -6t6.5 -14z" />
    <glyph glyph-name="Ygrave" unicode="&#x1ef2;" horiz-adv-x="489" 
d="M458 677h23l-115 -211l-112 -210v-144q0 -81 1 -112h-24q0 12 0.5 49t0.5 58v149l-115 218l-108 203h24l183 -347q3 -7 9 -18.5l10 -19.5l7 -14h2q14 32 27 55zM175 869l125 -131l-16 -6l-130 126z" />
    <glyph glyph-name="ygrave" unicode="&#x1ef3;" horiz-adv-x="433" 
d="M387 475h23l-145 -374l-139 -360h-26l102 256l-179 478h24l153 -411q12 -35 13 -42h1q8 24 14 40zM147 667l125 -131l-16 -6l-130 126z" />
    <glyph glyph-name="endash" unicode="&#x2013;" horiz-adv-x="483" 
d="M413 300v-21h-343v21h343z" />
    <glyph glyph-name="emdash" unicode="&#x2014;" horiz-adv-x="710" 
d="M639 300v-21h-569v21h569z" />
    <glyph glyph-name="quoteleft" unicode="&#x2018;" horiz-adv-x="116" 
d="M102 720l18 -5q-65 -121 -73 -222h-22q5 54 26.5 116.5t50.5 110.5z" />
    <glyph glyph-name="quoteright" unicode="&#x2019;" horiz-adv-x="116" 
d="M69 717h22q-14 -118 -77 -227l-18 5q63 119 73 222z" />
    <glyph glyph-name="quotesinglbase" unicode="&#x201a;" horiz-adv-x="116" 
d="M69 102h22q-14 -118 -77 -227l-18 5q63 119 73 222z" />
    <glyph glyph-name="quotedblleft" unicode="&#x201c;" horiz-adv-x="230" 
d="M102 721l18 -5q-63 -119 -73 -222h-22q14 118 77 227zM216 721l18 -5q-63 -119 -73 -222h-22q14 118 77 227z" />
    <glyph glyph-name="quotedblright" unicode="&#x201d;" horiz-adv-x="230" 
d="M183 717h22q-14 -118 -77 -227l-18 5q63 119 73 222zM69 717h22q-14 -118 -77 -227l-18 5q63 119 73 222z" />
    <glyph glyph-name="quotedblbase" unicode="&#x201e;" horiz-adv-x="230" 
d="M183 102h22q-14 -118 -77 -227l-18 5q63 119 73 222zM69 102h22q-14 -118 -77 -227l-18 5q63 119 73 222z" />
    <glyph glyph-name="dagger" unicode="&#x2020;" 
d="M174 687l-1 -141h126v-17h-126v-352h-18l-1 352h-123v17h123l-1 141h21z" />
    <glyph glyph-name="daggerdbl" unicode="&#x2021;" 
d="M299 576v-17h-126v-123h126v-17h-126v-242h-18l-1 242h-123v17h123v123h-123v17h123l-1 111h21l-1 -111h126z" />
    <glyph glyph-name="bullet" unicode="&#x2022;" horiz-adv-x="235" 
d="M110 415q30 0 51.5 -22t21.5 -52t-21.5 -51.5t-51.5 -21.5t-51.5 21.5t-21.5 51.5t21.5 52t51.5 22z" />
    <glyph glyph-name="ellipsis" unicode="&#x2026;" horiz-adv-x="571" 
d="M496 18q0 -10 -6.5 -16.5t-16.5 -6.5t-16.5 6.5t-6.5 16.5t6.5 16.5t16.5 6.5t16.5 -6.5t6.5 -16.5zM309 18q0 -10 -6.5 -16.5t-16.5 -6.5t-16.5 6.5t-6.5 16.5t6.5 16.5t16.5 6.5t16.5 -6.5t6.5 -16.5zM120 18q0 -10 -6.5 -16.5t-16.5 -6.5t-16 6.5t-6 16.5t6 16.5
t16 6.5t16.5 -6.5t6.5 -16.5z" />
    <glyph glyph-name="perthousand" unicode="&#x2030;" horiz-adv-x="999" 
d="M823 283q56 0 89.5 -38t33.5 -105t-37 -106.5t-94 -39.5q-55 0 -91.5 38t-36.5 101q0 69 38.5 109.5t97.5 40.5zM190 677q56 0 89.5 -38.5t33.5 -105.5t-37 -106t-95 -39q-55 0 -91 37.5t-36 100.5q0 70 38.5 110.5t97.5 40.5zM582 677l-467 -677h-26l468 677h25z
M489 283q56 0 89.5 -38t33.5 -105t-37 -106.5t-95 -39.5q-55 0 -91 38t-36 101q0 69 38.5 109.5t97.5 40.5zM818 265q-46 0 -78 -35t-32 -94q0 -58 31.5 -90.5t78.5 -32.5t77 34t30 91q0 61 -30.5 94t-76.5 33zM185 658q-46 0 -78 -35t-32 -93t31.5 -90.5t78.5 -32.5
t76.5 33.5t29.5 90.5q0 61 -30 94t-76 33zM484 265q-46 0 -78 -35t-32 -94q0 -58 31.5 -90.5t78.5 -32.5t77 34t30 91q0 61 -30.5 94t-76.5 33z" />
    <glyph glyph-name="guilsinglleft" unicode="&#x2039;" horiz-adv-x="213" 
d="M167 361l-105 -112l103 -98l-15 -16l-117 114l118 126z" />
    <glyph glyph-name="guilsinglright" unicode="&#x203a;" horiz-adv-x="213" 
d="M49 369l118 -120l-116 -120l-16 16l104 104l-106 106z" />
    <glyph glyph-name="fraction" unicode="&#x2044;" horiz-adv-x="75" 
d="M285 677l-468 -677h-25l468 677h25z" />
    <glyph glyph-name="zero.superior" unicode="&#x2070;" 
d="M172 784q116 0 116 -198q0 -101 -34 -150.5t-92 -49.5q-53 0 -87 47.5t-34 143.5q0 106 35.5 156.5t95.5 50.5zM169 766q-50 0 -78 -46t-28 -140q0 -88 27 -131.5t76 -43.5q46 0 73 45t27 132q0 184 -97 184z" />
    <glyph glyph-name="four.superior" unicode="&#x2074;" 
d="M233 787h12v-261h48l-6 -17h-42q0 -76 1 -118h-22q1 39 1 118h-186l-3 8zM227 750h-2q-8 -16 -18 -31l-140 -193h158v185q0 15 2 39z" />
    <glyph glyph-name="five.superior" unicode="&#x2075;" 
d="M261 778v-18h-165l-7 -140q26 2 50 2q68 0 103 -31.5t35 -84.5q0 -52 -35.5 -86t-100.5 -34q-46 0 -90 24l4 24q41 -29 91 -29q52 0 81 28t29 69q0 102 -124 102q-25 0 -63 -4q1 28 4.5 91t4.5 87h183z" />
    <glyph glyph-name="six.superior" unicode="&#x2076;" 
d="M258 792l11 -14q-69 -18 -124 -60q-25 -20 -47.5 -54t-29.5 -69q47 27 99 27q54 0 87.5 -28.5t33.5 -82.5q0 -58 -34.5 -91.5t-89.5 -33.5q-56 0 -89 41.5t-33 112.5q0 59 25.5 109t63.5 81q54 43 127 62zM64 573q-2 -11 -2 -36q0 -64 30.5 -98.5t75.5 -34.5
q43 0 71.5 28t28.5 74t-25.5 72t-78.5 26t-100 -31z" />
    <glyph glyph-name="seven.superior" unicode="&#x2077;" 
d="M293 778l1 -4l-174 -382h-24l169 367h-119q-72 0 -110 -2l2 21h255z" />
    <glyph glyph-name="eight.superior" unicode="&#x2078;" 
d="M190 594q97 -37 97 -106q0 -49 -34.5 -76t-95.5 -27q-46 0 -80 25.5t-34 71.5q0 37 23 63.5t73 48.5q-75 42 -75 96q0 42 31 67.5t80 25.5q42 0 70.5 -23.5t28.5 -64.5q0 -59 -84 -101zM168 604q40 15 62 38.5t22 48.5q0 34 -21.5 54t-59.5 20q-39 0 -62.5 -20t-23.5 -53
q0 -57 83 -88zM163 584q-98 -33 -98 -100q0 -37 27 -59t71 -22q48 0 75.5 22.5t27.5 57.5q0 34 -22 58t-81 43z" />
    <glyph glyph-name="nine.superior" unicode="&#x2079;" 
d="M77 379l-15 14q68 17 116 55q59 45 80 130q-50 -24 -96 -24q-48 0 -82 30t-34 83q0 54 34.5 86t85.5 32q55 0 86.5 -37.5t31.5 -109.5q0 -54 -24.5 -109t-62.5 -88q-55 -46 -120 -62zM261 600q4 22 4 35q0 132 -102 132q-42 0 -69.5 -27.5t-27.5 -68.5q0 -47 28.5 -73
t72.5 -26q51 0 94 28z" />
    <glyph glyph-name="zero.inferior" unicode="&#x2080;" 
d="M172 293q116 0 116 -198q0 -101 -34 -150.5t-92 -49.5q-53 0 -87 47.5t-34 143.5q0 106 35.5 156.5t95.5 50.5zM169 275q-50 0 -78 -46t-28 -140q0 -88 27 -131.5t76 -43.5q46 0 73 45t27 132q0 184 -97 184z" />
    <glyph glyph-name="one.inferior" unicode="&#x2081;" 
d="M199 301v-264q0 -23 0.5 -72t0.5 -65h-24q1 32 1 137v237l-99 -26v21z" />
    <glyph glyph-name="two.inferior" unicode="&#x2082;" 
d="M68 226l-6 21q49 45 114 45q48 0 75 -26.5t27 -69.5q0 -54 -83 -142l-124 -134h95q59 0 123 2l-1 -22h-244l-3 18q57 57 138 147q46 51 61 77t15 52q0 35 -21 57t-63 22q-61 0 -103 -47z" />
    <glyph glyph-name="three.inferior" unicode="&#x2083;" 
d="M76 242l-8 19q46 31 96 31q51 0 77 -25.5t26 -63.5q0 -36 -21 -63t-65 -38q45 -4 72.5 -27t27.5 -66q0 -52 -36.5 -83.5t-100.5 -31.5q-22 0 -51.5 8.5t-44.5 20.5l8 20q40 -29 94 -29q50 0 79 25t29 64q0 88 -130 88q-20 0 -31 -1l2 20h16q71 0 100.5 25t29.5 61t-22 57
t-66 21q-45 0 -81 -32z" />
    <glyph glyph-name="four.inferior" unicode="&#x2084;" 
d="M233 296h12v-261h48l-6 -17h-42q0 -76 1 -118h-22q1 39 1 118h-186l-3 8zM227 259h-2q-8 -16 -18 -31l-140 -193h158v185q0 15 2 39z" />
    <glyph glyph-name="five.inferior" unicode="&#x2085;" 
d="M261 287v-18h-165l-7 -140q26 2 50 2q68 0 103 -31.5t35 -84.5q0 -52 -35.5 -86t-100.5 -34q-46 0 -90 24l4 24q41 -29 91 -29q52 0 81 28t29 69q0 102 -124 102q-25 0 -63 -4q1 28 4.5 91t4.5 87h183z" />
    <glyph glyph-name="six.inferior" unicode="&#x2086;" 
d="M258 301l11 -14q-69 -18 -124 -60q-25 -20 -47.5 -54t-29.5 -69q47 27 99 27q54 0 87.5 -28.5t33.5 -82.5q0 -58 -34.5 -91.5t-89.5 -33.5q-56 0 -89 41.5t-33 112.5q0 59 25.5 109t63.5 81q54 43 127 62zM64 82q-2 -11 -2 -36q0 -64 30.5 -98.5t75.5 -34.5q43 0 71.5 28
t28.5 74t-25.5 72t-78.5 26t-100 -31z" />
    <glyph glyph-name="seven.inferior" unicode="&#x2087;" 
d="M293 287l1 -4l-174 -382h-24l169 367h-119q-72 0 -110 -2l2 21h255z" />
    <glyph glyph-name="eight.inferior" unicode="&#x2088;" 
d="M190 103q97 -37 97 -106q0 -49 -34.5 -76t-95.5 -27q-46 0 -80 25.5t-34 71.5q0 37 23 63.5t73 48.5q-75 42 -75 96q0 42 31 67.5t80 25.5q42 0 70.5 -23.5t28.5 -64.5q0 -59 -84 -101zM168 113q40 15 62 38.5t22 48.5q0 34 -21.5 54t-59.5 20q-39 0 -62.5 -20t-23.5 -53
q0 -57 83 -88zM163 93q-98 -33 -98 -100q0 -37 27 -59t71 -22q48 0 75.5 22.5t27.5 57.5q0 34 -22 58t-81 43z" />
    <glyph glyph-name="nine.inferior" unicode="&#x2089;" 
d="M77 -112l-15 14q68 17 116 55q59 45 80 130q-50 -24 -96 -24q-48 0 -82 30t-34 83q0 54 34.5 86t85.5 32q55 0 86.5 -37.5t31.5 -109.5q0 -54 -24.5 -109t-62.5 -88q-55 -46 -120 -62zM261 109q4 22 4 35q0 132 -102 132q-42 0 -69.5 -27.5t-27.5 -68.5q0 -47 28.5 -73
t72.5 -26q51 0 94 28z" />
    <glyph glyph-name="Euro" unicode="&#x20ac;" horiz-adv-x="497" 
d="M452 666l-5 -22q-42 24 -100 24q-86 0 -140.5 -65.5t-62.5 -197.5h249l-3 -19h-247q-1 -9 -1 -41q0 -41 4 -85h216l-2 -18h-212q27 -232 192 -232q55 0 105 28l5 -20q-50 -28 -117 -28q-82 0 -137.5 60.5t-70.5 191.5h-92l2 18h88q-3 31 -3 77q0 30 1 49h-76l2 19h75
q10 150 73.5 216t153.5 66q55 0 103 -21z" />
    <glyph glyph-name="litre" unicode="&#x2113;" horiz-adv-x="400" 
d="M342 134l15 -9q-84 -129 -164 -129q-52 0 -72.5 36.5t-20.5 117.5v397q0 175 109 175q41 0 62.5 -34.5t21.5 -91.5q0 -151 -176 -324v-117q0 -72 17 -106.5t64 -34.5q68 0 144 120zM117 547v-248q158 157 158 294q0 50 -17.5 81t-51.5 31q-43 0 -66 -41.5t-23 -116.5z
" />
    <glyph glyph-name="trademark" unicode="&#x2122;" horiz-adv-x="647" 
d="M569 680l19 -301h-19l-17 273l-110 -273h-14l-114 272l-16 -272h-20l21 301h22l114 -271l110 271h24zM259 677v-18h-97v-280h-18v280h-95l1 18h209z" />
    <glyph glyph-name="Omega" unicode="&#x2126;" horiz-adv-x="716" 
d="M665 19v-19h-207v16q188 138 188 362q0 138 -74 226.5t-209 88.5q-127 0 -209.5 -86t-82.5 -226q0 -130 57 -221.5t134 -143.5v-16h-208v19h171q-31 24 -59 54.5t-55.5 74t-43.5 103t-16 125.5q0 151 88 243.5t225 92.5q142 0 222 -91.5t80 -243.5q0 -118 -50.5 -208.5
t-128.5 -149.5h178z" />
    <glyph glyph-name="estimated" unicode="&#x212e;" horiz-adv-x="637" 
d="M577 272h-420v-187q60 -60 149 -60q128 0 200 123l35 -21q-46 -70 -101 -104.5t-134 -34.5q-120 0 -193 81t-73 203t72.5 203t193.5 81q123 0 194.5 -79.5t76.5 -204.5zM456 309v148q-62 64 -151 64q-88 0 -148 -62v-150h299z" />
    <glyph glyph-name="onethird" unicode="&#x2153;" horiz-adv-x="726" 
d="M587 677l-468 -677h-25l468 677h25zM199 692v-264q0 -23 0.5 -72t0.5 -65h-24q1 32 1 137v237l-99 -26v21zM472 342l-8 19q46 31 96 31q51 0 77 -25.5t26 -63.5q0 -36 -21 -63t-65 -38q45 -4 72.5 -27t27.5 -66q0 -52 -36.5 -83.5t-100.5 -31.5q-22 0 -51.5 8.5
t-44.5 20.5l8 20q40 -29 94 -29q50 0 79 25t29 64q0 97 -161 87l2 20q79 -3 112.5 22t33.5 64q0 36 -22 57t-66 21q-45 0 -81 -32z" />
    <glyph glyph-name="twothirds" unicode="&#x2154;" horiz-adv-x="804" 
d="M665 677l-468 -677h-25l468 677h25zM68 617l-6 21q49 45 114 45q48 0 75 -26.5t27 -69.5q0 -54 -83 -142l-124 -134h95q59 0 123 2l-1 -22h-244l-3 18q57 57 138 147q46 51 61 77t15 52q0 35 -21 57t-63 22q-61 0 -103 -47zM550 342l-8 19q46 31 96 31q51 0 77 -25.5
t26 -63.5q0 -36 -21 -63t-65 -38q45 -4 72.5 -27t27.5 -66q0 -52 -36.5 -83.5t-100.5 -31.5q-22 0 -51.5 8.5t-44.5 20.5l8 20q40 -29 94 -29q50 0 79 25t29 64q0 97 -161 87l2 20q79 -3 112.5 22t33.5 64q0 36 -22 57t-66 21q-45 0 -81 -32z" />
    <glyph glyph-name="oneeighth" unicode="&#x215b;" horiz-adv-x="725" 
d="M587 677l-468 -677h-25l468 677h25zM199 692v-264q0 -23 0.5 -72t0.5 -65h-24q1 32 1 137v237l-99 -26v21zM585 203q97 -37 97 -106q0 -49 -34.5 -76t-95.5 -27q-46 0 -80 25.5t-34 71.5q0 37 23 63.5t73 48.5q-75 42 -75 96q0 42 31 67.5t80 25.5q42 0 70.5 -23.5
t28.5 -64.5q0 -59 -84 -101zM563 213q40 15 62 38.5t22 48.5q0 34 -21.5 54t-59.5 20q-39 0 -62.5 -20t-23.5 -53q0 -57 83 -88zM558 193q-98 -33 -98 -100q0 -37 27 -59t71 -22q48 0 75.5 22.5t27.5 57.5q0 34 -22 58t-81 43z" />
    <glyph glyph-name="threeeighths" unicode="&#x215c;" horiz-adv-x="752" 
d="M629 677l-468 -677h-25l468 677h25zM76 633l-8 19q46 31 96 31q51 0 77 -25.5t26 -63.5q0 -36 -21 -63t-65 -38q45 -4 72.5 -27t27.5 -66q0 -52 -36.5 -83.5t-100.5 -31.5q-22 0 -51.5 8.5t-44.5 20.5l8 20q40 -29 94 -29q50 0 79 25t29 64q0 88 -130 88q-20 0 -31 -1
l2 20h16q71 0 100.5 25t29.5 61t-22 57t-66 21q-45 0 -81 -32zM612 203q97 -37 97 -106q0 -49 -34.5 -76t-95.5 -27q-46 0 -80 25.5t-34 71.5q0 37 23 63.5t73 48.5q-75 42 -75 96q0 42 31 67.5t80 25.5q42 0 70.5 -23.5t28.5 -64.5q0 -59 -84 -101zM590 213q40 15 62 38.5
t22 48.5q0 34 -21.5 54t-59.5 20q-39 0 -62.5 -20t-23.5 -53q0 -57 83 -88zM585 193q-98 -33 -98 -100q0 -37 27 -59t71 -22q48 0 75.5 22.5t27.5 57.5q0 34 -22 58t-81 43z" />
    <glyph glyph-name="fiveeighths" unicode="&#x215d;" horiz-adv-x="741" 
d="M618 677l-468 -677h-25l468 677h25zM261 678v-18h-165l-7 -140q26 2 50 2q68 0 103 -31.5t35 -84.5q0 -52 -35.5 -86t-100.5 -34q-46 0 -90 24l4 24q41 -29 91 -29q52 0 81 28t29 69q0 102 -124 102q-25 0 -63 -4q1 28 4.5 91t4.5 87h183zM601 203q97 -37 97 -106
q0 -49 -34.5 -76t-95.5 -27q-46 0 -80 25.5t-34 71.5q0 37 23 63.5t73 48.5q-75 42 -75 96q0 42 31 67.5t80 25.5q42 0 70.5 -23.5t28.5 -64.5q0 -59 -84 -101zM579 213q40 15 62 38.5t22 48.5q0 34 -21.5 54t-59.5 20q-39 0 -62.5 -20t-23.5 -53q0 -57 83 -88zM574 193
q-98 -33 -98 -100q0 -37 27 -59t71 -22q48 0 75.5 22.5t27.5 57.5q0 34 -22 58t-81 43z" />
    <glyph glyph-name="seveneighths" unicode="&#x215e;" horiz-adv-x="682" 
d="M559 677l-468 -677h-25l468 677h25zM293 678l1 -4l-174 -382h-24l169 367h-119q-72 0 -110 -2l2 21h255zM542 203q97 -37 97 -106q0 -49 -34.5 -76t-95.5 -27q-46 0 -80 25.5t-34 71.5q0 37 23 63.5t73 48.5q-75 42 -75 96q0 42 31 67.5t80 25.5q42 0 70.5 -23.5
t28.5 -64.5q0 -59 -84 -101zM520 213q40 15 62 38.5t22 48.5q0 34 -21.5 54t-59.5 20q-39 0 -62.5 -20t-23.5 -53q0 -57 83 -88zM515 193q-98 -33 -98 -100q0 -37 27 -59t71 -22q48 0 75.5 22.5t27.5 57.5q0 34 -22 58t-81 43z" />
    <glyph glyph-name="partialdiff" unicode="&#x2202;" horiz-adv-x="582" 
d="M483 415h2q6 33 6 83q0 99 -41 150t-117 51q-53 0 -98 -28q-2 4 -7 11t-7 11q50 30 113 30q82 0 131 -55t49 -161q0 -89 -27 -197q-14 -57 -36.5 -109t-55.5 -101.5t-81 -79.5t-103 -30q-68 0 -110 47.5t-42 128.5q0 140 84 239t190 99q58 0 95.5 -25.5t54.5 -63.5z
M478 365q-13 49 -52.5 80.5t-101.5 31.5q-98 0 -170.5 -90t-72.5 -218q0 -71 37 -113t96 -42q87 0 157.5 91.5t106.5 259.5z" />
    <glyph glyph-name="Delta" unicode="&#x2206;" horiz-adv-x="616" 
d="M298 700h7l266 -679v-21h-540v21zM304 657h-2q-12 -39 -17 -51l-226 -583h486l-226 584q-1 2 -15 50z" />
    <glyph glyph-name="product" unicode="&#x220f;" horiz-adv-x="726" 
d="M627 700v-930h-21v911h-485v-911h-21v930h527z" />
    <glyph glyph-name="summation" unicode="&#x2211;" horiz-adv-x="637" 
d="M591 700v-21h-499l344 -440l-367 -448h552v-21h-600v1l385 468l-356 454v7h541z" />
    <glyph glyph-name="minus" unicode="&#x2212;" horiz-adv-x="497" 
d="M435 290v-21h-373v21h373z" />
    <glyph glyph-name="uni2215" unicode="&#x2215;" horiz-adv-x="75" 
d="M285 677l-468 -677h-25l468 677h25z" />
    <glyph glyph-name="uni2219" unicode="&#x2219;" horiz-adv-x="195" 
d="M120 296q0 -10 -6.5 -16.5t-16.5 -6.5t-16 6.5t-6 16.5t6 16.5t16 6.5t16.5 -6.5t6.5 -16.5z" />
    <glyph glyph-name="radical" unicode="&#x221a;" horiz-adv-x="522" 
d="M490 728h32l-217 -740h-20l-160 379l-55 -30l-9 26q62 31 80 39l152 -356z" />
    <glyph glyph-name="infinity" unicode="&#x221e;" horiz-adv-x="683" 
d="M329 287q-55 123 -155 123q-59 0 -93.5 -36t-34.5 -87q0 -54 34 -87.5t94 -33.5q89 0 155 121zM342 266q-73 -121 -169 -121q-68 0 -108 38.5t-40 102.5q0 60 42 102.5t107 42.5q54 0 94.5 -28.5t73.5 -92.5q72 121 168 121q68 0 108 -38.5t40 -102.5q0 -60 -42 -102.5
t-107 -42.5q-106 0 -167 121zM354 288q56 -123 155 -123q59 0 93.5 36.5t34.5 86.5q0 54 -34 87.5t-94 33.5q-90 0 -155 -121z" />
    <glyph glyph-name="integral" unicode="&#x222b;" horiz-adv-x="495" 
d="M261 609v-698q0 -65 -35.5 -99t-89.5 -34q-30 0 -54 10l3.5 11t4.5 12q23 -9 51 -9q99 0 99 114v701q0 61 35 95.5t91 34.5q32 0 52 -10q-1 -4 -3.5 -12t-3.5 -12q-22 11 -50 11q-50 0 -75 -30.5t-25 -84.5z" />
    <glyph glyph-name="approxequal" unicode="&#x2248;" horiz-adv-x="497" 
d="M439 391l19 -14q-47 -72 -122 -72q-39 0 -91 37t-86 37q-58 0 -103 -61l-17 14q52 70 124 70q35 0 88.5 -37.5t89.5 -37.5q61 0 98 64zM439 246l19 -14q-47 -72 -122 -72q-39 0 -91 37t-86 37q-58 0 -103 -61l-17 14q51 69 124 69q35 0 88.5 -37t89.5 -37q62 0 98 64z
" />
    <glyph glyph-name="notequal" unicode="&#x2260;" horiz-adv-x="497" 
d="M365 523l-71 -166h141v-21h-150l-54 -125h204v-20h-212l-69 -162h-25l69 162h-136v20h144l54 125h-198v21h207l71 166h25z" />
    <glyph glyph-name="lessequal" unicode="&#x2264;" horiz-adv-x="497" 
d="M402 529l9 -18l-291 -167l293 -171l-8 -17l-317 184v7zM435 75v-21h-373v21h373z" />
    <glyph glyph-name="greaterequal" unicode="&#x2265;" horiz-adv-x="497" 
d="M409 347v-7l-317 -184l-8 17l293 171l-291 167l9 18zM435 75v-21h-373v21h373z" />
    <glyph glyph-name="lozenge" unicode="&#x25ca;" horiz-adv-x="566" 
d="M284 700h7l214 -350l-215 -350h-7l-214 349zM99 349l188 -306l189 306l-188 307z" />
    <glyph glyph-name="a.sc" unicode="&#xe000;" horiz-adv-x="490" 
d="M235 531h18l117 -280q102 -238 108 -251h-27l-82 193h-248l-30.5 -72.5l-30.5 -72l-21 -48.5h-27q42 91 106 247q116 280 117 284zM245 498h-2q-9 -27 -15 -43l-100 -244h235l-102 244q-10 23 -16 43z" />
    <glyph glyph-name="ae.sc" unicode="&#xe001;" horiz-adv-x="712" 
d="M651 528l1 -21q-14 0 -48 0.5t-52 0.5h-147v-230h136q19 0 52.5 0.5t41.5 0.5l-3 -23q-30 1 -92 1h-135v-236h153q52 0 114 2l-2 -23h-289q2 94 2 198h-210l-139 -198h-32l177 248q141 198 195 280h277zM385 508h-1q-3 -4 -10 -15.5l-12 -19.5l-177 -257h198v240
q0 20 2 52z" />
    <glyph glyph-name="aacute.sc" unicode="&#xe002;" horiz-adv-x="490" 
d="M235 531h18l117 -280q102 -238 108 -251h-27l-82 193h-248l-30.5 -72.5l-30.5 -72l-21 -48.5h-27q42 91 106 247q116 280 117 284zM245 498h-2q-9 -27 -15 -43l-100 -244h235l-102 244q-10 23 -16 43zM337 707l-129 -126l-17 6l125 131z" />
    <glyph glyph-name="acircumflex.sc" unicode="&#xe003;" horiz-adv-x="490" 
d="M235 531h18l117 -280q102 -238 108 -251h-27l-82 193h-248l-30.5 -72.5l-30.5 -72l-21 -48.5h-27q42 91 106 247q116 280 117 284zM245 498h-2q-9 -27 -15 -43l-100 -244h235l-102 244q-10 23 -16 43zM230 721l103 -133l-19 -7l-90 116l-86 -116l-19 7l101 133h10z" />
    <glyph glyph-name="adieresis.sc" unicode="&#xe004;" horiz-adv-x="490" 
d="M235 531h18l117 -280q102 -238 108 -251h-27l-82 193h-248l-30.5 -72.5l-30.5 -72l-21 -48.5h-27q42 91 106 247q116 280 117 284zM245 498h-2q-9 -27 -15 -43l-100 -244h235l-102 244q-10 23 -16 43zM330 626q0 -8 -6.5 -14.5t-14.5 -6.5t-14 6.5t-6 14.5t6 14t14 6
t14.5 -6t6.5 -14zM171 626q0 -8 -6.5 -14.5t-14.5 -6.5t-14 6.5t-6 14.5t6 14t14 6t14.5 -6t6.5 -14z" />
    <glyph glyph-name="agrave.sc" unicode="&#xe005;" horiz-adv-x="490" 
d="M235 531h18l117 -280q102 -238 108 -251h-27l-82 193h-248l-30.5 -72.5l-30.5 -72l-21 -48.5h-27q42 91 106 247q116 280 117 284zM245 498h-2q-9 -27 -15 -43l-100 -244h235l-102 244q-10 23 -16 43zM153 718l125 -131l-16 -6l-130 126z" />
    <glyph glyph-name="aring.sc" unicode="&#xe006;" horiz-adv-x="490" 
d="M235 531h18l117 -280q102 -238 108 -251h-27l-82 193h-248l-30.5 -72.5l-30.5 -72l-21 -48.5h-27q42 91 106 247q116 280 117 284zM245 498h-2q-9 -27 -15 -43l-100 -244h235l-102 244q-10 23 -16 43zM313 660q0 -32 -22.5 -55.5t-53.5 -23.5q-33 0 -55.5 21.5
t-22.5 53.5q0 34 23 56.5t56 22.5t54 -22t21 -53zM237 718q-24 0 -41 -16.5t-17 -42.5q0 -27 16.5 -43.5t41.5 -16.5q24 0 40 17t16 42q0 27 -16 43.5t-40 16.5z" />
    <glyph glyph-name="atilde.sc" unicode="&#xe007;" horiz-adv-x="490" 
d="M235 531h18l117 -280q102 -238 108 -251h-27l-82 193h-248l-30.5 -72.5l-30.5 -72l-21 -48.5h-27q42 91 106 247q116 280 117 284zM245 498h-2q-9 -27 -15 -43l-100 -244h235l-102 244q-10 23 -16 43zM352 673l17 -13q-38 -66 -78 -66q-31 0 -67 32q-29 25 -49 25
q-35 0 -64 -59l-14 12q36 67 79 67q31 0 66 -33q26 -24 47 -24q17 0 31 13t32 46z" />
    <glyph glyph-name="b.sc" unicode="&#xe008;" horiz-adv-x="497" 
d="M106 120v293q0 79 -1 115q16 0 63 1t66 1q152 0 152 -121q0 -43 -25 -78t-75 -49q67 -5 105.5 -38t38.5 -93q0 -77 -48.5 -114t-129.5 -37h-147q0 16 0.5 56t0.5 64zM129 509v-222h84q69 0 109 31t40 89q0 103 -134 103q-9 0 -48.5 -0.5t-50.5 -0.5zM129 268v-249h119
q159 0 159 128q0 121 -162 121h-116z" />
    <glyph glyph-name="c.sc" unicode="&#xe009;" horiz-adv-x="523" 
d="M481 508l-4 -25q-57 33 -144 33q-112 0 -184 -69t-72 -190q0 -109 68 -176.5t170 -67.5q96 0 158 39l2 -22q-65 -38 -162 -38q-110 0 -185 71.5t-75 191.5q0 130 80.5 205.5t202.5 75.5q81 0 145 -28z" />
    <glyph glyph-name="ccedilla.sc" unicode="&#xe00a;" horiz-adv-x="523" 
d="M481 508l-4 -25q-57 33 -144 33q-112 0 -184 -69t-72 -190q0 -109 68 -176.5t170 -67.5q96 0 158 39l2 -22q-65 -38 -162 -38q-12 0 -18 1l-4 -50q29 0 48.5 -16.5t19.5 -47.5q0 -37 -30 -62.5t-73 -25.5l-2 18q34 -2 60 18.5t26 48.5q0 26 -16 38t-52 12l6 68
q-98 12 -161.5 81.5t-63.5 179.5q0 130 80.5 205.5t202.5 75.5q81 0 145 -28z" />
    <glyph glyph-name="d.sc" unicode="&#xe00b;" horiz-adv-x="601" 
d="M106 117v300q0 29 -0.5 63t-0.5 48q15 0 68 1t75 1q154 0 227 -64.5t73 -194.5q0 -122 -80.5 -197t-221.5 -75q-18 0 -69.5 0.5t-71.5 0.5q0 13 0.5 50.5t0.5 66.5zM128 509v-490h119q133 0 205.5 68.5t72.5 183.5q0 239 -278 239q-81 0 -119 -1z" />
    <glyph glyph-name="eth.sc" unicode="&#xe00c;" horiz-adv-x="601" 
d="M106 278v139q0 29 -0.5 63t-0.5 48q15 0 68 1t75 1q154 0 227 -64.5t73 -194.5q0 -122 -80.5 -197t-221.5 -75q-18 0 -69.5 0.5t-71.5 0.5q0 13 0.5 50.5t0.5 66.5v140h-104v21h104zM128 509v-231h180v-21h-180v-238h119q133 0 205.5 68.5t72.5 183.5q0 239 -278 239
q-81 0 -119 -1z" />
    <glyph glyph-name="e.sc" unicode="&#xe00d;" horiz-adv-x="435" 
d="M374 528l1 -22q-62 2 -100 2h-147v-230h136q18 0 51 0.5t43 0.5l-3 -23q-7 0 -38.5 0.5t-53.5 0.5h-135v-236h154q73 0 113 2l-2 -23h-288q0 17 0.5 56.5t0.5 55.5v306q0 21 -0.5 59t-0.5 51h269z" />
    <glyph glyph-name="eacute.sc" unicode="&#xe00e;" horiz-adv-x="435" 
d="M374 528l1 -22q-62 2 -100 2h-147v-230h136q18 0 51 0.5t43 0.5l-3 -23q-7 0 -38.5 0.5t-53.5 0.5h-135v-236h154q73 0 113 2l-2 -23h-288q0 17 0.5 56.5t0.5 55.5v306q0 21 -0.5 59t-0.5 51h269zM341 707l-129 -126l-17 6l125 131z" />
    <glyph glyph-name="ecircumflex.sc" unicode="&#xe00f;" horiz-adv-x="435" 
d="M374 528l1 -22q-62 2 -100 2h-147v-230h136q18 0 51 0.5t43 0.5l-3 -23q-7 0 -38.5 0.5t-53.5 0.5h-135v-236h154q73 0 113 2l-2 -23h-288q0 17 0.5 56.5t0.5 55.5v306q0 21 -0.5 59t-0.5 51h269zM244 721l103 -133l-19 -7l-90 116l-86 -116l-19 7l101 133h10z" />
    <glyph glyph-name="edieresis.sc" unicode="&#xe010;" horiz-adv-x="435" 
d="M374 528l1 -22q-62 2 -100 2h-147v-230h136q18 0 51 0.5t43 0.5l-3 -23q-7 0 -38.5 0.5t-53.5 0.5h-135v-236h154q73 0 113 2l-2 -23h-288q0 17 0.5 56.5t0.5 55.5v306q0 21 -0.5 59t-0.5 51h269zM340 626q0 -8 -6.5 -14.5t-14.5 -6.5t-14 6.5t-6 14.5t6 14t14 6t14.5 -6
t6.5 -14zM181 626q0 -8 -6.5 -14.5t-14.5 -6.5t-14 6.5t-6 14.5t6 14t14 6t14.5 -6t6.5 -14z" />
    <glyph glyph-name="egrave.sc" unicode="&#xe011;" horiz-adv-x="435" 
d="M374 528l1 -22q-62 2 -100 2h-147v-230h136q18 0 51 0.5t43 0.5l-3 -23q-7 0 -38.5 0.5t-53.5 0.5h-135v-236h154q73 0 113 2l-2 -23h-288q0 17 0.5 56.5t0.5 55.5v306q0 21 -0.5 59t-0.5 51h269zM176 718l125 -131l-16 -6l-130 126z" />
    <glyph glyph-name="f.sc" unicode="&#xe012;" horiz-adv-x="406" 
d="M369 528l1 -20q-29 1 -102 1h-140v-238h144q47 0 82 1l-2 -22q-26 1 -80 1h-144v-159q0 -70 1 -92h-24q0 11 0.5 42t0.5 59v298q0 53 -0.5 86.5t-0.5 42.5h264z" />
    <glyph glyph-name="g.sc" unicode="&#xe013;" horiz-adv-x="567" 
d="M496 499l-9 -22q-65 39 -161 39q-111 0 -181 -71.5t-70 -178.5q0 -120 69.5 -186.5t180.5 -66.5q82 0 147 34v182h-144v21h167v-216q-78 -42 -178 -42q-116 0 -190.5 73t-74.5 198q0 123 80 198t199 75q93 0 165 -37z" />
    <glyph glyph-name="h.sc" unicode="&#xe014;" horiz-adv-x="621" 
d="M492 528h24q0 -10 -0.5 -41.5t-0.5 -52.5v-334q0 -27 0.5 -58t0.5 -42h-25q0 10 1 41t1 57v161h-365v-154q0 -86 1 -105h-24q0 5 0.5 39t0.5 65v321q0 80 -1 103h24q-1 -22 -1 -102v-148h365v156q0 22 -0.5 54.5t-0.5 39.5z" />
    <glyph glyph-name="i.sc" unicode="&#xe015;" horiz-adv-x="241" 
d="M108 528h25q-2 -52 -2 -104v-311q0 -88 1 -113h-24q1 26 1 112v310q0 80 -1 106z" />
    <glyph glyph-name="iacute.sc" unicode="&#xe016;" horiz-adv-x="241" 
d="M108 528h25q-2 -52 -2 -104v-311q0 -88 1 -113h-24q1 26 1 112v310q0 80 -1 106zM222 707l-129 -126l-17 6l125 131z" />
    <glyph glyph-name="icircumflex.sc" unicode="&#xe017;" horiz-adv-x="241" 
d="M108 528h25q-2 -52 -2 -104v-311q0 -88 1 -113h-24q1 26 1 112v310q0 80 -1 106zM127 721l103 -133l-19 -7l-90 116l-86 -116l-19 7l101 133h10z" />
    <glyph glyph-name="idieresis.sc" unicode="&#xe018;" horiz-adv-x="241" 
d="M108 528h25q-2 -52 -2 -104v-311q0 -88 1 -113h-24q1 26 1 112v310q0 80 -1 106zM221 626q0 -8 -6.5 -14.5t-14.5 -6.5t-14 6.5t-6 14.5t6 14t14 6t14.5 -6t6.5 -14zM62 626q0 -8 -6.5 -14.5t-14.5 -6.5t-14 6.5t-6 14.5t6 14t14 6t14.5 -6t6.5 -14z" />
    <glyph glyph-name="igrave.sc" unicode="&#xe019;" horiz-adv-x="241" 
d="M108 528h25q-2 -52 -2 -104v-311q0 -88 1 -113h-24q1 26 1 112v310q0 80 -1 106zM44 718l125 -131l-16 -6l-130 126z" />
    <glyph glyph-name="j.sc" unicode="&#xe01a;" horiz-adv-x="241" 
d="M110 528h24q-1 -25 -1 -103v-405q0 -34 -4.5 -61t-17 -56t-40 -45t-69.5 -16q-22 0 -40 6v23q18 -8 43 -8q34 0 56.5 14t32.5 39.5t13.5 49.5t3.5 56v406q0 74 -1 100z" />
    <glyph glyph-name="k.sc" unicode="&#xe01b;" horiz-adv-x="452" 
d="M392 528h31l-269 -257l290 -271h-32l-273 257l-11 11v-268h-23q1 50 1 137v256q0 89 -1 135h23v-255l3.5 3.5l2.5 2.5l2.5 2.5l2.5 2.5z" />
    <glyph glyph-name="l.sc" unicode="&#xe01c;" horiz-adv-x="398" 
d="M105 528h25q-2 -35 -2 -97v-411h172q57 0 87 2l-3 -22h-279q0 10 0.5 48t0.5 61v319q0 28 -0.5 59.5t-0.5 40.5z" />
    <glyph glyph-name="lslash.sc" unicode="&#xe01d;" horiz-adv-x="398" 
d="M281 352v-23l-153 -91v-218h172q57 0 87 2l-3 -22h-279q0 10 0.5 48t0.5 61v116l-88 -52v23l88 52v180q0 28 -0.5 59.5t-0.5 40.5h25q-2 -35 -2 -97v-170z" />
    <glyph glyph-name="m.sc" unicode="&#xe01e;" horiz-adv-x="744" 
d="M611 533h18q5 -128 13 -275l7.5 -142.5t6.5 -115.5h-21l-22 421q-2 50 -2 66h-2q-10 -29 -23 -56l-205 -438h-6l-213 447q-12 26 -20 46h-2q0 -18 -2 -56l-27 -430h-23q3 32 18 257q13 189 17 277h18l221 -464q6 -12 16 -36h2q2 7 14 33z" />
    <glyph glyph-name="n.sc" unicode="&#xe01f;" horiz-adv-x="638" 
d="M511 528h22q-1 -40 -1 -109v-302q0 -85 1 -124h-10l-377 465q-12 14 -19 26h-2q2 -28 2 -47v-437h-22q0 16 0.5 49.5t0.5 52.5v330q0 19 -0.5 51.5t-0.5 50.5h9l370 -458q21 -26 27 -35v45v442z" />
    <glyph glyph-name="ntilde.sc" unicode="&#xe020;" horiz-adv-x="638" 
d="M511 528h22q-1 -40 -1 -109v-302q0 -85 1 -124h-10l-377 465q-12 14 -19 26h-2q2 -28 2 -47v-437h-22q0 16 0.5 49.5t0.5 52.5v330q0 19 -0.5 51.5t-0.5 50.5h9l370 -458q21 -26 27 -35v45v442zM436 673l17 -13q-38 -66 -78 -66q-31 0 -67 32q-29 25 -49 25
q-35 0 -64 -59l-14 12q36 67 79 67q31 0 66 -33q26 -24 47 -24q17 0 31 13t32 46z" />
    <glyph glyph-name="o.sc" unicode="&#xe021;" horiz-adv-x="639" 
d="M328 536q110 0 183 -73t73 -195q0 -129 -74 -202.5t-196 -73.5q-112 0 -185.5 77.5t-73.5 191.5q0 126 75.5 200.5t197.5 74.5zM323 517q-110 0 -178 -70.5t-68 -181.5q0 -110 68.5 -182t173.5 -72q104 0 173 67t69 184t-66.5 186t-171.5 69z" />
    <glyph glyph-name="oe.sc" unicode="&#xe022;" horiz-adv-x="790" 
d="M729 528l1 -22q-62 2 -100 2h-147v-230h136q18 0 51 0.5t43 0.5l-3 -23q-7 0 -38.5 0.5t-53.5 0.5h-135v-236h154q73 0 113 2l-2 -23h-261q-24 0 -73 -4t-77 -4q-135 0 -208.5 75.5t-73.5 193.5q0 128 77.5 201.5t215.5 73.5q32 0 76 -4t55 -4h250zM461 112v306
q0 15 -0.5 45.5t-0.5 43.5q-80 10 -116 10q-129 0 -198 -69t-69 -183t67.5 -184t194.5 -70q60 0 121 11q0 16 0.5 47t0.5 43z" />
    <glyph glyph-name="oacute.sc" unicode="&#xe023;" horiz-adv-x="639" 
d="M328 536q110 0 183 -73t73 -195q0 -129 -74 -202.5t-196 -73.5q-112 0 -185.5 77.5t-73.5 191.5q0 126 75.5 200.5t197.5 74.5zM323 517q-110 0 -178 -70.5t-68 -181.5q0 -110 68.5 -182t173.5 -72q104 0 173 67t69 184t-66.5 186t-171.5 69zM425 707l-129 -126l-17 6
l125 131z" />
    <glyph glyph-name="ocircumflex.sc" unicode="&#xe024;" horiz-adv-x="639" 
d="M328 536q110 0 183 -73t73 -195q0 -129 -74 -202.5t-196 -73.5q-112 0 -185.5 77.5t-73.5 191.5q0 126 75.5 200.5t197.5 74.5zM323 517q-110 0 -178 -70.5t-68 -181.5q0 -110 68.5 -182t173.5 -72q104 0 173 67t69 184t-66.5 186t-171.5 69zM325 721l103 -133l-19 -7
l-90 116l-86 -116l-19 7l101 133h10z" />
    <glyph glyph-name="odieresis.sc" unicode="&#xe025;" horiz-adv-x="639" 
d="M328 536q110 0 183 -73t73 -195q0 -129 -74 -202.5t-196 -73.5q-112 0 -185.5 77.5t-73.5 191.5q0 126 75.5 200.5t197.5 74.5zM323 517q-110 0 -178 -70.5t-68 -181.5q0 -110 68.5 -182t173.5 -72q104 0 173 67t69 184t-66.5 186t-171.5 69zM414 626q0 -8 -6.5 -14.5
t-14.5 -6.5t-14 6.5t-6 14.5t6 14t14 6t14.5 -6t6.5 -14zM255 626q0 -8 -6.5 -14.5t-14.5 -6.5t-14 6.5t-6 14.5t6 14t14 6t14.5 -6t6.5 -14z" />
    <glyph glyph-name="ograve.sc" unicode="&#xe026;" horiz-adv-x="639" 
d="M328 536q110 0 183 -73t73 -195q0 -129 -74 -202.5t-196 -73.5q-112 0 -185.5 77.5t-73.5 191.5q0 126 75.5 200.5t197.5 74.5zM323 517q-110 0 -178 -70.5t-68 -181.5q0 -110 68.5 -182t173.5 -72q104 0 173 67t69 184t-66.5 186t-171.5 69zM252 718l125 -131l-16 -6
l-130 126z" />
    <glyph glyph-name="oslash.sc" unicode="&#xe027;" horiz-adv-x="639" 
d="M581 545l-72 -80q75 -77 75 -197q0 -129 -74 -202.5t-196 -73.5q-102 0 -172 64l-71 -79l-16 13l72 80q-72 78 -72 191q0 126 75.5 200.5t197.5 74.5q97 0 166 -58l72 80zM142 86l338 376q-64 55 -157 55q-110 0 -178 -70.5t-68 -181.5q0 -108 65 -179zM494 448
l-338 -376q66 -61 163 -61q104 0 173 67t69 184q0 116 -67 186z" />
    <glyph glyph-name="otilde.sc" unicode="&#xe028;" horiz-adv-x="639" 
d="M328 536q110 0 183 -73t73 -195q0 -129 -74 -202.5t-196 -73.5q-112 0 -185.5 77.5t-73.5 191.5q0 126 75.5 200.5t197.5 74.5zM323 517q-110 0 -178 -70.5t-68 -181.5q0 -110 68.5 -182t173.5 -72q104 0 173 67t69 184t-66.5 186t-171.5 69zM434 673l17 -13
q-38 -66 -78 -66q-31 0 -67 32q-29 25 -49 25q-35 0 -64 -59l-14 12q36 67 79 67q31 0 66 -33q26 -24 47 -24q17 0 31 13t32 46z" />
    <glyph glyph-name="p.sc" unicode="&#xe029;" horiz-adv-x="443" 
d="M106 101v337q0 18 -0.5 49t-0.5 41q27 2 121 2q175 0 175 -151q0 -28 -9 -54t-30 -50.5t-61 -39t-96 -14.5h-77q0 -163 2 -221h-25q0 12 0.5 45.5t0.5 55.5zM128 510v-271h74q93 0 135 38t42 102q0 133 -158 133q-49 0 -93 -2z" />
    <glyph glyph-name="thorn.sc" unicode="&#xe02a;" horiz-adv-x="443" 
d="M129 400v-257h68q182 0 182 133q0 127 -163 127q-45 0 -87 -3zM106 528h25q-2 -52 -2 -110q63 3 92 3q180 0 180 -145q0 -61 -47.5 -106t-153.5 -45h-71q0 -67 2 -125h-26q2 54 2 101v321q0 80 -1 106z" />
    <glyph glyph-name="q.sc" unicode="&#xe02b;" horiz-adv-x="639" 
d="M344 -6q92 -96 167 -167q-22 -8 -26 -9l-169 174q-115 0 -188 77.5t-73 191.5q0 126 75.5 200.5t197.5 74.5q109 0 182.5 -73.5t73.5 -194.5q0 -120 -65.5 -192.5t-174.5 -81.5zM323 516q-110 0 -178 -70t-68 -182q0 -111 68.5 -181.5t173.5 -70.5t173.5 67t68.5 183
t-66 185t-172 69z" />
    <glyph glyph-name="r.sc" unicode="&#xe02c;" horiz-adv-x="469" 
d="M441 0h-31l-172 239h-110q0 -145 2 -239h-25q1 29 1 101v330q0 60 -1 97q49 2 135 2q79 0 119.5 -35.5t40.5 -101.5q0 -62 -36.5 -103t-99.5 -48zM128 509v-252h109q67 0 103.5 37t36.5 97q0 119 -142 119q-83 0 -107 -1z" />
    <glyph glyph-name="s.sc" unicode="&#xe02d;" horiz-adv-x="409" 
d="M344 510l-6 -23q-47 29 -112 29q-66 0 -101.5 -32t-35.5 -79t26.5 -74.5t101.5 -56.5q74 -29 107 -61.5t33 -82.5q0 -62 -45.5 -100t-123.5 -38q-39 0 -77.5 10.5t-58.5 23.5l4 25q22 -16 59.5 -27.5t75.5 -11.5q67 0 104 30.5t37 83.5q0 44 -30 74t-108 60
q-70 27 -99.5 58t-29.5 83q0 54 43 94.5t123 40.5q64 0 113 -26z" />
    <glyph glyph-name="scaron.sc" unicode="&#xe02e;" horiz-adv-x="409" 
d="M344 510l-6 -23q-47 29 -112 29q-66 0 -101.5 -32t-35.5 -79t26.5 -74.5t101.5 -56.5q74 -29 107 -61.5t33 -82.5q0 -62 -45.5 -100t-123.5 -38q-39 0 -77.5 10.5t-58.5 23.5l4 25q22 -16 59.5 -27.5t75.5 -11.5q67 0 104 30.5t37 83.5q0 44 -30 74t-108 60
q-70 27 -99.5 58t-29.5 83q0 54 43 94.5t123 40.5q64 0 113 -26zM324 714l-100 -133h-11l-103 133l19 7l90 -116l86 116z" />
    <glyph glyph-name="t.sc" unicode="&#xe02f;" horiz-adv-x="421" 
d="M411 528v-21q-25 1 -76 1h-116v-407q0 -30 0.5 -61.5t0.5 -39.5h-24q1 23 1 103v405h-112q-49 0 -75 -1l1 21h400z" />
    <glyph glyph-name="u.sc" unicode="&#xe030;" horiz-adv-x="597" 
d="M473 528h26q-2 -54 -2 -88v-229q0 -219 -202 -219q-97 0 -146 55.5t-49 156.5v223q0 49 -2 101h26q0 -10 -0.5 -41.5t-0.5 -52.5v-226q0 -196 178 -196q174 0 174 192v229q0 45 -2 95z" />
    <glyph glyph-name="uacute.sc" unicode="&#xe031;" horiz-adv-x="597" 
d="M473 528h26q-2 -54 -2 -88v-229q0 -219 -202 -219q-97 0 -146 55.5t-49 156.5v223q0 49 -2 101h26q0 -10 -0.5 -41.5t-0.5 -52.5v-226q0 -196 178 -196q174 0 174 192v229q0 45 -2 95zM392 707l-129 -126l-17 6l125 131z" />
    <glyph glyph-name="ucircumflex.sc" unicode="&#xe032;" horiz-adv-x="597" 
d="M473 528h26q-2 -54 -2 -88v-229q0 -219 -202 -219q-97 0 -146 55.5t-49 156.5v223q0 49 -2 101h26q0 -10 -0.5 -41.5t-0.5 -52.5v-226q0 -196 178 -196q174 0 174 192v229q0 45 -2 95zM302 721l103 -133l-19 -7l-90 116l-86 -116l-19 7l101 133h10z" />
    <glyph glyph-name="udieresis.sc" unicode="&#xe033;" horiz-adv-x="597" 
d="M473 528h26q-2 -54 -2 -88v-229q0 -219 -202 -219q-97 0 -146 55.5t-49 156.5v223q0 49 -2 101h26q0 -10 -0.5 -41.5t-0.5 -52.5v-226q0 -196 178 -196q174 0 174 192v229q0 45 -2 95zM395 626q0 -8 -6.5 -14.5t-14.5 -6.5t-14 6.5t-6 14.5t6 14t14 6t14.5 -6t6.5 -14z
M236 626q0 -8 -6.5 -14.5t-14.5 -6.5t-14 6.5t-6 14.5t6 14t14 6t14.5 -6t6.5 -14z" />
    <glyph glyph-name="ugrave.sc" unicode="&#xe034;" horiz-adv-x="597" 
d="M473 528h26q-2 -54 -2 -88v-229q0 -219 -202 -219q-97 0 -146 55.5t-49 156.5v223q0 49 -2 101h26q0 -10 -0.5 -41.5t-0.5 -52.5v-226q0 -196 178 -196q174 0 174 192v229q0 45 -2 95zM236 718l125 -131l-16 -6l-130 126z" />
    <glyph glyph-name="v.sc" unicode="&#xe035;" horiz-adv-x="494" 
d="M457 528h25l-104 -235l-130 -302h-10q-6 16 -126 298q-82 193 -100 239h24l188 -446q12 -31 18 -49h2q2 4 9 22t11 27z" />
    <glyph glyph-name="w.sc" unicode="&#xe036;" horiz-adv-x="803" 
d="M755 528h22q-4 -13 -86 -251q-70 -206 -94 -286h-21l-151 437q-15 44 -18 58h-2q-14 -48 -17 -56l-160 -439h-17l-101 295l-84 242h24l157 -456q9 -28 13 -45h2q6 24 13 42l166 459h13l156 -448q12 -36 16 -52h2q4 22 14 53z" />
    <glyph glyph-name="x.sc" unicode="&#xe037;" horiz-adv-x="481" 
d="M425 528h29l-195 -260l185 -268h-29l-158 230q-13 19 -15 23q-3 -6 -17 -25l-173 -228h-29l206 268l-182 260h28l154 -222q5 -7 15 -24q5 8 16 24z" />
    <glyph glyph-name="y.sc" unicode="&#xe038;" horiz-adv-x="431" 
d="M399 528h26l-99 -167l-101 -176v-94q0 -65 1 -91h-25q1 21 1 87v98q-27 51 -104 184l-92 159h26l160 -279q16 -30 21 -41h2q8 18 23 43z" />
    <glyph glyph-name="yacute.sc" unicode="&#xe039;" horiz-adv-x="431" 
d="M399 528h26l-99 -167l-101 -176v-94q0 -65 1 -91h-25q1 21 1 87v98q-27 51 -104 184l-92 159h26l160 -279q16 -30 21 -41h2q8 18 23 43zM321 707l-129 -126l-17 6l125 131z" />
    <glyph glyph-name="ydieresis.sc" unicode="&#xe03a;" horiz-adv-x="431" 
d="M399 528h26l-99 -167l-101 -176v-94q0 -65 1 -91h-25q1 21 1 87v98q-27 51 -104 184l-92 159h26l160 -279q16 -30 21 -41h2q8 18 23 43zM313 626q0 -8 -6.5 -14.5t-14.5 -6.5t-14 6.5t-6 14.5t6 14t14 6t14.5 -6t6.5 -14zM154 626q0 -8 -6.5 -14.5t-14.5 -6.5t-14 6.5
t-6 14.5t6 14t14 6t14.5 -6t6.5 -14z" />
    <glyph glyph-name="z.sc" unicode="&#xe03b;" horiz-adv-x="460" 
d="M436 528l2 -3l-381 -506h213q124 0 165 3l-2 -22h-411l-1 4l378 505h-193q-98 0 -158 -2l2 21h386z" />
    <glyph glyph-name="zcaron.sc" unicode="&#xe03c;" horiz-adv-x="460" 
d="M436 528l2 -3l-381 -506h213q124 0 165 3l-2 -22h-411l-1 4l378 505h-193q-98 0 -158 -2l2 21h386zM344 714l-100 -133h-11l-103 133l19 7l90 -116l86 116z" />
    <glyph glyph-name="germandbls.sc" unicode="&#xe03d;" horiz-adv-x="818" 
d="M344 510l-6 -23q-47 29 -112 29q-66 0 -101.5 -32t-35.5 -79t26.5 -74.5t101.5 -56.5q74 -29 107 -61.5t33 -82.5q0 -62 -45.5 -100t-123.5 -38q-39 0 -77.5 10.5t-58.5 23.5l4 25q22 -16 59.5 -27.5t75.5 -11.5q67 0 104 30.5t37 83.5q0 44 -30 74t-108 60
q-70 27 -99.5 58t-29.5 83q0 54 43 94.5t123 40.5q64 0 113 -26zM753 510l-6 -23q-47 29 -112 29q-66 0 -101.5 -32t-35.5 -79t26.5 -74.5t101.5 -56.5q74 -29 107 -61.5t33 -82.5q0 -62 -45.5 -100t-123.5 -38q-39 0 -77.5 10.5t-58.5 23.5l4 25q22 -16 59.5 -27.5
t75.5 -11.5q67 0 104 30.5t37 83.5q0 44 -30 74t-108 60q-70 27 -99.5 58t-29.5 83q0 54 43 94.5t123 40.5q64 0 113 -26z" />
    <glyph glyph-name="abreve.sc" unicode="&#xe040;" horiz-adv-x="490" 
d="M235 531h18l117 -280q102 -238 108 -251h-27l-82 193h-248l-30.5 -72.5l-30.5 -72l-21 -48.5h-27q42 91 106 247q116 280 117 284zM245 498h-2q-9 -27 -15 -43l-100 -244h235l-102 244q-10 23 -16 43zM322 709h21q-4 -58 -33.5 -87t-78.5 -29q-44 0 -72 29.5t-30 86.5h20
q4 -52 25.5 -73.5t61.5 -21.5q82 0 86 95z" />
    <glyph glyph-name="amacron.sc" unicode="&#xe041;" horiz-adv-x="490" 
d="M235 531h18l117 -280q102 -238 108 -251h-27l-82 193h-248l-30.5 -72.5l-30.5 -72l-21 -48.5h-27q42 91 106 247q116 280 117 284zM245 498h-2q-9 -27 -15 -43l-100 -244h235l-102 244q-10 23 -16 43zM314 633v-22h-167v22h167z" />
    <glyph glyph-name="aogonek.sc" unicode="&#xe042;" horiz-adv-x="490" 
d="M253 531l117 -280q102 -238 108 -251h-3q-41 -58 -54.5 -83t-13.5 -48q0 -59 57 -59q11 0 16 1v-19q-8 -1 -22 -1q-34 0 -52.5 20t-18.5 53q0 45 67 136h-3l-82 193h-248l-30.5 -72.5l-30.5 -72l-21 -48.5h-27q42 91 106 247q116 280 117 284h18zM245 498h-2l-15 -43
l-100 -244h235l-102 244q-10 23 -16 43z" />
    <glyph glyph-name="aeacute.sc" unicode="&#xe043;" horiz-adv-x="712" 
d="M651 528l1 -21q-14 0 -48 0.5t-52 0.5h-147v-230h136q19 0 52.5 0.5t41.5 0.5l-3 -23q-30 1 -92 1h-135v-236h153q52 0 114 2l-2 -23h-289q2 94 2 198h-210l-139 -198h-32l177 248q141 198 195 280h277zM385 508h-1q-3 -4 -10 -15.5l-12 -19.5l-177 -257h198v240
q0 20 2 52zM588 707l-129 -126l-17 6l125 131z" />
    <glyph glyph-name="cacute.sc" unicode="&#xe044;" horiz-adv-x="523" 
d="M481 508l-4 -25q-57 33 -144 33q-112 0 -184 -69t-72 -190q0 -109 68 -176.5t170 -67.5q96 0 158 39l2 -22q-65 -38 -162 -38q-110 0 -185 71.5t-75 191.5q0 130 80.5 205.5t202.5 75.5q81 0 145 -28zM416 707l-129 -126l-17 6l125 131z" />
    <glyph glyph-name="ccaron.sc" unicode="&#xe045;" horiz-adv-x="523" 
d="M481 508l-4 -25q-57 33 -144 33q-112 0 -184 -69t-72 -190q0 -109 68 -176.5t170 -67.5q96 0 158 39l2 -22q-65 -38 -162 -38q-110 0 -185 71.5t-75 191.5q0 130 80.5 205.5t202.5 75.5q81 0 145 -28zM421 714l-100 -133h-11l-103 133l19 7l90 -116l86 116z" />
    <glyph glyph-name="ccircumflex.sc" unicode="&#xe046;" horiz-adv-x="523" 
d="M481 508l-4 -25q-57 33 -144 33q-112 0 -184 -69t-72 -190q0 -109 68 -176.5t170 -67.5q96 0 158 39l2 -22q-65 -38 -162 -38q-110 0 -185 71.5t-75 191.5q0 130 80.5 205.5t202.5 75.5q81 0 145 -28zM312 721l103 -133l-19 -7l-90 116l-86 -116l-19 7l101 133h10z" />
    <glyph glyph-name="cdotaccent.sc" unicode="&#xe047;" horiz-adv-x="523" 
d="M481 508l-4 -25q-57 33 -144 33q-112 0 -184 -69t-72 -190q0 -109 68 -176.5t170 -67.5q96 0 158 39l2 -22q-65 -38 -162 -38q-110 0 -185 71.5t-75 191.5q0 130 80.5 205.5t202.5 75.5q81 0 145 -28zM337 630q0 -9 -7 -16t-16 -7t-15.5 7t-6.5 16t6.5 15.5t15.5 6.5
t16 -6.5t7 -15.5z" />
    <glyph glyph-name="dcaron.sc" unicode="&#xe048;" horiz-adv-x="601" 
d="M106 117v300q0 29 -0.5 63t-0.5 48q15 0 68 1t75 1q154 0 227 -64.5t73 -194.5q0 -122 -80.5 -197t-221.5 -75q-18 0 -69.5 0.5t-71.5 0.5q0 13 0.5 50.5t0.5 66.5zM128 509v-490h119q133 0 205.5 68.5t72.5 183.5q0 239 -278 239q-81 0 -119 -1zM405 714l-100 -133h-11
l-103 133l19 7l90 -116l86 116z" />
    <glyph glyph-name="dcroat.sc" unicode="&#xe049;" horiz-adv-x="601" 
d="M106 278v139q0 29 -0.5 63t-0.5 48q15 0 68 1t75 1q154 0 227 -64.5t73 -194.5q0 -122 -80.5 -197t-221.5 -75q-18 0 -69.5 0.5t-71.5 0.5q0 13 0.5 50.5t0.5 66.5v140h-104v21h104zM128 509v-231h180v-21h-180v-238h119q133 0 205.5 68.5t72.5 183.5q0 239 -278 239
q-81 0 -119 -1z" />
    <glyph glyph-name="ebreve.sc" unicode="&#xe04a;" horiz-adv-x="435" 
d="M374 528l1 -22q-62 2 -100 2h-147v-230h136q18 0 51 0.5t43 0.5l-3 -23q-7 0 -38.5 0.5t-53.5 0.5h-135v-236h154q73 0 113 2l-2 -23h-288q0 17 0.5 56.5t0.5 55.5v306q0 21 -0.5 59t-0.5 51h269zM327 709h21q-4 -58 -33.5 -87t-78.5 -29q-44 0 -72 29.5t-30 86.5h20
q4 -52 25.5 -73.5t61.5 -21.5q82 0 86 95z" />
    <glyph glyph-name="ecaron.sc" unicode="&#xe04b;" horiz-adv-x="435" 
d="M374 528l1 -22q-62 2 -100 2h-147v-230h136q18 0 51 0.5t43 0.5l-3 -23q-7 0 -38.5 0.5t-53.5 0.5h-135v-236h154q73 0 113 2l-2 -23h-288q0 17 0.5 56.5t0.5 55.5v306q0 21 -0.5 59t-0.5 51h269zM349 714l-100 -133h-11l-103 133l19 7l90 -116l86 116z" />
    <glyph glyph-name="edotaccent.sc" unicode="&#xe04c;" horiz-adv-x="435" 
d="M374 528l1 -22q-62 2 -100 2h-147v-230h136q18 0 51 0.5t43 0.5l-3 -23q-7 0 -38.5 0.5t-53.5 0.5h-135v-236h154q73 0 113 2l-2 -23h-288q0 17 0.5 56.5t0.5 55.5v306q0 21 -0.5 59t-0.5 51h269zM258 630q0 -9 -7 -16t-16 -7t-15.5 7t-6.5 16t6.5 15.5t15.5 6.5t16 -6.5
t7 -15.5z" />
    <glyph glyph-name="emacron.sc" unicode="&#xe04d;" horiz-adv-x="435" 
d="M374 528l1 -22q-62 2 -100 2h-147v-230h136q18 0 51 0.5t43 0.5l-3 -23q-7 0 -38.5 0.5t-53.5 0.5h-135v-236h154q73 0 113 2l-2 -23h-288q0 17 0.5 56.5t0.5 55.5v306q0 21 -0.5 59t-0.5 51h269zM327 633v-22h-167v22h167z" />
    <glyph glyph-name="eng.sc" unicode="&#xe04e;" horiz-adv-x="638" 
d="M511 528h22q-1 -40 -1 -109v-480q0 -34 -4.5 -61t-17 -56t-40 -45t-69.5 -16q-22 0 -40 6v23q18 -8 43 -8q34 0 57 14t33 39.5t13.5 49.5t3.5 56v67l-365 450q-12 14 -19 26h-2q2 -28 2 -47v-437h-22q0 16 0.5 49.5t0.5 52.5v330q0 19 -0.5 51.5t-0.5 50.5h9l370 -458
q14 -18 26 -36h2q-1 10 -1 37v451z" />
    <glyph glyph-name="eogonek.sc" unicode="&#xe04f;" horiz-adv-x="435" 
d="M374 528l1 -22q-62 2 -100 2h-147v-230h136q18 0 51 0.5t43 0.5l-3 -23q-7 0 -38.5 0.5t-53.5 0.5h-135v-236h154q73 0 113 2l-2 -23h-59q-41 -58 -54.5 -83t-13.5 -48q0 -59 57 -59q11 0 16 1v-19q-8 -1 -22 -1q-34 0 -52.5 20t-18.5 53q0 25 13.5 53.5t53.5 82.5h-208
q0 17 0.5 56.5t0.5 55.5v306q0 21 -0.5 59t-0.5 51h269z" />
    <glyph glyph-name="gbreve.sc" unicode="&#xe050;" horiz-adv-x="567" 
d="M496 499l-9 -22q-65 39 -161 39q-111 0 -181 -71.5t-70 -178.5q0 -120 69.5 -186.5t180.5 -66.5q82 0 147 34v182h-144v21h167v-216q-78 -42 -178 -42q-116 0 -190.5 73t-74.5 198q0 123 80 198t199 75q93 0 165 -37zM398 709h21q-4 -58 -33.5 -87t-78.5 -29
q-44 0 -72 29.5t-30 86.5h20q4 -52 25.5 -73.5t61.5 -21.5q82 0 86 95z" />
    <glyph glyph-name="gcircumflex.sc" unicode="&#xe051;" horiz-adv-x="567" 
d="M496 499l-9 -22q-65 39 -161 39q-111 0 -181 -71.5t-70 -178.5q0 -120 69.5 -186.5t180.5 -66.5q82 0 147 34v182h-144v21h167v-216q-78 -42 -178 -42q-116 0 -190.5 73t-74.5 198q0 123 80 198t199 75q93 0 165 -37zM315 721l103 -133l-19 -7l-90 116l-86 -116l-19 7
l101 133h10z" />
    <glyph glyph-name="gcommaaccent.sc" unicode="&#xe052;" horiz-adv-x="567" 
d="M496 499l-9 -22q-65 39 -161 39q-111 0 -181 -71.5t-70 -178.5q0 -120 69.5 -186.5t180.5 -66.5q82 0 147 34v182h-144v21h167v-216q-78 -42 -178 -42q-116 0 -190.5 73t-74.5 198q0 123 80 198t199 75q93 0 165 -37zM284 -56l23 3q3 -19 3 -37q0 -56 -37 -132l-17 5
q32 70 32 120q0 23 -4 41z" />
    <glyph glyph-name="gdotaccent.sc" unicode="&#xe053;" horiz-adv-x="567" 
d="M496 499l-9 -22q-65 39 -161 39q-111 0 -181 -71.5t-70 -178.5q0 -120 69.5 -186.5t180.5 -66.5q82 0 147 34v182h-144v21h167v-216q-78 -42 -178 -42q-116 0 -190.5 73t-74.5 198q0 123 80 198t199 75q93 0 165 -37zM330 630q0 -9 -7 -16t-16 -7t-15.5 7t-6.5 16
t6.5 15.5t15.5 6.5t16 -6.5t7 -15.5z" />
    <glyph glyph-name="hbar.sc" unicode="&#xe054;" horiz-adv-x="621" 
d="M492 528h24q-1 -41 -1 -114h89v-21h-89v-273q0 -82 1 -120h-24q1 39 1 113v146h-365v-154q0 -86 1 -105h-24q0 5 0.5 39t0.5 65v289h-87v21h87q0 92 -1 114h24q-1 -21 -1 -114h365q0 73 -1 114zM493 393h-365v-115h365v115z" />
    <glyph glyph-name="hcircumflex.sc" unicode="&#xe055;" horiz-adv-x="621" 
d="M492 528h24q0 -10 -0.5 -41.5t-0.5 -52.5v-334q0 -27 0.5 -58t0.5 -42h-25q0 10 1 41t1 57v161h-365v-154q0 -86 1 -105h-24q0 5 0.5 39t0.5 65v321q0 80 -1 103h24q-1 -22 -1 -102v-148h365v156q0 22 -0.5 54.5t-0.5 39.5zM314 721l103 -133l-19 -7l-90 116l-86 -116
l-19 7l101 133h10z" />
    <glyph glyph-name="ibreve.sc" unicode="&#xe056;" horiz-adv-x="241" 
d="M108 528h25q-2 -52 -2 -104v-311q0 -88 1 -113h-24q1 26 1 112v310q0 80 -1 106zM206 709h21q-4 -58 -33.5 -87t-78.5 -29q-44 0 -72 29.5t-30 86.5h20q4 -52 25.5 -73.5t61.5 -21.5q82 0 86 95z" />
    <glyph glyph-name="ij.sc" unicode="&#xe058;" horiz-adv-x="449" 
d="M105 528h25q-2 -52 -2 -104v-311q0 -88 1 -113h-24q1 26 1 112v310q0 80 -1 106zM318 528h24q-1 -25 -1 -103v-405q0 -34 -4.5 -61t-17 -56t-40 -45t-69.5 -16q-22 0 -40 6v23q18 -8 43 -8q34 0 56.5 14t32.5 39.5t13.5 49.5t3.5 56v406q0 74 -1 100z" />
    <glyph glyph-name="imacron.sc" unicode="&#xe059;" horiz-adv-x="241" 
d="M108 528h25q-2 -52 -2 -104v-311q0 -88 1 -113h-24q1 26 1 112v310q0 80 -1 106zM204 633v-22h-167v22h167z" />
    <glyph glyph-name="iogonek.sc" unicode="&#xe05a;" horiz-adv-x="241" 
d="M108 528h25q-2 -52 -2 -104v-311q0 -88 1 -113h-2q-51 -93 -51 -136q0 -54 51 -54q11 0 16 1v-19q-8 -1 -22 -1q-31 0 -48 18t-17 50q0 51 50 141h-1q1 26 1 112v310q0 80 -1 106z" />
    <glyph glyph-name="itilde.sc" unicode="&#xe05b;" horiz-adv-x="241" 
d="M108 528h25q-2 -52 -2 -104v-311q0 -88 1 -113h-24q1 26 1 112v310q0 80 -1 106zM242 673l17 -13q-38 -66 -78 -66q-31 0 -67 32q-29 25 -49 25q-35 0 -64 -59l-14 12q36 67 79 67q31 0 66 -33q26 -24 47 -24q17 0 31 13t32 46z" />
    <glyph glyph-name="jcircumflex.sc" unicode="&#xe05c;" horiz-adv-x="241" 
d="M110 528h24q-1 -25 -1 -103v-405q0 -34 -4.5 -61t-17 -56t-40 -45t-69.5 -16q-22 0 -40 6v23q18 -8 43 -8q34 0 56.5 14t32.5 39.5t13.5 49.5t3.5 56v406q0 74 -1 100zM125 721l103 -133l-19 -7l-90 116l-86 -116l-19 7l101 133h10z" />
    <glyph glyph-name="kcommaaccent.sc" unicode="&#xe05d;" horiz-adv-x="452" 
d="M392 528h31l-269 -257l290 -271h-32l-273 257l-11 11v-268h-23q1 50 1 137v256q0 89 -1 135h23v-255l3.5 3.5l2.5 2.5l2.5 2.5l2.5 2.5zM231 -56l23 3q3 -19 3 -37q0 -56 -37 -132l-17 5q32 70 32 120q0 23 -4 41z" />
    <glyph glyph-name="lacute.sc" unicode="&#xe05e;" horiz-adv-x="398" 
d="M105 528h25q-2 -35 -2 -97v-411h172q57 0 87 2l-3 -22h-279q0 10 0.5 48t0.5 61v319q0 28 -0.5 59.5t-0.5 40.5zM234 707l-129 -126l-17 6l125 131z" />
    <glyph glyph-name="lcaron.sc" unicode="&#xe05f;" horiz-adv-x="398" 
d="M105 528h25q-2 -35 -2 -97v-411h172q57 0 87 2l-3 -22h-279q0 10 0.5 48t0.5 61v319q0 28 -0.5 59.5t-0.5 40.5zM309 530l23 3q3 -19 3 -37q0 -56 -37 -132l-17 5q32 70 32 120q0 23 -4 41z" />
    <glyph glyph-name="lcommaaccent.sc" unicode="&#xe060;" horiz-adv-x="398" 
d="M105 528h25q-2 -35 -2 -97v-411h172q57 0 87 2l-3 -22h-279q0 10 0.5 48t0.5 61v319q0 28 -0.5 59.5t-0.5 40.5zM227 -56l23 3q3 -19 3 -37q0 -56 -37 -132l-17 5q32 70 32 120q0 23 -4 41z" />
    <glyph glyph-name="ldot.sc" unicode="&#xe061;" horiz-adv-x="398" 
d="M105 528h25q-2 -35 -2 -97v-411h172q57 0 87 2l-3 -22h-279q0 10 0.5 48t0.5 61v319q0 28 -0.5 59.5t-0.5 40.5zM335 291q0 -9 -7 -16t-16 -7t-15.5 7t-6.5 16t6.5 15.5t15.5 6.5t16 -6.5t7 -15.5z" />
    <glyph glyph-name="nacute.sc" unicode="&#xe062;" horiz-adv-x="638" 
d="M511 528h22q-1 -40 -1 -109v-302q0 -85 1 -124h-10l-377 465q-12 14 -19 26h-2q2 -28 2 -47v-437h-22q0 16 0.5 49.5t0.5 52.5v330q0 19 -0.5 51.5t-0.5 50.5h9l370 -458q21 -26 27 -35v45v442zM436 707l-129 -126l-17 6l125 131z" />
    <glyph glyph-name="ncaron.sc" unicode="&#xe063;" horiz-adv-x="638" 
d="M511 528h22q-1 -40 -1 -109v-302q0 -85 1 -124h-10l-377 465q-12 14 -19 26h-2q2 -28 2 -47v-437h-22q0 16 0.5 49.5t0.5 52.5v330q0 19 -0.5 51.5t-0.5 50.5h9l370 -458q21 -26 27 -35v45v442zM431 714l-100 -133h-11l-103 133l19 7l90 -116l86 116z" />
    <glyph glyph-name="ncommaaccent.sc" unicode="&#xe064;" horiz-adv-x="638" 
d="M511 528h22q-1 -40 -1 -109v-302q0 -85 1 -124h-10l-377 465q-12 14 -19 26h-2q2 -28 2 -47v-437h-22q0 16 0.5 49.5t0.5 52.5v330q0 19 -0.5 51.5t-0.5 50.5h9l370 -458q21 -26 27 -35v45v442zM302 -56l23 3q3 -19 3 -37q0 -56 -37 -132l-17 5q32 70 32 120q0 23 -4 41z
" />
    <glyph glyph-name="obreve.sc" unicode="&#xe065;" horiz-adv-x="639" 
d="M328 536q110 0 183 -73t73 -195q0 -129 -74 -202.5t-196 -73.5q-112 0 -185.5 77.5t-73.5 191.5q0 126 75.5 200.5t197.5 74.5zM323 517q-110 0 -178 -70.5t-68 -181.5q0 -110 68.5 -182t173.5 -72q104 0 173 67t69 184t-66.5 186t-171.5 69zM404 709h21
q-4 -58 -33.5 -87t-78.5 -29q-44 0 -72 29.5t-30 86.5h20q4 -52 25.5 -73.5t61.5 -21.5q82 0 86 95z" />
    <glyph glyph-name="ohungarumlaut.sc" unicode="&#xe066;" horiz-adv-x="639" 
d="M328 536q110 0 183 -73t73 -195q0 -129 -74 -202.5t-196 -73.5q-112 0 -185.5 77.5t-73.5 191.5q0 126 75.5 200.5t197.5 74.5zM323 517q-110 0 -178 -70.5t-68 -181.5q0 -110 68.5 -182t173.5 -72q104 0 173 67t69 184t-66.5 186t-171.5 69zM434 726l-68 -146h-17
l61 149zM333 726l-68 -146h-17l61 149z" />
    <glyph glyph-name="omacron.sc" unicode="&#xe067;" horiz-adv-x="639" 
d="M328 536q110 0 183 -73t73 -195q0 -129 -74 -202.5t-196 -73.5q-112 0 -185.5 77.5t-73.5 191.5q0 126 75.5 200.5t197.5 74.5zM323 517q-110 0 -178 -70.5t-68 -181.5q0 -110 68.5 -182t173.5 -72q104 0 173 67t69 184t-66.5 186t-171.5 69zM396 633v-22h-167v22h167z
" />
    <glyph glyph-name="oslashacute.sc" unicode="&#xe068;" horiz-adv-x="639" 
d="M581 545l-72 -80q75 -77 75 -197q0 -129 -74 -202.5t-196 -73.5q-102 0 -172 64l-71 -79l-16 13l72 80q-72 78 -72 191q0 126 75.5 200.5t197.5 74.5q97 0 166 -58l72 80zM142 86l338 376q-64 55 -157 55q-110 0 -178 -70.5t-68 -181.5q0 -108 65 -179zM494 448
l-338 -376q66 -61 163 -61q104 0 173 67t69 184q0 116 -67 186zM427 707l-129 -126l-17 6l125 131z" />
    <glyph glyph-name="racute.sc" unicode="&#xe069;" horiz-adv-x="469" 
d="M441 0h-31l-172 239h-110q0 -145 2 -239h-25q1 29 1 101v330q0 60 -1 97q49 2 135 2q79 0 119.5 -35.5t40.5 -101.5q0 -62 -36.5 -103t-99.5 -48zM128 509v-252h109q67 0 103.5 37t36.5 97q0 119 -142 119q-83 0 -107 -1zM342 707l-129 -126l-17 6l125 131z" />
    <glyph glyph-name="rcaron.sc" unicode="&#xe06a;" horiz-adv-x="469" 
d="M441 0h-31l-172 239h-110q0 -145 2 -239h-25q1 29 1 101v330q0 60 -1 97q49 2 135 2q79 0 119.5 -35.5t40.5 -101.5q0 -62 -36.5 -103t-99.5 -48zM128 509v-252h109q67 0 103.5 37t36.5 97q0 119 -142 119q-83 0 -107 -1zM342 714l-100 -133h-11l-103 133l19 7l90 -116
l86 116z" />
    <glyph glyph-name="rcommaaccent.sc" unicode="&#xe06b;" horiz-adv-x="469" 
d="M441 0h-31l-172 239h-110q0 -145 2 -239h-25q1 29 1 101v330q0 60 -1 97q49 2 135 2q79 0 119.5 -35.5t40.5 -101.5q0 -62 -36.5 -103t-99.5 -48zM128 509v-252h109q67 0 103.5 37t36.5 97q0 119 -142 119q-83 0 -107 -1zM235 -56l23 3q3 -19 3 -37q0 -56 -37 -132l-17 5
q32 70 32 120q0 23 -4 41z" />
    <glyph glyph-name="sacute.sc" unicode="&#xe06c;" horiz-adv-x="409" 
d="M344 510l-6 -23q-47 29 -112 29q-66 0 -101.5 -32t-35.5 -79t26.5 -74.5t101.5 -56.5q74 -29 107 -61.5t33 -82.5q0 -62 -45.5 -100t-123.5 -38q-39 0 -77.5 10.5t-58.5 23.5l4 25q22 -16 59.5 -27.5t75.5 -11.5q67 0 104 30.5t37 83.5q0 44 -30 74t-108 60
q-70 27 -99.5 58t-29.5 83q0 54 43 94.5t123 40.5q64 0 113 -26zM325 707l-129 -126l-17 6l125 131z" />
    <glyph glyph-name="scedilla.sc" unicode="&#xe06d;" horiz-adv-x="409" 
d="M344 510l-6 -23q-47 29 -112 29q-66 0 -101.5 -32t-35.5 -79t26.5 -74.5t101.5 -56.5q74 -29 107 -61.5t33 -82.5q0 -61 -44.5 -99t-120.5 -39l-4 -49q29 0 48.5 -16.5t19.5 -47.5q0 -37 -30 -62.5t-73 -25.5l-2 18q34 -2 60 18.5t26 48.5q0 26 -16 38t-52 12l6 66
q-80 5 -123 34l4 25q53 -39 134 -39q67 0 103.5 31t36.5 84q0 44 -29 74t-107 60q-70 27 -99.5 57.5t-29.5 82.5q0 54 43 94.5t123 40.5q64 0 113 -26z" />
    <glyph glyph-name="scircumflex.sc" unicode="&#xe06e;" horiz-adv-x="409" 
d="M344 510l-6 -23q-47 29 -112 29q-66 0 -101.5 -32t-35.5 -79t26.5 -74.5t101.5 -56.5q74 -29 107 -61.5t33 -82.5q0 -62 -45.5 -100t-123.5 -38q-39 0 -77.5 10.5t-58.5 23.5l4 25q22 -16 59.5 -27.5t75.5 -11.5q67 0 104 30.5t37 83.5q0 44 -30 74t-108 60
q-70 27 -99.5 58t-29.5 83q0 54 43 94.5t123 40.5q64 0 113 -26zM219 721l103 -133l-19 -7l-90 116l-86 -116l-19 7l101 133h10z" />
    <glyph glyph-name="scommaaccent.sc" unicode="&#xe06f;" horiz-adv-x="409" 
d="M344 510l-6 -23q-47 29 -112 29q-66 0 -101.5 -32t-35.5 -79t26.5 -74.5t101.5 -56.5q74 -29 107 -61.5t33 -82.5q0 -62 -45.5 -100t-123.5 -38q-39 0 -77.5 10.5t-58.5 23.5l4 25q22 -16 59.5 -27.5t75.5 -11.5q67 0 104 30.5t37 83.5q0 44 -30 74t-108 60
q-70 27 -99.5 58t-29.5 83q0 54 43 94.5t123 40.5q64 0 113 -26zM195 -56l23 3q3 -19 3 -37q0 -56 -37 -132l-17 5q32 70 32 120q0 23 -4 41z" />
    <glyph glyph-name="tbar.sc" unicode="&#xe070;" horiz-adv-x="421" 
d="M411 528v-21q-25 1 -76 1h-116v-268h160v-21h-160v-118q0 -30 0.5 -61.5t0.5 -39.5h-24q1 23 1 103v116h-161v21h161v268h-112q-49 0 -75 -1l1 21h400z" />
    <glyph glyph-name="tcaron.sc" unicode="&#xe071;" horiz-adv-x="421" 
d="M411 528v-21q-25 1 -76 1h-116v-407q0 -30 0.5 -61.5t0.5 -39.5h-24q1 23 1 103v405h-112q-49 0 -75 -1l1 21h400zM317 714l-100 -133h-11l-103 133l19 7l90 -116l86 116z" />
    <glyph glyph-name="tcommaaccent.sc" unicode="&#xe072;" horiz-adv-x="421" 
d="M411 528v-21q-25 1 -76 1h-116v-407q0 -30 0.5 -61.5t0.5 -39.5h-24q1 23 1 103v405h-112q-49 0 -75 -1l1 21h400zM201 -56l23 3q3 -19 3 -37q0 -56 -37 -132l-17 5q32 70 32 120q0 23 -4 41z" />
    <glyph glyph-name="ubreve.sc" unicode="&#xe073;" horiz-adv-x="597" 
d="M473 528h26q-2 -54 -2 -88v-229q0 -219 -202 -219q-97 0 -146 55.5t-49 156.5v223q0 49 -2 101h26q0 -10 -0.5 -41.5t-0.5 -52.5v-226q0 -196 178 -196q174 0 174 192v229q0 45 -2 95zM384 709h21q-4 -58 -33.5 -87t-78.5 -29q-44 0 -72 29.5t-30 86.5h20
q4 -52 25.5 -73.5t61.5 -21.5q82 0 86 95z" />
    <glyph glyph-name="uhungarumlaut.sc" unicode="&#xe074;" horiz-adv-x="597" 
d="M473 528h26q-2 -54 -2 -88v-229q0 -219 -202 -219q-97 0 -146 55.5t-49 156.5v223q0 49 -2 101h26q0 -10 -0.5 -41.5t-0.5 -52.5v-226q0 -196 178 -196q174 0 174 192v229q0 45 -2 95zM406 726l-68 -146h-17l61 149zM305 726l-68 -146h-17l61 149z" />
    <glyph glyph-name="umacron.sc" unicode="&#xe075;" horiz-adv-x="597" 
d="M473 528h26q-2 -54 -2 -88v-229q0 -219 -202 -219q-97 0 -146 55.5t-49 156.5v223q0 49 -2 101h26q0 -10 -0.5 -41.5t-0.5 -52.5v-226q0 -196 178 -196q174 0 174 192v229q0 45 -2 95zM379 633v-22h-167v22h167z" />
    <glyph glyph-name="uogonek.sc" unicode="&#xe076;" horiz-adv-x="597" 
d="M473 528h26q-2 -54 -2 -88v-229q0 -186 -145 -214q-40 -56 -53 -80.5t-13 -47.5q0 -59 57 -59q11 0 16 1v-19q-8 -1 -22 -1q-34 0 -52.5 20t-18.5 53q0 24 12.5 52t49.5 78q-20 -2 -33 -2q-97 0 -146 55.5t-49 156.5v223q0 49 -2 101h26q0 -10 -0.5 -41.5t-0.5 -52.5
v-226q0 -196 178 -196q174 0 174 192v229q0 45 -2 95z" />
    <glyph glyph-name="uring.sc" unicode="&#xe077;" horiz-adv-x="597" 
d="M473 528h26q-2 -54 -2 -88v-229q0 -219 -202 -219q-97 0 -146 55.5t-49 156.5v223q0 49 -2 101h26q0 -10 -0.5 -41.5t-0.5 -52.5v-226q0 -196 178 -196q174 0 174 192v229q0 45 -2 95zM374 660q0 -32 -22.5 -55.5t-53.5 -23.5q-33 0 -55.5 21.5t-22.5 53.5q0 34 23 56.5
t56 22.5t54 -22t21 -53zM298 718q-24 0 -41 -16.5t-17 -42.5q0 -27 16.5 -43.5t41.5 -16.5q24 0 40 17t16 42q0 27 -16 43.5t-40 16.5z" />
    <glyph glyph-name="utilde.sc" unicode="&#xe078;" horiz-adv-x="597" 
d="M473 528h26q-2 -54 -2 -88v-229q0 -219 -202 -219q-97 0 -146 55.5t-49 156.5v223q0 49 -2 101h26q0 -10 -0.5 -41.5t-0.5 -52.5v-226q0 -196 178 -196q174 0 174 192v229q0 45 -2 95zM413 673l17 -13q-38 -66 -78 -66q-31 0 -67 32q-29 25 -49 25q-34 0 -64 -59l-14 12
q36 67 79 67q31 0 66 -33q26 -24 47 -24q17 0 31 13t32 46z" />
    <glyph glyph-name="wacute.sc" unicode="&#xe079;" horiz-adv-x="803" 
d="M755 528h22q-4 -13 -86 -251q-70 -206 -94 -286h-21l-151 437q-15 44 -18 58h-2q-14 -48 -17 -56l-160 -439h-17l-101 295l-84 242h24l157 -456q9 -28 13 -45h2q6 24 13 42l166 459h13l156 -448q12 -36 16 -52h2q4 22 14 53zM507 707l-129 -126l-17 6l125 131z" />
    <glyph glyph-name="wcircumflex.sc" unicode="&#xe07a;" horiz-adv-x="803" 
d="M755 528h22q-4 -13 -86 -251q-70 -206 -94 -286h-21l-151 437q-15 44 -18 58h-2q-14 -48 -17 -56l-160 -439h-17l-101 295l-84 242h24l157 -456q9 -28 13 -45h2q6 24 13 42l166 459h13l156 -448q12 -36 16 -52h2q4 22 14 53zM411 721l103 -133l-19 -7l-90 116l-86 -116
l-19 7l101 133h10z" />
    <glyph glyph-name="wdieresis.sc" unicode="&#xe07b;" horiz-adv-x="803" 
d="M755 528h22q-4 -13 -86 -251q-70 -206 -94 -286h-21l-151 437q-15 44 -18 58h-2q-14 -48 -17 -56l-160 -439h-17l-101 295l-84 242h24l157 -456q9 -28 13 -45h2q6 24 13 42l166 459h13l156 -448q12 -36 16 -52h2q4 22 14 53zM507 626q0 -8 -6.5 -14.5t-14.5 -6.5t-14 6.5
t-6 14.5t6 14t14 6t14.5 -6t6.5 -14zM348 626q0 -8 -6.5 -14.5t-14.5 -6.5t-14 6.5t-6 14.5t6 14t14 6t14.5 -6t6.5 -14z" />
    <glyph glyph-name="wgrave.sc" unicode="&#xe07c;" horiz-adv-x="803" 
d="M755 528h22q-4 -13 -86 -251q-70 -206 -94 -286h-21l-151 437q-15 44 -18 58h-2q-14 -48 -17 -56l-160 -439h-17l-101 295l-84 242h24l157 -456q9 -28 13 -45h2q6 24 13 42l166 459h13l156 -448q12 -36 16 -52h2q4 22 14 53zM332 718l125 -131l-16 -6l-130 126z" />
    <glyph glyph-name="ycircumflex.sc" unicode="&#xe07d;" horiz-adv-x="431" 
d="M399 528h26l-99 -167l-101 -176v-94q0 -65 1 -91h-25q1 21 1 87v98q-27 51 -104 184l-92 159h26l160 -279q16 -30 21 -41h2q8 18 23 43zM220 721l103 -133l-19 -7l-90 116l-86 -116l-19 7l101 133h10z" />
    <glyph glyph-name="ygrave.sc" unicode="&#xe07e;" horiz-adv-x="431" 
d="M399 528h26l-99 -167l-101 -176v-94q0 -65 1 -91h-25q1 21 1 87v98q-27 51 -104 184l-92 159h26l160 -279q16 -30 21 -41h2q8 18 23 43zM143 718l125 -131l-16 -6l-130 126z" />
    <glyph glyph-name="zacute.sc" unicode="&#xe07f;" horiz-adv-x="460" 
d="M436 528l2 -3l-381 -506h213q124 0 165 3l-2 -22h-411l-1 4l378 505h-193q-98 0 -158 -2l2 21h386zM338 707l-129 -126l-17 6l125 131z" />
    <glyph glyph-name="zdotaccent.sc" unicode="&#xe080;" horiz-adv-x="460" 
d="M436 528l2 -3l-381 -506h213q124 0 165 3l-2 -22h-411l-1 4l378 505h-193q-98 0 -158 -2l2 21h386zM261 630q0 -9 -7 -16t-16 -7t-15.5 7t-6.5 16t6.5 15.5t15.5 6.5t16 -6.5t7 -15.5z" />
    <glyph glyph-name="idotaccent.sc" unicode="&#xe081;" horiz-adv-x="241" 
d="M108 528h25q-2 -52 -2 -104v-311q0 -88 1 -113h-24q1 26 1 112v310q0 80 -1 106zM144 630q0 -9 -7 -16t-16 -7t-15.5 7t-6.5 16t6.5 15.5t15.5 6.5t16 -6.5t7 -15.5z" />
    <glyph glyph-name="tcedilla.sc" unicode="&#xe08a;" horiz-adv-x="421" 
d="M411 528v-21q-25 1 -76 1h-116v-407q0 -30 0.5 -61.5t0.5 -39.5h-24q1 23 1 103v405h-112q-49 0 -75 -1l1 21h400zM201 -56l23 3q3 -19 3 -37q0 -56 -37 -132l-17 5q32 70 32 120q0 23 -4 41z" />
    <glyph glyph-name="ampersand.sc" unicode="&#xe08c;" horiz-adv-x="599" 
d="M502 293l21 2q-17 -127 -83 -211q86 -75 113 -96l-19 -8q-22 16 -60 50t-46 40q-78 -82 -188 -82q-76 0 -124 42t-48 106q0 51 30.5 90.5t101.5 72.5q-64 71 -64 130q0 44 33.5 76t87.5 32q46 0 78 -27.5t32 -68.5q0 -45 -33 -79t-105 -68q90 -102 198 -198q61 75 75 197
zM217 306q69 32 99.5 62.5t30.5 69.5q0 34 -27 57.5t-65 23.5q-45 0 -72.5 -26t-27.5 -62q0 -56 62 -125zM415 81q-95 86 -203 204q-65 -29 -94.5 -64.5t-29.5 -82.5q0 -56 43.5 -94t113.5 -38q100 0 170 75z" />
    <glyph glyph-name="zero.fitted" unicode="&#xe097;" horiz-adv-x="521" 
d="M267 687q87 0 138.5 -82t51.5 -263q0 -182 -55 -267t-144 -85q-84 0 -139 82t-55 253q0 189 55 275.5t148 86.5zM266 667q-85 0 -132.5 -84t-47.5 -253q0 -153 46 -236.5t128 -83.5q80 0 128 82t48 242q0 171 -45 252t-125 81z" />
    <glyph glyph-name="two.fitted" unicode="&#xe098;" horiz-adv-x="479" 
d="M82 598l-8 24q80 65 170 65q75 0 117.5 -45t42.5 -114q0 -60 -28 -110t-106 -146l-211 -253h247q68 0 116 3l-1 -22h-387l-3 18q54 59 222 265q73 88 101 139.5t28 102.5q0 63 -38 102.5t-106 39.5q-84 0 -156 -69z" />
    <glyph glyph-name="three.fitted" unicode="&#xe099;" horiz-adv-x="467" 
d="M75 618l-8 21q63 48 148 48q79 0 120 -45t41 -107q0 -71 -39.5 -117.5t-104.5 -62.5q79 -9 124.5 -54.5t45.5 -118.5q0 -93 -56.5 -142.5t-156.5 -49.5q-95 0 -156 42l6 23q61 -45 154 -45q86 0 136 43t50 125q0 77 -53 120t-152 43h-58l1 21h35q91 0 146.5 45t55.5 122
q0 61 -36 99t-110 38q-78 0 -133 -48z" />
    <glyph glyph-name="four.fitted" unicode="&#xe09a;" horiz-adv-x="486" 
d="M346 695v-467h78l-5 -20h-73v-99q0 -17 1 -52t1 -57h-26q2 78 2 106v102h-313l-1 12l321 475h15zM325 653h-2q-10 -20 -20 -35l-263 -390h284v384q0 26 1 41z" />
    <glyph glyph-name="five.fitted" unicode="&#xe09b;" horiz-adv-x="487" 
d="M393 677v-21h-265l-11 -261q22 2 73 2q230 0 230 -197q0 -91 -54 -150.5t-159 -59.5q-80 0 -143 36l4 25q62 -42 145 -42q87 0 135.5 52.5t48.5 132.5q0 91 -51 137t-162 46q-45 0 -90 -3l7.5 148t6.5 155h285z" />
    <glyph glyph-name="six.fitted" unicode="&#xe09c;" horiz-adv-x="508" 
d="M411 701l11 -17q-117 -34 -195 -100q-105 -89 -133 -239q82 60 173 60q88 0 138 -53.5t50 -149.5q0 -92 -53 -152t-147 -60q-87 0 -138.5 70.5t-51.5 197.5q0 104 41 194t102 143q88 76 203 106zM92 323q-5 -28 -5 -63q0 -122 48 -186t126 -64q85 0 128.5 55t43.5 134
q0 89 -43.5 137.5t-127.5 48.5q-82 0 -170 -62z" />
    <glyph glyph-name="seven.fitted" unicode="&#xe09d;" horiz-adv-x="427" 
d="M421 677l-295 -677h-25l287 656h-271q-55 0 -107 -2l2 23h409z" />
    <glyph glyph-name="eight.fitted" unicode="&#xe09e;" horiz-adv-x="517" 
d="M280 358q96 -36 134 -84t38 -109q0 -83 -53.5 -129t-150.5 -46q-83 0 -133 48.5t-50 120.5q0 74 41 118t130 79q-72 35 -104 75t-32 99q0 71 47.5 114t125.5 43q67 0 112 -40t45 -108q0 -60 -35.5 -104t-114.5 -77zM260 368q78 31 112.5 72t34.5 96q0 62 -37.5 96.5
t-100.5 34.5q-66 0 -106.5 -35.5t-40.5 -98.5q0 -58 32.5 -95.5t105.5 -69.5zM257 346q-93 -35 -131 -77.5t-38 -106.5q0 -65 43.5 -108t122.5 -43q89 0 132.5 42.5t43.5 107.5q0 64 -41.5 108.5t-131.5 76.5z" />
    <glyph glyph-name="nine.fitted" unicode="&#xe09f;" horiz-adv-x="499" 
d="M103 -26l-16 16q111 34 175 94q104 97 142 261q-39 -28 -75.5 -43t-87.5 -15q-87 0 -136 56.5t-49 142.5q0 94 55 147.5t137 53.5q81 0 133.5 -63t52.5 -192q0 -96 -41 -195.5t-103 -156.5q-84 -77 -187 -106zM407 367q6 50 6 75q0 105 -46 165t-124 60q-73 0 -119.5 -49
t-46.5 -126q0 -85 43.5 -134.5t125.5 -49.5q87 0 161 59z" />
    <glyph glyph-name="zero.taboldstyle" unicode="&#xe100;" horiz-adv-x="480" 
d="M247 484q91 0 148 -64.5t57 -180.5q0 -111 -57 -181.5t-161 -70.5q-92 0 -149 65.5t-57 175.5q0 121 63.5 188.5t155.5 67.5zM243 464q-82 0 -137.5 -63t-55.5 -170q0 -102 52 -162.5t136 -60.5q94 0 143 65t49 164q0 107 -50 167t-137 60z" />
    <glyph glyph-name="one.taboldstyle" unicode="&#xe101;" horiz-adv-x="480" 
d="M281 491v-323q0 -113 2 -168h-27q2 44 2 161v302l-163 -48v21z" />
    <glyph glyph-name="two.taboldstyle" unicode="&#xe102;" horiz-adv-x="480" 
d="M92 398l-9 21q77 69 173 69q68 0 106.5 -37t38.5 -95q0 -50 -29.5 -92.5t-92.5 -91.5l-195 -149h177q144 0 186 3l-2 -26h-393q0 4 -3 11.5t-3 11.5l206 153q66 50 96.5 91.5t30.5 85.5q0 53 -34 83.5t-94 30.5q-86 0 -159 -69z" />
    <glyph glyph-name="three.taboldstyle" unicode="&#xe103;" horiz-adv-x="480" 
d="M98 420l-9 21q65 48 140 48q63 0 102.5 -36t39.5 -100q0 -59 -35 -100.5t-98 -54.5q76 -5 119.5 -46.5t43.5 -111.5q0 -86 -58 -135.5t-149 -49.5q-73 0 -139 34l6 24q69 -36 140 -36q86 0 132 46.5t46 112.5q0 70 -46.5 108.5t-140.5 38.5q-29 0 -58 -4l1 24
q101 1 157.5 37.5t56.5 108.5q0 55 -33 87t-92 32q-70 0 -126 -48z" />
    <glyph glyph-name="four.taboldstyle" unicode="&#xe104;" horiz-adv-x="480" 
d="M331 502h8q0 -52 0.5 -177.5t0.5 -242.5l106 1l-8 -21h-98q0 -82 2 -218l-25 -10q2 63 2 228h-292l-3 7l156 219t151 214zM320 452h-2q-11 -21 -31 -48l-228 -322h260v309q0 36 1 61z" />
    <glyph glyph-name="five.taboldstyle" unicode="&#xe105;" horiz-adv-x="480" 
d="M381 475l-2 -21h-229l-24 -230h14q13 1 23 1q233 0 233 -180q0 -81 -52.5 -135.5t-150.5 -54.5q-68 0 -124 29l4 25q59 -33 127 -33q86 0 129.5 48t43.5 116q0 164 -212 164q-22 0 -60 -2q18 150 29 273h251z" />
    <glyph glyph-name="six.taboldstyle" unicode="&#xe106;" horiz-adv-x="480" 
d="M394 636l14 -16q-263 -84 -319 -322q27 15 70 27t80 12q88 0 134.5 -47t46.5 -124q0 -79 -51 -131.5t-130 -52.5q-80 0 -130 62.5t-50 174.5q0 144 91.5 255.5t243.5 161.5zM86 274q-4 -20 -4 -52q0 -103 44.5 -161t116.5 -58q69 0 111.5 45t42.5 112q0 77 -42.5 116.5
t-122.5 39.5q-72 0 -146 -42z" />
    <glyph glyph-name="seven.taboldstyle" unicode="&#xe107;" horiz-adv-x="480" 
d="M409 475l2 -4l-269 -623l-27 2l264 604h-172q-87 0 -149 -2l4 23h347z" />
    <glyph glyph-name="eight.taboldstyle" unicode="&#xe108;" horiz-adv-x="480" 
d="M261 334q78 -34 116 -78.5t38 -105.5q0 -65 -46.5 -114t-134.5 -49q-73 0 -121.5 45.5t-48.5 114.5q0 65 37 107.5t115 79.5q-62 37 -90 72.5t-28 84.5q0 69 44 109t111 40q62 0 101 -38.5t39 -102.5q0 -54 -31 -92t-101 -73zM241 346q129 56 129 148q0 59 -34 92.5
t-89 33.5t-90.5 -35t-35.5 -91q0 -47 28.5 -82t91.5 -66zM236 322q-79 -33 -114 -74t-35 -99q0 -64 43 -102.5t109 -38.5q72 0 112 39.5t40 96.5q0 63 -39 105t-116 73z" />
    <glyph glyph-name="nine.taboldstyle" unicode="&#xe109;" horiz-adv-x="480" 
d="M93 -160l-14 16q259 90 310 310q-71 -39 -145 -39q-88 0 -136.5 48.5t-48.5 124.5q0 81 49 132t128 51q82 0 133 -58.5t51 -173.5q0 -148 -87 -253.5t-240 -157.5zM392 190q4 20 4 58q0 106 -45 159.5t-119 53.5q-67 0 -108 -43.5t-41 -109.5q0 -77 44 -118t124 -41
q68 0 141 41z" />
    <glyph glyph-name="zero.denominator" unicode="&#xe10a;" 
d="M172 393q116 0 116 -198q0 -101 -34 -150.5t-92 -49.5q-53 0 -87 47.5t-34 143.5q0 106 35.5 156.5t95.5 50.5zM169 375q-50 0 -78 -46t-28 -140q0 -88 27 -131.5t76 -43.5q46 0 73 45t27 132q0 184 -97 184z" />
    <glyph glyph-name="one.denominator" unicode="&#xe10b;" 
d="M199 401v-264q0 -23 0.5 -72t0.5 -65h-24q1 32 1 137v237l-99 -26v21z" />
    <glyph glyph-name="two.denominator" unicode="&#xe10c;" 
d="M68 326l-6 21q49 45 114 45q48 0 75 -26.5t27 -69.5q0 -54 -83 -142l-124 -134h95q59 0 123 2l-1 -22h-244l-3 18q57 57 138 147q46 51 61 77t15 52q0 35 -21 57t-63 22q-61 0 -103 -47z" />
    <glyph glyph-name="three.denominator" unicode="&#xe10d;" 
d="M76 342l-8 19q46 31 96 31q51 0 77 -25.5t26 -63.5q0 -36 -21 -63t-65 -38q45 -4 72.5 -27t27.5 -66q0 -52 -36.5 -83.5t-100.5 -31.5q-22 0 -51.5 8.5t-44.5 20.5l8 20q40 -29 94 -29q50 0 79 25t29 64q0 97 -161 87l2 20q79 -3 112.5 22t33.5 64q0 36 -22 57t-66 21
q-45 0 -81 -32z" />
    <glyph glyph-name="four.denominator" unicode="&#xe10e;" 
d="M233 396h12v-261h48l-6 -17h-42q0 -76 1 -118h-22q1 39 1 118h-186l-3 8zM227 359h-2q-8 -16 -18 -31l-140 -193h158v185q0 15 2 39z" />
    <glyph glyph-name="five.denominator" unicode="&#xe10f;" 
d="M261 387v-18h-165l-7 -140q26 2 50 2q68 0 103 -31.5t35 -84.5q0 -52 -35.5 -86t-100.5 -34q-46 0 -90 24l4 24q41 -29 91 -29q52 0 81 28t29 69q0 102 -124 102q-25 0 -63 -4q1 28 4.5 91t4.5 87h183z" />
    <glyph glyph-name="six.denominator" unicode="&#xe110;" 
d="M258 401l11 -14q-69 -18 -124 -60q-25 -20 -47.5 -54t-29.5 -69q47 27 99 27q54 0 87.5 -28.5t33.5 -82.5q0 -58 -34.5 -91.5t-89.5 -33.5q-56 0 -89 41.5t-33 112.5q0 59 25.5 109t63.5 81q54 43 127 62zM64 182q-2 -11 -2 -36q0 -64 30.5 -98.5t75.5 -34.5
q43 0 71.5 28t28.5 74t-25.5 72t-78.5 26t-100 -31z" />
    <glyph glyph-name="seven.denominator" unicode="&#xe111;" 
d="M293 387l1 -4l-174 -382h-24l169 367h-119q-72 0 -110 -2l2 21h255z" />
    <glyph glyph-name="eight.denominator" unicode="&#xe112;" 
d="M190 203q97 -37 97 -106q0 -49 -34.5 -76t-95.5 -27q-46 0 -80 25.5t-34 71.5q0 37 23 63.5t73 48.5q-75 42 -75 96q0 42 31 67.5t80 25.5q42 0 70.5 -23.5t28.5 -64.5q0 -59 -84 -101zM168 213q40 15 62 38.5t22 48.5q0 34 -21.5 54t-59.5 20q-39 0 -62.5 -20t-23.5 -53
q0 -57 83 -88zM163 193q-98 -33 -98 -100q0 -37 27 -59t71 -22q48 0 75.5 22.5t27.5 57.5q0 34 -22 58t-81 43z" />
    <glyph glyph-name="nine.denominator" unicode="&#xe113;" 
d="M77 -12l-15 14q68 17 116 55q59 45 80 130q-50 -24 -96 -24q-48 0 -82 30t-34 83q0 54 34.5 86t85.5 32q55 0 86.5 -37.5t31.5 -109.5q0 -54 -24.5 -109t-62.5 -88q-55 -46 -120 -62zM261 209q4 22 4 35q0 132 -102 132q-42 0 -69.5 -27.5t-27.5 -68.5q0 -47 28.5 -73
t72.5 -26q51 0 94 28z" />
    <glyph glyph-name="zero.numerator" unicode="&#xe11e;" 
d="M172 684q116 0 116 -198q0 -101 -34 -150.5t-92 -49.5q-53 0 -87 47.5t-34 143.5q0 106 35.5 156.5t95.5 50.5zM169 666q-50 0 -78 -46t-28 -140q0 -88 27 -131.5t76 -43.5q46 0 73 45t27 132q0 184 -97 184z" />
    <glyph glyph-name="one.numerator" unicode="&#xe11f;" 
d="M199 692v-264q0 -23 0.5 -72t0.5 -65h-24q1 32 1 137v237l-99 -26v21z" />
    <glyph glyph-name="two.numerator" unicode="&#xe120;" 
d="M68 617l-6 21q49 45 114 45q48 0 75 -26.5t27 -69.5q0 -54 -83 -142l-124 -134h95q59 0 123 2l-1 -22h-244l-3 18q57 57 138 147q46 51 61 77t15 52q0 35 -21 57t-63 22q-61 0 -103 -47z" />
    <glyph glyph-name="three.numerator" unicode="&#xe121;" 
d="M76 633l-8 19q46 31 96 31q51 0 77 -25.5t26 -63.5q0 -36 -21 -63t-65 -38q45 -4 72.5 -27t27.5 -66q0 -52 -36.5 -83.5t-100.5 -31.5q-22 0 -51.5 8.5t-44.5 20.5l8 20q40 -29 94 -29q50 0 79 25t29 64q0 88 -130 88q-20 0 -31 -1l2 20h16q71 0 100.5 25t29.5 61t-22 57
t-66 21q-45 0 -81 -32z" />
    <glyph glyph-name="four.numerator" unicode="&#xe122;" 
d="M233 687h12v-261h48l-6 -17h-42q0 -76 1 -118h-22q1 39 1 118h-186l-3 8zM227 650h-2q-8 -16 -18 -31l-140 -193h158v185q0 15 2 39z" />
    <glyph glyph-name="five.numerator" unicode="&#xe123;" 
d="M261 678v-18h-165l-7 -140q26 2 50 2q68 0 103 -31.5t35 -84.5q0 -52 -35.5 -86t-100.5 -34q-46 0 -90 24l4 24q41 -29 91 -29q52 0 81 28t29 69q0 102 -124 102q-25 0 -63 -4q1 28 4.5 91t4.5 87h183z" />
    <glyph glyph-name="six.numerator" unicode="&#xe124;" 
d="M258 692l11 -14q-69 -18 -124 -60q-25 -20 -47.5 -54t-29.5 -69q47 27 99 27q54 0 87.5 -28.5t33.5 -82.5q0 -58 -34.5 -91.5t-89.5 -33.5q-56 0 -89 41.5t-33 112.5q0 59 25.5 109t63.5 81q54 43 127 62zM64 473q-2 -11 -2 -36q0 -64 30.5 -98.5t75.5 -34.5
q43 0 71.5 28t28.5 74t-25.5 72t-78.5 26t-100 -31z" />
    <glyph glyph-name="seven.numerator" unicode="&#xe125;" 
d="M293 678l1 -4l-174 -382h-24l169 367h-119q-72 0 -110 -2l2 21h255z" />
    <glyph glyph-name="eight.numerator" unicode="&#xe126;" 
d="M190 494q97 -37 97 -106q0 -49 -34.5 -76t-95.5 -27q-46 0 -80 25.5t-34 71.5q0 37 23 63.5t73 48.5q-75 42 -75 96q0 42 31 67.5t80 25.5q42 0 70.5 -23.5t28.5 -64.5q0 -59 -84 -101zM168 504q40 15 62 38.5t22 48.5q0 34 -21.5 54t-59.5 20q-39 0 -62.5 -20t-23.5 -53
q0 -57 83 -88zM163 484q-98 -33 -98 -100q0 -37 27 -59t71 -22q48 0 75.5 22.5t27.5 57.5q0 34 -22 58t-81 43z" />
    <glyph glyph-name="nine.numerator" unicode="&#xe127;" 
d="M77 279l-15 14q68 17 116 55q59 45 80 130q-50 -24 -96 -24q-48 0 -82 30t-34 83q0 54 34.5 86t85.5 32q55 0 86.5 -37.5t31.5 -109.5q0 -54 -24.5 -109t-62.5 -88q-55 -46 -120 -62zM261 500q4 22 4 35q0 132 -102 132q-42 0 -69.5 -27.5t-27.5 -68.5q0 -47 28.5 -73
t72.5 -26q51 0 94 28z" />
    <glyph glyph-name="guillemotleft.cap" unicode="&#xe134;" horiz-adv-x="358" 
d="M312 410l-106 -106l104 -104l-16 -16l-116 120l118 120zM167 416l-105 -112l103 -98l-15 -16l-117 114l118 126z" />
    <glyph glyph-name="guillemotright.cap" unicode="&#xe135;" horiz-adv-x="358" 
d="M194 430l118 -126l-117 -114l-15 16l103 98l-105 112zM49 424l119 -120l-117 -120l-16 16l104 104l-106 106z" />
    <glyph glyph-name="guilsinglleft.cap" unicode="&#xe136;" horiz-adv-x="213" 
d="M167 416l-105 -112l103 -98l-15 -16l-117 114l118 126z" />
    <glyph glyph-name="guilsinglright.cap" unicode="&#xe137;" horiz-adv-x="213" 
d="M49 424l118 -120l-116 -120l-16 16l104 104l-106 106z" />
    <glyph glyph-name="braceleft.cap" unicode="&#xe139;" horiz-adv-x="255" 
d="M233 812l2 -18q-59 -9 -77.5 -41t-18.5 -131v-147q0 -83 -17 -116t-51 -39q23 -4 36.5 -14.5t22.5 -45t9 -97.5v-135q0 -88 16.5 -120.5t73.5 -40.5l-3 -18q-68 9 -88.5 45t-20.5 132v133q0 35 -1 55t-6 41t-15 31.5t-27 17.5t-43 7v18q58 0 75 30.5t17 116.5v152
q0 100 25 138t91 46z" />
    <glyph glyph-name="braceright.cap" unicode="&#xe13a;" horiz-adv-x="255" 
d="M20 794l3 18q66 -8 91 -46t25 -138v-152q0 -87 16.5 -117t74.5 -30v-18q-60 0 -75.5 -33t-15.5 -119v-133q0 -96 -20.5 -132t-88.5 -45l-3 18q57 8 73.5 40.5t16.5 120.5v135q0 63 9 97.5t22.5 45t36.5 14.5q-34 6 -51 39t-17 116v147q0 99 -18.5 131t-78.5 41z" />
    <glyph glyph-name="bracketleft.cap" unicode="&#xe13b;" horiz-adv-x="219" 
d="M184 812v-19h-107v-926h107v-18h-129v963h129z" />
    <glyph glyph-name="bracketright.cap" unicode="&#xe13c;" horiz-adv-x="219" 
d="M164 812v-963h-129v18h107v926h-107v19h129z" />
    <glyph glyph-name="emdash.cap" unicode="&#xe13d;" horiz-adv-x="710" 
d="M639 350v-21h-569v21h569z" />
    <glyph glyph-name="endash.cap" unicode="&#xe13e;" horiz-adv-x="483" 
d="M413 350v-21h-343v21h343z" />
    <glyph glyph-name="hyphen.cap" unicode="&#xe13f;" horiz-adv-x="374" 
d="M297 350v-21h-220v21h220z" />
    <glyph glyph-name="parenleft.cap" unicode="&#xe140;" horiz-adv-x="263" 
d="M208 806l19 -8q-142 -212 -142 -478q0 -259 135 -468l-19 -11q-140 218 -140 474q0 267 147 491z" />
    <glyph glyph-name="parenright.cap" unicode="&#xe141;" horiz-adv-x="263" 
d="M43 798l19 12q140 -218 140 -475q0 -267 -147 -491l-19 8q142 212 142 478q0 259 -135 468z" />
    <glyph glyph-name="exclamdown.cap" unicode="&#xe142;" horiz-adv-x="275" 
d="M138 666q10 0 16 -6.5t6 -16.5t-6 -16.5t-16 -6.5t-16.5 6.5t-6.5 16.5t6.5 16.5t16.5 6.5zM148 502l3 -516h-26l3 516h20z" />
    <glyph glyph-name="questiondown.cap" unicode="&#xe143;" horiz-adv-x="390" 
d="M241 642q0 -10 -6.5 -16t-16.5 -6t-16.5 6t-6.5 16t6.5 16.5t16.5 6.5t16.5 -6.5t6.5 -16.5zM213 526l21 6q23 -44 23 -93q0 -48 -23 -88t-74 -92q-27 -27 -41.5 -45.5t-27.5 -48t-13 -61.5q0 -62 37.5 -90.5t89.5 -28.5q71 0 131 60l7 -23q-60 -58 -145 -58
q-65 0 -105.5 37t-40.5 95q0 51 22 90t63 81q55 56 75.5 92t20.5 76q0 51 -20 91z" />
    <glyph glyph-name="periodcentered.cap" unicode="&#xe22b;" horiz-adv-x="195" 
d="M120 356q0 -10 -6.5 -16.5t-16.5 -6.5t-16 6.5t-6 16.5t6 16.5t16 6.5t16.5 -6.5t6.5 -16.5z" />
    <glyph glyph-name="dollar.sc" unicode="&#xe507;" horiz-adv-x="376" 
d="M213 575v-99q69 -3 110 -26l-5 -20q-46 27 -112 27q-56 0 -89.5 -28t-33.5 -75q0 -44 26 -64.5t87 -39.5q71 -21 101.5 -48t30.5 -79q0 -50 -35 -81.5t-97 -38.5v-104h-23v102q-73 3 -125 31l4 23q56 -34 125 -34q59 0 94 27.5t35 70.5q0 45 -27 68.5t-95 44.5
q-31 9 -48 15.5t-37.5 20t-29.5 34t-9 49.5q0 49 34.5 85t99.5 40v99h19z" />
    <glyph glyph-name="sterling.sc" unicode="&#xe508;" horiz-adv-x="446" 
d="M372 466l-8 -20q-47 28 -101 28q-58 0 -92 -35.5t-34 -94.5q0 -38 13 -99h161v-20l-157 1q6 -51 6 -70q0 -88 -67 -135q38 4 65 4q31 0 82.5 -3t74.5 -3q56 0 95 7l-5 -24q-33 -4 -74 -4q-32 0 -92 3.5t-91 3.5q-61 0 -112 -12l-4 17q55 16 81.5 55.5t26.5 88.5
q0 24 -7 71h-87v20h82q-12 57 -12 95q0 71 41.5 112t111.5 41q55 0 103 -27z" />
    <glyph glyph-name="yen.sc" unicode="&#xe509;" horiz-adv-x="418" 
d="M351 475h27l-77.5 -123t-74.5 -120h122v-19h-131v-88h131v-19h-131v-11q0 -20 1 -51t1 -44h-27q2 54 2 95v11h-134v19h134v88h-134v19h124l-144 243h26l128 -219q6 -10 12 -26q6 16 12 25z" />
    <glyph glyph-name="Euro.sc" unicode="&#xe51d;" horiz-adv-x="535" 
d="M490 465l-8 -22q-51 30 -125 30q-84 0 -142.5 -45t-75.5 -128h299l-6 -19h-296q-3 -23 -3 -45q0 -29 4 -49h268l-5 -19h-260q17 -74 70 -114.5t132 -40.5q80 0 140 36l2 -22q-61 -35 -144 -35q-89 0 -147 46.5t-75 129.5h-90l2 19h84q-3 23 -3 47t3 47h-73l2 19h74
q18 91 84 142t158 51q77 0 131 -28z" />
    <glyph glyph-name="bullet.cap" unicode="&#xe59d;" horiz-adv-x="235" 
d="M110 415q30 0 51.5 -22t21.5 -52t-21.5 -51.5t-51.5 -21.5t-51.5 21.5t-21.5 51.5t21.5 52t51.5 22z" />
    <glyph glyph-name="commaaccent" unicode="&#xf6c3;" horiz-adv-x="236" 
d="M110 -56l23 3q3 -19 3 -37q0 -56 -37 -132l-17 5q32 70 32 120q0 23 -4 41z" />
    <glyph glyph-name="Acute" unicode="&#xf6c9;" horiz-adv-x="225" 
d="M201 858l-129 -126l-17 6l125 131z" />
    <glyph glyph-name="Caron" unicode="&#xf6ca;" horiz-adv-x="258" 
d="M226 865l-100 -133h-11l-103 133l19 7l90 -116l86 116z" />
    <glyph glyph-name="Dieresis" unicode="&#xf6cb;" horiz-adv-x="350" 
d="M273 777q0 -8 -6.5 -14.5t-14.5 -6.5t-14 6.5t-6 14.5t6 14t14 6t14.5 -6t6.5 -14zM114 777q0 -8 -6.5 -14.5t-14.5 -6.5t-14 6.5t-6 14.5t6 14t14 6t14.5 -6t6.5 -14z" />
    <glyph glyph-name="Grave" unicode="&#xf6ce;" horiz-adv-x="219" 
d="M40 869l125 -131l-16 -6l-130 126z" />
    <glyph glyph-name="Hungarumlaut" unicode="&#xf6cf;" horiz-adv-x="265" 
d="M222 877l-68 -146h-17l61 149zM121 877l-68 -146h-17l61 149z" />
    <glyph glyph-name="Macron" unicode="&#xf6d0;" horiz-adv-x="251" 
d="M207 784v-22h-167v22h167z" />
    <glyph glyph-name="one.fitted" unicode="&#xf6dc;" horiz-adv-x="347" 
d="M202 701v-573q0 -58 2 -128h-26q2 74 2 127v548l-165 -49v23z" />
    <glyph glyph-name="Dotaccent" unicode="&#xf71a;" horiz-adv-x="179" 
d="M116 781q0 -9 -7 -16t-16 -7t-15.5 7t-6.5 16t6.5 15.5t15.5 6.5t16 -6.5t7 -15.5z" />
    <glyph glyph-name="Ring" unicode="&#xf71b;" horiz-adv-x="258" 
d="M210 811q0 -32 -22.5 -55.5t-53.5 -23.5q-33 0 -55.5 21.5t-22.5 53.5q0 34 23 56.5t56 22.5t54 -22t21 -53zM134 869q-24 0 -41 -16.5t-17 -42.5q0 -27 16.5 -43.5t41.5 -16.5q24 0 40 17t16 42q0 27 -16 43.5t-40 16.5z" />
    <glyph glyph-name="Tilde" unicode="&#xf71c;" horiz-adv-x="304" 
d="M272 824l17 -13q-38 -66 -78 -66q-31 0 -67 32q-29 25 -49 25q-35 0 -64 -59l-14 12q36 67 79 67q31 0 66 -33q26 -24 47 -24q17 0 31 13t32 46z" />
    <glyph glyph-name="Breve" unicode="&#xf71d;" horiz-adv-x="258" 
d="M215 860h21q-4 -58 -33.5 -87t-78.5 -29q-44 0 -72 29.5t-30 86.5h20q4 -52 25.5 -73.5t61.5 -21.5q82 0 86 95z" />
    <glyph glyph-name="Circumflex" unicode="&#xf71e;" horiz-adv-x="261" 
d="M128 872l103 -133l-19 -7l-90 116l-86 -116l-19 7l101 133h10z" />
    <glyph glyph-name="Cedilla" unicode="&#xf722;" horiz-adv-x="195" 
d="M85 4l-5 -61q29 0 48.5 -16.5t19.5 -47.5q0 -37 -30 -62.5t-73 -25.5l-2 18q34 -2 60 18.5t26 48.5q0 26 -16 38t-52 12l7 78h17z" />
    <glyph glyph-name="zero.oldstyle" unicode="&#xf730;" horiz-adv-x="573" 
d="M294 484q99 0 162 -65t63 -180q0 -105 -63 -178.5t-175 -73.5q-98 0 -161.5 67.5t-63.5 173.5q0 120 70.5 188t167.5 68zM290 464q-86 0 -148.5 -63.5t-62.5 -169.5q0 -100 57.5 -161.5t149.5 -61.5q99 0 154.5 67t55.5 162q0 106 -57 166.5t-149 60.5z" />
    <glyph glyph-name="one.oldstyle" unicode="&#xf731;" horiz-adv-x="350" 
d="M206 491v-323q0 -113 2 -168h-27q2 44 2 161v302l-163 -48v21z" />
    <glyph glyph-name="two.oldstyle" unicode="&#xf732;" horiz-adv-x="496" 
d="M92 398l-9 21q77 69 173 69q68 0 106.5 -37t38.5 -95q0 -50 -29.5 -92.5t-92.5 -91.5l-195 -149h177q144 0 186 3l-2 -26h-393q0 4 -3 11.5t-3 11.5l206 153q66 50 96.5 91.5t30.5 85.5q0 53 -34 83.5t-94 30.5q-86 0 -159 -69z" />
    <glyph glyph-name="three.oldstyle" unicode="&#xf733;" horiz-adv-x="428" 
d="M55 420l-9 21q65 48 140 48q63 0 102.5 -36t39.5 -100q0 -59 -35 -100.5t-98 -54.5q76 -5 119.5 -46.5t43.5 -111.5q0 -86 -58 -135.5t-149 -49.5q-73 0 -139 34l6 24q69 -36 140 -36q86 0 132 46.5t46 112.5q0 70 -46.5 108.5t-140.5 38.5q-29 0 -58 -4l1 24
q101 1 157.5 37.5t56.5 108.5q0 55 -33 87t-92 32q-70 0 -126 -48z" />
    <glyph glyph-name="four.oldstyle" unicode="&#xf734;" horiz-adv-x="444" 
d="M313 502h8q0 -52 0.5 -177.5t0.5 -242.5l106 1l-8 -21h-98q0 -82 2 -218l-25 -10q2 63 2 228h-292l-3 7l156 219t151 214zM302 452h-2q-11 -21 -31 -48l-228 -322h260v309q0 36 1 61z" />
    <glyph glyph-name="five.oldstyle" unicode="&#xf735;" horiz-adv-x="436" 
d="M360 475l-2 -21h-229l-24 -230h13q14 1 24 1q233 0 233 -180q0 -81 -52.5 -135.5t-150.5 -54.5q-68 0 -124 29l4 25q59 -33 127 -33q86 0 129.5 48t43.5 116q0 164 -212 164q-22 0 -60 -2q18 150 29 273h251z" />
    <glyph glyph-name="six.oldstyle" unicode="&#xf736;" horiz-adv-x="469" 
d="M391 636l14 -16q-263 -84 -319 -322q27 15 70 27t80 12q88 0 134.5 -47t46.5 -124q0 -79 -51 -131.5t-130 -52.5q-80 0 -130 62.5t-50 174.5q0 144 91.5 255.5t243.5 161.5zM83 274q-4 -20 -4 -52q0 -103 44.5 -161t116.5 -58q69 0 111.5 45t42.5 112q0 77 -42.5 116.5
t-122.5 39.5q-72 0 -146 -42z" />
    <glyph glyph-name="seven.oldstyle" unicode="&#xf737;" horiz-adv-x="381" 
d="M368 475l2 -4l-269 -623l-27 2l264 604h-172q-87 0 -149 -2l4 23h347z" />
    <glyph glyph-name="eight.oldstyle" unicode="&#xf738;" horiz-adv-x="481" 
d="M262 334q78 -34 116 -78.5t38 -105.5q0 -65 -46.5 -114t-134.5 -49q-73 0 -121.5 45.5t-48.5 114.5q0 65 37 107.5t115 79.5q-62 37 -90 72.5t-28 84.5q0 69 44 109t111 40q62 0 101 -38.5t39 -102.5q0 -54 -31 -92t-101 -73zM242 346q129 56 129 148q0 59 -34 92.5
t-89 33.5t-90.5 -35t-35.5 -91q0 -47 28.5 -82t91.5 -66zM237 322q-79 -33 -114 -74t-35 -99q0 -64 43 -102.5t109 -38.5q72 0 112 39.5t40 96.5q0 63 -39 105t-116 73z" />
    <glyph glyph-name="nine.oldstyle" unicode="&#xf739;" horiz-adv-x="469" 
d="M86 -160l-14 16q259 90 310 310q-71 -39 -145 -39q-89 0 -137 48.5t-48 124.5q0 81 49 132t128 51q82 0 133 -58.5t51 -173.5q0 -148 -87 -253.5t-240 -157.5zM385 190q4 20 4 58q0 106 -45 159.5t-119 53.5q-67 0 -108 -43.5t-41 -109.5q0 -77 44 -118t124 -41
q68 0 141 41z" />
    <glyph glyph-name="Ogonek" horiz-adv-x="149" 
d="M90 0h21q-41 -58 -54.5 -83t-13.5 -48q0 -59 57 -59q11 0 16 1v-19q-8 -1 -22 -1q-34 0 -52.5 20t-18.5 53q0 25 13.5 53.5t53.5 82.5z" />
    </font>
</defs>
</svg>
