<?xml version="1.0" encoding="utf-8"?>
<!-- Generator: Adobe Illustrator 18.0.0, SVG Export Plug-In . SVG Version: 6.00 Build 0)  -->
<!DOCTYPE svg PUBLIC "-//W3C//DTD SVG 1.1//EN" "http://www.w3.org/Graphics/SVG/1.1/DTD/svg11.dtd">
<svg version="1.1" id="Layer_1" xmlns="http://www.w3.org/2000/svg" xmlns:xlink="http://www.w3.org/1999/xlink" x="0px" y="0px"
	 viewBox="255.5 113.3 652.2 611.9" enable-background="new 255.5 113.3 652.2 611.9" xml:space="preserve">
<g>
	<path fill="#6D717C" d="M255.6,383.1c2.2-4.9,3.4-10,6.6-14.5c8.3-11.1,21.1-12.2,31.2-1.7c3.4,3.9,6.2,7.9,8.3,12.8
		c14.5,36.7,29,73.6,44,109.7c0.6,0.6,1.1,1.7,0,2.8c-12.8-12.8-26.2-25-39-37.3c-9-8.3-17.3-17.3-26.7-25.6
		c-11.1-10-21.1-21.1-24.5-36.7C255.6,389.3,255.6,385.9,255.6,383.1z"/>
	<path fill="#6D717C" d="M423.4,422.7c16.2,0,30.7,0,45.1,0c3.4,0,6.2-0.6,9-2.2c39.5-23.9,82.4-31.2,128.1-27.3
		c30.1,2.8,58.5,11.1,84.7,27.3c2.2,1.7,4.9,1.7,7.3,1.7c12.8,0,26.2,0,39,0c3.4,0,6.2,0,10.6,0c-5.6,9.4-10.6,17.9-13.9,26.7
		c-1.1,3.9-1.1,6.6,1.1,10c22.8,35.6,15,82.4-17.9,108c-33.5,26.2-80.2,22.2-109.3-9c-4.5-4.9-6.2-3.4-9,1.1
		c-3.9,6.6-8.3,12.8-13.4,20.1c-4.5-6.6-9.4-13.4-13.4-20.1c-2.8-4.9-4.5-5.6-9-1.1c-42.9,44.6-116.5,27.9-135.9-30.7
		c-7.9-23.9-4.9-47.4,9-69.1c2.2-3.4,2.8-6.2,1.1-10C434.5,440,429.4,431.5,423.4,422.7z M666.3,438.3c-35.6,0-65.1,29-65.1,64.7
		c0,35,29,64.7,64.7,65.1c35.6,0,65.1-29,65.1-64.7C731.4,467.8,702.5,438.3,666.3,438.3z M504.7,437.7c-36.3,0-65.1,29-65.1,64.7
		s29,64.7,65.1,64.7c35.6,0,64.7-29,64.7-64.7C569.4,467.2,540.3,437.7,504.7,437.7z"/>
	<path fill="#6D717C" d="M482.9,616.6c-38,1.1-74.1,1.7-110.3,1.1c-17.9-0.6-33.5-12.8-36.7-27.9c-3.2-15.1,5.6-26.2,21.1-25.6
		c4.5,0,9.4,1.1,13.4,3.4c36.3,15.6,73,31.2,109.3,46.8C480.2,614.9,480.8,615.5,482.9,616.6z"/>
	<path fill="#6D717C" d="M401,568.7c-26.2-10.6-52.9-21.1-79.2-31.8c-6.6-2.8-13.4-4.9-19.4-7.9c-15.6-7.3-26.7-18.4-26.7-37.3
		c0-19,15.6-27.3,31.8-18.4c3.9,2.2,7.3,4.9,10,7.9c27.3,27.9,54.6,55.7,81.9,84.1c0.6,0.6,1.1,1.7,2.2,2.2
		C401.6,568.1,401,568.1,401,568.7z"/>
	<path fill="#6D717C" d="M337.6,308.4c-1.7-5.6-1.1-10-1.1-13.9c-0.6-30.7-1.1-61.3-1.1-92c0-12.8,4.5-23.9,14.5-32.9
		c2.2-1.7,4.5-3.4,6.6-4.5c8.3-3.9,17.3-4.9,25.6,1.1c8.3,6.2,8.3,15.6,6.2,24.5c-3.4,12.2-9.4,23.5-13.9,34.6
		c-10.6,25-21.1,50.2-32.3,74.7C340.4,302.8,339.1,305.2,337.6,308.4z"/>
	<path fill="#6D717C" d="M682.5,615.5c23.9-10.6,48.5-20.7,72.4-31.2c12.2-4.9,24.5-10.6,36.7-15.6c4.9-2.2,10-3.4,15.6-3.9
		c16.7-0.6,26.2,13.4,19,30.1c-6.2,15-19,22.8-33.9,23.5c-36.7,1.1-73.6,0.6-109.7,0.6C682.5,617.2,682.5,616.1,682.5,615.5z"/>
	<path fill="#6D717C" d="M838.9,400.4c0-7.9,0-15,0-22.8c-0.6-31.2-1.1-63-1.7-94.1c0-4.5,0.6-9.4,1.7-13.9
		c4.5-18.4,21.8-23.5,35.6-10c11.7,11.1,14.5,29.5,6.6,47.4c-7.9,18.4-15.6,36.3-23.5,54.6c-5.6,13.4-11.7,26.2-17.3,39.5
		C840,400.4,839.6,400.4,838.9,400.4z"/>
	<path fill="#6D717C" d="M321.8,399.9c-4.9-11.1-9.4-22.2-14.5-32.9c-9-20.7-17.9-41.2-26.7-61.9c-7.3-16.7-4.5-35,7.3-45.7
		c13.9-12.8,30.1-9,35.6,9c1.7,4.9,2.2,10.6,2.2,15.6c-1.7,35.6-0.6,71.3-1.7,106.9c0,2.8-0.6,5.6-0.6,8.3
		C322.5,399.9,322.5,399.9,321.8,399.9z"/>
	<path fill="#6D717C" d="M825,307.9c-5.6-12.8-11.1-25.6-16.7-39c-10-22.8-19.4-45.7-29.5-68.5c-2.2-4.9-3.9-10-4.5-15
		c-1.1-17.3,11.1-27.3,27.3-21.8c15,4.9,22.2,16.7,25,31.2c2.2,10,0.6,20.7,0.6,30.7c0,21.1-0.6,42.3-0.6,63.6
		c0,6.2-0.6,12.2-1.1,19C826.1,307.3,825.5,307.3,825,307.9z"/>
	<path fill="#6D717C" d="M817.2,491.7c6.6-16.7,12.8-32.9,19.4-49.5c7.9-20.1,15.6-39.5,23.9-59.6c1.7-3.9,3.4-7.3,5.6-10.6
		c6.2-9.4,14.5-13.9,22.8-11.7c10.6,2.8,15.6,10.6,17.9,20.7c2.8,14.5-1.7,26.7-11.7,36.7c-25,25-50.8,49.1-75.8,73.6
		C818.9,491.7,818.4,491.7,817.2,491.7z"/>
	<path fill="#6D717C" d="M762.1,567c26.2-26.7,51.8-52.9,77.9-79.6c4.5-4.5,8.3-9,13.4-12.2c7.9-4.5,16.2-7.9,24.5-1.7
		c8.3,6.2,10.6,15,9,25c-2.2,13.4-10.6,23.9-22.2,29c-33.5,14.5-67.9,27.3-102,41.2C762.6,567.5,762.1,567,762.1,567z"/>
	<path fill="#6D717C" d="M384.8,227.7c13.4-33.5,26.7-66.4,39.5-99.7c1.7-4.5,3.9-8.3,7.9-11.7c4.5-4.5,7.9-3.9,11.7,1.1
		c6.6,9.4,7.3,20.1,4.9,30.7c-2.8,16.2-9.4,29.5-21.8,40.7c-13.9,12.8-27.9,26.2-41.2,39.5C385.4,228.3,385.4,228.3,384.8,227.7z"/>
	<path fill="#6D717C" d="M777.1,228.8c-16.7-16.2-33.9-30.7-48.5-47.4c-11.7-13.9-17.3-30.7-15-49.1c0.6-4.5,1.7-8.3,3.9-12.2
		c4.5-8.3,9.4-9,15-1.7c2.8,3.4,4.9,7.3,6.6,11.1c12.8,32.3,25.6,64.7,38.4,96.4C777.7,226.6,777.1,227.1,777.1,228.8z"/>
	<path fill="#6D717C" d="M536.9,332.9c0-26.2,18.4-40.7,42.9-33.9c1.1,0.6,2.2,0.6,2.8,1.1c15,6.2,22.8,24.5,18.4,44
		c-3.9,16.2-16.2,25.6-32.9,25C548.1,367.5,536.9,354.7,536.9,332.9z M588.8,333.6c0-5.6-0.6-10.6-3.4-15
		c-3.4-6.6-8.3-10.6-16.2-10.6c-7.9,0-12.8,3.9-16.2,10.6c-4.5,10.6-4.5,21.1,0.6,31.2c6.6,12.2,22.2,12.8,29.5,1.1
		C587.7,345.3,588.2,339.1,588.8,333.6z"/>
	<path fill="#6D717C" d="M470.1,332.9c0-10,0.6-19.4,0-29.5c0-5.6,3.4-4.5,6.6-4.5c3.4,0,7.3-1.1,6.6,4.5c-0.6,6.2,0,12.8,0,19
		c0,3.4,1.1,4.5,4.5,4.5c6.2,0,12.8,0,19,0c3.9,0,4.5-1.7,4.5-4.9c0-6.2,0-12.8,0-19c-0.6-6.2,3.9-3.9,6.6-4.5
		c3.4,0,6.2-1.1,6.2,4.5c0,20.1,0,40.1,0,59.6c0,5.6-3.4,4.5-6.6,4.5c-3.4,0-6.6,0.6-6.6-4.9c0.6-7.3,0-13.9,0-21.1
		c0-3.4-0.6-4.9-4.5-4.9c-6.2,0-12.8,0-19,0c-3.4,0-4.5,1.1-4.5,4.5c0,7.3-0.6,13.9,0,21.1c0.6,6.2-3.4,4.9-6.6,4.9
		c-3.4,0-6.6,0.6-6.2-4.9C470.1,352.5,470.1,343,470.1,332.9z"/>
	<path fill="#6D717C" d="M582.2,696.2c-4.5,4.9-9,8.3-15,9c-12.8,1.1-22.8-9-23.9-23.9c-0.6-4.5,0-9,1.1-13.4
		c4.5-16.7,20.7-22.8,34.6-12.2c0.6,0.6,1.1,1.1,2.8,2.2c0-9.4,0-17.9,0-26.2c0-4.5,1.7-4.9,5.6-4.9s5.6,1.1,5.6,5.6
		c0,22.2,0,44.6,0,66.8c0,3.4,0.6,6.6-4.9,6.6c-4.9,0-5.6-2.8-4.9-6.2C582.6,697.9,582.2,697.4,582.2,696.2z M581.5,677.8
		c0-4.5,0-9-2.8-12.8c-3.4-5.6-9-7.9-14.5-6.2c-6.2,1.7-10,7.9-10,17.3c-0.6,10,2.8,17.3,9,19.4c1.1,0.6,2.2,0.6,3.4,0.6
		C575.4,697.4,581.5,690.2,581.5,677.8z"/>
	<path fill="#6D717C" d="M443.9,657.8c3.4-2.2,5.6-4.5,8.3-6.2c3.9-2.2,7.9-2.8,12.2-2.2c9,1.1,16.2,7.9,18.4,17.9
		c3.4,13.9-1.1,28.4-10,33.9c-7.9,4.9-17.3,3.9-25.6-2.8c-0.6,0-0.6-0.6-2.2-1.1c0,7.9,0,15,0,22.2c0,3.9-0.6,5.6-4.9,5.6
		c-4.5,0-5.6-1.7-5.6-6.2c0-20.7,0-41.2,0-61.9c0-2.8-2.8-7.3,3.4-7.9C442.8,650.5,443.9,653.3,443.9,657.8z M472.9,677.4
		c-0.6-2.2-0.6-4.5-1.1-6.6c-1.7-7.9-6.2-11.1-12.2-11.7c-7.3,0-11.7,3.9-13.9,11.7c-1.7,6.6-1.1,12.8,1.7,19
		c2.2,4.5,6.2,6.6,11.1,6.6c4.9,0,9-2.2,11.1-6.6C471.8,685.7,472.9,681.8,472.9,677.4z"/>
	<path fill="#6D717C" d="M708.5,332.9c0-10,0-19.4,0-29.5c0-3.4,1.1-4.9,4.5-4.5c11.1,0,22.2,0,32.9,0c3.4,0,4.5,1.1,4.5,4.5
		c0,2.8,0,5.6-4.5,4.9c-6.6,0-13.4,0-20.7,0c-3.4,0-4.5,1.1-4.5,4.5c-0.6,14.5-1.1,14.5,13.4,14.5c2.8,0,5.6,0,8.3,0
		c3.4,0,6.2-0.6,6.2,4.9c0,4.5-2.2,4.9-5.6,4.9c-5.6,0-10.6,0-16.2,0c-1.1,0-2.2-0.6-3.4,0c-6.2,4.5-1.7,11.1-2.8,16.7
		c-0.6,2.8,1.1,3.9,3.9,3.9c7.3,0,14.5,0,21.8,0c3.9,0,4.5,1.7,4.5,4.9c0,3.4,0,4.9-4.5,4.9c-11.7,0-22.8,0-34.6,0
		c-3.9,0-4.5-1.7-4.5-4.9C708.5,352.5,708.5,343,708.5,332.9z"/>
	<path fill="#6D717C" d="M403.3,333.6c-0.6-27.9,26.2-42.3,52.3-32.9c4.9,1.7,2.2,6.2,2.2,9c-0.6,3.9-3.4,0.6-4.9,0.6
		c-1.1,0-2.2-0.6-2.8-1.1c-11.7-3.4-22.2,0-28.4,9c-6.2,8.3-6.2,22.2,0,30.7c6.2,8.3,17.3,11.7,28.4,9c0.6,0,1.7-0.6,2.2-0.6
		c2.2,0,4.9-3.9,6.2,0.6c0.6,3.4,3.4,7.9-3.4,9.4c-15,3.4-29,3.4-41.2-6.6C406.1,353,402.7,343.6,403.3,333.6z"/>
	<path fill="#6D717C" d="M678.5,368.6c-17.9-0.6-30.1-7.9-35-21.8c-5.6-13.9-1.7-30.1,8.3-40.1c11.1-10.6,27.9-11.7,42.3-6.6
		c4.5,1.7,1.7,5.6,1.7,8.3c-0.6,3.9-3.4,1.1-4.9,1.1c-1.1,0-2.2-0.6-3.9-1.1c-11.1-2.8-22.2,0.6-27.9,8.3
		c-6.2,8.3-6.2,22.2-0.6,30.7c6.2,8.3,17.3,12.2,28.4,9c1.1,0,2.2-0.6,2.8-1.1c2.2,0,4.9-3.4,6.2,1.1c0.6,3.4,2.8,7.9-3.4,9
		C688,367.5,682.9,368.6,678.5,368.6z"/>
	<path fill="#6D717C" d="M776.6,677.8c0,17.3-10,27.3-26.2,27.3c-16.2,0-26.2-10.6-26.2-27.9c0-16.7,10.6-27.9,26.7-27.3
		C767,650.1,776.6,660.5,776.6,677.8z M735.4,678.4c0,1.7,0,3.4,0.6,5.6c1.7,8.3,7.9,13.4,15,12.8c7.3,0,12.2-4.9,13.9-13.9
		c0-1.1,0.6-2.2,0.6-3.9c1.1-11.1-4.9-21.1-14.5-21.8C742,657.3,735.4,665.6,735.4,678.4z"/>
	<path fill="#6D717C" d="M524.8,697.9c-4.9,4.5-10.6,7.3-17.9,7.3c-7.9-0.6-14.5-5.6-15.6-12.2c-1.7-8.3,2.2-14.5,9.4-18.4
		c6.2-2.8,12.8-3.4,19.4-2.8c4.5,0,4.9-2.2,3.9-5.6c-1.7-5.6-7.3-9-13.9-7.9c-2.8,0.6-4.9,1.7-7.9,2.2c-1.7,0-3.9,3.9-4.9,0
		c-0.6-2.2-1.7-6.2,2.2-7.3c7.3-2.8,14.5-3.9,21.8-1.7c7.9,2.2,12.8,8.3,12.8,17.9c0.6,10,0,20.7,0,30.7c0,2.8,0.6,5.6-3.9,5.6
		c-3.9,0-6.2-1.1-5.6-4.9C525.8,699,525.2,698.5,524.8,697.9z M520.3,678.4c-4.5,0.6-8.3,0.6-12.2,2.2c-4.5,2.2-7.3,5.6-6.2,10.6
		c1.1,4.9,5.6,6.6,10.6,6.2c6.6-0.6,11.7-5.6,12.2-12.8C525.2,679.5,524.1,677.4,520.3,678.4z"/>
	<path fill="#6D717C" d="M713,660.5c-3.9-1.1-8.3-2.2-12.2-2.2c-3.4,0-7.3,0.6-8.3,3.9c-1.7,4.5,1.7,6.2,4.9,7.9
		c3.9,2.2,8.3,4.5,12.2,6.6c4.9,3.4,7.9,7.9,6.6,13.9c-0.6,6.2-4.5,9.4-9.4,11.7c-7.9,3.4-15,2.8-22.8,0.6c-4.5-1.1-3.4-4.5-2.8-7.3
		c0.6-3.9,3.4-1.1,4.9-0.6c3.9,0.6,7.9,2.2,11.7,1.7c3.4-0.6,6.6-1.7,7.3-6.2c0.6-3.9-1.7-6.2-4.9-7.9c-3.9-2.2-7.9-3.9-11.1-6.2
		c-4.9-3.4-8.3-7.9-7.3-14.5c1.1-6.2,6.2-9,11.7-10.6c4.5-1.1,9-1.1,13.4-0.6C714.7,652.2,714.7,652.2,713,660.5z"/>
	<path fill="#6D717C" d="M356.4,705.1c-10.6,0-15-4.5-15.6-14.5c0-9,0-17.3,0-26.2c0-3.9-1.1-6.2-5.6-5.6c-3.4,0.6-5.6,0.6-5.6-4.5
		c0-4.5,3.4-3.9,5.6-3.9c4.9,0.6,5.6-1.7,5.6-6.2c0-2.8-1.7-6.2,1.7-7.9c2.2-1.1,5.6-2.8,7.9-2.2c2.2,0.6,0.6,3.9,1.1,6.2
		c0,9,0,9,8.3,9c2.8,0,4.5,0.6,4.5,3.9c0,3.2-1.1,4.9-4.5,4.5c-7.3-1.1-9,2.2-8.3,9c0.6,6.6,0,13.9,0,21.1c0,4.9,2.8,8.3,8.3,7.9
		c2.2,0,4.5-1.7,4.5,2.2c0,2.8,1.1,6.2-3.4,6.2C359.2,705.1,357.6,705.1,356.4,705.1z"/>
	<path fill="#6D717C" d="M627.8,333.6c0,10,0,19.4,0,29.5c0,4.9-2.2,4.9-6.2,4.9c-3.4-0.6-7.9,2.2-7.3-4.5c0-20.1,0-40.1,0-60.2
		c0-6.6,4.5-3.9,7.3-4.5c3.4-0.6,6.2,0,6.2,4.9C627.8,313.5,627.8,323.5,627.8,333.6z"/>
	<path fill="#6D717C" d="M625.1,704.1c-9-17.9-17.3-34.6-25-51.2c10-2.8,10.6-2.2,14.5,6.6c3.4,7.3,6.6,14.5,10.6,23.5
		c4.5-8.3,8.3-15,11.1-22.8c2.8-7.3,6.6-9.4,14.5-7.3C642.8,669,634.5,685.7,625.1,704.1z"/>
	<path fill="#6D717C" d="M796.7,659c4.5-5.6,8.3-8.3,13.4-9c2.8,0,5.6-0.6,5.6,3.9c0,2.8,1.1,6.2-4.5,6.2c-8.3,0-12.8,3.9-13.4,12.8
		c-0.6,8.3-0.6,16.7-0.6,25.6c0,4.5-1.1,6.2-5.6,6.2s-4.9-1.7-4.9-5.6c0-13.4,0-26.7,0-40.1c0-2.8-2.2-7.3,3.9-7.9
		C796,650.5,797.1,652.8,796.7,659z"/>
	<path fill="#6D717C" d="M383.7,659c5.6-5.6,9.4-9,15.6-9c3.9,0,4.5,1.7,3.9,4.9c-0.6,2.2,1.1,5.6-3.9,5.6
		c-9.4,0-12.8,3.9-13.9,12.8c-1.1,8.3-0.6,16.7-0.6,25.6c0,3.4,0,6.2-4.9,6.2c-3.9,0-6.2-1.1-6.2-5.6c0.6-13.9,0-27.9,0-42.3
		c0-2.8-1.1-6.2,3.9-6.2C382.6,651.1,385.4,651.7,383.7,659z"/>
	<path fill="#6D717C" d="M468.4,281.7c-5.6,2.2-9,0.6-10-4.5c0-1.1-0.6-2.2-1.1-2.8c-1.7-4.5-2.8-10-9-8.3c-4.9,1.1-1.7,6.6-2.2,10
		c-0.6,1.1,0,2.8,0,3.9c0,2.8-1.7,3.4-3.9,3.4c-2.8,0-3.9-1.1-3.9-3.9c0-11.7,0-22.8,0-34.6c0-2.8,1.1-3.4,3.4-3.4
		c4.9,0,10,0,14.5,0c4.5,0.6,8.3,2.2,9.4,6.6c1.1,4.5,0.6,9-3.9,11.7c-2.2,1.7-2.2,2.2-1.1,4.9C464,270.6,466.3,276.2,468.4,281.7z
		 M446.2,253.3c0.6,2.2-1.7,7.3,3.9,6.6c4.5-0.6,9-0.6,9-6.6c0-5.6-3.9-6.2-8.3-6.6C444.5,246.1,446.2,249.9,446.2,253.3z"/>
	<path fill="#6D717C" d="M685.2,262.3c0-5.6,0-11.7,0-17.3c0-2.8,1.1-3.9,3.9-3.9c4.5,0,9,0,13.4,0c4.9,0.6,9,2.2,10.6,7.3
		c1.1,4.9,0,9-4.5,11.7c-2.2,1.7-1.7,2.2-0.6,4.5c2.2,3.9,3.9,8.3,5.6,12.8c0.6,1.7,2.8,3.9,0,4.5c-2.2,0.6-5.6,1.7-7.3-2.2
		c-1.1-3.4-2.2-6.2-3.4-9.4c-1.1-2.2-2.2-4.5-4.5-4.9c-3.4-0.6-6.2-0.6-5.6,3.9c0,2.8,0,6.2,0,9c0,3.4-1.1,3.9-3.9,3.9
		s-3.4-1.7-3.4-3.9C685.2,273.4,685.2,267.8,685.2,262.3z M693,253.9c1.1,1.7-2.2,6.6,3.9,6.2c4.5-0.6,9-1.1,9-6.6s-3.9-6.2-8.3-6.6
		C691.3,246.1,693.6,250.5,693,253.9z"/>
	<path fill="#6D717C" d="M491.3,241.6c3.4-0.6,5.6,0.6,6.6,3.9c3.9,10.6,8.3,21.1,12.2,32.3c0.6,1.7,3.4,3.9,0,4.9
		c-2.2,0.6-5.6,1.7-7.3-2.2c-1.1-2.2-0.6-6.6-3.9-6.6c-5.6-0.6-11.1-0.6-16.7,0c-2.2,0-2.2,3.4-2.8,4.9c-0.6,2.2-1.7,3.9-4.9,3.9
		c-2.8,0-4.5-0.6-2.8-3.9c4.5-11.1,9-22.2,12.8-33.9C486.3,241.6,488.5,241.1,491.3,241.6z M491.3,248.4c-3.4,6.6-4.9,12.2-6.6,18.4
		c4.5,0,9,0,13.4,0C495.7,260.6,494.1,255,491.3,248.4z"/>
	<path fill="#6D717C" d="M423.4,677.8c0,7.3,0,13.9,0,21.1c0,3.9-1.1,5.6-5.6,5.6c-3.9,0-5.6-0.6-5.6-4.9c0.6-14.5,0.6-29,0-43.5
		c0-4.5,2.2-4.9,5.6-4.9c4.5,0,5.6,1.1,5.6,5.6C423.4,663.3,423.4,670.6,423.4,677.8z"/>
	<path fill="#6D717C" d="M512,242.2c6.2-2.2,9,0,10,5.6c2.2,9,5.6,17.9,9.4,26.7c2.8-9,6.2-17.9,8.3-26.7c1.7-4.9,3.9-7.3,10-5.6
		c-4.5,12.8-9,25.6-13.9,38.4c-1.1,3.4-4.5,1.7-6.6,2.2c-2.2,0-3.9,0-4.9-2.8C520.7,267.2,516.4,255,512,242.2z"/>
	<path fill="#6D717C" d="M651.1,261.6c0-5.6,0-11.1,0-16.7c0-2.2,0-3.9,2.8-3.9c6.2,0,12.8,0,19,0c1.7,0,3.4,0.6,3.4,2.8
		c0,2.8-1.7,2.2-3.4,2.8c-2.2,0-4.5,0-7.3,0c-7.9,0-7.9,0.6-7.3,7.9c0,2.8,1.1,3.9,3.9,3.9s6.2,0,9,0c1.7,0,3.9,0,3.9,2.8
		c0,3.4-2.2,3.4-4.5,3.4c-1.1,0-2.8,0-3.9,0c-9.4,0-9.4,0.6-8.3,9.4c0,2.8,1.1,3.4,3.4,3.4c3.9,0,7.9,0,11.7,0
		c1.7,0,2.8,0.6,2.8,2.2c0,2.2-0.6,3.4-2.8,3.4c-6.6,0-13.4,0-20.1,0c-2.8,0-2.8-1.7-2.8-3.9C651.1,273.4,651.1,267.2,651.1,261.6z"
		/>
	<path fill="#6D717C" d="M555.3,261.6c0-5.6,0-10.6,0-16.2c0-3.9,1.1-4.9,4.9-4.5c5.6,0,11.1,0,16.7,0c1.7,0,3.9-0.6,3.9,2.2
		c0,3.4-2.2,2.8-4.5,2.8c-2.2,0-4.5,0.6-6.2,0c-5.6-1.1-7.9,1.1-7.3,7.3c0.6,3.4,1.1,4.9,4.9,4.9c2.8,0,6.2,0,9,0
		c2.2,0,3.4,0.6,3.4,2.8s-1.1,2.8-3.4,2.8c-2.2,0-4.5,0.6-6.2,0c-6.2-1.1-7.3,2.2-7.3,7.3c0,3.9,1.1,5.6,5.6,5.6
		c3.4-0.6,6.2,0,9.4,0c2.2,0,3.4,0.6,3.4,2.8c0,1.7-1.1,2.8-2.8,2.8c-6.6,0-13.4,0-19.4,0c-3.4,0-3.4-2.2-3.4-4.5
		C555.3,272.8,555.3,267.2,555.3,261.6z"/>
	<path fill="#6D717C" d="M732.6,284c-2.8,0-5.6-0.6-9-1.7c-3.4-1.1-2.8-2.8-2.2-4.9c0.6-2.8,2.2-1.1,3.9-0.6c2.8,1.1,5.6,1.7,9,1.1
		c2.2-0.6,4.5-1.7,4.9-4.5c0.6-2.8-0.6-4.5-2.8-6.2c-2.2-1.7-4.9-2.8-7.3-3.9c-6.6-3.9-9-8.3-7.9-13.9c1.7-5.6,7.9-9.4,14.5-9
		c1.7,0,3.4,0.6,4.9,1.1c2.8,0.6,4.9,1.1,4.5,4.5c-1.1,3.9-3.4,1.1-4.9,1.1c-1.7,0-3.4-0.6-4.9-0.6c-2.8,0-4.9,1.1-6.2,3.9
		c-1.1,3.4,1.7,4.5,3.4,6.2c2.2,1.1,3.9,2.2,6.2,3.4c7.3,3.9,9.4,8.3,8.3,13.9C745.9,280,740.3,284,732.6,284z"/>
	<path fill="#6D717C" d="M657.9,677.4c0-7.3,0-15,0-22.2c0-4.5,2.8-3.9,5.6-3.9c2.8,0,5.6,0,4.9,3.9c0,15,0,30.1,0,45.1
		c0,4.5-2.2,3.9-5.6,3.9c-2.8,0-5.6,0-4.9-4.5C657.9,692.9,657.9,685.1,657.9,677.4z"/>
	<path fill="#6D717C" d="M573.2,194.8c0,4.5-0.6,9.4-2.2,13.9c-2.2,4.9-6.2,7.9-11.7,7.9c-5.6,0-9.4-2.2-11.7-7.3
		c-3.9-9.4-3.9-19,0-28.4c2.2-4.9,6.2-7.3,11.7-7.3c5.6,0,9.4,2.8,11.7,7.3C573.2,185.4,573.7,189.7,573.2,194.8z M550.8,194.8
		c0.6,3.9,0,8.3,1.7,11.7c1.1,2.8,2.8,4.9,6.6,5.6c3.9,0,5.6-2.2,6.6-5.6c2.8-7.9,2.8-15.6,0-23.9c-1.1-2.8-2.8-4.9-6.2-5.6
		c-3.9,0-5.6,2.2-7.3,5.6C550.8,187,551.5,191,550.8,194.8z"/>
	<path fill="#6D717C" d="M653.5,193.1c7.9-4.9,13.4-4.9,17.9-0.6c3.9,3.4,5.6,10,3.4,15.6c-2.2,4.9-6.2,7.9-11.7,8.3
		c-6.2,0.6-10.6-1.7-12.8-7.3c-3.9-9.4-3.4-19,1.1-27.9c3.9-6.6,13.9-10,20.7-7.3c1.1,0.6,2.2,1.1,2.2,2.8c-0.6,2.2-1.7,1.7-3.4,1.7
		C658.4,176.9,653.9,180.9,653.5,193.1z M653.5,202.5c0,5.6,2.8,9.4,7.9,9.4c4.5,0,9-3.9,8.3-9c0-4.9-2.2-9-7.9-9
		C657.3,193.8,653.9,197,653.5,202.5z"/>
	<path fill="#6D717C" d="M499.6,211c6.2,0,10.6,0,15.6,0c1.7,0,3.4,0.6,3.4,2.8c0,2.2-1.7,2.2-3.4,2.2c-6.2,0-11.7,0-17.9,0
		c-1.7,0-3.9,1.1-4.5-1.1s0-3.9,1.7-5.6c3.9-3.9,7.9-7.9,11.1-12.2c1.1-1.7,2.2-2.8,3.4-4.5c1.7-3.4,4.5-7.3,1.1-11.1
		c-2.8-3.4-7.3-3.4-11.1-2.2c-1.7,0.6-3.4,2.8-4.5,0c-1.1-3.4,1.7-3.9,3.9-4.5c6.6-2.2,13.9-1.1,17.3,3.4c3.9,5.6,2.2,11.1-1.1,16.7
		C510.3,200.4,505.8,204.9,499.6,211z"/>
	<path fill="#6D717C" d="M413.8,264.4c0-2.2,0-4.5,0-7.3c0.6-6.2,1.1-12.2-8.3-10.6c-1.7,0.6-2.8-0.6-2.8-2.8c0-2.2,1.1-2.8,3.4-2.8
		c7.9,0,16.2,0,23.9,0c2.2,0,3.4,0.6,3.4,2.8c0,2.2-1.7,2.8-3.4,2.8c-7.9-1.1-9,2.8-8.3,9c0.6,7.3,0,15,0,22.2
		c0,2.8-0.6,4.9-3.9,4.5c-3.4,0-3.9-1.7-3.9-4.5C413.8,274,413.8,268.9,413.8,264.4z"/>
	<path fill="#6D717C" d="M589.9,261.2c0-5.6,0-10.6,0-15.6c0-2.8,1.1-3.9,3.9-3.9c3.4,0,3.9,1.7,3.9,4.5c0,8.3,0,16.7,0,24.5
		c0,4.9,1.1,7.9,6.6,6.6c2.2-0.6,4.9,0,7.9,0c1.7,0,3.4,0.6,3.4,2.8c0,2.2-1.7,2.8-3.4,2.8c-6.2,0-11.7,0-17.9,0
		c-3.4,0-3.9-1.7-3.9-4.5C590.5,272.8,589.9,267.2,589.9,261.2z"/>
	<path fill="#6D717C" d="M620.6,262.3c0-5.6,0-11.7,0-17.3c0-2.8,1.1-3.9,3.9-3.9s4.5,0.6,3.9,3.9c0,9,0,17.9,0,26.7
		c0,4.5,1.1,5.6,5.6,5.6c2.8,0,5.6,0,8.3,0c2.2,0,3.4,0.6,3.4,2.8c0,1.7-1.1,2.8-2.8,2.8c-6.2,0-12.8,0-19,0c-2.8,0-2.8-2.2-2.8-3.9
		C620.6,273.4,620.6,267.8,620.6,262.3z"/>
	<path fill="#6D717C" d="M609.9,182c-3.9-1.1-5.6,6.2-8.3,1.7c-2.2-3.4,3.4-4.5,4.9-6.6c1.1-1.1,2.8-2.2,3.9-2.8
		c2.8-1.1,4.9-1.1,4.9,3.4c0,11.7,0,22.8,0,34.6c0,1.7,0,3.9-2.8,3.9s-2.8-2.2-2.8-3.9C609.9,202.1,609.9,192.1,609.9,182z"/>
	<path fill="#6D717C" d="M417.8,641.7c-4.5-0.6-6.2-2.8-6.2-6.6c0-3.4,2.8-5.6,6.2-5.6c3.9,0,6.2,2.2,6.2,6.6
		C423.8,639.4,421.7,641.1,417.8,641.7z"/>
	<path fill="#6D717C" d="M669,634.9c-0.6,3.4-2.2,6.2-6.2,6.2c-3.9,0-6.2-2.2-6.2-6.2c0-3.9,2.2-6.2,6.2-6.2
		C666.7,629.4,669,631.7,669,634.9z"/>
	<path fill="#6D717C" d="M765.9,241.6c-1.7,3.9-2.8,7.9-3.9,11.7c-1.1,2.8-2.8,2.8-4.9,2.2c-2.8-0.6-1.1-2.8-0.6-4.5
		C758.2,241.1,758.2,241.1,765.9,241.6z"/>
	<path fill="#6D717C" d="M665.6,541.9c-22.2-0.6-40.1-19.4-39.5-40.7c1.1-22.2,19-39.5,41.2-39c22.2,0.5,39.5,19,39,41.2
		C705.8,525.2,687.4,542.5,665.6,541.9z M692.5,501.8c0-14.5-11.7-26.7-26.2-26.2c-14.5,0-26.2,12.2-26.2,26.7
		c0,13.9,11.7,25.6,26.2,26.2C680.8,528.6,692.5,516.9,692.5,501.8z"/>
	<path fill="#6D717C" d="M504.7,541.9c-21.8,0.6-40.1-16.7-41.2-38c-0.6-22.8,16.2-41.2,38.4-41.8c22.2-0.6,40.7,16.7,41.2,39
		C544.2,523.1,526.9,541.4,504.7,541.9z M477.4,502.4c0,14.5,12.2,26.2,26.7,26.2s25.6-11.7,26.2-26.2c0-14.5-11.7-26.7-26.2-26.7
		C489.1,475.7,477.4,487.3,477.4,502.4z"/>
	<path fill="#6D717C" d="M679.5,501.8c0,7.3-5.6,13.4-13.4,13.4c-6.6,0-12.8-6.2-13.4-12.8c0-7.3,6.2-13.4,13.4-13.9
		C673.5,488.5,679.1,494.5,679.5,501.8z"/>
	<path fill="#6D717C" d="M490.2,501.8c0-7.3,6.2-13.4,13.4-13.4c7.3,0,13.4,6.6,13.4,13.9s-6.6,13.4-13.9,12.8
		C495.7,515.2,490.2,509,490.2,501.8z"/>
</g>
</svg>
