<?xml version="1.0" encoding="utf-8"?>
<!-- Generator: Adobe Illustrator 18.0.0, SVG Export Plug-In . SVG Version: 6.00 Build 0)  -->
<!DOCTYPE svg PUBLIC "-//W3C//DTD SVG 1.1//EN" "http://www.w3.org/Graphics/SVG/1.1/DTD/svg11.dtd">
<svg version="1.1" id="Layer_1" xmlns="http://www.w3.org/2000/svg" xmlns:xlink="http://www.w3.org/1999/xlink" x="0px" y="0px"
	 viewBox="0 0 248.9 184.9" enable-background="new 0 0 248.9 184.9" xml:space="preserve">
<rect x="0.3" y="0" fill="#001F5B" width="248.1" height="89.6"/>
<rect x="1.8" y="1.5" fill="#FFFFFF" width="245.1" height="86.6"/>
<path fill="#001F5B" d="M1.1,1.5V0.7V1.5z"/>
<rect x="184.4" y="7.1" fill="#F70025" width="19.1" height="75.4"/>
<rect x="222.5" y="7.1" fill="#F70025" width="19.1" height="75.4"/>
<g>
	<defs>
		<rect id="SVGID_1_" y="-3.7" width="248.9" height="188.6"/>
	</defs>
	<clipPath id="SVGID_2_">
		<use xlink:href="#SVGID_1_"  overflow="visible"/>
	</clipPath>
	<path clip-path="url(#SVGID_2_)" fill="#FFFFFF" d="M8.2,153.2c0.2,0.7,0.3,1,0.6,1c0.3,0,0.5-0.3,1-1.4c1.2-2.5,4.7-12,5.2-13.3
		H15l5.6,13.4c0.4,1,0.6,1.3,0.8,1.3c0.3,0,0.5-0.3,0.8-1.3c1.3-4,4.1-12.5,5.4-15.9c0.6-1.5,0.9-2.6,1.5-2.8
		c0.3-0.1,0.7-0.1,0.9-0.1c0.2,0,0.4-0.1,0.4-0.3c0-0.2-0.2-0.2-0.5-0.2c-0.9,0-2,0.1-2.2,0.1c-0.2,0-1.4-0.1-2.8-0.1
		c-0.4,0-0.6,0.1-0.6,0.2c0,0.2,0.2,0.2,0.5,0.2c1,0,1.3,0.4,1.3,0.8c0,0.4-0.1,0.9-0.3,1.6c-0.9,3.1-3.1,10.2-3.6,12h-0.1
		l-5.6-13.5c-0.3-0.9-0.5-1.3-0.8-1.3c-0.2,0-0.4,0.2-0.7,1l-5.2,14H9.8c-0.5-1.5-3-9.6-3.4-11.4c-0.3-1.2-0.6-2.1-0.6-2.5
		c0-0.3,0.1-0.5,0.3-0.6c0.2-0.1,0.5-0.1,0.7-0.1c0.3,0,0.5,0,0.5-0.2c0-0.2-0.2-0.2-0.6-0.2c-1.6,0-2.7,0.1-3,0.1
		c-0.2,0-1.7-0.1-3.1-0.1c-0.4,0-0.6,0.1-0.6,0.2c0,0.2,0.2,0.2,0.4,0.2c0.2,0,0.8,0.1,1.1,0.2c0.4,0.3,0.7,0.9,1,1.9L8.2,153.2z
		 M41.7,153.2c0.2,0.7,0.3,1,0.6,1c0.3,0,0.5-0.3,1-1.4c1.2-2.5,4.7-12,5.2-13.3h0.1l5.6,13.4c0.4,1,0.6,1.3,0.8,1.3
		c0.4,0,0.5-0.3,0.8-1.3c1.3-4,4.1-12.5,5.4-15.9c0.6-1.5,0.9-2.6,1.5-2.8c0.3-0.1,0.7-0.1,0.9-0.1c0.2,0,0.4-0.1,0.4-0.3
		c0-0.2-0.2-0.2-0.5-0.2c-0.9,0-2,0.1-2.2,0.1c-0.2,0-1.4-0.1-2.8-0.1c-0.4,0-0.6,0.1-0.6,0.2c0,0.2,0.2,0.2,0.5,0.2
		c1,0,1.3,0.4,1.3,0.8c0,0.4-0.1,0.9-0.3,1.6c-0.9,3.1-3.1,10.2-3.6,12h-0.1l-5.6-13.5c-0.4-0.9-0.5-1.3-0.8-1.3
		c-0.2,0-0.4,0.2-0.7,1l-5.2,14h-0.1c-0.5-1.5-3-9.6-3.4-11.4c-0.3-1.2-0.6-2.1-0.6-2.5c0-0.3,0.1-0.5,0.3-0.6
		c0.2-0.1,0.5-0.1,0.7-0.1c0.3,0,0.5,0,0.5-0.2c0-0.2-0.2-0.2-0.6-0.2c-1.6,0-2.7,0.1-3,0.1c-0.2,0-1.7-0.1-3.1-0.1
		c-0.4,0-0.6,0.1-0.6,0.2c0,0.2,0.2,0.2,0.4,0.2c0.2,0,0.8,0.1,1.1,0.2c0.4,0.3,0.7,0.9,1,1.9L41.7,153.2z M70.6,146.1
		c0,2.6,0,4.7-0.1,5.8c-0.1,0.8-0.2,1.2-0.8,1.3c-0.2,0.1-0.6,0.1-1,0.1c-0.3,0-0.4,0.1-0.4,0.2c0,0.2,0.2,0.3,0.5,0.3
		c1.1,0,2.8-0.1,3.4-0.1c0.7,0,2.4,0.1,4.2,0.1c0.3,0,0.5-0.1,0.5-0.3c0-0.1-0.1-0.2-0.4-0.2c-0.4,0-1-0.1-1.4-0.1
		c-0.8-0.1-1-0.6-1.1-1.3c-0.1-1.2-0.1-3.3-0.1-5.9v-4.7c0-4.1,0-4.8,0.1-5.7c0.1-0.9,0.3-1.4,1-1.5c0.3-0.1,0.5-0.1,0.8-0.1
		c0.3,0,0.4-0.1,0.4-0.3c0-0.2-0.2-0.2-0.6-0.2c-1,0-2.6,0.1-3.3,0.1c-0.8,0-2.5-0.1-3.5-0.1c-0.4,0-0.6,0.1-0.6,0.2
		c0,0.2,0.2,0.3,0.4,0.3c0.3,0,0.7,0,1,0.1c0.6,0.1,0.9,0.6,0.9,1.5c0.1,0.9,0.1,1.6,0.1,5.7V146.1z M84.6,146.1
		c0,2.6,0,4.7-0.1,5.8c-0.1,0.8-0.2,1.2-0.8,1.3c-0.2,0.1-0.6,0.1-1,0.1c-0.3,0-0.4,0.1-0.4,0.2c0,0.2,0.2,0.3,0.5,0.3
		c1.1,0,2.8-0.1,3.4-0.1c0.7,0,2.4,0.1,4.2,0.1c0.3,0,0.5-0.1,0.5-0.3c0-0.1-0.1-0.2-0.4-0.2c-0.4,0-1-0.1-1.4-0.1
		c-0.8-0.1-1-0.6-1.1-1.3c-0.1-1.2-0.1-3.3-0.1-5.9v-4.7c0-4.1,0-4.8,0.1-5.7c0.1-0.9,0.3-1.4,1-1.5c0.3-0.1,0.5-0.1,0.8-0.1
		c0.3,0,0.4-0.1,0.4-0.3c0-0.2-0.2-0.2-0.6-0.2c-1,0-2.6,0.1-3.3,0.1c-0.8,0-2.5-0.1-3.5-0.1c-0.4,0-0.6,0.1-0.6,0.2
		c0,0.2,0.2,0.3,0.4,0.3c0.3,0,0.7,0,1,0.1c0.6,0.1,0.9,0.6,0.9,1.5c0.1,0.9,0.1,1.6,0.1,5.7V146.1z M110.5,151.2
		c-0.1,0.9-0.3,2-1.1,2.1c-0.4,0.1-0.6,0.1-0.8,0.1c-0.3,0-0.4,0.1-0.4,0.2c0,0.2,0.2,0.3,0.5,0.3c0.9,0,2.1-0.1,2.7-0.1
		c0.5,0,1.7,0.1,2.8,0.1c0.4,0,0.6-0.1,0.6-0.3c0-0.1-0.2-0.2-0.4-0.2c-0.3,0-0.6,0-1.1-0.1c-0.5-0.1-0.8-0.3-0.8-0.9
		c0-0.4,0-0.8,0.1-1.3l1.4-10.7h0.1c0.9,2,2.5,5.4,2.8,5.9c0.3,0.8,2.4,4.9,3.1,6.1c0.4,0.8,0.7,1.3,0.9,1.3c0.2,0,0.4-0.2,1-1.5
		l5.8-12.2h0.1l1.6,11.8c0.1,0.8,0,1.1-0.1,1.2c-0.2,0.1-0.3,0.2-0.3,0.3c0,0.2,0.2,0.2,0.8,0.3c1.1,0.1,4.8,0.2,5.4,0.2
		c0.4,0,0.7-0.1,0.7-0.3c0-0.2-0.2-0.2-0.4-0.2c-0.3,0-0.9,0-1.7-0.3c-0.8-0.2-1.1-1-1.3-2.7l-2.4-16.6c-0.1-0.6-0.2-0.8-0.5-0.8
		c-0.2,0-0.4,0.2-0.6,0.6l-7.3,15.3l-7.3-15.1c-0.4-0.7-0.5-0.8-0.7-0.8c-0.2,0-0.4,0.2-0.5,0.7L110.5,151.2z M139.8,145.3
		c0,3.9,1,5.9,2.4,7.1c2,1.8,4.5,1.8,6,1.8c1.7,0,3.7-0.3,5.6-1.9c2.3-1.9,2.5-5.1,2.5-8.1v-2.9c0-4.1,0-4.8,0.1-5.7
		c0.1-0.9,0.3-1.4,1-1.5c0.3-0.1,0.5-0.1,0.8-0.1c0.3,0,0.5-0.1,0.5-0.2c0-0.2-0.2-0.2-0.6-0.2c-1,0-2.7,0.1-3.1,0.1
		c0,0-1.7-0.1-3.1-0.1c-0.4,0-0.6,0.1-0.6,0.2c0,0.2,0.2,0.2,0.5,0.2c0.3,0,0.8,0,1,0.1c0.9,0.2,1.1,0.6,1.2,1.5
		c0.1,0.9,0.1,1.6,0.1,5.7v3.3c0,2.8-0.1,5.2-1.6,6.6c-1.1,1.1-2.5,1.4-3.7,1.4c-0.9,0-2.1-0.1-3.4-1.1c-1.3-1.1-2.1-2.7-2.1-6.6
		v-3.8c0-4.1,0-4.8,0.1-5.7c0.1-0.9,0.3-1.4,1-1.5c0.3-0.1,0.5-0.1,0.8-0.1c0.3,0,0.4-0.1,0.4-0.2c0-0.2-0.2-0.2-0.6-0.2
		c-1,0-2.7,0.1-3.3,0.1c-0.8,0-2.5-0.1-3.9-0.1c-0.4,0-0.6,0.1-0.6,0.2c0,0.2,0.2,0.2,0.5,0.2c0.4,0,0.8,0,1,0.1
		c0.9,0.2,1.1,0.6,1.2,1.5c0.1,0.9,0.1,1.6,0.1,5.7V145.3z M167.3,154.2c1.4,0,2.9-0.2,4.3-1.1c1.9-1.3,2.5-3.1,2.5-4.7
		c0-2.5-1.2-4.4-4.4-6.8l-0.8-0.6c-2.2-1.7-2.8-2.6-2.8-3.9c0-1.6,1.2-2.8,3.2-2.8c1.7,0,2.5,0.8,2.9,1.3c0.6,0.7,0.7,1.5,0.7,1.8
		c0,0.3,0.1,0.5,0.3,0.5c0.2,0,0.3-0.2,0.3-0.8c0-2.1,0.1-2.9,0.1-3.2c0-0.2-0.1-0.3-0.4-0.3c-0.7-0.2-1.8-0.5-3.6-0.5
		c-3.7,0-6.2,2.1-6.2,5.1c0,2.2,1,4,4,6.4l1.2,1c2.2,1.7,2.6,3,2.6,4.3c0,1.4-1.2,3.1-3.6,3.1c-1.7,0-3.2-0.7-3.8-2.7
		c-0.1-0.5-0.2-1-0.2-1.4c0-0.2,0-0.5-0.3-0.5c-0.2,0-0.3,0.3-0.3,0.7c0,0.4-0.1,2-0.1,3.5c0,0.6,0.1,0.7,0.5,0.9
		C164.6,154,165.8,154.2,167.3,154.2 M182,146.1c0,2.5,0,4.6-0.1,5.7c-0.1,0.8-0.2,1.4-0.8,1.5c-0.2,0.1-0.6,0.1-1,0.1
		c-0.3,0-0.4,0.1-0.4,0.2c0,0.2,0.2,0.3,0.5,0.3c0.5,0,1.2-0.1,1.8-0.1c0.6,0,1.2,0,1.5,0c0.8,0,1.6,0,2.8,0.1
		c1.2,0,2.6,0.1,4.6,0.1c1,0,1.3,0,1.4-0.7c0.1-0.5,0.3-2.4,0.3-3c0-0.3,0-0.5-0.2-0.5c-0.2,0-0.2,0.1-0.3,0.4
		c-0.2,1.1-0.5,1.7-1.2,2c-0.7,0.3-1.8,0.3-2.5,0.3c-2.7,0-3.2-0.4-3.2-2.2c0-0.8,0-3.2,0-4.2v-2.1c0-0.2,0-0.3,0.2-0.3
		c0.6,0,3.3,0,3.8,0.1c1,0.1,1.4,0.5,1.5,1c0.1,0.3,0.1,0.7,0.1,1c0,0.1,0.1,0.2,0.2,0.2c0.2,0,0.2-0.3,0.2-0.5
		c0-0.2,0.1-1.3,0.1-1.8c0.1-1.4,0.2-1.8,0.2-2c0-0.2-0.1-0.2-0.2-0.2c-0.1,0-0.2,0.1-0.4,0.3c-0.2,0.3-0.6,0.3-1.3,0.4
		c-0.6,0.1-3.7,0.1-4.3,0.1c-0.2,0-0.2-0.1-0.2-0.3v-6.8c0-0.2,0.1-0.3,0.2-0.3c0.5,0,3.3,0.1,3.8,0.1c1.3,0.2,1.6,0.5,1.8,1
		c0.1,0.3,0.2,0.8,0.2,1c0,0.2,0.1,0.4,0.2,0.4c0.2,0,0.2-0.2,0.3-0.3c0.1-0.3,0.1-1.5,0.1-1.8c0.1-1.2,0.2-1.6,0.2-1.7
		c0-0.1,0-0.2-0.2-0.2c-0.1,0-0.3,0.1-0.4,0.1c-0.2,0.1-0.6,0.1-1.2,0.2c-0.5,0-5.8,0-6.7,0c-0.4,0-1,0-1.7-0.1c-0.7,0-1.4,0-2.2,0
		c-0.4,0-0.6,0.1-0.6,0.2c0,0.2,0.2,0.2,0.5,0.2c0.4,0,0.8,0,1,0.1c0.9,0.2,1.1,0.6,1.2,1.5c0.1,0.9,0.1,1.6,0.1,5.7V146.1z
		 M200,145.3c0,3.9,1,5.9,2.4,7.1c2,1.8,4.5,1.8,6,1.8c1.7,0,3.7-0.3,5.6-1.9c2.2-1.9,2.5-5.1,2.5-8.1v-2.9c0-4.1,0-4.8,0.1-5.7
		c0.1-0.9,0.3-1.4,1-1.5c0.3-0.1,0.5-0.1,0.8-0.1c0.3,0,0.5-0.1,0.5-0.2c0-0.2-0.2-0.2-0.6-0.2c-1,0-2.7,0.1-3.1,0.1
		c0,0-1.7-0.1-3.1-0.1c-0.4,0-0.6,0.1-0.6,0.2c0,0.2,0.2,0.2,0.5,0.2s0.8,0,1,0.1c0.9,0.2,1.1,0.6,1.2,1.5c0.1,0.9,0.1,1.6,0.1,5.7
		v3.3c0,2.8-0.1,5.2-1.6,6.6c-1.1,1.1-2.5,1.4-3.7,1.4c-0.9,0-2.1-0.1-3.4-1.1c-1.3-1.1-2.1-2.7-2.1-6.6v-3.8c0-4.1,0-4.8,0.1-5.7
		c0.1-0.9,0.3-1.4,1-1.5c0.3-0.1,0.5-0.1,0.8-0.1c0.3,0,0.4-0.1,0.4-0.2c0-0.2-0.2-0.2-0.6-0.2c-1,0-2.7,0.1-3.3,0.1
		c-0.8,0-2.5-0.1-3.9-0.1c-0.4,0-0.6,0.1-0.6,0.2c0,0.2,0.2,0.2,0.5,0.2c0.4,0,0.8,0,1,0.1c0.9,0.2,1.1,0.6,1.2,1.5
		c0.1,0.9,0.1,1.6,0.1,5.7V145.3z M223.4,151.2c-0.1,0.9-0.4,2-1.1,2.1c-0.4,0.1-0.6,0.1-0.8,0.1c-0.3,0-0.4,0.1-0.4,0.2
		c0,0.2,0.2,0.3,0.5,0.3c0.9,0,2.1-0.1,2.7-0.1c0.5,0,1.7,0.1,2.8,0.1c0.4,0,0.6-0.1,0.6-0.3c0-0.1-0.2-0.2-0.4-0.2
		c-0.3,0-0.6,0-1.1-0.1c-0.5-0.1-0.8-0.3-0.8-0.9c0-0.4,0-0.8,0.1-1.3l1.4-10.7h0.1c0.9,2,2.5,5.4,2.8,5.9c0.3,0.8,2.4,4.9,3.1,6.1
		c0.4,0.8,0.7,1.3,0.9,1.3c0.2,0,0.4-0.2,1-1.5l5.8-12.2h0.1l1.6,11.8c0.1,0.8,0,1.1-0.1,1.2c-0.2,0.1-0.3,0.2-0.3,0.3
		c0,0.2,0.2,0.2,0.8,0.3c1.1,0.1,4.8,0.2,5.4,0.2c0.4,0,0.7-0.1,0.7-0.3c0-0.2-0.2-0.2-0.4-0.2c-0.3,0-0.9,0-1.7-0.3
		c-0.8-0.2-1.1-1-1.3-2.7l-2.4-16.6c-0.1-0.6-0.2-0.8-0.5-0.8c-0.2,0-0.4,0.2-0.6,0.6l-7.3,15.3l-7.3-15.1c-0.3-0.7-0.5-0.8-0.7-0.8
		c-0.2,0-0.4,0.2-0.5,0.7L223.4,151.2z"/>
	<path clip-path="url(#SVGID_2_)" fill="#FFFFFF" d="M8.4,113.9c0,2.5,0,4.6-0.1,5.7c-0.1,0.8-0.2,1.4-0.8,1.5
		c-0.2,0.1-0.6,0.1-1,0.1c-0.3,0-0.4,0.1-0.4,0.2c0,0.2,0.2,0.3,0.5,0.3c1.1,0,2.8-0.1,3.4-0.1c0.8,0,2.4,0.1,4.2,0.1
		c0.3,0,0.5-0.1,0.5-0.3c0-0.1-0.1-0.2-0.4-0.2c-0.4,0-1-0.1-1.4-0.1c-0.8-0.1-1-0.7-1-1.4c-0.1-1.2-0.1-3.3-0.1-5.7v-11l3.4,0.1
		c2.4,0.1,3.1,0.8,3.2,1.5l0,0.3c0,0.4,0.1,0.5,0.3,0.5c0.2,0,0.2-0.2,0.2-0.4c0-0.7,0.1-2.5,0.1-3.1c0-0.4,0-0.6-0.2-0.6
		c-0.1,0-0.3,0.1-0.7,0.1c-0.4,0.1-1,0.1-1.9,0.1H5.6c-0.9,0-1.9-0.1-2.7-0.1C2.2,101.3,2,101,1.7,101c-0.2,0-0.2,0.2-0.3,0.5
		c-0.1,0.2-0.6,2.7-0.6,3.1c0,0.3,0.1,0.4,0.2,0.4c0.2,0,0.2-0.1,0.3-0.3c0.1-0.2,0.2-0.5,0.5-0.9c0.4-0.6,1-0.7,2.6-0.8l4-0.1
		V113.9z M29.4,109.9c-0.1,0-0.2-0.1-0.2-0.2v-0.6c0-4.1,0-4.8,0.1-5.7c0.1-0.9,0.3-1.4,1-1.5c0.3-0.1,0.6-0.1,0.8-0.1
		c0.3,0,0.5-0.1,0.5-0.2c0-0.2-0.2-0.2-0.6-0.2c-1,0-2.7,0.1-3.4,0.1c-0.7,0-2.4-0.1-3.9-0.1c-0.4,0-0.6,0.1-0.6,0.2
		c0,0.2,0.2,0.2,0.5,0.2c0.4,0,0.8,0,1,0.1c0.9,0.2,1.1,0.6,1.2,1.5c0.1,0.9,0.1,1.6,0.1,5.7v4.7c0,2.5,0,4.6-0.1,5.7
		c-0.1,0.8-0.2,1.4-0.8,1.5c-0.2,0.1-0.6,0.1-1,0.1c-0.3,0-0.4,0.1-0.4,0.2c0,0.2,0.2,0.3,0.5,0.3c1.1,0,2.8-0.1,3.4-0.1
		c0.8,0,2.4,0.1,4.2,0.1c0.3,0,0.5-0.1,0.5-0.3c0-0.1-0.1-0.2-0.4-0.2c-0.4,0-1-0.1-1.4-0.1c-0.8-0.1-1-0.7-1-1.4
		c-0.1-1.2-0.1-3.3-0.1-5.7v-2.4c0-0.1,0.1-0.2,0.2-0.2h10.2c0.1,0,0.2,0.1,0.2,0.2v2.4c0,2.5,0,4.6-0.1,5.7
		c-0.1,0.8-0.2,1.4-0.8,1.5c-0.2,0.1-0.6,0.1-1,0.1c-0.3,0-0.4,0.1-0.4,0.2c0,0.2,0.2,0.3,0.6,0.3c1,0,2.7-0.1,3.4-0.1
		c0.8,0,2.4,0.1,4.2,0.1c0.3,0,0.5-0.1,0.5-0.3c0-0.1-0.1-0.2-0.4-0.2c-0.4,0-1-0.1-1.4-0.1c-0.8-0.1-1-0.7-1-1.4
		c-0.1-1.2-0.1-3.3-0.1-5.7v-4.7c0-4.1,0-4.8,0.1-5.7c0.1-0.9,0.3-1.4,1-1.5c0.3-0.1,0.6-0.1,0.8-0.1c0.3,0,0.5-0.1,0.5-0.2
		c0-0.2-0.2-0.2-0.6-0.2c-1,0-2.7,0.1-3.4,0.1c-0.7,0-2.4-0.1-3.9-0.1c-0.4,0-0.6,0.1-0.6,0.2c0,0.2,0.2,0.2,0.5,0.2
		c0.4,0,0.8,0,1,0.1c0.9,0.2,1.1,0.6,1.2,1.5c0.1,0.9,0.1,1.6,0.1,5.7v0.6c0,0.1-0.1,0.2-0.2,0.2H29.4z M53.3,113.9
		c0,2.5,0,4.6-0.1,5.7c-0.1,0.8-0.2,1.4-0.8,1.5c-0.2,0.1-0.6,0.1-1,0.1c-0.3,0-0.4,0.1-0.4,0.2c0,0.2,0.2,0.3,0.5,0.3
		c0.5,0,1.2-0.1,1.8-0.1c0.6,0,1.2,0,1.5,0c0.8,0,1.6,0,2.8,0.1c1.2,0,2.6,0.1,4.6,0.1c1,0,1.3,0,1.4-0.7c0.1-0.5,0.3-2.4,0.3-3
		c0-0.3,0-0.5-0.2-0.5c-0.2,0-0.2,0.1-0.3,0.4c-0.2,1.1-0.5,1.7-1.2,2c-0.7,0.3-1.8,0.3-2.5,0.3c-2.7,0-3.2-0.4-3.2-2.3
		c0-0.8,0-3.2,0-4.2v-2.1c0-0.2,0-0.3,0.2-0.3c0.6,0,3.3,0,3.8,0.1c1,0.1,1.4,0.5,1.5,1c0.1,0.3,0.1,0.7,0.1,1
		c0,0.1,0.1,0.2,0.2,0.2c0.2,0,0.2-0.3,0.2-0.5c0-0.2,0.1-1.3,0.1-1.8c0.1-1.4,0.2-1.8,0.2-2c0-0.2-0.1-0.2-0.2-0.2
		c-0.1,0-0.2,0.1-0.4,0.3c-0.2,0.3-0.6,0.3-1.3,0.4c-0.6,0.1-3.7,0.1-4.3,0.1c-0.2,0-0.2-0.1-0.2-0.3v-6.8c0-0.2,0.1-0.3,0.2-0.3
		c0.5,0,3.4,0.1,3.8,0.1c1.3,0.2,1.6,0.5,1.8,1c0.1,0.3,0.2,0.8,0.2,1c0,0.2,0.1,0.4,0.2,0.4c0.2,0,0.2-0.2,0.3-0.3
		c0.1-0.3,0.1-1.5,0.1-1.8c0.1-1.2,0.2-1.6,0.2-1.7c0-0.1,0-0.2-0.2-0.2c-0.1,0-0.3,0.1-0.4,0.1c-0.2,0.1-0.6,0.1-1.2,0.2
		c-0.5,0-5.8,0-6.7,0c-0.4,0-1,0-1.7-0.1c-0.7,0-1.4,0-2.2,0c-0.4,0-0.6,0.1-0.6,0.2c0,0.2,0.2,0.2,0.5,0.2c0.4,0,0.8,0,1,0.1
		c0.9,0.2,1.1,0.6,1.2,1.5c0.1,0.9,0.1,1.6,0.1,5.7V113.9z M82.5,106.8L82.5,106.8c0.6,0.5,3.5,3.9,6.5,6.8c2.8,2.8,6.2,6.3,7.9,7.9
		c0.3,0.3,0.6,0.6,0.9,0.6c0.2,0,0.3-0.2,0.3-0.8l0.3-16.9c0-1.5,0.2-2.1,1-2.3c0.3-0.1,0.5-0.1,0.8-0.1c0.3,0,0.5-0.1,0.5-0.2
		c0-0.2-0.3-0.2-0.6-0.2c-1.3,0-2.3,0.1-2.6,0.1c-0.6,0-1.8-0.1-3.2-0.1c-0.4,0-0.7,0-0.7,0.2c0,0.2,0.1,0.2,0.4,0.2
		c0.4,0,1,0,1.4,0.2c0.6,0.3,0.9,0.8,0.9,2.4l0.3,12h-0.1c-0.5-0.4-4.1-4.3-5.9-6.1c-3.9-3.9-8-8.3-8.3-8.6c-0.5-0.5-0.7-0.8-1-0.8
		c-0.3,0-0.3,0.4-0.3,0.9l-0.2,15.9c0,2.3-0.1,3.1-0.8,3.3c-0.4,0.1-0.9,0.1-1.2,0.1c-0.3,0-0.4,0.1-0.4,0.2c0,0.2,0.2,0.3,0.6,0.3
		c1.4,0,2.7-0.1,2.9-0.1c0.5,0,1.6,0.1,3.3,0.1c0.4,0,0.6-0.1,0.6-0.3c0-0.2-0.2-0.2-0.5-0.2c-0.4,0-0.9,0-1.4-0.2
		c-0.5-0.2-0.9-0.9-0.9-3L82.5,106.8z M115.7,114.7c0.1,0,0.2,0.1,0.3,0.2l2.1,5.7c0.1,0.3-0.1,0.6-0.2,0.6c-0.3,0-0.4,0.1-0.4,0.2
		c0,0.2,0.3,0.2,0.8,0.2c2.1,0.1,4.1,0.1,5.1,0.1c1,0,1.2-0.1,1.2-0.3c0-0.2-0.1-0.2-0.3-0.2c-0.3,0-0.7,0-1.1-0.1
		c-0.6-0.1-1.3-0.5-2.4-2.9c-1.7-4.1-6-15-6.6-16.5c-0.3-0.6-0.4-0.9-0.7-0.9c-0.3,0-0.4,0.3-0.8,1.1l-6.7,16.8
		c-0.5,1.3-1,2.3-2.3,2.4c-0.2,0-0.6,0.1-0.8,0.1c-0.2,0-0.3,0.1-0.3,0.2c0,0.2,0.2,0.3,0.5,0.3c1.4,0,2.9-0.1,3.2-0.1
		c0.8,0,2,0.1,2.8,0.1c0.3,0,0.5-0.1,0.5-0.3c0-0.2-0.1-0.2-0.4-0.2h-0.4c-0.8,0-1.1-0.3-1.1-0.8c0-0.3,0.1-1,0.4-1.6l1.4-3.8
		c0.1-0.2,0.1-0.2,0.2-0.2H115.7z M110.2,113.3c-0.1,0-0.1-0.1-0.1-0.2l2.5-6.6c0-0.1,0.1-0.2,0.2-0.2c0.1,0,0.1,0.1,0.1,0.2
		l2.4,6.6c0,0.1,0,0.2-0.1,0.2H110.2z M132,113.9c0,2.5,0,4.6-0.1,5.7c-0.1,0.8-0.2,1.4-0.8,1.5c-0.2,0.1-0.6,0.1-1,0.1
		c-0.3,0-0.4,0.1-0.4,0.2c0,0.2,0.2,0.3,0.5,0.3c1.1,0,2.8-0.1,3.4-0.1c0.8,0,2.4,0.1,4.2,0.1c0.3,0,0.5-0.1,0.5-0.3
		c0-0.1-0.1-0.2-0.4-0.2c-0.4,0-1-0.1-1.4-0.1c-0.8-0.1-1-0.7-1-1.4c-0.1-1.2-0.1-3.3-0.1-5.7v-11l3.4,0.1c2.4,0.1,3.1,0.8,3.2,1.5
		l0,0.3c0,0.4,0.1,0.5,0.3,0.5c0.2,0,0.2-0.2,0.2-0.4c0-0.7,0.1-2.5,0.1-3.1c0-0.4,0-0.6-0.2-0.6c-0.1,0-0.3,0.1-0.7,0.1
		c-0.4,0.1-1,0.1-1.9,0.1h-10.6c-0.9,0-1.9-0.1-2.7-0.1c-0.7-0.1-0.9-0.3-1.2-0.3c-0.2,0-0.2,0.2-0.3,0.5c-0.1,0.2-0.6,2.7-0.6,3.1
		c0,0.3,0.1,0.4,0.2,0.4c0.2,0,0.2-0.1,0.3-0.3c0.1-0.2,0.2-0.5,0.5-0.9c0.4-0.6,1-0.7,2.6-0.8l4-0.1V113.9z M149.3,113.9
		c0,2.6,0,4.7-0.1,5.8c-0.1,0.8-0.2,1.2-0.8,1.3c-0.2,0.1-0.6,0.1-1,0.1c-0.3,0-0.4,0.1-0.4,0.2c0,0.2,0.2,0.3,0.5,0.3
		c1.1,0,2.8-0.1,3.4-0.1c0.7,0,2.4,0.1,4.2,0.1c0.3,0,0.5-0.1,0.5-0.3c0-0.1-0.1-0.2-0.4-0.2c-0.4,0-1-0.1-1.4-0.1
		c-0.8-0.1-1-0.6-1.1-1.3c-0.1-1.2-0.1-3.3-0.1-5.9v-4.7c0-4.1,0-4.8,0.1-5.7c0.1-0.9,0.3-1.4,1-1.5c0.3-0.1,0.5-0.1,0.8-0.1
		c0.3,0,0.4-0.1,0.4-0.3c0-0.2-0.2-0.2-0.6-0.2c-1,0-2.6,0.1-3.3,0.1c-0.8,0-2.5-0.1-3.5-0.1c-0.4,0-0.6,0.1-0.6,0.2
		c0,0.2,0.2,0.3,0.4,0.3c0.3,0,0.7,0,1,0.1c0.6,0.1,0.9,0.6,0.9,1.5c0.1,0.9,0.1,1.6,0.1,5.7V113.9z M169.9,122
		c6.8,0,11.1-4.9,11.1-11c0-6.1-4.2-10-10.8-10c-8,0-11.1,5.9-11.1,10.5C159.1,116.3,162.2,122,169.9,122 M171,120.7
		c-5.1,0-8.2-4.4-8.2-10c0-6.7,3.5-8.4,6.6-8.4c4.4,0,7.9,3.7,7.9,9.7C177.2,119.8,172.9,120.7,171,120.7 M189,106.8L189,106.8
		c0.6,0.5,3.5,3.9,6.5,6.8c2.8,2.8,6.2,6.3,7.9,7.9c0.3,0.3,0.6,0.6,0.9,0.6c0.2,0,0.3-0.2,0.3-0.8l0.3-16.9c0-1.5,0.2-2.1,1-2.3
		c0.3-0.1,0.5-0.1,0.8-0.1c0.3,0,0.5-0.1,0.5-0.2c0-0.2-0.3-0.2-0.6-0.2c-1.3,0-2.3,0.1-2.6,0.1c-0.6,0-1.9-0.1-3.2-0.1
		c-0.4,0-0.7,0-0.7,0.2c0,0.2,0.1,0.2,0.4,0.2c0.4,0,1,0,1.4,0.2c0.6,0.3,0.9,0.8,0.9,2.4l0.3,12h-0.1c-0.5-0.4-4.1-4.3-5.9-6.1
		c-3.9-3.9-8-8.3-8.3-8.6c-0.5-0.5-0.7-0.8-1-0.8c-0.3,0-0.3,0.4-0.3,0.9l-0.2,15.9c0,2.3-0.1,3.1-0.8,3.3c-0.4,0.1-0.9,0.1-1.2,0.1
		c-0.3,0-0.4,0.1-0.4,0.2c0,0.2,0.2,0.3,0.6,0.3c1.4,0,2.7-0.1,2.9-0.1c0.5,0,1.6,0.1,3.3,0.1c0.4,0,0.6-0.1,0.6-0.3
		c0-0.2-0.2-0.2-0.5-0.2c-0.4,0-0.9,0-1.4-0.2c-0.5-0.2-0.9-0.9-0.9-3L189,106.8z M222.2,114.7c0.1,0,0.2,0.1,0.3,0.2l2.1,5.7
		c0.1,0.3-0.1,0.6-0.2,0.6c-0.3,0-0.4,0.1-0.4,0.2c0,0.2,0.3,0.2,0.8,0.2c2.1,0.1,4.1,0.1,5.1,0.1c1,0,1.2-0.1,1.2-0.3
		c0-0.2-0.1-0.2-0.3-0.2c-0.3,0-0.7,0-1.1-0.1c-0.6-0.1-1.3-0.5-2.4-2.9c-1.7-4.1-6-15-6.6-16.5c-0.3-0.6-0.4-0.9-0.7-0.9
		c-0.3,0-0.4,0.3-0.8,1.1l-6.7,16.8c-0.5,1.3-1,2.3-2.3,2.4c-0.2,0-0.6,0.1-0.8,0.1c-0.2,0-0.3,0.1-0.3,0.2c0,0.2,0.2,0.3,0.5,0.3
		c1.4,0,2.9-0.1,3.2-0.1c0.8,0,2,0.1,2.8,0.1c0.3,0,0.5-0.1,0.5-0.3c0-0.2-0.1-0.2-0.4-0.2h-0.4c-0.8,0-1.1-0.3-1.1-0.8
		c0-0.3,0.1-1,0.4-1.6l1.4-3.8c0.1-0.2,0.1-0.2,0.2-0.2H222.2z M216.7,113.3c-0.1,0-0.1-0.1-0.1-0.2l2.5-6.6c0-0.1,0.1-0.2,0.2-0.2
		c0.1,0,0.1,0.1,0.1,0.2l2.4,6.6c0,0.1,0,0.2-0.1,0.2H216.7z M240.1,109.2c0-4.1,0-4.8,0.1-5.7c0.1-0.9,0.3-1.4,1-1.5
		c0.3-0.1,0.8-0.1,1-0.1c0.3,0,0.5-0.1,0.5-0.2c0-0.2-0.2-0.2-0.6-0.2c-1,0-3,0.1-3.6,0.1c-0.7,0-2.4-0.1-3.7-0.1
		c-0.4,0-0.6,0.1-0.6,0.2c0,0.2,0.2,0.2,0.5,0.2c0.3,0,0.7,0,0.9,0.1c0.9,0.2,1.1,0.6,1.2,1.5c0.1,0.9,0.1,1.6,0.1,5.7v4.7
		c0,2.5,0,4.6-0.1,5.7c-0.1,0.8-0.2,1.4-0.8,1.5c-0.2,0.1-0.6,0.1-1,0.1c-0.3,0-0.4,0.1-0.4,0.2c0,0.2,0.2,0.3,0.5,0.3
		c0.5,0,1.2-0.1,1.8-0.1c0.6,0,1.2,0,1.5,0c1.1,0,2.1,0,3.3,0.1c1.2,0,2.6,0.1,4.5,0.1c1.4,0,1.5-0.1,1.7-0.7
		c0.2-0.8,0.4-2.8,0.4-3.1c0-0.3,0-0.5-0.2-0.5c-0.2,0-0.3,0.2-0.3,0.4c-0.1,0.5-0.4,1.3-0.7,1.6c-0.7,0.7-1.7,0.8-3.1,0.8
		c-2.1,0-2.8-0.2-3.2-0.6c-0.6-0.5-0.6-2.3-0.6-5.8V109.2z"/>
	<polygon clip-path="url(#SVGID_2_)" fill="#001F5B" points="86.3,21.2 73.2,82.5 73.2,82.5 99.4,82.5 	"/>
	<path clip-path="url(#SVGID_2_)" fill="#001F5B" d="M68.4,19.7l1.8-12.6H57l2.3,12.7c2.1,10.8,4.2,23.8,5,32.6
		C65,43.5,66.9,30.3,68.4,19.7"/>
	<path clip-path="url(#SVGID_2_)" fill="#001F5B" d="M113.5,19.8l2.3-12.7h-13.2l1.8,12.6c1.5,10.7,3.4,23.8,4,32.8
		C109.2,43.6,111.3,30.6,113.5,19.8"/>
	<path clip-path="url(#SVGID_2_)" fill="#001F5B" d="M39.9,7.1H26.7l1.8,12.6c1.5,10.7,3.4,23.8,4,32.8c0.8-8.8,2.9-21.9,5-32.6
		L39.9,7.1z"/>
	<path clip-path="url(#SVGID_2_)" fill="#001F5B" d="M52.9,66.1c-2.2-11.6-4.2-25.7-4.6-31.2c-0.4,5.5-2.4,19.6-4.6,31.2l-3.1,16.4
		H56L52.9,66.1z"/>
	<path clip-path="url(#SVGID_2_)" fill="#001F5B" d="M128.8,66.1c-2.2-11.6-4.2-25.7-4.6-31.2c-0.4,5.5-2.4,19.6-4.6,31.2l-3.1,16.4
		h15.4L128.8,66.1z"/>
	<polygon clip-path="url(#SVGID_2_)" fill="#001F5B" points="165.2,7.1 149.1,82.5 149.1,82.5 165.4,82.5 165.4,7.1 	"/>
	<polygon clip-path="url(#SVGID_2_)" fill="#001F5B" points="7.4,7.1 7.4,7.1 7.4,82.5 23.5,82.5 	"/>
	<path clip-path="url(#SVGID_2_)" fill="#001F5B" d="M132.9,7.1l2.3,12.7c2.1,10.8,4.2,23.8,5,32.6c0.7-8.9,2.5-22.1,4-32.8
		l1.8-12.6H132.9z"/>
	<path clip-path="url(#SVGID_2_)" fill="#001F5B" d="M1.6,6.9V6.2V6.9z"/>
	<path clip-path="url(#SVGID_2_)" fill="#001F5B" d="M1.2-3v-0.7V-3z"/>
	<path clip-path="url(#SVGID_2_)" fill="#FFFFFF" d="M4.3,182c0,1.5,0.3,2,0.7,2.1c0.3,0.1,0.7,0.1,1,0.1c0.2,0,0.3,0,0.3,0.2
		c0,0.2-0.2,0.2-0.4,0.2c-1.2,0-2-0.1-2.4-0.1c-0.2,0-1.1,0.1-2.1,0.1c-0.2,0-0.4,0-0.4-0.2c0-0.1,0.1-0.2,0.3-0.2
		c0.2,0,0.6,0,0.9-0.1c0.5-0.2,0.6-0.7,0.6-2.4L3,170.5c0-0.4,0.1-0.7,0.2-0.7c0.2,0,0.4,0.2,0.7,0.6c0.2,0.2,3.1,3.4,5.9,6.1
		c1.3,1.3,3.9,4.1,4.2,4.4h0.1l-0.2-8.6c0-1.2-0.2-1.5-0.7-1.7c-0.3-0.1-0.7-0.1-1-0.1c-0.2,0-0.3-0.1-0.3-0.2
		c0-0.2,0.2-0.2,0.5-0.2c1,0,1.9,0.1,2.3,0.1c0.2,0,0.9-0.1,1.9-0.1c0.2,0,0.4,0,0.4,0.2c0,0.1-0.1,0.2-0.3,0.2
		c-0.2,0-0.3,0-0.6,0.1c-0.5,0.2-0.7,0.6-0.7,1.6l-0.2,12.1c0,0.4-0.1,0.6-0.2,0.6c-0.2,0-0.4-0.2-0.7-0.4c-1.2-1.1-3.7-3.7-5.6-5.6
		c-2.1-2.1-4.2-4.5-4.6-4.8H4.1L4.3,182z"/>
	<path clip-path="url(#SVGID_2_)" fill="#FFFFFF" d="M30.9,175.7c0-2.9,0-3.4,0-4.1c0-0.6-0.2-1-0.8-1.1c-0.2,0-0.5-0.1-0.7-0.1
		c-0.2,0-0.3,0-0.3-0.2s0.1-0.2,0.4-0.2c0.5,0,1.1,0,1.6,0c0.5,0,0.9,0,1.2,0c0.6,0,4.4,0,4.8,0c0.4,0,0.7-0.1,0.8-0.1
		c0.1,0,0.2-0.1,0.3-0.1c0.1,0,0.1,0.1,0.1,0.2c0,0.1-0.1,0.4-0.2,1.2c0,0.2-0.1,1-0.1,1.3c0,0.1-0.1,0.2-0.2,0.2
		c-0.1,0-0.2-0.1-0.2-0.3c0-0.1,0-0.5-0.1-0.7c-0.1-0.3-0.3-0.6-1.3-0.7c-0.3,0-2.3-0.1-2.7-0.1c-0.1,0-0.1,0.1-0.1,0.2v4.8
		c0,0.1,0,0.2,0.1,0.2c0.4,0,2.6,0,3.1,0c0.5,0,0.7-0.1,0.9-0.3c0.1-0.2,0.2-0.2,0.3-0.2c0.1,0,0.1,0,0.1,0.2c0,0.1-0.1,0.4-0.2,1.4
		c0,0.4-0.1,1.1-0.1,1.3c0,0.2,0,0.4-0.2,0.4c-0.1,0-0.2-0.1-0.2-0.2c0-0.2,0-0.4-0.1-0.7c-0.1-0.4-0.4-0.7-1.1-0.7
		c-0.4,0-2.3-0.1-2.7-0.1c-0.1,0-0.1,0.1-0.1,0.2v1.5c0,0.7,0,2.4,0,3c0,1.3,0.3,1.6,2.3,1.6c0.5,0,1.3,0,1.8-0.2
		c0.5-0.2,0.7-0.6,0.9-1.4c0-0.2,0.1-0.3,0.2-0.3c0.2,0,0.2,0.2,0.2,0.3c0,0.4-0.2,1.7-0.2,2.1c-0.1,0.5-0.3,0.5-1,0.5
		c-1.4,0-2.5,0-3.3-0.1c-0.8,0-1.4-0.1-2-0.1c-0.2,0-0.6,0-1.1,0c-0.4,0-0.9,0-1.3,0c-0.2,0-0.4-0.1-0.4-0.2c0-0.1,0.1-0.2,0.3-0.2
		c0.3,0,0.5,0,0.7-0.1c0.4-0.1,0.5-0.5,0.6-1.1c0.1-0.8,0.1-2.3,0.1-4.1V175.7z"/>
	<path clip-path="url(#SVGID_2_)" fill="#FFFFFF" d="M51.3,172c-0.2-0.7-0.4-1.2-0.7-1.4c-0.2-0.1-0.6-0.2-0.8-0.2
		c-0.2,0-0.3,0-0.3-0.2c0-0.1,0.2-0.2,0.4-0.2c1,0,2,0.1,2.2,0.1c0.2,0,1-0.1,2.1-0.1c0.3,0,0.4,0.1,0.4,0.2c0,0.2-0.2,0.2-0.3,0.2
		c-0.2,0-0.3,0-0.5,0.1c-0.2,0.1-0.2,0.2-0.2,0.4c0,0.2,0.2,0.9,0.4,1.8c0.3,1.3,2.1,7.1,2.5,8.1h0.1l3.7-10
		c0.2-0.5,0.3-0.7,0.5-0.7c0.2,0,0.3,0.3,0.6,0.9l4,9.6h0.1c0.3-1.3,1.9-6.3,2.5-8.6c0.1-0.4,0.2-0.8,0.2-1.1c0-0.3-0.2-0.6-0.9-0.6
		c-0.2,0-0.3-0.1-0.3-0.2c0-0.1,0.2-0.2,0.4-0.2c1,0,1.8,0.1,2,0.1c0.1,0,1-0.1,1.6-0.1c0.2,0,0.3,0,0.3,0.2c0,0.1-0.1,0.2-0.3,0.2
		c-0.2,0-0.5,0-0.7,0.1c-0.5,0.2-0.7,0.9-1.1,2c-0.9,2.4-2.9,8.5-3.8,11.4c-0.2,0.7-0.3,0.9-0.6,0.9c-0.2,0-0.3-0.2-0.6-0.9l-4-9.6
		h0c-0.4,1-2.9,7.8-3.7,9.5c-0.4,0.8-0.5,1-0.7,1c-0.2,0-0.3-0.2-0.4-0.7L51.3,172z"/>
	<path clip-path="url(#SVGID_2_)" fill="#FFFFFF" d="M92,177.4c0-3.3,2.2-7.5,7.9-7.5c4.8,0,7.7,2.8,7.7,7.2c0,4.4-3.1,7.9-7.9,7.9
		C94.2,184.9,92,180.8,92,177.4 M105,177.8c0-4.3-2.5-6.9-5.6-6.9c-2.2,0-4.7,1.2-4.7,6c0,4,2.2,7.1,5.9,7.1
		C101.9,184,105,183.3,105,177.8"/>
	<path clip-path="url(#SVGID_2_)" fill="#FFFFFF" d="M120.8,175.7c0-2.9,0-3.4,0-4.1c0-0.7-0.2-1-0.8-1.1c-0.2,0-0.5-0.1-0.7-0.1
		c-0.2,0-0.3,0-0.3-0.2c0-0.1,0.1-0.2,0.4-0.2c1,0,2.2,0.1,2.6,0.1c0.7,0,2.1-0.1,2.7-0.1c1.2,0,2.5,0.1,3.5,0.8
		c0.5,0.4,1.3,1.3,1.3,2.6c0,1.4-0.6,2.7-2.5,4.3c1.7,2.1,3,3.8,4.2,5c1.1,1.1,1.9,1.2,2.1,1.3c0.2,0,0.4,0.1,0.5,0.1
		c0.2,0,0.2,0.1,0.2,0.2c0,0.2-0.1,0.2-0.4,0.2h-1.8c-1.1,0-1.5-0.1-2-0.4c-0.8-0.4-1.6-1.3-2.6-2.8c-0.8-1.1-1.6-2.4-1.9-2.6
		c-0.1-0.1-0.2-0.1-0.3-0.1l-1.7,0c-0.1,0-0.2,0-0.2,0.2v0.3c0,1.8,0,3.3,0.1,4.1c0.1,0.6,0.2,1,0.7,1.1c0.3,0,0.7,0.1,0.9,0.1
		c0.2,0,0.2,0.1,0.2,0.2c0,0.1-0.1,0.2-0.4,0.2c-1.1,0-2.5-0.1-2.8-0.1c-0.4,0-1.6,0.1-2.3,0.1c-0.2,0-0.4-0.1-0.4-0.2
		c0-0.1,0.1-0.2,0.3-0.2c0.3,0,0.5,0,0.7-0.1c0.4-0.1,0.5-0.5,0.6-1.1c0.1-0.8,0.1-2.3,0.1-4.1V175.7z M123,177.2
		c0,0.2,0,0.3,0.2,0.3c0.4,0.1,1,0.2,1.5,0.2c0.8,0,1-0.1,1.4-0.3c0.6-0.4,1.1-1.3,1.1-2.9c0-2.7-1.8-3.5-2.9-3.5
		c-0.5,0-0.8,0-1,0.1c-0.1,0-0.2,0.1-0.2,0.3V177.2z"/>
	<path clip-path="url(#SVGID_2_)" fill="#FFFFFF" d="M148.4,179.1c0,2.5,0,3.8,0.4,4.1c0.3,0.3,0.8,0.4,2.3,0.4c1,0,1.8,0,2.2-0.5
		c0.2-0.2,0.5-0.8,0.5-1.2c0-0.2,0.1-0.3,0.2-0.3c0.1,0,0.2,0.1,0.2,0.3c0,0.2-0.1,1.6-0.3,2.2c-0.1,0.4-0.2,0.5-1.2,0.5
		c-1.4,0-2.4,0-3.2-0.1c-0.9,0-1.6-0.1-2.3-0.1c-0.2,0-0.6,0-1.1,0c-0.4,0-0.9,0-1.3,0c-0.2,0-0.4-0.1-0.4-0.2
		c0-0.1,0.1-0.2,0.3-0.2c0.3,0,0.5,0,0.7-0.1c0.4-0.1,0.5-0.5,0.6-1.1c0.1-0.8,0.1-2.3,0.1-4.1v-3.4c0-2.9,0-3.4,0-4.1
		c0-0.6-0.2-1-0.8-1.1c-0.2,0-0.4-0.1-0.6-0.1c-0.2,0-0.3,0-0.3-0.2c0-0.1,0.1-0.2,0.4-0.2c0.9,0,2.1,0.1,2.6,0.1
		c0.5,0,1.9-0.1,2.6-0.1c0.3,0,0.4,0,0.4,0.2c0,0.1-0.1,0.2-0.3,0.2c-0.2,0-0.5,0-0.7,0.1c-0.5,0.1-0.7,0.4-0.7,1.1
		c0,0.6,0,1.1,0,4.1V179.1z"/>
	<path clip-path="url(#SVGID_2_)" fill="#FFFFFF" d="M167.2,175.7c0-2.9,0-3.4,0-4.1c0-0.6-0.2-1-0.8-1.1c-0.2,0-0.5-0.1-0.7-0.1
		c-0.2,0-0.3,0-0.3-0.2s0.1-0.2,0.4-0.2c0.5,0,1.1,0,1.5,0c0.5,0,0.9,0,1.2,0c0.6,0,4.4,0,4.8,0c0.4,0,0.7-0.1,0.8-0.1
		c0.1,0,0.2-0.1,0.3-0.1s0.1,0.1,0.1,0.2c0,0.1-0.1,0.4-0.2,1.2c0,0.2-0.1,1-0.1,1.3c0,0.1-0.1,0.2-0.2,0.2s-0.2-0.1-0.2-0.3
		c0-0.1,0-0.5-0.1-0.7c-0.1-0.3-0.3-0.6-1.3-0.7c-0.3,0-2.3-0.1-2.7-0.1c-0.1,0-0.1,0.1-0.1,0.2v4.8c0,0.1,0,0.2,0.1,0.2
		c0.4,0,2.6,0,3.1,0c0.5,0,0.7-0.1,0.9-0.3c0.1-0.2,0.2-0.2,0.3-0.2c0.1,0,0.1,0,0.1,0.2c0,0.1-0.1,0.4-0.2,1.4
		c0,0.4-0.1,1.1-0.1,1.3c0,0.2,0,0.4-0.2,0.4c-0.1,0-0.2-0.1-0.2-0.2c0-0.2,0-0.4-0.1-0.7c-0.1-0.4-0.4-0.7-1.1-0.7
		c-0.4,0-2.3-0.1-2.7-0.1c-0.1,0-0.1,0.1-0.1,0.2v1.5c0,0.7,0,2.4,0,3c0,1.3,0.3,1.6,2.3,1.6c0.5,0,1.3,0,1.8-0.2
		c0.5-0.2,0.7-0.6,0.9-1.4c0-0.2,0.1-0.3,0.2-0.3c0.2,0,0.2,0.2,0.2,0.3c0,0.4-0.2,1.7-0.2,2.1c-0.1,0.5-0.3,0.5-1,0.5
		c-1.4,0-2.5,0-3.3-0.1c-0.8,0-1.4-0.1-2-0.1c-0.2,0-0.6,0-1.1,0c-0.4,0-0.9,0-1.3,0c-0.2,0-0.4-0.1-0.4-0.2c0-0.1,0.1-0.2,0.3-0.2
		c0.3,0,0.5,0,0.7-0.1c0.4-0.1,0.5-0.5,0.6-1.1c0.1-0.8,0.1-2.3,0.1-4.1V175.7z"/>
	<path clip-path="url(#SVGID_2_)" fill="#FFFFFF" d="M190.6,179.6c-0.1,0-0.1,0-0.2,0.2l-1,2.7c-0.2,0.5-0.3,0.9-0.3,1.2
		c0,0.3,0.2,0.6,0.8,0.6h0.3c0.2,0,0.3,0,0.3,0.2c0,0.2-0.1,0.2-0.3,0.2c-0.6,0-1.4-0.1-2-0.1c-0.2,0-1.3,0.1-2.3,0.1
		c-0.2,0-0.4,0-0.4-0.2c0-0.1,0.1-0.2,0.2-0.2c0.2,0,0.4,0,0.6,0c0.9-0.1,1.2-0.8,1.6-1.7l4.8-12c0.2-0.6,0.3-0.8,0.5-0.8
		c0.2,0,0.3,0.2,0.5,0.6c0.5,1.1,3.5,8.9,4.7,11.8c0.7,1.7,1.3,2,1.7,2.1c0.3,0.1,0.6,0.1,0.8,0.1c0.2,0,0.2,0,0.2,0.2
		c0,0.2-0.2,0.2-0.9,0.2c-0.7,0-2.1,0-3.6,0c-0.3,0-0.6,0-0.6-0.2c0-0.1,0.1-0.2,0.3-0.2c0.1,0,0.3-0.2,0.2-0.4l-1.5-4.1
		c0-0.1-0.1-0.1-0.2-0.1H190.6z M194.5,178.7c0.1,0,0.1-0.1,0.1-0.1l-1.7-4.7c0-0.1,0-0.2-0.1-0.2c-0.1,0-0.1,0.1-0.1,0.2l-1.8,4.7
		c0,0.1,0,0.1,0.1,0.1H194.5z"/>
	<path clip-path="url(#SVGID_2_)" fill="#FFFFFF" d="M215.1,182c0,1.5,0.3,2,0.7,2.1c0.3,0.1,0.7,0.1,1,0.1c0.2,0,0.3,0,0.3,0.2
		c0,0.2-0.2,0.2-0.4,0.2c-1.2,0-2-0.1-2.4-0.1c-0.2,0-1.1,0.1-2.1,0.1c-0.2,0-0.4,0-0.4-0.2c0-0.1,0.1-0.2,0.3-0.2
		c0.2,0,0.6,0,0.9-0.1c0.5-0.2,0.6-0.7,0.6-2.4l0.2-11.3c0-0.4,0.1-0.7,0.2-0.7c0.2,0,0.4,0.2,0.7,0.6c0.2,0.2,3.1,3.4,5.9,6.1
		c1.3,1.3,3.9,4.1,4.2,4.4h0.1l-0.2-8.6c0-1.2-0.2-1.5-0.7-1.7c-0.3-0.1-0.7-0.1-1-0.1c-0.2,0-0.3-0.1-0.3-0.2
		c0-0.2,0.2-0.2,0.5-0.2c1,0,1.9,0.1,2.3,0.1c0.2,0,0.9-0.1,1.9-0.1c0.2,0,0.4,0,0.4,0.2c0,0.1-0.1,0.2-0.3,0.2
		c-0.2,0-0.3,0-0.6,0.1c-0.5,0.2-0.7,0.6-0.7,1.6l-0.2,12.1c0,0.4-0.1,0.6-0.2,0.6c-0.2,0-0.4-0.2-0.7-0.4c-1.2-1.1-3.7-3.7-5.6-5.6
		c-2.1-2.1-4.2-4.5-4.6-4.8h-0.1L215.1,182z"/>
	<path clip-path="url(#SVGID_2_)" fill="#FFFFFF" d="M239.8,184.4c-0.3-0.1-0.4-0.2-0.4-0.7c0-1.1,0.1-2.2,0.1-2.5
		c0-0.3,0.1-0.5,0.2-0.5c0.2,0,0.2,0.2,0.2,0.3c0,0.2,0.1,0.6,0.2,1c0.4,1.4,1.6,1.9,2.7,1.9c1.7,0,2.6-1.2,2.6-2.2
		c0-0.9-0.3-1.8-1.9-3.1l-0.9-0.7c-2.1-1.6-2.8-3-2.8-4.5c0-2.1,1.8-3.6,4.4-3.6c1.2,0,2,0.2,2.5,0.3c0.2,0,0.3,0.1,0.3,0.2
		c0,0.2-0.1,0.8-0.1,2.3c0,0.4-0.1,0.6-0.2,0.6c-0.1,0-0.2-0.1-0.2-0.3c0-0.2-0.1-0.8-0.5-1.3c-0.3-0.4-0.8-0.9-2.1-0.9
		c-1.4,0-2.3,0.8-2.3,2c0,0.9,0.4,1.6,2,2.8l0.5,0.4c2.3,1.7,3.1,3.1,3.1,4.9c0,1.1-0.4,2.4-1.8,3.3c-1,0.6-2,0.8-3,0.8
		C241.5,184.9,240.7,184.8,239.8,184.4"/>
	<rect x="0.1" y="162.4" clip-path="url(#SVGID_2_)" fill="#FFFFFF" width="248.8" height="1.2"/>
</g>
</svg>
