<?xml version="1.0" encoding="utf-8"?>
<!-- Generator: Adobe Illustrator 21.1.0, SVG Export Plug-In . SVG Version: 6.00 Build 0)  -->
<svg version="1.1" id="Layer_1" xmlns="http://www.w3.org/2000/svg" xmlns:xlink="http://www.w3.org/1999/xlink" x="0px" y="0px"
	 viewBox="0 0 443.2 136.1" style="enable-background:new 0 0 443.2 136.1;" xml:space="preserve">
<style type="text/css">
	.st0{fill-rule:evenodd;clip-rule:evenodd;fill:#003659;}
	.st1{fill-rule:evenodd;clip-rule:evenodd;fill:#00A6DF;}
	.st2{fill-rule:evenodd;clip-rule:evenodd;fill:none;}
	.st3{fill:#003659;}
	.st4{font-family:'Montserrat-Regular';}
	.st5{font-size:5px;}
</style>
<path class="st0" d="M412.9,95.1c0,6.2,4.6,10.7,10.8,10.7c2.7,0,5.4-0.8,7.2-2.1v-8.6h-7.4v2.4h4.7v4.9c-1.2,0.6-2.6,1-4.3,1
	c-5.2,0-8.3-3.8-8.3-8.3c0-4.6,3.3-8.2,8.2-8.2c2.5,0,4.8,0.9,6.4,2.3V86c-1.5-0.9-3.7-1.7-6.4-1.7C417.4,84.3,412.9,89,412.9,95.1
	 M387.9,105.5V95c0-2,0-4.1-0.1-5.9l0.1,0c1.2,1.6,2.4,3.3,3.6,4.9l8.7,11.6h2.6V84.6h-2.6v10.5c0,2,0,4.1,0.1,5.9l-0.1,0
	c-1.2-1.6-2.4-3.3-3.6-4.9l-8.7-11.6h-2.6v20.8H387.9z M371.3,105.5h2.7V84.6h-2.7V105.5z M348.9,105.5h12.3V103h-9.6v-7.2h8.1v-2.4
	h-8.1v-6.3h9.3v-2.5h-12V105.5z M326.8,103v-7.2h4c3.1,0,4.9,1.2,4.9,3.5c0,1.4-0.7,2.3-1.4,2.7c-0.9,0.7-2.3,0.9-4.6,0.9H326.8z
	 M326.8,93.7v-6.6h2.5c2.1,0,3.2,0.1,4.2,0.7c0.9,0.5,1.5,1.4,1.5,2.6c0,2.3-1.9,3.3-4,3.3H326.8z M324.1,105.5h5.5
	c3,0,5-0.3,6.5-1.4c1.5-1.1,2.4-2.8,2.4-4.8c0-2.7-1.6-4.3-4-4.9v-0.1c1.7-0.6,3.2-2,3.2-4.4c0-1.9-0.9-3.3-2.4-4.3
	c-1.4-0.9-3-1.1-5.6-1.1h-5.6V105.5z M301.7,105.5h12.6V103h-9.8V84.6h-2.7V105.5z M279.4,105.5H292V103h-9.8V84.6h-2.7V105.5z
	 M257,105.5h12.3V103h-9.6v-7.2h8.1v-2.4h-8.1v-6.3h9.3v-2.5h-12V105.5z M225.7,105.5h3l3.3-10.6c0.5-1.6,1-3.3,1.5-4.9h0.1
	c0.5,1.6,0.9,3.2,1.5,4.8l3.3,10.6h2.9l6.5-20.8H245l-3.5,11.2c-0.5,1.8-1.1,3.7-1.6,5.5h-0.1c-0.5-1.8-1.1-3.6-1.7-5.4l-3.5-11.3
	h-2L229,95.9c-0.6,1.8-1.2,3.7-1.7,5.5h-0.1c-0.5-1.8-1.1-3.7-1.6-5.4l-3.5-11.3h-2.9L225.7,105.5z M185.8,95c0-4.6,3.3-8.2,7.9-8.2
	c4.5,0,7.9,3.6,7.9,8.2c0,4.6-3.3,8.2-7.9,8.2C189.1,103.2,185.8,99.6,185.8,95z M183,95c0,6,4.5,10.7,10.6,10.7
	c6,0,10.6-4.7,10.6-10.7c0-6-4.5-10.7-10.6-10.7C187.6,84.3,183,89,183,95z M165.4,105.5h2.7V87.1h7v-2.5h-16.7v2.5h7V105.5z"/>
<path class="st1" d="M303.1,65.8h2.3c9.2,0,16.6-2.8,16.6-13c0-4-1.5-7.9-4.9-10.3c-3.3-2.3-7.9-2.6-11.8-2.6h-2.2V65.8z M220.1,50
	h4.4c3.6,0,8-0.5,8-5c0-0.9-0.1-1.8-0.6-2.6c-1.5-2.4-6.1-2.4-8.5-2.4h-3.3V50z M168.6,66h3.2c2.4,0,7.4,0,8.9-2.3
	c0.5-0.8,0.6-1.8,0.6-2.7c0-4.1-3.9-4.9-7.3-4.9h-5.3V66z M168.6,48.8h4.6c3.1,0,6.3-0.9,6.3-4.5c0-0.8-0.1-1.6-0.6-2.3
	c-1.3-2.1-5.6-2.2-7.8-2.2h-2.6V48.8z M413.1,40v7.7h14.8v8.6h-14.8v9.5h17.8v9h-28V30.9h27.4v9H413.1z M372.8,65.7v-5.9h-7.5v-8.6
	h17.4v20.6l-0.2,0.1c-4.3,2.4-9.9,3.6-14.8,3.6c-7.4,0-14.7-2.7-19.4-8.7c-3.1-3.9-4.6-8.7-4.6-13.7c0-5.1,1.6-10,4.7-14
	c4.7-5.9,11.8-8.8,19.3-8.8c4.6,0,9.4,1.1,13.4,3.3l0.2,0.1v10.4l-0.6-0.4c-3.7-2.5-8.3-4.2-12.9-4.2c-7.9,0-14,5.4-14,13.5
	c0,2.8,0.8,5.6,2.4,8c2.7,3.8,6.9,5.5,11.4,5.5C369.5,66.5,371.3,66.2,372.8,65.7z M292.9,74.8V30.9h12.5c8.2,0,17.5,1.7,22.7,8.6
	c3,3.8,4,8.5,4,13.3c0,4.4-0.9,8.8-3.5,12.6c-5.2,7.6-15.1,9.5-23.7,9.5H292.9z M262.2,74.8V30.9h10.2v43.9H262.2z M234.2,56.4
	l12.3,18.4h-11.8l-10.9-17.1h-3.7v17.1h-10.2V30.9h13.9c9.2,0,19,2.3,19,13.4C242.8,50.1,239.6,54.5,234.2,56.4z M183.8,50.9
	c4.8,1.7,7.7,5.2,7.7,10.5c0,2.2-0.4,4.3-1.5,6.1c-3.5,6.1-12,7.3-18.4,7.3h-13.2V30.9h12.9c7.8,0,18.4,1.4,18.4,11.3
	C189.7,46.5,187.4,49.3,183.8,50.9z"/>
<path class="st0" d="M121.1,44.7l-15,6.2c0,0.9,0.1,1.8,0.2,2.7L122,47C121.7,46.2,121.4,45.5,121.1,44.7 M10.1,69.3H24
	c0.6-0.8,1.1-1.7,1.6-2.5H10.1c0,0.4,0,0.8,0,1.3S10.1,68.9,10.1,69.3z M14,47l15.8,6.5c0.1-0.9,0.2-1.8,0.2-2.7l-15-6.2
	C14.7,45.5,14.3,46.2,14,47z M68,52c8.5,0,15.5,6.6,16,15c0.8-0.6,1.6-1.3,2.3-2c-0.6-3.5-2.1-6.6-4.3-9.2l11-11l0.7-0.7L109.9,28
	c-0.6-0.6-1.2-1.2-1.8-1.8L80.2,54c-1.2-1-2.5-1.9-3.9-2.6L91.4,15c-0.8-0.3-1.5-0.7-2.3-1L74,50.4c-1.5-0.5-3-0.8-4.7-0.9V10.1
	c-0.4,0-0.8,0-1.3,0c-0.4,0-0.8,0-1.3,0v39.4c-1.6,0.1-3.2,0.4-4.7,0.9L47,14c-0.8,0.3-1.6,0.6-2.3,1l15.1,36.4
	C58.3,52.1,57,53,55.8,54L28,26.2c-0.6,0.6-1.2,1.2-1.8,1.8l16.1,16.1l0.7,0.7l11,11c-2.2,2.5-3.8,5.7-4.3,9.2
	c0.7,0.7,1.5,1.4,2.3,2C52.6,58.6,59.5,52,68,52z M112,69.3h13.9c0-0.4,0-0.8,0-1.3s0-0.8,0-1.3h-15.5C111,67.6,111.5,68.5,112,69.3
	z"/>
<path class="st0" d="M68,2.5c36.2,0,65.5,29.3,65.5,65.5c0,36.2-29.3,65.5-65.5,65.5S2.5,104.2,2.5,68C2.5,31.9,31.9,2.5,68,2.5
	 M68,0c37.6,0,68,30.5,68,68s-30.5,68-68,68c-37.6,0-68-30.5-68-68S30.5,0,68,0z"/>
<g>
	<path class="st1" d="M68,5.1c-34.8,0-63,28.2-63,63c0,34.8,28.2,63,63,63c34.8,0,63-28.2,63-63C131,33.3,102.8,5.1,68,5.1z
		 M125.2,87.6c-0.1,0.2-0.2,0.4-0.2,0.6c-0.1,0.3-0.2,0.7-0.4,1c-0.2,0.5-0.4,1.1-0.6,1.6c-0.1,0.3-0.2,0.6-0.4,0.9
		c-0.3,0.8-0.7,1.6-1.1,2.3c-0.1,0.2-0.2,0.4-0.3,0.6c-0.3,0.6-0.6,1.2-0.9,1.8c-0.2,0.3-0.3,0.6-0.5,0.9c-0.3,0.5-0.5,1-0.8,1.4
		c-0.2,0.3-0.4,0.6-0.6,0.9c-0.3,0.5-0.6,1-0.9,1.5c-0.2,0.3-0.3,0.5-0.5,0.8c-0.5,0.7-1,1.4-1.5,2.1c-0.2,0.2-0.3,0.4-0.5,0.6
		c-0.4,0.5-0.8,1-1.2,1.5c-0.2,0.3-0.4,0.5-0.7,0.8c-0.4,0.4-0.7,0.8-1.1,1.3c-0.2,0.3-0.5,0.5-0.7,0.8c-0.4,0.4-0.8,0.9-1.3,1.3
		c-0.2,0.2-0.4,0.4-0.6,0.6c-0.6,0.6-1.2,1.2-1.9,1.8c-0.2,0.2-0.4,0.3-0.6,0.5c-0.5,0.4-0.9,0.8-1.4,1.2c-0.3,0.2-0.5,0.4-0.8,0.6
		c-0.4,0.4-0.9,0.7-1.4,1.1c-0.3,0.2-0.5,0.4-0.8,0.6c-0.5,0.4-1.1,0.8-1.6,1.1c-0.2,0.1-0.4,0.3-0.6,0.4c-0.7,0.5-1.5,1-2.2,1.4
		c-0.2,0.1-0.4,0.3-0.7,0.4c-0.5,0.3-1.1,0.6-1.7,1c-0.3,0.2-0.6,0.3-0.8,0.5c-0.5,0.3-1.1,0.6-1.6,0.8c-0.3,0.1-0.5,0.3-0.8,0.4
		c-0.7,0.3-1.3,0.6-2,0.9c-0.2,0.1-0.3,0.1-0.5,0.2c-0.8,0.3-1.6,0.7-2.5,1c-0.2,0.1-0.5,0.2-0.7,0.3c-0.6,0.2-1.2,0.4-1.8,0.6
		c-0.3,0.1-0.6,0.2-0.9,0.3c-0.6,0.2-1.2,0.4-1.8,0.5c-0.3,0.1-0.6,0.2-0.9,0.2c-0.8,0.2-1.6,0.4-2.4,0.6c-0.1,0-0.2,0-0.3,0.1
		c-0.9,0.2-1.8,0.3-2.7,0.5c-0.3,0-0.5,0.1-0.8,0.1c-0.7,0.1-1.3,0.2-2,0.2c-0.3,0-0.6,0.1-1,0.1c-0.7,0.1-1.3,0.1-2,0.1
		c-0.3,0-0.6,0-0.9,0.1c-0.9,0-1.9,0.1-2.8,0.1c0,0,0,0,0,0c0,0,0,0,0,0c-0.9,0-1.9,0-2.8-0.1c-0.3,0-0.6,0-0.9-0.1
		c-0.7,0-1.3-0.1-2-0.1c-0.3,0-0.6-0.1-1-0.1c-0.7-0.1-1.3-0.2-2-0.2c-0.3,0-0.6-0.1-0.8-0.1c-0.9-0.1-1.8-0.3-2.7-0.5
		c-0.1,0-0.2,0-0.3-0.1c-0.8-0.2-1.6-0.3-2.4-0.5c-0.3-0.1-0.6-0.2-0.9-0.2c-0.6-0.2-1.2-0.3-1.8-0.5c-0.3-0.1-0.6-0.2-0.9-0.3
		c-0.6-0.2-1.2-0.4-1.8-0.6c-0.3-0.1-0.5-0.2-0.8-0.3c-0.8-0.3-1.7-0.6-2.5-1c-0.2-0.1-0.3-0.1-0.5-0.2c-0.7-0.3-1.3-0.6-2-0.9
		c-0.3-0.1-0.6-0.3-0.8-0.4c-0.5-0.3-1.1-0.5-1.6-0.8c-0.3-0.2-0.6-0.3-0.9-0.5c-0.6-0.3-1.1-0.6-1.6-0.9c-0.2-0.1-0.5-0.3-0.7-0.4
		c-0.7-0.5-1.5-0.9-2.2-1.4c-0.2-0.1-0.4-0.3-0.6-0.4c-0.5-0.4-1.1-0.7-1.6-1.1c-0.3-0.2-0.5-0.4-0.8-0.6c-0.4-0.3-0.9-0.7-1.3-1
		c-0.3-0.2-0.5-0.4-0.8-0.6c-0.5-0.4-0.9-0.8-1.4-1.2c-0.2-0.2-0.4-0.4-0.6-0.5c-0.6-0.6-1.2-1.2-1.9-1.8c-0.2-0.2-0.4-0.4-0.6-0.6
		c-0.4-0.4-0.8-0.9-1.2-1.3c-0.2-0.3-0.5-0.5-0.7-0.8c-0.4-0.4-0.7-0.8-1.1-1.2c-0.2-0.3-0.5-0.5-0.7-0.8c-0.4-0.5-0.8-1-1.1-1.4
		c-0.2-0.2-0.3-0.4-0.5-0.6c-0.5-0.7-1-1.4-1.5-2.1c-0.2-0.3-0.4-0.5-0.5-0.8c-0.3-0.5-0.6-0.9-0.9-1.4c-0.2-0.3-0.4-0.6-0.6-0.9
		c-0.3-0.5-0.5-0.9-0.8-1.4c-0.2-0.3-0.4-0.6-0.5-0.9c-0.3-0.6-0.6-1.1-0.9-1.7c-0.1-0.2-0.2-0.5-0.3-0.7c-0.4-0.8-0.7-1.5-1.1-2.3
		c-0.1-0.3-0.3-0.6-0.4-1c-0.2-0.5-0.4-1-0.6-1.5c-0.1-0.4-0.3-0.7-0.4-1.1c-0.1-0.2-0.2-0.4-0.2-0.6c0,0,0,0,0,0
		c-0.4-1.1-0.7-2.3-1.1-3.4c0,0,0,0,0,0c-0.1-0.2-0.1-0.4-0.2-0.6c-0.1-0.3-0.2-0.6-0.2-0.9c-0.2-0.8-0.4-1.6-0.5-2.3
		c0-0.2-0.1-0.4-0.1-0.6c-0.1-0.7-0.3-1.4-0.4-2.1c0-0.3-0.1-0.6-0.1-0.8C8.1,76,8,75.1,7.9,74.3c0-0.1,0-0.2,0-0.2
		c-0.1-0.8-0.1-1.7-0.2-2.5c0-0.2,0-0.5,0-0.7c0-0.9-0.1-1.8-0.1-2.8c0-1,0-2.1,0.1-3.1C9.3,33,35.7,7.6,68,7.6
		c32.3,0,58.8,25.4,60.4,57.3c0.1,1,0.1,2.1,0.1,3.1c0,0.9,0,1.8-0.1,2.8c0,0.2,0,0.5,0,0.7c0,0.8-0.1,1.7-0.2,2.5
		c0,0.1,0,0.1,0,0.2c-0.1,0.9-0.2,1.7-0.3,2.6c0,0.3-0.1,0.5-0.1,0.8c-0.1,0.7-0.2,1.4-0.4,2.2c0,0.2-0.1,0.3-0.1,0.5
		c-0.2,0.8-0.4,1.6-0.6,2.4c-0.1,0.3-0.2,0.6-0.2,0.9c-0.1,0.2-0.1,0.4-0.2,0.6c0,0,0,0,0,0C126,85.4,125.6,86.5,125.2,87.6
		C125.2,87.6,125.2,87.6,125.2,87.6z"/>
	<path class="st0" d="M103.5,50.7v-2.2l-3.3-0.7v2.6h0l0,0.4v26.8c-0.6-0.1-1.2-0.2-1.7-0.3V51.3c0-0.3,0-0.6,0-0.8v-0.4h0v-2.8
		l-3.3-0.7v4.7c-0.1,3-0.8,5.9-2.1,8.6c-2.1,4.5-5.6,8.2-9.8,10.7c-4.6,2.8-9.8,4.2-15.1,4.2c0,0-0.1,0-0.1,0c0,0-0.1,0-0.1,0
		c-5.3,0-10.6-1.4-15.1-4.2c-4.2-2.6-7.7-6.2-9.8-10.7c-1.4-2.9-2.1-6.1-2.1-9.3v-4l-3.3,0.7v29.9c-0.6,0.1-1.2,0.2-1.7,0.3V47.7
		l-3.3,0.7v1.8h0l0,0.4c-0.3,14.7-9.3,27.7-22.7,33.5c0.3,1.1,0.7,2.3,1,3.4c6.9-2.6,14.2-4.6,21.6-6.1v16.8c-4,0.8-8.1,1.7-12,2.9
		c0.6,0.9,1.3,1.8,2,2.7c9-2.5,18.4-3.9,27.6-4.8l-11.1,19.1c1,0.6,1.9,1.1,2.9,1.6l12.2-21c4.1-0.3,8.2-0.4,12.2-0.5v27.6
		c0.5,0,1.1,0,1.7,0c0.6,0,1.1,0,1.7,0V98.4c4.1,0,8.2,0.2,12.2,0.5l12.2,21c1-0.5,2-1,2.9-1.6L85.9,99.1c9.2,0.8,18.6,2.3,27.6,4.8
		c0.7-0.9,1.4-1.8,2-2.7c-3.9-1.2-8-2.1-12-2.9V81.5c7.4,1.5,14.7,3.5,21.6,6.1c0.4-1.1,0.7-2.3,1-3.4
		C112.8,78.4,103.9,65.4,103.5,50.7z M32.5,78.2c-3.7,0.7-7.4,1.6-11,2.6c4.8-4.1,8.5-9.2,11-14.9V78.2z M37.6,97.4
		c-0.6,0.1-1.2,0.2-1.7,0.3V80.8c0.6-0.1,1.2-0.2,1.7-0.3V97.4z M40.9,63c2.4,4.3,6.1,7.9,10.3,10.5c1.1,0.7,2.2,1.2,3.4,1.7
		c-4.6,0.3-9.1,0.8-13.7,1.5V63z M95.2,96.9c-9-1.3-18.1-1.9-27.1-1.9c-9.1,0-18.2,0.6-27.1,1.9V80c9.1-1.3,18.2-2,27.1-2
		c8.9,0,18.1,0.6,27.1,2V96.9z M95.2,76.7c-4.6-0.7-9.1-1.2-13.7-1.5c1.2-0.5,2.3-1.1,3.4-1.8c4.3-2.6,7.9-6.1,10.3-10.5V76.7z
		 M100.2,97.7c-0.6-0.1-1.2-0.2-1.7-0.3V80.5c0.6,0.1,1.2,0.2,1.7,0.3V97.7z M103.5,78.2V65.9c2.5,5.7,6.2,10.8,11,14.9
		C110.9,79.8,107.2,78.9,103.5,78.2z"/>
</g>
<rect x="434.1" y="101.9" class="st2" width="9.2" height="3.9"/>
<text transform="matrix(1 0 0 1 434.0549 105.4202)" class="st3 st4 st5">SM</text>
</svg>
