<?xml version="1.0" encoding="UTF-8"?> <!-- Generator: Adobe Illustrator 21.1.0, SVG Export Plug-In . SVG Version: 6.00 Build 0) --> <svg xmlns="http://www.w3.org/2000/svg" xmlns:xlink="http://www.w3.org/1999/xlink" id="Layer_1" x="0px" y="0px" viewBox="0 0 436.6 186.2" style="enable-background:new 0 0 436.6 186.2;" xml:space="preserve"> <style type="text/css"> .st0{fill:#0F2A4B;} .st1{fill:#39A6DE;} </style> <g> <path class="st0" d="M405.4,114c-0.6,0-1.1-0.1-1.5-0.3c-0.5-0.2-0.9-0.5-1.2-0.8c-0.4-0.4-0.6-0.8-0.8-1.2c-0.2-0.5-0.3-1-0.3-1.5 v0c0-0.5,0.1-1,0.3-1.5c0.2-0.5,0.5-0.9,0.8-1.2c0.4-0.4,0.8-0.6,1.3-0.9c0.5-0.2,1-0.3,1.5-0.3c0.6,0,1.1,0.1,1.5,0.3 c0.5,0.2,0.9,0.5,1.2,0.8c0.4,0.4,0.6,0.8,0.8,1.2c0.2,0.5,0.3,1,0.3,1.5v0c0,0.5-0.1,1-0.3,1.5c-0.2,0.5-0.5,0.9-0.8,1.2 c-0.4,0.4-0.8,0.6-1.3,0.9C406.5,113.9,405.9,114,405.4,114z M405.4,113.6c0.5,0,1-0.1,1.4-0.3c0.4-0.2,0.8-0.4,1.1-0.8 c0.3-0.3,0.6-0.7,0.8-1.1c0.2-0.4,0.3-0.9,0.3-1.4v0c0-0.5-0.1-1-0.3-1.4c-0.2-0.4-0.4-0.8-0.8-1.1c-0.3-0.3-0.7-0.6-1.1-0.8 c-0.4-0.2-0.9-0.3-1.4-0.3c-0.5,0-1,0.1-1.4,0.3c-0.4,0.2-0.8,0.5-1.1,0.8c-0.3,0.3-0.6,0.7-0.8,1.1c-0.2,0.4-0.3,0.9-0.3,1.4v0 c0,0.5,0.1,1,0.3,1.4c0.2,0.4,0.4,0.8,0.7,1.1c0.3,0.3,0.7,0.6,1.1,0.8C404.4,113.6,404.9,113.6,405.4,113.6z M403.9,107.9h1.8 c0.3,0,0.5,0,0.7,0.1c0.2,0.1,0.4,0.2,0.5,0.3c0.1,0.1,0.2,0.2,0.2,0.3c0.1,0.1,0.1,0.3,0.1,0.4v0c0,0.3-0.1,0.6-0.3,0.8 c-0.2,0.2-0.4,0.3-0.7,0.4l1.2,1.6h-0.7l-1.2-1.5h0h-1v1.5h-0.6V107.9z M405.6,109.9c0.3,0,0.5-0.1,0.7-0.2 c0.2-0.1,0.3-0.3,0.3-0.5v0c0-0.2-0.1-0.4-0.2-0.5c-0.2-0.1-0.4-0.2-0.7-0.2h-1.2v1.4H405.6z"></path> </g> <g> <g> <path class="st0" d="M27.9,76.5h16c2.4,0,4.5,0.3,6.4,0.9c1.9,0.6,3.6,1.4,4.9,2.6c1.3,1.1,2.4,2.5,3.1,4.1 c0.7,1.6,1.1,3.5,1.1,5.6v0.1c0,2.2-0.4,4.1-1.2,5.8c-0.8,1.7-1.9,3.1-3.3,4.2c-1.4,1.1-3.1,2-5.1,2.6c-2,0.6-4.1,0.9-6.4,0.9 h-5.1v10.7H27.9V76.5z M43.1,95.1c1.8,0,3.3-0.4,4.3-1.3c1.1-0.9,1.6-2.1,1.6-3.6v-0.1c0-1.6-0.5-2.8-1.6-3.7 c-1-0.8-2.5-1.3-4.4-1.3h-4.9v9.9H43.1z"></path> <path class="st0" d="M67.1,76.5h17.7c2.9,0,5.3,0.4,7.3,1.1c2,0.7,3.6,1.7,4.9,3c2.2,2.1,3.3,5,3.3,8.7v0.1c0,2.9-0.7,5.3-2.1,7.2 c-1.4,1.9-3.3,3.3-5.6,4.3l8.9,13h-12L82,102.5h-0.1h-4.4v11.3H67.1V76.5z M84.3,94.4c1.8,0,3.2-0.4,4.1-1.2 c1-0.8,1.4-1.9,1.4-3.2v-0.1c0-1.5-0.5-2.6-1.5-3.3c-1-0.7-2.4-1.1-4.1-1.1h-6.8v9H84.3z"></path> <path class="st0" d="M127.5,114.6c-2.9,0-5.6-0.5-8-1.5c-2.5-1-4.6-2.4-6.3-4.1c-1.8-1.7-3.2-3.8-4.2-6.1c-1-2.4-1.5-4.9-1.5-7.5 v-0.1c0-2.7,0.5-5.2,1.5-7.6c1-2.4,2.4-4.4,4.3-6.2c1.8-1.8,3.9-3.2,6.4-4.2c2.5-1,5.1-1.5,8-1.5c2.9,0,5.5,0.5,8,1.5 c2.5,1,4.6,2.4,6.4,4.1c1.8,1.7,3.2,3.8,4.2,6.1c1,2.4,1.5,4.9,1.5,7.5v0.1c0,2.7-0.5,5.2-1.5,7.5c-1,2.4-2.4,4.4-4.2,6.2 c-1.8,1.8-3.9,3.1-6.4,4.2C133,114.1,130.4,114.6,127.5,114.6z M127.6,105.3c1.4,0,2.7-0.3,3.9-0.8c1.2-0.5,2.2-1.3,3-2.2 c0.8-0.9,1.5-2,1.9-3.2c0.5-1.2,0.7-2.5,0.7-3.8v-0.1c0-1.4-0.2-2.6-0.7-3.8c-0.5-1.2-1.1-2.3-2-3.2c-0.9-0.9-1.9-1.7-3-2.2 c-1.2-0.6-2.5-0.8-3.9-0.8c-1.4,0-2.7,0.3-3.9,0.8c-1.2,0.5-2.2,1.3-3,2.2c-0.8,0.9-1.5,2-1.9,3.2c-0.4,1.2-0.7,2.5-0.7,3.8v0.1 c0,1.4,0.2,2.6,0.7,3.8c0.5,1.2,1.1,2.3,2,3.2c0.8,0.9,1.8,1.7,3,2.2C124.8,105,126.2,105.3,127.6,105.3z"></path> <path class="st0" d="M170.9,114.5c-3.3,0-6.5-0.5-9.5-1.6c-3-1-5.7-2.6-8-4.7l5.8-6.9c3.7,3,7.8,4.5,12.1,4.5 c1.4,0,2.5-0.2,3.2-0.7c0.7-0.4,1.1-1.1,1.1-1.9v-0.1c0-0.4-0.1-0.7-0.3-1c-0.2-0.3-0.5-0.6-1-0.9c-0.5-0.3-1.1-0.6-1.9-0.8 c-0.8-0.3-1.8-0.5-3.1-0.8c-2-0.5-3.8-1-5.6-1.5c-1.7-0.5-3.2-1.3-4.5-2.1c-1.3-0.9-2.3-2-3-3.3c-0.7-1.3-1.1-2.9-1.1-4.8v-0.1 c0-1.7,0.3-3.3,1-4.8c0.7-1.5,1.6-2.7,2.9-3.8c1.3-1.1,2.8-1.9,4.6-2.5c1.8-0.6,3.8-0.9,6-0.9c3.2,0,6.1,0.4,8.6,1.3 c2.5,0.8,4.8,2.1,6.8,3.7l-5.2,7.3c-1.7-1.2-3.5-2.1-5.3-2.8c-1.8-0.6-3.5-0.9-5.2-0.9c-1.2,0-2.2,0.2-2.8,0.7 c-0.6,0.5-0.9,1-0.9,1.7V87c0,0.4,0.1,0.8,0.3,1.1c0.2,0.3,0.5,0.6,1,0.9c0.5,0.3,1.1,0.5,2,0.8c0.8,0.3,1.9,0.5,3.2,0.8 c2.1,0.5,4.1,1,5.8,1.6c1.7,0.6,3.2,1.4,4.4,2.3c1.2,0.9,2.1,2,2.8,3.2c0.6,1.3,1,2.8,1,4.5v0.1c0,1.9-0.4,3.6-1.1,5.1 c-0.7,1.5-1.8,2.8-3.1,3.8c-1.3,1-2.9,1.8-4.7,2.4C175.3,114.2,173.2,114.5,170.9,114.5z"></path> <path class="st0" d="M194.8,76.5h16c2.3,0,4.5,0.3,6.4,0.9c1.9,0.6,3.6,1.4,4.9,2.6c1.4,1.1,2.4,2.5,3.1,4.1 c0.7,1.6,1.1,3.5,1.1,5.6v0.1c0,2.2-0.4,4.1-1.2,5.8c-0.8,1.7-1.9,3.1-3.3,4.2c-1.4,1.1-3.1,2-5.1,2.6c-2,0.6-4.1,0.9-6.4,0.9 h-5.1v10.7h-10.4V76.5z M210.1,95.1c1.8,0,3.3-0.4,4.4-1.3c1.1-0.9,1.6-2.1,1.6-3.6v-0.1c0-1.6-0.5-2.8-1.6-3.7 c-1-0.8-2.5-1.3-4.4-1.3h-4.9v9.9H210.1z"></path> <path class="st0" d="M233.4,76.5h30v8.8h-19.8v5.7h17.9v8.2h-17.9v5.9h20.1v8.8h-30.3V76.5z"></path> <path class="st0" d="M273.7,76.5h17.7c2.9,0,5.3,0.4,7.3,1.1c2,0.7,3.6,1.7,4.9,3c2.2,2.1,3.3,5,3.3,8.7v0.1 c0,2.9-0.7,5.3-2.1,7.2c-1.4,1.9-3.3,3.3-5.6,4.3l8.9,13h-12l-7.5-11.3h-0.1h-4.4v11.3h-10.4V76.5z M290.9,94.4 c1.8,0,3.2-0.4,4.1-1.2c1-0.8,1.4-1.9,1.4-3.2v-0.1c0-1.5-0.5-2.6-1.5-3.3c-1-0.7-2.4-1.1-4.1-1.1h-6.8v9H290.9z"></path> <path class="st0" d="M316.7,76.5h10.4v37.4h-10.4V76.5z"></path> <path class="st0" d="M345.8,85.6h-11.2v-9.1h32.8v9.1h-11.2v28.3h-10.4V85.6z"></path> <path class="st0" d="M385.4,99.9l-14.2-23.4H383l7.7,13.6l7.7-13.6H410l-14.2,23.2v14.1h-10.4V99.9z"></path> </g> <g> <path class="st0" d="M38.4,37.6H45l10.5,24.9h-7.3L46.3,58h-9.5L35,62.4h-7.2L38.4,37.6z M44.4,52.7l-2.7-7l-2.8,7H44.4z"></path> <path class="st0" d="M63,37.8h7.2l5.9,9.6l5.9-9.6h7.2v24.7h-6.8V48.3l-6.3,9.7H76l-6.3-9.6v14.1H63V37.8z"></path> <path class="st0" d="M100,37.8h19.8v5.8h-13.1v3.7h11.9v5.4h-11.9v3.9H120v5.8h-20V37.8z"></path> <path class="st0" d="M130,37.8h11.7c1.9,0,3.5,0.2,4.8,0.7c1.3,0.5,2.4,1.1,3.2,2c1.5,1.4,2.2,3.3,2.2,5.7v0.1 c0,1.9-0.5,3.5-1.4,4.7c-0.9,1.2-2.2,2.2-3.7,2.9l5.9,8.6h-7.9l-5-7.5h-0.1h-2.9v7.5H130V37.8z M141.4,49.6c1.2,0,2.1-0.3,2.7-0.8 c0.6-0.5,1-1.2,1-2.1v-0.1c0-1-0.3-1.7-1-2.2c-0.7-0.5-1.6-0.7-2.7-0.7h-4.5v5.9H141.4z"></path> <path class="st0" d="M161.3,37.8h6.9v24.7h-6.9V37.8z"></path> <path class="st0" d="M190.3,62.9c-1.8,0-3.4-0.3-5-1c-1.6-0.6-2.9-1.5-4-2.7c-1.1-1.1-2.1-2.5-2.7-4.1c-0.7-1.6-1-3.3-1-5.1v-0.1 c0-1.8,0.3-3.5,1-5c0.7-1.6,1.6-2.9,2.7-4.1c1.2-1.2,2.5-2.1,4.1-2.7c1.6-0.7,3.3-1,5.2-1c1.3,0,2.4,0.1,3.5,0.4 c1,0.2,2,0.6,2.8,1.1c0.9,0.5,1.6,1,2.3,1.6c0.7,0.6,1.3,1.3,1.9,2.1l-5.1,4c-0.7-0.9-1.5-1.6-2.3-2.1c-0.8-0.5-1.9-0.8-3.1-0.8 c-0.9,0-1.7,0.2-2.4,0.5c-0.7,0.3-1.3,0.8-1.8,1.4c-0.5,0.6-0.9,1.3-1.2,2.1c-0.3,0.8-0.4,1.6-0.4,2.5v0.1c0,0.9,0.1,1.8,0.4,2.6 c0.3,0.8,0.7,1.5,1.2,2.1c0.5,0.6,1.1,1.1,1.8,1.4c0.7,0.3,1.5,0.5,2.4,0.5c0.6,0,1.2-0.1,1.7-0.2c0.5-0.1,1-0.3,1.4-0.6 c0.4-0.3,0.8-0.6,1.2-1c0.4-0.4,0.8-0.8,1.1-1.2l5.1,3.7c-0.6,0.8-1.2,1.5-1.9,2.2c-0.7,0.7-1.5,1.3-2.4,1.8 c-0.9,0.5-1.9,0.9-3,1.2C192.9,62.8,191.7,62.9,190.3,62.9z"></path> <path class="st0" d="M217.2,37.6h6.6l10.5,24.9h-7.3l-1.8-4.4h-9.5l-1.8,4.4h-7.2L217.2,37.6z M223.2,52.7l-2.7-7l-2.8,7H223.2z"></path> <path class="st0" d="M241.4,37.8h6.4l10.2,13v-13h6.7v24.7h-6l-10.6-13.5v13.5h-6.7V37.8z"></path> <path class="st0" d="M285,62.9c-2.2,0-4.3-0.3-6.3-1c-2-0.7-3.7-1.7-5.3-3.1l3.8-4.6c2.5,2,5.1,3,8,3c0.9,0,1.6-0.1,2.1-0.4 c0.5-0.3,0.7-0.7,0.7-1.3v-0.1c0-0.3-0.1-0.5-0.2-0.7c-0.1-0.2-0.3-0.4-0.7-0.6c-0.3-0.2-0.7-0.4-1.3-0.5 c-0.5-0.2-1.2-0.4-2.1-0.5c-1.3-0.3-2.5-0.6-3.7-1c-1.1-0.4-2.1-0.8-2.9-1.4c-0.8-0.6-1.5-1.3-2-2.1c-0.5-0.9-0.7-1.9-0.7-3.2 v-0.1c0-1.1,0.2-2.2,0.7-3.2c0.4-1,1.1-1.8,1.9-2.5c0.8-0.7,1.8-1.2,3-1.6c1.2-0.4,2.5-0.6,4-0.6c2.1,0,4,0.3,5.7,0.8 c1.7,0.6,3.2,1.4,4.5,2.5l-3.4,4.8c-1.1-0.8-2.3-1.4-3.5-1.8c-1.2-0.4-2.3-0.6-3.4-0.6c-0.8,0-1.4,0.2-1.9,0.5 c-0.4,0.3-0.6,0.7-0.6,1.1v0.1c0,0.3,0.1,0.5,0.2,0.7c0.1,0.2,0.4,0.4,0.7,0.6c0.3,0.2,0.8,0.4,1.3,0.5c0.6,0.2,1.3,0.4,2.1,0.5 c1.4,0.3,2.7,0.7,3.8,1.1c1.1,0.4,2.1,0.9,2.9,1.5c0.8,0.6,1.4,1.3,1.8,2.1c0.4,0.8,0.6,1.8,0.6,3v0.1c0,1.3-0.2,2.4-0.7,3.4 c-0.5,1-1.2,1.8-2,2.5c-0.9,0.7-1.9,1.2-3.1,1.6C287.9,62.7,286.5,62.9,285,62.9z"></path> <path class="st0" d="M322.7,37.8h19.7v6h-12.9v4.2h11.7v5.7h-11.7v8.8h-6.8V37.8z"></path> <path class="st0" d="M363.5,62.9c-1.9,0-3.7-0.3-5.3-1c-1.6-0.7-3-1.6-4.2-2.7c-1.2-1.1-2.1-2.5-2.8-4.1c-0.7-1.6-1-3.2-1-5v-0.1 c0-1.8,0.3-3.4,1-5c0.7-1.6,1.6-2.9,2.8-4.1c1.2-1.2,2.6-2.1,4.2-2.7c1.6-0.7,3.4-1,5.3-1c1.9,0,3.7,0.3,5.3,1 c1.6,0.7,3,1.6,4.2,2.7c1.2,1.2,2.1,2.5,2.8,4.1c0.7,1.6,1,3.2,1,5v0.1c0,1.8-0.3,3.4-1,5c-0.7,1.6-1.6,2.9-2.8,4.1 c-1.2,1.2-2.6,2.1-4.2,2.8C367.1,62.6,365.4,62.9,363.5,62.9z M363.5,56.8c0.9,0,1.8-0.2,2.6-0.5c0.8-0.4,1.4-0.8,2-1.4 c0.5-0.6,1-1.3,1.3-2.1c0.3-0.8,0.5-1.6,0.5-2.5v-0.1c0-0.9-0.2-1.7-0.5-2.5c-0.3-0.8-0.7-1.5-1.3-2.1c-0.6-0.6-1.2-1.1-2-1.5 c-0.8-0.4-1.6-0.5-2.6-0.5c-0.9,0-1.8,0.2-2.6,0.5c-0.8,0.4-1.4,0.8-2,1.4c-0.6,0.6-1,1.3-1.3,2.1c-0.3,0.8-0.4,1.6-0.4,2.5v0.1 c0,0.9,0.1,1.7,0.5,2.5c0.3,0.8,0.7,1.5,1.3,2.1c0.6,0.6,1.2,1.1,2,1.5C361.7,56.6,362.6,56.8,363.5,56.8z"></path> <path class="st0" d="M385.4,37.8H397c1.9,0,3.5,0.2,4.8,0.7c1.3,0.5,2.4,1.1,3.2,2c1.5,1.4,2.2,3.3,2.2,5.7v0.1 c0,1.9-0.5,3.5-1.4,4.7c-0.9,1.2-2.2,2.2-3.7,2.9l5.9,8.6h-7.9l-5-7.5h-0.1h-2.9v7.5h-6.8V37.8z M396.7,49.6 c1.2,0,2.1-0.3,2.7-0.8c0.6-0.5,1-1.2,1-2.1v-0.1c0-1-0.3-1.7-1-2.2c-0.7-0.5-1.6-0.7-2.7-0.7h-4.5v5.9H396.7z"></path> </g> </g> <g> <path class="st1" d="M139.1,145c1.2,0,1.8-0.1,2.9-0.1c0-2.1,0-3.1,0-5.2c2.6-0.1,3.8-0.1,6.4-0.2c0-1.1,0-1.6,0-2.7 c-2.6,0.1-3.8,0.1-6.4,0.2c0-1.1,0-1.7,0-2.8c2.9-0.1,4.3-0.1,7.2-0.2c0-1.1,0-1.6,0-2.7c-4.1,0.1-6.1,0.2-10.2,0.3 C139.1,137,139.1,139.7,139.1,145z"></path> <path class="st1" d="M160.9,130.9c-4.1,0.1-7.1,3.3-7.1,7.1c0,0,0,0,0,0c0,3.8,3,6.8,7.1,6.7c4.1-0.1,7.1-3.3,7.1-7.1c0,0,0,0,0,0 C167.9,133.8,165,130.8,160.9,130.9z M164.9,137.7c0,2.3-1.6,4.2-4,4.2c-2.4,0.1-4-1.8-4-4.1c0,0,0,0,0,0c0-2.3,1.6-4.2,4-4.3 C163.2,133.5,164.9,135.4,164.9,137.7C164.9,137.7,164.9,137.7,164.9,137.7z"></path> <path class="st1" d="M182.2,138.3c0,2.1-1.1,3.2-2.9,3.2c-1.8,0-2.9-1.1-2.9-3.3c0-3,0-4.5,0-7.6c-1.2,0-1.8,0-2.9,0.1 c0,3.1,0,4.6,0,7.6c0,3.9,2.2,5.9,5.8,5.8c3.6-0.1,5.9-2.1,5.9-6.1c0-3,0-4.5,0-7.5c-1.2,0-1.8,0-2.9,0 C182.2,133.8,182.2,135.3,182.2,138.3z"></path> <path class="st1" d="M200.4,138.7c-2.5-3.3-3.8-4.9-6.3-8.2c-1.1,0-1.6,0-2.7,0c0,5.3,0,8,0,13.4c1.2,0,1.7,0,2.9,0 c0-3.4,0-5.1,0-8.5c2.6,3.4,3.9,5.1,6.5,8.4c1,0,1.5,0,2.5,0c0-5.3,0-8,0-13.4c-1.2,0-1.7,0-2.9,0 C200.4,133.8,200.4,135.4,200.4,138.7z"></path> <path class="st1" d="M215,130.4c-2.1,0-3.1,0-5.2,0c0,5.3,0,8,0,13.4c2.1,0,3.1,0,5.2,0c4.2,0,7.1-2.9,7.1-6.7c0,0,0,0,0,0 C222.1,133.3,219.2,130.4,215,130.4z M219,137.1c0,2.4-1.6,4-4,4c-0.9,0-1.4,0-2.3,0c0-3.2,0-4.8,0-8.1c0.9,0,1.4,0,2.3,0 C217.4,133.1,219,134.7,219,137.1C219,137.1,219,137.1,219,137.1z"></path> <path class="st1" d="M231.6,130.4c-2.3,5.4-3.4,8.1-5.7,13.4c1.2,0,1.8,0,3,0c0.5-1.2,0.7-1.8,1.2-3c2.3,0,3.4,0,5.7,0 c0.5,1.2,0.7,1.8,1.2,3c1.2,0,1.8,0,3.1,0c-2.3-5.4-3.4-8.1-5.7-13.5C233.2,130.4,232.6,130.4,231.6,130.4z M231.1,138.2 c0.7-1.7,1.1-2.6,1.8-4.3c0.7,1.7,1.1,2.6,1.8,4.3C233.2,138.2,232.5,138.2,231.1,138.2z"></path> <path class="st1" d="M242.6,133.2c1.6,0,2.4,0,4.1,0c0,4.3,0,6.4,0,10.7c1.2,0,1.8,0,2.9,0c0-4.3,0-6.4,0-10.7c1.6,0,2.4,0,4.1,0.1 c0-1.1,0-1.6,0-2.7c-4.4-0.1-6.6-0.1-11.1-0.1C242.6,131.6,242.6,132.2,242.6,133.2z"></path> <path class="st1" d="M258.9,144.1c1.2,0,1.8,0,2.9,0c0-5.3,0-8,0-13.4c-1.2,0-1.8,0-2.9,0C258.9,136.1,258.9,138.8,258.9,144.1z"></path> <path class="st1" d="M274.8,130.8c-4.1-0.1-7.1,3-7.1,6.8c0,0,0,0,0,0c0,3.8,3,6.9,7.1,7c4.1,0.1,7.1-2.9,7.1-6.7c0,0,0,0,0,0 C281.9,134,278.9,130.9,274.8,130.8z M274.8,141.9c-2.4-0.1-4-2-4-4.3c0,0,0,0,0,0c0-2.3,1.6-4.1,4-4.1c2.4,0.1,4,2,4,4.3 c0,0,0,0,0,0C278.8,140.1,277.2,142,274.8,141.9z"></path> <path class="st1" d="M296.6,139.8c-2.5-3.4-3.8-5-6.3-8.4c-1.1,0-1.6,0-2.7-0.1c0,5.3,0,8,0,13.4c1.2,0,1.7,0,2.9,0.1 c0-3.4,0-5.1,0-8.5c2.6,3.5,3.9,5.2,6.5,8.7c1,0,1.5,0,2.5,0.1c0-5.3,0-8,0-13.4c-1.2,0-1.7-0.1-2.9-0.1 C296.6,134.9,296.6,136.5,296.6,139.8z"></path> <path class="st1" d="M127.9,136.9L127.9,136.9L127.9,136.9c-38,2.5-75.3,6.4-111.5,11.7c36.5-3,73.7-5.3,111.5-6.7l0,0 c1.4,0,2.5-1.1,2.5-2.5S129.3,136.9,127.9,136.9z"></path> <path class="st1" d="M309.9,136.9L309.9,136.9L309.9,136.9c-1.4,0-2.5,1.1-2.5,2.5s1.1,2.5,2.5,2.5l0,0c37.8,1.4,75,3.6,111.5,6.7 C385.2,143.4,348,139.4,309.9,136.9z"></path> </g> </svg> 