<?xml version="1.0" encoding="utf-8"?>
<!-- Generator: Adobe Illustrator 21.1.0, SVG Export Plug-In . SVG Version: 6.00 Build 0)  -->
<svg version="1.1" id="Layer_1" xmlns="http://www.w3.org/2000/svg" xmlns:xlink="http://www.w3.org/1999/xlink" x="0px" y="0px"
	 viewBox="0 0 288 144" style="enable-background:new 0 0 288 144;" xml:space="preserve">
<style type="text/css">
	.st0{fill:#FFFFFF;}
</style>
<g>
	<path class="st0" d="M268.4,85.9c-0.4,0-0.7-0.1-1-0.2c-0.3-0.1-0.6-0.3-0.8-0.6c-0.2-0.2-0.4-0.5-0.6-0.8c-0.1-0.3-0.2-0.7-0.2-1
		v0c0-0.4,0.1-0.7,0.2-1c0.1-0.3,0.3-0.6,0.6-0.8c0.2-0.2,0.5-0.4,0.8-0.6c0.3-0.1,0.7-0.2,1-0.2c0.4,0,0.7,0.1,1,0.2
		c0.3,0.1,0.6,0.3,0.8,0.6c0.2,0.2,0.4,0.5,0.6,0.8c0.1,0.3,0.2,0.7,0.2,1v0c0,0.4-0.1,0.7-0.2,1c-0.1,0.3-0.3,0.6-0.6,0.8
		c-0.2,0.2-0.5,0.4-0.8,0.6C269.2,85.9,268.8,85.9,268.4,85.9z M268.4,85.7c0.3,0,0.7-0.1,1-0.2c0.3-0.1,0.6-0.3,0.8-0.5
		c0.2-0.2,0.4-0.5,0.5-0.8c0.1-0.3,0.2-0.6,0.2-0.9v0c0-0.3-0.1-0.6-0.2-0.9c-0.1-0.3-0.3-0.6-0.5-0.8c-0.2-0.2-0.5-0.4-0.8-0.5
		c-0.3-0.1-0.6-0.2-1-0.2c-0.3,0-0.7,0.1-1,0.2c-0.3,0.1-0.6,0.3-0.8,0.5c-0.2,0.2-0.4,0.5-0.5,0.8c-0.1,0.3-0.2,0.6-0.2,0.9v0
		c0,0.3,0.1,0.6,0.2,0.9c0.1,0.3,0.3,0.6,0.5,0.8c0.2,0.2,0.5,0.4,0.8,0.5C267.8,85.6,268.1,85.7,268.4,85.7z M267.4,81.8h1.2
		c0.2,0,0.3,0,0.5,0.1c0.1,0.1,0.3,0.1,0.3,0.2c0.1,0.1,0.1,0.1,0.2,0.2c0,0.1,0.1,0.2,0.1,0.3v0c0,0.2-0.1,0.4-0.2,0.5
		c-0.1,0.1-0.3,0.2-0.5,0.3l0.8,1.1h-0.5l-0.8-1h0h-0.7v1h-0.4V81.8z M268.6,83.2c0.2,0,0.3,0,0.5-0.1c0.1-0.1,0.2-0.2,0.2-0.4v0
		c0-0.1-0.1-0.3-0.2-0.3c-0.1-0.1-0.3-0.1-0.5-0.1h-0.8v1H268.6z"/>
	<g>
		<g>
			<path class="st0" d="M13,60.6h10.8c1.6,0,3,0.2,4.3,0.6c1.3,0.4,2.4,1,3.3,1.7c0.9,0.8,1.6,1.7,2.1,2.8c0.5,1.1,0.7,2.4,0.7,3.8
				v0.1c0,1.5-0.3,2.8-0.8,3.9c-0.5,1.1-1.3,2.1-2.3,2.9c-1,0.8-2.1,1.3-3.4,1.7c-1.3,0.4-2.8,0.6-4.3,0.6H20v7.2h-7V60.6z
				 M23.4,73.1c1.3,0,2.2-0.3,2.9-0.9c0.7-0.6,1.1-1.4,1.1-2.4v-0.1c0-1.1-0.4-1.9-1.1-2.5c-0.7-0.6-1.7-0.9-3-0.9H20v6.7H23.4z"/>
			<path class="st0" d="M39.6,60.6h12c2,0,3.6,0.2,5,0.7c1.3,0.5,2.4,1.2,3.3,2c1.5,1.5,2.2,3.4,2.2,5.9v0.1c0,2-0.5,3.6-1.4,4.8
				c-0.9,1.3-2.2,2.3-3.8,2.9l6,8.8h-8.1l-5.1-7.7h-0.1h-3v7.7h-7V60.6z M51.2,72.7c1.2,0,2.1-0.3,2.8-0.8c0.7-0.5,1-1.3,1-2.2v-0.1
				c0-1-0.3-1.8-1-2.3c-0.7-0.5-1.6-0.7-2.8-0.7h-4.6v6.1H51.2z"/>
			<path class="st0" d="M80.4,86.3c-2,0-3.8-0.3-5.4-1c-1.7-0.7-3.1-1.6-4.3-2.8c-1.2-1.2-2.2-2.6-2.8-4.2c-0.7-1.6-1-3.3-1-5.1
				v-0.1c0-1.8,0.3-3.5,1-5.1c0.7-1.6,1.6-3,2.9-4.2c1.2-1.2,2.7-2.1,4.3-2.8c1.7-0.7,3.5-1,5.4-1c1.9,0,3.8,0.3,5.4,1
				c1.7,0.7,3.1,1.6,4.3,2.8c1.2,1.2,2.1,2.6,2.8,4.2c0.7,1.6,1,3.3,1,5.1v0.1c0,1.8-0.3,3.5-1,5.1c-0.7,1.6-1.6,3-2.9,4.2
				c-1.2,1.2-2.7,2.1-4.3,2.8C84.2,86,82.4,86.3,80.4,86.3z M80.5,80c1,0,1.8-0.2,2.6-0.5c0.8-0.4,1.5-0.8,2-1.5
				c0.6-0.6,1-1.3,1.3-2.2c0.3-0.8,0.5-1.7,0.5-2.6v-0.1c0-0.9-0.2-1.8-0.5-2.6c-0.3-0.8-0.8-1.5-1.3-2.2c-0.6-0.6-1.3-1.1-2.1-1.5
				c-0.8-0.4-1.7-0.6-2.6-0.6c-1,0-1.8,0.2-2.6,0.5c-0.8,0.4-1.5,0.8-2,1.5c-0.6,0.6-1,1.3-1.3,2.1c-0.3,0.8-0.4,1.7-0.4,2.6v0.1
				c0,0.9,0.2,1.8,0.5,2.6c0.3,0.8,0.8,1.5,1.3,2.2c0.6,0.6,1.2,1.1,2,1.5C78.6,79.8,79.5,80,80.5,80z"/>
			<path class="st0" d="M109.8,86.3c-2.3,0-4.4-0.4-6.4-1.1c-2-0.7-3.8-1.8-5.4-3.2l3.9-4.7c2.5,2,5.3,3,8.2,3
				c0.9,0,1.7-0.1,2.2-0.4c0.5-0.3,0.7-0.7,0.7-1.3v-0.1c0-0.3-0.1-0.5-0.2-0.7c-0.1-0.2-0.3-0.4-0.7-0.6c-0.3-0.2-0.8-0.4-1.3-0.6
				c-0.5-0.2-1.2-0.4-2.1-0.6c-1.3-0.3-2.6-0.7-3.8-1c-1.2-0.4-2.2-0.8-3-1.4c-0.9-0.6-1.5-1.3-2-2.2c-0.5-0.9-0.7-2-0.7-3.3v-0.1
				c0-1.2,0.2-2.3,0.7-3.2c0.4-1,1.1-1.8,1.9-2.6c0.9-0.7,1.9-1.3,3.1-1.7c1.2-0.4,2.6-0.6,4.1-0.6c2.2,0,4.1,0.3,5.8,0.9
				c1.7,0.6,3.2,1.4,4.6,2.5l-3.5,5c-1.2-0.8-2.3-1.4-3.6-1.9c-1.2-0.4-2.4-0.6-3.5-0.6c-0.8,0-1.5,0.2-1.9,0.5
				c-0.4,0.3-0.6,0.7-0.6,1.2v0.1c0,0.3,0.1,0.5,0.2,0.8c0.1,0.2,0.4,0.4,0.7,0.6c0.3,0.2,0.8,0.4,1.3,0.5c0.6,0.2,1.3,0.4,2.1,0.6
				c1.4,0.3,2.8,0.7,3.9,1.1c1.2,0.4,2.2,0.9,3,1.5c0.8,0.6,1.4,1.3,1.9,2.2c0.4,0.8,0.6,1.9,0.6,3V78c0,1.3-0.2,2.5-0.7,3.5
				c-0.5,1-1.2,1.9-2.1,2.6c-0.9,0.7-2,1.3-3.2,1.6C112.8,86.1,111.4,86.3,109.8,86.3z"/>
			<path class="st0" d="M126,60.6h10.8c1.6,0,3,0.2,4.3,0.6c1.3,0.4,2.4,1,3.3,1.7c0.9,0.8,1.6,1.7,2.1,2.8c0.5,1.1,0.7,2.4,0.7,3.8
				v0.1c0,1.5-0.3,2.8-0.8,3.9c-0.5,1.1-1.3,2.1-2.3,2.9c-1,0.8-2.1,1.3-3.5,1.7c-1.3,0.4-2.8,0.6-4.4,0.6H133v7.2h-7V60.6z
				 M136.3,73.1c1.3,0,2.2-0.3,2.9-0.9c0.7-0.6,1.1-1.4,1.1-2.4v-0.1c0-1.1-0.4-1.9-1.1-2.5c-0.7-0.6-1.7-0.9-3-0.9H133v6.7H136.3z"
				/>
			<path class="st0" d="M152.1,60.6h20.3v6H159v3.8h12.1v5.5H159v4h13.6v6h-20.5V60.6z"/>
			<path class="st0" d="M179.4,60.6h12c2,0,3.6,0.2,4.9,0.7c1.4,0.5,2.4,1.2,3.3,2c1.5,1.4,2.2,3.4,2.2,5.9v0.1c0,2-0.5,3.6-1.4,4.8
				c-0.9,1.3-2.2,2.3-3.8,2.9l6,8.8h-8.1l-5.1-7.7h-0.1h-3v7.7h-7V60.6z M191,72.7c1.2,0,2.1-0.3,2.8-0.8c0.7-0.5,1-1.3,1-2.2v-0.1
				c0-1-0.3-1.8-1-2.3c-0.7-0.5-1.6-0.7-2.8-0.7h-4.6v6.1H191z"/>
			<path class="st0" d="M208.4,60.6h7v25.3h-7V60.6z"/>
			<path class="st0" d="M228.1,66.7h-7.6v-6.1h22.2v6.1h-7.6v19.1h-7V66.7z"/>
			<path class="st0" d="M254.9,76.4l-9.6-15.8h8l5.2,9.2l5.2-9.2h7.8L262,76.3v9.6h-7V76.4z"/>
		</g>
		<g>
			<path class="st0" d="M20.1,34.2h4.5l7.1,16.8h-5l-1.2-3h-6.4l-1.2,3H13L20.1,34.2z M24.2,44.5l-1.9-4.7l-1.9,4.7H24.2z"/>
			<path class="st0" d="M36.8,34.4h4.9l4,6.5l4-6.5h4.9v16.7H50v-9.6L45.7,48h-0.1l-4.2-6.5v9.5h-4.6V34.4z"/>
			<path class="st0" d="M61.8,34.4h13.4v3.9h-8.9v2.5h8v3.6h-8v2.6h9v3.9H61.8V34.4z"/>
			<path class="st0" d="M82.1,34.4H90c1.3,0,2.4,0.2,3.3,0.5c0.9,0.3,1.6,0.8,2.2,1.3c1,1,1.5,2.2,1.5,3.9v0c0,1.3-0.3,2.4-0.9,3.2
				c-0.6,0.8-1.5,1.5-2.5,1.9l4,5.8h-5.3L88.8,46h0h-2v5.1h-4.6V34.4z M89.8,42.4c0.8,0,1.4-0.2,1.8-0.5c0.4-0.4,0.6-0.8,0.6-1.4v0
				c0-0.7-0.2-1.2-0.7-1.5c-0.4-0.3-1.1-0.5-1.8-0.5h-3v4H89.8z"/>
			<path class="st0" d="M103.3,34.4h4.7v16.7h-4.7V34.4z"/>
			<path class="st0" d="M122.9,51.4c-1.2,0-2.3-0.2-3.4-0.6c-1.1-0.4-2-1-2.7-1.8c-0.8-0.8-1.4-1.7-1.8-2.7
				c-0.5-1.1-0.7-2.2-0.7-3.4v0c0-1.2,0.2-2.3,0.7-3.4c0.4-1.1,1.1-2,1.8-2.8c0.8-0.8,1.7-1.4,2.8-1.8c1.1-0.4,2.2-0.7,3.5-0.7
				c0.9,0,1.6,0.1,2.3,0.2c0.7,0.2,1.3,0.4,1.9,0.7c0.6,0.3,1.1,0.7,1.6,1.1c0.5,0.4,0.9,0.9,1.3,1.4l-3.5,2.7
				c-0.5-0.6-1-1.1-1.6-1.4c-0.6-0.3-1.3-0.5-2.1-0.5c-0.6,0-1.1,0.1-1.6,0.3c-0.5,0.2-0.9,0.5-1.2,0.9c-0.4,0.4-0.6,0.9-0.8,1.4
				c-0.2,0.5-0.3,1.1-0.3,1.7v0c0,0.6,0.1,1.2,0.3,1.8c0.2,0.5,0.5,1,0.8,1.4c0.3,0.4,0.8,0.7,1.2,0.9c0.5,0.2,1,0.3,1.6,0.3
				c0.4,0,0.8,0,1.2-0.1c0.4-0.1,0.7-0.2,1-0.4c0.3-0.2,0.6-0.4,0.8-0.6c0.3-0.2,0.5-0.5,0.8-0.8l3.5,2.5c-0.4,0.5-0.8,1-1.3,1.5
				c-0.5,0.5-1,0.9-1.6,1.2c-0.6,0.3-1.3,0.6-2,0.8C124.7,51.3,123.9,51.4,122.9,51.4z"/>
			<path class="st0" d="M141.1,34.2h4.5l7.1,16.8h-5l-1.2-3h-6.4l-1.2,3H134L141.1,34.2z M145.2,44.5l-1.9-4.7l-1.9,4.7H145.2z"/>
			<path class="st0" d="M157.5,34.4h4.3l6.9,8.8v-8.8h4.6v16.7h-4.1l-7.1-9.2v9.2h-4.6V34.4z"/>
			<path class="st0" d="M187,51.3c-1.5,0-2.9-0.2-4.3-0.7c-1.3-0.5-2.5-1.2-3.6-2.1l2.6-3.1c1.7,1.3,3.5,2,5.4,2
				c0.6,0,1.1-0.1,1.4-0.3c0.3-0.2,0.5-0.5,0.5-0.8v0c0-0.2,0-0.3-0.1-0.5c-0.1-0.1-0.2-0.3-0.4-0.4c-0.2-0.1-0.5-0.2-0.9-0.4
				c-0.4-0.1-0.8-0.2-1.4-0.4c-0.9-0.2-1.7-0.4-2.5-0.7c-0.8-0.2-1.4-0.6-2-1c-0.6-0.4-1-0.9-1.3-1.5c-0.3-0.6-0.5-1.3-0.5-2.2v0
				c0-0.8,0.1-1.5,0.4-2.1c0.3-0.6,0.7-1.2,1.3-1.7c0.6-0.5,1.2-0.8,2-1.1c0.8-0.3,1.7-0.4,2.7-0.4c1.4,0,2.7,0.2,3.8,0.6
				c1.1,0.4,2.1,0.9,3,1.7l-2.3,3.3c-0.8-0.5-1.5-1-2.4-1.2c-0.8-0.3-1.6-0.4-2.3-0.4c-0.6,0-1,0.1-1.3,0.3
				c-0.3,0.2-0.4,0.5-0.4,0.8v0c0,0.2,0,0.4,0.1,0.5c0.1,0.1,0.2,0.3,0.5,0.4c0.2,0.1,0.5,0.2,0.9,0.4c0.4,0.1,0.8,0.2,1.4,0.4
				c0.9,0.2,1.8,0.4,2.6,0.7c0.8,0.3,1.4,0.6,2,1c0.5,0.4,1,0.9,1.2,1.4c0.3,0.6,0.4,1.2,0.4,2v0c0,0.9-0.2,1.6-0.5,2.3
				c-0.3,0.7-0.8,1.2-1.4,1.7c-0.6,0.5-1.3,0.8-2.1,1.1C188.9,51.2,188,51.3,187,51.3z"/>
			<path class="st0" d="M212.5,34.4h13.4v4.1h-8.7v2.8h7.9v3.9h-7.9v6h-4.6V34.4z"/>
			<path class="st0" d="M240.1,51.4c-1.3,0-2.5-0.2-3.6-0.7c-1.1-0.5-2-1.1-2.8-1.8c-0.8-0.8-1.4-1.7-1.9-2.7
				c-0.5-1-0.7-2.2-0.7-3.4v0c0-1.2,0.2-2.3,0.7-3.4c0.5-1.1,1.1-2,1.9-2.8c0.8-0.8,1.8-1.4,2.9-1.9c1.1-0.5,2.3-0.7,3.6-0.7
				c1.3,0,2.5,0.2,3.6,0.7c1.1,0.5,2,1.1,2.8,1.8c0.8,0.8,1.4,1.7,1.9,2.7c0.5,1.1,0.7,2.2,0.7,3.4v0c0,1.2-0.2,2.3-0.7,3.4
				c-0.5,1.1-1.1,2-1.9,2.8c-0.8,0.8-1.8,1.4-2.9,1.9C242.6,51.2,241.4,51.4,240.1,51.4z M240.1,47.2c0.6,0,1.2-0.1,1.7-0.4
				c0.5-0.2,1-0.6,1.3-1c0.4-0.4,0.6-0.9,0.9-1.4c0.2-0.5,0.3-1.1,0.3-1.7v0c0-0.6-0.1-1.2-0.3-1.7c-0.2-0.5-0.5-1-0.9-1.4
				c-0.4-0.4-0.8-0.7-1.4-1c-0.5-0.2-1.1-0.4-1.7-0.4c-0.6,0-1.2,0.1-1.7,0.4c-0.5,0.2-1,0.6-1.3,1c-0.4,0.4-0.7,0.9-0.9,1.4
				c-0.2,0.5-0.3,1.1-0.3,1.7v0c0,0.6,0.1,1.2,0.3,1.7c0.2,0.5,0.5,1,0.9,1.4c0.4,0.4,0.8,0.7,1.4,1
				C238.9,47.1,239.5,47.2,240.1,47.2z"/>
			<path class="st0" d="M254.9,34.4h7.9c1.3,0,2.4,0.2,3.3,0.5c0.9,0.3,1.6,0.8,2.2,1.3c1,1,1.5,2.2,1.5,3.9v0
				c0,1.3-0.3,2.4-0.9,3.2c-0.6,0.8-1.5,1.5-2.5,1.9l4,5.8h-5.3l-3.4-5.1h0h-2v5.1h-4.6V34.4z M262.6,42.4c0.8,0,1.4-0.2,1.8-0.5
				c0.4-0.4,0.6-0.8,0.6-1.4v0c0-0.7-0.2-1.2-0.7-1.5c-0.4-0.3-1.1-0.5-1.8-0.5h-3v4H262.6z"/>
		</g>
	</g>
	<g>
		<path class="st0" d="M88.3,106.9c0.8,0,1.2,0,2-0.1c0-1.4,0-2.1,0-3.5c1.7-0.1,2.6-0.1,4.3-0.1c0-0.7,0-1.1,0-1.8
			c-1.7,0-2.6,0.1-4.3,0.1c0-0.8,0-1.2,0-1.9c2-0.1,2.9-0.1,4.9-0.1c0-0.7,0-1.1,0-1.8c-2.8,0.1-4.1,0.1-6.9,0.2
			C88.3,101.5,88.3,103.3,88.3,106.9z"/>
		<path class="st0" d="M103,97.3c-2.8,0.1-4.8,2.2-4.8,4.8c0,0,0,0,0,0c0,2.6,2,4.6,4.8,4.5c2.8-0.1,4.8-2.2,4.8-4.8c0,0,0,0,0,0
			C107.8,99.3,105.8,97.3,103,97.3z M105.7,102c0,1.5-1.1,2.8-2.7,2.9c-1.6,0-2.7-1.2-2.7-2.8c0,0,0,0,0,0c0-1.5,1.1-2.8,2.7-2.9
			C104.6,99.1,105.7,100.4,105.7,102C105.7,102,105.7,102,105.7,102z"/>
		<path class="st0" d="M117.4,102.4c0,1.4-0.7,2.2-1.9,2.2c-1.2,0-2-0.7-2-2.2c0-2,0-3.1,0-5.1c-0.8,0-1.2,0-2,0c0,2.1,0,3.1,0,5.2
			c0,2.7,1.5,4,3.9,3.9c2.4,0,4-1.4,4-4.1c0-2,0-3.1,0-5.1c-0.8,0-1.2,0-2,0C117.4,99.3,117.4,100.3,117.4,102.4z"/>
		<path class="st0" d="M129.8,102.7c-1.7-2.2-2.5-3.3-4.2-5.5c-0.7,0-1.1,0-1.8,0c0,3.6,0,5.4,0,9c0.8,0,1.2,0,2,0
			c0-2.3,0-3.4,0-5.7c1.8,2.3,2.6,3.4,4.4,5.7c0.7,0,1,0,1.7,0c0-3.6,0-5.4,0-9c-0.8,0-1.2,0-2,0
			C129.8,99.3,129.8,100.4,129.8,102.7z"/>
		<path class="st0" d="M139.6,97.1c-1.4,0-2.1,0-3.5,0c0,3.6,0,5.4,0,9c1.4,0,2.1,0,3.5,0c2.8,0,4.8-2,4.8-4.5c0,0,0,0,0,0
			C144.4,99,142.5,97,139.6,97.1z M142.3,101.6c0,1.6-1.1,2.7-2.7,2.7c-0.6,0-0.9,0-1.5,0c0-2.2,0-3.3,0-5.5c0.6,0,0.9,0,1.5,0
			C141.2,98.8,142.3,100,142.3,101.6C142.3,101.6,142.3,101.6,142.3,101.6z"/>
		<path class="st0" d="M150.8,97c-1.5,3.6-2.3,5.5-3.9,9.1c0.8,0,1.2,0,2,0c0.3-0.8,0.5-1.2,0.8-2c1.5,0,2.3,0,3.8,0
			c0.3,0.8,0.5,1.2,0.8,2c0.8,0,1.2,0,2.1,0c-1.6-3.7-2.3-5.5-3.9-9.1C151.9,97,151.6,97,150.8,97z M150.5,102.3
			c0.5-1.2,0.7-1.8,1.2-2.9c0.5,1.2,0.7,1.8,1.2,2.9C152,102.3,151.5,102.3,150.5,102.3z"/>
		<path class="st0" d="M158.3,99c1.1,0,1.7,0,2.8,0c0,2.9,0,4.3,0,7.2c0.8,0,1.2,0,2,0c0-2.9,0-4.3,0-7.2c1.1,0,1.7,0,2.7,0
			c0-0.7,0-1.1,0-1.8c-3,0-4.5-0.1-7.5-0.1C158.3,97.9,158.3,98.2,158.3,99z"/>
		<path class="st0" d="M169.4,106.3c0.8,0,1.2,0,2,0c0-3.6,0-5.4,0-9c-0.8,0-1.2,0-2,0C169.4,100.9,169.4,102.7,169.4,106.3z"/>
		<path class="st0" d="M180.1,97.3c-2.8-0.1-4.8,2-4.8,4.6c0,0,0,0,0,0c0,2.6,2,4.7,4.8,4.7c2.8,0.1,4.8-2,4.8-4.6c0,0,0,0,0,0
			C184.9,99.5,182.9,97.4,180.1,97.3z M180.1,104.8c-1.6,0-2.7-1.3-2.7-2.9c0,0,0,0,0,0c0-1.6,1.1-2.8,2.7-2.8
			c1.6,0,2.7,1.4,2.7,2.9c0,0,0,0,0,0C182.8,103.6,181.7,104.9,180.1,104.8z"/>
		<path class="st0" d="M194.8,103.4c-1.7-2.3-2.5-3.4-4.2-5.7c-0.7,0-1.1,0-1.8,0c0,3.6,0,5.4,0,9c0.8,0,1.2,0,2,0.1
			c0-2.3,0-3.4,0-5.7c1.8,2.3,2.6,3.5,4.4,5.9c0.7,0,1,0,1.7,0.1c0-3.6,0-5.4,0-9c-0.8,0-1.2,0-2-0.1
			C194.8,100.1,194.8,101.2,194.8,103.4z"/>
		<path class="st0" d="M80.7,101.5L80.7,101.5L80.7,101.5c-25.7,1.7-50.9,4.3-75.4,7.9c24.7-2.1,49.9-3.6,75.4-4.5l0,0
			c0.9,0,1.7-0.8,1.7-1.7C82.4,102.2,81.7,101.5,80.7,101.5z"/>
		<path class="st0" d="M203.9,101.4L203.9,101.4L203.9,101.4c-0.9,0-1.7,0.8-1.7,1.7c0,0.9,0.8,1.7,1.7,1.7l0,0
			c25.6,1,50.7,2.5,75.4,4.5C254.8,105.8,229.6,103.1,203.9,101.4z"/>
	</g>
</g>
</svg>
