<?xml version="1.0" encoding="utf-8"?>
<!-- Generator: Adobe Illustrator 21.1.0, SVG Export Plug-In . SVG Version: 6.00 Build 0)  -->
<svg version="1.1" id="Layer_1" xmlns="http://www.w3.org/2000/svg" xmlns:xlink="http://www.w3.org/1999/xlink" x="0px" y="0px"
	 viewBox="0 0 875 325" style="enable-background:new 0 0 875 325;" xml:space="preserve">
<style type="text/css">
	.st0{fill:#102A4C;}
	.st1{fill:#F5BD47;}
</style>
<g>
	<path class="st0" d="M67.6,99.2c-6.2,0-11.9-1-17.2-3c-5.3-2-9.8-4.8-13.7-8.5c-3.9-3.6-6.9-8-9.1-13c-2.2-5-3.3-10.6-3.3-16.6
		v-0.2c0-5.8,1.1-11.1,3.2-16.2c2.2-5,5.1-9.4,8.9-13.2c3.8-3.8,8.3-6.7,13.5-8.8c5.3-2.1,10.9-3.2,17.1-3.2c7,0,13.1,1,18.2,3.1
		c5.1,2,9.8,4.9,14,8.5L86.3,43.7c-2.9-2.4-5.8-4.3-8.8-5.6c-3-1.3-6.5-1.9-10.4-1.9c-2.9,0-5.6,0.6-8,1.7c-2.5,1.1-4.6,2.7-6.4,4.7
		c-1.8,2-3.3,4.3-4.3,6.9c-1.1,2.6-1.6,5.5-1.6,8.5v0.2c0,3.2,0.5,6.1,1.6,8.9c1.1,2.7,2.6,5.1,4.5,7c1.9,1.9,4.2,3.4,6.8,4.5
		c2.6,1.1,5.5,1.6,8.7,1.6c5.2,0,9.4-1.1,12.8-3.3v-9.6H65.5V51.2h36.6v35.8c-4.2,3.5-9.2,6.4-15,8.7C81.4,98,74.9,99.2,67.6,99.2z"
		/>
	<path class="st0" d="M115,18.2h37.6c6.1,0,11.3,0.8,15.6,2.3c4.2,1.5,7.7,3.6,10.3,6.4c4.7,4.5,7,10.7,7,18.5v0.2
		c0,6.1-1.5,11.2-4.4,15.2c-2.9,4-6.9,7.1-11.9,9.2l19,27.7h-25.4l-16-24.1h-0.2H137v24.1h-22V18.2z M151.6,56.3
		c3.8,0,6.7-0.8,8.7-2.6c2-1.7,3.1-4,3.1-6.9v-0.2c0-3.2-1.1-5.5-3.2-7.1c-2.1-1.5-5-2.3-8.7-2.3H137v19.1H151.6z"/>
	<path class="st0" d="M224.8,17.6H246l33.8,80h-23.6l-5.8-14.2h-30.6l-5.7,14.2H191L224.8,17.6z M244.1,66.4l-8.9-22.6l-9,22.6
		H244.1z"/>
	<path class="st0" d="M319.4,99c-7.1,0-13.9-1.1-20.3-3.3c-6.4-2.2-12.1-5.5-17-9.9L294.5,71c7.9,6.4,16.5,9.5,25.8,9.5
		c3,0,5.2-0.5,6.8-1.4c1.6-0.9,2.3-2.3,2.3-4v-0.2c0-0.8-0.2-1.6-0.6-2.2s-1.1-1.3-2.1-1.9c-1-0.6-2.4-1.2-4.1-1.8s-3.9-1.2-6.6-1.8
		c-4.2-1-8.2-2.1-11.8-3.2c-3.6-1.2-6.8-2.7-9.5-4.5c-2.7-1.9-4.8-4.2-6.4-6.9c-1.6-2.8-2.3-6.2-2.3-10.3v-0.2
		c0-3.7,0.7-7.1,2.1-10.2c1.4-3.1,3.4-5.8,6.1-8c2.7-2.3,5.9-4,9.7-5.3c3.8-1.2,8.1-1.9,12.8-1.9c6.8,0,12.9,0.9,18.2,2.7
		c5.3,1.8,10.2,4.4,14.5,7.9l-11,15.6c-3.6-2.6-7.4-4.5-11.2-5.8c-3.8-1.3-7.5-2-11.1-2c-2.7,0-4.6,0.5-6,1.5c-1.3,1-2,2.2-2,3.6
		v0.2c0,0.9,0.2,1.7,0.6,2.4c0.4,0.7,1.1,1.3,2.2,1.9c1,0.6,2.4,1.1,4.2,1.7c1.8,0.6,4,1.2,6.8,1.8c4.5,1,8.6,2.1,12.3,3.5
		c3.7,1.3,6.8,2.9,9.4,4.8c2.6,1.9,4.5,4.2,5.9,6.9c1.4,2.7,2.1,5.9,2.1,9.6v0.2c0,4.1-0.8,7.7-2.3,10.9c-1.6,3.2-3.7,5.9-6.5,8.1
		c-2.8,2.2-6.2,3.9-10.1,5.1C328.7,98.4,324.3,99,319.4,99z"/>
	<path class="st0" d="M394.1,99c-7.1,0-13.9-1.1-20.3-3.3c-6.4-2.2-12.1-5.5-17-9.9L369.2,71c7.9,6.4,16.5,9.5,25.8,9.5
		c3,0,5.2-0.5,6.8-1.4c1.6-0.9,2.3-2.3,2.3-4v-0.2c0-0.8-0.2-1.6-0.6-2.2s-1.1-1.3-2.1-1.9c-1-0.6-2.4-1.2-4.1-1.8s-3.9-1.2-6.6-1.8
		c-4.2-1-8.2-2.1-11.8-3.2c-3.6-1.2-6.8-2.7-9.5-4.5c-2.7-1.9-4.8-4.2-6.4-6.9c-1.6-2.8-2.3-6.2-2.3-10.3v-0.2
		c0-3.7,0.7-7.1,2.1-10.2c1.4-3.1,3.4-5.8,6.1-8c2.7-2.3,5.9-4,9.7-5.3c3.8-1.2,8.1-1.9,12.8-1.9c6.8,0,12.9,0.9,18.2,2.7
		c5.3,1.8,10.2,4.4,14.5,7.9l-11,15.6c-3.6-2.6-7.4-4.5-11.2-5.8c-3.8-1.3-7.5-2-11.1-2c-2.7,0-4.6,0.5-6,1.5c-1.3,1-2,2.2-2,3.6
		v0.2c0,0.9,0.2,1.7,0.6,2.4c0.4,0.7,1.1,1.3,2.2,1.9c1,0.6,2.4,1.1,4.2,1.7c1.8,0.6,4,1.2,6.8,1.8c4.5,1,8.6,2.1,12.3,3.5
		c3.7,1.3,6.8,2.9,9.4,4.8c2.6,1.9,4.5,4.2,5.9,6.9c1.4,2.7,2.1,5.9,2.1,9.6v0.2c0,4.1-0.8,7.7-2.3,10.9c-1.6,3.2-3.7,5.9-6.5,8.1
		c-2.8,2.2-6.2,3.9-10.1,5.1C403.4,98.4,399,99,394.1,99z"/>
	<path class="st0" d="M437.6,18.2h37.6c6.1,0,11.3,0.8,15.6,2.3c4.2,1.5,7.7,3.6,10.3,6.4c4.7,4.5,7,10.7,7,18.5v0.2
		c0,6.1-1.5,11.2-4.4,15.2c-2.9,4-6.9,7.1-11.9,9.2l19,27.7h-25.4l-16-24.1H469h-9.4v24.1h-22V18.2z M474.1,56.3
		c3.8,0,6.7-0.8,8.7-2.6c2-1.7,3.1-4,3.1-6.9v-0.2c0-3.2-1.1-5.5-3.2-7.1c-2.1-1.5-5-2.3-8.7-2.3h-14.4v19.1H474.1z"/>
	<path class="st0" d="M559.8,99.2c-6.1,0-11.8-1.1-17-3.2s-9.7-5.1-13.5-8.8c-3.8-3.7-6.8-8.1-8.9-13.1c-2.2-5-3.2-10.3-3.2-16v-0.2
		c0-5.7,1.1-11,3.2-16.1c2.2-5,5.2-9.4,9-13.2s8.4-6.7,13.6-8.9c5.2-2.2,10.9-3.2,17-3.2c6.1,0,11.8,1.1,17,3.2s9.7,5.1,13.5,8.8
		c3.8,3.7,6.8,8.1,8.9,13.1c2.2,5,3.2,10.3,3.2,16v0.2c0,5.7-1.1,11-3.2,16.1c-2.2,5-5.2,9.4-9,13.2c-3.9,3.7-8.4,6.7-13.6,8.9
		C571.6,98.1,566,99.2,559.8,99.2z M560,79.3c3,0,5.8-0.6,8.3-1.7c2.5-1.1,4.6-2.7,6.4-4.6c1.7-1.9,3.1-4.2,4.1-6.8
		c1-2.6,1.5-5.3,1.5-8.2v-0.2c0-2.9-0.5-5.6-1.5-8.2s-2.4-4.8-4.2-6.8c-1.8-2-4-3.5-6.5-4.7c-2.5-1.2-5.3-1.8-8.3-1.8
		s-5.8,0.6-8.2,1.7c-2.5,1.1-4.6,2.7-6.4,4.6c-1.8,1.9-3.1,4.2-4.1,6.8c-1,2.6-1.4,5.3-1.4,8.2v0.2c0,2.9,0.5,5.6,1.5,8.2
		c1,2.6,2.4,4.8,4.2,6.8c1.8,2,3.9,3.5,6.4,4.7C554.2,78.8,557,79.3,560,79.3z"/>
	<path class="st0" d="M654.8,99.2c-6.1,0-11.8-1.1-17-3.2s-9.7-5.1-13.5-8.8c-3.8-3.7-6.8-8.1-8.9-13.1c-2.2-5-3.2-10.3-3.2-16v-0.2
		c0-5.7,1.1-11,3.2-16.1c2.2-5,5.2-9.4,9-13.2c3.9-3.7,8.4-6.7,13.6-8.9c5.2-2.2,10.9-3.2,17-3.2c6.1,0,11.8,1.1,17,3.2
		s9.7,5.1,13.5,8.8c3.8,3.7,6.8,8.1,8.9,13.1c2.2,5,3.2,10.3,3.2,16v0.2c0,5.7-1.1,11-3.2,16.1c-2.2,5-5.2,9.4-9,13.2
		c-3.9,3.7-8.4,6.7-13.6,8.9C666.6,98.1,661,99.2,654.8,99.2z M655,79.3c3,0,5.8-0.6,8.3-1.7c2.5-1.1,4.6-2.7,6.4-4.6
		c1.7-1.9,3.1-4.2,4.1-6.8c1-2.6,1.5-5.3,1.5-8.2v-0.2c0-2.9-0.5-5.6-1.5-8.2s-2.4-4.8-4.2-6.8c-1.8-2-4-3.5-6.5-4.7
		c-2.5-1.2-5.3-1.8-8.3-1.8c-3,0-5.8,0.6-8.2,1.7c-2.5,1.1-4.6,2.7-6.4,4.6c-1.8,1.9-3.1,4.2-4.1,6.8c-1,2.6-1.4,5.3-1.4,8.2v0.2
		c0,2.9,0.5,5.6,1.5,8.2c1,2.6,2.4,4.8,4.2,6.8c1.8,2,3.9,3.5,6.4,4.7C649.2,78.8,652,79.3,655,79.3z"/>
	<path class="st0" d="M729.3,37.5h-23.8V18.2h69.7v19.3h-23.8v60.2h-22V37.5z"/>
	<path class="st0" d="M816.7,99c-7.1,0-13.9-1.1-20.3-3.3c-6.4-2.2-12.1-5.5-17-9.9L791.7,71c7.9,6.4,16.5,9.5,25.8,9.5
		c3,0,5.2-0.5,6.8-1.4c1.6-0.9,2.3-2.3,2.3-4v-0.2c0-0.8-0.2-1.6-0.6-2.2c-0.4-0.6-1.1-1.3-2.1-1.9c-1-0.6-2.4-1.2-4.1-1.8
		c-1.7-0.6-3.9-1.2-6.6-1.8c-4.2-1-8.2-2.1-11.8-3.2c-3.6-1.2-6.8-2.7-9.5-4.5c-2.7-1.9-4.8-4.2-6.4-6.9c-1.6-2.8-2.3-6.2-2.3-10.3
		v-0.2c0-3.7,0.7-7.1,2.1-10.2c1.4-3.1,3.4-5.8,6.1-8c2.7-2.3,5.9-4,9.7-5.3c3.8-1.2,8.1-1.9,12.8-1.9c6.8,0,12.9,0.9,18.2,2.7
		c5.3,1.8,10.2,4.4,14.5,7.9l-11,15.6c-3.6-2.6-7.4-4.5-11.2-5.8c-3.8-1.3-7.5-2-11.1-2c-2.7,0-4.6,0.5-6,1.5c-1.3,1-2,2.2-2,3.6
		v0.2c0,0.9,0.2,1.7,0.6,2.4c0.4,0.7,1.1,1.3,2.2,1.9c1,0.6,2.4,1.1,4.2,1.7c1.8,0.6,4,1.2,6.8,1.8c4.5,1,8.6,2.1,12.3,3.5
		c3.7,1.3,6.8,2.9,9.4,4.8c2.6,1.9,4.5,4.2,5.9,6.9c1.4,2.7,2.1,5.9,2.1,9.6v0.2c0,4.1-0.8,7.7-2.3,10.9c-1.6,3.2-3.7,5.9-6.5,8.1
		c-2.8,2.2-6.2,3.9-10.1,5.1C825.9,98.4,821.5,99,816.7,99z"/>
	<path class="st0" d="M27.1,122.2h22v60.2h38.5v19.3H27.1V122.2z"/>
	<path class="st0" d="M105.7,122.2h63.8v18.7h-42.1v12h38.1v17.4h-38.1v12.6h42.7v18.7h-64.4V122.2z"/>
	<path class="st0" d="M217.6,121.6h21.2l33.8,80H249l-5.8-14.2h-30.6l-5.7,14.2h-23.1L217.6,121.6z M236.9,170.4l-8.9-22.6l-9,22.6
		H236.9z"/>
	<path class="st0" d="M289.1,122.2h30.6c7.1,0,13.4,1,19,2.9c5.6,1.9,10.3,4.6,14.1,8.1c3.8,3.5,6.7,7.6,8.7,12.4
		c2,4.8,3,10.1,3,15.8v0.2c0,5.8-1,11.1-3.1,15.9c-2.1,4.9-5,9.1-8.9,12.7c-3.9,3.6-8.6,6.3-14.2,8.3c-5.6,2-12,3-19.1,3h-30.2
		V122.2z M320.1,182.1c6.6,0,11.9-1.7,16-5.2c4-3.5,6-8.4,6-14.9v-0.2c0-6.4-2-11.3-6-14.8c-4-3.5-9.3-5.3-16-5.3h-9v40.4H320.1z"/>
	<path class="st0" d="M384.6,122.2h63.8v18.7h-42.1v12h38.1v17.4h-38.1v12.6H449v18.7h-64.4V122.2z"/>
	<path class="st0" d="M469.1,122.2h37.6c6.1,0,11.3,0.8,15.6,2.3c4.2,1.5,7.7,3.6,10.3,6.4c4.7,4.5,7,10.7,7,18.5v0.2
		c0,6.1-1.5,11.2-4.4,15.2c-2.9,4-6.9,7.1-11.9,9.2l19,27.7h-25.4l-16-24.1h-0.2h-9.4v24.1h-22V122.2z M505.6,160.3
		c3.8,0,6.7-0.8,8.7-2.6c2-1.7,3.1-4,3.1-6.9v-0.2c0-3.2-1.1-5.5-3.2-7.1c-2.1-1.5-5-2.3-8.7-2.3h-14.4v19.1H505.6z"/>
	<path class="st0" d="M590.6,203c-7.1,0-13.9-1.1-20.3-3.3c-6.4-2.2-12.1-5.5-17-9.9l12.3-14.7c7.9,6.4,16.5,9.5,25.8,9.5
		c3,0,5.2-0.5,6.8-1.4s2.3-2.3,2.3-4V179c0-0.8-0.2-1.6-0.6-2.2s-1.1-1.3-2.1-1.9c-1-0.6-2.4-1.2-4.1-1.8c-1.7-0.6-3.9-1.2-6.6-1.8
		c-4.2-1-8.2-2.1-11.8-3.2c-3.6-1.2-6.8-2.7-9.5-4.5c-2.7-1.9-4.8-4.2-6.4-6.9c-1.6-2.8-2.3-6.2-2.3-10.3v-0.2
		c0-3.7,0.7-7.1,2.1-10.2c1.4-3.1,3.4-5.8,6.1-8c2.7-2.3,5.9-4,9.7-5.3c3.8-1.2,8.1-1.9,12.8-1.9c6.8,0,12.9,0.9,18.2,2.7
		c5.3,1.8,10.2,4.4,14.5,7.9l-11,15.6c-3.6-2.6-7.4-4.5-11.2-5.8c-3.8-1.3-7.5-2-11.1-2c-2.7,0-4.6,0.5-6,1.5c-1.3,1-2,2.2-2,3.6
		v0.2c0,0.9,0.2,1.7,0.6,2.4c0.4,0.7,1.1,1.3,2.2,1.9c1,0.6,2.4,1.1,4.2,1.7c1.8,0.6,4,1.2,6.8,1.8c4.5,1,8.6,2.1,12.3,3.5
		c3.7,1.3,6.8,2.9,9.4,4.8c2.6,1.9,4.5,4.2,5.9,6.9c1.4,2.7,2.1,5.9,2.1,9.6v0.2c0,4.1-0.8,7.7-2.3,10.9c-1.6,3.2-3.7,5.9-6.5,8.1
		c-2.8,2.2-6.2,3.9-10.1,5.1C599.8,202.4,595.5,203,590.6,203z"/>
	<path class="st0" d="M642.1,122.2h22v29.7h28.3v-29.7h22v79.5h-22v-30.2h-28.3v30.2h-22V122.2z"/>
	<path class="st0" d="M737.7,122.2h22.1v79.5h-22.1V122.2z"/>
	<path class="st0" d="M783.1,122.2h34c5,0,9.5,0.6,13.6,1.9c4.1,1.3,7.6,3.1,10.4,5.5c2.9,2.4,5.1,5.3,6.6,8.8
		c1.6,3.5,2.3,7.4,2.3,11.8v0.2c0,4.7-0.8,8.8-2.5,12.4c-1.7,3.6-4.1,6.5-7.1,9c-3,2.4-6.6,4.2-10.8,5.5s-8.8,1.8-13.7,1.8h-10.9
		v22.7h-22V122.2z M815.5,161.7c3.9,0,7-0.9,9.3-2.8c2.2-1.9,3.3-4.4,3.3-7.6v-0.2c0-3.4-1.1-6-3.3-7.8c-2.2-1.8-5.4-2.7-9.4-2.7
		h-10.3v21.1H815.5z"/>
	<path class="st0" d="M81.3,307.4l-7.6-16.7H38.6l-7.6,16.7h-4.6l27.7-59.9h4.2l27.7,59.9H81.3z M56.2,252.4l-15.7,34.4h31.3
		L56.2,252.4z"/>
	<path class="st0" d="M185.4,308.4c-17,0-29.6-13.5-29.6-30.6v-0.2c0-16.8,12.6-30.8,29.7-30.8c10.6,0,17,3.9,23.1,9.5l-3.1,3.2
		c-5.2-5-11.1-8.8-20.1-8.8c-14.3,0-25.1,11.6-25.1,26.6v0.2c0,15,11,26.8,25.2,26.8c8.6,0,14.4-3.3,20.5-9.3l3,2.9
		C202.7,304.3,195.9,308.4,185.4,308.4z"/>
	<path class="st0" d="M334.1,307.4l-7.6-16.7h-35.1l-7.6,16.7h-4.6l27.7-59.9h4.2l27.7,59.9H334.1z M309,252.4l-15.7,34.4h31.3
		L309,252.4z"/>
	<path class="st0" d="M434.4,307.4h-19.8v-59.5h19.8c18.7,0,31.6,12.8,31.6,29.6v0.2C466,294.4,453.1,307.4,434.4,307.4z
		 M461.4,277.7c0-14.1-10.5-25.7-27-25.7H419v51.3h15.4c16.6,0,27-11.3,27-25.5V277.7z"/>
	<path class="st0" d="M544.2,307.4v-59.5h42.3v4.1h-37.9v23.4h34.1v4.1h-34.1v23.9H587v4.1H544.2z"/>
	<path class="st0" d="M716,307.4v-51.7L692.5,290h-0.3l-23.5-34.2v51.7h-4.2v-59.5h4.2l23.9,35.2l23.9-35.2h4.2v59.5H716z"/>
	<path class="st0" d="M825,283.8v23.6h-4.4v-23.5l-25.5-35.9h5.5l22.3,31.9l22.3-31.9h5.3L825,283.8z"/>
	<rect x="26.5" y="222" class="st1" width="824.1" height="5.2"/>
</g>
</svg>
