<svg xmlns="http://www.w3.org/2000/svg" viewBox="0 0 203.63 294.03"><path fill="#4b2b23" fill-rule="evenodd" d="M195.58 14s-41.57 20.58-89.33 12.6c-57.4-9.59-48.08-11.59-74.4-5.28l-11.47 37s18.63-6.71 72.93 5.29 87.33-5.29 87.33-5.29z"/><path fill="#a90018" fill-rule="evenodd" d="M183.88 47.74s-30.6 26.21-87.34 13.25-45.42-9.59-74.42-7.93L9.21 92.74s20.1-6.7 74.4 5.29 87.33-5.29 87.33-5.29z"/><path fill="#4b2b23" fill-rule="evenodd" d="M173.61 84.8S143 105.7 86.27 92.74s-45.46-9.59-74.39-7.94L0 120.7s38.33-7.71 79.6 5.31c53 16.73 81.07-1.52 81.07-1.52z"/><path fill="#fff" fill-rule="evenodd" d="M193.97 0l9.67.63-78.21 293.39-9.67-.63z"/></svg>
