<svg id="Layer_1" xmlns="http://www.w3.org/2000/svg" xmlns:xlink="http://www.w3.org/1999/xlink" viewBox="0 0 153.2 39.6"><style>.st0{clip-path:url(#SVGID_2_);fill:#FFFFFF;}</style><defs><path id="SVGID_1_" d="M0 0h153.2v39.6H0z"/></defs><clipPath id="SVGID_2_"><use xlink:href="#SVGID_1_" overflow="visible"/></clipPath><path class="st0" d="M29.7 11.5c12.6 1 43.3 1 53.4-.9 11.7-2.3 22-3.5 33.7-4.8 10.8-1.2 21.3.1 32.9 2.7l-4.5-2.6s-3.9-2.3-6.6-3.2C130 0 120 1.9 110.7 4.3c-9.2 2.5-19.5 6.1-31.1 8.7-10.7 2.4-20.6 2.7-32.9 2.3-12.2-.4-25.3-2.3-35.5-4.3l9.5.1 9 .4zM107.8 17.7c0-1.5 1.2-2 2.6-2 1.9 0 3.2 1.2 3.3 3.2h.9v-2c0-.7.1-1.3.3-2.1-.3.1-.6.2-1.1.2-1.1 0-2.1-.2-3.4-.2-3 0-5.6 1.2-5.6 4.2 0 4.9 7.9 3.6 7.9 7.1 0 1.8-1 2.5-2.5 2.5-1.6 0-4.4-.7-4.4-3.9h-.9v2.2c0 .7-.1 1.5-.3 2.3.1 0 .3-.1.6-.1.7 0 2.4.4 4.5.4 3.6 0 6.1-1.3 6.1-4.2-.1-5.2-8-3.4-8-7.6M122.3 20.4c.5 0 .9 0 1.4.1.1-.6.2-1.1.3-1.5-.9.1-1.8.1-2.7.1 0-.5.1-2.1.3-2.6-1 .4-2.1.7-3.2.9.1.6.1 1.2.1 1.7h-1.2v1.3h1.2c0 1.9-.1 3.9-.1 5.8 0 2.1.3 3.2 2 3.2 1 0 2.7-.9 3.6-1.3l-.3-.7c-.3.2-.7.4-1.1.4-1 0-1.4-.7-1.4-2.8 0-1.5.1-3 .1-4.5h1zM141.3 20.4c.5 0 .9 0 1.4.1.1-.6.2-1.1.3-1.5-.9.1-1.8.1-2.7.1 0-.5.1-2.1.3-2.6-1 .4-2.1.7-3.2.9.1.6.1 1.2.1 1.7h-1.2v1.3h1.2c0 1.9-.1 3.9-.1 5.8 0 2.1.3 3.2 2 3.2 1 0 2.7-.9 3.6-1.3l-.3-.7c-.3.2-.7.4-1.1.4-1 0-1.4-.7-1.4-2.8 0-1.5.1-3 .1-4.5h1zM7.7 14.1c-.9 0-1.8.1-2.7.2-.9.1-1.8.2-2.7.2-.8 0-1.5-.1-2.2-.2v.9c1 0 1.7.1 1.7 1.2V25c0 2.5-.1 3.3-1.8 3.3v.8c1.1 0 2.2-.1 3.3-.1 1.2 0 2.4.1 3.6.1v-.8c-1.9-.1-2-.2-2-5.7v-7.4c.4-.1.8-.1 1.2-.1 2 0 3.6 1.1 3.6 3.7 0 1.6-1 3.5-3.2 3.5-.3 0-.6 0-.9-.1l.3.8c.4.1.9.2 1.4.2 2.8 0 5.9-2.2 5.9-5-.1-3.4-2.3-4.1-5.5-4.1M28.6 18.4v.8c1 0 1.2 0 1.2.7 0 1.5-1.3 5.6-1.9 7-.9-2.1-2.2-5.9-2.9-8.6-.4.2-1.2.3-2 .3-.7 0-1.5-.1-2.2-.1v.8c.5 0 .9.1 1.2.6l3.7 9.3H27c-.8 2-10.3 7-10.3 7s3.9-.4 6.5-1.7c5.2-5.6 7-10.7 9.6-15.9-.8.1-1.7.2-2.5.2-.6-.3-1.2-.4-1.7-.4M50.4 26.4c0-1.7.1-3.4.1-5 0-1.9-.5-3-2.4-3-1.7 0-2.8 1.1-4 2.1-.1-1.2-.9-2.1-2.2-2.1-1.7 0-2.9 1-4 2.2v-.8c0-.5 0-1-.2-1.5-1.2.3-2.5.4-4 .5v.7h.5c.6 0 .8.5.8 1v5.7c0 2-.1 2.2-1.4 2.3v.5h5.1v-.6c-.9 0-1-.4-1-1.5 0-1.9.1-3.8.1-5.6.5-.3 1.3-.6 1.9-.6 1.4 0 1.5 1 1.5 2.2v4.2c0 .9-.1 1.3-1.1 1.3v.6H45v-.6c-1-.1-1.1-.1-1.1-1.3v-5.9c.6-.3 1.2-.6 2-.6 1.4 0 1.5.9 1.5 2.4v1.7c0 1.1 0 3.3-.3 4.4.9-.1 1.9-.1 2.7-.1h1.3v-.6c-.6 0-.7-.1-.7-2M58.4 18.2c-3.2 0-5.7 2.5-5.7 5.6 0 3.1 1.9 5.4 5.6 5.4 3.3 0 5.7-2.7 5.7-5.6-.1-2.7-1.7-5.4-5.6-5.4m.7 10c-2.1 0-3.3-3.5-3.3-5.8 0-1.5.4-3.3 1.7-3.3 1.9 0 3.4 3.4 3.4 5.8 0 1.8-.4 3.3-1.8 3.3M76 24.6v-1.5c0-2.2.1-3.5.2-4.8-.6.1-1.3.2-2.1.2-.7 0-1.4-.1-2.1-.1v.7c1.1.1 1.1.4 1.1 2.2v5c-.3.3-1.3.7-2 .7-1.9 0-2-1.1-2-2.7 0-2 .1-3.9.2-5.9-.8.1-1.5.2-2.3.2-.7 0-1.3 0-2-.1v.7c1.2.1 1.2.5 1.2 2.8 0 1.3-.1 2.6-.1 4 0 2.3 1 3.2 2.8 3.2 1.6 0 3-1.1 4.1-2 0 .4-.1.9-.1 1.3 0 .3 0 .6.1.9 1.5-.2 2.9-.5 4.3-.5v-.7h-.2c-1 .1-1.1-.7-1.1-3.6M83.7 19.8c.5 0 .9 0 1.4.1.1-.7.2-1.1.4-1.6-.9.1-1.9.1-2.8.1 0-.5.1-2.2.3-2.7-1.1.5-2.2.7-3.4 1 .1.6.1 1.3.1 1.7h-1.3v1.3h1.3c0 2-.1 4.1-.1 6.1 0 2.2.3 3.3 2.1 3.3 1 0 2.8-.9 3.8-1.4l-.3-.7c-.3.2-.7.4-1.1.4-1.1 0-1.5-.7-1.5-3 0-1.6.1-3.1.1-4.7h1z"/><path class="st0" d="M97.3 27c0-1.7.1-3.3.1-5 0-1.8-.1-3.6-2.6-3.6-1.6 0-2.7 1-4.1 2.2v-2.8c0-1.6.1-3.2.2-4.8-1.4.5-3 .5-4.5.5v.6c1.2 0 1.4.2 1.4 1.7v8.6c0 3.8-.1 3.9-1.3 3.9v.7H91.8v-.6c-1 0-1.1-.2-1.1-1.5v-5.4c.8-.4 1.4-.8 2.3-.8 1.1 0 1.6.4 1.6 1.6v3.9c0 1 0 2-.2 3 .7-.1 1.5-.2 2.3-.2h1.7v-.6c-1.1-.1-1.1-.1-1.1-1.4M18.8 27.5v-9.8c0-1.6.1-3.2.2-4.8-1.5.5-3 .5-4.5.5v.7h.6c.5 0 .8.3.8 1.8v8.6c0 3.8-.1 3.9-1.3 3.9v.6H20v-.6c-.9 0-1.2-.2-1.2-.9M134.5 27.9c-.6 0-.7-1.3-.7-2.4 0-1.5.2-3.3.2-4.4 0-1.4-.5-2.3-1.9-2.3-1 0-1.6.1-2.3.3l-4.3 1.4c0 1 .1 2.2 1.1 2.2s1.6-.6 1.6-1.8v-.5c.3-.1.7-.1 1.1-.1 1.4 0 1.9.4 1.9 2v.8l-6.1 2c-.3.2-.4.8-.4 1.5 0 2.5 1.9 2.8 2.9 2.8l3.6-2v.5c0 .5.2 1 .5 1.5 1.1-.4 2.3-.7 3.5-1l-.1-.6c-.2 0-.4.1-.6.1m-5.3-.5c-1.1 0-1.7-.6-1.7-1.6 0-.5.1-.9.7-1.1l3-.8v1c0 1.6-.3 2.5-2 2.5M150.8 27.1c-2.6 0-4.1-1.6-4.1-4.1h5.3c.5 0 .9 0 1.2-.1v-.3c0-2.1-1.4-3.7-3.7-3.7-3 0-5.7 2-5.7 5.2 0 3.1 2.1 5.3 5.2 5.3 1.9 0 2.4-1.2 4.1-2.6l-.4-.6c-.4.5-1.1.9-1.9.9m-2.3-7.4c1.4 0 2 1.1 2 2.5-.5.1-2.4.3-2.8.3h-1c0-1.1.4-2.8 1.8-2.8M37.5 36.4v-3c0-.6.1-1.1.2-1.6-.3.1-.7.2-1.2.2s-1 0-1.4-.1v.4c.8 0 .9.3.9 1.4v2.7c0 .6-.1 1-.1 1.3-.6.4-1.2.7-1.9.7-.6 0-1.5-.3-1.5-1.9v-1.8c0-1.1.1-2.4.1-2.9-.3.1-.8.2-1.2.2-.4 0-.9 0-1.3-.1v.4c.6 0 .8.3.8 1.1 0 1.2-.1 2.2-.1 3.5 0 1.7.6 2.7 2.1 2.7 1.2 0 2-.6 2.9-1.3v1.1h2.4V39c-.7 0-.7-.3-.7-2.6M48.1 31.9v.4c1.1 0 1.1.4 1.1 4.1v1.3l-2.1-2.6c-.8-1-1.8-2.2-2.3-3.4-.5.1-.9.2-1.4.2-.4 0-.8 0-1.1-.1v.4c.7 0 1 .5 1 .7v2.2c0 3-.2 3.8-1.1 3.8v.4c.5 0 .9-.1 1.4-.1.5 0 .9 0 1.4.1V39c-1-.1-1.1-.4-1.1-4.1v-1.2l4.7 5.8c.2 0 .4-.1.6-.1.2 0 .4 0 .6.1v-.8c0-1.6.1-3.3.2-4.9 0-.7.1-1.5.9-1.5v-.4c-.4 0-.9.1-1.3.1-.5-.1-1-.1-1.5-.1M54.7 31.9v.4c.8.1.9.2.9 2.2v2.2c0 1.8 0 2.3-.9 2.3v.4c.5 0 1.1-.1 1.6-.1.6 0 1.2 0 1.7.1V39c-.8-.1-.9-.1-.9-1.7V34c0-1.6.1-1.8.9-1.8v-.4c-.6 0-1.1.1-1.7.1h-1.6M67.4 31.9v.4c.4 0 .7.1.7.5 0 .9-1.2 4.5-1.6 5.5-.4-.7-2.1-5-2.1-5.5 0-.4.3-.4.7-.5v-.4c-.5 0-1.1.1-1.6.1-.6 0-1.2 0-1.8-.1v.4c.5 0 .6.1.8.6.4.8 2.2 5 2.7 6.6.2 0 .5-.1.7-.1.3 0 .5 0 .8.1.1-.8 1.8-4.7 2.6-6.4.1-.2.2-.7.8-.7V32c-.4 0-.9.1-1.3.1-.5-.2-.9-.2-1.4-.2M76.7 38.9h-.6v-3c.3-.1 1-.1 1.4-.1h1.4l.3-.7c-.5.1-1 .1-1.5.1-.7 0-1.2-.1-1.6-.1v-2.8h.6c.8 0 2.3.2 2.3 1.1v.3h.4c0-.5.2-1.4.2-1.9h-1c-1 0-2 .1-3.1.1-.7 0-1.3 0-1.9-.1v.4c.7 0 .8.2.8 2V37c0 1.8-.1 2-.9 2v.4c.7 0 1.4-.1 2.1-.1 1.3 0 2.7.1 3 .1.5 0 .7 0 .8-.2.2-.6.3-1.2.5-1.7l-.4-.1c-.2 1.4-1.9 1.5-2.8 1.5M97.5 33.2c0-.8.6-1 1.4-1 1 0 1.7.6 1.7 1.7h.5v-1c0-.4.1-.7.2-1.1-.2.1-.3.1-.6.1-.6 0-1.1-.1-1.8-.1-1.6 0-3 .6-3 2.2 0 2.6 4.2 1.9 4.2 3.8 0 1-.5 1.3-1.3 1.3-.9 0-2.4-.4-2.4-2.1h-.5v1.2c0 .4-.1.8-.2 1.2.1 0 .2-.1.3-.1.4 0 1.3.2 2.4.2 1.9 0 3.3-.7 3.3-2.3 0-2.7-4.2-1.7-4.2-4M105.9 31.9v.4c.8.1.9.2.9 2.2v2.2c0 1.8 0 2.3-.9 2.3v.4c.6 0 1.1-.1 1.6-.1.6 0 1.2 0 1.7.1V39c-.8-.1-.9-.1-.9-1.7V34c0-1.6.1-1.8.9-1.8v-.4c-.6 0-1.1.1-1.7.1h-1.6M115.7 31.9c-.9 0-1.8 0-2.3-.1 0 .5-.1 1.5-.2 2.2h.4c.1-1.1.8-1.3 1.8-1.3h.4v3.5c0 2.7-.2 2.8-1.1 2.9v.4c.7 0 1.3-.1 1.9-.1.6 0 1.2 0 1.8.1V39c-.9 0-1-.2-1-1.1V34c0-.5 0-.9.1-1.4h.8c.6 0 1.2.1 1.2.8v.5h.4c0-.7.2-1.4.3-2.1-.4.1-1 .1-2 .1h-2.5zM130.1 31.9c-.4 0-.9 0-1.3-.1v.4c.3 0 .7 0 .7.4 0 .5-.8 1.8-1.4 2.9-.6-.9-1.9-2.4-1.9-3 0-.2.1-.3.5-.3v-.4c-.6 0-1.2.1-1.7.1s-1 0-1.6-.1v.4c.5 0 .7.3.9.6l2.4 3.5v1.6c0 .7-.1 1.1-1 1.1v.4c.6 0 1.2-.1 1.8-.1.6 0 1.2 0 1.8.1V39c-.6 0-.9-.1-.9-.5V36l2.1-3.1c.2-.4.4-.6.9-.6v-.4h-1.3M88.9 35.7c.8-.4 1.9-1.2 1.9-2.3 0-1.2-1-1.7-2.6-1.7-1 0-1.9.2-2.9.2-.4 0-.8 0-1.1-.1v.4c.7 0 .8.1.8 2v2.9c0 1.7-.2 1.8-.9 1.9v.4c.6 0 1.1-.1 1.7-.1.5 0 1 0 1.5.1V39c-.5 0-.7-.1-.7-1.3v-1.6h.7l2.1 3.3c.4 0 .8-.1 1.2-.1h1.2V39c-.1 0-.3 0-.4-.1-.6-.3-2.1-2.5-2.5-3.2m-1.4-.1c-.3 0-.7 0-1-.1v-.9c0-1.6 0-2.1.1-2.3.2-.1.6-.1.8-.1 1 0 1.7.8 1.7 1.8.1 1.1-.5 1.6-1.6 1.6"/></svg>