<svg id="Layer_1" data-name="Layer 1" xmlns="http://www.w3.org/2000/svg" width="2.19in" height="2.14in" viewBox="0 0 157.93 154.27">
  <defs>
    <style>
      .cls-1 {
        fill: #135841;
      }

      .cls-2 {
        fill: #e8e613;
      }

      .cls-3 {
        fill: #b5bd35;
      }

      .cls-4 {
        fill: #022a1c;
      }

      .cls-5 {
        opacity: 0.93;
      }
    </style>
  </defs>
  <title>PSU_Clusters</title>
  <polygon class="cls-1" points="80 0 143.05 31.06 150.7 66.03 47.62 15.23 80 0"/>
  <polygon class="cls-2" points="135.44 127.61 111.05 15.31 143.05 31.06 157.93 99.78 135.44 127.61"/>
  <polygon class="cls-3" points="77.53 154.27 150.36 64.79 157.93 99.78 114.2 154.27 77.53 154.27"/>
  <polygon class="cls-1" points="21.74 125.71 136.51 126.51 114.2 154.27 44.15 154.27 21.74 125.71"/>
  <polygon class="cls-4" points="8.25 63.64 79.41 154.27 44.15 154.27 0 98.44 8.25 63.64"/>
  <polygon class="cls-2" points="47.62 15.23 22.05 126.65 0 98.47 16.27 30.1 47.62 15.23"/>
  <g class="cls-5">
    <path class="cls-3" d="M49.1,55.28H59.3c4.77,0,8,3.5,8,8.44s-3.23,8.51-8,8.51H55.11v7.58h-6Zm9,11.81c2.09,0,3.12-1.41,3.12-3.36s-1-3.29-3-3.29H55.11v6.66Z"/>
    <path class="cls-3" d="M71.34,72.16s2.78,2.54,5.87,2.54c1.24,0,2.57-.48,2.57-2,0-2.92-11-2.81-11-10.36,0-4.53,3.81-7.52,8.68-7.52,5.29,0,7.89,2.78,7.89,2.78l-2.54,4.91a9.36,9.36,0,0,0-5.42-2.16c-1.24,0-2.61.55-2.61,1.92,0,3.09,11.05,2.54,11.05,10.29,0,4.08-3.12,7.62-8.65,7.62a12.67,12.67,0,0,1-9-3.5Z"/>
    <path class="cls-3" d="M88.7,55.28h6V70.79c0,2.57,1.68,3.95,4.25,3.95s4.26-1.37,4.26-3.95V55.28h6V70.79c0,5.53-4,9.44-10.23,9.44s-10.3-3.91-10.3-9.44Z"/>
  </g>
  <g>
    <path class="cls-1" d="M53.11,83.19a4.79,4.79,0,0,1,3.41,1.26l-.81,1.25a4.08,4.08,0,0,0-2.53-1,3,3,0,0,0-3.1,3.18,3.13,3.13,0,0,0,3.11,3.31A4,4,0,0,0,55.88,90l.89,1.21a5,5,0,0,1-3.64,1.5,4.78,4.78,0,0,1,0-9.56Z"/>
    <path class="cls-1" d="M58,83.35h1.68v7.81h4V92.6H58Z"/>
    <path class="cls-1" d="M64.55,83.35h1.68v5.93a2.06,2.06,0,0,0,4.1,0V83.35H72v5.93a3.74,3.74,0,0,1-7.47,0Z"/>
    <path class="cls-1" d="M74.11,90.23a3.71,3.71,0,0,0,2.31,1c.7,0,1.34-.37,1.34-1.12,0-1.65-4.37-1.37-4.37-4.21a2.84,2.84,0,0,1,3.1-2.68,3.93,3.93,0,0,1,2.76,1l-.73,1.37a3.38,3.38,0,0,0-2-.81c-.78,0-1.39.46-1.39,1.11,0,1.64,4.35,1.24,4.35,4.2a2.76,2.76,0,0,1-3,2.71,4.48,4.48,0,0,1-3.19-1.26Z"/>
    <path class="cls-1" d="M82.71,84.8h-3V83.35h7.75V84.8h-3V92.6H82.71Z"/>
    <path class="cls-1" d="M88.32,83.35h5.54V84.8H90v2.42h3.11v1.45H90v2.49h4.07V92.6H88.32Z"/>
    <path class="cls-1" d="M95.48,83.35h3a4.3,4.3,0,0,1,1.86.26,2.61,2.61,0,0,1,1.51,2.53,2.66,2.66,0,0,1-1.56,2.53v0a2.23,2.23,0,0,1,.31.46l1.9,3.45h-1.88l-1.84-3.45H97.16V92.6H95.48Zm3.19,4.34a1.34,1.34,0,0,0,1.46-1.46c0-.89-.38-1.43-1.69-1.43H97.16v2.89Z"/>
    <path class="cls-1" d="M103.93,90.23a3.71,3.71,0,0,0,2.31,1c.7,0,1.34-.37,1.34-1.12,0-1.65-4.37-1.37-4.37-4.21a2.84,2.84,0,0,1,3.1-2.68,3.93,3.93,0,0,1,2.76,1l-.73,1.37a3.38,3.38,0,0,0-2-.81c-.78,0-1.39.46-1.39,1.11,0,1.64,4.35,1.24,4.35,4.2a2.76,2.76,0,0,1-3,2.71A4.48,4.48,0,0,1,103,91.49Z"/>
  </g>
  <g>
    <path class="cls-1" d="M53.92,102.57H51.05l-.69,2.1H48.83l2.88-8.18h1.56l2.88,8.18H54.61ZM52.48,97.9s-.18.81-.35,1.27l-.73,2.19h2.14l-.73-2.19c-.15-.46-.32-1.27-.32-1.27Z"/>
    <path class="cls-1" d="M56.91,96.48h3.16a2.51,2.51,0,0,1,2.6,2.66,2.54,2.54,0,0,1-2.6,2.7H58.39v2.82H56.91Zm2.88,4.07a1.29,1.29,0,0,0,1.37-1.41,1.27,1.27,0,0,0-1.35-1.38H58.39v2.79Z"/>
    <path class="cls-1" d="M63.7,96.48h3.16a2.51,2.51,0,0,1,2.6,2.66,2.54,2.54,0,0,1-2.6,2.7H65.18v2.82H63.7Zm2.88,4.07a1.29,1.29,0,0,0,1.37-1.41,1.27,1.27,0,0,0-1.35-1.38H65.18v2.79Z"/>
    <path class="cls-1" d="M70.48,96.48h2.64a3.8,3.8,0,0,1,1.65.23A2.31,2.31,0,0,1,76.11,99a2.35,2.35,0,0,1-1.38,2.23v0a2,2,0,0,1,.28.4l1.68,3.05H75l-1.62-3.05H72v3.05H70.48Zm2.82,3.84A1.19,1.19,0,0,0,74.6,99c0-.78-.33-1.27-1.5-1.27H72v2.56Z"/>
    <path class="cls-1" d="M81.44,96.35a4.13,4.13,0,0,1,4.23,4.17,4.23,4.23,0,1,1-8.46,0A4.13,4.13,0,0,1,81.44,96.35Zm0,7.1a2.77,2.77,0,0,0,2.7-2.93,2.7,2.7,0,1,0-5.39,0A2.77,2.77,0,0,0,81.44,103.44Z"/>
    <path class="cls-1" d="M91,102.57H88.1l-.69,2.1H85.87l2.88-8.18h1.56l2.88,8.18H91.66ZM89.52,97.9s-.18.81-.35,1.27l-.73,2.19H90.6l-.73-2.19c-.15-.46-.32-1.27-.32-1.27Z"/>
    <path class="cls-1" d="M97.59,96.35a4.23,4.23,0,0,1,3,1.12l-.71,1.11a3.61,3.61,0,0,0-2.24-.86,2.67,2.67,0,0,0-2.74,2.81,2.76,2.76,0,0,0,2.75,2.93,3.52,3.52,0,0,0,2.37-1l.78,1.07a4.4,4.4,0,0,1-3.21,1.33,4.23,4.23,0,0,1,0-8.46Z"/>
    <path class="cls-1" d="M101.92,96.48h1.49V100h3.74V96.48h1.49v8.18h-1.49v-3.43H103.4v3.43h-1.49Z"/>
  </g>
  <polygon class="cls-3" points="79.67 31.08 7.97 64.82 16.24 30.01 47.64 15.23 79.67 31.08"/>
</svg>
