<svg width="163" height="80" viewBox="0 0 163 80" xmlns="http://www.w3.org/2000/svg" xmlns:xlink="http://www.w3.org/1999/xlink"><title>YE logo</title><defs><path id="a" d="M45.148.309H.14v46.58h45.007V.31z"/><path id="c" d="M0 79.691h162.535V.621H0z"/></defs><g fill="none" fill-rule="evenodd"><path d="M72.055 4.462a2.674 2.674 0 0 0-1.9-.784c-.72.002-1.393.28-1.897.784L50.645 22.017a2.67 2.67 0 0 0 0 3.785 2.695 2.695 0 0 0 3.796 0L72.055 8.246a2.676 2.676 0 0 0 0-3.784z" fill="#FEFEFE"/><g transform="translate(56.615 .311)"><mask id="b" fill="#fff"><use xlink:href="#a"/></mask><path d="M44.366 16.552h-.002a2.696 2.696 0 0 0-3.798 0l-23.958 23.88c-.297-.298-2.799-2.793-3.096-3.09l20.54-20.474c.524-.521.782-1.207.782-1.892 0-.684-.258-1.37-.783-1.89a2.698 2.698 0 0 0-3.798 0L9.716 33.564c-.298-.3-2.798-2.798-3.098-3.094l25.68-25.6c.52-.52.78-1.204.78-1.89 0-.684-.26-1.369-.78-1.891a2.677 2.677 0 0 0-1.9-.78c-.719 0-1.392.277-1.894.78L.922 28.579a2.683 2.683 0 0 0 0 3.784l13.792 13.745a2.663 2.663 0 0 0 1.894.782c.72 0 1.395-.278 1.9-.782l25.858-25.775a2.676 2.676 0 0 0 0-3.78" fill="#FEFEFE" mask="url(#b)"/></g><path d="M106.15 25.454a2.656 2.656 0 0 0-1.892-.784 2.685 2.685 0 0 0-1.908.784l-24.127 24.05a2.682 2.682 0 0 0 0 3.79 2.665 2.665 0 0 0 1.893.778 2.685 2.685 0 0 0 1.903-.778l24.13-24.056a2.676 2.676 0 0 0 0-3.784M5.719 65.326l-.05.142-1.95 5.658-1.932-5.657-.048-.143H0l.101.282 2.792 7.743-2.15 6.06-.098.28H2.29l.049-.141 2.175-6.13 2.845-7.812.101-.282H5.72z" fill="#FEFEFE"/><mask id="d" fill="#fff"><use xlink:href="#c"/></mask><path d="M10.456 72.098h4.086v-5.31h-4.086v5.31zm-1.621 1.463h7.328v-8.235H8.835v8.235zM24.02 65.326v6.772h-3.662v-6.772H18.74v8.235h6.903v-8.235zM32.696 71.852c-.292.146-.837.422-1.378.422-.687 0-1.145-.238-1.145-1.403v-4.214h2.492l.052-.14.332-.908.103-.283h-2.979v-3.078h-1.621v3.078h-1.268l-.051.138-.333.91-.103.283h1.755v4.167c0 2.593 1.564 2.979 2.497 2.979.988 0 1.669-.386 1.923-.531l.045-.025.106-.062c.002 0 .002-.123.002-.123v-1.417l-.301.142c-.036.017-.08.038-.128.065M36.324 65.326V59.15h-1.621v14.41h1.62V66.79h3.641v6.772h1.621v-8.235zM52.432 66.59c.997 0 1.7.538 1.983 1.457L49.92 69.22c.137-1.606 1.094-2.63 2.512-2.63zm3.683 2.406l-.005-.169c-.053-2.168-1.58-3.745-3.635-3.745-2.065 0-4.206 1.638-4.206 4.372 0 2.824 2.214 4.35 4.294 4.35 1.695 0 2.653-.561 3.167-.862l.05-.03.103-.06v-1.598l-.318.187-.063.038c-.347.207-1.403.84-2.806.84-1.231 0-2.14-.648-2.564-1.752l5.821-1.531.162-.04zM58.241 65.326v8.235h1.618v-6.772h3.773v6.772h1.621v-8.235zM72.299 71.856c-.293.145-.837.418-1.37.418-.686 0-1.144-.238-1.144-1.403v-4.214h2.491l.05-.139.335-.909.103-.283h-2.98v-3.078h-1.62v3.078h-1.266l-.052.138-.337.91-.104.283h1.759v4.167c0 2.593 1.565 2.98 2.498 2.98.973 0 1.658-.382 1.915-.525l.16-.091c.005-.002.005-.126.005-.126v-1.414l-.3.136-.143.072M78.813 65.183c-.197-.068-.438-.1-.757-.1-.992 0-1.697.584-2.117 1.03v-.787h-1.624v8.235h1.624V67.67c.87-.848 1.534-1.038 1.937-1.038.272 0 .483.036.634.062.096.014.17.028.234.028h.211v-1.49l-.142-.05zM84.362 66.59c1 0 1.7.538 1.986 1.457l-4.5 1.174c.136-1.605 1.094-2.63 2.514-2.63zm3.675 2.406l-.002-.167c-.049-2.17-1.573-3.747-3.629-3.747-2.069 0-4.208 1.638-4.208 4.372 0 2.824 2.213 4.35 4.292 4.35 1.69 0 2.655-.561 3.17-.86l.05-.031.106-.062V71.256l-.317.185-.077.044c-.35.205-1.412.833-2.793.833-1.232 0-2.144-.647-2.567-1.751l5.813-1.531.162-.04zM93.904 72.299c-.939 0-1.87-.557-2.337-1.383v-1.681c0-1.486 1.08-2.604 2.517-2.604 1.413 0 2.52 1.25 2.52 2.844 0 1.532-1.235 2.824-2.7 2.824m.205-7.195c-2.37 0-4.16 1.756-4.16 4.084v10.503h1.618v-6.778c.708.562 1.636.913 2.542.913 2.256 0 4.165-1.992 4.165-4.35 0-2.37-1.909-4.372-4.165-4.372M104.9 65.183c-.2-.068-.439-.1-.758-.1-.99 0-1.694.587-2.12 1.03v-.787h-1.621v8.235h1.622V67.67c.87-.848 1.536-1.038 1.943-1.038.27 0 .477.036.63.062.095.014.169.028.234.028h.212v-1.49l-.142-.05zM110.448 66.59c.996 0 1.696.538 1.983 1.457l-4.5 1.173c.142-1.605 1.1-2.63 2.517-2.63zm3.683 2.406l-.002-.169c-.054-2.168-1.582-3.745-3.636-3.745-2.07 0-4.207 1.638-4.207 4.372 0 2.824 2.213 4.35 4.297 4.35 1.687 0 2.65-.561 3.167-.86l.048-.031.105-.062c.004 0 .004-.12.004-.12v-1.477l-.319.187-.063.037c-.347.207-1.41.84-2.81.84-1.228 0-2.142-.647-2.568-1.75l5.823-1.53.161-.042zM116.256 65.326v8.235h1.621v-6.772h3.768v6.772h1.624v-8.235zM129.567 66.59c1 0 1.7.538 1.983 1.457l-4.497 1.173c.142-1.605 1.097-2.63 2.514-2.63zm3.678 2.406l-.003-.167c-.046-2.17-1.574-3.747-3.634-3.747-2.067 0-4.208 1.638-4.208 4.372 0 2.824 2.218 4.35 4.304 4.35 1.694 0 2.652-.562 3.17-.863l.047-.028.102-.062.001-.12v-1.469l-.317.178c-.02.012-.049.03-.082.047-.35.207-1.414.831-2.79.831-1.234 0-2.146-.647-2.57-1.751l5.818-1.531.162-.04zM140.66 65.326v6.772h-3.663v-6.772h-1.626v8.235h6.91v-8.235zM149.352 65.183c-.197-.068-.437-.1-.753-.1-.995 0-1.703.593-2.125 1.034v-.791h-1.622v8.235h1.622v-5.893c.684-.664 1.372-1.036 1.942-1.036.272 0 .483.036.635.062.094.014.168.028.232.028h.213v-1.49l-.144-.05zM156.646 72.002l-4.015-5.088c.325-.153.896-.372 1.542-.372.62 0 1.335.181 2.015.511l.303.15v-1.605l-.127-.054a5.169 5.169 0 0 0-2.174-.462c-1.322 0-2.497.489-3.491 1.452-.03.028-.052.05-.066.061l-.15.132.122.158 3.978 5.065a3.33 3.33 0 0 1-1.522.368c-.793 0-1.503-.32-1.846-.475-.06-.024-.108-.047-.144-.062l-.291-.113v1.657l.145.048c.02.007.051.017.088.032.3.108 1.087.398 2.068.398.939 0 2.31-.258 3.514-1.485l.035-.035.13-.132c.001-.001-.114-.149-.114-.149M159.504 62.972h.577c.374 0 .615-.078.615-.465 0-.338-.304-.437-.615-.437h-.577v.902zm-.489-1.28h1.145c.684 0 1.021.273 1.021.836 0 .479-.303.823-.769.823l.847 1.314h-.515l-.831-1.314h-.41v1.314h-.488V61.69zm.982 3.647c1.17 0 2.052-.94 2.052-2.157s-.882-2.16-2.052-2.16c-1.185 0-2.067.943-2.067 2.16s.882 2.157 2.067 2.157zm-.008-4.696a2.544 2.544 0 0 1 2.546 2.539 2.544 2.544 0 0 1-2.546 2.536 2.543 2.543 0 0 1-2.544-2.536c0-1.4 1.14-2.539 2.544-2.539z" fill="#FEFEFE" mask="url(#d)"/></g></svg>