<svg id="Layer_1" data-name="Layer 1" xmlns="http://www.w3.org/2000/svg" viewBox="0 0 2847.13 2707.32"><defs><style>.cls-1{fill:#fff}.cls-2{fill:#16a2dc}</style></defs><title>The Seminar Network SM</title><path class="cls-1" d="M2707.23 2707.32H283.72V283.81h2423.51zM501.46 674.62v55.66h78.12v381.84h62.5V730.28h78.13v-55.66zM939 1112.12h62.5v-437.5H939v187.5H829.58v-187.5h-62.5v437.5h62.5V909H939zm265.62-250h-78.12V721.49h109.38v-46.87H1064v437.5h171.88v-46.87h-109.42V909h78.13zm-521.73 846q20.51-8.42 34.06-22.58a90.87 90.87 0 0 0 20.14-32.59 114 114 0 0 0 6.59-38.7 133.14 133.14 0 0 0-4.15-32.59 149.79 149.79 0 0 0-12.21-32.1 174 174 0 0 0-19.65-29.91 176 176 0 0 0-26.49-26.25L603 1430.87q-15.87-12.69-23.56-29.17t-7.69-32.59a61 61 0 0 1 2.69-18.19 42.72 42.72 0 0 1 8.3-15.26 38.43 38.43 0 0 1 14.53-10.38q8.91-3.78 21.36-3.78 18.55 0 30.4 7.69a58.65 58.65 0 0 1 18.8 19.41 81.5 81.5 0 0 1 9.77 25.39 184.24 184.24 0 0 1 3.54 25.63l62.5-15.62a167.88 167.88 0 0 0-5-29.91 123.57 123.57 0 0 0-10.62-27 116.91 116.91 0 0 0-15-20.75 97.54 97.54 0 0 0-22.47-18.34 122.34 122.34 0 0 0-31.13-12.94q-17.82-4.88-40.77-4.88-26.86 0-47.36 8.54T537 1301.84a97.37 97.37 0 0 0-20.87 33.69 114.92 114.92 0 0 0-7.08 40.16 139.1 139.1 0 0 0 2.81 27.59 135.85 135.85 0 0 0 23.32 52.86 107.54 107.54 0 0 0 21 21.61l78.13 62.5a252.56 252.56 0 0 1 20.51 18.43 106.46 106.46 0 0 1 14.61 18.32 75.31 75.31 0 0 1 11.72 41.38q0 46.88-46.87 46.88-18.56 0-30.4-9.16a66 66 0 0 1-18.8-23.07 108.09 108.09 0 0 1-9.77-30.4 264.22 264.22 0 0 1-3.54-31.13l-62.5 15.63a188.28 188.28 0 0 0 4.88 34.42 151.22 151.22 0 0 0 10.74 30.27 130.85 130.85 0 0 0 14.89 23.8 100.52 100.52 0 0 0 22.22 20.75 111.57 111.57 0 0 0 31 14.63q17.82 5.49 41.26 5.49 28.08.02 48.59-8.4zm251.22-246H856v-140.63h109.33v-46.87H793.45v437.5h171.88v-46.87H856V1509h78.13zm250 250l62.5-345.21v345.21h62.5v-437.5h-86.43l-62 335-62-335h-86.48v437.5h62.5V1366.9l62.5 345.21zm190.43 0H1437v-437.5h-62.5zm348.14 0v-437.5h-62.5v270.51l-109.37-270.51h-46.91v437.5h62.5v-291l111.82 291zm209.47-109.37l23.44 109.38h62.5l-93.75-437.5h-62.5l-93.75 437.5h62.5l23.41-109.39zm-70.31-46.87l31.25-187.5 31.25 187.5zm436 156.25l-70.31-218.75a81.52 81.52 0 0 0 17.58-9.4q9.52-6.47 17.82-18.31t13.79-29.79q5.49-17.94 5.49-44.07 0-26.37-6.59-48a84.24 84.24 0 0 0-22.71-37q-16.11-15.38-43.21-23.8t-68.12-8.42h-78.12v437.5H2126V1509h46.88l63 203.13zM2126 1321.49h15.63a143.61 143.61 0 0 1 32 3.3 61.5 61.5 0 0 1 24.66 11.35 52.25 52.25 0 0 1 15.87 21.61q5.61 13.55 5.62 34.06t-5.62 34.06a52.25 52.25 0 0 1-15.87 21.61 61.5 61.5 0 0 1-24.66 11.35 143.61 143.61 0 0 1-32 3.3H2126zM735.83 2312.12v-437.5h-62.5v270.51L564 1874.62h-46.92v437.5h62.5v-291l111.82 291zm203.13-250h-78.13v-140.63h109.38v-46.87H798.33v437.5h171.88v-46.87H860.83V2109H939zm62.5-187.5v55.66h78.13v381.84h62.5v-381.84h78.13v-55.66zm406.25 0l-31.25 203.13-15.38 125-15.87-125-31.21-203.13h-62.5l78.13 437.5h62.5l31.2-203.12 15.67-125 15.63 125 31.25 203.13h62.5l78.13-437.5H1564l-31.25 203.13-15.87 125-15.38-125-31.25-203.12zm495.85 140.63a246.35 246.35 0 0 0-6.1-55.66q-6.11-26.37-20.51-46.14t-38.45-31.49q-24-11.72-59.94-11.72-24.42 0-43.21 5.37a110.19 110.19 0 0 0-32.59 14.89 93.31 93.31 0 0 0-23.32 22.95 120.8 120.8 0 0 0-15.26 29.54 168.66 168.66 0 0 0-8.18 34.42 285.94 285.94 0 0 0-2.44 37.84v156.25a285.89 285.89 0 0 0 2.44 37.84 168.66 168.66 0 0 0 8.18 34.42 120.73 120.73 0 0 0 15.26 29.54 93.25 93.25 0 0 0 23.32 22.95 110.09 110.09 0 0 0 32.59 14.89q18.8 5.37 43.21 5.37 35.89 0 59.94-11.72t38.45-31.49q14.4-19.78 20.51-46.14a246.35 246.35 0 0 0 6.1-55.66zm-187.5-15.62a148.84 148.84 0 0 1 3.17-32 66.5 66.5 0 0 1 10.5-24.66 48.59 48.59 0 0 1 19.29-15.87q12-5.61 29.54-5.62t29.54 5.62a48.62 48.62 0 0 1 19.29 15.87 66.56 66.56 0 0 1 10.5 24.66 149.09 149.09 0 0 1 3.17 32v187.5a149.07 149.07 0 0 1-3.17 32 66.53 66.53 0 0 1-10.5 24.66 48.59 48.59 0 0 1-19.29 15.87q-12 5.62-29.54 5.62t-29.54-5.62a48.56 48.56 0 0 1-19.29-15.87 66.47 66.47 0 0 1-10.5-24.66 148.82 148.82 0 0 1-3.17-32zm476.56 312.5l-70.31-218.75a81.52 81.52 0 0 0 17.58-9.4q9.52-6.47 17.82-18.31t13.79-29.79q5.49-17.94 5.49-44.07 0-26.37-6.59-48a84.24 84.24 0 0 0-22.71-37q-16.11-15.38-43.21-23.8t-68.12-8.42h-78.12v437.5h62.5V2109h46.87l63 203.13zm-171.87-390.62h15.63a143.61 143.61 0 0 1 32 3.3 61.5 61.5 0 0 1 24.66 11.35 52.25 52.25 0 0 1 15.87 21.61q5.61 13.55 5.62 34.06t-5.62 34.06a52.25 52.25 0 0 1-15.87 21.61 61.5 61.5 0 0 1-24.66 11.35 143.61 143.61 0 0 1-32 3.3h-15.62zm359.13 125l94-171.87h-78.12L2302 2062.12v-187.5h-62.5v437.5h62.5v-140.63l31.25-62.5 78.13 203.13h78.13z"/><path class="cls-2" d="M0 0v2458.65h155.97V155.97h2302.68V0H0z"/><path class="cls-1" d="M2755.91 2707.32a28.07 28.07 0 0 1-8.25-1.1 22.31 22.31 0 0 1-6.2-2.93 20.1 20.1 0 0 1-4.44-4.15 26.16 26.16 0 0 1-3-4.76 30.24 30.24 0 0 1-2.15-6.05 37.64 37.64 0 0 1-1-6.88l12.5-3.12a52.76 52.76 0 0 0 .71 6.23 21.62 21.62 0 0 0 2 6.08 13.2 13.2 0 0 0 3.76 4.61 9.65 9.65 0 0 0 6.08 1.83q9.38 0 9.38-9.37a15.06 15.06 0 0 0-2.34-8.28 21.28 21.28 0 0 0-2.93-3.66 50.59 50.59 0 0 0-4.1-3.69l-15.62-12.5a21.51 21.51 0 0 1-4.2-4.32 27.17 27.17 0 0 1-4.66-10.57 27.79 27.79 0 0 1-.56-5.52 23 23 0 0 1 1.42-8 19.47 19.47 0 0 1 4.17-6.74 19.83 19.83 0 0 1 6.86-4.61 24.48 24.48 0 0 1 9.47-1.71 31 31 0 0 1 8.15 1 24.45 24.45 0 0 1 6.23 2.59 19.52 19.52 0 0 1 4.49 3.66 23.38 23.38 0 0 1 3 4.15 24.7 24.7 0 0 1 2.12 5.4 33.59 33.59 0 0 1 1 6l-12.5 3.13a36.81 36.81 0 0 0-.71-5.13 16.31 16.31 0 0 0-2-5.08 11.73 11.73 0 0 0-3.76-3.88 12.64 12.64 0 0 0-10.35-.78 7.68 7.68 0 0 0-2.91 2.08 8.54 8.54 0 0 0-1.66 3.05 12.21 12.21 0 0 0-.54 3.64 15.32 15.32 0 0 0 1.54 6.52 16.29 16.29 0 0 0 4.71 5.83l15.63 12.5a35.22 35.22 0 0 1 5.3 5.25 34.77 34.77 0 0 1 3.93 6 30 30 0 0 1 2.44 6.42 26.65 26.65 0 0 1 .83 6.52 22.81 22.81 0 0 1-1.32 7.74 18.18 18.18 0 0 1-4 6.52 19.54 19.54 0 0 1-6.81 4.52 25.5 25.5 0 0 1-9.71 1.56zm56.84-.88l-12.5-69v69h-12.5v-87.5H2805l12.4 67 12.4-67h17.29v87.5h-12.5v-69l-12.5 69z"/></svg>