<svg id="Layer_1" data-name="Layer 1" xmlns="http://www.w3.org/2000/svg" xmlns:xlink="http://www.w3.org/1999/xlink" viewBox="0 0 115 115"><defs><style>.cls-1,.cls-8{fill:none;}.cls-1,.cls-2{clip-rule:evenodd;}.cls-2,.cls-3,.cls-5{fill:#95c53d;}.cls-4{clip-path:url(#clip-path);}.cls-5{fill-rule:evenodd;}.cls-6{clip-path:url(#clip-path-2);}.cls-7{fill:#ecf3de;}.cls-8{stroke:#ecf3de;stroke-miterlimit:10;stroke-width:1.02px;}</style><clipPath id="clip-path"><path class="cls-1" d="M-275.43-686.35l2.77,0c2.71.05,5.48.21,8.15.36,2,.12,4.09.23,6.14.3,3.39.12,6.83.18,10.17.24l18.77.37.18-.44c.1-.25.24-.5.38-.79a11.91,11.91,0,0,0,1.49-6.29c0-3.08-1.18-5.12-3-5.17-1,0-1.9-.06-2.84-.06s-1.82,0-2.6.1c-3.62.31-7.3.45-11.26.45-1.82,0-3.73,0-5.67-.1-8-.27-16.13-.38-24-.48l-6.6-.09a18.45,18.45,0,0,0-2.37.2c-.32,0-.17.17-.17.17A14.88,14.88,0,0,1-285-692a25.86,25.86,0,0,1-.6,5.84l3.45-.08C-279.93-686.31-277.68-686.35-275.43-686.35ZM-292-682.41a36,36,0,0,0,1.13,3.65,14.67,14.67,0,0,1-.35,8.54l-.31.88,3.78,0c2.86,0,5.56,0,8.25.07q8.55.21,17.1.46,11,.31,22,.57c3.11.07,6.44.11,10.18.11q4,0,7.92,0c.87,0,2.8-.35,3.22-1.38l.06-.15c1.33-3.27,2.84-7,.41-10.87l-.19-.3-.36,0c-14.88-1.12-30-1.35-44.62-1.58-9.48-.14-17.89-.3-27.55-.69l-.81,0Zm64.42,29.31c6.92,0,13,.18,18.65.55l.36,0,.23-.27c3.18-3.67,3.38-6.17.84-10.7l-.18-.32-.38,0c-.84-.06-1.71-.15-2.59-.23-2-.19-4.09-.39-6.18-.42q-2.4,0-4.79,0l-5.35,0-5.34,0c-3.22,0-5.84,0-8.24-.09-7.92-.21-16-.53-23.75-.85l-12-.47h-.6c-.61,0-1.23,0-1.9.06l-1.39.06-1.06,0,.45.92c1.61,3.3,1.77,6.44.51,10.5l-.21.68.72.16.63.16a4.65,4.65,0,0,0,1.08.2c2.53.06,5.07.15,7.6.23,4.46.15,9.08.31,13.62.31h0q2.12,0,4.24-.05l4-.1C-241.75-652.92-234.6-653.1-227.58-653.1Zm8.33,17.63.35,0,.23-.26c2.15-2.47,3.11-4.7,3.12-7.25a7.51,7.51,0,0,0-2.27-5.25,4.62,4.62,0,0,0-3.13-1.42h-1c-6.4,0-13.41,0-22.09.13-5,.05-10,.14-14.93.23l-3.12.06c-1.13,0-3.63.1-6.66.19-6,.18-14.12.43-17.78.43h-1.64c-1,0-1.92.05-2.82.1l-1.32.07-.72,0a14.21,14.21,0,0,1,1.54,6.48,23.78,23.78,0,0,1-.58,5.84l.6,0,.61.06a19.55,19.55,0,0,0,2.11.14h.19c1.51,0,3-.08,4.52-.14,2.08-.08,4.23-.16,6.34-.16,7,0,14,0,21,.08l9.83.05C-246.62-636-226.28-635.85-219.25-635.47Zm-13.54,3.16c-5.32-.06-9.27-.1-19.21-.18-3.55,0-7.1,0-10.64,0-4.38,0-8.76,0-13.14-.06-1.72,0-3.47-.15-5.17-.28-1.48-.11-3-.22-4.51-.27-.92,0-1.74,0-2.5,0l-2.26,0-2.48,0h-1.08c-.92,0-1.51-.17-1.76-.48s-.26-.87,0-1.7a2.47,2.47,0,0,1,.34-.9l.06-.06,0-.08c1.76-3.42,2-7,.71-9.88-.09-.26-.22-.55-.35-.84a10.12,10.12,0,0,1-.46-1.17,2.51,2.51,0,0,1,.18-2.23,2.62,2.62,0,0,1,2-.91c1.15-.09,1.9-.15,2.64-.15a19.38,19.38,0,0,1,2.49.18,6.5,6.5,0,0,0,.79,0,5.29,5.29,0,0,0,4.57-2.43c2.22-3.48,2.09-7.37-.33-9.9l-.62-.64c-.42-.43-.85-.87-1.22-1.29l-.18-.21-.29,0c-.76-.07-1.53-.1-2.44-.1l-1.63,0-1.58,0a20.4,20.4,0,0,1-3.93-.34c.06-.23.11-.45.16-.66a5.17,5.17,0,0,1,.68-1.9c2.62-5,1.36-8.68-.42-12.69l-.18-.4a5.74,5.74,0,0,1-.69-2.22c0-1.35,1.32-1.94,2.43-2,.91-.08,1.82-.14,2.75-.19l1.74-.11.16-.41a12,12,0,0,0,.11-7,4.53,4.53,0,0,0-1.71-2.4c-1.06-.8-1.36-1.4-1.13-2.3a2.76,2.76,0,0,1,2.39-2.21,8.48,8.48,0,0,0,1.51-.35,3.44,3.44,0,0,1,1.35-.17h.18c3,0,6,.12,9.06.2,2.45.07,4.89.14,7.34.18,8.49.14,17.28.28,26.12.3h0c2.46,0,4.82-.12,7.09-.24,1.43-.07,2.86-.15,4.29-.19h.43c.9,0,1.83.08,2.72.16,3.32.3,3.8.78,4.11,4a16.17,16.17,0,0,1-1.27,8.43c-.21.47-.38,1-.58,1.52-.09.27-.51,1.4-.51,1.4l.51.27a8.16,8.16,0,0,0,4,.84l1.25,0,1,0h.23c3,0,4.07.71,4.9,3.17,1.36,4,2.29,8-1.26,12.15l-.79.93,1.24.15c.86.11,1.65.26,2.39.4a17.39,17.39,0,0,0,3.13.41,6,6,0,0,0,1.17-.11c2.63.24,3,.5,3.76,1.64a11.88,11.88,0,0,1,1.28,10.53c-.19.6-.38,1-.55,1.45a10.22,10.22,0,0,0-.74,2.4,2.68,2.68,0,0,1-2.61,2.18h-.51l-1.45,0-1.43,0c-.81,0-1.55,0-2.35-.09l-1.19-.09.5,1c1.69,3.53,1.5,7-.66,11.75-.85,3.05-2.87,4.39-4.41,4.39Z"/></clipPath><clipPath id="clip-path-2"><path class="cls-2" d="M173.43-626.24c.5,1.61-.14,2.5-1,2.53-19.35.65-42.23,1.8-61.59,1.59-11.13-.12-19.68-.35-30.81-.76-.56.55-3.49-.32-3.5-1.4-.22-22.06-1.43-45.15-1.1-67.12,0-.49,1.79-.43,2.09-.45,2.91-.19,5.83.35,8.74.34,6.63,0,14.86-.26,21.45.62-.09-5.93-.17-12.81-.26-18.74a1,1,0,0,1,.93-1.08A1,1,0,0,1,109-711c11.13-.9,34.43-.26,36.6,1.31a.86.86,0,0,1,.3.76c-.76,10.9,0,22.5.17,32.88,8.84.5,24.3.5,26,1.66,1,.68.31,9.76.31,10Zm-4.78-.58c-.31-15.79-.22-28.39-.18-44.18-8.54.05-21.65-1.61-22,.22-.76,3.59-.25,25.53-.36,41.16,0,.73-2.07-.21-2.59-.21a1,1,0,0,1-1-1.08c.19-26.65-1.07-49.43-1.85-76.06-10.64-1.38-24.76.83-29.07-.53-.82,3.35-.56,9.37-.37,22.37.21,14.41.88,43.59,1.09,58,0,.08.09.93.08,1,3.62,0,4.63-.06,8.24,0a111.64,111.64,0,0,1-.09-12.35c0-.52.49-2.61.83-2.48a5.78,5.78,0,0,1,1.35-.21A47.75,47.75,0,0,1,132-641c.44.06.61,2.43.54,2.78a.56.56,0,0,1,0,.07c0,2.14-.34,9.5-.28,12.63,3.88,0,7.33-.66,11.22-.71,3.25,0,16.64.09,18.76-.36Zm-39,1.38c-.07-3.86.31-8.32.24-12.18a35,35,0,0,0-7-.48s.12.61.1.61q-.24,5.84.1,11.67Zm-21-1.12c0-.07,0,1.07,0,1-.31-21-1.42-37.12-.92-59,.08-3.47-3.83-3-7.28-3.17a208.66,208.66,0,0,0-21.12-.42c0,.77,0,23.22.11,33.28.12,9,.94,17.43,1,26.91,0,3.41,13.61,1.53,13.61,1.51S105.64-626.59,108.7-626.55Z"/></clipPath></defs><title>Illustrations_FA</title><path class="cls-5" d="M173.43-626.24c.5,1.61-.14,2.5-1,2.53-19.35.65-42.23,1.8-61.59,1.59-11.13-.12-19.68-.35-30.81-.76-.56.55-3.49-.32-3.5-1.4-.22-22.06-1.43-45.15-1.1-67.12,0-.49,1.79-.43,2.09-.45,2.91-.19,5.83.35,8.74.34,6.63,0,14.86-.26,21.45.62-.09-5.93-.17-12.81-.26-18.74a1,1,0,0,1,.93-1.08A1,1,0,0,1,109-711c11.13-.9,34.43-.26,36.6,1.31a.86.86,0,0,1,.3.76c-.76,10.9,0,22.5.17,32.88,8.84.5,24.3.5,26,1.66,1,.68.31,9.76.31,10Zm-4.78-.58c-.31-15.79-.22-28.39-.18-44.18-8.54.05-21.65-1.61-22,.22-.76,3.59-.25,25.53-.36,41.16,0,.73-2.07-.21-2.59-.21a1,1,0,0,1-1-1.08c.19-26.65-1.07-49.43-1.85-76.06-10.64-1.38-24.76.83-29.07-.53-.82,3.35-.56,9.37-.37,22.37.21,14.41.88,43.59,1.09,58,0,.08.09.93.08,1,3.62,0,4.63-.06,8.24,0a111.64,111.64,0,0,1-.09-12.35c0-.52.49-2.61.83-2.48a5.78,5.78,0,0,1,1.35-.21A47.75,47.75,0,0,1,132-641c.44.06.61,2.43.54,2.78a.56.56,0,0,1,0,.07c0,2.14-.34,9.5-.28,12.63,3.88,0,7.33-.66,11.22-.71,3.25,0,16.64.09,18.76-.36Zm-39,1.38c-.07-3.86.31-8.32.24-12.18a35,35,0,0,0-7-.48s.12.61.1.61q-.24,5.84.1,11.67Zm-21-1.12c0-.07,0,1.07,0,1-.31-21-1.42-37.12-.92-59,.08-3.47-3.83-3-7.28-3.17a208.66,208.66,0,0,0-21.12-.42c0,.77,0,23.22.11,33.28.12,9,.94,17.43,1,26.91,0,3.41,13.61,1.53,13.61,1.51S105.64-626.59,108.7-626.55Z"/><g class="cls-6"><rect class="cls-3" x="-795.6" y="-1671.23" width="1268.91" height="2676.6"/><path class="cls-3" d="M474.34,1006.4h-1271V-1672.26h1271Zm-1268.91-2.06H472.28V-1670.2H-794.57Z"/></g><circle class="cls-7" cx="57.5" cy="57.5" r="50.33"/><path class="cls-3" d="M27.77,53.15A1.38,1.38,0,0,0,28,54.82a45.42,45.42,0,0,0,7.13,5.86,44.36,44.36,0,0,0,4.7,3.16l0,.07a30.14,30.14,0,0,0,.14,3.4c0,2.07,0,4.14,0,6.21,0,2.24-.12,4.47-.17,6.71,0,1-.32,2.38.28,3.25a1.26,1.26,0,0,0,1.24.57,1.12,1.12,0,0,0,.45,0c2.71-.66,5.28-2.66,7.7-4s4.69-2.59,7.1-3.77c3.7,2.69,7.63,5.1,11.54,7.59a1,1,0,0,0,1,.11,1.13,1.13,0,0,0,1.3-1c1.29-9,4.53-17.57,6.74-26.37,2.12-8.41,4.2-16.83,7.43-24.9.37-.91-.83-1.61-1.56-1.24l-.13.07a.6.6,0,0,0-.42,0,122.33,122.33,0,0,0-14.26,4.67c-4.44,1.21-8.87,2.48-13.22,4-9.24,3.16-17.44,8.53-26.57,12A1.4,1.4,0,0,0,27.77,53.15ZM50.94,67.53c7-6.38,13.37-13.35,20.41-19.67,2.1-1.88,5-4.24,7.44-6.9-1.59,4.9-2.91,9.88-4.24,14.89-2.22,8.34-5.26,16.49-6.71,25C61.89,76.79,55.94,72.78,50.94,67.53Zm-6.34,12c1.49-3.21,3.25-6.31,4.5-9.61a56.21,56.21,0,0,0,5.52,4.86c-2.19.91-4.33,1.92-6.45,3C47,78.4,45.81,78.95,44.6,79.54Zm-2.6-15a.81.81,0,0,0,.46-.43c9.21-7,18-14.54,27.72-21,.84-.56,3.69-2.16,6.43-4-.38.43-.76.85-1.18,1.26-2.54,2.54-5.23,4.91-7.94,7.27C60.89,53.41,55.06,60,48.57,65.87a1,1,0,0,0-.52.55,1.12,1.12,0,0,0-.16.45c-1.23,3.94-3.54,7.35-5.31,11q0-3-.07-6C42.47,70.34,42.76,66.77,42,64.54ZM30.33,53c9.15-3.65,17.47-9,26.87-12.12,1.33-.43,2.67-.84,4-1.24a.8.8,0,0,0,.75.16c2.89-.85,5.77-1.87,8.64-3a69.79,69.79,0,0,0,10.68-4.21l-.35.53c-1.59,1.37-4.12,2.5-5.66,3.47l-9.21,5.78C57.16,48,49.14,55,40.83,61.45a42.07,42.07,0,0,0-3.64-2.71A54.65,54.65,0,0,1,30.33,53Z"/><circle class="cls-8" cx="57.5" cy="57.5" r="55.58"/></svg>