<svg id="Layer_1" data-name="Layer 1" xmlns="http://www.w3.org/2000/svg" xmlns:xlink="http://www.w3.org/1999/xlink" viewBox="0 0 115 115"><defs><style>.cls-1,.cls-8{fill:none;}.cls-1,.cls-2{clip-rule:evenodd;}.cls-2,.cls-3,.cls-6{fill:#95c53d;}.cls-4{fill:#ecf3de;}.cls-5{clip-path:url(#clip-path);}.cls-6{fill-rule:evenodd;}.cls-7{clip-path:url(#clip-path-2);}.cls-8{stroke:#ecf3de;stroke-miterlimit:10;stroke-width:1.02px;}</style><clipPath id="clip-path"><path class="cls-1" d="M31.57-686.35l2.77,0c2.71.05,5.48.21,8.15.36,2,.12,4.09.23,6.14.3,3.39.12,6.83.18,10.17.24l18.77.37.18-.44c.1-.25.24-.5.38-.79a11.91,11.91,0,0,0,1.49-6.29c0-3.08-1.18-5.12-3-5.17-1,0-1.9-.06-2.84-.06s-1.82,0-2.6.1c-3.62.31-7.3.45-11.26.45-1.82,0-3.73,0-5.67-.1-8-.27-16.13-.38-24-.48l-6.6-.09a18.45,18.45,0,0,0-2.37.2c-.32,0-.17.17-.17.17A14.88,14.88,0,0,1,22-692a25.86,25.86,0,0,1-.6,5.84l3.45-.08C27.07-686.31,29.32-686.35,31.57-686.35ZM15-682.41a36,36,0,0,0,1.13,3.65,14.67,14.67,0,0,1-.35,8.54l-.31.88,3.78,0c2.86,0,5.56,0,8.25.07q8.55.21,17.1.46,11,.31,22,.57c3.11.07,6.44.11,10.18.11q4,0,7.92,0c.87,0,2.8-.35,3.22-1.38l.06-.15c1.33-3.27,2.84-7,.41-10.87l-.19-.3-.36,0c-14.88-1.12-30-1.35-44.62-1.58-9.48-.14-17.89-.3-27.55-.69l-.81,0ZM79.42-653.1c6.92,0,13,.18,18.65.55l.36,0,.23-.27c3.18-3.67,3.38-6.17.84-10.7l-.18-.32-.38,0c-.84-.06-1.71-.15-2.59-.23-2-.19-4.09-.39-6.18-.42q-2.4,0-4.79,0l-5.35,0-5.34,0c-3.22,0-5.84,0-8.24-.09-7.92-.21-16-.53-23.75-.85l-12-.47h-.6c-.61,0-1.23,0-1.9.06l-1.39.06-1.06,0,.45.92c1.61,3.3,1.77,6.44.51,10.5l-.21.68.72.16.63.16a4.65,4.65,0,0,0,1.08.2c2.53.06,5.07.15,7.6.23,4.46.15,9.08.31,13.62.31h0q2.12,0,4.24-.05l4-.1C65.25-652.92,72.4-653.1,79.42-653.1Zm8.33,17.63.35,0,.23-.26c2.15-2.47,3.11-4.7,3.12-7.25a7.51,7.51,0,0,0-2.27-5.25A4.62,4.62,0,0,0,86-649.63H85c-6.4,0-13.41,0-22.09.13-5,.05-10,.14-14.93.23l-3.12.06c-1.13,0-3.63.1-6.66.19-6,.18-14.12.43-17.78.43H18.83c-1,0-1.92.05-2.82.1l-1.32.07-.72,0a14.21,14.21,0,0,1,1.54,6.48,23.78,23.78,0,0,1-.58,5.84l.6,0,.61.06a19.55,19.55,0,0,0,2.11.14h.19c1.51,0,3-.08,4.52-.14,2.08-.08,4.23-.16,6.34-.16,7,0,14,0,21,.08l9.83.05C60.38-636,80.72-635.85,87.75-635.47Zm-13.54,3.16c-5.32-.06-9.27-.1-19.21-.18-3.55,0-7.1,0-10.64,0-4.38,0-8.76,0-13.14-.06-1.72,0-3.47-.15-5.17-.28-1.48-.11-3-.22-4.51-.27-.92,0-1.74,0-2.5,0l-2.26,0-2.48,0H13.2c-.92,0-1.51-.17-1.76-.48s-.26-.87,0-1.7a2.47,2.47,0,0,1,.34-.9l.06-.06,0-.08c1.76-3.42,2-7,.71-9.88-.09-.26-.22-.55-.35-.84a10.12,10.12,0,0,1-.46-1.17,2.51,2.51,0,0,1,.18-2.23,2.62,2.62,0,0,1,2-.91c1.15-.09,1.9-.15,2.64-.15a19.38,19.38,0,0,1,2.49.18,6.5,6.5,0,0,0,.79,0,5.29,5.29,0,0,0,4.57-2.43c2.22-3.48,2.09-7.37-.33-9.9l-.62-.64c-.42-.43-.85-.87-1.22-1.29l-.18-.21-.29,0c-.76-.07-1.53-.1-2.44-.1l-1.63,0-1.58,0a20.4,20.4,0,0,1-3.93-.34c.06-.23.11-.45.16-.66a5.17,5.17,0,0,1,.68-1.9c2.62-5,1.36-8.68-.42-12.69l-.18-.4a5.74,5.74,0,0,1-.69-2.22c0-1.35,1.32-1.94,2.43-2,.91-.08,1.82-.14,2.75-.19l1.74-.11.16-.41a12,12,0,0,0,.11-7,4.53,4.53,0,0,0-1.71-2.4c-1.06-.8-1.36-1.4-1.13-2.3a2.76,2.76,0,0,1,2.39-2.21,8.48,8.48,0,0,0,1.51-.35,3.44,3.44,0,0,1,1.35-.17h.18c3,0,6,.12,9.06.2,2.45.07,4.89.14,7.34.18,8.49.14,17.28.28,26.12.3h0c2.46,0,4.82-.12,7.09-.24,1.43-.07,2.86-.15,4.29-.19h.43c.9,0,1.83.08,2.72.16,3.32.3,3.8.78,4.11,4a16.17,16.17,0,0,1-1.27,8.43c-.21.47-.38,1-.58,1.52-.09.27-.51,1.4-.51,1.4l.51.27a8.16,8.16,0,0,0,4,.84l1.25,0,1,0h.23c3,0,4.07.71,4.9,3.17,1.36,4,2.29,8-1.26,12.15l-.79.93,1.24.15c.86.11,1.65.26,2.39.4a17.39,17.39,0,0,0,3.13.41,6,6,0,0,0,1.17-.11c2.63.24,3,.5,3.76,1.64a11.88,11.88,0,0,1,1.28,10.53c-.19.6-.38,1-.55,1.45a10.22,10.22,0,0,0-.74,2.4,2.68,2.68,0,0,1-2.61,2.18h-.51l-1.45,0-1.43,0c-.81,0-1.55,0-2.35-.09l-1.19-.09.5,1c1.69,3.53,1.5,7-.66,11.75-.85,3.05-2.87,4.39-4.41,4.39Z"/></clipPath><clipPath id="clip-path-2"><path class="cls-2" d="M480.43-626.24c.5,1.61-.14,2.5-1,2.53-19.35.65-42.23,1.8-61.59,1.59-11.13-.12-19.68-.35-30.81-.76-.56.55-3.49-.32-3.5-1.4-.22-22.06-1.43-45.15-1.1-67.12,0-.49,1.79-.43,2.09-.45,2.91-.19,5.83.35,8.74.34,6.63,0,14.86-.26,21.45.62-.09-5.93-.17-12.81-.26-18.74a1,1,0,0,1,.93-1.08A1,1,0,0,1,416-711c11.13-.9,34.43-.26,36.6,1.31a.86.86,0,0,1,.3.76c-.76,10.9,0,22.5.17,32.88,8.84.5,24.3.5,26,1.66,1,.68.31,9.76.31,10Zm-4.78-.58c-.31-15.79-.22-28.39-.18-44.18-8.54.05-21.65-1.61-22,.22-.76,3.59-.25,25.53-.36,41.16,0,.73-2.07-.21-2.59-.21a1,1,0,0,1-1-1.08c.19-26.65-1.07-49.43-1.85-76.06-10.64-1.38-24.76.83-29.07-.53-.82,3.35-.56,9.37-.37,22.37.21,14.41.88,43.59,1.09,58,0,.08.09.93.08,1,3.62,0,4.63-.06,8.24,0a111.64,111.64,0,0,1-.09-12.35c0-.52.49-2.61.83-2.48a5.78,5.78,0,0,1,1.35-.21A47.75,47.75,0,0,1,439-641c.44.06.61,2.43.54,2.78a.56.56,0,0,1,0,.07c0,2.14-.34,9.5-.28,12.63,3.88,0,7.33-.66,11.22-.71,3.25,0,16.64.09,18.76-.36Zm-39,1.38c-.07-3.86.31-8.32.24-12.18a35,35,0,0,0-7-.48s.12.61.1.61q-.24,5.84.1,11.67Zm-21-1.12c0-.07,0,1.07,0,1-.31-21-1.42-37.12-.92-59,.08-3.47-3.83-3-7.28-3.17a208.66,208.66,0,0,0-21.12-.42c0,.77,0,23.22.11,33.28.12,9,.94,17.43,1,26.91,0,3.41,13.61,1.53,13.61,1.51S412.64-626.59,415.7-626.55Z"/></clipPath></defs><title>Illustrations_FA</title><circle class="cls-4" cx="57.5" cy="57.5" r="50.33"/><path class="cls-6" d="M480.43-626.24c.5,1.61-.14,2.5-1,2.53-19.35.65-42.23,1.8-61.59,1.59-11.13-.12-19.68-.35-30.81-.76-.56.55-3.49-.32-3.5-1.4-.22-22.06-1.43-45.15-1.1-67.12,0-.49,1.79-.43,2.09-.45,2.91-.19,5.83.35,8.74.34,6.63,0,14.86-.26,21.45.62-.09-5.93-.17-12.81-.26-18.74a1,1,0,0,1,.93-1.08A1,1,0,0,1,416-711c11.13-.9,34.43-.26,36.6,1.31a.86.86,0,0,1,.3.76c-.76,10.9,0,22.5.17,32.88,8.84.5,24.3.5,26,1.66,1,.68.31,9.76.31,10Zm-4.78-.58c-.31-15.79-.22-28.39-.18-44.18-8.54.05-21.65-1.61-22,.22-.76,3.59-.25,25.53-.36,41.16,0,.73-2.07-.21-2.59-.21a1,1,0,0,1-1-1.08c.19-26.65-1.07-49.43-1.85-76.06-10.64-1.38-24.76.83-29.07-.53-.82,3.35-.56,9.37-.37,22.37.21,14.41.88,43.59,1.09,58,0,.08.09.93.08,1,3.62,0,4.63-.06,8.24,0a111.64,111.64,0,0,1-.09-12.35c0-.52.49-2.61.83-2.48a5.78,5.78,0,0,1,1.35-.21A47.75,47.75,0,0,1,439-641c.44.06.61,2.43.54,2.78a.56.56,0,0,1,0,.07c0,2.14-.34,9.5-.28,12.63,3.88,0,7.33-.66,11.22-.71,3.25,0,16.64.09,18.76-.36Zm-39,1.38c-.07-3.86.31-8.32.24-12.18a35,35,0,0,0-7-.48s.12.61.1.61q-.24,5.84.1,11.67Zm-21-1.12c0-.07,0,1.07,0,1-.31-21-1.42-37.12-.92-59,.08-3.47-3.83-3-7.28-3.17a208.66,208.66,0,0,0-21.12-.42c0,.77,0,23.22.11,33.28.12,9,.94,17.43,1,26.91,0,3.41,13.61,1.53,13.61,1.51S412.64-626.59,415.7-626.55Z"/><g class="cls-7"><rect class="cls-3" x="-488.6" y="-1671.23" width="1268.91" height="2676.6"/><path class="cls-3" d="M781.34,1006.4h-1271V-1672.26h1271Zm-1268.91-2.06H779.28V-1670.2H-487.57Z"/></g><circle class="cls-8" cx="57.5" cy="57.5" r="55.58"/><path class="cls-3" d="M84.81,57.75c-.51,0-1,.05-1.52.07A31.15,31.15,0,0,0,69.07,35a20.45,20.45,0,0,0-12.16-2.58c0-.49,0-1-.08-1.48a.94.94,0,0,0-1.88,0c0,.56-.06,1.12-.09,1.67A50.11,50.11,0,0,0,48.17,34C41.27,35.91,34.8,39.28,31.83,46.6a26.7,26.7,0,0,0-1.73,7.14,20.74,20.74,0,0,0-.82,6.07l-1.41,0a.88.88,0,0,0,0,1.76l1.51,0c.89,9.56,7.77,18.54,15.55,22.55A25.23,25.23,0,0,0,54.82,87c0,.36.06.74.1,1.12a1,1,0,0,0,2,0c0-.36.07-.72.09-1.08A28.13,28.13,0,0,0,79,74.88a24.12,24.12,0,0,0,4.44-14.55c.56-.08,1.13-.16,1.69-.25C86.46,59.88,86.13,57.69,84.81,57.75Zm-3.57,2.89a23.94,23.94,0,0,1-2.15,9.56,24.27,24.27,0,0,1-22,14.19l-2.45-.09a23.84,23.84,0,0,1-7.83-2.06,26.18,26.18,0,0,1-12.1-11.68,21.75,21.75,0,0,1-2.42-8.83l-.08-2c0-2.44.16-4.93.36-7.49a1,1,0,0,0-.16-.68c1-4.49,2.93-8.61,6.78-11.23a35.21,35.21,0,0,1,15.51-5.48L57,34.71c.9-.05,1.79-.07,2.66-.07,7.73.07,14,5.82,17.91,12.58A26.66,26.66,0,0,1,81.13,58m-5.29.46c-.36-10.68-7.66-18.61-18.67-18.6L54.62,40a23.22,23.22,0,0,0-12.46,5.9A12.46,12.46,0,0,0,40,48.48C38.06,50.65,37.44,54,37.25,57a.88.88,0,0,0-.22.5c-.08.82-.13,1.59-.15,2.34l0,2.06c.31,4.1,1.88,7.35,5.07,10.94A18.59,18.59,0,0,0,54.67,79l2.46.11C66.94,79,74.8,70.71,75.75,61.27m-12.46.79a8.51,8.51,0,0,1-5.93,5.23l-.31.07-2.31.2-.45-.08a9.61,9.61,0,0,1-1.06-.39,9.46,9.46,0,0,1-1-.58,8.5,8.5,0,0,1-2.74-4.33L49.06,60a.6.6,0,0,0,.11-.33,21.78,21.78,0,0,1,.3-4.14c.51-2.25,2.94-3.17,5.19-3.52l2.46-.19c4.19,0,6.22,3.58,6.51,7.32,0,.15,0,.28,0,.42Zm-23.88-2.2c0-1.75.1-3.54.25-5.39a.7.7,0,0,0,0-.16c1.85-6.56,8-10.85,14.94-11.88l2.59-.23a15.14,15.14,0,0,1,7.26,1.48A19.16,19.16,0,0,1,71,50.4a21,21,0,0,1,2.09,8.29l0,2.82c-.83,8.15-7.87,14.3-16,14.9l-2.37,0a17.82,17.82,0,0,1-6.59-1.71,18.69,18.69,0,0,1-6.95-7.39A15,15,0,0,1,39.55,62l-.13-2.11m25.83-.39c0-.21,0-.43-.06-.64-.23-3.94-2.83-8.24-7.06-8.44l-1,0-2.5.13a8.1,8.1,0,0,0-5,2.12,6.4,6.4,0,0,0-1.8,4.07,10.41,10.41,0,0,0-.17,1,6.76,6.76,0,0,0-.25,2.3l.29,2.14a8.18,8.18,0,0,0,7,6.83l2.31,0a9.16,9.16,0,0,0,5.81-3.19,11.14,11.14,0,0,0,.95-1.12A7.79,7.79,0,0,0,65,62Z"/><path class="cls-3" d="M86,35C75.7,44.05,66.35,51,58,60.6c-1,1.13-2.63-.62-1.6-1.7A269.71,269.71,0,0,1,84.49,33.26C85.66,32.33,87.16,34,86,35Z"/><path class="cls-3" d="M82.69,35.63a.22.22,0,0,0,.27.18.43.43,0,0,0,.19,0c2,0,7.45-.83,8.5-.88.64,0,1.06.2,1.56-.22.48-.23.42-1.06.33-1.14a2.37,2.37,0,0,0-2.3-.45A17.17,17.17,0,0,1,86,33a.43.43,0,0,1-.19,0,.22.22,0,0,1-.27-.18l0-.33A40.15,40.15,0,0,1,86,26.27c0-1.21-.23-1-.85-1.73-.27-.3-1.18-.19-1.08.14,0,0-.62,3.85-1,5.71a17.44,17.44,0,0,0-.45,4.9Z"/><path class="cls-3" d="M77.11,41.91c2,0,4-.48,6.06-.5,1.06,0,2.1-.05,3.16-.11a2.77,2.77,0,0,0,1.75-.52.16.16,0,0,0,.05-.06c.14,0,.3-.53.29-.64a1.44,1.44,0,0,0-1.2-1.41c-1.81.09-5.46.39-7.28.42a.43.43,0,0,1-.19,0,.22.22,0,0,1-.27-.18l0-.33a12.44,12.44,0,0,1,.42-4.13c0-.21.14-1.83.17-2-.63-.7-.8-1.27-1.42-2-.27-.3-.7.07-.72.54-.05.31-.49,3.68-.83,5.54a17.44,17.44,0,0,0-.45,4.9l0,.33a.22.22,0,0,0,.27.18A.43.43,0,0,0,77.11,41.91Z"/><path class="cls-3" d="M57.17,62.57a1.84,1.84,0,0,0,1.13-.64,2.66,2.66,0,0,0,.53-1.78,1.82,1.82,0,0,0-.49-1.36A2.38,2.38,0,0,0,56.68,58a2.16,2.16,0,0,0-1.75.82L54.8,59a2.08,2.08,0,0,0-.62,1.42,4.33,4.33,0,0,0,.48,1.24,2.51,2.51,0,0,0,2.22.88"/></svg>