<svg id="Layer_1" data-name="Layer 1" xmlns="http://www.w3.org/2000/svg" xmlns:xlink="http://www.w3.org/1999/xlink" viewBox="0 0 115 115"><defs><style>.cls-1,.cls-8{fill:none;}.cls-1,.cls-2{clip-rule:evenodd;}.cls-2,.cls-3,.cls-5{fill:#95c53d;}.cls-4{clip-path:url(#clip-path);}.cls-5{fill-rule:evenodd;}.cls-6{clip-path:url(#clip-path-2);}.cls-7{fill:#ecf3de;}.cls-8{stroke:#ecf3de;stroke-miterlimit:10;stroke-width:1.02px;}</style><clipPath id="clip-path"><path class="cls-1" d="M-124.93-686.35l2.77,0c2.71.05,5.48.21,8.15.36,2,.12,4.09.23,6.14.3,3.39.12,6.83.18,10.17.24l18.77.37.18-.44c.1-.25.24-.5.38-.79a11.91,11.91,0,0,0,1.49-6.29c0-3.08-1.18-5.12-3-5.17-1,0-1.9-.06-2.84-.06s-1.82,0-2.6.1c-3.62.31-7.3.45-11.26.45-1.82,0-3.73,0-5.67-.1-8-.27-16.13-.38-24-.48l-6.6-.09a18.45,18.45,0,0,0-2.37.2c-.32,0-.17.17-.17.17a14.88,14.88,0,0,1,.89,5.53,25.86,25.86,0,0,1-.6,5.84l3.45-.08C-129.43-686.31-127.18-686.35-124.93-686.35Zm-16.57,3.95a36,36,0,0,0,1.13,3.65,14.67,14.67,0,0,1-.35,8.54l-.31.88,3.78,0c2.86,0,5.56,0,8.25.07q8.55.21,17.1.46,11,.31,22,.57c3.11.07,6.44.11,10.18.11q4,0,7.92,0c.87,0,2.8-.35,3.22-1.38l.06-.15c1.33-3.27,2.84-7,.41-10.87l-.19-.3-.36,0c-14.88-1.12-30-1.35-44.62-1.58-9.48-.14-17.89-.3-27.55-.69l-.81,0Zm64.42,29.31c6.92,0,13,.18,18.65.55l.36,0,.23-.27c3.18-3.67,3.38-6.17.84-10.7l-.18-.32-.38,0c-.84-.06-1.71-.15-2.59-.23-2-.19-4.09-.39-6.18-.42q-2.4,0-4.79,0l-5.35,0-5.34,0c-3.22,0-5.84,0-8.24-.09-7.92-.21-16-.53-23.75-.85l-12-.47h-.6c-.61,0-1.23,0-1.9.06l-1.39.06-1.06,0,.45.92c1.61,3.3,1.77,6.44.51,10.5l-.21.68.72.16.63.16a4.65,4.65,0,0,0,1.08.2c2.53.06,5.07.15,7.6.23,4.46.15,9.08.31,13.62.31h0q2.12,0,4.24-.05l4-.1C-91.25-652.92-84.1-653.1-77.08-653.1Zm8.33,17.63.35,0,.23-.26c2.15-2.47,3.11-4.7,3.12-7.25a7.51,7.51,0,0,0-2.27-5.25,4.62,4.62,0,0,0-3.13-1.42h-1c-6.4,0-13.41,0-22.09.13-5,.05-10,.14-14.93.23l-3.12.06c-1.13,0-3.63.1-6.66.19-6,.18-14.12.43-17.78.43h-1.64c-1,0-1.92.05-2.82.1l-1.32.07-.72,0a14.21,14.21,0,0,1,1.54,6.48,23.78,23.78,0,0,1-.58,5.84l.6,0,.61.06a19.55,19.55,0,0,0,2.11.14h.19c1.51,0,3-.08,4.52-.14,2.08-.08,4.23-.16,6.34-.16,7,0,14,0,21,.08l9.83.05C-96.12-636-75.78-635.85-68.75-635.47Zm-13.54,3.16c-5.32-.06-9.27-.1-19.21-.18-3.55,0-7.1,0-10.64,0-4.38,0-8.76,0-13.14-.06-1.72,0-3.47-.15-5.17-.28-1.48-.11-3-.22-4.51-.27-.92,0-1.74,0-2.5,0l-2.26,0-2.48,0h-1.08c-.92,0-1.51-.17-1.76-.48s-.26-.87,0-1.7a2.47,2.47,0,0,1,.34-.9l.06-.06,0-.08c1.76-3.42,2-7,.71-9.88-.09-.26-.22-.55-.35-.84a10.12,10.12,0,0,1-.46-1.17,2.51,2.51,0,0,1,.18-2.23,2.62,2.62,0,0,1,2-.91c1.15-.09,1.9-.15,2.64-.15a19.38,19.38,0,0,1,2.49.18,6.5,6.5,0,0,0,.79,0,5.29,5.29,0,0,0,4.57-2.43c2.22-3.48,2.09-7.37-.33-9.9l-.62-.64c-.42-.43-.85-.87-1.22-1.29l-.18-.21-.29,0c-.76-.07-1.53-.1-2.44-.1l-1.63,0-1.58,0a20.4,20.4,0,0,1-3.93-.34c.06-.23.11-.45.16-.66a5.17,5.17,0,0,1,.68-1.9c2.62-5,1.36-8.68-.42-12.69l-.18-.4a5.74,5.74,0,0,1-.69-2.22c0-1.35,1.32-1.94,2.43-2,.91-.08,1.82-.14,2.75-.19l1.74-.11.16-.41a12,12,0,0,0,.11-7,4.53,4.53,0,0,0-1.71-2.4c-1.06-.8-1.36-1.4-1.13-2.3a2.76,2.76,0,0,1,2.39-2.21,8.48,8.48,0,0,0,1.51-.35,3.44,3.44,0,0,1,1.35-.17h.18c3,0,6,.12,9.06.2,2.45.07,4.89.14,7.34.18,8.49.14,17.28.28,26.12.3h0c2.46,0,4.82-.12,7.09-.24,1.43-.07,2.86-.15,4.29-.19h.43c.9,0,1.83.08,2.72.16,3.32.3,3.8.78,4.11,4a16.17,16.17,0,0,1-1.27,8.43c-.21.47-.38,1-.58,1.52-.09.27-.51,1.4-.51,1.4l.51.27a8.16,8.16,0,0,0,4,.84l1.25,0,1,0h.23c3,0,4.07.71,4.9,3.17,1.36,4,2.29,8-1.26,12.15l-.79.93,1.24.15c.86.11,1.65.26,2.39.4a17.39,17.39,0,0,0,3.13.41,6,6,0,0,0,1.17-.11c2.63.24,3,.5,3.76,1.64a11.88,11.88,0,0,1,1.28,10.53c-.19.6-.38,1-.55,1.45a10.22,10.22,0,0,0-.74,2.4,2.68,2.68,0,0,1-2.61,2.18h-.51l-1.45,0-1.43,0c-.81,0-1.55,0-2.35-.09l-1.19-.09.5,1c1.69,3.53,1.5,7-.66,11.75-.85,3.05-2.87,4.39-4.41,4.39Z"/></clipPath><clipPath id="clip-path-2"><path class="cls-2" d="M323.93-626.24c.5,1.61-.14,2.5-1,2.53-19.35.65-42.23,1.8-61.59,1.59-11.13-.12-19.68-.35-30.81-.76-.56.55-3.49-.32-3.5-1.4-.22-22.06-1.43-45.15-1.1-67.12,0-.49,1.79-.43,2.09-.45,2.91-.19,5.83.35,8.74.34,6.63,0,14.86-.26,21.45.62-.09-5.93-.17-12.81-.26-18.74a1,1,0,0,1,.93-1.08,1,1,0,0,1,.59-.25c11.13-.9,34.43-.26,36.6,1.31a.86.86,0,0,1,.3.76c-.76,10.9,0,22.5.17,32.88,8.84.5,24.3.5,26,1.66,1,.68.31,9.76.31,10Zm-4.78-.58c-.31-15.79-.22-28.39-.18-44.18-8.54.05-21.65-1.61-22,.22-.76,3.59-.25,25.53-.36,41.16,0,.73-2.07-.21-2.59-.21a1,1,0,0,1-1-1.08c.19-26.65-1.07-49.43-1.85-76.06-10.64-1.38-24.76.83-29.07-.53-.82,3.35-.56,9.37-.37,22.37.21,14.41.88,43.59,1.09,58,0,.08.09.93.08,1,3.62,0,4.63-.06,8.24,0a111.64,111.64,0,0,1-.09-12.35c0-.52.49-2.61.83-2.48a5.78,5.78,0,0,1,1.35-.21,47.75,47.75,0,0,1,9.33.18c.44.06.61,2.43.54,2.78a.56.56,0,0,1,0,.07c0,2.14-.34,9.5-.28,12.63,3.88,0,7.33-.66,11.22-.71,3.25,0,16.64.09,18.76-.36Zm-39,1.38c-.07-3.86.31-8.32.24-12.18a35,35,0,0,0-7-.48s.12.61.1.61q-.24,5.84.1,11.67Zm-21-1.12c0-.07,0,1.07,0,1-.31-21-1.42-37.12-.92-59,.08-3.47-3.83-3-7.28-3.17a208.66,208.66,0,0,0-21.12-.42c0,.77,0,23.22.11,33.28.12,9,.94,17.43,1,26.91,0,3.41,13.61,1.53,13.61,1.51S256.14-626.59,259.2-626.55Z"/></clipPath></defs><title>Illustrations_FA</title><path class="cls-5" d="M323.93-626.24c.5,1.61-.14,2.5-1,2.53-19.35.65-42.23,1.8-61.59,1.59-11.13-.12-19.68-.35-30.81-.76-.56.55-3.49-.32-3.5-1.4-.22-22.06-1.43-45.15-1.1-67.12,0-.49,1.79-.43,2.09-.45,2.91-.19,5.83.35,8.74.34,6.63,0,14.86-.26,21.45.62-.09-5.93-.17-12.81-.26-18.74a1,1,0,0,1,.93-1.08,1,1,0,0,1,.59-.25c11.13-.9,34.43-.26,36.6,1.31a.86.86,0,0,1,.3.76c-.76,10.9,0,22.5.17,32.88,8.84.5,24.3.5,26,1.66,1,.68.31,9.76.31,10Zm-4.78-.58c-.31-15.79-.22-28.39-.18-44.18-8.54.05-21.65-1.61-22,.22-.76,3.59-.25,25.53-.36,41.16,0,.73-2.07-.21-2.59-.21a1,1,0,0,1-1-1.08c.19-26.65-1.07-49.43-1.85-76.06-10.64-1.38-24.76.83-29.07-.53-.82,3.35-.56,9.37-.37,22.37.21,14.41.88,43.59,1.09,58,0,.08.09.93.08,1,3.62,0,4.63-.06,8.24,0a111.64,111.64,0,0,1-.09-12.35c0-.52.49-2.61.83-2.48a5.78,5.78,0,0,1,1.35-.21,47.75,47.75,0,0,1,9.33.18c.44.06.61,2.43.54,2.78a.56.56,0,0,1,0,.07c0,2.14-.34,9.5-.28,12.63,3.88,0,7.33-.66,11.22-.71,3.25,0,16.64.09,18.76-.36Zm-39,1.38c-.07-3.86.31-8.32.24-12.18a35,35,0,0,0-7-.48s.12.61.1.61q-.24,5.84.1,11.67Zm-21-1.12c0-.07,0,1.07,0,1-.31-21-1.42-37.12-.92-59,.08-3.47-3.83-3-7.28-3.17a208.66,208.66,0,0,0-21.12-.42c0,.77,0,23.22.11,33.28.12,9,.94,17.43,1,26.91,0,3.41,13.61,1.53,13.61,1.51S256.14-626.59,259.2-626.55Z"/><g class="cls-6"><rect class="cls-3" x="-645.1" y="-1671.23" width="1268.91" height="2676.6"/><path class="cls-3" d="M624.84,1006.4h-1271V-1672.26h1271Zm-1268.91-2.06H622.78V-1670.2H-644.07Z"/></g><circle class="cls-7" cx="57.5" cy="57.5" r="50.33"/><path class="cls-3" d="M93.67,52a1.32,1.32,0,0,0-.9-.87,3.65,3.65,0,0,1-2.41-2.48,1.91,1.91,0,0,1,.74-2,5.77,5.77,0,0,1,.81-.52A4.14,4.14,0,0,0,93.38,45c1.16-1.67-.17-3.55-1.14-4.93-.16-.23-.31-.44-.44-.64a1.36,1.36,0,0,0-1.28-1h-.17a5.23,5.23,0,0,1-.68,0,4.47,4.47,0,0,1-3.77-1.81,2.73,2.73,0,0,1,0-2.69,1.32,1.32,0,0,0,.55-1.59,6.64,6.64,0,0,0-2.53-3,1.25,1.25,0,0,0-1.09-.63h-.2a1.12,1.12,0,0,0-.63.2,8.46,8.46,0,0,0-2.24,1.4,13.78,13.78,0,0,1-1.14.83,3.43,3.43,0,0,1-1.75.53,1.45,1.45,0,0,1-1.55-1.14,6.54,6.54,0,0,1,0-2.09l0-.36A1.55,1.55,0,0,0,74.83,27a1.22,1.22,0,0,0-.89-.4h-.06l-.8,0c-.87,0-1.73-.06-2.54-.13a1.35,1.35,0,0,0-.89-.32,1.56,1.56,0,0,0-1.19.56,1.45,1.45,0,0,0-.32.72,1.33,1.33,0,0,0-.06.66c0,.11,0,.23,0,.29a6.15,6.15,0,0,1-1.25,2,1.81,1.81,0,0,1-1.45.68,4.52,4.52,0,0,1-3.47-2.31A1.47,1.47,0,0,0,60.62,28a1.27,1.27,0,0,0-.88.35c-.34.32-.71.61-1.07.9a15.68,15.68,0,0,0-1.25,1.07,1.61,1.61,0,0,0-1.24,1,1.25,1.25,0,0,0,.37,1.44c1.36,1.12,1,3,.28,4.24-.39.68-1.14,1-2.6,1l-.81,0-.74,0h-.47a1.3,1.3,0,0,0-1.1.77,21.54,21.54,0,0,0-1,3.07,1.52,1.52,0,0,0-.41,1.16,1.34,1.34,0,0,0,.7,1,3.61,3.61,0,0,1,2,2.19c.3,1.42-.93,3.09-2.12,4.7l-.54.74-.14.21a1.71,1.71,0,0,0-.55,1.73,6.52,6.52,0,0,1,.14.74c.22,1.37.53,3.24,1.79,3.24l.26,0,.54-.14a5.92,5.92,0,0,1,1.57-.28A3.89,3.89,0,0,1,56,58.24a2.45,2.45,0,0,1,.85,2.06A4.63,4.63,0,0,1,55.74,63a1.18,1.18,0,0,0-.54,1,1.61,1.61,0,0,0,.86,1.3,30.14,30.14,0,0,1,2.73,2.29,2.75,2.75,0,0,0,1.44.68.79.79,0,0,0,.58-.23l1-1a3.13,3.13,0,0,1,1.76-.6c2,0,3.47,2.29,3.78,4.5a1.38,1.38,0,0,0,1.19,1.17,13.61,13.61,0,0,0,3.63-.1,1.6,1.6,0,0,0,.58.11,1.31,1.31,0,0,0,1-.38,1.26,1.26,0,0,0,.34-1,3.75,3.75,0,0,1,1-2.87,3.46,3.46,0,0,1,2.49-1.06,3.81,3.81,0,0,1,3,1.53,1.43,1.43,0,0,0,1.09.49,1.26,1.26,0,0,0,.67-.18c.52-.32,1.06-.63,1.59-.93.81-.46,1.65-.94,2.43-1.49a1.25,1.25,0,0,0,.56-1.14,1.42,1.42,0,0,0-.64-1c-.66-1.74-.94-2.76,0-4.3a3.83,3.83,0,0,1,3.28-1.72,4.31,4.31,0,0,1,1.15.16,1.79,1.79,0,0,0,.47.06,1.29,1.29,0,0,0,1.26-.83c.09-.24.2-.49.3-.75a7.82,7.82,0,0,0,.88-3.62A1.41,1.41,0,0,0,93.67,52ZM80.29,65.19a6,6,0,0,1,.66.41A6,6,0,0,0,80.29,65.19Zm.1,2.39-.14-.12Zm-3.37-3,.54,0h.19A6.05,6.05,0,0,0,77,64.55Zm.41,1.84a4,4,0,0,0-.71.07A4,4,0,0,1,77.43,66.39ZM74.65,67.6a3.91,3.91,0,0,0-.45.58A3.9,3.9,0,0,1,74.65,67.6Zm-21-11h0Zm.64-18.19h0Zm10.59-6.94a3.05,3.05,0,0,0,.52.05A3.05,3.05,0,0,1,64.83,31.49Zm3.72-3.58c0,.05,0,.11,0,.16S68.56,28,68.56,27.91ZM83.89,58.2a6,6,0,0,0-.46,6.62l-.89.48-.72.38A6.39,6.39,0,0,0,77.56,64a6.25,6.25,0,0,0-6.33,5.61c-.45,0-.91-.08-1.37-.13-.82-3.47-3.46-6-6.4-6a5.56,5.56,0,0,0-2.77.77L60.2,64c-.19-.11-.37-.21-.55-.33l-.31-.34a4.67,4.67,0,0,0,1-3.12A6.59,6.59,0,0,0,58,55.83a8.85,8.85,0,0,0-4.81-1.76,3.39,3.39,0,0,0-.82.09c0-.06,0-.12,0-.18a1.21,1.21,0,0,0-.12-.87,5,5,0,0,1,.7-1,12.82,12.82,0,0,0,2.22-3.77c.87-2.42-.16-4.77-2.85-6.5.2-.39.41-.78.64-1.18.49,0,.91.06,1.29.06a5.53,5.53,0,0,0,5.29-2.74,6,6,0,0,0-.27-6.36l.78-.38a6.86,6.86,0,0,0,5.29,2.74,5.47,5.47,0,0,0,2-.39A7,7,0,0,0,71,29a8.26,8.26,0,0,0,1.32.3c-.05,1.46.1,4.45,3.28,5.33a4.33,4.33,0,0,0,1.16.15,9.42,9.42,0,0,0,6-2.74,5.31,5.31,0,0,1,.75,1.06,4.34,4.34,0,0,0-.28,4.52,7.15,7.15,0,0,0,6.15,3.67,6.06,6.06,0,0,0,.81-.05l.1.16c.46.75.89,1.46.76,2a1.65,1.65,0,0,1-.87.9,4.63,4.63,0,0,0-2.27,3.08c-.76,2.64,1,5,3.29,6-.29.62-.55,1.25-.8,1.87l-.05.13a6.48,6.48,0,0,0-.95-.07A7,7,0,0,0,83.89,58.2Zm1-.37a8.6,8.6,0,0,0-.58.66A8.61,8.61,0,0,1,84.85,57.83ZM58.7,63.39h0a4.69,4.69,0,0,0,.63-.86A4.69,4.69,0,0,1,58.7,63.39Zm-3.9-15.26a4.41,4.41,0,0,0,.27-1.46,4.41,4.41,0,0,1-.27,1.46,11.47,11.47,0,0,1-1.49,2.79A11.47,11.47,0,0,0,54.81,48.13ZM54,43.78a5.25,5.25,0,0,1,.73,1.14A5.26,5.26,0,0,0,54,43.78Zm6-8.51a5.43,5.43,0,0,1-.71,2.42h0A5.43,5.43,0,0,0,59.92,35.27Zm-.61-2.83a5.35,5.35,0,0,1,.59,2A5.35,5.35,0,0,0,59.32,32.44ZM58.18,39l.08-.07Zm.53-.55.1-.12Zm24.49-2.9a3.74,3.74,0,0,0,0,.4A3.76,3.76,0,0,1,83.2,35.52ZM83.51,34a4,4,0,0,0-.18.47A4,4,0,0,1,83.51,34Zm-.24.75a3.73,3.73,0,0,0-.07.43A3.73,3.73,0,0,1,83.27,34.8Zm6.1,16.67A5.23,5.23,0,0,1,89,51,5.22,5.22,0,0,0,89.38,51.48Zm.49.5a5.81,5.81,0,0,0,.73.55A5.81,5.81,0,0,1,89.87,52Zm-.51-11.2-.33,0h.33Zm-3-.77c-.19-.1-.38-.2-.56-.32C86,39.8,86.17,39.9,86.36,40ZM86,37.56l.16.15Zm.39.34.17.13Zm.45.3.18.1Zm.52.26.15.07Zm.67.25h0Zm.55.13.19,0Zm.56.08h0Zm-.44,1.81-.48-.08Zm-.77-.13-.52-.15Zm-.75-.22a7,7,0,0,1-.72-.31A7,7,0,0,0,87.19,40.37ZM85,35.32c0,.07,0,.15,0,.22S85,35.4,85,35.32ZM84.95,39l-.33-.31Zm.23.2.4.29Zm-1-1.08.27.33Zm-.39-.61c.07.12.14.23.21.35C83.88,37.78,83.81,37.66,83.74,37.55Zm-.48-1.32c0,.13.05.26.09.38C83.31,36.48,83.29,36.35,83.26,36.22Zm.19.68c0,.12.1.25.15.37C83.54,37.15,83.49,37,83.45,36.9Zm.16-3.09a4.67,4.67,0,0,1,.43-.7A4.68,4.68,0,0,0,83.61,33.81Zm-1.51-1.87a8.16,8.16,0,0,0,.64-.63h0A8.15,8.15,0,0,1,82.09,31.94Zm-5.32,2.33h-.11a5,5,0,0,0,.74,0A5.17,5.17,0,0,1,76.78,34.26Zm.77-.06a6.74,6.74,0,0,0,.89-.2A6.73,6.73,0,0,1,77.55,34.2Zm1.15-.29c.21-.07.43-.15.64-.23C79.13,33.77,78.92,33.84,78.7,33.91Zm1-.38.55-.28Zm.88-.47.52-.33Zm.81-.54c.18-.13.34-.26.5-.4C81.7,32.27,81.53,32.4,81.36,32.53ZM77,32.19l.22,0Zm-1.55-.46.07.06Zm1.11,2.52a3.72,3.72,0,0,1-.78-.12A3.71,3.71,0,0,0,76.53,34.25ZM75.91,32l.07,0Zm.57.15h0Zm-4.66-5.1c.41,0,.82,0,1.23,0C72.64,27.12,72.23,27.1,71.82,27.08Zm-1.9,3.4a5.42,5.42,0,0,0,.71-2.18h0A5.42,5.42,0,0,1,69.92,30.48Zm-1.36-2.07v0Zm0-.53s0-.07,0-.1S68.56,27.84,68.56,27.88Zm0-.13a.2.2,0,0,1,0,0A.2.2,0,0,0,68.56,27.75Zm0,.52v0Zm-3.13,5.18h0Zm.92-.09h0Zm-5.07-1.63,0,0Zm.53.44.13.1Zm.7.46.08,0Zm.62.31.14.06Zm.77.28.1,0Zm.68.15.15,0Zm-3.88-2.26.11.12Zm-.41-.55c-.56.29-1.12.57-1.7.82l.11.14-.11-.14c.58-.25,1.14-.53,1.7-.82Zm-2.55,8.75-.09.06Zm-.61.35-.12.05Zm-2.78.52h0Zm.66,0h0Zm.7-.08.14,0Zm.73-.16h0Zm-3.11,3.17a8.7,8.7,0,0,0-1.13-.88A8.7,8.7,0,0,1,53.33,43.11Zm-1.24,9.46a2.75,2.75,0,0,0-.29.62A2.74,2.74,0,0,1,52.08,52.56Zm1.16,2h0Zm-.65.07-.06,0Zm4.73,4.91a2.81,2.81,0,0,0-.31-.85A2.81,2.81,0,0,1,57.32,59.53Zm0-3.62.08.06ZM57,55.66l0,0Zm-.48-.25-.11-.05Zm-.64-.28-.09,0Zm-.59-.21-.12,0Zm-.7-.2-.11,0Zm-.62-.12-.1,0Zm5.61,7.48a4.12,4.12,0,0,0,.31-1.41A4.12,4.12,0,0,1,59.55,62.08Zm1.84,2.43a6,6,0,0,0-.72.39A6,6,0,0,1,61.38,64.51ZM63.46,64h.06l-.41,0Zm-.65,0c-.14,0-.29.06-.43.09C62.52,64.15,62.67,64.11,62.81,64.09Zm-.71.15c-.16,0-.32.11-.48.18C61.78,64.36,61.94,64.29,62.1,64.25ZM63.81,66h0Zm-.13-1.92.48,0Zm2,.54.43.24Zm.38,2.54L66,67.08Zm-.37-.34-.12-.09Zm-.41-.3-.12-.08Zm-.54-.29h0Zm-.46-.15-.14,0Zm.07-1.92.46.11Zm.61.16a5.25,5.25,0,0,1,.58.23A5.25,5.25,0,0,0,65,64.29Zm2.34,1.49c-.16-.16-.32-.3-.48-.44C67,65.48,67.15,65.63,67.31,65.79Zm-.63-.56L66.29,65Zm1.08,1.07q-.17-.21-.36-.41Q67.59,66.08,67.76,66.3ZM69.46,70c0-.24-.11-.48-.18-.72C69.35,69.47,69.41,69.71,69.46,70ZM69.22,69q-.08-.25-.18-.5Q69.14,68.77,69.22,69ZM69,68.31q-.12-.3-.27-.58Q68.84,68,69,68.31Zm-.3-.65c-.11-.21-.23-.41-.35-.61C68.43,67.25,68.55,67.45,68.66,67.66Zm-.47-.78-.29-.41Zm5.1-.58a5.56,5.56,0,0,0-.89,1.19A5.56,5.56,0,0,1,73.3,66.3Zm-1,1.35a5.57,5.57,0,0,0-.31.71A5.56,5.56,0,0,1,72.32,67.65Zm-.31.71a5.83,5.83,0,0,0-.2.77A5.82,5.82,0,0,1,72,68.36Zm-.24,1a6.22,6.22,0,0,0-.09.84A6.22,6.22,0,0,1,71.76,69.33ZM77,64.55a6.08,6.08,0,0,0-.72.12A6.08,6.08,0,0,1,77,64.55Zm-.9.16a6.09,6.09,0,0,0-.7.21A6.1,6.1,0,0,1,76.12,64.71Zm-.7.21a6,6,0,0,0-.67.3A6,6,0,0,1,75.42,64.92Zm-.82.39a5.82,5.82,0,0,0-1.18.87A5.82,5.82,0,0,1,74.6,65.3Zm7.15,1a6.17,6.17,0,0,0-.63-.54A6.17,6.17,0,0,1,81.75,66.26Zm-1.46-1.07a5.82,5.82,0,0,0-.71-.3A5.83,5.83,0,0,1,80.28,65.19Zm-.89-.37a5.88,5.88,0,0,0-.71-.19A5.87,5.87,0,0,1,79.4,64.82Zm-.73-.19a5.92,5.92,0,0,0-.74-.09A5.92,5.92,0,0,1,78.67,64.63ZM85.12,62a3.62,3.62,0,0,1,.34-1.8A3.62,3.62,0,0,0,85.12,62Zm-.07-4.36c.14-.14.29-.27.44-.39C85.34,57.37,85.19,57.5,85.05,57.64Zm4.32-1.86h.22a5.76,5.76,0,0,0-.59,0Zm-.64,0a5.72,5.72,0,0,0-.72.13A5.7,5.7,0,0,1,88.73,55.81Zm-.8.14a5.87,5.87,0,0,0-.76.26A5.88,5.88,0,0,1,87.93,56Zm-1,.37c-.17.08-.34.16-.51.26C86.6,56.49,86.77,56.4,86.94,56.32Zm-.76.42-.45.31Zm3.26.85h0Zm.36-1.8a6.12,6.12,0,0,1,.82.11A6.13,6.13,0,0,0,89.8,55.8Zm.32,1.83-.22,0Zm3-13.21a2,2,0,0,0,.17-.65A2,2,0,0,1,93.17,44.42Zm-.52-2.86-.29-.46Zm-1.3-1.93c.13.2.28.42.44.64-.16-.22-.31-.44-.44-.64a1.06,1.06,0,0,0-.11-.29A1.06,1.06,0,0,1,91.35,39.63Zm-.18-.37A1,1,0,0,0,91,39.1.94.94,0,0,1,91.18,39.26Zm-.77-.36h.11l.14,0a.76.76,0,0,0-.25,0,5.67,5.67,0,0,1-.69,0A5.68,5.68,0,0,0,90.4,38.89Zm.54.14a.79.79,0,0,0-.17-.09A.78.78,0,0,1,90.94,39ZM85.52,37l-.11-.19Zm.3.4-.13-.17Zm-.73-1.52c0,.07,0,.14,0,.21S85.09,35.91,85.08,35.83Zm.13.48.08.2Zm.53-2.88a1.18,1.18,0,0,1-.26.19h0a1.18,1.18,0,0,0,.26-.19.85.85,0,0,0,.27-.55A.85.85,0,0,1,85.74,33.44ZM85.06,35c0-.07,0-.14,0-.22S85.07,34.93,85.06,35Zm.12-.59c0-.06,0-.13.05-.19S85.2,34.34,85.18,34.41Zm.21-2.89a4.56,4.56,0,0,1,.56,1A4.56,4.56,0,0,0,85.39,31.52Zm-1.9-1.8a.76.76,0,0,0-.12-.2A.76.76,0,0,1,83.49,29.71Zm-.81-.47h.19a.78.78,0,0,0-.19,0,.58.58,0,0,0-.22,0l.11,0Zm.63.22-.12-.1Zm-.2-.14L83,29.27Zm-.72-.06a.72.72,0,0,0-.22.11A.72.72,0,0,1,82.39,29.27ZM77.54,32.1l.21,0Zm.59-.18.17-.07Zm-3-.58,0-.07Zm-.4-1.94a4.58,4.58,0,0,0,.12,1.3A4.58,4.58,0,0,1,74.68,29.41Zm0-1.66h0Zm-.16-.31h0Zm-.28-.25h0Zm-.33-.09h0Zm-2.43,0L70.33,27h0Zm-1.57-.34.1,0Zm-.23,0h0Zm-.24,0a1.09,1.09,0,0,0-.26.08A1.08,1.08,0,0,1,69.47,26.68Zm-.31.11-.19.13Zm-.24.17a1,1,0,0,0-.17.22A1,1,0,0,1,68.91,27Zm-.19.26a1,1,0,0,0-.08.24A1,1,0,0,1,68.72,27.23Zm-.1.32a1.1,1.1,0,0,0,0,.34c0-.08,0-.13,0-.16s0,.08,0,.16A1.1,1.1,0,0,1,68.62,27.56Zm0,.16v0h0Zm-1.38,3a2.52,2.52,0,0,1-.37.36A2.52,2.52,0,0,0,67.2,30.69Zm-1.71.84.32,0Zm.48-.07.29-.09Zm.44-.16a2.23,2.23,0,0,0,.28-.17A2.23,2.23,0,0,1,66.42,31.31Zm-3.86-1q-.21-.18-.39-.38C62.29,30.06,62.42,30.19,62.56,30.31Zm2.15,1.15-.42-.12Zm-.56-.17a4.73,4.73,0,0,1-.51-.23A4.74,4.74,0,0,0,64.15,31.29Zm-.53-.24a5.41,5.41,0,0,1-.47-.29A5.4,5.4,0,0,0,63.62,31.05Zm-.6-.38-.36-.28Zm-.93-.83-.26-.33Zm-.35-.44a3.67,3.67,0,0,1-.25-.42A3.66,3.66,0,0,0,61.74,29.4Zm-.39-.62-.05-.05Zm-.19-.16-.07,0Zm-.23-.12-.06,0Zm-.29-.05h0Zm-.33.07.07,0Zm-2.67,2.23a.8.8,0,0,0-.17,0l.13,0Zm-.3,0-.14.07Zm-.26.12L57,31Zm-.22.19a1.2,1.2,0,0,0-.1.13A1.2,1.2,0,0,1,56.87,31.11Zm-.17.24a1.07,1.07,0,0,0-.06.15A1.06,1.06,0,0,1,56.7,31.35Zm-.1.27a.87.87,0,0,0,0,.17A.86.86,0,0,1,56.6,31.61Zm0,.28a.75.75,0,0,0,.05.17A.75.75,0,0,1,56.59,31.89Zm.08.27a.82.82,0,0,0,.2.24A.82.82,0,0,1,56.67,32.15Zm.2,5.55-.09.08Zm-2,.7h0Zm.74-.1.1,0Zm.6-.19.09,0Zm-2.16.3h0Zm-1.37,0h0Zm-2,5.17a.88.88,0,0,1-.44-.56.85.85,0,0,1,0-.22.86.86,0,0,0,0,.22.88.88,0,0,0,.44.56A5.45,5.45,0,0,1,52.42,45,5.45,5.45,0,0,0,50.68,43.57ZM50,55.51l0-.17Zm-.07-.32,0-.17Zm-.06-.33,0-.16Zm-.06-.32,0-.18Zm-.06-.39,0-.16Zm-.05-.31,0-.09Zm0-.23v0ZM50,55.83l0-.16Zm.1.3L50.09,56Zm.05.13.06.14Zm.26.47.08.09Zm-.14-.22.07.12Zm.3.38.09.07Zm.18.11.11,0Zm.24.05h0a.67.67,0,0,0,.19,0h0Zm.65-.15.54-.14Zm1.73-.3a4.29,4.29,0,0,0-.61,0A4.3,4.3,0,0,1,53.41,56.61Zm-.61,0c-.2,0-.39.07-.57.11C52.41,56.73,52.6,56.69,52.8,56.66Zm3.56,1.23a6.39,6.39,0,0,0-.81-.62,6.39,6.39,0,0,1,.81.62,3.27,3.27,0,0,1,.37.38A3.27,3.27,0,0,0,56.36,57.88Zm-2.61-1.26.19,0Zm.34,0,.22.05Zm.35.08.24.08Zm.36.12.27.12Zm.37.17.38.22ZM57,65.44c.89.72,2.08,1.81,2.08,1.81l0,0,0,0S57.93,66.16,57,65.44Zm2.37,2-.11-.07Zm-.15-.11-.08-.06Zm.89.44h0Zm-.67-.29.14.08Zm.2.12.21.1Zm.25.11.17.05Zm1.34-.83-.79.81a.29.29,0,0,1-.14.07.29.29,0,0,0,.14-.07l.79-.81.2-.21ZM63.35,66l-.22,0Zm-.54.09-.22.05Zm-.58.2-.19.08Zm5.08,2.82,0,.1Zm-.91-1.56.08.11Zm.31.44.09.14Zm.3.5.07.12Zm.49,1.14.05.17Zm.16.56,0,.16Zm2.15,1.54h0Zm1.37-.05-.32,0Zm1-.13h0Zm.25.09h0Zm.25,0h0Zm.3,0,.07,0Zm.3-.16,0,0Zm.17-.23,0-.08Zm.17-1.55a4.37,4.37,0,0,1,.14-.56A4.39,4.39,0,0,0,73.63,69.67Zm-.09,1.14a5,5,0,0,1,0-.88A5,5,0,0,0,73.54,70.81Zm.32-1.94a4,4,0,0,1,.26-.53A4,4,0,0,0,73.86,68.86Zm.92-1.37a3.88,3.88,0,0,1,.43-.36A3.89,3.89,0,0,0,74.78,67.49Zm1.93-1a3.94,3.94,0,0,0-.67.21A3.93,3.93,0,0,1,76.7,66.46Zm-.86.29a3.91,3.91,0,0,0-.45.24A3.9,3.9,0,0,1,75.84,66.76Zm3.9.31.11.08Zm-1.79-.66h0Zm.55.11.15,0Zm.59.21.12.05Zm2.41,1.66h0Zm-.36-.09.1,0Zm.59.08a.73.73,0,0,0,.26-.09A.72.72,0,0,1,81.74,68.38ZM86.22,59l.14-.14Zm.48-.45.16-.13Zm2.1-.91-.2,0Zm-.66.15-.16,0Zm-.74.29-.11.06Zm3.39-.33a1.3,1.3,0,0,0,.34,0h0A1.3,1.3,0,0,1,90.79,57.76Zm.36,0a1,1,0,0,0,.28,0A1,1,0,0,1,91.15,57.81Zm.36-.08a.78.78,0,0,0,.19-.11A.78.78,0,0,1,91.51,57.73Zm.26-.17a.78.78,0,0,0,.18-.27A.78.78,0,0,1,91.77,57.56Zm1.17-2.92a4.83,4.83,0,0,0,.17-1.11A4.83,4.83,0,0,1,92.94,54.64ZM93.08,53h0a.87.87,0,0,0,.16-.36A.87.87,0,0,1,93.08,53Z"/><path class="cls-3" d="M71.71,39.36h-.28a7.19,7.19,0,0,0-3.83,1.32,6.14,6.14,0,0,0-4.22,2.95,8.52,8.52,0,0,0-.85,7.09,11.33,11.33,0,0,0,9.56,7.41h.4a7.38,7.38,0,0,0,5.81-3.26c2.18-2.88,3.17-7.06,2.35-10C79.65,41.45,75.32,39.36,71.71,39.36Zm8.73,7.56c0-.22,0-.44-.05-.65C80.4,46.48,80.43,46.69,80.43,46.92Zm-.08-1a6.71,6.71,0,0,0-.18-.89,5.1,5.1,0,0,0-.21-.61,5.1,5.1,0,0,1,.21.61A6.71,6.71,0,0,1,80.36,46Zm.07,1.35c0,.21,0,.41,0,.62C80.42,47.72,80.42,47.51,80.42,47.31Zm-.07,1c0,.2,0,.41-.08.61C80.31,48.77,80.33,48.56,80.35,48.36Zm-.17,1.06c0,.2-.08.41-.13.61C80.11,49.83,80.14,49.63,80.19,49.42Zm-.32-5.15c-.06-.13-.12-.26-.19-.38C79.74,44,79.8,44.14,79.86,44.27Zm-.33-.61c-.07-.11-.13-.22-.21-.32C79.4,43.45,79.46,43.56,79.53,43.67Zm-.39-.54-.23-.28Zm-.44-.5-.25-.25ZM66.08,45.92a3.56,3.56,0,0,0,1-1.29c.56-1,1.19-2.07,4.72-2.33l.56,0c4.21,0,5.09,3.85,5.25,6.15.09,1.24-.81,3.14-2.18,4.61a5.12,5.12,0,0,1-3.35,1.91,1.87,1.87,0,0,1-.65-.11,10.42,10.42,0,0,1-5-4.86C66.41,49.54,66.14,46.77,66.08,45.92Zm6.5-4.11.41,0Zm.84.07.36.07Zm.76.17.32.11Zm.67.26.29.15Zm.59.33.25.18Zm1,.85.19.22Zm.38.5.16.24Zm.32.53.13.24Zm.27.55.11.25Zm.22.56.08.25ZM76,43l.22.2Zm.22-2.17.32.16Zm-3.3-1,.35.05Zm.67.1.35.07Zm.67.15.35.1Zm.67.19.34.12Zm.66.23.33.14Zm-3.32-.74.34,0ZM71.8,55.4h0Zm3-1.08,0,0Zm-.55.39-.19.11Zm-.56.31-.22.09Zm-.57.23-.23.06Zm-.56.13-.24,0Zm2.95-1.69-.17.17Zm.22,3c-.15.1-.3.2-.46.28C75.4,56.87,75.55,56.77,75.7,56.67Zm1.89-5.94-.13.27Zm-.31.62-.15.26Zm-.37.62-.17.26Zm-.42.6-.19.24Zm-.47.58-.19.22Zm2.11-4.21c0,.06,0,.13,0,.19S78.11,49,78.12,48.93Zm-.1.58c0,.08,0,.16-.07.24C78,49.67,78,49.59,78,49.51Zm-.18.6-.1.26Zm-.07-3.9.06.24Zm.13.55,0,.22Zm.1.54,0,.19Zm.07.52,0,.14Zm-.14-5.88.28.23Zm-1.14-.75.31.18Zm.59.36.29.21Zm-5.68-1.71h0Zm-8.15,12.1a10.13,10.13,0,0,0,.81,1.28A10.14,10.14,0,0,1,63.56,51.94Zm3.59,3.94a11.65,11.65,0,0,1-1.22-1,11.66,11.66,0,0,0,1.22,1,11.08,11.08,0,0,0,2,1.1A11.08,11.08,0,0,1,67.14,55.88Zm5,1.78a5.63,5.63,0,0,0,.73,0c-.12,0-.24,0-.36,0Zm2.7-.51c-.16.07-.32.14-.49.2C74.48,57.3,74.65,57.22,74.81,57.15Zm-1,.33c-.17,0-.34.09-.52.11C73.51,57.57,73.68,57.52,73.85,57.48ZM76.1,56.4c.15-.11.29-.23.43-.35C76.39,56.17,76.25,56.3,76.1,56.4Zm.79-.67c.14-.13.26-.27.39-.41C77.16,55.46,77,55.6,76.9,55.73Zm.72-.78c.12-.15.24-.31.36-.47C77.86,54.64,77.75,54.8,77.62,54.95Zm.65-.87c.11-.17.21-.34.32-.52C78.48,53.74,78.38,53.91,78.27,54.08Zm1.65-3.58c-.06.2-.11.4-.18.6C79.81,50.89,79.86,50.69,79.92,50.49Zm-.36,1.06c-.07.19-.15.39-.23.58C79.42,51.94,79.49,51.75,79.56,51.55Zm-.44,1c-.09.19-.18.37-.28.55C78.94,53,79,52.76,79.12,52.58Z"/><path class="cls-3" d="M56.8,71.92a.77.77,0,0,0-.59-.56,9.21,9.21,0,0,1-2-1c-2.15-1.27-1.89-2.07-1.38-3.67a5.68,5.68,0,0,1,1.35-2.34l.25-.23-.13-.31a13.79,13.79,0,0,0-1.71-3c-.89-1-1.2-1.07-1.3-1.09l-.41-.08-.11.32a7.31,7.31,0,0,1-1.58.9,3.86,3.86,0,0,1-.56,0c-2.4,0-4.24-2.27-4.28-3.24,0-.32,0-.57,0-.77a1.74,1.74,0,0,0-.59-1.63A6,6,0,0,0,42,54.52,6.42,6.42,0,0,0,40,54.16a4.37,4.37,0,0,0-1.93.41,4.7,4.7,0,0,0-1.74,2c-.16.28-.31.55-.46.76a1.92,1.92,0,0,1-1.7.95,7.33,7.33,0,0,1-2-.4c-.33-.1-.68-.2-1-.28a1.62,1.62,0,0,0-.41-.73,1.59,1.59,0,0,0-1.12-.48,1.67,1.67,0,0,0-1.25.59c-.34.37-.71.73-1.06,1.08a17.05,17.05,0,0,0-1.88,2.06,1.54,1.54,0,0,0,0,2A2.47,2.47,0,0,1,26.33,64a2.93,2.93,0,0,1-1.37,2,8.45,8.45,0,0,1-2.45,1.24h-.14a1.66,1.66,0,0,0-1.58,1.45,15.8,15.8,0,0,0,0,2.39,17.13,17.13,0,0,1,.06,2,1.64,1.64,0,0,0,1.48,1.76,2.38,2.38,0,0,1,1.85.74c.43.67,0,1.89-.42,3.08a12.9,12.9,0,0,0-.59,2,1.31,1.31,0,0,0-.36,1.27,5.49,5.49,0,0,0,1.85,2.51,8.22,8.22,0,0,1,1.21,1.27,1.62,1.62,0,0,0,1.29.63,1.31,1.31,0,0,0,.68-.18,3.61,3.61,0,0,1,1.83-.46,3.16,3.16,0,0,1,3,1.72c.09.24.17.48.25.72a6.4,6.4,0,0,0,.67,1.56,1.47,1.47,0,0,0,.32,1,1.32,1.32,0,0,0,1,.5h0l1.14,0,1.08,0a13.22,13.22,0,0,1,1.64.09h.18a1.75,1.75,0,0,0,1.54-1.26c.73-2.19,1.82-3.17,3.53-3.17a9.45,9.45,0,0,1,3.23.75,1.33,1.33,0,0,0,1.12.63,1.35,1.35,0,0,0,.36,0A5.21,5.21,0,0,0,52,85.61a3,3,0,0,0,.13-2.51L52,82.78c-.57-1.43-1-2.57-.2-3.92a2.86,2.86,0,0,1,2-1.15,1.31,1.31,0,0,0,.68.18A1.58,1.58,0,0,0,55.94,77a10,10,0,0,0,.93-3.58,1.82,1.82,0,0,0,0-1.39Zm-5.86,9a3.41,3.41,0,0,1,0-1.14A3.41,3.41,0,0,0,50.94,81Zm-7.37,2.63h.05c.25,0,.49,0,.74,0A7.4,7.4,0,0,0,43.57,83.59Zm1.31,2.74a5.91,5.91,0,0,0-.73-.05A5.91,5.91,0,0,1,44.88,86.33Zm-10.34-.81a3.92,3.92,0,0,0-.73-1,3.92,3.92,0,0,1,.73,1A6,6,0,0,1,35,86.61,6,6,0,0,0,34.54,85.52ZM30,85.17h0ZM48.89,78.4a4.65,4.65,0,0,1,.33-.7A4.65,4.65,0,0,0,48.89,78.4Zm.47-.91a4.67,4.67,0,0,1,.29-.41A4.66,4.66,0,0,0,49.36,77.5Zm-.92.74a6.12,6.12,0,0,0-.14,4.27c.08.21.18.42.29.62.41.82.46,1.06.09,1.36h0a11.84,11.84,0,0,0-5-1.39,7.26,7.26,0,0,0-2.09.3c-1.64.5-2.88,1.87-3.79,4.2l-.6,0a5.1,5.1,0,0,0-1.39.17l-.08-.33a5.63,5.63,0,0,0-2.12-3.73,7.15,7.15,0,0,0-4.05-1.25,6.52,6.52,0,0,0-1.8.25A10.31,10.31,0,0,0,25.89,81a8.17,8.17,0,0,0,1.61-5.3,4.3,4.3,0,0,0-3.3-3.84,11.59,11.59,0,0,0-.15-2.25c2.54-.85,4.56-2.58,5.21-4.49a4.43,4.43,0,0,0-.57-3.93c.3-.32.62-.62,1-.94l.57-.54a6.09,6.09,0,0,0,4,1.62,3.91,3.91,0,0,0,1-.12,6,6,0,0,0,3.72-2.87l.15-.25c.39-.64.42-.65.7-.65a3.34,3.34,0,0,1,.51.05,9.83,9.83,0,0,1,1.44.32l.16.28a4.66,4.66,0,0,0,1.3,3.38,7.68,7.68,0,0,0,5.51,2.07,9,9,0,0,0,2-.21c.16.21.32.41.47.58l.11.21a4.85,4.85,0,0,0-1.29,4.37c-.19.76.62,2,.84,2.3a5.6,5.6,0,0,0,1.87,1.84l.09,0,.3.18.12.08h.14c.18,0,.23.06.24.08a1.51,1.51,0,0,1,0,1c-.06.26-.11.47-.16.67l-.06.22h-.08A5.17,5.17,0,0,0,48.44,78.23Zm1.72-1.68c-.11.1-.21.21-.31.32C49.95,76.76,50,76.66,50.16,76.56ZM37.26,88.07c-.19,0-.37,0-.55,0l.44,0Zm-10.64-9.5A6.77,6.77,0,0,0,27,77.21a6.77,6.77,0,0,1-.36,1.37,10.26,10.26,0,0,1-1,1.91A10.26,10.26,0,0,0,26.62,78.58Zm-.48-5A3.47,3.47,0,0,1,26.9,75,3.47,3.47,0,0,0,26.14,73.57Zm27.34-1.1a1,1,0,0,1,.16,0A1,1,0,0,0,53.47,72.47Zm.4.2a.69.69,0,0,0-.1-.07A.69.69,0,0,1,53.87,72.67Zm-.6-.23h0l-.41-.24ZM48.66,63h0Zm1-.06.24,0Zm-3.88-.44c-.21-.08-.4-.16-.6-.25C45.34,62.38,45.54,62.46,45.75,62.54Zm-.63-2.76.14.13Zm.33.31.15.12Zm.37.29.15.11Zm.41.27.15.09Zm.47.25.11.06Zm.57.23.09,0Zm.48.13.17,0Zm.5.08h0Zm.34,1.7L48,63Zm-.83,0-.46-.06Zm-.7-.1-.44-.1Zm-.66-.15-.53-.17Zm-2.82-1.56c.1.11.21.21.33.31C43.77,61.38,43.67,61.28,43.56,61.17Zm.5.44.34.24Zm.53.36.4.22Zm-1.52-1.39a4.39,4.39,0,0,0,.38.47A4.41,4.41,0,0,1,43.07,60.59Zm-.73-2.65a4.7,4.7,0,0,0,0,.69A4.7,4.7,0,0,1,42.33,57.93Zm0,.89a4.23,4.23,0,0,0,.08.44A4.24,4.24,0,0,1,42.38,58.83Zm.15.65a4,4,0,0,0,.15.39A4.06,4.06,0,0,1,42.53,59.48Zm.23.58a4.11,4.11,0,0,0,.24.42A4.1,4.1,0,0,1,42.76,60.06Zm-2.3-3a9.49,9.49,0,0,1,1.55.37h0A9.48,9.48,0,0,0,40.46,57Zm.21-2.31.33,0Zm-.81,2.23h0Zm-.52.05a1.08,1.08,0,0,1,.35-.06A1.07,1.07,0,0,0,39.34,57Zm-.55.54a2.37,2.37,0,0,1,.23-.31A2.33,2.33,0,0,0,38.8,57.53Zm.27-.35A.8.8,0,0,1,39.3,57,.79.79,0,0,0,39.07,57.18Zm-.6.88.24-.4Zm-4,2.74a3.26,3.26,0,0,0,.54-.09A3.26,3.26,0,0,1,34.49,60.81Zm1.39-2.74L36,58Zm-.88.59.09,0Zm.3-.14.11-.06Zm.29-.19.1-.08Zm-1.25,2.49h-.17l-.25,0Zm-1-2.1a4.4,4.4,0,0,0,.79.09A4.4,4.4,0,0,1,33.3,58.71Zm1,.08h0Zm.4,0h0ZM30.22,59a4.71,4.71,0,0,0,.44.43A4.7,4.7,0,0,1,30.22,59Zm.59.56.34.26Zm.54.39.36.21Zm.57.32.42.18Zm.59.25a5.57,5.57,0,0,0,.6.18A5.57,5.57,0,0,1,32.5,60.51Zm.71.2.5.08Zm-5.14.41h0c.34-.37.7-.72,1.06-1.07C28.77,60.4,28.42,60.75,28.08,61.12ZM29,63.76a4,4,0,0,1-.48,1.81A4,4,0,0,0,29,63.76Zm-5.29,7.69c0,.25,0,.5,0,.74a6.18,6.18,0,0,1,.81.27,6.18,6.18,0,0,0-.81-.27C23.72,71.94,23.72,71.7,23.72,71.45Zm2,1.69a4.07,4.07,0,0,0-.42-.3A4.07,4.07,0,0,1,25.69,73.14Zm3.82,9.79h0Zm-.83.07-.26,0Zm3.85.65-.24-.11Zm-.86-.35-.25-.08ZM30.53,83h0ZM36,88.2a3.47,3.47,0,0,0-.56.18A3.46,3.46,0,0,1,36,88.2Zm.71-.12a4.43,4.43,0,0,0-.57.08A4.44,4.44,0,0,1,36.71,88.08Zm.38,2.52h0Zm.93,0h0Zm3.78-3.53a3.85,3.85,0,0,0-.41.4A3.86,3.86,0,0,1,41.79,87.08ZM43,83.63l-.32,0Zm5.77,1.42L48,84.7Zm-1-.45-.58-.24ZM47,84.28,46.2,84Zm-.89-.3-.67-.18Zm-.91-.23-.62-.1Zm5.22-7.38c.11-.09.22-.17.34-.25Zm2.37-1-.4.06Zm-.71.13-.39.12Zm-.68.24L51,76Zm1.87-.41.46,0a4.42,4.42,0,0,0-.62,0ZM54,72.82a.87.87,0,0,1,.05.09A.87.87,0,0,0,54,72.82ZM54,74.11s0-.11,0-.21C54,74,54,74.08,54,74.11Zm.06-.34s0,0,0-.07S54.09,73.75,54.08,73.77Zm0-.27s0-.05,0-.08S54.1,73.47,54.1,73.49Zm0-.39s0,.06,0,.09S54.07,73.14,54.07,73.1Zm-1.64-6.58c-.07.21-.13.41-.19.6s-.11.38-.14.56a3.18,3.18,0,0,0-.07.53,3.18,3.18,0,0,1,.07-.53c0-.18.09-.37.14-.56s.12-.39.19-.6a7.07,7.07,0,0,1,.46-1.1A7.07,7.07,0,0,0,52.43,66.52Zm1.33-2.84c-.14-.3-.36-.78-.62-1.27C53.4,62.9,53.63,63.38,53.76,63.68Zm-4.38-2.38a4.3,4.3,0,0,1-.64.05A4.3,4.3,0,0,0,49.38,61.31ZM44.43,59l-.09-.14Zm.51.64-.12-.14Zm-.27-.32-.11-.14ZM44,57.92,44,58Zm.08.28,0,.12Zm.13.3.07.13Zm-.26-1.28c0-.27,0-.47,0-.65C43.92,56.75,43.91,57,43.91,57.22Zm-.52-1.67.08.05Zm-1.11-.48.12,0Zm.23.08.14.06Zm.25.1.14.06Zm.25.11.12.06Zm.22.1.11.06Zm-1-.43-.09,0Zm-.15,0h0ZM40,54.64a4.7,4.7,0,0,0-.61.05,4.65,4.65,0,0,1,.58-.06Zm-.93.08a3.31,3.31,0,0,0-.83.27A3.31,3.31,0,0,1,39.06,54.73Zm-6.78,3.73-.23-.07Zm1,.26c-.28-.05-.55-.13-.84-.21C32.74,58.58,33,58.66,33.3,58.71Zm-1.6-.43-.14,0Zm-1.27-1-.07-.08Zm.21.34,0-.1ZM30,57h0Zm-.38-.08a1,1,0,0,0-.26,0l.21,0Zm-.57.13a1.15,1.15,0,0,1,.3-.12A1.16,1.16,0,0,0,29.09,57.05Zm-.07,0a1.48,1.48,0,0,0-.3.24A1.48,1.48,0,0,1,29,57.1Zm-3.22,4.67a.75.75,0,0,1-.18-.3,1,1,0,0,1,0-.36,1,1,0,0,0,0,.36.75.75,0,0,0,.18.3,3.25,3.25,0,0,1,1,1.8A3.25,3.25,0,0,0,25.79,61.77Zm-3.25,5.88-.19,0h0Zm-.87.26,0,0ZM22,67.7l-.05,0Zm-.62.53,0,0Zm-.16,1.5c0,.73.09,1.47.13,2.2C21.34,71.2,21.26,70.46,21.24,69.73Zm1.17,4.56a1.09,1.09,0,0,1-.31-.09,1.09,1.09,0,0,0,.31.09c2,.17,2.5,1,2.47,2C24.91,75.26,24.36,74.46,22.41,74.29ZM26.3,85.37a.89.89,0,0,0,.23.22A.89.89,0,0,1,26.3,85.37Zm.62.39a1.14,1.14,0,0,0,.34,0H27.2A1.17,1.17,0,0,1,26.92,85.76Zm-.32-.13a1.23,1.23,0,0,0,.27.12A1.21,1.21,0,0,1,26.61,85.63Zm.72.15a.78.78,0,0,0,.31-.1h0A.78.78,0,0,1,27.33,85.78Zm1.81-.59h0Zm-.7.15-.17.06Zm3.76.57,0,0Zm-1.49-.65h0Zm.75.24.16.07Zm1.27.92.11.14Zm.89,2a4,4,0,0,0,.55,1.11h0A4,4,0,0,1,33.61,88.4Zm.56,1.5a1,1,0,0,0,.16.36A1,1,0,0,1,34.17,89.9Zm4.78.79h0Zm.78-.28,0,0Zm-.32.21,0,0Zm.58-.51,0,0Zm.6-1.39c.08-.17.16-.33.25-.48C40.75,88.4,40.67,88.56,40.58,88.72Zm-.43,1c.1-.3.21-.56.32-.82C40.36,89.2,40.25,89.47,40.16,89.77Zm1.09-2.12c-.1.12-.19.25-.28.38C41.06,87.89,41.15,87.77,41.25,87.65Zm.57-.6a3.35,3.35,0,0,1,.48-.32A3.35,3.35,0,0,0,41.82,87Zm2.25-.77-.5,0Zm-.69.07-.38.09Zm-.57.15-.36.16Zm4.89.62-.84-.3.84.3a1,1,0,0,0,.15.23A1,1,0,0,1,47.71,87.11Zm-2.64-.76c.24,0,.49.08.74.15C45.56,86.44,45.31,86.39,45.07,86.35Zm.77.15c.27.07.54.15.82.24C46.38,86.65,46.11,86.57,45.84,86.51Zm2.09.9.15.12Zm.24.16.17.06Zm.33.08h-.06a.83.83,0,0,0,.29,0A.87.87,0,0,1,48.49,87.65Zm4.36-10.16a2.89,2.89,0,0,0-1.21.81,2.43,2.43,0,0,0-.23.31,3.89,3.89,0,0,0-.3.61,3.89,3.89,0,0,1,.3-.61,2.43,2.43,0,0,1,.23-.31,2.89,2.89,0,0,1,1.21-.81,6.6,6.6,0,0,1,1.09-.29h0A6.6,6.6,0,0,0,52.85,77.49Zm1.61-.09h0Zm-.28-.06.07,0Zm.62,0h0Zm.26-.11.07,0Zm.23-.18.06-.06Z"/><path class="cls-3" d="M39.34,65.57a7,7,0,0,0-3.79,1.6c-1.42.38-2.36,2.22-3,3.59-.94,2.19,0,3.71,1,5.46l.47.79a4.71,4.71,0,0,0,4.14,2.14,8,8,0,0,0,4.86-1.88,5.42,5.42,0,0,0,2.08-3.85c.12-1.39-.19-3.56-2.38-6A4.68,4.68,0,0,0,39.34,65.57Zm-4.28,6.11a.48.48,0,0,1-.11.05,7.44,7.44,0,0,0,.18,1,7.45,7.45,0,0,1-.18-1A.48.48,0,0,0,35.06,71.69Zm4.54,4.57a2,2,0,0,1-.79.18c-1.56,0-2.78-2.31-3.21-3.87a5.75,5.75,0,0,1-.12-.59,15.16,15.16,0,0,0,1.35-1.16c.83-.77,1.61-1.5,2.39-1.5a2.41,2.41,0,0,1,1.65.93,3.67,3.67,0,0,1,1.07,3.27A3.88,3.88,0,0,1,39.6,76.26Zm.2.44a2.65,2.65,0,0,1-.48.16A2.65,2.65,0,0,0,39.8,76.69Zm-.64.18-.31,0Zm2.05-7a5.17,5.17,0,0,0-.51-.47,5.17,5.17,0,0,1,.51.47Zm0-3.27.24.17Zm-1.88,2.2.27,0Zm.45.08.28.11Zm.46.2a3.28,3.28,0,0,1,.32.21A3.29,3.29,0,0,0,40.23,69.13Zm-1.06-.28a1.93,1.93,0,0,0-.48.07A1.93,1.93,0,0,1,39.17,68.85Zm-2.47,1.44.37-.34Zm.5-.45c.15-.13.3-.25.45-.37C37.49,69.59,37.34,69.71,37.19,69.84Zm.51-.4a4.39,4.39,0,0,1,.4-.26A4.39,4.39,0,0,0,37.7,69.44Zm.52-.32a2.62,2.62,0,0,1,.41-.17A2.63,2.63,0,0,0,38.22,69.12ZM35.56,71.3l.14-.12Zm.53-.46.09-.08Zm-.67,2.71-.05-.14Zm-.14-.39,0-.12Zm.3.78-.07-.15ZM37,76.08l.12.11ZM37,78.53l-.2-.06Zm-.24-2.64-.1-.11Zm-.29-.35-.08-.1Zm-.32-.45,0,0ZM36,74.71l-.07-.13Zm-.2-.39-.07-.15Zm2.82,2.58h0Zm-.48-.1-.06,0Zm-.35-.15-.12-.07Zm-.33-.21-.12-.09Zm2.53,2-.38.1Zm-.6.15-.42.07Zm1.88-.66-.4.19Zm-.65.3-.38.14Zm1.84-10.45c-.14-.15-.28-.3-.42-.43C42.15,67.44,42.28,67.59,42.42,67.74ZM41.6,67l.27.24Zm-2.15-.89h0Zm1.58.49-.23-.13Zm-.4-.21-.22-.09Zm-.4-.15L40,66.13Zm-.39-.09-.21,0Zm-.82,0-.19,0Zm-.42.07-.19,0Zm-.43.12-.19.06Zm-.43.17-.19.08Zm-.44.21-.18.1Zm-.46.25-.17.1Zm-.48.3-.15.1ZM33.63,75.3c.27.47.58.95.88,1.47h0C34.21,76.25,33.9,75.77,33.63,75.3Zm1.13,1.83.1.11Zm.31.34.14.12Zm1.45.9-.2-.08ZM36,78.16l-.19-.1Zm-.44-.26-.16-.12Zm1.86.71.16,0Zm.76.06.55,0-.54,0Zm3.91-1.3c.22-.15.44-.3.66-.47C42.57,77.07,42.35,77.22,42.13,77.37Zm-.65.39.44-.26Z"/><circle class="cls-8" cx="57.5" cy="57.5" r="55.58"/></svg>